<?xml version="1.0" encoding="UTF-8" standalone="no"?>
<!DOCTYPE svg PUBLIC "-//W3C//DTD SVG 1.1//EN"
 "http://www.w3.org/Graphics/SVG/1.1/DTD/svg11.dtd">
<!-- Generated by graphviz version 2.47.3 (20210619.1520)
 -->
<!-- Title: Photon.Pun.PhotonAnimatorView.OnPhotonSerializeView Pages: 1 -->
<!--zoomable 384 -->
<svg id="main" version="1.1" xmlns="http://www.w3.org/2000/svg" xmlns:xlink="http://www.w3.org/1999/xlink" xml:space="preserve" onload="init(evt)">
<style type="text/css"><![CDATA[
.edge:hover path { stroke: red; }
.edge:hover polygon { stroke: red; fill: red; }
]]></style>
<script type="text/javascript"><![CDATA[
var edges = document.getElementsByTagName('g');
if (edges && edges.length) {
  for (var i=0;i<edges.length;i++) {
    if (edges[i].id.substr(0,4)=='edge') {
      edges[i].setAttribute('class','edge');
    }
  }
}
]]></script>
        <defs>
                <circle id="rim" cx="0" cy="0" r="7"/>
                <circle id="rim2" cx="0" cy="0" r="3.5"/>
                <g id="zoomPlus">
                        <use xlink:href="#rim" fill="#404040">
                                <set attributeName="fill" to="#808080" begin="zoomplus.mouseover" end="zoomplus.mouseout"/>
                        </use>
                        <path d="M-4,0h8M0,-4v8" fill="none" stroke="white" stroke-width="1.5" pointer-events="none"/>
                </g>
                <g id="zoomMin">
                        <use xlink:href="#rim" fill="#404040">
                                <set attributeName="fill" to="#808080" begin="zoomminus.mouseover" end="zoomminus.mouseout"/>
                        </use>
                        <path d="M-4,0h8" fill="none" stroke="white" stroke-width="1.5" pointer-events="none"/>
                </g>
                <g id="dirArrow">
                        <path fill="none" stroke="white" stroke-width="1.5" d="M0,-3.0v7 M-2.5,-0.5L0,-3.0L2.5,-0.5"/>
                </g>
               <g id="resetDef">
                       <use xlink:href="#rim2" fill="#404040">
                               <set attributeName="fill" to="#808080" begin="reset.mouseover" end="reset.mouseout"/>
                       </use>
               </g>
        </defs>

<script type="text/javascript">
var viewWidth = 551;
var viewHeight = 384;
var sectionId = 'dynsection-14';
</script>
<script xlink:href="svgpan.js"/>
<svg id="graph" class="graph">
<g id="viewport">
<title>Photon.Pun.PhotonAnimatorView.OnPhotonSerializeView</title>
<polygon fill="white" stroke="transparent" points="-4,4 -4,-380 547,-380 547,4 -4,4"/>
<!-- Node1 -->
<g id="node1" class="node">
<title>Node1</title>
<g id="a_node1"><a xlink:title="Called by PUN several times per second, so that your script can write and read synchronization data f...">
<polygon fill="#bfbfbf" stroke="black" points="0,-169.5 0,-199.5 143,-199.5 143,-169.5 0,-169.5"/>
<text text-anchor="start" x="8" y="-187.5" font-family="Helvetica,sans-Serif" font-size="10.00">Photon.Pun.PhotonAnimator</text>
<text text-anchor="middle" x="71.5" y="-176.5" font-family="Helvetica,sans-Serif" font-size="10.00">View.OnPhotonSerializeView</text>
</a>
</g>
</g>
<!-- Node1&#45;&gt;Node1 -->
<g id="edge8" class="edge">
<title>Node1&#45;&gt;Node1</title>
<path fill="none" stroke="midnightblue" d="M36.3,-199.66C27.81,-209.06 39.54,-218 71.5,-218 90.97,-218 102.94,-214.68 107.39,-209.96"/>
<polygon fill="midnightblue" stroke="midnightblue" points="110.86,-209.4 106.7,-199.66 103.88,-209.87 110.86,-209.4"/>
</g>
<!-- Node2 -->
<g id="node2" class="node">
<title>Node2</title>
<g id="a_node2"><a xlink:href="class_photon_1_1_pun_1_1_photon_stream_queue.xhtml#a576b08634a4833827b019071ddfefe09" target="_top" xlink:title="Deserializes the specified stream.">
<polygon fill="white" stroke="black" points="193,-345.5 193,-375.5 357,-375.5 357,-345.5 193,-345.5"/>
<text text-anchor="start" x="201" y="-363.5" font-family="Helvetica,sans-Serif" font-size="10.00">Photon.Pun.PhotonStreamQueue.</text>
<text text-anchor="middle" x="275" y="-352.5" font-family="Helvetica,sans-Serif" font-size="10.00">Deserialize</text>
</a>
</g>
</g>
<!-- Node1&#45;&gt;Node2 -->
<g id="edge1" class="edge">
<title>Node1&#45;&gt;Node2</title>
<path fill="none" stroke="midnightblue" d="M78.8,-199.59C92.36,-230.18 127.35,-299.64 179,-335.5 181.89,-337.51 184.93,-339.35 188.08,-341.05"/>
<polygon fill="midnightblue" stroke="midnightblue" points="186.67,-344.26 197.2,-345.45 189.72,-337.95 186.67,-344.26"/>
</g>
<!-- Node4 -->
<g id="node4" class="node">
<title>Node4</title>
<g id="a_node4"><a xlink:href="class_photon_1_1_pun_1_1_photon_animator_view.xhtml#ac314c73fb9019a95360650e317c748e0" target="_top" xlink:title=" ">
<polygon fill="white" stroke="black" points="201.5,-235.5 201.5,-265.5 348.5,-265.5 348.5,-235.5 201.5,-235.5"/>
<text text-anchor="start" x="209.5" y="-253.5" font-family="Helvetica,sans-Serif" font-size="10.00">Photon.Pun.PhotonAnimator</text>
<text text-anchor="middle" x="275" y="-242.5" font-family="Helvetica,sans-Serif" font-size="10.00">View.DeserializeDataDiscretly</text>
</a>
</g>
</g>
<!-- Node1&#45;&gt;Node4 -->
<g id="edge3" class="edge">
<title>Node1&#45;&gt;Node4</title>
<path fill="none" stroke="midnightblue" d="M116.48,-199.59C135.65,-206.11 158.41,-213.77 179,-220.5 190.93,-224.4 203.74,-228.5 215.96,-232.38"/>
<polygon fill="midnightblue" stroke="midnightblue" points="215.02,-235.75 225.61,-235.43 217.13,-229.07 215.02,-235.75"/>
</g>
<!-- Node5 -->
<g id="node5" class="node">
<title>Node5</title>
<g id="a_node5"><a xlink:href="class_photon_1_1_pun_1_1_photon_stream.xhtml#a7e69f29f517f8ed3148d8dccef982ea6" target="_top" xlink:title="Read next piece of data from the stream without advancing the &quot;current&quot; item.">
<polygon fill="white" stroke="black" points="407,-213.5 407,-243.5 543,-243.5 543,-213.5 407,-213.5"/>
<text text-anchor="start" x="415" y="-231.5" font-family="Helvetica,sans-Serif" font-size="10.00">Photon.Pun.PhotonStream.</text>
<text text-anchor="middle" x="475" y="-220.5" font-family="Helvetica,sans-Serif" font-size="10.00">PeekNext</text>
</a>
</g>
</g>
<!-- Node1&#45;&gt;Node5 -->
<g id="edge9" class="edge">
<title>Node1&#45;&gt;Node5</title>
<path fill="none" stroke="midnightblue" d="M143.36,-192.27C214.42,-200.05 323.53,-212.01 396.77,-220.04"/>
<polygon fill="midnightblue" stroke="midnightblue" points="396.54,-223.53 406.86,-221.14 397.3,-216.57 396.54,-223.53"/>
</g>
<!-- Node6 -->
<g id="node6" class="node">
<title>Node6</title>
<g id="a_node6"><a xlink:href="class_photon_1_1_pun_1_1_photon_animator_view.xhtml#adfc95da44c01ffefe279fc3b1c7f57ad" target="_top" xlink:title=" ">
<polygon fill="white" stroke="black" points="196,-285 196,-326 354,-326 354,-285 196,-285"/>
<text text-anchor="start" x="204" y="-314" font-family="Helvetica,sans-Serif" font-size="10.00">Photon.Pun.PhotonAnimator</text>
<text text-anchor="start" x="204" y="-303" font-family="Helvetica,sans-Serif" font-size="10.00">View.DeserializeSynchronization</text>
<text text-anchor="middle" x="275" y="-292" font-family="Helvetica,sans-Serif" font-size="10.00">TypeState</text>
</a>
</g>
</g>
<!-- Node1&#45;&gt;Node6 -->
<g id="edge6" class="edge">
<title>Node1&#45;&gt;Node6</title>
<path fill="none" stroke="midnightblue" d="M86.24,-199.52C105.27,-219.51 141.57,-254.74 179,-275.5 182.29,-277.33 185.72,-279.06 189.22,-280.7"/>
<polygon fill="midnightblue" stroke="midnightblue" points="188.09,-284.03 198.65,-284.84 190.9,-277.62 188.09,-284.03"/>
</g>
<!-- Node7 -->
<g id="node7" class="node">
<title>Node7</title>
<g id="a_node7"><a xlink:href="class_photon_1_1_pun_1_1_photon_stream_queue.xhtml#a065ec40dbb214e468ede584377910e66" target="_top" xlink:title="Resets the PhotonStreamQueue.">
<polygon fill="white" stroke="black" points="193,-147.5 193,-177.5 357,-177.5 357,-147.5 193,-147.5"/>
<text text-anchor="start" x="201" y="-165.5" font-family="Helvetica,sans-Serif" font-size="10.00">Photon.Pun.PhotonStreamQueue.</text>
<text text-anchor="middle" x="275" y="-154.5" font-family="Helvetica,sans-Serif" font-size="10.00">Reset</text>
</a>
</g>
</g>
<!-- Node1&#45;&gt;Node7 -->
<g id="edge10" class="edge">
<title>Node1&#45;&gt;Node7</title>
<path fill="none" stroke="midnightblue" d="M143.26,-176.77C156,-175.38 169.45,-173.92 182.67,-172.47"/>
<polygon fill="midnightblue" stroke="midnightblue" points="183.17,-175.94 192.73,-171.37 182.41,-168.98 183.17,-175.94"/>
</g>
<!-- Node8 -->
<g id="node8" class="node">
<title>Node8</title>
<g id="a_node8"><a xlink:href="class_photon_1_1_pun_1_1_photon_stream_queue.xhtml#aa894acf4883faf5806f75f4d757022a4" target="_top" xlink:title="Serializes the specified stream.">
<polygon fill="white" stroke="black" points="193,-98.5 193,-128.5 357,-128.5 357,-98.5 193,-98.5"/>
<text text-anchor="start" x="201" y="-116.5" font-family="Helvetica,sans-Serif" font-size="10.00">Photon.Pun.PhotonStreamQueue.</text>
<text text-anchor="middle" x="275" y="-105.5" font-family="Helvetica,sans-Serif" font-size="10.00">Serialize</text>
</a>
</g>
</g>
<!-- Node1&#45;&gt;Node8 -->
<g id="edge11" class="edge">
<title>Node1&#45;&gt;Node8</title>
<path fill="none" stroke="midnightblue" d="M104.16,-169.33C125.09,-159.68 153.3,-147.38 179,-138.5 186.31,-135.98 194.01,-133.56 201.74,-131.3"/>
<polygon fill="midnightblue" stroke="midnightblue" points="202.85,-134.62 211.51,-128.51 200.93,-127.89 202.85,-134.62"/>
</g>
<!-- Node10 -->
<g id="node10" class="node">
<title>Node10</title>
<g id="a_node10"><a xlink:href="class_photon_1_1_pun_1_1_photon_animator_view.xhtml#a65ab6baae9a0ef142fdc89f82d38c9f0" target="_top" xlink:title=" ">
<polygon fill="white" stroke="black" points="205,-49.5 205,-79.5 345,-79.5 345,-49.5 205,-49.5"/>
<text text-anchor="start" x="213" y="-67.5" font-family="Helvetica,sans-Serif" font-size="10.00">Photon.Pun.PhotonAnimator</text>
<text text-anchor="middle" x="275" y="-56.5" font-family="Helvetica,sans-Serif" font-size="10.00">View.SerializeDataDiscretly</text>
</a>
</g>
</g>
<!-- Node1&#45;&gt;Node10 -->
<g id="edge13" class="edge">
<title>Node1&#45;&gt;Node10</title>
<path fill="none" stroke="midnightblue" d="M84.94,-169.37C103.29,-148.06 139.7,-109.49 179,-88.5 184.14,-85.75 189.61,-83.31 195.23,-81.14"/>
<polygon fill="midnightblue" stroke="midnightblue" points="196.53,-84.39 204.78,-77.75 194.19,-77.8 196.53,-84.39"/>
</g>
<!-- Node11 -->
<g id="node11" class="node">
<title>Node11</title>
<g id="a_node11"><a xlink:href="class_photon_1_1_pun_1_1_photon_animator_view.xhtml#a06600cec906856d913823f07fb1fc62a" target="_top" xlink:title=" ">
<polygon fill="white" stroke="black" points="179,-0.5 179,-30.5 371,-30.5 371,-0.5 179,-0.5"/>
<text text-anchor="start" x="187" y="-18.5" font-family="Helvetica,sans-Serif" font-size="10.00">Photon.Pun.PhotonAnimator</text>
<text text-anchor="middle" x="275" y="-7.5" font-family="Helvetica,sans-Serif" font-size="10.00">View.SerializeSynchronizationTypeState</text>
</a>
</g>
</g>
<!-- Node1&#45;&gt;Node11 -->
<g id="edge15" class="edge">
<title>Node1&#45;&gt;Node11</title>
<path fill="none" stroke="midnightblue" d="M79.37,-169.06C93.49,-139.16 128.73,-73.33 179,-39.5 181.3,-37.95 183.7,-36.5 186.16,-35.15"/>
<polygon fill="midnightblue" stroke="midnightblue" points="187.93,-38.18 195.36,-30.63 184.84,-31.89 187.93,-38.18"/>
</g>
<!-- Node3 -->
<g id="node3" class="node">
<title>Node3</title>
<g id="a_node3"><a xlink:href="class_photon_1_1_pun_1_1_photon_stream.xhtml#a50038b09fdec1b4d1072c9f8b5a231dc" target="_top" xlink:title="Read next piece of data from the stream when IsReading is true.">
<polygon fill="white" stroke="black" points="407,-290.5 407,-320.5 543,-320.5 543,-290.5 407,-290.5"/>
<text text-anchor="start" x="415" y="-308.5" font-family="Helvetica,sans-Serif" font-size="10.00">Photon.Pun.PhotonStream.</text>
<text text-anchor="middle" x="475" y="-297.5" font-family="Helvetica,sans-Serif" font-size="10.00">ReceiveNext</text>
</a>
</g>
</g>
<!-- Node2&#45;&gt;Node3 -->
<g id="edge2" class="edge">
<title>Node2&#45;&gt;Node3</title>
<path fill="none" stroke="midnightblue" d="M334.09,-345.47C346.3,-342.24 359.08,-338.8 371,-335.5 384.72,-331.7 399.43,-327.49 413.32,-323.46"/>
<polygon fill="midnightblue" stroke="midnightblue" points="414.64,-326.72 423.26,-320.56 412.68,-320 414.64,-326.72"/>
</g>
<!-- Node4&#45;&gt;Node3 -->
<g id="edge5" class="edge">
<title>Node4&#45;&gt;Node3</title>
<path fill="none" stroke="midnightblue" d="M334.09,-265.53C346.3,-268.76 359.08,-272.2 371,-275.5 384.72,-279.3 399.43,-283.51 413.32,-287.54"/>
<polygon fill="midnightblue" stroke="midnightblue" points="412.68,-291 423.26,-290.44 414.64,-284.28 412.68,-291"/>
</g>
<!-- Node4&#45;&gt;Node5 -->
<g id="edge4" class="edge">
<title>Node4&#45;&gt;Node5</title>
<path fill="none" stroke="midnightblue" d="M348.6,-242.43C364.27,-240.69 380.88,-238.85 396.71,-237.09"/>
<polygon fill="midnightblue" stroke="midnightblue" points="397.44,-240.53 406.99,-235.95 396.66,-233.57 397.44,-240.53"/>
</g>
<!-- Node6&#45;&gt;Node3 -->
<g id="edge7" class="edge">
<title>Node6&#45;&gt;Node3</title>
<path fill="none" stroke="midnightblue" d="M354.25,-305.5C368.26,-305.5 382.84,-305.5 396.82,-305.5"/>
<polygon fill="midnightblue" stroke="midnightblue" points="396.87,-309 406.87,-305.5 396.87,-302 396.87,-309"/>
</g>
<!-- Node9 -->
<g id="node9" class="node">
<title>Node9</title>
<g id="a_node9"><a xlink:href="class_photon_1_1_pun_1_1_photon_stream.xhtml#adf067be77d2034b07fd696d97110a57a" target="_top" xlink:title="Add another piece of data to send it when IsWriting is true.">
<polygon fill="white" stroke="black" points="407,-49.5 407,-79.5 543,-79.5 543,-49.5 407,-49.5"/>
<text text-anchor="start" x="415" y="-67.5" font-family="Helvetica,sans-Serif" font-size="10.00">Photon.Pun.PhotonStream.</text>
<text text-anchor="middle" x="475" y="-56.5" font-family="Helvetica,sans-Serif" font-size="10.00">SendNext</text>
</a>
</g>
</g>
<!-- Node8&#45;&gt;Node9 -->
<g id="edge12" class="edge">
<title>Node8&#45;&gt;Node9</title>
<path fill="none" stroke="midnightblue" d="M336.75,-98.47C357.85,-93.24 381.68,-87.35 403.5,-81.95"/>
<polygon fill="midnightblue" stroke="midnightblue" points="404.5,-85.31 413.36,-79.51 402.81,-78.51 404.5,-85.31"/>
</g>
<!-- Node10&#45;&gt;Node9 -->
<g id="edge14" class="edge">
<title>Node10&#45;&gt;Node9</title>
<path fill="none" stroke="midnightblue" d="M345.25,-64.5C361.78,-64.5 379.53,-64.5 396.41,-64.5"/>
<polygon fill="midnightblue" stroke="midnightblue" points="396.79,-68 406.79,-64.5 396.79,-61 396.79,-68"/>
</g>
<!-- Node11&#45;&gt;Node9 -->
<g id="edge16" class="edge">
<title>Node11&#45;&gt;Node9</title>
<path fill="none" stroke="midnightblue" d="M336.75,-30.53C357.85,-35.76 381.68,-41.65 403.5,-47.05"/>
<polygon fill="midnightblue" stroke="midnightblue" points="402.81,-50.49 413.36,-49.49 404.5,-43.69 402.81,-50.49"/>
</g>
</g>
</svg>
        <g id="navigator" transform="translate(0 0)" fill="#404254">
                <rect fill="#f2f5e9" fill-opacity="0.5" stroke="#606060" stroke-width=".5" x="0" y="0" width="60" height="60"/>
                <use id="zoomplus" xlink:href="#zoomPlus" x="17" y="9" onmousedown="handleZoom(evt,'in')"/>
                <use id="zoomminus" xlink:href="#zoomMin" x="42" y="9" onmousedown="handleZoom(evt,'out')"/>
                <use id="reset" xlink:href="#resetDef" x="30" y="36" onmousedown="handleReset()"/>
                <g id="arrowUp" xlink:href="#dirArrow" transform="translate(30 24)" onmousedown="handlePan(0,-1)">
                  <use xlink:href="#rim" fill="#404040">
                        <set attributeName="fill" to="#808080" begin="arrowUp.mouseover" end="arrowUp.mouseout"/>
                  </use>
                  <path fill="none" stroke="white" stroke-width="1.5" d="M0,-3.0v7 M-2.5,-0.5L0,-3.0L2.5,-0.5"/>
                </g>
                <g id="arrowRight" xlink:href="#dirArrow" transform="rotate(90) translate(36 -43)" onmousedown="handlePan(1,0)">
                  <use xlink:href="#rim" fill="#404040">
                        <set attributeName="fill" to="#808080" begin="arrowRight.mouseover" end="arrowRight.mouseout"/>
                  </use>
                  <path fill="none" stroke="white" stroke-width="1.5" d="M0,-3.0v7 M-2.5,-0.5L0,-3.0L2.5,-0.5"/>
                </g>
                <g id="arrowDown" xlink:href="#dirArrow" transform="rotate(180) translate(-30 -48)" onmousedown="handlePan(0,1)">
                  <use xlink:href="#rim" fill="#404040">
                        <set attributeName="fill" to="#808080" begin="arrowDown.mouseover" end="arrowDown.mouseout"/>
                  </use>
                  <path fill="none" stroke="white" stroke-width="1.5" d="M0,-3.0v7 M-2.5,-0.5L0,-3.0L2.5,-0.5"/>
                </g>
                <g id="arrowLeft" xlink:href="#dirArrow" transform="rotate(270) translate(-36 17)" onmousedown="handlePan(-1,0)">
                  <use xlink:href="#rim" fill="#404040">
                        <set attributeName="fill" to="#808080" begin="arrowLeft.mouseover" end="arrowLeft.mouseout"/>
                  </use>
                  <path fill="none" stroke="white" stroke-width="1.5" d="M0,-3.0v7 M-2.5,-0.5L0,-3.0L2.5,-0.5"/>
                </g>
        </g>
        <svg viewBox="0 0 15 15" width="100%" height="30px" preserveAspectRatio="xMaxYMin meet">
         <g id="arrow_out" transform="scale(0.3 0.3)">
          <a xlink:href="class_photon_1_1_pun_1_1_photon_animator_view_a35a3d7a2cff101c804c6e71ea0df1a32_cgraph_org.svg" target="_base">
           <rect id="button" ry="5" rx="5" y="6" x="6" height="38" width="38"
                fill="#f2f5e9" fill-opacity="0.5" stroke="#606060" stroke-width="1.0"/>
           <path id="arrow"
             d="M 11.500037,31.436501 C 11.940474,20.09759 22.043105,11.32322 32.158766,21.979434 L 37.068811,17.246167 C 37.068811,17.246167 37.088388,32 37.088388,32 L 22.160133,31.978069 C 22.160133,31.978069 26.997745,27.140456 26.997745,27.140456 C 18.528582,18.264221 13.291696,25.230495 11.500037,31.436501 z"
             style="fill:#404040;"/>
          </a>
         </g>
        </svg>
</svg>
