<?xml version="1.0" encoding="UTF-8" standalone="no"?>
<!DOCTYPE svg PUBLIC "-//W3C//DTD SVG 1.1//EN"
 "http://www.w3.org/Graphics/SVG/1.1/DTD/svg11.dtd">
<!-- Generated by graphviz version 2.47.3 (20210619.1520)
 -->
<!-- Title: Photon.Realtime.MatchMakingCallbacksContainer Pages: 1 -->
<svg width="300pt" height="95pt"
 viewBox="0.00 0.00 300.00 95.00" xmlns="http://www.w3.org/2000/svg" xmlns:xlink="http://www.w3.org/1999/xlink">
<g id="graph0" class="graph" transform="scale(1 1) rotate(0) translate(4 91)">
<title>Photon.Realtime.MatchMakingCallbacksContainer</title>
<polygon fill="white" stroke="transparent" points="-4,4 -4,-91 296,-91 296,4 -4,4"/>
<!-- Node1 -->
<g id="node1" class="node">
<title>Node1</title>
<g id="a_node1"><a xlink:title="Container type for callbacks defined by IMatchmakingCallbacks.">
<polygon fill="#bfbfbf" stroke="black" points="79,-0.5 79,-30.5 229,-30.5 229,-0.5 79,-0.5"/>
<text text-anchor="start" x="87" y="-18.5" font-family="Helvetica,sans-Serif" font-size="10.00">Photon.Realtime.MatchMaking</text>
<text text-anchor="middle" x="154" y="-7.5" font-family="Helvetica,sans-Serif" font-size="10.00">CallbacksContainer</text>
</a>
</g>
</g>
<!-- Node2 -->
<g id="node2" class="node">
<title>Node2</title>
<g id="a_node2"><a xlink:title=" ">
<polygon fill="white" stroke="#bfbfbf" points="0,-67.5 0,-86.5 154,-86.5 154,-67.5 0,-67.5"/>
<text text-anchor="middle" x="77" y="-74.5" font-family="Helvetica,sans-Serif" font-size="10.00">List&lt; IMatchmakingCallbacks &gt;</text>
</a>
</g>
</g>
<!-- Node2&#45;&gt;Node1 -->
<g id="edge1" class="edge">
<title>Node2&#45;&gt;Node1</title>
<path fill="none" stroke="midnightblue" d="M96.16,-61.2C108.3,-51.81 123.91,-39.75 135.85,-30.52"/>
<polygon fill="midnightblue" stroke="midnightblue" points="93.81,-58.59 88.03,-67.48 98.09,-64.13 93.81,-58.59"/>
</g>
<!-- Node3 -->
<g id="node3" class="node">
<title>Node3</title>
<g id="a_node3"><a xlink:href="interface_photon_1_1_realtime_1_1_i_matchmaking_callbacks.xhtml" target="_top" xlink:title="Collection of &quot;organizational&quot; callbacks for the Realtime Api to cover Matchmaking.">
<polygon fill="white" stroke="black" points="172,-67.5 172,-86.5 292,-86.5 292,-67.5 172,-67.5"/>
<text text-anchor="middle" x="232" y="-74.5" font-family="Helvetica,sans-Serif" font-size="10.00">IMatchmakingCallbacks</text>
</a>
</g>
</g>
<!-- Node3&#45;&gt;Node1 -->
<g id="edge2" class="edge">
<title>Node3&#45;&gt;Node1</title>
<path fill="none" stroke="midnightblue" d="M212.59,-61.2C200.29,-51.81 184.48,-39.75 172.38,-30.52"/>
<polygon fill="midnightblue" stroke="midnightblue" points="210.75,-64.19 220.82,-67.48 215,-58.63 210.75,-64.19"/>
</g>
</g>
</svg>
