<?xml version="1.0" encoding="UTF-8" standalone="no"?>
<!DOCTYPE svg PUBLIC "-//W3C//DTD SVG 1.1//EN"
 "http://www.w3.org/Graphics/SVG/1.1/DTD/svg11.dtd">
<!-- Generated by graphviz version 2.47.3 (20210619.1520)
 -->
<!-- Title: Photon.Pun.Demo.SlotRacer.Utils.BezierCurveInspector.OnSceneGUI Pages: 1 -->
<svg width="962pt" height="119pt"
 viewBox="0.00 0.00 962.00 119.00" xmlns="http://www.w3.org/2000/svg" xmlns:xlink="http://www.w3.org/1999/xlink">
<g id="graph0" class="graph" transform="scale(1 1) rotate(0) translate(4 115)">
<title>Photon.Pun.Demo.SlotRacer.Utils.BezierCurveInspector.OnSceneGUI</title>
<polygon fill="white" stroke="transparent" points="-4,4 -4,-115 958,-115 958,4 -4,4"/>
<!-- Node1 -->
<g id="node1" class="node">
<title>Node1</title>
<g id="a_node1"><a xlink:title=" ">
<polygon fill="#bfbfbf" stroke="black" points="0,-27.5 0,-57.5 191,-57.5 191,-27.5 0,-27.5"/>
<text text-anchor="start" x="8" y="-45.5" font-family="Helvetica,sans-Serif" font-size="10.00">Photon.Pun.Demo.SlotRacer.</text>
<text text-anchor="middle" x="95.5" y="-34.5" font-family="Helvetica,sans-Serif" font-size="10.00">Utils.BezierCurveInspector.OnSceneGUI</text>
</a>
</g>
</g>
<!-- Node2 -->
<g id="node2" class="node">
<title>Node2</title>
<g id="a_node2"><a xlink:href="class_photon_1_1_pun_1_1_demo_1_1_slot_racer_1_1_utils_1_1_bezier_curve_inspector.xhtml#a270be9c36cf233c363ceda562133dfc5" target="_top" xlink:title=" ">
<polygon fill="white" stroke="black" points="238,-50 238,-91 396,-91 396,-50 238,-50"/>
<text text-anchor="start" x="246" y="-79" font-family="Helvetica,sans-Serif" font-size="10.00">Photon.Pun.Demo.SlotRacer.</text>
<text text-anchor="start" x="246" y="-68" font-family="Helvetica,sans-Serif" font-size="10.00">Utils.BezierCurveInspector.Show</text>
<text text-anchor="middle" x="317" y="-57" font-family="Helvetica,sans-Serif" font-size="10.00">Directions</text>
</a>
</g>
</g>
<!-- Node1&#45;&gt;Node2 -->
<g id="edge1" class="edge">
<title>Node1&#45;&gt;Node2</title>
<path fill="none" stroke="midnightblue" d="M191.18,-54.58C203.33,-56.13 215.73,-57.71 227.76,-59.24"/>
<polygon fill="midnightblue" stroke="midnightblue" points="227.42,-62.73 237.78,-60.52 228.3,-55.78 227.42,-62.73"/>
</g>
<!-- Node8 -->
<g id="node8" class="node">
<title>Node8</title>
<g id="a_node8"><a xlink:href="class_photon_1_1_pun_1_1_demo_1_1_slot_racer_1_1_utils_1_1_bezier_curve_inspector.xhtml#a3150a9f6e320684cc6ce4e47a396c637" target="_top" xlink:title=" ">
<polygon fill="white" stroke="black" points="227,-0.5 227,-30.5 407,-30.5 407,-0.5 227,-0.5"/>
<text text-anchor="start" x="235" y="-18.5" font-family="Helvetica,sans-Serif" font-size="10.00">Photon.Pun.Demo.SlotRacer.</text>
<text text-anchor="middle" x="317" y="-7.5" font-family="Helvetica,sans-Serif" font-size="10.00">Utils.BezierCurveInspector.ShowPoint</text>
</a>
</g>
</g>
<!-- Node1&#45;&gt;Node8 -->
<g id="edge7" class="edge">
<title>Node1&#45;&gt;Node8</title>
<path fill="none" stroke="midnightblue" d="M191.18,-30.85C199.69,-29.81 208.32,-28.75 216.86,-27.69"/>
<polygon fill="midnightblue" stroke="midnightblue" points="217.34,-31.16 226.84,-26.47 216.48,-24.21 217.34,-31.16"/>
</g>
<!-- Node3 -->
<g id="node3" class="node">
<title>Node3</title>
<g id="a_node3"><a xlink:href="class_photon_1_1_pun_1_1_demo_1_1_slot_racer_1_1_utils_1_1_bezier_curve.xhtml#a60e43d49168c7ea908595f2c06d0f75b" target="_top" xlink:title=" ">
<polygon fill="white" stroke="black" points="443,-80.5 443,-110.5 591,-110.5 591,-80.5 443,-80.5"/>
<text text-anchor="start" x="451" y="-98.5" font-family="Helvetica,sans-Serif" font-size="10.00">Photon.Pun.Demo.SlotRacer.</text>
<text text-anchor="middle" x="517" y="-87.5" font-family="Helvetica,sans-Serif" font-size="10.00">Utils.BezierCurve.GetDirection</text>
</a>
</g>
</g>
<!-- Node2&#45;&gt;Node3 -->
<g id="edge2" class="edge">
<title>Node2&#45;&gt;Node3</title>
<path fill="none" stroke="midnightblue" d="M396.25,-80.38C408.25,-81.89 420.66,-83.46 432.76,-84.99"/>
<polygon fill="midnightblue" stroke="midnightblue" points="432.47,-88.48 442.83,-86.26 433.34,-81.54 432.47,-88.48"/>
</g>
<!-- Node6 -->
<g id="node6" class="node">
<title>Node6</title>
<g id="a_node6"><a xlink:href="class_photon_1_1_pun_1_1_demo_1_1_slot_racer_1_1_utils_1_1_bezier_curve.xhtml#ab0ddde7ee6e80735b6f5040914205573" target="_top" xlink:title=" ">
<polygon fill="white" stroke="black" points="444.5,-31.5 444.5,-61.5 589.5,-61.5 589.5,-31.5 444.5,-31.5"/>
<text text-anchor="start" x="452.5" y="-49.5" font-family="Helvetica,sans-Serif" font-size="10.00">Photon.Pun.Demo.SlotRacer.</text>
<text text-anchor="middle" x="517" y="-38.5" font-family="Helvetica,sans-Serif" font-size="10.00">Utils.BezierCurve.GetPoint</text>
</a>
</g>
</g>
<!-- Node2&#45;&gt;Node6 -->
<g id="edge5" class="edge">
<title>Node2&#45;&gt;Node6</title>
<path fill="none" stroke="midnightblue" d="M396.25,-61.01C408.79,-59.49 421.8,-57.92 434.41,-56.39"/>
<polygon fill="midnightblue" stroke="midnightblue" points="434.92,-59.85 444.43,-55.18 434.08,-52.9 434.92,-59.85"/>
</g>
<!-- Node4 -->
<g id="node4" class="node">
<title>Node4</title>
<g id="a_node4"><a xlink:href="class_photon_1_1_pun_1_1_demo_1_1_slot_racer_1_1_utils_1_1_bezier_curve.xhtml#aef9a86fe6447e14bb6b264455d3ba158" target="_top" xlink:title=" ">
<polygon fill="white" stroke="black" points="627,-80.5 627,-110.5 772,-110.5 772,-80.5 627,-80.5"/>
<text text-anchor="start" x="635" y="-98.5" font-family="Helvetica,sans-Serif" font-size="10.00">Photon.Pun.Demo.SlotRacer.</text>
<text text-anchor="middle" x="699.5" y="-87.5" font-family="Helvetica,sans-Serif" font-size="10.00">Utils.BezierCurve.GetVelocity</text>
</a>
</g>
</g>
<!-- Node3&#45;&gt;Node4 -->
<g id="edge3" class="edge">
<title>Node3&#45;&gt;Node4</title>
<path fill="none" stroke="midnightblue" d="M591.16,-95.5C599.65,-95.5 608.36,-95.5 616.97,-95.5"/>
<polygon fill="midnightblue" stroke="midnightblue" points="617,-99 627,-95.5 617,-92 617,-99"/>
</g>
<!-- Node5 -->
<g id="node5" class="node">
<title>Node5</title>
<g id="a_node5"><a xlink:href="class_photon_1_1_pun_1_1_demo_1_1_slot_racer_1_1_utils_1_1_bezier.xhtml#abe7d75f2a21945ddda206a7c9d655801" target="_top" xlink:title=" ">
<polygon fill="white" stroke="black" points="808,-80.5 808,-110.5 954,-110.5 954,-80.5 808,-80.5"/>
<text text-anchor="start" x="816" y="-98.5" font-family="Helvetica,sans-Serif" font-size="10.00">Photon.Pun.Demo.SlotRacer.</text>
<text text-anchor="middle" x="881" y="-87.5" font-family="Helvetica,sans-Serif" font-size="10.00">Utils.Bezier.GetFirstDerivative</text>
</a>
</g>
</g>
<!-- Node4&#45;&gt;Node5 -->
<g id="edge4" class="edge">
<title>Node4&#45;&gt;Node5</title>
<path fill="none" stroke="midnightblue" d="M772.22,-95.5C780.55,-95.5 789.1,-95.5 797.56,-95.5"/>
<polygon fill="midnightblue" stroke="midnightblue" points="797.81,-99 807.81,-95.5 797.81,-92 797.81,-99"/>
</g>
<!-- Node7 -->
<g id="node7" class="node">
<title>Node7</title>
<g id="a_node7"><a xlink:href="class_photon_1_1_pun_1_1_demo_1_1_slot_racer_1_1_utils_1_1_bezier.xhtml#a92b639bbe28e91ebf634d21804d19b50" target="_top" xlink:title=" ">
<polygon fill="white" stroke="black" points="627,-31.5 627,-61.5 772,-61.5 772,-31.5 627,-31.5"/>
<text text-anchor="start" x="635" y="-49.5" font-family="Helvetica,sans-Serif" font-size="10.00">Photon.Pun.Demo.SlotRacer.</text>
<text text-anchor="middle" x="699.5" y="-38.5" font-family="Helvetica,sans-Serif" font-size="10.00">Utils.Bezier.GetPoint</text>
</a>
</g>
</g>
<!-- Node6&#45;&gt;Node7 -->
<g id="edge6" class="edge">
<title>Node6&#45;&gt;Node7</title>
<path fill="none" stroke="midnightblue" d="M589.6,-46.5C598.54,-46.5 607.73,-46.5 616.81,-46.5"/>
<polygon fill="midnightblue" stroke="midnightblue" points="616.99,-50 626.99,-46.5 616.99,-43 616.99,-50"/>
</g>
</g>
</svg>
