<?xml version="1.0" encoding="UTF-8" standalone="no"?>
<!DOCTYPE svg PUBLIC "-//W3C//DTD SVG 1.1//EN"
 "http://www.w3.org/Graphics/SVG/1.1/DTD/svg11.dtd">
<!-- Generated by graphviz version 2.47.3 (20210619.1520)
 -->
<!-- Title: UnityTemplateProjects.SimpleCameraController.Update Pages: 1 -->
<svg width="386pt" height="220pt"
 viewBox="0.00 0.00 386.00 220.00" xmlns="http://www.w3.org/2000/svg" xmlns:xlink="http://www.w3.org/1999/xlink">
<g id="graph0" class="graph" transform="scale(1 1) rotate(0) translate(4 216)">
<title>UnityTemplateProjects.SimpleCameraController.Update</title>
<polygon fill="white" stroke="transparent" points="-4,4 -4,-216 382,-216 382,4 -4,4"/>
<!-- Node1 -->
<g id="node1" class="node">
<title>Node1</title>
<g id="a_node1"><a xlink:title=" ">
<polygon fill="#bfbfbf" stroke="black" points="0,-88 0,-118 148,-118 148,-88 0,-88"/>
<text text-anchor="start" x="8" y="-106" font-family="Helvetica,sans-Serif" font-size="10.00">UnityTemplateProjects.Simple</text>
<text text-anchor="middle" x="74" y="-95" font-family="Helvetica,sans-Serif" font-size="10.00">CameraController.Update</text>
</a>
</g>
</g>
<!-- Node2 -->
<g id="node2" class="node">
<title>Node2</title>
<g id="a_node2"><a xlink:href="class_unity_template_projects_1_1_simple_camera_controller.xhtml#ae2b6609babb235be936175d7455d2750" target="_top" xlink:title=" ">
<polygon fill="white" stroke="black" points="191.5,-170.5 191.5,-211.5 370.5,-211.5 370.5,-170.5 191.5,-170.5"/>
<text text-anchor="start" x="199.5" y="-199.5" font-family="Helvetica,sans-Serif" font-size="10.00">UnityTemplateProjects.Simple</text>
<text text-anchor="start" x="199.5" y="-188.5" font-family="Helvetica,sans-Serif" font-size="10.00">CameraController.GetInputTranslation</text>
<text text-anchor="middle" x="281" y="-177.5" font-family="Helvetica,sans-Serif" font-size="10.00">Direction</text>
</a>
</g>
</g>
<!-- Node1&#45;&gt;Node2 -->
<g id="edge1" class="edge">
<title>Node1&#45;&gt;Node2</title>
<path fill="none" stroke="midnightblue" d="M100.33,-118.22C122.01,-130.82 154.33,-148.6 184,-161 188.98,-163.08 194.17,-165.1 199.42,-167.04"/>
<polygon fill="midnightblue" stroke="midnightblue" points="198.35,-170.37 208.95,-170.44 200.7,-163.78 198.35,-170.37"/>
</g>
<!-- Node3 -->
<g id="node3" class="node">
<title>Node3</title>
<g id="a_node3"><a xlink:href="class_unity_template_projects_1_1_simple_camera_controller_1_1_camera_state.xhtml#a43c44b09172e63d2c28a5ac0034e5d43" target="_top" xlink:title=" ">
<polygon fill="white" stroke="black" points="194.5,-110.5 194.5,-151.5 367.5,-151.5 367.5,-110.5 194.5,-110.5"/>
<text text-anchor="start" x="202.5" y="-139.5" font-family="Helvetica,sans-Serif" font-size="10.00">UnityTemplateProjects.Simple</text>
<text text-anchor="start" x="202.5" y="-128.5" font-family="Helvetica,sans-Serif" font-size="10.00">CameraController.CameraState.Lerp</text>
<text text-anchor="middle" x="281" y="-117.5" font-family="Helvetica,sans-Serif" font-size="10.00">Towards</text>
</a>
</g>
</g>
<!-- Node1&#45;&gt;Node3 -->
<g id="edge2" class="edge">
<title>Node1&#45;&gt;Node3</title>
<path fill="none" stroke="midnightblue" d="M148.14,-112.99C159.82,-114.59 172.05,-116.26 184.16,-117.91"/>
<polygon fill="midnightblue" stroke="midnightblue" points="183.91,-121.41 194.29,-119.29 184.86,-114.47 183.91,-121.41"/>
</g>
<!-- Node4 -->
<g id="node4" class="node">
<title>Node4</title>
<g id="a_node4"><a xlink:href="class_unity_template_projects_1_1_simple_camera_controller_1_1_camera_state.xhtml#af09a1ed9339d0221870048eade23c8d5" target="_top" xlink:title=" ">
<polygon fill="white" stroke="black" points="184,-61 184,-91 378,-91 378,-61 184,-61"/>
<text text-anchor="start" x="192" y="-79" font-family="Helvetica,sans-Serif" font-size="10.00">UnityTemplateProjects.Simple</text>
<text text-anchor="middle" x="281" y="-68" font-family="Helvetica,sans-Serif" font-size="10.00">CameraController.CameraState.Translate</text>
</a>
</g>
</g>
<!-- Node1&#45;&gt;Node4 -->
<g id="edge3" class="edge">
<title>Node1&#45;&gt;Node4</title>
<path fill="none" stroke="midnightblue" d="M148.14,-93.37C156.49,-92.27 165.12,-91.13 173.79,-89.99"/>
<polygon fill="midnightblue" stroke="midnightblue" points="174.5,-93.42 183.96,-88.65 173.59,-86.48 174.5,-93.42"/>
</g>
<!-- Node5 -->
<g id="node5" class="node">
<title>Node5</title>
<g id="a_node5"><a xlink:href="class_unity_template_projects_1_1_simple_camera_controller_1_1_camera_state.xhtml#abd88f273e1448fa66f1e99341180f423" target="_top" xlink:title=" ">
<polygon fill="white" stroke="black" points="188.5,-0.5 188.5,-41.5 373.5,-41.5 373.5,-0.5 188.5,-0.5"/>
<text text-anchor="start" x="196.5" y="-29.5" font-family="Helvetica,sans-Serif" font-size="10.00">UnityTemplateProjects.Simple</text>
<text text-anchor="start" x="196.5" y="-18.5" font-family="Helvetica,sans-Serif" font-size="10.00">CameraController.CameraState.Update</text>
<text text-anchor="middle" x="281" y="-7.5" font-family="Helvetica,sans-Serif" font-size="10.00">Transform</text>
</a>
</g>
</g>
<!-- Node1&#45;&gt;Node5 -->
<g id="edge4" class="edge">
<title>Node1&#45;&gt;Node5</title>
<path fill="none" stroke="midnightblue" d="M104.63,-87.9C126.31,-77.17 156.59,-62.79 184,-52 190.19,-49.56 196.65,-47.17 203.17,-44.86"/>
<polygon fill="midnightblue" stroke="midnightblue" points="204.44,-48.12 212.74,-41.53 202.15,-41.51 204.44,-48.12"/>
</g>
</g>
</svg>
