<?xml version="1.0" encoding="UTF-8" standalone="no"?>
<!DOCTYPE svg PUBLIC "-//W3C//DTD SVG 1.1//EN"
 "http://www.w3.org/Graphics/SVG/1.1/DTD/svg11.dtd">
<!-- Generated by graphviz version 2.47.3 (20210619.1520)
 -->
<!-- Title: Photon.Pun.Demo.Cockpit.PunCockpit.CreateRoom Pages: 1 -->
<!--zoomable 345 -->
<svg id="main" version="1.1" xmlns="http://www.w3.org/2000/svg" xmlns:xlink="http://www.w3.org/1999/xlink" xml:space="preserve" onload="init(evt)">
<style type="text/css"><![CDATA[
.edge:hover path { stroke: red; }
.edge:hover polygon { stroke: red; fill: red; }
]]></style>
<script type="text/javascript"><![CDATA[
var edges = document.getElementsByTagName('g');
if (edges && edges.length) {
  for (var i=0;i<edges.length;i++) {
    if (edges[i].id.substr(0,4)=='edge') {
      edges[i].setAttribute('class','edge');
    }
  }
}
]]></script>
        <defs>
                <circle id="rim" cx="0" cy="0" r="7"/>
                <circle id="rim2" cx="0" cy="0" r="3.5"/>
                <g id="zoomPlus">
                        <use xlink:href="#rim" fill="#404040">
                                <set attributeName="fill" to="#808080" begin="zoomplus.mouseover" end="zoomplus.mouseout"/>
                        </use>
                        <path d="M-4,0h8M0,-4v8" fill="none" stroke="white" stroke-width="1.5" pointer-events="none"/>
                </g>
                <g id="zoomMin">
                        <use xlink:href="#rim" fill="#404040">
                                <set attributeName="fill" to="#808080" begin="zoomminus.mouseover" end="zoomminus.mouseout"/>
                        </use>
                        <path d="M-4,0h8" fill="none" stroke="white" stroke-width="1.5" pointer-events="none"/>
                </g>
                <g id="dirArrow">
                        <path fill="none" stroke="white" stroke-width="1.5" d="M0,-3.0v7 M-2.5,-0.5L0,-3.0L2.5,-0.5"/>
                </g>
               <g id="resetDef">
                       <use xlink:href="#rim2" fill="#404040">
                               <set attributeName="fill" to="#808080" begin="reset.mouseover" end="reset.mouseout"/>
                       </use>
               </g>
        </defs>

<script type="text/javascript">
var viewWidth = 1318;
var viewHeight = 345;
var sectionId = 'dynsection-7';
</script>
<script xlink:href="svgpan.js"/>
<svg id="graph" class="graph">
<g id="viewport">
<title>Photon.Pun.Demo.Cockpit.PunCockpit.CreateRoom</title>
<polygon fill="white" stroke="transparent" points="-4,4 -4,-341 1314,-341 1314,4 -4,4"/>
<!-- Node1 -->
<g id="node1" class="node">
<title>Node1</title>
<g id="a_node1"><a xlink:title=" ">
<polygon fill="#bfbfbf" stroke="black" points="0,-110.5 0,-140.5 135,-140.5 135,-110.5 0,-110.5"/>
<text text-anchor="start" x="8" y="-128.5" font-family="Helvetica,sans-Serif" font-size="10.00">Photon.Pun.Demo.Cockpit.</text>
<text text-anchor="middle" x="67.5" y="-117.5" font-family="Helvetica,sans-Serif" font-size="10.00">PunCockpit.CreateRoom</text>
</a>
</g>
</g>
<!-- Node2 -->
<g id="node2" class="node">
<title>Node2</title>
<g id="a_node2"><a xlink:href="class_photon_1_1_pun_1_1_photon_network.xhtml#a755417a54b55bdb92361dc74b4a09953" target="_top" xlink:title="Creates a new room.">
<polygon fill="white" stroke="black" points="173.5,-159.5 173.5,-189.5 313.5,-189.5 313.5,-159.5 173.5,-159.5"/>
<text text-anchor="start" x="181.5" y="-177.5" font-family="Helvetica,sans-Serif" font-size="10.00">Photon.Pun.PhotonNetwork.</text>
<text text-anchor="middle" x="243.5" y="-166.5" font-family="Helvetica,sans-Serif" font-size="10.00">CreateRoom</text>
</a>
</g>
</g>
<!-- Node1&#45;&gt;Node2 -->
<g id="edge1" class="edge">
<title>Node1&#45;&gt;Node2</title>
<path fill="none" stroke="midnightblue" d="M122.13,-140.6C140.24,-145.7 160.62,-151.44 179.4,-156.73"/>
<polygon fill="midnightblue" stroke="midnightblue" points="178.48,-160.11 189.05,-159.45 180.37,-153.37 178.48,-160.11"/>
</g>
<!-- Node20 -->
<g id="node20" class="node">
<title>Node20</title>
<g id="a_node20"><a xlink:href="class_photon_1_1_pun_1_1_demo_1_1_cockpit_1_1_pun_cockpit.xhtml#a87109ddd457d3fdb53f71ab2cff0aa5c" target="_top" xlink:title=" ">
<polygon fill="white" stroke="black" points="171,-110.5 171,-140.5 316,-140.5 316,-110.5 171,-110.5"/>
<text text-anchor="start" x="179" y="-128.5" font-family="Helvetica,sans-Serif" font-size="10.00">Photon.Pun.Demo.Cockpit.</text>
<text text-anchor="middle" x="243.5" y="-117.5" font-family="Helvetica,sans-Serif" font-size="10.00">PunCockpit.GetRoomOptions</text>
</a>
</g>
</g>
<!-- Node1&#45;&gt;Node20 -->
<g id="edge21" class="edge">
<title>Node1&#45;&gt;Node20</title>
<path fill="none" stroke="midnightblue" d="M135.28,-125.5C143.68,-125.5 152.35,-125.5 160.95,-125.5"/>
<polygon fill="midnightblue" stroke="midnightblue" points="160.99,-129 170.99,-125.5 160.99,-122 160.99,-129"/>
</g>
<!-- Node21 -->
<g id="node21" class="node">
<title>Node21</title>
<g id="a_node21"><a xlink:href="class_photon_1_1_pun_1_1_demo_1_1_cockpit_1_1_room_list_view.xhtml#a7895abb54fec1f34ff4b344294adc0ce" target="_top" xlink:title=" ">
<polygon fill="white" stroke="black" points="176,-61.5 176,-91.5 311,-91.5 311,-61.5 176,-61.5"/>
<text text-anchor="start" x="184" y="-79.5" font-family="Helvetica,sans-Serif" font-size="10.00">Photon.Pun.Demo.Cockpit.</text>
<text text-anchor="middle" x="243.5" y="-68.5" font-family="Helvetica,sans-Serif" font-size="10.00">RoomListView.ResetList</text>
</a>
</g>
</g>
<!-- Node1&#45;&gt;Node21 -->
<g id="edge22" class="edge">
<title>Node1&#45;&gt;Node21</title>
<path fill="none" stroke="midnightblue" d="M122.13,-110.4C140.24,-105.3 160.62,-99.56 179.4,-94.27"/>
<polygon fill="midnightblue" stroke="midnightblue" points="180.37,-97.63 189.05,-91.55 178.48,-90.89 180.37,-97.63"/>
</g>
<!-- Node3 -->
<g id="node3" class="node">
<title>Node3</title>
<g id="a_node3"><a xlink:href="class_photon_1_1_pun_1_1_photon_network.xhtml#a82287a4a3bbfd5125fc858ae3805481c" target="_top" xlink:title="Internally used helper&#45;method to setup an offline room, the numbers for actor and master&#45;client and t...">
<polygon fill="white" stroke="black" points="359.5,-208.5 359.5,-238.5 499.5,-238.5 499.5,-208.5 359.5,-208.5"/>
<text text-anchor="start" x="367.5" y="-226.5" font-family="Helvetica,sans-Serif" font-size="10.00">Photon.Pun.PhotonNetwork.</text>
<text text-anchor="middle" x="429.5" y="-215.5" font-family="Helvetica,sans-Serif" font-size="10.00">EnterOfflineRoom</text>
</a>
</g>
</g>
<!-- Node2&#45;&gt;Node3 -->
<g id="edge2" class="edge">
<title>Node2&#45;&gt;Node3</title>
<path fill="none" stroke="midnightblue" d="M300.96,-189.53C320.38,-194.71 342.31,-200.55 362.43,-205.91"/>
<polygon fill="midnightblue" stroke="midnightblue" points="361.59,-209.3 372.15,-208.49 363.39,-202.54 361.59,-209.3"/>
</g>
<!-- Node14 -->
<g id="node14" class="node">
<title>Node14</title>
<g id="a_node14"><a xlink:href="class_photon_1_1_realtime_1_1_load_balancing_client.xhtml#ac5360b52a4284e623f41b0f870843342" target="_top" xlink:title="Creates a new room.">
<polygon fill="white" stroke="black" points="352,-110.5 352,-140.5 507,-140.5 507,-110.5 352,-110.5"/>
<text text-anchor="start" x="360" y="-128.5" font-family="Helvetica,sans-Serif" font-size="10.00">Photon.Realtime.LoadBalancing</text>
<text text-anchor="middle" x="429.5" y="-117.5" font-family="Helvetica,sans-Serif" font-size="10.00">Client.OpCreateRoom</text>
</a>
</g>
</g>
<!-- Node2&#45;&gt;Node14 -->
<g id="edge14" class="edge">
<title>Node2&#45;&gt;Node14</title>
<path fill="none" stroke="midnightblue" d="M300.96,-159.47C320.38,-154.29 342.31,-148.45 362.43,-143.09"/>
<polygon fill="midnightblue" stroke="midnightblue" points="363.39,-146.46 372.15,-140.51 361.59,-139.7 363.39,-146.46"/>
</g>
<!-- Node4 -->
<g id="node4" class="node">
<title>Node4</title>
<g id="a_node4"><a xlink:href="class_photon_1_1_realtime_1_1_room.xhtml#a56e911de4cd47b4fd2dba63830c35ed3" target="_top" xlink:title="Checks if the player is in the room&#39;s list already and calls StorePlayer() if not.">
<polygon fill="white" stroke="black" points="562.5,-208.5 562.5,-238.5 699.5,-238.5 699.5,-208.5 562.5,-208.5"/>
<text text-anchor="start" x="570.5" y="-226.5" font-family="Helvetica,sans-Serif" font-size="10.00">Photon.Realtime.Room.Add</text>
<text text-anchor="middle" x="631" y="-215.5" font-family="Helvetica,sans-Serif" font-size="10.00">Player</text>
</a>
</g>
</g>
<!-- Node3&#45;&gt;Node4 -->
<g id="edge3" class="edge">
<title>Node3&#45;&gt;Node4</title>
<path fill="none" stroke="midnightblue" d="M499.72,-223.5C516.65,-223.5 534.88,-223.5 552.19,-223.5"/>
<polygon fill="midnightblue" stroke="midnightblue" points="552.25,-227 562.25,-223.5 552.25,-220 552.25,-227"/>
</g>
<!-- Node6 -->
<g id="node6" class="node">
<title>Node6</title>
<g id="a_node6"><a xlink:href="class_photon_1_1_realtime_1_1_load_balancing_client.xhtml#a32adb95af4cb836a29fc53aa66000caf" target="_top" xlink:title="Internally used to set the LocalPlayer&#39;s ID (from &#45;1 to the actual in&#45;room ID).">
<polygon fill="white" stroke="black" points="553.5,-159.5 553.5,-189.5 708.5,-189.5 708.5,-159.5 553.5,-159.5"/>
<text text-anchor="start" x="561.5" y="-177.5" font-family="Helvetica,sans-Serif" font-size="10.00">Photon.Realtime.LoadBalancing</text>
<text text-anchor="middle" x="631" y="-166.5" font-family="Helvetica,sans-Serif" font-size="10.00">Client.ChangeLocalID</text>
</a>
</g>
</g>
<!-- Node3&#45;&gt;Node6 -->
<g id="edge5" class="edge">
<title>Node3&#45;&gt;Node6</title>
<path fill="none" stroke="midnightblue" d="M491.71,-208.47C512.97,-203.24 536.98,-197.35 558.96,-191.95"/>
<polygon fill="midnightblue" stroke="midnightblue" points="560.03,-195.29 568.9,-189.51 558.36,-188.49 560.03,-195.29"/>
</g>
<!-- Node10 -->
<g id="node10" class="node">
<title>Node10</title>
<g id="a_node10"><a xlink:href="class_photon_1_1_realtime_1_1_match_making_callbacks_container.xhtml#a0cbb3230022bdffebc1191f80f9bfc2a" target="_top" xlink:title="Called when this client created a room and entered it.">
<polygon fill="white" stroke="black" points="543,-306.5 543,-336.5 719,-336.5 719,-306.5 543,-306.5"/>
<text text-anchor="start" x="551" y="-324.5" font-family="Helvetica,sans-Serif" font-size="10.00">Photon.Realtime.MatchMaking</text>
<text text-anchor="middle" x="631" y="-313.5" font-family="Helvetica,sans-Serif" font-size="10.00">CallbacksContainer.OnCreatedRoom</text>
</a>
</g>
</g>
<!-- Node3&#45;&gt;Node10 -->
<g id="edge10" class="edge">
<title>Node3&#45;&gt;Node10</title>
<path fill="none" stroke="midnightblue" d="M449.79,-238.57C471.41,-254.85 508.04,-280.57 543,-296.5 548.22,-298.88 553.72,-301.09 559.32,-303.13"/>
<polygon fill="midnightblue" stroke="midnightblue" points="558.2,-306.45 568.79,-306.4 560.48,-299.83 558.2,-306.45"/>
</g>
<!-- Node12 -->
<g id="node12" class="node">
<title>Node12</title>
<g id="a_node12"><a xlink:href="class_photon_1_1_realtime_1_1_match_making_callbacks_container.xhtml#a5f91efa8551b2be7524bb4c6fb6da57a" target="_top" xlink:title="Called when the LoadBalancingClient entered a room, no matter if this client created it or simply joi...">
<polygon fill="white" stroke="black" points="546,-257.5 546,-287.5 716,-287.5 716,-257.5 546,-257.5"/>
<text text-anchor="start" x="554" y="-275.5" font-family="Helvetica,sans-Serif" font-size="10.00">Photon.Realtime.MatchMaking</text>
<text text-anchor="middle" x="631" y="-264.5" font-family="Helvetica,sans-Serif" font-size="10.00">CallbacksContainer.OnJoinedRoom</text>
</a>
</g>
</g>
<!-- Node3&#45;&gt;Node12 -->
<g id="edge12" class="edge">
<title>Node3&#45;&gt;Node12</title>
<path fill="none" stroke="midnightblue" d="M491.71,-238.53C512.97,-243.76 536.98,-249.65 558.96,-255.05"/>
<polygon fill="midnightblue" stroke="midnightblue" points="558.36,-258.51 568.9,-257.49 560.03,-251.71 558.36,-258.51"/>
</g>
<!-- Node5 -->
<g id="node5" class="node">
<title>Node5</title>
<g id="a_node5"><a xlink:href="class_photon_1_1_realtime_1_1_room.xhtml#a5e614a00e26aae5f35f0805c4e4bb7a9" target="_top" xlink:title="Updates a player reference in the Players dictionary (no matter if it existed before or not).">
<polygon fill="white" stroke="black" points="770,-208.5 770,-238.5 913,-238.5 913,-208.5 770,-208.5"/>
<text text-anchor="start" x="778" y="-226.5" font-family="Helvetica,sans-Serif" font-size="10.00">Photon.Realtime.Room.Store</text>
<text text-anchor="middle" x="841.5" y="-215.5" font-family="Helvetica,sans-Serif" font-size="10.00">Player</text>
</a>
</g>
</g>
<!-- Node4&#45;&gt;Node5 -->
<g id="edge4" class="edge">
<title>Node4&#45;&gt;Node5</title>
<path fill="none" stroke="midnightblue" d="M699.69,-223.5C718.83,-223.5 739.85,-223.5 759.68,-223.5"/>
<polygon fill="midnightblue" stroke="midnightblue" points="759.92,-227 769.92,-223.5 759.92,-220 759.92,-227"/>
</g>
<!-- Node6&#45;&gt;Node5 -->
<g id="edge9" class="edge">
<title>Node6&#45;&gt;Node5</title>
<path fill="none" stroke="midnightblue" d="M695.97,-189.53C718.39,-194.8 743.74,-200.76 766.88,-206.2"/>
<polygon fill="midnightblue" stroke="midnightblue" points="766.11,-209.61 776.65,-208.49 767.71,-202.8 766.11,-209.61"/>
</g>
<!-- Node7 -->
<g id="node7" class="node">
<title>Node7</title>
<g id="a_node7"><a xlink:href="class_photon_1_1_realtime_1_1_load_balancing_client.xhtml#a69dd43d4c7211b5b83cd54d0ebcf79e7" target="_top" xlink:title="Debug output of low level api (and this client).">
<polygon fill="white" stroke="black" points="764,-159.5 764,-189.5 919,-189.5 919,-159.5 764,-159.5"/>
<text text-anchor="start" x="772" y="-177.5" font-family="Helvetica,sans-Serif" font-size="10.00">Photon.Realtime.LoadBalancing</text>
<text text-anchor="middle" x="841.5" y="-166.5" font-family="Helvetica,sans-Serif" font-size="10.00">Client.DebugReturn</text>
</a>
</g>
</g>
<!-- Node6&#45;&gt;Node7 -->
<g id="edge6" class="edge">
<title>Node6&#45;&gt;Node7</title>
<path fill="none" stroke="midnightblue" d="M708.75,-174.5C723.37,-174.5 738.77,-174.5 753.68,-174.5"/>
<polygon fill="midnightblue" stroke="midnightblue" points="753.91,-178 763.91,-174.5 753.91,-171 753.91,-178"/>
</g>
<!-- Node8 -->
<g id="node8" class="node">
<title>Node8</title>
<g id="a_node8"><a xlink:href="class_photon_1_1_realtime_1_1_load_balancing_peer.xhtml#a7f48b5f0c44ef0c67ef32f147ff87246" target="_top" xlink:title="Creates a Peer with specified connection protocol.">
<polygon fill="white" stroke="black" points="964,-159.5 964,-189.5 1119,-189.5 1119,-159.5 964,-159.5"/>
<text text-anchor="start" x="972" y="-177.5" font-family="Helvetica,sans-Serif" font-size="10.00">Photon.Realtime.LoadBalancing</text>
<text text-anchor="middle" x="1041.5" y="-166.5" font-family="Helvetica,sans-Serif" font-size="10.00">Peer.LoadBalancingPeer</text>
</a>
</g>
</g>
<!-- Node7&#45;&gt;Node8 -->
<g id="edge7" class="edge">
<title>Node7&#45;&gt;Node8</title>
<path fill="none" stroke="midnightblue" d="M919.05,-174.5C930.41,-174.5 942.19,-174.5 953.75,-174.5"/>
<polygon fill="midnightblue" stroke="midnightblue" points="953.83,-178 963.83,-174.5 953.83,-171 953.83,-178"/>
</g>
<!-- Node9 -->
<g id="node9" class="node">
<title>Node9</title>
<g id="a_node9"><a xlink:href="class_photon_1_1_realtime_1_1_load_balancing_peer.xhtml#affaff7e1fdffe86b25156ffac5e738c9" target="_top" xlink:title=" ">
<polygon fill="white" stroke="black" points="1155,-159.5 1155,-189.5 1310,-189.5 1310,-159.5 1155,-159.5"/>
<text text-anchor="start" x="1163" y="-177.5" font-family="Helvetica,sans-Serif" font-size="10.00">Photon.Realtime.LoadBalancing</text>
<text text-anchor="middle" x="1232.5" y="-166.5" font-family="Helvetica,sans-Serif" font-size="10.00">Peer.ConfigUnitySockets</text>
</a>
</g>
</g>
<!-- Node8&#45;&gt;Node9 -->
<g id="edge8" class="edge">
<title>Node8&#45;&gt;Node9</title>
<path fill="none" stroke="midnightblue" d="M1119.1,-174.5C1127.56,-174.5 1136.22,-174.5 1144.79,-174.5"/>
<polygon fill="midnightblue" stroke="midnightblue" points="1144.79,-178 1154.79,-174.5 1144.79,-171 1144.79,-178"/>
</g>
<!-- Node11 -->
<g id="node11" class="node">
<title>Node11</title>
<g id="a_node11"><a xlink:href="interface_photon_1_1_realtime_1_1_i_matchmaking_callbacks.xhtml#a3d084f0aa95b2e8f48514695af73b31d" target="_top" xlink:title="Called when this client created a room and entered it.">
<polygon fill="white" stroke="black" points="765.5,-306.5 765.5,-336.5 917.5,-336.5 917.5,-306.5 765.5,-306.5"/>
<text text-anchor="start" x="773.5" y="-324.5" font-family="Helvetica,sans-Serif" font-size="10.00">Photon.Realtime.IMatchmaking</text>
<text text-anchor="middle" x="841.5" y="-313.5" font-family="Helvetica,sans-Serif" font-size="10.00">Callbacks.OnCreatedRoom</text>
</a>
</g>
</g>
<!-- Node10&#45;&gt;Node11 -->
<g id="edge11" class="edge">
<title>Node10&#45;&gt;Node11</title>
<path fill="none" stroke="midnightblue" d="M719.21,-321.5C731.04,-321.5 743.16,-321.5 754.96,-321.5"/>
<polygon fill="midnightblue" stroke="midnightblue" points="755.22,-325 765.22,-321.5 755.22,-318 755.22,-325"/>
</g>
<!-- Node13 -->
<g id="node13" class="node">
<title>Node13</title>
<g id="a_node13"><a xlink:href="interface_photon_1_1_realtime_1_1_i_matchmaking_callbacks.xhtml#a8add9e72c38d241a448f4b539acd684b" target="_top" xlink:title="Called when the LoadBalancingClient entered a room, no matter if this client created it or simply joi...">
<polygon fill="white" stroke="black" points="765.5,-257.5 765.5,-287.5 917.5,-287.5 917.5,-257.5 765.5,-257.5"/>
<text text-anchor="start" x="773.5" y="-275.5" font-family="Helvetica,sans-Serif" font-size="10.00">Photon.Realtime.IMatchmaking</text>
<text text-anchor="middle" x="841.5" y="-264.5" font-family="Helvetica,sans-Serif" font-size="10.00">Callbacks.OnJoinedRoom</text>
</a>
</g>
</g>
<!-- Node12&#45;&gt;Node13 -->
<g id="edge13" class="edge">
<title>Node12&#45;&gt;Node13</title>
<path fill="none" stroke="midnightblue" d="M716.2,-272.5C729.05,-272.5 742.31,-272.5 755.18,-272.5"/>
<polygon fill="midnightblue" stroke="midnightblue" points="755.39,-276 765.39,-272.5 755.39,-269 755.39,-276"/>
</g>
<!-- Node15 -->
<g id="node15" class="node">
<title>Node15</title>
<g id="a_node15"><a xlink:href="class_photon_1_1_realtime_1_1_load_balancing_client.xhtml#aa12ff3efc3aa91e5ceca9b3a40f7bd79" target="_top" xlink:title=" ">
<polygon fill="white" stroke="black" points="553.5,-110.5 553.5,-140.5 708.5,-140.5 708.5,-110.5 553.5,-110.5"/>
<text text-anchor="start" x="561.5" y="-128.5" font-family="Helvetica,sans-Serif" font-size="10.00">Photon.Realtime.LoadBalancing</text>
<text text-anchor="middle" x="631" y="-117.5" font-family="Helvetica,sans-Serif" font-size="10.00">Client.CheckIfOpCanBeSent</text>
</a>
</g>
</g>
<!-- Node14&#45;&gt;Node15 -->
<g id="edge15" class="edge">
<title>Node14&#45;&gt;Node15</title>
<path fill="none" stroke="midnightblue" d="M507.06,-125.5C518.91,-125.5 531.22,-125.5 543.27,-125.5"/>
<polygon fill="midnightblue" stroke="midnightblue" points="543.31,-129 553.31,-125.5 543.31,-122 543.31,-129"/>
</g>
<!-- Node18 -->
<g id="node18" class="node">
<title>Node18</title>
<g id="a_node18"><a xlink:href="class_photon_1_1_realtime_1_1_load_balancing_peer.xhtml#a67344084f00dcf86aabce99c2610edae" target="_top" xlink:title="Creates a room (on either Master or Game Server).">
<polygon fill="white" stroke="black" points="553.5,-31.5 553.5,-61.5 708.5,-61.5 708.5,-31.5 553.5,-31.5"/>
<text text-anchor="start" x="561.5" y="-49.5" font-family="Helvetica,sans-Serif" font-size="10.00">Photon.Realtime.LoadBalancing</text>
<text text-anchor="middle" x="631" y="-38.5" font-family="Helvetica,sans-Serif" font-size="10.00">Peer.OpCreateRoom</text>
</a>
</g>
</g>
<!-- Node14&#45;&gt;Node18 -->
<g id="edge19" class="edge">
<title>Node14&#45;&gt;Node18</title>
<path fill="none" stroke="midnightblue" d="M468.49,-110.45C500.84,-97.65 547.47,-79.18 582.31,-65.38"/>
<polygon fill="midnightblue" stroke="midnightblue" points="583.8,-68.56 591.81,-61.62 581.22,-62.05 583.8,-68.56"/>
</g>
<!-- Node15&#45;&gt;Node7 -->
<g id="edge18" class="edge">
<title>Node15&#45;&gt;Node7</title>
<path fill="none" stroke="midnightblue" d="M695.97,-140.53C718.39,-145.8 743.74,-151.76 766.88,-157.2"/>
<polygon fill="midnightblue" stroke="midnightblue" points="766.11,-160.61 776.65,-159.49 767.71,-153.8 766.11,-160.61"/>
</g>
<!-- Node16 -->
<g id="node16" class="node">
<title>Node16</title>
<g id="a_node16"><a xlink:href="class_photon_1_1_realtime_1_1_load_balancing_client.xhtml#ae052ab450db16efdd31985d56f76f0ab" target="_top" xlink:title=" ">
<polygon fill="white" stroke="black" points="759.5,-50 759.5,-91 923.5,-91 923.5,-50 759.5,-50"/>
<text text-anchor="start" x="767.5" y="-79" font-family="Helvetica,sans-Serif" font-size="10.00">Photon.Realtime.LoadBalancing</text>
<text text-anchor="start" x="767.5" y="-68" font-family="Helvetica,sans-Serif" font-size="10.00">Client.CheckIfClientIsReadyToCall</text>
<text text-anchor="middle" x="841.5" y="-57" font-family="Helvetica,sans-Serif" font-size="10.00">Operation</text>
</a>
</g>
</g>
<!-- Node15&#45;&gt;Node16 -->
<g id="edge16" class="edge">
<title>Node15&#45;&gt;Node16</title>
<path fill="none" stroke="midnightblue" d="M688.97,-110.47C708.63,-105.29 731.13,-99.35 752.68,-93.67"/>
<polygon fill="midnightblue" stroke="midnightblue" points="753.72,-97.01 762.49,-91.08 751.93,-90.24 753.72,-97.01"/>
</g>
<!-- Node17 -->
<g id="node17" class="node">
<title>Node17</title>
<g id="a_node17"><a xlink:href="class_photon_1_1_realtime_1_1_load_balancing_client.xhtml#aa01a53cac6918dab3ecb99669b276f01" target="_top" xlink:title=" ">
<polygon fill="white" stroke="black" points="760,-110.5 760,-140.5 923,-140.5 923,-110.5 760,-110.5"/>
<text text-anchor="start" x="768" y="-128.5" font-family="Helvetica,sans-Serif" font-size="10.00">Photon.Realtime.LoadBalancing</text>
<text text-anchor="middle" x="841.5" y="-117.5" font-family="Helvetica,sans-Serif" font-size="10.00">Client.CheckIfOpAllowedOnServer</text>
</a>
</g>
</g>
<!-- Node15&#45;&gt;Node17 -->
<g id="edge17" class="edge">
<title>Node15&#45;&gt;Node17</title>
<path fill="none" stroke="midnightblue" d="M708.75,-125.5C721.98,-125.5 735.85,-125.5 749.41,-125.5"/>
<polygon fill="midnightblue" stroke="midnightblue" points="749.71,-129 759.71,-125.5 749.71,-122 749.71,-129"/>
</g>
<!-- Node19 -->
<g id="node19" class="node">
<title>Node19</title>
<g id="a_node19"><a xlink:href="class_photon_1_1_realtime_1_1_load_balancing_peer.xhtml#a7ba1675f94fad7ace3f931c73179b117" target="_top" xlink:title="Used by OpJoinRoom and by OpCreateRoom alike.">
<polygon fill="white" stroke="black" points="755,-0.5 755,-30.5 928,-30.5 928,-0.5 755,-0.5"/>
<text text-anchor="start" x="763" y="-18.5" font-family="Helvetica,sans-Serif" font-size="10.00">Photon.Realtime.LoadBalancing</text>
<text text-anchor="middle" x="841.5" y="-7.5" font-family="Helvetica,sans-Serif" font-size="10.00">Peer.RoomOptionsToOpParameters</text>
</a>
</g>
</g>
<!-- Node18&#45;&gt;Node19 -->
<g id="edge20" class="edge">
<title>Node18&#45;&gt;Node19</title>
<path fill="none" stroke="midnightblue" d="M708.75,-35.09C720.45,-33.35 732.65,-31.54 744.7,-29.74"/>
<polygon fill="midnightblue" stroke="midnightblue" points="745.39,-33.18 754.77,-28.25 744.36,-26.26 745.39,-33.18"/>
</g>
</g>
</svg>
        <g id="navigator" transform="translate(0 0)" fill="#404254">
                <rect fill="#f2f5e9" fill-opacity="0.5" stroke="#606060" stroke-width=".5" x="0" y="0" width="60" height="60"/>
                <use id="zoomplus" xlink:href="#zoomPlus" x="17" y="9" onmousedown="handleZoom(evt,'in')"/>
                <use id="zoomminus" xlink:href="#zoomMin" x="42" y="9" onmousedown="handleZoom(evt,'out')"/>
                <use id="reset" xlink:href="#resetDef" x="30" y="36" onmousedown="handleReset()"/>
                <g id="arrowUp" xlink:href="#dirArrow" transform="translate(30 24)" onmousedown="handlePan(0,-1)">
                  <use xlink:href="#rim" fill="#404040">
                        <set attributeName="fill" to="#808080" begin="arrowUp.mouseover" end="arrowUp.mouseout"/>
                  </use>
                  <path fill="none" stroke="white" stroke-width="1.5" d="M0,-3.0v7 M-2.5,-0.5L0,-3.0L2.5,-0.5"/>
                </g>
                <g id="arrowRight" xlink:href="#dirArrow" transform="rotate(90) translate(36 -43)" onmousedown="handlePan(1,0)">
                  <use xlink:href="#rim" fill="#404040">
                        <set attributeName="fill" to="#808080" begin="arrowRight.mouseover" end="arrowRight.mouseout"/>
                  </use>
                  <path fill="none" stroke="white" stroke-width="1.5" d="M0,-3.0v7 M-2.5,-0.5L0,-3.0L2.5,-0.5"/>
                </g>
                <g id="arrowDown" xlink:href="#dirArrow" transform="rotate(180) translate(-30 -48)" onmousedown="handlePan(0,1)">
                  <use xlink:href="#rim" fill="#404040">
                        <set attributeName="fill" to="#808080" begin="arrowDown.mouseover" end="arrowDown.mouseout"/>
                  </use>
                  <path fill="none" stroke="white" stroke-width="1.5" d="M0,-3.0v7 M-2.5,-0.5L0,-3.0L2.5,-0.5"/>
                </g>
                <g id="arrowLeft" xlink:href="#dirArrow" transform="rotate(270) translate(-36 17)" onmousedown="handlePan(-1,0)">
                  <use xlink:href="#rim" fill="#404040">
                        <set attributeName="fill" to="#808080" begin="arrowLeft.mouseover" end="arrowLeft.mouseout"/>
                  </use>
                  <path fill="none" stroke="white" stroke-width="1.5" d="M0,-3.0v7 M-2.5,-0.5L0,-3.0L2.5,-0.5"/>
                </g>
        </g>
        <svg viewBox="0 0 15 15" width="100%" height="30px" preserveAspectRatio="xMaxYMin meet">
         <g id="arrow_out" transform="scale(0.3 0.3)">
          <a xlink:href="class_photon_1_1_pun_1_1_demo_1_1_cockpit_1_1_pun_cockpit_af748530e9da9ad5a1d411191b5930df9_cgraph_org.svg" target="_base">
           <rect id="button" ry="5" rx="5" y="6" x="6" height="38" width="38"
                fill="#f2f5e9" fill-opacity="0.5" stroke="#606060" stroke-width="1.0"/>
           <path id="arrow"
             d="M 11.500037,31.436501 C 11.940474,20.09759 22.043105,11.32322 32.158766,21.979434 L 37.068811,17.246167 C 37.068811,17.246167 37.088388,32 37.088388,32 L 22.160133,31.978069 C 22.160133,31.978069 26.997745,27.140456 26.997745,27.140456 C 18.528582,18.264221 13.291696,25.230495 11.500037,31.436501 z"
             style="fill:#404040;"/>
          </a>
         </g>
        </svg>
</svg>
