<?xml version="1.0" encoding="UTF-8" standalone="no"?>
<!DOCTYPE svg PUBLIC "-//W3C//DTD SVG 1.1//EN"
 "http://www.w3.org/Graphics/SVG/1.1/DTD/svg11.dtd">
<!-- Generated by graphviz version 2.47.3 (20210619.1520)
 -->
<!-- Title: Tayx.Graphy.CustomizationScene.G_CUIColorPicker.GetWidgetSize Pages: 1 -->
<svg width="394pt" height="39pt"
 viewBox="0.00 0.00 394.00 39.00" xmlns="http://www.w3.org/2000/svg" xmlns:xlink="http://www.w3.org/1999/xlink">
<g id="graph0" class="graph" transform="scale(1 1) rotate(0) translate(4 35)">
<title>Tayx.Graphy.CustomizationScene.G_CUIColorPicker.GetWidgetSize</title>
<polygon fill="white" stroke="transparent" points="-4,4 -4,-35 390,-35 390,4 -4,4"/>
<!-- Node1 -->
<g id="node1" class="node">
<title>Node1</title>
<g id="a_node1"><a xlink:title=" ">
<polygon fill="#bfbfbf" stroke="black" points="191,-0.5 191,-30.5 386,-30.5 386,-0.5 191,-0.5"/>
<text text-anchor="start" x="199" y="-18.5" font-family="Helvetica,sans-Serif" font-size="10.00">Tayx.Graphy.Customization</text>
<text text-anchor="middle" x="288.5" y="-7.5" font-family="Helvetica,sans-Serif" font-size="10.00">Scene.G_CUIColorPicker.GetWidgetSize</text>
</a>
</g>
</g>
<!-- Node2 -->
<g id="node2" class="node">
<title>Node2</title>
<g id="a_node2"><a xlink:href="class_tayx_1_1_graphy_1_1_customization_scene_1_1_g___c_u_i_color_picker.xhtml#aa73b8f0aa1a666473f2acc7c552eaeb9" target="_top" xlink:title=" ">
<polygon fill="white" stroke="black" points="0,-0.5 0,-30.5 155,-30.5 155,-0.5 0,-0.5"/>
<text text-anchor="start" x="8" y="-18.5" font-family="Helvetica,sans-Serif" font-size="10.00">Tayx.Graphy.Customization</text>
<text text-anchor="middle" x="77.5" y="-7.5" font-family="Helvetica,sans-Serif" font-size="10.00">Scene.G_CUIColorPicker.Setup</text>
</a>
</g>
</g>
<!-- Node1&#45;&gt;Node2 -->
<g id="edge1" class="edge">
<title>Node1&#45;&gt;Node2</title>
<path fill="none" stroke="midnightblue" d="M180.83,-15.5C172.2,-15.5 163.59,-15.5 155.23,-15.5"/>
<polygon fill="midnightblue" stroke="midnightblue" points="180.95,-19 190.95,-15.5 180.95,-12 180.95,-19"/>
</g>
</g>
</svg>
