<?xml version="1.0" encoding="UTF-8" standalone="no"?>
<!DOCTYPE svg PUBLIC "-//W3C//DTD SVG 1.1//EN"
 "http://www.w3.org/Graphics/SVG/1.1/DTD/svg11.dtd">
<!-- Generated by graphviz version 2.47.3 (20210619.1520)
 -->
<!-- Title: Photon.Pun.PhotonAnimatorViewEditor.GetParameterCount Pages: 1 -->
<svg width="781pt" height="110pt"
 viewBox="0.00 0.00 781.00 110.00" xmlns="http://www.w3.org/2000/svg" xmlns:xlink="http://www.w3.org/1999/xlink">
<g id="graph0" class="graph" transform="scale(1 1) rotate(0) translate(4 106)">
<title>Photon.Pun.PhotonAnimatorViewEditor.GetParameterCount</title>
<polygon fill="white" stroke="transparent" points="-4,4 -4,-106 777,-106 777,4 -4,4"/>
<!-- Node1 -->
<g id="node1" class="node">
<title>Node1</title>
<g id="a_node1"><a xlink:title=" ">
<polygon fill="#bfbfbf" stroke="black" points="621,-22.5 621,-52.5 773,-52.5 773,-22.5 621,-22.5"/>
<text text-anchor="start" x="629" y="-40.5" font-family="Helvetica,sans-Serif" font-size="10.00">Photon.Pun.PhotonAnimator</text>
<text text-anchor="middle" x="697" y="-29.5" font-family="Helvetica,sans-Serif" font-size="10.00">ViewEditor.GetParameterCount</text>
</a>
</g>
</g>
<!-- Node2 -->
<g id="node2" class="node">
<title>Node2</title>
<g id="a_node2"><a xlink:href="class_photon_1_1_pun_1_1_photon_animator_view_editor.xhtml#a0f89be5ee91ae0bf6980a5e76deb7bd5" target="_top" xlink:title=" ">
<polygon fill="white" stroke="black" points="420.5,-71.5 420.5,-101.5 576.5,-101.5 576.5,-71.5 420.5,-71.5"/>
<text text-anchor="start" x="428.5" y="-89.5" font-family="Helvetica,sans-Serif" font-size="10.00">Photon.Pun.PhotonAnimator</text>
<text text-anchor="middle" x="498.5" y="-78.5" font-family="Helvetica,sans-Serif" font-size="10.00">ViewEditor.DoesParameterExist</text>
</a>
</g>
</g>
<!-- Node1&#45;&gt;Node2 -->
<g id="edge1" class="edge">
<title>Node1&#45;&gt;Node2</title>
<path fill="none" stroke="midnightblue" d="M625.91,-54.98C604.26,-60.38 580.6,-66.28 559.68,-71.49"/>
<polygon fill="midnightblue" stroke="midnightblue" points="626.85,-58.35 635.71,-52.53 625.16,-51.56 626.85,-58.35"/>
</g>
<!-- Node5 -->
<g id="node5" class="node">
<title>Node5</title>
<g id="a_node5"><a xlink:href="class_photon_1_1_pun_1_1_photon_animator_view_editor.xhtml#ac104c8f09b123df1bad32101be45ece4" target="_top" xlink:title=" ">
<polygon fill="white" stroke="black" points="412,-22.5 412,-52.5 585,-52.5 585,-22.5 412,-22.5"/>
<text text-anchor="start" x="420" y="-40.5" font-family="Helvetica,sans-Serif" font-size="10.00">Photon.Pun.PhotonAnimator</text>
<text text-anchor="middle" x="498.5" y="-29.5" font-family="Helvetica,sans-Serif" font-size="10.00">ViewEditor.DrawParameterInspector</text>
</a>
</g>
</g>
<!-- Node1&#45;&gt;Node5 -->
<g id="edge4" class="edge">
<title>Node1&#45;&gt;Node5</title>
<path fill="none" stroke="midnightblue" d="M610.62,-37.5C602.16,-37.5 593.56,-37.5 585.09,-37.5"/>
<polygon fill="midnightblue" stroke="midnightblue" points="610.87,-41 620.87,-37.5 610.87,-34 610.87,-41"/>
</g>
<!-- Node6 -->
<g id="node6" class="node">
<title>Node6</title>
<g id="a_node6"><a xlink:href="class_photon_1_1_pun_1_1_photon_animator_view_editor.xhtml#aad6c249b63a243cefe9cddb67450ba9f" target="_top" xlink:title=" ">
<polygon fill="white" stroke="black" points="206,-0.5 206,-30.5 346,-30.5 346,-0.5 206,-0.5"/>
<text text-anchor="start" x="214" y="-18.5" font-family="Helvetica,sans-Serif" font-size="10.00">Photon.Pun.PhotonAnimator</text>
<text text-anchor="middle" x="276" y="-7.5" font-family="Helvetica,sans-Serif" font-size="10.00">ViewEditor.OnInspectorGUI</text>
</a>
</g>
</g>
<!-- Node1&#45;&gt;Node6 -->
<g id="edge6" class="edge">
<title>Node1&#45;&gt;Node6</title>
<path fill="none" stroke="midnightblue" d="M630.41,-20.21C615.58,-17 599.83,-14.15 585,-12.5 503.29,-3.41 408.63,-6.32 346.05,-10.1"/>
<polygon fill="midnightblue" stroke="midnightblue" points="629.99,-23.7 640.51,-22.47 631.52,-16.87 629.99,-23.7"/>
</g>
<!-- Node3 -->
<g id="node3" class="node">
<title>Node3</title>
<g id="a_node3"><a xlink:href="class_photon_1_1_pun_1_1_photon_animator_view_editor.xhtml#a38b63c883772f7ed48fdfd2949566108" target="_top" xlink:title=" ">
<polygon fill="white" stroke="black" points="176,-71.5 176,-101.5 376,-101.5 376,-71.5 176,-71.5"/>
<text text-anchor="start" x="184" y="-89.5" font-family="Helvetica,sans-Serif" font-size="10.00">Photon.Pun.PhotonAnimator</text>
<text text-anchor="middle" x="276" y="-78.5" font-family="Helvetica,sans-Serif" font-size="10.00">ViewEditor.CheckIfStoredParametersExist</text>
</a>
</g>
</g>
<!-- Node2&#45;&gt;Node3 -->
<g id="edge2" class="edge">
<title>Node2&#45;&gt;Node3</title>
<path fill="none" stroke="midnightblue" d="M410.22,-86.5C399.03,-86.5 387.52,-86.5 376.17,-86.5"/>
<polygon fill="midnightblue" stroke="midnightblue" points="410.38,-90 420.38,-86.5 410.38,-83 410.38,-90"/>
</g>
<!-- Node4 -->
<g id="node4" class="node">
<title>Node4</title>
<g id="a_node4"><a xlink:href="class_photon_1_1_pun_1_1_photon_animator_view_editor.xhtml#a514608c3837159af5483ead1a3bbd510" target="_top" xlink:title=" ">
<polygon fill="white" stroke="black" points="0,-71.5 0,-101.5 140,-101.5 140,-71.5 0,-71.5"/>
<text text-anchor="start" x="8" y="-89.5" font-family="Helvetica,sans-Serif" font-size="10.00">Photon.Pun.PhotonAnimator</text>
<text text-anchor="middle" x="70" y="-78.5" font-family="Helvetica,sans-Serif" font-size="10.00">ViewEditor.OnEnable</text>
</a>
</g>
</g>
<!-- Node3&#45;&gt;Node4 -->
<g id="edge3" class="edge">
<title>Node3&#45;&gt;Node4</title>
<path fill="none" stroke="midnightblue" d="M165.8,-86.5C157.13,-86.5 148.53,-86.5 140.26,-86.5"/>
<polygon fill="midnightblue" stroke="midnightblue" points="165.99,-90 175.99,-86.5 165.99,-83 165.99,-90"/>
</g>
<!-- Node5&#45;&gt;Node6 -->
<g id="edge5" class="edge">
<title>Node5&#45;&gt;Node6</title>
<path fill="none" stroke="midnightblue" d="M401.89,-27.96C383.14,-26.09 363.82,-24.16 346.14,-22.4"/>
<polygon fill="midnightblue" stroke="midnightblue" points="401.64,-31.45 411.93,-28.96 402.33,-24.49 401.64,-31.45"/>
</g>
</g>
</svg>
