<?xml version="1.0" encoding="UTF-8" standalone="no"?>
<!DOCTYPE svg PUBLIC "-//W3C//DTD SVG 1.1//EN"
 "http://www.w3.org/Graphics/SVG/1.1/DTD/svg11.dtd">
<!-- Generated by graphviz version 2.47.3 (20210619.1520)
 -->
<!-- Title: Photon.Pun.PhotonNetwork.EnterOfflineRoom Pages: 1 -->
<svg width="933pt" height="186pt"
 viewBox="0.00 0.00 933.00 186.00" xmlns="http://www.w3.org/2000/svg" xmlns:xlink="http://www.w3.org/1999/xlink">
<g id="graph0" class="graph" transform="scale(1 1) rotate(0) translate(4 182)">
<title>Photon.Pun.PhotonNetwork.EnterOfflineRoom</title>
<polygon fill="white" stroke="transparent" points="-4,4 -4,-182 929,-182 929,4 -4,4"/>
<!-- Node1 -->
<g id="node1" class="node">
<title>Node1</title>
<g id="a_node1"><a xlink:title="Internally used helper&#45;method to setup an offline room, the numbers for actor and master&#45;client and t...">
<polygon fill="#bfbfbf" stroke="black" points="0,-73.5 0,-103.5 140,-103.5 140,-73.5 0,-73.5"/>
<text text-anchor="start" x="8" y="-91.5" font-family="Helvetica,sans-Serif" font-size="10.00">Photon.Pun.PhotonNetwork.</text>
<text text-anchor="middle" x="70" y="-80.5" font-family="Helvetica,sans-Serif" font-size="10.00">EnterOfflineRoom</text>
</a>
</g>
</g>
<!-- Node2 -->
<g id="node2" class="node">
<title>Node2</title>
<g id="a_node2"><a xlink:href="class_photon_1_1_realtime_1_1_room.xhtml#a56e911de4cd47b4fd2dba63830c35ed3" target="_top" xlink:title="Checks if the player is in the room&#39;s list already and calls StorePlayer() if not.">
<polygon fill="white" stroke="black" points="195.5,-147.5 195.5,-177.5 332.5,-177.5 332.5,-147.5 195.5,-147.5"/>
<text text-anchor="start" x="203.5" y="-165.5" font-family="Helvetica,sans-Serif" font-size="10.00">Photon.Realtime.Room.Add</text>
<text text-anchor="middle" x="264" y="-154.5" font-family="Helvetica,sans-Serif" font-size="10.00">Player</text>
</a>
</g>
</g>
<!-- Node1&#45;&gt;Node2 -->
<g id="edge1" class="edge">
<title>Node1&#45;&gt;Node2</title>
<path fill="none" stroke="midnightblue" d="M99.38,-103.68C120.18,-114.4 149.32,-128.56 176,-138.5 181.55,-140.57 187.36,-142.55 193.22,-144.42"/>
<polygon fill="midnightblue" stroke="midnightblue" points="192.53,-147.87 203.12,-147.47 194.6,-141.18 192.53,-147.87"/>
</g>
<!-- Node4 -->
<g id="node4" class="node">
<title>Node4</title>
<g id="a_node4"><a xlink:href="class_photon_1_1_realtime_1_1_load_balancing_client.xhtml#a32adb95af4cb836a29fc53aa66000caf" target="_top" xlink:title="Internally used to set the LocalPlayer&#39;s ID (from &#45;1 to the actual in&#45;room ID).">
<polygon fill="white" stroke="black" points="186.5,-98.5 186.5,-128.5 341.5,-128.5 341.5,-98.5 186.5,-98.5"/>
<text text-anchor="start" x="194.5" y="-116.5" font-family="Helvetica,sans-Serif" font-size="10.00">Photon.Realtime.LoadBalancing</text>
<text text-anchor="middle" x="264" y="-105.5" font-family="Helvetica,sans-Serif" font-size="10.00">Client.ChangeLocalID</text>
</a>
</g>
</g>
<!-- Node1&#45;&gt;Node4 -->
<g id="edge3" class="edge">
<title>Node1&#45;&gt;Node4</title>
<path fill="none" stroke="midnightblue" d="M140.05,-97.49C151.8,-99.02 164.15,-100.63 176.3,-102.21"/>
<polygon fill="midnightblue" stroke="midnightblue" points="176.07,-105.71 186.43,-103.53 176.97,-98.77 176.07,-105.71"/>
</g>
<!-- Node8 -->
<g id="node8" class="node">
<title>Node8</title>
<g id="a_node8"><a xlink:href="class_photon_1_1_realtime_1_1_match_making_callbacks_container.xhtml#a0cbb3230022bdffebc1191f80f9bfc2a" target="_top" xlink:title="Called when this client created a room and entered it.">
<polygon fill="white" stroke="black" points="176,-49.5 176,-79.5 352,-79.5 352,-49.5 176,-49.5"/>
<text text-anchor="start" x="184" y="-67.5" font-family="Helvetica,sans-Serif" font-size="10.00">Photon.Realtime.MatchMaking</text>
<text text-anchor="middle" x="264" y="-56.5" font-family="Helvetica,sans-Serif" font-size="10.00">CallbacksContainer.OnCreatedRoom</text>
</a>
</g>
</g>
<!-- Node1&#45;&gt;Node8 -->
<g id="edge8" class="edge">
<title>Node1&#45;&gt;Node8</title>
<path fill="none" stroke="midnightblue" d="M140.05,-79.87C148.39,-78.83 157.03,-77.75 165.69,-76.66"/>
<polygon fill="midnightblue" stroke="midnightblue" points="166.35,-80.11 175.84,-75.4 165.48,-73.16 166.35,-80.11"/>
</g>
<!-- Node10 -->
<g id="node10" class="node">
<title>Node10</title>
<g id="a_node10"><a xlink:href="class_photon_1_1_realtime_1_1_match_making_callbacks_container.xhtml#a5f91efa8551b2be7524bb4c6fb6da57a" target="_top" xlink:title="Called when the LoadBalancingClient entered a room, no matter if this client created it or simply joi...">
<polygon fill="white" stroke="black" points="179,-0.5 179,-30.5 349,-30.5 349,-0.5 179,-0.5"/>
<text text-anchor="start" x="187" y="-18.5" font-family="Helvetica,sans-Serif" font-size="10.00">Photon.Realtime.MatchMaking</text>
<text text-anchor="middle" x="264" y="-7.5" font-family="Helvetica,sans-Serif" font-size="10.00">CallbacksContainer.OnJoinedRoom</text>
</a>
</g>
</g>
<!-- Node1&#45;&gt;Node10 -->
<g id="edge10" class="edge">
<title>Node1&#45;&gt;Node10</title>
<path fill="none" stroke="midnightblue" d="M99.86,-73.43C120.65,-62.98 149.57,-49.23 176,-39.5 181.56,-37.45 187.37,-35.49 193.24,-33.62"/>
<polygon fill="midnightblue" stroke="midnightblue" points="194.61,-36.87 203.14,-30.59 192.56,-30.17 194.61,-36.87"/>
</g>
<!-- Node3 -->
<g id="node3" class="node">
<title>Node3</title>
<g id="a_node3"><a xlink:href="class_photon_1_1_realtime_1_1_room.xhtml#a5e614a00e26aae5f35f0805c4e4bb7a9" target="_top" xlink:title="Updates a player reference in the Players dictionary (no matter if it existed before or not).">
<polygon fill="white" stroke="black" points="394,-147.5 394,-177.5 537,-177.5 537,-147.5 394,-147.5"/>
<text text-anchor="start" x="402" y="-165.5" font-family="Helvetica,sans-Serif" font-size="10.00">Photon.Realtime.Room.Store</text>
<text text-anchor="middle" x="465.5" y="-154.5" font-family="Helvetica,sans-Serif" font-size="10.00">Player</text>
</a>
</g>
</g>
<!-- Node2&#45;&gt;Node3 -->
<g id="edge2" class="edge">
<title>Node2&#45;&gt;Node3</title>
<path fill="none" stroke="midnightblue" d="M332.54,-162.5C348.92,-162.5 366.6,-162.5 383.54,-162.5"/>
<polygon fill="midnightblue" stroke="midnightblue" points="383.96,-166 393.96,-162.5 383.96,-159 383.96,-166"/>
</g>
<!-- Node4&#45;&gt;Node3 -->
<g id="edge7" class="edge">
<title>Node4&#45;&gt;Node3</title>
<path fill="none" stroke="midnightblue" d="M326.21,-128.53C347.47,-133.76 371.48,-139.65 393.46,-145.05"/>
<polygon fill="midnightblue" stroke="midnightblue" points="392.86,-148.51 403.4,-147.49 394.53,-141.71 392.86,-148.51"/>
</g>
<!-- Node5 -->
<g id="node5" class="node">
<title>Node5</title>
<g id="a_node5"><a xlink:href="class_photon_1_1_realtime_1_1_load_balancing_client.xhtml#a69dd43d4c7211b5b83cd54d0ebcf79e7" target="_top" xlink:title="Debug output of low level api (and this client).">
<polygon fill="white" stroke="black" points="388,-98.5 388,-128.5 543,-128.5 543,-98.5 388,-98.5"/>
<text text-anchor="start" x="396" y="-116.5" font-family="Helvetica,sans-Serif" font-size="10.00">Photon.Realtime.LoadBalancing</text>
<text text-anchor="middle" x="465.5" y="-105.5" font-family="Helvetica,sans-Serif" font-size="10.00">Client.DebugReturn</text>
</a>
</g>
</g>
<!-- Node4&#45;&gt;Node5 -->
<g id="edge4" class="edge">
<title>Node4&#45;&gt;Node5</title>
<path fill="none" stroke="midnightblue" d="M341.56,-113.5C353.41,-113.5 365.72,-113.5 377.77,-113.5"/>
<polygon fill="midnightblue" stroke="midnightblue" points="377.81,-117 387.81,-113.5 377.81,-110 377.81,-117"/>
</g>
<!-- Node6 -->
<g id="node6" class="node">
<title>Node6</title>
<g id="a_node6"><a xlink:href="class_photon_1_1_realtime_1_1_load_balancing_peer.xhtml#a7f48b5f0c44ef0c67ef32f147ff87246" target="_top" xlink:title="Creates a Peer with specified connection protocol.">
<polygon fill="white" stroke="black" points="579,-98.5 579,-128.5 734,-128.5 734,-98.5 579,-98.5"/>
<text text-anchor="start" x="587" y="-116.5" font-family="Helvetica,sans-Serif" font-size="10.00">Photon.Realtime.LoadBalancing</text>
<text text-anchor="middle" x="656.5" y="-105.5" font-family="Helvetica,sans-Serif" font-size="10.00">Peer.LoadBalancingPeer</text>
</a>
</g>
</g>
<!-- Node5&#45;&gt;Node6 -->
<g id="edge5" class="edge">
<title>Node5&#45;&gt;Node6</title>
<path fill="none" stroke="midnightblue" d="M543.1,-113.5C551.56,-113.5 560.22,-113.5 568.79,-113.5"/>
<polygon fill="midnightblue" stroke="midnightblue" points="568.79,-117 578.79,-113.5 568.79,-110 568.79,-117"/>
</g>
<!-- Node7 -->
<g id="node7" class="node">
<title>Node7</title>
<g id="a_node7"><a xlink:href="class_photon_1_1_realtime_1_1_load_balancing_peer.xhtml#affaff7e1fdffe86b25156ffac5e738c9" target="_top" xlink:title=" ">
<polygon fill="white" stroke="black" points="770,-98.5 770,-128.5 925,-128.5 925,-98.5 770,-98.5"/>
<text text-anchor="start" x="778" y="-116.5" font-family="Helvetica,sans-Serif" font-size="10.00">Photon.Realtime.LoadBalancing</text>
<text text-anchor="middle" x="847.5" y="-105.5" font-family="Helvetica,sans-Serif" font-size="10.00">Peer.ConfigUnitySockets</text>
</a>
</g>
</g>
<!-- Node6&#45;&gt;Node7 -->
<g id="edge6" class="edge">
<title>Node6&#45;&gt;Node7</title>
<path fill="none" stroke="midnightblue" d="M734.1,-113.5C742.56,-113.5 751.22,-113.5 759.79,-113.5"/>
<polygon fill="midnightblue" stroke="midnightblue" points="759.79,-117 769.79,-113.5 759.79,-110 759.79,-117"/>
</g>
<!-- Node9 -->
<g id="node9" class="node">
<title>Node9</title>
<g id="a_node9"><a xlink:href="interface_photon_1_1_realtime_1_1_i_matchmaking_callbacks.xhtml#a3d084f0aa95b2e8f48514695af73b31d" target="_top" xlink:title="Called when this client created a room and entered it.">
<polygon fill="white" stroke="black" points="389.5,-49.5 389.5,-79.5 541.5,-79.5 541.5,-49.5 389.5,-49.5"/>
<text text-anchor="start" x="397.5" y="-67.5" font-family="Helvetica,sans-Serif" font-size="10.00">Photon.Realtime.IMatchmaking</text>
<text text-anchor="middle" x="465.5" y="-56.5" font-family="Helvetica,sans-Serif" font-size="10.00">Callbacks.OnCreatedRoom</text>
</a>
</g>
</g>
<!-- Node8&#45;&gt;Node9 -->
<g id="edge9" class="edge">
<title>Node8&#45;&gt;Node9</title>
<path fill="none" stroke="midnightblue" d="M352.21,-64.5C361.2,-64.5 370.33,-64.5 379.3,-64.5"/>
<polygon fill="midnightblue" stroke="midnightblue" points="379.34,-68 389.34,-64.5 379.34,-61 379.34,-68"/>
</g>
<!-- Node11 -->
<g id="node11" class="node">
<title>Node11</title>
<g id="a_node11"><a xlink:href="interface_photon_1_1_realtime_1_1_i_matchmaking_callbacks.xhtml#a8add9e72c38d241a448f4b539acd684b" target="_top" xlink:title="Called when the LoadBalancingClient entered a room, no matter if this client created it or simply joi...">
<polygon fill="white" stroke="black" points="389.5,-0.5 389.5,-30.5 541.5,-30.5 541.5,-0.5 389.5,-0.5"/>
<text text-anchor="start" x="397.5" y="-18.5" font-family="Helvetica,sans-Serif" font-size="10.00">Photon.Realtime.IMatchmaking</text>
<text text-anchor="middle" x="465.5" y="-7.5" font-family="Helvetica,sans-Serif" font-size="10.00">Callbacks.OnJoinedRoom</text>
</a>
</g>
</g>
<!-- Node10&#45;&gt;Node11 -->
<g id="edge11" class="edge">
<title>Node10&#45;&gt;Node11</title>
<path fill="none" stroke="midnightblue" d="M349.03,-15.5C358.99,-15.5 369.16,-15.5 379.14,-15.5"/>
<polygon fill="midnightblue" stroke="midnightblue" points="379.44,-19 389.44,-15.5 379.44,-12 379.44,-19"/>
</g>
</g>
</svg>
