<?xml version="1.0" encoding="UTF-8" standalone="no"?>
<!DOCTYPE svg PUBLIC "-//W3C//DTD SVG 1.1//EN"
 "http://www.w3.org/Graphics/SVG/1.1/DTD/svg11.dtd">
<!-- Generated by graphviz version 2.47.3 (20210619.1520)
 -->
<!-- Title: Photon.Pun.Demo.Cockpit.CurrentRoomEmptyRoomTtlProperty.Update Pages: 1 -->
<svg width="560pt" height="50pt"
 viewBox="0.00 0.00 560.00 50.00" xmlns="http://www.w3.org/2000/svg" xmlns:xlink="http://www.w3.org/1999/xlink">
<g id="graph0" class="graph" transform="scale(1 1) rotate(0) translate(4 46)">
<title>Photon.Pun.Demo.Cockpit.CurrentRoomEmptyRoomTtlProperty.Update</title>
<polygon fill="white" stroke="transparent" points="-4,4 -4,-46 556,-46 556,4 -4,4"/>
<!-- Node1 -->
<g id="node1" class="node">
<title>Node1</title>
<g id="a_node1"><a xlink:title=" ">
<polygon fill="#bfbfbf" stroke="black" points="0,-0.5 0,-41.5 178,-41.5 178,-0.5 0,-0.5"/>
<text text-anchor="start" x="8" y="-29.5" font-family="Helvetica,sans-Serif" font-size="10.00">Photon.Pun.Demo.Cockpit.</text>
<text text-anchor="start" x="8" y="-18.5" font-family="Helvetica,sans-Serif" font-size="10.00">CurrentRoomEmptyRoomTtlProperty.</text>
<text text-anchor="middle" x="89" y="-7.5" font-family="Helvetica,sans-Serif" font-size="10.00">Update</text>
</a>
</g>
</g>
<!-- Node2 -->
<g id="node2" class="node">
<title>Node2</title>
<g id="a_node2"><a xlink:href="class_photon_1_1_pun_1_1_demo_1_1_cockpit_1_1_property_listener_base.xhtml#a77b753e8476c33ddd6d8261e9a374943" target="_top" xlink:title=" ">
<polygon fill="white" stroke="black" points="214,-0.5 214,-41.5 365,-41.5 365,-0.5 214,-0.5"/>
<text text-anchor="start" x="222" y="-29.5" font-family="Helvetica,sans-Serif" font-size="10.00">Photon.Pun.Demo.Cockpit.</text>
<text text-anchor="start" x="222" y="-18.5" font-family="Helvetica,sans-Serif" font-size="10.00">PropertyListenerBase.OnValue</text>
<text text-anchor="middle" x="289.5" y="-7.5" font-family="Helvetica,sans-Serif" font-size="10.00">Changed</text>
</a>
</g>
</g>
<!-- Node1&#45;&gt;Node2 -->
<g id="edge1" class="edge">
<title>Node1&#45;&gt;Node2</title>
<path fill="none" stroke="midnightblue" d="M178.22,-21C186.69,-21 195.26,-21 203.69,-21"/>
<polygon fill="midnightblue" stroke="midnightblue" points="203.89,-24.5 213.89,-21 203.89,-17.5 203.89,-24.5"/>
</g>
<!-- Node3 -->
<g id="node3" class="node">
<title>Node3</title>
<g id="a_node3"><a xlink:href="class_photon_1_1_pun_1_1_demo_1_1_cockpit_1_1_property_listener_base.xhtml#aadf02605f64218d6283f2d602eb4c879" target="_top" xlink:title=" ">
<polygon fill="white" stroke="black" points="401,-6 401,-36 552,-36 552,-6 401,-6"/>
<text text-anchor="start" x="409" y="-24" font-family="Helvetica,sans-Serif" font-size="10.00">Photon.Pun.Demo.Cockpit.</text>
<text text-anchor="middle" x="476.5" y="-13" font-family="Helvetica,sans-Serif" font-size="10.00">PropertyListenerBase.FadeOut</text>
</a>
</g>
</g>
<!-- Node2&#45;&gt;Node3 -->
<g id="edge2" class="edge">
<title>Node2&#45;&gt;Node3</title>
<path fill="none" stroke="midnightblue" d="M365.21,-21C373.55,-21 382.1,-21 390.55,-21"/>
<polygon fill="midnightblue" stroke="midnightblue" points="390.81,-24.5 400.81,-21 390.81,-17.5 390.81,-24.5"/>
</g>
</g>
</svg>
