<?xml version="1.0" encoding="UTF-8" standalone="no"?>
<!DOCTYPE svg PUBLIC "-//W3C//DTD SVG 1.1//EN"
 "http://www.w3.org/Graphics/SVG/1.1/DTD/svg11.dtd">
<!-- Generated by graphviz version 2.47.3 (20210619.1520)
 -->
<!-- Title: Tayx.Graphy.Ram.G_RamManager.Start Pages: 1 -->
<svg width="989pt" height="205pt"
 viewBox="0.00 0.00 989.00 205.00" xmlns="http://www.w3.org/2000/svg" xmlns:xlink="http://www.w3.org/1999/xlink">
<g id="graph0" class="graph" transform="scale(1 1) rotate(0) translate(4 201)">
<title>Tayx.Graphy.Ram.G_RamManager.Start</title>
<polygon fill="white" stroke="transparent" points="-4,4 -4,-201 985,-201 985,4 -4,4"/>
<!-- Node1 -->
<g id="node1" class="node">
<title>Node1</title>
<g id="a_node1"><a xlink:title=" ">
<polygon fill="#bfbfbf" stroke="black" points="0,-49.5 0,-79.5 172,-79.5 172,-49.5 0,-49.5"/>
<text text-anchor="start" x="8" y="-67.5" font-family="Helvetica,sans-Serif" font-size="10.00">Tayx.Graphy.Ram.G_RamManager.</text>
<text text-anchor="middle" x="86" y="-56.5" font-family="Helvetica,sans-Serif" font-size="10.00">Start</text>
</a>
</g>
</g>
<!-- Node2 -->
<g id="node2" class="node">
<title>Node2</title>
<g id="a_node2"><a xlink:href="class_tayx_1_1_graphy_1_1_ram_1_1_g___ram_manager.xhtml#a1acb2bac295238dc6b3e4c2b3198568d" target="_top" xlink:title=" ">
<polygon fill="white" stroke="black" points="208,-49.5 208,-79.5 380,-79.5 380,-49.5 208,-49.5"/>
<text text-anchor="start" x="216" y="-67.5" font-family="Helvetica,sans-Serif" font-size="10.00">Tayx.Graphy.Ram.G_RamManager.</text>
<text text-anchor="middle" x="294" y="-56.5" font-family="Helvetica,sans-Serif" font-size="10.00">UpdateParameters</text>
</a>
</g>
</g>
<!-- Node1&#45;&gt;Node2 -->
<g id="edge1" class="edge">
<title>Node1&#45;&gt;Node2</title>
<path fill="none" stroke="midnightblue" d="M172.28,-64.5C180.62,-64.5 189.12,-64.5 197.55,-64.5"/>
<polygon fill="midnightblue" stroke="midnightblue" points="197.79,-68 207.79,-64.5 197.79,-61 197.79,-68"/>
</g>
<!-- Node3 -->
<g id="node3" class="node">
<title>Node3</title>
<g id="a_node3"><a xlink:href="class_tayx_1_1_graphy_1_1_ram_1_1_g___ram_manager.xhtml#a00af4a150c20f8d373fb6df080b1e3e1" target="_top" xlink:title="Set the module state.">
<polygon fill="white" stroke="black" points="416,-120.5 416,-150.5 588,-150.5 588,-120.5 416,-120.5"/>
<text text-anchor="start" x="424" y="-138.5" font-family="Helvetica,sans-Serif" font-size="10.00">Tayx.Graphy.Ram.G_RamManager.</text>
<text text-anchor="middle" x="502" y="-127.5" font-family="Helvetica,sans-Serif" font-size="10.00">SetState</text>
</a>
</g>
</g>
<!-- Node2&#45;&gt;Node3 -->
<g id="edge2" class="edge">
<title>Node2&#45;&gt;Node3</title>
<path fill="none" stroke="midnightblue" d="M338.69,-79.56C370.51,-90.52 413.78,-105.44 447.64,-117.11"/>
<polygon fill="midnightblue" stroke="midnightblue" points="446.78,-120.51 457.38,-120.46 449.06,-113.9 446.78,-120.51"/>
</g>
<!-- Node5 -->
<g id="node5" class="node">
<title>Node5</title>
<g id="a_node5"><a xlink:href="class_tayx_1_1_graphy_1_1_ram_1_1_g___ram_graph.xhtml#a664d3277ea728c0f7750211346ca3908" target="_top" xlink:title=" ">
<polygon fill="white" stroke="black" points="421.5,-49.5 421.5,-79.5 582.5,-79.5 582.5,-49.5 421.5,-49.5"/>
<text text-anchor="start" x="429.5" y="-67.5" font-family="Helvetica,sans-Serif" font-size="10.00">Tayx.Graphy.Ram.G_RamGraph.</text>
<text text-anchor="middle" x="502" y="-56.5" font-family="Helvetica,sans-Serif" font-size="10.00">UpdateParameters</text>
</a>
</g>
</g>
<!-- Node2&#45;&gt;Node5 -->
<g id="edge4" class="edge">
<title>Node2&#45;&gt;Node5</title>
<path fill="none" stroke="midnightblue" d="M380.28,-64.5C390.49,-64.5 400.94,-64.5 411.21,-64.5"/>
<polygon fill="midnightblue" stroke="midnightblue" points="411.41,-68 421.41,-64.5 411.41,-61 411.41,-68"/>
</g>
<!-- Node13 -->
<g id="node13" class="node">
<title>Node13</title>
<g id="a_node13"><a xlink:href="class_tayx_1_1_graphy_1_1_ram_1_1_g___ram_text.xhtml#a0e102d46ef660a8b0cd1dbe4635f6d88" target="_top" xlink:title=" ">
<polygon fill="white" stroke="black" points="425.5,-0.5 425.5,-30.5 578.5,-30.5 578.5,-0.5 425.5,-0.5"/>
<text text-anchor="start" x="433.5" y="-18.5" font-family="Helvetica,sans-Serif" font-size="10.00">Tayx.Graphy.Ram.G_RamText.</text>
<text text-anchor="middle" x="502" y="-7.5" font-family="Helvetica,sans-Serif" font-size="10.00">UpdateParameters</text>
</a>
</g>
</g>
<!-- Node2&#45;&gt;Node13 -->
<g id="edge13" class="edge">
<title>Node2&#45;&gt;Node13</title>
<path fill="none" stroke="midnightblue" d="M358.21,-49.47C380.25,-44.22 405.18,-38.29 427.96,-32.87"/>
<polygon fill="midnightblue" stroke="midnightblue" points="428.99,-36.23 437.91,-30.51 427.37,-29.42 428.99,-36.23"/>
</g>
<!-- Node4 -->
<g id="node4" class="node">
<title>Node4</title>
<g id="a_node4"><a xlink:href="class_tayx_1_1_graphy_1_1_ram_1_1_g___ram_manager.xhtml#a773c87f61c2bce8bef6c324cda1b30f4" target="_top" xlink:title=" ">
<polygon fill="white" stroke="black" points="624.5,-142.5 624.5,-172.5 796.5,-172.5 796.5,-142.5 624.5,-142.5"/>
<text text-anchor="start" x="632.5" y="-160.5" font-family="Helvetica,sans-Serif" font-size="10.00">Tayx.Graphy.Ram.G_RamManager.</text>
<text text-anchor="middle" x="710.5" y="-149.5" font-family="Helvetica,sans-Serif" font-size="10.00">SetGraphActive</text>
</a>
</g>
</g>
<!-- Node3&#45;&gt;Node4 -->
<g id="edge3" class="edge">
<title>Node3&#45;&gt;Node4</title>
<path fill="none" stroke="midnightblue" d="M588.18,-144.58C596.73,-145.49 605.44,-146.41 614.08,-147.33"/>
<polygon fill="midnightblue" stroke="midnightblue" points="613.86,-150.83 624.18,-148.41 614.61,-143.87 613.86,-150.83"/>
</g>
<!-- Node6 -->
<g id="node6" class="node">
<title>Node6</title>
<g id="a_node6"><a xlink:href="class_tayx_1_1_graphy_1_1_ram_1_1_g___ram_graph.xhtml#a9b4664e5086ead30d31ef074a746a167" target="_top" xlink:title="Creates the points for the graph/s.">
<polygon fill="white" stroke="black" points="630,-93.5 630,-123.5 791,-123.5 791,-93.5 630,-93.5"/>
<text text-anchor="start" x="638" y="-111.5" font-family="Helvetica,sans-Serif" font-size="10.00">Tayx.Graphy.Ram.G_RamGraph.</text>
<text text-anchor="middle" x="710.5" y="-100.5" font-family="Helvetica,sans-Serif" font-size="10.00">CreatePoints</text>
</a>
</g>
</g>
<!-- Node5&#45;&gt;Node6 -->
<g id="edge5" class="edge">
<title>Node5&#45;&gt;Node6</title>
<path fill="none" stroke="midnightblue" d="M573.49,-79.52C591.41,-83.34 610.81,-87.47 629.19,-91.39"/>
<polygon fill="midnightblue" stroke="midnightblue" points="628.47,-94.81 638.98,-93.47 629.93,-87.97 628.47,-94.81"/>
</g>
<!-- Node11 -->
<g id="node11" class="node">
<title>Node11</title>
<g id="a_node11"><a xlink:href="class_tayx_1_1_graphy_1_1_ram_1_1_g___ram_graph.xhtml#ac673e22836461feb3db6830ff707fade" target="_top" xlink:title=" ">
<polygon fill="white" stroke="black" points="624,-55 624,-74 797,-74 797,-55 624,-55"/>
<text text-anchor="middle" x="710.5" y="-62" font-family="Helvetica,sans-Serif" font-size="10.00">Tayx.Graphy.Ram.G_RamGraph.Init</text>
</a>
</g>
</g>
<!-- Node5&#45;&gt;Node11 -->
<g id="edge10" class="edge">
<title>Node5&#45;&gt;Node11</title>
<path fill="none" stroke="midnightblue" d="M582.54,-57.91C592.68,-57.77 603.15,-57.72 613.51,-57.76"/>
<polygon fill="midnightblue" stroke="midnightblue" points="613.8,-61.27 623.83,-57.84 613.85,-54.27 613.8,-61.27"/>
</g>
<!-- Node12 -->
<g id="node12" class="node">
<title>Node12</title>
<g id="a_node12"><a xlink:href="class_tayx_1_1_graphy_1_1_g___graph_shader.xhtml#a531ef44ced25f9686183cc7c46ca3920" target="_top" xlink:title="This is done to avoid a design problem that arrays in shaders have, and should be called before initi...">
<polygon fill="white" stroke="black" points="636.5,-5.5 636.5,-35.5 784.5,-35.5 784.5,-5.5 636.5,-5.5"/>
<text text-anchor="start" x="644.5" y="-23.5" font-family="Helvetica,sans-Serif" font-size="10.00">Tayx.Graphy.G_GraphShader.</text>
<text text-anchor="middle" x="710.5" y="-12.5" font-family="Helvetica,sans-Serif" font-size="10.00">InitializeShader</text>
</a>
</g>
</g>
<!-- Node5&#45;&gt;Node12 -->
<g id="edge12" class="edge">
<title>Node5&#45;&gt;Node12</title>
<path fill="none" stroke="midnightblue" d="M573.49,-49.48C591.41,-45.66 610.81,-41.53 629.19,-37.61"/>
<polygon fill="midnightblue" stroke="midnightblue" points="629.93,-41.03 638.98,-35.53 628.47,-34.19 629.93,-41.03"/>
</g>
<!-- Node7 -->
<g id="node7" class="node">
<title>Node7</title>
<g id="a_node7"><a xlink:href="class_tayx_1_1_graphy_1_1_g___graph_shader.xhtml#ac039f519ec84d521e44bf8f9b90ff7e8" target="_top" xlink:title="Updates the material linked with this shader graph with the values in the float[] array.">
<polygon fill="white" stroke="black" points="833,-166.5 833,-196.5 981,-196.5 981,-166.5 833,-166.5"/>
<text text-anchor="start" x="841" y="-184.5" font-family="Helvetica,sans-Serif" font-size="10.00">Tayx.Graphy.G_GraphShader.</text>
<text text-anchor="middle" x="907" y="-173.5" font-family="Helvetica,sans-Serif" font-size="10.00">UpdateArray</text>
</a>
</g>
</g>
<!-- Node6&#45;&gt;Node7 -->
<g id="edge6" class="edge">
<title>Node6&#45;&gt;Node7</title>
<path fill="none" stroke="midnightblue" d="M771.69,-123.58C780.34,-126.47 789.01,-129.78 797,-133.5 814.43,-141.63 815.71,-149.09 833,-157.5 836.78,-159.34 840.73,-161.09 844.76,-162.74"/>
<polygon fill="midnightblue" stroke="midnightblue" points="843.66,-166.07 854.25,-166.43 846.2,-159.55 843.66,-166.07"/>
</g>
<!-- Node8 -->
<g id="node8" class="node">
<title>Node8</title>
<g id="a_node8"><a xlink:href="class_tayx_1_1_graphy_1_1_g___graph_shader.xhtml#a67831882b060d17c9d7a754546ef2e6b" target="_top" xlink:title="Updates the average parameter in the material.">
<polygon fill="white" stroke="black" points="833,-117.5 833,-147.5 981,-147.5 981,-117.5 833,-117.5"/>
<text text-anchor="start" x="841" y="-135.5" font-family="Helvetica,sans-Serif" font-size="10.00">Tayx.Graphy.G_GraphShader.</text>
<text text-anchor="middle" x="907" y="-124.5" font-family="Helvetica,sans-Serif" font-size="10.00">UpdateAverage</text>
</a>
</g>
</g>
<!-- Node6&#45;&gt;Node8 -->
<g id="edge7" class="edge">
<title>Node6&#45;&gt;Node8</title>
<path fill="none" stroke="midnightblue" d="M791.17,-118.33C801.59,-119.62 812.28,-120.94 822.75,-122.23"/>
<polygon fill="midnightblue" stroke="midnightblue" points="822.35,-125.71 832.71,-123.46 823.21,-118.76 822.35,-125.71"/>
</g>
<!-- Node9 -->
<g id="node9" class="node">
<title>Node9</title>
<g id="a_node9"><a xlink:href="class_tayx_1_1_graphy_1_1_g___graph_shader.xhtml#ac4ec72181f804fc7e8516292bd3a5995" target="_top" xlink:title="Updates the colors in the material.">
<polygon fill="white" stroke="black" points="833,-68.5 833,-98.5 981,-98.5 981,-68.5 833,-68.5"/>
<text text-anchor="start" x="841" y="-86.5" font-family="Helvetica,sans-Serif" font-size="10.00">Tayx.Graphy.G_GraphShader.</text>
<text text-anchor="middle" x="907" y="-75.5" font-family="Helvetica,sans-Serif" font-size="10.00">UpdateColors</text>
</a>
</g>
</g>
<!-- Node6&#45;&gt;Node9 -->
<g id="edge8" class="edge">
<title>Node6&#45;&gt;Node9</title>
<path fill="none" stroke="midnightblue" d="M791.17,-98.26C801.59,-96.92 812.28,-95.55 822.75,-94.2"/>
<polygon fill="midnightblue" stroke="midnightblue" points="823.23,-97.67 832.71,-92.92 822.34,-90.72 823.23,-97.67"/>
</g>
<!-- Node10 -->
<g id="node10" class="node">
<title>Node10</title>
<g id="a_node10"><a xlink:href="class_tayx_1_1_graphy_1_1_g___graph_shader.xhtml#af57c3227f9ad5e7a55f17532749cbf18" target="_top" xlink:title="Updates the thresholds in the material.">
<polygon fill="white" stroke="black" points="833,-19.5 833,-49.5 981,-49.5 981,-19.5 833,-19.5"/>
<text text-anchor="start" x="841" y="-37.5" font-family="Helvetica,sans-Serif" font-size="10.00">Tayx.Graphy.G_GraphShader.</text>
<text text-anchor="middle" x="907" y="-26.5" font-family="Helvetica,sans-Serif" font-size="10.00">UpdateThresholds</text>
</a>
</g>
</g>
<!-- Node6&#45;&gt;Node10 -->
<g id="edge9" class="edge">
<title>Node6&#45;&gt;Node10</title>
<path fill="none" stroke="midnightblue" d="M772.21,-93.4C780.7,-90.53 789.19,-87.23 797,-83.5 814.58,-75.1 815.57,-67.19 833,-58.5 836.59,-56.71 840.35,-55.01 844.18,-53.4"/>
<polygon fill="midnightblue" stroke="midnightblue" points="845.79,-56.53 853.81,-49.6 843.22,-50.02 845.79,-56.53"/>
</g>
<!-- Node11&#45;&gt;Node5 -->
<g id="edge11" class="edge">
<title>Node11&#45;&gt;Node5</title>
<path fill="none" stroke="midnightblue" d="M623.83,-71.16C613.57,-71.27 603.08,-71.28 592.78,-71.2"/>
<polygon fill="midnightblue" stroke="midnightblue" points="592.58,-67.7 582.54,-71.09 592.5,-74.7 592.58,-67.7"/>
</g>
</g>
</svg>
