<?xml version="1.0" encoding="UTF-8" standalone="no"?>
<!DOCTYPE svg PUBLIC "-//W3C//DTD SVG 1.1//EN"
 "http://www.w3.org/Graphics/SVG/1.1/DTD/svg11.dtd">
<!-- Generated by graphviz version 2.47.3 (20210619.1520)
 -->
<!-- Title: Tayx.Graphy.GraphyManager.SetModulePosition Pages: 1 -->
<svg width="363pt" height="186pt"
 viewBox="0.00 0.00 363.00 186.00" xmlns="http://www.w3.org/2000/svg" xmlns:xlink="http://www.w3.org/1999/xlink">
<g id="graph0" class="graph" transform="scale(1 1) rotate(0) translate(4 182)">
<title>Tayx.Graphy.GraphyManager.SetModulePosition</title>
<polygon fill="white" stroke="transparent" points="-4,4 -4,-182 359,-182 359,4 -4,4"/>
<!-- Node1 -->
<g id="node1" class="node">
<title>Node1</title>
<g id="a_node1"><a xlink:title=" ">
<polygon fill="#bfbfbf" stroke="black" points="0,-73.5 0,-103.5 147,-103.5 147,-73.5 0,-73.5"/>
<text text-anchor="start" x="8" y="-91.5" font-family="Helvetica,sans-Serif" font-size="10.00">Tayx.Graphy.GraphyManager.</text>
<text text-anchor="middle" x="73.5" y="-80.5" font-family="Helvetica,sans-Serif" font-size="10.00">SetModulePosition</text>
</a>
</g>
</g>
<!-- Node2 -->
<g id="node2" class="node">
<title>Node2</title>
<g id="a_node2"><a xlink:href="class_tayx_1_1_graphy_1_1_advanced_1_1_g___advanced_data.xhtml#a0e5e65da50bc546e002b4a3eb04bb32a" target="_top" xlink:title="Sets the position of the module.">
<polygon fill="white" stroke="black" points="200.5,-147.5 200.5,-177.5 337.5,-177.5 337.5,-147.5 200.5,-147.5"/>
<text text-anchor="start" x="208.5" y="-165.5" font-family="Helvetica,sans-Serif" font-size="10.00">Tayx.Graphy.Advanced.G</text>
<text text-anchor="middle" x="269" y="-154.5" font-family="Helvetica,sans-Serif" font-size="10.00">_AdvancedData.SetPosition</text>
</a>
</g>
</g>
<!-- Node1&#45;&gt;Node2 -->
<g id="edge1" class="edge">
<title>Node1&#45;&gt;Node2</title>
<path fill="none" stroke="midnightblue" d="M103.9,-103.58C125.44,-114.24 155.56,-128.38 183,-138.5 188.53,-140.54 194.31,-142.51 200.15,-144.38"/>
<polygon fill="midnightblue" stroke="midnightblue" points="199.41,-147.82 210,-147.44 201.49,-141.13 199.41,-147.82"/>
</g>
<!-- Node3 -->
<g id="node3" class="node">
<title>Node3</title>
<g id="a_node3"><a xlink:href="class_tayx_1_1_graphy_1_1_audio_1_1_g___audio_manager.xhtml#a67d3972a35762f59378be42c0021652f" target="_top" xlink:title="Sets the position of the module.">
<polygon fill="white" stroke="black" points="200.5,-98.5 200.5,-128.5 337.5,-128.5 337.5,-98.5 200.5,-98.5"/>
<text text-anchor="start" x="208.5" y="-116.5" font-family="Helvetica,sans-Serif" font-size="10.00">Tayx.Graphy.Audio.G</text>
<text text-anchor="middle" x="269" y="-105.5" font-family="Helvetica,sans-Serif" font-size="10.00">_AudioManager.SetPosition</text>
</a>
</g>
</g>
<!-- Node1&#45;&gt;Node3 -->
<g id="edge2" class="edge">
<title>Node1&#45;&gt;Node3</title>
<path fill="none" stroke="midnightblue" d="M147.1,-97.88C161.17,-99.7 175.96,-101.61 190.19,-103.45"/>
<polygon fill="midnightblue" stroke="midnightblue" points="190.06,-106.96 200.43,-104.77 190.96,-100.02 190.06,-106.96"/>
</g>
<!-- Node4 -->
<g id="node4" class="node">
<title>Node4</title>
<g id="a_node4"><a xlink:href="class_tayx_1_1_graphy_1_1_fps_1_1_g___fps_manager.xhtml#a5e6eacb402913740f54045950953d6b4" target="_top" xlink:title="Sets the position of the module.">
<polygon fill="white" stroke="black" points="187,-49.5 187,-79.5 351,-79.5 351,-49.5 187,-49.5"/>
<text text-anchor="start" x="195" y="-67.5" font-family="Helvetica,sans-Serif" font-size="10.00">Tayx.Graphy.Fps.G_FpsManager.</text>
<text text-anchor="middle" x="269" y="-56.5" font-family="Helvetica,sans-Serif" font-size="10.00">SetPosition</text>
</a>
</g>
</g>
<!-- Node1&#45;&gt;Node4 -->
<g id="edge3" class="edge">
<title>Node1&#45;&gt;Node4</title>
<path fill="none" stroke="midnightblue" d="M147.1,-79.5C156.83,-78.29 166.91,-77.04 176.91,-75.8"/>
<polygon fill="midnightblue" stroke="midnightblue" points="177.38,-79.27 186.87,-74.56 176.52,-72.32 177.38,-79.27"/>
</g>
<!-- Node5 -->
<g id="node5" class="node">
<title>Node5</title>
<g id="a_node5"><a xlink:href="class_tayx_1_1_graphy_1_1_ram_1_1_g___ram_manager.xhtml#a4b0b2224234a738b775e5184f2b759a6" target="_top" xlink:title="Sets the position of the module.">
<polygon fill="white" stroke="black" points="183,-0.5 183,-30.5 355,-30.5 355,-0.5 183,-0.5"/>
<text text-anchor="start" x="191" y="-18.5" font-family="Helvetica,sans-Serif" font-size="10.00">Tayx.Graphy.Ram.G_RamManager.</text>
<text text-anchor="middle" x="269" y="-7.5" font-family="Helvetica,sans-Serif" font-size="10.00">SetPosition</text>
</a>
</g>
</g>
<!-- Node1&#45;&gt;Node5 -->
<g id="edge4" class="edge">
<title>Node1&#45;&gt;Node5</title>
<path fill="none" stroke="midnightblue" d="M105.86,-73.32C127.29,-63.27 156.5,-50.21 183,-40.5 189.4,-38.15 196.14,-35.87 202.9,-33.7"/>
<polygon fill="midnightblue" stroke="midnightblue" points="204.29,-36.93 212.79,-30.6 202.2,-30.25 204.29,-36.93"/>
</g>
</g>
</svg>
