<?xml version="1.0" encoding="UTF-8" standalone="no"?>
<!DOCTYPE svg PUBLIC "-//W3C//DTD SVG 1.1//EN"
 "http://www.w3.org/Graphics/SVG/1.1/DTD/svg11.dtd">
<!-- Generated by graphviz version 2.47.3 (20210619.1520)
 -->
<!-- Title: Tayx.Graphy.Ram.G_RamGraph.OnEnable Pages: 1 -->
<svg width="956pt" height="186pt"
 viewBox="0.00 0.00 956.00 186.00" xmlns="http://www.w3.org/2000/svg" xmlns:xlink="http://www.w3.org/1999/xlink">
<g id="graph0" class="graph" transform="scale(1 1) rotate(0) translate(4 182)">
<title>Tayx.Graphy.Ram.G_RamGraph.OnEnable</title>
<polygon fill="white" stroke="transparent" points="-4,4 -4,-182 952,-182 952,4 -4,4"/>
<!-- Node1 -->
<g id="node1" class="node">
<title>Node1</title>
<g id="a_node1"><a xlink:title=" ">
<polygon fill="#bfbfbf" stroke="black" points="0,-48.5 0,-78.5 161,-78.5 161,-48.5 0,-48.5"/>
<text text-anchor="start" x="8" y="-66.5" font-family="Helvetica,sans-Serif" font-size="10.00">Tayx.Graphy.Ram.G_RamGraph.</text>
<text text-anchor="middle" x="80.5" y="-55.5" font-family="Helvetica,sans-Serif" font-size="10.00">OnEnable</text>
</a>
</g>
</g>
<!-- Node2 -->
<g id="node2" class="node">
<title>Node2</title>
<g id="a_node2"><a xlink:href="class_tayx_1_1_graphy_1_1_ram_1_1_g___ram_graph.xhtml#ac673e22836461feb3db6830ff707fade" target="_top" xlink:title=" ">
<polygon fill="white" stroke="black" points="197,-54 197,-73 370,-73 370,-54 197,-54"/>
<text text-anchor="middle" x="283.5" y="-61" font-family="Helvetica,sans-Serif" font-size="10.00">Tayx.Graphy.Ram.G_RamGraph.Init</text>
</a>
</g>
</g>
<!-- Node1&#45;&gt;Node2 -->
<g id="edge1" class="edge">
<title>Node1&#45;&gt;Node2</title>
<path fill="none" stroke="midnightblue" d="M161.23,-63.5C169.66,-63.5 178.29,-63.5 186.88,-63.5"/>
<polygon fill="midnightblue" stroke="midnightblue" points="186.92,-67 196.92,-63.5 186.92,-60 186.92,-67"/>
</g>
<!-- Node3 -->
<g id="node3" class="node">
<title>Node3</title>
<g id="a_node3"><a xlink:href="class_tayx_1_1_graphy_1_1_ram_1_1_g___ram_graph.xhtml#a664d3277ea728c0f7750211346ca3908" target="_top" xlink:title=" ">
<polygon fill="white" stroke="black" points="406,-48.5 406,-78.5 567,-78.5 567,-48.5 406,-48.5"/>
<text text-anchor="start" x="414" y="-66.5" font-family="Helvetica,sans-Serif" font-size="10.00">Tayx.Graphy.Ram.G_RamGraph.</text>
<text text-anchor="middle" x="486.5" y="-55.5" font-family="Helvetica,sans-Serif" font-size="10.00">UpdateParameters</text>
</a>
</g>
</g>
<!-- Node2&#45;&gt;Node3 -->
<g id="edge2" class="edge">
<title>Node2&#45;&gt;Node3</title>
<path fill="none" stroke="midnightblue" d="M370.03,-56.82C378.47,-56.74 387.04,-56.73 395.52,-56.78"/>
<polygon fill="midnightblue" stroke="midnightblue" points="395.75,-60.29 405.79,-56.88 395.82,-53.29 395.75,-60.29"/>
</g>
<!-- Node3&#45;&gt;Node2 -->
<g id="edge8" class="edge">
<title>Node3&#45;&gt;Node2</title>
<path fill="none" stroke="midnightblue" d="M405.79,-70.12C397.34,-70.23 388.69,-70.27 380.09,-70.24"/>
<polygon fill="midnightblue" stroke="midnightblue" points="380.05,-66.74 370.03,-70.18 380.01,-73.74 380.05,-66.74"/>
</g>
<!-- Node4 -->
<g id="node4" class="node">
<title>Node4</title>
<g id="a_node4"><a xlink:href="class_tayx_1_1_graphy_1_1_ram_1_1_g___ram_graph.xhtml#a9b4664e5086ead30d31ef074a746a167" target="_top" xlink:title="Creates the points for the graph/s.">
<polygon fill="white" stroke="black" points="603,-73.5 603,-103.5 764,-103.5 764,-73.5 603,-73.5"/>
<text text-anchor="start" x="611" y="-91.5" font-family="Helvetica,sans-Serif" font-size="10.00">Tayx.Graphy.Ram.G_RamGraph.</text>
<text text-anchor="middle" x="683.5" y="-80.5" font-family="Helvetica,sans-Serif" font-size="10.00">CreatePoints</text>
</a>
</g>
</g>
<!-- Node3&#45;&gt;Node4 -->
<g id="edge3" class="edge">
<title>Node3&#45;&gt;Node4</title>
<path fill="none" stroke="midnightblue" d="M567.1,-73.7C575.57,-74.79 584.24,-75.9 592.82,-77"/>
<polygon fill="midnightblue" stroke="midnightblue" points="592.48,-80.49 602.84,-78.29 593.37,-73.54 592.48,-80.49"/>
</g>
<!-- Node9 -->
<g id="node9" class="node">
<title>Node9</title>
<g id="a_node9"><a xlink:href="class_tayx_1_1_graphy_1_1_g___graph_shader.xhtml#a531ef44ced25f9686183cc7c46ca3920" target="_top" xlink:title="This is done to avoid a design problem that arrays in shaders have, and should be called before initi...">
<polygon fill="white" stroke="black" points="609.5,-24.5 609.5,-54.5 757.5,-54.5 757.5,-24.5 609.5,-24.5"/>
<text text-anchor="start" x="617.5" y="-42.5" font-family="Helvetica,sans-Serif" font-size="10.00">Tayx.Graphy.G_GraphShader.</text>
<text text-anchor="middle" x="683.5" y="-31.5" font-family="Helvetica,sans-Serif" font-size="10.00">InitializeShader</text>
</a>
</g>
</g>
<!-- Node3&#45;&gt;Node9 -->
<g id="edge9" class="edge">
<title>Node3&#45;&gt;Node9</title>
<path fill="none" stroke="midnightblue" d="M567.1,-53.7C577.71,-52.4 588.62,-51.05 599.29,-49.74"/>
<polygon fill="midnightblue" stroke="midnightblue" points="599.94,-53.19 609.44,-48.49 599.08,-46.24 599.94,-53.19"/>
</g>
<!-- Node5 -->
<g id="node5" class="node">
<title>Node5</title>
<g id="a_node5"><a xlink:href="class_tayx_1_1_graphy_1_1_g___graph_shader.xhtml#ac039f519ec84d521e44bf8f9b90ff7e8" target="_top" xlink:title="Updates the material linked with this shader graph with the values in the float[] array.">
<polygon fill="white" stroke="black" points="800,-147.5 800,-177.5 948,-177.5 948,-147.5 800,-147.5"/>
<text text-anchor="start" x="808" y="-165.5" font-family="Helvetica,sans-Serif" font-size="10.00">Tayx.Graphy.G_GraphShader.</text>
<text text-anchor="middle" x="874" y="-154.5" font-family="Helvetica,sans-Serif" font-size="10.00">UpdateArray</text>
</a>
</g>
</g>
<!-- Node4&#45;&gt;Node5 -->
<g id="edge4" class="edge">
<title>Node4&#45;&gt;Node5</title>
<path fill="none" stroke="midnightblue" d="M717.03,-103.53C740,-113.9 771.61,-127.71 800,-138.5 805.07,-140.42 810.36,-142.34 815.69,-144.21"/>
<polygon fill="midnightblue" stroke="midnightblue" points="814.67,-147.56 825.27,-147.5 816.95,-140.94 814.67,-147.56"/>
</g>
<!-- Node6 -->
<g id="node6" class="node">
<title>Node6</title>
<g id="a_node6"><a xlink:href="class_tayx_1_1_graphy_1_1_g___graph_shader.xhtml#a67831882b060d17c9d7a754546ef2e6b" target="_top" xlink:title="Updates the average parameter in the material.">
<polygon fill="white" stroke="black" points="800,-98.5 800,-128.5 948,-128.5 948,-98.5 800,-98.5"/>
<text text-anchor="start" x="808" y="-116.5" font-family="Helvetica,sans-Serif" font-size="10.00">Tayx.Graphy.G_GraphShader.</text>
<text text-anchor="middle" x="874" y="-105.5" font-family="Helvetica,sans-Serif" font-size="10.00">UpdateAverage</text>
</a>
</g>
</g>
<!-- Node4&#45;&gt;Node6 -->
<g id="edge5" class="edge">
<title>Node4&#45;&gt;Node6</title>
<path fill="none" stroke="midnightblue" d="M764.17,-99.07C772.69,-100.2 781.37,-101.35 789.93,-102.48"/>
<polygon fill="midnightblue" stroke="midnightblue" points="789.54,-105.96 799.91,-103.81 790.46,-99.02 789.54,-105.96"/>
</g>
<!-- Node7 -->
<g id="node7" class="node">
<title>Node7</title>
<g id="a_node7"><a xlink:href="class_tayx_1_1_graphy_1_1_g___graph_shader.xhtml#ac4ec72181f804fc7e8516292bd3a5995" target="_top" xlink:title="Updates the colors in the material.">
<polygon fill="white" stroke="black" points="800,-49.5 800,-79.5 948,-79.5 948,-49.5 800,-49.5"/>
<text text-anchor="start" x="808" y="-67.5" font-family="Helvetica,sans-Serif" font-size="10.00">Tayx.Graphy.G_GraphShader.</text>
<text text-anchor="middle" x="874" y="-56.5" font-family="Helvetica,sans-Serif" font-size="10.00">UpdateColors</text>
</a>
</g>
</g>
<!-- Node4&#45;&gt;Node7 -->
<g id="edge6" class="edge">
<title>Node4&#45;&gt;Node7</title>
<path fill="none" stroke="midnightblue" d="M764.17,-78.36C772.69,-77.27 781.37,-76.17 789.93,-75.08"/>
<polygon fill="midnightblue" stroke="midnightblue" points="790.43,-78.54 799.91,-73.81 789.55,-71.6 790.43,-78.54"/>
</g>
<!-- Node8 -->
<g id="node8" class="node">
<title>Node8</title>
<g id="a_node8"><a xlink:href="class_tayx_1_1_graphy_1_1_g___graph_shader.xhtml#af57c3227f9ad5e7a55f17532749cbf18" target="_top" xlink:title="Updates the thresholds in the material.">
<polygon fill="white" stroke="black" points="800,-0.5 800,-30.5 948,-30.5 948,-0.5 800,-0.5"/>
<text text-anchor="start" x="808" y="-18.5" font-family="Helvetica,sans-Serif" font-size="10.00">Tayx.Graphy.G_GraphShader.</text>
<text text-anchor="middle" x="874" y="-7.5" font-family="Helvetica,sans-Serif" font-size="10.00">UpdateThresholds</text>
</a>
</g>
</g>
<!-- Node4&#45;&gt;Node8 -->
<g id="edge7" class="edge">
<title>Node4&#45;&gt;Node8</title>
<path fill="none" stroke="midnightblue" d="M741.73,-73.45C749.35,-70.81 756.96,-67.82 764,-64.5 781.39,-56.3 782.76,-49.02 800,-40.5 804.35,-38.35 808.93,-36.31 813.59,-34.39"/>
<polygon fill="midnightblue" stroke="midnightblue" points="815.18,-37.52 823.21,-30.62 812.62,-31.01 815.18,-37.52"/>
</g>
</g>
</svg>
