<?xml version="1.0" encoding="UTF-8" standalone="no"?>
<!DOCTYPE svg PUBLIC "-//W3C//DTD SVG 1.1//EN"
 "http://www.w3.org/Graphics/SVG/1.1/DTD/svg11.dtd">
<!-- Generated by graphviz version 2.47.3 (20210619.1520)
 -->
<!-- Title: Photon.Pun.PhotonAnimatorView.DeserializeDataContinuously Pages: 1 -->
<svg width="373pt" height="88pt"
 viewBox="0.00 0.00 373.00 88.00" xmlns="http://www.w3.org/2000/svg" xmlns:xlink="http://www.w3.org/1999/xlink">
<g id="graph0" class="graph" transform="scale(1 1) rotate(0) translate(4 84)">
<title>Photon.Pun.PhotonAnimatorView.DeserializeDataContinuously</title>
<polygon fill="white" stroke="transparent" points="-4,4 -4,-84 369,-84 369,4 -4,4"/>
<!-- Node1 -->
<g id="node1" class="node">
<title>Node1</title>
<g id="a_node1"><a xlink:title=" ">
<polygon fill="#bfbfbf" stroke="black" points="0,-24.5 0,-54.5 165,-54.5 165,-24.5 0,-24.5"/>
<text text-anchor="start" x="8" y="-42.5" font-family="Helvetica,sans-Serif" font-size="10.00">Photon.Pun.PhotonAnimator</text>
<text text-anchor="middle" x="82.5" y="-31.5" font-family="Helvetica,sans-Serif" font-size="10.00">View.DeserializeDataContinuously</text>
</a>
</g>
</g>
<!-- Node2 -->
<g id="node2" class="node">
<title>Node2</title>
<g id="a_node2"><a xlink:href="class_photon_1_1_pun_1_1_photon_stream_queue.xhtml#a5ce6660209d3c8b2988d2e4444dfe36b" target="_top" xlink:title="Determines whether the queue has stored any objects">
<polygon fill="white" stroke="black" points="201,-49.5 201,-79.5 365,-79.5 365,-49.5 201,-49.5"/>
<text text-anchor="start" x="209" y="-67.5" font-family="Helvetica,sans-Serif" font-size="10.00">Photon.Pun.PhotonStreamQueue.</text>
<text text-anchor="middle" x="283" y="-56.5" font-family="Helvetica,sans-Serif" font-size="10.00">HasQueuedObjects</text>
</a>
</g>
</g>
<!-- Node1&#45;&gt;Node2 -->
<g id="edge1" class="edge">
<title>Node1&#45;&gt;Node2</title>
<path fill="none" stroke="midnightblue" d="M165.1,-49.78C173.55,-50.84 182.18,-51.93 190.73,-53.01"/>
<polygon fill="midnightblue" stroke="midnightblue" points="190.36,-56.49 200.72,-54.26 191.24,-49.54 190.36,-56.49"/>
</g>
<!-- Node3 -->
<g id="node3" class="node">
<title>Node3</title>
<g id="a_node3"><a xlink:href="class_photon_1_1_pun_1_1_photon_stream_queue.xhtml#a8ce49494951095aabcdc4d22d4420ea2" target="_top" xlink:title="Receives the next object from the queue.">
<polygon fill="white" stroke="black" points="201,-0.5 201,-30.5 365,-30.5 365,-0.5 201,-0.5"/>
<text text-anchor="start" x="209" y="-18.5" font-family="Helvetica,sans-Serif" font-size="10.00">Photon.Pun.PhotonStreamQueue.</text>
<text text-anchor="middle" x="283" y="-7.5" font-family="Helvetica,sans-Serif" font-size="10.00">ReceiveNext</text>
</a>
</g>
</g>
<!-- Node1&#45;&gt;Node3 -->
<g id="edge2" class="edge">
<title>Node1&#45;&gt;Node3</title>
<path fill="none" stroke="midnightblue" d="M165.1,-29.63C173.55,-28.61 182.18,-27.57 190.73,-26.53"/>
<polygon fill="midnightblue" stroke="midnightblue" points="191.21,-30 200.72,-25.33 190.37,-23.05 191.21,-30"/>
</g>
</g>
</svg>
