<?xml version="1.0" encoding="UTF-8" standalone="no"?>
<!DOCTYPE svg PUBLIC "-//W3C//DTD SVG 1.1//EN"
 "http://www.w3.org/Graphics/SVG/1.1/DTD/svg11.dtd">
<!-- Generated by graphviz version 2.47.3 (20210619.1520)
 -->
<!-- Title: UnityTemplateProjects.SimpleCameraController.CameraState.Translate Pages: 1 -->
<svg width="386pt" height="39pt"
 viewBox="0.00 0.00 386.00 39.00" xmlns="http://www.w3.org/2000/svg" xmlns:xlink="http://www.w3.org/1999/xlink">
<g id="graph0" class="graph" transform="scale(1 1) rotate(0) translate(4 35)">
<title>UnityTemplateProjects.SimpleCameraController.CameraState.Translate</title>
<polygon fill="white" stroke="transparent" points="-4,4 -4,-35 382,-35 382,4 -4,4"/>
<!-- Node1 -->
<g id="node1" class="node">
<title>Node1</title>
<g id="a_node1"><a xlink:title=" ">
<polygon fill="#bfbfbf" stroke="black" points="184,-0.5 184,-30.5 378,-30.5 378,-0.5 184,-0.5"/>
<text text-anchor="start" x="192" y="-18.5" font-family="Helvetica,sans-Serif" font-size="10.00">UnityTemplateProjects.Simple</text>
<text text-anchor="middle" x="281" y="-7.5" font-family="Helvetica,sans-Serif" font-size="10.00">CameraController.CameraState.Translate</text>
</a>
</g>
</g>
<!-- Node2 -->
<g id="node2" class="node">
<title>Node2</title>
<g id="a_node2"><a xlink:href="class_unity_template_projects_1_1_simple_camera_controller.xhtml#ac686087af321da8af616128bfa748d39" target="_top" xlink:title=" ">
<polygon fill="white" stroke="black" points="0,-0.5 0,-30.5 148,-30.5 148,-0.5 0,-0.5"/>
<text text-anchor="start" x="8" y="-18.5" font-family="Helvetica,sans-Serif" font-size="10.00">UnityTemplateProjects.Simple</text>
<text text-anchor="middle" x="74" y="-7.5" font-family="Helvetica,sans-Serif" font-size="10.00">CameraController.Update</text>
</a>
</g>
</g>
<!-- Node1&#45;&gt;Node2 -->
<g id="edge1" class="edge">
<title>Node1&#45;&gt;Node2</title>
<path fill="none" stroke="midnightblue" d="M173.7,-15.5C165.09,-15.5 156.52,-15.5 148.22,-15.5"/>
<polygon fill="midnightblue" stroke="midnightblue" points="173.8,-19 183.8,-15.5 173.8,-12 173.8,-19"/>
</g>
</g>
</svg>
