<?xml version="1.0" encoding="UTF-8" standalone="no"?>
<!DOCTYPE svg PUBLIC "-//W3C//DTD SVG 1.1//EN"
 "http://www.w3.org/Graphics/SVG/1.1/DTD/svg11.dtd">
<!-- Generated by graphviz version 2.47.3 (20210619.1520)
 -->
<!-- Title: Tayx.Graphy.Advanced.G_AdvancedData.UpdateParameters Pages: 1 -->
<svg width="349pt" height="88pt"
 viewBox="0.00 0.00 349.00 88.00" xmlns="http://www.w3.org/2000/svg" xmlns:xlink="http://www.w3.org/1999/xlink">
<g id="graph0" class="graph" transform="scale(1 1) rotate(0) translate(4 84)">
<title>Tayx.Graphy.Advanced.G_AdvancedData.UpdateParameters</title>
<polygon fill="white" stroke="transparent" points="-4,4 -4,-84 345,-84 345,4 -4,4"/>
<!-- Node1 -->
<g id="node1" class="node">
<title>Node1</title>
<g id="a_node1"><a xlink:title=" ">
<polygon fill="#bfbfbf" stroke="black" points="0,-24.5 0,-54.5 168,-54.5 168,-24.5 0,-24.5"/>
<text text-anchor="start" x="8" y="-42.5" font-family="Helvetica,sans-Serif" font-size="10.00">Tayx.Graphy.Advanced.G</text>
<text text-anchor="middle" x="84" y="-31.5" font-family="Helvetica,sans-Serif" font-size="10.00">_AdvancedData.UpdateParameters</text>
</a>
</g>
</g>
<!-- Node2 -->
<g id="node2" class="node">
<title>Node2</title>
<g id="a_node2"><a xlink:href="class_tayx_1_1_graphy_1_1_advanced_1_1_g___advanced_data.xhtml#a0e5e65da50bc546e002b4a3eb04bb32a" target="_top" xlink:title="Sets the position of the module.">
<polygon fill="white" stroke="black" points="204,-49.5 204,-79.5 341,-79.5 341,-49.5 204,-49.5"/>
<text text-anchor="start" x="212" y="-67.5" font-family="Helvetica,sans-Serif" font-size="10.00">Tayx.Graphy.Advanced.G</text>
<text text-anchor="middle" x="272.5" y="-56.5" font-family="Helvetica,sans-Serif" font-size="10.00">_AdvancedData.SetPosition</text>
</a>
</g>
</g>
<!-- Node1&#45;&gt;Node2 -->
<g id="edge1" class="edge">
<title>Node1&#45;&gt;Node2</title>
<path fill="none" stroke="midnightblue" d="M168.16,-50.65C176.65,-51.79 185.26,-52.94 193.69,-54.07"/>
<polygon fill="midnightblue" stroke="midnightblue" points="193.5,-57.58 203.88,-55.44 194.43,-50.64 193.5,-57.58"/>
</g>
<!-- Node3 -->
<g id="node3" class="node">
<title>Node3</title>
<g id="a_node3"><a xlink:href="class_tayx_1_1_graphy_1_1_advanced_1_1_g___advanced_data.xhtml#ac91888d741e22b8802e3d38323e6e0cd" target="_top" xlink:title="Set the module state.">
<polygon fill="white" stroke="black" points="208.5,-0.5 208.5,-30.5 336.5,-30.5 336.5,-0.5 208.5,-0.5"/>
<text text-anchor="start" x="216.5" y="-18.5" font-family="Helvetica,sans-Serif" font-size="10.00">Tayx.Graphy.Advanced.G</text>
<text text-anchor="middle" x="272.5" y="-7.5" font-family="Helvetica,sans-Serif" font-size="10.00">_AdvancedData.SetState</text>
</a>
</g>
</g>
<!-- Node1&#45;&gt;Node3 -->
<g id="edge2" class="edge">
<title>Node1&#45;&gt;Node3</title>
<path fill="none" stroke="midnightblue" d="M168.16,-28.8C178.18,-27.51 188.36,-26.2 198.22,-24.93"/>
<polygon fill="midnightblue" stroke="midnightblue" points="198.9,-28.37 208.37,-23.62 198.01,-21.43 198.9,-28.37"/>
</g>
</g>
</svg>
