<?xml version="1.0" encoding="UTF-8" standalone="no"?>
<!DOCTYPE svg PUBLIC "-//W3C//DTD SVG 1.1//EN"
 "http://www.w3.org/Graphics/SVG/1.1/DTD/svg11.dtd">
<!-- Generated by graphviz version 2.47.3 (20210619.1520)
 -->
<!-- Title: Photon.Realtime.RegionHandler.OnPreferredRegionPinged Pages: 1 -->
<svg width="742pt" height="112pt"
 viewBox="0.00 0.00 742.00 112.00" xmlns="http://www.w3.org/2000/svg" xmlns:xlink="http://www.w3.org/1999/xlink">
<g id="graph0" class="graph" transform="scale(1 1) rotate(0) translate(4 108)">
<title>Photon.Realtime.RegionHandler.OnPreferredRegionPinged</title>
<polygon fill="white" stroke="transparent" points="-4,4 -4,-108 738,-108 738,4 -4,4"/>
<!-- Node1 -->
<g id="node1" class="node">
<title>Node1</title>
<g id="a_node1"><a xlink:title=" ">
<polygon fill="#bfbfbf" stroke="black" points="0,-48.5 0,-78.5 158,-78.5 158,-48.5 0,-48.5"/>
<text text-anchor="start" x="8" y="-66.5" font-family="Helvetica,sans-Serif" font-size="10.00">Photon.Realtime.RegionHandler.</text>
<text text-anchor="middle" x="79" y="-55.5" font-family="Helvetica,sans-Serif" font-size="10.00">OnPreferredRegionPinged</text>
</a>
</g>
</g>
<!-- Node2 -->
<g id="node2" class="node">
<title>Node2</title>
<g id="a_node2"><a xlink:href="class_photon_1_1_realtime_1_1_region_handler.xhtml#a8ae051b93b79d6e40d0f7978ce3551e6" target="_top" xlink:title=" ">
<polygon fill="white" stroke="black" points="194,-48.5 194,-78.5 352,-78.5 352,-48.5 194,-48.5"/>
<text text-anchor="start" x="202" y="-66.5" font-family="Helvetica,sans-Serif" font-size="10.00">Photon.Realtime.RegionHandler.</text>
<text text-anchor="middle" x="273" y="-55.5" font-family="Helvetica,sans-Serif" font-size="10.00">PingEnabledRegions</text>
</a>
</g>
</g>
<!-- Node1&#45;&gt;Node2 -->
<g id="edge1" class="edge">
<title>Node1&#45;&gt;Node2</title>
<path fill="none" stroke="midnightblue" d="M158.09,-63.5C166.6,-63.5 175.3,-63.5 183.92,-63.5"/>
<polygon fill="midnightblue" stroke="midnightblue" points="183.98,-67 193.98,-63.5 183.98,-60 183.98,-67"/>
</g>
<!-- Node3 -->
<g id="node3" class="node">
<title>Node3</title>
<g id="a_node3"><a xlink:href="class_photon_1_1_realtime_1_1_region_handler.xhtml#a313396589f975623ea7acacf19d12de5" target="_top" xlink:title=" ">
<polygon fill="white" stroke="black" points="388,-73.5 388,-103.5 546,-103.5 546,-73.5 388,-73.5"/>
<text text-anchor="start" x="396" y="-91.5" font-family="Helvetica,sans-Serif" font-size="10.00">Photon.Realtime.RegionHandler.</text>
<text text-anchor="middle" x="467" y="-80.5" font-family="Helvetica,sans-Serif" font-size="10.00">OnRegionDone</text>
</a>
</g>
</g>
<!-- Node2&#45;&gt;Node3 -->
<g id="edge2" class="edge">
<title>Node2&#45;&gt;Node3</title>
<path fill="none" stroke="midnightblue" d="M352.09,-73.67C360.6,-74.78 369.3,-75.91 377.92,-77.03"/>
<polygon fill="midnightblue" stroke="midnightblue" points="377.61,-80.52 387.98,-78.34 378.51,-73.58 377.61,-80.52"/>
</g>
<!-- Node4 -->
<g id="node4" class="node">
<title>Node4</title>
<g id="a_node4"><a xlink:href="class_photon_1_1_realtime_1_1_region_pinger.xhtml#abfd13a0dae129c3ae367c3ff2578fb0b" target="_top" xlink:title="Starts the ping routine for the assigned region.">
<polygon fill="white" stroke="black" points="391,-24.5 391,-54.5 543,-54.5 543,-24.5 391,-24.5"/>
<text text-anchor="start" x="399" y="-42.5" font-family="Helvetica,sans-Serif" font-size="10.00">Photon.Realtime.RegionPinger.</text>
<text text-anchor="middle" x="467" y="-31.5" font-family="Helvetica,sans-Serif" font-size="10.00">Start</text>
</a>
</g>
</g>
<!-- Node2&#45;&gt;Node4 -->
<g id="edge3" class="edge">
<title>Node2&#45;&gt;Node4</title>
<path fill="none" stroke="midnightblue" d="M352.09,-53.74C361.47,-52.57 371.09,-51.36 380.56,-50.18"/>
<polygon fill="midnightblue" stroke="midnightblue" points="381.28,-53.62 390.77,-48.9 380.41,-46.67 381.28,-53.62"/>
</g>
<!-- Node5 -->
<g id="node5" class="node">
<title>Node5</title>
<g id="a_node5"><a xlink:href="class_photon_1_1_realtime_1_1_region_pinger.xhtml#ab9fbb3965c6b45422afdba264cc91ff9" target="_top" xlink:title="Selects the best fitting ping implementation or uses the one set in RegionHandler....">
<polygon fill="white" stroke="black" points="582,-49.5 582,-79.5 734,-79.5 734,-49.5 582,-49.5"/>
<text text-anchor="start" x="590" y="-67.5" font-family="Helvetica,sans-Serif" font-size="10.00">Photon.Realtime.RegionPinger.</text>
<text text-anchor="middle" x="658" y="-56.5" font-family="Helvetica,sans-Serif" font-size="10.00">GetPingImplementation</text>
</a>
</g>
</g>
<!-- Node4&#45;&gt;Node5 -->
<g id="edge4" class="edge">
<title>Node4&#45;&gt;Node5</title>
<path fill="none" stroke="midnightblue" d="M543.24,-49.45C552.54,-50.68 562.1,-51.95 571.53,-53.2"/>
<polygon fill="midnightblue" stroke="midnightblue" points="571.34,-56.7 581.71,-54.54 572.25,-49.76 571.34,-56.7"/>
</g>
<!-- Node6 -->
<g id="node6" class="node">
<title>Node6</title>
<g id="a_node6"><a xlink:href="class_photon_1_1_realtime_1_1_region_pinger.xhtml#a6c5cbc3b74e3415708c89a788c930cf0" target="_top" xlink:title="Attempts to resolve a hostname into an IP string or returns empty string if that fails.">
<polygon fill="white" stroke="black" points="582,-0.5 582,-30.5 734,-30.5 734,-0.5 582,-0.5"/>
<text text-anchor="start" x="590" y="-18.5" font-family="Helvetica,sans-Serif" font-size="10.00">Photon.Realtime.RegionPinger.</text>
<text text-anchor="middle" x="658" y="-7.5" font-family="Helvetica,sans-Serif" font-size="10.00">ResolveHost</text>
</a>
</g>
</g>
<!-- Node4&#45;&gt;Node6 -->
<g id="edge5" class="edge">
<title>Node4&#45;&gt;Node6</title>
<path fill="none" stroke="midnightblue" d="M543.24,-29.95C552.54,-28.76 562.1,-27.55 571.53,-26.35"/>
<polygon fill="midnightblue" stroke="midnightblue" points="572.23,-29.79 581.71,-25.06 571.35,-22.85 572.23,-29.79"/>
</g>
</g>
</svg>
