<?xml version="1.0" encoding="UTF-8" standalone="no"?>
<!DOCTYPE svg PUBLIC "-//W3C//DTD SVG 1.1//EN"
 "http://www.w3.org/Graphics/SVG/1.1/DTD/svg11.dtd">
<!-- Generated by graphviz version 2.47.3 (20210619.1520)
 -->
<!-- Title: Photon.Pun.Demo.PunBasics.CameraWork.Cut Pages: 1 -->
<svg width="529pt" height="137pt"
 viewBox="0.00 0.00 529.00 137.00" xmlns="http://www.w3.org/2000/svg" xmlns:xlink="http://www.w3.org/1999/xlink">
<g id="graph0" class="graph" transform="scale(1 1) rotate(0) translate(4 133)">
<title>Photon.Pun.Demo.PunBasics.CameraWork.Cut</title>
<polygon fill="white" stroke="transparent" points="-4,4 -4,-133 525,-133 525,4 -4,4"/>
<!-- Node1 -->
<g id="node1" class="node">
<title>Node1</title>
<g id="a_node1"><a xlink:title=" ">
<polygon fill="#bfbfbf" stroke="black" points="372,-49.5 372,-79.5 521,-79.5 521,-49.5 372,-49.5"/>
<text text-anchor="start" x="380" y="-67.5" font-family="Helvetica,sans-Serif" font-size="10.00">Photon.Pun.Demo.PunBasics.</text>
<text text-anchor="middle" x="446.5" y="-56.5" font-family="Helvetica,sans-Serif" font-size="10.00">CameraWork.Cut</text>
</a>
</g>
</g>
<!-- Node2 -->
<g id="node2" class="node">
<title>Node2</title>
<g id="a_node2"><a xlink:href="class_photon_1_1_pun_1_1_demo_1_1_pun_basics_1_1_camera_work.xhtml#a60e535ee79e36273332789ae1391e0eb" target="_top" xlink:title="Raises the start following event.">
<polygon fill="white" stroke="black" points="185,-49.5 185,-79.5 336,-79.5 336,-49.5 185,-49.5"/>
<text text-anchor="start" x="193" y="-67.5" font-family="Helvetica,sans-Serif" font-size="10.00">Photon.Pun.Demo.PunBasics.</text>
<text text-anchor="middle" x="260.5" y="-56.5" font-family="Helvetica,sans-Serif" font-size="10.00">CameraWork.OnStartFollowing</text>
</a>
</g>
</g>
<!-- Node1&#45;&gt;Node2 -->
<g id="edge1" class="edge">
<title>Node1&#45;&gt;Node2</title>
<path fill="none" stroke="midnightblue" d="M361.94,-64.5C353.32,-64.5 344.61,-64.5 336.1,-64.5"/>
<polygon fill="midnightblue" stroke="midnightblue" points="361.99,-68 371.99,-64.5 361.99,-61 361.99,-68"/>
</g>
<!-- Node3 -->
<g id="node3" class="node">
<title>Node3</title>
<g id="a_node3"><a xlink:href="class_photon_1_1_pun_1_1_demo_1_1_pun_basics_1_1_camera_work.xhtml#a4fb707b5f4415ce3bf8242b1986520b1" target="_top" xlink:title=" ">
<polygon fill="white" stroke="black" points="0,-98.5 0,-128.5 149,-128.5 149,-98.5 0,-98.5"/>
<text text-anchor="start" x="8" y="-116.5" font-family="Helvetica,sans-Serif" font-size="10.00">Photon.Pun.Demo.PunBasics.</text>
<text text-anchor="middle" x="74.5" y="-105.5" font-family="Helvetica,sans-Serif" font-size="10.00">CameraWork.LateUpdate</text>
</a>
</g>
</g>
<!-- Node2&#45;&gt;Node3 -->
<g id="edge2" class="edge">
<title>Node2&#45;&gt;Node3</title>
<path fill="none" stroke="midnightblue" d="M193.32,-82.12C173.19,-87.48 151.27,-93.32 131.85,-98.49"/>
<polygon fill="midnightblue" stroke="midnightblue" points="194.28,-85.49 203.04,-79.53 192.48,-78.73 194.28,-85.49"/>
</g>
<!-- Node4 -->
<g id="node4" class="node">
<title>Node4</title>
<g id="a_node4"><a xlink:href="class_photon_1_1_pun_1_1_demo_1_1_pun_basics_1_1_camera_work.xhtml#abb9e5890a94692f686b7280e34b22271" target="_top" xlink:title="MonoBehaviour method called on GameObject by Unity during initialization phase">
<polygon fill="white" stroke="black" points="0,-49.5 0,-79.5 149,-79.5 149,-49.5 0,-49.5"/>
<text text-anchor="start" x="8" y="-67.5" font-family="Helvetica,sans-Serif" font-size="10.00">Photon.Pun.Demo.PunBasics.</text>
<text text-anchor="middle" x="74.5" y="-56.5" font-family="Helvetica,sans-Serif" font-size="10.00">CameraWork.Start</text>
</a>
</g>
</g>
<!-- Node2&#45;&gt;Node4 -->
<g id="edge3" class="edge">
<title>Node2&#45;&gt;Node4</title>
<path fill="none" stroke="midnightblue" d="M174.65,-64.5C166.18,-64.5 157.63,-64.5 149.28,-64.5"/>
<polygon fill="midnightblue" stroke="midnightblue" points="174.93,-68 184.93,-64.5 174.93,-61 174.93,-68"/>
</g>
<!-- Node5 -->
<g id="node5" class="node">
<title>Node5</title>
<g id="a_node5"><a xlink:href="class_photon_1_1_pun_1_1_demo_1_1_pun_basics_1_1_player_manager.xhtml#af77eca63b14543aad1c244119b15d5fb" target="_top" xlink:title="MonoBehaviour method called on GameObject by Unity during initialization phase.">
<polygon fill="white" stroke="black" points="0,-0.5 0,-30.5 149,-30.5 149,-0.5 0,-0.5"/>
<text text-anchor="start" x="8" y="-18.5" font-family="Helvetica,sans-Serif" font-size="10.00">Photon.Pun.Demo.PunBasics.</text>
<text text-anchor="middle" x="74.5" y="-7.5" font-family="Helvetica,sans-Serif" font-size="10.00">PlayerManager.Start</text>
</a>
</g>
</g>
<!-- Node2&#45;&gt;Node5 -->
<g id="edge4" class="edge">
<title>Node2&#45;&gt;Node5</title>
<path fill="none" stroke="midnightblue" d="M193.32,-46.88C173.19,-41.52 151.27,-35.68 131.85,-30.51"/>
<polygon fill="midnightblue" stroke="midnightblue" points="192.48,-50.27 203.04,-49.47 194.28,-43.51 192.48,-50.27"/>
</g>
</g>
</svg>
