<?xml version="1.0" encoding="UTF-8" standalone="no"?>
<!DOCTYPE svg PUBLIC "-//W3C//DTD SVG 1.1//EN"
 "http://www.w3.org/Graphics/SVG/1.1/DTD/svg11.dtd">
<!-- Generated by graphviz version 2.47.3 (20210619.1520)
 -->
<!-- Title: Photon.Pun.PhotonNetwork.SerializeViewBatch.SerializeViewBatch Pages: 1 -->
<svg width="372pt" height="39pt"
 viewBox="0.00 0.00 372.00 39.00" xmlns="http://www.w3.org/2000/svg" xmlns:xlink="http://www.w3.org/1999/xlink">
<g id="graph0" class="graph" transform="scale(1 1) rotate(0) translate(4 35)">
<title>Photon.Pun.PhotonNetwork.SerializeViewBatch.SerializeViewBatch</title>
<polygon fill="white" stroke="transparent" points="-4,4 -4,-35 368,-35 368,4 -4,4"/>
<!-- Node1 -->
<g id="node1" class="node">
<title>Node1</title>
<g id="a_node1"><a xlink:title=" ">
<polygon fill="#bfbfbf" stroke="black" points="176,-0.5 176,-30.5 364,-30.5 364,-0.5 176,-0.5"/>
<text text-anchor="start" x="184" y="-18.5" font-family="Helvetica,sans-Serif" font-size="10.00">Photon.Pun.PhotonNetwork.</text>
<text text-anchor="middle" x="270" y="-7.5" font-family="Helvetica,sans-Serif" font-size="10.00">SerializeViewBatch.SerializeViewBatch</text>
</a>
</g>
</g>
<!-- Node2 -->
<g id="node2" class="node">
<title>Node2</title>
<g id="a_node2"><a xlink:href="class_photon_1_1_pun_1_1_photon_network_1_1_serialize_view_batch.xhtml#a058c2477b3b05b3bd60eb4f6fb41c29e" target="_top" xlink:title=" ">
<polygon fill="white" stroke="black" points="0,-0.5 0,-30.5 140,-30.5 140,-0.5 0,-0.5"/>
<text text-anchor="start" x="8" y="-18.5" font-family="Helvetica,sans-Serif" font-size="10.00">Photon.Pun.PhotonNetwork.</text>
<text text-anchor="middle" x="70" y="-7.5" font-family="Helvetica,sans-Serif" font-size="10.00">SerializeViewBatch.Equals</text>
</a>
</g>
</g>
<!-- Node1&#45;&gt;Node2 -->
<g id="edge1" class="edge">
<title>Node1&#45;&gt;Node2</title>
<path fill="none" stroke="midnightblue" d="M165.63,-15.5C156.97,-15.5 148.36,-15.5 140.06,-15.5"/>
<polygon fill="midnightblue" stroke="midnightblue" points="165.8,-19 175.8,-15.5 165.8,-12 165.8,-19"/>
</g>
</g>
</svg>
