<?xml version="1.0" encoding="UTF-8" standalone="no"?>
<!DOCTYPE svg PUBLIC "-//W3C//DTD SVG 1.1//EN"
 "http://www.w3.org/Graphics/SVG/1.1/DTD/svg11.dtd">
<!-- Generated by graphviz version 2.47.3 (20210619.1520)
 -->
<!-- Title: UnityStandardAssets.Characters.ThirdPerson.PunDemos.ThirdPersonUserControl Pages: 1 -->
<svg width="633pt" height="71pt"
 viewBox="0.00 0.00 633.00 70.50" xmlns="http://www.w3.org/2000/svg" xmlns:xlink="http://www.w3.org/1999/xlink">
<g id="graph0" class="graph" transform="scale(1 1) rotate(0) translate(4 66.5)">
<title>UnityStandardAssets.Characters.ThirdPerson.PunDemos.ThirdPersonUserControl</title>
<polygon fill="white" stroke="transparent" points="-4,4 -4,-66.5 629,-66.5 629,4 -4,4"/>
<!-- Node1 -->
<g id="node1" class="node">
<title>Node1</title>
<g id="a_node1"><a xlink:title=" ">
<polygon fill="#bfbfbf" stroke="black" points="431,-21 431,-62 625,-62 625,-21 431,-21"/>
<text text-anchor="start" x="439" y="-50" font-family="Helvetica,sans-Serif" font-size="10.00">UnityStandardAssets.Characters.</text>
<text text-anchor="start" x="439" y="-39" font-family="Helvetica,sans-Serif" font-size="10.00">ThirdPerson.PunDemos.ThirdPersonUser</text>
<text text-anchor="middle" x="528" y="-28" font-family="Helvetica,sans-Serif" font-size="10.00">Control</text>
</a>
</g>
</g>
<!-- Node2 -->
<g id="node2" class="node">
<title>Node2</title>
<g id="a_node2"><a xlink:title=" ">
<polygon fill="white" stroke="#bfbfbf" points="0,-28 0,-47 83,-47 83,-28 0,-28"/>
<text text-anchor="middle" x="41.5" y="-35" font-family="Helvetica,sans-Serif" font-size="10.00">MonoBehaviour</text>
</a>
</g>
</g>
<!-- Node2&#45;&gt;Node1 -->
<g id="edge1" class="edge">
<title>Node2&#45;&gt;Node1</title>
<path fill="none" stroke="midnightblue" d="M93.22,-43.93C95.85,-44.15 98.45,-44.34 101,-44.5 239.41,-53.03 274.35,-47.93 413,-45.5 418.84,-45.4 424.85,-45.27 430.91,-45.11"/>
<polygon fill="midnightblue" stroke="midnightblue" points="93.33,-40.42 83.04,-42.96 92.67,-47.39 93.33,-40.42"/>
</g>
<!-- Node3 -->
<g id="node3" class="node">
<title>Node3</title>
<g id="a_node3"><a xlink:href="class_unity_standard_assets_1_1_characters_1_1_third_person_1_1_pun_demos_1_1_third_person_character.xhtml" target="_top" xlink:title=" ">
<polygon fill="white" stroke="black" points="120,-0.5 120,-30.5 336,-30.5 336,-0.5 120,-0.5"/>
<text text-anchor="start" x="128" y="-18.5" font-family="Helvetica,sans-Serif" font-size="10.00">UnityStandardAssets.Characters.</text>
<text text-anchor="middle" x="228" y="-7.5" font-family="Helvetica,sans-Serif" font-size="10.00">ThirdPerson.PunDemos.ThirdPersonCharacter</text>
</a>
</g>
</g>
<!-- Node2&#45;&gt;Node3 -->
<g id="edge3" class="edge">
<title>Node2&#45;&gt;Node3</title>
<path fill="none" stroke="midnightblue" d="M93.63,-31.4C101.93,-30.41 110.79,-29.36 119.84,-28.28"/>
<polygon fill="midnightblue" stroke="midnightblue" points="92.96,-27.96 83.45,-32.62 93.79,-34.91 92.96,-27.96"/>
</g>
<!-- Node3&#45;&gt;Node1 -->
<g id="edge2" class="edge">
<title>Node3&#45;&gt;Node1</title>
<path fill="none" stroke="#9a32cd" stroke-dasharray="5,2" d="M346.38,-25.74C374.32,-28.18 403.81,-30.75 430.68,-33.1"/>
<polygon fill="#9a32cd" stroke="#9a32cd" points="346.43,-22.23 336.16,-24.85 345.82,-29.21 346.43,-22.23"/>
<text text-anchor="middle" x="383.5" y="-34.5" font-family="Helvetica,sans-Serif" font-size="10.00"> m_Character</text>
</g>
</g>
</svg>
