<?xml version="1.0" encoding="UTF-8" standalone="no"?>
<!DOCTYPE svg PUBLIC "-//W3C//DTD SVG 1.1//EN"
 "http://www.w3.org/Graphics/SVG/1.1/DTD/svg11.dtd">
<!-- Generated by graphviz version 2.47.3 (20210619.1520)
 -->
<!-- Title: DoxyRunner.RunThreadedDoxy Pages: 1 -->
<!--zoomable 185 -->
<svg id="main" version="1.1" xmlns="http://www.w3.org/2000/svg" xmlns:xlink="http://www.w3.org/1999/xlink" xml:space="preserve" onload="init(evt)">
<style type="text/css"><![CDATA[
.edge:hover path { stroke: red; }
.edge:hover polygon { stroke: red; fill: red; }
]]></style>
<script type="text/javascript"><![CDATA[
var edges = document.getElementsByTagName('g');
if (edges && edges.length) {
  for (var i=0;i<edges.length;i++) {
    if (edges[i].id.substr(0,4)=='edge') {
      edges[i].setAttribute('class','edge');
    }
  }
}
]]></script>
        <defs>
                <circle id="rim" cx="0" cy="0" r="7"/>
                <circle id="rim2" cx="0" cy="0" r="3.5"/>
                <g id="zoomPlus">
                        <use xlink:href="#rim" fill="#404040">
                                <set attributeName="fill" to="#808080" begin="zoomplus.mouseover" end="zoomplus.mouseout"/>
                        </use>
                        <path d="M-4,0h8M0,-4v8" fill="none" stroke="white" stroke-width="1.5" pointer-events="none"/>
                </g>
                <g id="zoomMin">
                        <use xlink:href="#rim" fill="#404040">
                                <set attributeName="fill" to="#808080" begin="zoomminus.mouseover" end="zoomminus.mouseout"/>
                        </use>
                        <path d="M-4,0h8" fill="none" stroke="white" stroke-width="1.5" pointer-events="none"/>
                </g>
                <g id="dirArrow">
                        <path fill="none" stroke="white" stroke-width="1.5" d="M0,-3.0v7 M-2.5,-0.5L0,-3.0L2.5,-0.5"/>
                </g>
               <g id="resetDef">
                       <use xlink:href="#rim2" fill="#404040">
                               <set attributeName="fill" to="#808080" begin="reset.mouseover" end="reset.mouseout"/>
                       </use>
               </g>
        </defs>

<script type="text/javascript">
var viewWidth = 547;
var viewHeight = 185;
var sectionId = 'dynsection-5';
</script>
<script xlink:href="svgpan.js"/>
<svg id="graph" class="graph">
<g id="viewport">
<title>DoxyRunner.RunThreadedDoxy</title>
<polygon fill="white" stroke="transparent" points="-4,4 -4,-180.5 543,-180.5 543,4 -4,4"/>
<!-- Node1 -->
<g id="node1" class="node">
<title>Node1</title>
<g id="a_node1"><a xlink:title=" ">
<polygon fill="#bfbfbf" stroke="black" points="0,-72 0,-91 152,-91 152,-72 0,-72"/>
<text text-anchor="middle" x="76" y="-79" font-family="Helvetica,sans-Serif" font-size="10.00">DoxyRunner.RunThreadedDoxy</text>
</a>
</g>
</g>
<!-- Node2 -->
<g id="node2" class="node">
<title>Node2</title>
<g id="a_node2"><a xlink:href="class_doxy_runner.xhtml#a7458975df0c43d397051f225d6def184" target="_top" xlink:title="Runs the specified executable with the provided arguments and returns the process&#39; exit code.">
<polygon fill="white" stroke="black" points="220,-138 220,-157 310,-157 310,-138 220,-138"/>
<text text-anchor="middle" x="265" y="-145" font-family="Helvetica,sans-Serif" font-size="10.00">DoxyRunner.Run</text>
</a>
</g>
</g>
<!-- Node1&#45;&gt;Node2 -->
<g id="edge1" class="edge">
<title>Node1&#45;&gt;Node2</title>
<path fill="none" stroke="midnightblue" d="M97.09,-91.13C119.05,-101.39 155.45,-117.61 188,-128.5 195.35,-130.96 203.18,-133.26 210.93,-135.36"/>
<polygon fill="midnightblue" stroke="midnightblue" points="210.1,-138.76 220.66,-137.9 211.87,-131.99 210.1,-138.76"/>
</g>
<!-- Node5 -->
<g id="node5" class="node">
<title>Node5</title>
<g id="a_node5"><a xlink:href="class_doxy_thread_safe_output.xhtml#a97e2149569e2bb5e749851daa2781423" target="_top" xlink:title=" ">
<polygon fill="white" stroke="black" points="197.5,-88.5 197.5,-118.5 332.5,-118.5 332.5,-88.5 197.5,-88.5"/>
<text text-anchor="start" x="205.5" y="-106.5" font-family="Helvetica,sans-Serif" font-size="10.00">DoxyThreadSafeOutput.Set</text>
<text text-anchor="middle" x="265" y="-95.5" font-family="Helvetica,sans-Serif" font-size="10.00">Finished</text>
</a>
</g>
</g>
<!-- Node1&#45;&gt;Node5 -->
<g id="edge4" class="edge">
<title>Node1&#45;&gt;Node5</title>
<path fill="none" stroke="midnightblue" d="M152.25,-90.35C163.79,-91.71 175.72,-93.11 187.29,-94.47"/>
<polygon fill="midnightblue" stroke="midnightblue" points="187,-97.97 197.34,-95.66 187.82,-91.01 187,-97.97"/>
</g>
<!-- Node6 -->
<g id="node6" class="node">
<title>Node6</title>
<g id="a_node6"><a xlink:href="class_doxy_runner.xhtml#a4474ed980f895f97ac3517fe85834259" target="_top" xlink:title=" ">
<polygon fill="white" stroke="black" points="188,-50 188,-69 342,-69 342,-50 188,-50"/>
<text text-anchor="middle" x="265" y="-57" font-family="Helvetica,sans-Serif" font-size="10.00">DoxyRunner.updateOuputString</text>
</a>
</g>
</g>
<!-- Node1&#45;&gt;Node6 -->
<g id="edge5" class="edge">
<title>Node1&#45;&gt;Node6</title>
<path fill="none" stroke="midnightblue" d="M152.25,-72.65C160.71,-71.65 169.38,-70.63 177.97,-69.62"/>
<polygon fill="midnightblue" stroke="midnightblue" points="178.47,-73.09 187.99,-68.44 177.65,-66.14 178.47,-73.09"/>
</g>
<!-- Node8 -->
<g id="node8" class="node">
<title>Node8</title>
<g id="a_node8"><a xlink:href="class_doxy_thread_safe_output.xhtml#aa831eccd758e59c835fd3486c39a4a8c" target="_top" xlink:title=" ">
<polygon fill="white" stroke="black" points="193.5,-0.5 193.5,-30.5 336.5,-30.5 336.5,-0.5 193.5,-0.5"/>
<text text-anchor="start" x="201.5" y="-18.5" font-family="Helvetica,sans-Serif" font-size="10.00">DoxyThreadSafeOutput.Write</text>
<text text-anchor="middle" x="265" y="-7.5" font-family="Helvetica,sans-Serif" font-size="10.00">FullLog</text>
</a>
</g>
</g>
<!-- Node1&#45;&gt;Node8 -->
<g id="edge7" class="edge">
<title>Node1&#45;&gt;Node8</title>
<path fill="none" stroke="midnightblue" d="M102.04,-71.96C124.47,-63.48 158.32,-50.86 188,-40.5 194.34,-38.29 201,-36.02 207.63,-33.79"/>
<polygon fill="midnightblue" stroke="midnightblue" points="208.91,-37.06 217.29,-30.57 206.69,-30.41 208.91,-37.06"/>
</g>
<!-- Node3 -->
<g id="node3" class="node">
<title>Node3</title>
<g id="a_node3"><a xlink:href="class_doxy_runner.xhtml#a9e1ad0bb37f42899aeac2e2fb59cb769" target="_top" xlink:title="Quotes all arguments that contain whitespace, or begin with a quote and returns a single argument str...">
<polygon fill="white" stroke="black" points="382,-157 382,-176 535,-176 535,-157 382,-157"/>
<text text-anchor="middle" x="458.5" y="-164" font-family="Helvetica,sans-Serif" font-size="10.00">DoxyRunner.EscapeArguments</text>
</a>
</g>
</g>
<!-- Node2&#45;&gt;Node3 -->
<g id="edge2" class="edge">
<title>Node2&#45;&gt;Node3</title>
<path fill="none" stroke="midnightblue" d="M310.42,-151.91C328.73,-153.72 350.6,-155.89 371.81,-158"/>
<polygon fill="midnightblue" stroke="midnightblue" points="371.52,-161.49 381.81,-158.99 372.21,-154.52 371.52,-161.49"/>
</g>
<!-- Node4 -->
<g id="node4" class="node">
<title>Node4</title>
<g id="a_node4"><a xlink:href="class_doxy_runner.xhtml#a0923bf6769c3b99b4fb8e9ce67877a94" target="_top" xlink:title="Expands environment variables and, if unqualified, locates the exe in the working directory or the ev...">
<polygon fill="white" stroke="black" points="394,-119 394,-138 523,-138 523,-119 394,-119"/>
<text text-anchor="middle" x="458.5" y="-126" font-family="Helvetica,sans-Serif" font-size="10.00">DoxyRunner.FindExePath</text>
</a>
</g>
</g>
<!-- Node2&#45;&gt;Node4 -->
<g id="edge3" class="edge">
<title>Node2&#45;&gt;Node4</title>
<path fill="none" stroke="midnightblue" d="M310.42,-143.09C332.17,-140.94 358.94,-138.28 383.65,-135.83"/>
<polygon fill="midnightblue" stroke="midnightblue" points="384.13,-139.3 393.73,-134.83 383.44,-132.33 384.13,-139.3"/>
</g>
<!-- Node7 -->
<g id="node7" class="node">
<title>Node7</title>
<g id="a_node7"><a xlink:href="class_doxy_thread_safe_output.xhtml#ab2083e9efa17a35c72d3c2c784ef6800" target="_top" xlink:title=" ">
<polygon fill="white" stroke="black" points="378,-50 378,-69 539,-69 539,-50 378,-50"/>
<text text-anchor="middle" x="458.5" y="-57" font-family="Helvetica,sans-Serif" font-size="10.00">DoxyThreadSafeOutput.WriteLine</text>
</a>
</g>
</g>
<!-- Node6&#45;&gt;Node7 -->
<g id="edge6" class="edge">
<title>Node6&#45;&gt;Node7</title>
<path fill="none" stroke="midnightblue" d="M342.24,-59.5C350.54,-59.5 359.05,-59.5 367.5,-59.5"/>
<polygon fill="midnightblue" stroke="midnightblue" points="367.76,-63 377.76,-59.5 367.76,-56 367.76,-63"/>
</g>
</g>
</svg>
        <g id="navigator" transform="translate(0 0)" fill="#404254">
                <rect fill="#f2f5e9" fill-opacity="0.5" stroke="#606060" stroke-width=".5" x="0" y="0" width="60" height="60"/>
                <use id="zoomplus" xlink:href="#zoomPlus" x="17" y="9" onmousedown="handleZoom(evt,'in')"/>
                <use id="zoomminus" xlink:href="#zoomMin" x="42" y="9" onmousedown="handleZoom(evt,'out')"/>
                <use id="reset" xlink:href="#resetDef" x="30" y="36" onmousedown="handleReset()"/>
                <g id="arrowUp" xlink:href="#dirArrow" transform="translate(30 24)" onmousedown="handlePan(0,-1)">
                  <use xlink:href="#rim" fill="#404040">
                        <set attributeName="fill" to="#808080" begin="arrowUp.mouseover" end="arrowUp.mouseout"/>
                  </use>
                  <path fill="none" stroke="white" stroke-width="1.5" d="M0,-3.0v7 M-2.5,-0.5L0,-3.0L2.5,-0.5"/>
                </g>
                <g id="arrowRight" xlink:href="#dirArrow" transform="rotate(90) translate(36 -43)" onmousedown="handlePan(1,0)">
                  <use xlink:href="#rim" fill="#404040">
                        <set attributeName="fill" to="#808080" begin="arrowRight.mouseover" end="arrowRight.mouseout"/>
                  </use>
                  <path fill="none" stroke="white" stroke-width="1.5" d="M0,-3.0v7 M-2.5,-0.5L0,-3.0L2.5,-0.5"/>
                </g>
                <g id="arrowDown" xlink:href="#dirArrow" transform="rotate(180) translate(-30 -48)" onmousedown="handlePan(0,1)">
                  <use xlink:href="#rim" fill="#404040">
                        <set attributeName="fill" to="#808080" begin="arrowDown.mouseover" end="arrowDown.mouseout"/>
                  </use>
                  <path fill="none" stroke="white" stroke-width="1.5" d="M0,-3.0v7 M-2.5,-0.5L0,-3.0L2.5,-0.5"/>
                </g>
                <g id="arrowLeft" xlink:href="#dirArrow" transform="rotate(270) translate(-36 17)" onmousedown="handlePan(-1,0)">
                  <use xlink:href="#rim" fill="#404040">
                        <set attributeName="fill" to="#808080" begin="arrowLeft.mouseover" end="arrowLeft.mouseout"/>
                  </use>
                  <path fill="none" stroke="white" stroke-width="1.5" d="M0,-3.0v7 M-2.5,-0.5L0,-3.0L2.5,-0.5"/>
                </g>
        </g>
        <svg viewBox="0 0 15 15" width="100%" height="30px" preserveAspectRatio="xMaxYMin meet">
         <g id="arrow_out" transform="scale(0.3 0.3)">
          <a xlink:href="class_doxy_runner_a0a838402bf7b6661d4a1959c1b57aeb6_cgraph_org.svg" target="_base">
           <rect id="button" ry="5" rx="5" y="6" x="6" height="38" width="38"
                fill="#f2f5e9" fill-opacity="0.5" stroke="#606060" stroke-width="1.0"/>
           <path id="arrow"
             d="M 11.500037,31.436501 C 11.940474,20.09759 22.043105,11.32322 32.158766,21.979434 L 37.068811,17.246167 C 37.068811,17.246167 37.088388,32 37.088388,32 L 22.160133,31.978069 C 22.160133,31.978069 26.997745,27.140456 26.997745,27.140456 C 18.528582,18.264221 13.291696,25.230495 11.500037,31.436501 z"
             style="fill:#404040;"/>
          </a>
         </g>
        </svg>
</svg>
