<?xml version="1.0" encoding="UTF-8" standalone="no"?>
<!DOCTYPE svg PUBLIC "-//W3C//DTD SVG 1.1//EN"
 "http://www.w3.org/Graphics/SVG/1.1/DTD/svg11.dtd">
<!-- Generated by graphviz version 2.47.3 (20210619.1520)
 -->
<!-- Title: Photon.Pun.Demo.Cockpit.FriendListCell Pages: 1 -->
<!--zoomable 419 -->
<svg id="main" version="1.1" xmlns="http://www.w3.org/2000/svg" xmlns:xlink="http://www.w3.org/1999/xlink" xml:space="preserve" onload="init(evt)">
<style type="text/css"><![CDATA[
.edge:hover path { stroke: red; }
.edge:hover polygon { stroke: red; fill: red; }
]]></style>
<script type="text/javascript"><![CDATA[
var edges = document.getElementsByTagName('g');
if (edges && edges.length) {
  for (var i=0;i<edges.length;i++) {
    if (edges[i].id.substr(0,4)=='edge') {
      edges[i].setAttribute('class','edge');
    }
  }
}
]]></script>
        <defs>
                <circle id="rim" cx="0" cy="0" r="7"/>
                <circle id="rim2" cx="0" cy="0" r="3.5"/>
                <g id="zoomPlus">
                        <use xlink:href="#rim" fill="#404040">
                                <set attributeName="fill" to="#808080" begin="zoomplus.mouseover" end="zoomplus.mouseout"/>
                        </use>
                        <path d="M-4,0h8M0,-4v8" fill="none" stroke="white" stroke-width="1.5" pointer-events="none"/>
                </g>
                <g id="zoomMin">
                        <use xlink:href="#rim" fill="#404040">
                                <set attributeName="fill" to="#808080" begin="zoomminus.mouseover" end="zoomminus.mouseout"/>
                        </use>
                        <path d="M-4,0h8" fill="none" stroke="white" stroke-width="1.5" pointer-events="none"/>
                </g>
                <g id="dirArrow">
                        <path fill="none" stroke="white" stroke-width="1.5" d="M0,-3.0v7 M-2.5,-0.5L0,-3.0L2.5,-0.5"/>
                </g>
               <g id="resetDef">
                       <use xlink:href="#rim2" fill="#404040">
                               <set attributeName="fill" to="#808080" begin="reset.mouseover" end="reset.mouseout"/>
                       </use>
               </g>
        </defs>

<script type="text/javascript">
var viewWidth = 1018;
var viewHeight = 419;
var sectionId = 'dynsection-1';
</script>
<script xlink:href="svgpan.js"/>
<svg id="graph" class="graph">
<g id="viewport">
<title>Photon.Pun.Demo.Cockpit.FriendListCell</title>
<polygon fill="white" stroke="transparent" points="-4,4 -4,-415 1014,-415 1014,4 -4,4"/>
<!-- Node1 -->
<g id="node1" class="node">
<title>Node1</title>
<g id="a_node1"><a xlink:title="Friend list cell">
<polygon fill="#bfbfbf" stroke="black" points="628,-318 628,-348 763,-348 763,-318 628,-318"/>
<text text-anchor="start" x="636" y="-336" font-family="Helvetica,sans-Serif" font-size="10.00">Photon.Pun.Demo.Cockpit.</text>
<text text-anchor="middle" x="695.5" y="-325" font-family="Helvetica,sans-Serif" font-size="10.00">FriendListCell</text>
</a>
</g>
</g>
<!-- Node5 -->
<g id="node5" class="node">
<title>Node5</title>
<g id="a_node5"><a xlink:href="class_photon_1_1_pun_1_1_demo_1_1_cockpit_1_1_friend_list_view.xhtml" target="_top" xlink:title="Friend list UI view.">
<polygon fill="white" stroke="black" points="875,-284 875,-314 1010,-314 1010,-284 875,-284"/>
<text text-anchor="start" x="883" y="-302" font-family="Helvetica,sans-Serif" font-size="10.00">Photon.Pun.Demo.Cockpit.</text>
<text text-anchor="middle" x="942.5" y="-291" font-family="Helvetica,sans-Serif" font-size="10.00">FriendListView</text>
</a>
</g>
</g>
<!-- Node1&#45;&gt;Node5 -->
<g id="edge20" class="edge">
<title>Node1&#45;&gt;Node5</title>
<path fill="none" stroke="#9a32cd" stroke-dasharray="5,2" d="M773.27,-322.55C799.79,-318.92 829.71,-314.81 857,-311 862.72,-310.2 868.66,-309.37 874.62,-308.53"/>
<polygon fill="#9a32cd" stroke="#9a32cd" points="772.71,-319.1 763.28,-323.92 773.66,-326.03 772.71,-319.1"/>
<text text-anchor="middle" x="826" y="-322" font-family="Helvetica,sans-Serif" font-size="10.00"> CellPrototype</text>
</g>
<!-- Node2 -->
<g id="node2" class="node">
<title>Node2</title>
<g id="a_node2"><a xlink:title=" ">
<polygon fill="white" stroke="#bfbfbf" points="18,-164.5 18,-183.5 101,-183.5 101,-164.5 18,-164.5"/>
<text text-anchor="middle" x="59.5" y="-171.5" font-family="Helvetica,sans-Serif" font-size="10.00">MonoBehaviour</text>
</a>
</g>
</g>
<!-- Node2&#45;&gt;Node1 -->
<g id="edge1" class="edge">
<title>Node2&#45;&gt;Node1</title>
<path fill="none" stroke="midnightblue" d="M83.66,-189.14C136.42,-222.68 270.72,-302.64 396,-333 473.94,-351.89 566.73,-347.94 627.93,-341.86"/>
<polygon fill="midnightblue" stroke="midnightblue" points="85.36,-186.08 75.06,-183.62 81.58,-191.97 85.36,-186.08"/>
</g>
<!-- Node7 -->
<g id="node7" class="node">
<title>Node7</title>
<g id="a_node7"><a xlink:href="class_photon_1_1_pun_1_1_mono_behaviour_pun.xhtml" target="_top" xlink:title="This class adds the property photonView, while logging a warning when your game still uses the networ...">
<polygon fill="white" stroke="black" points="413,-114.5 413,-133.5 513,-133.5 513,-114.5 413,-114.5"/>
<text text-anchor="middle" x="463" y="-121.5" font-family="Helvetica,sans-Serif" font-size="10.00">MonoBehaviourPun</text>
</a>
</g>
</g>
<!-- Node2&#45;&gt;Node7 -->
<g id="edge7" class="edge">
<title>Node2&#45;&gt;Node7</title>
<path fill="none" stroke="midnightblue" d="M111.24,-169.46C174.03,-163.6 284.15,-152.54 378,-139 389.29,-137.37 401.39,-135.37 412.79,-133.36"/>
<polygon fill="midnightblue" stroke="midnightblue" points="110.84,-165.98 101.21,-170.39 111.49,-172.95 110.84,-165.98"/>
</g>
<!-- Node8 -->
<g id="node8" class="node">
<title>Node8</title>
<g id="a_node8"><a xlink:href="class_photon_1_1_pun_1_1_photon_view.xhtml" target="_top" xlink:title="A PhotonView identifies an object across the network (viewID) and configures how the controlling clie...">
<polygon fill="white" stroke="black" points="198,-114.5 198,-133.5 320,-133.5 320,-114.5 198,-114.5"/>
<text text-anchor="middle" x="259" y="-121.5" font-family="Helvetica,sans-Serif" font-size="10.00">Photon.Pun.PhotonView</text>
</a>
</g>
</g>
<!-- Node2&#45;&gt;Node8 -->
<g id="edge9" class="edge">
<title>Node2&#45;&gt;Node8</title>
<path fill="none" stroke="midnightblue" d="M107.94,-161.99C142.34,-153.28 188.25,-141.66 220.19,-133.57"/>
<polygon fill="midnightblue" stroke="midnightblue" points="106.95,-158.63 98.11,-164.48 108.67,-165.42 106.95,-158.63"/>
</g>
<!-- Node3 -->
<g id="node3" class="node">
<title>Node3</title>
<g id="a_node3"><a xlink:title=" ">
<polygon fill="white" stroke="#bfbfbf" points="445.5,-391.5 445.5,-410.5 480.5,-410.5 480.5,-391.5 445.5,-391.5"/>
<text text-anchor="middle" x="463" y="-398.5" font-family="Helvetica,sans-Serif" font-size="10.00">Text</text>
</a>
</g>
</g>
<!-- Node3&#45;&gt;Node1 -->
<g id="edge2" class="edge">
<title>Node3&#45;&gt;Node1</title>
<path fill="none" stroke="#9a32cd" stroke-dasharray="5,2" d="M490.44,-393.52C517.11,-385.94 559.46,-373.82 596,-363 612.2,-358.2 629.86,-352.86 645.7,-348.03"/>
<polygon fill="#9a32cd" stroke="#9a32cd" points="489.36,-390.19 480.69,-396.28 491.27,-396.92 489.36,-390.19"/>
<text text-anchor="middle" x="572" y="-379" font-family="Helvetica,sans-Serif" font-size="10.00"> NameText</text>
</g>
<!-- Node3&#45;&gt;Node5 -->
<g id="edge19" class="edge">
<title>Node3&#45;&gt;Node5</title>
<path fill="none" stroke="#9a32cd" stroke-dasharray="5,2" d="M490.84,-399.79C517.57,-398.39 559.74,-395.67 596,-391 713.76,-375.85 745.15,-373.83 857,-334 873.75,-328.03 892.02,-320.59 907.27,-314.1"/>
<polygon fill="#9a32cd" stroke="#9a32cd" points="490.54,-396.3 480.73,-400.3 490.89,-403.29 490.54,-396.3"/>
<text text-anchor="middle" x="695.5" y="-402" font-family="Helvetica,sans-Serif" font-size="10.00"> ContentFeedback</text>
<text text-anchor="middle" x="695.5" y="-391" font-family="Helvetica,sans-Serif" font-size="10.00">UpdateStatusText</text>
</g>
<!-- Node4 -->
<g id="node4" class="node">
<title>Node4</title>
<g id="a_node4"><a xlink:href="class_photon_1_1_realtime_1_1_friend_info.xhtml" target="_top" xlink:title="Used to store info about a friend&#39;s online state and in which room he/she is.">
<polygon fill="white" stroke="black" points="396,-304.5 396,-323.5 530,-323.5 530,-304.5 396,-304.5"/>
<text text-anchor="middle" x="463" y="-311.5" font-family="Helvetica,sans-Serif" font-size="10.00">Photon.Realtime.FriendInfo</text>
</a>
</g>
</g>
<!-- Node4&#45;&gt;Node1 -->
<g id="edge3" class="edge">
<title>Node4&#45;&gt;Node1</title>
<path fill="none" stroke="#9a32cd" stroke-dasharray="5,2" d="M540.28,-320.29C568.52,-322.62 600.3,-325.24 627.64,-327.49"/>
<polygon fill="#9a32cd" stroke="#9a32cd" points="540.31,-316.78 530.05,-319.44 539.73,-323.75 540.31,-316.78"/>
<text text-anchor="middle" x="572" y="-327" font-family="Helvetica,sans-Serif" font-size="10.00"> _info</text>
</g>
<!-- Node5&#45;&gt;Node1 -->
<g id="edge4" class="edge">
<title>Node5&#45;&gt;Node1</title>
<path fill="none" stroke="#9a32cd" stroke-dasharray="5,2" d="M864.56,-294.97C842.02,-295.02 817.41,-296.27 795,-300 773.65,-303.56 750.67,-311.03 732.29,-317.97"/>
<polygon fill="#9a32cd" stroke="#9a32cd" points="864.73,-298.47 874.75,-295.03 864.77,-291.47 864.73,-298.47"/>
<text text-anchor="middle" x="826" y="-303" font-family="Helvetica,sans-Serif" font-size="10.00"> ListManager</text>
</g>
<!-- Node6 -->
<g id="node6" class="node">
<title>Node6</title>
<g id="a_node6"><a xlink:href="class_photon_1_1_pun_1_1_mono_behaviour_pun_callbacks.xhtml" target="_top" xlink:title="This class provides a .photonView and all callbacks/events that PUN can call.">
<polygon fill="white" stroke="black" points="624,-171.5 624,-190.5 767,-190.5 767,-171.5 624,-171.5"/>
<text text-anchor="middle" x="695.5" y="-178.5" font-family="Helvetica,sans-Serif" font-size="10.00">MonoBehaviourPunCallbacks</text>
</a>
</g>
</g>
<!-- Node6&#45;&gt;Node5 -->
<g id="edge5" class="edge">
<title>Node6&#45;&gt;Node5</title>
<path fill="none" stroke="midnightblue" d="M725.77,-195.1C772.23,-217.47 862.48,-260.94 910.19,-283.92"/>
<polygon fill="midnightblue" stroke="midnightblue" points="727.08,-191.84 716.55,-190.66 724.04,-198.15 727.08,-191.84"/>
</g>
<!-- Node7&#45;&gt;Node6 -->
<g id="edge6" class="edge">
<title>Node7&#45;&gt;Node6</title>
<path fill="none" stroke="midnightblue" d="M512.46,-135.98C555.09,-146.53 616.36,-161.68 655.79,-171.43"/>
<polygon fill="midnightblue" stroke="midnightblue" points="513.13,-132.54 502.58,-133.54 511.45,-139.34 513.13,-132.54"/>
</g>
<!-- Node8&#45;&gt;Node7 -->
<g id="edge8" class="edge">
<title>Node8&#45;&gt;Node7</title>
<path fill="none" stroke="#9a32cd" stroke-dasharray="5,2" d="M330.3,-124C357.47,-124 387.93,-124 412.7,-124"/>
<polygon fill="#9a32cd" stroke="#9a32cd" points="330.06,-120.5 320.06,-124 330.06,-127.5 330.06,-120.5"/>
<text text-anchor="middle" x="358" y="-127" font-family="Helvetica,sans-Serif" font-size="10.00"> pvCache</text>
</g>
<!-- Node9 -->
<g id="node9" class="node">
<title>Node9</title>
<g id="a_node9"><a xlink:href="class_photon_1_1_realtime_1_1_player.xhtml" target="_top" xlink:title="Summarizes a &quot;player&quot; within a room, identified (in that room) by ID (or &quot;actorNumber&quot;).">
<polygon fill="white" stroke="black" points="0,-102.5 0,-121.5 119,-121.5 119,-102.5 0,-102.5"/>
<text text-anchor="middle" x="59.5" y="-109.5" font-family="Helvetica,sans-Serif" font-size="10.00">Photon.Realtime.Player</text>
</a>
</g>
</g>
<!-- Node9&#45;&gt;Node8 -->
<g id="edge10" class="edge">
<title>Node9&#45;&gt;Node8</title>
<path fill="none" stroke="#9a32cd" stroke-dasharray="5,2" d="M129.39,-111.03C145.98,-111.22 163.64,-111.78 180,-113 185.73,-113.43 191.68,-114.01 197.62,-114.68"/>
<polygon fill="#9a32cd" stroke="#9a32cd" points="129.24,-107.53 119.22,-110.95 129.19,-114.53 129.24,-107.53"/>
<text text-anchor="middle" x="158.5" y="-127" font-family="Helvetica,sans-Serif" font-size="10.00"> controller</text>
<text text-anchor="middle" x="158.5" y="-116" font-family="Helvetica,sans-Serif" font-size="10.00">owner</text>
</g>
<!-- Node10 -->
<g id="node10" class="node">
<title>Node10</title>
<g id="a_node10"><a xlink:href="interface_photon_1_1_realtime_1_1_i_connection_callbacks.xhtml" target="_top" xlink:title="Collection of &quot;organizational&quot; callbacks for the Realtime Api to cover: Connection and Regions.">
<polygon fill="white" stroke="black" points="408,-76.5 408,-95.5 518,-95.5 518,-76.5 408,-76.5"/>
<text text-anchor="middle" x="463" y="-83.5" font-family="Helvetica,sans-Serif" font-size="10.00">IConnectionCallbacks</text>
</a>
</g>
</g>
<!-- Node10&#45;&gt;Node6 -->
<g id="edge11" class="edge">
<title>Node10&#45;&gt;Node6</title>
<path fill="none" stroke="midnightblue" d="M510.99,-98.57C517.43,-100.57 523.91,-102.73 530,-105 584.54,-125.31 646.16,-155.96 676.14,-171.39"/>
<polygon fill="midnightblue" stroke="midnightblue" points="511.56,-95.09 500.98,-95.57 509.55,-101.79 511.56,-95.09"/>
</g>
<!-- Node11 -->
<g id="node11" class="node">
<title>Node11</title>
<g id="a_node11"><a xlink:href="interface_photon_1_1_realtime_1_1_i_matchmaking_callbacks.xhtml" target="_top" xlink:title="Collection of &quot;organizational&quot; callbacks for the Realtime Api to cover Matchmaking.">
<polygon fill="white" stroke="black" points="403,-38.5 403,-57.5 523,-57.5 523,-38.5 403,-38.5"/>
<text text-anchor="middle" x="463" y="-45.5" font-family="Helvetica,sans-Serif" font-size="10.00">IMatchmakingCallbacks</text>
</a>
</g>
</g>
<!-- Node11&#45;&gt;Node6 -->
<g id="edge12" class="edge">
<title>Node11&#45;&gt;Node6</title>
<path fill="none" stroke="midnightblue" d="M513.97,-60.72C519.46,-62.61 524.9,-64.7 530,-67 593.67,-95.7 658.77,-149.61 683.8,-171.45"/>
<polygon fill="midnightblue" stroke="midnightblue" points="514.69,-57.28 504.1,-57.55 512.55,-63.94 514.69,-57.28"/>
</g>
<!-- Node12 -->
<g id="node12" class="node">
<title>Node12</title>
<g id="a_node12"><a xlink:href="interface_photon_1_1_realtime_1_1_i_in_room_callbacks.xhtml" target="_top" xlink:title="Collection of &quot;in room&quot; callbacks for the Realtime Api to cover: Players entering or leaving,...">
<polygon fill="white" stroke="black" points="415.5,-266.5 415.5,-285.5 510.5,-285.5 510.5,-266.5 415.5,-266.5"/>
<text text-anchor="middle" x="463" y="-273.5" font-family="Helvetica,sans-Serif" font-size="10.00">IInRoomCallbacks</text>
</a>
</g>
</g>
<!-- Node12&#45;&gt;Node6 -->
<g id="edge13" class="edge">
<title>Node12&#45;&gt;Node6</title>
<path fill="none" stroke="midnightblue" d="M510.99,-263.43C517.43,-261.43 523.91,-259.27 530,-257 584.54,-236.69 646.16,-206.04 676.14,-190.61"/>
<polygon fill="midnightblue" stroke="midnightblue" points="509.55,-260.21 500.98,-266.43 511.56,-266.91 509.55,-260.21"/>
</g>
<!-- Node13 -->
<g id="node13" class="node">
<title>Node13</title>
<g id="a_node13"><a xlink:href="interface_photon_1_1_realtime_1_1_i_lobby_callbacks.xhtml" target="_top" xlink:title="Collection of &quot;organizational&quot; callbacks for the Realtime Api to cover the Lobby.">
<polygon fill="white" stroke="black" points="419,-228.5 419,-247.5 507,-247.5 507,-228.5 419,-228.5"/>
<text text-anchor="middle" x="463" y="-235.5" font-family="Helvetica,sans-Serif" font-size="10.00">ILobbyCallbacks</text>
</a>
</g>
</g>
<!-- Node13&#45;&gt;Node6 -->
<g id="edge14" class="edge">
<title>Node13&#45;&gt;Node6</title>
<path fill="none" stroke="midnightblue" d="M513.77,-226.07C538.51,-220.1 568.84,-212.74 596,-206 616.21,-200.99 638.71,-195.28 657.11,-190.59"/>
<polygon fill="midnightblue" stroke="midnightblue" points="512.79,-222.7 503.88,-228.45 514.43,-229.51 512.79,-222.7"/>
</g>
<!-- Node14 -->
<g id="node14" class="node">
<title>Node14</title>
<g id="a_node14"><a xlink:href="interface_photon_1_1_realtime_1_1_i_web_rpc_callback.xhtml" target="_top" xlink:title="Interface for &quot;WebRpc&quot; callbacks for the Realtime Api.">
<polygon fill="white" stroke="black" points="416,-190.5 416,-209.5 510,-209.5 510,-190.5 416,-190.5"/>
<text text-anchor="middle" x="463" y="-197.5" font-family="Helvetica,sans-Serif" font-size="10.00">IWebRpcCallback</text>
</a>
</g>
</g>
<!-- Node14&#45;&gt;Node6 -->
<g id="edge15" class="edge">
<title>Node14&#45;&gt;Node6</title>
<path fill="none" stroke="midnightblue" d="M520.36,-195.35C551.59,-192.78 590.72,-189.55 623.96,-186.81"/>
<polygon fill="midnightblue" stroke="midnightblue" points="519.77,-191.89 510.09,-196.2 520.34,-198.87 519.77,-191.89"/>
</g>
<!-- Node15 -->
<g id="node15" class="node">
<title>Node15</title>
<g id="a_node15"><a xlink:href="interface_photon_1_1_realtime_1_1_i_error_info_callback.xhtml" target="_top" xlink:title="Interface for EventCode.ErrorInfo event callback for the Realtime Api.">
<polygon fill="white" stroke="black" points="417,-152.5 417,-171.5 509,-171.5 509,-152.5 417,-152.5"/>
<text text-anchor="middle" x="463" y="-159.5" font-family="Helvetica,sans-Serif" font-size="10.00">IErrorInfoCallback</text>
</a>
</g>
</g>
<!-- Node15&#45;&gt;Node6 -->
<g id="edge16" class="edge">
<title>Node15&#45;&gt;Node6</title>
<path fill="none" stroke="midnightblue" d="M519.56,-166.58C550.91,-169.16 590.4,-172.42 623.93,-175.18"/>
<polygon fill="midnightblue" stroke="midnightblue" points="519.52,-163.06 509.26,-165.73 518.94,-170.04 519.52,-163.06"/>
</g>
<!-- Node16 -->
<g id="node16" class="node">
<title>Node16</title>
<g id="a_node16"><a xlink:href="class_photon_1_1_pun_1_1_demo_1_1_cockpit_1_1_friend_list_view_1_1_on_join_room_event.xhtml" target="_top" xlink:title=" ">
<polygon fill="white" stroke="black" points="614,-49 614,-79 777,-79 777,-49 614,-49"/>
<text text-anchor="start" x="622" y="-67" font-family="Helvetica,sans-Serif" font-size="10.00">Photon.Pun.Demo.Cockpit.</text>
<text text-anchor="middle" x="695.5" y="-56" font-family="Helvetica,sans-Serif" font-size="10.00">FriendListView.OnJoinRoomEvent</text>
</a>
</g>
</g>
<!-- Node16&#45;&gt;Node5 -->
<g id="edge17" class="edge">
<title>Node16&#45;&gt;Node5</title>
<path fill="none" stroke="#9a32cd" stroke-dasharray="5,2" d="M720.56,-85.97C752.18,-114.97 809.29,-167.74 857,-214 881.8,-238.04 909.97,-266.65 926.71,-283.79"/>
<polygon fill="#9a32cd" stroke="#9a32cd" points="722.83,-83.31 713.09,-79.13 718.1,-88.47 722.83,-83.31"/>
<text text-anchor="middle" x="826" y="-217" font-family="Helvetica,sans-Serif" font-size="10.00"> OnJoinRoom</text>
</g>
<!-- Node17 -->
<g id="node17" class="node">
<title>Node17</title>
<g id="a_node17"><a xlink:title=" ">
<polygon fill="white" stroke="#bfbfbf" points="410.5,-0.5 410.5,-19.5 515.5,-19.5 515.5,-0.5 410.5,-0.5"/>
<text text-anchor="middle" x="463" y="-7.5" font-family="Helvetica,sans-Serif" font-size="10.00">UnityEvent&lt; string &gt;</text>
</a>
</g>
</g>
<!-- Node17&#45;&gt;Node16 -->
<g id="edge18" class="edge">
<title>Node17&#45;&gt;Node16</title>
<path fill="none" stroke="midnightblue" d="M525.7,-19.69C547.97,-23.59 573.23,-28.48 596,-34 613.37,-38.21 632.2,-43.71 648.7,-48.85"/>
<polygon fill="midnightblue" stroke="midnightblue" points="526.14,-16.22 515.69,-17.97 524.96,-23.12 526.14,-16.22"/>
</g>
</g>
</svg>
        <g id="navigator" transform="translate(0 0)" fill="#404254">
                <rect fill="#f2f5e9" fill-opacity="0.5" stroke="#606060" stroke-width=".5" x="0" y="0" width="60" height="60"/>
                <use id="zoomplus" xlink:href="#zoomPlus" x="17" y="9" onmousedown="handleZoom(evt,'in')"/>
                <use id="zoomminus" xlink:href="#zoomMin" x="42" y="9" onmousedown="handleZoom(evt,'out')"/>
                <use id="reset" xlink:href="#resetDef" x="30" y="36" onmousedown="handleReset()"/>
                <g id="arrowUp" xlink:href="#dirArrow" transform="translate(30 24)" onmousedown="handlePan(0,-1)">
                  <use xlink:href="#rim" fill="#404040">
                        <set attributeName="fill" to="#808080" begin="arrowUp.mouseover" end="arrowUp.mouseout"/>
                  </use>
                  <path fill="none" stroke="white" stroke-width="1.5" d="M0,-3.0v7 M-2.5,-0.5L0,-3.0L2.5,-0.5"/>
                </g>
                <g id="arrowRight" xlink:href="#dirArrow" transform="rotate(90) translate(36 -43)" onmousedown="handlePan(1,0)">
                  <use xlink:href="#rim" fill="#404040">
                        <set attributeName="fill" to="#808080" begin="arrowRight.mouseover" end="arrowRight.mouseout"/>
                  </use>
                  <path fill="none" stroke="white" stroke-width="1.5" d="M0,-3.0v7 M-2.5,-0.5L0,-3.0L2.5,-0.5"/>
                </g>
                <g id="arrowDown" xlink:href="#dirArrow" transform="rotate(180) translate(-30 -48)" onmousedown="handlePan(0,1)">
                  <use xlink:href="#rim" fill="#404040">
                        <set attributeName="fill" to="#808080" begin="arrowDown.mouseover" end="arrowDown.mouseout"/>
                  </use>
                  <path fill="none" stroke="white" stroke-width="1.5" d="M0,-3.0v7 M-2.5,-0.5L0,-3.0L2.5,-0.5"/>
                </g>
                <g id="arrowLeft" xlink:href="#dirArrow" transform="rotate(270) translate(-36 17)" onmousedown="handlePan(-1,0)">
                  <use xlink:href="#rim" fill="#404040">
                        <set attributeName="fill" to="#808080" begin="arrowLeft.mouseover" end="arrowLeft.mouseout"/>
                  </use>
                  <path fill="none" stroke="white" stroke-width="1.5" d="M0,-3.0v7 M-2.5,-0.5L0,-3.0L2.5,-0.5"/>
                </g>
        </g>
        <svg viewBox="0 0 15 15" width="100%" height="30px" preserveAspectRatio="xMaxYMin meet">
         <g id="arrow_out" transform="scale(0.3 0.3)">
          <a xlink:href="class_photon_1_1_pun_1_1_demo_1_1_cockpit_1_1_friend_list_cell__coll__graph_org.svg" target="_base">
           <rect id="button" ry="5" rx="5" y="6" x="6" height="38" width="38"
                fill="#f2f5e9" fill-opacity="0.5" stroke="#606060" stroke-width="1.0"/>
           <path id="arrow"
             d="M 11.500037,31.436501 C 11.940474,20.09759 22.043105,11.32322 32.158766,21.979434 L 37.068811,17.246167 C 37.068811,17.246167 37.088388,32 37.088388,32 L 22.160133,31.978069 C 22.160133,31.978069 26.997745,27.140456 26.997745,27.140456 C 18.528582,18.264221 13.291696,25.230495 11.500037,31.436501 z"
             style="fill:#404040;"/>
          </a>
         </g>
        </svg>
</svg>
