<?xml version="1.0" encoding="UTF-8" standalone="no"?>
<!DOCTYPE svg PUBLIC "-//W3C//DTD SVG 1.1//EN"
 "http://www.w3.org/Graphics/SVG/1.1/DTD/svg11.dtd">
<!-- Generated by graphviz version 2.47.3 (20210619.1520)
 -->
<!-- Title: Photon.Realtime.LoadBalancingClient.OpWebRpc Pages: 1 -->
<svg width="936pt" height="149pt"
 viewBox="0.00 0.00 936.00 148.50" xmlns="http://www.w3.org/2000/svg" xmlns:xlink="http://www.w3.org/1999/xlink">
<g id="graph0" class="graph" transform="scale(1 1) rotate(0) translate(4 144.5)">
<title>Photon.Realtime.LoadBalancingClient.OpWebRpc</title>
<polygon fill="white" stroke="transparent" points="-4,4 -4,-144.5 932,-144.5 932,4 -4,4"/>
<!-- Node1 -->
<g id="node1" class="node">
<title>Node1</title>
<g id="a_node1"><a xlink:title="This operation makes Photon call your custom web&#45;service by path/name with the given parameters (conv...">
<polygon fill="#bfbfbf" stroke="black" points="0,-24.5 0,-54.5 155,-54.5 155,-24.5 0,-24.5"/>
<text text-anchor="start" x="8" y="-42.5" font-family="Helvetica,sans-Serif" font-size="10.00">Photon.Realtime.LoadBalancing</text>
<text text-anchor="middle" x="77.5" y="-31.5" font-family="Helvetica,sans-Serif" font-size="10.00">Client.OpWebRpc</text>
</a>
</g>
</g>
<!-- Node2 -->
<g id="node2" class="node">
<title>Node2</title>
<g id="a_node2"><a xlink:href="class_photon_1_1_realtime_1_1_load_balancing_client.xhtml#aa12ff3efc3aa91e5ceca9b3a40f7bd79" target="_top" xlink:title=" ">
<polygon fill="white" stroke="black" points="191,-47.5 191,-77.5 346,-77.5 346,-47.5 191,-47.5"/>
<text text-anchor="start" x="199" y="-65.5" font-family="Helvetica,sans-Serif" font-size="10.00">Photon.Realtime.LoadBalancing</text>
<text text-anchor="middle" x="268.5" y="-54.5" font-family="Helvetica,sans-Serif" font-size="10.00">Client.CheckIfOpCanBeSent</text>
</a>
</g>
</g>
<!-- Node1&#45;&gt;Node2 -->
<g id="edge1" class="edge">
<title>Node1&#45;&gt;Node2</title>
<path fill="none" stroke="midnightblue" d="M155.1,-48.82C163.56,-49.85 172.22,-50.9 180.79,-51.95"/>
<polygon fill="midnightblue" stroke="midnightblue" points="180.44,-55.43 190.79,-53.16 181.29,-48.48 180.44,-55.43"/>
</g>
<!-- Node5 -->
<g id="node5" class="node">
<title>Node5</title>
<g id="a_node5"><a xlink:href="class_photon_1_1_realtime_1_1_load_balancing_client.xhtml#a69dd43d4c7211b5b83cd54d0ebcf79e7" target="_top" xlink:title="Debug output of low level api (and this client).">
<polygon fill="white" stroke="black" points="386.5,-0.5 386.5,-30.5 541.5,-30.5 541.5,-0.5 386.5,-0.5"/>
<text text-anchor="start" x="394.5" y="-18.5" font-family="Helvetica,sans-Serif" font-size="10.00">Photon.Realtime.LoadBalancing</text>
<text text-anchor="middle" x="464" y="-7.5" font-family="Helvetica,sans-Serif" font-size="10.00">Client.DebugReturn</text>
</a>
</g>
</g>
<!-- Node1&#45;&gt;Node5 -->
<g id="edge7" class="edge">
<title>Node1&#45;&gt;Node5</title>
<path fill="none" stroke="midnightblue" d="M155.39,-34.7C219.17,-30.72 309.85,-25.06 376.22,-20.92"/>
<polygon fill="midnightblue" stroke="midnightblue" points="376.49,-24.41 386.25,-20.29 376.05,-17.42 376.49,-24.41"/>
</g>
<!-- Node3 -->
<g id="node3" class="node">
<title>Node3</title>
<g id="a_node3"><a xlink:href="class_photon_1_1_realtime_1_1_load_balancing_client.xhtml#ae052ab450db16efdd31985d56f76f0ab" target="_top" xlink:title=" ">
<polygon fill="white" stroke="black" points="382,-99 382,-140 546,-140 546,-99 382,-99"/>
<text text-anchor="start" x="390" y="-128" font-family="Helvetica,sans-Serif" font-size="10.00">Photon.Realtime.LoadBalancing</text>
<text text-anchor="start" x="390" y="-117" font-family="Helvetica,sans-Serif" font-size="10.00">Client.CheckIfClientIsReadyToCall</text>
<text text-anchor="middle" x="464" y="-106" font-family="Helvetica,sans-Serif" font-size="10.00">Operation</text>
</a>
</g>
</g>
<!-- Node2&#45;&gt;Node3 -->
<g id="edge2" class="edge">
<title>Node2&#45;&gt;Node3</title>
<path fill="none" stroke="midnightblue" d="M320.59,-77.55C339.92,-83.24 362.39,-89.86 383.7,-96.14"/>
<polygon fill="midnightblue" stroke="midnightblue" points="382.81,-99.53 393.39,-98.99 384.79,-92.81 382.81,-99.53"/>
</g>
<!-- Node4 -->
<g id="node4" class="node">
<title>Node4</title>
<g id="a_node4"><a xlink:href="class_photon_1_1_realtime_1_1_load_balancing_client.xhtml#aa01a53cac6918dab3ecb99669b276f01" target="_top" xlink:title=" ">
<polygon fill="white" stroke="black" points="382.5,-49.5 382.5,-79.5 545.5,-79.5 545.5,-49.5 382.5,-49.5"/>
<text text-anchor="start" x="390.5" y="-67.5" font-family="Helvetica,sans-Serif" font-size="10.00">Photon.Realtime.LoadBalancing</text>
<text text-anchor="middle" x="464" y="-56.5" font-family="Helvetica,sans-Serif" font-size="10.00">Client.CheckIfOpAllowedOnServer</text>
</a>
</g>
</g>
<!-- Node2&#45;&gt;Node4 -->
<g id="edge3" class="edge">
<title>Node2&#45;&gt;Node4</title>
<path fill="none" stroke="midnightblue" d="M346.25,-63.29C354.75,-63.38 363.46,-63.47 372.1,-63.56"/>
<polygon fill="midnightblue" stroke="midnightblue" points="372.17,-67.06 382.21,-63.66 372.25,-60.06 372.17,-67.06"/>
</g>
<!-- Node2&#45;&gt;Node5 -->
<g id="edge4" class="edge">
<title>Node2&#45;&gt;Node5</title>
<path fill="none" stroke="midnightblue" d="M331.26,-47.5C350.37,-42.86 371.59,-37.7 391.31,-32.91"/>
<polygon fill="midnightblue" stroke="midnightblue" points="392.28,-36.28 401.17,-30.52 390.62,-29.48 392.28,-36.28"/>
</g>
<!-- Node6 -->
<g id="node6" class="node">
<title>Node6</title>
<g id="a_node6"><a xlink:href="class_photon_1_1_realtime_1_1_load_balancing_peer.xhtml#a7f48b5f0c44ef0c67ef32f147ff87246" target="_top" xlink:title="Creates a Peer with specified connection protocol.">
<polygon fill="white" stroke="black" points="582,-0.5 582,-30.5 737,-30.5 737,-0.5 582,-0.5"/>
<text text-anchor="start" x="590" y="-18.5" font-family="Helvetica,sans-Serif" font-size="10.00">Photon.Realtime.LoadBalancing</text>
<text text-anchor="middle" x="659.5" y="-7.5" font-family="Helvetica,sans-Serif" font-size="10.00">Peer.LoadBalancingPeer</text>
</a>
</g>
</g>
<!-- Node5&#45;&gt;Node6 -->
<g id="edge5" class="edge">
<title>Node5&#45;&gt;Node6</title>
<path fill="none" stroke="midnightblue" d="M541.75,-15.5C551.54,-15.5 561.62,-15.5 571.55,-15.5"/>
<polygon fill="midnightblue" stroke="midnightblue" points="571.84,-19 581.84,-15.5 571.84,-12 571.84,-19"/>
</g>
<!-- Node7 -->
<g id="node7" class="node">
<title>Node7</title>
<g id="a_node7"><a xlink:href="class_photon_1_1_realtime_1_1_load_balancing_peer.xhtml#affaff7e1fdffe86b25156ffac5e738c9" target="_top" xlink:title=" ">
<polygon fill="white" stroke="black" points="773,-0.5 773,-30.5 928,-30.5 928,-0.5 773,-0.5"/>
<text text-anchor="start" x="781" y="-18.5" font-family="Helvetica,sans-Serif" font-size="10.00">Photon.Realtime.LoadBalancing</text>
<text text-anchor="middle" x="850.5" y="-7.5" font-family="Helvetica,sans-Serif" font-size="10.00">Peer.ConfigUnitySockets</text>
</a>
</g>
</g>
<!-- Node6&#45;&gt;Node7 -->
<g id="edge6" class="edge">
<title>Node6&#45;&gt;Node7</title>
<path fill="none" stroke="midnightblue" d="M737.1,-15.5C745.56,-15.5 754.22,-15.5 762.79,-15.5"/>
<polygon fill="midnightblue" stroke="midnightblue" points="762.79,-19 772.79,-15.5 762.79,-12 762.79,-19"/>
</g>
</g>
</svg>
