<?xml version="1.0" encoding="UTF-8" standalone="no"?>
<!DOCTYPE svg PUBLIC "-//W3C//DTD SVG 1.1//EN"
 "http://www.w3.org/Graphics/SVG/1.1/DTD/svg11.dtd">
<!-- Generated by graphviz version 2.47.3 (20210619.1520)
 -->
<!-- Title: Photon.Pun.UtilityScripts.CullArea.CreateCellHierarchy Pages: 1 -->
<svg width="492pt" height="88pt"
 viewBox="0.00 0.00 492.00 88.00" xmlns="http://www.w3.org/2000/svg" xmlns:xlink="http://www.w3.org/1999/xlink">
<g id="graph0" class="graph" transform="scale(1 1) rotate(0) translate(4 84)">
<title>Photon.Pun.UtilityScripts.CullArea.CreateCellHierarchy</title>
<polygon fill="white" stroke="transparent" points="-4,4 -4,-84 488,-84 488,4 -4,4"/>
<!-- Node1 -->
<g id="node1" class="node">
<title>Node1</title>
<g id="a_node1"><a xlink:title="Creates the cell hierarchy.">
<polygon fill="#bfbfbf" stroke="black" points="0,-24.5 0,-54.5 143,-54.5 143,-24.5 0,-24.5"/>
<text text-anchor="start" x="8" y="-42.5" font-family="Helvetica,sans-Serif" font-size="10.00">Photon.Pun.UtilityScripts.</text>
<text text-anchor="middle" x="71.5" y="-31.5" font-family="Helvetica,sans-Serif" font-size="10.00">CullArea.CreateCellHierarchy</text>
</a>
</g>
</g>
<!-- Node2 -->
<g id="node2" class="node">
<title>Node2</title>
<g id="a_node2"><a xlink:href="class_photon_1_1_pun_1_1_utility_scripts_1_1_cull_area.xhtml#a0da90078e604b267e09a8bc28e47aa2a" target="_top" xlink:title="Creates all child cells.">
<polygon fill="white" stroke="black" points="184.5,-49.5 184.5,-79.5 313.5,-79.5 313.5,-49.5 184.5,-49.5"/>
<text text-anchor="start" x="192.5" y="-67.5" font-family="Helvetica,sans-Serif" font-size="10.00">Photon.Pun.UtilityScripts.</text>
<text text-anchor="middle" x="249" y="-56.5" font-family="Helvetica,sans-Serif" font-size="10.00">CullArea.CreateChildCells</text>
</a>
</g>
</g>
<!-- Node1&#45;&gt;Node2 -->
<g id="edge1" class="edge">
<title>Node1&#45;&gt;Node2</title>
<path fill="none" stroke="midnightblue" d="M143.12,-49.56C153.34,-51.02 163.88,-52.52 174.15,-53.98"/>
<polygon fill="midnightblue" stroke="midnightblue" points="173.93,-57.48 184.32,-55.43 174.91,-50.55 173.93,-57.48"/>
</g>
<!-- Node4 -->
<g id="node4" class="node">
<title>Node4</title>
<g id="a_node4"><a xlink:href="class_photon_1_1_pun_1_1_utility_scripts_1_1_cull_area.xhtml#aeeef8bea2e057899005bf0b0f58e86c1" target="_top" xlink:title="Checks if the cell count is allowed.">
<polygon fill="white" stroke="black" points="179,-0.5 179,-30.5 319,-30.5 319,-0.5 179,-0.5"/>
<text text-anchor="start" x="187" y="-18.5" font-family="Helvetica,sans-Serif" font-size="10.00">Photon.Pun.UtilityScripts.</text>
<text text-anchor="middle" x="249" y="-7.5" font-family="Helvetica,sans-Serif" font-size="10.00">CullArea.IsCellCountAllowed</text>
</a>
</g>
</g>
<!-- Node1&#45;&gt;Node4 -->
<g id="edge3" class="edge">
<title>Node1&#45;&gt;Node4</title>
<path fill="none" stroke="midnightblue" d="M143.12,-29.84C151.61,-28.68 160.32,-27.49 168.92,-26.31"/>
<polygon fill="midnightblue" stroke="midnightblue" points="169.51,-29.77 178.95,-24.94 168.56,-22.83 169.51,-29.77"/>
</g>
<!-- Node3 -->
<g id="node3" class="node">
<title>Node3</title>
<g id="a_node3"><a xlink:href="class_photon_1_1_pun_1_1_utility_scripts_1_1_cell_tree_node.xhtml#a78317fb3d1cfb3497364fef005176930" target="_top" xlink:title="Adds the given child to the node.">
<polygon fill="white" stroke="black" points="355,-49.5 355,-79.5 484,-79.5 484,-49.5 355,-49.5"/>
<text text-anchor="start" x="363" y="-67.5" font-family="Helvetica,sans-Serif" font-size="10.00">Photon.Pun.UtilityScripts.</text>
<text text-anchor="middle" x="419.5" y="-56.5" font-family="Helvetica,sans-Serif" font-size="10.00">CellTreeNode.AddChild</text>
</a>
</g>
</g>
<!-- Node2&#45;&gt;Node3 -->
<g id="edge2" class="edge">
<title>Node2&#45;&gt;Node3</title>
<path fill="none" stroke="midnightblue" d="M313.7,-64.5C323.84,-64.5 334.4,-64.5 344.74,-64.5"/>
<polygon fill="midnightblue" stroke="midnightblue" points="344.99,-68 354.99,-64.5 344.99,-61 344.99,-68"/>
</g>
</g>
</svg>
