<?xml version="1.0" encoding="UTF-8" standalone="no"?>
<!DOCTYPE svg PUBLIC "-//W3C//DTD SVG 1.1//EN"
 "http://www.w3.org/Graphics/SVG/1.1/DTD/svg11.dtd">
<!-- Generated by graphviz version 2.47.3 (20210619.1520)
 -->
<!-- Title: Photon.Pun.Demo.Cockpit.PunCockpit.OnJoinRoomFailed Pages: 1 -->
<svg width="927pt" height="39pt"
 viewBox="0.00 0.00 927.00 39.00" xmlns="http://www.w3.org/2000/svg" xmlns:xlink="http://www.w3.org/1999/xlink">
<g id="graph0" class="graph" transform="scale(1 1) rotate(0) translate(4 35)">
<title>Photon.Pun.Demo.Cockpit.PunCockpit.OnJoinRoomFailed</title>
<polygon fill="white" stroke="transparent" points="-4,4 -4,-35 923,-35 923,4 -4,4"/>
<!-- Node1 -->
<g id="node1" class="node">
<title>Node1</title>
<g id="a_node1"><a xlink:title="Called when a previous OpJoinRoom call failed on the server.">
<polygon fill="#bfbfbf" stroke="black" points="0,-0.5 0,-30.5 152,-30.5 152,-0.5 0,-0.5"/>
<text text-anchor="start" x="8" y="-18.5" font-family="Helvetica,sans-Serif" font-size="10.00">Photon.Pun.Demo.Cockpit.</text>
<text text-anchor="middle" x="76" y="-7.5" font-family="Helvetica,sans-Serif" font-size="10.00">PunCockpit.OnJoinRoomFailed</text>
</a>
</g>
</g>
<!-- Node2 -->
<g id="node2" class="node">
<title>Node2</title>
<g id="a_node2"><a xlink:href="class_photon_1_1_pun_1_1_photon_network.xhtml#af4b1a8a87b39134b946ae85128e9d5e1" target="_top" xlink:title="Rejoins a room by roomName (using the userID internally to return).">
<polygon fill="white" stroke="black" points="188,-0.5 188,-30.5 328,-30.5 328,-0.5 188,-0.5"/>
<text text-anchor="start" x="196" y="-18.5" font-family="Helvetica,sans-Serif" font-size="10.00">Photon.Pun.PhotonNetwork.</text>
<text text-anchor="middle" x="258" y="-7.5" font-family="Helvetica,sans-Serif" font-size="10.00">RejoinRoom</text>
</a>
</g>
</g>
<!-- Node1&#45;&gt;Node2 -->
<g id="edge1" class="edge">
<title>Node1&#45;&gt;Node2</title>
<path fill="none" stroke="midnightblue" d="M152.03,-15.5C160.47,-15.5 169.08,-15.5 177.57,-15.5"/>
<polygon fill="midnightblue" stroke="midnightblue" points="177.84,-19 187.84,-15.5 177.84,-12 177.84,-19"/>
</g>
<!-- Node3 -->
<g id="node3" class="node">
<title>Node3</title>
<g id="a_node3"><a xlink:href="class_photon_1_1_realtime_1_1_load_balancing_client.xhtml#afde54809fa49258427c1c31a34264fd6" target="_top" xlink:title="Rejoins a room by roomName (using the userID internally to return).">
<polygon fill="white" stroke="black" points="364,-0.5 364,-30.5 519,-30.5 519,-0.5 364,-0.5"/>
<text text-anchor="start" x="372" y="-18.5" font-family="Helvetica,sans-Serif" font-size="10.00">Photon.Realtime.LoadBalancing</text>
<text text-anchor="middle" x="441.5" y="-7.5" font-family="Helvetica,sans-Serif" font-size="10.00">Client.OpRejoinRoom</text>
</a>
</g>
</g>
<!-- Node2&#45;&gt;Node3 -->
<g id="edge2" class="edge">
<title>Node2&#45;&gt;Node3</title>
<path fill="none" stroke="midnightblue" d="M328.14,-15.5C336.56,-15.5 345.25,-15.5 353.89,-15.5"/>
<polygon fill="midnightblue" stroke="midnightblue" points="353.98,-19 363.98,-15.5 353.98,-12 353.98,-19"/>
</g>
<!-- Node4 -->
<g id="node4" class="node">
<title>Node4</title>
<g id="a_node4"><a xlink:href="class_photon_1_1_realtime_1_1_load_balancing_peer.xhtml#a1dc6be1075f64edd0b746f2e61c114f5" target="_top" xlink:title="Joins a room by name or creates new room if room with given name not exists.">
<polygon fill="white" stroke="black" points="555,-0.5 555,-30.5 710,-30.5 710,-0.5 555,-0.5"/>
<text text-anchor="start" x="563" y="-18.5" font-family="Helvetica,sans-Serif" font-size="10.00">Photon.Realtime.LoadBalancing</text>
<text text-anchor="middle" x="632.5" y="-7.5" font-family="Helvetica,sans-Serif" font-size="10.00">Peer.OpJoinRoom</text>
</a>
</g>
</g>
<!-- Node3&#45;&gt;Node4 -->
<g id="edge3" class="edge">
<title>Node3&#45;&gt;Node4</title>
<path fill="none" stroke="midnightblue" d="M519.1,-15.5C527.56,-15.5 536.22,-15.5 544.79,-15.5"/>
<polygon fill="midnightblue" stroke="midnightblue" points="544.79,-19 554.79,-15.5 544.79,-12 544.79,-19"/>
</g>
<!-- Node5 -->
<g id="node5" class="node">
<title>Node5</title>
<g id="a_node5"><a xlink:href="class_photon_1_1_realtime_1_1_load_balancing_peer.xhtml#a7ba1675f94fad7ace3f931c73179b117" target="_top" xlink:title="Used by OpJoinRoom and by OpCreateRoom alike.">
<polygon fill="white" stroke="black" points="746,-0.5 746,-30.5 919,-30.5 919,-0.5 746,-0.5"/>
<text text-anchor="start" x="754" y="-18.5" font-family="Helvetica,sans-Serif" font-size="10.00">Photon.Realtime.LoadBalancing</text>
<text text-anchor="middle" x="832.5" y="-7.5" font-family="Helvetica,sans-Serif" font-size="10.00">Peer.RoomOptionsToOpParameters</text>
</a>
</g>
</g>
<!-- Node4&#45;&gt;Node5 -->
<g id="edge4" class="edge">
<title>Node4&#45;&gt;Node5</title>
<path fill="none" stroke="midnightblue" d="M710.05,-15.5C718.5,-15.5 727.18,-15.5 735.82,-15.5"/>
<polygon fill="midnightblue" stroke="midnightblue" points="735.94,-19 745.94,-15.5 735.94,-12 735.94,-19"/>
</g>
</g>
</svg>
