<?xml version="1.0" encoding="UTF-8" standalone="no"?>
<!DOCTYPE svg PUBLIC "-//W3C//DTD SVG 1.1//EN"
 "http://www.w3.org/Graphics/SVG/1.1/DTD/svg11.dtd">
<!-- Generated by graphviz version 2.47.3 (20210619.1520)
 -->
<!-- Title: Photon.Pun.Demo.WebRpcImplementationExample.WebRpcCall Pages: 1 -->
<svg width="1351pt" height="149pt"
 viewBox="0.00 0.00 1351.00 148.50" xmlns="http://www.w3.org/2000/svg" xmlns:xlink="http://www.w3.org/1999/xlink">
<g id="graph0" class="graph" transform="scale(1 1) rotate(0) translate(4 144.5)">
<title>Photon.Pun.Demo.WebRpcImplementationExample.WebRpcCall</title>
<polygon fill="white" stroke="transparent" points="-4,4 -4,-144.5 1347,-144.5 1347,4 -4,4"/>
<!-- Node1 -->
<g id="node1" class="node">
<title>Node1</title>
<g id="a_node1"><a xlink:title=" ">
<polygon fill="#bfbfbf" stroke="black" points="0,-24.5 0,-54.5 203,-54.5 203,-24.5 0,-24.5"/>
<text text-anchor="start" x="8" y="-42.5" font-family="Helvetica,sans-Serif" font-size="10.00">Photon.Pun.Demo.WebRpcImplementation</text>
<text text-anchor="middle" x="101.5" y="-31.5" font-family="Helvetica,sans-Serif" font-size="10.00">Example.WebRpcCall</text>
</a>
</g>
</g>
<!-- Node2 -->
<g id="node2" class="node">
<title>Node2</title>
<g id="a_node2"><a xlink:href="class_photon_1_1_pun_1_1_photon_network.xhtml#aec48642992944ee0a7ea14bd4c51a8a1" target="_top" xlink:title="This operation makes Photon call your custom web&#45;service by name (path) with the given parameters.">
<polygon fill="white" stroke="black" points="239,-24.5 239,-54.5 379,-54.5 379,-24.5 239,-24.5"/>
<text text-anchor="start" x="247" y="-42.5" font-family="Helvetica,sans-Serif" font-size="10.00">Photon.Pun.PhotonNetwork.</text>
<text text-anchor="middle" x="309" y="-31.5" font-family="Helvetica,sans-Serif" font-size="10.00">WebRpc</text>
</a>
</g>
</g>
<!-- Node1&#45;&gt;Node2 -->
<g id="edge1" class="edge">
<title>Node1&#45;&gt;Node2</title>
<path fill="none" stroke="midnightblue" d="M203.14,-39.5C211.75,-39.5 220.37,-39.5 228.77,-39.5"/>
<polygon fill="midnightblue" stroke="midnightblue" points="228.89,-43 238.89,-39.5 228.89,-36 228.89,-43"/>
</g>
<!-- Node3 -->
<g id="node3" class="node">
<title>Node3</title>
<g id="a_node3"><a xlink:href="class_photon_1_1_realtime_1_1_load_balancing_client.xhtml#a60e3a0a39e040f625af0efc66a5022fa" target="_top" xlink:title="This operation makes Photon call your custom web&#45;service by path/name with the given parameters (conv...">
<polygon fill="white" stroke="black" points="415,-24.5 415,-54.5 570,-54.5 570,-24.5 415,-24.5"/>
<text text-anchor="start" x="423" y="-42.5" font-family="Helvetica,sans-Serif" font-size="10.00">Photon.Realtime.LoadBalancing</text>
<text text-anchor="middle" x="492.5" y="-31.5" font-family="Helvetica,sans-Serif" font-size="10.00">Client.OpWebRpc</text>
</a>
</g>
</g>
<!-- Node2&#45;&gt;Node3 -->
<g id="edge2" class="edge">
<title>Node2&#45;&gt;Node3</title>
<path fill="none" stroke="midnightblue" d="M379.14,-39.5C387.56,-39.5 396.25,-39.5 404.89,-39.5"/>
<polygon fill="midnightblue" stroke="midnightblue" points="404.98,-43 414.98,-39.5 404.98,-36 404.98,-43"/>
</g>
<!-- Node4 -->
<g id="node4" class="node">
<title>Node4</title>
<g id="a_node4"><a xlink:href="class_photon_1_1_realtime_1_1_load_balancing_client.xhtml#aa12ff3efc3aa91e5ceca9b3a40f7bd79" target="_top" xlink:title=" ">
<polygon fill="white" stroke="black" points="606,-47.5 606,-77.5 761,-77.5 761,-47.5 606,-47.5"/>
<text text-anchor="start" x="614" y="-65.5" font-family="Helvetica,sans-Serif" font-size="10.00">Photon.Realtime.LoadBalancing</text>
<text text-anchor="middle" x="683.5" y="-54.5" font-family="Helvetica,sans-Serif" font-size="10.00">Client.CheckIfOpCanBeSent</text>
</a>
</g>
</g>
<!-- Node3&#45;&gt;Node4 -->
<g id="edge3" class="edge">
<title>Node3&#45;&gt;Node4</title>
<path fill="none" stroke="midnightblue" d="M570.1,-48.82C578.56,-49.85 587.22,-50.9 595.79,-51.95"/>
<polygon fill="midnightblue" stroke="midnightblue" points="595.44,-55.43 605.79,-53.16 596.29,-48.48 595.44,-55.43"/>
</g>
<!-- Node7 -->
<g id="node7" class="node">
<title>Node7</title>
<g id="a_node7"><a xlink:href="class_photon_1_1_realtime_1_1_load_balancing_client.xhtml#a69dd43d4c7211b5b83cd54d0ebcf79e7" target="_top" xlink:title="Debug output of low level api (and this client).">
<polygon fill="white" stroke="black" points="801.5,-0.5 801.5,-30.5 956.5,-30.5 956.5,-0.5 801.5,-0.5"/>
<text text-anchor="start" x="809.5" y="-18.5" font-family="Helvetica,sans-Serif" font-size="10.00">Photon.Realtime.LoadBalancing</text>
<text text-anchor="middle" x="879" y="-7.5" font-family="Helvetica,sans-Serif" font-size="10.00">Client.DebugReturn</text>
</a>
</g>
</g>
<!-- Node3&#45;&gt;Node7 -->
<g id="edge9" class="edge">
<title>Node3&#45;&gt;Node7</title>
<path fill="none" stroke="midnightblue" d="M570.39,-34.7C634.17,-30.72 724.85,-25.06 791.22,-20.92"/>
<polygon fill="midnightblue" stroke="midnightblue" points="791.49,-24.41 801.25,-20.29 791.05,-17.42 791.49,-24.41"/>
</g>
<!-- Node5 -->
<g id="node5" class="node">
<title>Node5</title>
<g id="a_node5"><a xlink:href="class_photon_1_1_realtime_1_1_load_balancing_client.xhtml#ae052ab450db16efdd31985d56f76f0ab" target="_top" xlink:title=" ">
<polygon fill="white" stroke="black" points="797,-99 797,-140 961,-140 961,-99 797,-99"/>
<text text-anchor="start" x="805" y="-128" font-family="Helvetica,sans-Serif" font-size="10.00">Photon.Realtime.LoadBalancing</text>
<text text-anchor="start" x="805" y="-117" font-family="Helvetica,sans-Serif" font-size="10.00">Client.CheckIfClientIsReadyToCall</text>
<text text-anchor="middle" x="879" y="-106" font-family="Helvetica,sans-Serif" font-size="10.00">Operation</text>
</a>
</g>
</g>
<!-- Node4&#45;&gt;Node5 -->
<g id="edge4" class="edge">
<title>Node4&#45;&gt;Node5</title>
<path fill="none" stroke="midnightblue" d="M735.59,-77.55C754.92,-83.24 777.39,-89.86 798.7,-96.14"/>
<polygon fill="midnightblue" stroke="midnightblue" points="797.81,-99.53 808.39,-98.99 799.79,-92.81 797.81,-99.53"/>
</g>
<!-- Node6 -->
<g id="node6" class="node">
<title>Node6</title>
<g id="a_node6"><a xlink:href="class_photon_1_1_realtime_1_1_load_balancing_client.xhtml#aa01a53cac6918dab3ecb99669b276f01" target="_top" xlink:title=" ">
<polygon fill="white" stroke="black" points="797.5,-49.5 797.5,-79.5 960.5,-79.5 960.5,-49.5 797.5,-49.5"/>
<text text-anchor="start" x="805.5" y="-67.5" font-family="Helvetica,sans-Serif" font-size="10.00">Photon.Realtime.LoadBalancing</text>
<text text-anchor="middle" x="879" y="-56.5" font-family="Helvetica,sans-Serif" font-size="10.00">Client.CheckIfOpAllowedOnServer</text>
</a>
</g>
</g>
<!-- Node4&#45;&gt;Node6 -->
<g id="edge5" class="edge">
<title>Node4&#45;&gt;Node6</title>
<path fill="none" stroke="midnightblue" d="M761.25,-63.29C769.75,-63.38 778.46,-63.47 787.1,-63.56"/>
<polygon fill="midnightblue" stroke="midnightblue" points="787.17,-67.06 797.21,-63.66 787.25,-60.06 787.17,-67.06"/>
</g>
<!-- Node4&#45;&gt;Node7 -->
<g id="edge6" class="edge">
<title>Node4&#45;&gt;Node7</title>
<path fill="none" stroke="midnightblue" d="M746.26,-47.5C765.37,-42.86 786.59,-37.7 806.31,-32.91"/>
<polygon fill="midnightblue" stroke="midnightblue" points="807.28,-36.28 816.17,-30.52 805.62,-29.48 807.28,-36.28"/>
</g>
<!-- Node8 -->
<g id="node8" class="node">
<title>Node8</title>
<g id="a_node8"><a xlink:href="class_photon_1_1_realtime_1_1_load_balancing_peer.xhtml#a7f48b5f0c44ef0c67ef32f147ff87246" target="_top" xlink:title="Creates a Peer with specified connection protocol.">
<polygon fill="white" stroke="black" points="997,-0.5 997,-30.5 1152,-30.5 1152,-0.5 997,-0.5"/>
<text text-anchor="start" x="1005" y="-18.5" font-family="Helvetica,sans-Serif" font-size="10.00">Photon.Realtime.LoadBalancing</text>
<text text-anchor="middle" x="1074.5" y="-7.5" font-family="Helvetica,sans-Serif" font-size="10.00">Peer.LoadBalancingPeer</text>
</a>
</g>
</g>
<!-- Node7&#45;&gt;Node8 -->
<g id="edge7" class="edge">
<title>Node7&#45;&gt;Node8</title>
<path fill="none" stroke="midnightblue" d="M956.75,-15.5C966.54,-15.5 976.62,-15.5 986.55,-15.5"/>
<polygon fill="midnightblue" stroke="midnightblue" points="986.84,-19 996.84,-15.5 986.84,-12 986.84,-19"/>
</g>
<!-- Node9 -->
<g id="node9" class="node">
<title>Node9</title>
<g id="a_node9"><a xlink:href="class_photon_1_1_realtime_1_1_load_balancing_peer.xhtml#affaff7e1fdffe86b25156ffac5e738c9" target="_top" xlink:title=" ">
<polygon fill="white" stroke="black" points="1188,-0.5 1188,-30.5 1343,-30.5 1343,-0.5 1188,-0.5"/>
<text text-anchor="start" x="1196" y="-18.5" font-family="Helvetica,sans-Serif" font-size="10.00">Photon.Realtime.LoadBalancing</text>
<text text-anchor="middle" x="1265.5" y="-7.5" font-family="Helvetica,sans-Serif" font-size="10.00">Peer.ConfigUnitySockets</text>
</a>
</g>
</g>
<!-- Node8&#45;&gt;Node9 -->
<g id="edge8" class="edge">
<title>Node8&#45;&gt;Node9</title>
<path fill="none" stroke="midnightblue" d="M1152.1,-15.5C1160.56,-15.5 1169.22,-15.5 1177.79,-15.5"/>
<polygon fill="midnightblue" stroke="midnightblue" points="1177.79,-19 1187.79,-15.5 1177.79,-12 1177.79,-19"/>
</g>
</g>
</svg>
