<?xml version="1.0" encoding="UTF-8" standalone="no"?>
<!DOCTYPE svg PUBLIC "-//W3C//DTD SVG 1.1//EN"
 "http://www.w3.org/Graphics/SVG/1.1/DTD/svg11.dtd">
<!-- Generated by graphviz version 2.47.3 (20210619.1520)
 -->
<!-- Title: Photon.Pun.Demo.Asteroids.AsteroidsGameManager.CheckEndOfGame Pages: 1 -->
<svg width="459pt" height="100pt"
 viewBox="0.00 0.00 459.00 99.50" xmlns="http://www.w3.org/2000/svg" xmlns:xlink="http://www.w3.org/1999/xlink">
<g id="graph0" class="graph" transform="scale(1 1) rotate(0) translate(4 95.5)">
<title>Photon.Pun.Demo.Asteroids.AsteroidsGameManager.CheckEndOfGame</title>
<polygon fill="white" stroke="transparent" points="-4,4 -4,-95.5 455,-95.5 455,4 -4,4"/>
<!-- Node1 -->
<g id="node1" class="node">
<title>Node1</title>
<g id="a_node1"><a xlink:title=" ">
<polygon fill="#bfbfbf" stroke="black" points="245,-33 245,-63 451,-63 451,-33 245,-33"/>
<text text-anchor="start" x="253" y="-51" font-family="Helvetica,sans-Serif" font-size="10.00">Photon.Pun.Demo.Asteroids.</text>
<text text-anchor="middle" x="348" y="-40" font-family="Helvetica,sans-Serif" font-size="10.00">AsteroidsGameManager.CheckEndOfGame</text>
</a>
</g>
</g>
<!-- Node2 -->
<g id="node2" class="node">
<title>Node2</title>
<g id="a_node2"><a xlink:href="class_photon_1_1_pun_1_1_demo_1_1_asteroids_1_1_asteroids_game_manager.xhtml#a51c6422b2fd3516fe972799fc6809238" target="_top" xlink:title="Called when a remote player left the room or became inactive.">
<polygon fill="white" stroke="black" points="1.5,-61 1.5,-91 207.5,-91 207.5,-61 1.5,-61"/>
<text text-anchor="start" x="9.5" y="-79" font-family="Helvetica,sans-Serif" font-size="10.00">Photon.Pun.Demo.Asteroids.</text>
<text text-anchor="middle" x="104.5" y="-68" font-family="Helvetica,sans-Serif" font-size="10.00">AsteroidsGameManager.OnPlayerLeftRoom</text>
</a>
</g>
</g>
<!-- Node1&#45;&gt;Node2 -->
<g id="edge1" class="edge">
<title>Node1&#45;&gt;Node2</title>
<path fill="none" stroke="midnightblue" d="M234.75,-61.02C225.69,-62.07 216.57,-63.12 207.59,-64.16"/>
<polygon fill="midnightblue" stroke="midnightblue" points="235.4,-64.46 244.93,-59.83 234.6,-57.51 235.4,-64.46"/>
</g>
<!-- Node3 -->
<g id="node3" class="node">
<title>Node3</title>
<g id="a_node3"><a xlink:href="class_photon_1_1_pun_1_1_demo_1_1_asteroids_1_1_asteroids_game_manager.xhtml#a5b76c7dc1dc5a3aac652a3c887810ccb" target="_top" xlink:title="Called when custom player&#45;properties are changed.">
<polygon fill="white" stroke="black" points="0,-0.5 0,-41.5 209,-41.5 209,-0.5 0,-0.5"/>
<text text-anchor="start" x="8" y="-29.5" font-family="Helvetica,sans-Serif" font-size="10.00">Photon.Pun.Demo.Asteroids.</text>
<text text-anchor="start" x="8" y="-18.5" font-family="Helvetica,sans-Serif" font-size="10.00">AsteroidsGameManager.OnPlayerProperties</text>
<text text-anchor="middle" x="104.5" y="-7.5" font-family="Helvetica,sans-Serif" font-size="10.00">Update</text>
</a>
</g>
</g>
<!-- Node1&#45;&gt;Node3 -->
<g id="edge2" class="edge">
<title>Node1&#45;&gt;Node3</title>
<path fill="none" stroke="midnightblue" d="M234.89,-35.47C226.31,-34.51 217.66,-33.54 209.14,-32.59"/>
<polygon fill="midnightblue" stroke="midnightblue" points="234.61,-38.96 244.93,-36.59 235.38,-32 234.61,-38.96"/>
</g>
</g>
</svg>
