<?xml version="1.0" encoding="UTF-8" standalone="no"?>
<!DOCTYPE svg PUBLIC "-//W3C//DTD SVG 1.1//EN"
 "http://www.w3.org/Graphics/SVG/1.1/DTD/svg11.dtd">
<!-- Generated by graphviz version 2.47.3 (20210619.1520)
 -->
<!-- Title: Tayx.Graphy.Audio.G_AudioManager.UpdateParameters Pages: 1 -->
<svg width="755pt" height="246pt"
 viewBox="0.00 0.00 755.00 246.00" xmlns="http://www.w3.org/2000/svg" xmlns:xlink="http://www.w3.org/1999/xlink">
<g id="graph0" class="graph" transform="scale(1 1) rotate(0) translate(4 242)">
<title>Tayx.Graphy.Audio.G_AudioManager.UpdateParameters</title>
<polygon fill="white" stroke="transparent" points="-4,4 -4,-242 751,-242 751,4 -4,4"/>
<!-- Node1 -->
<g id="node1" class="node">
<title>Node1</title>
<g id="a_node1"><a xlink:title=" ">
<polygon fill="#bfbfbf" stroke="black" points="0,-73.5 0,-103.5 168,-103.5 168,-73.5 0,-73.5"/>
<text text-anchor="start" x="8" y="-91.5" font-family="Helvetica,sans-Serif" font-size="10.00">Tayx.Graphy.Audio.G</text>
<text text-anchor="middle" x="84" y="-80.5" font-family="Helvetica,sans-Serif" font-size="10.00">_AudioManager.UpdateParameters</text>
</a>
</g>
</g>
<!-- Node2 -->
<g id="node2" class="node">
<title>Node2</title>
<g id="a_node2"><a xlink:href="class_tayx_1_1_graphy_1_1_audio_1_1_g___audio_manager.xhtml#adc6cbaec95f86a1f896a089a03bf8ef9" target="_top" xlink:title="Set the module state.">
<polygon fill="white" stroke="black" points="223,-171.5 223,-201.5 348,-201.5 348,-171.5 223,-171.5"/>
<text text-anchor="start" x="231" y="-189.5" font-family="Helvetica,sans-Serif" font-size="10.00">Tayx.Graphy.Audio.G</text>
<text text-anchor="middle" x="285.5" y="-178.5" font-family="Helvetica,sans-Serif" font-size="10.00">_AudioManager.SetState</text>
</a>
</g>
</g>
<!-- Node1&#45;&gt;Node2 -->
<g id="edge1" class="edge">
<title>Node1&#45;&gt;Node2</title>
<path fill="none" stroke="midnightblue" d="M115.73,-103.6C150.3,-120.57 206.54,-148.2 244.5,-166.85"/>
<polygon fill="midnightblue" stroke="midnightblue" points="243.21,-170.12 253.73,-171.39 246.3,-163.83 243.21,-170.12"/>
</g>
<!-- Node4 -->
<g id="node4" class="node">
<title>Node4</title>
<g id="a_node4"><a xlink:href="class_tayx_1_1_graphy_1_1_audio_1_1_g___audio_graph.xhtml#a6522e25a1da553924df60f3405495d78" target="_top" xlink:title=" ">
<polygon fill="white" stroke="black" points="207,-98.5 207,-128.5 364,-128.5 364,-98.5 207,-98.5"/>
<text text-anchor="start" x="215" y="-116.5" font-family="Helvetica,sans-Serif" font-size="10.00">Tayx.Graphy.Audio.G</text>
<text text-anchor="middle" x="285.5" y="-105.5" font-family="Helvetica,sans-Serif" font-size="10.00">_AudioGraph.UpdateParameters</text>
</a>
</g>
</g>
<!-- Node1&#45;&gt;Node4 -->
<g id="edge3" class="edge">
<title>Node1&#45;&gt;Node4</title>
<path fill="none" stroke="midnightblue" d="M168.16,-98.92C177.58,-100.1 187.21,-101.31 196.69,-102.5"/>
<polygon fill="midnightblue" stroke="midnightblue" points="196.54,-106 206.9,-103.78 197.41,-99.06 196.54,-106"/>
</g>
<!-- Node11 -->
<g id="node11" class="node">
<title>Node11</title>
<g id="a_node11"><a xlink:href="class_tayx_1_1_graphy_1_1_audio_1_1_g___audio_monitor.xhtml#ab99d3ec55c039eb4c3cdfe46a094bccd" target="_top" xlink:title=" ">
<polygon fill="white" stroke="black" points="204,-49.5 204,-79.5 367,-79.5 367,-49.5 204,-49.5"/>
<text text-anchor="start" x="212" y="-67.5" font-family="Helvetica,sans-Serif" font-size="10.00">Tayx.Graphy.Audio.G</text>
<text text-anchor="middle" x="285.5" y="-56.5" font-family="Helvetica,sans-Serif" font-size="10.00">_AudioMonitor.UpdateParameters</text>
</a>
</g>
</g>
<!-- Node1&#45;&gt;Node11 -->
<g id="edge10" class="edge">
<title>Node1&#45;&gt;Node11</title>
<path fill="none" stroke="midnightblue" d="M168.16,-78.5C176.61,-77.48 185.23,-76.44 193.76,-75.42"/>
<polygon fill="midnightblue" stroke="midnightblue" points="194.2,-78.89 203.71,-74.22 193.37,-71.94 194.2,-78.89"/>
</g>
<!-- Node13 -->
<g id="node13" class="node">
<title>Node13</title>
<g id="a_node13"><a xlink:href="class_tayx_1_1_graphy_1_1_audio_1_1_g___audio_text.xhtml#a9c062e67d48e6ae37b36a157deda281e" target="_top" xlink:title=" ">
<polygon fill="white" stroke="black" points="211,-0.5 211,-30.5 360,-30.5 360,-0.5 211,-0.5"/>
<text text-anchor="start" x="219" y="-18.5" font-family="Helvetica,sans-Serif" font-size="10.00">Tayx.Graphy.Audio.G</text>
<text text-anchor="middle" x="285.5" y="-7.5" font-family="Helvetica,sans-Serif" font-size="10.00">_AudioText.UpdateParameters</text>
</a>
</g>
</g>
<!-- Node1&#45;&gt;Node13 -->
<g id="edge12" class="edge">
<title>Node1&#45;&gt;Node13</title>
<path fill="none" stroke="midnightblue" d="M119.02,-73.42C142.62,-63.22 174.93,-49.79 204,-39.5 209.55,-37.54 215.35,-35.6 221.18,-33.72"/>
<polygon fill="midnightblue" stroke="midnightblue" points="222.51,-36.97 230.99,-30.63 220.41,-30.29 222.51,-36.97"/>
</g>
<!-- Node3 -->
<g id="node3" class="node">
<title>Node3</title>
<g id="a_node3"><a xlink:href="class_tayx_1_1_graphy_1_1_audio_1_1_g___audio_manager.xhtml#a67d33c59a742691d9a9c3c6843bbc131" target="_top" xlink:title=" ">
<polygon fill="white" stroke="black" points="405.5,-183.5 405.5,-213.5 560.5,-213.5 560.5,-183.5 405.5,-183.5"/>
<text text-anchor="start" x="413.5" y="-201.5" font-family="Helvetica,sans-Serif" font-size="10.00">Tayx.Graphy.Audio.G</text>
<text text-anchor="middle" x="483" y="-190.5" font-family="Helvetica,sans-Serif" font-size="10.00">_AudioManager.SetGraphActive</text>
</a>
</g>
</g>
<!-- Node2&#45;&gt;Node3 -->
<g id="edge2" class="edge">
<title>Node2&#45;&gt;Node3</title>
<path fill="none" stroke="midnightblue" d="M348.09,-190.28C362.96,-191.19 379.14,-192.19 394.93,-193.16"/>
<polygon fill="midnightblue" stroke="midnightblue" points="395.05,-196.67 405.24,-193.79 395.48,-189.68 395.05,-196.67"/>
</g>
<!-- Node5 -->
<g id="node5" class="node">
<title>Node5</title>
<g id="a_node5"><a xlink:href="class_tayx_1_1_graphy_1_1_audio_1_1_g___audio_graph.xhtml#a8402c6f4decc0ed051e2a3afd42c4cc8" target="_top" xlink:title="Creates the points for the graph/s.">
<polygon fill="white" stroke="black" points="417,-134.5 417,-164.5 549,-164.5 549,-134.5 417,-134.5"/>
<text text-anchor="start" x="425" y="-152.5" font-family="Helvetica,sans-Serif" font-size="10.00">Tayx.Graphy.Audio.G</text>
<text text-anchor="middle" x="483" y="-141.5" font-family="Helvetica,sans-Serif" font-size="10.00">_AudioGraph.CreatePoints</text>
</a>
</g>
</g>
<!-- Node4&#45;&gt;Node5 -->
<g id="edge4" class="edge">
<title>Node4&#45;&gt;Node5</title>
<path fill="none" stroke="midnightblue" d="M364.05,-127.78C378.12,-130.37 392.77,-133.07 406.77,-135.65"/>
<polygon fill="midnightblue" stroke="midnightblue" points="406.36,-139.13 416.83,-137.5 407.63,-132.25 406.36,-139.13"/>
</g>
<!-- Node10 -->
<g id="node10" class="node">
<title>Node10</title>
<g id="a_node10"><a xlink:href="class_tayx_1_1_graphy_1_1_g___graph_shader.xhtml#a531ef44ced25f9686183cc7c46ca3920" target="_top" xlink:title="This is done to avoid a design problem that arrays in shaders have, and should be called before initi...">
<polygon fill="white" stroke="black" points="409,-85.5 409,-115.5 557,-115.5 557,-85.5 409,-85.5"/>
<text text-anchor="start" x="417" y="-103.5" font-family="Helvetica,sans-Serif" font-size="10.00">Tayx.Graphy.G_GraphShader.</text>
<text text-anchor="middle" x="483" y="-92.5" font-family="Helvetica,sans-Serif" font-size="10.00">InitializeShader</text>
</a>
</g>
</g>
<!-- Node4&#45;&gt;Node10 -->
<g id="edge9" class="edge">
<title>Node4&#45;&gt;Node10</title>
<path fill="none" stroke="midnightblue" d="M364.05,-108.34C375.43,-107.59 387.19,-106.8 398.68,-106.04"/>
<polygon fill="midnightblue" stroke="midnightblue" points="398.94,-109.53 408.68,-105.38 398.47,-102.55 398.94,-109.53"/>
</g>
<!-- Node6 -->
<g id="node6" class="node">
<title>Node6</title>
<g id="a_node6"><a xlink:href="class_tayx_1_1_graphy_1_1_g___graph_shader.xhtml#ac039f519ec84d521e44bf8f9b90ff7e8" target="_top" xlink:title="Updates the material linked with this shader graph with the values in the float[] array.">
<polygon fill="white" stroke="black" points="599,-207.5 599,-237.5 747,-237.5 747,-207.5 599,-207.5"/>
<text text-anchor="start" x="607" y="-225.5" font-family="Helvetica,sans-Serif" font-size="10.00">Tayx.Graphy.G_GraphShader.</text>
<text text-anchor="middle" x="673" y="-214.5" font-family="Helvetica,sans-Serif" font-size="10.00">UpdateArray</text>
</a>
</g>
</g>
<!-- Node5&#45;&gt;Node6 -->
<g id="edge5" class="edge">
<title>Node5&#45;&gt;Node6</title>
<path fill="none" stroke="midnightblue" d="M538.75,-164.61C547.03,-167.52 555.35,-170.83 563,-174.5 580.34,-182.82 581.71,-190.09 599,-198.5 602.78,-200.34 606.73,-202.09 610.76,-203.74"/>
<polygon fill="midnightblue" stroke="midnightblue" points="609.66,-207.07 620.25,-207.43 612.2,-200.55 609.66,-207.07"/>
</g>
<!-- Node7 -->
<g id="node7" class="node">
<title>Node7</title>
<g id="a_node7"><a xlink:href="class_tayx_1_1_graphy_1_1_g___graph_shader.xhtml#a67831882b060d17c9d7a754546ef2e6b" target="_top" xlink:title="Updates the average parameter in the material.">
<polygon fill="white" stroke="black" points="599,-158.5 599,-188.5 747,-188.5 747,-158.5 599,-158.5"/>
<text text-anchor="start" x="607" y="-176.5" font-family="Helvetica,sans-Serif" font-size="10.00">Tayx.Graphy.G_GraphShader.</text>
<text text-anchor="middle" x="673" y="-165.5" font-family="Helvetica,sans-Serif" font-size="10.00">UpdateAverage</text>
</a>
</g>
</g>
<!-- Node5&#45;&gt;Node7 -->
<g id="edge6" class="edge">
<title>Node5&#45;&gt;Node7</title>
<path fill="none" stroke="midnightblue" d="M549.23,-157.83C561.99,-159.46 575.53,-161.18 588.79,-162.88"/>
<polygon fill="midnightblue" stroke="midnightblue" points="588.48,-166.37 598.85,-164.16 589.37,-159.42 588.48,-166.37"/>
</g>
<!-- Node8 -->
<g id="node8" class="node">
<title>Node8</title>
<g id="a_node8"><a xlink:href="class_tayx_1_1_graphy_1_1_g___graph_shader.xhtml#ac4ec72181f804fc7e8516292bd3a5995" target="_top" xlink:title="Updates the colors in the material.">
<polygon fill="white" stroke="black" points="599,-109.5 599,-139.5 747,-139.5 747,-109.5 599,-109.5"/>
<text text-anchor="start" x="607" y="-127.5" font-family="Helvetica,sans-Serif" font-size="10.00">Tayx.Graphy.G_GraphShader.</text>
<text text-anchor="middle" x="673" y="-116.5" font-family="Helvetica,sans-Serif" font-size="10.00">UpdateColors</text>
</a>
</g>
</g>
<!-- Node5&#45;&gt;Node8 -->
<g id="edge7" class="edge">
<title>Node5&#45;&gt;Node8</title>
<path fill="none" stroke="midnightblue" d="M549.23,-140.83C561.99,-139.13 575.53,-137.33 588.79,-135.57"/>
<polygon fill="midnightblue" stroke="midnightblue" points="589.4,-139.02 598.85,-134.23 588.47,-132.08 589.4,-139.02"/>
</g>
<!-- Node9 -->
<g id="node9" class="node">
<title>Node9</title>
<g id="a_node9"><a xlink:href="class_tayx_1_1_graphy_1_1_g___graph_shader.xhtml#af57c3227f9ad5e7a55f17532749cbf18" target="_top" xlink:title="Updates the thresholds in the material.">
<polygon fill="white" stroke="black" points="599,-60.5 599,-90.5 747,-90.5 747,-60.5 599,-60.5"/>
<text text-anchor="start" x="607" y="-78.5" font-family="Helvetica,sans-Serif" font-size="10.00">Tayx.Graphy.G_GraphShader.</text>
<text text-anchor="middle" x="673" y="-67.5" font-family="Helvetica,sans-Serif" font-size="10.00">UpdateThresholds</text>
</a>
</g>
</g>
<!-- Node5&#45;&gt;Node9 -->
<g id="edge8" class="edge">
<title>Node5&#45;&gt;Node9</title>
<path fill="none" stroke="midnightblue" d="M541.35,-134.41C548.77,-131.78 556.16,-128.81 563,-125.5 580.53,-117.01 581.62,-109.3 599,-100.5 603.26,-98.35 607.74,-96.31 612.31,-94.39"/>
<polygon fill="midnightblue" stroke="midnightblue" points="613.76,-97.58 621.76,-90.64 611.18,-91.08 613.76,-97.58"/>
</g>
<!-- Node12 -->
<g id="node12" class="node">
<title>Node12</title>
<g id="a_node12"><a xlink:href="class_tayx_1_1_graphy_1_1_audio_1_1_g___audio_monitor.xhtml#a3ecfbab2cd037e4c289d57969854292f" target="_top" xlink:title="Tries to find an audio listener in the main camera.">
<polygon fill="white" stroke="black" points="403,-36.5 403,-66.5 563,-66.5 563,-36.5 403,-36.5"/>
<text text-anchor="start" x="411" y="-54.5" font-family="Helvetica,sans-Serif" font-size="10.00">Tayx.Graphy.Audio.G</text>
<text text-anchor="middle" x="483" y="-43.5" font-family="Helvetica,sans-Serif" font-size="10.00">_AudioMonitor.FindAudioListener</text>
</a>
</g>
</g>
<!-- Node11&#45;&gt;Node12 -->
<g id="edge11" class="edge">
<title>Node11&#45;&gt;Node12</title>
<path fill="none" stroke="midnightblue" d="M367.15,-59.14C375.61,-58.57 384.26,-58 392.81,-57.43"/>
<polygon fill="midnightblue" stroke="midnightblue" points="393.05,-60.92 402.8,-56.77 392.59,-53.94 393.05,-60.92"/>
</g>
</g>
</svg>
