<?xml version="1.0" encoding="UTF-8" standalone="no"?>
<!DOCTYPE svg PUBLIC "-//W3C//DTD SVG 1.1//EN"
 "http://www.w3.org/Graphics/SVG/1.1/DTD/svg11.dtd">
<!-- Generated by graphviz version 2.47.3 (20210619.1520)
 -->
<!-- Title: UnityStandardAssets.Characters.ThirdPerson.PunDemos.ThirdPersonCharacter.Move Pages: 1 -->
<svg width="505pt" height="410pt"
 viewBox="0.00 0.00 505.00 410.00" xmlns="http://www.w3.org/2000/svg" xmlns:xlink="http://www.w3.org/1999/xlink">
<g id="graph0" class="graph" transform="scale(1 1) rotate(0) translate(4 406)">
<title>UnityStandardAssets.Characters.ThirdPerson.PunDemos.ThirdPersonCharacter.Move</title>
<polygon fill="white" stroke="transparent" points="-4,4 -4,-406 501,-406 501,4 -4,4"/>
<!-- Node1 -->
<g id="node1" class="node">
<title>Node1</title>
<g id="a_node1"><a xlink:title=" ">
<polygon fill="#bfbfbf" stroke="black" points="0,-186 0,-216 242,-216 242,-186 0,-186"/>
<text text-anchor="start" x="8" y="-204" font-family="Helvetica,sans-Serif" font-size="10.00">UnityStandardAssets.Characters.</text>
<text text-anchor="middle" x="121" y="-193" font-family="Helvetica,sans-Serif" font-size="10.00">ThirdPerson.PunDemos.ThirdPersonCharacter.Move</text>
</a>
</g>
</g>
<!-- Node2 -->
<g id="node2" class="node">
<title>Node2</title>
<g id="a_node2"><a xlink:href="class_unity_standard_assets_1_1_characters_1_1_third_person_1_1_pun_demos_1_1_third_person_character.xhtml#ac35c03b2db0b899dc9faef179252c77b" target="_top" xlink:title=" ">
<polygon fill="white" stroke="black" points="278,-360.5 278,-401.5 497,-401.5 497,-360.5 278,-360.5"/>
<text text-anchor="start" x="286" y="-389.5" font-family="Helvetica,sans-Serif" font-size="10.00">UnityStandardAssets.Characters.</text>
<text text-anchor="start" x="286" y="-378.5" font-family="Helvetica,sans-Serif" font-size="10.00">ThirdPerson.PunDemos.ThirdPersonCharacter.</text>
<text text-anchor="middle" x="387.5" y="-367.5" font-family="Helvetica,sans-Serif" font-size="10.00">ApplyExtraTurnRotation</text>
</a>
</g>
</g>
<!-- Node1&#45;&gt;Node2 -->
<g id="edge1" class="edge">
<title>Node1&#45;&gt;Node2</title>
<path fill="none" stroke="midnightblue" d="M133.51,-216.31C157.15,-246.69 214.34,-314.74 278,-351 281.29,-352.88 284.71,-354.64 288.21,-356.3"/>
<polygon fill="midnightblue" stroke="midnightblue" points="287.1,-359.63 297.66,-360.44 289.91,-353.22 287.1,-359.63"/>
</g>
<!-- Node3 -->
<g id="node3" class="node">
<title>Node3</title>
<g id="a_node3"><a xlink:href="class_unity_standard_assets_1_1_characters_1_1_third_person_1_1_pun_demos_1_1_third_person_character.xhtml#a6acfb90a9bb52d7df84e24e04e0adaf0" target="_top" xlink:title=" ">
<polygon fill="white" stroke="black" points="278,-300.5 278,-341.5 497,-341.5 497,-300.5 278,-300.5"/>
<text text-anchor="start" x="286" y="-329.5" font-family="Helvetica,sans-Serif" font-size="10.00">UnityStandardAssets.Characters.</text>
<text text-anchor="start" x="286" y="-318.5" font-family="Helvetica,sans-Serif" font-size="10.00">ThirdPerson.PunDemos.ThirdPersonCharacter.</text>
<text text-anchor="middle" x="387.5" y="-307.5" font-family="Helvetica,sans-Serif" font-size="10.00">CheckGroundStatus</text>
</a>
</g>
</g>
<!-- Node1&#45;&gt;Node3 -->
<g id="edge2" class="edge">
<title>Node1&#45;&gt;Node3</title>
<path fill="none" stroke="midnightblue" d="M144.06,-216.15C173.47,-235.77 227.67,-269.93 278,-291 283.13,-293.15 288.45,-295.19 293.87,-297.12"/>
<polygon fill="midnightblue" stroke="midnightblue" points="293.11,-300.55 303.7,-300.47 295.37,-293.93 293.11,-300.55"/>
</g>
<!-- Node4 -->
<g id="node4" class="node">
<title>Node4</title>
<g id="a_node4"><a xlink:href="class_unity_standard_assets_1_1_characters_1_1_third_person_1_1_pun_demos_1_1_third_person_character.xhtml#adfa21b3198ab19663f591761cc915222" target="_top" xlink:title=" ">
<polygon fill="white" stroke="black" points="278,-240.5 278,-281.5 497,-281.5 497,-240.5 278,-240.5"/>
<text text-anchor="start" x="286" y="-269.5" font-family="Helvetica,sans-Serif" font-size="10.00">UnityStandardAssets.Characters.</text>
<text text-anchor="start" x="286" y="-258.5" font-family="Helvetica,sans-Serif" font-size="10.00">ThirdPerson.PunDemos.ThirdPersonCharacter.</text>
<text text-anchor="middle" x="387.5" y="-247.5" font-family="Helvetica,sans-Serif" font-size="10.00">HandleAirborneMovement</text>
</a>
</g>
</g>
<!-- Node1&#45;&gt;Node4 -->
<g id="edge3" class="edge">
<title>Node1&#45;&gt;Node4</title>
<path fill="none" stroke="midnightblue" d="M188.4,-216.06C217.94,-222.76 253.37,-230.8 286.04,-238.21"/>
<polygon fill="midnightblue" stroke="midnightblue" points="285.55,-241.69 296.08,-240.49 287.1,-234.86 285.55,-241.69"/>
</g>
<!-- Node5 -->
<g id="node5" class="node">
<title>Node5</title>
<g id="a_node5"><a xlink:href="class_unity_standard_assets_1_1_characters_1_1_third_person_1_1_pun_demos_1_1_third_person_character.xhtml#a07c3f64de3dba400c6e0c667267bd096" target="_top" xlink:title=" ">
<polygon fill="white" stroke="black" points="278,-180.5 278,-221.5 497,-221.5 497,-180.5 278,-180.5"/>
<text text-anchor="start" x="286" y="-209.5" font-family="Helvetica,sans-Serif" font-size="10.00">UnityStandardAssets.Characters.</text>
<text text-anchor="start" x="286" y="-198.5" font-family="Helvetica,sans-Serif" font-size="10.00">ThirdPerson.PunDemos.ThirdPersonCharacter.</text>
<text text-anchor="middle" x="387.5" y="-187.5" font-family="Helvetica,sans-Serif" font-size="10.00">HandleGroundedMovement</text>
</a>
</g>
</g>
<!-- Node1&#45;&gt;Node5 -->
<g id="edge4" class="edge">
<title>Node1&#45;&gt;Node5</title>
<path fill="none" stroke="midnightblue" d="M242.25,-201C250.69,-201 259.2,-201 267.63,-201"/>
<polygon fill="midnightblue" stroke="midnightblue" points="267.87,-204.5 277.87,-201 267.87,-197.5 267.87,-204.5"/>
</g>
<!-- Node6 -->
<g id="node6" class="node">
<title>Node6</title>
<g id="a_node6"><a xlink:href="class_unity_standard_assets_1_1_characters_1_1_third_person_1_1_pun_demos_1_1_third_person_character.xhtml#a42c93c25adf1873b4dd797b12b56e9f2" target="_top" xlink:title=" ">
<polygon fill="white" stroke="black" points="278,-120.5 278,-161.5 497,-161.5 497,-120.5 278,-120.5"/>
<text text-anchor="start" x="286" y="-149.5" font-family="Helvetica,sans-Serif" font-size="10.00">UnityStandardAssets.Characters.</text>
<text text-anchor="start" x="286" y="-138.5" font-family="Helvetica,sans-Serif" font-size="10.00">ThirdPerson.PunDemos.ThirdPersonCharacter.</text>
<text text-anchor="middle" x="387.5" y="-127.5" font-family="Helvetica,sans-Serif" font-size="10.00">PreventStandingInLowHeadroom</text>
</a>
</g>
</g>
<!-- Node1&#45;&gt;Node6 -->
<g id="edge5" class="edge">
<title>Node1&#45;&gt;Node6</title>
<path fill="none" stroke="midnightblue" d="M188.4,-185.94C217.94,-179.24 253.37,-171.2 286.04,-163.79"/>
<polygon fill="midnightblue" stroke="midnightblue" points="287.1,-167.14 296.08,-161.51 285.55,-160.31 287.1,-167.14"/>
</g>
<!-- Node7 -->
<g id="node7" class="node">
<title>Node7</title>
<g id="a_node7"><a xlink:href="class_unity_standard_assets_1_1_characters_1_1_third_person_1_1_pun_demos_1_1_third_person_character.xhtml#ade773a7c9461b1dfc384c58cf02dfa07" target="_top" xlink:title=" ">
<polygon fill="white" stroke="black" points="278,-60.5 278,-101.5 497,-101.5 497,-60.5 278,-60.5"/>
<text text-anchor="start" x="286" y="-89.5" font-family="Helvetica,sans-Serif" font-size="10.00">UnityStandardAssets.Characters.</text>
<text text-anchor="start" x="286" y="-78.5" font-family="Helvetica,sans-Serif" font-size="10.00">ThirdPerson.PunDemos.ThirdPersonCharacter.</text>
<text text-anchor="middle" x="387.5" y="-67.5" font-family="Helvetica,sans-Serif" font-size="10.00">ScaleCapsuleForCrouching</text>
</a>
</g>
</g>
<!-- Node1&#45;&gt;Node7 -->
<g id="edge6" class="edge">
<title>Node1&#45;&gt;Node7</title>
<path fill="none" stroke="midnightblue" d="M144.06,-185.85C173.47,-166.23 227.67,-132.07 278,-111 283.13,-108.85 288.45,-106.81 293.87,-104.88"/>
<polygon fill="midnightblue" stroke="midnightblue" points="295.37,-108.07 303.7,-101.53 293.11,-101.45 295.37,-108.07"/>
</g>
<!-- Node8 -->
<g id="node8" class="node">
<title>Node8</title>
<g id="a_node8"><a xlink:href="class_unity_standard_assets_1_1_characters_1_1_third_person_1_1_pun_demos_1_1_third_person_character.xhtml#a194a72942fe4dbeb5fb6c41c9e62d500" target="_top" xlink:title=" ">
<polygon fill="white" stroke="black" points="278,-0.5 278,-41.5 497,-41.5 497,-0.5 278,-0.5"/>
<text text-anchor="start" x="286" y="-29.5" font-family="Helvetica,sans-Serif" font-size="10.00">UnityStandardAssets.Characters.</text>
<text text-anchor="start" x="286" y="-18.5" font-family="Helvetica,sans-Serif" font-size="10.00">ThirdPerson.PunDemos.ThirdPersonCharacter.</text>
<text text-anchor="middle" x="387.5" y="-7.5" font-family="Helvetica,sans-Serif" font-size="10.00">UpdateAnimator</text>
</a>
</g>
</g>
<!-- Node1&#45;&gt;Node8 -->
<g id="edge7" class="edge">
<title>Node1&#45;&gt;Node8</title>
<path fill="none" stroke="midnightblue" d="M133.51,-185.69C157.15,-155.31 214.34,-87.26 278,-51 281.29,-49.12 284.71,-47.36 288.21,-45.7"/>
<polygon fill="midnightblue" stroke="midnightblue" points="289.91,-48.78 297.66,-41.56 287.1,-42.37 289.91,-48.78"/>
</g>
</g>
</svg>
