<?xml version="1.0" encoding="UTF-8" standalone="no"?>
<!DOCTYPE svg PUBLIC "-//W3C//DTD SVG 1.1//EN"
 "http://www.w3.org/Graphics/SVG/1.1/DTD/svg11.dtd">
<!-- Generated by graphviz version 2.47.3 (20210619.1520)
 -->
<!-- Title: Ability_Lis4.DestroyWithDelay Pages: 1 -->
<svg width="308pt" height="39pt"
 viewBox="0.00 0.00 308.00 39.00" xmlns="http://www.w3.org/2000/svg" xmlns:xlink="http://www.w3.org/1999/xlink">
<g id="graph0" class="graph" transform="scale(1 1) rotate(0) translate(4 35)">
<title>Ability_Lis4.DestroyWithDelay</title>
<polygon fill="white" stroke="transparent" points="-4,4 -4,-35 304,-35 304,4 -4,4"/>
<!-- Node1 -->
<g id="node1" class="node">
<title>Node1</title>
<g id="a_node1"><a xlink:title=" ">
<polygon fill="#bfbfbf" stroke="black" points="0,-0.5 0,-30.5 124,-30.5 124,-0.5 0,-0.5"/>
<text text-anchor="start" x="8" y="-18.5" font-family="Helvetica,sans-Serif" font-size="10.00">Ability_Lis4.DestroyWith</text>
<text text-anchor="middle" x="62" y="-7.5" font-family="Helvetica,sans-Serif" font-size="10.00">Delay</text>
</a>
</g>
</g>
<!-- Node2 -->
<g id="node2" class="node">
<title>Node2</title>
<g id="a_node2"><a xlink:href="class_photon_1_1_pun_1_1_photon_network.xhtml#ada7d7b9bdb306863c66b260dde7c544e" target="_top" xlink:title="Network&#45;Destroy the GameObject associated with the PhotonView, unless the PhotonView is static or not...">
<polygon fill="white" stroke="black" points="160,-0.5 160,-30.5 300,-30.5 300,-0.5 160,-0.5"/>
<text text-anchor="start" x="168" y="-18.5" font-family="Helvetica,sans-Serif" font-size="10.00">Photon.Pun.PhotonNetwork.</text>
<text text-anchor="middle" x="230" y="-7.5" font-family="Helvetica,sans-Serif" font-size="10.00">Destroy</text>
</a>
</g>
</g>
<!-- Node1&#45;&gt;Node2 -->
<g id="edge1" class="edge">
<title>Node1&#45;&gt;Node2</title>
<path fill="none" stroke="midnightblue" d="M124.34,-15.5C132.55,-15.5 141.06,-15.5 149.52,-15.5"/>
<polygon fill="midnightblue" stroke="midnightblue" points="149.8,-19 159.8,-15.5 149.8,-12 149.8,-19"/>
</g>
</g>
</svg>
