<?xml version="1.0" encoding="UTF-8" standalone="no"?>
<!DOCTYPE svg PUBLIC "-//W3C//DTD SVG 1.1//EN"
 "http://www.w3.org/Graphics/SVG/1.1/DTD/svg11.dtd">
<!-- Generated by graphviz version 2.47.3 (20210619.1520)
 -->
<!-- Title: Photon.Realtime.LoadBalancingClient.ConnectToNameServer Pages: 1 -->
<!--zoomable 247 -->
<svg id="main" version="1.1" xmlns="http://www.w3.org/2000/svg" xmlns:xlink="http://www.w3.org/1999/xlink" xml:space="preserve" onload="init(evt)">
<style type="text/css"><![CDATA[
.edge:hover path { stroke: red; }
.edge:hover polygon { stroke: red; fill: red; }
]]></style>
<script type="text/javascript"><![CDATA[
var edges = document.getElementsByTagName('g');
if (edges && edges.length) {
  for (var i=0;i<edges.length;i++) {
    if (edges[i].id.substr(0,4)=='edge') {
      edges[i].setAttribute('class','edge');
    }
  }
}
]]></script>
        <defs>
                <circle id="rim" cx="0" cy="0" r="7"/>
                <circle id="rim2" cx="0" cy="0" r="3.5"/>
                <g id="zoomPlus">
                        <use xlink:href="#rim" fill="#404040">
                                <set attributeName="fill" to="#808080" begin="zoomplus.mouseover" end="zoomplus.mouseout"/>
                        </use>
                        <path d="M-4,0h8M0,-4v8" fill="none" stroke="white" stroke-width="1.5" pointer-events="none"/>
                </g>
                <g id="zoomMin">
                        <use xlink:href="#rim" fill="#404040">
                                <set attributeName="fill" to="#808080" begin="zoomminus.mouseover" end="zoomminus.mouseout"/>
                        </use>
                        <path d="M-4,0h8" fill="none" stroke="white" stroke-width="1.5" pointer-events="none"/>
                </g>
                <g id="dirArrow">
                        <path fill="none" stroke="white" stroke-width="1.5" d="M0,-3.0v7 M-2.5,-0.5L0,-3.0L2.5,-0.5"/>
                </g>
               <g id="resetDef">
                       <use xlink:href="#rim2" fill="#404040">
                               <set attributeName="fill" to="#808080" begin="reset.mouseover" end="reset.mouseout"/>
                       </use>
               </g>
        </defs>

<script type="text/javascript">
var viewWidth = 1098;
var viewHeight = 247;
var sectionId = 'dynsection-24';
</script>
<script xlink:href="svgpan.js"/>
<svg id="graph" class="graph">
<g id="viewport">
<title>Photon.Realtime.LoadBalancingClient.ConnectToNameServer</title>
<polygon fill="white" stroke="transparent" points="-4,4 -4,-242.5 1094,-242.5 1094,4 -4,4"/>
<!-- Node1 -->
<g id="node1" class="node">
<title>Node1</title>
<g id="a_node1"><a xlink:title="Connects to the NameServer for Photon Cloud, where a region and server list can be obtained.">
<polygon fill="#bfbfbf" stroke="black" points="935,-98.5 935,-128.5 1090,-128.5 1090,-98.5 935,-98.5"/>
<text text-anchor="start" x="943" y="-116.5" font-family="Helvetica,sans-Serif" font-size="10.00">Photon.Realtime.LoadBalancing</text>
<text text-anchor="middle" x="1012.5" y="-105.5" font-family="Helvetica,sans-Serif" font-size="10.00">Client.ConnectToNameServer</text>
</a>
</g>
</g>
<!-- Node2 -->
<g id="node2" class="node">
<title>Node2</title>
<g id="a_node2"><a xlink:href="class_photon_1_1_pun_1_1_photon_network.xhtml#ad3c8b7c177d986ceea13dbfb858a4a79" target="_top" xlink:title="Connect to the Photon Cloud region with the lowest ping (on platforms that support Unity&#39;s Ping).">
<polygon fill="white" stroke="black" points="751.5,-147.5 751.5,-177.5 891.5,-177.5 891.5,-147.5 751.5,-147.5"/>
<text text-anchor="start" x="759.5" y="-165.5" font-family="Helvetica,sans-Serif" font-size="10.00">Photon.Pun.PhotonNetwork.</text>
<text text-anchor="middle" x="821.5" y="-154.5" font-family="Helvetica,sans-Serif" font-size="10.00">ConnectToBestCloudServer</text>
</a>
</g>
</g>
<!-- Node1&#45;&gt;Node2 -->
<g id="edge1" class="edge">
<title>Node1&#45;&gt;Node2</title>
<path fill="none" stroke="midnightblue" d="M943.81,-131.05C923.05,-136.43 900.42,-142.3 880.38,-147.49"/>
<polygon fill="midnightblue" stroke="midnightblue" points="944.71,-134.43 953.51,-128.53 942.95,-127.66 944.71,-134.43"/>
</g>
<!-- Node5 -->
<g id="node5" class="node">
<title>Node5</title>
<g id="a_node5"><a xlink:href="class_photon_1_1_realtime_1_1_load_balancing_client.xhtml#affac531c1eb7a4d77326135150f19b7e" target="_top" xlink:title="Uses the connection&#39;s statusCodes to advance the internal state and call operations as needed.">
<polygon fill="white" stroke="black" points="744,-98.5 744,-128.5 899,-128.5 899,-98.5 744,-98.5"/>
<text text-anchor="start" x="752" y="-116.5" font-family="Helvetica,sans-Serif" font-size="10.00">Photon.Realtime.LoadBalancing</text>
<text text-anchor="middle" x="821.5" y="-105.5" font-family="Helvetica,sans-Serif" font-size="10.00">Client.OnStatusChanged</text>
</a>
</g>
</g>
<!-- Node1&#45;&gt;Node5 -->
<g id="edge4" class="edge">
<title>Node1&#45;&gt;Node5</title>
<path fill="none" stroke="midnightblue" d="M924.9,-113.5C916.33,-113.5 907.67,-113.5 899.21,-113.5"/>
<polygon fill="midnightblue" stroke="midnightblue" points="924.9,-117 934.9,-113.5 924.9,-110 924.9,-117"/>
</g>
<!-- Node14 -->
<g id="node14" class="node">
<title>Node14</title>
<g id="a_node14"><a xlink:href="class_photon_1_1_pun_1_1_demo_1_1_cockpit_1_1_pun_cockpit.xhtml#a68f4e2a8a556a5d754f19a9bcf482cc2" target="_top" xlink:title="in progress, not fully working">
<polygon fill="white" stroke="black" points="754,-49.5 754,-79.5 889,-79.5 889,-49.5 754,-49.5"/>
<text text-anchor="start" x="762" y="-67.5" font-family="Helvetica,sans-Serif" font-size="10.00">Photon.Pun.Demo.Cockpit.</text>
<text text-anchor="middle" x="821.5" y="-56.5" font-family="Helvetica,sans-Serif" font-size="10.00">PunCockpit.PingRegions</text>
</a>
</g>
</g>
<!-- Node1&#45;&gt;Node14 -->
<g id="edge13" class="edge">
<title>Node1&#45;&gt;Node14</title>
<path fill="none" stroke="midnightblue" d="M943.81,-95.95C923.05,-90.57 900.42,-84.7 880.38,-79.51"/>
<polygon fill="midnightblue" stroke="midnightblue" points="942.95,-99.34 953.51,-98.47 944.71,-92.57 942.95,-99.34"/>
</g>
<!-- Node3 -->
<g id="node3" class="node">
<title>Node3</title>
<g id="a_node3"><a xlink:href="class_photon_1_1_pun_1_1_demo_1_1_cockpit_1_1_pun_cockpit.xhtml#aa1e25a33ff6d9e679ebb0f1738c5f7fd" target="_top" xlink:title=" ">
<polygon fill="white" stroke="black" points="547,-197 547,-238 708,-238 708,-197 547,-197"/>
<text text-anchor="start" x="555" y="-226" font-family="Helvetica,sans-Serif" font-size="10.00">Photon.Pun.Demo.Cockpit.</text>
<text text-anchor="start" x="555" y="-215" font-family="Helvetica,sans-Serif" font-size="10.00">PunCockpit.ConnectToBestCloud</text>
<text text-anchor="middle" x="627.5" y="-204" font-family="Helvetica,sans-Serif" font-size="10.00">Server</text>
</a>
</g>
</g>
<!-- Node2&#45;&gt;Node3 -->
<g id="edge2" class="edge">
<title>Node2&#45;&gt;Node3</title>
<path fill="none" stroke="midnightblue" d="M758.27,-180.33C739.78,-185.62 719.38,-191.47 700.34,-196.92"/>
<polygon fill="midnightblue" stroke="midnightblue" points="759.39,-183.65 768.04,-177.53 757.46,-176.92 759.39,-183.65"/>
</g>
<!-- Node4 -->
<g id="node4" class="node">
<title>Node4</title>
<g id="a_node4"><a xlink:href="class_photon_1_1_pun_1_1_photon_network.xhtml#ae031208b657a2e01d80ddf4b02d0d23f" target="_top" xlink:title=" ">
<polygon fill="white" stroke="black" points="557.5,-147.5 557.5,-177.5 697.5,-177.5 697.5,-147.5 557.5,-147.5"/>
<text text-anchor="start" x="565.5" y="-165.5" font-family="Helvetica,sans-Serif" font-size="10.00">Photon.Pun.PhotonNetwork.</text>
<text text-anchor="middle" x="627.5" y="-154.5" font-family="Helvetica,sans-Serif" font-size="10.00">ConnectUsingSettings</text>
</a>
</g>
</g>
<!-- Node2&#45;&gt;Node4 -->
<g id="edge3" class="edge">
<title>Node2&#45;&gt;Node4</title>
<path fill="none" stroke="midnightblue" d="M741.06,-162.5C726.63,-162.5 711.68,-162.5 697.58,-162.5"/>
<polygon fill="midnightblue" stroke="midnightblue" points="741.45,-166 751.45,-162.5 741.45,-159 741.45,-166"/>
</g>
<!-- Node6 -->
<g id="node6" class="node">
<title>Node6</title>
<g id="a_node6"><a xlink:href="class_photon_1_1_pun_1_1_photon_network.xhtml#a1da1c658340e7ecf28575b720104b122" target="_top" xlink:title="Makes this client disconnect from the photon server, a process that leaves any room and calls OnDisco...">
<polygon fill="white" stroke="black" points="557.5,-98.5 557.5,-128.5 697.5,-128.5 697.5,-98.5 557.5,-98.5"/>
<text text-anchor="start" x="565.5" y="-116.5" font-family="Helvetica,sans-Serif" font-size="10.00">Photon.Pun.PhotonNetwork.</text>
<text text-anchor="middle" x="627.5" y="-105.5" font-family="Helvetica,sans-Serif" font-size="10.00">Disconnect</text>
</a>
</g>
</g>
<!-- Node5&#45;&gt;Node6 -->
<g id="edge5" class="edge">
<title>Node5&#45;&gt;Node6</title>
<path fill="none" stroke="midnightblue" d="M733.7,-113.5C721.62,-113.5 709.33,-113.5 697.63,-113.5"/>
<polygon fill="midnightblue" stroke="midnightblue" points="733.79,-117 743.79,-113.5 733.79,-110 733.79,-117"/>
</g>
<!-- Node7 -->
<g id="node7" class="node">
<title>Node7</title>
<g id="a_node7"><a xlink:href="class_photon_1_1_pun_1_1_demo_1_1_hub_1_1_to_demo_hub_button.xhtml#a83cf2b61cc387ebc9fc311480833e857" target="_top" xlink:title=" ">
<polygon fill="white" stroke="black" points="344,-196.5 344,-226.5 499,-226.5 499,-196.5 344,-196.5"/>
<text text-anchor="start" x="352" y="-214.5" font-family="Helvetica,sans-Serif" font-size="10.00">Photon.Pun.Demo.Hub.ToDemo</text>
<text text-anchor="middle" x="421.5" y="-203.5" font-family="Helvetica,sans-Serif" font-size="10.00">HubButton.BackToHub</text>
</a>
</g>
</g>
<!-- Node6&#45;&gt;Node7 -->
<g id="edge6" class="edge">
<title>Node6&#45;&gt;Node7</title>
<path fill="none" stroke="midnightblue" d="M555.54,-133.12C552.57,-134.77 549.71,-136.56 547,-138.5 525.02,-154.22 533.29,-172.22 511,-187.5 506.01,-190.92 500.55,-193.85 494.87,-196.37"/>
<polygon fill="midnightblue" stroke="midnightblue" points="557.32,-136.14 564.71,-128.55 554.19,-129.88 557.32,-136.14"/>
</g>
<!-- Node8 -->
<g id="node8" class="node">
<title>Node8</title>
<g id="a_node8"><a xlink:href="class_photon_1_1_pun_1_1_demo_1_1_cockpit_1_1_pun_cockpit.xhtml#a1cc72ee5a728acc04e81d411d88d6179" target="_top" xlink:title=" ">
<polygon fill="white" stroke="black" points="354,-147.5 354,-177.5 489,-177.5 489,-147.5 354,-147.5"/>
<text text-anchor="start" x="362" y="-165.5" font-family="Helvetica,sans-Serif" font-size="10.00">Photon.Pun.Demo.Cockpit.</text>
<text text-anchor="middle" x="421.5" y="-154.5" font-family="Helvetica,sans-Serif" font-size="10.00">PunCockpit.Disconnect</text>
</a>
</g>
</g>
<!-- Node6&#45;&gt;Node8 -->
<g id="edge7" class="edge">
<title>Node6&#45;&gt;Node8</title>
<path fill="none" stroke="midnightblue" d="M554.04,-130.9C531.48,-136.32 506.8,-142.25 484.97,-147.49"/>
<polygon fill="midnightblue" stroke="midnightblue" points="555,-134.27 563.91,-128.53 553.37,-127.47 555,-134.27"/>
</g>
<!-- Node9 -->
<g id="node9" class="node">
<title>Node9</title>
<g id="a_node9"><a xlink:href="class_photon_1_1_pun_1_1_photon_editor.xhtml#a8ff69bf37b897f6afb973016c09fa65e" target="_top" xlink:title=" ">
<polygon fill="white" stroke="black" points="356.5,-98.5 356.5,-128.5 486.5,-128.5 486.5,-98.5 356.5,-98.5"/>
<text text-anchor="start" x="364.5" y="-116.5" font-family="Helvetica,sans-Serif" font-size="10.00">Photon.Pun.PhotonEditor.</text>
<text text-anchor="middle" x="421.5" y="-105.5" font-family="Helvetica,sans-Serif" font-size="10.00">OnCompileStarted</text>
</a>
</g>
</g>
<!-- Node6&#45;&gt;Node9 -->
<g id="edge8" class="edge">
<title>Node6&#45;&gt;Node9</title>
<path fill="none" stroke="midnightblue" d="M547.37,-113.5C527.28,-113.5 505.93,-113.5 486.68,-113.5"/>
<polygon fill="midnightblue" stroke="midnightblue" points="547.43,-117 557.43,-113.5 547.43,-110 547.43,-117"/>
</g>
<!-- Node12 -->
<g id="node12" class="node">
<title>Node12</title>
<g id="a_node12"><a xlink:href="class_photon_1_1_pun_1_1_utility_scripts_1_1_states_gui.xhtml#a414fd2160f0bd79c9a6826cb31f8006a" target="_top" xlink:title=" ">
<polygon fill="white" stroke="black" points="357,-49.5 357,-79.5 486,-79.5 486,-49.5 357,-49.5"/>
<text text-anchor="start" x="365" y="-67.5" font-family="Helvetica,sans-Serif" font-size="10.00">Photon.Pun.UtilityScripts.</text>
<text text-anchor="middle" x="421.5" y="-56.5" font-family="Helvetica,sans-Serif" font-size="10.00">StatesGui.OnGUI</text>
</a>
</g>
</g>
<!-- Node6&#45;&gt;Node12 -->
<g id="edge11" class="edge">
<title>Node6&#45;&gt;Node12</title>
<path fill="none" stroke="midnightblue" d="M554.04,-96.1C531.48,-90.68 506.8,-84.75 484.97,-79.51"/>
<polygon fill="midnightblue" stroke="midnightblue" points="553.37,-99.53 563.91,-98.47 555,-92.73 553.37,-99.53"/>
</g>
<!-- Node13 -->
<g id="node13" class="node">
<title>Node13</title>
<g id="a_node13"><a xlink:href="class_photon_1_1_pun_1_1_demo_1_1_asteroids_1_1_asteroids_game_manager.xhtml#aab2bcc420ff0aadcf299d2704bccd5dd" target="_top" xlink:title="Called when the local user/client left a room, so the game&#39;s logic can clean up it&#39;s internal state.">
<polygon fill="white" stroke="black" points="332,-0.5 332,-30.5 511,-30.5 511,-0.5 332,-0.5"/>
<text text-anchor="start" x="340" y="-18.5" font-family="Helvetica,sans-Serif" font-size="10.00">Photon.Pun.Demo.Asteroids.</text>
<text text-anchor="middle" x="421.5" y="-7.5" font-family="Helvetica,sans-Serif" font-size="10.00">AsteroidsGameManager.OnLeftRoom</text>
</a>
</g>
</g>
<!-- Node6&#45;&gt;Node13 -->
<g id="edge12" class="edge">
<title>Node6&#45;&gt;Node13</title>
<path fill="none" stroke="midnightblue" d="M598.51,-92.56C575.89,-76.46 542.7,-54.64 511,-40.5 502.69,-36.79 493.69,-33.5 484.72,-30.61"/>
<polygon fill="midnightblue" stroke="midnightblue" points="596.49,-95.42 606.64,-98.43 600.58,-89.74 596.49,-95.42"/>
</g>
<!-- Node10 -->
<g id="node10" class="node">
<title>Node10</title>
<g id="a_node10"><a xlink:href="class_photon_1_1_pun_1_1_photon_editor.xhtml#af1f1cae280c6374bd45f8863ad1f30f8" target="_top" xlink:title=" ">
<polygon fill="white" stroke="black" points="166,-98.5 166,-128.5 296,-128.5 296,-98.5 166,-98.5"/>
<text text-anchor="start" x="174" y="-116.5" font-family="Helvetica,sans-Serif" font-size="10.00">Photon.Pun.PhotonEditor.</text>
<text text-anchor="middle" x="231" y="-105.5" font-family="Helvetica,sans-Serif" font-size="10.00">OnDelayCall</text>
</a>
</g>
</g>
<!-- Node9&#45;&gt;Node10 -->
<g id="edge9" class="edge">
<title>Node9&#45;&gt;Node10</title>
<path fill="none" stroke="midnightblue" d="M346.25,-113.5C329.72,-113.5 312.32,-113.5 296.22,-113.5"/>
<polygon fill="midnightblue" stroke="midnightblue" points="346.42,-117 356.42,-113.5 346.42,-110 346.42,-117"/>
</g>
<!-- Node11 -->
<g id="node11" class="node">
<title>Node11</title>
<g id="a_node11"><a xlink:href="class_photon_1_1_pun_1_1_photon_editor.xhtml#a6f2a81525fca83b7245f023595015253" target="_top" xlink:title=" ">
<polygon fill="white" stroke="black" points="0,-98.5 0,-128.5 130,-128.5 130,-98.5 0,-98.5"/>
<text text-anchor="start" x="8" y="-116.5" font-family="Helvetica,sans-Serif" font-size="10.00">Photon.Pun.PhotonEditor.</text>
<text text-anchor="middle" x="65" y="-105.5" font-family="Helvetica,sans-Serif" font-size="10.00">InitializeOnLoadMethod</text>
</a>
</g>
</g>
<!-- Node10&#45;&gt;Node11 -->
<g id="edge10" class="edge">
<title>Node10&#45;&gt;Node11</title>
<path fill="none" stroke="midnightblue" d="M155.44,-113.5C147,-113.5 138.45,-113.5 130.16,-113.5"/>
<polygon fill="midnightblue" stroke="midnightblue" points="155.65,-117 165.65,-113.5 155.65,-110 155.65,-117"/>
</g>
</g>
</svg>
        <g id="navigator" transform="translate(0 0)" fill="#404254">
                <rect fill="#f2f5e9" fill-opacity="0.5" stroke="#606060" stroke-width=".5" x="0" y="0" width="60" height="60"/>
                <use id="zoomplus" xlink:href="#zoomPlus" x="17" y="9" onmousedown="handleZoom(evt,'in')"/>
                <use id="zoomminus" xlink:href="#zoomMin" x="42" y="9" onmousedown="handleZoom(evt,'out')"/>
                <use id="reset" xlink:href="#resetDef" x="30" y="36" onmousedown="handleReset()"/>
                <g id="arrowUp" xlink:href="#dirArrow" transform="translate(30 24)" onmousedown="handlePan(0,-1)">
                  <use xlink:href="#rim" fill="#404040">
                        <set attributeName="fill" to="#808080" begin="arrowUp.mouseover" end="arrowUp.mouseout"/>
                  </use>
                  <path fill="none" stroke="white" stroke-width="1.5" d="M0,-3.0v7 M-2.5,-0.5L0,-3.0L2.5,-0.5"/>
                </g>
                <g id="arrowRight" xlink:href="#dirArrow" transform="rotate(90) translate(36 -43)" onmousedown="handlePan(1,0)">
                  <use xlink:href="#rim" fill="#404040">
                        <set attributeName="fill" to="#808080" begin="arrowRight.mouseover" end="arrowRight.mouseout"/>
                  </use>
                  <path fill="none" stroke="white" stroke-width="1.5" d="M0,-3.0v7 M-2.5,-0.5L0,-3.0L2.5,-0.5"/>
                </g>
                <g id="arrowDown" xlink:href="#dirArrow" transform="rotate(180) translate(-30 -48)" onmousedown="handlePan(0,1)">
                  <use xlink:href="#rim" fill="#404040">
                        <set attributeName="fill" to="#808080" begin="arrowDown.mouseover" end="arrowDown.mouseout"/>
                  </use>
                  <path fill="none" stroke="white" stroke-width="1.5" d="M0,-3.0v7 M-2.5,-0.5L0,-3.0L2.5,-0.5"/>
                </g>
                <g id="arrowLeft" xlink:href="#dirArrow" transform="rotate(270) translate(-36 17)" onmousedown="handlePan(-1,0)">
                  <use xlink:href="#rim" fill="#404040">
                        <set attributeName="fill" to="#808080" begin="arrowLeft.mouseover" end="arrowLeft.mouseout"/>
                  </use>
                  <path fill="none" stroke="white" stroke-width="1.5" d="M0,-3.0v7 M-2.5,-0.5L0,-3.0L2.5,-0.5"/>
                </g>
        </g>
        <svg viewBox="0 0 15 15" width="100%" height="30px" preserveAspectRatio="xMaxYMin meet">
         <g id="arrow_out" transform="scale(0.3 0.3)">
          <a xlink:href="class_photon_1_1_realtime_1_1_load_balancing_client_a43756ee75b2346cb002f89aee86ff94d_icgraph_org.svg" target="_base">
           <rect id="button" ry="5" rx="5" y="6" x="6" height="38" width="38"
                fill="#f2f5e9" fill-opacity="0.5" stroke="#606060" stroke-width="1.0"/>
           <path id="arrow"
             d="M 11.500037,31.436501 C 11.940474,20.09759 22.043105,11.32322 32.158766,21.979434 L 37.068811,17.246167 C 37.068811,17.246167 37.088388,32 37.088388,32 L 22.160133,31.978069 C 22.160133,31.978069 26.997745,27.140456 26.997745,27.140456 C 18.528582,18.264221 13.291696,25.230495 11.500037,31.436501 z"
             style="fill:#404040;"/>
          </a>
         </g>
        </svg>
</svg>
