<?xml version="1.0" encoding="UTF-8" standalone="no"?>
<!DOCTYPE svg PUBLIC "-//W3C//DTD SVG 1.1//EN"
 "http://www.w3.org/Graphics/SVG/1.1/DTD/svg11.dtd">
<!-- Generated by graphviz version 2.47.3 (20210619.1520)
 -->
<!-- Title: Photon.Pun.Demo.Cockpit.BackgroundTimeOutField.SubmitForm Pages: 1 -->
<svg width="612pt" height="88pt"
 viewBox="0.00 0.00 612.00 88.00" xmlns="http://www.w3.org/2000/svg" xmlns:xlink="http://www.w3.org/1999/xlink">
<g id="graph0" class="graph" transform="scale(1 1) rotate(0) translate(4 84)">
<title>Photon.Pun.Demo.Cockpit.BackgroundTimeOutField.SubmitForm</title>
<polygon fill="white" stroke="transparent" points="-4,4 -4,-84 608,-84 608,4 -4,4"/>
<!-- Node1 -->
<g id="node1" class="node">
<title>Node1</title>
<g id="a_node1"><a xlink:title=" ">
<polygon fill="#bfbfbf" stroke="black" points="422,-24.5 422,-54.5 604,-54.5 604,-24.5 422,-24.5"/>
<text text-anchor="start" x="430" y="-42.5" font-family="Helvetica,sans-Serif" font-size="10.00">Photon.Pun.Demo.Cockpit.</text>
<text text-anchor="middle" x="513" y="-31.5" font-family="Helvetica,sans-Serif" font-size="10.00">BackgroundTimeOutField.SubmitForm</text>
</a>
</g>
</g>
<!-- Node2 -->
<g id="node2" class="node">
<title>Node2</title>
<g id="a_node2"><a xlink:href="class_photon_1_1_pun_1_1_demo_1_1_cockpit_1_1_background_time_out_field.xhtml#acae70736b627a9a6c212d6687ed656a1" target="_top" xlink:title=" ">
<polygon fill="white" stroke="black" points="210,-24.5 210,-54.5 386,-54.5 386,-24.5 210,-24.5"/>
<text text-anchor="start" x="218" y="-42.5" font-family="Helvetica,sans-Serif" font-size="10.00">Photon.Pun.Demo.Cockpit.</text>
<text text-anchor="middle" x="298" y="-31.5" font-family="Helvetica,sans-Serif" font-size="10.00">BackgroundTimeOutField.OnEndEdit</text>
</a>
</g>
</g>
<!-- Node1&#45;&gt;Node2 -->
<g id="edge1" class="edge">
<title>Node1&#45;&gt;Node2</title>
<path fill="none" stroke="midnightblue" d="M411.96,-39.5C403.4,-39.5 394.78,-39.5 386.32,-39.5"/>
<polygon fill="midnightblue" stroke="midnightblue" points="411.98,-43 421.98,-39.5 411.98,-36 411.98,-43"/>
</g>
<!-- Node3 -->
<g id="node3" class="node">
<title>Node3</title>
<g id="a_node3"><a xlink:href="class_photon_1_1_pun_1_1_demo_1_1_cockpit_1_1_background_time_out_field.xhtml#ac89082eb858612f47e7a155e4b0ab549" target="_top" xlink:title=" ">
<polygon fill="white" stroke="black" points="0,-49.5 0,-79.5 174,-79.5 174,-49.5 0,-49.5"/>
<text text-anchor="start" x="8" y="-67.5" font-family="Helvetica,sans-Serif" font-size="10.00">Photon.Pun.Demo.Cockpit.</text>
<text text-anchor="middle" x="87" y="-56.5" font-family="Helvetica,sans-Serif" font-size="10.00">BackgroundTimeOutField.OnDisable</text>
</a>
</g>
</g>
<!-- Node2&#45;&gt;Node3 -->
<g id="edge2" class="edge">
<title>Node2&#45;&gt;Node3</title>
<path fill="none" stroke="midnightblue" d="M199.9,-51.12C191.36,-52.14 182.75,-53.17 174.31,-54.18"/>
<polygon fill="midnightblue" stroke="midnightblue" points="200.37,-54.58 209.88,-49.92 199.53,-47.63 200.37,-54.58"/>
</g>
<!-- Node4 -->
<g id="node4" class="node">
<title>Node4</title>
<g id="a_node4"><a xlink:href="class_photon_1_1_pun_1_1_demo_1_1_cockpit_1_1_background_time_out_field.xhtml#af54dd24a6d22c9b69b6c14679d42afe1" target="_top" xlink:title=" ">
<polygon fill="white" stroke="black" points="1,-0.5 1,-30.5 173,-30.5 173,-0.5 1,-0.5"/>
<text text-anchor="start" x="9" y="-18.5" font-family="Helvetica,sans-Serif" font-size="10.00">Photon.Pun.Demo.Cockpit.</text>
<text text-anchor="middle" x="87" y="-7.5" font-family="Helvetica,sans-Serif" font-size="10.00">BackgroundTimeOutField.OnEnable</text>
</a>
</g>
</g>
<!-- Node2&#45;&gt;Node4 -->
<g id="edge3" class="edge">
<title>Node2&#45;&gt;Node4</title>
<path fill="none" stroke="midnightblue" d="M199.9,-28.35C191.02,-27.33 182.07,-26.3 173.3,-25.3"/>
<polygon fill="midnightblue" stroke="midnightblue" points="199.54,-31.83 209.88,-29.5 200.34,-24.88 199.54,-31.83"/>
</g>
</g>
</svg>
