<?xml version="1.0" encoding="UTF-8" standalone="no"?>
<!DOCTYPE svg PUBLIC "-//W3C//DTD SVG 1.1//EN"
 "http://www.w3.org/Graphics/SVG/1.1/DTD/svg11.dtd">
<!-- Generated by graphviz version 2.47.3 (20210619.1520)
 -->
<!-- Title: Tayx.Graphy.Ram.G_RamGraph.Init Pages: 1 -->
<svg width="759pt" height="186pt"
 viewBox="0.00 0.00 759.00 186.00" xmlns="http://www.w3.org/2000/svg" xmlns:xlink="http://www.w3.org/1999/xlink">
<g id="graph0" class="graph" transform="scale(1 1) rotate(0) translate(4 182)">
<title>Tayx.Graphy.Ram.G_RamGraph.Init</title>
<polygon fill="white" stroke="transparent" points="-4,4 -4,-182 755,-182 755,4 -4,4"/>
<!-- Node1 -->
<g id="node1" class="node">
<title>Node1</title>
<g id="a_node1"><a xlink:title=" ">
<polygon fill="#bfbfbf" stroke="black" points="0,-54 0,-73 173,-73 173,-54 0,-54"/>
<text text-anchor="middle" x="86.5" y="-61" font-family="Helvetica,sans-Serif" font-size="10.00">Tayx.Graphy.Ram.G_RamGraph.Init</text>
</a>
</g>
</g>
<!-- Node2 -->
<g id="node2" class="node">
<title>Node2</title>
<g id="a_node2"><a xlink:href="class_tayx_1_1_graphy_1_1_ram_1_1_g___ram_graph.xhtml#a664d3277ea728c0f7750211346ca3908" target="_top" xlink:title=" ">
<polygon fill="white" stroke="black" points="209,-48.5 209,-78.5 370,-78.5 370,-48.5 209,-48.5"/>
<text text-anchor="start" x="217" y="-66.5" font-family="Helvetica,sans-Serif" font-size="10.00">Tayx.Graphy.Ram.G_RamGraph.</text>
<text text-anchor="middle" x="289.5" y="-55.5" font-family="Helvetica,sans-Serif" font-size="10.00">UpdateParameters</text>
</a>
</g>
</g>
<!-- Node1&#45;&gt;Node2 -->
<g id="edge1" class="edge">
<title>Node1&#45;&gt;Node2</title>
<path fill="none" stroke="midnightblue" d="M173.03,-56.82C181.47,-56.74 190.04,-56.73 198.52,-56.78"/>
<polygon fill="midnightblue" stroke="midnightblue" points="198.75,-60.29 208.79,-56.88 198.82,-53.29 198.75,-60.29"/>
</g>
<!-- Node2&#45;&gt;Node1 -->
<g id="edge7" class="edge">
<title>Node2&#45;&gt;Node1</title>
<path fill="none" stroke="midnightblue" d="M208.79,-70.12C200.34,-70.23 191.69,-70.27 183.09,-70.24"/>
<polygon fill="midnightblue" stroke="midnightblue" points="183.05,-66.74 173.03,-70.18 183.01,-73.74 183.05,-66.74"/>
</g>
<!-- Node3 -->
<g id="node3" class="node">
<title>Node3</title>
<g id="a_node3"><a xlink:href="class_tayx_1_1_graphy_1_1_ram_1_1_g___ram_graph.xhtml#a9b4664e5086ead30d31ef074a746a167" target="_top" xlink:title="Creates the points for the graph/s.">
<polygon fill="white" stroke="black" points="406,-73.5 406,-103.5 567,-103.5 567,-73.5 406,-73.5"/>
<text text-anchor="start" x="414" y="-91.5" font-family="Helvetica,sans-Serif" font-size="10.00">Tayx.Graphy.Ram.G_RamGraph.</text>
<text text-anchor="middle" x="486.5" y="-80.5" font-family="Helvetica,sans-Serif" font-size="10.00">CreatePoints</text>
</a>
</g>
</g>
<!-- Node2&#45;&gt;Node3 -->
<g id="edge2" class="edge">
<title>Node2&#45;&gt;Node3</title>
<path fill="none" stroke="midnightblue" d="M370.1,-73.7C378.57,-74.79 387.24,-75.9 395.82,-77"/>
<polygon fill="midnightblue" stroke="midnightblue" points="395.48,-80.49 405.84,-78.29 396.37,-73.54 395.48,-80.49"/>
</g>
<!-- Node8 -->
<g id="node8" class="node">
<title>Node8</title>
<g id="a_node8"><a xlink:href="class_tayx_1_1_graphy_1_1_g___graph_shader.xhtml#a531ef44ced25f9686183cc7c46ca3920" target="_top" xlink:title="This is done to avoid a design problem that arrays in shaders have, and should be called before initi...">
<polygon fill="white" stroke="black" points="412.5,-24.5 412.5,-54.5 560.5,-54.5 560.5,-24.5 412.5,-24.5"/>
<text text-anchor="start" x="420.5" y="-42.5" font-family="Helvetica,sans-Serif" font-size="10.00">Tayx.Graphy.G_GraphShader.</text>
<text text-anchor="middle" x="486.5" y="-31.5" font-family="Helvetica,sans-Serif" font-size="10.00">InitializeShader</text>
</a>
</g>
</g>
<!-- Node2&#45;&gt;Node8 -->
<g id="edge8" class="edge">
<title>Node2&#45;&gt;Node8</title>
<path fill="none" stroke="midnightblue" d="M370.1,-53.7C380.71,-52.4 391.62,-51.05 402.29,-49.74"/>
<polygon fill="midnightblue" stroke="midnightblue" points="402.94,-53.19 412.44,-48.49 402.08,-46.24 402.94,-53.19"/>
</g>
<!-- Node4 -->
<g id="node4" class="node">
<title>Node4</title>
<g id="a_node4"><a xlink:href="class_tayx_1_1_graphy_1_1_g___graph_shader.xhtml#ac039f519ec84d521e44bf8f9b90ff7e8" target="_top" xlink:title="Updates the material linked with this shader graph with the values in the float[] array.">
<polygon fill="white" stroke="black" points="603,-147.5 603,-177.5 751,-177.5 751,-147.5 603,-147.5"/>
<text text-anchor="start" x="611" y="-165.5" font-family="Helvetica,sans-Serif" font-size="10.00">Tayx.Graphy.G_GraphShader.</text>
<text text-anchor="middle" x="677" y="-154.5" font-family="Helvetica,sans-Serif" font-size="10.00">UpdateArray</text>
</a>
</g>
</g>
<!-- Node3&#45;&gt;Node4 -->
<g id="edge3" class="edge">
<title>Node3&#45;&gt;Node4</title>
<path fill="none" stroke="midnightblue" d="M520.03,-103.53C543,-113.9 574.61,-127.71 603,-138.5 608.07,-140.42 613.36,-142.34 618.69,-144.21"/>
<polygon fill="midnightblue" stroke="midnightblue" points="617.67,-147.56 628.27,-147.5 619.95,-140.94 617.67,-147.56"/>
</g>
<!-- Node5 -->
<g id="node5" class="node">
<title>Node5</title>
<g id="a_node5"><a xlink:href="class_tayx_1_1_graphy_1_1_g___graph_shader.xhtml#a67831882b060d17c9d7a754546ef2e6b" target="_top" xlink:title="Updates the average parameter in the material.">
<polygon fill="white" stroke="black" points="603,-98.5 603,-128.5 751,-128.5 751,-98.5 603,-98.5"/>
<text text-anchor="start" x="611" y="-116.5" font-family="Helvetica,sans-Serif" font-size="10.00">Tayx.Graphy.G_GraphShader.</text>
<text text-anchor="middle" x="677" y="-105.5" font-family="Helvetica,sans-Serif" font-size="10.00">UpdateAverage</text>
</a>
</g>
</g>
<!-- Node3&#45;&gt;Node5 -->
<g id="edge4" class="edge">
<title>Node3&#45;&gt;Node5</title>
<path fill="none" stroke="midnightblue" d="M567.17,-99.07C575.69,-100.2 584.37,-101.35 592.93,-102.48"/>
<polygon fill="midnightblue" stroke="midnightblue" points="592.54,-105.96 602.91,-103.81 593.46,-99.02 592.54,-105.96"/>
</g>
<!-- Node6 -->
<g id="node6" class="node">
<title>Node6</title>
<g id="a_node6"><a xlink:href="class_tayx_1_1_graphy_1_1_g___graph_shader.xhtml#ac4ec72181f804fc7e8516292bd3a5995" target="_top" xlink:title="Updates the colors in the material.">
<polygon fill="white" stroke="black" points="603,-49.5 603,-79.5 751,-79.5 751,-49.5 603,-49.5"/>
<text text-anchor="start" x="611" y="-67.5" font-family="Helvetica,sans-Serif" font-size="10.00">Tayx.Graphy.G_GraphShader.</text>
<text text-anchor="middle" x="677" y="-56.5" font-family="Helvetica,sans-Serif" font-size="10.00">UpdateColors</text>
</a>
</g>
</g>
<!-- Node3&#45;&gt;Node6 -->
<g id="edge5" class="edge">
<title>Node3&#45;&gt;Node6</title>
<path fill="none" stroke="midnightblue" d="M567.17,-78.36C575.69,-77.27 584.37,-76.17 592.93,-75.08"/>
<polygon fill="midnightblue" stroke="midnightblue" points="593.43,-78.54 602.91,-73.81 592.55,-71.6 593.43,-78.54"/>
</g>
<!-- Node7 -->
<g id="node7" class="node">
<title>Node7</title>
<g id="a_node7"><a xlink:href="class_tayx_1_1_graphy_1_1_g___graph_shader.xhtml#af57c3227f9ad5e7a55f17532749cbf18" target="_top" xlink:title="Updates the thresholds in the material.">
<polygon fill="white" stroke="black" points="603,-0.5 603,-30.5 751,-30.5 751,-0.5 603,-0.5"/>
<text text-anchor="start" x="611" y="-18.5" font-family="Helvetica,sans-Serif" font-size="10.00">Tayx.Graphy.G_GraphShader.</text>
<text text-anchor="middle" x="677" y="-7.5" font-family="Helvetica,sans-Serif" font-size="10.00">UpdateThresholds</text>
</a>
</g>
</g>
<!-- Node3&#45;&gt;Node7 -->
<g id="edge6" class="edge">
<title>Node3&#45;&gt;Node7</title>
<path fill="none" stroke="midnightblue" d="M544.73,-73.45C552.35,-70.81 559.96,-67.82 567,-64.5 584.39,-56.3 585.76,-49.02 603,-40.5 607.35,-38.35 611.93,-36.31 616.59,-34.39"/>
<polygon fill="midnightblue" stroke="midnightblue" points="618.18,-37.52 626.21,-30.62 615.62,-31.01 618.18,-37.52"/>
</g>
</g>
</svg>
