<?xml version="1.0" encoding="UTF-8" standalone="no"?>
<!DOCTYPE svg PUBLIC "-//W3C//DTD SVG 1.1//EN"
 "http://www.w3.org/Graphics/SVG/1.1/DTD/svg11.dtd">
<!-- Generated by graphviz version 2.47.3 (20210619.1520)
 -->
<!-- Title: Tayx.Graphy.GraphyManager.OnApplicationFocus Pages: 1 -->
<svg width="1147pt" height="627pt"
 viewBox="0.00 0.00 1147.00 627.00" xmlns="http://www.w3.org/2000/svg" xmlns:xlink="http://www.w3.org/1999/xlink">
<g id="graph0" class="graph" transform="scale(1 1) rotate(0) translate(4 623)">
<title>Tayx.Graphy.GraphyManager.OnApplicationFocus</title>
<polygon fill="white" stroke="transparent" points="-4,4 -4,-623 1143,-623 1143,4 -4,4"/>
<!-- Node1 -->
<g id="node1" class="node">
<title>Node1</title>
<g id="a_node1"><a xlink:title=" ">
<polygon fill="#bfbfbf" stroke="black" points="0,-318.5 0,-348.5 147,-348.5 147,-318.5 0,-318.5"/>
<text text-anchor="start" x="8" y="-336.5" font-family="Helvetica,sans-Serif" font-size="10.00">Tayx.Graphy.GraphyManager.</text>
<text text-anchor="middle" x="73.5" y="-325.5" font-family="Helvetica,sans-Serif" font-size="10.00">OnApplicationFocus</text>
</a>
</g>
</g>
<!-- Node2 -->
<g id="node2" class="node">
<title>Node2</title>
<g id="a_node2"><a xlink:href="class_tayx_1_1_graphy_1_1_graphy_manager.xhtml#acee2ed06f19bb2ca4dd2c08cd6ea6663" target="_top" xlink:title=" ">
<polygon fill="white" stroke="black" points="183,-318.5 183,-348.5 330,-348.5 330,-318.5 183,-318.5"/>
<text text-anchor="start" x="191" y="-336.5" font-family="Helvetica,sans-Serif" font-size="10.00">Tayx.Graphy.GraphyManager.</text>
<text text-anchor="middle" x="256.5" y="-325.5" font-family="Helvetica,sans-Serif" font-size="10.00">RefreshAllParameters</text>
</a>
</g>
</g>
<!-- Node1&#45;&gt;Node2 -->
<g id="edge1" class="edge">
<title>Node1&#45;&gt;Node2</title>
<path fill="none" stroke="midnightblue" d="M147.08,-333.5C155.56,-333.5 164.26,-333.5 172.87,-333.5"/>
<polygon fill="midnightblue" stroke="midnightblue" points="172.91,-337 182.91,-333.5 172.91,-330 172.91,-337"/>
</g>
<!-- Node3 -->
<g id="node3" class="node">
<title>Node3</title>
<g id="a_node3"><a xlink:href="class_tayx_1_1_graphy_1_1_advanced_1_1_g___advanced_data.xhtml#ab2e2d1708795b0341799db4b7135da5d" target="_top" xlink:title=" ">
<polygon fill="white" stroke="black" points="367,-539.5 367,-569.5 537,-569.5 537,-539.5 367,-539.5"/>
<text text-anchor="start" x="375" y="-557.5" font-family="Helvetica,sans-Serif" font-size="10.00">Tayx.Graphy.Advanced.G</text>
<text text-anchor="middle" x="452" y="-546.5" font-family="Helvetica,sans-Serif" font-size="10.00">_AdvancedData.RefreshParameters</text>
</a>
</g>
</g>
<!-- Node2&#45;&gt;Node3 -->
<g id="edge2" class="edge">
<title>Node2&#45;&gt;Node3</title>
<path fill="none" stroke="midnightblue" d="M270.8,-348.69C304.16,-386.79 391.53,-486.58 431.06,-531.73"/>
<polygon fill="midnightblue" stroke="midnightblue" points="428.64,-534.28 437.86,-539.5 433.91,-529.67 428.64,-534.28"/>
</g>
<!-- Node6 -->
<g id="node6" class="node">
<title>Node6</title>
<g id="a_node6"><a xlink:href="class_tayx_1_1_graphy_1_1_audio_1_1_g___audio_manager.xhtml#a8598c9db6ed411d7301e0c02991ec263" target="_top" xlink:title=" ">
<polygon fill="white" stroke="black" points="367,-392.5 367,-422.5 537,-422.5 537,-392.5 367,-392.5"/>
<text text-anchor="start" x="375" y="-410.5" font-family="Helvetica,sans-Serif" font-size="10.00">Tayx.Graphy.Audio.G</text>
<text text-anchor="middle" x="452" y="-399.5" font-family="Helvetica,sans-Serif" font-size="10.00">_AudioManager.RefreshParameters</text>
</a>
</g>
</g>
<!-- Node2&#45;&gt;Node6 -->
<g id="edge5" class="edge">
<title>Node2&#45;&gt;Node6</title>
<path fill="none" stroke="midnightblue" d="M297.12,-348.65C327.49,-360.26 369.54,-376.35 402.01,-388.77"/>
<polygon fill="midnightblue" stroke="midnightblue" points="401.17,-392.19 411.76,-392.49 403.67,-385.65 401.17,-392.19"/>
</g>
<!-- Node19 -->
<g id="node19" class="node">
<title>Node19</title>
<g id="a_node19"><a xlink:href="class_tayx_1_1_graphy_1_1_fps_1_1_g___fps_manager.xhtml#a461269771908583d11533804e81130ad" target="_top" xlink:title=" ">
<polygon fill="white" stroke="black" points="370,-245.5 370,-275.5 534,-275.5 534,-245.5 370,-245.5"/>
<text text-anchor="start" x="378" y="-263.5" font-family="Helvetica,sans-Serif" font-size="10.00">Tayx.Graphy.Fps.G_FpsManager.</text>
<text text-anchor="middle" x="452" y="-252.5" font-family="Helvetica,sans-Serif" font-size="10.00">RefreshParameters</text>
</a>
</g>
</g>
<!-- Node2&#45;&gt;Node19 -->
<g id="edge18" class="edge">
<title>Node2&#45;&gt;Node19</title>
<path fill="none" stroke="midnightblue" d="M297.59,-318.37C327.69,-307.02 369.08,-291.41 401.28,-279.26"/>
<polygon fill="midnightblue" stroke="midnightblue" points="402.84,-282.41 410.96,-275.61 400.37,-275.86 402.84,-282.41"/>
</g>
<!-- Node26 -->
<g id="node26" class="node">
<title>Node26</title>
<g id="a_node26"><a xlink:href="class_tayx_1_1_graphy_1_1_ram_1_1_g___ram_manager.xhtml#a42f32f1355b815fb810b661fe4b90fdc" target="_top" xlink:title=" ">
<polygon fill="white" stroke="black" points="366,-74.5 366,-104.5 538,-104.5 538,-74.5 366,-74.5"/>
<text text-anchor="start" x="374" y="-92.5" font-family="Helvetica,sans-Serif" font-size="10.00">Tayx.Graphy.Ram.G_RamManager.</text>
<text text-anchor="middle" x="452" y="-81.5" font-family="Helvetica,sans-Serif" font-size="10.00">RefreshParameters</text>
</a>
</g>
</g>
<!-- Node2&#45;&gt;Node26 -->
<g id="edge28" class="edge">
<title>Node2&#45;&gt;Node26</title>
<path fill="none" stroke="midnightblue" d="M269.6,-318.24C302.45,-276.81 393.43,-162.09 432.64,-112.65"/>
<polygon fill="midnightblue" stroke="midnightblue" points="435.43,-114.77 438.9,-104.76 429.94,-110.42 435.43,-114.77"/>
</g>
<!-- Node4 -->
<g id="node4" class="node">
<title>Node4</title>
<g id="a_node4"><a xlink:href="class_tayx_1_1_graphy_1_1_advanced_1_1_g___advanced_data.xhtml#a0e5e65da50bc546e002b4a3eb04bb32a" target="_top" xlink:title="Sets the position of the module.">
<polygon fill="white" stroke="black" points="591.5,-588.5 591.5,-618.5 728.5,-618.5 728.5,-588.5 591.5,-588.5"/>
<text text-anchor="start" x="599.5" y="-606.5" font-family="Helvetica,sans-Serif" font-size="10.00">Tayx.Graphy.Advanced.G</text>
<text text-anchor="middle" x="660" y="-595.5" font-family="Helvetica,sans-Serif" font-size="10.00">_AdvancedData.SetPosition</text>
</a>
</g>
</g>
<!-- Node3&#45;&gt;Node4 -->
<g id="edge3" class="edge">
<title>Node3&#45;&gt;Node4</title>
<path fill="none" stroke="midnightblue" d="M516.21,-569.53C538.25,-574.78 563.18,-580.71 585.96,-586.13"/>
<polygon fill="midnightblue" stroke="midnightblue" points="585.37,-589.58 595.91,-588.49 586.99,-582.77 585.37,-589.58"/>
</g>
<!-- Node5 -->
<g id="node5" class="node">
<title>Node5</title>
<g id="a_node5"><a xlink:href="class_tayx_1_1_graphy_1_1_advanced_1_1_g___advanced_data.xhtml#ac91888d741e22b8802e3d38323e6e0cd" target="_top" xlink:title="Set the module state.">
<polygon fill="white" stroke="black" points="596,-539.5 596,-569.5 724,-569.5 724,-539.5 596,-539.5"/>
<text text-anchor="start" x="604" y="-557.5" font-family="Helvetica,sans-Serif" font-size="10.00">Tayx.Graphy.Advanced.G</text>
<text text-anchor="middle" x="660" y="-546.5" font-family="Helvetica,sans-Serif" font-size="10.00">_AdvancedData.SetState</text>
</a>
</g>
</g>
<!-- Node3&#45;&gt;Node5 -->
<g id="edge4" class="edge">
<title>Node3&#45;&gt;Node5</title>
<path fill="none" stroke="midnightblue" d="M537.09,-554.5C553.15,-554.5 569.84,-554.5 585.54,-554.5"/>
<polygon fill="midnightblue" stroke="midnightblue" points="585.7,-558 595.7,-554.5 585.7,-551 585.7,-558"/>
</g>
<!-- Node7 -->
<g id="node7" class="node">
<title>Node7</title>
<g id="a_node7"><a xlink:href="class_tayx_1_1_graphy_1_1_audio_1_1_g___audio_manager.xhtml#adc6cbaec95f86a1f896a089a03bf8ef9" target="_top" xlink:title="Set the module state.">
<polygon fill="white" stroke="black" points="597.5,-490.5 597.5,-520.5 722.5,-520.5 722.5,-490.5 597.5,-490.5"/>
<text text-anchor="start" x="605.5" y="-508.5" font-family="Helvetica,sans-Serif" font-size="10.00">Tayx.Graphy.Audio.G</text>
<text text-anchor="middle" x="660" y="-497.5" font-family="Helvetica,sans-Serif" font-size="10.00">_AudioManager.SetState</text>
</a>
</g>
</g>
<!-- Node6&#45;&gt;Node7 -->
<g id="edge6" class="edge">
<title>Node6&#45;&gt;Node7</title>
<path fill="none" stroke="midnightblue" d="M473.89,-422.74C497.27,-439.19 536.77,-465.23 574,-481.5 578.62,-483.52 583.46,-485.42 588.39,-487.19"/>
<polygon fill="midnightblue" stroke="midnightblue" points="587.33,-490.53 597.92,-490.45 589.59,-483.9 587.33,-490.53"/>
</g>
<!-- Node9 -->
<g id="node9" class="node">
<title>Node9</title>
<g id="a_node9"><a xlink:href="class_tayx_1_1_graphy_1_1_audio_1_1_g___audio_graph.xhtml#a6522e25a1da553924df60f3405495d78" target="_top" xlink:title=" ">
<polygon fill="white" stroke="black" points="581.5,-294.5 581.5,-324.5 738.5,-324.5 738.5,-294.5 581.5,-294.5"/>
<text text-anchor="start" x="589.5" y="-312.5" font-family="Helvetica,sans-Serif" font-size="10.00">Tayx.Graphy.Audio.G</text>
<text text-anchor="middle" x="660" y="-301.5" font-family="Helvetica,sans-Serif" font-size="10.00">_AudioGraph.UpdateParameters</text>
</a>
</g>
</g>
<!-- Node6&#45;&gt;Node9 -->
<g id="edge8" class="edge">
<title>Node6&#45;&gt;Node9</title>
<path fill="none" stroke="midnightblue" d="M474.38,-392.27C497.87,-376.1 537.17,-350.7 574,-334.5 579.32,-332.16 584.92,-329.96 590.61,-327.92"/>
<polygon fill="midnightblue" stroke="midnightblue" points="591.89,-331.18 600.22,-324.64 589.63,-324.56 591.89,-331.18"/>
</g>
<!-- Node16 -->
<g id="node16" class="node">
<title>Node16</title>
<g id="a_node16"><a xlink:href="class_tayx_1_1_graphy_1_1_audio_1_1_g___audio_monitor.xhtml#ab99d3ec55c039eb4c3cdfe46a094bccd" target="_top" xlink:title=" ">
<polygon fill="white" stroke="black" points="578.5,-392.5 578.5,-422.5 741.5,-422.5 741.5,-392.5 578.5,-392.5"/>
<text text-anchor="start" x="586.5" y="-410.5" font-family="Helvetica,sans-Serif" font-size="10.00">Tayx.Graphy.Audio.G</text>
<text text-anchor="middle" x="660" y="-399.5" font-family="Helvetica,sans-Serif" font-size="10.00">_AudioMonitor.UpdateParameters</text>
</a>
</g>
</g>
<!-- Node6&#45;&gt;Node16 -->
<g id="edge15" class="edge">
<title>Node6&#45;&gt;Node16</title>
<path fill="none" stroke="midnightblue" d="M537.09,-407.5C547.26,-407.5 557.7,-407.5 567.97,-407.5"/>
<polygon fill="midnightblue" stroke="midnightblue" points="568.18,-411 578.18,-407.5 568.18,-404 568.18,-411"/>
</g>
<!-- Node18 -->
<g id="node18" class="node">
<title>Node18</title>
<g id="a_node18"><a xlink:href="class_tayx_1_1_graphy_1_1_audio_1_1_g___audio_text.xhtml#a9c062e67d48e6ae37b36a157deda281e" target="_top" xlink:title=" ">
<polygon fill="white" stroke="black" points="585.5,-441.5 585.5,-471.5 734.5,-471.5 734.5,-441.5 585.5,-441.5"/>
<text text-anchor="start" x="593.5" y="-459.5" font-family="Helvetica,sans-Serif" font-size="10.00">Tayx.Graphy.Audio.G</text>
<text text-anchor="middle" x="660" y="-448.5" font-family="Helvetica,sans-Serif" font-size="10.00">_AudioText.UpdateParameters</text>
</a>
</g>
</g>
<!-- Node6&#45;&gt;Node18 -->
<g id="edge17" class="edge">
<title>Node6&#45;&gt;Node18</title>
<path fill="none" stroke="midnightblue" d="M516.21,-422.53C538.25,-427.78 563.18,-433.71 585.96,-439.13"/>
<polygon fill="midnightblue" stroke="midnightblue" points="585.37,-442.58 595.91,-441.49 586.99,-435.77 585.37,-442.58"/>
</g>
<!-- Node8 -->
<g id="node8" class="node">
<title>Node8</title>
<g id="a_node8"><a xlink:href="class_tayx_1_1_graphy_1_1_audio_1_1_g___audio_manager.xhtml#a67d33c59a742691d9a9c3c6843bbc131" target="_top" xlink:title=" ">
<polygon fill="white" stroke="black" points="791,-490.5 791,-520.5 946,-520.5 946,-490.5 791,-490.5"/>
<text text-anchor="start" x="799" y="-508.5" font-family="Helvetica,sans-Serif" font-size="10.00">Tayx.Graphy.Audio.G</text>
<text text-anchor="middle" x="868.5" y="-497.5" font-family="Helvetica,sans-Serif" font-size="10.00">_AudioManager.SetGraphActive</text>
</a>
</g>
</g>
<!-- Node7&#45;&gt;Node8 -->
<g id="edge7" class="edge">
<title>Node7&#45;&gt;Node8</title>
<path fill="none" stroke="midnightblue" d="M722.68,-505.5C740.89,-505.5 761.18,-505.5 780.67,-505.5"/>
<polygon fill="midnightblue" stroke="midnightblue" points="780.77,-509 790.77,-505.5 780.77,-502 780.77,-509"/>
</g>
<!-- Node10 -->
<g id="node10" class="node">
<title>Node10</title>
<g id="a_node10"><a xlink:href="class_tayx_1_1_graphy_1_1_audio_1_1_g___audio_graph.xhtml#a8402c6f4decc0ed051e2a3afd42c4cc8" target="_top" xlink:title="Creates the points for the graph/s.">
<polygon fill="white" stroke="black" points="802.5,-294.5 802.5,-324.5 934.5,-324.5 934.5,-294.5 802.5,-294.5"/>
<text text-anchor="start" x="810.5" y="-312.5" font-family="Helvetica,sans-Serif" font-size="10.00">Tayx.Graphy.Audio.G</text>
<text text-anchor="middle" x="868.5" y="-301.5" font-family="Helvetica,sans-Serif" font-size="10.00">_AudioGraph.CreatePoints</text>
</a>
</g>
</g>
<!-- Node9&#45;&gt;Node10 -->
<g id="edge9" class="edge">
<title>Node9&#45;&gt;Node10</title>
<path fill="none" stroke="midnightblue" d="M738.77,-309.5C756.26,-309.5 774.79,-309.5 792.18,-309.5"/>
<polygon fill="midnightblue" stroke="midnightblue" points="792.27,-313 802.27,-309.5 792.27,-306 792.27,-313"/>
</g>
<!-- Node15 -->
<g id="node15" class="node">
<title>Node15</title>
<g id="a_node15"><a xlink:href="class_tayx_1_1_graphy_1_1_g___graph_shader.xhtml#a531ef44ced25f9686183cc7c46ca3920" target="_top" xlink:title="This is done to avoid a design problem that arrays in shaders have, and should be called before initi...">
<polygon fill="white" stroke="black" points="794.5,-245.5 794.5,-275.5 942.5,-275.5 942.5,-245.5 794.5,-245.5"/>
<text text-anchor="start" x="802.5" y="-263.5" font-family="Helvetica,sans-Serif" font-size="10.00">Tayx.Graphy.G_GraphShader.</text>
<text text-anchor="middle" x="868.5" y="-252.5" font-family="Helvetica,sans-Serif" font-size="10.00">InitializeShader</text>
</a>
</g>
</g>
<!-- Node9&#45;&gt;Node15 -->
<g id="edge14" class="edge">
<title>Node9&#45;&gt;Node15</title>
<path fill="none" stroke="midnightblue" d="M724.36,-294.47C746.46,-289.22 771.44,-283.29 794.28,-277.87"/>
<polygon fill="midnightblue" stroke="midnightblue" points="795.34,-281.22 804.26,-275.51 793.72,-274.41 795.34,-281.22"/>
</g>
<!-- Node11 -->
<g id="node11" class="node">
<title>Node11</title>
<g id="a_node11"><a xlink:href="class_tayx_1_1_graphy_1_1_g___graph_shader.xhtml#ac039f519ec84d521e44bf8f9b90ff7e8" target="_top" xlink:title="Updates the material linked with this shader graph with the values in the float[] array.">
<polygon fill="white" stroke="black" points="991,-336.5 991,-366.5 1139,-366.5 1139,-336.5 991,-336.5"/>
<text text-anchor="start" x="999" y="-354.5" font-family="Helvetica,sans-Serif" font-size="10.00">Tayx.Graphy.G_GraphShader.</text>
<text text-anchor="middle" x="1065" y="-343.5" font-family="Helvetica,sans-Serif" font-size="10.00">UpdateArray</text>
</a>
</g>
</g>
<!-- Node10&#45;&gt;Node11 -->
<g id="edge10" class="edge">
<title>Node10&#45;&gt;Node11</title>
<path fill="none" stroke="midnightblue" d="M934.54,-323.54C950.45,-326.98 967.66,-330.7 984.18,-334.26"/>
<polygon fill="midnightblue" stroke="midnightblue" points="983.84,-337.77 994.35,-336.46 985.32,-330.93 983.84,-337.77"/>
</g>
<!-- Node12 -->
<g id="node12" class="node">
<title>Node12</title>
<g id="a_node12"><a xlink:href="class_tayx_1_1_graphy_1_1_g___graph_shader.xhtml#a67831882b060d17c9d7a754546ef2e6b" target="_top" xlink:title="Updates the average parameter in the material.">
<polygon fill="white" stroke="black" points="991,-232.5 991,-262.5 1139,-262.5 1139,-232.5 991,-232.5"/>
<text text-anchor="start" x="999" y="-250.5" font-family="Helvetica,sans-Serif" font-size="10.00">Tayx.Graphy.G_GraphShader.</text>
<text text-anchor="middle" x="1065" y="-239.5" font-family="Helvetica,sans-Serif" font-size="10.00">UpdateAverage</text>
</a>
</g>
</g>
<!-- Node10&#45;&gt;Node12 -->
<g id="edge11" class="edge">
<title>Node10&#45;&gt;Node12</title>
<path fill="none" stroke="midnightblue" d="M925.3,-294.37C935.22,-291.53 945.44,-288.51 955,-285.5 974.12,-279.49 994.94,-272.37 1013.21,-265.94"/>
<polygon fill="midnightblue" stroke="midnightblue" points="1014.54,-269.18 1022.79,-262.54 1012.2,-262.58 1014.54,-269.18"/>
</g>
<!-- Node13 -->
<g id="node13" class="node">
<title>Node13</title>
<g id="a_node13"><a xlink:href="class_tayx_1_1_graphy_1_1_g___graph_shader.xhtml#ac4ec72181f804fc7e8516292bd3a5995" target="_top" xlink:title="Updates the colors in the material.">
<polygon fill="white" stroke="black" points="991,-287.5 991,-317.5 1139,-317.5 1139,-287.5 991,-287.5"/>
<text text-anchor="start" x="999" y="-305.5" font-family="Helvetica,sans-Serif" font-size="10.00">Tayx.Graphy.G_GraphShader.</text>
<text text-anchor="middle" x="1065" y="-294.5" font-family="Helvetica,sans-Serif" font-size="10.00">UpdateColors</text>
</a>
</g>
</g>
<!-- Node10&#45;&gt;Node13 -->
<g id="edge12" class="edge">
<title>Node10&#45;&gt;Node13</title>
<path fill="none" stroke="midnightblue" d="M934.54,-307.16C949.39,-306.62 965.38,-306.05 980.88,-305.49"/>
<polygon fill="midnightblue" stroke="midnightblue" points="981.11,-308.99 990.98,-305.13 980.86,-301.99 981.11,-308.99"/>
</g>
<!-- Node14 -->
<g id="node14" class="node">
<title>Node14</title>
<g id="a_node14"><a xlink:href="class_tayx_1_1_graphy_1_1_g___graph_shader.xhtml#af57c3227f9ad5e7a55f17532749cbf18" target="_top" xlink:title="Updates the thresholds in the material.">
<polygon fill="white" stroke="black" points="991,-171.5 991,-201.5 1139,-201.5 1139,-171.5 991,-171.5"/>
<text text-anchor="start" x="999" y="-189.5" font-family="Helvetica,sans-Serif" font-size="10.00">Tayx.Graphy.G_GraphShader.</text>
<text text-anchor="middle" x="1065" y="-178.5" font-family="Helvetica,sans-Serif" font-size="10.00">UpdateThresholds</text>
</a>
</g>
</g>
<!-- Node10&#45;&gt;Node14 -->
<g id="edge13" class="edge">
<title>Node10&#45;&gt;Node14</title>
<path fill="none" stroke="midnightblue" d="M934.65,-297.06C941.93,-294.01 948.91,-290.22 955,-285.5 980.19,-265.98 967.84,-245.38 991,-223.5 998.05,-216.84 1006.54,-211.1 1015.19,-206.26"/>
<polygon fill="midnightblue" stroke="midnightblue" points="1016.97,-209.28 1024.21,-201.55 1013.72,-203.08 1016.97,-209.28"/>
</g>
<!-- Node17 -->
<g id="node17" class="node">
<title>Node17</title>
<g id="a_node17"><a xlink:href="class_tayx_1_1_graphy_1_1_audio_1_1_g___audio_monitor.xhtml#a3ecfbab2cd037e4c289d57969854292f" target="_top" xlink:title="Tries to find an audio listener in the main camera.">
<polygon fill="white" stroke="black" points="788.5,-392.5 788.5,-422.5 948.5,-422.5 948.5,-392.5 788.5,-392.5"/>
<text text-anchor="start" x="796.5" y="-410.5" font-family="Helvetica,sans-Serif" font-size="10.00">Tayx.Graphy.Audio.G</text>
<text text-anchor="middle" x="868.5" y="-399.5" font-family="Helvetica,sans-Serif" font-size="10.00">_AudioMonitor.FindAudioListener</text>
</a>
</g>
</g>
<!-- Node16&#45;&gt;Node17 -->
<g id="edge16" class="edge">
<title>Node16&#45;&gt;Node17</title>
<path fill="none" stroke="midnightblue" d="M741.73,-407.5C753.66,-407.5 766.01,-407.5 778.1,-407.5"/>
<polygon fill="midnightblue" stroke="midnightblue" points="778.19,-411 788.19,-407.5 778.19,-404 778.19,-411"/>
</g>
<!-- Node20 -->
<g id="node20" class="node">
<title>Node20</title>
<g id="a_node20"><a xlink:href="class_tayx_1_1_graphy_1_1_fps_1_1_g___fps_manager.xhtml#af91e873d1642e9d13ce648a65fc87949" target="_top" xlink:title="Set the module state.">
<polygon fill="white" stroke="black" points="578,-245.5 578,-275.5 742,-275.5 742,-245.5 578,-245.5"/>
<text text-anchor="start" x="586" y="-263.5" font-family="Helvetica,sans-Serif" font-size="10.00">Tayx.Graphy.Fps.G_FpsManager.</text>
<text text-anchor="middle" x="660" y="-252.5" font-family="Helvetica,sans-Serif" font-size="10.00">SetState</text>
</a>
</g>
</g>
<!-- Node19&#45;&gt;Node20 -->
<g id="edge19" class="edge">
<title>Node19&#45;&gt;Node20</title>
<path fill="none" stroke="midnightblue" d="M534.12,-260.5C545.15,-260.5 556.54,-260.5 567.74,-260.5"/>
<polygon fill="midnightblue" stroke="midnightblue" points="567.95,-264 577.95,-260.5 567.95,-257 567.95,-264"/>
</g>
<!-- Node22 -->
<g id="node22" class="node">
<title>Node22</title>
<g id="a_node22"><a xlink:href="class_tayx_1_1_graphy_1_1_fps_1_1_g___fps_graph.xhtml#a3e2ae8087be00c2a8bcfcda9d1c3c50c" target="_top" xlink:title=" ">
<polygon fill="white" stroke="black" points="583.5,-343.5 583.5,-373.5 736.5,-373.5 736.5,-343.5 583.5,-343.5"/>
<text text-anchor="start" x="591.5" y="-361.5" font-family="Helvetica,sans-Serif" font-size="10.00">Tayx.Graphy.Fps.G_FpsGraph.</text>
<text text-anchor="middle" x="660" y="-350.5" font-family="Helvetica,sans-Serif" font-size="10.00">UpdateParameters</text>
</a>
</g>
</g>
<!-- Node19&#45;&gt;Node22 -->
<g id="edge21" class="edge">
<title>Node19&#45;&gt;Node22</title>
<path fill="none" stroke="midnightblue" d="M473.89,-275.74C497.27,-292.19 536.77,-318.23 574,-334.5 578.62,-336.52 583.46,-338.42 588.39,-340.19"/>
<polygon fill="midnightblue" stroke="midnightblue" points="587.33,-343.53 597.92,-343.45 589.59,-336.9 587.33,-343.53"/>
</g>
<!-- Node24 -->
<g id="node24" class="node">
<title>Node24</title>
<g id="a_node24"><a xlink:href="class_tayx_1_1_graphy_1_1_fps_1_1_g___fps_monitor.xhtml#a5d6eaeff0dd71849ecf40e4ba5cbae47" target="_top" xlink:title=" ">
<polygon fill="white" stroke="black" points="580.5,-147.5 580.5,-177.5 739.5,-177.5 739.5,-147.5 580.5,-147.5"/>
<text text-anchor="start" x="588.5" y="-165.5" font-family="Helvetica,sans-Serif" font-size="10.00">Tayx.Graphy.Fps.G_FpsMonitor.</text>
<text text-anchor="middle" x="660" y="-154.5" font-family="Helvetica,sans-Serif" font-size="10.00">UpdateParameters</text>
</a>
</g>
</g>
<!-- Node19&#45;&gt;Node24 -->
<g id="edge26" class="edge">
<title>Node19&#45;&gt;Node24</title>
<path fill="none" stroke="midnightblue" d="M474.38,-245.27C497.87,-229.1 537.17,-203.7 574,-187.5 579.32,-185.16 584.92,-182.96 590.61,-180.92"/>
<polygon fill="midnightblue" stroke="midnightblue" points="591.89,-184.18 600.22,-177.64 589.63,-177.56 591.89,-184.18"/>
</g>
<!-- Node25 -->
<g id="node25" class="node">
<title>Node25</title>
<g id="a_node25"><a xlink:href="class_tayx_1_1_graphy_1_1_fps_1_1_g___fps_text.xhtml#a8e67396a0b2427f771edb5ccaabe3581" target="_top" xlink:title=" ">
<polygon fill="white" stroke="black" points="587,-196.5 587,-226.5 733,-226.5 733,-196.5 587,-196.5"/>
<text text-anchor="start" x="595" y="-214.5" font-family="Helvetica,sans-Serif" font-size="10.00">Tayx.Graphy.Fps.G_FpsText.</text>
<text text-anchor="middle" x="660" y="-203.5" font-family="Helvetica,sans-Serif" font-size="10.00">UpdateParameters</text>
</a>
</g>
</g>
<!-- Node19&#45;&gt;Node25 -->
<g id="edge27" class="edge">
<title>Node19&#45;&gt;Node25</title>
<path fill="none" stroke="midnightblue" d="M516.21,-245.47C538.25,-240.22 563.18,-234.29 585.96,-228.87"/>
<polygon fill="midnightblue" stroke="midnightblue" points="586.99,-232.23 595.91,-226.51 585.37,-225.42 586.99,-232.23"/>
</g>
<!-- Node21 -->
<g id="node21" class="node">
<title>Node21</title>
<g id="a_node21"><a xlink:href="class_tayx_1_1_graphy_1_1_fps_1_1_g___fps_manager.xhtml#ab34052fcec562720da46d628a11c35b6" target="_top" xlink:title=" ">
<polygon fill="white" stroke="black" points="786.5,-196.5 786.5,-226.5 950.5,-226.5 950.5,-196.5 786.5,-196.5"/>
<text text-anchor="start" x="794.5" y="-214.5" font-family="Helvetica,sans-Serif" font-size="10.00">Tayx.Graphy.Fps.G_FpsManager.</text>
<text text-anchor="middle" x="868.5" y="-203.5" font-family="Helvetica,sans-Serif" font-size="10.00">SetGraphActive</text>
</a>
</g>
</g>
<!-- Node20&#45;&gt;Node21 -->
<g id="edge20" class="edge">
<title>Node20&#45;&gt;Node21</title>
<path fill="none" stroke="midnightblue" d="M724.36,-245.47C746.46,-240.22 771.44,-234.29 794.28,-228.87"/>
<polygon fill="midnightblue" stroke="midnightblue" points="795.34,-232.22 804.26,-226.51 793.72,-225.41 795.34,-232.22"/>
</g>
<!-- Node22&#45;&gt;Node15 -->
<g id="edge25" class="edge">
<title>Node22&#45;&gt;Node15</title>
<path fill="none" stroke="midnightblue" d="M730.09,-343.35C735.7,-340.83 741.09,-337.91 746,-334.5 768.21,-319.1 759.86,-301 782,-285.5 784.87,-283.49 787.91,-281.64 791.06,-279.93"/>
<polygon fill="midnightblue" stroke="midnightblue" points="792.71,-283.02 800.18,-275.51 789.65,-276.72 792.71,-283.02"/>
</g>
<!-- Node23 -->
<g id="node23" class="node">
<title>Node23</title>
<g id="a_node23"><a xlink:href="class_tayx_1_1_graphy_1_1_fps_1_1_g___fps_graph.xhtml#ac85a9f98faa49d17ab7bac84c18785b1" target="_top" xlink:title="Creates the points for the graph/s.">
<polygon fill="white" stroke="black" points="792,-343.5 792,-373.5 945,-373.5 945,-343.5 792,-343.5"/>
<text text-anchor="start" x="800" y="-361.5" font-family="Helvetica,sans-Serif" font-size="10.00">Tayx.Graphy.Fps.G_FpsGraph.</text>
<text text-anchor="middle" x="868.5" y="-350.5" font-family="Helvetica,sans-Serif" font-size="10.00">CreatePoints</text>
</a>
</g>
</g>
<!-- Node22&#45;&gt;Node23 -->
<g id="edge22" class="edge">
<title>Node22&#45;&gt;Node23</title>
<path fill="none" stroke="midnightblue" d="M736.72,-358.5C751.31,-358.5 766.69,-358.5 781.58,-358.5"/>
<polygon fill="midnightblue" stroke="midnightblue" points="781.79,-362 791.79,-358.5 781.79,-355 781.79,-362"/>
</g>
<!-- Node23&#45;&gt;Node11 -->
<g id="edge23" class="edge">
<title>Node23&#45;&gt;Node11</title>
<path fill="none" stroke="midnightblue" d="M945.26,-355.77C956.81,-355.36 968.78,-354.93 980.49,-354.51"/>
<polygon fill="midnightblue" stroke="midnightblue" points="980.82,-358 990.68,-354.14 980.56,-351 980.82,-358"/>
</g>
<!-- Node23&#45;&gt;Node13 -->
<g id="edge24" class="edge">
<title>Node23&#45;&gt;Node13</title>
<path fill="none" stroke="midnightblue" d="M923.35,-343.49C933.85,-340.53 944.78,-337.44 955,-334.5 970.78,-329.97 987.82,-325 1003.63,-320.36"/>
<polygon fill="midnightblue" stroke="midnightblue" points="1004.69,-323.7 1013.29,-317.52 1002.71,-316.98 1004.69,-323.7"/>
</g>
<!-- Node27 -->
<g id="node27" class="node">
<title>Node27</title>
<g id="a_node27"><a xlink:href="class_tayx_1_1_graphy_1_1_ram_1_1_g___ram_manager.xhtml#a00af4a150c20f8d373fb6df080b1e3e1" target="_top" xlink:title="Set the module state.">
<polygon fill="white" stroke="black" points="574,-49.5 574,-79.5 746,-79.5 746,-49.5 574,-49.5"/>
<text text-anchor="start" x="582" y="-67.5" font-family="Helvetica,sans-Serif" font-size="10.00">Tayx.Graphy.Ram.G_RamManager.</text>
<text text-anchor="middle" x="660" y="-56.5" font-family="Helvetica,sans-Serif" font-size="10.00">SetState</text>
</a>
</g>
</g>
<!-- Node26&#45;&gt;Node27 -->
<g id="edge29" class="edge">
<title>Node26&#45;&gt;Node27</title>
<path fill="none" stroke="midnightblue" d="M538.28,-79.15C546.71,-78.13 555.3,-77.08 563.83,-76.05"/>
<polygon fill="midnightblue" stroke="midnightblue" points="564.28,-79.52 573.79,-74.84 563.44,-72.57 564.28,-79.52"/>
</g>
<!-- Node29 -->
<g id="node29" class="node">
<title>Node29</title>
<g id="a_node29"><a xlink:href="class_tayx_1_1_graphy_1_1_ram_1_1_g___ram_graph.xhtml#a664d3277ea728c0f7750211346ca3908" target="_top" xlink:title=" ">
<polygon fill="white" stroke="black" points="579.5,-98.5 579.5,-128.5 740.5,-128.5 740.5,-98.5 579.5,-98.5"/>
<text text-anchor="start" x="587.5" y="-116.5" font-family="Helvetica,sans-Serif" font-size="10.00">Tayx.Graphy.Ram.G_RamGraph.</text>
<text text-anchor="middle" x="660" y="-105.5" font-family="Helvetica,sans-Serif" font-size="10.00">UpdateParameters</text>
</a>
</g>
</g>
<!-- Node26&#45;&gt;Node29 -->
<g id="edge31" class="edge">
<title>Node26&#45;&gt;Node29</title>
<path fill="none" stroke="midnightblue" d="M538.28,-99.43C548.49,-100.62 558.94,-101.84 569.21,-103.04"/>
<polygon fill="midnightblue" stroke="midnightblue" points="569.07,-106.55 579.41,-104.23 569.88,-99.59 569.07,-106.55"/>
</g>
<!-- Node32 -->
<g id="node32" class="node">
<title>Node32</title>
<g id="a_node32"><a xlink:href="class_tayx_1_1_graphy_1_1_ram_1_1_g___ram_text.xhtml#a0e102d46ef660a8b0cd1dbe4635f6d88" target="_top" xlink:title=" ">
<polygon fill="white" stroke="black" points="583.5,-0.5 583.5,-30.5 736.5,-30.5 736.5,-0.5 583.5,-0.5"/>
<text text-anchor="start" x="591.5" y="-18.5" font-family="Helvetica,sans-Serif" font-size="10.00">Tayx.Graphy.Ram.G_RamText.</text>
<text text-anchor="middle" x="660" y="-7.5" font-family="Helvetica,sans-Serif" font-size="10.00">UpdateParameters</text>
</a>
</g>
</g>
<!-- Node26&#45;&gt;Node32 -->
<g id="edge40" class="edge">
<title>Node26&#45;&gt;Node32</title>
<path fill="none" stroke="midnightblue" d="M486.5,-74.42C510.56,-63.89 543.93,-49.92 574,-39.5 579.9,-37.46 586.06,-35.46 592.27,-33.54"/>
<polygon fill="midnightblue" stroke="midnightblue" points="593.46,-36.84 602.02,-30.6 591.43,-30.14 593.46,-36.84"/>
</g>
<!-- Node28 -->
<g id="node28" class="node">
<title>Node28</title>
<g id="a_node28"><a xlink:href="class_tayx_1_1_graphy_1_1_ram_1_1_g___ram_manager.xhtml#a773c87f61c2bce8bef6c324cda1b30f4" target="_top" xlink:title=" ">
<polygon fill="white" stroke="black" points="782.5,-49.5 782.5,-79.5 954.5,-79.5 954.5,-49.5 782.5,-49.5"/>
<text text-anchor="start" x="790.5" y="-67.5" font-family="Helvetica,sans-Serif" font-size="10.00">Tayx.Graphy.Ram.G_RamManager.</text>
<text text-anchor="middle" x="868.5" y="-56.5" font-family="Helvetica,sans-Serif" font-size="10.00">SetGraphActive</text>
</a>
</g>
</g>
<!-- Node27&#45;&gt;Node28 -->
<g id="edge30" class="edge">
<title>Node27&#45;&gt;Node28</title>
<path fill="none" stroke="midnightblue" d="M746.18,-64.5C754.73,-64.5 763.44,-64.5 772.08,-64.5"/>
<polygon fill="midnightblue" stroke="midnightblue" points="772.18,-68 782.18,-64.5 772.18,-61 772.18,-68"/>
</g>
<!-- Node29&#45;&gt;Node15 -->
<g id="edge39" class="edge">
<title>Node29&#45;&gt;Node15</title>
<path fill="none" stroke="midnightblue" d="M732.06,-128.55C737.12,-131.32 741.85,-134.61 746,-138.5 779.88,-170.21 747.93,-205 782,-236.5 783.28,-237.69 784.62,-238.82 786.01,-239.89"/>
<polygon fill="midnightblue" stroke="midnightblue" points="784.13,-242.85 794.4,-245.46 788,-237.01 784.13,-242.85"/>
</g>
<!-- Node30 -->
<g id="node30" class="node">
<title>Node30</title>
<g id="a_node30"><a xlink:href="class_tayx_1_1_graphy_1_1_ram_1_1_g___ram_graph.xhtml#a9b4664e5086ead30d31ef074a746a167" target="_top" xlink:title="Creates the points for the graph/s.">
<polygon fill="white" stroke="black" points="788,-147.5 788,-177.5 949,-177.5 949,-147.5 788,-147.5"/>
<text text-anchor="start" x="796" y="-165.5" font-family="Helvetica,sans-Serif" font-size="10.00">Tayx.Graphy.Ram.G_RamGraph.</text>
<text text-anchor="middle" x="868.5" y="-154.5" font-family="Helvetica,sans-Serif" font-size="10.00">CreatePoints</text>
</a>
</g>
</g>
<!-- Node29&#45;&gt;Node30 -->
<g id="edge32" class="edge">
<title>Node29&#45;&gt;Node30</title>
<path fill="none" stroke="midnightblue" d="M724.36,-128.53C746.46,-133.78 771.44,-139.71 794.28,-145.13"/>
<polygon fill="midnightblue" stroke="midnightblue" points="793.72,-148.59 804.26,-147.49 795.34,-141.78 793.72,-148.59"/>
</g>
<!-- Node31 -->
<g id="node31" class="node">
<title>Node31</title>
<g id="a_node31"><a xlink:href="class_tayx_1_1_graphy_1_1_ram_1_1_g___ram_graph.xhtml#ac673e22836461feb3db6830ff707fade" target="_top" xlink:title=" ">
<polygon fill="white" stroke="black" points="782,-104 782,-123 955,-123 955,-104 782,-104"/>
<text text-anchor="middle" x="868.5" y="-111" font-family="Helvetica,sans-Serif" font-size="10.00">Tayx.Graphy.Ram.G_RamGraph.Init</text>
</a>
</g>
</g>
<!-- Node29&#45;&gt;Node31 -->
<g id="edge37" class="edge">
<title>Node29&#45;&gt;Node31</title>
<path fill="none" stroke="midnightblue" d="M740.54,-106.91C750.68,-106.77 761.15,-106.72 771.51,-106.76"/>
<polygon fill="midnightblue" stroke="midnightblue" points="771.8,-110.27 781.83,-106.84 771.85,-103.27 771.8,-110.27"/>
</g>
<!-- Node30&#45;&gt;Node11 -->
<g id="edge33" class="edge">
<title>Node30&#45;&gt;Node11</title>
<path fill="none" stroke="midnightblue" d="M942.23,-177.53C946.9,-180.32 951.24,-183.61 955,-187.5 999.68,-233.67 947.09,-280.6 991,-327.5 991.9,-328.46 992.83,-329.38 993.8,-330.26"/>
<polygon fill="midnightblue" stroke="midnightblue" points="991.77,-333.11 1001.85,-336.34 995.99,-327.52 991.77,-333.11"/>
</g>
<!-- Node30&#45;&gt;Node12 -->
<g id="edge34" class="edge">
<title>Node30&#45;&gt;Node12</title>
<path fill="none" stroke="midnightblue" d="M929.69,-177.58C938.34,-180.47 947.01,-183.78 955,-187.5 972.43,-195.63 974.34,-201.89 991,-211.5 1000.84,-217.17 1011.7,-222.84 1021.97,-227.93"/>
<polygon fill="midnightblue" stroke="midnightblue" points="1020.66,-231.19 1031.18,-232.44 1023.74,-224.9 1020.66,-231.19"/>
</g>
<!-- Node30&#45;&gt;Node13 -->
<g id="edge35" class="edge">
<title>Node30&#45;&gt;Node13</title>
<path fill="none" stroke="midnightblue" d="M940.36,-177.51C945.64,-180.29 950.61,-183.59 955,-187.5 985.64,-214.78 961.84,-243.65 991,-272.5 994.74,-276.2 999,-279.46 1003.54,-282.34"/>
<polygon fill="midnightblue" stroke="midnightblue" points="1002.12,-285.56 1012.55,-287.41 1005.55,-279.46 1002.12,-285.56"/>
</g>
<!-- Node30&#45;&gt;Node14 -->
<g id="edge36" class="edge">
<title>Node30&#45;&gt;Node14</title>
<path fill="none" stroke="midnightblue" d="M949.17,-172.33C959.59,-173.62 970.28,-174.94 980.75,-176.23"/>
<polygon fill="midnightblue" stroke="midnightblue" points="980.35,-179.71 990.71,-177.46 981.21,-172.76 980.35,-179.71"/>
</g>
<!-- Node31&#45;&gt;Node29 -->
<g id="edge38" class="edge">
<title>Node31&#45;&gt;Node29</title>
<path fill="none" stroke="midnightblue" d="M781.83,-120.16C771.57,-120.27 761.08,-120.28 750.78,-120.2"/>
<polygon fill="midnightblue" stroke="midnightblue" points="750.58,-116.7 740.54,-120.09 750.5,-123.7 750.58,-116.7"/>
</g>
</g>
</svg>
