<?xml version="1.0" encoding="UTF-8" standalone="no"?>
<!DOCTYPE svg PUBLIC "-//W3C//DTD SVG 1.1//EN"
 "http://www.w3.org/Graphics/SVG/1.1/DTD/svg11.dtd">
<!-- Generated by graphviz version 2.47.3 (20210619.1520)
 -->
<!-- Title: Photon.Pun.Demo.Cockpit.Forms.ConnectToRegionUIForm Pages: 1 -->
<svg width="288pt" height="185pt"
 viewBox="0.00 0.00 287.50 185.00" xmlns="http://www.w3.org/2000/svg" xmlns:xlink="http://www.w3.org/1999/xlink">
<g id="graph0" class="graph" transform="scale(1 1) rotate(0) translate(4 181)">
<title>Photon.Pun.Demo.Cockpit.Forms.ConnectToRegionUIForm</title>
<polygon fill="white" stroke="transparent" points="-4,4 -4,-181 283.5,-181 283.5,4 -4,4"/>
<!-- Node1 -->
<g id="node1" class="node">
<title>Node1</title>
<g id="a_node1"><a xlink:title="Manager for ConnectToRegion UI Form">
<polygon fill="#bfbfbf" stroke="black" points="0,-0.5 0,-30.5 155,-30.5 155,-0.5 0,-0.5"/>
<text text-anchor="start" x="8" y="-18.5" font-family="Helvetica,sans-Serif" font-size="10.00">Photon.Pun.Demo.Cockpit.</text>
<text text-anchor="middle" x="77.5" y="-7.5" font-family="Helvetica,sans-Serif" font-size="10.00">Forms.ConnectToRegionUIForm</text>
</a>
</g>
</g>
<!-- Node2 -->
<g id="node2" class="node">
<title>Node2</title>
<g id="a_node2"><a xlink:title=" ">
<polygon fill="white" stroke="#bfbfbf" points="20,-89.5 20,-108.5 103,-108.5 103,-89.5 20,-89.5"/>
<text text-anchor="middle" x="61.5" y="-96.5" font-family="Helvetica,sans-Serif" font-size="10.00">MonoBehaviour</text>
</a>
</g>
</g>
<!-- Node2&#45;&gt;Node1 -->
<g id="edge1" class="edge">
<title>Node2&#45;&gt;Node1</title>
<path fill="none" stroke="midnightblue" d="M65.19,-79.23C68.09,-64.41 72.09,-44.05 74.73,-30.6"/>
<polygon fill="midnightblue" stroke="midnightblue" points="61.7,-78.79 63.21,-89.28 68.57,-80.14 61.7,-78.79"/>
</g>
<!-- Node3 -->
<g id="node3" class="node">
<title>Node3</title>
<g id="a_node3"><a xlink:href="class_photon_1_1_pun_1_1_demo_1_1_cockpit_1_1_forms_1_1_connect_to_region_u_i_form_1_1_on_submit_event.xhtml" target="_top" xlink:title=" ">
<polygon fill="white" stroke="black" points="121.5,-78.5 121.5,-119.5 279.5,-119.5 279.5,-78.5 121.5,-78.5"/>
<text text-anchor="start" x="129.5" y="-107.5" font-family="Helvetica,sans-Serif" font-size="10.00">Photon.Pun.Demo.Cockpit.</text>
<text text-anchor="start" x="129.5" y="-96.5" font-family="Helvetica,sans-Serif" font-size="10.00">Forms.ConnectToRegionUIForm.</text>
<text text-anchor="middle" x="200.5" y="-85.5" font-family="Helvetica,sans-Serif" font-size="10.00">OnSubmitEvent</text>
</a>
</g>
</g>
<!-- Node3&#45;&gt;Node1 -->
<g id="edge2" class="edge">
<title>Node3&#45;&gt;Node1</title>
<path fill="none" stroke="#9a32cd" stroke-dasharray="5,2" d="M162.62,-72.9C141.58,-58.96 116.18,-42.13 98.63,-30.5"/>
<polygon fill="#9a32cd" stroke="#9a32cd" points="160.77,-75.87 171.04,-78.48 164.64,-70.04 160.77,-75.87"/>
<text text-anchor="middle" x="166" y="-52" font-family="Helvetica,sans-Serif" font-size="10.00"> OnSubmit</text>
</g>
<!-- Node4 -->
<g id="node4" class="node">
<title>Node4</title>
<g id="a_node4"><a xlink:title=" ">
<polygon fill="white" stroke="#bfbfbf" points="148,-157.5 148,-176.5 253,-176.5 253,-157.5 148,-157.5"/>
<text text-anchor="middle" x="200.5" y="-164.5" font-family="Helvetica,sans-Serif" font-size="10.00">UnityEvent&lt; string &gt;</text>
</a>
</g>
</g>
<!-- Node4&#45;&gt;Node3 -->
<g id="edge3" class="edge">
<title>Node4&#45;&gt;Node3</title>
<path fill="none" stroke="midnightblue" d="M200.5,-147.25C200.5,-138.65 200.5,-128.45 200.5,-119.74"/>
<polygon fill="midnightblue" stroke="midnightblue" points="197,-147.37 200.5,-157.37 204,-147.37 197,-147.37"/>
</g>
</g>
</svg>
