<?xml version="1.0" encoding="UTF-8" standalone="no"?>
<!DOCTYPE svg PUBLIC "-//W3C//DTD SVG 1.1//EN"
 "http://www.w3.org/Graphics/SVG/1.1/DTD/svg11.dtd">
<!-- Generated by graphviz version 2.47.3 (20210619.1520)
 -->
<!-- Title: Photon.Pun.PhotonNetwork.Destroy Pages: 1 -->
<!--zoomable 323 -->
<svg id="main" version="1.1" xmlns="http://www.w3.org/2000/svg" xmlns:xlink="http://www.w3.org/1999/xlink" xml:space="preserve" onload="init(evt)">
<style type="text/css"><![CDATA[
.edge:hover path { stroke: red; }
.edge:hover polygon { stroke: red; fill: red; }
]]></style>
<script type="text/javascript"><![CDATA[
var edges = document.getElementsByTagName('g');
if (edges && edges.length) {
  for (var i=0;i<edges.length;i++) {
    if (edges[i].id.substr(0,4)=='edge') {
      edges[i].setAttribute('class','edge');
    }
  }
}
]]></script>
        <defs>
                <circle id="rim" cx="0" cy="0" r="7"/>
                <circle id="rim2" cx="0" cy="0" r="3.5"/>
                <g id="zoomPlus">
                        <use xlink:href="#rim" fill="#404040">
                                <set attributeName="fill" to="#808080" begin="zoomplus.mouseover" end="zoomplus.mouseout"/>
                        </use>
                        <path d="M-4,0h8M0,-4v8" fill="none" stroke="white" stroke-width="1.5" pointer-events="none"/>
                </g>
                <g id="zoomMin">
                        <use xlink:href="#rim" fill="#404040">
                                <set attributeName="fill" to="#808080" begin="zoomminus.mouseover" end="zoomminus.mouseout"/>
                        </use>
                        <path d="M-4,0h8" fill="none" stroke="white" stroke-width="1.5" pointer-events="none"/>
                </g>
                <g id="dirArrow">
                        <path fill="none" stroke="white" stroke-width="1.5" d="M0,-3.0v7 M-2.5,-0.5L0,-3.0L2.5,-0.5"/>
                </g>
               <g id="resetDef">
                       <use xlink:href="#rim2" fill="#404040">
                               <set attributeName="fill" to="#808080" begin="reset.mouseover" end="reset.mouseout"/>
                       </use>
               </g>
        </defs>

<script type="text/javascript">
var viewWidth = 542;
var viewHeight = 323;
var sectionId = 'dynsection-28';
</script>
<script xlink:href="svgpan.js"/>
<svg id="graph" class="graph">
<g id="viewport">
<title>Photon.Pun.PhotonNetwork.Destroy</title>
<polygon fill="white" stroke="transparent" points="-4,4 -4,-318.5 538,-318.5 538,4 -4,4"/>
<!-- Node1 -->
<g id="node1" class="node">
<title>Node1</title>
<g id="a_node1"><a xlink:title="Network&#45;Destroy the GameObject associated with the PhotonView, unless the PhotonView is static or not...">
<polygon fill="#bfbfbf" stroke="black" points="394,-137 394,-167 534,-167 534,-137 394,-137"/>
<text text-anchor="start" x="402" y="-155" font-family="Helvetica,sans-Serif" font-size="10.00">Photon.Pun.PhotonNetwork.</text>
<text text-anchor="middle" x="464" y="-144" font-family="Helvetica,sans-Serif" font-size="10.00">Destroy</text>
</a>
</g>
</g>
<!-- Node2 -->
<g id="node2" class="node">
<title>Node2</title>
<g id="a_node2"><a xlink:href="class_photon_1_1_pun_1_1_utility_scripts_1_1_on_joined_instantiate.xhtml#a67a4398ef893313273075525fd416f2a" target="_top" xlink:title="Destroy all objects that have been spawned by this component for this client.">
<polygon fill="white" stroke="black" points="179,-284 179,-314 358,-314 358,-284 179,-284"/>
<text text-anchor="start" x="187" y="-302" font-family="Helvetica,sans-Serif" font-size="10.00">Photon.Pun.UtilityScripts.</text>
<text text-anchor="middle" x="268.5" y="-291" font-family="Helvetica,sans-Serif" font-size="10.00">OnJoinedInstantiate.DespawnObjects</text>
</a>
</g>
</g>
<!-- Node1&#45;&gt;Node2 -->
<g id="edge1" class="edge">
<title>Node1&#45;&gt;Node2</title>
<path fill="none" stroke="midnightblue" d="M449,-175.77C431.32,-203.71 398.28,-249.49 358,-275 352.62,-278.41 346.76,-281.33 340.7,-283.85"/>
<polygon fill="midnightblue" stroke="midnightblue" points="452.12,-177.38 454.4,-167.03 446.17,-173.7 452.12,-177.38"/>
</g>
<!-- Node3 -->
<g id="node3" class="node">
<title>Node3</title>
<g id="a_node3"><a xlink:href="class_photon_1_1_pun_1_1_demo_1_1_asteroids_1_1_asteroid.xhtml#a33a7e318d6d9308a29c9e9da93187b8c" target="_top" xlink:title=" ">
<polygon fill="white" stroke="black" points="188,-235 188,-265 349,-265 349,-235 188,-235"/>
<text text-anchor="start" x="196" y="-253" font-family="Helvetica,sans-Serif" font-size="10.00">Photon.Pun.Demo.Asteroids.</text>
<text text-anchor="middle" x="268.5" y="-242" font-family="Helvetica,sans-Serif" font-size="10.00">Asteroid.DestroyAsteroidGlobally</text>
</a>
</g>
</g>
<!-- Node1&#45;&gt;Node3 -->
<g id="edge2" class="edge">
<title>Node1&#45;&gt;Node3</title>
<path fill="none" stroke="midnightblue" d="M437.78,-173.61C417.43,-190.06 387.45,-212.16 358,-226 350.8,-229.39 343.03,-232.36 335.2,-234.97"/>
<polygon fill="midnightblue" stroke="midnightblue" points="440.11,-176.22 445.62,-167.17 435.67,-170.82 440.11,-176.22"/>
</g>
<!-- Node5 -->
<g id="node5" class="node">
<title>Node5</title>
<g id="a_node5"><a xlink:href="class_ability___lis1.xhtml#a4c0c3e8d46bdfbb1d106f4e7ce4bcba0" target="_top" xlink:title=" ">
<polygon fill="white" stroke="black" points="206.5,-186 206.5,-216 330.5,-216 330.5,-186 206.5,-186"/>
<text text-anchor="start" x="214.5" y="-204" font-family="Helvetica,sans-Serif" font-size="10.00">Ability_Lis1.DestroyWith</text>
<text text-anchor="middle" x="268.5" y="-193" font-family="Helvetica,sans-Serif" font-size="10.00">Delay</text>
</a>
</g>
</g>
<!-- Node1&#45;&gt;Node5 -->
<g id="edge4" class="edge">
<title>Node1&#45;&gt;Node5</title>
<path fill="none" stroke="midnightblue" d="M393.7,-169.55C372.45,-174.93 349.27,-180.8 328.76,-185.99"/>
<polygon fill="midnightblue" stroke="midnightblue" points="394.79,-172.88 403.63,-167.03 393.08,-166.1 394.79,-172.88"/>
</g>
<!-- Node7 -->
<g id="node7" class="node">
<title>Node7</title>
<g id="a_node7"><a xlink:href="class_ability___lis4.xhtml#a49fb47c797c6d390a9ace1a12b54a994" target="_top" xlink:title=" ">
<polygon fill="white" stroke="black" points="206.5,-137 206.5,-167 330.5,-167 330.5,-137 206.5,-137"/>
<text text-anchor="start" x="214.5" y="-155" font-family="Helvetica,sans-Serif" font-size="10.00">Ability_Lis4.DestroyWith</text>
<text text-anchor="middle" x="268.5" y="-144" font-family="Helvetica,sans-Serif" font-size="10.00">Delay</text>
</a>
</g>
</g>
<!-- Node1&#45;&gt;Node7 -->
<g id="edge6" class="edge">
<title>Node1&#45;&gt;Node7</title>
<path fill="none" stroke="midnightblue" d="M383.68,-152C366.03,-152 347.59,-152 330.79,-152"/>
<polygon fill="midnightblue" stroke="midnightblue" points="383.96,-155.5 393.96,-152 383.96,-148.5 383.96,-155.5"/>
</g>
<!-- Node9 -->
<g id="node9" class="node">
<title>Node9</title>
<g id="a_node9"><a xlink:href="class_photon_1_1_pun_1_1_utility_scripts_1_1_on_click_destroy.xhtml#a9707e54ccb036725e0fa7bb2d97d1e06" target="_top" xlink:title=" ">
<polygon fill="white" stroke="black" points="192,-88 192,-118 345,-118 345,-88 192,-88"/>
<text text-anchor="start" x="200" y="-106" font-family="Helvetica,sans-Serif" font-size="10.00">Photon.Pun.UtilityScripts.</text>
<text text-anchor="middle" x="268.5" y="-95" font-family="Helvetica,sans-Serif" font-size="10.00">OnClickDestroy.OnPointerClick</text>
</a>
</g>
</g>
<!-- Node1&#45;&gt;Node9 -->
<g id="edge8" class="edge">
<title>Node1&#45;&gt;Node9</title>
<path fill="none" stroke="midnightblue" d="M393.7,-134.45C372.45,-129.07 349.27,-123.2 328.76,-118.01"/>
<polygon fill="midnightblue" stroke="midnightblue" points="393.08,-137.9 403.63,-136.97 394.79,-131.12 393.08,-137.9"/>
</g>
<!-- Node10 -->
<g id="node10" class="node">
<title>Node10</title>
<g id="a_node10"><a xlink:href="class_photon_1_1_pun_1_1_demo_1_1_asteroids_1_1_asteroid.xhtml#a95eeb329039853a839a493e173828984" target="_top" xlink:title=" ">
<polygon fill="white" stroke="black" points="197,-39 197,-69 340,-69 340,-39 197,-39"/>
<text text-anchor="start" x="205" y="-57" font-family="Helvetica,sans-Serif" font-size="10.00">Photon.Pun.Demo.Asteroids.</text>
<text text-anchor="middle" x="268.5" y="-46" font-family="Helvetica,sans-Serif" font-size="10.00">Asteroid.Update</text>
</a>
</g>
</g>
<!-- Node1&#45;&gt;Node10 -->
<g id="edge9" class="edge">
<title>Node1&#45;&gt;Node10</title>
<path fill="none" stroke="midnightblue" d="M437.78,-130.39C417.43,-113.94 387.45,-91.84 358,-78 350.8,-74.61 343.03,-71.64 335.2,-69.03"/>
<polygon fill="midnightblue" stroke="midnightblue" points="435.67,-133.18 445.62,-136.83 440.11,-127.78 435.67,-133.18"/>
</g>
<!-- Node11 -->
<g id="node11" class="node">
<title>Node11</title>
<g id="a_node11"><a xlink:href="class_ranged_attack_follow.xhtml#a3af5fcd78604ae899fb6c46c184987fa" target="_top" xlink:title=" ">
<polygon fill="white" stroke="black" points="198.5,-0.5 198.5,-19.5 338.5,-19.5 338.5,-0.5 198.5,-0.5"/>
<text text-anchor="middle" x="268.5" y="-7.5" font-family="Helvetica,sans-Serif" font-size="10.00">RangedAttackFollow.Update</text>
</a>
</g>
</g>
<!-- Node1&#45;&gt;Node11 -->
<g id="edge10" class="edge">
<title>Node1&#45;&gt;Node11</title>
<path fill="none" stroke="midnightblue" d="M449.23,-127.86C431.77,-99.56 398.94,-53.42 358,-29 351.52,-25.14 344.36,-22.05 337,-19.59"/>
<polygon fill="midnightblue" stroke="midnightblue" points="446.4,-129.95 454.55,-136.72 452.4,-126.35 446.4,-129.95"/>
</g>
<!-- Node4 -->
<g id="node4" class="node">
<title>Node4</title>
<g id="a_node4"><a xlink:href="class_photon_1_1_pun_1_1_demo_1_1_asteroids_1_1_asteroid.xhtml#a8f794045c89a9f01ea4167a295e330e0" target="_top" xlink:title=" ">
<polygon fill="white" stroke="black" points="0,-235 0,-265 143,-265 143,-235 0,-235"/>
<text text-anchor="start" x="8" y="-253" font-family="Helvetica,sans-Serif" font-size="10.00">Photon.Pun.Demo.Asteroids.</text>
<text text-anchor="middle" x="71.5" y="-242" font-family="Helvetica,sans-Serif" font-size="10.00">Asteroid.OnCollisionEnter</text>
</a>
</g>
</g>
<!-- Node3&#45;&gt;Node4 -->
<g id="edge3" class="edge">
<title>Node3&#45;&gt;Node4</title>
<path fill="none" stroke="midnightblue" d="M177.74,-250C166.11,-250 154.34,-250 143.08,-250"/>
<polygon fill="midnightblue" stroke="midnightblue" points="177.9,-253.5 187.9,-250 177.9,-246.5 177.9,-253.5"/>
</g>
<!-- Node6 -->
<g id="node6" class="node">
<title>Node6</title>
<g id="a_node6"><a xlink:href="class_ability___lis1.xhtml#a371b24888853ef1cc908b244f3c1b15c" target="_top" xlink:title=" ">
<polygon fill="white" stroke="black" points="19,-191.5 19,-210.5 124,-210.5 124,-191.5 19,-191.5"/>
<text text-anchor="middle" x="71.5" y="-198.5" font-family="Helvetica,sans-Serif" font-size="10.00">Ability_Lis1.Initialize</text>
</a>
</g>
</g>
<!-- Node5&#45;&gt;Node6 -->
<g id="edge5" class="edge">
<title>Node5&#45;&gt;Node6</title>
<path fill="none" stroke="midnightblue" d="M196.28,-201C172.43,-201 146.33,-201 124.26,-201"/>
<polygon fill="midnightblue" stroke="midnightblue" points="196.34,-204.5 206.34,-201 196.34,-197.5 196.34,-204.5"/>
</g>
<!-- Node8 -->
<g id="node8" class="node">
<title>Node8</title>
<g id="a_node8"><a xlink:href="class_ability___lis4.xhtml#a81b6301f39ee1f8a105aaf40bb6ec51e" target="_top" xlink:title=" ">
<polygon fill="white" stroke="black" points="19,-142.5 19,-161.5 124,-161.5 124,-142.5 19,-142.5"/>
<text text-anchor="middle" x="71.5" y="-149.5" font-family="Helvetica,sans-Serif" font-size="10.00">Ability_Lis4.Initialize</text>
</a>
</g>
</g>
<!-- Node7&#45;&gt;Node8 -->
<g id="edge7" class="edge">
<title>Node7&#45;&gt;Node8</title>
<path fill="none" stroke="midnightblue" d="M196.28,-152C172.43,-152 146.33,-152 124.26,-152"/>
<polygon fill="midnightblue" stroke="midnightblue" points="196.34,-155.5 206.34,-152 196.34,-148.5 196.34,-155.5"/>
</g>
</g>
</svg>
        <g id="navigator" transform="translate(0 0)" fill="#404254">
                <rect fill="#f2f5e9" fill-opacity="0.5" stroke="#606060" stroke-width=".5" x="0" y="0" width="60" height="60"/>
                <use id="zoomplus" xlink:href="#zoomPlus" x="17" y="9" onmousedown="handleZoom(evt,'in')"/>
                <use id="zoomminus" xlink:href="#zoomMin" x="42" y="9" onmousedown="handleZoom(evt,'out')"/>
                <use id="reset" xlink:href="#resetDef" x="30" y="36" onmousedown="handleReset()"/>
                <g id="arrowUp" xlink:href="#dirArrow" transform="translate(30 24)" onmousedown="handlePan(0,-1)">
                  <use xlink:href="#rim" fill="#404040">
                        <set attributeName="fill" to="#808080" begin="arrowUp.mouseover" end="arrowUp.mouseout"/>
                  </use>
                  <path fill="none" stroke="white" stroke-width="1.5" d="M0,-3.0v7 M-2.5,-0.5L0,-3.0L2.5,-0.5"/>
                </g>
                <g id="arrowRight" xlink:href="#dirArrow" transform="rotate(90) translate(36 -43)" onmousedown="handlePan(1,0)">
                  <use xlink:href="#rim" fill="#404040">
                        <set attributeName="fill" to="#808080" begin="arrowRight.mouseover" end="arrowRight.mouseout"/>
                  </use>
                  <path fill="none" stroke="white" stroke-width="1.5" d="M0,-3.0v7 M-2.5,-0.5L0,-3.0L2.5,-0.5"/>
                </g>
                <g id="arrowDown" xlink:href="#dirArrow" transform="rotate(180) translate(-30 -48)" onmousedown="handlePan(0,1)">
                  <use xlink:href="#rim" fill="#404040">
                        <set attributeName="fill" to="#808080" begin="arrowDown.mouseover" end="arrowDown.mouseout"/>
                  </use>
                  <path fill="none" stroke="white" stroke-width="1.5" d="M0,-3.0v7 M-2.5,-0.5L0,-3.0L2.5,-0.5"/>
                </g>
                <g id="arrowLeft" xlink:href="#dirArrow" transform="rotate(270) translate(-36 17)" onmousedown="handlePan(-1,0)">
                  <use xlink:href="#rim" fill="#404040">
                        <set attributeName="fill" to="#808080" begin="arrowLeft.mouseover" end="arrowLeft.mouseout"/>
                  </use>
                  <path fill="none" stroke="white" stroke-width="1.5" d="M0,-3.0v7 M-2.5,-0.5L0,-3.0L2.5,-0.5"/>
                </g>
        </g>
        <svg viewBox="0 0 15 15" width="100%" height="30px" preserveAspectRatio="xMaxYMin meet">
         <g id="arrow_out" transform="scale(0.3 0.3)">
          <a xlink:href="class_photon_1_1_pun_1_1_photon_network_ada7d7b9bdb306863c66b260dde7c544e_icgraph_org.svg" target="_base">
           <rect id="button" ry="5" rx="5" y="6" x="6" height="38" width="38"
                fill="#f2f5e9" fill-opacity="0.5" stroke="#606060" stroke-width="1.0"/>
           <path id="arrow"
             d="M 11.500037,31.436501 C 11.940474,20.09759 22.043105,11.32322 32.158766,21.979434 L 37.068811,17.246167 C 37.068811,17.246167 37.088388,32 37.088388,32 L 22.160133,31.978069 C 22.160133,31.978069 26.997745,27.140456 26.997745,27.140456 C 18.528582,18.264221 13.291696,25.230495 11.500037,31.436501 z"
             style="fill:#404040;"/>
          </a>
         </g>
        </svg>
</svg>
