<?xml version="1.0" encoding="UTF-8" standalone="no"?>
<!DOCTYPE svg PUBLIC "-//W3C//DTD SVG 1.1//EN"
 "http://www.w3.org/Graphics/SVG/1.1/DTD/svg11.dtd">
<!-- Generated by graphviz version 2.47.3 (20210619.1520)
 -->
<!-- Title: Photon.Chat.ChatClient.SendChannelOperation Pages: 1 -->
<svg width="686pt" height="85pt"
 viewBox="0.00 0.00 686.00 85.00" xmlns="http://www.w3.org/2000/svg" xmlns:xlink="http://www.w3.org/1999/xlink">
<g id="graph0" class="graph" transform="scale(1 1) rotate(0) translate(4 81)">
<title>Photon.Chat.ChatClient.SendChannelOperation</title>
<polygon fill="white" stroke="transparent" points="-4,4 -4,-81 682,-81 682,4 -4,4"/>
<!-- Node1 -->
<g id="node1" class="node">
<title>Node1</title>
<g id="a_node1"><a xlink:title=" ">
<polygon fill="#bfbfbf" stroke="black" points="534,-33 534,-63 678,-63 678,-33 534,-33"/>
<text text-anchor="start" x="542" y="-51" font-family="Helvetica,sans-Serif" font-size="10.00">Photon.Chat.ChatClient.Send</text>
<text text-anchor="middle" x="606" y="-40" font-family="Helvetica,sans-Serif" font-size="10.00">ChannelOperation</text>
</a>
</g>
</g>
<!-- Node2 -->
<g id="node2" class="node">
<title>Node2</title>
<g id="a_node2"><a xlink:href="class_photon_1_1_chat_1_1_chat_client.xhtml#a34ca1fde36c382177f9941c70402e5d7" target="_top" xlink:title="Sends operation to subscribe client to channels, optionally fetching a number of messages from the ca...">
<polygon fill="white" stroke="black" points="327.5,-57.5 327.5,-76.5 492.5,-76.5 492.5,-57.5 327.5,-57.5"/>
<text text-anchor="middle" x="410" y="-64.5" font-family="Helvetica,sans-Serif" font-size="10.00">Photon.Chat.ChatClient.Subscribe</text>
</a>
</g>
</g>
<!-- Node1&#45;&gt;Node2 -->
<g id="edge1" class="edge">
<title>Node1&#45;&gt;Node2</title>
<path fill="none" stroke="midnightblue" d="M523.69,-55.96C513.42,-56.97 502.91,-58 492.63,-59.01"/>
<polygon fill="midnightblue" stroke="midnightblue" points="524.25,-59.43 533.86,-54.97 523.57,-52.46 524.25,-59.43"/>
</g>
<!-- Node3 -->
<g id="node3" class="node">
<title>Node3</title>
<g id="a_node3"><a xlink:href="class_photon_1_1_chat_1_1_chat_client.xhtml#a107f60bcc98b3ed19922d3222f7a32b7" target="_top" xlink:title="Unsubscribes from a list of channels, which stops getting messages from those.">
<polygon fill="white" stroke="black" points="322,-19.5 322,-38.5 498,-38.5 498,-19.5 322,-19.5"/>
<text text-anchor="middle" x="410" y="-26.5" font-family="Helvetica,sans-Serif" font-size="10.00">Photon.Chat.ChatClient.Unsubscribe</text>
</a>
</g>
</g>
<!-- Node1&#45;&gt;Node3 -->
<g id="edge2" class="edge">
<title>Node1&#45;&gt;Node3</title>
<path fill="none" stroke="midnightblue" d="M523.71,-40.04C515.31,-39.22 506.75,-38.38 498.29,-37.55"/>
<polygon fill="midnightblue" stroke="midnightblue" points="523.57,-43.54 533.86,-41.03 524.25,-36.57 523.57,-43.54"/>
</g>
<!-- Node4 -->
<g id="node4" class="node">
<title>Node4</title>
<g id="a_node4"><a xlink:href="class_chat_gui.xhtml#a68f45c78a96103fbc13469b6c0603295" target="_top" xlink:title=" ">
<polygon fill="white" stroke="black" points="149,-19.5 149,-38.5 286,-38.5 286,-19.5 149,-19.5"/>
<text text-anchor="middle" x="217.5" y="-26.5" font-family="Helvetica,sans-Serif" font-size="10.00">ChatGui.SendChatMessage</text>
</a>
</g>
</g>
<!-- Node3&#45;&gt;Node4 -->
<g id="edge3" class="edge">
<title>Node3&#45;&gt;Node4</title>
<path fill="none" stroke="midnightblue" d="M311.73,-29C303.11,-29 294.51,-29 286.22,-29"/>
<polygon fill="midnightblue" stroke="midnightblue" points="311.83,-32.5 321.83,-29 311.83,-25.5 311.83,-32.5"/>
</g>
<!-- Node5 -->
<g id="node5" class="node">
<title>Node5</title>
<g id="a_node5"><a xlink:href="class_chat_gui.xhtml#a4d4a6ffcf4f6191edf14ce7274c91717" target="_top" xlink:title=" ">
<polygon fill="white" stroke="black" points="0.5,-38.5 0.5,-57.5 112.5,-57.5 112.5,-38.5 0.5,-38.5"/>
<text text-anchor="middle" x="56.5" y="-45.5" font-family="Helvetica,sans-Serif" font-size="10.00">ChatGui.OnClickSend</text>
</a>
</g>
</g>
<!-- Node4&#45;&gt;Node5 -->
<g id="edge4" class="edge">
<title>Node4&#45;&gt;Node5</title>
<path fill="none" stroke="midnightblue" d="M138.44,-38.33C129.74,-39.37 121.02,-40.41 112.69,-41.4"/>
<polygon fill="midnightblue" stroke="midnightblue" points="139.09,-41.77 148.61,-37.11 138.26,-34.82 139.09,-41.77"/>
</g>
<!-- Node6 -->
<g id="node6" class="node">
<title>Node6</title>
<g id="a_node6"><a xlink:href="class_chat_gui.xhtml#adcb3927d375b06b5525f47cd6a4ee727" target="_top" xlink:title=" ">
<polygon fill="white" stroke="black" points="0,-0.5 0,-19.5 113,-19.5 113,-0.5 0,-0.5"/>
<text text-anchor="middle" x="56.5" y="-7.5" font-family="Helvetica,sans-Serif" font-size="10.00">ChatGui.OnEnterSend</text>
</a>
</g>
</g>
<!-- Node4&#45;&gt;Node6 -->
<g id="edge5" class="edge">
<title>Node4&#45;&gt;Node6</title>
<path fill="none" stroke="midnightblue" d="M138.58,-19.69C130.01,-18.66 121.41,-17.64 113.18,-16.65"/>
<polygon fill="midnightblue" stroke="midnightblue" points="138.26,-23.18 148.61,-20.89 139.09,-16.23 138.26,-23.18"/>
</g>
</g>
</svg>
