<?xml version="1.0" encoding="UTF-8" standalone="no"?>
<!DOCTYPE svg PUBLIC "-//W3C//DTD SVG 1.1//EN"
 "http://www.w3.org/Graphics/SVG/1.1/DTD/svg11.dtd">
<!-- Generated by graphviz version 2.47.3 (20210619.1520)
 -->
<!-- Title: RangedAttackFollow Pages: 1 -->
<svg width="129pt" height="152pt"
 viewBox="0.00 0.00 128.50 152.00" xmlns="http://www.w3.org/2000/svg" xmlns:xlink="http://www.w3.org/1999/xlink">
<g id="graph0" class="graph" transform="scale(1 1) rotate(0) translate(4 148)">
<title>RangedAttackFollow</title>
<polygon fill="white" stroke="transparent" points="-4,4 -4,-148 124.5,-148 124.5,4 -4,4"/>
<!-- Node1 -->
<g id="node1" class="node">
<title>Node1</title>
<g id="a_node1"><a xlink:title=" ">
<polygon fill="#bfbfbf" stroke="black" points="0,-0.5 0,-19.5 106,-19.5 106,-0.5 0,-0.5"/>
<text text-anchor="middle" x="53" y="-7.5" font-family="Helvetica,sans-Serif" font-size="10.00">RangedAttackFollow</text>
</a>
</g>
</g>
<!-- Node2 -->
<g id="node2" class="node">
<title>Node2</title>
<g id="a_node2"><a xlink:title=" ">
<polygon fill="white" stroke="#bfbfbf" points="7.5,-124.5 7.5,-143.5 90.5,-143.5 90.5,-124.5 7.5,-124.5"/>
<text text-anchor="middle" x="49" y="-131.5" font-family="Helvetica,sans-Serif" font-size="10.00">MonoBehaviour</text>
</a>
</g>
</g>
<!-- Node2&#45;&gt;Node1 -->
<g id="edge1" class="edge">
<title>Node2&#45;&gt;Node1</title>
<path fill="none" stroke="midnightblue" d="M49.62,-114.19C50.5,-87.4 52.07,-39.31 52.71,-19.69"/>
<polygon fill="midnightblue" stroke="midnightblue" points="46.12,-114.12 49.29,-124.23 53.11,-114.35 46.12,-114.12"/>
</g>
<!-- Node3 -->
<g id="node3" class="node">
<title>Node3</title>
<g id="a_node3"><a xlink:href="class_inventory.xhtml" target="_top" xlink:title=" ">
<polygon fill="white" stroke="black" points="65.5,-67.5 65.5,-86.5 120.5,-86.5 120.5,-67.5 65.5,-67.5"/>
<text text-anchor="middle" x="93" y="-74.5" font-family="Helvetica,sans-Serif" font-size="10.00">Inventory</text>
</a>
</g>
</g>
<!-- Node2&#45;&gt;Node3 -->
<g id="edge3" class="edge">
<title>Node2&#45;&gt;Node3</title>
<path fill="none" stroke="midnightblue" d="M62.17,-116.53C70.01,-106.74 79.64,-94.7 86.03,-86.71"/>
<polygon fill="midnightblue" stroke="midnightblue" points="59.39,-114.41 55.88,-124.41 64.86,-118.78 59.39,-114.41"/>
</g>
<!-- Node3&#45;&gt;Node1 -->
<g id="edge2" class="edge">
<title>Node3&#45;&gt;Node1</title>
<path fill="none" stroke="#9a32cd" stroke-dasharray="5,2" d="M82.25,-58.53C74.51,-45.95 64.39,-29.51 58.31,-19.63"/>
<polygon fill="#9a32cd" stroke="#9a32cd" points="79.38,-60.55 87.61,-67.23 85.35,-56.88 79.38,-60.55"/>
<text text-anchor="middle" x="97" y="-41" font-family="Helvetica,sans-Serif" font-size="10.00"> inventory</text>
</g>
</g>
</svg>
