<?xml version="1.0" encoding="UTF-8" standalone="no"?>
<!DOCTYPE svg PUBLIC "-//W3C//DTD SVG 1.1//EN"
 "http://www.w3.org/Graphics/SVG/1.1/DTD/svg11.dtd">
<!-- Generated by graphviz version 2.47.3 (20210619.1520)
 -->
<!-- Title: Photon.Pun.UtilityScripts.PhotonTeamsManager.UpdateTeams Pages: 1 -->
<svg width="677pt" height="258pt"
 viewBox="0.00 0.00 677.00 257.50" xmlns="http://www.w3.org/2000/svg" xmlns:xlink="http://www.w3.org/1999/xlink">
<g id="graph0" class="graph" transform="scale(1 1) rotate(0) translate(4 253.5)">
<title>Photon.Pun.UtilityScripts.PhotonTeamsManager.UpdateTeams</title>
<polygon fill="white" stroke="transparent" points="-4,4 -4,-253.5 673,-253.5 673,4 -4,4"/>
<!-- Node1 -->
<g id="node1" class="node">
<title>Node1</title>
<g id="a_node1"><a xlink:title=" ">
<polygon fill="#bfbfbf" stroke="black" points="492,-121 492,-151 669,-151 669,-121 492,-121"/>
<text text-anchor="start" x="500" y="-139" font-family="Helvetica,sans-Serif" font-size="10.00">Photon.Pun.UtilityScripts.</text>
<text text-anchor="middle" x="580.5" y="-128" font-family="Helvetica,sans-Serif" font-size="10.00">PhotonTeamsManager.UpdateTeams</text>
</a>
</g>
</g>
<!-- Node2 -->
<g id="node2" class="node">
<title>Node2</title>
<g id="a_node2"><a xlink:href="class_photon_1_1_pun_1_1_utility_scripts_1_1_photon_teams_manager.xhtml#add3fdcd4fbfb72ad03d0c9d9694b22aa" target="_top" xlink:title="Called when the LoadBalancingClient entered a room, no matter if this client created it or simply joi...">
<polygon fill="white" stroke="black" points="256,-219 256,-249 439,-249 439,-219 256,-219"/>
<text text-anchor="start" x="264" y="-237" font-family="Helvetica,sans-Serif" font-size="10.00">Photon.Pun.UtilityScripts.</text>
<text text-anchor="middle" x="347.5" y="-226" font-family="Helvetica,sans-Serif" font-size="10.00">PhotonTeamsManager.OnJoinedRoom</text>
</a>
</g>
</g>
<!-- Node1&#45;&gt;Node2 -->
<g id="edge1" class="edge">
<title>Node1&#45;&gt;Node2</title>
<path fill="none" stroke="midnightblue" d="M550.81,-156.83C526.62,-173.47 490.53,-196.22 456,-210 447.48,-213.4 438.37,-216.37 429.2,-218.95"/>
<polygon fill="midnightblue" stroke="midnightblue" points="552.96,-159.6 559.16,-151 548.95,-153.86 552.96,-159.6"/>
</g>
<!-- Node3 -->
<g id="node3" class="node">
<title>Node3</title>
<g id="a_node3"><a xlink:href="class_photon_1_1_pun_1_1_utility_scripts_1_1_photon_teams_manager.xhtml#a1ab50d369d6ddf86605848ce39e99f87" target="_top" xlink:title="Called when a remote player entered the room.">
<polygon fill="white" stroke="black" points="239,-170 239,-200 456,-200 456,-170 239,-170"/>
<text text-anchor="start" x="247" y="-188" font-family="Helvetica,sans-Serif" font-size="10.00">Photon.Pun.UtilityScripts.</text>
<text text-anchor="middle" x="347.5" y="-177" font-family="Helvetica,sans-Serif" font-size="10.00">PhotonTeamsManager.OnPlayerEnteredRoom</text>
</a>
</g>
</g>
<!-- Node1&#45;&gt;Node3 -->
<g id="edge2" class="edge">
<title>Node1&#45;&gt;Node3</title>
<path fill="none" stroke="midnightblue" d="M498.83,-153.11C472.9,-158.61 444.4,-164.66 419.24,-169.99"/>
<polygon fill="midnightblue" stroke="midnightblue" points="499.57,-156.53 508.62,-151.03 498.11,-149.69 499.57,-156.53"/>
</g>
<!-- Node4 -->
<g id="node4" class="node">
<title>Node4</title>
<g id="a_node4"><a xlink:href="class_photon_1_1_pun_1_1_utility_scripts_1_1_photon_teams_manager.xhtml#a555d6e4dd3e070ec789acfb88c900b37" target="_top" xlink:title="Called when a remote player left the room or became inactive.">
<polygon fill="white" stroke="black" points="248,-121 248,-151 447,-151 447,-121 248,-121"/>
<text text-anchor="start" x="256" y="-139" font-family="Helvetica,sans-Serif" font-size="10.00">Photon.Pun.UtilityScripts.</text>
<text text-anchor="middle" x="347.5" y="-128" font-family="Helvetica,sans-Serif" font-size="10.00">PhotonTeamsManager.OnPlayerLeftRoom</text>
</a>
</g>
</g>
<!-- Node1&#45;&gt;Node4 -->
<g id="edge3" class="edge">
<title>Node1&#45;&gt;Node4</title>
<path fill="none" stroke="midnightblue" d="M481.52,-136C470.2,-136 458.64,-136 447.31,-136"/>
<polygon fill="midnightblue" stroke="midnightblue" points="481.84,-139.5 491.84,-136 481.84,-132.5 481.84,-139.5"/>
</g>
<!-- Node5 -->
<g id="node5" class="node">
<title>Node5</title>
<g id="a_node5"><a xlink:href="class_photon_1_1_pun_1_1_utility_scripts_1_1_photon_teams_manager.xhtml#a53f7a32863458bde96c5ee5b9cd7b2c5" target="_top" xlink:title="Called when custom player&#45;properties are changed.">
<polygon fill="white" stroke="black" points="246.5,-60.5 246.5,-101.5 448.5,-101.5 448.5,-60.5 246.5,-60.5"/>
<text text-anchor="start" x="254.5" y="-89.5" font-family="Helvetica,sans-Serif" font-size="10.00">Photon.Pun.UtilityScripts.</text>
<text text-anchor="start" x="254.5" y="-78.5" font-family="Helvetica,sans-Serif" font-size="10.00">PhotonTeamsManager.OnPlayerProperties</text>
<text text-anchor="middle" x="347.5" y="-67.5" font-family="Helvetica,sans-Serif" font-size="10.00">Update</text>
</a>
</g>
</g>
<!-- Node1&#45;&gt;Node5 -->
<g id="edge4" class="edge">
<title>Node1&#45;&gt;Node5</title>
<path fill="none" stroke="midnightblue" d="M506.47,-118.61C483.75,-113.2 458.47,-107.18 434.93,-101.58"/>
<polygon fill="midnightblue" stroke="midnightblue" points="505.84,-122.06 516.38,-120.97 507.46,-115.25 505.84,-122.06"/>
</g>
<!-- Node6 -->
<g id="node6" class="node">
<title>Node6</title>
<g id="a_node6"><a xlink:href="class_photon_1_1_pun_1_1_utility_scripts_1_1_photon_teams_manager.xhtml#afc02f4b968a63873ae8818eff794a083" target="_top" xlink:title="Gets all team mates of a player.">
<polygon fill="white" stroke="black" points="249,-0.5 249,-41.5 446,-41.5 446,-0.5 249,-0.5"/>
<text text-anchor="start" x="257" y="-29.5" font-family="Helvetica,sans-Serif" font-size="10.00">Photon.Pun.UtilityScripts.</text>
<text text-anchor="start" x="257" y="-18.5" font-family="Helvetica,sans-Serif" font-size="10.00">PhotonTeamsManager.TryGetTeamMates</text>
<text text-anchor="middle" x="347.5" y="-7.5" font-family="Helvetica,sans-Serif" font-size="10.00">OfPlayer</text>
</a>
</g>
</g>
<!-- Node1&#45;&gt;Node6 -->
<g id="edge5" class="edge">
<title>Node1&#45;&gt;Node6</title>
<path fill="none" stroke="midnightblue" d="M553.53,-114.31C529.56,-95.24 492.28,-67.97 456,-51 448.54,-47.51 440.6,-44.35 432.53,-41.51"/>
<polygon fill="midnightblue" stroke="midnightblue" points="551.45,-117.13 561.43,-120.68 555.85,-111.68 551.45,-117.13"/>
</g>
<!-- Node7 -->
<g id="node7" class="node">
<title>Node7</title>
<g id="a_node7"><a xlink:href="class_photon_1_1_pun_1_1_utility_scripts_1_1_photon_team_extensions.xhtml#a170286cbb9ae2d63bf025df0e6d22489" target="_top" xlink:title="Try to get the team mates.">
<polygon fill="white" stroke="black" points="0,-6 0,-36 203,-36 203,-6 0,-6"/>
<text text-anchor="start" x="8" y="-24" font-family="Helvetica,sans-Serif" font-size="10.00">Photon.Pun.UtilityScripts.</text>
<text text-anchor="middle" x="101.5" y="-13" font-family="Helvetica,sans-Serif" font-size="10.00">PhotonTeamExtensions.TryGetTeamMates</text>
</a>
</g>
</g>
<!-- Node6&#45;&gt;Node7 -->
<g id="edge6" class="edge">
<title>Node6&#45;&gt;Node7</title>
<path fill="none" stroke="midnightblue" d="M238.41,-21C226.68,-21 214.78,-21 203.15,-21"/>
<polygon fill="midnightblue" stroke="midnightblue" points="238.66,-24.5 248.66,-21 238.66,-17.5 238.66,-24.5"/>
</g>
</g>
</svg>
