<?xml version="1.0" encoding="UTF-8" standalone="no"?>
<!DOCTYPE svg PUBLIC "-//W3C//DTD SVG 1.1//EN"
 "http://www.w3.org/Graphics/SVG/1.1/DTD/svg11.dtd">
<!-- Generated by graphviz version 2.47.3 (20210619.1520)
 -->
<!-- Title: Ability_Passive Pages: 1 -->
<!--zoomable 470 -->
<svg id="main" version="1.1" xmlns="http://www.w3.org/2000/svg" xmlns:xlink="http://www.w3.org/1999/xlink" xml:space="preserve" onload="init(evt)">
<style type="text/css"><![CDATA[
.edge:hover path { stroke: red; }
.edge:hover polygon { stroke: red; fill: red; }
]]></style>
<script type="text/javascript"><![CDATA[
var edges = document.getElementsByTagName('g');
if (edges && edges.length) {
  for (var i=0;i<edges.length;i++) {
    if (edges[i].id.substr(0,4)=='edge') {
      edges[i].setAttribute('class','edge');
    }
  }
}
]]></script>
        <defs>
                <circle id="rim" cx="0" cy="0" r="7"/>
                <circle id="rim2" cx="0" cy="0" r="3.5"/>
                <g id="zoomPlus">
                        <use xlink:href="#rim" fill="#404040">
                                <set attributeName="fill" to="#808080" begin="zoomplus.mouseover" end="zoomplus.mouseout"/>
                        </use>
                        <path d="M-4,0h8M0,-4v8" fill="none" stroke="white" stroke-width="1.5" pointer-events="none"/>
                </g>
                <g id="zoomMin">
                        <use xlink:href="#rim" fill="#404040">
                                <set attributeName="fill" to="#808080" begin="zoomminus.mouseover" end="zoomminus.mouseout"/>
                        </use>
                        <path d="M-4,0h8" fill="none" stroke="white" stroke-width="1.5" pointer-events="none"/>
                </g>
                <g id="dirArrow">
                        <path fill="none" stroke="white" stroke-width="1.5" d="M0,-3.0v7 M-2.5,-0.5L0,-3.0L2.5,-0.5"/>
                </g>
               <g id="resetDef">
                       <use xlink:href="#rim2" fill="#404040">
                               <set attributeName="fill" to="#808080" begin="reset.mouseover" end="reset.mouseout"/>
                       </use>
               </g>
        </defs>

<script type="text/javascript">
var viewWidth = 999;
var viewHeight = 470;
var sectionId = 'dynsection-1';
</script>
<script xlink:href="svgpan.js"/>
<svg id="graph" class="graph">
<g id="viewport">
<title>Ability_Passive</title>
<polygon fill="white" stroke="transparent" points="-4,4 -4,-466 994.5,-466 994.5,4 -4,4"/>
<!-- Node1 -->
<g id="node1" class="node">
<title>Node1</title>
<g id="a_node1"><a xlink:title=" ">
<polygon fill="#bfbfbf" stroke="black" points="70,-0.5 70,-19.5 153,-19.5 153,-0.5 70,-0.5"/>
<text text-anchor="middle" x="111.5" y="-7.5" font-family="Helvetica,sans-Serif" font-size="10.00">Ability_Passive</text>
</a>
</g>
</g>
<!-- Node2 -->
<g id="node2" class="node">
<title>Node2</title>
<g id="a_node2"><a xlink:href="class_ability.xhtml" target="_top" xlink:title=" ">
<polygon fill="white" stroke="black" points="820.5,-288.5 820.5,-307.5 864.5,-307.5 864.5,-288.5 820.5,-288.5"/>
<text text-anchor="middle" x="842.5" y="-295.5" font-family="Helvetica,sans-Serif" font-size="10.00">Ability</text>
</a>
</g>
</g>
<!-- Node2&#45;&gt;Node1 -->
<g id="edge1" class="edge">
<title>Node2&#45;&gt;Node1</title>
<path fill="none" stroke="midnightblue" d="M810.14,-296.31C726.93,-294.3 507.13,-287.46 436.5,-270 415.25,-264.75 412.3,-256.8 391.5,-250 355.62,-238.27 336.63,-257.17 308.5,-232 274.25,-201.36 309.16,-165.29 275.5,-134 251.97,-112.13 232.9,-132.77 205.5,-116 166.02,-91.84 167.56,-72.32 136.5,-38 131.01,-31.94 124.76,-25.19 119.88,-19.95"/>
<polygon fill="midnightblue" stroke="midnightblue" points="810.19,-299.81 820.27,-296.55 810.35,-292.81 810.19,-299.81"/>
</g>
<!-- Node15 -->
<g id="node15" class="node">
<title>Node15</title>
<g id="a_node15"><a xlink:href="class_ability_cooldown.xhtml" target="_top" xlink:title=" ">
<polygon fill="white" stroke="black" points="562.5,-212.5 562.5,-231.5 648.5,-231.5 648.5,-212.5 562.5,-212.5"/>
<text text-anchor="middle" x="605.5" y="-219.5" font-family="Helvetica,sans-Serif" font-size="10.00">AbilityCooldown</text>
</a>
</g>
</g>
<!-- Node2&#45;&gt;Node15 -->
<g id="edge24" class="edge">
<title>Node2&#45;&gt;Node15</title>
<path fill="none" stroke="#9a32cd" stroke-dasharray="5,2" d="M810.56,-287.03C763.71,-272.4 677.14,-245.37 632.97,-231.58"/>
<polygon fill="#9a32cd" stroke="#9a32cd" points="809.61,-290.4 820.2,-290.04 811.7,-283.72 809.61,-290.4"/>
<text text-anchor="middle" x="766" y="-257.5" font-family="Helvetica,sans-Serif" font-size="10.00"> ability</text>
</g>
<!-- Node17 -->
<g id="node17" class="node">
<title>Node17</title>
<g id="a_node17"><a xlink:href="class_ability_indicator.xhtml" target="_top" xlink:title=" ">
<polygon fill="white" stroke="black" points="703.5,-135.5 703.5,-154.5 783.5,-154.5 783.5,-135.5 703.5,-135.5"/>
<text text-anchor="middle" x="743.5" y="-142.5" font-family="Helvetica,sans-Serif" font-size="10.00">AbilityIndicator</text>
</a>
</g>
</g>
<!-- Node2&#45;&gt;Node17 -->
<g id="edge28" class="edge">
<title>Node2&#45;&gt;Node17</title>
<path fill="none" stroke="#9a32cd" stroke-dasharray="5,2" d="M842.38,-278.23C841.23,-251.87 835.41,-203.79 809.5,-174 801.66,-164.98 790.42,-158.79 779.43,-154.58"/>
<polygon fill="#9a32cd" stroke="#9a32cd" points="838.88,-278.46 842.63,-288.37 845.88,-278.29 838.88,-278.46"/>
<text text-anchor="middle" x="852.5" y="-219.5" font-family="Helvetica,sans-Serif" font-size="10.00"> current</text>
</g>
<!-- Node18 -->
<g id="node18" class="node">
<title>Node18</title>
<g id="a_node18"><a xlink:href="class_character.xhtml" target="_top" xlink:title=" ">
<polygon fill="white" stroke="black" points="883,-174.5 883,-193.5 942,-193.5 942,-174.5 883,-174.5"/>
<text text-anchor="middle" x="912.5" y="-181.5" font-family="Helvetica,sans-Serif" font-size="10.00">Character</text>
</a>
</g>
</g>
<!-- Node2&#45;&gt;Node18 -->
<g id="edge33" class="edge">
<title>Node2&#45;&gt;Node18</title>
<path fill="none" stroke="#9a32cd" stroke-dasharray="5,2" d="M853.35,-279.65C868.52,-255.38 895.5,-212.19 907.03,-193.75"/>
<polygon fill="#9a32cd" stroke="#9a32cd" points="850.32,-277.88 847.99,-288.21 856.26,-281.59 850.32,-277.88"/>
<text text-anchor="middle" x="890" y="-257.5" font-family="Helvetica,sans-Serif" font-size="10.00"> abilities</text>
</g>
<!-- Node3 -->
<g id="node3" class="node">
<title>Node3</title>
<g id="a_node3"><a xlink:title=" ">
<polygon fill="white" stroke="#bfbfbf" points="835,-442.5 835,-461.5 924,-461.5 924,-442.5 835,-442.5"/>
<text text-anchor="middle" x="879.5" y="-449.5" font-family="Helvetica,sans-Serif" font-size="10.00">ScriptableObject</text>
</a>
</g>
</g>
<!-- Node3&#45;&gt;Node2 -->
<g id="edge2" class="edge">
<title>Node3&#45;&gt;Node2</title>
<path fill="none" stroke="midnightblue" d="M870.01,-433.3C863.39,-420.1 854.97,-401.41 850.5,-384 843.5,-356.72 842.48,-323.11 842.43,-307.6"/>
<polygon fill="midnightblue" stroke="midnightblue" points="866.92,-434.95 874.63,-442.22 873.13,-431.73 866.92,-434.95"/>
</g>
<!-- Node4 -->
<g id="node4" class="node">
<title>Node4</title>
<g id="a_node4"><a xlink:href="class_effect.xhtml" target="_top" xlink:title=" ">
<polygon fill="white" stroke="black" points="859,-364.5 859,-383.5 900,-383.5 900,-364.5 859,-364.5"/>
<text text-anchor="middle" x="879.5" y="-371.5" font-family="Helvetica,sans-Serif" font-size="10.00">Effect</text>
</a>
</g>
</g>
<!-- Node3&#45;&gt;Node4 -->
<g id="edge4" class="edge">
<title>Node3&#45;&gt;Node4</title>
<path fill="none" stroke="midnightblue" d="M879.5,-432.22C879.5,-416.7 879.5,-395.36 879.5,-383.62"/>
<polygon fill="midnightblue" stroke="midnightblue" points="876,-432.28 879.5,-442.28 883,-432.28 876,-432.28"/>
</g>
<!-- Node3&#45;&gt;Node18 -->
<g id="edge32" class="edge">
<title>Node3&#45;&gt;Node18</title>
<path fill="none" stroke="midnightblue" d="M892.61,-434.17C907.12,-414.37 929.63,-379.88 938.5,-346 953.41,-289.03 926.93,-218.35 916.47,-193.85"/>
<polygon fill="midnightblue" stroke="midnightblue" points="889.62,-432.32 886.4,-442.41 895.21,-436.53 889.62,-432.32"/>
</g>
<!-- Node4&#45;&gt;Node2 -->
<g id="edge3" class="edge">
<title>Node4&#45;&gt;Node2</title>
<path fill="none" stroke="#9a32cd" stroke-dasharray="5,2" d="M870.47,-354.94C862.99,-339.97 852.67,-319.33 846.88,-307.77"/>
<polygon fill="#9a32cd" stroke="#9a32cd" points="867.51,-356.84 875.11,-364.22 873.77,-353.71 867.51,-356.84"/>
<text text-anchor="middle" x="899.5" y="-333.5" font-family="Helvetica,sans-Serif" font-size="10.00"> toAuthorEffects</text>
</g>
<!-- Node5 -->
<g id="node5" class="node">
<title>Node5</title>
<g id="a_node5"><a xlink:href="class_effect_manager.xhtml" target="_top" xlink:title=" ">
<polygon fill="white" stroke="black" points="43,-67.5 43,-86.5 122,-86.5 122,-67.5 43,-67.5"/>
<text text-anchor="middle" x="82.5" y="-74.5" font-family="Helvetica,sans-Serif" font-size="10.00">EffectManager</text>
</a>
</g>
</g>
<!-- Node5&#45;&gt;Node1 -->
<g id="edge5" class="edge">
<title>Node5&#45;&gt;Node1</title>
<path fill="none" stroke="#9a32cd" stroke-dasharray="5,2" d="M72.52,-58.05C70.21,-51.5 69.26,-44.19 72.5,-38 76.63,-30.12 84.21,-24.09 91.61,-19.74"/>
<polygon fill="#9a32cd" stroke="#9a32cd" points="69.49,-59.84 76.85,-67.45 75.84,-56.9 69.49,-59.84"/>
<text text-anchor="middle" x="104.5" y="-41" font-family="Helvetica,sans-Serif" font-size="10.00"> effectManager</text>
</g>
<!-- Node6 -->
<g id="node6" class="node">
<title>Node6</title>
<g id="a_node6"><a xlink:title=" ">
<polygon fill="white" stroke="#bfbfbf" points="494,-442.5 494,-461.5 577,-461.5 577,-442.5 494,-442.5"/>
<text text-anchor="middle" x="535.5" y="-449.5" font-family="Helvetica,sans-Serif" font-size="10.00">MonoBehaviour</text>
</a>
</g>
</g>
<!-- Node6&#45;&gt;Node5 -->
<g id="edge6" class="edge">
<title>Node6&#45;&gt;Node5</title>
<path fill="none" stroke="midnightblue" d="M483.48,-449.66C427.19,-447.36 335.07,-441.08 257.5,-424 193.12,-409.82 117.5,-440.92 117.5,-375 117.5,-375 117.5,-375 117.5,-144 117.5,-121.17 100.96,-98.54 90.62,-86.62"/>
<polygon fill="midnightblue" stroke="midnightblue" points="483.44,-453.16 493.57,-450.05 483.71,-446.17 483.44,-453.16"/>
</g>
<!-- Node9 -->
<g id="node9" class="node">
<title>Node9</title>
<g id="a_node9"><a xlink:href="class_stats.xhtml" target="_top" xlink:title="Base class Stats of the entity.">
<polygon fill="white" stroke="black" points="268.5,-288.5 268.5,-307.5 308.5,-307.5 308.5,-288.5 268.5,-288.5"/>
<text text-anchor="middle" x="288.5" y="-295.5" font-family="Helvetica,sans-Serif" font-size="10.00">Stats</text>
</a>
</g>
</g>
<!-- Node6&#45;&gt;Node9 -->
<g id="edge10" class="edge">
<title>Node6&#45;&gt;Node9</title>
<path fill="none" stroke="midnightblue" d="M512.99,-437.15C462.82,-406.28 343.06,-332.58 302.33,-307.51"/>
<polygon fill="midnightblue" stroke="midnightblue" points="511.16,-440.13 521.51,-442.39 514.83,-434.17 511.16,-440.13"/>
</g>
<!-- Node10 -->
<g id="node10" class="node">
<title>Node10</title>
<g id="a_node10"><a xlink:href="class_photon_1_1_pun_1_1_photon_view.xhtml" target="_top" xlink:title="A PhotonView identifies an object across the network (viewID) and configures how the controlling clie...">
<polygon fill="white" stroke="black" points="161.5,-364.5 161.5,-383.5 283.5,-383.5 283.5,-364.5 161.5,-364.5"/>
<text text-anchor="middle" x="222.5" y="-371.5" font-family="Helvetica,sans-Serif" font-size="10.00">Photon.Pun.PhotonView</text>
</a>
</g>
</g>
<!-- Node6&#45;&gt;Node10 -->
<g id="edge12" class="edge">
<title>Node6&#45;&gt;Node10</title>
<path fill="none" stroke="midnightblue" d="M483.6,-450.99C436.09,-449.58 364.42,-443.86 305.5,-424 277.59,-414.59 248.83,-394.96 233.57,-383.61"/>
<polygon fill="midnightblue" stroke="midnightblue" points="483.57,-454.49 493.66,-451.24 483.75,-447.5 483.57,-454.49"/>
</g>
<!-- Node13 -->
<g id="node13" class="node">
<title>Node13</title>
<g id="a_node13"><a xlink:href="class_u_i_controller.xhtml" target="_top" xlink:title=" ">
<polygon fill="white" stroke="black" points="502,-364.5 502,-383.5 569,-383.5 569,-364.5 502,-364.5"/>
<text text-anchor="middle" x="535.5" y="-371.5" font-family="Helvetica,sans-Serif" font-size="10.00">UIController</text>
</a>
</g>
</g>
<!-- Node6&#45;&gt;Node13 -->
<g id="edge16" class="edge">
<title>Node6&#45;&gt;Node13</title>
<path fill="none" stroke="midnightblue" d="M535.5,-432.22C535.5,-416.7 535.5,-395.36 535.5,-383.62"/>
<polygon fill="midnightblue" stroke="midnightblue" points="532,-432.28 535.5,-442.28 539,-432.28 532,-432.28"/>
</g>
<!-- Node14 -->
<g id="node14" class="node">
<title>Node14</title>
<g id="a_node14"><a xlink:href="class_player_controller.xhtml" target="_top" xlink:title="Player Controller is the main class that handles all the movement of the Player.">
<polygon fill="white" stroke="black" points="416.5,-67.5 416.5,-86.5 502.5,-86.5 502.5,-67.5 416.5,-67.5"/>
<text text-anchor="middle" x="459.5" y="-74.5" font-family="Helvetica,sans-Serif" font-size="10.00">PlayerController</text>
</a>
</g>
</g>
<!-- Node6&#45;&gt;Node14 -->
<g id="edge18" class="edge">
<title>Node6&#45;&gt;Node14</title>
<path fill="none" stroke="midnightblue" d="M587.26,-450.72C624.86,-448.79 676.2,-442.5 717.5,-424 742.84,-412.65 748.44,-405.91 765.5,-384 794.56,-346.67 788.44,-329.31 811.5,-288 825.92,-262.16 839.16,-260.39 847.5,-232 850,-223.47 849.45,-220.67 847.5,-212 838.19,-170.62 829.82,-154.17 792.5,-134 743.05,-107.28 580.85,-89.17 502.55,-81.76"/>
<polygon fill="midnightblue" stroke="midnightblue" points="586.87,-447.23 577.03,-451.16 587.17,-454.23 586.87,-447.23"/>
</g>
<!-- Node6&#45;&gt;Node15 -->
<g id="edge21" class="edge">
<title>Node6&#45;&gt;Node15</title>
<path fill="none" stroke="midnightblue" d="M552.03,-435.04C581.14,-405.65 640.52,-339.6 662.5,-270 665.18,-261.52 667.25,-257.51 662.5,-250 657.11,-241.49 648.24,-235.61 639.07,-231.56"/>
<polygon fill="midnightblue" stroke="midnightblue" points="549.32,-432.8 544.68,-442.33 554.25,-437.77 549.32,-432.8"/>
</g>
<!-- Node6&#45;&gt;Node17 -->
<g id="edge27" class="edge">
<title>Node6&#45;&gt;Node17</title>
<path fill="none" stroke="midnightblue" d="M587.02,-443.55C651.48,-432.74 753.5,-410.1 753.5,-375 753.5,-375 753.5,-375 753.5,-259 753.5,-218.79 803.28,-209.56 784.5,-174 779.99,-165.46 771.58,-159.04 763.54,-154.51"/>
<polygon fill="midnightblue" stroke="midnightblue" points="586.32,-440.11 577.02,-445.18 587.45,-447.02 586.32,-440.11"/>
</g>
<!-- Node19 -->
<g id="node19" class="node">
<title>Node19</title>
<g id="a_node19"><a xlink:href="class_basic_attack.xhtml" target="_top" xlink:title=" ">
<polygon fill="white" stroke="black" points="358.5,-0.5 358.5,-19.5 428.5,-19.5 428.5,-0.5 358.5,-0.5"/>
<text text-anchor="middle" x="393.5" y="-7.5" font-family="Helvetica,sans-Serif" font-size="10.00">BasicAttack</text>
</a>
</g>
</g>
<!-- Node6&#45;&gt;Node19 -->
<g id="edge36" class="edge">
<title>Node6&#45;&gt;Node19</title>
<path fill="none" stroke="midnightblue" d="M587.25,-446.75C677.06,-438.56 857.19,-418.31 909.5,-384 936.45,-366.32 990.5,-271.69 990.5,-261 990.5,-261 990.5,-261 990.5,-76 990.5,-19.11 556.59,-11.98 428.62,-11.11"/>
<polygon fill="midnightblue" stroke="midnightblue" points="586.93,-443.26 577.28,-447.64 587.55,-450.24 586.93,-443.26"/>
</g>
<!-- Node20 -->
<g id="node20" class="node">
<title>Node20</title>
<g id="a_node20"><a xlink:href="class_inventory.xhtml" target="_top" xlink:title=" ">
<polygon fill="white" stroke="black" points="446,-326.5 446,-345.5 501,-345.5 501,-326.5 446,-326.5"/>
<text text-anchor="middle" x="473.5" y="-333.5" font-family="Helvetica,sans-Serif" font-size="10.00">Inventory</text>
</a>
</g>
</g>
<!-- Node6&#45;&gt;Node20 -->
<g id="edge44" class="edge">
<title>Node6&#45;&gt;Node20</title>
<path fill="none" stroke="midnightblue" d="M523.11,-433.69C513.97,-420.47 501.6,-401.58 492.5,-384 485.79,-371.02 479.79,-355.11 476.4,-345.53"/>
<polygon fill="midnightblue" stroke="midnightblue" points="520.49,-436.04 529.1,-442.22 526.22,-432.02 520.49,-436.04"/>
</g>
<!-- Node7 -->
<g id="node7" class="node">
<title>Node7</title>
<g id="a_node7"><a xlink:href="class_player_stats.xhtml" target="_top" xlink:title="Player Stats is the main class that controls all the Player Statistics in all time in the game execut...">
<polygon fill="white" stroke="black" points="355.5,-135.5 355.5,-154.5 423.5,-154.5 423.5,-135.5 355.5,-135.5"/>
<text text-anchor="middle" x="389.5" y="-142.5" font-family="Helvetica,sans-Serif" font-size="10.00">PlayerStats</text>
</a>
</g>
</g>
<!-- Node7&#45;&gt;Node5 -->
<g id="edge7" class="edge">
<title>Node7&#45;&gt;Node5</title>
<path fill="none" stroke="#9a32cd" stroke-dasharray="5,2" d="M345.6,-134.56C285.92,-121.73 180.07,-98.98 122.49,-86.6"/>
<polygon fill="#9a32cd" stroke="#9a32cd" points="344.96,-138 355.47,-136.68 346.43,-131.16 344.96,-138"/>
<text text-anchor="middle" x="267" y="-108" font-family="Helvetica,sans-Serif" font-size="10.00"> stats</text>
</g>
<!-- Node7&#45;&gt;Node14 -->
<g id="edge34" class="edge">
<title>Node7&#45;&gt;Node14</title>
<path fill="none" stroke="#9a32cd" stroke-dasharray="5,2" d="M379.08,-126.51C376.23,-119.32 375.02,-111.25 379.5,-105 388.05,-93.09 402.13,-86.37 416.11,-82.59"/>
<polygon fill="#9a32cd" stroke="#9a32cd" points="375.97,-128.12 383.58,-135.49 382.23,-124.99 375.97,-128.12"/>
<text text-anchor="middle" x="392" y="-108" font-family="Helvetica,sans-Serif" font-size="10.00"> stats</text>
</g>
<!-- Node7&#45;&gt;Node15 -->
<g id="edge30" class="edge">
<title>Node7&#45;&gt;Node15</title>
<path fill="none" stroke="#9a32cd" stroke-dasharray="5,2" d="M397.64,-163.94C403.35,-174.43 412.03,-186.95 423.5,-194 426.46,-195.82 509.48,-207.64 562.35,-215.02"/>
<polygon fill="#9a32cd" stroke="#9a32cd" points="400.66,-162.15 393.07,-154.76 394.39,-165.27 400.66,-162.15"/>
<text text-anchor="middle" x="450" y="-181.5" font-family="Helvetica,sans-Serif" font-size="10.00"> playerStats</text>
</g>
<!-- Node7&#45;&gt;Node19 -->
<g id="edge41" class="edge">
<title>Node7&#45;&gt;Node19</title>
<path fill="none" stroke="#9a32cd" stroke-dasharray="5,2" d="M377.71,-126.53C375.97,-123.16 374.45,-119.57 373.5,-116 364.12,-80.67 381.02,-37.54 389.31,-19.53"/>
<polygon fill="#9a32cd" stroke="#9a32cd" points="374.75,-128.4 382.88,-135.19 380.76,-124.81 374.75,-128.4"/>
<text text-anchor="middle" x="386" y="-74.5" font-family="Helvetica,sans-Serif" font-size="10.00"> stats</text>
</g>
<!-- Node8 -->
<g id="node8" class="node">
<title>Node8</title>
<g id="a_node8"><a xlink:href="class_ability_affected_stats.xhtml" target="_top" xlink:title="Base class Stats of the entity who is affected by Abilities.">
<polygon fill="white" stroke="black" points="317.5,-212.5 317.5,-231.5 419.5,-231.5 419.5,-212.5 317.5,-212.5"/>
<text text-anchor="middle" x="368.5" y="-219.5" font-family="Helvetica,sans-Serif" font-size="10.00">AbilityAffectedStats</text>
</a>
</g>
</g>
<!-- Node8&#45;&gt;Node7 -->
<g id="edge8" class="edge">
<title>Node8&#45;&gt;Node7</title>
<path fill="none" stroke="midnightblue" d="M356.69,-203.54C352.1,-194.48 348.91,-183.38 353.5,-174 357.54,-165.75 365.31,-159.23 372.6,-154.56"/>
<polygon fill="midnightblue" stroke="midnightblue" points="353.82,-205.57 361.93,-212.39 359.84,-202 353.82,-205.57"/>
</g>
<!-- Node9&#45;&gt;Node8 -->
<g id="edge9" class="edge">
<title>Node9&#45;&gt;Node8</title>
<path fill="none" stroke="midnightblue" d="M300.11,-280.07C307.1,-270.59 316.56,-258.92 326.5,-250 334.37,-242.94 344.28,-236.48 352.5,-231.64"/>
<polygon fill="midnightblue" stroke="midnightblue" points="297.18,-278.15 294.23,-288.33 302.88,-282.22 297.18,-278.15"/>
</g>
<!-- Node9&#45;&gt;Node19 -->
<g id="edge39" class="edge">
<title>Node9&#45;&gt;Node19</title>
<path fill="none" stroke="#9a32cd" stroke-dasharray="5,2" d="M283.74,-278.28C280.7,-265.37 277.06,-247.77 275.5,-232 271.1,-187.58 277.33,-173.82 297.5,-134 321.73,-86.15 365.91,-38.74 384.68,-19.71"/>
<polygon fill="#9a32cd" stroke="#9a32cd" points="280.4,-279.37 286.18,-288.25 287.2,-277.71 280.4,-279.37"/>
<text text-anchor="middle" x="322" y="-142.5" font-family="Helvetica,sans-Serif" font-size="10.00"> otherStats</text>
</g>
<!-- Node10&#45;&gt;Node9 -->
<g id="edge11" class="edge">
<title>Node10&#45;&gt;Node9</title>
<path fill="none" stroke="#9a32cd" stroke-dasharray="5,2" d="M237.09,-356.64C250.53,-341.57 269.97,-319.78 280.68,-307.77"/>
<polygon fill="#9a32cd" stroke="#9a32cd" points="234.37,-354.43 230.33,-364.22 239.6,-359.09 234.37,-354.43"/>
<text text-anchor="middle" x="274.5" y="-333.5" font-family="Helvetica,sans-Serif" font-size="10.00"> view</text>
</g>
<!-- Node10&#45;&gt;Node14 -->
<g id="edge19" class="edge">
<title>Node10&#45;&gt;Node14</title>
<path fill="none" stroke="#9a32cd" stroke-dasharray="5,2" d="M228.01,-354.45C237.56,-323.68 258.82,-260.67 286.5,-212 308.12,-173.98 318.23,-167.38 346.5,-134 357.88,-120.56 358.6,-114.39 373.5,-105 386.74,-96.65 402.75,-90.71 417.36,-86.56"/>
<polygon fill="#9a32cd" stroke="#9a32cd" points="224.6,-353.65 225.04,-364.24 231.3,-355.69 224.6,-353.65"/>
<text text-anchor="middle" x="297.5" y="-219.5" font-family="Helvetica,sans-Serif" font-size="10.00"> view</text>
</g>
<!-- Node10&#45;&gt;Node15 -->
<g id="edge25" class="edge">
<title>Node10&#45;&gt;Node15</title>
<path fill="none" stroke="#9a32cd" stroke-dasharray="5,2" d="M256.08,-360.77C266.92,-356.48 278.88,-351.38 289.5,-346 361.79,-309.39 368.67,-278.57 444.5,-250 465.52,-242.08 522.23,-233.62 562.37,-228.32"/>
<polygon fill="#9a32cd" stroke="#9a32cd" points="254.57,-357.6 246.5,-364.47 257.09,-364.13 254.57,-357.6"/>
<text text-anchor="middle" x="385.5" y="-295.5" font-family="Helvetica,sans-Serif" font-size="10.00"> view</text>
</g>
<!-- Node10&#45;&gt;Node19 -->
<g id="edge38" class="edge">
<title>Node10&#45;&gt;Node19</title>
<path fill="none" stroke="#9a32cd" stroke-dasharray="5,2" d="M214.65,-354.74C196.22,-308.77 155.35,-186.14 205.5,-105 238.88,-50.99 313.74,-26.97 358.27,-17.13"/>
<polygon fill="#9a32cd" stroke="#9a32cd" points="211.54,-356.36 218.6,-364.26 218,-353.68 211.54,-356.36"/>
<text text-anchor="middle" x="194.5" y="-181.5" font-family="Helvetica,sans-Serif" font-size="10.00"> view</text>
</g>
<!-- Node11 -->
<g id="node11" class="node">
<title>Node11</title>
<g id="a_node11"><a xlink:href="class_photon_1_1_realtime_1_1_player.xhtml" target="_top" xlink:title="Summarizes a &quot;player&quot; within a room, identified (in that room) by ID (or &quot;actorNumber&quot;).">
<polygon fill="white" stroke="black" points="0,-442.5 0,-461.5 119,-461.5 119,-442.5 0,-442.5"/>
<text text-anchor="middle" x="59.5" y="-449.5" font-family="Helvetica,sans-Serif" font-size="10.00">Photon.Realtime.Player</text>
</a>
</g>
</g>
<!-- Node11&#45;&gt;Node10 -->
<g id="edge13" class="edge">
<title>Node11&#45;&gt;Node10</title>
<path fill="none" stroke="#9a32cd" stroke-dasharray="5,2" d="M87.05,-438.16C120.31,-422.65 175.33,-396.99 203.94,-383.66"/>
<polygon fill="#9a32cd" stroke="#9a32cd" points="85.47,-435.03 77.88,-442.43 88.42,-441.38 85.47,-435.03"/>
<text text-anchor="middle" x="182" y="-416" font-family="Helvetica,sans-Serif" font-size="10.00"> controller</text>
<text text-anchor="middle" x="182" y="-405" font-family="Helvetica,sans-Serif" font-size="10.00">owner</text>
</g>
<!-- Node12 -->
<g id="node12" class="node">
<title>Node12</title>
<g id="a_node12"><a xlink:href="class_player_u_i_controller.xhtml" target="_top" xlink:title="UI Controller for the Player Stats">
<polygon fill="white" stroke="black" points="446,-250.5 446,-269.5 541,-269.5 541,-250.5 446,-250.5"/>
<text text-anchor="middle" x="493.5" y="-257.5" font-family="Helvetica,sans-Serif" font-size="10.00">PlayerUIController</text>
</a>
</g>
</g>
<!-- Node12&#45;&gt;Node7 -->
<g id="edge14" class="edge">
<title>Node12&#45;&gt;Node7</title>
<path fill="none" stroke="#9a32cd" stroke-dasharray="5,2" d="M485.25,-241.37C479.78,-231.45 471.74,-219.57 461.5,-212 439.8,-195.95 422.42,-213.25 403.5,-194 393.03,-183.35 390.31,-165.34 389.65,-154.67"/>
<polygon fill="#9a32cd" stroke="#9a32cd" points="482.19,-243.07 489.83,-250.4 488.43,-239.9 482.19,-243.07"/>
<text text-anchor="middle" x="500.5" y="-219.5" font-family="Helvetica,sans-Serif" font-size="10.00"> uiControl</text>
</g>
<!-- Node13&#45;&gt;Node12 -->
<g id="edge15" class="edge">
<title>Node13&#45;&gt;Node12</title>
<path fill="none" stroke="midnightblue" d="M528.63,-354.67C519.46,-330.23 503.61,-287.95 496.78,-269.75"/>
<polygon fill="midnightblue" stroke="midnightblue" points="525.42,-356.08 532.2,-364.21 531.97,-353.62 525.42,-356.08"/>
</g>
<!-- Node14&#45;&gt;Node7 -->
<g id="edge17" class="edge">
<title>Node14&#45;&gt;Node7</title>
<path fill="none" stroke="#9a32cd" stroke-dasharray="5,2" d="M434.1,-92.15C428.33,-95.93 422.45,-100.3 417.5,-105 407.95,-114.07 399.52,-126.8 394.47,-135.22"/>
<polygon fill="#9a32cd" stroke="#9a32cd" points="436.25,-94.93 442.92,-86.7 432.57,-88.97 436.25,-94.93"/>
<text text-anchor="middle" x="453" y="-108" font-family="Helvetica,sans-Serif" font-size="10.00"> playerController</text>
</g>
<!-- Node14&#45;&gt;Node15 -->
<g id="edge22" class="edge">
<title>Node14&#45;&gt;Node15</title>
<path fill="none" stroke="#9a32cd" stroke-dasharray="5,2" d="M512.49,-87.35C540.54,-95.09 573.11,-109.05 592.5,-134 610.68,-157.39 608.77,-195.29 606.78,-212.28"/>
<polygon fill="#9a32cd" stroke="#9a32cd" points="513.34,-83.95 502.78,-84.86 511.6,-90.73 513.34,-83.95"/>
<text text-anchor="middle" x="638" y="-142.5" font-family="Helvetica,sans-Serif" font-size="10.00"> playerController</text>
</g>
<!-- Node14&#45;&gt;Node19 -->
<g id="edge37" class="edge">
<title>Node14&#45;&gt;Node19</title>
<path fill="none" stroke="#9a32cd" stroke-dasharray="5,2" d="M406.98,-63.54C400.5,-59.88 394.69,-55.14 390.5,-49 384.61,-40.36 387.13,-27.91 389.93,-19.65"/>
<polygon fill="#9a32cd" stroke="#9a32cd" points="405.63,-66.77 416.16,-67.9 408.63,-60.45 405.63,-66.77"/>
<text text-anchor="middle" x="412" y="-41" font-family="Helvetica,sans-Serif" font-size="10.00"> controller</text>
</g>
<!-- Node15&#45;&gt;Node7 -->
<g id="edge42" class="edge">
<title>Node15&#45;&gt;Node7</title>
<path fill="none" stroke="#9a32cd" stroke-dasharray="5,2" d="M552.26,-212.53C534.81,-208.44 515.74,-202.51 499.5,-194 487.5,-187.71 488.3,-180.66 476.5,-174 460.19,-164.8 440.43,-158.13 423.87,-153.62"/>
<polygon fill="#9a32cd" stroke="#9a32cd" points="551.8,-216.01 562.32,-214.73 553.3,-209.17 551.8,-216.01"/>
<text text-anchor="middle" x="537.5" y="-181.5" font-family="Helvetica,sans-Serif" font-size="10.00"> abilityCooldowns</text>
</g>
<!-- Node15&#45;&gt;Node14 -->
<g id="edge20" class="edge">
<title>Node15&#45;&gt;Node14</title>
<path fill="none" stroke="#9a32cd" stroke-dasharray="5,2" d="M597.86,-203.04C592.83,-193.18 585.34,-181.47 575.5,-174 553.67,-157.42 537.78,-173.29 516.5,-156 496.43,-139.69 504.39,-125.4 488.5,-105 483.17,-98.16 476.07,-91.51 470.22,-86.53"/>
<polygon fill="#9a32cd" stroke="#9a32cd" points="594.82,-204.8 602.21,-212.39 601.17,-201.85 594.82,-204.8"/>
<text text-anchor="middle" x="554.5" y="-142.5" font-family="Helvetica,sans-Serif" font-size="10.00"> abilityCooldowns</text>
</g>
<!-- Node15&#45;&gt;Node17 -->
<g id="edge29" class="edge">
<title>Node15&#45;&gt;Node17</title>
<path fill="none" stroke="#9a32cd" stroke-dasharray="5,2" d="M617.79,-204.14C626.65,-192.4 638.13,-178.15 644.5,-174 654.57,-167.45 681.38,-160.05 704.57,-154.51"/>
<polygon fill="#9a32cd" stroke="#9a32cd" points="614.8,-202.29 611.66,-212.41 620.42,-206.46 614.8,-202.29"/>
<text text-anchor="middle" x="668" y="-181.5" font-family="Helvetica,sans-Serif" font-size="10.00"> currentCD</text>
</g>
<!-- Node16 -->
<g id="node16" class="node">
<title>Node16</title>
<g id="a_node16"><a xlink:title=" ">
<polygon fill="white" stroke="#bfbfbf" points="547,-288.5 547,-307.5 582,-307.5 582,-288.5 547,-288.5"/>
<text text-anchor="middle" x="564.5" y="-295.5" font-family="Helvetica,sans-Serif" font-size="10.00">Text</text>
</a>
</g>
</g>
<!-- Node16&#45;&gt;Node15 -->
<g id="edge23" class="edge">
<title>Node16&#45;&gt;Node15</title>
<path fill="none" stroke="#9a32cd" stroke-dasharray="5,2" d="M561.07,-278.45C560.3,-269.36 560.83,-258.56 565.5,-250 569.83,-242.06 577.63,-236.01 585.19,-231.67"/>
<polygon fill="#9a32cd" stroke="#9a32cd" points="557.61,-279 562.45,-288.42 564.54,-278.04 557.61,-279"/>
<text text-anchor="middle" x="614" y="-257.5" font-family="Helvetica,sans-Serif" font-size="10.00"> coolDownTextDisplay</text>
</g>
<!-- Node17&#45;&gt;Node15 -->
<g id="edge26" class="edge">
<title>Node17&#45;&gt;Node15</title>
<path fill="none" stroke="#9a32cd" stroke-dasharray="5,2" d="M728.68,-162.47C717.51,-174.55 702.9,-189.58 695.5,-194 681.21,-202.53 664.03,-208.55 648.51,-212.71"/>
<polygon fill="#9a32cd" stroke="#9a32cd" points="731.57,-164.49 735.73,-154.74 726.4,-159.77 731.57,-164.49"/>
<text text-anchor="middle" x="749.5" y="-181.5" font-family="Helvetica,sans-Serif" font-size="10.00"> abilityIndicator</text>
</g>
<!-- Node18&#45;&gt;Node14 -->
<g id="edge31" class="edge">
<title>Node18&#45;&gt;Node14</title>
<path fill="none" stroke="#9a32cd" stroke-dasharray="5,2" d="M888.64,-168.76C882.82,-164.89 876.76,-160.52 871.5,-156 848.34,-136.11 852.92,-118.42 825.5,-105 769.78,-77.72 587.02,-76.32 502.76,-77.21"/>
<polygon fill="#9a32cd" stroke="#9a32cd" points="887.12,-171.94 897.43,-174.36 890.88,-166.04 887.12,-171.94"/>
<text text-anchor="middle" x="894.5" y="-148" font-family="Helvetica,sans-Serif" font-size="10.00"> character</text>
<text text-anchor="middle" x="894.5" y="-137" font-family="Helvetica,sans-Serif" font-size="10.00">characters</text>
</g>
<!-- Node18&#45;&gt;Node19 -->
<g id="edge40" class="edge">
<title>Node18&#45;&gt;Node19</title>
<path fill="none" stroke="#9a32cd" stroke-dasharray="5,2" d="M919.78,-164.57C922.41,-154.73 923.45,-142.86 917.5,-134 898.49,-105.71 879.1,-114.95 846.5,-105 694,-58.46 505.64,-27.58 428.71,-16.05"/>
<polygon fill="#9a32cd" stroke="#9a32cd" points="916.41,-163.62 916.56,-174.21 923.05,-165.84 916.41,-163.62"/>
<text text-anchor="middle" x="918.5" y="-108" font-family="Helvetica,sans-Serif" font-size="10.00"> character</text>
</g>
<!-- Node19&#45;&gt;Node14 -->
<g id="edge35" class="edge">
<title>Node19&#45;&gt;Node14</title>
<path fill="none" stroke="#9a32cd" stroke-dasharray="5,2" d="M421.09,-25.02C426.92,-28.75 432.74,-33.11 437.5,-38 445.91,-46.63 452.32,-59.08 455.99,-67.35"/>
<polygon fill="#9a32cd" stroke="#9a32cd" points="422.47,-21.77 412.07,-19.71 418.92,-27.8 422.47,-21.77"/>
<text text-anchor="middle" x="474" y="-41" font-family="Helvetica,sans-Serif" font-size="10.00"> basicAttack</text>
</g>
<!-- Node20&#45;&gt;Node7 -->
<g id="edge43" class="edge">
<title>Node20&#45;&gt;Node7</title>
<path fill="none" stroke="#9a32cd" stroke-dasharray="5,2" d="M435.65,-330.79C407.18,-326.75 371.56,-319.53 362.5,-308 342.62,-282.71 393.52,-250.79 394.5,-250 407.81,-239.26 419.68,-246.65 428.5,-232 433.08,-224.38 433.29,-219.49 428.5,-212 418.21,-195.92 399.79,-210.08 389.5,-194 381.86,-182.07 384.37,-164.82 386.92,-154.57"/>
<polygon fill="#9a32cd" stroke="#9a32cd" points="435.39,-334.28 445.76,-332.13 436.31,-327.34 435.39,-334.28"/>
<text text-anchor="middle" x="415.5" y="-257.5" font-family="Helvetica,sans-Serif" font-size="10.00"> inventory</text>
</g>
</g>
</svg>
        <g id="navigator" transform="translate(0 0)" fill="#404254">
                <rect fill="#f2f5e9" fill-opacity="0.5" stroke="#606060" stroke-width=".5" x="0" y="0" width="60" height="60"/>
                <use id="zoomplus" xlink:href="#zoomPlus" x="17" y="9" onmousedown="handleZoom(evt,'in')"/>
                <use id="zoomminus" xlink:href="#zoomMin" x="42" y="9" onmousedown="handleZoom(evt,'out')"/>
                <use id="reset" xlink:href="#resetDef" x="30" y="36" onmousedown="handleReset()"/>
                <g id="arrowUp" xlink:href="#dirArrow" transform="translate(30 24)" onmousedown="handlePan(0,-1)">
                  <use xlink:href="#rim" fill="#404040">
                        <set attributeName="fill" to="#808080" begin="arrowUp.mouseover" end="arrowUp.mouseout"/>
                  </use>
                  <path fill="none" stroke="white" stroke-width="1.5" d="M0,-3.0v7 M-2.5,-0.5L0,-3.0L2.5,-0.5"/>
                </g>
                <g id="arrowRight" xlink:href="#dirArrow" transform="rotate(90) translate(36 -43)" onmousedown="handlePan(1,0)">
                  <use xlink:href="#rim" fill="#404040">
                        <set attributeName="fill" to="#808080" begin="arrowRight.mouseover" end="arrowRight.mouseout"/>
                  </use>
                  <path fill="none" stroke="white" stroke-width="1.5" d="M0,-3.0v7 M-2.5,-0.5L0,-3.0L2.5,-0.5"/>
                </g>
                <g id="arrowDown" xlink:href="#dirArrow" transform="rotate(180) translate(-30 -48)" onmousedown="handlePan(0,1)">
                  <use xlink:href="#rim" fill="#404040">
                        <set attributeName="fill" to="#808080" begin="arrowDown.mouseover" end="arrowDown.mouseout"/>
                  </use>
                  <path fill="none" stroke="white" stroke-width="1.5" d="M0,-3.0v7 M-2.5,-0.5L0,-3.0L2.5,-0.5"/>
                </g>
                <g id="arrowLeft" xlink:href="#dirArrow" transform="rotate(270) translate(-36 17)" onmousedown="handlePan(-1,0)">
                  <use xlink:href="#rim" fill="#404040">
                        <set attributeName="fill" to="#808080" begin="arrowLeft.mouseover" end="arrowLeft.mouseout"/>
                  </use>
                  <path fill="none" stroke="white" stroke-width="1.5" d="M0,-3.0v7 M-2.5,-0.5L0,-3.0L2.5,-0.5"/>
                </g>
        </g>
        <svg viewBox="0 0 15 15" width="100%" height="30px" preserveAspectRatio="xMaxYMin meet">
         <g id="arrow_out" transform="scale(0.3 0.3)">
          <a xlink:href="class_ability___passive__coll__graph_org.svg" target="_base">
           <rect id="button" ry="5" rx="5" y="6" x="6" height="38" width="38"
                fill="#f2f5e9" fill-opacity="0.5" stroke="#606060" stroke-width="1.0"/>
           <path id="arrow"
             d="M 11.500037,31.436501 C 11.940474,20.09759 22.043105,11.32322 32.158766,21.979434 L 37.068811,17.246167 C 37.068811,17.246167 37.088388,32 37.088388,32 L 22.160133,31.978069 C 22.160133,31.978069 26.997745,27.140456 26.997745,27.140456 C 18.528582,18.264221 13.291696,25.230495 11.500037,31.436501 z"
             style="fill:#404040;"/>
          </a>
         </g>
        </svg>
</svg>
