<?xml version="1.0" encoding="UTF-8" standalone="no"?>
<!DOCTYPE svg PUBLIC "-//W3C//DTD SVG 1.1//EN"
 "http://www.w3.org/Graphics/SVG/1.1/DTD/svg11.dtd">
<!-- Generated by graphviz version 2.47.3 (20210619.1520)
 -->
<!-- Title: Photon.Pun.Demo.Cockpit.RoomListView.OnJoinedLobbyCallBack Pages: 1 -->
<svg width="775pt" height="88pt"
 viewBox="0.00 0.00 775.00 88.00" xmlns="http://www.w3.org/2000/svg" xmlns:xlink="http://www.w3.org/1999/xlink">
<g id="graph0" class="graph" transform="scale(1 1) rotate(0) translate(4 84)">
<title>Photon.Pun.Demo.Cockpit.RoomListView.OnJoinedLobbyCallBack</title>
<polygon fill="white" stroke="transparent" points="-4,4 -4,-84 771,-84 771,4 -4,4"/>
<!-- Node1 -->
<g id="node1" class="node">
<title>Node1</title>
<g id="a_node1"><a xlink:title=" ">
<polygon fill="#bfbfbf" stroke="black" points="579,-24.5 579,-54.5 767,-54.5 767,-24.5 579,-24.5"/>
<text text-anchor="start" x="587" y="-42.5" font-family="Helvetica,sans-Serif" font-size="10.00">Photon.Pun.Demo.Cockpit.</text>
<text text-anchor="middle" x="673" y="-31.5" font-family="Helvetica,sans-Serif" font-size="10.00">RoomListView.OnJoinedLobbyCallBack</text>
</a>
</g>
</g>
<!-- Node2 -->
<g id="node2" class="node">
<title>Node2</title>
<g id="a_node2"><a xlink:href="class_photon_1_1_pun_1_1_demo_1_1_cockpit_1_1_pun_cockpit.xhtml#adfb141a92ec187041fa91caf9959c7df" target="_top" xlink:title=" ">
<polygon fill="white" stroke="black" points="377,-24.5 377,-54.5 543,-54.5 543,-24.5 377,-24.5"/>
<text text-anchor="start" x="385" y="-42.5" font-family="Helvetica,sans-Serif" font-size="10.00">Photon.Pun.Demo.Cockpit.</text>
<text text-anchor="middle" x="460" y="-31.5" font-family="Helvetica,sans-Serif" font-size="10.00">PunCockpit.SetUpLobbyGenericUI</text>
</a>
</g>
</g>
<!-- Node1&#45;&gt;Node2 -->
<g id="edge1" class="edge">
<title>Node1&#45;&gt;Node2</title>
<path fill="none" stroke="midnightblue" d="M568.74,-39.5C560.12,-39.5 551.48,-39.5 543.05,-39.5"/>
<polygon fill="midnightblue" stroke="midnightblue" points="568.84,-43 578.84,-39.5 568.84,-36 568.84,-43"/>
</g>
<!-- Node3 -->
<g id="node3" class="node">
<title>Node3</title>
<g id="a_node3"><a xlink:href="class_photon_1_1_pun_1_1_demo_1_1_cockpit_1_1_pun_cockpit.xhtml#a322ad513352aed28e2d4b66e5b7605b2" target="_top" xlink:title="Called when the client is connected to the Master Server and ready for matchmaking and other tasks.">
<polygon fill="white" stroke="black" points="171,-49.5 171,-79.5 341,-79.5 341,-49.5 171,-49.5"/>
<text text-anchor="start" x="179" y="-67.5" font-family="Helvetica,sans-Serif" font-size="10.00">Photon.Pun.Demo.Cockpit.</text>
<text text-anchor="middle" x="256" y="-56.5" font-family="Helvetica,sans-Serif" font-size="10.00">PunCockpit.OnConnectedToMaster</text>
</a>
</g>
</g>
<!-- Node2&#45;&gt;Node3 -->
<g id="edge2" class="edge">
<title>Node2&#45;&gt;Node3</title>
<path fill="none" stroke="midnightblue" d="M366.82,-50.91C358.23,-51.97 349.56,-53.04 341.06,-54.1"/>
<polygon fill="midnightblue" stroke="midnightblue" points="367.34,-54.37 376.84,-49.67 366.48,-47.42 367.34,-54.37"/>
</g>
<!-- Node5 -->
<g id="node5" class="node">
<title>Node5</title>
<g id="a_node5"><a xlink:href="class_photon_1_1_pun_1_1_demo_1_1_cockpit_1_1_pun_cockpit.xhtml#a8a84aefe02e52f4abfacc83f0b7e21bc" target="_top" xlink:title="Called on entering a lobby on the Master Server.">
<polygon fill="white" stroke="black" points="187.5,-0.5 187.5,-30.5 324.5,-30.5 324.5,-0.5 187.5,-0.5"/>
<text text-anchor="start" x="195.5" y="-18.5" font-family="Helvetica,sans-Serif" font-size="10.00">Photon.Pun.Demo.Cockpit.</text>
<text text-anchor="middle" x="256" y="-7.5" font-family="Helvetica,sans-Serif" font-size="10.00">PunCockpit.OnJoinedLobby</text>
</a>
</g>
</g>
<!-- Node2&#45;&gt;Node5 -->
<g id="edge4" class="edge">
<title>Node2&#45;&gt;Node5</title>
<path fill="none" stroke="midnightblue" d="M366.59,-28.52C352.44,-26.84 338.06,-25.13 324.58,-23.53"/>
<polygon fill="midnightblue" stroke="midnightblue" points="366.5,-32.03 376.84,-29.74 367.32,-25.08 366.5,-32.03"/>
</g>
<!-- Node4 -->
<g id="node4" class="node">
<title>Node4</title>
<g id="a_node4"><a xlink:href="class_photon_1_1_pun_1_1_demo_1_1_cockpit_1_1_pun_cockpit.xhtml#a96d91c8a4398280fb582bd516bf147f6" target="_top" xlink:title=" ">
<polygon fill="white" stroke="black" points="0,-24.5 0,-54.5 135,-54.5 135,-24.5 0,-24.5"/>
<text text-anchor="start" x="8" y="-42.5" font-family="Helvetica,sans-Serif" font-size="10.00">Photon.Pun.Demo.Cockpit.</text>
<text text-anchor="middle" x="67.5" y="-31.5" font-family="Helvetica,sans-Serif" font-size="10.00">PunCockpit.Start</text>
</a>
</g>
</g>
<!-- Node3&#45;&gt;Node4 -->
<g id="edge3" class="edge">
<title>Node3&#45;&gt;Node4</title>
<path fill="none" stroke="midnightblue" d="M160.62,-51.85C151.99,-50.69 143.36,-49.53 135.04,-48.42"/>
<polygon fill="midnightblue" stroke="midnightblue" points="160.38,-55.35 170.75,-53.21 161.31,-48.41 160.38,-55.35"/>
</g>
<!-- Node5&#45;&gt;Node4 -->
<g id="edge5" class="edge">
<title>Node5&#45;&gt;Node4</title>
<path fill="none" stroke="midnightblue" d="M177.33,-25.5C163.34,-27.29 148.88,-29.16 135.24,-30.91"/>
<polygon fill="midnightblue" stroke="midnightblue" points="177.93,-28.95 187.41,-24.2 177.04,-22 177.93,-28.95"/>
</g>
</g>
</svg>
