<?xml version="1.0" encoding="UTF-8" standalone="no"?>
<!DOCTYPE svg PUBLIC "-//W3C//DTD SVG 1.1//EN"
 "http://www.w3.org/Graphics/SVG/1.1/DTD/svg11.dtd">
<!-- Generated by graphviz version 2.47.3 (20210619.1520)
 -->
<!-- Title: Tayx.Graphy.GraphyManager.ToggleModes Pages: 1 -->
<svg width="754pt" height="186pt"
 viewBox="0.00 0.00 754.00 186.00" xmlns="http://www.w3.org/2000/svg" xmlns:xlink="http://www.w3.org/1999/xlink">
<g id="graph0" class="graph" transform="scale(1 1) rotate(0) translate(4 182)">
<title>Tayx.Graphy.GraphyManager.ToggleModes</title>
<polygon fill="white" stroke="transparent" points="-4,4 -4,-182 750,-182 750,4 -4,4"/>
<!-- Node1 -->
<g id="node1" class="node">
<title>Node1</title>
<g id="a_node1"><a xlink:title=" ">
<polygon fill="#bfbfbf" stroke="black" points="0,-73.5 0,-103.5 147,-103.5 147,-73.5 0,-73.5"/>
<text text-anchor="start" x="8" y="-91.5" font-family="Helvetica,sans-Serif" font-size="10.00">Tayx.Graphy.GraphyManager.</text>
<text text-anchor="middle" x="73.5" y="-80.5" font-family="Helvetica,sans-Serif" font-size="10.00">ToggleModes</text>
</a>
</g>
</g>
<!-- Node2 -->
<g id="node2" class="node">
<title>Node2</title>
<g id="a_node2"><a xlink:href="class_tayx_1_1_graphy_1_1_graphy_manager.xhtml#ac2c39047257c8b8785f075d82003b39b" target="_top" xlink:title=" ">
<polygon fill="white" stroke="black" points="183,-73.5 183,-103.5 330,-103.5 330,-73.5 183,-73.5"/>
<text text-anchor="start" x="191" y="-91.5" font-family="Helvetica,sans-Serif" font-size="10.00">Tayx.Graphy.GraphyManager.</text>
<text text-anchor="middle" x="256.5" y="-80.5" font-family="Helvetica,sans-Serif" font-size="10.00">SetPreset</text>
</a>
</g>
</g>
<!-- Node1&#45;&gt;Node2 -->
<g id="edge1" class="edge">
<title>Node1&#45;&gt;Node2</title>
<path fill="none" stroke="midnightblue" d="M147.08,-88.5C155.56,-88.5 164.26,-88.5 172.87,-88.5"/>
<polygon fill="midnightblue" stroke="midnightblue" points="172.91,-92 182.91,-88.5 172.91,-85 172.91,-92"/>
</g>
<!-- Node3 -->
<g id="node3" class="node">
<title>Node3</title>
<g id="a_node3"><a xlink:href="class_tayx_1_1_graphy_1_1_advanced_1_1_g___advanced_data.xhtml#ac91888d741e22b8802e3d38323e6e0cd" target="_top" xlink:title="Set the module state.">
<polygon fill="white" stroke="black" points="388,-147.5 388,-177.5 516,-177.5 516,-147.5 388,-147.5"/>
<text text-anchor="start" x="396" y="-165.5" font-family="Helvetica,sans-Serif" font-size="10.00">Tayx.Graphy.Advanced.G</text>
<text text-anchor="middle" x="452" y="-154.5" font-family="Helvetica,sans-Serif" font-size="10.00">_AdvancedData.SetState</text>
</a>
</g>
</g>
<!-- Node2&#45;&gt;Node3 -->
<g id="edge2" class="edge">
<title>Node2&#45;&gt;Node3</title>
<path fill="none" stroke="midnightblue" d="M286.9,-103.58C308.44,-114.24 338.56,-128.38 366,-138.5 371.53,-140.54 377.31,-142.51 383.15,-144.38"/>
<polygon fill="midnightblue" stroke="midnightblue" points="382.41,-147.82 393,-147.44 384.49,-141.13 382.41,-147.82"/>
</g>
<!-- Node4 -->
<g id="node4" class="node">
<title>Node4</title>
<g id="a_node4"><a xlink:href="class_tayx_1_1_graphy_1_1_audio_1_1_g___audio_manager.xhtml#adc6cbaec95f86a1f896a089a03bf8ef9" target="_top" xlink:title="Set the module state.">
<polygon fill="white" stroke="black" points="389.5,-98.5 389.5,-128.5 514.5,-128.5 514.5,-98.5 389.5,-98.5"/>
<text text-anchor="start" x="397.5" y="-116.5" font-family="Helvetica,sans-Serif" font-size="10.00">Tayx.Graphy.Audio.G</text>
<text text-anchor="middle" x="452" y="-105.5" font-family="Helvetica,sans-Serif" font-size="10.00">_AudioManager.SetState</text>
</a>
</g>
</g>
<!-- Node2&#45;&gt;Node4 -->
<g id="edge3" class="edge">
<title>Node2&#45;&gt;Node4</title>
<path fill="none" stroke="midnightblue" d="M330.1,-97.88C346.11,-99.95 363.07,-102.14 379.05,-104.2"/>
<polygon fill="midnightblue" stroke="midnightblue" points="379.03,-107.73 389.4,-105.54 379.93,-100.79 379.03,-107.73"/>
</g>
<!-- Node6 -->
<g id="node6" class="node">
<title>Node6</title>
<g id="a_node6"><a xlink:href="class_tayx_1_1_graphy_1_1_fps_1_1_g___fps_manager.xhtml#af91e873d1642e9d13ce648a65fc87949" target="_top" xlink:title="Set the module state.">
<polygon fill="white" stroke="black" points="370,-49.5 370,-79.5 534,-79.5 534,-49.5 370,-49.5"/>
<text text-anchor="start" x="378" y="-67.5" font-family="Helvetica,sans-Serif" font-size="10.00">Tayx.Graphy.Fps.G_FpsManager.</text>
<text text-anchor="middle" x="452" y="-56.5" font-family="Helvetica,sans-Serif" font-size="10.00">SetState</text>
</a>
</g>
</g>
<!-- Node2&#45;&gt;Node6 -->
<g id="edge5" class="edge">
<title>Node2&#45;&gt;Node6</title>
<path fill="none" stroke="midnightblue" d="M330.1,-79.5C339.83,-78.29 349.91,-77.04 359.91,-75.8"/>
<polygon fill="midnightblue" stroke="midnightblue" points="360.38,-79.27 369.87,-74.56 359.52,-72.32 360.38,-79.27"/>
</g>
<!-- Node8 -->
<g id="node8" class="node">
<title>Node8</title>
<g id="a_node8"><a xlink:href="class_tayx_1_1_graphy_1_1_ram_1_1_g___ram_manager.xhtml#a00af4a150c20f8d373fb6df080b1e3e1" target="_top" xlink:title="Set the module state.">
<polygon fill="white" stroke="black" points="366,-0.5 366,-30.5 538,-30.5 538,-0.5 366,-0.5"/>
<text text-anchor="start" x="374" y="-18.5" font-family="Helvetica,sans-Serif" font-size="10.00">Tayx.Graphy.Ram.G_RamManager.</text>
<text text-anchor="middle" x="452" y="-7.5" font-family="Helvetica,sans-Serif" font-size="10.00">SetState</text>
</a>
</g>
</g>
<!-- Node2&#45;&gt;Node8 -->
<g id="edge7" class="edge">
<title>Node2&#45;&gt;Node8</title>
<path fill="none" stroke="midnightblue" d="M288.86,-73.32C310.29,-63.27 339.5,-50.21 366,-40.5 372.4,-38.15 379.14,-35.87 385.9,-33.7"/>
<polygon fill="midnightblue" stroke="midnightblue" points="387.29,-36.93 395.79,-30.6 385.2,-30.25 387.29,-36.93"/>
</g>
<!-- Node5 -->
<g id="node5" class="node">
<title>Node5</title>
<g id="a_node5"><a xlink:href="class_tayx_1_1_graphy_1_1_audio_1_1_g___audio_manager.xhtml#a67d33c59a742691d9a9c3c6843bbc131" target="_top" xlink:title=" ">
<polygon fill="white" stroke="black" points="582.5,-98.5 582.5,-128.5 737.5,-128.5 737.5,-98.5 582.5,-98.5"/>
<text text-anchor="start" x="590.5" y="-116.5" font-family="Helvetica,sans-Serif" font-size="10.00">Tayx.Graphy.Audio.G</text>
<text text-anchor="middle" x="660" y="-105.5" font-family="Helvetica,sans-Serif" font-size="10.00">_AudioManager.SetGraphActive</text>
</a>
</g>
</g>
<!-- Node4&#45;&gt;Node5 -->
<g id="edge4" class="edge">
<title>Node4&#45;&gt;Node5</title>
<path fill="none" stroke="midnightblue" d="M514.53,-113.5C532.7,-113.5 552.94,-113.5 572.38,-113.5"/>
<polygon fill="midnightblue" stroke="midnightblue" points="572.46,-117 582.46,-113.5 572.46,-110 572.46,-117"/>
</g>
<!-- Node7 -->
<g id="node7" class="node">
<title>Node7</title>
<g id="a_node7"><a xlink:href="class_tayx_1_1_graphy_1_1_fps_1_1_g___fps_manager.xhtml#ab34052fcec562720da46d628a11c35b6" target="_top" xlink:title=" ">
<polygon fill="white" stroke="black" points="578,-49.5 578,-79.5 742,-79.5 742,-49.5 578,-49.5"/>
<text text-anchor="start" x="586" y="-67.5" font-family="Helvetica,sans-Serif" font-size="10.00">Tayx.Graphy.Fps.G_FpsManager.</text>
<text text-anchor="middle" x="660" y="-56.5" font-family="Helvetica,sans-Serif" font-size="10.00">SetGraphActive</text>
</a>
</g>
</g>
<!-- Node6&#45;&gt;Node7 -->
<g id="edge6" class="edge">
<title>Node6&#45;&gt;Node7</title>
<path fill="none" stroke="midnightblue" d="M534.12,-64.5C545.15,-64.5 556.54,-64.5 567.74,-64.5"/>
<polygon fill="midnightblue" stroke="midnightblue" points="567.95,-68 577.95,-64.5 567.95,-61 567.95,-68"/>
</g>
<!-- Node9 -->
<g id="node9" class="node">
<title>Node9</title>
<g id="a_node9"><a xlink:href="class_tayx_1_1_graphy_1_1_ram_1_1_g___ram_manager.xhtml#a773c87f61c2bce8bef6c324cda1b30f4" target="_top" xlink:title=" ">
<polygon fill="white" stroke="black" points="574,-0.5 574,-30.5 746,-30.5 746,-0.5 574,-0.5"/>
<text text-anchor="start" x="582" y="-18.5" font-family="Helvetica,sans-Serif" font-size="10.00">Tayx.Graphy.Ram.G_RamManager.</text>
<text text-anchor="middle" x="660" y="-7.5" font-family="Helvetica,sans-Serif" font-size="10.00">SetGraphActive</text>
</a>
</g>
</g>
<!-- Node8&#45;&gt;Node9 -->
<g id="edge8" class="edge">
<title>Node8&#45;&gt;Node9</title>
<path fill="none" stroke="midnightblue" d="M538.28,-15.5C546.62,-15.5 555.12,-15.5 563.55,-15.5"/>
<polygon fill="midnightblue" stroke="midnightblue" points="563.79,-19 573.79,-15.5 563.79,-12 563.79,-19"/>
</g>
</g>
</svg>
