<?xml version="1.0" encoding="UTF-8" standalone="no"?>
<!DOCTYPE svg PUBLIC "-//W3C//DTD SVG 1.1//EN"
 "http://www.w3.org/Graphics/SVG/1.1/DTD/svg11.dtd">
<!-- Generated by graphviz version 2.47.3 (20210619.1520)
 -->
<!-- Title: Photon.Chat.ChatClient.SetOnlineStatus Pages: 1 -->
<!--zoomable 165 -->
<svg id="main" version="1.1" xmlns="http://www.w3.org/2000/svg" xmlns:xlink="http://www.w3.org/1999/xlink" xml:space="preserve" onload="init(evt)">
<style type="text/css"><![CDATA[
.edge:hover path { stroke: red; }
.edge:hover polygon { stroke: red; fill: red; }
]]></style>
<script type="text/javascript"><![CDATA[
var edges = document.getElementsByTagName('g');
if (edges && edges.length) {
  for (var i=0;i<edges.length;i++) {
    if (edges[i].id.substr(0,4)=='edge') {
      edges[i].setAttribute('class','edge');
    }
  }
}
]]></script>
        <defs>
                <circle id="rim" cx="0" cy="0" r="7"/>
                <circle id="rim2" cx="0" cy="0" r="3.5"/>
                <g id="zoomPlus">
                        <use xlink:href="#rim" fill="#404040">
                                <set attributeName="fill" to="#808080" begin="zoomplus.mouseover" end="zoomplus.mouseout"/>
                        </use>
                        <path d="M-4,0h8M0,-4v8" fill="none" stroke="white" stroke-width="1.5" pointer-events="none"/>
                </g>
                <g id="zoomMin">
                        <use xlink:href="#rim" fill="#404040">
                                <set attributeName="fill" to="#808080" begin="zoomminus.mouseover" end="zoomminus.mouseout"/>
                        </use>
                        <path d="M-4,0h8" fill="none" stroke="white" stroke-width="1.5" pointer-events="none"/>
                </g>
                <g id="dirArrow">
                        <path fill="none" stroke="white" stroke-width="1.5" d="M0,-3.0v7 M-2.5,-0.5L0,-3.0L2.5,-0.5"/>
                </g>
               <g id="resetDef">
                       <use xlink:href="#rim2" fill="#404040">
                               <set attributeName="fill" to="#808080" begin="reset.mouseover" end="reset.mouseout"/>
                       </use>
               </g>
        </defs>

<script type="text/javascript">
var viewWidth = 503;
var viewHeight = 165;
var sectionId = 'dynsection-38';
</script>
<script xlink:href="svgpan.js"/>
<svg id="graph" class="graph">
<g id="viewport">
<title>Photon.Chat.ChatClient.SetOnlineStatus</title>
<polygon fill="white" stroke="transparent" points="-4,4 -4,-161 499,-161 499,4 -4,4"/>
<!-- Node1 -->
<g id="node1" class="node">
<title>Node1</title>
<g id="a_node1"><a xlink:title="Sets the user&#39;s status (pre&#45;defined or custom) and an optional message.">
<polygon fill="#bfbfbf" stroke="black" points="358,-63.5 358,-93.5 495,-93.5 495,-63.5 358,-63.5"/>
<text text-anchor="start" x="366" y="-81.5" font-family="Helvetica,sans-Serif" font-size="10.00">Photon.Chat.ChatClient.Set</text>
<text text-anchor="middle" x="426.5" y="-70.5" font-family="Helvetica,sans-Serif" font-size="10.00">OnlineStatus</text>
</a>
</g>
</g>
<!-- Node2 -->
<g id="node2" class="node">
<title>Node2</title>
<g id="a_node2"><a xlink:href="class_photon_1_1_chat_1_1_chat_client.xhtml#a427aacde5ff51e6593888ffd12827cb3" target="_top" xlink:title=" ">
<polygon fill="white" stroke="black" points="170,-126.5 170,-156.5 322,-156.5 322,-126.5 170,-126.5"/>
<text text-anchor="start" x="178" y="-144.5" font-family="Helvetica,sans-Serif" font-size="10.00">Photon.Chat.ChatClient.Handle</text>
<text text-anchor="middle" x="246" y="-133.5" font-family="Helvetica,sans-Serif" font-size="10.00">AuthResponse</text>
</a>
</g>
</g>
<!-- Node1&#45;&gt;Node2 -->
<g id="edge1" class="edge">
<title>Node1&#45;&gt;Node2</title>
<path fill="none" stroke="midnightblue" d="M375.58,-97.17C358.62,-103.43 339.52,-110.37 322,-116.5 312.67,-119.77 302.66,-123.17 293.08,-126.38"/>
<polygon fill="midnightblue" stroke="midnightblue" points="377.13,-100.33 385.3,-93.58 374.7,-93.77 377.13,-100.33"/>
</g>
<!-- Node4 -->
<g id="node4" class="node">
<title>Node4</title>
<g id="a_node4"><a xlink:href="class_chat_gui.xhtml#a05ac6bff242c371c67f9f07e9966aba3" target="_top" xlink:title="Client is connected now.">
<polygon fill="white" stroke="black" points="189,-88 189,-107 303,-107 303,-88 189,-88"/>
<text text-anchor="middle" x="246" y="-95" font-family="Helvetica,sans-Serif" font-size="10.00">ChatGui.OnConnected</text>
</a>
</g>
</g>
<!-- Node1&#45;&gt;Node4 -->
<g id="edge3" class="edge">
<title>Node1&#45;&gt;Node4</title>
<path fill="none" stroke="midnightblue" d="M347.5,-86.8C332.55,-88.39 317.16,-90.03 303.07,-91.53"/>
<polygon fill="midnightblue" stroke="midnightblue" points="348.19,-90.25 357.76,-85.71 347.45,-83.29 348.19,-90.25"/>
</g>
<!-- Node5 -->
<g id="node5" class="node">
<title>Node5</title>
<g id="a_node5"><a xlink:href="class_chat_gui.xhtml#a68f45c78a96103fbc13469b6c0603295" target="_top" xlink:title=" ">
<polygon fill="white" stroke="black" points="177.5,-50 177.5,-69 314.5,-69 314.5,-50 177.5,-50"/>
<text text-anchor="middle" x="246" y="-57" font-family="Helvetica,sans-Serif" font-size="10.00">ChatGui.SendChatMessage</text>
</a>
</g>
</g>
<!-- Node1&#45;&gt;Node5 -->
<g id="edge4" class="edge">
<title>Node1&#45;&gt;Node5</title>
<path fill="none" stroke="midnightblue" d="M347.74,-70.22C336.73,-69.05 325.49,-67.85 314.69,-66.71"/>
<polygon fill="midnightblue" stroke="midnightblue" points="347.45,-73.71 357.76,-71.29 348.19,-66.75 347.45,-73.71"/>
</g>
<!-- Node8 -->
<g id="node8" class="node">
<title>Node8</title>
<g id="a_node8"><a xlink:href="class_photon_1_1_chat_1_1_chat_client.xhtml#a0d5755dc7972e0a68cf51863ff2d6ed1" target="_top" xlink:title="Sets the user&#39;s status without changing your status&#45;message.">
<polygon fill="white" stroke="black" points="177.5,-0.5 177.5,-30.5 314.5,-30.5 314.5,-0.5 177.5,-0.5"/>
<text text-anchor="start" x="185.5" y="-18.5" font-family="Helvetica,sans-Serif" font-size="10.00">Photon.Chat.ChatClient.Set</text>
<text text-anchor="middle" x="246" y="-7.5" font-family="Helvetica,sans-Serif" font-size="10.00">OnlineStatus</text>
</a>
</g>
</g>
<!-- Node1&#45;&gt;Node8 -->
<g id="edge7" class="edge">
<title>Node1&#45;&gt;Node8</title>
<path fill="none" stroke="midnightblue" d="M375.58,-59.83C358.62,-53.57 339.52,-46.63 322,-40.5 312.67,-37.23 302.66,-33.83 293.08,-30.62"/>
<polygon fill="midnightblue" stroke="midnightblue" points="374.7,-63.23 385.3,-63.42 377.13,-56.67 374.7,-63.23"/>
</g>
<!-- Node3 -->
<g id="node3" class="node">
<title>Node3</title>
<g id="a_node3"><a xlink:href="class_photon_1_1_chat_1_1_chat_client.xhtml#a6fa6375e40c2b85a51b3d989cb46cc4b" target="_top" xlink:title=" ">
<polygon fill="white" stroke="black" points="0,-126.5 0,-156.5 134,-156.5 134,-126.5 0,-126.5"/>
<text text-anchor="start" x="8" y="-144.5" font-family="Helvetica,sans-Serif" font-size="10.00">Photon.Chat.ChatClient.On</text>
<text text-anchor="middle" x="67" y="-133.5" font-family="Helvetica,sans-Serif" font-size="10.00">OperationResponse</text>
</a>
</g>
</g>
<!-- Node2&#45;&gt;Node3 -->
<g id="edge2" class="edge">
<title>Node2&#45;&gt;Node3</title>
<path fill="none" stroke="midnightblue" d="M159.86,-141.5C151.24,-141.5 142.59,-141.5 134.21,-141.5"/>
<polygon fill="midnightblue" stroke="midnightblue" points="159.94,-145 169.94,-141.5 159.94,-138 159.94,-145"/>
</g>
<!-- Node6 -->
<g id="node6" class="node">
<title>Node6</title>
<g id="a_node6"><a xlink:href="class_chat_gui.xhtml#a4d4a6ffcf4f6191edf14ce7274c91717" target="_top" xlink:title=" ">
<polygon fill="white" stroke="black" points="11,-69 11,-88 123,-88 123,-69 11,-69"/>
<text text-anchor="middle" x="67" y="-76" font-family="Helvetica,sans-Serif" font-size="10.00">ChatGui.OnClickSend</text>
</a>
</g>
</g>
<!-- Node5&#45;&gt;Node6 -->
<g id="edge5" class="edge">
<title>Node5&#45;&gt;Node6</title>
<path fill="none" stroke="midnightblue" d="M167.12,-67.86C152.25,-69.46 136.98,-71.1 123.01,-72.6"/>
<polygon fill="midnightblue" stroke="midnightblue" points="167.76,-71.31 177.33,-66.76 167.01,-64.35 167.76,-71.31"/>
</g>
<!-- Node7 -->
<g id="node7" class="node">
<title>Node7</title>
<g id="a_node7"><a xlink:href="class_chat_gui.xhtml#adcb3927d375b06b5525f47cd6a4ee727" target="_top" xlink:title=" ">
<polygon fill="white" stroke="black" points="10.5,-31 10.5,-50 123.5,-50 123.5,-31 10.5,-31"/>
<text text-anchor="middle" x="67" y="-38" font-family="Helvetica,sans-Serif" font-size="10.00">ChatGui.OnEnterSend</text>
</a>
</g>
</g>
<!-- Node5&#45;&gt;Node7 -->
<g id="edge6" class="edge">
<title>Node5&#45;&gt;Node7</title>
<path fill="none" stroke="midnightblue" d="M167.23,-51.15C152.53,-49.57 137.42,-47.95 123.57,-46.46"/>
<polygon fill="midnightblue" stroke="midnightblue" points="167.01,-54.65 177.33,-52.24 167.76,-47.69 167.01,-54.65"/>
</g>
</g>
</svg>
        <g id="navigator" transform="translate(0 0)" fill="#404254">
                <rect fill="#f2f5e9" fill-opacity="0.5" stroke="#606060" stroke-width=".5" x="0" y="0" width="60" height="60"/>
                <use id="zoomplus" xlink:href="#zoomPlus" x="17" y="9" onmousedown="handleZoom(evt,'in')"/>
                <use id="zoomminus" xlink:href="#zoomMin" x="42" y="9" onmousedown="handleZoom(evt,'out')"/>
                <use id="reset" xlink:href="#resetDef" x="30" y="36" onmousedown="handleReset()"/>
                <g id="arrowUp" xlink:href="#dirArrow" transform="translate(30 24)" onmousedown="handlePan(0,-1)">
                  <use xlink:href="#rim" fill="#404040">
                        <set attributeName="fill" to="#808080" begin="arrowUp.mouseover" end="arrowUp.mouseout"/>
                  </use>
                  <path fill="none" stroke="white" stroke-width="1.5" d="M0,-3.0v7 M-2.5,-0.5L0,-3.0L2.5,-0.5"/>
                </g>
                <g id="arrowRight" xlink:href="#dirArrow" transform="rotate(90) translate(36 -43)" onmousedown="handlePan(1,0)">
                  <use xlink:href="#rim" fill="#404040">
                        <set attributeName="fill" to="#808080" begin="arrowRight.mouseover" end="arrowRight.mouseout"/>
                  </use>
                  <path fill="none" stroke="white" stroke-width="1.5" d="M0,-3.0v7 M-2.5,-0.5L0,-3.0L2.5,-0.5"/>
                </g>
                <g id="arrowDown" xlink:href="#dirArrow" transform="rotate(180) translate(-30 -48)" onmousedown="handlePan(0,1)">
                  <use xlink:href="#rim" fill="#404040">
                        <set attributeName="fill" to="#808080" begin="arrowDown.mouseover" end="arrowDown.mouseout"/>
                  </use>
                  <path fill="none" stroke="white" stroke-width="1.5" d="M0,-3.0v7 M-2.5,-0.5L0,-3.0L2.5,-0.5"/>
                </g>
                <g id="arrowLeft" xlink:href="#dirArrow" transform="rotate(270) translate(-36 17)" onmousedown="handlePan(-1,0)">
                  <use xlink:href="#rim" fill="#404040">
                        <set attributeName="fill" to="#808080" begin="arrowLeft.mouseover" end="arrowLeft.mouseout"/>
                  </use>
                  <path fill="none" stroke="white" stroke-width="1.5" d="M0,-3.0v7 M-2.5,-0.5L0,-3.0L2.5,-0.5"/>
                </g>
        </g>
        <svg viewBox="0 0 15 15" width="100%" height="30px" preserveAspectRatio="xMaxYMin meet">
         <g id="arrow_out" transform="scale(0.3 0.3)">
          <a xlink:href="class_photon_1_1_chat_1_1_chat_client_a4082838ff7355c23a7d92b02e8405efc_icgraph_org.svg" target="_base">
           <rect id="button" ry="5" rx="5" y="6" x="6" height="38" width="38"
                fill="#f2f5e9" fill-opacity="0.5" stroke="#606060" stroke-width="1.0"/>
           <path id="arrow"
             d="M 11.500037,31.436501 C 11.940474,20.09759 22.043105,11.32322 32.158766,21.979434 L 37.068811,17.246167 C 37.068811,17.246167 37.088388,32 37.088388,32 L 22.160133,31.978069 C 22.160133,31.978069 26.997745,27.140456 26.997745,27.140456 C 18.528582,18.264221 13.291696,25.230495 11.500037,31.436501 z"
             style="fill:#404040;"/>
          </a>
         </g>
        </svg>
</svg>
