<?xml version="1.0" encoding="UTF-8" standalone="no"?>
<!DOCTYPE svg PUBLIC "-//W3C//DTD SVG 1.1//EN"
 "http://www.w3.org/Graphics/SVG/1.1/DTD/svg11.dtd">
<!-- Generated by graphviz version 2.47.3 (20210619.1520)
 -->
<!-- Title: Photon.Chat.ChatClient.Disconnect Pages: 1 -->
<svg width="536pt" height="165pt"
 viewBox="0.00 0.00 536.00 165.00" xmlns="http://www.w3.org/2000/svg" xmlns:xlink="http://www.w3.org/1999/xlink">
<g id="graph0" class="graph" transform="scale(1 1) rotate(0) translate(4 161)">
<title>Photon.Chat.ChatClient.Disconnect</title>
<polygon fill="white" stroke="transparent" points="-4,4 -4,-161 532,-161 532,4 -4,4"/>
<!-- Node1 -->
<g id="node1" class="node">
<title>Node1</title>
<g id="a_node1"><a xlink:title="Disconnects from the Chat Server by sending a &quot;disconnect command&quot;, which prevents a timeout server&#45;s...">
<polygon fill="#bfbfbf" stroke="black" points="358,-69 358,-88 528,-88 528,-69 358,-69"/>
<text text-anchor="middle" x="443" y="-76" font-family="Helvetica,sans-Serif" font-size="10.00">Photon.Chat.ChatClient.Disconnect</text>
</a>
</g>
</g>
<!-- Node2 -->
<g id="node2" class="node">
<title>Node2</title>
<g id="a_node2"><a xlink:href="class_photon_1_1_chat_1_1_chat_client.xhtml#a427aacde5ff51e6593888ffd12827cb3" target="_top" xlink:title=" ">
<polygon fill="white" stroke="black" points="170,-126.5 170,-156.5 322,-156.5 322,-126.5 170,-126.5"/>
<text text-anchor="start" x="178" y="-144.5" font-family="Helvetica,sans-Serif" font-size="10.00">Photon.Chat.ChatClient.Handle</text>
<text text-anchor="middle" x="246" y="-133.5" font-family="Helvetica,sans-Serif" font-size="10.00">AuthResponse</text>
</a>
</g>
</g>
<!-- Node1&#45;&gt;Node2 -->
<g id="edge1" class="edge">
<title>Node1&#45;&gt;Node2</title>
<path fill="none" stroke="midnightblue" d="M402.64,-91.22C371.14,-101.39 326.9,-115.69 293.63,-126.43"/>
<polygon fill="midnightblue" stroke="midnightblue" points="403.94,-94.47 412.38,-88.07 401.79,-87.81 403.94,-94.47"/>
</g>
<!-- Node4 -->
<g id="node4" class="node">
<title>Node4</title>
<g id="a_node4"><a xlink:href="class_chat_gui.xhtml#a99287e1c9a536cd7b280f30327547263" target="_top" xlink:title="To avoid that the Editor becomes unresponsive, disconnect all Photon connections in OnApplicationQuit...">
<polygon fill="white" stroke="black" points="179,-88 179,-107 313,-107 313,-88 179,-88"/>
<text text-anchor="middle" x="246" y="-95" font-family="Helvetica,sans-Serif" font-size="10.00">ChatGui.OnApplicationQuit</text>
</a>
</g>
</g>
<!-- Node1&#45;&gt;Node4 -->
<g id="edge3" class="edge">
<title>Node1&#45;&gt;Node4</title>
<path fill="none" stroke="midnightblue" d="M347.68,-87.69C336.03,-88.83 324.31,-89.97 313.21,-91.05"/>
<polygon fill="midnightblue" stroke="midnightblue" points="348.27,-91.15 357.89,-86.7 347.6,-84.18 348.27,-91.15"/>
</g>
<!-- Node5 -->
<g id="node5" class="node">
<title>Node5</title>
<g id="a_node5"><a xlink:href="class_chat_gui.xhtml#a8fc168076e41b1e146234cb1be121013" target="_top" xlink:title="To avoid that the Editor becomes unresponsive, disconnect all Photon connections in OnDestroy.">
<polygon fill="white" stroke="black" points="195.5,-50 195.5,-69 296.5,-69 296.5,-50 195.5,-50"/>
<text text-anchor="middle" x="246" y="-57" font-family="Helvetica,sans-Serif" font-size="10.00">ChatGui.OnDestroy</text>
</a>
</g>
</g>
<!-- Node1&#45;&gt;Node5 -->
<g id="edge4" class="edge">
<title>Node1&#45;&gt;Node5</title>
<path fill="none" stroke="midnightblue" d="M347.54,-69.3C329.91,-67.58 312.14,-65.85 296.55,-64.33"/>
<polygon fill="midnightblue" stroke="midnightblue" points="347.6,-72.82 357.89,-70.3 348.27,-65.85 347.6,-72.82"/>
</g>
<!-- Node6 -->
<g id="node6" class="node">
<title>Node6</title>
<g id="a_node6"><a xlink:href="class_photon_1_1_chat_1_1_chat_client.xhtml#af4a59688bc7fd4ced31ef2d68f552c40" target="_top" xlink:title=" ">
<polygon fill="white" stroke="black" points="179,-0.5 179,-30.5 313,-30.5 313,-0.5 179,-0.5"/>
<text text-anchor="start" x="187" y="-18.5" font-family="Helvetica,sans-Serif" font-size="10.00">Photon.Chat.ChatClient.On</text>
<text text-anchor="middle" x="246" y="-7.5" font-family="Helvetica,sans-Serif" font-size="10.00">StatusChanged</text>
</a>
</g>
</g>
<!-- Node1&#45;&gt;Node6 -->
<g id="edge5" class="edge">
<title>Node1&#45;&gt;Node6</title>
<path fill="none" stroke="midnightblue" d="M402.64,-65.78C371.14,-55.61 326.9,-41.31 293.63,-30.57"/>
<polygon fill="midnightblue" stroke="midnightblue" points="401.79,-69.19 412.38,-68.93 403.94,-62.53 401.79,-69.19"/>
</g>
<!-- Node3 -->
<g id="node3" class="node">
<title>Node3</title>
<g id="a_node3"><a xlink:href="class_photon_1_1_chat_1_1_chat_client.xhtml#a6fa6375e40c2b85a51b3d989cb46cc4b" target="_top" xlink:title=" ">
<polygon fill="white" stroke="black" points="0,-126.5 0,-156.5 134,-156.5 134,-126.5 0,-126.5"/>
<text text-anchor="start" x="8" y="-144.5" font-family="Helvetica,sans-Serif" font-size="10.00">Photon.Chat.ChatClient.On</text>
<text text-anchor="middle" x="67" y="-133.5" font-family="Helvetica,sans-Serif" font-size="10.00">OperationResponse</text>
</a>
</g>
</g>
<!-- Node2&#45;&gt;Node3 -->
<g id="edge2" class="edge">
<title>Node2&#45;&gt;Node3</title>
<path fill="none" stroke="midnightblue" d="M159.86,-141.5C151.24,-141.5 142.59,-141.5 134.21,-141.5"/>
<polygon fill="midnightblue" stroke="midnightblue" points="159.94,-145 169.94,-141.5 159.94,-138 159.94,-145"/>
</g>
</g>
</svg>
