<?xml version="1.0" encoding="UTF-8" standalone="no"?>
<!DOCTYPE svg PUBLIC "-//W3C//DTD SVG 1.1//EN"
 "http://www.w3.org/Graphics/SVG/1.1/DTD/svg11.dtd">
<!-- Generated by graphviz version 2.47.3 (20210619.1520)
 -->
<!-- Title: Tayx.Graphy.Utils.NumString.G_FloatString.FromIndex Pages: 1 -->
<svg width="727pt" height="137pt"
 viewBox="0.00 0.00 727.00 137.00" xmlns="http://www.w3.org/2000/svg" xmlns:xlink="http://www.w3.org/1999/xlink">
<g id="graph0" class="graph" transform="scale(1 1) rotate(0) translate(4 133)">
<title>Tayx.Graphy.Utils.NumString.G_FloatString.FromIndex</title>
<polygon fill="white" stroke="transparent" points="-4,4 -4,-133 723,-133 723,4 -4,4"/>
<!-- Node1 -->
<g id="node1" class="node">
<title>Node1</title>
<g id="a_node1"><a xlink:title=" ">
<polygon fill="#bfbfbf" stroke="black" points="573,-49.5 573,-79.5 719,-79.5 719,-49.5 573,-49.5"/>
<text text-anchor="start" x="581" y="-67.5" font-family="Helvetica,sans-Serif" font-size="10.00">Tayx.Graphy.Utils.NumString.</text>
<text text-anchor="middle" x="646" y="-56.5" font-family="Helvetica,sans-Serif" font-size="10.00">G_FloatString.FromIndex</text>
</a>
</g>
</g>
<!-- Node2 -->
<g id="node2" class="node">
<title>Node2</title>
<g id="a_node2"><a xlink:href="class_tayx_1_1_graphy_1_1_utils_1_1_num_string_1_1_g___float_string.xhtml#a8f7451fa123e8927d12e8a42859d2201" target="_top" xlink:title="Initialize the buffers.">
<polygon fill="white" stroke="black" points="391,-49.5 391,-79.5 537,-79.5 537,-49.5 391,-49.5"/>
<text text-anchor="start" x="399" y="-67.5" font-family="Helvetica,sans-Serif" font-size="10.00">Tayx.Graphy.Utils.NumString.</text>
<text text-anchor="middle" x="464" y="-56.5" font-family="Helvetica,sans-Serif" font-size="10.00">G_FloatString.Init</text>
</a>
</g>
</g>
<!-- Node1&#45;&gt;Node2 -->
<g id="edge1" class="edge">
<title>Node1&#45;&gt;Node2</title>
<path fill="none" stroke="midnightblue" d="M562.56,-64.5C554.09,-64.5 545.54,-64.5 537.19,-64.5"/>
<polygon fill="midnightblue" stroke="midnightblue" points="562.82,-68 572.82,-64.5 562.82,-61 562.82,-68"/>
</g>
<!-- Node3 -->
<g id="node3" class="node">
<title>Node3</title>
<g id="a_node3"><a xlink:href="class_tayx_1_1_graphy_1_1_advanced_1_1_g___advanced_data.xhtml#a2092a4aebd0008fddf83bd40c9bd7712" target="_top" xlink:title=" ">
<polygon fill="white" stroke="black" points="208,-98.5 208,-128.5 336,-128.5 336,-98.5 208,-98.5"/>
<text text-anchor="start" x="216" y="-116.5" font-family="Helvetica,sans-Serif" font-size="10.00">Tayx.Graphy.Advanced.G</text>
<text text-anchor="middle" x="272" y="-105.5" font-family="Helvetica,sans-Serif" font-size="10.00">_AdvancedData.Init</text>
</a>
</g>
</g>
<!-- Node2&#45;&gt;Node3 -->
<g id="edge2" class="edge">
<title>Node2&#45;&gt;Node3</title>
<path fill="none" stroke="midnightblue" d="M394.95,-82.05C374.09,-87.43 351.33,-93.3 331.19,-98.49"/>
<polygon fill="midnightblue" stroke="midnightblue" points="395.89,-85.42 404.7,-79.53 394.15,-78.64 395.89,-85.42"/>
</g>
<!-- Node5 -->
<g id="node5" class="node">
<title>Node5</title>
<g id="a_node5"><a xlink:href="class_tayx_1_1_graphy_1_1_audio_1_1_g___audio_text.xhtml#a415b63f9a1700f27cface7658037aa0d" target="_top" xlink:title=" ">
<polygon fill="white" stroke="black" points="217,-49.5 217,-79.5 327,-79.5 327,-49.5 217,-49.5"/>
<text text-anchor="start" x="225" y="-67.5" font-family="Helvetica,sans-Serif" font-size="10.00">Tayx.Graphy.Audio.G</text>
<text text-anchor="middle" x="272" y="-56.5" font-family="Helvetica,sans-Serif" font-size="10.00">_AudioText.Init</text>
</a>
</g>
</g>
<!-- Node2&#45;&gt;Node5 -->
<g id="edge4" class="edge">
<title>Node2&#45;&gt;Node5</title>
<path fill="none" stroke="midnightblue" d="M380.86,-64.5C362.63,-64.5 343.76,-64.5 327,-64.5"/>
<polygon fill="midnightblue" stroke="midnightblue" points="380.9,-68 390.9,-64.5 380.9,-61 380.9,-68"/>
</g>
<!-- Node7 -->
<g id="node7" class="node">
<title>Node7</title>
<g id="a_node7"><a xlink:href="class_tayx_1_1_graphy_1_1_ram_1_1_g___ram_text.xhtml#abcbe18ea2f3cf516f387e97c71033f88" target="_top" xlink:title=" ">
<polygon fill="white" stroke="black" points="189,-9 189,-28 355,-28 355,-9 189,-9"/>
<text text-anchor="middle" x="272" y="-16" font-family="Helvetica,sans-Serif" font-size="10.00">Tayx.Graphy.Ram.G_RamText.Init</text>
</a>
</g>
</g>
<!-- Node2&#45;&gt;Node7 -->
<g id="edge6" class="edge">
<title>Node2&#45;&gt;Node7</title>
<path fill="none" stroke="midnightblue" d="M390.73,-47C364.12,-40.56 334.99,-33.51 312.36,-28.03"/>
<polygon fill="midnightblue" stroke="midnightblue" points="390.24,-50.49 400.79,-49.44 391.89,-43.68 390.24,-50.49"/>
</g>
<!-- Node4 -->
<g id="node4" class="node">
<title>Node4</title>
<g id="a_node4"><a xlink:href="class_tayx_1_1_graphy_1_1_advanced_1_1_g___advanced_data.xhtml#a27dc840460b80ace5f3610035e41d69b" target="_top" xlink:title=" ">
<polygon fill="white" stroke="black" points="11.5,-98.5 11.5,-128.5 141.5,-128.5 141.5,-98.5 11.5,-98.5"/>
<text text-anchor="start" x="19.5" y="-116.5" font-family="Helvetica,sans-Serif" font-size="10.00">Tayx.Graphy.Advanced.G</text>
<text text-anchor="middle" x="76.5" y="-105.5" font-family="Helvetica,sans-Serif" font-size="10.00">_AdvancedData.OnEnable</text>
</a>
</g>
</g>
<!-- Node3&#45;&gt;Node4 -->
<g id="edge3" class="edge">
<title>Node3&#45;&gt;Node4</title>
<path fill="none" stroke="midnightblue" d="M197.82,-113.5C179.41,-113.5 159.78,-113.5 141.83,-113.5"/>
<polygon fill="midnightblue" stroke="midnightblue" points="197.91,-117 207.91,-113.5 197.91,-110 197.91,-117"/>
</g>
<!-- Node6 -->
<g id="node6" class="node">
<title>Node6</title>
<g id="a_node6"><a xlink:href="class_tayx_1_1_graphy_1_1_audio_1_1_g___audio_text.xhtml#a615155aeff17aacd0f61dd99bb647676" target="_top" xlink:title=" ">
<polygon fill="white" stroke="black" points="21.5,-49.5 21.5,-79.5 131.5,-79.5 131.5,-49.5 21.5,-49.5"/>
<text text-anchor="start" x="29.5" y="-67.5" font-family="Helvetica,sans-Serif" font-size="10.00">Tayx.Graphy.Audio.G</text>
<text text-anchor="middle" x="76.5" y="-56.5" font-family="Helvetica,sans-Serif" font-size="10.00">_AudioText.Awake</text>
</a>
</g>
</g>
<!-- Node5&#45;&gt;Node6 -->
<g id="edge5" class="edge">
<title>Node5&#45;&gt;Node6</title>
<path fill="none" stroke="midnightblue" d="M206.63,-64.5C182.32,-64.5 154.93,-64.5 131.64,-64.5"/>
<polygon fill="midnightblue" stroke="midnightblue" points="206.84,-68 216.84,-64.5 206.84,-61 206.84,-68"/>
</g>
<!-- Node8 -->
<g id="node8" class="node">
<title>Node8</title>
<g id="a_node8"><a xlink:href="class_tayx_1_1_graphy_1_1_ram_1_1_g___ram_text.xhtml#a1c7c8a900fc82433a28a685beffbd7e5" target="_top" xlink:title=" ">
<polygon fill="white" stroke="black" points="0,-0.5 0,-30.5 153,-30.5 153,-0.5 0,-0.5"/>
<text text-anchor="start" x="8" y="-18.5" font-family="Helvetica,sans-Serif" font-size="10.00">Tayx.Graphy.Ram.G_RamText.</text>
<text text-anchor="middle" x="76.5" y="-7.5" font-family="Helvetica,sans-Serif" font-size="10.00">Awake</text>
</a>
</g>
</g>
<!-- Node7&#45;&gt;Node8 -->
<g id="edge7" class="edge">
<title>Node7&#45;&gt;Node8</title>
<path fill="none" stroke="midnightblue" d="M178.89,-17.07C170.29,-16.94 161.65,-16.8 153.23,-16.67"/>
<polygon fill="midnightblue" stroke="midnightblue" points="178.89,-20.57 188.94,-17.23 178.99,-13.57 178.89,-20.57"/>
</g>
</g>
</svg>
