<?xml version="1.0" encoding="UTF-8" standalone="no"?>
<!DOCTYPE svg PUBLIC "-//W3C//DTD SVG 1.1//EN"
 "http://www.w3.org/Graphics/SVG/1.1/DTD/svg11.dtd">
<!-- Generated by graphviz version 2.47.3 (20210619.1520)
 -->
<!-- Title: Photon.Realtime.LoadBalancingPeer.OpChangeGroups Pages: 1 -->
<svg width="530pt" height="39pt"
 viewBox="0.00 0.00 530.00 39.00" xmlns="http://www.w3.org/2000/svg" xmlns:xlink="http://www.w3.org/1999/xlink">
<g id="graph0" class="graph" transform="scale(1 1) rotate(0) translate(4 35)">
<title>Photon.Realtime.LoadBalancingPeer.OpChangeGroups</title>
<polygon fill="white" stroke="transparent" points="-4,4 -4,-35 526,-35 526,4 -4,4"/>
<!-- Node1 -->
<g id="node1" class="node">
<title>Node1</title>
<g id="a_node1"><a xlink:title="Operation to handle this client&#39;s interest groups (for events in room).">
<polygon fill="#bfbfbf" stroke="black" points="367,-0.5 367,-30.5 522,-30.5 522,-0.5 367,-0.5"/>
<text text-anchor="start" x="375" y="-18.5" font-family="Helvetica,sans-Serif" font-size="10.00">Photon.Realtime.LoadBalancing</text>
<text text-anchor="middle" x="444.5" y="-7.5" font-family="Helvetica,sans-Serif" font-size="10.00">Peer.OpChangeGroups</text>
</a>
</g>
</g>
<!-- Node2 -->
<g id="node2" class="node">
<title>Node2</title>
<g id="a_node2"><a xlink:href="class_photon_1_1_realtime_1_1_load_balancing_client.xhtml#a41c63e80c17b1f434f27d49ecdcb5fd2" target="_top" xlink:title="Operation to handle this client&#39;s interest groups (for events in room).">
<polygon fill="white" stroke="black" points="176,-0.5 176,-30.5 331,-30.5 331,-0.5 176,-0.5"/>
<text text-anchor="start" x="184" y="-18.5" font-family="Helvetica,sans-Serif" font-size="10.00">Photon.Realtime.LoadBalancing</text>
<text text-anchor="middle" x="253.5" y="-7.5" font-family="Helvetica,sans-Serif" font-size="10.00">Client.OpChangeGroups</text>
</a>
</g>
</g>
<!-- Node1&#45;&gt;Node2 -->
<g id="edge1" class="edge">
<title>Node1&#45;&gt;Node2</title>
<path fill="none" stroke="midnightblue" d="M356.9,-15.5C348.33,-15.5 339.67,-15.5 331.21,-15.5"/>
<polygon fill="midnightblue" stroke="midnightblue" points="356.9,-19 366.9,-15.5 356.9,-12 356.9,-19"/>
</g>
<!-- Node3 -->
<g id="node3" class="node">
<title>Node3</title>
<g id="a_node3"><a xlink:href="class_photon_1_1_pun_1_1_photon_network.xhtml#ae25c8c7c59cc3a949c87f65e7fb17137" target="_top" xlink:title="Enable/disable receiving on given Interest Groups (applied to PhotonViews).">
<polygon fill="white" stroke="black" points="0,-0.5 0,-30.5 140,-30.5 140,-0.5 0,-0.5"/>
<text text-anchor="start" x="8" y="-18.5" font-family="Helvetica,sans-Serif" font-size="10.00">Photon.Pun.PhotonNetwork.</text>
<text text-anchor="middle" x="70" y="-7.5" font-family="Helvetica,sans-Serif" font-size="10.00">SetInterestGroups</text>
</a>
</g>
</g>
<!-- Node2&#45;&gt;Node3 -->
<g id="edge2" class="edge">
<title>Node2&#45;&gt;Node3</title>
<path fill="none" stroke="midnightblue" d="M165.77,-15.5C157.2,-15.5 148.59,-15.5 140.23,-15.5"/>
<polygon fill="midnightblue" stroke="midnightblue" points="165.79,-19 175.79,-15.5 165.79,-12 165.79,-19"/>
</g>
</g>
</svg>
