<?xml version="1.0" encoding="UTF-8" standalone="no"?>
<!DOCTYPE svg PUBLIC "-//W3C//DTD SVG 1.1//EN"
 "http://www.w3.org/Graphics/SVG/1.1/DTD/svg11.dtd">
<!-- Generated by graphviz version 2.47.3 (20210619.1520)
 -->
<!-- Title: Photon.Pun.Demo.Cockpit.FriendListView Pages: 1 -->
<!--zoomable 322 -->
<svg id="main" version="1.1" xmlns="http://www.w3.org/2000/svg" xmlns:xlink="http://www.w3.org/1999/xlink" xml:space="preserve" onload="init(evt)">
<style type="text/css"><![CDATA[
.edge:hover path { stroke: red; }
.edge:hover polygon { stroke: red; fill: red; }
]]></style>
<script type="text/javascript"><![CDATA[
var edges = document.getElementsByTagName('g');
if (edges && edges.length) {
  for (var i=0;i<edges.length;i++) {
    if (edges[i].id.substr(0,4)=='edge') {
      edges[i].setAttribute('class','edge');
    }
  }
}
]]></script>
        <defs>
                <circle id="rim" cx="0" cy="0" r="7"/>
                <circle id="rim2" cx="0" cy="0" r="3.5"/>
                <g id="zoomPlus">
                        <use xlink:href="#rim" fill="#404040">
                                <set attributeName="fill" to="#808080" begin="zoomplus.mouseover" end="zoomplus.mouseout"/>
                        </use>
                        <path d="M-4,0h8M0,-4v8" fill="none" stroke="white" stroke-width="1.5" pointer-events="none"/>
                </g>
                <g id="zoomMin">
                        <use xlink:href="#rim" fill="#404040">
                                <set attributeName="fill" to="#808080" begin="zoomminus.mouseover" end="zoomminus.mouseout"/>
                        </use>
                        <path d="M-4,0h8" fill="none" stroke="white" stroke-width="1.5" pointer-events="none"/>
                </g>
                <g id="dirArrow">
                        <path fill="none" stroke="white" stroke-width="1.5" d="M0,-3.0v7 M-2.5,-0.5L0,-3.0L2.5,-0.5"/>
                </g>
               <g id="resetDef">
                       <use xlink:href="#rim2" fill="#404040">
                               <set attributeName="fill" to="#808080" begin="reset.mouseover" end="reset.mouseout"/>
                       </use>
               </g>
        </defs>

<script type="text/javascript">
var viewWidth = 1208;
var viewHeight = 322;
var sectionId = 'dynsection-1';
</script>
<script xlink:href="svgpan.js"/>
<svg id="graph" class="graph">
<g id="viewport">
<title>Photon.Pun.Demo.Cockpit.FriendListView</title>
<polygon fill="white" stroke="transparent" points="-4,4 -4,-318 1204,-318 1204,4 -4,4"/>
<!-- Node1 -->
<g id="node1" class="node">
<title>Node1</title>
<g id="a_node1"><a xlink:title="Friend list UI view.">
<polygon fill="#bfbfbf" stroke="black" points="832,-115 832,-145 967,-145 967,-115 832,-115"/>
<text text-anchor="start" x="840" y="-133" font-family="Helvetica,sans-Serif" font-size="10.00">Photon.Pun.Demo.Cockpit.</text>
<text text-anchor="middle" x="899.5" y="-122" font-family="Helvetica,sans-Serif" font-size="10.00">FriendListView</text>
</a>
</g>
</g>
<!-- Node16 -->
<g id="node16" class="node">
<title>Node16</title>
<g id="a_node16"><a xlink:href="class_photon_1_1_pun_1_1_demo_1_1_cockpit_1_1_friend_list_cell.xhtml" target="_top" xlink:title="Friend list cell">
<polygon fill="white" stroke="black" points="1065,-81 1065,-111 1200,-111 1200,-81 1065,-81"/>
<text text-anchor="start" x="1073" y="-99" font-family="Helvetica,sans-Serif" font-size="10.00">Photon.Pun.Demo.Cockpit.</text>
<text text-anchor="middle" x="1132.5" y="-88" font-family="Helvetica,sans-Serif" font-size="10.00">FriendListCell</text>
</a>
</g>
</g>
<!-- Node1&#45;&gt;Node16 -->
<g id="edge20" class="edge">
<title>Node1&#45;&gt;Node16</title>
<path fill="none" stroke="#9a32cd" stroke-dasharray="5,2" d="M938.38,-110.59C952.62,-104.3 969.18,-98.15 985,-95 1010.82,-89.86 1039.71,-89.04 1064.96,-89.89"/>
<polygon fill="#9a32cd" stroke="#9a32cd" points="936.57,-107.57 928.94,-114.93 939.49,-113.93 936.57,-107.57"/>
<text text-anchor="middle" x="1016" y="-98" font-family="Helvetica,sans-Serif" font-size="10.00"> ListManager</text>
</g>
<!-- Node2 -->
<g id="node2" class="node">
<title>Node2</title>
<g id="a_node2"><a xlink:href="class_photon_1_1_pun_1_1_mono_behaviour_pun_callbacks.xhtml" target="_top" xlink:title="This class provides a .photonView and all callbacks/events that PUN can call.">
<polygon fill="white" stroke="black" points="563,-152.5 563,-171.5 706,-171.5 706,-152.5 563,-152.5"/>
<text text-anchor="middle" x="634.5" y="-159.5" font-family="Helvetica,sans-Serif" font-size="10.00">MonoBehaviourPunCallbacks</text>
</a>
</g>
</g>
<!-- Node2&#45;&gt;Node1 -->
<g id="edge1" class="edge">
<title>Node2&#45;&gt;Node1</title>
<path fill="none" stroke="midnightblue" d="M716.56,-152.14C753.46,-147.65 796.61,-142.4 831.62,-138.14"/>
<polygon fill="midnightblue" stroke="midnightblue" points="715.83,-148.7 706.33,-153.38 716.67,-155.65 715.83,-148.7"/>
</g>
<!-- Node3 -->
<g id="node3" class="node">
<title>Node3</title>
<g id="a_node3"><a xlink:href="class_photon_1_1_pun_1_1_mono_behaviour_pun.xhtml" target="_top" xlink:title="This class adds the property photonView, while logging a warning when your game still uses the networ...">
<polygon fill="white" stroke="black" points="406,-228.5 406,-247.5 506,-247.5 506,-228.5 406,-228.5"/>
<text text-anchor="middle" x="456" y="-235.5" font-family="Helvetica,sans-Serif" font-size="10.00">MonoBehaviourPun</text>
</a>
</g>
</g>
<!-- Node3&#45;&gt;Node2 -->
<g id="edge2" class="edge">
<title>Node3&#45;&gt;Node2</title>
<path fill="none" stroke="midnightblue" d="M499.01,-225.27C504.77,-223.3 510.56,-221.18 516,-219 552.19,-204.48 592.79,-183.74 615.54,-171.69"/>
<polygon fill="midnightblue" stroke="midnightblue" points="497.83,-221.98 489.44,-228.45 500.04,-228.62 497.83,-221.98"/>
</g>
<!-- Node4 -->
<g id="node4" class="node">
<title>Node4</title>
<g id="a_node4"><a xlink:title=" ">
<polygon fill="white" stroke="#bfbfbf" points="18,-266.5 18,-285.5 101,-285.5 101,-266.5 18,-266.5"/>
<text text-anchor="middle" x="59.5" y="-273.5" font-family="Helvetica,sans-Serif" font-size="10.00">MonoBehaviour</text>
</a>
</g>
</g>
<!-- Node4&#45;&gt;Node3 -->
<g id="edge3" class="edge">
<title>Node4&#45;&gt;Node3</title>
<path fill="none" stroke="midnightblue" d="M111.04,-274.21C173.85,-271.56 284.2,-265.49 378,-253 388.67,-251.58 400.08,-249.61 410.77,-247.56"/>
<polygon fill="midnightblue" stroke="midnightblue" points="110.85,-270.72 101,-274.62 111.14,-277.71 110.85,-270.72"/>
</g>
<!-- Node5 -->
<g id="node5" class="node">
<title>Node5</title>
<g id="a_node5"><a xlink:href="class_photon_1_1_pun_1_1_photon_view.xhtml" target="_top" xlink:title="A PhotonView identifies an object across the network (viewID) and configures how the controlling clie...">
<polygon fill="white" stroke="black" points="198,-228.5 198,-247.5 320,-247.5 320,-228.5 198,-228.5"/>
<text text-anchor="middle" x="259" y="-235.5" font-family="Helvetica,sans-Serif" font-size="10.00">Photon.Pun.PhotonView</text>
</a>
</g>
</g>
<!-- Node4&#45;&gt;Node5 -->
<g id="edge5" class="edge">
<title>Node4&#45;&gt;Node5</title>
<path fill="none" stroke="midnightblue" d="M111.62,-266.16C141.43,-260.43 178.84,-253.23 208.38,-247.55"/>
<polygon fill="midnightblue" stroke="midnightblue" points="110.58,-262.8 101.42,-268.13 111.9,-269.67 110.58,-262.8"/>
</g>
<!-- Node4&#45;&gt;Node16 -->
<g id="edge17" class="edge">
<title>Node4&#45;&gt;Node16</title>
<path fill="none" stroke="midnightblue" d="M100.74,-288.39C140.35,-299.48 202.75,-314 258,-314 258,-314 258,-314 900.5,-314 1018.78,-314 1101.03,-160.95 1124.58,-111.33"/>
<polygon fill="midnightblue" stroke="midnightblue" points="101.52,-284.98 90.94,-285.59 99.59,-291.71 101.52,-284.98"/>
</g>
<!-- Node5&#45;&gt;Node3 -->
<g id="edge4" class="edge">
<title>Node5&#45;&gt;Node3</title>
<path fill="none" stroke="#9a32cd" stroke-dasharray="5,2" d="M330.29,-238C355.34,-238 383,-238 405.89,-238"/>
<polygon fill="#9a32cd" stroke="#9a32cd" points="330.1,-234.5 320.1,-238 330.1,-241.5 330.1,-234.5"/>
<text text-anchor="middle" x="358" y="-241" font-family="Helvetica,sans-Serif" font-size="10.00"> pvCache</text>
</g>
<!-- Node6 -->
<g id="node6" class="node">
<title>Node6</title>
<g id="a_node6"><a xlink:href="class_photon_1_1_realtime_1_1_player.xhtml" target="_top" xlink:title="Summarizes a &quot;player&quot; within a room, identified (in that room) by ID (or &quot;actorNumber&quot;).">
<polygon fill="white" stroke="black" points="0,-204.5 0,-223.5 119,-223.5 119,-204.5 0,-204.5"/>
<text text-anchor="middle" x="59.5" y="-211.5" font-family="Helvetica,sans-Serif" font-size="10.00">Photon.Realtime.Player</text>
</a>
</g>
</g>
<!-- Node6&#45;&gt;Node5 -->
<g id="edge6" class="edge">
<title>Node6&#45;&gt;Node5</title>
<path fill="none" stroke="#9a32cd" stroke-dasharray="5,2" d="M129.32,-211.31C145.98,-211.56 163.69,-212.58 180,-215 197.87,-217.66 217.37,-223.41 232.41,-228.49"/>
<polygon fill="#9a32cd" stroke="#9a32cd" points="129.12,-207.81 119.1,-211.25 129.08,-214.81 129.12,-207.81"/>
<text text-anchor="middle" x="158.5" y="-229" font-family="Helvetica,sans-Serif" font-size="10.00"> controller</text>
<text text-anchor="middle" x="158.5" y="-218" font-family="Helvetica,sans-Serif" font-size="10.00">owner</text>
</g>
<!-- Node7 -->
<g id="node7" class="node">
<title>Node7</title>
<g id="a_node7"><a xlink:href="interface_photon_1_1_realtime_1_1_i_connection_callbacks.xhtml" target="_top" xlink:title="Collection of &quot;organizational&quot; callbacks for the Realtime Api to cover: Connection and Regions.">
<polygon fill="white" stroke="black" points="401,-152.5 401,-171.5 511,-171.5 511,-152.5 401,-152.5"/>
<text text-anchor="middle" x="456" y="-159.5" font-family="Helvetica,sans-Serif" font-size="10.00">IConnectionCallbacks</text>
</a>
</g>
</g>
<!-- Node7&#45;&gt;Node2 -->
<g id="edge7" class="edge">
<title>Node7&#45;&gt;Node2</title>
<path fill="none" stroke="midnightblue" d="M521.47,-162C534.88,-162 549.08,-162 562.7,-162"/>
<polygon fill="midnightblue" stroke="midnightblue" points="521.4,-158.5 511.4,-162 521.4,-165.5 521.4,-158.5"/>
</g>
<!-- Node8 -->
<g id="node8" class="node">
<title>Node8</title>
<g id="a_node8"><a xlink:href="interface_photon_1_1_realtime_1_1_i_matchmaking_callbacks.xhtml" target="_top" xlink:title="Collection of &quot;organizational&quot; callbacks for the Realtime Api to cover Matchmaking.">
<polygon fill="white" stroke="black" points="396,-114.5 396,-133.5 516,-133.5 516,-114.5 396,-114.5"/>
<text text-anchor="middle" x="456" y="-121.5" font-family="Helvetica,sans-Serif" font-size="10.00">IMatchmakingCallbacks</text>
</a>
</g>
</g>
<!-- Node8&#45;&gt;Node2 -->
<g id="edge8" class="edge">
<title>Node8&#45;&gt;Node2</title>
<path fill="none" stroke="midnightblue" d="M511.59,-135.75C536.54,-141.13 565.73,-147.41 589.28,-152.48"/>
<polygon fill="midnightblue" stroke="midnightblue" points="512.05,-132.27 501.54,-133.59 510.58,-139.12 512.05,-132.27"/>
</g>
<!-- Node9 -->
<g id="node9" class="node">
<title>Node9</title>
<g id="a_node9"><a xlink:href="interface_photon_1_1_realtime_1_1_i_in_room_callbacks.xhtml" target="_top" xlink:title="Collection of &quot;in room&quot; callbacks for the Realtime Api to cover: Players entering or leaving,...">
<polygon fill="white" stroke="black" points="408.5,-76.5 408.5,-95.5 503.5,-95.5 503.5,-76.5 408.5,-76.5"/>
<text text-anchor="middle" x="456" y="-83.5" font-family="Helvetica,sans-Serif" font-size="10.00">IInRoomCallbacks</text>
</a>
</g>
</g>
<!-- Node9&#45;&gt;Node2 -->
<g id="edge9" class="edge">
<title>Node9&#45;&gt;Node2</title>
<path fill="none" stroke="midnightblue" d="M504.38,-99.21C508.41,-100.94 512.34,-102.87 516,-105 535.3,-116.24 533.52,-128.08 553,-139 563.14,-144.68 574.81,-149.06 586.05,-152.39"/>
<polygon fill="midnightblue" stroke="midnightblue" points="505.46,-95.87 494.87,-95.51 502.92,-102.4 505.46,-95.87"/>
</g>
<!-- Node10 -->
<g id="node10" class="node">
<title>Node10</title>
<g id="a_node10"><a xlink:href="interface_photon_1_1_realtime_1_1_i_lobby_callbacks.xhtml" target="_top" xlink:title="Collection of &quot;organizational&quot; callbacks for the Realtime Api to cover the Lobby.">
<polygon fill="white" stroke="black" points="412,-38.5 412,-57.5 500,-57.5 500,-38.5 412,-38.5"/>
<text text-anchor="middle" x="456" y="-45.5" font-family="Helvetica,sans-Serif" font-size="10.00">ILobbyCallbacks</text>
</a>
</g>
</g>
<!-- Node10&#45;&gt;Node2 -->
<g id="edge10" class="edge">
<title>Node10&#45;&gt;Node2</title>
<path fill="none" stroke="midnightblue" d="M509.43,-62.25C511.75,-63.68 513.95,-65.26 516,-67 543.43,-90.28 525.19,-116.18 553,-139 560.08,-144.81 568.55,-149.15 577.3,-152.4"/>
<polygon fill="midnightblue" stroke="midnightblue" points="510.54,-58.88 500.05,-57.4 507.32,-65.1 510.54,-58.88"/>
</g>
<!-- Node11 -->
<g id="node11" class="node">
<title>Node11</title>
<g id="a_node11"><a xlink:href="interface_photon_1_1_realtime_1_1_i_web_rpc_callback.xhtml" target="_top" xlink:title="Interface for &quot;WebRpc&quot; callbacks for the Realtime Api.">
<polygon fill="white" stroke="black" points="409,-266.5 409,-285.5 503,-285.5 503,-266.5 409,-266.5"/>
<text text-anchor="middle" x="456" y="-273.5" font-family="Helvetica,sans-Serif" font-size="10.00">IWebRpcCallback</text>
</a>
</g>
</g>
<!-- Node11&#45;&gt;Node2 -->
<g id="edge11" class="edge">
<title>Node11&#45;&gt;Node2</title>
<path fill="none" stroke="midnightblue" d="M503.36,-262.9C507.72,-261.12 512.01,-259.16 516,-257 560.77,-232.79 605.16,-190.72 624.04,-171.76"/>
<polygon fill="midnightblue" stroke="midnightblue" points="501.9,-259.71 493.75,-266.48 504.34,-266.27 501.9,-259.71"/>
</g>
<!-- Node12 -->
<g id="node12" class="node">
<title>Node12</title>
<g id="a_node12"><a xlink:href="interface_photon_1_1_realtime_1_1_i_error_info_callback.xhtml" target="_top" xlink:title="Interface for EventCode.ErrorInfo event callback for the Realtime Api.">
<polygon fill="white" stroke="black" points="410,-190.5 410,-209.5 502,-209.5 502,-190.5 410,-190.5"/>
<text text-anchor="middle" x="456" y="-197.5" font-family="Helvetica,sans-Serif" font-size="10.00">IErrorInfoCallback</text>
</a>
</g>
</g>
<!-- Node12&#45;&gt;Node2 -->
<g id="edge12" class="edge">
<title>Node12&#45;&gt;Node2</title>
<path fill="none" stroke="midnightblue" d="M511.59,-188.25C536.54,-182.87 565.73,-176.59 589.28,-171.52"/>
<polygon fill="midnightblue" stroke="midnightblue" points="510.58,-184.88 501.54,-190.41 512.05,-191.73 510.58,-184.88"/>
</g>
<!-- Node13 -->
<g id="node13" class="node">
<title>Node13</title>
<g id="a_node13"><a xlink:href="class_photon_1_1_pun_1_1_demo_1_1_cockpit_1_1_friend_list_view_1_1_on_join_room_event.xhtml" target="_top" xlink:title=" ">
<polygon fill="white" stroke="black" points="553,-99 553,-129 716,-129 716,-99 553,-99"/>
<text text-anchor="start" x="561" y="-117" font-family="Helvetica,sans-Serif" font-size="10.00">Photon.Pun.Demo.Cockpit.</text>
<text text-anchor="middle" x="634.5" y="-106" font-family="Helvetica,sans-Serif" font-size="10.00">FriendListView.OnJoinRoomEvent</text>
</a>
</g>
</g>
<!-- Node13&#45;&gt;Node1 -->
<g id="edge13" class="edge">
<title>Node13&#45;&gt;Node1</title>
<path fill="none" stroke="#9a32cd" stroke-dasharray="5,2" d="M726.31,-119.52C760.91,-121.63 799.68,-123.99 831.66,-125.93"/>
<polygon fill="#9a32cd" stroke="#9a32cd" points="726.39,-116.02 716.2,-118.91 725.96,-123.01 726.39,-116.02"/>
<text text-anchor="middle" x="774" y="-127" font-family="Helvetica,sans-Serif" font-size="10.00"> OnJoinRoom</text>
</g>
<!-- Node14 -->
<g id="node14" class="node">
<title>Node14</title>
<g id="a_node14"><a xlink:title=" ">
<polygon fill="white" stroke="#bfbfbf" points="403.5,-0.5 403.5,-19.5 508.5,-19.5 508.5,-0.5 403.5,-0.5"/>
<text text-anchor="middle" x="456" y="-7.5" font-family="Helvetica,sans-Serif" font-size="10.00">UnityEvent&lt; string &gt;</text>
</a>
</g>
</g>
<!-- Node14&#45;&gt;Node13 -->
<g id="edge14" class="edge">
<title>Node14&#45;&gt;Node13</title>
<path fill="none" stroke="midnightblue" d="M518.08,-22.64C524.26,-25.66 530.06,-29.38 535,-34 551.34,-49.28 537.37,-65 553,-81 560.28,-88.45 569.49,-94.29 579.05,-98.83"/>
<polygon fill="midnightblue" stroke="midnightblue" points="519.39,-19.4 508.82,-18.72 516.66,-25.84 519.39,-19.4"/>
</g>
<!-- Node15 -->
<g id="node15" class="node">
<title>Node15</title>
<g id="a_node15"><a xlink:title=" ">
<polygon fill="white" stroke="#bfbfbf" points="617,-52.5 617,-71.5 652,-71.5 652,-52.5 617,-52.5"/>
<text text-anchor="middle" x="634.5" y="-59.5" font-family="Helvetica,sans-Serif" font-size="10.00">Text</text>
</a>
</g>
</g>
<!-- Node15&#45;&gt;Node1 -->
<g id="edge15" class="edge">
<title>Node15&#45;&gt;Node1</title>
<path fill="none" stroke="#9a32cd" stroke-dasharray="5,2" d="M662,-64.86C697.25,-69.08 761.23,-78.25 814,-94 832.34,-99.47 852.05,-107.73 867.82,-114.95"/>
<polygon fill="#9a32cd" stroke="#9a32cd" points="662.37,-61.38 652.03,-63.7 661.56,-68.33 662.37,-61.38"/>
<text text-anchor="middle" x="774" y="-108" font-family="Helvetica,sans-Serif" font-size="10.00"> ContentFeedback</text>
<text text-anchor="middle" x="774" y="-97" font-family="Helvetica,sans-Serif" font-size="10.00">UpdateStatusText</text>
</g>
<!-- Node15&#45;&gt;Node16 -->
<g id="edge18" class="edge">
<title>Node15&#45;&gt;Node16</title>
<path fill="none" stroke="#9a32cd" stroke-dasharray="5,2" d="M662.74,-62.83C728.76,-64.99 902.54,-71.58 1047,-85 1052.74,-85.53 1058.7,-86.16 1064.67,-86.84"/>
<polygon fill="#9a32cd" stroke="#9a32cd" points="662.49,-59.32 652.39,-62.5 662.27,-66.32 662.49,-59.32"/>
<text text-anchor="middle" x="899.5" y="-81" font-family="Helvetica,sans-Serif" font-size="10.00"> NameText</text>
</g>
<!-- Node16&#45;&gt;Node1 -->
<g id="edge16" class="edge">
<title>Node16&#45;&gt;Node1</title>
<path fill="none" stroke="#9a32cd" stroke-dasharray="5,2" d="M1054.41,-107.35C1026.09,-111.51 994.31,-116.19 967,-120.21"/>
<polygon fill="#9a32cd" stroke="#9a32cd" points="1055.28,-110.76 1064.66,-105.84 1054.26,-103.83 1055.28,-110.76"/>
<text text-anchor="middle" x="1016" y="-120" font-family="Helvetica,sans-Serif" font-size="10.00"> CellPrototype</text>
</g>
<!-- Node17 -->
<g id="node17" class="node">
<title>Node17</title>
<g id="a_node17"><a xlink:href="class_photon_1_1_realtime_1_1_friend_info.xhtml" target="_top" xlink:title="Used to store info about a friend&#39;s online state and in which room he/she is.">
<polygon fill="white" stroke="black" points="832.5,-2.5 832.5,-21.5 966.5,-21.5 966.5,-2.5 832.5,-2.5"/>
<text text-anchor="middle" x="899.5" y="-9.5" font-family="Helvetica,sans-Serif" font-size="10.00">Photon.Realtime.FriendInfo</text>
</a>
</g>
</g>
<!-- Node17&#45;&gt;Node16 -->
<g id="edge19" class="edge">
<title>Node17&#45;&gt;Node16</title>
<path fill="none" stroke="#9a32cd" stroke-dasharray="5,2" d="M976.68,-15.67C999.9,-18.69 1025.07,-23.95 1047,-33 1074.06,-44.17 1100.3,-65.99 1116.18,-80.78"/>
<polygon fill="#9a32cd" stroke="#9a32cd" points="976.86,-12.17 966.52,-14.48 976.04,-19.12 976.86,-12.17"/>
<text text-anchor="middle" x="1016" y="-36" font-family="Helvetica,sans-Serif" font-size="10.00"> _info</text>
</g>
</g>
</svg>
        <g id="navigator" transform="translate(0 0)" fill="#404254">
                <rect fill="#f2f5e9" fill-opacity="0.5" stroke="#606060" stroke-width=".5" x="0" y="0" width="60" height="60"/>
                <use id="zoomplus" xlink:href="#zoomPlus" x="17" y="9" onmousedown="handleZoom(evt,'in')"/>
                <use id="zoomminus" xlink:href="#zoomMin" x="42" y="9" onmousedown="handleZoom(evt,'out')"/>
                <use id="reset" xlink:href="#resetDef" x="30" y="36" onmousedown="handleReset()"/>
                <g id="arrowUp" xlink:href="#dirArrow" transform="translate(30 24)" onmousedown="handlePan(0,-1)">
                  <use xlink:href="#rim" fill="#404040">
                        <set attributeName="fill" to="#808080" begin="arrowUp.mouseover" end="arrowUp.mouseout"/>
                  </use>
                  <path fill="none" stroke="white" stroke-width="1.5" d="M0,-3.0v7 M-2.5,-0.5L0,-3.0L2.5,-0.5"/>
                </g>
                <g id="arrowRight" xlink:href="#dirArrow" transform="rotate(90) translate(36 -43)" onmousedown="handlePan(1,0)">
                  <use xlink:href="#rim" fill="#404040">
                        <set attributeName="fill" to="#808080" begin="arrowRight.mouseover" end="arrowRight.mouseout"/>
                  </use>
                  <path fill="none" stroke="white" stroke-width="1.5" d="M0,-3.0v7 M-2.5,-0.5L0,-3.0L2.5,-0.5"/>
                </g>
                <g id="arrowDown" xlink:href="#dirArrow" transform="rotate(180) translate(-30 -48)" onmousedown="handlePan(0,1)">
                  <use xlink:href="#rim" fill="#404040">
                        <set attributeName="fill" to="#808080" begin="arrowDown.mouseover" end="arrowDown.mouseout"/>
                  </use>
                  <path fill="none" stroke="white" stroke-width="1.5" d="M0,-3.0v7 M-2.5,-0.5L0,-3.0L2.5,-0.5"/>
                </g>
                <g id="arrowLeft" xlink:href="#dirArrow" transform="rotate(270) translate(-36 17)" onmousedown="handlePan(-1,0)">
                  <use xlink:href="#rim" fill="#404040">
                        <set attributeName="fill" to="#808080" begin="arrowLeft.mouseover" end="arrowLeft.mouseout"/>
                  </use>
                  <path fill="none" stroke="white" stroke-width="1.5" d="M0,-3.0v7 M-2.5,-0.5L0,-3.0L2.5,-0.5"/>
                </g>
        </g>
        <svg viewBox="0 0 15 15" width="100%" height="30px" preserveAspectRatio="xMaxYMin meet">
         <g id="arrow_out" transform="scale(0.3 0.3)">
          <a xlink:href="class_photon_1_1_pun_1_1_demo_1_1_cockpit_1_1_friend_list_view__coll__graph_org.svg" target="_base">
           <rect id="button" ry="5" rx="5" y="6" x="6" height="38" width="38"
                fill="#f2f5e9" fill-opacity="0.5" stroke="#606060" stroke-width="1.0"/>
           <path id="arrow"
             d="M 11.500037,31.436501 C 11.940474,20.09759 22.043105,11.32322 32.158766,21.979434 L 37.068811,17.246167 C 37.068811,17.246167 37.088388,32 37.088388,32 L 22.160133,31.978069 C 22.160133,31.978069 26.997745,27.140456 26.997745,27.140456 C 18.528582,18.264221 13.291696,25.230495 11.500037,31.436501 z"
             style="fill:#404040;"/>
          </a>
         </g>
        </svg>
</svg>
