<?xml version="1.0" encoding="UTF-8" standalone="no"?>
<!DOCTYPE svg PUBLIC "-//W3C//DTD SVG 1.1//EN"
 "http://www.w3.org/Graphics/SVG/1.1/DTD/svg11.dtd">
<!-- Generated by graphviz version 2.47.3 (20210619.1520)
 -->
<!-- Title: Photon.Pun.Demo.Cockpit.PunCockpit.Disconnect Pages: 1 -->
<!--zoomable 543 -->
<svg id="main" version="1.1" xmlns="http://www.w3.org/2000/svg" xmlns:xlink="http://www.w3.org/1999/xlink" xml:space="preserve" onload="init(evt)">
<style type="text/css"><![CDATA[
.edge:hover path { stroke: red; }
.edge:hover polygon { stroke: red; fill: red; }
]]></style>
<script type="text/javascript"><![CDATA[
var edges = document.getElementsByTagName('g');
if (edges && edges.length) {
  for (var i=0;i<edges.length;i++) {
    if (edges[i].id.substr(0,4)=='edge') {
      edges[i].setAttribute('class','edge');
    }
  }
}
]]></script>
        <defs>
                <circle id="rim" cx="0" cy="0" r="7"/>
                <circle id="rim2" cx="0" cy="0" r="3.5"/>
                <g id="zoomPlus">
                        <use xlink:href="#rim" fill="#404040">
                                <set attributeName="fill" to="#808080" begin="zoomplus.mouseover" end="zoomplus.mouseout"/>
                        </use>
                        <path d="M-4,0h8M0,-4v8" fill="none" stroke="white" stroke-width="1.5" pointer-events="none"/>
                </g>
                <g id="zoomMin">
                        <use xlink:href="#rim" fill="#404040">
                                <set attributeName="fill" to="#808080" begin="zoomminus.mouseover" end="zoomminus.mouseout"/>
                        </use>
                        <path d="M-4,0h8" fill="none" stroke="white" stroke-width="1.5" pointer-events="none"/>
                </g>
                <g id="dirArrow">
                        <path fill="none" stroke="white" stroke-width="1.5" d="M0,-3.0v7 M-2.5,-0.5L0,-3.0L2.5,-0.5"/>
                </g>
               <g id="resetDef">
                       <use xlink:href="#rim2" fill="#404040">
                               <set attributeName="fill" to="#808080" begin="reset.mouseover" end="reset.mouseout"/>
                       </use>
               </g>
        </defs>

<script type="text/javascript">
var viewWidth = 1704;
var viewHeight = 543;
var sectionId = 'dynsection-8';
</script>
<script xlink:href="svgpan.js"/>
<svg id="graph" class="graph">
<g id="viewport">
<title>Photon.Pun.Demo.Cockpit.PunCockpit.Disconnect</title>
<polygon fill="white" stroke="transparent" points="-4,4 -4,-539.43 1700,-539.43 1700,4 -4,4"/>
<!-- Node1 -->
<g id="node1" class="node">
<title>Node1</title>
<g id="a_node1"><a xlink:title=" ">
<polygon fill="#bfbfbf" stroke="black" points="0,-109.43 0,-139.43 135,-139.43 135,-109.43 0,-109.43"/>
<text text-anchor="start" x="8" y="-127.43" font-family="Helvetica,sans-Serif" font-size="10.00">Photon.Pun.Demo.Cockpit.</text>
<text text-anchor="middle" x="67.5" y="-116.43" font-family="Helvetica,sans-Serif" font-size="10.00">PunCockpit.Disconnect</text>
</a>
</g>
</g>
<!-- Node2 -->
<g id="node2" class="node">
<title>Node2</title>
<g id="a_node2"><a xlink:href="class_photon_1_1_pun_1_1_photon_network.xhtml#a1da1c658340e7ecf28575b720104b122" target="_top" xlink:title="Makes this client disconnect from the photon server, a process that leaves any room and calls OnDisco...">
<polygon fill="white" stroke="black" points="171,-109.43 171,-139.43 311,-139.43 311,-109.43 171,-109.43"/>
<text text-anchor="start" x="179" y="-127.43" font-family="Helvetica,sans-Serif" font-size="10.00">Photon.Pun.PhotonNetwork.</text>
<text text-anchor="middle" x="241" y="-116.43" font-family="Helvetica,sans-Serif" font-size="10.00">Disconnect</text>
</a>
</g>
</g>
<!-- Node1&#45;&gt;Node2 -->
<g id="edge1" class="edge">
<title>Node1&#45;&gt;Node2</title>
<path fill="none" stroke="midnightblue" d="M135.3,-124.43C143.59,-124.43 152.13,-124.43 160.59,-124.43"/>
<polygon fill="midnightblue" stroke="midnightblue" points="160.84,-127.93 170.84,-124.43 160.84,-120.93 160.84,-127.93"/>
</g>
<!-- Node3 -->
<g id="node3" class="node">
<title>Node3</title>
<g id="a_node3"><a xlink:href="class_photon_1_1_realtime_1_1_load_balancing_client.xhtml#ab71b80fa9e4f0e5644de49ec9b01853d" target="_top" xlink:title="Disconnects the peer from a server or stays disconnected.">
<polygon fill="white" stroke="black" points="347,-85.43 347,-115.43 502,-115.43 502,-85.43 347,-85.43"/>
<text text-anchor="start" x="355" y="-103.43" font-family="Helvetica,sans-Serif" font-size="10.00">Photon.Realtime.LoadBalancing</text>
<text text-anchor="middle" x="424.5" y="-92.43" font-family="Helvetica,sans-Serif" font-size="10.00">Client.Disconnect</text>
</a>
</g>
</g>
<!-- Node2&#45;&gt;Node3 -->
<g id="edge2" class="edge">
<title>Node2&#45;&gt;Node3</title>
<path fill="none" stroke="midnightblue" d="M311.14,-115.29C319.56,-114.18 328.25,-113.03 336.89,-111.88"/>
<polygon fill="midnightblue" stroke="midnightblue" points="337.53,-115.33 346.98,-110.55 336.61,-108.39 337.53,-115.33"/>
</g>
<!-- Node7 -->
<g id="node7" class="node">
<title>Node7</title>
<g id="a_node7"><a xlink:href="class_photon_1_1_realtime_1_1_load_balancing_client.xhtml#affac531c1eb7a4d77326135150f19b7e" target="_top" xlink:title="Uses the connection&#39;s statusCodes to advance the internal state and call operations as needed.">
<polygon fill="white" stroke="black" points="347,-224.43 347,-254.43 502,-254.43 502,-224.43 347,-224.43"/>
<text text-anchor="start" x="355" y="-242.43" font-family="Helvetica,sans-Serif" font-size="10.00">Photon.Realtime.LoadBalancing</text>
<text text-anchor="middle" x="424.5" y="-231.43" font-family="Helvetica,sans-Serif" font-size="10.00">Client.OnStatusChanged</text>
</a>
</g>
</g>
<!-- Node2&#45;&gt;Node7 -->
<g id="edge6" class="edge">
<title>Node2&#45;&gt;Node7</title>
<path fill="none" stroke="midnightblue" d="M265.73,-139.47C297.79,-159.78 355.09,-196.08 391.1,-218.9"/>
<polygon fill="midnightblue" stroke="midnightblue" points="389.45,-222 399.77,-224.39 393.19,-216.08 389.45,-222"/>
</g>
<!-- Node4 -->
<g id="node4" class="node">
<title>Node4</title>
<g id="a_node4"><a xlink:href="class_photon_1_1_realtime_1_1_load_balancing_client.xhtml#a69dd43d4c7211b5b83cd54d0ebcf79e7" target="_top" xlink:title="Debug output of low level api (and this client).">
<polygon fill="white" stroke="black" points="1154.5,-228.43 1154.5,-258.43 1309.5,-258.43 1309.5,-228.43 1154.5,-228.43"/>
<text text-anchor="start" x="1162.5" y="-246.43" font-family="Helvetica,sans-Serif" font-size="10.00">Photon.Realtime.LoadBalancing</text>
<text text-anchor="middle" x="1232" y="-235.43" font-family="Helvetica,sans-Serif" font-size="10.00">Client.DebugReturn</text>
</a>
</g>
</g>
<!-- Node3&#45;&gt;Node4 -->
<g id="edge3" class="edge">
<title>Node3&#45;&gt;Node4</title>
<path fill="none" stroke="midnightblue" d="M444,-85.31C465.22,-69.01 501.76,-43.96 538,-33.43 694.66,12.08 745.77,8.05 905,-27.43 1005.14,-49.74 1030.15,-66.32 1114,-125.43 1153.36,-153.18 1191.14,-194.92 1212.66,-220.6"/>
<polygon fill="midnightblue" stroke="midnightblue" points="1209.99,-222.86 1219.06,-228.33 1215.38,-218.4 1209.99,-222.86"/>
</g>
<!-- Node5 -->
<g id="node5" class="node">
<title>Node5</title>
<g id="a_node5"><a xlink:href="class_photon_1_1_realtime_1_1_load_balancing_peer.xhtml#a7f48b5f0c44ef0c67ef32f147ff87246" target="_top" xlink:title="Creates a Peer with specified connection protocol.">
<polygon fill="white" stroke="black" points="1350,-228.43 1350,-258.43 1505,-258.43 1505,-228.43 1350,-228.43"/>
<text text-anchor="start" x="1358" y="-246.43" font-family="Helvetica,sans-Serif" font-size="10.00">Photon.Realtime.LoadBalancing</text>
<text text-anchor="middle" x="1427.5" y="-235.43" font-family="Helvetica,sans-Serif" font-size="10.00">Peer.LoadBalancingPeer</text>
</a>
</g>
</g>
<!-- Node4&#45;&gt;Node5 -->
<g id="edge4" class="edge">
<title>Node4&#45;&gt;Node5</title>
<path fill="none" stroke="midnightblue" d="M1309.75,-243.43C1319.54,-243.43 1329.62,-243.43 1339.55,-243.43"/>
<polygon fill="midnightblue" stroke="midnightblue" points="1339.84,-246.93 1349.84,-243.43 1339.84,-239.93 1339.84,-246.93"/>
</g>
<!-- Node6 -->
<g id="node6" class="node">
<title>Node6</title>
<g id="a_node6"><a xlink:href="class_photon_1_1_realtime_1_1_load_balancing_peer.xhtml#affaff7e1fdffe86b25156ffac5e738c9" target="_top" xlink:title=" ">
<polygon fill="white" stroke="black" points="1541,-228.43 1541,-258.43 1696,-258.43 1696,-228.43 1541,-228.43"/>
<text text-anchor="start" x="1549" y="-246.43" font-family="Helvetica,sans-Serif" font-size="10.00">Photon.Realtime.LoadBalancing</text>
<text text-anchor="middle" x="1618.5" y="-235.43" font-family="Helvetica,sans-Serif" font-size="10.00">Peer.ConfigUnitySockets</text>
</a>
</g>
</g>
<!-- Node5&#45;&gt;Node6 -->
<g id="edge5" class="edge">
<title>Node5&#45;&gt;Node6</title>
<path fill="none" stroke="midnightblue" d="M1505.1,-243.43C1513.56,-243.43 1522.22,-243.43 1530.79,-243.43"/>
<polygon fill="midnightblue" stroke="midnightblue" points="1530.79,-246.93 1540.79,-243.43 1530.79,-239.93 1530.79,-246.93"/>
</g>
<!-- Node7&#45;&gt;Node4 -->
<g id="edge29" class="edge">
<title>Node7&#45;&gt;Node4</title>
<path fill="none" stroke="midnightblue" d="M436.99,-254.68C455.42,-277.83 494,-321.16 538,-340.43 624.69,-378.4 655.46,-355.98 750,-360.43 911.6,-368.04 964.57,-419.45 1114,-357.43 1158.67,-338.89 1195.75,-294.46 1215.53,-266.86"/>
<polygon fill="midnightblue" stroke="midnightblue" points="1218.47,-268.75 1221.33,-258.55 1212.73,-264.75 1218.47,-268.75"/>
</g>
<!-- Node8 -->
<g id="node8" class="node">
<title>Node8</title>
<g id="a_node8"><a xlink:href="class_photon_1_1_realtime_1_1_load_balancing_client.xhtml#a41ac38b72df503d0c9997b0ab1b78801" target="_top" xlink:title=" ">
<polygon fill="white" stroke="black" points="750,-321.43 750,-351.43 905,-351.43 905,-321.43 750,-321.43"/>
<text text-anchor="start" x="758" y="-339.43" font-family="Helvetica,sans-Serif" font-size="10.00">Photon.Realtime.LoadBalancing</text>
<text text-anchor="middle" x="827.5" y="-328.43" font-family="Helvetica,sans-Serif" font-size="10.00">Client.CallAuthenticate</text>
</a>
</g>
</g>
<!-- Node7&#45;&gt;Node8 -->
<g id="edge7" class="edge">
<title>Node7&#45;&gt;Node8</title>
<path fill="none" stroke="midnightblue" d="M442.75,-254.59C463.66,-271.97 500.77,-299.71 538,-312.43 603.06,-334.66 680.96,-339.99 739.4,-340.13"/>
<polygon fill="midnightblue" stroke="midnightblue" points="739.72,-343.63 749.71,-340.1 739.7,-336.63 739.72,-343.63"/>
</g>
<!-- Node13 -->
<g id="node13" class="node">
<title>Node13</title>
<g id="a_node13"><a xlink:href="class_photon_1_1_realtime_1_1_load_balancing_client.xhtml#a32adb95af4cb836a29fc53aa66000caf" target="_top" xlink:title="Internally used to set the LocalPlayer&#39;s ID (from &#45;1 to the actual in&#45;room ID).">
<polygon fill="white" stroke="black" points="548.5,-224.43 548.5,-254.43 703.5,-254.43 703.5,-224.43 548.5,-224.43"/>
<text text-anchor="start" x="556.5" y="-242.43" font-family="Helvetica,sans-Serif" font-size="10.00">Photon.Realtime.LoadBalancing</text>
<text text-anchor="middle" x="626" y="-231.43" font-family="Helvetica,sans-Serif" font-size="10.00">Client.ChangeLocalID</text>
</a>
</g>
</g>
<!-- Node7&#45;&gt;Node13 -->
<g id="edge15" class="edge">
<title>Node7&#45;&gt;Node13</title>
<path fill="none" stroke="midnightblue" d="M502.06,-239.43C513.91,-239.43 526.22,-239.43 538.27,-239.43"/>
<polygon fill="midnightblue" stroke="midnightblue" points="538.31,-242.93 548.31,-239.43 538.31,-235.93 538.31,-242.93"/>
</g>
<!-- Node15 -->
<g id="node15" class="node">
<title>Node15</title>
<g id="a_node15"><a xlink:href="class_photon_1_1_realtime_1_1_load_balancing_client.xhtml#a84e280b4685509d7fa65bedebb0828a2" target="_top" xlink:title=" ">
<polygon fill="white" stroke="black" points="548.5,-175.43 548.5,-205.43 703.5,-205.43 703.5,-175.43 548.5,-175.43"/>
<text text-anchor="start" x="556.5" y="-193.43" font-family="Helvetica,sans-Serif" font-size="10.00">Photon.Realtime.LoadBalancing</text>
<text text-anchor="middle" x="626" y="-182.43" font-family="Helvetica,sans-Serif" font-size="10.00">Client.Connect</text>
</a>
</g>
</g>
<!-- Node7&#45;&gt;Node15 -->
<g id="edge18" class="edge">
<title>Node7&#45;&gt;Node15</title>
<path fill="none" stroke="midnightblue" d="M486.71,-224.4C507.97,-219.18 531.98,-213.28 553.96,-207.88"/>
<polygon fill="midnightblue" stroke="midnightblue" points="555.03,-211.22 563.9,-205.44 553.36,-204.42 555.03,-211.22"/>
</g>
<!-- Node16 -->
<g id="node16" class="node">
<title>Node16</title>
<g id="a_node16"><a xlink:href="class_photon_1_1_realtime_1_1_load_balancing_client.xhtml#ad1d932ea902a1b1df7769e9a852077c6" target="_top" xlink:title="Starts the &quot;process&quot; to connect to a Master Server, using MasterServerAddress and AppId properties.">
<polygon fill="white" stroke="black" points="750,-135.43 750,-165.43 905,-165.43 905,-135.43 750,-135.43"/>
<text text-anchor="start" x="758" y="-153.43" font-family="Helvetica,sans-Serif" font-size="10.00">Photon.Realtime.LoadBalancing</text>
<text text-anchor="middle" x="827.5" y="-142.43" font-family="Helvetica,sans-Serif" font-size="10.00">Client.ConnectToMasterServer</text>
</a>
</g>
</g>
<!-- Node7&#45;&gt;Node16 -->
<g id="edge25" class="edge">
<title>Node7&#45;&gt;Node16</title>
<path fill="none" stroke="midnightblue" d="M442.27,-224.18C463.02,-206.38 500.24,-177.82 538,-165.43 603.19,-144.05 681.08,-141.24 739.49,-143.25"/>
<polygon fill="midnightblue" stroke="midnightblue" points="739.66,-146.76 749.79,-143.66 739.94,-139.77 739.66,-146.76"/>
</g>
<!-- Node19 -->
<g id="node19" class="node">
<title>Node19</title>
<g id="a_node19"><a xlink:href="class_photon_1_1_realtime_1_1_load_balancing_client.xhtml#a43756ee75b2346cb002f89aee86ff94d" target="_top" xlink:title="Connects to the NameServer for Photon Cloud, where a region and server list can be obtained.">
<polygon fill="white" stroke="black" points="750,-86.43 750,-116.43 905,-116.43 905,-86.43 750,-86.43"/>
<text text-anchor="start" x="758" y="-104.43" font-family="Helvetica,sans-Serif" font-size="10.00">Photon.Realtime.LoadBalancing</text>
<text text-anchor="middle" x="827.5" y="-93.43" font-family="Helvetica,sans-Serif" font-size="10.00">Client.ConnectToNameServer</text>
</a>
</g>
</g>
<!-- Node7&#45;&gt;Node19 -->
<g id="edge26" class="edge">
<title>Node7&#45;&gt;Node19</title>
<path fill="none" stroke="midnightblue" d="M437.42,-224.15C456.13,-201.41 494.75,-159.21 538,-139.43 601.52,-110.39 680.57,-101.63 739.86,-99.72"/>
<polygon fill="midnightblue" stroke="midnightblue" points="740.04,-103.22 749.94,-99.46 739.85,-96.22 740.04,-103.22"/>
</g>
<!-- Node20 -->
<g id="node20" class="node">
<title>Node20</title>
<g id="a_node20"><a xlink:href="class_photon_1_1_realtime_1_1_connection_callbacks_container.xhtml#ae020162c1ec754e7bcdc604976babac2" target="_top" xlink:title="Called to signal that the &quot;low level connection&quot; got established but before the client can call opera...">
<polygon fill="white" stroke="black" points="544.5,-43.43 544.5,-73.43 707.5,-73.43 707.5,-43.43 544.5,-43.43"/>
<text text-anchor="start" x="552.5" y="-61.43" font-family="Helvetica,sans-Serif" font-size="10.00">Photon.Realtime.Connection</text>
<text text-anchor="middle" x="626" y="-50.43" font-family="Helvetica,sans-Serif" font-size="10.00">CallbacksContainer.OnConnected</text>
</a>
</g>
</g>
<!-- Node7&#45;&gt;Node20 -->
<g id="edge30" class="edge">
<title>Node7&#45;&gt;Node20</title>
<path fill="none" stroke="midnightblue" d="M435.39,-224.19C457.68,-190.22 511.9,-109.79 538,-90.43 544.69,-85.47 552.23,-81.21 560,-77.56"/>
<polygon fill="midnightblue" stroke="midnightblue" points="561.42,-80.76 569.2,-73.56 558.63,-74.34 561.42,-80.76"/>
</g>
<!-- Node22 -->
<g id="node22" class="node">
<title>Node22</title>
<g id="a_node22"><a xlink:href="class_photon_1_1_realtime_1_1_connection_callbacks_container.xhtml#ad8a7ee8a123cf763142db0d18a83c9cd" target="_top" xlink:title="Called after disconnecting from the Photon server.">
<polygon fill="white" stroke="black" points="538,-409.43 538,-439.43 714,-439.43 714,-409.43 538,-409.43"/>
<text text-anchor="start" x="546" y="-427.43" font-family="Helvetica,sans-Serif" font-size="10.00">Photon.Realtime.Connection</text>
<text text-anchor="middle" x="626" y="-416.43" font-family="Helvetica,sans-Serif" font-size="10.00">CallbacksContainer.OnDisconnected</text>
</a>
</g>
</g>
<!-- Node7&#45;&gt;Node22 -->
<g id="edge32" class="edge">
<title>Node7&#45;&gt;Node22</title>
<path fill="none" stroke="midnightblue" d="M432.51,-254.59C447.51,-285.39 485.63,-355.64 538,-394.43 543.52,-398.52 549.64,-402.08 556,-405.18"/>
<polygon fill="midnightblue" stroke="midnightblue" points="554.9,-408.52 565.46,-409.39 557.75,-402.12 554.9,-408.52"/>
</g>
<!-- Node24 -->
<g id="node24" class="node">
<title>Node24</title>
<g id="a_node24"><a xlink:href="class_photon_1_1_realtime_1_1_match_making_callbacks_container.xhtml#aa8f13b83943e6a562e9817807cee4836" target="_top" xlink:title="Called when the local user/client left a room, so the game&#39;s logic can clean up it&#39;s internal state.">
<polygon fill="white" stroke="black" points="547,-273.43 547,-303.43 705,-303.43 705,-273.43 547,-273.43"/>
<text text-anchor="start" x="555" y="-291.43" font-family="Helvetica,sans-Serif" font-size="10.00">Photon.Realtime.MatchMaking</text>
<text text-anchor="middle" x="626" y="-280.43" font-family="Helvetica,sans-Serif" font-size="10.00">CallbacksContainer.OnLeftRoom</text>
</a>
</g>
</g>
<!-- Node7&#45;&gt;Node24 -->
<g id="edge34" class="edge">
<title>Node7&#45;&gt;Node24</title>
<path fill="none" stroke="midnightblue" d="M486.71,-254.47C507.97,-259.69 531.98,-265.59 553.96,-270.98"/>
<polygon fill="midnightblue" stroke="midnightblue" points="553.36,-274.44 563.9,-273.43 555.03,-267.64 553.36,-274.44"/>
</g>
<!-- Node26 -->
<g id="node26" class="node">
<title>Node26</title>
<g id="a_node26"><a xlink:href="class_photon_1_1_realtime_1_1_load_balancing_client.xhtml#a917cbf329c3675953d0c500055bb4803" target="_top" xlink:title="While on the NameServer, this gets you the list of regional servers (short names and their IPs to pin...">
<polygon fill="white" stroke="black" points="750,-458.43 750,-488.43 905,-488.43 905,-458.43 750,-458.43"/>
<text text-anchor="start" x="758" y="-476.43" font-family="Helvetica,sans-Serif" font-size="10.00">Photon.Realtime.LoadBalancing</text>
<text text-anchor="middle" x="827.5" y="-465.43" font-family="Helvetica,sans-Serif" font-size="10.00">Client.OpGetRegions</text>
</a>
</g>
</g>
<!-- Node7&#45;&gt;Node26 -->
<g id="edge36" class="edge">
<title>Node7&#45;&gt;Node26</title>
<path fill="none" stroke="midnightblue" d="M428.48,-254.69C437.19,-294.66 466.6,-402.55 538,-449.43 597.2,-488.3 678.63,-491.65 739.89,-486.81"/>
<polygon fill="midnightblue" stroke="midnightblue" points="740.27,-490.29 749.93,-485.93 739.66,-483.32 740.27,-490.29"/>
</g>
<!-- Node8&#45;&gt;Node4 -->
<g id="edge12" class="edge">
<title>Node8&#45;&gt;Node4</title>
<path fill="none" stroke="midnightblue" d="M887.7,-321.42C904.87,-317.14 923.67,-312.53 941,-308.43 1012.2,-291.59 1093.5,-273.47 1151.86,-260.65"/>
<polygon fill="midnightblue" stroke="midnightblue" points="1152.74,-264.04 1161.75,-258.47 1151.24,-257.2 1152.74,-264.04"/>
</g>
<!-- Node8&#45;&gt;Node5 -->
<g id="edge13" class="edge">
<title>Node8&#45;&gt;Node5</title>
<path fill="none" stroke="midnightblue" d="M897.83,-351.45C912.04,-353.94 926.95,-356.13 941,-357.43 1017.56,-364.52 1038.28,-370.81 1114,-357.43 1216.35,-339.35 1329.25,-290.34 1387.27,-262.83"/>
<polygon fill="midnightblue" stroke="midnightblue" points="1388.93,-265.92 1396.44,-258.45 1385.91,-259.61 1388.93,-265.92"/>
</g>
<!-- Node9 -->
<g id="node9" class="node">
<title>Node9</title>
<g id="a_node9"><a xlink:href="class_photon_1_1_realtime_1_1_load_balancing_client.xhtml#aa12ff3efc3aa91e5ceca9b3a40f7bd79" target="_top" xlink:title=" ">
<polygon fill="white" stroke="black" points="950,-444.43 950,-474.43 1105,-474.43 1105,-444.43 950,-444.43"/>
<text text-anchor="start" x="958" y="-462.43" font-family="Helvetica,sans-Serif" font-size="10.00">Photon.Realtime.LoadBalancing</text>
<text text-anchor="middle" x="1027.5" y="-451.43" font-family="Helvetica,sans-Serif" font-size="10.00">Client.CheckIfOpCanBeSent</text>
</a>
</g>
</g>
<!-- Node8&#45;&gt;Node9 -->
<g id="edge8" class="edge">
<title>Node8&#45;&gt;Node9</title>
<path fill="none" stroke="midnightblue" d="M847.07,-351.68C862.58,-364.42 885.26,-383.08 905,-399.43 921.04,-412.72 922.89,-419.15 941,-429.43 948.38,-433.62 956.44,-437.37 964.57,-440.69"/>
<polygon fill="midnightblue" stroke="midnightblue" points="963.52,-444.03 974.1,-444.38 966.04,-437.5 963.52,-444.03"/>
</g>
<!-- Node12 -->
<g id="node12" class="node">
<title>Node12</title>
<g id="a_node12"><a xlink:href="class_photon_1_1_realtime_1_1_load_balancing_peer.xhtml#a4ed3ae23ffbc88d5b449997e5af8d9af" target="_top" xlink:title="Sends this app&#39;s appId and appVersion to identify this application server side.">
<polygon fill="white" stroke="black" points="950,-318.43 950,-348.43 1105,-348.43 1105,-318.43 950,-318.43"/>
<text text-anchor="start" x="958" y="-336.43" font-family="Helvetica,sans-Serif" font-size="10.00">Photon.Realtime.LoadBalancing</text>
<text text-anchor="middle" x="1027.5" y="-325.43" font-family="Helvetica,sans-Serif" font-size="10.00">Peer.OpAuthenticate</text>
</a>
</g>
</g>
<!-- Node8&#45;&gt;Node12 -->
<g id="edge14" class="edge">
<title>Node8&#45;&gt;Node12</title>
<path fill="none" stroke="midnightblue" d="M905.05,-335.27C916.41,-335.1 928.19,-334.92 939.75,-334.75"/>
<polygon fill="midnightblue" stroke="midnightblue" points="939.88,-338.24 949.83,-334.59 939.77,-331.25 939.88,-338.24"/>
</g>
<!-- Node9&#45;&gt;Node4 -->
<g id="edge11" class="edge">
<title>Node9&#45;&gt;Node4</title>
<path fill="none" stroke="midnightblue" d="M1050.37,-444.21C1068.36,-431.2 1094.05,-411.44 1114,-391.43 1154.2,-351.11 1193.76,-297.3 1215,-266.92"/>
<polygon fill="midnightblue" stroke="midnightblue" points="1217.92,-268.85 1220.74,-258.64 1212.17,-264.87 1217.92,-268.85"/>
</g>
<!-- Node10 -->
<g id="node10" class="node">
<title>Node10</title>
<g id="a_node10"><a xlink:href="class_photon_1_1_realtime_1_1_load_balancing_client.xhtml#ae052ab450db16efdd31985d56f76f0ab" target="_top" xlink:title=" ">
<polygon fill="white" stroke="black" points="1150,-493.93 1150,-534.93 1314,-534.93 1314,-493.93 1150,-493.93"/>
<text text-anchor="start" x="1158" y="-522.93" font-family="Helvetica,sans-Serif" font-size="10.00">Photon.Realtime.LoadBalancing</text>
<text text-anchor="start" x="1158" y="-511.93" font-family="Helvetica,sans-Serif" font-size="10.00">Client.CheckIfClientIsReadyToCall</text>
<text text-anchor="middle" x="1232" y="-500.93" font-family="Helvetica,sans-Serif" font-size="10.00">Operation</text>
</a>
</g>
</g>
<!-- Node9&#45;&gt;Node10 -->
<g id="edge9" class="edge">
<title>Node9&#45;&gt;Node10</title>
<path fill="none" stroke="midnightblue" d="M1083.83,-474.46C1102.84,-479.62 1124.58,-485.53 1145.42,-491.19"/>
<polygon fill="midnightblue" stroke="midnightblue" points="1144.67,-494.61 1155.24,-493.85 1146.5,-487.85 1144.67,-494.61"/>
</g>
<!-- Node11 -->
<g id="node11" class="node">
<title>Node11</title>
<g id="a_node11"><a xlink:href="class_photon_1_1_realtime_1_1_load_balancing_client.xhtml#aa01a53cac6918dab3ecb99669b276f01" target="_top" xlink:title=" ">
<polygon fill="white" stroke="black" points="1150.5,-444.43 1150.5,-474.43 1313.5,-474.43 1313.5,-444.43 1150.5,-444.43"/>
<text text-anchor="start" x="1158.5" y="-462.43" font-family="Helvetica,sans-Serif" font-size="10.00">Photon.Realtime.LoadBalancing</text>
<text text-anchor="middle" x="1232" y="-451.43" font-family="Helvetica,sans-Serif" font-size="10.00">Client.CheckIfOpAllowedOnServer</text>
</a>
</g>
</g>
<!-- Node9&#45;&gt;Node11 -->
<g id="edge10" class="edge">
<title>Node9&#45;&gt;Node11</title>
<path fill="none" stroke="midnightblue" d="M1105.06,-459.43C1116.49,-459.43 1128.37,-459.43 1140.07,-459.43"/>
<polygon fill="midnightblue" stroke="midnightblue" points="1140.28,-462.93 1150.28,-459.43 1140.28,-455.93 1140.28,-462.93"/>
</g>
<!-- Node13&#45;&gt;Node4 -->
<g id="edge16" class="edge">
<title>Node13&#45;&gt;Node4</title>
<path fill="none" stroke="midnightblue" d="M703.8,-239.94C816.49,-240.69 1026.03,-242.07 1144.17,-242.86"/>
<polygon fill="midnightblue" stroke="midnightblue" points="1144.24,-246.36 1154.26,-242.92 1144.28,-239.36 1144.24,-246.36"/>
</g>
<!-- Node14 -->
<g id="node14" class="node">
<title>Node14</title>
<g id="a_node14"><a xlink:href="class_photon_1_1_realtime_1_1_room.xhtml#a5e614a00e26aae5f35f0805c4e4bb7a9" target="_top" xlink:title="Updates a player reference in the Players dictionary (no matter if it existed before or not).">
<polygon fill="white" stroke="black" points="756,-184.43 756,-214.43 899,-214.43 899,-184.43 756,-184.43"/>
<text text-anchor="start" x="764" y="-202.43" font-family="Helvetica,sans-Serif" font-size="10.00">Photon.Realtime.Room.Store</text>
<text text-anchor="middle" x="827.5" y="-191.43" font-family="Helvetica,sans-Serif" font-size="10.00">Player</text>
</a>
</g>
</g>
<!-- Node13&#45;&gt;Node14 -->
<g id="edge17" class="edge">
<title>Node13&#45;&gt;Node14</title>
<path fill="none" stroke="midnightblue" d="M701.85,-224.42C716.23,-221.54 731.34,-218.51 745.88,-215.6"/>
<polygon fill="midnightblue" stroke="midnightblue" points="746.73,-219 755.85,-213.6 745.35,-212.13 746.73,-219"/>
</g>
<!-- Node15&#45;&gt;Node16 -->
<g id="edge19" class="edge">
<title>Node15&#45;&gt;Node16</title>
<path fill="none" stroke="midnightblue" d="M701.85,-175.42C714.81,-172.83 728.36,-170.11 741.55,-167.46"/>
<polygon fill="midnightblue" stroke="midnightblue" points="742.44,-170.86 751.56,-165.46 741.07,-163.99 742.44,-170.86"/>
</g>
<!-- Node17 -->
<g id="node17" class="node">
<title>Node17</title>
<g id="a_node17"><a xlink:href="class_photon_1_1_realtime_1_1_load_balancing_client.xhtml#a29aacea6df375e301f67cb40ea90849e" target="_top" xlink:title=" ">
<polygon fill="white" stroke="black" points="945.5,-135.43 945.5,-165.43 1109.5,-165.43 1109.5,-135.43 945.5,-135.43"/>
<text text-anchor="start" x="953.5" y="-153.43" font-family="Helvetica,sans-Serif" font-size="10.00">Photon.Realtime.LoadBalancing</text>
<text text-anchor="middle" x="1027.5" y="-142.43" font-family="Helvetica,sans-Serif" font-size="10.00">Client.CheckConnectSetupWebGl</text>
</a>
</g>
</g>
<!-- Node16&#45;&gt;Node17 -->
<g id="edge20" class="edge">
<title>Node16&#45;&gt;Node17</title>
<path fill="none" stroke="midnightblue" d="M905.05,-150.43C914.93,-150.43 925.12,-150.43 935.2,-150.43"/>
<polygon fill="midnightblue" stroke="midnightblue" points="935.23,-153.93 945.23,-150.43 935.23,-146.93 935.23,-153.93"/>
</g>
<!-- Node18 -->
<g id="node18" class="node">
<title>Node18</title>
<g id="a_node18"><a xlink:href="class_photon_1_1_realtime_1_1_load_balancing_client.xhtml#a43a3b987e52c0e028ce1d5803b7b9507" target="_top" xlink:title=" ">
<polygon fill="white" stroke="black" points="941,-184.43 941,-214.43 1114,-214.43 1114,-184.43 941,-184.43"/>
<text text-anchor="start" x="949" y="-202.43" font-family="Helvetica,sans-Serif" font-size="10.00">Photon.Realtime.LoadBalancing</text>
<text text-anchor="middle" x="1027.5" y="-191.43" font-family="Helvetica,sans-Serif" font-size="10.00">Client.CheckConnectSetupXboxOne</text>
</a>
</g>
</g>
<!-- Node16&#45;&gt;Node18 -->
<g id="edge23" class="edge">
<title>Node16&#45;&gt;Node18</title>
<path fill="none" stroke="midnightblue" d="M889.25,-165.47C910.35,-170.69 934.18,-176.59 956,-181.98"/>
<polygon fill="midnightblue" stroke="midnightblue" points="955.31,-185.42 965.86,-184.43 957,-178.63 955.31,-185.42"/>
</g>
<!-- Node17&#45;&gt;Node4 -->
<g id="edge21" class="edge">
<title>Node17&#45;&gt;Node4</title>
<path fill="none" stroke="midnightblue" d="M1089.89,-165.58C1098.11,-168.21 1106.34,-171.16 1114,-174.43 1145.02,-187.67 1177.9,-207.65 1200.87,-222.71"/>
<polygon fill="midnightblue" stroke="midnightblue" points="1199.21,-225.8 1209.47,-228.42 1203.08,-219.97 1199.21,-225.8"/>
</g>
<!-- Node17&#45;&gt;Node5 -->
<g id="edge22" class="edge">
<title>Node17&#45;&gt;Node5</title>
<path fill="none" stroke="midnightblue" d="M1092.89,-165.48C1163.84,-182.06 1277.78,-208.68 1352.4,-226.12"/>
<polygon fill="midnightblue" stroke="midnightblue" points="1351.67,-229.54 1362.2,-228.41 1353.26,-222.72 1351.67,-229.54"/>
</g>
<!-- Node18&#45;&gt;Node4 -->
<g id="edge24" class="edge">
<title>Node18&#45;&gt;Node4</title>
<path fill="none" stroke="midnightblue" d="M1097.62,-214.45C1115.12,-218.25 1134.05,-222.37 1151.99,-226.26"/>
<polygon fill="midnightblue" stroke="midnightblue" points="1151.33,-229.7 1161.85,-228.41 1152.82,-222.86 1151.33,-229.7"/>
</g>
<!-- Node19&#45;&gt;Node17 -->
<g id="edge27" class="edge">
<title>Node19&#45;&gt;Node17</title>
<path fill="none" stroke="midnightblue" d="M889.25,-116.47C910.35,-121.69 934.18,-127.59 956,-132.98"/>
<polygon fill="midnightblue" stroke="midnightblue" points="955.31,-136.42 965.86,-135.43 957,-129.63 955.31,-136.42"/>
</g>
<!-- Node19&#45;&gt;Node18 -->
<g id="edge28" class="edge">
<title>Node19&#45;&gt;Node18</title>
<path fill="none" stroke="midnightblue" d="M889.53,-116.58C894.99,-119.1 900.24,-122.03 905,-125.43 926.98,-141.15 918.86,-158.93 941,-174.43 943.87,-176.44 946.91,-178.3 950.06,-180"/>
<polygon fill="midnightblue" stroke="midnightblue" points="948.65,-183.21 959.18,-184.42 951.71,-176.91 948.65,-183.21"/>
</g>
<!-- Node21 -->
<g id="node21" class="node">
<title>Node21</title>
<g id="a_node21"><a xlink:href="interface_photon_1_1_realtime_1_1_i_connection_callbacks.xhtml#a2e3c773af453748eaaf877585d3d8e1d" target="_top" xlink:title="Called to signal that the &quot;low level connection&quot; got established but before the client can call opera...">
<polygon fill="white" stroke="black" points="756,-37.43 756,-67.43 899,-67.43 899,-37.43 756,-37.43"/>
<text text-anchor="start" x="764" y="-55.43" font-family="Helvetica,sans-Serif" font-size="10.00">Photon.Realtime.IConnection</text>
<text text-anchor="middle" x="827.5" y="-44.43" font-family="Helvetica,sans-Serif" font-size="10.00">Callbacks.OnConnected</text>
</a>
</g>
</g>
<!-- Node20&#45;&gt;Node21 -->
<g id="edge31" class="edge">
<title>Node20&#45;&gt;Node21</title>
<path fill="none" stroke="midnightblue" d="M707.57,-56.01C720.2,-55.63 733.25,-55.24 745.88,-54.86"/>
<polygon fill="midnightblue" stroke="midnightblue" points="746.01,-58.35 755.9,-54.55 745.8,-51.36 746.01,-58.35"/>
</g>
<!-- Node23 -->
<g id="node23" class="node">
<title>Node23</title>
<g id="a_node23"><a xlink:href="interface_photon_1_1_realtime_1_1_i_connection_callbacks.xhtml#a5e133a672790851ab0554fdc821c7727" target="_top" xlink:title="Called after disconnecting from the Photon server.">
<polygon fill="white" stroke="black" points="756,-409.43 756,-439.43 899,-439.43 899,-409.43 756,-409.43"/>
<text text-anchor="start" x="764" y="-427.43" font-family="Helvetica,sans-Serif" font-size="10.00">Photon.Realtime.IConnection</text>
<text text-anchor="middle" x="827.5" y="-416.43" font-family="Helvetica,sans-Serif" font-size="10.00">Callbacks.OnDisconnected</text>
</a>
</g>
</g>
<!-- Node22&#45;&gt;Node23 -->
<g id="edge33" class="edge">
<title>Node22&#45;&gt;Node23</title>
<path fill="none" stroke="midnightblue" d="M714.21,-424.43C724.67,-424.43 735.32,-424.43 745.68,-424.43"/>
<polygon fill="midnightblue" stroke="midnightblue" points="745.93,-427.93 755.93,-424.43 745.93,-420.93 745.93,-427.93"/>
</g>
<!-- Node25 -->
<g id="node25" class="node">
<title>Node25</title>
<g id="a_node25"><a xlink:href="interface_photon_1_1_realtime_1_1_i_matchmaking_callbacks.xhtml#acedd813313ad6724f3935801481d8e8f" target="_top" xlink:title="Called when the local user/client left a room, so the game&#39;s logic can clean up it&#39;s internal state.">
<polygon fill="white" stroke="black" points="751.5,-272.43 751.5,-302.43 903.5,-302.43 903.5,-272.43 751.5,-272.43"/>
<text text-anchor="start" x="759.5" y="-290.43" font-family="Helvetica,sans-Serif" font-size="10.00">Photon.Realtime.IMatchmaking</text>
<text text-anchor="middle" x="827.5" y="-279.43" font-family="Helvetica,sans-Serif" font-size="10.00">Callbacks.OnLeftRoom</text>
</a>
</g>
</g>
<!-- Node24&#45;&gt;Node25 -->
<g id="edge35" class="edge">
<title>Node24&#45;&gt;Node25</title>
<path fill="none" stroke="midnightblue" d="M705.28,-288.04C717.01,-287.98 729.16,-287.92 741.04,-287.86"/>
<polygon fill="midnightblue" stroke="midnightblue" points="741.41,-291.36 751.39,-287.81 741.37,-284.36 741.41,-291.36"/>
</g>
<!-- Node26&#45;&gt;Node9 -->
<g id="edge37" class="edge">
<title>Node26&#45;&gt;Node9</title>
<path fill="none" stroke="midnightblue" d="M905.05,-468.02C916.41,-467.22 928.19,-466.38 939.75,-465.57"/>
<polygon fill="midnightblue" stroke="midnightblue" points="940.1,-469.05 949.83,-464.85 939.6,-462.07 940.1,-469.05"/>
</g>
<!-- Node27 -->
<g id="node27" class="node">
<title>Node27</title>
<g id="a_node27"><a xlink:href="class_photon_1_1_realtime_1_1_load_balancing_peer.xhtml#ac21c4ac3367ad68703fb9fd29f1fa063" target="_top" xlink:title=" ">
<polygon fill="white" stroke="black" points="950,-493.43 950,-523.43 1105,-523.43 1105,-493.43 950,-493.43"/>
<text text-anchor="start" x="958" y="-511.43" font-family="Helvetica,sans-Serif" font-size="10.00">Photon.Realtime.LoadBalancing</text>
<text text-anchor="middle" x="1027.5" y="-500.43" font-family="Helvetica,sans-Serif" font-size="10.00">Peer.OpGetRegions</text>
</a>
</g>
</g>
<!-- Node26&#45;&gt;Node27 -->
<g id="edge38" class="edge">
<title>Node26&#45;&gt;Node27</title>
<path fill="none" stroke="midnightblue" d="M905.05,-486.96C916.41,-488.97 928.19,-491.05 939.75,-493.1"/>
<polygon fill="midnightblue" stroke="midnightblue" points="939.37,-496.58 949.83,-494.88 940.59,-489.69 939.37,-496.58"/>
</g>
</g>
</svg>
        <g id="navigator" transform="translate(0 0)" fill="#404254">
                <rect fill="#f2f5e9" fill-opacity="0.5" stroke="#606060" stroke-width=".5" x="0" y="0" width="60" height="60"/>
                <use id="zoomplus" xlink:href="#zoomPlus" x="17" y="9" onmousedown="handleZoom(evt,'in')"/>
                <use id="zoomminus" xlink:href="#zoomMin" x="42" y="9" onmousedown="handleZoom(evt,'out')"/>
                <use id="reset" xlink:href="#resetDef" x="30" y="36" onmousedown="handleReset()"/>
                <g id="arrowUp" xlink:href="#dirArrow" transform="translate(30 24)" onmousedown="handlePan(0,-1)">
                  <use xlink:href="#rim" fill="#404040">
                        <set attributeName="fill" to="#808080" begin="arrowUp.mouseover" end="arrowUp.mouseout"/>
                  </use>
                  <path fill="none" stroke="white" stroke-width="1.5" d="M0,-3.0v7 M-2.5,-0.5L0,-3.0L2.5,-0.5"/>
                </g>
                <g id="arrowRight" xlink:href="#dirArrow" transform="rotate(90) translate(36 -43)" onmousedown="handlePan(1,0)">
                  <use xlink:href="#rim" fill="#404040">
                        <set attributeName="fill" to="#808080" begin="arrowRight.mouseover" end="arrowRight.mouseout"/>
                  </use>
                  <path fill="none" stroke="white" stroke-width="1.5" d="M0,-3.0v7 M-2.5,-0.5L0,-3.0L2.5,-0.5"/>
                </g>
                <g id="arrowDown" xlink:href="#dirArrow" transform="rotate(180) translate(-30 -48)" onmousedown="handlePan(0,1)">
                  <use xlink:href="#rim" fill="#404040">
                        <set attributeName="fill" to="#808080" begin="arrowDown.mouseover" end="arrowDown.mouseout"/>
                  </use>
                  <path fill="none" stroke="white" stroke-width="1.5" d="M0,-3.0v7 M-2.5,-0.5L0,-3.0L2.5,-0.5"/>
                </g>
                <g id="arrowLeft" xlink:href="#dirArrow" transform="rotate(270) translate(-36 17)" onmousedown="handlePan(-1,0)">
                  <use xlink:href="#rim" fill="#404040">
                        <set attributeName="fill" to="#808080" begin="arrowLeft.mouseover" end="arrowLeft.mouseout"/>
                  </use>
                  <path fill="none" stroke="white" stroke-width="1.5" d="M0,-3.0v7 M-2.5,-0.5L0,-3.0L2.5,-0.5"/>
                </g>
        </g>
        <svg viewBox="0 0 15 15" width="100%" height="30px" preserveAspectRatio="xMaxYMin meet">
         <g id="arrow_out" transform="scale(0.3 0.3)">
          <a xlink:href="class_photon_1_1_pun_1_1_demo_1_1_cockpit_1_1_pun_cockpit_a1cc72ee5a728acc04e81d411d88d6179_cgraph_org.svg" target="_base">
           <rect id="button" ry="5" rx="5" y="6" x="6" height="38" width="38"
                fill="#f2f5e9" fill-opacity="0.5" stroke="#606060" stroke-width="1.0"/>
           <path id="arrow"
             d="M 11.500037,31.436501 C 11.940474,20.09759 22.043105,11.32322 32.158766,21.979434 L 37.068811,17.246167 C 37.068811,17.246167 37.088388,32 37.088388,32 L 22.160133,31.978069 C 22.160133,31.978069 26.997745,27.140456 26.997745,27.140456 C 18.528582,18.264221 13.291696,25.230495 11.500037,31.436501 z"
             style="fill:#404040;"/>
          </a>
         </g>
        </svg>
</svg>
