<?xml version="1.0" encoding="UTF-8" standalone="no"?>
<!DOCTYPE svg PUBLIC "-//W3C//DTD SVG 1.1//EN"
 "http://www.w3.org/Graphics/SVG/1.1/DTD/svg11.dtd">
<!-- Generated by graphviz version 2.47.3 (20210619.1520)
 -->
<!-- Title: Photon.Pun.PhotonEditor.OnDelayCall Pages: 1 -->
<!--zoomable 523 -->
<svg id="main" version="1.1" xmlns="http://www.w3.org/2000/svg" xmlns:xlink="http://www.w3.org/1999/xlink" xml:space="preserve" onload="init(evt)">
<style type="text/css"><![CDATA[
.edge:hover path { stroke: red; }
.edge:hover polygon { stroke: red; fill: red; }
]]></style>
<script type="text/javascript"><![CDATA[
var edges = document.getElementsByTagName('g');
if (edges && edges.length) {
  for (var i=0;i<edges.length;i++) {
    if (edges[i].id.substr(0,4)=='edge') {
      edges[i].setAttribute('class','edge');
    }
  }
}
]]></script>
        <defs>
                <circle id="rim" cx="0" cy="0" r="7"/>
                <circle id="rim2" cx="0" cy="0" r="3.5"/>
                <g id="zoomPlus">
                        <use xlink:href="#rim" fill="#404040">
                                <set attributeName="fill" to="#808080" begin="zoomplus.mouseover" end="zoomplus.mouseout"/>
                        </use>
                        <path d="M-4,0h8M0,-4v8" fill="none" stroke="white" stroke-width="1.5" pointer-events="none"/>
                </g>
                <g id="zoomMin">
                        <use xlink:href="#rim" fill="#404040">
                                <set attributeName="fill" to="#808080" begin="zoomminus.mouseover" end="zoomminus.mouseout"/>
                        </use>
                        <path d="M-4,0h8" fill="none" stroke="white" stroke-width="1.5" pointer-events="none"/>
                </g>
                <g id="dirArrow">
                        <path fill="none" stroke="white" stroke-width="1.5" d="M0,-3.0v7 M-2.5,-0.5L0,-3.0L2.5,-0.5"/>
                </g>
               <g id="resetDef">
                       <use xlink:href="#rim2" fill="#404040">
                               <set attributeName="fill" to="#808080" begin="reset.mouseover" end="reset.mouseout"/>
                       </use>
               </g>
        </defs>

<script type="text/javascript">
var viewWidth = 1880;
var viewHeight = 523;
var sectionId = 'dynsection-10';
</script>
<script xlink:href="svgpan.js"/>
<svg id="graph" class="graph">
<g id="viewport">
<title>Photon.Pun.PhotonEditor.OnDelayCall</title>
<polygon fill="white" stroke="transparent" points="-4,4 -4,-518.64 1876,-518.64 1876,4 -4,4"/>
<!-- Node1 -->
<g id="node1" class="node">
<title>Node1</title>
<g id="a_node1"><a xlink:title=" ">
<polygon fill="#bfbfbf" stroke="black" points="0,-61.5 0,-91.5 130,-91.5 130,-61.5 0,-61.5"/>
<text text-anchor="start" x="8" y="-79.5" font-family="Helvetica,sans-Serif" font-size="10.00">Photon.Pun.PhotonEditor.</text>
<text text-anchor="middle" x="65" y="-68.5" font-family="Helvetica,sans-Serif" font-size="10.00">OnDelayCall</text>
</a>
</g>
</g>
<!-- Node2 -->
<g id="node2" class="node">
<title>Node2</title>
<g id="a_node2"><a xlink:href="class_photon_1_1_pun_1_1_photon_editor.xhtml#a8ff69bf37b897f6afb973016c09fa65e" target="_top" xlink:title=" ">
<polygon fill="white" stroke="black" points="166,-134.5 166,-164.5 296,-164.5 296,-134.5 166,-134.5"/>
<text text-anchor="start" x="174" y="-152.5" font-family="Helvetica,sans-Serif" font-size="10.00">Photon.Pun.PhotonEditor.</text>
<text text-anchor="middle" x="231" y="-141.5" font-family="Helvetica,sans-Serif" font-size="10.00">OnCompileStarted</text>
</a>
</g>
</g>
<!-- Node1&#45;&gt;Node2 -->
<g id="edge1" class="edge">
<title>Node1&#45;&gt;Node2</title>
<path fill="none" stroke="midnightblue" d="M99.98,-91.63C125.16,-102.83 159.66,-118.19 186.8,-130.27"/>
<polygon fill="midnightblue" stroke="midnightblue" points="185.5,-133.52 196.06,-134.39 188.35,-127.13 185.5,-133.52"/>
</g>
<!-- Node29 -->
<g id="node29" class="node">
<title>Node29</title>
<g id="a_node29"><a xlink:href="class_photon_1_1_pun_1_1_photon_editor.xhtml#a2ddfd526e3a1d31c6361b6f28ff0df73" target="_top" xlink:title=" ">
<polygon fill="white" stroke="black" points="166,-61.5 166,-91.5 296,-91.5 296,-61.5 166,-61.5"/>
<text text-anchor="start" x="174" y="-79.5" font-family="Helvetica,sans-Serif" font-size="10.00">Photon.Pun.PhotonEditor.</text>
<text text-anchor="middle" x="231" y="-68.5" font-family="Helvetica,sans-Serif" font-size="10.00">OnProjectChanged</text>
</a>
</g>
</g>
<!-- Node1&#45;&gt;Node29 -->
<g id="edge40" class="edge">
<title>Node1&#45;&gt;Node29</title>
<path fill="none" stroke="midnightblue" d="M130.35,-76.5C138.64,-76.5 147.19,-76.5 155.62,-76.5"/>
<polygon fill="midnightblue" stroke="midnightblue" points="155.84,-80 165.84,-76.5 155.84,-73 155.84,-80"/>
</g>
<!-- Node34 -->
<g id="node34" class="node">
<title>Node34</title>
<g id="a_node34"><a xlink:href="class_photon_1_1_pun_1_1_photon_editor.xhtml#a108436c000b51941e8d23c37acfd4d29" target="_top" xlink:title=" ">
<polygon fill="white" stroke="black" points="166,-12.5 166,-42.5 296,-42.5 296,-12.5 166,-12.5"/>
<text text-anchor="start" x="174" y="-30.5" font-family="Helvetica,sans-Serif" font-size="10.00">Photon.Pun.PhotonEditor.</text>
<text text-anchor="middle" x="231" y="-19.5" font-family="Helvetica,sans-Serif" font-size="10.00">PlayModeStateChanged</text>
</a>
</g>
</g>
<!-- Node1&#45;&gt;Node34 -->
<g id="edge45" class="edge">
<title>Node1&#45;&gt;Node34</title>
<path fill="none" stroke="midnightblue" d="M116.54,-61.4C133.46,-56.34 152.48,-50.66 170.04,-45.42"/>
<polygon fill="midnightblue" stroke="midnightblue" points="171.04,-48.77 179.62,-42.55 169.04,-42.06 171.04,-48.77"/>
</g>
<!-- Node3 -->
<g id="node3" class="node">
<title>Node3</title>
<g id="a_node3"><a xlink:href="class_photon_1_1_pun_1_1_photon_network.xhtml#a1da1c658340e7ecf28575b720104b122" target="_top" xlink:title="Makes this client disconnect from the photon server, a process that leaves any room and calls OnDisco...">
<polygon fill="white" stroke="black" points="339.5,-147.5 339.5,-177.5 479.5,-177.5 479.5,-147.5 339.5,-147.5"/>
<text text-anchor="start" x="347.5" y="-165.5" font-family="Helvetica,sans-Serif" font-size="10.00">Photon.Pun.PhotonNetwork.</text>
<text text-anchor="middle" x="409.5" y="-154.5" font-family="Helvetica,sans-Serif" font-size="10.00">Disconnect</text>
</a>
</g>
</g>
<!-- Node2&#45;&gt;Node3 -->
<g id="edge2" class="edge">
<title>Node2&#45;&gt;Node3</title>
<path fill="none" stroke="midnightblue" d="M296.22,-154.23C306.94,-155.02 318.16,-155.85 329.2,-156.66"/>
<polygon fill="midnightblue" stroke="midnightblue" points="329.04,-160.16 339.27,-157.4 329.55,-153.18 329.04,-160.16"/>
</g>
<!-- Node4 -->
<g id="node4" class="node">
<title>Node4</title>
<g id="a_node4"><a xlink:href="class_photon_1_1_realtime_1_1_load_balancing_client.xhtml#ab71b80fa9e4f0e5644de49ec9b01853d" target="_top" xlink:title="Disconnects the peer from a server or stays disconnected.">
<polygon fill="white" stroke="black" points="523,-98.5 523,-128.5 678,-128.5 678,-98.5 523,-98.5"/>
<text text-anchor="start" x="531" y="-116.5" font-family="Helvetica,sans-Serif" font-size="10.00">Photon.Realtime.LoadBalancing</text>
<text text-anchor="middle" x="600.5" y="-105.5" font-family="Helvetica,sans-Serif" font-size="10.00">Client.Disconnect</text>
</a>
</g>
</g>
<!-- Node3&#45;&gt;Node4 -->
<g id="edge3" class="edge">
<title>Node3&#45;&gt;Node4</title>
<path fill="none" stroke="midnightblue" d="M468.49,-147.47C488.54,-142.27 511.17,-136.4 531.92,-131.02"/>
<polygon fill="midnightblue" stroke="midnightblue" points="532.82,-134.4 541.62,-128.51 531.06,-127.63 532.82,-134.4"/>
</g>
<!-- Node8 -->
<g id="node8" class="node">
<title>Node8</title>
<g id="a_node8"><a xlink:href="class_photon_1_1_realtime_1_1_load_balancing_client.xhtml#affac531c1eb7a4d77326135150f19b7e" target="_top" xlink:title="Uses the connection&#39;s statusCodes to advance the internal state and call operations as needed.">
<polygon fill="white" stroke="black" points="523,-235.5 523,-265.5 678,-265.5 678,-235.5 523,-235.5"/>
<text text-anchor="start" x="531" y="-253.5" font-family="Helvetica,sans-Serif" font-size="10.00">Photon.Realtime.LoadBalancing</text>
<text text-anchor="middle" x="600.5" y="-242.5" font-family="Helvetica,sans-Serif" font-size="10.00">Client.OnStatusChanged</text>
</a>
</g>
</g>
<!-- Node3&#45;&gt;Node8 -->
<g id="edge7" class="edge">
<title>Node3&#45;&gt;Node8</title>
<path fill="none" stroke="midnightblue" d="M442.99,-177.63C474.73,-192.41 523.18,-214.96 557.76,-231.06"/>
<polygon fill="midnightblue" stroke="midnightblue" points="556.58,-234.37 567.12,-235.42 559.53,-228.03 556.58,-234.37"/>
</g>
<!-- Node5 -->
<g id="node5" class="node">
<title>Node5</title>
<g id="a_node5"><a xlink:href="class_photon_1_1_realtime_1_1_load_balancing_client.xhtml#a69dd43d4c7211b5b83cd54d0ebcf79e7" target="_top" xlink:title="Debug output of low level api (and this client).">
<polygon fill="white" stroke="black" points="1330.5,-294.5 1330.5,-324.5 1485.5,-324.5 1485.5,-294.5 1330.5,-294.5"/>
<text text-anchor="start" x="1338.5" y="-312.5" font-family="Helvetica,sans-Serif" font-size="10.00">Photon.Realtime.LoadBalancing</text>
<text text-anchor="middle" x="1408" y="-301.5" font-family="Helvetica,sans-Serif" font-size="10.00">Client.DebugReturn</text>
</a>
</g>
</g>
<!-- Node4&#45;&gt;Node5 -->
<g id="edge4" class="edge">
<title>Node4&#45;&gt;Node5</title>
<path fill="none" stroke="midnightblue" d="M620.45,-98.48C641.77,-82.6 678.14,-58.48 714,-48.5 871.15,-4.77 920.23,-16.88 1081,-44.5 1178.12,-61.19 1213.42,-56.48 1290,-118.5 1346.29,-164.09 1382.61,-244.47 1398.22,-284.86"/>
<polygon fill="midnightblue" stroke="midnightblue" points="1395.03,-286.33 1401.82,-294.45 1401.58,-283.86 1395.03,-286.33"/>
</g>
<!-- Node6 -->
<g id="node6" class="node">
<title>Node6</title>
<g id="a_node6"><a xlink:href="class_photon_1_1_realtime_1_1_load_balancing_peer.xhtml#a7f48b5f0c44ef0c67ef32f147ff87246" target="_top" xlink:title="Creates a Peer with specified connection protocol.">
<polygon fill="white" stroke="black" points="1526,-294.5 1526,-324.5 1681,-324.5 1681,-294.5 1526,-294.5"/>
<text text-anchor="start" x="1534" y="-312.5" font-family="Helvetica,sans-Serif" font-size="10.00">Photon.Realtime.LoadBalancing</text>
<text text-anchor="middle" x="1603.5" y="-301.5" font-family="Helvetica,sans-Serif" font-size="10.00">Peer.LoadBalancingPeer</text>
</a>
</g>
</g>
<!-- Node5&#45;&gt;Node6 -->
<g id="edge5" class="edge">
<title>Node5&#45;&gt;Node6</title>
<path fill="none" stroke="midnightblue" d="M1485.75,-309.5C1495.54,-309.5 1505.62,-309.5 1515.55,-309.5"/>
<polygon fill="midnightblue" stroke="midnightblue" points="1515.84,-313 1525.84,-309.5 1515.84,-306 1515.84,-313"/>
</g>
<!-- Node7 -->
<g id="node7" class="node">
<title>Node7</title>
<g id="a_node7"><a xlink:href="class_photon_1_1_realtime_1_1_load_balancing_peer.xhtml#affaff7e1fdffe86b25156ffac5e738c9" target="_top" xlink:title=" ">
<polygon fill="white" stroke="black" points="1717,-294.5 1717,-324.5 1872,-324.5 1872,-294.5 1717,-294.5"/>
<text text-anchor="start" x="1725" y="-312.5" font-family="Helvetica,sans-Serif" font-size="10.00">Photon.Realtime.LoadBalancing</text>
<text text-anchor="middle" x="1794.5" y="-301.5" font-family="Helvetica,sans-Serif" font-size="10.00">Peer.ConfigUnitySockets</text>
</a>
</g>
</g>
<!-- Node6&#45;&gt;Node7 -->
<g id="edge6" class="edge">
<title>Node6&#45;&gt;Node7</title>
<path fill="none" stroke="midnightblue" d="M1681.1,-309.5C1689.56,-309.5 1698.22,-309.5 1706.79,-309.5"/>
<polygon fill="midnightblue" stroke="midnightblue" points="1706.79,-313 1716.79,-309.5 1706.79,-306 1706.79,-313"/>
</g>
<!-- Node8&#45;&gt;Node5 -->
<g id="edge30" class="edge">
<title>Node8&#45;&gt;Node5</title>
<path fill="none" stroke="midnightblue" d="M619.11,-265.65C640.08,-282.6 676.95,-309.04 714,-319.5 925.33,-379.15 1187.53,-348.67 1320.68,-326.25"/>
<polygon fill="midnightblue" stroke="midnightblue" points="1321.55,-329.65 1330.82,-324.52 1320.37,-322.75 1321.55,-329.65"/>
</g>
<!-- Node9 -->
<g id="node9" class="node">
<title>Node9</title>
<g id="a_node9"><a xlink:href="class_photon_1_1_realtime_1_1_load_balancing_client.xhtml#a41ac38b72df503d0c9997b0ab1b78801" target="_top" xlink:title=" ">
<polygon fill="white" stroke="black" points="926,-376.5 926,-406.5 1081,-406.5 1081,-376.5 926,-376.5"/>
<text text-anchor="start" x="934" y="-394.5" font-family="Helvetica,sans-Serif" font-size="10.00">Photon.Realtime.LoadBalancing</text>
<text text-anchor="middle" x="1003.5" y="-383.5" font-family="Helvetica,sans-Serif" font-size="10.00">Client.CallAuthenticate</text>
</a>
</g>
</g>
<!-- Node8&#45;&gt;Node9 -->
<g id="edge8" class="edge">
<title>Node8&#45;&gt;Node9</title>
<path fill="none" stroke="midnightblue" d="M611.5,-265.57C628.96,-290.46 667.6,-339.59 714,-361.5 777.06,-391.28 856.32,-397.62 915.8,-397.16"/>
<polygon fill="midnightblue" stroke="midnightblue" points="915.97,-400.66 925.92,-397.02 915.87,-393.66 915.97,-400.66"/>
</g>
<!-- Node14 -->
<g id="node14" class="node">
<title>Node14</title>
<g id="a_node14"><a xlink:href="class_photon_1_1_realtime_1_1_load_balancing_client.xhtml#a32adb95af4cb836a29fc53aa66000caf" target="_top" xlink:title="Internally used to set the LocalPlayer&#39;s ID (from &#45;1 to the actual in&#45;room ID).">
<polygon fill="white" stroke="black" points="724.5,-279.5 724.5,-309.5 879.5,-309.5 879.5,-279.5 724.5,-279.5"/>
<text text-anchor="start" x="732.5" y="-297.5" font-family="Helvetica,sans-Serif" font-size="10.00">Photon.Realtime.LoadBalancing</text>
<text text-anchor="middle" x="802" y="-286.5" font-family="Helvetica,sans-Serif" font-size="10.00">Client.ChangeLocalID</text>
</a>
</g>
</g>
<!-- Node8&#45;&gt;Node14 -->
<g id="edge16" class="edge">
<title>Node8&#45;&gt;Node14</title>
<path fill="none" stroke="midnightblue" d="M669.6,-265.52C686.68,-269.29 705.14,-273.36 722.67,-277.22"/>
<polygon fill="midnightblue" stroke="midnightblue" points="722.35,-280.74 732.87,-279.47 723.86,-273.9 722.35,-280.74"/>
</g>
<!-- Node16 -->
<g id="node16" class="node">
<title>Node16</title>
<g id="a_node16"><a xlink:href="class_photon_1_1_realtime_1_1_load_balancing_client.xhtml#a84e280b4685509d7fa65bedebb0828a2" target="_top" xlink:title=" ">
<polygon fill="white" stroke="black" points="724.5,-191.5 724.5,-221.5 879.5,-221.5 879.5,-191.5 724.5,-191.5"/>
<text text-anchor="start" x="732.5" y="-209.5" font-family="Helvetica,sans-Serif" font-size="10.00">Photon.Realtime.LoadBalancing</text>
<text text-anchor="middle" x="802" y="-198.5" font-family="Helvetica,sans-Serif" font-size="10.00">Client.Connect</text>
</a>
</g>
</g>
<!-- Node8&#45;&gt;Node16 -->
<g id="edge19" class="edge">
<title>Node8&#45;&gt;Node16</title>
<path fill="none" stroke="midnightblue" d="M669.6,-235.48C686.68,-231.71 705.14,-227.64 722.67,-223.78"/>
<polygon fill="midnightblue" stroke="midnightblue" points="723.86,-227.1 732.87,-221.53 722.35,-220.26 723.86,-227.1"/>
</g>
<!-- Node17 -->
<g id="node17" class="node">
<title>Node17</title>
<g id="a_node17"><a xlink:href="class_photon_1_1_realtime_1_1_load_balancing_client.xhtml#ad1d932ea902a1b1df7769e9a852077c6" target="_top" xlink:title="Starts the &quot;process&quot; to connect to a Master Server, using MasterServerAddress and AppId properties.">
<polygon fill="white" stroke="black" points="926,-152.5 926,-182.5 1081,-182.5 1081,-152.5 926,-152.5"/>
<text text-anchor="start" x="934" y="-170.5" font-family="Helvetica,sans-Serif" font-size="10.00">Photon.Realtime.LoadBalancing</text>
<text text-anchor="middle" x="1003.5" y="-159.5" font-family="Helvetica,sans-Serif" font-size="10.00">Client.ConnectToMasterServer</text>
</a>
</g>
</g>
<!-- Node8&#45;&gt;Node17 -->
<g id="edge26" class="edge">
<title>Node8&#45;&gt;Node17</title>
<path fill="none" stroke="midnightblue" d="M620.01,-235.32C641.23,-218.91 677.78,-193.62 714,-182.5 779.47,-162.4 857.18,-159.48 915.45,-161.12"/>
<polygon fill="midnightblue" stroke="midnightblue" points="915.61,-164.63 925.72,-161.47 915.85,-157.64 915.61,-164.63"/>
</g>
<!-- Node20 -->
<g id="node20" class="node">
<title>Node20</title>
<g id="a_node20"><a xlink:href="class_photon_1_1_realtime_1_1_load_balancing_client.xhtml#a43756ee75b2346cb002f89aee86ff94d" target="_top" xlink:title="Connects to the NameServer for Photon Cloud, where a region and server list can be obtained.">
<polygon fill="white" stroke="black" points="926,-103.5 926,-133.5 1081,-133.5 1081,-103.5 926,-103.5"/>
<text text-anchor="start" x="934" y="-121.5" font-family="Helvetica,sans-Serif" font-size="10.00">Photon.Realtime.LoadBalancing</text>
<text text-anchor="middle" x="1003.5" y="-110.5" font-family="Helvetica,sans-Serif" font-size="10.00">Client.ConnectToNameServer</text>
</a>
</g>
</g>
<!-- Node8&#45;&gt;Node20 -->
<g id="edge27" class="edge">
<title>Node8&#45;&gt;Node20</title>
<path fill="none" stroke="midnightblue" d="M614.27,-235.43C633.47,-213.9 672.05,-174.91 714,-156.5 777.85,-128.48 856.71,-119.63 915.83,-117.42"/>
<polygon fill="midnightblue" stroke="midnightblue" points="916,-120.92 925.89,-117.1 915.78,-113.92 916,-120.92"/>
</g>
<!-- Node21 -->
<g id="node21" class="node">
<title>Node21</title>
<g id="a_node21"><a xlink:href="class_photon_1_1_realtime_1_1_connection_callbacks_container.xhtml#ae020162c1ec754e7bcdc604976babac2" target="_top" xlink:title="Called to signal that the &quot;low level connection&quot; got established but before the client can call opera...">
<polygon fill="white" stroke="black" points="720.5,-58.5 720.5,-88.5 883.5,-88.5 883.5,-58.5 720.5,-58.5"/>
<text text-anchor="start" x="728.5" y="-76.5" font-family="Helvetica,sans-Serif" font-size="10.00">Photon.Realtime.Connection</text>
<text text-anchor="middle" x="802" y="-65.5" font-family="Helvetica,sans-Serif" font-size="10.00">CallbacksContainer.OnConnected</text>
</a>
</g>
</g>
<!-- Node8&#45;&gt;Node21 -->
<g id="edge31" class="edge">
<title>Node8&#45;&gt;Node21</title>
<path fill="none" stroke="midnightblue" d="M609.69,-235.38C625.96,-206.66 665.04,-143.83 714,-107.5 721.73,-101.76 730.56,-96.86 739.55,-92.71"/>
<polygon fill="midnightblue" stroke="midnightblue" points="741.16,-95.83 748.95,-88.65 738.38,-89.4 741.16,-95.83"/>
</g>
<!-- Node23 -->
<g id="node23" class="node">
<title>Node23</title>
<g id="a_node23"><a xlink:href="class_photon_1_1_realtime_1_1_connection_callbacks_container.xhtml#ad8a7ee8a123cf763142db0d18a83c9cd" target="_top" xlink:title="Called after disconnecting from the Photon server.">
<polygon fill="white" stroke="black" points="714,-472.5 714,-502.5 890,-502.5 890,-472.5 714,-472.5"/>
<text text-anchor="start" x="722" y="-490.5" font-family="Helvetica,sans-Serif" font-size="10.00">Photon.Realtime.Connection</text>
<text text-anchor="middle" x="802" y="-479.5" font-family="Helvetica,sans-Serif" font-size="10.00">CallbacksContainer.OnDisconnected</text>
</a>
</g>
</g>
<!-- Node8&#45;&gt;Node23 -->
<g id="edge33" class="edge">
<title>Node8&#45;&gt;Node23</title>
<path fill="none" stroke="midnightblue" d="M605.2,-265.59C615.46,-304.22 647.97,-407.48 714,-461.5 716.71,-463.71 719.59,-465.74 722.62,-467.59"/>
<polygon fill="midnightblue" stroke="midnightblue" points="720.98,-470.68 731.44,-472.37 724.31,-464.53 720.98,-470.68"/>
</g>
<!-- Node25 -->
<g id="node25" class="node">
<title>Node25</title>
<g id="a_node25"><a xlink:href="class_photon_1_1_realtime_1_1_match_making_callbacks_container.xhtml#aa8f13b83943e6a562e9817807cee4836" target="_top" xlink:title="Called when the local user/client left a room, so the game&#39;s logic can clean up it&#39;s internal state.">
<polygon fill="white" stroke="black" points="723,-421.5 723,-451.5 881,-451.5 881,-421.5 723,-421.5"/>
<text text-anchor="start" x="731" y="-439.5" font-family="Helvetica,sans-Serif" font-size="10.00">Photon.Realtime.MatchMaking</text>
<text text-anchor="middle" x="802" y="-428.5" font-family="Helvetica,sans-Serif" font-size="10.00">CallbacksContainer.OnLeftRoom</text>
</a>
</g>
</g>
<!-- Node8&#45;&gt;Node25 -->
<g id="edge35" class="edge">
<title>Node8&#45;&gt;Node25</title>
<path fill="none" stroke="midnightblue" d="M608.96,-265.65C624.5,-295.77 663.16,-363.6 714,-402.5 721.55,-408.28 730.21,-413.19 739.07,-417.34"/>
<polygon fill="midnightblue" stroke="midnightblue" points="737.77,-420.59 748.33,-421.38 740.57,-414.17 737.77,-420.59"/>
</g>
<!-- Node27 -->
<g id="node27" class="node">
<title>Node27</title>
<g id="a_node27"><a xlink:href="class_photon_1_1_realtime_1_1_load_balancing_client.xhtml#a917cbf329c3675953d0c500055bb4803" target="_top" xlink:title="While on the NameServer, this gets you the list of regional servers (short names and their IPs to pin...">
<polygon fill="white" stroke="black" points="926,-201.5 926,-231.5 1081,-231.5 1081,-201.5 926,-201.5"/>
<text text-anchor="start" x="934" y="-219.5" font-family="Helvetica,sans-Serif" font-size="10.00">Photon.Realtime.LoadBalancing</text>
<text text-anchor="middle" x="1003.5" y="-208.5" font-family="Helvetica,sans-Serif" font-size="10.00">Client.OpGetRegions</text>
</a>
</g>
</g>
<!-- Node8&#45;&gt;Node27 -->
<g id="edge37" class="edge">
<title>Node8&#45;&gt;Node27</title>
<path fill="none" stroke="midnightblue" d="M678.15,-246.85C736.35,-243.74 818.32,-238.63 890,-231.5 898.31,-230.67 906.96,-229.71 915.6,-228.67"/>
<polygon fill="midnightblue" stroke="midnightblue" points="916.22,-232.12 925.72,-227.43 915.37,-225.18 916.22,-232.12"/>
</g>
<!-- Node9&#45;&gt;Node5 -->
<g id="edge13" class="edge">
<title>Node9&#45;&gt;Node5</title>
<path fill="none" stroke="midnightblue" d="M1063.57,-406.58C1069.74,-409.37 1075.68,-412.65 1081,-416.5 1102.89,-432.34 1092.89,-453.3 1117,-465.5 1185.6,-500.22 1228.15,-511.18 1290,-465.5 1333.76,-433.18 1290.52,-389.75 1326,-348.5 1332.64,-340.78 1341.16,-334.46 1350.16,-329.33"/>
<polygon fill="midnightblue" stroke="midnightblue" points="1352.02,-332.31 1359.28,-324.59 1348.8,-326.1 1352.02,-332.31"/>
</g>
<!-- Node9&#45;&gt;Node6 -->
<g id="edge14" class="edge">
<title>Node9&#45;&gt;Node6</title>
<path fill="none" stroke="midnightblue" d="M1066.31,-406.52C1071.61,-409.31 1076.62,-412.6 1081,-416.5 1109.52,-441.88 1084.84,-473.92 1117,-494.5 1181.77,-535.94 1213.42,-501.34 1290,-494.5 1379.96,-486.47 1413.05,-505.79 1490,-458.5 1539.26,-428.22 1574.5,-367.79 1591.33,-333.93"/>
<polygon fill="midnightblue" stroke="midnightblue" points="1594.58,-335.26 1595.78,-324.74 1588.27,-332.22 1594.58,-335.26"/>
</g>
<!-- Node10 -->
<g id="node10" class="node">
<title>Node10</title>
<g id="a_node10"><a xlink:href="class_photon_1_1_realtime_1_1_load_balancing_client.xhtml#aa12ff3efc3aa91e5ceca9b3a40f7bd79" target="_top" xlink:title=" ">
<polygon fill="white" stroke="black" points="1126,-376.5 1126,-406.5 1281,-406.5 1281,-376.5 1126,-376.5"/>
<text text-anchor="start" x="1134" y="-394.5" font-family="Helvetica,sans-Serif" font-size="10.00">Photon.Realtime.LoadBalancing</text>
<text text-anchor="middle" x="1203.5" y="-383.5" font-family="Helvetica,sans-Serif" font-size="10.00">Client.CheckIfOpCanBeSent</text>
</a>
</g>
</g>
<!-- Node9&#45;&gt;Node10 -->
<g id="edge9" class="edge">
<title>Node9&#45;&gt;Node10</title>
<path fill="none" stroke="midnightblue" d="M1081.05,-391.5C1092.41,-391.5 1104.19,-391.5 1115.75,-391.5"/>
<polygon fill="midnightblue" stroke="midnightblue" points="1115.83,-395 1125.83,-391.5 1115.83,-388 1115.83,-395"/>
</g>
<!-- Node13 -->
<g id="node13" class="node">
<title>Node13</title>
<g id="a_node13"><a xlink:href="class_photon_1_1_realtime_1_1_load_balancing_peer.xhtml#a4ed3ae23ffbc88d5b449997e5af8d9af" target="_top" xlink:title="Sends this app&#39;s appId and appVersion to identify this application server side.">
<polygon fill="white" stroke="black" points="1126,-425.5 1126,-455.5 1281,-455.5 1281,-425.5 1126,-425.5"/>
<text text-anchor="start" x="1134" y="-443.5" font-family="Helvetica,sans-Serif" font-size="10.00">Photon.Realtime.LoadBalancing</text>
<text text-anchor="middle" x="1203.5" y="-432.5" font-family="Helvetica,sans-Serif" font-size="10.00">Peer.OpAuthenticate</text>
</a>
</g>
</g>
<!-- Node9&#45;&gt;Node13 -->
<g id="edge15" class="edge">
<title>Node9&#45;&gt;Node13</title>
<path fill="none" stroke="midnightblue" d="M1065.25,-406.53C1086.35,-411.76 1110.18,-417.65 1132,-423.05"/>
<polygon fill="midnightblue" stroke="midnightblue" points="1131.31,-426.49 1141.86,-425.49 1133,-419.69 1131.31,-426.49"/>
</g>
<!-- Node10&#45;&gt;Node5 -->
<g id="edge12" class="edge">
<title>Node10&#45;&gt;Node5</title>
<path fill="none" stroke="midnightblue" d="M1249.57,-376.45C1262.69,-371.86 1276.99,-366.67 1290,-361.5 1315.49,-351.38 1343.59,-338.94 1365.85,-328.76"/>
<polygon fill="midnightblue" stroke="midnightblue" points="1367.39,-331.91 1375.02,-324.55 1364.47,-325.55 1367.39,-331.91"/>
</g>
<!-- Node11 -->
<g id="node11" class="node">
<title>Node11</title>
<g id="a_node11"><a xlink:href="class_photon_1_1_realtime_1_1_load_balancing_client.xhtml#ae052ab450db16efdd31985d56f76f0ab" target="_top" xlink:title=" ">
<polygon fill="white" stroke="black" points="1326,-358 1326,-399 1490,-399 1490,-358 1326,-358"/>
<text text-anchor="start" x="1334" y="-387" font-family="Helvetica,sans-Serif" font-size="10.00">Photon.Realtime.LoadBalancing</text>
<text text-anchor="start" x="1334" y="-376" font-family="Helvetica,sans-Serif" font-size="10.00">Client.CheckIfClientIsReadyToCall</text>
<text text-anchor="middle" x="1408" y="-365" font-family="Helvetica,sans-Serif" font-size="10.00">Operation</text>
</a>
</g>
</g>
<!-- Node10&#45;&gt;Node11 -->
<g id="edge10" class="edge">
<title>Node10&#45;&gt;Node11</title>
<path fill="none" stroke="midnightblue" d="M1281.06,-386.59C1292.4,-385.86 1304.19,-385.1 1315.8,-384.35"/>
<polygon fill="midnightblue" stroke="midnightblue" points="1316.19,-387.84 1325.95,-383.7 1315.74,-380.85 1316.19,-387.84"/>
</g>
<!-- Node12 -->
<g id="node12" class="node">
<title>Node12</title>
<g id="a_node12"><a xlink:href="class_photon_1_1_realtime_1_1_load_balancing_client.xhtml#aa01a53cac6918dab3ecb99669b276f01" target="_top" xlink:title=" ">
<polygon fill="white" stroke="black" points="1326.5,-418.5 1326.5,-448.5 1489.5,-448.5 1489.5,-418.5 1326.5,-418.5"/>
<text text-anchor="start" x="1334.5" y="-436.5" font-family="Helvetica,sans-Serif" font-size="10.00">Photon.Realtime.LoadBalancing</text>
<text text-anchor="middle" x="1408" y="-425.5" font-family="Helvetica,sans-Serif" font-size="10.00">Client.CheckIfOpAllowedOnServer</text>
</a>
</g>
</g>
<!-- Node10&#45;&gt;Node12 -->
<g id="edge11" class="edge">
<title>Node10&#45;&gt;Node12</title>
<path fill="none" stroke="midnightblue" d="M1277.04,-406.54C1292.4,-409.73 1308.72,-413.12 1324.42,-416.37"/>
<polygon fill="midnightblue" stroke="midnightblue" points="1324.13,-419.89 1334.63,-418.49 1325.55,-413.03 1324.13,-419.89"/>
</g>
<!-- Node14&#45;&gt;Node5 -->
<g id="edge17" class="edge">
<title>Node14&#45;&gt;Node5</title>
<path fill="none" stroke="midnightblue" d="M879.8,-296.41C992.49,-299.21 1202.03,-304.41 1320.17,-307.34"/>
<polygon fill="midnightblue" stroke="midnightblue" points="1320.18,-310.84 1330.26,-307.59 1320.35,-303.85 1320.18,-310.84"/>
</g>
<!-- Node15 -->
<g id="node15" class="node">
<title>Node15</title>
<g id="a_node15"><a xlink:href="class_photon_1_1_realtime_1_1_room.xhtml#a5e614a00e26aae5f35f0805c4e4bb7a9" target="_top" xlink:title="Updates a player reference in the Players dictionary (no matter if it existed before or not).">
<polygon fill="white" stroke="black" points="932,-250.5 932,-280.5 1075,-280.5 1075,-250.5 932,-250.5"/>
<text text-anchor="start" x="940" y="-268.5" font-family="Helvetica,sans-Serif" font-size="10.00">Photon.Realtime.Room.Store</text>
<text text-anchor="middle" x="1003.5" y="-257.5" font-family="Helvetica,sans-Serif" font-size="10.00">Player</text>
</a>
</g>
</g>
<!-- Node14&#45;&gt;Node15 -->
<g id="edge18" class="edge">
<title>Node14&#45;&gt;Node15</title>
<path fill="none" stroke="midnightblue" d="M879.56,-283.37C893.36,-281.37 907.78,-279.27 921.69,-277.25"/>
<polygon fill="midnightblue" stroke="midnightblue" points="922.31,-280.69 931.71,-275.79 921.31,-273.77 922.31,-280.69"/>
</g>
<!-- Node16&#45;&gt;Node17 -->
<g id="edge20" class="edge">
<title>Node16&#45;&gt;Node17</title>
<path fill="none" stroke="midnightblue" d="M879.56,-191.53C891.41,-189.22 903.72,-186.81 915.77,-184.46"/>
<polygon fill="midnightblue" stroke="midnightblue" points="916.67,-187.84 925.81,-182.49 915.33,-180.97 916.67,-187.84"/>
</g>
<!-- Node18 -->
<g id="node18" class="node">
<title>Node18</title>
<g id="a_node18"><a xlink:href="class_photon_1_1_realtime_1_1_load_balancing_client.xhtml#a29aacea6df375e301f67cb40ea90849e" target="_top" xlink:title=" ">
<polygon fill="white" stroke="black" points="1121.5,-127.5 1121.5,-157.5 1285.5,-157.5 1285.5,-127.5 1121.5,-127.5"/>
<text text-anchor="start" x="1129.5" y="-145.5" font-family="Helvetica,sans-Serif" font-size="10.00">Photon.Realtime.LoadBalancing</text>
<text text-anchor="middle" x="1203.5" y="-134.5" font-family="Helvetica,sans-Serif" font-size="10.00">Client.CheckConnectSetupWebGl</text>
</a>
</g>
</g>
<!-- Node17&#45;&gt;Node18 -->
<g id="edge21" class="edge">
<title>Node17&#45;&gt;Node18</title>
<path fill="none" stroke="midnightblue" d="M1081.05,-157.83C1090.93,-156.59 1101.12,-155.3 1111.2,-154.03"/>
<polygon fill="midnightblue" stroke="midnightblue" points="1111.75,-157.49 1121.23,-152.76 1110.87,-150.54 1111.75,-157.49"/>
</g>
<!-- Node19 -->
<g id="node19" class="node">
<title>Node19</title>
<g id="a_node19"><a xlink:href="class_photon_1_1_realtime_1_1_load_balancing_client.xhtml#a43a3b987e52c0e028ce1d5803b7b9507" target="_top" xlink:title=" ">
<polygon fill="white" stroke="black" points="1117,-176.5 1117,-206.5 1290,-206.5 1290,-176.5 1117,-176.5"/>
<text text-anchor="start" x="1125" y="-194.5" font-family="Helvetica,sans-Serif" font-size="10.00">Photon.Realtime.LoadBalancing</text>
<text text-anchor="middle" x="1203.5" y="-183.5" font-family="Helvetica,sans-Serif" font-size="10.00">Client.CheckConnectSetupXboxOne</text>
</a>
</g>
</g>
<!-- Node17&#45;&gt;Node19 -->
<g id="edge24" class="edge">
<title>Node17&#45;&gt;Node19</title>
<path fill="none" stroke="midnightblue" d="M1081.05,-176.78C1089.5,-177.8 1098.18,-178.85 1106.82,-179.9"/>
<polygon fill="midnightblue" stroke="midnightblue" points="1106.59,-183.4 1116.94,-181.13 1107.43,-176.45 1106.59,-183.4"/>
</g>
<!-- Node18&#45;&gt;Node5 -->
<g id="edge22" class="edge">
<title>Node18&#45;&gt;Node5</title>
<path fill="none" stroke="midnightblue" d="M1271.16,-157.65C1277.78,-160.41 1284.19,-163.67 1290,-167.5 1302.52,-175.76 1359.63,-248.32 1389.18,-286.39"/>
<polygon fill="midnightblue" stroke="midnightblue" points="1386.49,-288.63 1395.38,-294.4 1392.02,-284.35 1386.49,-288.63"/>
</g>
<!-- Node18&#45;&gt;Node6 -->
<g id="edge23" class="edge">
<title>Node18&#45;&gt;Node6</title>
<path fill="none" stroke="midnightblue" d="M1260.07,-157.5C1270.11,-160.57 1280.43,-163.95 1290,-167.5 1391.08,-205.03 1505.37,-260.44 1563.72,-289.71"/>
<polygon fill="midnightblue" stroke="midnightblue" points="1562.42,-292.98 1572.93,-294.35 1565.57,-286.72 1562.42,-292.98"/>
</g>
<!-- Node19&#45;&gt;Node5 -->
<g id="edge25" class="edge">
<title>Node19&#45;&gt;Node5</title>
<path fill="none" stroke="midnightblue" d="M1266.79,-206.62C1274.79,-209.45 1282.72,-212.73 1290,-216.5 1326.48,-235.4 1362.59,-266.5 1384.83,-287.47"/>
<polygon fill="midnightblue" stroke="midnightblue" points="1382.46,-290.04 1392.1,-294.43 1387.3,-284.99 1382.46,-290.04"/>
</g>
<!-- Node20&#45;&gt;Node18 -->
<g id="edge28" class="edge">
<title>Node20&#45;&gt;Node18</title>
<path fill="none" stroke="midnightblue" d="M1081.05,-127.78C1090.93,-128.98 1101.12,-130.21 1111.2,-131.43"/>
<polygon fill="midnightblue" stroke="midnightblue" points="1110.88,-134.92 1121.23,-132.65 1111.73,-127.97 1110.88,-134.92"/>
</g>
<!-- Node20&#45;&gt;Node19 -->
<g id="edge29" class="edge">
<title>Node20&#45;&gt;Node19</title>
<path fill="none" stroke="midnightblue" d="M1057.1,-133.59C1065.25,-136.52 1073.46,-139.84 1081,-143.5 1098.3,-151.9 1099.53,-159.47 1117,-167.5 1121.33,-169.49 1125.85,-171.35 1130.47,-173.08"/>
<polygon fill="midnightblue" stroke="midnightblue" points="1129.43,-176.42 1140.03,-176.45 1131.76,-169.82 1129.43,-176.42"/>
</g>
<!-- Node22 -->
<g id="node22" class="node">
<title>Node22</title>
<g id="a_node22"><a xlink:href="interface_photon_1_1_realtime_1_1_i_connection_callbacks.xhtml#a2e3c773af453748eaaf877585d3d8e1d" target="_top" xlink:title="Called to signal that the &quot;low level connection&quot; got established but before the client can call opera...">
<polygon fill="white" stroke="black" points="932,-54.5 932,-84.5 1075,-84.5 1075,-54.5 932,-54.5"/>
<text text-anchor="start" x="940" y="-72.5" font-family="Helvetica,sans-Serif" font-size="10.00">Photon.Realtime.IConnection</text>
<text text-anchor="middle" x="1003.5" y="-61.5" font-family="Helvetica,sans-Serif" font-size="10.00">Callbacks.OnConnected</text>
</a>
</g>
</g>
<!-- Node21&#45;&gt;Node22 -->
<g id="edge32" class="edge">
<title>Node21&#45;&gt;Node22</title>
<path fill="none" stroke="midnightblue" d="M883.57,-71.88C896.2,-71.63 909.25,-71.37 921.88,-71.12"/>
<polygon fill="midnightblue" stroke="midnightblue" points="921.98,-74.62 931.9,-70.92 921.84,-67.62 921.98,-74.62"/>
</g>
<!-- Node24 -->
<g id="node24" class="node">
<title>Node24</title>
<g id="a_node24"><a xlink:href="interface_photon_1_1_realtime_1_1_i_connection_callbacks.xhtml#a5e133a672790851ab0554fdc821c7727" target="_top" xlink:title="Called after disconnecting from the Photon server.">
<polygon fill="white" stroke="black" points="932,-474.5 932,-504.5 1075,-504.5 1075,-474.5 932,-474.5"/>
<text text-anchor="start" x="940" y="-492.5" font-family="Helvetica,sans-Serif" font-size="10.00">Photon.Realtime.IConnection</text>
<text text-anchor="middle" x="1003.5" y="-481.5" font-family="Helvetica,sans-Serif" font-size="10.00">Callbacks.OnDisconnected</text>
</a>
</g>
</g>
<!-- Node23&#45;&gt;Node24 -->
<g id="edge34" class="edge">
<title>Node23&#45;&gt;Node24</title>
<path fill="none" stroke="midnightblue" d="M890.21,-488.37C900.67,-488.48 911.32,-488.59 921.68,-488.69"/>
<polygon fill="midnightblue" stroke="midnightblue" points="921.9,-492.19 931.93,-488.79 921.97,-485.19 921.9,-492.19"/>
</g>
<!-- Node26 -->
<g id="node26" class="node">
<title>Node26</title>
<g id="a_node26"><a xlink:href="interface_photon_1_1_realtime_1_1_i_matchmaking_callbacks.xhtml#acedd813313ad6724f3935801481d8e8f" target="_top" xlink:title="Called when the local user/client left a room, so the game&#39;s logic can clean up it&#39;s internal state.">
<polygon fill="white" stroke="black" points="927.5,-425.5 927.5,-455.5 1079.5,-455.5 1079.5,-425.5 927.5,-425.5"/>
<text text-anchor="start" x="935.5" y="-443.5" font-family="Helvetica,sans-Serif" font-size="10.00">Photon.Realtime.IMatchmaking</text>
<text text-anchor="middle" x="1003.5" y="-432.5" font-family="Helvetica,sans-Serif" font-size="10.00">Callbacks.OnLeftRoom</text>
</a>
</g>
</g>
<!-- Node25&#45;&gt;Node26 -->
<g id="edge36" class="edge">
<title>Node25&#45;&gt;Node26</title>
<path fill="none" stroke="midnightblue" d="M881.28,-438.07C893.01,-438.3 905.16,-438.55 917.04,-438.79"/>
<polygon fill="midnightblue" stroke="midnightblue" points="917.32,-442.29 927.39,-438.99 917.46,-435.29 917.32,-442.29"/>
</g>
<!-- Node27&#45;&gt;Node10 -->
<g id="edge38" class="edge">
<title>Node27&#45;&gt;Node10</title>
<path fill="none" stroke="midnightblue" d="M1063,-231.66C1069.33,-234.44 1075.48,-237.7 1081,-241.5 1129.99,-275.23 1169.45,-334.29 1189.05,-367.34"/>
<polygon fill="midnightblue" stroke="midnightblue" points="1186.21,-369.43 1194.26,-376.32 1192.27,-365.92 1186.21,-369.43"/>
</g>
<!-- Node28 -->
<g id="node28" class="node">
<title>Node28</title>
<g id="a_node28"><a xlink:href="class_photon_1_1_realtime_1_1_load_balancing_peer.xhtml#ac21c4ac3367ad68703fb9fd29f1fa063" target="_top" xlink:title=" ">
<polygon fill="white" stroke="black" points="1126,-225.5 1126,-255.5 1281,-255.5 1281,-225.5 1126,-225.5"/>
<text text-anchor="start" x="1134" y="-243.5" font-family="Helvetica,sans-Serif" font-size="10.00">Photon.Realtime.LoadBalancing</text>
<text text-anchor="middle" x="1203.5" y="-232.5" font-family="Helvetica,sans-Serif" font-size="10.00">Peer.OpGetRegions</text>
</a>
</g>
</g>
<!-- Node27&#45;&gt;Node28 -->
<g id="edge39" class="edge">
<title>Node27&#45;&gt;Node28</title>
<path fill="none" stroke="midnightblue" d="M1081.05,-225.78C1092.41,-227.16 1104.19,-228.58 1115.75,-229.98"/>
<polygon fill="midnightblue" stroke="midnightblue" points="1115.48,-233.48 1125.83,-231.21 1116.32,-226.53 1115.48,-233.48"/>
</g>
<!-- Node30 -->
<g id="node30" class="node">
<title>Node30</title>
<g id="a_node30"><a xlink:href="class_photon_1_1_pun_1_1_pun_scene_settings.xhtml#ae608d6f93a6c16df6b3a76b689e6ce4d" target="_top" xlink:title=" ">
<polygon fill="white" stroke="black" points="332,-98.5 332,-128.5 487,-128.5 487,-98.5 332,-98.5"/>
<text text-anchor="start" x="340" y="-116.5" font-family="Helvetica,sans-Serif" font-size="10.00">Photon.Pun.PunSceneSettings.</text>
<text text-anchor="middle" x="409.5" y="-105.5" font-family="Helvetica,sans-Serif" font-size="10.00">SanitizeSceneSettings</text>
</a>
</g>
</g>
<!-- Node29&#45;&gt;Node30 -->
<g id="edge41" class="edge">
<title>Node29&#45;&gt;Node30</title>
<path fill="none" stroke="midnightblue" d="M296.22,-89.96C306.23,-92.06 316.68,-94.25 327.02,-96.42"/>
<polygon fill="midnightblue" stroke="midnightblue" points="326.36,-99.86 336.86,-98.48 327.79,-93.01 326.36,-99.86"/>
</g>
<!-- Node31 -->
<g id="node31" class="node">
<title>Node31</title>
<g id="a_node31"><a xlink:href="class_photon_1_1_pun_1_1_photon_editor.xhtml#ae12c66548a6dcbd0e1633c824cc64a67" target="_top" xlink:title=" ">
<polygon fill="white" stroke="black" points="344.5,-49.5 344.5,-79.5 474.5,-79.5 474.5,-49.5 344.5,-49.5"/>
<text text-anchor="start" x="352.5" y="-67.5" font-family="Helvetica,sans-Serif" font-size="10.00">Photon.Pun.PhotonEditor.</text>
<text text-anchor="middle" x="409.5" y="-56.5" font-family="Helvetica,sans-Serif" font-size="10.00">SaveSettings</text>
</a>
</g>
</g>
<!-- Node29&#45;&gt;Node31 -->
<g id="edge42" class="edge">
<title>Node29&#45;&gt;Node31</title>
<path fill="none" stroke="midnightblue" d="M296.22,-72.13C308.59,-71.29 321.63,-70.41 334.29,-69.55"/>
<polygon fill="midnightblue" stroke="midnightblue" points="334.59,-73.03 344.33,-68.86 334.11,-66.05 334.59,-73.03"/>
</g>
<!-- Node32 -->
<g id="node32" class="node">
<title>Node32</title>
<g id="a_node32"><a xlink:href="class_photon_1_1_pun_1_1_photon_editor.xhtml#a641429377591448262ecd32a3e1cc2e2" target="_top" xlink:title="Creates an Editor window, showing the cloud&#45;registration wizard for Photon (entry point to setup PUN)...">
<polygon fill="white" stroke="black" points="344.5,-0.5 344.5,-30.5 474.5,-30.5 474.5,-0.5 344.5,-0.5"/>
<text text-anchor="start" x="352.5" y="-18.5" font-family="Helvetica,sans-Serif" font-size="10.00">Photon.Pun.PhotonEditor.</text>
<text text-anchor="middle" x="409.5" y="-7.5" font-family="Helvetica,sans-Serif" font-size="10.00">ShowRegistrationWizard</text>
</a>
</g>
</g>
<!-- Node29&#45;&gt;Node32 -->
<g id="edge43" class="edge">
<title>Node29&#45;&gt;Node32</title>
<path fill="none" stroke="midnightblue" d="M271.26,-61.45C289.63,-54.55 311.85,-46.38 332,-39.5 337.57,-37.6 343.39,-35.67 349.22,-33.77"/>
<polygon fill="midnightblue" stroke="midnightblue" points="350.55,-37.02 359,-30.63 348.41,-30.36 350.55,-37.02"/>
</g>
<!-- Node33 -->
<g id="node33" class="node">
<title>Node33</title>
<g id="a_node33"><a xlink:href="class_photon_1_1_pun_1_1_photon_editor.xhtml#af5392967445d7a3fac22f7ea39a5d812" target="_top" xlink:title=" ">
<polygon fill="white" stroke="black" points="535.5,-0.5 535.5,-30.5 665.5,-30.5 665.5,-0.5 535.5,-0.5"/>
<text text-anchor="start" x="543.5" y="-18.5" font-family="Helvetica,sans-Serif" font-size="10.00">Photon.Pun.PhotonEditor.</text>
<text text-anchor="middle" x="600.5" y="-7.5" font-family="Helvetica,sans-Serif" font-size="10.00">PhotonEditor</text>
</a>
</g>
</g>
<!-- Node32&#45;&gt;Node33 -->
<g id="edge44" class="edge">
<title>Node32&#45;&gt;Node33</title>
<path fill="none" stroke="midnightblue" d="M474.75,-15.5C490.97,-15.5 508.51,-15.5 525.18,-15.5"/>
<polygon fill="midnightblue" stroke="midnightblue" points="525.43,-19 535.43,-15.5 525.43,-12 525.43,-19"/>
</g>
</g>
</svg>
        <g id="navigator" transform="translate(0 0)" fill="#404254">
                <rect fill="#f2f5e9" fill-opacity="0.5" stroke="#606060" stroke-width=".5" x="0" y="0" width="60" height="60"/>
                <use id="zoomplus" xlink:href="#zoomPlus" x="17" y="9" onmousedown="handleZoom(evt,'in')"/>
                <use id="zoomminus" xlink:href="#zoomMin" x="42" y="9" onmousedown="handleZoom(evt,'out')"/>
                <use id="reset" xlink:href="#resetDef" x="30" y="36" onmousedown="handleReset()"/>
                <g id="arrowUp" xlink:href="#dirArrow" transform="translate(30 24)" onmousedown="handlePan(0,-1)">
                  <use xlink:href="#rim" fill="#404040">
                        <set attributeName="fill" to="#808080" begin="arrowUp.mouseover" end="arrowUp.mouseout"/>
                  </use>
                  <path fill="none" stroke="white" stroke-width="1.5" d="M0,-3.0v7 M-2.5,-0.5L0,-3.0L2.5,-0.5"/>
                </g>
                <g id="arrowRight" xlink:href="#dirArrow" transform="rotate(90) translate(36 -43)" onmousedown="handlePan(1,0)">
                  <use xlink:href="#rim" fill="#404040">
                        <set attributeName="fill" to="#808080" begin="arrowRight.mouseover" end="arrowRight.mouseout"/>
                  </use>
                  <path fill="none" stroke="white" stroke-width="1.5" d="M0,-3.0v7 M-2.5,-0.5L0,-3.0L2.5,-0.5"/>
                </g>
                <g id="arrowDown" xlink:href="#dirArrow" transform="rotate(180) translate(-30 -48)" onmousedown="handlePan(0,1)">
                  <use xlink:href="#rim" fill="#404040">
                        <set attributeName="fill" to="#808080" begin="arrowDown.mouseover" end="arrowDown.mouseout"/>
                  </use>
                  <path fill="none" stroke="white" stroke-width="1.5" d="M0,-3.0v7 M-2.5,-0.5L0,-3.0L2.5,-0.5"/>
                </g>
                <g id="arrowLeft" xlink:href="#dirArrow" transform="rotate(270) translate(-36 17)" onmousedown="handlePan(-1,0)">
                  <use xlink:href="#rim" fill="#404040">
                        <set attributeName="fill" to="#808080" begin="arrowLeft.mouseover" end="arrowLeft.mouseout"/>
                  </use>
                  <path fill="none" stroke="white" stroke-width="1.5" d="M0,-3.0v7 M-2.5,-0.5L0,-3.0L2.5,-0.5"/>
                </g>
        </g>
        <svg viewBox="0 0 15 15" width="100%" height="30px" preserveAspectRatio="xMaxYMin meet">
         <g id="arrow_out" transform="scale(0.3 0.3)">
          <a xlink:href="class_photon_1_1_pun_1_1_photon_editor_af1f1cae280c6374bd45f8863ad1f30f8_cgraph_org.svg" target="_base">
           <rect id="button" ry="5" rx="5" y="6" x="6" height="38" width="38"
                fill="#f2f5e9" fill-opacity="0.5" stroke="#606060" stroke-width="1.0"/>
           <path id="arrow"
             d="M 11.500037,31.436501 C 11.940474,20.09759 22.043105,11.32322 32.158766,21.979434 L 37.068811,17.246167 C 37.068811,17.246167 37.088388,32 37.088388,32 L 22.160133,31.978069 C 22.160133,31.978069 26.997745,27.140456 26.997745,27.140456 C 18.528582,18.264221 13.291696,25.230495 11.500037,31.436501 z"
             style="fill:#404040;"/>
          </a>
         </g>
        </svg>
</svg>
