<?xml version="1.0" encoding="UTF-8" standalone="no"?>
<!DOCTYPE svg PUBLIC "-//W3C//DTD SVG 1.1//EN"
 "http://www.w3.org/Graphics/SVG/1.1/DTD/svg11.dtd">
<!-- Generated by graphviz version 2.47.3 (20210619.1520)
 -->
<!-- Title: Photon.Pun.UtilityScripts.PunTeams.UpdateTeams Pages: 1 -->
<svg width="355pt" height="186pt"
 viewBox="0.00 0.00 355.00 186.00" xmlns="http://www.w3.org/2000/svg" xmlns:xlink="http://www.w3.org/1999/xlink">
<g id="graph0" class="graph" transform="scale(1 1) rotate(0) translate(4 182)">
<title>Photon.Pun.UtilityScripts.PunTeams.UpdateTeams</title>
<polygon fill="white" stroke="transparent" points="-4,4 -4,-182 351,-182 351,4 -4,4"/>
<!-- Node1 -->
<g id="node1" class="node">
<title>Node1</title>
<g id="a_node1"><a xlink:title=" ">
<polygon fill="#bfbfbf" stroke="black" points="218,-73.5 218,-103.5 347,-103.5 347,-73.5 218,-73.5"/>
<text text-anchor="start" x="226" y="-91.5" font-family="Helvetica,sans-Serif" font-size="10.00">Photon.Pun.UtilityScripts.</text>
<text text-anchor="middle" x="282.5" y="-80.5" font-family="Helvetica,sans-Serif" font-size="10.00">PunTeams.UpdateTeams</text>
</a>
</g>
</g>
<!-- Node2 -->
<g id="node2" class="node">
<title>Node2</title>
<g id="a_node2"><a xlink:href="class_photon_1_1_pun_1_1_utility_scripts_1_1_pun_teams.xhtml#aa021f81f76f33bd08952591bdb4e97df" target="_top" xlink:title="Needed to update the team lists when joining a room.">
<polygon fill="white" stroke="black" points="25,-147.5 25,-177.5 157,-177.5 157,-147.5 25,-147.5"/>
<text text-anchor="start" x="33" y="-165.5" font-family="Helvetica,sans-Serif" font-size="10.00">Photon.Pun.UtilityScripts.</text>
<text text-anchor="middle" x="91" y="-154.5" font-family="Helvetica,sans-Serif" font-size="10.00">PunTeams.OnJoinedRoom</text>
</a>
</g>
</g>
<!-- Node1&#45;&gt;Node2 -->
<g id="edge1" class="edge">
<title>Node1&#45;&gt;Node2</title>
<path fill="none" stroke="midnightblue" d="M246.14,-108.5C227.48,-118.47 203.95,-130.16 182,-138.5 173.38,-141.77 164.14,-144.78 154.98,-147.47"/>
<polygon fill="midnightblue" stroke="midnightblue" points="248.02,-111.46 255.15,-103.61 244.69,-105.3 248.02,-111.46"/>
</g>
<!-- Node3 -->
<g id="node3" class="node">
<title>Node3</title>
<g id="a_node3"><a xlink:href="class_photon_1_1_pun_1_1_utility_scripts_1_1_pun_teams.xhtml#a8aad1481cdd77a7e77d57df860b8a871" target="_top" xlink:title="Called when a remote player entered the room.">
<polygon fill="white" stroke="black" points="8,-98.5 8,-128.5 174,-128.5 174,-98.5 8,-98.5"/>
<text text-anchor="start" x="16" y="-116.5" font-family="Helvetica,sans-Serif" font-size="10.00">Photon.Pun.UtilityScripts.</text>
<text text-anchor="middle" x="91" y="-105.5" font-family="Helvetica,sans-Serif" font-size="10.00">PunTeams.OnPlayerEnteredRoom</text>
</a>
</g>
</g>
<!-- Node1&#45;&gt;Node3 -->
<g id="edge2" class="edge">
<title>Node1&#45;&gt;Node3</title>
<path fill="none" stroke="midnightblue" d="M207.89,-98.21C196.89,-99.66 185.48,-101.17 174.31,-102.64"/>
<polygon fill="midnightblue" stroke="midnightblue" points="208.42,-101.67 217.87,-96.89 207.5,-94.73 208.42,-101.67"/>
</g>
<!-- Node4 -->
<g id="node4" class="node">
<title>Node4</title>
<g id="a_node4"><a xlink:href="class_photon_1_1_pun_1_1_utility_scripts_1_1_pun_teams.xhtml#a74fb1716898a7ad507a52261d221c4b4" target="_top" xlink:title="Called when a remote player left the room or became inactive.">
<polygon fill="white" stroke="black" points="17,-49.5 17,-79.5 165,-79.5 165,-49.5 17,-49.5"/>
<text text-anchor="start" x="25" y="-67.5" font-family="Helvetica,sans-Serif" font-size="10.00">Photon.Pun.UtilityScripts.</text>
<text text-anchor="middle" x="91" y="-56.5" font-family="Helvetica,sans-Serif" font-size="10.00">PunTeams.OnPlayerLeftRoom</text>
</a>
</g>
</g>
<!-- Node1&#45;&gt;Node4 -->
<g id="edge3" class="edge">
<title>Node1&#45;&gt;Node4</title>
<path fill="none" stroke="midnightblue" d="M207.83,-79.17C193.86,-77.4 179.24,-75.55 165.28,-73.78"/>
<polygon fill="midnightblue" stroke="midnightblue" points="207.51,-82.66 217.87,-80.44 208.39,-75.71 207.51,-82.66"/>
</g>
<!-- Node5 -->
<g id="node5" class="node">
<title>Node5</title>
<g id="a_node5"><a xlink:href="class_photon_1_1_pun_1_1_utility_scripts_1_1_pun_teams.xhtml#a6e6860435e540546b797ab7be76c5cec" target="_top" xlink:title="Refreshes the team lists.">
<polygon fill="white" stroke="black" points="0,-0.5 0,-30.5 182,-30.5 182,-0.5 0,-0.5"/>
<text text-anchor="start" x="8" y="-18.5" font-family="Helvetica,sans-Serif" font-size="10.00">Photon.Pun.UtilityScripts.</text>
<text text-anchor="middle" x="91" y="-7.5" font-family="Helvetica,sans-Serif" font-size="10.00">PunTeams.OnPlayerPropertiesUpdate</text>
</a>
</g>
</g>
<!-- Node1&#45;&gt;Node5 -->
<g id="edge4" class="edge">
<title>Node1&#45;&gt;Node5</title>
<path fill="none" stroke="midnightblue" d="M244.82,-68.86C226.33,-59.47 203.34,-48.54 182,-40.5 172.44,-36.9 162.13,-33.56 152.03,-30.56"/>
<polygon fill="midnightblue" stroke="midnightblue" points="243.29,-72.01 253.78,-73.47 246.49,-65.79 243.29,-72.01"/>
</g>
</g>
</svg>
