<?xml version="1.0" encoding="UTF-8" standalone="no"?>
<!DOCTYPE svg PUBLIC "-//W3C//DTD SVG 1.1//EN"
 "http://www.w3.org/Graphics/SVG/1.1/DTD/svg11.dtd">
<!-- Generated by graphviz version 2.47.3 (20210619.1520)
 -->
<!-- Title: Photon.Pun.Demo.Asteroids.LobbyMainPanel.CheckPlayersReady Pages: 1 -->
<svg width="423pt" height="307pt"
 viewBox="0.00 0.00 423.00 307.00" xmlns="http://www.w3.org/2000/svg" xmlns:xlink="http://www.w3.org/1999/xlink">
<g id="graph0" class="graph" transform="scale(1 1) rotate(0) translate(4 303)">
<title>Photon.Pun.Demo.Asteroids.LobbyMainPanel.CheckPlayersReady</title>
<polygon fill="white" stroke="transparent" points="-4,4 -4,-303 419,-303 419,4 -4,4"/>
<!-- Node1 -->
<g id="node1" class="node">
<title>Node1</title>
<g id="a_node1"><a xlink:title=" ">
<polygon fill="#bfbfbf" stroke="black" points="235,-134 235,-164 415,-164 415,-134 235,-134"/>
<text text-anchor="start" x="243" y="-152" font-family="Helvetica,sans-Serif" font-size="10.00">Photon.Pun.Demo.Asteroids.</text>
<text text-anchor="middle" x="325" y="-141" font-family="Helvetica,sans-Serif" font-size="10.00">LobbyMainPanel.CheckPlayersReady</text>
</a>
</g>
</g>
<!-- Node2 -->
<g id="node2" class="node">
<title>Node2</title>
<g id="a_node2"><a xlink:href="class_photon_1_1_pun_1_1_demo_1_1_asteroids_1_1_lobby_main_panel.xhtml#a962c43c0ab92ab8d52011a3a79fa0e32" target="_top" xlink:title=" ">
<polygon fill="white" stroke="black" points="6,-257.5 6,-298.5 193,-298.5 193,-257.5 6,-257.5"/>
<text text-anchor="start" x="14" y="-286.5" font-family="Helvetica,sans-Serif" font-size="10.00">Photon.Pun.Demo.Asteroids.</text>
<text text-anchor="start" x="14" y="-275.5" font-family="Helvetica,sans-Serif" font-size="10.00">LobbyMainPanel.LocalPlayerProperties</text>
<text text-anchor="middle" x="99.5" y="-264.5" font-family="Helvetica,sans-Serif" font-size="10.00">Updated</text>
</a>
</g>
</g>
<!-- Node1&#45;&gt;Node2 -->
<g id="edge1" class="edge">
<title>Node1&#45;&gt;Node2</title>
<path fill="none" stroke="midnightblue" d="M301.36,-171.31C277.65,-193.56 238.43,-227.33 199,-248 192.35,-251.49 185.23,-254.63 177.98,-257.46"/>
<polygon fill="midnightblue" stroke="midnightblue" points="303.96,-173.67 308.79,-164.24 299.13,-168.6 303.96,-173.67"/>
</g>
<!-- Node3 -->
<g id="node3" class="node">
<title>Node3</title>
<g id="a_node3"><a xlink:href="class_photon_1_1_pun_1_1_demo_1_1_asteroids_1_1_lobby_main_panel.xhtml#a7868b90be5cff299b2c03476c896cdbb" target="_top" xlink:title="Called when the LoadBalancingClient entered a room, no matter if this client created it or simply joi...">
<polygon fill="white" stroke="black" points="20.5,-208 20.5,-238 178.5,-238 178.5,-208 20.5,-208"/>
<text text-anchor="start" x="28.5" y="-226" font-family="Helvetica,sans-Serif" font-size="10.00">Photon.Pun.Demo.Asteroids.</text>
<text text-anchor="middle" x="99.5" y="-215" font-family="Helvetica,sans-Serif" font-size="10.00">LobbyMainPanel.OnJoinedRoom</text>
</a>
</g>
</g>
<!-- Node1&#45;&gt;Node3 -->
<g id="edge2" class="edge">
<title>Node1&#45;&gt;Node3</title>
<path fill="none" stroke="midnightblue" d="M280.8,-168.04C256.97,-178.09 226.68,-190.14 199,-199 188.94,-202.22 178.19,-205.25 167.62,-208"/>
<polygon fill="midnightblue" stroke="midnightblue" points="282.43,-171.15 290.25,-164.01 279.68,-164.71 282.43,-171.15"/>
</g>
<!-- Node4 -->
<g id="node4" class="node">
<title>Node4</title>
<g id="a_node4"><a xlink:href="class_photon_1_1_pun_1_1_demo_1_1_asteroids_1_1_lobby_main_panel.xhtml#ab5567b22d1b41fc35c6c821085102934" target="_top" xlink:title="Called after switching to a new MasterClient when the current one leaves.">
<polygon fill="white" stroke="black" points="0,-159 0,-189 199,-189 199,-159 0,-159"/>
<text text-anchor="start" x="8" y="-177" font-family="Helvetica,sans-Serif" font-size="10.00">Photon.Pun.Demo.Asteroids.</text>
<text text-anchor="middle" x="99.5" y="-166" font-family="Helvetica,sans-Serif" font-size="10.00">LobbyMainPanel.OnMasterClientSwitched</text>
</a>
</g>
</g>
<!-- Node1&#45;&gt;Node4 -->
<g id="edge3" class="edge">
<title>Node1&#45;&gt;Node4</title>
<path fill="none" stroke="midnightblue" d="M224.51,-160.13C216.1,-161.07 207.6,-162.02 199.2,-162.96"/>
<polygon fill="midnightblue" stroke="midnightblue" points="225.15,-163.58 234.7,-158.99 224.38,-156.62 225.15,-163.58"/>
</g>
<!-- Node5 -->
<g id="node5" class="node">
<title>Node5</title>
<g id="a_node5"><a xlink:href="class_photon_1_1_pun_1_1_demo_1_1_asteroids_1_1_lobby_main_panel.xhtml#ab17d09a4e7c7cee8f2c18a83bff20a03" target="_top" xlink:title="Called when a remote player entered the room.">
<polygon fill="white" stroke="black" points="4,-110 4,-140 195,-140 195,-110 4,-110"/>
<text text-anchor="start" x="12" y="-128" font-family="Helvetica,sans-Serif" font-size="10.00">Photon.Pun.Demo.Asteroids.</text>
<text text-anchor="middle" x="99.5" y="-117" font-family="Helvetica,sans-Serif" font-size="10.00">LobbyMainPanel.OnPlayerEnteredRoom</text>
</a>
</g>
</g>
<!-- Node1&#45;&gt;Node5 -->
<g id="edge4" class="edge">
<title>Node1&#45;&gt;Node5</title>
<path fill="none" stroke="midnightblue" d="M224.57,-138.32C214.79,-137.27 204.88,-136.21 195.15,-135.16"/>
<polygon fill="midnightblue" stroke="midnightblue" points="224.39,-141.82 234.7,-139.41 225.13,-134.86 224.39,-141.82"/>
</g>
<!-- Node6 -->
<g id="node6" class="node">
<title>Node6</title>
<g id="a_node6"><a xlink:href="class_photon_1_1_pun_1_1_demo_1_1_asteroids_1_1_lobby_main_panel.xhtml#a451633702327b9226dc7fbf01b5e4e4c" target="_top" xlink:title="Called when a remote player left the room or became inactive.">
<polygon fill="white" stroke="black" points="13,-61 13,-91 186,-91 186,-61 13,-61"/>
<text text-anchor="start" x="21" y="-79" font-family="Helvetica,sans-Serif" font-size="10.00">Photon.Pun.Demo.Asteroids.</text>
<text text-anchor="middle" x="99.5" y="-68" font-family="Helvetica,sans-Serif" font-size="10.00">LobbyMainPanel.OnPlayerLeftRoom</text>
</a>
</g>
</g>
<!-- Node1&#45;&gt;Node6 -->
<g id="edge5" class="edge">
<title>Node1&#45;&gt;Node6</title>
<path fill="none" stroke="midnightblue" d="M278.91,-130.21C255.34,-120.76 225.87,-109.54 199,-101 187.9,-97.47 175.98,-94.11 164.4,-91.05"/>
<polygon fill="midnightblue" stroke="midnightblue" points="277.71,-133.5 288.3,-134 280.34,-127.01 277.71,-133.5"/>
</g>
<!-- Node7 -->
<g id="node7" class="node">
<title>Node7</title>
<g id="a_node7"><a xlink:href="class_photon_1_1_pun_1_1_demo_1_1_asteroids_1_1_lobby_main_panel.xhtml#ae0a20628fce898b7ffb7af13c9a51189" target="_top" xlink:title="Called when custom player&#45;properties are changed.">
<polygon fill="white" stroke="black" points="11.5,-0.5 11.5,-41.5 187.5,-41.5 187.5,-0.5 11.5,-0.5"/>
<text text-anchor="start" x="19.5" y="-29.5" font-family="Helvetica,sans-Serif" font-size="10.00">Photon.Pun.Demo.Asteroids.</text>
<text text-anchor="start" x="19.5" y="-18.5" font-family="Helvetica,sans-Serif" font-size="10.00">LobbyMainPanel.OnPlayerProperties</text>
<text text-anchor="middle" x="99.5" y="-7.5" font-family="Helvetica,sans-Serif" font-size="10.00">Update</text>
</a>
</g>
</g>
<!-- Node1&#45;&gt;Node7 -->
<g id="edge6" class="edge">
<title>Node1&#45;&gt;Node7</title>
<path fill="none" stroke="midnightblue" d="M300.84,-126.88C276.99,-105.15 237.92,-72.38 199,-52 191.62,-48.13 183.66,-44.65 175.59,-41.53"/>
<polygon fill="midnightblue" stroke="midnightblue" points="298.6,-129.58 308.32,-133.79 303.35,-124.43 298.6,-129.58"/>
</g>
</g>
</svg>
