<?xml version="1.0" encoding="UTF-8" standalone="no"?>
<!DOCTYPE svg PUBLIC "-//W3C//DTD SVG 1.1//EN"
 "http://www.w3.org/Graphics/SVG/1.1/DTD/svg11.dtd">
<!-- Generated by graphviz version 2.47.3 (20210619.1520)
 -->
<!-- Title: Photon.Pun.PhotonNetwork.OpRemoveCompleteCacheOfPlayer Pages: 1 -->
<svg width="1318pt" height="149pt"
 viewBox="0.00 0.00 1318.00 148.50" xmlns="http://www.w3.org/2000/svg" xmlns:xlink="http://www.w3.org/1999/xlink">
<g id="graph0" class="graph" transform="scale(1 1) rotate(0) translate(4 144.5)">
<title>Photon.Pun.PhotonNetwork.OpRemoveCompleteCacheOfPlayer</title>
<polygon fill="white" stroke="transparent" points="-4,4 -4,-144.5 1314,-144.5 1314,4 -4,4"/>
<!-- Node1 -->
<g id="node1" class="node">
<title>Node1</title>
<g id="a_node1"><a xlink:title="Instead removing RPCs or Instantiates, this removed everything cached by the actor.">
<polygon fill="#bfbfbf" stroke="black" points="0,-24.5 0,-54.5 170,-54.5 170,-24.5 0,-24.5"/>
<text text-anchor="start" x="8" y="-42.5" font-family="Helvetica,sans-Serif" font-size="10.00">Photon.Pun.PhotonNetwork.</text>
<text text-anchor="middle" x="85" y="-31.5" font-family="Helvetica,sans-Serif" font-size="10.00">OpRemoveCompleteCacheOfPlayer</text>
</a>
</g>
</g>
<!-- Node2 -->
<g id="node2" class="node">
<title>Node2</title>
<g id="a_node2"><a xlink:href="class_photon_1_1_pun_1_1_photon_network.xhtml#afbfe822d24b062457e37c533b8ff45be" target="_top" xlink:title="Sends PUN&#45;specific events to the server, unless in offlineMode.">
<polygon fill="white" stroke="black" points="206,-24.5 206,-54.5 346,-54.5 346,-24.5 206,-24.5"/>
<text text-anchor="start" x="214" y="-42.5" font-family="Helvetica,sans-Serif" font-size="10.00">Photon.Pun.PhotonNetwork.</text>
<text text-anchor="middle" x="276" y="-31.5" font-family="Helvetica,sans-Serif" font-size="10.00">RaiseEventInternal</text>
</a>
</g>
</g>
<!-- Node1&#45;&gt;Node2 -->
<g id="edge1" class="edge">
<title>Node1&#45;&gt;Node2</title>
<path fill="none" stroke="midnightblue" d="M170.27,-39.5C178.74,-39.5 187.32,-39.5 195.73,-39.5"/>
<polygon fill="midnightblue" stroke="midnightblue" points="195.9,-43 205.9,-39.5 195.9,-36 195.9,-43"/>
</g>
<!-- Node3 -->
<g id="node3" class="node">
<title>Node3</title>
<g id="a_node3"><a xlink:href="class_photon_1_1_realtime_1_1_load_balancing_client.xhtml#a620e340e8f78a51871d94d5868ffdb4c" target="_top" xlink:title="Send an event with custom code/type and any content to the other players in the same room.">
<polygon fill="white" stroke="black" points="382,-24.5 382,-54.5 537,-54.5 537,-24.5 382,-24.5"/>
<text text-anchor="start" x="390" y="-42.5" font-family="Helvetica,sans-Serif" font-size="10.00">Photon.Realtime.LoadBalancing</text>
<text text-anchor="middle" x="459.5" y="-31.5" font-family="Helvetica,sans-Serif" font-size="10.00">Client.OpRaiseEvent</text>
</a>
</g>
</g>
<!-- Node2&#45;&gt;Node3 -->
<g id="edge2" class="edge">
<title>Node2&#45;&gt;Node3</title>
<path fill="none" stroke="midnightblue" d="M346.14,-39.5C354.56,-39.5 363.25,-39.5 371.89,-39.5"/>
<polygon fill="midnightblue" stroke="midnightblue" points="371.98,-43 381.98,-39.5 371.98,-36 371.98,-43"/>
</g>
<!-- Node4 -->
<g id="node4" class="node">
<title>Node4</title>
<g id="a_node4"><a xlink:href="class_photon_1_1_realtime_1_1_load_balancing_client.xhtml#aa12ff3efc3aa91e5ceca9b3a40f7bd79" target="_top" xlink:title=" ">
<polygon fill="white" stroke="black" points="573,-49.5 573,-79.5 728,-79.5 728,-49.5 573,-49.5"/>
<text text-anchor="start" x="581" y="-67.5" font-family="Helvetica,sans-Serif" font-size="10.00">Photon.Realtime.LoadBalancing</text>
<text text-anchor="middle" x="650.5" y="-56.5" font-family="Helvetica,sans-Serif" font-size="10.00">Client.CheckIfOpCanBeSent</text>
</a>
</g>
</g>
<!-- Node3&#45;&gt;Node4 -->
<g id="edge3" class="edge">
<title>Node3&#45;&gt;Node4</title>
<path fill="none" stroke="midnightblue" d="M537.1,-49.63C545.56,-50.75 554.22,-51.9 562.79,-53.03"/>
<polygon fill="midnightblue" stroke="midnightblue" points="562.42,-56.51 572.79,-54.35 563.34,-49.57 562.42,-56.51"/>
</g>
<!-- Node10 -->
<g id="node10" class="node">
<title>Node10</title>
<g id="a_node10"><a xlink:href="class_photon_1_1_realtime_1_1_load_balancing_peer.xhtml#af6d68f09d3f683f8d709c3aa4dfe03cc" target="_top" xlink:title="Send an event with custom code/type and any content to the other players in the same room.">
<polygon fill="white" stroke="black" points="573,-0.5 573,-30.5 728,-30.5 728,-0.5 573,-0.5"/>
<text text-anchor="start" x="581" y="-18.5" font-family="Helvetica,sans-Serif" font-size="10.00">Photon.Realtime.LoadBalancing</text>
<text text-anchor="middle" x="650.5" y="-7.5" font-family="Helvetica,sans-Serif" font-size="10.00">Peer.OpRaiseEvent</text>
</a>
</g>
</g>
<!-- Node3&#45;&gt;Node10 -->
<g id="edge9" class="edge">
<title>Node3&#45;&gt;Node10</title>
<path fill="none" stroke="midnightblue" d="M537.1,-29.77C545.56,-28.7 554.22,-27.6 562.79,-26.51"/>
<polygon fill="midnightblue" stroke="midnightblue" points="563.31,-29.97 572.79,-25.24 562.43,-23.03 563.31,-29.97"/>
</g>
<!-- Node5 -->
<g id="node5" class="node">
<title>Node5</title>
<g id="a_node5"><a xlink:href="class_photon_1_1_realtime_1_1_load_balancing_client.xhtml#ae052ab450db16efdd31985d56f76f0ab" target="_top" xlink:title=" ">
<polygon fill="white" stroke="black" points="764,-99 764,-140 928,-140 928,-99 764,-99"/>
<text text-anchor="start" x="772" y="-128" font-family="Helvetica,sans-Serif" font-size="10.00">Photon.Realtime.LoadBalancing</text>
<text text-anchor="start" x="772" y="-117" font-family="Helvetica,sans-Serif" font-size="10.00">Client.CheckIfClientIsReadyToCall</text>
<text text-anchor="middle" x="846" y="-106" font-family="Helvetica,sans-Serif" font-size="10.00">Operation</text>
</a>
</g>
</g>
<!-- Node4&#45;&gt;Node5 -->
<g id="edge4" class="edge">
<title>Node4&#45;&gt;Node5</title>
<path fill="none" stroke="midnightblue" d="M704.37,-79.53C722.45,-84.67 743.12,-90.54 762.95,-96.18"/>
<polygon fill="midnightblue" stroke="midnightblue" points="762.03,-99.55 772.6,-98.92 763.94,-92.82 762.03,-99.55"/>
</g>
<!-- Node6 -->
<g id="node6" class="node">
<title>Node6</title>
<g id="a_node6"><a xlink:href="class_photon_1_1_realtime_1_1_load_balancing_client.xhtml#aa01a53cac6918dab3ecb99669b276f01" target="_top" xlink:title=" ">
<polygon fill="white" stroke="black" points="764.5,-49.5 764.5,-79.5 927.5,-79.5 927.5,-49.5 764.5,-49.5"/>
<text text-anchor="start" x="772.5" y="-67.5" font-family="Helvetica,sans-Serif" font-size="10.00">Photon.Realtime.LoadBalancing</text>
<text text-anchor="middle" x="846" y="-56.5" font-family="Helvetica,sans-Serif" font-size="10.00">Client.CheckIfOpAllowedOnServer</text>
</a>
</g>
</g>
<!-- Node4&#45;&gt;Node6 -->
<g id="edge5" class="edge">
<title>Node4&#45;&gt;Node6</title>
<path fill="none" stroke="midnightblue" d="M728.25,-64.5C736.75,-64.5 745.46,-64.5 754.1,-64.5"/>
<polygon fill="midnightblue" stroke="midnightblue" points="754.21,-68 764.21,-64.5 754.21,-61 754.21,-68"/>
</g>
<!-- Node7 -->
<g id="node7" class="node">
<title>Node7</title>
<g id="a_node7"><a xlink:href="class_photon_1_1_realtime_1_1_load_balancing_client.xhtml#a69dd43d4c7211b5b83cd54d0ebcf79e7" target="_top" xlink:title="Debug output of low level api (and this client).">
<polygon fill="white" stroke="black" points="768.5,-0.5 768.5,-30.5 923.5,-30.5 923.5,-0.5 768.5,-0.5"/>
<text text-anchor="start" x="776.5" y="-18.5" font-family="Helvetica,sans-Serif" font-size="10.00">Photon.Realtime.LoadBalancing</text>
<text text-anchor="middle" x="846" y="-7.5" font-family="Helvetica,sans-Serif" font-size="10.00">Client.DebugReturn</text>
</a>
</g>
</g>
<!-- Node4&#45;&gt;Node7 -->
<g id="edge6" class="edge">
<title>Node4&#45;&gt;Node7</title>
<path fill="none" stroke="midnightblue" d="M710.87,-49.47C731.4,-44.27 754.57,-38.4 775.81,-33.02"/>
<polygon fill="midnightblue" stroke="midnightblue" points="776.91,-36.35 785.74,-30.51 775.19,-29.57 776.91,-36.35"/>
</g>
<!-- Node8 -->
<g id="node8" class="node">
<title>Node8</title>
<g id="a_node8"><a xlink:href="class_photon_1_1_realtime_1_1_load_balancing_peer.xhtml#a7f48b5f0c44ef0c67ef32f147ff87246" target="_top" xlink:title="Creates a Peer with specified connection protocol.">
<polygon fill="white" stroke="black" points="964,-0.5 964,-30.5 1119,-30.5 1119,-0.5 964,-0.5"/>
<text text-anchor="start" x="972" y="-18.5" font-family="Helvetica,sans-Serif" font-size="10.00">Photon.Realtime.LoadBalancing</text>
<text text-anchor="middle" x="1041.5" y="-7.5" font-family="Helvetica,sans-Serif" font-size="10.00">Peer.LoadBalancingPeer</text>
</a>
</g>
</g>
<!-- Node7&#45;&gt;Node8 -->
<g id="edge7" class="edge">
<title>Node7&#45;&gt;Node8</title>
<path fill="none" stroke="midnightblue" d="M923.75,-15.5C933.54,-15.5 943.62,-15.5 953.55,-15.5"/>
<polygon fill="midnightblue" stroke="midnightblue" points="953.84,-19 963.84,-15.5 953.84,-12 953.84,-19"/>
</g>
<!-- Node9 -->
<g id="node9" class="node">
<title>Node9</title>
<g id="a_node9"><a xlink:href="class_photon_1_1_realtime_1_1_load_balancing_peer.xhtml#affaff7e1fdffe86b25156ffac5e738c9" target="_top" xlink:title=" ">
<polygon fill="white" stroke="black" points="1155,-0.5 1155,-30.5 1310,-30.5 1310,-0.5 1155,-0.5"/>
<text text-anchor="start" x="1163" y="-18.5" font-family="Helvetica,sans-Serif" font-size="10.00">Photon.Realtime.LoadBalancing</text>
<text text-anchor="middle" x="1232.5" y="-7.5" font-family="Helvetica,sans-Serif" font-size="10.00">Peer.ConfigUnitySockets</text>
</a>
</g>
</g>
<!-- Node8&#45;&gt;Node9 -->
<g id="edge8" class="edge">
<title>Node8&#45;&gt;Node9</title>
<path fill="none" stroke="midnightblue" d="M1119.1,-15.5C1127.56,-15.5 1136.22,-15.5 1144.79,-15.5"/>
<polygon fill="midnightblue" stroke="midnightblue" points="1144.79,-19 1154.79,-15.5 1144.79,-12 1144.79,-19"/>
</g>
</g>
</svg>
