<?xml version="1.0" encoding="UTF-8" standalone="no"?>
<!DOCTYPE svg PUBLIC "-//W3C//DTD SVG 1.1//EN"
 "http://www.w3.org/Graphics/SVG/1.1/DTD/svg11.dtd">
<!-- Generated by graphviz version 2.47.3 (20210619.1520)
 -->
<!-- Title: Photon.Pun.UtilityScripts.OnPointerOverTooltip Pages: 1 -->
<svg width="334pt" height="95pt"
 viewBox="0.00 0.00 333.50 95.00" xmlns="http://www.w3.org/2000/svg" xmlns:xlink="http://www.w3.org/1999/xlink">
<g id="graph0" class="graph" transform="scale(1 1) rotate(0) translate(4 91)">
<title>Photon.Pun.UtilityScripts.OnPointerOverTooltip</title>
<polygon fill="white" stroke="transparent" points="-4,4 -4,-91 329.5,-91 329.5,4 -4,4"/>
<!-- Node1 -->
<g id="node1" class="node">
<title>Node1</title>
<g id="a_node1"><a xlink:title="Set focus to a given photonView when pointed is over">
<polygon fill="#bfbfbf" stroke="black" points="90,-0.5 90,-30.5 219,-30.5 219,-0.5 90,-0.5"/>
<text text-anchor="start" x="98" y="-18.5" font-family="Helvetica,sans-Serif" font-size="10.00">Photon.Pun.UtilityScripts.</text>
<text text-anchor="middle" x="154.5" y="-7.5" font-family="Helvetica,sans-Serif" font-size="10.00">OnPointerOverTooltip</text>
</a>
</g>
</g>
<!-- Node2 -->
<g id="node2" class="node">
<title>Node2</title>
<g id="a_node2"><a xlink:title=" ">
<polygon fill="white" stroke="#bfbfbf" points="0,-67.5 0,-86.5 83,-86.5 83,-67.5 0,-67.5"/>
<text text-anchor="middle" x="41.5" y="-74.5" font-family="Helvetica,sans-Serif" font-size="10.00">MonoBehaviour</text>
</a>
</g>
</g>
<!-- Node2&#45;&gt;Node1 -->
<g id="edge1" class="edge">
<title>Node2&#45;&gt;Node1</title>
<path fill="none" stroke="midnightblue" d="M66.56,-62.81C84.75,-53.23 109.32,-40.29 127.87,-30.52"/>
<polygon fill="midnightblue" stroke="midnightblue" points="64.91,-59.72 57.69,-67.48 68.17,-65.91 64.91,-59.72"/>
</g>
<!-- Node3 -->
<g id="node3" class="node">
<title>Node3</title>
<g id="a_node3"><a xlink:title=" ">
<polygon fill="white" stroke="#bfbfbf" points="101.5,-67.5 101.5,-86.5 207.5,-86.5 207.5,-67.5 101.5,-67.5"/>
<text text-anchor="middle" x="154.5" y="-74.5" font-family="Helvetica,sans-Serif" font-size="10.00">IPointerEnterHandler</text>
</a>
</g>
</g>
<!-- Node3&#45;&gt;Node1 -->
<g id="edge2" class="edge">
<title>Node3&#45;&gt;Node1</title>
<path fill="none" stroke="midnightblue" d="M154.5,-57.23C154.5,-48.59 154.5,-38.5 154.5,-30.52"/>
<polygon fill="midnightblue" stroke="midnightblue" points="151,-57.48 154.5,-67.48 158,-57.48 151,-57.48"/>
</g>
<!-- Node4 -->
<g id="node4" class="node">
<title>Node4</title>
<g id="a_node4"><a xlink:title=" ">
<polygon fill="white" stroke="#bfbfbf" points="225.5,-67.5 225.5,-86.5 325.5,-86.5 325.5,-67.5 225.5,-67.5"/>
<text text-anchor="middle" x="275.5" y="-74.5" font-family="Helvetica,sans-Serif" font-size="10.00">IPointerExitHandler</text>
</a>
</g>
</g>
<!-- Node4&#45;&gt;Node1 -->
<g id="edge3" class="edge">
<title>Node4&#45;&gt;Node1</title>
<path fill="none" stroke="midnightblue" d="M248.94,-62.94C229.43,-53.35 202.97,-40.33 183.02,-30.52"/>
<polygon fill="midnightblue" stroke="midnightblue" points="247.65,-66.2 258.16,-67.48 250.73,-59.92 247.65,-66.2"/>
</g>
</g>
</svg>
