<?xml version="1.0" encoding="UTF-8" standalone="no"?>
<!DOCTYPE svg PUBLIC "-//W3C//DTD SVG 1.1//EN"
 "http://www.w3.org/Graphics/SVG/1.1/DTD/svg11.dtd">
<!-- Generated by graphviz version 2.47.3 (20210619.1520)
 -->
<!-- Title: Photon.Pun.PhotonNetwork.AllocateSceneViewID Pages: 1 -->
<svg width="672pt" height="61pt"
 viewBox="0.00 0.00 672.00 61.00" xmlns="http://www.w3.org/2000/svg" xmlns:xlink="http://www.w3.org/1999/xlink">
<g id="graph0" class="graph" transform="scale(1 1) rotate(0) translate(4 57)">
<title>Photon.Pun.PhotonNetwork.AllocateSceneViewID</title>
<polygon fill="white" stroke="transparent" points="-4,4 -4,-57 668,-57 668,4 -4,4"/>
<!-- Node1 -->
<g id="node1" class="node">
<title>Node1</title>
<g id="a_node1"><a xlink:title=" ">
<polygon fill="#bfbfbf" stroke="black" points="0,-0.5 0,-30.5 140,-30.5 140,-0.5 0,-0.5"/>
<text text-anchor="start" x="8" y="-18.5" font-family="Helvetica,sans-Serif" font-size="10.00">Photon.Pun.PhotonNetwork.</text>
<text text-anchor="middle" x="70" y="-7.5" font-family="Helvetica,sans-Serif" font-size="10.00">AllocateSceneViewID</text>
</a>
</g>
</g>
<!-- Node2 -->
<g id="node2" class="node">
<title>Node2</title>
<g id="a_node2"><a xlink:href="class_photon_1_1_pun_1_1_photon_network.xhtml#a8193e279f3ca157cbadeff44e1568a8b" target="_top" xlink:title="Enables the Master Client to allocate a viewID for room objects.">
<polygon fill="white" stroke="black" points="176,-0.5 176,-30.5 316,-30.5 316,-0.5 176,-0.5"/>
<text text-anchor="start" x="184" y="-18.5" font-family="Helvetica,sans-Serif" font-size="10.00">Photon.Pun.PhotonNetwork.</text>
<text text-anchor="middle" x="246" y="-7.5" font-family="Helvetica,sans-Serif" font-size="10.00">AllocateRoomViewID</text>
</a>
</g>
</g>
<!-- Node1&#45;&gt;Node2 -->
<g id="edge1" class="edge">
<title>Node1&#45;&gt;Node2</title>
<path fill="none" stroke="midnightblue" d="M140.02,-15.5C148.48,-15.5 157.17,-15.5 165.76,-15.5"/>
<polygon fill="midnightblue" stroke="midnightblue" points="165.78,-19 175.78,-15.5 165.78,-12 165.78,-19"/>
</g>
<!-- Node3 -->
<g id="node3" class="node">
<title>Node3</title>
<g id="a_node3"><a xlink:href="class_photon_1_1_pun_1_1_photon_network.xhtml#ac9f5c2c968dc23f337092fedff586132" target="_top" xlink:title="Allocates a viewID for the current/local player.">
<polygon fill="white" stroke="black" points="352,-22.5 352,-52.5 492,-52.5 492,-22.5 352,-22.5"/>
<text text-anchor="start" x="360" y="-40.5" font-family="Helvetica,sans-Serif" font-size="10.00">Photon.Pun.PhotonNetwork.</text>
<text text-anchor="middle" x="422" y="-29.5" font-family="Helvetica,sans-Serif" font-size="10.00">AllocateViewID</text>
</a>
</g>
</g>
<!-- Node2&#45;&gt;Node3 -->
<g id="edge2" class="edge">
<title>Node2&#45;&gt;Node3</title>
<path fill="none" stroke="midnightblue" d="M316.02,-24.23C324.48,-25.3 333.17,-26.39 341.76,-27.48"/>
<polygon fill="midnightblue" stroke="midnightblue" points="341.42,-30.97 351.78,-28.75 342.3,-24.02 341.42,-30.97"/>
</g>
<!-- Node4 -->
<g id="node4" class="node">
<title>Node4</title>
<g id="a_node4"><a xlink:href="class_photon_1_1_pun_1_1_photon_view.xhtml#ae0793a8e08fd1b0954b4b391c6b6137b" target="_top" xlink:title=" ">
<polygon fill="white" stroke="black" points="528,-0.5 528,-30.5 664,-30.5 664,-0.5 528,-0.5"/>
<text text-anchor="start" x="536" y="-18.5" font-family="Helvetica,sans-Serif" font-size="10.00">Photon.Pun.PhotonView.To</text>
<text text-anchor="middle" x="596" y="-7.5" font-family="Helvetica,sans-Serif" font-size="10.00">String</text>
</a>
</g>
</g>
<!-- Node2&#45;&gt;Node4 -->
<g id="edge4" class="edge">
<title>Node2&#45;&gt;Node4</title>
<path fill="none" stroke="midnightblue" d="M316.19,-14C328.13,-13.79 340.42,-13.61 352,-13.5 414.22,-12.91 429.78,-12.9 492,-13.5 500.36,-13.58 509.09,-13.7 517.79,-13.84"/>
<polygon fill="midnightblue" stroke="midnightblue" points="517.9,-17.34 527.96,-14.01 518.02,-10.34 517.9,-17.34"/>
</g>
<!-- Node3&#45;&gt;Node4 -->
<g id="edge3" class="edge">
<title>Node3&#45;&gt;Node4</title>
<path fill="none" stroke="midnightblue" d="M492.46,-28.62C500.75,-27.56 509.25,-26.47 517.63,-25.4"/>
<polygon fill="midnightblue" stroke="midnightblue" points="518.31,-28.84 527.79,-24.1 517.43,-21.89 518.31,-28.84"/>
</g>
</g>
</svg>
