<?xml version="1.0" encoding="UTF-8" standalone="no"?>
<!DOCTYPE svg PUBLIC "-//W3C//DTD SVG 1.1//EN"
 "http://www.w3.org/Graphics/SVG/1.1/DTD/svg11.dtd">
<!-- Generated by graphviz version 2.47.3 (20210619.1520)
 -->
<!-- Title: UnityStandardAssets.Characters.ThirdPerson.PunDemos.ThirdPersonUserControl.FixedUpdate Pages: 1 -->
<svg width="735pt" height="410pt"
 viewBox="0.00 0.00 735.00 410.00" xmlns="http://www.w3.org/2000/svg" xmlns:xlink="http://www.w3.org/1999/xlink">
<g id="graph0" class="graph" transform="scale(1 1) rotate(0) translate(4 406)">
<title>UnityStandardAssets.Characters.ThirdPerson.PunDemos.ThirdPersonUserControl.FixedUpdate</title>
<polygon fill="white" stroke="transparent" points="-4,4 -4,-406 731,-406 731,4 -4,4"/>
<!-- Node1 -->
<g id="node1" class="node">
<title>Node1</title>
<g id="a_node1"><a xlink:title=" ">
<polygon fill="#bfbfbf" stroke="black" points="0,-180.5 0,-221.5 194,-221.5 194,-180.5 0,-180.5"/>
<text text-anchor="start" x="8" y="-209.5" font-family="Helvetica,sans-Serif" font-size="10.00">UnityStandardAssets.Characters.</text>
<text text-anchor="start" x="8" y="-198.5" font-family="Helvetica,sans-Serif" font-size="10.00">ThirdPerson.PunDemos.ThirdPersonUser</text>
<text text-anchor="middle" x="97" y="-187.5" font-family="Helvetica,sans-Serif" font-size="10.00">Control.FixedUpdate</text>
</a>
</g>
</g>
<!-- Node2 -->
<g id="node2" class="node">
<title>Node2</title>
<g id="a_node2"><a xlink:href="class_unity_standard_assets_1_1_characters_1_1_third_person_1_1_pun_demos_1_1_third_person_character.xhtml#aa79d38e14b9c64856678263f09b2ea5a" target="_top" xlink:title=" ">
<polygon fill="white" stroke="black" points="230,-186 230,-216 472,-216 472,-186 230,-186"/>
<text text-anchor="start" x="238" y="-204" font-family="Helvetica,sans-Serif" font-size="10.00">UnityStandardAssets.Characters.</text>
<text text-anchor="middle" x="351" y="-193" font-family="Helvetica,sans-Serif" font-size="10.00">ThirdPerson.PunDemos.ThirdPersonCharacter.Move</text>
</a>
</g>
</g>
<!-- Node1&#45;&gt;Node2 -->
<g id="edge1" class="edge">
<title>Node1&#45;&gt;Node2</title>
<path fill="none" stroke="midnightblue" d="M194.35,-201C202.55,-201 210.92,-201 219.33,-201"/>
<polygon fill="midnightblue" stroke="midnightblue" points="219.58,-204.5 229.58,-201 219.58,-197.5 219.58,-204.5"/>
</g>
<!-- Node3 -->
<g id="node3" class="node">
<title>Node3</title>
<g id="a_node3"><a xlink:href="class_unity_standard_assets_1_1_characters_1_1_third_person_1_1_pun_demos_1_1_third_person_character.xhtml#ac35c03b2db0b899dc9faef179252c77b" target="_top" xlink:title=" ">
<polygon fill="white" stroke="black" points="508,-360.5 508,-401.5 727,-401.5 727,-360.5 508,-360.5"/>
<text text-anchor="start" x="516" y="-389.5" font-family="Helvetica,sans-Serif" font-size="10.00">UnityStandardAssets.Characters.</text>
<text text-anchor="start" x="516" y="-378.5" font-family="Helvetica,sans-Serif" font-size="10.00">ThirdPerson.PunDemos.ThirdPersonCharacter.</text>
<text text-anchor="middle" x="617.5" y="-367.5" font-family="Helvetica,sans-Serif" font-size="10.00">ApplyExtraTurnRotation</text>
</a>
</g>
</g>
<!-- Node2&#45;&gt;Node3 -->
<g id="edge2" class="edge">
<title>Node2&#45;&gt;Node3</title>
<path fill="none" stroke="midnightblue" d="M363.51,-216.31C387.15,-246.69 444.34,-314.74 508,-351 511.29,-352.88 514.71,-354.64 518.21,-356.3"/>
<polygon fill="midnightblue" stroke="midnightblue" points="517.1,-359.63 527.66,-360.44 519.91,-353.22 517.1,-359.63"/>
</g>
<!-- Node4 -->
<g id="node4" class="node">
<title>Node4</title>
<g id="a_node4"><a xlink:href="class_unity_standard_assets_1_1_characters_1_1_third_person_1_1_pun_demos_1_1_third_person_character.xhtml#a6acfb90a9bb52d7df84e24e04e0adaf0" target="_top" xlink:title=" ">
<polygon fill="white" stroke="black" points="508,-300.5 508,-341.5 727,-341.5 727,-300.5 508,-300.5"/>
<text text-anchor="start" x="516" y="-329.5" font-family="Helvetica,sans-Serif" font-size="10.00">UnityStandardAssets.Characters.</text>
<text text-anchor="start" x="516" y="-318.5" font-family="Helvetica,sans-Serif" font-size="10.00">ThirdPerson.PunDemos.ThirdPersonCharacter.</text>
<text text-anchor="middle" x="617.5" y="-307.5" font-family="Helvetica,sans-Serif" font-size="10.00">CheckGroundStatus</text>
</a>
</g>
</g>
<!-- Node2&#45;&gt;Node4 -->
<g id="edge3" class="edge">
<title>Node2&#45;&gt;Node4</title>
<path fill="none" stroke="midnightblue" d="M374.06,-216.15C403.47,-235.77 457.67,-269.93 508,-291 513.13,-293.15 518.45,-295.19 523.87,-297.12"/>
<polygon fill="midnightblue" stroke="midnightblue" points="523.11,-300.55 533.7,-300.47 525.37,-293.93 523.11,-300.55"/>
</g>
<!-- Node5 -->
<g id="node5" class="node">
<title>Node5</title>
<g id="a_node5"><a xlink:href="class_unity_standard_assets_1_1_characters_1_1_third_person_1_1_pun_demos_1_1_third_person_character.xhtml#adfa21b3198ab19663f591761cc915222" target="_top" xlink:title=" ">
<polygon fill="white" stroke="black" points="508,-240.5 508,-281.5 727,-281.5 727,-240.5 508,-240.5"/>
<text text-anchor="start" x="516" y="-269.5" font-family="Helvetica,sans-Serif" font-size="10.00">UnityStandardAssets.Characters.</text>
<text text-anchor="start" x="516" y="-258.5" font-family="Helvetica,sans-Serif" font-size="10.00">ThirdPerson.PunDemos.ThirdPersonCharacter.</text>
<text text-anchor="middle" x="617.5" y="-247.5" font-family="Helvetica,sans-Serif" font-size="10.00">HandleAirborneMovement</text>
</a>
</g>
</g>
<!-- Node2&#45;&gt;Node5 -->
<g id="edge4" class="edge">
<title>Node2&#45;&gt;Node5</title>
<path fill="none" stroke="midnightblue" d="M418.4,-216.06C447.94,-222.76 483.37,-230.8 516.04,-238.21"/>
<polygon fill="midnightblue" stroke="midnightblue" points="515.55,-241.69 526.08,-240.49 517.1,-234.86 515.55,-241.69"/>
</g>
<!-- Node6 -->
<g id="node6" class="node">
<title>Node6</title>
<g id="a_node6"><a xlink:href="class_unity_standard_assets_1_1_characters_1_1_third_person_1_1_pun_demos_1_1_third_person_character.xhtml#a07c3f64de3dba400c6e0c667267bd096" target="_top" xlink:title=" ">
<polygon fill="white" stroke="black" points="508,-180.5 508,-221.5 727,-221.5 727,-180.5 508,-180.5"/>
<text text-anchor="start" x="516" y="-209.5" font-family="Helvetica,sans-Serif" font-size="10.00">UnityStandardAssets.Characters.</text>
<text text-anchor="start" x="516" y="-198.5" font-family="Helvetica,sans-Serif" font-size="10.00">ThirdPerson.PunDemos.ThirdPersonCharacter.</text>
<text text-anchor="middle" x="617.5" y="-187.5" font-family="Helvetica,sans-Serif" font-size="10.00">HandleGroundedMovement</text>
</a>
</g>
</g>
<!-- Node2&#45;&gt;Node6 -->
<g id="edge5" class="edge">
<title>Node2&#45;&gt;Node6</title>
<path fill="none" stroke="midnightblue" d="M472.25,-201C480.69,-201 489.2,-201 497.63,-201"/>
<polygon fill="midnightblue" stroke="midnightblue" points="497.87,-204.5 507.87,-201 497.87,-197.5 497.87,-204.5"/>
</g>
<!-- Node7 -->
<g id="node7" class="node">
<title>Node7</title>
<g id="a_node7"><a xlink:href="class_unity_standard_assets_1_1_characters_1_1_third_person_1_1_pun_demos_1_1_third_person_character.xhtml#a42c93c25adf1873b4dd797b12b56e9f2" target="_top" xlink:title=" ">
<polygon fill="white" stroke="black" points="508,-120.5 508,-161.5 727,-161.5 727,-120.5 508,-120.5"/>
<text text-anchor="start" x="516" y="-149.5" font-family="Helvetica,sans-Serif" font-size="10.00">UnityStandardAssets.Characters.</text>
<text text-anchor="start" x="516" y="-138.5" font-family="Helvetica,sans-Serif" font-size="10.00">ThirdPerson.PunDemos.ThirdPersonCharacter.</text>
<text text-anchor="middle" x="617.5" y="-127.5" font-family="Helvetica,sans-Serif" font-size="10.00">PreventStandingInLowHeadroom</text>
</a>
</g>
</g>
<!-- Node2&#45;&gt;Node7 -->
<g id="edge6" class="edge">
<title>Node2&#45;&gt;Node7</title>
<path fill="none" stroke="midnightblue" d="M418.4,-185.94C447.94,-179.24 483.37,-171.2 516.04,-163.79"/>
<polygon fill="midnightblue" stroke="midnightblue" points="517.1,-167.14 526.08,-161.51 515.55,-160.31 517.1,-167.14"/>
</g>
<!-- Node8 -->
<g id="node8" class="node">
<title>Node8</title>
<g id="a_node8"><a xlink:href="class_unity_standard_assets_1_1_characters_1_1_third_person_1_1_pun_demos_1_1_third_person_character.xhtml#ade773a7c9461b1dfc384c58cf02dfa07" target="_top" xlink:title=" ">
<polygon fill="white" stroke="black" points="508,-60.5 508,-101.5 727,-101.5 727,-60.5 508,-60.5"/>
<text text-anchor="start" x="516" y="-89.5" font-family="Helvetica,sans-Serif" font-size="10.00">UnityStandardAssets.Characters.</text>
<text text-anchor="start" x="516" y="-78.5" font-family="Helvetica,sans-Serif" font-size="10.00">ThirdPerson.PunDemos.ThirdPersonCharacter.</text>
<text text-anchor="middle" x="617.5" y="-67.5" font-family="Helvetica,sans-Serif" font-size="10.00">ScaleCapsuleForCrouching</text>
</a>
</g>
</g>
<!-- Node2&#45;&gt;Node8 -->
<g id="edge7" class="edge">
<title>Node2&#45;&gt;Node8</title>
<path fill="none" stroke="midnightblue" d="M374.06,-185.85C403.47,-166.23 457.67,-132.07 508,-111 513.13,-108.85 518.45,-106.81 523.87,-104.88"/>
<polygon fill="midnightblue" stroke="midnightblue" points="525.37,-108.07 533.7,-101.53 523.11,-101.45 525.37,-108.07"/>
</g>
<!-- Node9 -->
<g id="node9" class="node">
<title>Node9</title>
<g id="a_node9"><a xlink:href="class_unity_standard_assets_1_1_characters_1_1_third_person_1_1_pun_demos_1_1_third_person_character.xhtml#a194a72942fe4dbeb5fb6c41c9e62d500" target="_top" xlink:title=" ">
<polygon fill="white" stroke="black" points="508,-0.5 508,-41.5 727,-41.5 727,-0.5 508,-0.5"/>
<text text-anchor="start" x="516" y="-29.5" font-family="Helvetica,sans-Serif" font-size="10.00">UnityStandardAssets.Characters.</text>
<text text-anchor="start" x="516" y="-18.5" font-family="Helvetica,sans-Serif" font-size="10.00">ThirdPerson.PunDemos.ThirdPersonCharacter.</text>
<text text-anchor="middle" x="617.5" y="-7.5" font-family="Helvetica,sans-Serif" font-size="10.00">UpdateAnimator</text>
</a>
</g>
</g>
<!-- Node2&#45;&gt;Node9 -->
<g id="edge8" class="edge">
<title>Node2&#45;&gt;Node9</title>
<path fill="none" stroke="midnightblue" d="M363.51,-185.69C387.15,-155.31 444.34,-87.26 508,-51 511.29,-49.12 514.71,-47.36 518.21,-45.7"/>
<polygon fill="midnightblue" stroke="midnightblue" points="519.91,-48.78 527.66,-41.56 517.1,-42.37 519.91,-48.78"/>
</g>
</g>
</svg>
