<?xml version="1.0" encoding="UTF-8" standalone="no"?>
<!DOCTYPE svg PUBLIC "-//W3C//DTD SVG 1.1//EN"
 "http://www.w3.org/Graphics/SVG/1.1/DTD/svg11.dtd">
<!-- Generated by graphviz version 2.47.3 (20210619.1520)
 -->
<!-- Title: Photon.Pun.Demo.Hub.DemoHubManager Pages: 1 -->
<svg width="184pt" height="117pt"
 viewBox="0.00 0.00 183.50 117.00" xmlns="http://www.w3.org/2000/svg" xmlns:xlink="http://www.w3.org/1999/xlink">
<g id="graph0" class="graph" transform="scale(1 1) rotate(0) translate(4 113)">
<title>Photon.Pun.Demo.Hub.DemoHubManager</title>
<polygon fill="white" stroke="transparent" points="-4,4 -4,-113 179.5,-113 179.5,4 -4,4"/>
<!-- Node1 -->
<g id="node1" class="node">
<title>Node1</title>
<g id="a_node1"><a xlink:title=" ">
<polygon fill="#bfbfbf" stroke="black" points="7,-0.5 7,-30.5 152,-30.5 152,-0.5 7,-0.5"/>
<text text-anchor="start" x="15" y="-18.5" font-family="Helvetica,sans-Serif" font-size="10.00">Photon.Pun.Demo.Hub.Demo</text>
<text text-anchor="middle" x="79.5" y="-7.5" font-family="Helvetica,sans-Serif" font-size="10.00">HubManager</text>
</a>
</g>
</g>
<!-- Node2 -->
<g id="node2" class="node">
<title>Node2</title>
<g id="a_node2"><a xlink:title=" ">
<polygon fill="white" stroke="#bfbfbf" points="0,-89.5 0,-108.5 83,-108.5 83,-89.5 0,-89.5"/>
<text text-anchor="middle" x="41.5" y="-96.5" font-family="Helvetica,sans-Serif" font-size="10.00">MonoBehaviour</text>
</a>
</g>
</g>
<!-- Node2&#45;&gt;Node1 -->
<g id="edge1" class="edge">
<title>Node2&#45;&gt;Node1</title>
<path fill="none" stroke="midnightblue" d="M49.85,-80.09C56.79,-65.21 66.53,-44.31 72.93,-30.6"/>
<polygon fill="midnightblue" stroke="midnightblue" points="46.62,-78.74 45.57,-89.28 52.96,-81.69 46.62,-78.74"/>
</g>
<!-- Node3 -->
<g id="node3" class="node">
<title>Node3</title>
<g id="a_node3"><a xlink:title=" ">
<polygon fill="white" stroke="#bfbfbf" points="101,-89.5 101,-108.5 136,-108.5 136,-89.5 101,-89.5"/>
<text text-anchor="middle" x="118.5" y="-96.5" font-family="Helvetica,sans-Serif" font-size="10.00">Text</text>
</a>
</g>
</g>
<!-- Node3&#45;&gt;Node1 -->
<g id="edge2" class="edge">
<title>Node3&#45;&gt;Node1</title>
<path fill="none" stroke="#9a32cd" stroke-dasharray="5,2" d="M109.93,-80.09C102.81,-65.21 92.81,-44.31 86.25,-30.6"/>
<polygon fill="#9a32cd" stroke="#9a32cd" points="106.85,-81.77 114.33,-89.28 113.17,-78.75 106.85,-81.77"/>
<text text-anchor="middle" x="140" y="-63" font-family="Helvetica,sans-Serif" font-size="10.00"> DescriptionText</text>
<text text-anchor="middle" x="140" y="-52" font-family="Helvetica,sans-Serif" font-size="10.00">TitleText</text>
</g>
</g>
</svg>
