<?xml version="1.0" encoding="UTF-8" standalone="no"?>
<!DOCTYPE svg PUBLIC "-//W3C//DTD SVG 1.1//EN"
 "http://www.w3.org/Graphics/SVG/1.1/DTD/svg11.dtd">
<!-- Generated by graphviz version 2.47.3 (20210619.1520)
 -->
<!-- Title: Photon.Pun.Demo.SlotRacer.Utils.BezierSpline.EnforceMode Pages: 1 -->
<svg width="791pt" height="155pt"
 viewBox="0.00 0.00 791.00 154.50" xmlns="http://www.w3.org/2000/svg" xmlns:xlink="http://www.w3.org/1999/xlink">
<g id="graph0" class="graph" transform="scale(1 1) rotate(0) translate(4 150.5)">
<title>Photon.Pun.Demo.SlotRacer.Utils.BezierSpline.EnforceMode</title>
<polygon fill="white" stroke="transparent" points="-4,4 -4,-150.5 787,-150.5 787,4 -4,4"/>
<!-- Node1 -->
<g id="node1" class="node">
<title>Node1</title>
<g id="a_node1"><a xlink:title=" ">
<polygon fill="#bfbfbf" stroke="black" points="629,-64 629,-94 783,-94 783,-64 629,-64"/>
<text text-anchor="start" x="637" y="-82" font-family="Helvetica,sans-Serif" font-size="10.00">Photon.Pun.Demo.SlotRacer.</text>
<text text-anchor="middle" x="706" y="-71" font-family="Helvetica,sans-Serif" font-size="10.00">Utils.BezierSpline.EnforceMode</text>
</a>
</g>
</g>
<!-- Node2 -->
<g id="node2" class="node">
<title>Node2</title>
<g id="a_node2"><a xlink:href="class_photon_1_1_pun_1_1_demo_1_1_slot_racer_1_1_utils_1_1_bezier_spline.xhtml#a6fd38285f4e828f299c22c045b32429f" target="_top" xlink:title=" ">
<polygon fill="white" stroke="black" points="204,-116 204,-146 349,-146 349,-116 204,-116"/>
<text text-anchor="start" x="212" y="-134" font-family="Helvetica,sans-Serif" font-size="10.00">Photon.Pun.Demo.SlotRacer.</text>
<text text-anchor="middle" x="276.5" y="-123" font-family="Helvetica,sans-Serif" font-size="10.00">Utils.BezierSpline.AddCurve</text>
</a>
</g>
</g>
<!-- Node1&#45;&gt;Node2 -->
<g id="edge1" class="edge">
<title>Node1&#45;&gt;Node2</title>
<path fill="none" stroke="midnightblue" d="M634.65,-96.21C620.9,-99.15 606.55,-101.92 593,-104 509.87,-116.78 413.41,-123.93 349.25,-127.61"/>
<polygon fill="midnightblue" stroke="midnightblue" points="635.52,-99.61 644.54,-94.05 634.02,-92.77 635.52,-99.61"/>
</g>
<!-- Node4 -->
<g id="node4" class="node">
<title>Node4</title>
<g id="a_node4"><a xlink:href="class_photon_1_1_pun_1_1_demo_1_1_slot_racer_1_1_utils_1_1_bezier_spline.xhtml#aa32483d6a9ccf491be4d29fafa2b1d1d" target="_top" xlink:title=" ">
<polygon fill="white" stroke="black" points="416,-15 416,-45 581,-45 581,-15 416,-15"/>
<text text-anchor="start" x="424" y="-33" font-family="Helvetica,sans-Serif" font-size="10.00">Photon.Pun.Demo.SlotRacer.</text>
<text text-anchor="middle" x="498.5" y="-22" font-family="Helvetica,sans-Serif" font-size="10.00">Utils.BezierSpline.SetControlPoint</text>
</a>
</g>
</g>
<!-- Node1&#45;&gt;Node4 -->
<g id="edge3" class="edge">
<title>Node1&#45;&gt;Node4</title>
<path fill="none" stroke="midnightblue" d="M632.01,-61.6C609.28,-56.18 584.42,-50.25 562.43,-45.01"/>
<polygon fill="midnightblue" stroke="midnightblue" points="631.41,-65.05 641.95,-63.97 633.03,-58.24 631.41,-65.05"/>
</g>
<!-- Node8 -->
<g id="node8" class="node">
<title>Node8</title>
<g id="a_node8"><a xlink:href="class_photon_1_1_pun_1_1_demo_1_1_slot_racer_1_1_utils_1_1_bezier_spline.xhtml#aad3dac668441bdea39be3d56d0990b57" target="_top" xlink:title=" ">
<polygon fill="white" stroke="black" points="404,-64 404,-94 593,-94 593,-64 404,-64"/>
<text text-anchor="start" x="412" y="-82" font-family="Helvetica,sans-Serif" font-size="10.00">Photon.Pun.Demo.SlotRacer.</text>
<text text-anchor="middle" x="498.5" y="-71" font-family="Helvetica,sans-Serif" font-size="10.00">Utils.BezierSpline.SetControlPointMode</text>
</a>
</g>
</g>
<!-- Node1&#45;&gt;Node8 -->
<g id="edge8" class="edge">
<title>Node1&#45;&gt;Node8</title>
<path fill="none" stroke="midnightblue" d="M618.56,-79C610.12,-79 601.52,-79 593.01,-79"/>
<polygon fill="midnightblue" stroke="midnightblue" points="618.77,-82.5 628.77,-79 618.77,-75.5 618.77,-82.5"/>
</g>
<!-- Node3 -->
<g id="node3" class="node">
<title>Node3</title>
<g id="a_node3"><a xlink:href="class_photon_1_1_pun_1_1_demo_1_1_slot_racer_1_1_utils_1_1_bezier_spline_inspector.xhtml#a8e75e652ee006f1a1af7b47dbfd88b0f" target="_top" xlink:title=" ">
<polygon fill="white" stroke="black" points="0,-85.5 0,-126.5 149,-126.5 149,-85.5 0,-85.5"/>
<text text-anchor="start" x="8" y="-114.5" font-family="Helvetica,sans-Serif" font-size="10.00">Photon.Pun.Demo.SlotRacer.</text>
<text text-anchor="start" x="8" y="-103.5" font-family="Helvetica,sans-Serif" font-size="10.00">Utils.BezierSplineInspector.On</text>
<text text-anchor="middle" x="74.5" y="-92.5" font-family="Helvetica,sans-Serif" font-size="10.00">InspectorGUI</text>
</a>
</g>
</g>
<!-- Node2&#45;&gt;Node3 -->
<g id="edge2" class="edge">
<title>Node2&#45;&gt;Node3</title>
<path fill="none" stroke="midnightblue" d="M193.78,-120.78C179.07,-118.95 163.81,-117.04 149.34,-115.23"/>
<polygon fill="midnightblue" stroke="midnightblue" points="193.5,-124.28 203.86,-122.05 194.37,-117.33 193.5,-124.28"/>
</g>
<!-- Node5 -->
<g id="node5" class="node">
<title>Node5</title>
<g id="a_node5"><a xlink:href="class_photon_1_1_pun_1_1_demo_1_1_slot_racer_1_1_utils_1_1_bezier_spline_inspector.xhtml#a1ec1a8593848bd4e796b09f065740d2f" target="_top" xlink:title=" ">
<polygon fill="white" stroke="black" points="197.5,-55.5 197.5,-96.5 355.5,-96.5 355.5,-55.5 197.5,-55.5"/>
<text text-anchor="start" x="205.5" y="-84.5" font-family="Helvetica,sans-Serif" font-size="10.00">Photon.Pun.Demo.SlotRacer.</text>
<text text-anchor="start" x="205.5" y="-73.5" font-family="Helvetica,sans-Serif" font-size="10.00">Utils.BezierSplineInspector.Draw</text>
<text text-anchor="middle" x="276.5" y="-62.5" font-family="Helvetica,sans-Serif" font-size="10.00">SelectedPointInspector</text>
</a>
</g>
</g>
<!-- Node4&#45;&gt;Node5 -->
<g id="edge4" class="edge">
<title>Node4&#45;&gt;Node5</title>
<path fill="none" stroke="midnightblue" d="M415.66,-47.11C396.06,-51.21 375.2,-55.57 355.77,-59.63"/>
<polygon fill="midnightblue" stroke="midnightblue" points="416.39,-50.53 425.46,-45.06 414.96,-43.68 416.39,-50.53"/>
</g>
<!-- Node6 -->
<g id="node6" class="node">
<title>Node6</title>
<g id="a_node6"><a xlink:href="class_photon_1_1_pun_1_1_demo_1_1_slot_racer_1_1_utils_1_1_bezier_spline_inspector.xhtml#a1d631ad32ea66f86ecaf1b099b560c77" target="_top" xlink:title=" ">
<polygon fill="white" stroke="black" points="185,-6 185,-36 368,-36 368,-6 185,-6"/>
<text text-anchor="start" x="193" y="-24" font-family="Helvetica,sans-Serif" font-size="10.00">Photon.Pun.Demo.SlotRacer.</text>
<text text-anchor="middle" x="276.5" y="-13" font-family="Helvetica,sans-Serif" font-size="10.00">Utils.BezierSplineInspector.ShowPoint</text>
</a>
</g>
</g>
<!-- Node4&#45;&gt;Node6 -->
<g id="edge6" class="edge">
<title>Node4&#45;&gt;Node6</title>
<path fill="none" stroke="midnightblue" d="M405.6,-26.24C393.24,-25.73 380.57,-25.22 368.23,-24.71"/>
<polygon fill="midnightblue" stroke="midnightblue" points="405.76,-29.75 415.89,-26.66 406.04,-22.76 405.76,-29.75"/>
</g>
<!-- Node5&#45;&gt;Node3 -->
<g id="edge5" class="edge">
<title>Node5&#45;&gt;Node3</title>
<path fill="none" stroke="midnightblue" d="M187.18,-89.25C174.44,-91.16 161.46,-93.11 149.05,-94.97"/>
<polygon fill="midnightblue" stroke="midnightblue" points="187.95,-92.67 197.32,-87.73 186.91,-85.75 187.95,-92.67"/>
</g>
<!-- Node7 -->
<g id="node7" class="node">
<title>Node7</title>
<g id="a_node7"><a xlink:href="class_photon_1_1_pun_1_1_demo_1_1_slot_racer_1_1_utils_1_1_bezier_spline_inspector.xhtml#ae31726529d0bd539bab0e4001b86e5f2" target="_top" xlink:title=" ">
<polygon fill="white" stroke="black" points="0,-0.5 0,-41.5 149,-41.5 149,-0.5 0,-0.5"/>
<text text-anchor="start" x="8" y="-29.5" font-family="Helvetica,sans-Serif" font-size="10.00">Photon.Pun.Demo.SlotRacer.</text>
<text text-anchor="start" x="8" y="-18.5" font-family="Helvetica,sans-Serif" font-size="10.00">Utils.BezierSplineInspector.On</text>
<text text-anchor="middle" x="74.5" y="-7.5" font-family="Helvetica,sans-Serif" font-size="10.00">SceneGUI</text>
</a>
</g>
</g>
<!-- Node6&#45;&gt;Node7 -->
<g id="edge7" class="edge">
<title>Node6&#45;&gt;Node7</title>
<path fill="none" stroke="midnightblue" d="M174.72,-21C166.07,-21 157.43,-21 149.05,-21"/>
<polygon fill="midnightblue" stroke="midnightblue" points="174.86,-24.5 184.86,-21 174.86,-17.5 174.86,-24.5"/>
</g>
<!-- Node8&#45;&gt;Node5 -->
<g id="edge9" class="edge">
<title>Node8&#45;&gt;Node5</title>
<path fill="none" stroke="midnightblue" d="M393.69,-77.58C380.94,-77.41 368.08,-77.24 355.79,-77.07"/>
<polygon fill="midnightblue" stroke="midnightblue" points="393.83,-81.09 403.88,-77.72 393.93,-74.09 393.83,-81.09"/>
</g>
</g>
</svg>
