<?xml version="1.0" encoding="UTF-8" standalone="no"?>
<!DOCTYPE svg PUBLIC "-//W3C//DTD SVG 1.1//EN"
 "http://www.w3.org/Graphics/SVG/1.1/DTD/svg11.dtd">
<!-- Generated by graphviz version 2.47.3 (20210619.1520)
 -->
<!-- Title: Photon.Pun.MonoBehaviourPunCallbacks.OnEnable Pages: 1 -->
<svg width="523pt" height="137pt"
 viewBox="0.00 0.00 523.00 137.00" xmlns="http://www.w3.org/2000/svg" xmlns:xlink="http://www.w3.org/1999/xlink">
<g id="graph0" class="graph" transform="scale(1 1) rotate(0) translate(4 133)">
<title>Photon.Pun.MonoBehaviourPunCallbacks.OnEnable</title>
<polygon fill="white" stroke="transparent" points="-4,4 -4,-133 519,-133 519,4 -4,4"/>
<!-- Node1 -->
<g id="node1" class="node">
<title>Node1</title>
<g id="a_node1"><a xlink:title=" ">
<polygon fill="#bfbfbf" stroke="black" points="0,-49.5 0,-79.5 137,-79.5 137,-49.5 0,-49.5"/>
<text text-anchor="start" x="8" y="-67.5" font-family="Helvetica,sans-Serif" font-size="10.00">Photon.Pun.MonoBehaviour</text>
<text text-anchor="middle" x="68.5" y="-56.5" font-family="Helvetica,sans-Serif" font-size="10.00">PunCallbacks.OnEnable</text>
</a>
</g>
</g>
<!-- Node2 -->
<g id="node2" class="node">
<title>Node2</title>
<g id="a_node2"><a xlink:href="class_photon_1_1_pun_1_1_photon_network.xhtml#ab6df1ed60be8a3f494683b8faa28ee4a" target="_top" xlink:title="Registers an object for callbacks for the implemented callback&#45;interfaces.">
<polygon fill="white" stroke="black" points="173,-49.5 173,-79.5 313,-79.5 313,-49.5 173,-49.5"/>
<text text-anchor="start" x="181" y="-67.5" font-family="Helvetica,sans-Serif" font-size="10.00">Photon.Pun.PhotonNetwork.</text>
<text text-anchor="middle" x="243" y="-56.5" font-family="Helvetica,sans-Serif" font-size="10.00">AddCallbackTarget</text>
</a>
</g>
</g>
<!-- Node1&#45;&gt;Node2 -->
<g id="edge1" class="edge">
<title>Node1&#45;&gt;Node2</title>
<path fill="none" stroke="midnightblue" d="M137.18,-64.5C145.5,-64.5 154.07,-64.5 162.54,-64.5"/>
<polygon fill="midnightblue" stroke="midnightblue" points="162.81,-68 172.81,-64.5 162.81,-61 162.81,-68"/>
</g>
<!-- Node3 -->
<g id="node3" class="node">
<title>Node3</title>
<g id="a_node3"><a xlink:href="class_photon_1_1_realtime_1_1_load_balancing_client.xhtml#a7eccc149073296a316965f2ce96d08d3" target="_top" xlink:title="Registers an object for callbacks for the implemented callback&#45;interfaces.">
<polygon fill="white" stroke="black" points="354.5,-98.5 354.5,-128.5 509.5,-128.5 509.5,-98.5 354.5,-98.5"/>
<text text-anchor="start" x="362.5" y="-116.5" font-family="Helvetica,sans-Serif" font-size="10.00">Photon.Realtime.LoadBalancing</text>
<text text-anchor="middle" x="432" y="-105.5" font-family="Helvetica,sans-Serif" font-size="10.00">Client.AddCallbackTarget</text>
</a>
</g>
</g>
<!-- Node2&#45;&gt;Node3 -->
<g id="edge2" class="edge">
<title>Node2&#45;&gt;Node3</title>
<path fill="none" stroke="midnightblue" d="M301.38,-79.53C321.12,-84.71 343.41,-90.55 363.86,-95.91"/>
<polygon fill="midnightblue" stroke="midnightblue" points="363.17,-99.34 373.73,-98.49 364.95,-92.57 363.17,-99.34"/>
</g>
<!-- Node4 -->
<g id="node4" class="node">
<title>Node4</title>
<g id="a_node4"><a xlink:href="interface_photon_1_1_pun_1_1_i_pun_ownership_callbacks.xhtml#a20d83cdb1516ef38cf1506181b067477" target="_top" xlink:title="Called when another player requests ownership of a PhotonView.">
<polygon fill="white" stroke="black" points="353.5,-49.5 353.5,-79.5 510.5,-79.5 510.5,-49.5 353.5,-49.5"/>
<text text-anchor="start" x="361.5" y="-67.5" font-family="Helvetica,sans-Serif" font-size="10.00">Photon.Pun.IPunOwnership</text>
<text text-anchor="middle" x="432" y="-56.5" font-family="Helvetica,sans-Serif" font-size="10.00">Callbacks.OnOwnershipRequest</text>
</a>
</g>
</g>
<!-- Node2&#45;&gt;Node4 -->
<g id="edge3" class="edge">
<title>Node2&#45;&gt;Node4</title>
<path fill="none" stroke="midnightblue" d="M313.1,-64.5C322.93,-64.5 333.15,-64.5 343.28,-64.5"/>
<polygon fill="midnightblue" stroke="midnightblue" points="343.36,-68 353.36,-64.5 343.36,-61 343.36,-68"/>
</g>
<!-- Node5 -->
<g id="node5" class="node">
<title>Node5</title>
<g id="a_node5"><a xlink:href="interface_photon_1_1_pun_1_1_i_pun_ownership_callbacks.xhtml#ac538522c1aba77f1cc6475ca05787b0e" target="_top" xlink:title="Called when ownership of a PhotonView is transfered to another player.">
<polygon fill="white" stroke="black" points="349,-0.5 349,-30.5 515,-30.5 515,-0.5 349,-0.5"/>
<text text-anchor="start" x="357" y="-18.5" font-family="Helvetica,sans-Serif" font-size="10.00">Photon.Pun.IPunOwnership</text>
<text text-anchor="middle" x="432" y="-7.5" font-family="Helvetica,sans-Serif" font-size="10.00">Callbacks.OnOwnershipTransfered</text>
</a>
</g>
</g>
<!-- Node2&#45;&gt;Node5 -->
<g id="edge4" class="edge">
<title>Node2&#45;&gt;Node5</title>
<path fill="none" stroke="midnightblue" d="M301.38,-49.47C321.12,-44.29 343.41,-38.45 363.86,-33.09"/>
<polygon fill="midnightblue" stroke="midnightblue" points="364.95,-36.43 373.73,-30.51 363.17,-29.66 364.95,-36.43"/>
</g>
</g>
</svg>
