<?xml version="1.0" encoding="UTF-8" standalone="no"?>
<!DOCTYPE svg PUBLIC "-//W3C//DTD SVG 1.1//EN"
 "http://www.w3.org/Graphics/SVG/1.1/DTD/svg11.dtd">
<!-- Generated by graphviz version 2.47.3 (20210619.1520)
 -->
<!-- Title: Photon.Pun.UtilityScripts.OnJoinedInstantiate.GetSpawnPoint Pages: 1 -->
<svg width="597pt" height="88pt"
 viewBox="0.00 0.00 597.00 88.00" xmlns="http://www.w3.org/2000/svg" xmlns:xlink="http://www.w3.org/1999/xlink">
<g id="graph0" class="graph" transform="scale(1 1) rotate(0) translate(4 84)">
<title>Photon.Pun.UtilityScripts.OnJoinedInstantiate.GetSpawnPoint</title>
<polygon fill="white" stroke="transparent" points="-4,4 -4,-84 593,-84 593,4 -4,4"/>
<!-- Node1 -->
<g id="node1" class="node">
<title>Node1</title>
<g id="a_node1"><a xlink:title="Get the transform of the next SpawnPoint from the list, selected using the SpawnSequence setting.">
<polygon fill="#bfbfbf" stroke="black" points="416,-24.5 416,-54.5 589,-54.5 589,-24.5 416,-24.5"/>
<text text-anchor="start" x="424" y="-42.5" font-family="Helvetica,sans-Serif" font-size="10.00">Photon.Pun.UtilityScripts.</text>
<text text-anchor="middle" x="502.5" y="-31.5" font-family="Helvetica,sans-Serif" font-size="10.00">OnJoinedInstantiate.GetSpawnPoint</text>
</a>
</g>
</g>
<!-- Node2 -->
<g id="node2" class="node">
<title>Node2</title>
<g id="a_node2"><a xlink:href="class_photon_1_1_pun_1_1_utility_scripts_1_1_on_joined_instantiate.xhtml#ae0da222aad517adee6e8d5d963586b8e" target="_top" xlink:title="Gets the next SpawnPoint from the list using the SpawnSequence, and applies RandomOffset (if used) to...">
<polygon fill="white" stroke="black" points="207,-49.5 207,-79.5 380,-79.5 380,-49.5 207,-49.5"/>
<text text-anchor="start" x="215" y="-67.5" font-family="Helvetica,sans-Serif" font-size="10.00">Photon.Pun.UtilityScripts.</text>
<text text-anchor="middle" x="293.5" y="-56.5" font-family="Helvetica,sans-Serif" font-size="10.00">OnJoinedInstantiate.GetSpawnPoint</text>
</a>
</g>
</g>
<!-- Node1&#45;&gt;Node2 -->
<g id="edge1" class="edge">
<title>Node1&#45;&gt;Node2</title>
<path fill="none" stroke="midnightblue" d="M405.8,-51.06C397.24,-52.09 388.6,-53.14 380.12,-54.16"/>
<polygon fill="midnightblue" stroke="midnightblue" points="406.3,-54.52 415.81,-49.85 405.46,-47.57 406.3,-54.52"/>
</g>
<!-- Node3 -->
<g id="node3" class="node">
<title>Node3</title>
<g id="a_node3"><a xlink:href="class_photon_1_1_pun_1_1_utility_scripts_1_1_on_joined_instantiate.xhtml#a9773f06a13ab245f2fa071ec38dbb849" target="_top" xlink:title=" ">
<polygon fill="white" stroke="black" points="209.5,-0.5 209.5,-30.5 377.5,-30.5 377.5,-0.5 209.5,-0.5"/>
<text text-anchor="start" x="217.5" y="-18.5" font-family="Helvetica,sans-Serif" font-size="10.00">Photon.Pun.UtilityScripts.</text>
<text text-anchor="middle" x="293.5" y="-7.5" font-family="Helvetica,sans-Serif" font-size="10.00">OnJoinedInstantiate.SpawnObjects</text>
</a>
</g>
</g>
<!-- Node1&#45;&gt;Node3 -->
<g id="edge2" class="edge">
<title>Node1&#45;&gt;Node3</title>
<path fill="none" stroke="midnightblue" d="M405.73,-28.4C396.4,-27.31 386.99,-26.22 377.79,-25.16"/>
<polygon fill="midnightblue" stroke="midnightblue" points="405.47,-31.89 415.81,-29.57 406.28,-24.94 405.47,-31.89"/>
</g>
<!-- Node4 -->
<g id="node4" class="node">
<title>Node4</title>
<g id="a_node4"><a xlink:href="class_photon_1_1_pun_1_1_utility_scripts_1_1_on_joined_instantiate.xhtml#a107f60bb378b3d63f76cf333319f749d" target="_top" xlink:title="Called when the LoadBalancingClient entered a room, no matter if this client created it or simply joi...">
<polygon fill="white" stroke="black" points="0,-0.5 0,-30.5 171,-30.5 171,-0.5 0,-0.5"/>
<text text-anchor="start" x="8" y="-18.5" font-family="Helvetica,sans-Serif" font-size="10.00">Photon.Pun.UtilityScripts.</text>
<text text-anchor="middle" x="85.5" y="-7.5" font-family="Helvetica,sans-Serif" font-size="10.00">OnJoinedInstantiate.OnJoinedRoom</text>
</a>
</g>
</g>
<!-- Node3&#45;&gt;Node4 -->
<g id="edge3" class="edge">
<title>Node3&#45;&gt;Node4</title>
<path fill="none" stroke="midnightblue" d="M199.18,-15.5C189.79,-15.5 180.3,-15.5 171.01,-15.5"/>
<polygon fill="midnightblue" stroke="midnightblue" points="199.31,-19 209.31,-15.5 199.31,-12 199.31,-19"/>
</g>
</g>
</svg>
