<?xml version="1.0" encoding="UTF-8" standalone="no"?>
<!DOCTYPE svg PUBLIC "-//W3C//DTD SVG 1.1//EN"
 "http://www.w3.org/Graphics/SVG/1.1/DTD/svg11.dtd">
<!-- Generated by graphviz version 2.47.3 (20210619.1520)
 -->
<!-- Title: Photon.Realtime.LoadBalancingClient.GameEnteredOnGameServer Pages: 1 -->
<!--zoomable 284 -->
<svg id="main" version="1.1" xmlns="http://www.w3.org/2000/svg" xmlns:xlink="http://www.w3.org/1999/xlink" xml:space="preserve" onload="init(evt)">
<style type="text/css"><![CDATA[
.edge:hover path { stroke: red; }
.edge:hover polygon { stroke: red; fill: red; }
]]></style>
<script type="text/javascript"><![CDATA[
var edges = document.getElementsByTagName('g');
if (edges && edges.length) {
  for (var i=0;i<edges.length;i++) {
    if (edges[i].id.substr(0,4)=='edge') {
      edges[i].setAttribute('class','edge');
    }
  }
}
]]></script>
        <defs>
                <circle id="rim" cx="0" cy="0" r="7"/>
                <circle id="rim2" cx="0" cy="0" r="3.5"/>
                <g id="zoomPlus">
                        <use xlink:href="#rim" fill="#404040">
                                <set attributeName="fill" to="#808080" begin="zoomplus.mouseover" end="zoomplus.mouseout"/>
                        </use>
                        <path d="M-4,0h8M0,-4v8" fill="none" stroke="white" stroke-width="1.5" pointer-events="none"/>
                </g>
                <g id="zoomMin">
                        <use xlink:href="#rim" fill="#404040">
                                <set attributeName="fill" to="#808080" begin="zoomminus.mouseover" end="zoomminus.mouseout"/>
                        </use>
                        <path d="M-4,0h8" fill="none" stroke="white" stroke-width="1.5" pointer-events="none"/>
                </g>
                <g id="dirArrow">
                        <path fill="none" stroke="white" stroke-width="1.5" d="M0,-3.0v7 M-2.5,-0.5L0,-3.0L2.5,-0.5"/>
                </g>
               <g id="resetDef">
                       <use xlink:href="#rim2" fill="#404040">
                               <set attributeName="fill" to="#808080" begin="reset.mouseover" end="reset.mouseout"/>
                       </use>
               </g>
        </defs>

<script type="text/javascript">
var viewWidth = 980;
var viewHeight = 284;
var sectionId = 'dynsection-34';
</script>
<script xlink:href="svgpan.js"/>
<svg id="graph" class="graph">
<g id="viewport">
<title>Photon.Realtime.LoadBalancingClient.GameEnteredOnGameServer</title>
<polygon fill="white" stroke="transparent" points="-4,4 -4,-280 976,-280 976,4 -4,4"/>
<!-- Node1 -->
<g id="node1" class="node">
<title>Node1</title>
<g id="a_node1"><a xlink:title="Called internally, when a game was joined or created on the game server successfully.">
<polygon fill="#bfbfbf" stroke="black" points="0,-171.5 0,-201.5 170,-201.5 170,-171.5 0,-171.5"/>
<text text-anchor="start" x="8" y="-189.5" font-family="Helvetica,sans-Serif" font-size="10.00">Photon.Realtime.LoadBalancing</text>
<text text-anchor="middle" x="85" y="-178.5" font-family="Helvetica,sans-Serif" font-size="10.00">Client.GameEnteredOnGameServer</text>
</a>
</g>
</g>
<!-- Node2 -->
<g id="node2" class="node">
<title>Node2</title>
<g id="a_node2"><a xlink:href="class_photon_1_1_realtime_1_1_load_balancing_client.xhtml#a32adb95af4cb836a29fc53aa66000caf" target="_top" xlink:title="Internally used to set the LocalPlayer&#39;s ID (from &#45;1 to the actual in&#45;room ID).">
<polygon fill="white" stroke="black" points="216.5,-147.5 216.5,-177.5 371.5,-177.5 371.5,-147.5 216.5,-147.5"/>
<text text-anchor="start" x="224.5" y="-165.5" font-family="Helvetica,sans-Serif" font-size="10.00">Photon.Realtime.LoadBalancing</text>
<text text-anchor="middle" x="294" y="-154.5" font-family="Helvetica,sans-Serif" font-size="10.00">Client.ChangeLocalID</text>
</a>
</g>
</g>
<!-- Node1&#45;&gt;Node2 -->
<g id="edge1" class="edge">
<title>Node1&#45;&gt;Node2</title>
<path fill="none" stroke="midnightblue" d="M170.19,-176.74C182.09,-175.36 194.33,-173.94 206.27,-172.56"/>
<polygon fill="midnightblue" stroke="midnightblue" points="206.68,-176.03 216.22,-171.4 205.88,-169.08 206.68,-176.03"/>
</g>
<!-- Node7 -->
<g id="node7" class="node">
<title>Node7</title>
<g id="a_node7"><a xlink:href="class_photon_1_1_realtime_1_1_match_making_callbacks_container.xhtml#a0cbb3230022bdffebc1191f80f9bfc2a" target="_top" xlink:title="Called when this client created a room and entered it.">
<polygon fill="white" stroke="black" points="206,-245.5 206,-275.5 382,-275.5 382,-245.5 206,-245.5"/>
<text text-anchor="start" x="214" y="-263.5" font-family="Helvetica,sans-Serif" font-size="10.00">Photon.Realtime.MatchMaking</text>
<text text-anchor="middle" x="294" y="-252.5" font-family="Helvetica,sans-Serif" font-size="10.00">CallbacksContainer.OnCreatedRoom</text>
</a>
</g>
</g>
<!-- Node1&#45;&gt;Node7 -->
<g id="edge6" class="edge">
<title>Node1&#45;&gt;Node7</title>
<path fill="none" stroke="midnightblue" d="M120.02,-201.54C143.84,-211.79 176.55,-225.29 206,-235.5 212.84,-237.87 220.03,-240.2 227.24,-242.42"/>
<polygon fill="midnightblue" stroke="midnightblue" points="226.44,-245.84 237.03,-245.38 228.47,-239.14 226.44,-245.84"/>
</g>
<!-- Node9 -->
<g id="node9" class="node">
<title>Node9</title>
<g id="a_node9"><a xlink:href="class_photon_1_1_realtime_1_1_match_making_callbacks_container.xhtml#a5f91efa8551b2be7524bb4c6fb6da57a" target="_top" xlink:title="Called when the LoadBalancingClient entered a room, no matter if this client created it or simply joi...">
<polygon fill="white" stroke="black" points="209,-196.5 209,-226.5 379,-226.5 379,-196.5 209,-196.5"/>
<text text-anchor="start" x="217" y="-214.5" font-family="Helvetica,sans-Serif" font-size="10.00">Photon.Realtime.MatchMaking</text>
<text text-anchor="middle" x="294" y="-203.5" font-family="Helvetica,sans-Serif" font-size="10.00">CallbacksContainer.OnJoinedRoom</text>
</a>
</g>
</g>
<!-- Node1&#45;&gt;Node9 -->
<g id="edge8" class="edge">
<title>Node1&#45;&gt;Node9</title>
<path fill="none" stroke="midnightblue" d="M170.19,-196.67C179.67,-197.81 189.36,-198.98 198.94,-200.14"/>
<polygon fill="midnightblue" stroke="midnightblue" points="198.53,-203.62 208.88,-201.34 199.37,-196.67 198.53,-203.62"/>
</g>
<!-- Node11 -->
<g id="node11" class="node">
<title>Node11</title>
<g id="a_node11"><a xlink:href="class_photon_1_1_realtime_1_1_load_balancing_client.xhtml#a03492072afd54075ca42c5636ea8eaef" target="_top" xlink:title="Privately used to read&#45;out properties coming from the server in events and operation responses (which...">
<polygon fill="white" stroke="black" points="216.5,-74.5 216.5,-104.5 371.5,-104.5 371.5,-74.5 216.5,-74.5"/>
<text text-anchor="start" x="224.5" y="-92.5" font-family="Helvetica,sans-Serif" font-size="10.00">Photon.Realtime.LoadBalancing</text>
<text text-anchor="middle" x="294" y="-81.5" font-family="Helvetica,sans-Serif" font-size="10.00">Client.ReadoutProperties</text>
</a>
</g>
</g>
<!-- Node1&#45;&gt;Node11 -->
<g id="edge10" class="edge">
<title>Node1&#45;&gt;Node11</title>
<path fill="none" stroke="midnightblue" d="M118.34,-171.34C154.19,-154.54 212.12,-127.4 251.34,-109.02"/>
<polygon fill="midnightblue" stroke="midnightblue" points="253.31,-111.96 260.88,-104.55 250.34,-105.62 253.31,-111.96"/>
</g>
<!-- Node3 -->
<g id="node3" class="node">
<title>Node3</title>
<g id="a_node3"><a xlink:href="class_photon_1_1_realtime_1_1_load_balancing_client.xhtml#a69dd43d4c7211b5b83cd54d0ebcf79e7" target="_top" xlink:title="Debug output of low level api (and this client).">
<polygon fill="white" stroke="black" points="426.5,-147.5 426.5,-177.5 581.5,-177.5 581.5,-147.5 426.5,-147.5"/>
<text text-anchor="start" x="434.5" y="-165.5" font-family="Helvetica,sans-Serif" font-size="10.00">Photon.Realtime.LoadBalancing</text>
<text text-anchor="middle" x="504" y="-154.5" font-family="Helvetica,sans-Serif" font-size="10.00">Client.DebugReturn</text>
</a>
</g>
</g>
<!-- Node2&#45;&gt;Node3 -->
<g id="edge2" class="edge">
<title>Node2&#45;&gt;Node3</title>
<path fill="none" stroke="midnightblue" d="M371.57,-162.5C386.06,-162.5 401.32,-162.5 416.1,-162.5"/>
<polygon fill="midnightblue" stroke="midnightblue" points="416.25,-166 426.25,-162.5 416.25,-159 416.25,-166"/>
</g>
<!-- Node6 -->
<g id="node6" class="node">
<title>Node6</title>
<g id="a_node6"><a xlink:href="class_photon_1_1_realtime_1_1_room.xhtml#a5e614a00e26aae5f35f0805c4e4bb7a9" target="_top" xlink:title="Updates a player reference in the Players dictionary (no matter if it existed before or not).">
<polygon fill="white" stroke="black" points="432.5,-98.5 432.5,-128.5 575.5,-128.5 575.5,-98.5 432.5,-98.5"/>
<text text-anchor="start" x="440.5" y="-116.5" font-family="Helvetica,sans-Serif" font-size="10.00">Photon.Realtime.Room.Store</text>
<text text-anchor="middle" x="504" y="-105.5" font-family="Helvetica,sans-Serif" font-size="10.00">Player</text>
</a>
</g>
</g>
<!-- Node2&#45;&gt;Node6 -->
<g id="edge5" class="edge">
<title>Node2&#45;&gt;Node6</title>
<path fill="none" stroke="midnightblue" d="M358.82,-147.47C381.18,-142.2 406.47,-136.24 429.56,-130.8"/>
<polygon fill="midnightblue" stroke="midnightblue" points="430.37,-134.21 439.3,-128.51 428.76,-127.39 430.37,-134.21"/>
</g>
<!-- Node4 -->
<g id="node4" class="node">
<title>Node4</title>
<g id="a_node4"><a xlink:href="class_photon_1_1_realtime_1_1_load_balancing_peer.xhtml#a7f48b5f0c44ef0c67ef32f147ff87246" target="_top" xlink:title="Creates a Peer with specified connection protocol.">
<polygon fill="white" stroke="black" points="626,-147.5 626,-177.5 781,-177.5 781,-147.5 626,-147.5"/>
<text text-anchor="start" x="634" y="-165.5" font-family="Helvetica,sans-Serif" font-size="10.00">Photon.Realtime.LoadBalancing</text>
<text text-anchor="middle" x="703.5" y="-154.5" font-family="Helvetica,sans-Serif" font-size="10.00">Peer.LoadBalancingPeer</text>
</a>
</g>
</g>
<!-- Node3&#45;&gt;Node4 -->
<g id="edge3" class="edge">
<title>Node3&#45;&gt;Node4</title>
<path fill="none" stroke="midnightblue" d="M581.64,-162.5C592.77,-162.5 604.28,-162.5 615.59,-162.5"/>
<polygon fill="midnightblue" stroke="midnightblue" points="615.9,-166 625.9,-162.5 615.9,-159 615.9,-166"/>
</g>
<!-- Node5 -->
<g id="node5" class="node">
<title>Node5</title>
<g id="a_node5"><a xlink:href="class_photon_1_1_realtime_1_1_load_balancing_peer.xhtml#affaff7e1fdffe86b25156ffac5e738c9" target="_top" xlink:title=" ">
<polygon fill="white" stroke="black" points="817,-147.5 817,-177.5 972,-177.5 972,-147.5 817,-147.5"/>
<text text-anchor="start" x="825" y="-165.5" font-family="Helvetica,sans-Serif" font-size="10.00">Photon.Realtime.LoadBalancing</text>
<text text-anchor="middle" x="894.5" y="-154.5" font-family="Helvetica,sans-Serif" font-size="10.00">Peer.ConfigUnitySockets</text>
</a>
</g>
</g>
<!-- Node4&#45;&gt;Node5 -->
<g id="edge4" class="edge">
<title>Node4&#45;&gt;Node5</title>
<path fill="none" stroke="midnightblue" d="M781.1,-162.5C789.56,-162.5 798.22,-162.5 806.79,-162.5"/>
<polygon fill="midnightblue" stroke="midnightblue" points="806.79,-166 816.79,-162.5 806.79,-159 806.79,-166"/>
</g>
<!-- Node8 -->
<g id="node8" class="node">
<title>Node8</title>
<g id="a_node8"><a xlink:href="interface_photon_1_1_realtime_1_1_i_matchmaking_callbacks.xhtml#a3d084f0aa95b2e8f48514695af73b31d" target="_top" xlink:title="Called when this client created a room and entered it.">
<polygon fill="white" stroke="black" points="428,-245.5 428,-275.5 580,-275.5 580,-245.5 428,-245.5"/>
<text text-anchor="start" x="436" y="-263.5" font-family="Helvetica,sans-Serif" font-size="10.00">Photon.Realtime.IMatchmaking</text>
<text text-anchor="middle" x="504" y="-252.5" font-family="Helvetica,sans-Serif" font-size="10.00">Callbacks.OnCreatedRoom</text>
</a>
</g>
</g>
<!-- Node7&#45;&gt;Node8 -->
<g id="edge7" class="edge">
<title>Node7&#45;&gt;Node8</title>
<path fill="none" stroke="midnightblue" d="M382.01,-260.5C393.8,-260.5 405.9,-260.5 417.66,-260.5"/>
<polygon fill="midnightblue" stroke="midnightblue" points="417.9,-264 427.9,-260.5 417.9,-257 417.9,-264"/>
</g>
<!-- Node10 -->
<g id="node10" class="node">
<title>Node10</title>
<g id="a_node10"><a xlink:href="interface_photon_1_1_realtime_1_1_i_matchmaking_callbacks.xhtml#a8add9e72c38d241a448f4b539acd684b" target="_top" xlink:title="Called when the LoadBalancingClient entered a room, no matter if this client created it or simply joi...">
<polygon fill="white" stroke="black" points="428,-196.5 428,-226.5 580,-226.5 580,-196.5 428,-196.5"/>
<text text-anchor="start" x="436" y="-214.5" font-family="Helvetica,sans-Serif" font-size="10.00">Photon.Realtime.IMatchmaking</text>
<text text-anchor="middle" x="504" y="-203.5" font-family="Helvetica,sans-Serif" font-size="10.00">Callbacks.OnJoinedRoom</text>
</a>
</g>
</g>
<!-- Node9&#45;&gt;Node10 -->
<g id="edge9" class="edge">
<title>Node9&#45;&gt;Node10</title>
<path fill="none" stroke="midnightblue" d="M379,-211.5C391.72,-211.5 404.86,-211.5 417.61,-211.5"/>
<polygon fill="midnightblue" stroke="midnightblue" points="417.74,-215 427.74,-211.5 417.74,-208 417.74,-215"/>
</g>
<!-- Node11&#45;&gt;Node6 -->
<g id="edge13" class="edge">
<title>Node11&#45;&gt;Node6</title>
<path fill="none" stroke="midnightblue" d="M371.57,-98.33C388.06,-100.24 405.56,-102.26 422.21,-104.18"/>
<polygon fill="midnightblue" stroke="midnightblue" points="422.12,-107.69 432.46,-105.36 422.92,-100.74 422.12,-107.69"/>
</g>
<!-- Node12 -->
<g id="node12" class="node">
<title>Node12</title>
<g id="a_node12"><a xlink:href="class_photon_1_1_realtime_1_1_room.xhtml#ab41f8e8ab3cf7c212007684a9410e4b0" target="_top" xlink:title="Tries to find the player with given actorNumber (a.k.a.">
<polygon fill="white" stroke="black" points="436,-49.5 436,-79.5 572,-79.5 572,-49.5 436,-49.5"/>
<text text-anchor="start" x="444" y="-67.5" font-family="Helvetica,sans-Serif" font-size="10.00">Photon.Realtime.Room.Get</text>
<text text-anchor="middle" x="504" y="-56.5" font-family="Helvetica,sans-Serif" font-size="10.00">Player</text>
</a>
</g>
</g>
<!-- Node11&#45;&gt;Node12 -->
<g id="edge11" class="edge">
<title>Node11&#45;&gt;Node12</title>
<path fill="none" stroke="midnightblue" d="M371.57,-80.3C389.19,-78.18 407.94,-75.93 425.6,-73.8"/>
<polygon fill="midnightblue" stroke="midnightblue" points="426.34,-77.24 435.86,-72.57 425.51,-70.29 426.34,-77.24"/>
</g>
<!-- Node13 -->
<g id="node13" class="node">
<title>Node13</title>
<g id="a_node13"><a xlink:href="class_photon_1_1_realtime_1_1_load_balancing_client.xhtml#ae888bd1a45b4de8289f9df88d072d8c8" target="_top" xlink:title="Privately used only to read properties for a distinct actor (which might be the hashtable OR a key&#45;pa...">
<polygon fill="white" stroke="black" points="418,-0.5 418,-30.5 590,-30.5 590,-0.5 418,-0.5"/>
<text text-anchor="start" x="426" y="-18.5" font-family="Helvetica,sans-Serif" font-size="10.00">Photon.Realtime.LoadBalancing</text>
<text text-anchor="middle" x="504" y="-7.5" font-family="Helvetica,sans-Serif" font-size="10.00">Client.ReadoutPropertiesForActorNr</text>
</a>
</g>
</g>
<!-- Node11&#45;&gt;Node13 -->
<g id="edge12" class="edge">
<title>Node11&#45;&gt;Node13</title>
<path fill="none" stroke="midnightblue" d="M329.08,-74.46C353.55,-63.95 387.48,-49.98 418,-39.5 424,-37.44 430.27,-35.42 436.58,-33.48"/>
<polygon fill="midnightblue" stroke="midnightblue" points="437.92,-36.74 446.49,-30.51 435.91,-30.03 437.92,-36.74"/>
</g>
</g>
</svg>
        <g id="navigator" transform="translate(0 0)" fill="#404254">
                <rect fill="#f2f5e9" fill-opacity="0.5" stroke="#606060" stroke-width=".5" x="0" y="0" width="60" height="60"/>
                <use id="zoomplus" xlink:href="#zoomPlus" x="17" y="9" onmousedown="handleZoom(evt,'in')"/>
                <use id="zoomminus" xlink:href="#zoomMin" x="42" y="9" onmousedown="handleZoom(evt,'out')"/>
                <use id="reset" xlink:href="#resetDef" x="30" y="36" onmousedown="handleReset()"/>
                <g id="arrowUp" xlink:href="#dirArrow" transform="translate(30 24)" onmousedown="handlePan(0,-1)">
                  <use xlink:href="#rim" fill="#404040">
                        <set attributeName="fill" to="#808080" begin="arrowUp.mouseover" end="arrowUp.mouseout"/>
                  </use>
                  <path fill="none" stroke="white" stroke-width="1.5" d="M0,-3.0v7 M-2.5,-0.5L0,-3.0L2.5,-0.5"/>
                </g>
                <g id="arrowRight" xlink:href="#dirArrow" transform="rotate(90) translate(36 -43)" onmousedown="handlePan(1,0)">
                  <use xlink:href="#rim" fill="#404040">
                        <set attributeName="fill" to="#808080" begin="arrowRight.mouseover" end="arrowRight.mouseout"/>
                  </use>
                  <path fill="none" stroke="white" stroke-width="1.5" d="M0,-3.0v7 M-2.5,-0.5L0,-3.0L2.5,-0.5"/>
                </g>
                <g id="arrowDown" xlink:href="#dirArrow" transform="rotate(180) translate(-30 -48)" onmousedown="handlePan(0,1)">
                  <use xlink:href="#rim" fill="#404040">
                        <set attributeName="fill" to="#808080" begin="arrowDown.mouseover" end="arrowDown.mouseout"/>
                  </use>
                  <path fill="none" stroke="white" stroke-width="1.5" d="M0,-3.0v7 M-2.5,-0.5L0,-3.0L2.5,-0.5"/>
                </g>
                <g id="arrowLeft" xlink:href="#dirArrow" transform="rotate(270) translate(-36 17)" onmousedown="handlePan(-1,0)">
                  <use xlink:href="#rim" fill="#404040">
                        <set attributeName="fill" to="#808080" begin="arrowLeft.mouseover" end="arrowLeft.mouseout"/>
                  </use>
                  <path fill="none" stroke="white" stroke-width="1.5" d="M0,-3.0v7 M-2.5,-0.5L0,-3.0L2.5,-0.5"/>
                </g>
        </g>
        <svg viewBox="0 0 15 15" width="100%" height="30px" preserveAspectRatio="xMaxYMin meet">
         <g id="arrow_out" transform="scale(0.3 0.3)">
          <a xlink:href="class_photon_1_1_realtime_1_1_load_balancing_client_af70aa958d1dbc82306594c23e4027403_cgraph_org.svg" target="_base">
           <rect id="button" ry="5" rx="5" y="6" x="6" height="38" width="38"
                fill="#f2f5e9" fill-opacity="0.5" stroke="#606060" stroke-width="1.0"/>
           <path id="arrow"
             d="M 11.500037,31.436501 C 11.940474,20.09759 22.043105,11.32322 32.158766,21.979434 L 37.068811,17.246167 C 37.068811,17.246167 37.088388,32 37.088388,32 L 22.160133,31.978069 C 22.160133,31.978069 26.997745,27.140456 26.997745,27.140456 C 18.528582,18.264221 13.291696,25.230495 11.500037,31.436501 z"
             style="fill:#404040;"/>
          </a>
         </g>
        </svg>
</svg>
