<?xml version="1.0" encoding="UTF-8" standalone="no"?>
<!DOCTYPE svg PUBLIC "-//W3C//DTD SVG 1.1//EN"
 "http://www.w3.org/Graphics/SVG/1.1/DTD/svg11.dtd">
<!-- Generated by graphviz version 2.47.3 (20210619.1520)
 -->
<!-- Title: Photon.Realtime.LoadBalancingClient.OpSetCustomPropertiesOfActor Pages: 1 -->
<svg width="764pt" height="88pt"
 viewBox="0.00 0.00 764.00 88.00" xmlns="http://www.w3.org/2000/svg" xmlns:xlink="http://www.w3.org/1999/xlink">
<g id="graph0" class="graph" transform="scale(1 1) rotate(0) translate(4 84)">
<title>Photon.Realtime.LoadBalancingClient.OpSetCustomPropertiesOfActor</title>
<polygon fill="white" stroke="transparent" points="-4,4 -4,-84 760,-84 760,4 -4,4"/>
<!-- Node1 -->
<g id="node1" class="node">
<title>Node1</title>
<g id="a_node1"><a xlink:title="Updates and synchronizes a Player&#39;s Custom Properties.">
<polygon fill="#bfbfbf" stroke="black" points="0,-24.5 0,-54.5 183,-54.5 183,-24.5 0,-24.5"/>
<text text-anchor="start" x="8" y="-42.5" font-family="Helvetica,sans-Serif" font-size="10.00">Photon.Realtime.LoadBalancing</text>
<text text-anchor="middle" x="91.5" y="-31.5" font-family="Helvetica,sans-Serif" font-size="10.00">Client.OpSetCustomPropertiesOfActor</text>
</a>
</g>
</g>
<!-- Node2 -->
<g id="node2" class="node">
<title>Node2</title>
<g id="a_node2"><a xlink:href="class_photon_1_1_realtime_1_1_load_balancing_client.xhtml#a69dd43d4c7211b5b83cd54d0ebcf79e7" target="_top" xlink:title="Debug output of low level api (and this client).">
<polygon fill="white" stroke="black" points="219,-49.5 219,-79.5 374,-79.5 374,-49.5 219,-49.5"/>
<text text-anchor="start" x="227" y="-67.5" font-family="Helvetica,sans-Serif" font-size="10.00">Photon.Realtime.LoadBalancing</text>
<text text-anchor="middle" x="296.5" y="-56.5" font-family="Helvetica,sans-Serif" font-size="10.00">Client.DebugReturn</text>
</a>
</g>
</g>
<!-- Node1&#45;&gt;Node2 -->
<g id="edge1" class="edge">
<title>Node1&#45;&gt;Node2</title>
<path fill="none" stroke="midnightblue" d="M183.02,-50.65C191.6,-51.7 200.3,-52.78 208.85,-53.83"/>
<polygon fill="midnightblue" stroke="midnightblue" points="208.45,-57.31 218.8,-55.05 209.31,-50.36 208.45,-57.31"/>
</g>
<!-- Node5 -->
<g id="node5" class="node">
<title>Node5</title>
<g id="a_node5"><a xlink:href="class_photon_1_1_realtime_1_1_player.xhtml#a73de822cb4ab788e9dce94795566a656" target="_top" xlink:title="Updates and synchronizes this Player&#39;s Custom Properties.">
<polygon fill="white" stroke="black" points="228,-0.5 228,-30.5 365,-30.5 365,-0.5 228,-0.5"/>
<text text-anchor="start" x="236" y="-18.5" font-family="Helvetica,sans-Serif" font-size="10.00">Photon.Realtime.Player.Set</text>
<text text-anchor="middle" x="296.5" y="-7.5" font-family="Helvetica,sans-Serif" font-size="10.00">CustomProperties</text>
</a>
</g>
</g>
<!-- Node1&#45;&gt;Node5 -->
<g id="edge4" class="edge">
<title>Node1&#45;&gt;Node5</title>
<path fill="none" stroke="midnightblue" d="M183.02,-28.8C194.71,-27.42 206.6,-26.01 218.06,-24.66"/>
<polygon fill="midnightblue" stroke="midnightblue" points="218.48,-28.13 228,-23.48 217.66,-21.18 218.48,-28.13"/>
</g>
<!-- Node3 -->
<g id="node3" class="node">
<title>Node3</title>
<g id="a_node3"><a xlink:href="class_photon_1_1_realtime_1_1_load_balancing_peer.xhtml#a7f48b5f0c44ef0c67ef32f147ff87246" target="_top" xlink:title="Creates a Peer with specified connection protocol.">
<polygon fill="white" stroke="black" points="410,-49.5 410,-79.5 565,-79.5 565,-49.5 410,-49.5"/>
<text text-anchor="start" x="418" y="-67.5" font-family="Helvetica,sans-Serif" font-size="10.00">Photon.Realtime.LoadBalancing</text>
<text text-anchor="middle" x="487.5" y="-56.5" font-family="Helvetica,sans-Serif" font-size="10.00">Peer.LoadBalancingPeer</text>
</a>
</g>
</g>
<!-- Node2&#45;&gt;Node3 -->
<g id="edge2" class="edge">
<title>Node2&#45;&gt;Node3</title>
<path fill="none" stroke="midnightblue" d="M374.1,-64.5C382.56,-64.5 391.22,-64.5 399.79,-64.5"/>
<polygon fill="midnightblue" stroke="midnightblue" points="399.79,-68 409.79,-64.5 399.79,-61 399.79,-68"/>
</g>
<!-- Node4 -->
<g id="node4" class="node">
<title>Node4</title>
<g id="a_node4"><a xlink:href="class_photon_1_1_realtime_1_1_load_balancing_peer.xhtml#affaff7e1fdffe86b25156ffac5e738c9" target="_top" xlink:title=" ">
<polygon fill="white" stroke="black" points="601,-49.5 601,-79.5 756,-79.5 756,-49.5 601,-49.5"/>
<text text-anchor="start" x="609" y="-67.5" font-family="Helvetica,sans-Serif" font-size="10.00">Photon.Realtime.LoadBalancing</text>
<text text-anchor="middle" x="678.5" y="-56.5" font-family="Helvetica,sans-Serif" font-size="10.00">Peer.ConfigUnitySockets</text>
</a>
</g>
</g>
<!-- Node3&#45;&gt;Node4 -->
<g id="edge3" class="edge">
<title>Node3&#45;&gt;Node4</title>
<path fill="none" stroke="midnightblue" d="M565.1,-64.5C573.56,-64.5 582.22,-64.5 590.79,-64.5"/>
<polygon fill="midnightblue" stroke="midnightblue" points="590.79,-68 600.79,-64.5 590.79,-61 590.79,-68"/>
</g>
</g>
</svg>
