<?xml version="1.0" encoding="UTF-8" standalone="no"?>
<!DOCTYPE svg PUBLIC "-//W3C//DTD SVG 1.1//EN"
 "http://www.w3.org/Graphics/SVG/1.1/DTD/svg11.dtd">
<!-- Generated by graphviz version 2.47.3 (20210619.1520)
 -->
<!-- Title: Photon.Pun.PunSceneSettings Pages: 1 -->
<svg width="239pt" height="85pt"
 viewBox="0.00 0.00 239.00 85.00" xmlns="http://www.w3.org/2000/svg" xmlns:xlink="http://www.w3.org/1999/xlink">
<g id="graph0" class="graph" transform="scale(1 1) rotate(0) translate(4 81)">
<title>Photon.Pun.PunSceneSettings</title>
<polygon fill="white" stroke="transparent" points="-4,4 -4,-81 235,-81 235,4 -4,4"/>
<!-- Node1 -->
<g id="node1" class="node">
<title>Node1</title>
<g id="a_node1"><a xlink:title=" ">
<polygon fill="#bfbfbf" stroke="black" points="0,-0.5 0,-19.5 152,-19.5 152,-0.5 0,-0.5"/>
<text text-anchor="middle" x="76" y="-7.5" font-family="Helvetica,sans-Serif" font-size="10.00">Photon.Pun.PunSceneSettings</text>
</a>
</g>
</g>
<!-- Node1&#45;&gt;Node1 -->
<g id="edge2" class="edge">
<title>Node1&#45;&gt;Node1</title>
<path fill="none" stroke="#9a32cd" stroke-dasharray="5,2" d="M162.58,-13.48C167.24,-12.63 170,-11.47 170,-10 170,-7.65 162.93,-6.09 152.35,-5.32"/>
<polygon fill="#9a32cd" stroke="#9a32cd" points="161.87,-10.04 152.35,-14.68 162.69,-17 161.87,-10.04"/>
<text text-anchor="middle" x="200.5" y="-7.5" font-family="Helvetica,sans-Serif" font-size="10.00"> instanceField</text>
</g>
<!-- Node2 -->
<g id="node2" class="node">
<title>Node2</title>
<g id="a_node2"><a xlink:title=" ">
<polygon fill="white" stroke="#bfbfbf" points="31.5,-57.5 31.5,-76.5 120.5,-76.5 120.5,-57.5 31.5,-57.5"/>
<text text-anchor="middle" x="76" y="-64.5" font-family="Helvetica,sans-Serif" font-size="10.00">ScriptableObject</text>
</a>
</g>
</g>
<!-- Node2&#45;&gt;Node1 -->
<g id="edge1" class="edge">
<title>Node2&#45;&gt;Node1</title>
<path fill="none" stroke="midnightblue" d="M76,-47.12C76,-37.82 76,-27.06 76,-19.71"/>
<polygon fill="midnightblue" stroke="midnightblue" points="72.5,-47.41 76,-57.41 79.5,-47.41 72.5,-47.41"/>
</g>
</g>
</svg>
