<?xml version="1.0" encoding="UTF-8" standalone="no"?>
<!DOCTYPE svg PUBLIC "-//W3C//DTD SVG 1.1//EN"
 "http://www.w3.org/Graphics/SVG/1.1/DTD/svg11.dtd">
<!-- Generated by graphviz version 2.47.3 (20210619.1520)
 -->
<!-- Title: Photon.Pun.UtilityScripts.CountdownTimer.Initialize Pages: 1 -->
<svg width="336pt" height="186pt"
 viewBox="0.00 0.00 336.00 186.00" xmlns="http://www.w3.org/2000/svg" xmlns:xlink="http://www.w3.org/1999/xlink">
<g id="graph0" class="graph" transform="scale(1 1) rotate(0) translate(4 182)">
<title>Photon.Pun.UtilityScripts.CountdownTimer.Initialize</title>
<polygon fill="white" stroke="transparent" points="-4,4 -4,-182 332,-182 332,4 -4,4"/>
<!-- Node1 -->
<g id="node1" class="node">
<title>Node1</title>
<g id="a_node1"><a xlink:title=" ">
<polygon fill="#bfbfbf" stroke="black" points="0,-73.5 0,-103.5 129,-103.5 129,-73.5 0,-73.5"/>
<text text-anchor="start" x="8" y="-91.5" font-family="Helvetica,sans-Serif" font-size="10.00">Photon.Pun.UtilityScripts.</text>
<text text-anchor="middle" x="64.5" y="-80.5" font-family="Helvetica,sans-Serif" font-size="10.00">CountdownTimer.Initialize</text>
</a>
</g>
</g>
<!-- Node2 -->
<g id="node2" class="node">
<title>Node2</title>
<g id="a_node2"><a xlink:href="class_photon_1_1_pun_1_1_utility_scripts_1_1_countdown_timer.xhtml#ae32728e62e47922835aedd6031974183" target="_top" xlink:title=" ">
<polygon fill="white" stroke="black" points="171,-147.5 171,-177.5 322,-177.5 322,-147.5 171,-147.5"/>
<text text-anchor="start" x="179" y="-165.5" font-family="Helvetica,sans-Serif" font-size="10.00">Photon.Pun.UtilityScripts.</text>
<text text-anchor="middle" x="246.5" y="-154.5" font-family="Helvetica,sans-Serif" font-size="10.00">CountdownTimer.OnTimerEnds</text>
</a>
</g>
</g>
<!-- Node1&#45;&gt;Node2 -->
<g id="edge1" class="edge">
<title>Node1&#45;&gt;Node2</title>
<path fill="none" stroke="midnightblue" d="M92.36,-103.62C112.05,-114.3 139.66,-128.45 165,-138.5 170,-140.48 175.23,-142.39 180.52,-144.21"/>
<polygon fill="midnightblue" stroke="midnightblue" points="179.47,-147.55 190.07,-147.37 181.67,-140.91 179.47,-147.55"/>
</g>
<!-- Node3 -->
<g id="node3" class="node">
<title>Node3</title>
<g id="a_node3"><a xlink:href="class_photon_1_1_pun_1_1_utility_scripts_1_1_countdown_timer.xhtml#a3bb640f93a29e42c3ac5b92cccd1491a" target="_top" xlink:title=" ">
<polygon fill="white" stroke="black" points="171,-98.5 171,-128.5 322,-128.5 322,-98.5 171,-98.5"/>
<text text-anchor="start" x="179" y="-116.5" font-family="Helvetica,sans-Serif" font-size="10.00">Photon.Pun.UtilityScripts.</text>
<text text-anchor="middle" x="246.5" y="-105.5" font-family="Helvetica,sans-Serif" font-size="10.00">CountdownTimer.OnTimerRuns</text>
</a>
</g>
</g>
<!-- Node1&#45;&gt;Node3 -->
<g id="edge2" class="edge">
<title>Node1&#45;&gt;Node3</title>
<path fill="none" stroke="midnightblue" d="M129.21,-97.35C139.41,-98.76 150.09,-100.25 160.68,-101.72"/>
<polygon fill="midnightblue" stroke="midnightblue" points="160.4,-105.21 170.79,-103.12 161.37,-98.28 160.4,-105.21"/>
</g>
<!-- Node4 -->
<g id="node4" class="node">
<title>Node4</title>
<g id="a_node4"><a xlink:href="class_photon_1_1_pun_1_1_utility_scripts_1_1_countdown_timer.xhtml#a5299606ca6b3019a5aeff8ad338303d1" target="_top" xlink:title=" ">
<polygon fill="white" stroke="black" points="167.5,-49.5 167.5,-79.5 325.5,-79.5 325.5,-49.5 167.5,-49.5"/>
<text text-anchor="start" x="175.5" y="-67.5" font-family="Helvetica,sans-Serif" font-size="10.00">Photon.Pun.UtilityScripts.</text>
<text text-anchor="middle" x="246.5" y="-56.5" font-family="Helvetica,sans-Serif" font-size="10.00">CountdownTimer.TimeRemaining</text>
</a>
</g>
</g>
<!-- Node1&#45;&gt;Node4 -->
<g id="edge3" class="edge">
<title>Node1&#45;&gt;Node4</title>
<path fill="none" stroke="midnightblue" d="M129.21,-80C138.28,-78.8 147.73,-77.54 157.15,-76.28"/>
<polygon fill="midnightblue" stroke="midnightblue" points="157.9,-79.71 167.35,-74.92 156.98,-72.77 157.9,-79.71"/>
</g>
<!-- Node5 -->
<g id="node5" class="node">
<title>Node5</title>
<g id="a_node5"><a xlink:href="class_photon_1_1_pun_1_1_utility_scripts_1_1_countdown_timer.xhtml#a07448f5cc909eb45bf1fe81d037f1860" target="_top" xlink:title=" ">
<polygon fill="white" stroke="black" points="165,-0.5 165,-30.5 328,-30.5 328,-0.5 165,-0.5"/>
<text text-anchor="start" x="173" y="-18.5" font-family="Helvetica,sans-Serif" font-size="10.00">Photon.Pun.UtilityScripts.</text>
<text text-anchor="middle" x="246.5" y="-7.5" font-family="Helvetica,sans-Serif" font-size="10.00">CountdownTimer.TryGetStartTime</text>
</a>
</g>
</g>
<!-- Node1&#45;&gt;Node5 -->
<g id="edge4" class="edge">
<title>Node1&#45;&gt;Node5</title>
<path fill="none" stroke="midnightblue" d="M93.74,-73.49C113.39,-63.39 140.37,-50.2 165,-40.5 170.9,-38.18 177.1,-35.92 183.34,-33.78"/>
<polygon fill="midnightblue" stroke="midnightblue" points="184.76,-37 193.14,-30.52 182.55,-30.36 184.76,-37"/>
</g>
</g>
</svg>
