<?xml version="1.0" encoding="UTF-8" standalone="no"?>
<!DOCTYPE svg PUBLIC "-//W3C//DTD SVG 1.1//EN"
 "http://www.w3.org/Graphics/SVG/1.1/DTD/svg11.dtd">
<!-- Generated by graphviz version 2.47.3 (20210619.1520)
 -->
<!-- Title: Photon.Pun.Demo.Asteroids.AsteroidsGameManager.SpawnAsteroid Pages: 1 -->
<!--zoomable 124 -->
<svg id="main" version="1.1" xmlns="http://www.w3.org/2000/svg" xmlns:xlink="http://www.w3.org/1999/xlink" xml:space="preserve" onload="init(evt)">
<style type="text/css"><![CDATA[
.edge:hover path { stroke: red; }
.edge:hover polygon { stroke: red; fill: red; }
]]></style>
<script type="text/javascript"><![CDATA[
var edges = document.getElementsByTagName('g');
if (edges && edges.length) {
  for (var i=0;i<edges.length;i++) {
    if (edges[i].id.substr(0,4)=='edge') {
      edges[i].setAttribute('class','edge');
    }
  }
}
]]></script>
        <defs>
                <circle id="rim" cx="0" cy="0" r="7"/>
                <circle id="rim2" cx="0" cy="0" r="3.5"/>
                <g id="zoomPlus">
                        <use xlink:href="#rim" fill="#404040">
                                <set attributeName="fill" to="#808080" begin="zoomplus.mouseover" end="zoomplus.mouseout"/>
                        </use>
                        <path d="M-4,0h8M0,-4v8" fill="none" stroke="white" stroke-width="1.5" pointer-events="none"/>
                </g>
                <g id="zoomMin">
                        <use xlink:href="#rim" fill="#404040">
                                <set attributeName="fill" to="#808080" begin="zoomminus.mouseover" end="zoomminus.mouseout"/>
                        </use>
                        <path d="M-4,0h8" fill="none" stroke="white" stroke-width="1.5" pointer-events="none"/>
                </g>
                <g id="dirArrow">
                        <path fill="none" stroke="white" stroke-width="1.5" d="M0,-3.0v7 M-2.5,-0.5L0,-3.0L2.5,-0.5"/>
                </g>
               <g id="resetDef">
                       <use xlink:href="#rim2" fill="#404040">
                               <set attributeName="fill" to="#808080" begin="reset.mouseover" end="reset.mouseout"/>
                       </use>
               </g>
        </defs>

<script type="text/javascript">
var viewWidth = 853;
var viewHeight = 124;
var sectionId = 'dynsection-16';
</script>
<script xlink:href="svgpan.js"/>
<svg id="graph" class="graph">
<g id="viewport">
<title>Photon.Pun.Demo.Asteroids.AsteroidsGameManager.SpawnAsteroid</title>
<polygon fill="white" stroke="transparent" points="-4,4 -4,-119.5 849,-119.5 849,4 -4,4"/>
<!-- Node1 -->
<g id="node1" class="node">
<title>Node1</title>
<g id="a_node1"><a xlink:title=" ">
<polygon fill="#bfbfbf" stroke="black" points="655,-51.5 655,-81.5 845,-81.5 845,-51.5 655,-51.5"/>
<text text-anchor="start" x="663" y="-69.5" font-family="Helvetica,sans-Serif" font-size="10.00">Photon.Pun.Demo.Asteroids.</text>
<text text-anchor="middle" x="750" y="-58.5" font-family="Helvetica,sans-Serif" font-size="10.00">AsteroidsGameManager.SpawnAsteroid</text>
</a>
</g>
</g>
<!-- Node2 -->
<g id="node2" class="node">
<title>Node2</title>
<g id="a_node2"><a xlink:href="class_photon_1_1_pun_1_1_demo_1_1_asteroids_1_1_asteroids_game_manager.xhtml#ae658877b4b1404ae65490bd2fea91759" target="_top" xlink:title="Called after switching to a new MasterClient when the current one leaves.">
<polygon fill="white" stroke="black" points="427,-74 427,-115 619,-115 619,-74 427,-74"/>
<text text-anchor="start" x="435" y="-103" font-family="Helvetica,sans-Serif" font-size="10.00">Photon.Pun.Demo.Asteroids.</text>
<text text-anchor="start" x="435" y="-92" font-family="Helvetica,sans-Serif" font-size="10.00">AsteroidsGameManager.OnMasterClient</text>
<text text-anchor="middle" x="523" y="-81" font-family="Helvetica,sans-Serif" font-size="10.00">Switched</text>
</a>
</g>
</g>
<!-- Node1&#45;&gt;Node2 -->
<g id="edge1" class="edge">
<title>Node1&#45;&gt;Node2</title>
<path fill="none" stroke="midnightblue" d="M644.87,-79.46C636.31,-80.52 627.68,-81.6 619.19,-82.65"/>
<polygon fill="midnightblue" stroke="midnightblue" points="645.39,-82.92 654.88,-78.21 644.53,-75.97 645.39,-82.92"/>
</g>
<!-- Node3 -->
<g id="node3" class="node">
<title>Node3</title>
<g id="a_node3"><a xlink:href="class_photon_1_1_pun_1_1_demo_1_1_asteroids_1_1_asteroids_game_manager.xhtml#a8f0cbc452ca5141a8e777bef5794c0f1" target="_top" xlink:title=" ">
<polygon fill="white" stroke="black" points="437,-24.5 437,-54.5 609,-54.5 609,-24.5 437,-24.5"/>
<text text-anchor="start" x="445" y="-42.5" font-family="Helvetica,sans-Serif" font-size="10.00">Photon.Pun.Demo.Asteroids.</text>
<text text-anchor="middle" x="523" y="-31.5" font-family="Helvetica,sans-Serif" font-size="10.00">AsteroidsGameManager.StartGame</text>
</a>
</g>
</g>
<!-- Node1&#45;&gt;Node3 -->
<g id="edge2" class="edge">
<title>Node1&#45;&gt;Node3</title>
<path fill="none" stroke="midnightblue" d="M644.87,-54C632.9,-52.57 620.81,-51.12 609.13,-49.72"/>
<polygon fill="midnightblue" stroke="midnightblue" points="644.54,-57.49 654.88,-55.21 645.37,-50.54 644.54,-57.49"/>
</g>
<!-- Node4 -->
<g id="node4" class="node">
<title>Node4</title>
<g id="a_node4"><a xlink:href="class_photon_1_1_pun_1_1_demo_1_1_asteroids_1_1_asteroids_game_manager.xhtml#a3651fb672cdb24b35a534135ad9c607d" target="_top" xlink:title=" ">
<polygon fill="white" stroke="black" points="206,-19 206,-60 391,-60 391,-19 206,-19"/>
<text text-anchor="start" x="214" y="-48" font-family="Helvetica,sans-Serif" font-size="10.00">Photon.Pun.Demo.Asteroids.</text>
<text text-anchor="start" x="214" y="-37" font-family="Helvetica,sans-Serif" font-size="10.00">AsteroidsGameManager.OnCountdown</text>
<text text-anchor="middle" x="298.5" y="-26" font-family="Helvetica,sans-Serif" font-size="10.00">TimerIsExpired</text>
</a>
</g>
</g>
<!-- Node3&#45;&gt;Node4 -->
<g id="edge3" class="edge">
<title>Node3&#45;&gt;Node4</title>
<path fill="none" stroke="midnightblue" d="M426.67,-39.5C414.9,-39.5 402.9,-39.5 391.19,-39.5"/>
<polygon fill="midnightblue" stroke="midnightblue" points="426.93,-43 436.93,-39.5 426.93,-36 426.93,-43"/>
</g>
<!-- Node5 -->
<g id="node5" class="node">
<title>Node5</title>
<g id="a_node5"><a xlink:href="class_photon_1_1_pun_1_1_demo_1_1_asteroids_1_1_asteroids_game_manager.xhtml#aaabb84195392790ecfa4c21c5028aaf0" target="_top" xlink:title=" ">
<polygon fill="white" stroke="black" points="0,-49.5 0,-79.5 170,-79.5 170,-49.5 0,-49.5"/>
<text text-anchor="start" x="8" y="-67.5" font-family="Helvetica,sans-Serif" font-size="10.00">Photon.Pun.Demo.Asteroids.</text>
<text text-anchor="middle" x="85" y="-56.5" font-family="Helvetica,sans-Serif" font-size="10.00">AsteroidsGameManager.OnDisable</text>
</a>
</g>
</g>
<!-- Node4&#45;&gt;Node5 -->
<g id="edge4" class="edge">
<title>Node4&#45;&gt;Node5</title>
<path fill="none" stroke="midnightblue" d="M195.84,-51.52C187.19,-52.54 178.5,-53.57 170.01,-54.57"/>
<polygon fill="midnightblue" stroke="midnightblue" points="196.44,-54.97 205.96,-50.32 195.62,-48.02 196.44,-54.97"/>
</g>
<!-- Node6 -->
<g id="node6" class="node">
<title>Node6</title>
<g id="a_node6"><a xlink:href="class_photon_1_1_pun_1_1_demo_1_1_asteroids_1_1_asteroids_game_manager.xhtml#ab79592fe0c9dd5e839c1dab28ab68a9a" target="_top" xlink:title=" ">
<polygon fill="white" stroke="black" points="1.5,-0.5 1.5,-30.5 168.5,-30.5 168.5,-0.5 1.5,-0.5"/>
<text text-anchor="start" x="9.5" y="-18.5" font-family="Helvetica,sans-Serif" font-size="10.00">Photon.Pun.Demo.Asteroids.</text>
<text text-anchor="middle" x="85" y="-7.5" font-family="Helvetica,sans-Serif" font-size="10.00">AsteroidsGameManager.OnEnable</text>
</a>
</g>
</g>
<!-- Node4&#45;&gt;Node6 -->
<g id="edge5" class="edge">
<title>Node4&#45;&gt;Node6</title>
<path fill="none" stroke="midnightblue" d="M195.75,-27.95C186.68,-26.92 177.57,-25.89 168.69,-24.88"/>
<polygon fill="midnightblue" stroke="midnightblue" points="195.63,-31.46 205.96,-29.11 196.42,-24.51 195.63,-31.46"/>
</g>
</g>
</svg>
        <g id="navigator" transform="translate(0 0)" fill="#404254">
                <rect fill="#f2f5e9" fill-opacity="0.5" stroke="#606060" stroke-width=".5" x="0" y="0" width="60" height="60"/>
                <use id="zoomplus" xlink:href="#zoomPlus" x="17" y="9" onmousedown="handleZoom(evt,'in')"/>
                <use id="zoomminus" xlink:href="#zoomMin" x="42" y="9" onmousedown="handleZoom(evt,'out')"/>
                <use id="reset" xlink:href="#resetDef" x="30" y="36" onmousedown="handleReset()"/>
                <g id="arrowUp" xlink:href="#dirArrow" transform="translate(30 24)" onmousedown="handlePan(0,-1)">
                  <use xlink:href="#rim" fill="#404040">
                        <set attributeName="fill" to="#808080" begin="arrowUp.mouseover" end="arrowUp.mouseout"/>
                  </use>
                  <path fill="none" stroke="white" stroke-width="1.5" d="M0,-3.0v7 M-2.5,-0.5L0,-3.0L2.5,-0.5"/>
                </g>
                <g id="arrowRight" xlink:href="#dirArrow" transform="rotate(90) translate(36 -43)" onmousedown="handlePan(1,0)">
                  <use xlink:href="#rim" fill="#404040">
                        <set attributeName="fill" to="#808080" begin="arrowRight.mouseover" end="arrowRight.mouseout"/>
                  </use>
                  <path fill="none" stroke="white" stroke-width="1.5" d="M0,-3.0v7 M-2.5,-0.5L0,-3.0L2.5,-0.5"/>
                </g>
                <g id="arrowDown" xlink:href="#dirArrow" transform="rotate(180) translate(-30 -48)" onmousedown="handlePan(0,1)">
                  <use xlink:href="#rim" fill="#404040">
                        <set attributeName="fill" to="#808080" begin="arrowDown.mouseover" end="arrowDown.mouseout"/>
                  </use>
                  <path fill="none" stroke="white" stroke-width="1.5" d="M0,-3.0v7 M-2.5,-0.5L0,-3.0L2.5,-0.5"/>
                </g>
                <g id="arrowLeft" xlink:href="#dirArrow" transform="rotate(270) translate(-36 17)" onmousedown="handlePan(-1,0)">
                  <use xlink:href="#rim" fill="#404040">
                        <set attributeName="fill" to="#808080" begin="arrowLeft.mouseover" end="arrowLeft.mouseout"/>
                  </use>
                  <path fill="none" stroke="white" stroke-width="1.5" d="M0,-3.0v7 M-2.5,-0.5L0,-3.0L2.5,-0.5"/>
                </g>
        </g>
        <svg viewBox="0 0 15 15" width="100%" height="30px" preserveAspectRatio="xMaxYMin meet">
         <g id="arrow_out" transform="scale(0.3 0.3)">
          <a xlink:href="class_photon_1_1_pun_1_1_demo_1_1_asteroids_1_1_asteroids_game_manager_afe9f216cfb605421f3bca02acc622c38_icgraph_org.svg" target="_base">
           <rect id="button" ry="5" rx="5" y="6" x="6" height="38" width="38"
                fill="#f2f5e9" fill-opacity="0.5" stroke="#606060" stroke-width="1.0"/>
           <path id="arrow"
             d="M 11.500037,31.436501 C 11.940474,20.09759 22.043105,11.32322 32.158766,21.979434 L 37.068811,17.246167 C 37.068811,17.246167 37.088388,32 37.088388,32 L 22.160133,31.978069 C 22.160133,31.978069 26.997745,27.140456 26.997745,27.140456 C 18.528582,18.264221 13.291696,25.230495 11.500037,31.436501 z"
             style="fill:#404040;"/>
          </a>
         </g>
        </svg>
</svg>
