<?xml version="1.0" encoding="UTF-8" standalone="no"?>
<!DOCTYPE svg PUBLIC "-//W3C//DTD SVG 1.1//EN"
 "http://www.w3.org/Graphics/SVG/1.1/DTD/svg11.dtd">
<!-- Generated by graphviz version 2.47.3 (20210619.1520)
 -->
<!-- Title: Photon.Realtime.LoadBalancingPeer.OpGetGameList Pages: 1 -->
<svg width="705pt" height="39pt"
 viewBox="0.00 0.00 705.00 39.00" xmlns="http://www.w3.org/2000/svg" xmlns:xlink="http://www.w3.org/1999/xlink">
<g id="graph0" class="graph" transform="scale(1 1) rotate(0) translate(4 35)">
<title>Photon.Realtime.LoadBalancingPeer.OpGetGameList</title>
<polygon fill="white" stroke="transparent" points="-4,4 -4,-35 701,-35 701,4 -4,4"/>
<!-- Node1 -->
<g id="node1" class="node">
<title>Node1</title>
<g id="a_node1"><a xlink:title="Gets a list of games matching a SQL&#45;like where clause.">
<polygon fill="#bfbfbf" stroke="black" points="542,-0.5 542,-30.5 697,-30.5 697,-0.5 542,-0.5"/>
<text text-anchor="start" x="550" y="-18.5" font-family="Helvetica,sans-Serif" font-size="10.00">Photon.Realtime.LoadBalancing</text>
<text text-anchor="middle" x="619.5" y="-7.5" font-family="Helvetica,sans-Serif" font-size="10.00">Peer.OpGetGameList</text>
</a>
</g>
</g>
<!-- Node2 -->
<g id="node2" class="node">
<title>Node2</title>
<g id="a_node2"><a xlink:href="class_photon_1_1_realtime_1_1_load_balancing_client.xhtml#a75d08cfcf7bee521dc57cd21a299d047" target="_top" xlink:title="Gets a list of rooms matching the (non empty) SQL filter for the given SQL&#45;typed lobby.">
<polygon fill="white" stroke="black" points="351,-0.5 351,-30.5 506,-30.5 506,-0.5 351,-0.5"/>
<text text-anchor="start" x="359" y="-18.5" font-family="Helvetica,sans-Serif" font-size="10.00">Photon.Realtime.LoadBalancing</text>
<text text-anchor="middle" x="428.5" y="-7.5" font-family="Helvetica,sans-Serif" font-size="10.00">Client.OpGetGameList</text>
</a>
</g>
</g>
<!-- Node1&#45;&gt;Node2 -->
<g id="edge1" class="edge">
<title>Node1&#45;&gt;Node2</title>
<path fill="none" stroke="midnightblue" d="M531.9,-15.5C523.33,-15.5 514.67,-15.5 506.21,-15.5"/>
<polygon fill="midnightblue" stroke="midnightblue" points="531.9,-19 541.9,-15.5 531.9,-12 531.9,-19"/>
</g>
<!-- Node3 -->
<g id="node3" class="node">
<title>Node3</title>
<g id="a_node3"><a xlink:href="class_photon_1_1_pun_1_1_photon_network.xhtml#aeede03b2d9c3d09b972437316adc435d" target="_top" xlink:title="Fetches a custom list of games from the server, matching a (non&#45;empty) SQL&#45;like filter.">
<polygon fill="white" stroke="black" points="175,-0.5 175,-30.5 315,-30.5 315,-0.5 175,-0.5"/>
<text text-anchor="start" x="183" y="-18.5" font-family="Helvetica,sans-Serif" font-size="10.00">Photon.Pun.PhotonNetwork.</text>
<text text-anchor="middle" x="245" y="-7.5" font-family="Helvetica,sans-Serif" font-size="10.00">GetCustomRoomList</text>
</a>
</g>
</g>
<!-- Node2&#45;&gt;Node3 -->
<g id="edge2" class="edge">
<title>Node2&#45;&gt;Node3</title>
<path fill="none" stroke="midnightblue" d="M340.77,-15.5C332.2,-15.5 323.59,-15.5 315.23,-15.5"/>
<polygon fill="midnightblue" stroke="midnightblue" points="340.79,-19 350.79,-15.5 340.79,-12 340.79,-19"/>
</g>
<!-- Node4 -->
<g id="node4" class="node">
<title>Node4</title>
<g id="a_node4"><a xlink:href="class_photon_1_1_pun_1_1_demo_1_1_cockpit_1_1_room_list_view.xhtml#a4bccf37529af15f6c4c6094e2452382e" target="_top" xlink:title=" ">
<polygon fill="white" stroke="black" points="0,-0.5 0,-30.5 139,-30.5 139,-0.5 0,-0.5"/>
<text text-anchor="start" x="8" y="-18.5" font-family="Helvetica,sans-Serif" font-size="10.00">Photon.Pun.Demo.Cockpit.</text>
<text text-anchor="middle" x="69.5" y="-7.5" font-family="Helvetica,sans-Serif" font-size="10.00">RoomListView.GetRoomList</text>
</a>
</g>
</g>
<!-- Node3&#45;&gt;Node4 -->
<g id="edge3" class="edge">
<title>Node3&#45;&gt;Node4</title>
<path fill="none" stroke="midnightblue" d="M164.88,-15.5C156.25,-15.5 147.53,-15.5 139.05,-15.5"/>
<polygon fill="midnightblue" stroke="midnightblue" points="164.93,-19 174.93,-15.5 164.93,-12 164.93,-19"/>
</g>
</g>
</svg>
