<?xml version="1.0" encoding="UTF-8" standalone="no"?>
<!DOCTYPE svg PUBLIC "-//W3C//DTD SVG 1.1//EN"
 "http://www.w3.org/Graphics/SVG/1.1/DTD/svg11.dtd">
<!-- Generated by graphviz version 2.47.3 (20210619.1520)
 -->
<!-- Title: Photon.Pun.PhotonNetwork.Disconnect Pages: 1 -->
<svg width="695pt" height="235pt"
 viewBox="0.00 0.00 695.00 235.00" xmlns="http://www.w3.org/2000/svg" xmlns:xlink="http://www.w3.org/1999/xlink">
<g id="graph0" class="graph" transform="scale(1 1) rotate(0) translate(4 231)">
<title>Photon.Pun.PhotonNetwork.Disconnect</title>
<polygon fill="white" stroke="transparent" points="-4,4 -4,-231 691,-231 691,4 -4,4"/>
<!-- Node1 -->
<g id="node1" class="node">
<title>Node1</title>
<g id="a_node1"><a xlink:title="Makes this client disconnect from the photon server, a process that leaves any room and calls OnDisco...">
<polygon fill="#bfbfbf" stroke="black" points="547,-98.5 547,-128.5 687,-128.5 687,-98.5 547,-98.5"/>
<text text-anchor="start" x="555" y="-116.5" font-family="Helvetica,sans-Serif" font-size="10.00">Photon.Pun.PhotonNetwork.</text>
<text text-anchor="middle" x="617" y="-105.5" font-family="Helvetica,sans-Serif" font-size="10.00">Disconnect</text>
</a>
</g>
</g>
<!-- Node2 -->
<g id="node2" class="node">
<title>Node2</title>
<g id="a_node2"><a xlink:href="class_photon_1_1_pun_1_1_demo_1_1_hub_1_1_to_demo_hub_button.xhtml#a83cf2b61cc387ebc9fc311480833e857" target="_top" xlink:title=" ">
<polygon fill="white" stroke="black" points="344,-196.5 344,-226.5 499,-226.5 499,-196.5 344,-196.5"/>
<text text-anchor="start" x="352" y="-214.5" font-family="Helvetica,sans-Serif" font-size="10.00">Photon.Pun.Demo.Hub.ToDemo</text>
<text text-anchor="middle" x="421.5" y="-203.5" font-family="Helvetica,sans-Serif" font-size="10.00">HubButton.BackToHub</text>
</a>
</g>
</g>
<!-- Node1&#45;&gt;Node2 -->
<g id="edge1" class="edge">
<title>Node1&#45;&gt;Node2</title>
<path fill="none" stroke="midnightblue" d="M590.78,-135.11C570.43,-151.56 540.45,-173.66 511,-187.5 503.8,-190.89 496.03,-193.86 488.2,-196.47"/>
<polygon fill="midnightblue" stroke="midnightblue" points="593.11,-137.72 598.62,-128.67 588.67,-132.32 593.11,-137.72"/>
</g>
<!-- Node3 -->
<g id="node3" class="node">
<title>Node3</title>
<g id="a_node3"><a xlink:href="class_photon_1_1_pun_1_1_demo_1_1_cockpit_1_1_pun_cockpit.xhtml#a1cc72ee5a728acc04e81d411d88d6179" target="_top" xlink:title=" ">
<polygon fill="white" stroke="black" points="354,-147.5 354,-177.5 489,-177.5 489,-147.5 354,-147.5"/>
<text text-anchor="start" x="362" y="-165.5" font-family="Helvetica,sans-Serif" font-size="10.00">Photon.Pun.Demo.Cockpit.</text>
<text text-anchor="middle" x="421.5" y="-154.5" font-family="Helvetica,sans-Serif" font-size="10.00">PunCockpit.Disconnect</text>
</a>
</g>
</g>
<!-- Node1&#45;&gt;Node3 -->
<g id="edge2" class="edge">
<title>Node1&#45;&gt;Node3</title>
<path fill="none" stroke="midnightblue" d="M546.7,-131.05C525.45,-136.43 502.27,-142.3 481.76,-147.49"/>
<polygon fill="midnightblue" stroke="midnightblue" points="547.79,-134.38 556.63,-128.53 546.08,-127.6 547.79,-134.38"/>
</g>
<!-- Node4 -->
<g id="node4" class="node">
<title>Node4</title>
<g id="a_node4"><a xlink:href="class_photon_1_1_pun_1_1_photon_editor.xhtml#a8ff69bf37b897f6afb973016c09fa65e" target="_top" xlink:title=" ">
<polygon fill="white" stroke="black" points="356.5,-98.5 356.5,-128.5 486.5,-128.5 486.5,-98.5 356.5,-98.5"/>
<text text-anchor="start" x="364.5" y="-116.5" font-family="Helvetica,sans-Serif" font-size="10.00">Photon.Pun.PhotonEditor.</text>
<text text-anchor="middle" x="421.5" y="-105.5" font-family="Helvetica,sans-Serif" font-size="10.00">OnCompileStarted</text>
</a>
</g>
</g>
<!-- Node1&#45;&gt;Node4 -->
<g id="edge3" class="edge">
<title>Node1&#45;&gt;Node4</title>
<path fill="none" stroke="midnightblue" d="M536.7,-113.5C520.05,-113.5 502.68,-113.5 486.66,-113.5"/>
<polygon fill="midnightblue" stroke="midnightblue" points="536.96,-117 546.96,-113.5 536.96,-110 536.96,-117"/>
</g>
<!-- Node7 -->
<g id="node7" class="node">
<title>Node7</title>
<g id="a_node7"><a xlink:href="class_photon_1_1_pun_1_1_utility_scripts_1_1_states_gui.xhtml#a414fd2160f0bd79c9a6826cb31f8006a" target="_top" xlink:title=" ">
<polygon fill="white" stroke="black" points="357,-49.5 357,-79.5 486,-79.5 486,-49.5 357,-49.5"/>
<text text-anchor="start" x="365" y="-67.5" font-family="Helvetica,sans-Serif" font-size="10.00">Photon.Pun.UtilityScripts.</text>
<text text-anchor="middle" x="421.5" y="-56.5" font-family="Helvetica,sans-Serif" font-size="10.00">StatesGui.OnGUI</text>
</a>
</g>
</g>
<!-- Node1&#45;&gt;Node7 -->
<g id="edge6" class="edge">
<title>Node1&#45;&gt;Node7</title>
<path fill="none" stroke="midnightblue" d="M546.7,-95.95C525.45,-90.57 502.27,-84.7 481.76,-79.51"/>
<polygon fill="midnightblue" stroke="midnightblue" points="546.08,-99.4 556.63,-98.47 547.79,-92.62 546.08,-99.4"/>
</g>
<!-- Node8 -->
<g id="node8" class="node">
<title>Node8</title>
<g id="a_node8"><a xlink:href="class_photon_1_1_pun_1_1_demo_1_1_asteroids_1_1_asteroids_game_manager.xhtml#aab2bcc420ff0aadcf299d2704bccd5dd" target="_top" xlink:title="Called when the local user/client left a room, so the game&#39;s logic can clean up it&#39;s internal state.">
<polygon fill="white" stroke="black" points="332,-0.5 332,-30.5 511,-30.5 511,-0.5 332,-0.5"/>
<text text-anchor="start" x="340" y="-18.5" font-family="Helvetica,sans-Serif" font-size="10.00">Photon.Pun.Demo.Asteroids.</text>
<text text-anchor="middle" x="421.5" y="-7.5" font-family="Helvetica,sans-Serif" font-size="10.00">AsteroidsGameManager.OnLeftRoom</text>
</a>
</g>
</g>
<!-- Node1&#45;&gt;Node8 -->
<g id="edge7" class="edge">
<title>Node1&#45;&gt;Node8</title>
<path fill="none" stroke="midnightblue" d="M590.32,-91.99C569.93,-75.85 540.11,-54.26 511,-40.5 503.06,-36.75 494.45,-33.45 485.82,-30.6"/>
<polygon fill="midnightblue" stroke="midnightblue" points="588.2,-94.78 598.19,-98.32 592.59,-89.32 588.2,-94.78"/>
</g>
<!-- Node5 -->
<g id="node5" class="node">
<title>Node5</title>
<g id="a_node5"><a xlink:href="class_photon_1_1_pun_1_1_photon_editor.xhtml#af1f1cae280c6374bd45f8863ad1f30f8" target="_top" xlink:title=" ">
<polygon fill="white" stroke="black" points="166,-98.5 166,-128.5 296,-128.5 296,-98.5 166,-98.5"/>
<text text-anchor="start" x="174" y="-116.5" font-family="Helvetica,sans-Serif" font-size="10.00">Photon.Pun.PhotonEditor.</text>
<text text-anchor="middle" x="231" y="-105.5" font-family="Helvetica,sans-Serif" font-size="10.00">OnDelayCall</text>
</a>
</g>
</g>
<!-- Node4&#45;&gt;Node5 -->
<g id="edge4" class="edge">
<title>Node4&#45;&gt;Node5</title>
<path fill="none" stroke="midnightblue" d="M346.25,-113.5C329.72,-113.5 312.32,-113.5 296.22,-113.5"/>
<polygon fill="midnightblue" stroke="midnightblue" points="346.42,-117 356.42,-113.5 346.42,-110 346.42,-117"/>
</g>
<!-- Node6 -->
<g id="node6" class="node">
<title>Node6</title>
<g id="a_node6"><a xlink:href="class_photon_1_1_pun_1_1_photon_editor.xhtml#a6f2a81525fca83b7245f023595015253" target="_top" xlink:title=" ">
<polygon fill="white" stroke="black" points="0,-98.5 0,-128.5 130,-128.5 130,-98.5 0,-98.5"/>
<text text-anchor="start" x="8" y="-116.5" font-family="Helvetica,sans-Serif" font-size="10.00">Photon.Pun.PhotonEditor.</text>
<text text-anchor="middle" x="65" y="-105.5" font-family="Helvetica,sans-Serif" font-size="10.00">InitializeOnLoadMethod</text>
</a>
</g>
</g>
<!-- Node5&#45;&gt;Node6 -->
<g id="edge5" class="edge">
<title>Node5&#45;&gt;Node6</title>
<path fill="none" stroke="midnightblue" d="M155.44,-113.5C147,-113.5 138.45,-113.5 130.16,-113.5"/>
<polygon fill="midnightblue" stroke="midnightblue" points="155.65,-117 165.65,-113.5 155.65,-110 155.65,-117"/>
</g>
</g>
</svg>
