<?xml version="1.0" encoding="UTF-8" standalone="no"?>
<!DOCTYPE svg PUBLIC "-//W3C//DTD SVG 1.1//EN"
 "http://www.w3.org/Graphics/SVG/1.1/DTD/svg11.dtd">
<!-- Generated by graphviz version 2.47.3 (20210619.1520)
 -->
<!-- Title: Photon.Pun.UtilityScripts.CullAreaEditor.AlignEditorView Pages: 1 -->
<svg width="573pt" height="88pt"
 viewBox="0.00 0.00 573.00 88.00" xmlns="http://www.w3.org/2000/svg" xmlns:xlink="http://www.w3.org/1999/xlink">
<g id="graph0" class="graph" transform="scale(1 1) rotate(0) translate(4 84)">
<title>Photon.Pun.UtilityScripts.CullAreaEditor.AlignEditorView</title>
<polygon fill="white" stroke="transparent" points="-4,4 -4,-84 569,-84 569,4 -4,4"/>
<!-- Node1 -->
<g id="node1" class="node">
<title>Node1</title>
<g id="a_node1"><a xlink:title="Aligns the editor view with the created grid.">
<polygon fill="#bfbfbf" stroke="black" points="415,-24.5 415,-54.5 565,-54.5 565,-24.5 415,-24.5"/>
<text text-anchor="start" x="423" y="-42.5" font-family="Helvetica,sans-Serif" font-size="10.00">Photon.Pun.UtilityScripts.</text>
<text text-anchor="middle" x="490" y="-31.5" font-family="Helvetica,sans-Serif" font-size="10.00">CullAreaEditor.AlignEditorView</text>
</a>
</g>
</g>
<!-- Node2 -->
<g id="node2" class="node">
<title>Node2</title>
<g id="a_node2"><a xlink:href="class_photon_1_1_pun_1_1_utility_scripts_1_1_cull_area_editor.xhtml#a30d8ae48760ed4f2ca60e711ce2835ab" target="_top" xlink:title="Represents the inspector GUI when edit mode is active.">
<polygon fill="white" stroke="black" points="187,-49.5 187,-79.5 379,-79.5 379,-49.5 187,-49.5"/>
<text text-anchor="start" x="195" y="-67.5" font-family="Helvetica,sans-Serif" font-size="10.00">Photon.Pun.UtilityScripts.</text>
<text text-anchor="middle" x="283" y="-56.5" font-family="Helvetica,sans-Serif" font-size="10.00">CullAreaEditor.OnInspectorGUIEditMode</text>
</a>
</g>
</g>
<!-- Node1&#45;&gt;Node2 -->
<g id="edge1" class="edge">
<title>Node1&#45;&gt;Node2</title>
<path fill="none" stroke="midnightblue" d="M404.83,-49.76C396.42,-50.79 387.83,-51.84 379.32,-52.88"/>
<polygon fill="midnightblue" stroke="midnightblue" points="405.49,-53.21 414.99,-48.53 404.64,-46.26 405.49,-53.21"/>
</g>
<!-- Node4 -->
<g id="node4" class="node">
<title>Node4</title>
<g id="a_node4"><a xlink:href="class_photon_1_1_pun_1_1_utility_scripts_1_1_cull_area_editor.xhtml#a5d27e9e9b8c2bb952a0946a1c0291599" target="_top" xlink:title=" ">
<polygon fill="white" stroke="black" points="213.5,-0.5 213.5,-30.5 352.5,-30.5 352.5,-0.5 213.5,-0.5"/>
<text text-anchor="start" x="221.5" y="-18.5" font-family="Helvetica,sans-Serif" font-size="10.00">Photon.Pun.UtilityScripts.</text>
<text text-anchor="middle" x="283" y="-7.5" font-family="Helvetica,sans-Serif" font-size="10.00">CullAreaEditor.OnSceneGUI</text>
</a>
</g>
</g>
<!-- Node1&#45;&gt;Node4 -->
<g id="edge3" class="edge">
<title>Node1&#45;&gt;Node4</title>
<path fill="none" stroke="midnightblue" d="M404.88,-29.65C387.55,-27.62 369.49,-25.51 352.78,-23.55"/>
<polygon fill="midnightblue" stroke="midnightblue" points="404.65,-33.15 414.99,-30.84 405.47,-26.2 404.65,-33.15"/>
</g>
<!-- Node3 -->
<g id="node3" class="node">
<title>Node3</title>
<g id="a_node3"><a xlink:href="class_photon_1_1_pun_1_1_utility_scripts_1_1_cull_area_editor.xhtml#a77a6232416c00562ae921f1851ef1a56" target="_top" xlink:title=" ">
<polygon fill="white" stroke="black" points="0,-49.5 0,-79.5 151,-79.5 151,-49.5 0,-49.5"/>
<text text-anchor="start" x="8" y="-67.5" font-family="Helvetica,sans-Serif" font-size="10.00">Photon.Pun.UtilityScripts.</text>
<text text-anchor="middle" x="75.5" y="-56.5" font-family="Helvetica,sans-Serif" font-size="10.00">CullAreaEditor.OnInspectorGUI</text>
</a>
</g>
</g>
<!-- Node2&#45;&gt;Node3 -->
<g id="edge2" class="edge">
<title>Node2&#45;&gt;Node3</title>
<path fill="none" stroke="midnightblue" d="M176.65,-64.5C168.03,-64.5 159.44,-64.5 151.11,-64.5"/>
<polygon fill="midnightblue" stroke="midnightblue" points="176.77,-68 186.77,-64.5 176.77,-61 176.77,-68"/>
</g>
</g>
</svg>
