<?xml version="1.0" encoding="UTF-8" standalone="no"?>
<!DOCTYPE svg PUBLIC "-//W3C//DTD SVG 1.1//EN"
 "http://www.w3.org/Graphics/SVG/1.1/DTD/svg11.dtd">
<!-- Generated by graphviz version 2.47.3 (20210619.1520)
 -->
<!-- Title: Photon.Realtime.LoadBalancingClient.OpJoinRoom Pages: 1 -->
<svg width="518pt" height="127pt"
 viewBox="0.00 0.00 518.00 126.50" xmlns="http://www.w3.org/2000/svg" xmlns:xlink="http://www.w3.org/1999/xlink">
<g id="graph0" class="graph" transform="scale(1 1) rotate(0) translate(4 122.5)">
<title>Photon.Realtime.LoadBalancingClient.OpJoinRoom</title>
<polygon fill="white" stroke="transparent" points="-4,4 -4,-122.5 514,-122.5 514,4 -4,4"/>
<!-- Node1 -->
<g id="node1" class="node">
<title>Node1</title>
<g id="a_node1"><a xlink:title="Joins a room by name.">
<polygon fill="#bfbfbf" stroke="black" points="355,-49.5 355,-79.5 510,-79.5 510,-49.5 355,-49.5"/>
<text text-anchor="start" x="363" y="-67.5" font-family="Helvetica,sans-Serif" font-size="10.00">Photon.Realtime.LoadBalancing</text>
<text text-anchor="middle" x="432.5" y="-56.5" font-family="Helvetica,sans-Serif" font-size="10.00">Client.OpJoinRoom</text>
</a>
</g>
</g>
<!-- Node2 -->
<g id="node2" class="node">
<title>Node2</title>
<g id="a_node2"><a xlink:href="class_photon_1_1_pun_1_1_photon_network.xhtml#ae4640a50e5a883807370aaa4a4d6102d" target="_top" xlink:title="Joins a room by name.">
<polygon fill="white" stroke="black" points="179,-49.5 179,-79.5 319,-79.5 319,-49.5 179,-49.5"/>
<text text-anchor="start" x="187" y="-67.5" font-family="Helvetica,sans-Serif" font-size="10.00">Photon.Pun.PhotonNetwork.</text>
<text text-anchor="middle" x="249" y="-56.5" font-family="Helvetica,sans-Serif" font-size="10.00">JoinRoom</text>
</a>
</g>
</g>
<!-- Node1&#45;&gt;Node2 -->
<g id="edge1" class="edge">
<title>Node1&#45;&gt;Node2</title>
<path fill="none" stroke="midnightblue" d="M344.77,-64.5C336.2,-64.5 327.59,-64.5 319.23,-64.5"/>
<polygon fill="midnightblue" stroke="midnightblue" points="344.79,-68 354.79,-64.5 344.79,-61 344.79,-68"/>
</g>
<!-- Node3 -->
<g id="node3" class="node">
<title>Node3</title>
<g id="a_node3"><a xlink:href="class_main_menu.xhtml#a677f2954b9aea6a374b84799a683537f" target="_top" xlink:title=" ">
<polygon fill="white" stroke="black" points="18,-99 18,-118 125,-118 125,-99 18,-99"/>
<text text-anchor="middle" x="71.5" y="-106" font-family="Helvetica,sans-Serif" font-size="10.00">MainMenu.JoinRoom</text>
</a>
</g>
</g>
<!-- Node2&#45;&gt;Node3 -->
<g id="edge2" class="edge">
<title>Node2&#45;&gt;Node3</title>
<path fill="none" stroke="midnightblue" d="M178.3,-81.97C155.16,-87.78 130.27,-94.02 110.44,-98.99"/>
<polygon fill="midnightblue" stroke="midnightblue" points="179.25,-85.35 188.09,-79.52 177.54,-78.56 179.25,-85.35"/>
</g>
<!-- Node4 -->
<g id="node4" class="node">
<title>Node4</title>
<g id="a_node4"><a xlink:href="class_photon_1_1_pun_1_1_demo_1_1_cockpit_1_1_pun_cockpit.xhtml#ae9bd6f6fe9ea586ea81e0d8e6deaa126" target="_top" xlink:title=" ">
<polygon fill="white" stroke="black" points="4,-49.5 4,-79.5 139,-79.5 139,-49.5 4,-49.5"/>
<text text-anchor="start" x="12" y="-67.5" font-family="Helvetica,sans-Serif" font-size="10.00">Photon.Pun.Demo.Cockpit.</text>
<text text-anchor="middle" x="71.5" y="-56.5" font-family="Helvetica,sans-Serif" font-size="10.00">PunCockpit.JoinRoom</text>
</a>
</g>
</g>
<!-- Node2&#45;&gt;Node4 -->
<g id="edge3" class="edge">
<title>Node2&#45;&gt;Node4</title>
<path fill="none" stroke="midnightblue" d="M168.71,-64.5C158.86,-64.5 148.88,-64.5 139.25,-64.5"/>
<polygon fill="midnightblue" stroke="midnightblue" points="168.89,-68 178.89,-64.5 168.89,-61 168.89,-68"/>
</g>
<!-- Node5 -->
<g id="node5" class="node">
<title>Node5</title>
<g id="a_node5"><a xlink:href="class_photon_1_1_pun_1_1_demo_1_1_asteroids_1_1_room_list_entry.xhtml#a5c5fad3c1d62ed0ff0e293c5cfe28e0d" target="_top" xlink:title=" ">
<polygon fill="white" stroke="black" points="0,-0.5 0,-30.5 143,-30.5 143,-0.5 0,-0.5"/>
<text text-anchor="start" x="8" y="-18.5" font-family="Helvetica,sans-Serif" font-size="10.00">Photon.Pun.Demo.Asteroids.</text>
<text text-anchor="middle" x="71.5" y="-7.5" font-family="Helvetica,sans-Serif" font-size="10.00">RoomListEntry.Start</text>
</a>
</g>
</g>
<!-- Node2&#45;&gt;Node5 -->
<g id="edge4" class="edge">
<title>Node2&#45;&gt;Node5</title>
<path fill="none" stroke="midnightblue" d="M184.17,-46.68C165.22,-41.39 144.66,-35.65 126.41,-30.55"/>
<polygon fill="midnightblue" stroke="midnightblue" points="183.34,-50.08 193.91,-49.4 185.22,-43.34 183.34,-50.08"/>
</g>
</g>
</svg>
