<?xml version="1.0" encoding="UTF-8" standalone="no"?>
<!DOCTYPE svg PUBLIC "-//W3C//DTD SVG 1.1//EN"
 "http://www.w3.org/Graphics/SVG/1.1/DTD/svg11.dtd">
<!-- Generated by graphviz version 2.47.3 (20210619.1520)
 -->
<!-- Title: Photon.Realtime.LoadBalancingClient.OpWebRpc Pages: 1 -->
<svg width="817pt" height="39pt"
 viewBox="0.00 0.00 817.00 39.00" xmlns="http://www.w3.org/2000/svg" xmlns:xlink="http://www.w3.org/1999/xlink">
<g id="graph0" class="graph" transform="scale(1 1) rotate(0) translate(4 35)">
<title>Photon.Realtime.LoadBalancingClient.OpWebRpc</title>
<polygon fill="white" stroke="transparent" points="-4,4 -4,-35 813,-35 813,4 -4,4"/>
<!-- Node1 -->
<g id="node1" class="node">
<title>Node1</title>
<g id="a_node1"><a xlink:title="This operation makes Photon call your custom web&#45;service by path/name with the given parameters (conv...">
<polygon fill="#bfbfbf" stroke="black" points="654,-0.5 654,-30.5 809,-30.5 809,-0.5 654,-0.5"/>
<text text-anchor="start" x="662" y="-18.5" font-family="Helvetica,sans-Serif" font-size="10.00">Photon.Realtime.LoadBalancing</text>
<text text-anchor="middle" x="731.5" y="-7.5" font-family="Helvetica,sans-Serif" font-size="10.00">Client.OpWebRpc</text>
</a>
</g>
</g>
<!-- Node2 -->
<g id="node2" class="node">
<title>Node2</title>
<g id="a_node2"><a xlink:href="class_photon_1_1_pun_1_1_photon_network.xhtml#aec48642992944ee0a7ea14bd4c51a8a1" target="_top" xlink:title="This operation makes Photon call your custom web&#45;service by name (path) with the given parameters.">
<polygon fill="white" stroke="black" points="478,-0.5 478,-30.5 618,-30.5 618,-0.5 478,-0.5"/>
<text text-anchor="start" x="486" y="-18.5" font-family="Helvetica,sans-Serif" font-size="10.00">Photon.Pun.PhotonNetwork.</text>
<text text-anchor="middle" x="548" y="-7.5" font-family="Helvetica,sans-Serif" font-size="10.00">WebRpc</text>
</a>
</g>
</g>
<!-- Node1&#45;&gt;Node2 -->
<g id="edge1" class="edge">
<title>Node1&#45;&gt;Node2</title>
<path fill="none" stroke="midnightblue" d="M643.77,-15.5C635.2,-15.5 626.59,-15.5 618.23,-15.5"/>
<polygon fill="midnightblue" stroke="midnightblue" points="643.79,-19 653.79,-15.5 643.79,-12 643.79,-19"/>
</g>
<!-- Node3 -->
<g id="node3" class="node">
<title>Node3</title>
<g id="a_node3"><a xlink:href="class_photon_1_1_pun_1_1_demo_1_1_web_rpc_implementation_example.xhtml#a48fccd462cb75636f3b38895a939c39a" target="_top" xlink:title=" ">
<polygon fill="white" stroke="black" points="239,-0.5 239,-30.5 442,-30.5 442,-0.5 239,-0.5"/>
<text text-anchor="start" x="247" y="-18.5" font-family="Helvetica,sans-Serif" font-size="10.00">Photon.Pun.Demo.WebRpcImplementation</text>
<text text-anchor="middle" x="340.5" y="-7.5" font-family="Helvetica,sans-Serif" font-size="10.00">Example.WebRpcCall</text>
</a>
</g>
</g>
<!-- Node2&#45;&gt;Node3 -->
<g id="edge2" class="edge">
<title>Node2&#45;&gt;Node3</title>
<path fill="none" stroke="midnightblue" d="M467.85,-15.5C459.42,-15.5 450.76,-15.5 442.13,-15.5"/>
<polygon fill="midnightblue" stroke="midnightblue" points="468,-19 478,-15.5 468,-12 468,-19"/>
</g>
<!-- Node4 -->
<g id="node4" class="node">
<title>Node4</title>
<g id="a_node4"><a xlink:href="class_photon_1_1_pun_1_1_demo_1_1_web_rpc_implementation_example.xhtml#ae241cc65dc110672cb622856beb40937" target="_top" xlink:title=" ">
<polygon fill="white" stroke="black" points="0,-0.5 0,-30.5 203,-30.5 203,-0.5 0,-0.5"/>
<text text-anchor="start" x="8" y="-18.5" font-family="Helvetica,sans-Serif" font-size="10.00">Photon.Pun.Demo.WebRpcImplementation</text>
<text text-anchor="middle" x="101.5" y="-7.5" font-family="Helvetica,sans-Serif" font-size="10.00">Example.WebRpcExampleCall</text>
</a>
</g>
</g>
<!-- Node3&#45;&gt;Node4 -->
<g id="edge3" class="edge">
<title>Node3&#45;&gt;Node4</title>
<path fill="none" stroke="midnightblue" d="M228.94,-15.5C220.34,-15.5 211.69,-15.5 203.17,-15.5"/>
<polygon fill="midnightblue" stroke="midnightblue" points="228.99,-19 238.99,-15.5 228.99,-12 228.99,-19"/>
</g>
</g>
</svg>
