<?xml version="1.0" encoding="UTF-8" standalone="no"?>
<!DOCTYPE svg PUBLIC "-//W3C//DTD SVG 1.1//EN"
 "http://www.w3.org/Graphics/SVG/1.1/DTD/svg11.dtd">
<!-- Generated by graphviz version 2.47.3 (20210619.1520)
 -->
<!-- Title: Tayx.Graphy.Audio.G_AudioManager.SetState Pages: 1 -->
<svg width="324pt" height="39pt"
 viewBox="0.00 0.00 324.00 39.00" xmlns="http://www.w3.org/2000/svg" xmlns:xlink="http://www.w3.org/1999/xlink">
<g id="graph0" class="graph" transform="scale(1 1) rotate(0) translate(4 35)">
<title>Tayx.Graphy.Audio.G_AudioManager.SetState</title>
<polygon fill="white" stroke="transparent" points="-4,4 -4,-35 320,-35 320,4 -4,4"/>
<!-- Node1 -->
<g id="node1" class="node">
<title>Node1</title>
<g id="a_node1"><a xlink:title="Set the module state.">
<polygon fill="#bfbfbf" stroke="black" points="0,-0.5 0,-30.5 125,-30.5 125,-0.5 0,-0.5"/>
<text text-anchor="start" x="8" y="-18.5" font-family="Helvetica,sans-Serif" font-size="10.00">Tayx.Graphy.Audio.G</text>
<text text-anchor="middle" x="62.5" y="-7.5" font-family="Helvetica,sans-Serif" font-size="10.00">_AudioManager.SetState</text>
</a>
</g>
</g>
<!-- Node2 -->
<g id="node2" class="node">
<title>Node2</title>
<g id="a_node2"><a xlink:href="class_tayx_1_1_graphy_1_1_audio_1_1_g___audio_manager.xhtml#a67d33c59a742691d9a9c3c6843bbc131" target="_top" xlink:title=" ">
<polygon fill="white" stroke="black" points="161,-0.5 161,-30.5 316,-30.5 316,-0.5 161,-0.5"/>
<text text-anchor="start" x="169" y="-18.5" font-family="Helvetica,sans-Serif" font-size="10.00">Tayx.Graphy.Audio.G</text>
<text text-anchor="middle" x="238.5" y="-7.5" font-family="Helvetica,sans-Serif" font-size="10.00">_AudioManager.SetGraphActive</text>
</a>
</g>
</g>
<!-- Node1&#45;&gt;Node2 -->
<g id="edge1" class="edge">
<title>Node1&#45;&gt;Node2</title>
<path fill="none" stroke="midnightblue" d="M125.34,-15.5C133.62,-15.5 142.24,-15.5 150.85,-15.5"/>
<polygon fill="midnightblue" stroke="midnightblue" points="150.94,-19 160.94,-15.5 150.94,-12 150.94,-19"/>
</g>
</g>
</svg>
