<?xml version="1.0" encoding="UTF-8" standalone="no"?>
<!DOCTYPE svg PUBLIC "-//W3C//DTD SVG 1.1//EN"
 "http://www.w3.org/Graphics/SVG/1.1/DTD/svg11.dtd">
<!-- Generated by graphviz version 2.47.3 (20210619.1520)
 -->
<!-- Title: BasicAttack.CastRay Pages: 1 -->
<svg width="483pt" height="78pt"
 viewBox="0.00 0.00 483.00 77.50" xmlns="http://www.w3.org/2000/svg" xmlns:xlink="http://www.w3.org/1999/xlink">
<g id="graph0" class="graph" transform="scale(1 1) rotate(0) translate(4 73.5)">
<title>BasicAttack.CastRay</title>
<polygon fill="white" stroke="transparent" points="-4,4 -4,-73.5 479,-73.5 479,4 -4,4"/>
<!-- Node1 -->
<g id="node1" class="node">
<title>Node1</title>
<g id="a_node1"><a xlink:title=" ">
<polygon fill="#bfbfbf" stroke="black" points="0,-28 0,-47 110,-47 110,-28 0,-28"/>
<text text-anchor="middle" x="55" y="-35" font-family="Helvetica,sans-Serif" font-size="10.00">BasicAttack.CastRay</text>
</a>
</g>
</g>
<!-- Node2 -->
<g id="node2" class="node">
<title>Node2</title>
<g id="a_node2"><a xlink:href="class_basic_attack.xhtml#a6700fa1b84e430381504535f20c2e3d8" target="_top" xlink:title=" ">
<polygon fill="white" stroke="black" points="146,-28 146,-47 293,-47 293,-28 146,-28"/>
<text text-anchor="middle" x="219.5" y="-35" font-family="Helvetica,sans-Serif" font-size="10.00">BasicAttack.StartBasicAttack</text>
</a>
</g>
</g>
<!-- Node1&#45;&gt;Node2 -->
<g id="edge1" class="edge">
<title>Node1&#45;&gt;Node2</title>
<path fill="none" stroke="midnightblue" d="M110.11,-37.5C118.34,-37.5 126.99,-37.5 135.66,-37.5"/>
<polygon fill="midnightblue" stroke="midnightblue" points="135.83,-41 145.83,-37.5 135.83,-34 135.83,-41"/>
</g>
<!-- Node3 -->
<g id="node3" class="node">
<title>Node3</title>
<g id="a_node3"><a xlink:href="class_photon_1_1_pun_1_1_photon_view.xhtml#a92bc79e36a53f2137e4b45e5162bdd7b" target="_top" xlink:title="Call a RPC method of this GameObject on remote clients of this room (or on all, including this client...">
<polygon fill="white" stroke="black" points="329,-50 329,-69 475,-69 475,-50 329,-50"/>
<text text-anchor="middle" x="402" y="-57" font-family="Helvetica,sans-Serif" font-size="10.00">Photon.Pun.PhotonView.RPC</text>
</a>
</g>
</g>
<!-- Node2&#45;&gt;Node3 -->
<g id="edge2" class="edge">
<title>Node2&#45;&gt;Node3</title>
<path fill="none" stroke="midnightblue" d="M293.14,-46.35C301.59,-47.38 310.25,-48.44 318.81,-49.48"/>
<polygon fill="midnightblue" stroke="midnightblue" points="318.46,-52.97 328.81,-50.7 319.3,-46.02 318.46,-52.97"/>
</g>
<!-- Node4 -->
<g id="node4" class="node">
<title>Node4</title>
<g id="a_node4"><a xlink:href="class_player_controller.xhtml#a36323c07b7cd9e0ccab9c8016611827c" target="_top" xlink:title="The player will look at the position of this Transform.">
<polygon fill="white" stroke="black" points="339.5,-0.5 339.5,-30.5 464.5,-30.5 464.5,-0.5 339.5,-0.5"/>
<text text-anchor="start" x="347.5" y="-18.5" font-family="Helvetica,sans-Serif" font-size="10.00">PlayerController.SetLook</text>
<text text-anchor="middle" x="402" y="-7.5" font-family="Helvetica,sans-Serif" font-size="10.00">AtTarget</text>
</a>
</g>
</g>
<!-- Node2&#45;&gt;Node4 -->
<g id="edge3" class="edge">
<title>Node2&#45;&gt;Node4</title>
<path fill="none" stroke="midnightblue" d="M293.14,-28.65C304.96,-27.21 317.19,-25.71 329,-24.28"/>
<polygon fill="midnightblue" stroke="midnightblue" points="329.74,-27.71 339.24,-23.03 328.89,-20.76 329.74,-27.71"/>
</g>
</g>
</svg>
