<?xml version="1.0" encoding="UTF-8" standalone="no"?>
<!DOCTYPE svg PUBLIC "-//W3C//DTD SVG 1.1//EN"
 "http://www.w3.org/Graphics/SVG/1.1/DTD/svg11.dtd">
<!-- Generated by graphviz version 2.47.3 (20210619.1520)
 -->
<!-- Title: Photon.Pun.Demo.Asteroids.Asteroid.DestroyAsteroidGlobally Pages: 1 -->
<svg width="521pt" height="88pt"
 viewBox="0.00 0.00 521.00 88.00" xmlns="http://www.w3.org/2000/svg" xmlns:xlink="http://www.w3.org/1999/xlink">
<g id="graph0" class="graph" transform="scale(1 1) rotate(0) translate(4 84)">
<title>Photon.Pun.Demo.Asteroids.Asteroid.DestroyAsteroidGlobally</title>
<polygon fill="white" stroke="transparent" points="-4,4 -4,-84 517,-84 517,4 -4,4"/>
<!-- Node1 -->
<g id="node1" class="node">
<title>Node1</title>
<g id="a_node1"><a xlink:title=" ">
<polygon fill="#bfbfbf" stroke="black" points="0,-24.5 0,-54.5 161,-54.5 161,-24.5 0,-24.5"/>
<text text-anchor="start" x="8" y="-42.5" font-family="Helvetica,sans-Serif" font-size="10.00">Photon.Pun.Demo.Asteroids.</text>
<text text-anchor="middle" x="80.5" y="-31.5" font-family="Helvetica,sans-Serif" font-size="10.00">Asteroid.DestroyAsteroidGlobally</text>
</a>
</g>
</g>
<!-- Node2 -->
<g id="node2" class="node">
<title>Node2</title>
<g id="a_node2"><a xlink:href="class_photon_1_1_pun_1_1_photon_network.xhtml#ada7d7b9bdb306863c66b260dde7c544e" target="_top" xlink:title="Network&#45;Destroy the GameObject associated with the PhotonView, unless the PhotonView is static or not...">
<polygon fill="white" stroke="black" points="197,-49.5 197,-79.5 337,-79.5 337,-49.5 197,-49.5"/>
<text text-anchor="start" x="205" y="-67.5" font-family="Helvetica,sans-Serif" font-size="10.00">Photon.Pun.PhotonNetwork.</text>
<text text-anchor="middle" x="267" y="-56.5" font-family="Helvetica,sans-Serif" font-size="10.00">Destroy</text>
</a>
</g>
</g>
<!-- Node1&#45;&gt;Node2 -->
<g id="edge1" class="edge">
<title>Node1&#45;&gt;Node2</title>
<path fill="none" stroke="midnightblue" d="M161.08,-50.28C169.64,-51.44 178.34,-52.62 186.88,-53.78"/>
<polygon fill="midnightblue" stroke="midnightblue" points="186.45,-57.25 196.83,-55.13 187.39,-50.32 186.45,-57.25"/>
</g>
<!-- Node3 -->
<g id="node3" class="node">
<title>Node3</title>
<g id="a_node3"><a xlink:href="class_photon_1_1_pun_1_1_photon_network.xhtml#a7e68c3cae2b1b2b7495b545b246192c2" target="_top" xlink:title=" ">
<polygon fill="white" stroke="black" points="197,-0.5 197,-30.5 337,-30.5 337,-0.5 197,-0.5"/>
<text text-anchor="start" x="205" y="-18.5" font-family="Helvetica,sans-Serif" font-size="10.00">Photon.Pun.PhotonNetwork.</text>
<text text-anchor="middle" x="267" y="-7.5" font-family="Helvetica,sans-Serif" font-size="10.00">InstantiateRoomObject</text>
</a>
</g>
</g>
<!-- Node1&#45;&gt;Node3 -->
<g id="edge2" class="edge">
<title>Node1&#45;&gt;Node3</title>
<path fill="none" stroke="midnightblue" d="M161.08,-29.15C169.64,-28.04 178.34,-26.9 186.88,-25.79"/>
<polygon fill="midnightblue" stroke="midnightblue" points="187.36,-29.26 196.83,-24.5 186.46,-22.32 187.36,-29.26"/>
</g>
<!-- Node4 -->
<g id="node4" class="node">
<title>Node4</title>
<g id="a_node4"><a xlink:href="class_photon_1_1_pun_1_1_photon_network.xhtml#ab20d21ae87fdbe5db26810e506089158" target="_top" xlink:title=" ">
<polygon fill="white" stroke="black" points="373,-0.5 373,-30.5 513,-30.5 513,-0.5 373,-0.5"/>
<text text-anchor="start" x="381" y="-18.5" font-family="Helvetica,sans-Serif" font-size="10.00">Photon.Pun.PhotonNetwork.</text>
<text text-anchor="middle" x="443" y="-7.5" font-family="Helvetica,sans-Serif" font-size="10.00">NetworkInstantiate</text>
</a>
</g>
</g>
<!-- Node3&#45;&gt;Node4 -->
<g id="edge3" class="edge">
<title>Node3&#45;&gt;Node4</title>
<path fill="none" stroke="midnightblue" d="M337.02,-15.5C345.48,-15.5 354.17,-15.5 362.76,-15.5"/>
<polygon fill="midnightblue" stroke="midnightblue" points="362.78,-19 372.78,-15.5 362.78,-12 362.78,-19"/>
</g>
</g>
</svg>
