<?xml version="1.0" encoding="UTF-8" standalone="no"?>
<!DOCTYPE svg PUBLIC "-//W3C//DTD SVG 1.1//EN"
 "http://www.w3.org/Graphics/SVG/1.1/DTD/svg11.dtd">
<!-- Generated by graphviz version 2.47.3 (20210619.1520)
 -->
<!-- Title: Photon.Pun.Demo.SlotRacer.Utils.SplinePosition.ExecutePositioning Pages: 1 -->
<svg width="387pt" height="100pt"
 viewBox="0.00 0.00 387.00 99.50" xmlns="http://www.w3.org/2000/svg" xmlns:xlink="http://www.w3.org/1999/xlink">
<g id="graph0" class="graph" transform="scale(1 1) rotate(0) translate(4 95.5)">
<title>Photon.Pun.Demo.SlotRacer.Utils.SplinePosition.ExecutePositioning</title>
<polygon fill="white" stroke="transparent" points="-4,4 -4,-95.5 383,-95.5 383,4 -4,4"/>
<!-- Node1 -->
<g id="node1" class="node">
<title>Node1</title>
<g id="a_node1"><a xlink:title=" ">
<polygon fill="#bfbfbf" stroke="black" points="191,-27.5 191,-57.5 379,-57.5 379,-27.5 191,-27.5"/>
<text text-anchor="start" x="199" y="-45.5" font-family="Helvetica,sans-Serif" font-size="10.00">Photon.Pun.Demo.SlotRacer.</text>
<text text-anchor="middle" x="285" y="-34.5" font-family="Helvetica,sans-Serif" font-size="10.00">Utils.SplinePosition.ExecutePositioning</text>
</a>
</g>
</g>
<!-- Node2 -->
<g id="node2" class="node">
<title>Node2</title>
<g id="a_node2"><a xlink:href="class_photon_1_1_pun_1_1_demo_1_1_slot_racer_1_1_utils_1_1_spline_position.xhtml#a50064ecc85bad972836cb2121e524cb6" target="_top" xlink:title=" ">
<polygon fill="white" stroke="black" points="0,-50 0,-91 155,-91 155,-50 0,-50"/>
<text text-anchor="start" x="8" y="-79" font-family="Helvetica,sans-Serif" font-size="10.00">Photon.Pun.Demo.SlotRacer.</text>
<text text-anchor="start" x="8" y="-68" font-family="Helvetica,sans-Serif" font-size="10.00">Utils.SplinePosition.SetPosition</text>
<text text-anchor="middle" x="77.5" y="-57" font-family="Helvetica,sans-Serif" font-size="10.00">OnSpline</text>
</a>
</g>
</g>
<!-- Node1&#45;&gt;Node2 -->
<g id="edge1" class="edge">
<title>Node1&#45;&gt;Node2</title>
<path fill="none" stroke="midnightblue" d="M180.72,-56.57C172.06,-57.75 163.41,-58.93 155,-60.08"/>
<polygon fill="midnightblue" stroke="midnightblue" points="181.43,-60.01 190.87,-55.19 180.49,-53.07 181.43,-60.01"/>
</g>
<!-- Node3 -->
<g id="node3" class="node">
<title>Node3</title>
<g id="a_node3"><a xlink:href="class_photon_1_1_pun_1_1_demo_1_1_slot_racer_1_1_utils_1_1_spline_position.xhtml#a4f24ad9c8894dff9fc29a9c6b907a512" target="_top" xlink:title=" ">
<polygon fill="white" stroke="black" points="5,-0.5 5,-30.5 150,-30.5 150,-0.5 5,-0.5"/>
<text text-anchor="start" x="13" y="-18.5" font-family="Helvetica,sans-Serif" font-size="10.00">Photon.Pun.Demo.SlotRacer.</text>
<text text-anchor="middle" x="77.5" y="-7.5" font-family="Helvetica,sans-Serif" font-size="10.00">Utils.SplinePosition.Update</text>
</a>
</g>
</g>
<!-- Node1&#45;&gt;Node3 -->
<g id="edge2" class="edge">
<title>Node1&#45;&gt;Node3</title>
<path fill="none" stroke="midnightblue" d="M180.89,-28.95C170.47,-27.58 160.05,-26.21 150.07,-24.9"/>
<polygon fill="midnightblue" stroke="midnightblue" points="180.5,-32.43 190.87,-30.26 181.41,-25.49 180.5,-32.43"/>
</g>
</g>
</svg>
