<?xml version="1.0" encoding="UTF-8" standalone="no"?>
<!DOCTYPE svg PUBLIC "-//W3C//DTD SVG 1.1//EN"
 "http://www.w3.org/Graphics/SVG/1.1/DTD/svg11.dtd">
<!-- Generated by graphviz version 2.47.3 (20210619.1520)
 -->
<!-- Title: Photon.Pun.PhotonTransformViewClassic.Update Pages: 1 -->
<svg width="969pt" height="192pt"
 viewBox="0.00 0.00 969.00 191.50" xmlns="http://www.w3.org/2000/svg" xmlns:xlink="http://www.w3.org/1999/xlink">
<g id="graph0" class="graph" transform="scale(1 1) rotate(0) translate(4 187.5)">
<title>Photon.Pun.PhotonTransformViewClassic.Update</title>
<polygon fill="white" stroke="transparent" points="-4,4 -4,-187.5 965,-187.5 965,4 -4,4"/>
<!-- Node1 -->
<g id="node1" class="node">
<title>Node1</title>
<g id="a_node1"><a xlink:title=" ">
<polygon fill="#bfbfbf" stroke="black" points="0,-49.5 0,-79.5 144,-79.5 144,-49.5 0,-49.5"/>
<text text-anchor="start" x="8" y="-67.5" font-family="Helvetica,sans-Serif" font-size="10.00">Photon.Pun.PhotonTransform</text>
<text text-anchor="middle" x="72" y="-56.5" font-family="Helvetica,sans-Serif" font-size="10.00">ViewClassic.Update</text>
</a>
</g>
</g>
<!-- Node2 -->
<g id="node2" class="node">
<title>Node2</title>
<g id="a_node2"><a xlink:href="class_photon_1_1_pun_1_1_photon_transform_view_classic.xhtml#ac11135744eb23bfeb40205b1085658d1" target="_top" xlink:title=" ">
<polygon fill="white" stroke="black" points="180,-98.5 180,-128.5 324,-128.5 324,-98.5 180,-98.5"/>
<text text-anchor="start" x="188" y="-116.5" font-family="Helvetica,sans-Serif" font-size="10.00">Photon.Pun.PhotonTransform</text>
<text text-anchor="middle" x="252" y="-105.5" font-family="Helvetica,sans-Serif" font-size="10.00">ViewClassic.UpdatePosition</text>
</a>
</g>
</g>
<!-- Node1&#45;&gt;Node2 -->
<g id="edge1" class="edge">
<title>Node1&#45;&gt;Node2</title>
<path fill="none" stroke="midnightblue" d="M127.86,-79.6C146.39,-84.7 167.24,-90.44 186.45,-95.73"/>
<polygon fill="midnightblue" stroke="midnightblue" points="185.75,-99.17 196.32,-98.45 187.61,-92.42 185.75,-99.17"/>
</g>
<!-- Node8 -->
<g id="node8" class="node">
<title>Node8</title>
<g id="a_node8"><a xlink:href="class_photon_1_1_pun_1_1_photon_transform_view_classic.xhtml#ad865f2ede86a32867dc69622a88ad50f" target="_top" xlink:title=" ">
<polygon fill="white" stroke="black" points="180,-49.5 180,-79.5 324,-79.5 324,-49.5 180,-49.5"/>
<text text-anchor="start" x="188" y="-67.5" font-family="Helvetica,sans-Serif" font-size="10.00">Photon.Pun.PhotonTransform</text>
<text text-anchor="middle" x="252" y="-56.5" font-family="Helvetica,sans-Serif" font-size="10.00">ViewClassic.UpdateRotation</text>
</a>
</g>
</g>
<!-- Node1&#45;&gt;Node8 -->
<g id="edge8" class="edge">
<title>Node1&#45;&gt;Node8</title>
<path fill="none" stroke="midnightblue" d="M144.12,-64.5C152.61,-64.5 161.33,-64.5 169.94,-64.5"/>
<polygon fill="midnightblue" stroke="midnightblue" points="170,-68 180,-64.5 170,-61 170,-68"/>
</g>
<!-- Node10 -->
<g id="node10" class="node">
<title>Node10</title>
<g id="a_node10"><a xlink:href="class_photon_1_1_pun_1_1_photon_transform_view_classic.xhtml#ad041c32bbd65e00dfe0bac04143a1c3f" target="_top" xlink:title=" ">
<polygon fill="white" stroke="black" points="180,-0.5 180,-30.5 324,-30.5 324,-0.5 180,-0.5"/>
<text text-anchor="start" x="188" y="-18.5" font-family="Helvetica,sans-Serif" font-size="10.00">Photon.Pun.PhotonTransform</text>
<text text-anchor="middle" x="252" y="-7.5" font-family="Helvetica,sans-Serif" font-size="10.00">ViewClassic.UpdateScale</text>
</a>
</g>
</g>
<!-- Node1&#45;&gt;Node10 -->
<g id="edge10" class="edge">
<title>Node1&#45;&gt;Node10</title>
<path fill="none" stroke="midnightblue" d="M127.86,-49.4C146.39,-44.3 167.24,-38.56 186.45,-33.27"/>
<polygon fill="midnightblue" stroke="midnightblue" points="187.61,-36.58 196.32,-30.55 185.75,-29.83 187.61,-36.58"/>
</g>
<!-- Node3 -->
<g id="node3" class="node">
<title>Node3</title>
<g id="a_node3"><a xlink:href="class_photon_1_1_pun_1_1_photon_transform_view_position_control.xhtml#affb1dff75603955575c3ff5ab7ca7f33" target="_top" xlink:title="Calculates the new position based on the values setup in the inspector">
<polygon fill="white" stroke="black" points="360,-98.5 360,-128.5 533,-128.5 533,-98.5 360,-98.5"/>
<text text-anchor="start" x="368" y="-116.5" font-family="Helvetica,sans-Serif" font-size="10.00">Photon.Pun.PhotonTransform</text>
<text text-anchor="middle" x="446.5" y="-105.5" font-family="Helvetica,sans-Serif" font-size="10.00">ViewPositionControl.UpdatePosition</text>
</a>
</g>
</g>
<!-- Node2&#45;&gt;Node3 -->
<g id="edge2" class="edge">
<title>Node2&#45;&gt;Node3</title>
<path fill="none" stroke="midnightblue" d="M324.13,-113.5C332.52,-113.5 341.19,-113.5 349.85,-113.5"/>
<polygon fill="midnightblue" stroke="midnightblue" points="349.99,-117 359.99,-113.5 349.99,-110 349.99,-117"/>
</g>
<!-- Node4 -->
<g id="node4" class="node">
<title>Node4</title>
<g id="a_node4"><a xlink:href="class_photon_1_1_pun_1_1_photon_transform_view_position_control.xhtml#a07e089a361c55d579f22438213797c95" target="_top" xlink:title="Calculates an estimated position based on the last synchronized position, the time when the last posi...">
<polygon fill="white" stroke="black" points="569,-93 569,-134 746,-134 746,-93 569,-93"/>
<text text-anchor="start" x="577" y="-122" font-family="Helvetica,sans-Serif" font-size="10.00">Photon.Pun.PhotonTransform</text>
<text text-anchor="start" x="577" y="-111" font-family="Helvetica,sans-Serif" font-size="10.00">ViewPositionControl.GetExtrapolated</text>
<text text-anchor="middle" x="657.5" y="-100" font-family="Helvetica,sans-Serif" font-size="10.00">PositionOffset</text>
</a>
</g>
</g>
<!-- Node3&#45;&gt;Node4 -->
<g id="edge3" class="edge">
<title>Node3&#45;&gt;Node4</title>
<path fill="none" stroke="midnightblue" d="M533.11,-113.5C541.62,-113.5 550.3,-113.5 558.92,-113.5"/>
<polygon fill="midnightblue" stroke="midnightblue" points="558.99,-117 568.99,-113.5 558.99,-110 558.99,-117"/>
</g>
<!-- Node5 -->
<g id="node5" class="node">
<title>Node5</title>
<g id="a_node5"><a xlink:href="class_photon_1_1_pun_1_1_photon_transform_view_position_control.xhtml#a45649a7179a566662570df7a89b50922" target="_top" xlink:title=" ">
<polygon fill="white" stroke="black" points="782,-142 782,-183 961,-183 961,-142 782,-142"/>
<text text-anchor="start" x="790" y="-171" font-family="Helvetica,sans-Serif" font-size="10.00">Photon.Pun.PhotonTransform</text>
<text text-anchor="start" x="790" y="-160" font-family="Helvetica,sans-Serif" font-size="10.00">ViewPositionControl.GetOldestStored</text>
<text text-anchor="middle" x="871.5" y="-149" font-family="Helvetica,sans-Serif" font-size="10.00">NetworkPosition</text>
</a>
</g>
</g>
<!-- Node3&#45;&gt;Node5 -->
<g id="edge7" class="edge">
<title>Node3&#45;&gt;Node5</title>
<path fill="none" stroke="midnightblue" d="M499.71,-128.57C521.03,-134.15 546.02,-139.97 569,-143.5 636.26,-153.84 712.78,-158.58 771.91,-160.74"/>
<polygon fill="midnightblue" stroke="midnightblue" points="771.88,-164.24 781.99,-161.09 772.12,-157.24 771.88,-164.24"/>
</g>
<!-- Node7 -->
<g id="node7" class="node">
<title>Node7</title>
<g id="a_node7"><a xlink:href="class_photon_1_1_pun_1_1_photon_transform_view_position_control.xhtml#a405f84b3bf8aac0ca7121ba0f4508e67" target="_top" xlink:title="Gets the last position that was received through the network">
<polygon fill="white" stroke="black" points="578.5,-33 578.5,-74 736.5,-74 736.5,-33 578.5,-33"/>
<text text-anchor="start" x="586.5" y="-62" font-family="Helvetica,sans-Serif" font-size="10.00">Photon.Pun.PhotonTransform</text>
<text text-anchor="start" x="586.5" y="-51" font-family="Helvetica,sans-Serif" font-size="10.00">ViewPositionControl.GetNetwork</text>
<text text-anchor="middle" x="657.5" y="-40" font-family="Helvetica,sans-Serif" font-size="10.00">Position</text>
</a>
</g>
</g>
<!-- Node3&#45;&gt;Node7 -->
<g id="edge6" class="edge">
<title>Node3&#45;&gt;Node7</title>
<path fill="none" stroke="midnightblue" d="M499.97,-98.44C522.71,-91.91 549.86,-84.12 575.11,-76.87"/>
<polygon fill="midnightblue" stroke="midnightblue" points="576.41,-80.13 585.05,-74.01 574.47,-73.41 576.41,-80.13"/>
</g>
<!-- Node4&#45;&gt;Node5 -->
<g id="edge4" class="edge">
<title>Node4&#45;&gt;Node5</title>
<path fill="none" stroke="midnightblue" d="M746.26,-133.78C754.69,-135.73 763.28,-137.72 771.81,-139.69"/>
<polygon fill="midnightblue" stroke="midnightblue" points="771.25,-143.15 781.78,-141.99 772.83,-136.33 771.25,-143.15"/>
</g>
<!-- Node6 -->
<g id="node6" class="node">
<title>Node6</title>
<g id="a_node6"><a xlink:href="class_photon_1_1_pun_1_1_photon_network.xhtml#ac8651f3c6c9b6527030eff1c15d2b796" target="_top" xlink:title="The current roundtrip time to the photon server.">
<polygon fill="white" stroke="black" points="801.5,-92.5 801.5,-122.5 941.5,-122.5 941.5,-92.5 801.5,-92.5"/>
<text text-anchor="start" x="809.5" y="-110.5" font-family="Helvetica,sans-Serif" font-size="10.00">Photon.Pun.PhotonNetwork.</text>
<text text-anchor="middle" x="871.5" y="-99.5" font-family="Helvetica,sans-Serif" font-size="10.00">GetPing</text>
</a>
</g>
</g>
<!-- Node4&#45;&gt;Node6 -->
<g id="edge5" class="edge">
<title>Node4&#45;&gt;Node6</title>
<path fill="none" stroke="midnightblue" d="M746.26,-111.02C761.16,-110.59 776.56,-110.16 791.22,-109.74"/>
<polygon fill="midnightblue" stroke="midnightblue" points="791.35,-113.24 801.25,-109.46 791.15,-106.24 791.35,-113.24"/>
</g>
<!-- Node9 -->
<g id="node9" class="node">
<title>Node9</title>
<g id="a_node9"><a xlink:href="class_photon_1_1_pun_1_1_photon_transform_view_rotation_control.xhtml#a6a97c96b1256e30e74d68eb63f2fa710" target="_top" xlink:title=" ">
<polygon fill="white" stroke="black" points="367,-49.5 367,-79.5 526,-79.5 526,-49.5 367,-49.5"/>
<text text-anchor="start" x="375" y="-67.5" font-family="Helvetica,sans-Serif" font-size="10.00">Photon.Pun.PhotonTransform</text>
<text text-anchor="middle" x="446.5" y="-56.5" font-family="Helvetica,sans-Serif" font-size="10.00">ViewRotationControl.GetRotation</text>
</a>
</g>
</g>
<!-- Node8&#45;&gt;Node9 -->
<g id="edge9" class="edge">
<title>Node8&#45;&gt;Node9</title>
<path fill="none" stroke="midnightblue" d="M324.13,-64.5C334.79,-64.5 345.89,-64.5 356.86,-64.5"/>
<polygon fill="midnightblue" stroke="midnightblue" points="356.88,-68 366.88,-64.5 356.88,-61 356.88,-68"/>
</g>
<!-- Node11 -->
<g id="node11" class="node">
<title>Node11</title>
<g id="a_node11"><a xlink:href="class_photon_1_1_pun_1_1_photon_transform_view_scale_control.xhtml#ac9180e057c3673c1b02295ceda8a1ea0" target="_top" xlink:title=" ">
<polygon fill="white" stroke="black" points="374.5,-0.5 374.5,-30.5 518.5,-30.5 518.5,-0.5 374.5,-0.5"/>
<text text-anchor="start" x="382.5" y="-18.5" font-family="Helvetica,sans-Serif" font-size="10.00">Photon.Pun.PhotonTransform</text>
<text text-anchor="middle" x="446.5" y="-7.5" font-family="Helvetica,sans-Serif" font-size="10.00">ViewScaleControl.GetScale</text>
</a>
</g>
</g>
<!-- Node10&#45;&gt;Node11 -->
<g id="edge11" class="edge">
<title>Node10&#45;&gt;Node11</title>
<path fill="none" stroke="midnightblue" d="M324.13,-15.5C337.19,-15.5 350.91,-15.5 364.24,-15.5"/>
<polygon fill="midnightblue" stroke="midnightblue" points="364.34,-19 374.34,-15.5 364.34,-12 364.34,-19"/>
</g>
</g>
</svg>
