<?xml version="1.0" encoding="UTF-8" standalone="no"?>
<!DOCTYPE svg PUBLIC "-//W3C//DTD SVG 1.1//EN"
 "http://www.w3.org/Graphics/SVG/1.1/DTD/svg11.dtd">
<!-- Generated by graphviz version 2.47.3 (20210619.1520)
 -->
<!-- Title: Photon.Realtime.LoadBalancingClient.OnStatusChanged Pages: 1 -->
<!--zoomable 487 -->
<svg id="main" version="1.1" xmlns="http://www.w3.org/2000/svg" xmlns:xlink="http://www.w3.org/1999/xlink" xml:space="preserve" onload="init(evt)">
<style type="text/css"><![CDATA[
.edge:hover path { stroke: red; }
.edge:hover polygon { stroke: red; fill: red; }
]]></style>
<script type="text/javascript"><![CDATA[
var edges = document.getElementsByTagName('g');
if (edges && edges.length) {
  for (var i=0;i<edges.length;i++) {
    if (edges[i].id.substr(0,4)=='edge') {
      edges[i].setAttribute('class','edge');
    }
  }
}
]]></script>
        <defs>
                <circle id="rim" cx="0" cy="0" r="7"/>
                <circle id="rim2" cx="0" cy="0" r="3.5"/>
                <g id="zoomPlus">
                        <use xlink:href="#rim" fill="#404040">
                                <set attributeName="fill" to="#808080" begin="zoomplus.mouseover" end="zoomplus.mouseout"/>
                        </use>
                        <path d="M-4,0h8M0,-4v8" fill="none" stroke="white" stroke-width="1.5" pointer-events="none"/>
                </g>
                <g id="zoomMin">
                        <use xlink:href="#rim" fill="#404040">
                                <set attributeName="fill" to="#808080" begin="zoomminus.mouseover" end="zoomminus.mouseout"/>
                        </use>
                        <path d="M-4,0h8" fill="none" stroke="white" stroke-width="1.5" pointer-events="none"/>
                </g>
                <g id="dirArrow">
                        <path fill="none" stroke="white" stroke-width="1.5" d="M0,-3.0v7 M-2.5,-0.5L0,-3.0L2.5,-0.5"/>
                </g>
               <g id="resetDef">
                       <use xlink:href="#rim2" fill="#404040">
                               <set attributeName="fill" to="#808080" begin="reset.mouseover" end="reset.mouseout"/>
                       </use>
               </g>
        </defs>

<script type="text/javascript">
var viewWidth = 1357;
var viewHeight = 487;
var sectionId = 'dynsection-45';
</script>
<script xlink:href="svgpan.js"/>
<svg id="graph" class="graph">
<g id="viewport">
<title>Photon.Realtime.LoadBalancingClient.OnStatusChanged</title>
<polygon fill="white" stroke="transparent" points="-4,4 -4,-483 1353,-483 1353,4 -4,4"/>
<!-- Node1 -->
<g id="node1" class="node">
<title>Node1</title>
<g id="a_node1"><a xlink:title="Uses the connection&#39;s statusCodes to advance the internal state and call operations as needed.">
<polygon fill="#bfbfbf" stroke="black" points="0,-218.5 0,-248.5 155,-248.5 155,-218.5 0,-218.5"/>
<text text-anchor="start" x="8" y="-236.5" font-family="Helvetica,sans-Serif" font-size="10.00">Photon.Realtime.LoadBalancing</text>
<text text-anchor="middle" x="77.5" y="-225.5" font-family="Helvetica,sans-Serif" font-size="10.00">Client.OnStatusChanged</text>
</a>
</g>
</g>
<!-- Node2 -->
<g id="node2" class="node">
<title>Node2</title>
<g id="a_node2"><a xlink:href="class_photon_1_1_realtime_1_1_load_balancing_client.xhtml#a41ac38b72df503d0c9997b0ab1b78801" target="_top" xlink:title=" ">
<polygon fill="white" stroke="black" points="403,-196.5 403,-226.5 558,-226.5 558,-196.5 403,-196.5"/>
<text text-anchor="start" x="411" y="-214.5" font-family="Helvetica,sans-Serif" font-size="10.00">Photon.Realtime.LoadBalancing</text>
<text text-anchor="middle" x="480.5" y="-203.5" font-family="Helvetica,sans-Serif" font-size="10.00">Client.CallAuthenticate</text>
</a>
</g>
</g>
<!-- Node1&#45;&gt;Node2 -->
<g id="edge1" class="edge">
<title>Node1&#45;&gt;Node2</title>
<path fill="none" stroke="midnightblue" d="M155.34,-229.28C223.19,-225.56 322.02,-220.14 392.7,-216.26"/>
<polygon fill="midnightblue" stroke="midnightblue" points="393.12,-219.74 402.92,-215.7 392.74,-212.75 393.12,-219.74"/>
</g>
<!-- Node6 -->
<g id="node6" class="node">
<title>Node6</title>
<g id="a_node6"><a xlink:href="class_photon_1_1_realtime_1_1_load_balancing_client.xhtml#a69dd43d4c7211b5b83cd54d0ebcf79e7" target="_top" xlink:title="Debug output of low level api (and this client).">
<polygon fill="white" stroke="black" points="807.5,-303.5 807.5,-333.5 962.5,-333.5 962.5,-303.5 807.5,-303.5"/>
<text text-anchor="start" x="815.5" y="-321.5" font-family="Helvetica,sans-Serif" font-size="10.00">Photon.Realtime.LoadBalancing</text>
<text text-anchor="middle" x="885" y="-310.5" font-family="Helvetica,sans-Serif" font-size="10.00">Client.DebugReturn</text>
</a>
</g>
</g>
<!-- Node1&#45;&gt;Node6 -->
<g id="edge25" class="edge">
<title>Node1&#45;&gt;Node6</title>
<path fill="none" stroke="midnightblue" d="M109.9,-248.53C132.14,-258.69 162.89,-271.8 191,-280.5 282.93,-308.96 307.27,-314.67 403,-324.5 471.53,-331.54 489.11,-325.13 558,-324.5 639,-323.75 731.3,-321.97 796.97,-320.54"/>
<polygon fill="midnightblue" stroke="midnightblue" points="797.35,-324.03 807.27,-320.31 797.19,-317.03 797.35,-324.03"/>
</g>
<!-- Node10 -->
<g id="node10" class="node">
<title>Node10</title>
<g id="a_node10"><a xlink:href="class_photon_1_1_realtime_1_1_load_balancing_client.xhtml#a32adb95af4cb836a29fc53aa66000caf" target="_top" xlink:title="Internally used to set the LocalPlayer&#39;s ID (from &#45;1 to the actual in&#45;room ID).">
<polygon fill="white" stroke="black" points="201.5,-240.5 201.5,-270.5 356.5,-270.5 356.5,-240.5 201.5,-240.5"/>
<text text-anchor="start" x="209.5" y="-258.5" font-family="Helvetica,sans-Serif" font-size="10.00">Photon.Realtime.LoadBalancing</text>
<text text-anchor="middle" x="279" y="-247.5" font-family="Helvetica,sans-Serif" font-size="10.00">Client.ChangeLocalID</text>
</a>
</g>
</g>
<!-- Node1&#45;&gt;Node10 -->
<g id="edge11" class="edge">
<title>Node1&#45;&gt;Node10</title>
<path fill="none" stroke="midnightblue" d="M155.06,-241.94C166.91,-243.25 179.22,-244.61 191.27,-245.94"/>
<polygon fill="midnightblue" stroke="midnightblue" points="190.99,-249.43 201.31,-247.04 191.76,-242.47 190.99,-249.43"/>
</g>
<!-- Node12 -->
<g id="node12" class="node">
<title>Node12</title>
<g id="a_node12"><a xlink:href="class_photon_1_1_realtime_1_1_load_balancing_client.xhtml#a84e280b4685509d7fa65bedebb0828a2" target="_top" xlink:title=" ">
<polygon fill="white" stroke="black" points="201.5,-448.5 201.5,-478.5 356.5,-478.5 356.5,-448.5 201.5,-448.5"/>
<text text-anchor="start" x="209.5" y="-466.5" font-family="Helvetica,sans-Serif" font-size="10.00">Photon.Realtime.LoadBalancing</text>
<text text-anchor="middle" x="279" y="-455.5" font-family="Helvetica,sans-Serif" font-size="10.00">Client.Connect</text>
</a>
</g>
</g>
<!-- Node1&#45;&gt;Node12 -->
<g id="edge14" class="edge">
<title>Node1&#45;&gt;Node12</title>
<path fill="none" stroke="midnightblue" d="M82.9,-248.73C94.38,-285.82 128.75,-381.57 191,-433.5 195.83,-437.53 201.23,-441.03 206.92,-444.07"/>
<polygon fill="midnightblue" stroke="midnightblue" points="205.51,-447.28 216.04,-448.47 208.56,-440.97 205.51,-447.28"/>
</g>
<!-- Node13 -->
<g id="node13" class="node">
<title>Node13</title>
<g id="a_node13"><a xlink:href="class_photon_1_1_realtime_1_1_load_balancing_client.xhtml#ad1d932ea902a1b1df7769e9a852077c6" target="_top" xlink:title="Starts the &quot;process&quot; to connect to a Master Server, using MasterServerAddress and AppId properties.">
<polygon fill="white" stroke="black" points="403,-421.5 403,-451.5 558,-451.5 558,-421.5 403,-421.5"/>
<text text-anchor="start" x="411" y="-439.5" font-family="Helvetica,sans-Serif" font-size="10.00">Photon.Realtime.LoadBalancing</text>
<text text-anchor="middle" x="480.5" y="-428.5" font-family="Helvetica,sans-Serif" font-size="10.00">Client.ConnectToMasterServer</text>
</a>
</g>
</g>
<!-- Node1&#45;&gt;Node13 -->
<g id="edge21" class="edge">
<title>Node1&#45;&gt;Node13</title>
<path fill="none" stroke="midnightblue" d="M84.55,-248.54C98.22,-280.43 134.77,-354.73 191,-389.5 251.39,-426.84 331.94,-437.4 392.58,-439.3"/>
<polygon fill="midnightblue" stroke="midnightblue" points="392.81,-442.81 402.89,-439.55 392.98,-435.81 392.81,-442.81"/>
</g>
<!-- Node16 -->
<g id="node16" class="node">
<title>Node16</title>
<g id="a_node16"><a xlink:href="class_photon_1_1_realtime_1_1_load_balancing_client.xhtml#a43756ee75b2346cb002f89aee86ff94d" target="_top" xlink:title="Connects to the NameServer for Photon Cloud, where a region and server list can be obtained.">
<polygon fill="white" stroke="black" points="403,-372.5 403,-402.5 558,-402.5 558,-372.5 403,-372.5"/>
<text text-anchor="start" x="411" y="-390.5" font-family="Helvetica,sans-Serif" font-size="10.00">Photon.Realtime.LoadBalancing</text>
<text text-anchor="middle" x="480.5" y="-379.5" font-family="Helvetica,sans-Serif" font-size="10.00">Client.ConnectToNameServer</text>
</a>
</g>
</g>
<!-- Node1&#45;&gt;Node16 -->
<g id="edge22" class="edge">
<title>Node1&#45;&gt;Node16</title>
<path fill="none" stroke="midnightblue" d="M87,-248.57C103.22,-275.74 141.47,-332.42 191,-357.5 253.32,-389.06 332.82,-395.23 392.57,-394.25"/>
<polygon fill="midnightblue" stroke="midnightblue" points="392.82,-397.75 402.74,-394.01 392.66,-390.75 392.82,-397.75"/>
</g>
<!-- Node17 -->
<g id="node17" class="node">
<title>Node17</title>
<g id="a_node17"><a xlink:href="class_photon_1_1_realtime_1_1_connection_callbacks_container.xhtml#ae020162c1ec754e7bcdc604976babac2" target="_top" xlink:title="Called to signal that the &quot;low level connection&quot; got established but before the client can call opera...">
<polygon fill="white" stroke="black" points="197.5,-151.5 197.5,-181.5 360.5,-181.5 360.5,-151.5 197.5,-151.5"/>
<text text-anchor="start" x="205.5" y="-169.5" font-family="Helvetica,sans-Serif" font-size="10.00">Photon.Realtime.Connection</text>
<text text-anchor="middle" x="279" y="-158.5" font-family="Helvetica,sans-Serif" font-size="10.00">CallbacksContainer.OnConnected</text>
</a>
</g>
</g>
<!-- Node1&#45;&gt;Node17 -->
<g id="edge26" class="edge">
<title>Node1&#45;&gt;Node17</title>
<path fill="none" stroke="midnightblue" d="M123.27,-218.46C152.94,-208.5 192.05,-195.36 223.53,-184.79"/>
<polygon fill="midnightblue" stroke="midnightblue" points="224.67,-188.1 233.03,-181.6 222.44,-181.47 224.67,-188.1"/>
</g>
<!-- Node19 -->
<g id="node19" class="node">
<title>Node19</title>
<g id="a_node19"><a xlink:href="class_photon_1_1_realtime_1_1_connection_callbacks_container.xhtml#ad8a7ee8a123cf763142db0d18a83c9cd" target="_top" xlink:title="Called after disconnecting from the Photon server.">
<polygon fill="white" stroke="black" points="191,-101.5 191,-131.5 367,-131.5 367,-101.5 191,-101.5"/>
<text text-anchor="start" x="199" y="-119.5" font-family="Helvetica,sans-Serif" font-size="10.00">Photon.Realtime.Connection</text>
<text text-anchor="middle" x="279" y="-108.5" font-family="Helvetica,sans-Serif" font-size="10.00">CallbacksContainer.OnDisconnected</text>
</a>
</g>
</g>
<!-- Node1&#45;&gt;Node19 -->
<g id="edge28" class="edge">
<title>Node1&#45;&gt;Node19</title>
<path fill="none" stroke="midnightblue" d="M93.13,-218.44C113.38,-198.4 151.89,-163.12 191,-142.5 196.09,-139.81 201.5,-137.37 207.03,-135.14"/>
<polygon fill="midnightblue" stroke="midnightblue" points="208.3,-138.41 216.43,-131.61 205.84,-131.85 208.3,-138.41"/>
</g>
<!-- Node21 -->
<g id="node21" class="node">
<title>Node21</title>
<g id="a_node21"><a xlink:href="class_photon_1_1_realtime_1_1_match_making_callbacks_container.xhtml#aa8f13b83943e6a562e9817807cee4836" target="_top" xlink:title="Called when the local user/client left a room, so the game&#39;s logic can clean up it&#39;s internal state.">
<polygon fill="white" stroke="black" points="200,-50.5 200,-80.5 358,-80.5 358,-50.5 200,-50.5"/>
<text text-anchor="start" x="208" y="-68.5" font-family="Helvetica,sans-Serif" font-size="10.00">Photon.Realtime.MatchMaking</text>
<text text-anchor="middle" x="279" y="-57.5" font-family="Helvetica,sans-Serif" font-size="10.00">CallbacksContainer.OnLeftRoom</text>
</a>
</g>
</g>
<!-- Node1&#45;&gt;Node21 -->
<g id="edge30" class="edge">
<title>Node1&#45;&gt;Node21</title>
<path fill="none" stroke="midnightblue" d="M86.46,-218.12C102.33,-188.97 140.75,-125.55 191,-91.5 194.7,-88.99 198.64,-86.73 202.73,-84.67"/>
<polygon fill="midnightblue" stroke="midnightblue" points="204.23,-87.83 211.88,-80.51 201.33,-81.46 204.23,-87.83"/>
</g>
<!-- Node23 -->
<g id="node23" class="node">
<title>Node23</title>
<g id="a_node23"><a xlink:href="class_photon_1_1_realtime_1_1_load_balancing_client.xhtml#a917cbf329c3675953d0c500055bb4803" target="_top" xlink:title="While on the NameServer, this gets you the list of regional servers (short names and their IPs to pin...">
<polygon fill="white" stroke="black" points="403,-0.5 403,-30.5 558,-30.5 558,-0.5 403,-0.5"/>
<text text-anchor="start" x="411" y="-18.5" font-family="Helvetica,sans-Serif" font-size="10.00">Photon.Realtime.LoadBalancing</text>
<text text-anchor="middle" x="480.5" y="-7.5" font-family="Helvetica,sans-Serif" font-size="10.00">Client.OpGetRegions</text>
</a>
</g>
</g>
<!-- Node1&#45;&gt;Node23 -->
<g id="edge32" class="edge">
<title>Node1&#45;&gt;Node23</title>
<path fill="none" stroke="midnightblue" d="M82.19,-218.36C92.25,-180.74 124,-82.95 191,-40.5 250.74,-2.65 331.94,1.15 392.97,-3.1"/>
<polygon fill="midnightblue" stroke="midnightblue" points="392.73,-6.6 402.97,-3.89 393.27,0.38 392.73,-6.6"/>
</g>
<!-- Node3 -->
<g id="node3" class="node">
<title>Node3</title>
<g id="a_node3"><a xlink:href="class_photon_1_1_realtime_1_1_load_balancing_client.xhtml#aa12ff3efc3aa91e5ceca9b3a40f7bd79" target="_top" xlink:title=" ">
<polygon fill="white" stroke="black" points="603,-103.5 603,-133.5 758,-133.5 758,-103.5 603,-103.5"/>
<text text-anchor="start" x="611" y="-121.5" font-family="Helvetica,sans-Serif" font-size="10.00">Photon.Realtime.LoadBalancing</text>
<text text-anchor="middle" x="680.5" y="-110.5" font-family="Helvetica,sans-Serif" font-size="10.00">Client.CheckIfOpCanBeSent</text>
</a>
</g>
</g>
<!-- Node2&#45;&gt;Node3 -->
<g id="edge2" class="edge">
<title>Node2&#45;&gt;Node3</title>
<path fill="none" stroke="midnightblue" d="M539.53,-196.41C545.95,-193.84 552.24,-190.88 558,-187.5 576.98,-176.37 575.5,-165.43 594,-153.5 603.39,-147.44 614,-142.09 624.48,-137.51"/>
<polygon fill="midnightblue" stroke="midnightblue" points="626.14,-140.61 634.02,-133.52 623.44,-134.15 626.14,-140.61"/>
</g>
<!-- Node2&#45;&gt;Node6 -->
<g id="edge8" class="edge">
<title>Node2&#45;&gt;Node6</title>
<path fill="none" stroke="midnightblue" d="M547.47,-226.5C618.36,-242.75 726.33,-267.9 767,-279.5 788.5,-285.63 811.92,-293.25 832.13,-300.12"/>
<polygon fill="midnightblue" stroke="midnightblue" points="831.17,-303.49 841.76,-303.42 833.44,-296.87 831.17,-303.49"/>
</g>
<!-- Node7 -->
<g id="node7" class="node">
<title>Node7</title>
<g id="a_node7"><a xlink:href="class_photon_1_1_realtime_1_1_load_balancing_peer.xhtml#a7f48b5f0c44ef0c67ef32f147ff87246" target="_top" xlink:title="Creates a Peer with specified connection protocol.">
<polygon fill="white" stroke="black" points="1003,-303.5 1003,-333.5 1158,-333.5 1158,-303.5 1003,-303.5"/>
<text text-anchor="start" x="1011" y="-321.5" font-family="Helvetica,sans-Serif" font-size="10.00">Photon.Realtime.LoadBalancing</text>
<text text-anchor="middle" x="1080.5" y="-310.5" font-family="Helvetica,sans-Serif" font-size="10.00">Peer.LoadBalancingPeer</text>
</a>
</g>
</g>
<!-- Node2&#45;&gt;Node7 -->
<g id="edge9" class="edge">
<title>Node2&#45;&gt;Node7</title>
<path fill="none" stroke="midnightblue" d="M540.68,-196.44C557.77,-192.76 576.52,-189.34 594,-187.5 670.46,-179.43 691.62,-172.34 767,-187.5 873.26,-208.87 988.43,-267.33 1044.65,-298.43"/>
<polygon fill="midnightblue" stroke="midnightblue" points="1043.04,-301.54 1053.48,-303.36 1046.45,-295.43 1043.04,-301.54"/>
</g>
<!-- Node9 -->
<g id="node9" class="node">
<title>Node9</title>
<g id="a_node9"><a xlink:href="class_photon_1_1_realtime_1_1_load_balancing_peer.xhtml#a4ed3ae23ffbc88d5b449997e5af8d9af" target="_top" xlink:title="Sends this app&#39;s appId and appVersion to identify this application server side.">
<polygon fill="white" stroke="black" points="603,-196.5 603,-226.5 758,-226.5 758,-196.5 603,-196.5"/>
<text text-anchor="start" x="611" y="-214.5" font-family="Helvetica,sans-Serif" font-size="10.00">Photon.Realtime.LoadBalancing</text>
<text text-anchor="middle" x="680.5" y="-203.5" font-family="Helvetica,sans-Serif" font-size="10.00">Peer.OpAuthenticate</text>
</a>
</g>
</g>
<!-- Node2&#45;&gt;Node9 -->
<g id="edge10" class="edge">
<title>Node2&#45;&gt;Node9</title>
<path fill="none" stroke="midnightblue" d="M558.05,-211.5C569.41,-211.5 581.19,-211.5 592.75,-211.5"/>
<polygon fill="midnightblue" stroke="midnightblue" points="592.83,-215 602.83,-211.5 592.83,-208 592.83,-215"/>
</g>
<!-- Node4 -->
<g id="node4" class="node">
<title>Node4</title>
<g id="a_node4"><a xlink:href="class_photon_1_1_realtime_1_1_load_balancing_client.xhtml#ae052ab450db16efdd31985d56f76f0ab" target="_top" xlink:title=" ">
<polygon fill="white" stroke="black" points="803,-98 803,-139 967,-139 967,-98 803,-98"/>
<text text-anchor="start" x="811" y="-127" font-family="Helvetica,sans-Serif" font-size="10.00">Photon.Realtime.LoadBalancing</text>
<text text-anchor="start" x="811" y="-116" font-family="Helvetica,sans-Serif" font-size="10.00">Client.CheckIfClientIsReadyToCall</text>
<text text-anchor="middle" x="885" y="-105" font-family="Helvetica,sans-Serif" font-size="10.00">Operation</text>
</a>
</g>
</g>
<!-- Node3&#45;&gt;Node4 -->
<g id="edge3" class="edge">
<title>Node3&#45;&gt;Node4</title>
<path fill="none" stroke="midnightblue" d="M758.06,-118.5C769.4,-118.5 781.19,-118.5 792.8,-118.5"/>
<polygon fill="midnightblue" stroke="midnightblue" points="792.95,-122 802.95,-118.5 792.95,-115 792.95,-122"/>
</g>
<!-- Node5 -->
<g id="node5" class="node">
<title>Node5</title>
<g id="a_node5"><a xlink:href="class_photon_1_1_realtime_1_1_load_balancing_client.xhtml#aa01a53cac6918dab3ecb99669b276f01" target="_top" xlink:title=" ">
<polygon fill="white" stroke="black" points="803.5,-48.5 803.5,-78.5 966.5,-78.5 966.5,-48.5 803.5,-48.5"/>
<text text-anchor="start" x="811.5" y="-66.5" font-family="Helvetica,sans-Serif" font-size="10.00">Photon.Realtime.LoadBalancing</text>
<text text-anchor="middle" x="885" y="-55.5" font-family="Helvetica,sans-Serif" font-size="10.00">Client.CheckIfOpAllowedOnServer</text>
</a>
</g>
</g>
<!-- Node3&#45;&gt;Node5 -->
<g id="edge4" class="edge">
<title>Node3&#45;&gt;Node5</title>
<path fill="none" stroke="midnightblue" d="M736.83,-103.47C762.17,-96.59 792.37,-88.39 818.81,-81.21"/>
<polygon fill="midnightblue" stroke="midnightblue" points="820,-84.51 828.73,-78.51 818.17,-77.75 820,-84.51"/>
</g>
<!-- Node3&#45;&gt;Node6 -->
<g id="edge5" class="edge">
<title>Node3&#45;&gt;Node6</title>
<path fill="none" stroke="midnightblue" d="M701.97,-133.52C719.79,-146.94 745.99,-167.52 767,-187.5 804.24,-222.93 843.17,-268.49 865.41,-295.49"/>
<polygon fill="midnightblue" stroke="midnightblue" points="862.71,-297.72 871.76,-303.24 868.13,-293.29 862.71,-297.72"/>
</g>
<!-- Node6&#45;&gt;Node7 -->
<g id="edge6" class="edge">
<title>Node6&#45;&gt;Node7</title>
<path fill="none" stroke="midnightblue" d="M962.75,-318.5C972.54,-318.5 982.62,-318.5 992.55,-318.5"/>
<polygon fill="midnightblue" stroke="midnightblue" points="992.84,-322 1002.84,-318.5 992.84,-315 992.84,-322"/>
</g>
<!-- Node8 -->
<g id="node8" class="node">
<title>Node8</title>
<g id="a_node8"><a xlink:href="class_photon_1_1_realtime_1_1_load_balancing_peer.xhtml#affaff7e1fdffe86b25156ffac5e738c9" target="_top" xlink:title=" ">
<polygon fill="white" stroke="black" points="1194,-303.5 1194,-333.5 1349,-333.5 1349,-303.5 1194,-303.5"/>
<text text-anchor="start" x="1202" y="-321.5" font-family="Helvetica,sans-Serif" font-size="10.00">Photon.Realtime.LoadBalancing</text>
<text text-anchor="middle" x="1271.5" y="-310.5" font-family="Helvetica,sans-Serif" font-size="10.00">Peer.ConfigUnitySockets</text>
</a>
</g>
</g>
<!-- Node7&#45;&gt;Node8 -->
<g id="edge7" class="edge">
<title>Node7&#45;&gt;Node8</title>
<path fill="none" stroke="midnightblue" d="M1158.1,-318.5C1166.56,-318.5 1175.22,-318.5 1183.79,-318.5"/>
<polygon fill="midnightblue" stroke="midnightblue" points="1183.79,-322 1193.79,-318.5 1183.79,-315 1183.79,-322"/>
</g>
<!-- Node10&#45;&gt;Node6 -->
<g id="edge12" class="edge">
<title>Node10&#45;&gt;Node6</title>
<path fill="none" stroke="midnightblue" d="M356.51,-259.78C412.41,-263.2 490,-268.58 558,-275.5 639.27,-283.78 731.54,-296.23 797.12,-305.61"/>
<polygon fill="midnightblue" stroke="midnightblue" points="797.02,-309.14 807.41,-307.09 798.01,-302.21 797.02,-309.14"/>
</g>
<!-- Node11 -->
<g id="node11" class="node">
<title>Node11</title>
<g id="a_node11"><a xlink:href="class_photon_1_1_realtime_1_1_room.xhtml#a5e614a00e26aae5f35f0805c4e4bb7a9" target="_top" xlink:title="Updates a player reference in the Players dictionary (no matter if it existed before or not).">
<polygon fill="white" stroke="black" points="409,-284.5 409,-314.5 552,-314.5 552,-284.5 409,-284.5"/>
<text text-anchor="start" x="417" y="-302.5" font-family="Helvetica,sans-Serif" font-size="10.00">Photon.Realtime.Room.Store</text>
<text text-anchor="middle" x="480.5" y="-291.5" font-family="Helvetica,sans-Serif" font-size="10.00">Player</text>
</a>
</g>
</g>
<!-- Node10&#45;&gt;Node11 -->
<g id="edge13" class="edge">
<title>Node10&#45;&gt;Node11</title>
<path fill="none" stroke="midnightblue" d="M348.1,-270.52C365.18,-274.29 383.64,-278.36 401.17,-282.22"/>
<polygon fill="midnightblue" stroke="midnightblue" points="400.85,-285.74 411.37,-284.47 402.36,-278.9 400.85,-285.74"/>
</g>
<!-- Node12&#45;&gt;Node13 -->
<g id="edge15" class="edge">
<title>Node12&#45;&gt;Node13</title>
<path fill="none" stroke="midnightblue" d="M356.56,-453.14C368.41,-451.53 380.72,-449.87 392.77,-448.24"/>
<polygon fill="midnightblue" stroke="midnightblue" points="393.37,-451.69 402.81,-446.88 392.43,-444.75 393.37,-451.69"/>
</g>
<!-- Node14 -->
<g id="node14" class="node">
<title>Node14</title>
<g id="a_node14"><a xlink:href="class_photon_1_1_realtime_1_1_load_balancing_client.xhtml#a29aacea6df375e301f67cb40ea90849e" target="_top" xlink:title=" ">
<polygon fill="white" stroke="black" points="598.5,-421.5 598.5,-451.5 762.5,-451.5 762.5,-421.5 598.5,-421.5"/>
<text text-anchor="start" x="606.5" y="-439.5" font-family="Helvetica,sans-Serif" font-size="10.00">Photon.Realtime.LoadBalancing</text>
<text text-anchor="middle" x="680.5" y="-428.5" font-family="Helvetica,sans-Serif" font-size="10.00">Client.CheckConnectSetupWebGl</text>
</a>
</g>
</g>
<!-- Node13&#45;&gt;Node14 -->
<g id="edge16" class="edge">
<title>Node13&#45;&gt;Node14</title>
<path fill="none" stroke="midnightblue" d="M558.05,-436.5C567.93,-436.5 578.12,-436.5 588.2,-436.5"/>
<polygon fill="midnightblue" stroke="midnightblue" points="588.23,-440 598.23,-436.5 588.23,-433 588.23,-440"/>
</g>
<!-- Node15 -->
<g id="node15" class="node">
<title>Node15</title>
<g id="a_node15"><a xlink:href="class_photon_1_1_realtime_1_1_load_balancing_client.xhtml#a43a3b987e52c0e028ce1d5803b7b9507" target="_top" xlink:title=" ">
<polygon fill="white" stroke="black" points="594,-372.5 594,-402.5 767,-402.5 767,-372.5 594,-372.5"/>
<text text-anchor="start" x="602" y="-390.5" font-family="Helvetica,sans-Serif" font-size="10.00">Photon.Realtime.LoadBalancing</text>
<text text-anchor="middle" x="680.5" y="-379.5" font-family="Helvetica,sans-Serif" font-size="10.00">Client.CheckConnectSetupXboxOne</text>
</a>
</g>
</g>
<!-- Node13&#45;&gt;Node15 -->
<g id="edge19" class="edge">
<title>Node13&#45;&gt;Node15</title>
<path fill="none" stroke="midnightblue" d="M542.25,-421.47C563.35,-416.24 587.18,-410.35 609,-404.95"/>
<polygon fill="midnightblue" stroke="midnightblue" points="610,-408.31 618.86,-402.51 608.31,-401.51 610,-408.31"/>
</g>
<!-- Node14&#45;&gt;Node6 -->
<g id="edge17" class="edge">
<title>Node14&#45;&gt;Node6</title>
<path fill="none" stroke="midnightblue" d="M746.08,-421.42C753.3,-418.85 760.42,-415.89 767,-412.5 803.68,-393.62 839.75,-362.14 861.92,-340.86"/>
<polygon fill="midnightblue" stroke="midnightblue" points="864.45,-343.29 869.17,-333.8 859.56,-338.28 864.45,-343.29"/>
</g>
<!-- Node14&#45;&gt;Node7 -->
<g id="edge18" class="edge">
<title>Node14&#45;&gt;Node7</title>
<path fill="none" stroke="midnightblue" d="M735.82,-421.42C746.18,-418.49 756.93,-415.43 767,-412.5 855.69,-386.72 958.15,-355.65 1020.88,-336.49"/>
<polygon fill="midnightblue" stroke="midnightblue" points="1022.06,-339.79 1030.6,-333.52 1020.01,-333.09 1022.06,-339.79"/>
</g>
<!-- Node15&#45;&gt;Node6 -->
<g id="edge20" class="edge">
<title>Node15&#45;&gt;Node6</title>
<path fill="none" stroke="midnightblue" d="M725.69,-372.44C756.38,-361.99 797.45,-347.99 830.07,-336.87"/>
<polygon fill="midnightblue" stroke="midnightblue" points="831.57,-340.06 839.9,-333.52 829.31,-333.44 831.57,-340.06"/>
</g>
<!-- Node16&#45;&gt;Node14 -->
<g id="edge23" class="edge">
<title>Node16&#45;&gt;Node14</title>
<path fill="none" stroke="midnightblue" d="M542.25,-402.53C563.35,-407.76 587.18,-413.65 609,-419.05"/>
<polygon fill="midnightblue" stroke="midnightblue" points="608.31,-422.49 618.86,-421.49 610,-415.69 608.31,-422.49"/>
</g>
<!-- Node16&#45;&gt;Node15 -->
<g id="edge24" class="edge">
<title>Node16&#45;&gt;Node15</title>
<path fill="none" stroke="midnightblue" d="M558.05,-387.5C566.5,-387.5 575.18,-387.5 583.82,-387.5"/>
<polygon fill="midnightblue" stroke="midnightblue" points="583.94,-391 593.94,-387.5 583.94,-384 583.94,-391"/>
</g>
<!-- Node18 -->
<g id="node18" class="node">
<title>Node18</title>
<g id="a_node18"><a xlink:href="interface_photon_1_1_realtime_1_1_i_connection_callbacks.xhtml#a2e3c773af453748eaaf877585d3d8e1d" target="_top" xlink:title="Called to signal that the &quot;low level connection&quot; got established but before the client can call opera...">
<polygon fill="white" stroke="black" points="409,-147.5 409,-177.5 552,-177.5 552,-147.5 409,-147.5"/>
<text text-anchor="start" x="417" y="-165.5" font-family="Helvetica,sans-Serif" font-size="10.00">Photon.Realtime.IConnection</text>
<text text-anchor="middle" x="480.5" y="-154.5" font-family="Helvetica,sans-Serif" font-size="10.00">Callbacks.OnConnected</text>
</a>
</g>
</g>
<!-- Node17&#45;&gt;Node18 -->
<g id="edge27" class="edge">
<title>Node17&#45;&gt;Node18</title>
<path fill="none" stroke="midnightblue" d="M360.57,-164.88C373.2,-164.63 386.25,-164.37 398.88,-164.12"/>
<polygon fill="midnightblue" stroke="midnightblue" points="398.98,-167.62 408.9,-163.92 398.84,-160.62 398.98,-167.62"/>
</g>
<!-- Node20 -->
<g id="node20" class="node">
<title>Node20</title>
<g id="a_node20"><a xlink:href="interface_photon_1_1_realtime_1_1_i_connection_callbacks.xhtml#a5e133a672790851ab0554fdc821c7727" target="_top" xlink:title="Called after disconnecting from the Photon server.">
<polygon fill="white" stroke="black" points="409,-98.5 409,-128.5 552,-128.5 552,-98.5 409,-98.5"/>
<text text-anchor="start" x="417" y="-116.5" font-family="Helvetica,sans-Serif" font-size="10.00">Photon.Realtime.IConnection</text>
<text text-anchor="middle" x="480.5" y="-105.5" font-family="Helvetica,sans-Serif" font-size="10.00">Callbacks.OnDisconnected</text>
</a>
</g>
</g>
<!-- Node19&#45;&gt;Node20 -->
<g id="edge29" class="edge">
<title>Node19&#45;&gt;Node20</title>
<path fill="none" stroke="midnightblue" d="M367.21,-115.19C377.67,-115.03 388.32,-114.87 398.68,-114.72"/>
<polygon fill="midnightblue" stroke="midnightblue" points="398.98,-118.21 408.93,-114.56 398.88,-111.21 398.98,-118.21"/>
</g>
<!-- Node22 -->
<g id="node22" class="node">
<title>Node22</title>
<g id="a_node22"><a xlink:href="interface_photon_1_1_realtime_1_1_i_matchmaking_callbacks.xhtml#acedd813313ad6724f3935801481d8e8f" target="_top" xlink:title="Called when the local user/client left a room, so the game&#39;s logic can clean up it&#39;s internal state.">
<polygon fill="white" stroke="black" points="404.5,-49.5 404.5,-79.5 556.5,-79.5 556.5,-49.5 404.5,-49.5"/>
<text text-anchor="start" x="412.5" y="-67.5" font-family="Helvetica,sans-Serif" font-size="10.00">Photon.Realtime.IMatchmaking</text>
<text text-anchor="middle" x="480.5" y="-56.5" font-family="Helvetica,sans-Serif" font-size="10.00">Callbacks.OnLeftRoom</text>
</a>
</g>
</g>
<!-- Node21&#45;&gt;Node22 -->
<g id="edge31" class="edge">
<title>Node21&#45;&gt;Node22</title>
<path fill="none" stroke="midnightblue" d="M358.28,-65.11C370.01,-65.05 382.16,-64.99 394.04,-64.93"/>
<polygon fill="midnightblue" stroke="midnightblue" points="394.41,-68.43 404.39,-64.88 394.37,-61.43 394.41,-68.43"/>
</g>
<!-- Node23&#45;&gt;Node3 -->
<g id="edge33" class="edge">
<title>Node23&#45;&gt;Node3</title>
<path fill="none" stroke="midnightblue" d="M536.12,-30.62C543.59,-33.27 551.07,-36.24 558,-39.5 592.06,-55.54 627.81,-79.82 651.64,-97.23"/>
<polygon fill="midnightblue" stroke="midnightblue" points="649.73,-100.17 659.86,-103.3 653.89,-94.54 649.73,-100.17"/>
</g>
<!-- Node24 -->
<g id="node24" class="node">
<title>Node24</title>
<g id="a_node24"><a xlink:href="class_photon_1_1_realtime_1_1_load_balancing_peer.xhtml#ac21c4ac3367ad68703fb9fd29f1fa063" target="_top" xlink:title=" ">
<polygon fill="white" stroke="black" points="603,-0.5 603,-30.5 758,-30.5 758,-0.5 603,-0.5"/>
<text text-anchor="start" x="611" y="-18.5" font-family="Helvetica,sans-Serif" font-size="10.00">Photon.Realtime.LoadBalancing</text>
<text text-anchor="middle" x="680.5" y="-7.5" font-family="Helvetica,sans-Serif" font-size="10.00">Peer.OpGetRegions</text>
</a>
</g>
</g>
<!-- Node23&#45;&gt;Node24 -->
<g id="edge34" class="edge">
<title>Node23&#45;&gt;Node24</title>
<path fill="none" stroke="midnightblue" d="M558.05,-15.5C569.41,-15.5 581.19,-15.5 592.75,-15.5"/>
<polygon fill="midnightblue" stroke="midnightblue" points="592.83,-19 602.83,-15.5 592.83,-12 592.83,-19"/>
</g>
</g>
</svg>
        <g id="navigator" transform="translate(0 0)" fill="#404254">
                <rect fill="#f2f5e9" fill-opacity="0.5" stroke="#606060" stroke-width=".5" x="0" y="0" width="60" height="60"/>
                <use id="zoomplus" xlink:href="#zoomPlus" x="17" y="9" onmousedown="handleZoom(evt,'in')"/>
                <use id="zoomminus" xlink:href="#zoomMin" x="42" y="9" onmousedown="handleZoom(evt,'out')"/>
                <use id="reset" xlink:href="#resetDef" x="30" y="36" onmousedown="handleReset()"/>
                <g id="arrowUp" xlink:href="#dirArrow" transform="translate(30 24)" onmousedown="handlePan(0,-1)">
                  <use xlink:href="#rim" fill="#404040">
                        <set attributeName="fill" to="#808080" begin="arrowUp.mouseover" end="arrowUp.mouseout"/>
                  </use>
                  <path fill="none" stroke="white" stroke-width="1.5" d="M0,-3.0v7 M-2.5,-0.5L0,-3.0L2.5,-0.5"/>
                </g>
                <g id="arrowRight" xlink:href="#dirArrow" transform="rotate(90) translate(36 -43)" onmousedown="handlePan(1,0)">
                  <use xlink:href="#rim" fill="#404040">
                        <set attributeName="fill" to="#808080" begin="arrowRight.mouseover" end="arrowRight.mouseout"/>
                  </use>
                  <path fill="none" stroke="white" stroke-width="1.5" d="M0,-3.0v7 M-2.5,-0.5L0,-3.0L2.5,-0.5"/>
                </g>
                <g id="arrowDown" xlink:href="#dirArrow" transform="rotate(180) translate(-30 -48)" onmousedown="handlePan(0,1)">
                  <use xlink:href="#rim" fill="#404040">
                        <set attributeName="fill" to="#808080" begin="arrowDown.mouseover" end="arrowDown.mouseout"/>
                  </use>
                  <path fill="none" stroke="white" stroke-width="1.5" d="M0,-3.0v7 M-2.5,-0.5L0,-3.0L2.5,-0.5"/>
                </g>
                <g id="arrowLeft" xlink:href="#dirArrow" transform="rotate(270) translate(-36 17)" onmousedown="handlePan(-1,0)">
                  <use xlink:href="#rim" fill="#404040">
                        <set attributeName="fill" to="#808080" begin="arrowLeft.mouseover" end="arrowLeft.mouseout"/>
                  </use>
                  <path fill="none" stroke="white" stroke-width="1.5" d="M0,-3.0v7 M-2.5,-0.5L0,-3.0L2.5,-0.5"/>
                </g>
        </g>
        <svg viewBox="0 0 15 15" width="100%" height="30px" preserveAspectRatio="xMaxYMin meet">
         <g id="arrow_out" transform="scale(0.3 0.3)">
          <a xlink:href="class_photon_1_1_realtime_1_1_load_balancing_client_affac531c1eb7a4d77326135150f19b7e_cgraph_org.svg" target="_base">
           <rect id="button" ry="5" rx="5" y="6" x="6" height="38" width="38"
                fill="#f2f5e9" fill-opacity="0.5" stroke="#606060" stroke-width="1.0"/>
           <path id="arrow"
             d="M 11.500037,31.436501 C 11.940474,20.09759 22.043105,11.32322 32.158766,21.979434 L 37.068811,17.246167 C 37.068811,17.246167 37.088388,32 37.088388,32 L 22.160133,31.978069 C 22.160133,31.978069 26.997745,27.140456 26.997745,27.140456 C 18.528582,18.264221 13.291696,25.230495 11.500037,31.436501 z"
             style="fill:#404040;"/>
          </a>
         </g>
        </svg>
</svg>
