<?xml version="1.0" encoding="UTF-8" standalone="no"?>
<!DOCTYPE svg PUBLIC "-//W3C//DTD SVG 1.1//EN"
 "http://www.w3.org/Graphics/SVG/1.1/DTD/svg11.dtd">
<!-- Generated by graphviz version 2.47.3 (20210619.1520)
 -->
<!-- Title: Photon.Pun.Demo.Asteroids.LobbyMainPanel.OnRoomListButtonClicked Pages: 1 -->
<svg width="376pt" height="88pt"
 viewBox="0.00 0.00 376.00 88.00" xmlns="http://www.w3.org/2000/svg" xmlns:xlink="http://www.w3.org/1999/xlink">
<g id="graph0" class="graph" transform="scale(1 1) rotate(0) translate(4 84)">
<title>Photon.Pun.Demo.Asteroids.LobbyMainPanel.OnRoomListButtonClicked</title>
<polygon fill="white" stroke="transparent" points="-4,4 -4,-84 372,-84 372,4 -4,4"/>
<!-- Node1 -->
<g id="node1" class="node">
<title>Node1</title>
<g id="a_node1"><a xlink:title=" ">
<polygon fill="#bfbfbf" stroke="black" points="0,-19 0,-60 174,-60 174,-19 0,-19"/>
<text text-anchor="start" x="8" y="-48" font-family="Helvetica,sans-Serif" font-size="10.00">Photon.Pun.Demo.Asteroids.</text>
<text text-anchor="start" x="8" y="-37" font-family="Helvetica,sans-Serif" font-size="10.00">LobbyMainPanel.OnRoomListButton</text>
<text text-anchor="middle" x="87" y="-26" font-family="Helvetica,sans-Serif" font-size="10.00">Clicked</text>
</a>
</g>
</g>
<!-- Node2 -->
<g id="node2" class="node">
<title>Node2</title>
<g id="a_node2"><a xlink:href="class_photon_1_1_pun_1_1_photon_network.xhtml#a27acbd663f3836dc3b5036f0854d05cd" target="_top" xlink:title="On MasterServer this joins the default lobby which list rooms currently in use.">
<polygon fill="white" stroke="black" points="219,-49.5 219,-79.5 359,-79.5 359,-49.5 219,-49.5"/>
<text text-anchor="start" x="227" y="-67.5" font-family="Helvetica,sans-Serif" font-size="10.00">Photon.Pun.PhotonNetwork.</text>
<text text-anchor="middle" x="289" y="-56.5" font-family="Helvetica,sans-Serif" font-size="10.00">JoinLobby</text>
</a>
</g>
</g>
<!-- Node1&#45;&gt;Node2 -->
<g id="edge1" class="edge">
<title>Node1&#45;&gt;Node2</title>
<path fill="none" stroke="midnightblue" d="M174.27,-50.28C185.68,-51.71 197.34,-53.17 208.63,-54.58"/>
<polygon fill="midnightblue" stroke="midnightblue" points="208.52,-58.09 218.88,-55.86 209.39,-51.15 208.52,-58.09"/>
</g>
<!-- Node3 -->
<g id="node3" class="node">
<title>Node3</title>
<g id="a_node3"><a xlink:href="class_photon_1_1_pun_1_1_demo_1_1_asteroids_1_1_lobby_main_panel.xhtml#ae0f058a2d1732456fd5c65f2ad8a99dc" target="_top" xlink:title=" ">
<polygon fill="white" stroke="black" points="210,-0.5 210,-30.5 368,-30.5 368,-0.5 210,-0.5"/>
<text text-anchor="start" x="218" y="-18.5" font-family="Helvetica,sans-Serif" font-size="10.00">Photon.Pun.Demo.Asteroids.</text>
<text text-anchor="middle" x="289" y="-7.5" font-family="Helvetica,sans-Serif" font-size="10.00">LobbyMainPanel.SetActivePanel</text>
</a>
</g>
</g>
<!-- Node1&#45;&gt;Node3 -->
<g id="edge2" class="edge">
<title>Node1&#45;&gt;Node3</title>
<path fill="none" stroke="midnightblue" d="M174.27,-29.15C182.78,-28.13 191.43,-27.09 199.95,-26.07"/>
<polygon fill="midnightblue" stroke="midnightblue" points="200.38,-29.54 209.9,-24.87 199.55,-22.59 200.38,-29.54"/>
</g>
</g>
</svg>
