<?xml version="1.0" encoding="UTF-8" standalone="no"?>
<!DOCTYPE svg PUBLIC "-//W3C//DTD SVG 1.1//EN"
 "http://www.w3.org/Graphics/SVG/1.1/DTD/svg11.dtd">
<!-- Generated by graphviz version 2.47.3 (20210619.1520)
 -->
<!-- Title: Photon.Chat.ChatClient.OnEvent Pages: 1 -->
<!--zoomable 333 -->
<svg id="main" version="1.1" xmlns="http://www.w3.org/2000/svg" xmlns:xlink="http://www.w3.org/1999/xlink" xml:space="preserve" onload="init(evt)">
<style type="text/css"><![CDATA[
.edge:hover path { stroke: red; }
.edge:hover polygon { stroke: red; fill: red; }
]]></style>
<script type="text/javascript"><![CDATA[
var edges = document.getElementsByTagName('g');
if (edges && edges.length) {
  for (var i=0;i<edges.length;i++) {
    if (edges[i].id.substr(0,4)=='edge') {
      edges[i].setAttribute('class','edge');
    }
  }
}
]]></script>
        <defs>
                <circle id="rim" cx="0" cy="0" r="7"/>
                <circle id="rim2" cx="0" cy="0" r="3.5"/>
                <g id="zoomPlus">
                        <use xlink:href="#rim" fill="#404040">
                                <set attributeName="fill" to="#808080" begin="zoomplus.mouseover" end="zoomplus.mouseout"/>
                        </use>
                        <path d="M-4,0h8M0,-4v8" fill="none" stroke="white" stroke-width="1.5" pointer-events="none"/>
                </g>
                <g id="zoomMin">
                        <use xlink:href="#rim" fill="#404040">
                                <set attributeName="fill" to="#808080" begin="zoomminus.mouseover" end="zoomminus.mouseout"/>
                        </use>
                        <path d="M-4,0h8" fill="none" stroke="white" stroke-width="1.5" pointer-events="none"/>
                </g>
                <g id="dirArrow">
                        <path fill="none" stroke="white" stroke-width="1.5" d="M0,-3.0v7 M-2.5,-0.5L0,-3.0L2.5,-0.5"/>
                </g>
               <g id="resetDef">
                       <use xlink:href="#rim2" fill="#404040">
                               <set attributeName="fill" to="#808080" begin="reset.mouseover" end="reset.mouseout"/>
                       </use>
               </g>
        </defs>

<script type="text/javascript">
var viewWidth = 683;
var viewHeight = 333;
var sectionId = 'dynsection-24';
</script>
<script xlink:href="svgpan.js"/>
<svg id="graph" class="graph">
<g id="viewport">
<title>Photon.Chat.ChatClient.OnEvent</title>
<polygon fill="white" stroke="transparent" points="-4,4 -4,-329 679,-329 679,4 -4,4"/>
<!-- Node1 -->
<g id="node1" class="node">
<title>Node1</title>
<g id="a_node1"><a xlink:title=" ">
<polygon fill="#bfbfbf" stroke="black" points="0,-147.5 0,-177.5 134,-177.5 134,-147.5 0,-147.5"/>
<text text-anchor="start" x="8" y="-165.5" font-family="Helvetica,sans-Serif" font-size="10.00">Photon.Chat.ChatClient.On</text>
<text text-anchor="middle" x="67" y="-154.5" font-family="Helvetica,sans-Serif" font-size="10.00">Event</text>
</a>
</g>
</g>
<!-- Node2 -->
<g id="node2" class="node">
<title>Node2</title>
<g id="a_node2"><a xlink:href="class_photon_1_1_chat_1_1_chat_client.xhtml#a8ea25391a52a306adc08cabd928becc3" target="_top" xlink:title=" ">
<polygon fill="white" stroke="black" points="170,-294.5 170,-324.5 322,-324.5 322,-294.5 170,-294.5"/>
<text text-anchor="start" x="178" y="-312.5" font-family="Helvetica,sans-Serif" font-size="10.00">Photon.Chat.ChatClient.Handle</text>
<text text-anchor="middle" x="246" y="-301.5" font-family="Helvetica,sans-Serif" font-size="10.00">ChatMessagesEvent</text>
</a>
</g>
</g>
<!-- Node1&#45;&gt;Node2 -->
<g id="edge1" class="edge">
<title>Node1&#45;&gt;Node2</title>
<path fill="none" stroke="midnightblue" d="M76.69,-177.56C92.2,-203.18 127.11,-255.27 170,-284.5 172.92,-286.49 176.02,-288.34 179.22,-290.04"/>
<polygon fill="midnightblue" stroke="midnightblue" points="177.95,-293.32 188.48,-294.49 180.99,-287.01 177.95,-293.32"/>
</g>
<!-- Node5 -->
<g id="node5" class="node">
<title>Node5</title>
<g id="a_node5"><a xlink:href="class_photon_1_1_chat_1_1_chat_client.xhtml#a7a4f71c23e6893b6ed7b64ae1715c177" target="_top" xlink:title=" ">
<polygon fill="white" stroke="black" points="170,-245.5 170,-275.5 322,-275.5 322,-245.5 170,-245.5"/>
<text text-anchor="start" x="178" y="-263.5" font-family="Helvetica,sans-Serif" font-size="10.00">Photon.Chat.ChatClient.Handle</text>
<text text-anchor="middle" x="246" y="-252.5" font-family="Helvetica,sans-Serif" font-size="10.00">PrivateMessageEvent</text>
</a>
</g>
</g>
<!-- Node1&#45;&gt;Node5 -->
<g id="edge4" class="edge">
<title>Node1&#45;&gt;Node5</title>
<path fill="none" stroke="midnightblue" d="M85.72,-177.72C105.27,-193.88 138.18,-219.28 170,-235.5 174.28,-237.68 178.8,-239.74 183.4,-241.66"/>
<polygon fill="midnightblue" stroke="midnightblue" points="182.34,-245 192.93,-245.41 184.91,-238.49 182.34,-245"/>
</g>
<!-- Node7 -->
<g id="node7" class="node">
<title>Node7</title>
<g id="a_node7"><a xlink:href="class_photon_1_1_chat_1_1_chat_client.xhtml#abacc7a03514cd92c694540ed80b7b146" target="_top" xlink:title=" ">
<polygon fill="white" stroke="black" points="170,-196.5 170,-226.5 322,-226.5 322,-196.5 170,-196.5"/>
<text text-anchor="start" x="178" y="-214.5" font-family="Helvetica,sans-Serif" font-size="10.00">Photon.Chat.ChatClient.Handle</text>
<text text-anchor="middle" x="246" y="-203.5" font-family="Helvetica,sans-Serif" font-size="10.00">StatusUpdate</text>
</a>
</g>
</g>
<!-- Node1&#45;&gt;Node7 -->
<g id="edge7" class="edge">
<title>Node1&#45;&gt;Node7</title>
<path fill="none" stroke="midnightblue" d="M122.55,-177.6C140.97,-182.7 161.71,-188.44 180.81,-193.73"/>
<polygon fill="midnightblue" stroke="midnightblue" points="180.06,-197.15 190.63,-196.45 181.93,-190.41 180.06,-197.15"/>
</g>
<!-- Node8 -->
<g id="node8" class="node">
<title>Node8</title>
<g id="a_node8"><a xlink:href="class_photon_1_1_chat_1_1_chat_client.xhtml#a16dde8462bf480197026133d168adcda" target="_top" xlink:title=" ">
<polygon fill="white" stroke="black" points="170,-147.5 170,-177.5 322,-177.5 322,-147.5 170,-147.5"/>
<text text-anchor="start" x="178" y="-165.5" font-family="Helvetica,sans-Serif" font-size="10.00">Photon.Chat.ChatClient.Handle</text>
<text text-anchor="middle" x="246" y="-154.5" font-family="Helvetica,sans-Serif" font-size="10.00">SubscribeEvent</text>
</a>
</g>
</g>
<!-- Node1&#45;&gt;Node8 -->
<g id="edge8" class="edge">
<title>Node1&#45;&gt;Node8</title>
<path fill="none" stroke="midnightblue" d="M134.16,-162.5C142.56,-162.5 151.24,-162.5 159.89,-162.5"/>
<polygon fill="midnightblue" stroke="midnightblue" points="159.99,-166 169.99,-162.5 159.99,-159 159.99,-166"/>
</g>
<!-- Node9 -->
<g id="node9" class="node">
<title>Node9</title>
<g id="a_node9"><a xlink:href="class_photon_1_1_chat_1_1_chat_client.xhtml#a231b0ce90f39ead85cb27bcf77184b01" target="_top" xlink:title=" ">
<polygon fill="white" stroke="black" points="170,-98.5 170,-128.5 322,-128.5 322,-98.5 170,-98.5"/>
<text text-anchor="start" x="178" y="-116.5" font-family="Helvetica,sans-Serif" font-size="10.00">Photon.Chat.ChatClient.Handle</text>
<text text-anchor="middle" x="246" y="-105.5" font-family="Helvetica,sans-Serif" font-size="10.00">UnsubscribeEvent</text>
</a>
</g>
</g>
<!-- Node1&#45;&gt;Node9 -->
<g id="edge9" class="edge">
<title>Node1&#45;&gt;Node9</title>
<path fill="none" stroke="midnightblue" d="M122.55,-147.4C140.97,-142.3 161.71,-136.56 180.81,-131.27"/>
<polygon fill="midnightblue" stroke="midnightblue" points="181.93,-134.59 190.63,-128.55 180.06,-127.85 181.93,-134.59"/>
</g>
<!-- Node10 -->
<g id="node10" class="node">
<title>Node10</title>
<g id="a_node10"><a xlink:href="class_photon_1_1_chat_1_1_chat_client.xhtml#ad904338de0cf5bd965029ca3625d5dbf" target="_top" xlink:title=" ">
<polygon fill="white" stroke="black" points="170,-49.5 170,-79.5 322,-79.5 322,-49.5 170,-49.5"/>
<text text-anchor="start" x="178" y="-67.5" font-family="Helvetica,sans-Serif" font-size="10.00">Photon.Chat.ChatClient.Handle</text>
<text text-anchor="middle" x="246" y="-56.5" font-family="Helvetica,sans-Serif" font-size="10.00">UserSubscribedEvent</text>
</a>
</g>
</g>
<!-- Node1&#45;&gt;Node10 -->
<g id="edge10" class="edge">
<title>Node1&#45;&gt;Node10</title>
<path fill="none" stroke="midnightblue" d="M85.29,-147.28C104.73,-130.83 137.79,-104.81 170,-88.5 173.7,-86.62 177.59,-84.86 181.55,-83.2"/>
<polygon fill="midnightblue" stroke="midnightblue" points="182.88,-86.43 190.91,-79.52 180.32,-79.92 182.88,-86.43"/>
</g>
<!-- Node11 -->
<g id="node11" class="node">
<title>Node11</title>
<g id="a_node11"><a xlink:href="class_photon_1_1_chat_1_1_chat_client.xhtml#afeea2f5182c79f4d70613f4bcb42e49b" target="_top" xlink:title=" ">
<polygon fill="white" stroke="black" points="170,-0.5 170,-30.5 322,-30.5 322,-0.5 170,-0.5"/>
<text text-anchor="start" x="178" y="-18.5" font-family="Helvetica,sans-Serif" font-size="10.00">Photon.Chat.ChatClient.Handle</text>
<text text-anchor="middle" x="246" y="-7.5" font-family="Helvetica,sans-Serif" font-size="10.00">UserUnsubscribedEvent</text>
</a>
</g>
</g>
<!-- Node1&#45;&gt;Node11 -->
<g id="edge11" class="edge">
<title>Node1&#45;&gt;Node11</title>
<path fill="none" stroke="midnightblue" d="M76.62,-147.25C92.03,-121.34 126.78,-68.69 170,-39.5 172.39,-37.89 174.89,-36.37 177.48,-34.96"/>
<polygon fill="midnightblue" stroke="midnightblue" points="179.09,-38.07 186.53,-30.52 176.01,-31.78 179.09,-38.07"/>
</g>
<!-- Node3 -->
<g id="node3" class="node">
<title>Node3</title>
<g id="a_node3"><a xlink:href="class_photon_1_1_chat_1_1_chat_channel.xhtml#a5eb947e8dd58ddd106034d534c1f649c" target="_top" xlink:title="Used internally to add messages to this channel.">
<polygon fill="white" stroke="black" points="358,-297 358,-316 507,-316 507,-297 358,-297"/>
<text text-anchor="middle" x="432.5" y="-304" font-family="Helvetica,sans-Serif" font-size="10.00">Photon.Chat.ChatChannel.Add</text>
</a>
</g>
</g>
<!-- Node2&#45;&gt;Node3 -->
<g id="edge2" class="edge">
<title>Node2&#45;&gt;Node3</title>
<path fill="none" stroke="midnightblue" d="M322.04,-308.28C330.41,-308.14 338.98,-308 347.45,-307.87"/>
<polygon fill="midnightblue" stroke="midnightblue" points="347.78,-311.36 357.72,-307.7 347.66,-304.36 347.78,-311.36"/>
</g>
<!-- Node4 -->
<g id="node4" class="node">
<title>Node4</title>
<g id="a_node4"><a xlink:href="class_photon_1_1_chat_1_1_chat_channel.xhtml#a3fb69bcd88bf1af054f514bdfaf1f413" target="_top" xlink:title="Reduces the number of locally cached messages in this channel to the MessageLimit (if set).">
<polygon fill="white" stroke="black" points="543,-291.5 543,-321.5 675,-321.5 675,-291.5 543,-291.5"/>
<text text-anchor="start" x="551" y="-309.5" font-family="Helvetica,sans-Serif" font-size="10.00">Photon.Chat.ChatChannel.</text>
<text text-anchor="middle" x="609" y="-298.5" font-family="Helvetica,sans-Serif" font-size="10.00">TruncateMessages</text>
</a>
</g>
</g>
<!-- Node3&#45;&gt;Node4 -->
<g id="edge3" class="edge">
<title>Node3&#45;&gt;Node4</title>
<path fill="none" stroke="midnightblue" d="M507.25,-306.5C515.65,-306.5 524.22,-306.5 532.64,-306.5"/>
<polygon fill="midnightblue" stroke="midnightblue" points="532.81,-310 542.81,-306.5 532.81,-303 532.81,-310"/>
</g>
<!-- Node5&#45;&gt;Node3 -->
<g id="edge5" class="edge">
<title>Node5&#45;&gt;Node3</title>
<path fill="none" stroke="midnightblue" d="M307.41,-275.56C332.04,-281.7 360.11,-288.7 383.32,-294.49"/>
<polygon fill="midnightblue" stroke="midnightblue" points="382.73,-297.95 393.28,-296.97 384.43,-291.16 382.73,-297.95"/>
</g>
<!-- Node6 -->
<g id="node6" class="node">
<title>Node6</title>
<g id="a_node6"><a xlink:href="class_photon_1_1_chat_1_1_chat_client.xhtml#ab1feb7b68f1125ecd4a5c1994767a8ce" target="_top" xlink:title="Get you the (locally used) channel name for the chat between this client and another user.">
<polygon fill="white" stroke="black" points="363,-245.5 363,-275.5 502,-275.5 502,-245.5 363,-245.5"/>
<text text-anchor="start" x="371" y="-263.5" font-family="Helvetica,sans-Serif" font-size="10.00">Photon.Chat.ChatClient.Get</text>
<text text-anchor="middle" x="432.5" y="-252.5" font-family="Helvetica,sans-Serif" font-size="10.00">PrivateChannelNameByUser</text>
</a>
</g>
</g>
<!-- Node5&#45;&gt;Node6 -->
<g id="edge6" class="edge">
<title>Node5&#45;&gt;Node6</title>
<path fill="none" stroke="midnightblue" d="M322.04,-260.5C332.14,-260.5 342.53,-260.5 352.7,-260.5"/>
<polygon fill="midnightblue" stroke="midnightblue" points="352.77,-264 362.77,-260.5 352.77,-257 352.77,-264"/>
</g>
</g>
</svg>
        <g id="navigator" transform="translate(0 0)" fill="#404254">
                <rect fill="#f2f5e9" fill-opacity="0.5" stroke="#606060" stroke-width=".5" x="0" y="0" width="60" height="60"/>
                <use id="zoomplus" xlink:href="#zoomPlus" x="17" y="9" onmousedown="handleZoom(evt,'in')"/>
                <use id="zoomminus" xlink:href="#zoomMin" x="42" y="9" onmousedown="handleZoom(evt,'out')"/>
                <use id="reset" xlink:href="#resetDef" x="30" y="36" onmousedown="handleReset()"/>
                <g id="arrowUp" xlink:href="#dirArrow" transform="translate(30 24)" onmousedown="handlePan(0,-1)">
                  <use xlink:href="#rim" fill="#404040">
                        <set attributeName="fill" to="#808080" begin="arrowUp.mouseover" end="arrowUp.mouseout"/>
                  </use>
                  <path fill="none" stroke="white" stroke-width="1.5" d="M0,-3.0v7 M-2.5,-0.5L0,-3.0L2.5,-0.5"/>
                </g>
                <g id="arrowRight" xlink:href="#dirArrow" transform="rotate(90) translate(36 -43)" onmousedown="handlePan(1,0)">
                  <use xlink:href="#rim" fill="#404040">
                        <set attributeName="fill" to="#808080" begin="arrowRight.mouseover" end="arrowRight.mouseout"/>
                  </use>
                  <path fill="none" stroke="white" stroke-width="1.5" d="M0,-3.0v7 M-2.5,-0.5L0,-3.0L2.5,-0.5"/>
                </g>
                <g id="arrowDown" xlink:href="#dirArrow" transform="rotate(180) translate(-30 -48)" onmousedown="handlePan(0,1)">
                  <use xlink:href="#rim" fill="#404040">
                        <set attributeName="fill" to="#808080" begin="arrowDown.mouseover" end="arrowDown.mouseout"/>
                  </use>
                  <path fill="none" stroke="white" stroke-width="1.5" d="M0,-3.0v7 M-2.5,-0.5L0,-3.0L2.5,-0.5"/>
                </g>
                <g id="arrowLeft" xlink:href="#dirArrow" transform="rotate(270) translate(-36 17)" onmousedown="handlePan(-1,0)">
                  <use xlink:href="#rim" fill="#404040">
                        <set attributeName="fill" to="#808080" begin="arrowLeft.mouseover" end="arrowLeft.mouseout"/>
                  </use>
                  <path fill="none" stroke="white" stroke-width="1.5" d="M0,-3.0v7 M-2.5,-0.5L0,-3.0L2.5,-0.5"/>
                </g>
        </g>
        <svg viewBox="0 0 15 15" width="100%" height="30px" preserveAspectRatio="xMaxYMin meet">
         <g id="arrow_out" transform="scale(0.3 0.3)">
          <a xlink:href="class_photon_1_1_chat_1_1_chat_client_a6040c42c7364e2488514bd79383213d9_cgraph_org.svg" target="_base">
           <rect id="button" ry="5" rx="5" y="6" x="6" height="38" width="38"
                fill="#f2f5e9" fill-opacity="0.5" stroke="#606060" stroke-width="1.0"/>
           <path id="arrow"
             d="M 11.500037,31.436501 C 11.940474,20.09759 22.043105,11.32322 32.158766,21.979434 L 37.068811,17.246167 C 37.068811,17.246167 37.088388,32 37.088388,32 L 22.160133,31.978069 C 22.160133,31.978069 26.997745,27.140456 26.997745,27.140456 C 18.528582,18.264221 13.291696,25.230495 11.500037,31.436501 z"
             style="fill:#404040;"/>
          </a>
         </g>
        </svg>
</svg>
