<?xml version="1.0" encoding="UTF-8" standalone="no"?>
<!DOCTYPE svg PUBLIC "-//W3C//DTD SVG 1.1//EN"
 "http://www.w3.org/Graphics/SVG/1.1/DTD/svg11.dtd">
<!-- Generated by graphviz version 2.47.3 (20210619.1520)
 -->
<!-- Title: Photon.Chat.ChatClient.OnStatusChanged Pages: 1 -->
<!--zoomable 215 -->
<svg id="main" version="1.1" xmlns="http://www.w3.org/2000/svg" xmlns:xlink="http://www.w3.org/1999/xlink" xml:space="preserve" onload="init(evt)">
<style type="text/css"><![CDATA[
.edge:hover path { stroke: red; }
.edge:hover polygon { stroke: red; fill: red; }
]]></style>
<script type="text/javascript"><![CDATA[
var edges = document.getElementsByTagName('g');
if (edges && edges.length) {
  for (var i=0;i<edges.length;i++) {
    if (edges[i].id.substr(0,4)=='edge') {
      edges[i].setAttribute('class','edge');
    }
  }
}
]]></script>
        <defs>
                <circle id="rim" cx="0" cy="0" r="7"/>
                <circle id="rim2" cx="0" cy="0" r="3.5"/>
                <g id="zoomPlus">
                        <use xlink:href="#rim" fill="#404040">
                                <set attributeName="fill" to="#808080" begin="zoomplus.mouseover" end="zoomplus.mouseout"/>
                        </use>
                        <path d="M-4,0h8M0,-4v8" fill="none" stroke="white" stroke-width="1.5" pointer-events="none"/>
                </g>
                <g id="zoomMin">
                        <use xlink:href="#rim" fill="#404040">
                                <set attributeName="fill" to="#808080" begin="zoomminus.mouseover" end="zoomminus.mouseout"/>
                        </use>
                        <path d="M-4,0h8" fill="none" stroke="white" stroke-width="1.5" pointer-events="none"/>
                </g>
                <g id="dirArrow">
                        <path fill="none" stroke="white" stroke-width="1.5" d="M0,-3.0v7 M-2.5,-0.5L0,-3.0L2.5,-0.5"/>
                </g>
               <g id="resetDef">
                       <use xlink:href="#rim2" fill="#404040">
                               <set attributeName="fill" to="#808080" begin="reset.mouseover" end="reset.mouseout"/>
                       </use>
               </g>
        </defs>

<script type="text/javascript">
var viewWidth = 562;
var viewHeight = 215;
var sectionId = 'dynsection-26';
</script>
<script xlink:href="svgpan.js"/>
<svg id="graph" class="graph">
<g id="viewport">
<title>Photon.Chat.ChatClient.OnStatusChanged</title>
<polygon fill="white" stroke="transparent" points="-4,4 -4,-211 558,-211 558,4 -4,4"/>
<!-- Node1 -->
<g id="node1" class="node">
<title>Node1</title>
<g id="a_node1"><a xlink:title=" ">
<polygon fill="#bfbfbf" stroke="black" points="0,-88.5 0,-118.5 134,-118.5 134,-88.5 0,-88.5"/>
<text text-anchor="start" x="8" y="-106.5" font-family="Helvetica,sans-Serif" font-size="10.00">Photon.Chat.ChatClient.On</text>
<text text-anchor="middle" x="67" y="-95.5" font-family="Helvetica,sans-Serif" font-size="10.00">StatusChanged</text>
</a>
</g>
</g>
<!-- Node2 -->
<g id="node2" class="node">
<title>Node2</title>
<g id="a_node2"><a xlink:href="class_photon_1_1_chat_1_1_chat_client.xhtml#a021fb122f4ed3a4dccaa6d5583a85c22" target="_top" xlink:title=" ">
<polygon fill="white" stroke="black" points="170,-176.5 170,-206.5 346,-206.5 346,-176.5 170,-176.5"/>
<text text-anchor="start" x="178" y="-194.5" font-family="Helvetica,sans-Serif" font-size="10.00">Photon.Chat.ChatClient.Authenticate</text>
<text text-anchor="middle" x="258" y="-183.5" font-family="Helvetica,sans-Serif" font-size="10.00">OnFrontEnd</text>
</a>
</g>
</g>
<!-- Node1&#45;&gt;Node2 -->
<g id="edge1" class="edge">
<title>Node1&#45;&gt;Node2</title>
<path fill="none" stroke="midnightblue" d="M91.66,-118.62C111.92,-131.16 142.16,-148.91 170,-161.5 179.06,-165.6 188.86,-169.47 198.5,-173"/>
<polygon fill="midnightblue" stroke="midnightblue" points="197.47,-176.34 208.06,-176.4 199.81,-169.75 197.47,-176.34"/>
</g>
<!-- Node3 -->
<g id="node3" class="node">
<title>Node3</title>
<g id="a_node3"><a xlink:href="class_photon_1_1_chat_1_1_chat_peer.xhtml#afc6fce926fbdd0512c2940c1a914f4e7" target="_top" xlink:title="Connects to NameServer.">
<polygon fill="white" stroke="black" points="391.5,-116 391.5,-135 544.5,-135 544.5,-116 391.5,-116"/>
<text text-anchor="middle" x="468" y="-123" font-family="Helvetica,sans-Serif" font-size="10.00">Photon.Chat.ChatPeer.Connect</text>
</a>
</g>
</g>
<!-- Node1&#45;&gt;Node3 -->
<g id="edge2" class="edge">
<title>Node1&#45;&gt;Node3</title>
<path fill="none" stroke="midnightblue" d="M118.92,-118.53C135.1,-122.61 153.17,-126.47 170,-128.5 240.78,-137.05 321.73,-135.49 381.22,-132.24"/>
<polygon fill="midnightblue" stroke="midnightblue" points="381.54,-135.73 391.33,-131.67 381.14,-128.74 381.54,-135.73"/>
</g>
<!-- Node4 -->
<g id="node4" class="node">
<title>Node4</title>
<g id="a_node4"><a xlink:href="class_photon_1_1_chat_1_1_chat_client.xhtml#aa8b24c8d99ef4691becf5e7d7e2bf0b8" target="_top" xlink:title=" ">
<polygon fill="white" stroke="black" points="179,-88.5 179,-118.5 337,-118.5 337,-88.5 179,-88.5"/>
<text text-anchor="start" x="187" y="-106.5" font-family="Helvetica,sans-Serif" font-size="10.00">Photon.Chat.ChatClient.Connect</text>
<text text-anchor="middle" x="258" y="-95.5" font-family="Helvetica,sans-Serif" font-size="10.00">ToFrontEnd</text>
</a>
</g>
</g>
<!-- Node1&#45;&gt;Node4 -->
<g id="edge3" class="edge">
<title>Node1&#45;&gt;Node4</title>
<path fill="none" stroke="midnightblue" d="M134.1,-103.5C145.3,-103.5 157.08,-103.5 168.74,-103.5"/>
<polygon fill="midnightblue" stroke="midnightblue" points="168.93,-107 178.93,-103.5 168.93,-100 168.93,-107"/>
</g>
<!-- Node5 -->
<g id="node5" class="node">
<title>Node5</title>
<g id="a_node5"><a xlink:href="class_photon_1_1_chat_1_1_chat_client.xhtml#a9eac49b1efa140099bd95f95df3cc8c2" target="_top" xlink:title="Disconnects from the Chat Server by sending a &quot;disconnect command&quot;, which prevents a timeout server&#45;s...">
<polygon fill="white" stroke="black" points="173,-50 173,-69 343,-69 343,-50 173,-50"/>
<text text-anchor="middle" x="258" y="-57" font-family="Helvetica,sans-Serif" font-size="10.00">Photon.Chat.ChatClient.Disconnect</text>
</a>
</g>
</g>
<!-- Node1&#45;&gt;Node5 -->
<g id="edge5" class="edge">
<title>Node1&#45;&gt;Node5</title>
<path fill="none" stroke="midnightblue" d="M131.65,-88.47C144.35,-85.49 157.6,-82.38 170,-79.5 181.44,-76.84 193.73,-74 205.37,-71.32"/>
<polygon fill="midnightblue" stroke="midnightblue" points="206.43,-74.67 215.39,-69.02 204.86,-67.85 206.43,-74.67"/>
</g>
<!-- Node6 -->
<g id="node6" class="node">
<title>Node6</title>
<g id="a_node6"><a xlink:href="class_photon_1_1_chat_1_1_chat_client.xhtml#a2ca62421358371f177157f7340713e91" target="_top" xlink:title=" ">
<polygon fill="white" stroke="black" points="189.5,-0.5 189.5,-30.5 326.5,-30.5 326.5,-0.5 189.5,-0.5"/>
<text text-anchor="start" x="197.5" y="-18.5" font-family="Helvetica,sans-Serif" font-size="10.00">Photon.Chat.ChatClient.Try</text>
<text text-anchor="middle" x="258" y="-7.5" font-family="Helvetica,sans-Serif" font-size="10.00">AuthenticateOnNameServer</text>
</a>
</g>
</g>
<!-- Node1&#45;&gt;Node6 -->
<g id="edge6" class="edge">
<title>Node1&#45;&gt;Node6</title>
<path fill="none" stroke="midnightblue" d="M88.56,-88.45C108.52,-74.42 140.12,-53.72 170,-40.5 175.34,-38.14 180.96,-35.93 186.67,-33.89"/>
<polygon fill="midnightblue" stroke="midnightblue" points="187.99,-37.14 196.33,-30.61 185.74,-30.51 187.99,-37.14"/>
</g>
<!-- Node4&#45;&gt;Node3 -->
<g id="edge4" class="edge">
<title>Node4&#45;&gt;Node3</title>
<path fill="none" stroke="midnightblue" d="M337.04,-111.75C351.47,-113.28 366.6,-114.88 381.24,-116.43"/>
<polygon fill="midnightblue" stroke="midnightblue" points="380.97,-119.92 391.28,-117.49 381.7,-112.96 380.97,-119.92"/>
</g>
<!-- Node7 -->
<g id="node7" class="node">
<title>Node7</title>
<g id="a_node7"><a xlink:href="class_photon_1_1_chat_1_1_chat_peer.xhtml#ab0b363cadd9e032f5572e8b59f398ec8" target="_top" xlink:title="Authenticates on NameServer.">
<polygon fill="white" stroke="black" points="382,-0.5 382,-30.5 554,-30.5 554,-0.5 382,-0.5"/>
<text text-anchor="start" x="390" y="-18.5" font-family="Helvetica,sans-Serif" font-size="10.00">Photon.Chat.ChatPeer.Authenticate</text>
<text text-anchor="middle" x="468" y="-7.5" font-family="Helvetica,sans-Serif" font-size="10.00">OnNameServer</text>
</a>
</g>
</g>
<!-- Node6&#45;&gt;Node7 -->
<g id="edge7" class="edge">
<title>Node6&#45;&gt;Node7</title>
<path fill="none" stroke="midnightblue" d="M326.53,-15.5C341.03,-15.5 356.61,-15.5 371.93,-15.5"/>
<polygon fill="midnightblue" stroke="midnightblue" points="371.95,-19 381.95,-15.5 371.95,-12 371.95,-19"/>
</g>
</g>
</svg>
        <g id="navigator" transform="translate(0 0)" fill="#404254">
                <rect fill="#f2f5e9" fill-opacity="0.5" stroke="#606060" stroke-width=".5" x="0" y="0" width="60" height="60"/>
                <use id="zoomplus" xlink:href="#zoomPlus" x="17" y="9" onmousedown="handleZoom(evt,'in')"/>
                <use id="zoomminus" xlink:href="#zoomMin" x="42" y="9" onmousedown="handleZoom(evt,'out')"/>
                <use id="reset" xlink:href="#resetDef" x="30" y="36" onmousedown="handleReset()"/>
                <g id="arrowUp" xlink:href="#dirArrow" transform="translate(30 24)" onmousedown="handlePan(0,-1)">
                  <use xlink:href="#rim" fill="#404040">
                        <set attributeName="fill" to="#808080" begin="arrowUp.mouseover" end="arrowUp.mouseout"/>
                  </use>
                  <path fill="none" stroke="white" stroke-width="1.5" d="M0,-3.0v7 M-2.5,-0.5L0,-3.0L2.5,-0.5"/>
                </g>
                <g id="arrowRight" xlink:href="#dirArrow" transform="rotate(90) translate(36 -43)" onmousedown="handlePan(1,0)">
                  <use xlink:href="#rim" fill="#404040">
                        <set attributeName="fill" to="#808080" begin="arrowRight.mouseover" end="arrowRight.mouseout"/>
                  </use>
                  <path fill="none" stroke="white" stroke-width="1.5" d="M0,-3.0v7 M-2.5,-0.5L0,-3.0L2.5,-0.5"/>
                </g>
                <g id="arrowDown" xlink:href="#dirArrow" transform="rotate(180) translate(-30 -48)" onmousedown="handlePan(0,1)">
                  <use xlink:href="#rim" fill="#404040">
                        <set attributeName="fill" to="#808080" begin="arrowDown.mouseover" end="arrowDown.mouseout"/>
                  </use>
                  <path fill="none" stroke="white" stroke-width="1.5" d="M0,-3.0v7 M-2.5,-0.5L0,-3.0L2.5,-0.5"/>
                </g>
                <g id="arrowLeft" xlink:href="#dirArrow" transform="rotate(270) translate(-36 17)" onmousedown="handlePan(-1,0)">
                  <use xlink:href="#rim" fill="#404040">
                        <set attributeName="fill" to="#808080" begin="arrowLeft.mouseover" end="arrowLeft.mouseout"/>
                  </use>
                  <path fill="none" stroke="white" stroke-width="1.5" d="M0,-3.0v7 M-2.5,-0.5L0,-3.0L2.5,-0.5"/>
                </g>
        </g>
        <svg viewBox="0 0 15 15" width="100%" height="30px" preserveAspectRatio="xMaxYMin meet">
         <g id="arrow_out" transform="scale(0.3 0.3)">
          <a xlink:href="class_photon_1_1_chat_1_1_chat_client_af4a59688bc7fd4ced31ef2d68f552c40_cgraph_org.svg" target="_base">
           <rect id="button" ry="5" rx="5" y="6" x="6" height="38" width="38"
                fill="#f2f5e9" fill-opacity="0.5" stroke="#606060" stroke-width="1.0"/>
           <path id="arrow"
             d="M 11.500037,31.436501 C 11.940474,20.09759 22.043105,11.32322 32.158766,21.979434 L 37.068811,17.246167 C 37.068811,17.246167 37.088388,32 37.088388,32 L 22.160133,31.978069 C 22.160133,31.978069 26.997745,27.140456 26.997745,27.140456 C 18.528582,18.264221 13.291696,25.230495 11.500037,31.436501 z"
             style="fill:#404040;"/>
          </a>
         </g>
        </svg>
</svg>
