<?xml version="1.0" encoding="UTF-8" standalone="no"?>
<!DOCTYPE svg PUBLIC "-//W3C//DTD SVG 1.1//EN"
 "http://www.w3.org/Graphics/SVG/1.1/DTD/svg11.dtd">
<!-- Generated by graphviz version 2.47.3 (20210619.1520)
 -->
<!-- Title: Photon.Pun.Demo.Hub.ToDemoHubButton.BackToHub Pages: 1 -->
<!--zoomable 543 -->
<svg id="main" version="1.1" xmlns="http://www.w3.org/2000/svg" xmlns:xlink="http://www.w3.org/1999/xlink" xml:space="preserve" onload="init(evt)">
<style type="text/css"><![CDATA[
.edge:hover path { stroke: red; }
.edge:hover polygon { stroke: red; fill: red; }
]]></style>
<script type="text/javascript"><![CDATA[
var edges = document.getElementsByTagName('g');
if (edges && edges.length) {
  for (var i=0;i<edges.length;i++) {
    if (edges[i].id.substr(0,4)=='edge') {
      edges[i].setAttribute('class','edge');
    }
  }
}
]]></script>
        <defs>
                <circle id="rim" cx="0" cy="0" r="7"/>
                <circle id="rim2" cx="0" cy="0" r="3.5"/>
                <g id="zoomPlus">
                        <use xlink:href="#rim" fill="#404040">
                                <set attributeName="fill" to="#808080" begin="zoomplus.mouseover" end="zoomplus.mouseout"/>
                        </use>
                        <path d="M-4,0h8M0,-4v8" fill="none" stroke="white" stroke-width="1.5" pointer-events="none"/>
                </g>
                <g id="zoomMin">
                        <use xlink:href="#rim" fill="#404040">
                                <set attributeName="fill" to="#808080" begin="zoomminus.mouseover" end="zoomminus.mouseout"/>
                        </use>
                        <path d="M-4,0h8" fill="none" stroke="white" stroke-width="1.5" pointer-events="none"/>
                </g>
                <g id="dirArrow">
                        <path fill="none" stroke="white" stroke-width="1.5" d="M0,-3.0v7 M-2.5,-0.5L0,-3.0L2.5,-0.5"/>
                </g>
               <g id="resetDef">
                       <use xlink:href="#rim2" fill="#404040">
                               <set attributeName="fill" to="#808080" begin="reset.mouseover" end="reset.mouseout"/>
                       </use>
               </g>
        </defs>

<script type="text/javascript">
var viewWidth = 1724;
var viewHeight = 543;
var sectionId = 'dynsection-2';
</script>
<script xlink:href="svgpan.js"/>
<svg id="graph" class="graph">
<g id="viewport">
<title>Photon.Pun.Demo.Hub.ToDemoHubButton.BackToHub</title>
<polygon fill="white" stroke="transparent" points="-4,4 -4,-539.43 1720,-539.43 1720,4 -4,4"/>
<!-- Node1 -->
<g id="node1" class="node">
<title>Node1</title>
<g id="a_node1"><a xlink:title=" ">
<polygon fill="#bfbfbf" stroke="black" points="0,-109.43 0,-139.43 155,-139.43 155,-109.43 0,-109.43"/>
<text text-anchor="start" x="8" y="-127.43" font-family="Helvetica,sans-Serif" font-size="10.00">Photon.Pun.Demo.Hub.ToDemo</text>
<text text-anchor="middle" x="77.5" y="-116.43" font-family="Helvetica,sans-Serif" font-size="10.00">HubButton.BackToHub</text>
</a>
</g>
</g>
<!-- Node2 -->
<g id="node2" class="node">
<title>Node2</title>
<g id="a_node2"><a xlink:href="class_photon_1_1_pun_1_1_photon_network.xhtml#a1da1c658340e7ecf28575b720104b122" target="_top" xlink:title="Makes this client disconnect from the photon server, a process that leaves any room and calls OnDisco...">
<polygon fill="white" stroke="black" points="191,-109.43 191,-139.43 331,-139.43 331,-109.43 191,-109.43"/>
<text text-anchor="start" x="199" y="-127.43" font-family="Helvetica,sans-Serif" font-size="10.00">Photon.Pun.PhotonNetwork.</text>
<text text-anchor="middle" x="261" y="-116.43" font-family="Helvetica,sans-Serif" font-size="10.00">Disconnect</text>
</a>
</g>
</g>
<!-- Node1&#45;&gt;Node2 -->
<g id="edge1" class="edge">
<title>Node1&#45;&gt;Node2</title>
<path fill="none" stroke="midnightblue" d="M155.21,-124.43C163.6,-124.43 172.16,-124.43 180.58,-124.43"/>
<polygon fill="midnightblue" stroke="midnightblue" points="180.77,-127.93 190.77,-124.43 180.77,-120.93 180.77,-127.93"/>
</g>
<!-- Node3 -->
<g id="node3" class="node">
<title>Node3</title>
<g id="a_node3"><a xlink:href="class_photon_1_1_realtime_1_1_load_balancing_client.xhtml#ab71b80fa9e4f0e5644de49ec9b01853d" target="_top" xlink:title="Disconnects the peer from a server or stays disconnected.">
<polygon fill="white" stroke="black" points="367,-85.43 367,-115.43 522,-115.43 522,-85.43 367,-85.43"/>
<text text-anchor="start" x="375" y="-103.43" font-family="Helvetica,sans-Serif" font-size="10.00">Photon.Realtime.LoadBalancing</text>
<text text-anchor="middle" x="444.5" y="-92.43" font-family="Helvetica,sans-Serif" font-size="10.00">Client.Disconnect</text>
</a>
</g>
</g>
<!-- Node2&#45;&gt;Node3 -->
<g id="edge2" class="edge">
<title>Node2&#45;&gt;Node3</title>
<path fill="none" stroke="midnightblue" d="M331.14,-115.29C339.56,-114.18 348.25,-113.03 356.89,-111.88"/>
<polygon fill="midnightblue" stroke="midnightblue" points="357.53,-115.33 366.98,-110.55 356.61,-108.39 357.53,-115.33"/>
</g>
<!-- Node7 -->
<g id="node7" class="node">
<title>Node7</title>
<g id="a_node7"><a xlink:href="class_photon_1_1_realtime_1_1_load_balancing_client.xhtml#affac531c1eb7a4d77326135150f19b7e" target="_top" xlink:title="Uses the connection&#39;s statusCodes to advance the internal state and call operations as needed.">
<polygon fill="white" stroke="black" points="367,-224.43 367,-254.43 522,-254.43 522,-224.43 367,-224.43"/>
<text text-anchor="start" x="375" y="-242.43" font-family="Helvetica,sans-Serif" font-size="10.00">Photon.Realtime.LoadBalancing</text>
<text text-anchor="middle" x="444.5" y="-231.43" font-family="Helvetica,sans-Serif" font-size="10.00">Client.OnStatusChanged</text>
</a>
</g>
</g>
<!-- Node2&#45;&gt;Node7 -->
<g id="edge6" class="edge">
<title>Node2&#45;&gt;Node7</title>
<path fill="none" stroke="midnightblue" d="M285.73,-139.47C317.79,-159.78 375.09,-196.08 411.1,-218.9"/>
<polygon fill="midnightblue" stroke="midnightblue" points="409.45,-222 419.77,-224.39 413.19,-216.08 409.45,-222"/>
</g>
<!-- Node4 -->
<g id="node4" class="node">
<title>Node4</title>
<g id="a_node4"><a xlink:href="class_photon_1_1_realtime_1_1_load_balancing_client.xhtml#a69dd43d4c7211b5b83cd54d0ebcf79e7" target="_top" xlink:title="Debug output of low level api (and this client).">
<polygon fill="white" stroke="black" points="1174.5,-228.43 1174.5,-258.43 1329.5,-258.43 1329.5,-228.43 1174.5,-228.43"/>
<text text-anchor="start" x="1182.5" y="-246.43" font-family="Helvetica,sans-Serif" font-size="10.00">Photon.Realtime.LoadBalancing</text>
<text text-anchor="middle" x="1252" y="-235.43" font-family="Helvetica,sans-Serif" font-size="10.00">Client.DebugReturn</text>
</a>
</g>
</g>
<!-- Node3&#45;&gt;Node4 -->
<g id="edge3" class="edge">
<title>Node3&#45;&gt;Node4</title>
<path fill="none" stroke="midnightblue" d="M464,-85.31C485.22,-69.01 521.76,-43.96 558,-33.43 714.66,12.08 765.77,8.05 925,-27.43 1025.14,-49.74 1050.15,-66.32 1134,-125.43 1173.36,-153.18 1211.14,-194.92 1232.66,-220.6"/>
<polygon fill="midnightblue" stroke="midnightblue" points="1229.99,-222.86 1239.06,-228.33 1235.38,-218.4 1229.99,-222.86"/>
</g>
<!-- Node5 -->
<g id="node5" class="node">
<title>Node5</title>
<g id="a_node5"><a xlink:href="class_photon_1_1_realtime_1_1_load_balancing_peer.xhtml#a7f48b5f0c44ef0c67ef32f147ff87246" target="_top" xlink:title="Creates a Peer with specified connection protocol.">
<polygon fill="white" stroke="black" points="1370,-228.43 1370,-258.43 1525,-258.43 1525,-228.43 1370,-228.43"/>
<text text-anchor="start" x="1378" y="-246.43" font-family="Helvetica,sans-Serif" font-size="10.00">Photon.Realtime.LoadBalancing</text>
<text text-anchor="middle" x="1447.5" y="-235.43" font-family="Helvetica,sans-Serif" font-size="10.00">Peer.LoadBalancingPeer</text>
</a>
</g>
</g>
<!-- Node4&#45;&gt;Node5 -->
<g id="edge4" class="edge">
<title>Node4&#45;&gt;Node5</title>
<path fill="none" stroke="midnightblue" d="M1329.75,-243.43C1339.54,-243.43 1349.62,-243.43 1359.55,-243.43"/>
<polygon fill="midnightblue" stroke="midnightblue" points="1359.84,-246.93 1369.84,-243.43 1359.84,-239.93 1359.84,-246.93"/>
</g>
<!-- Node6 -->
<g id="node6" class="node">
<title>Node6</title>
<g id="a_node6"><a xlink:href="class_photon_1_1_realtime_1_1_load_balancing_peer.xhtml#affaff7e1fdffe86b25156ffac5e738c9" target="_top" xlink:title=" ">
<polygon fill="white" stroke="black" points="1561,-228.43 1561,-258.43 1716,-258.43 1716,-228.43 1561,-228.43"/>
<text text-anchor="start" x="1569" y="-246.43" font-family="Helvetica,sans-Serif" font-size="10.00">Photon.Realtime.LoadBalancing</text>
<text text-anchor="middle" x="1638.5" y="-235.43" font-family="Helvetica,sans-Serif" font-size="10.00">Peer.ConfigUnitySockets</text>
</a>
</g>
</g>
<!-- Node5&#45;&gt;Node6 -->
<g id="edge5" class="edge">
<title>Node5&#45;&gt;Node6</title>
<path fill="none" stroke="midnightblue" d="M1525.1,-243.43C1533.56,-243.43 1542.22,-243.43 1550.79,-243.43"/>
<polygon fill="midnightblue" stroke="midnightblue" points="1550.79,-246.93 1560.79,-243.43 1550.79,-239.93 1550.79,-246.93"/>
</g>
<!-- Node7&#45;&gt;Node4 -->
<g id="edge29" class="edge">
<title>Node7&#45;&gt;Node4</title>
<path fill="none" stroke="midnightblue" d="M456.99,-254.68C475.42,-277.83 514,-321.16 558,-340.43 644.69,-378.4 675.46,-355.98 770,-360.43 931.6,-368.04 984.57,-419.45 1134,-357.43 1178.67,-338.89 1215.75,-294.46 1235.53,-266.86"/>
<polygon fill="midnightblue" stroke="midnightblue" points="1238.47,-268.75 1241.33,-258.55 1232.73,-264.75 1238.47,-268.75"/>
</g>
<!-- Node8 -->
<g id="node8" class="node">
<title>Node8</title>
<g id="a_node8"><a xlink:href="class_photon_1_1_realtime_1_1_load_balancing_client.xhtml#a41ac38b72df503d0c9997b0ab1b78801" target="_top" xlink:title=" ">
<polygon fill="white" stroke="black" points="770,-321.43 770,-351.43 925,-351.43 925,-321.43 770,-321.43"/>
<text text-anchor="start" x="778" y="-339.43" font-family="Helvetica,sans-Serif" font-size="10.00">Photon.Realtime.LoadBalancing</text>
<text text-anchor="middle" x="847.5" y="-328.43" font-family="Helvetica,sans-Serif" font-size="10.00">Client.CallAuthenticate</text>
</a>
</g>
</g>
<!-- Node7&#45;&gt;Node8 -->
<g id="edge7" class="edge">
<title>Node7&#45;&gt;Node8</title>
<path fill="none" stroke="midnightblue" d="M462.75,-254.59C483.66,-271.97 520.77,-299.71 558,-312.43 623.06,-334.66 700.96,-339.99 759.4,-340.13"/>
<polygon fill="midnightblue" stroke="midnightblue" points="759.72,-343.63 769.71,-340.1 759.7,-336.63 759.72,-343.63"/>
</g>
<!-- Node13 -->
<g id="node13" class="node">
<title>Node13</title>
<g id="a_node13"><a xlink:href="class_photon_1_1_realtime_1_1_load_balancing_client.xhtml#a32adb95af4cb836a29fc53aa66000caf" target="_top" xlink:title="Internally used to set the LocalPlayer&#39;s ID (from &#45;1 to the actual in&#45;room ID).">
<polygon fill="white" stroke="black" points="568.5,-224.43 568.5,-254.43 723.5,-254.43 723.5,-224.43 568.5,-224.43"/>
<text text-anchor="start" x="576.5" y="-242.43" font-family="Helvetica,sans-Serif" font-size="10.00">Photon.Realtime.LoadBalancing</text>
<text text-anchor="middle" x="646" y="-231.43" font-family="Helvetica,sans-Serif" font-size="10.00">Client.ChangeLocalID</text>
</a>
</g>
</g>
<!-- Node7&#45;&gt;Node13 -->
<g id="edge15" class="edge">
<title>Node7&#45;&gt;Node13</title>
<path fill="none" stroke="midnightblue" d="M522.06,-239.43C533.91,-239.43 546.22,-239.43 558.27,-239.43"/>
<polygon fill="midnightblue" stroke="midnightblue" points="558.31,-242.93 568.31,-239.43 558.31,-235.93 558.31,-242.93"/>
</g>
<!-- Node15 -->
<g id="node15" class="node">
<title>Node15</title>
<g id="a_node15"><a xlink:href="class_photon_1_1_realtime_1_1_load_balancing_client.xhtml#a84e280b4685509d7fa65bedebb0828a2" target="_top" xlink:title=" ">
<polygon fill="white" stroke="black" points="568.5,-175.43 568.5,-205.43 723.5,-205.43 723.5,-175.43 568.5,-175.43"/>
<text text-anchor="start" x="576.5" y="-193.43" font-family="Helvetica,sans-Serif" font-size="10.00">Photon.Realtime.LoadBalancing</text>
<text text-anchor="middle" x="646" y="-182.43" font-family="Helvetica,sans-Serif" font-size="10.00">Client.Connect</text>
</a>
</g>
</g>
<!-- Node7&#45;&gt;Node15 -->
<g id="edge18" class="edge">
<title>Node7&#45;&gt;Node15</title>
<path fill="none" stroke="midnightblue" d="M506.71,-224.4C527.97,-219.18 551.98,-213.28 573.96,-207.88"/>
<polygon fill="midnightblue" stroke="midnightblue" points="575.03,-211.22 583.9,-205.44 573.36,-204.42 575.03,-211.22"/>
</g>
<!-- Node16 -->
<g id="node16" class="node">
<title>Node16</title>
<g id="a_node16"><a xlink:href="class_photon_1_1_realtime_1_1_load_balancing_client.xhtml#ad1d932ea902a1b1df7769e9a852077c6" target="_top" xlink:title="Starts the &quot;process&quot; to connect to a Master Server, using MasterServerAddress and AppId properties.">
<polygon fill="white" stroke="black" points="770,-135.43 770,-165.43 925,-165.43 925,-135.43 770,-135.43"/>
<text text-anchor="start" x="778" y="-153.43" font-family="Helvetica,sans-Serif" font-size="10.00">Photon.Realtime.LoadBalancing</text>
<text text-anchor="middle" x="847.5" y="-142.43" font-family="Helvetica,sans-Serif" font-size="10.00">Client.ConnectToMasterServer</text>
</a>
</g>
</g>
<!-- Node7&#45;&gt;Node16 -->
<g id="edge25" class="edge">
<title>Node7&#45;&gt;Node16</title>
<path fill="none" stroke="midnightblue" d="M462.27,-224.18C483.02,-206.38 520.24,-177.82 558,-165.43 623.19,-144.05 701.08,-141.24 759.49,-143.25"/>
<polygon fill="midnightblue" stroke="midnightblue" points="759.66,-146.76 769.79,-143.66 759.94,-139.77 759.66,-146.76"/>
</g>
<!-- Node19 -->
<g id="node19" class="node">
<title>Node19</title>
<g id="a_node19"><a xlink:href="class_photon_1_1_realtime_1_1_load_balancing_client.xhtml#a43756ee75b2346cb002f89aee86ff94d" target="_top" xlink:title="Connects to the NameServer for Photon Cloud, where a region and server list can be obtained.">
<polygon fill="white" stroke="black" points="770,-86.43 770,-116.43 925,-116.43 925,-86.43 770,-86.43"/>
<text text-anchor="start" x="778" y="-104.43" font-family="Helvetica,sans-Serif" font-size="10.00">Photon.Realtime.LoadBalancing</text>
<text text-anchor="middle" x="847.5" y="-93.43" font-family="Helvetica,sans-Serif" font-size="10.00">Client.ConnectToNameServer</text>
</a>
</g>
</g>
<!-- Node7&#45;&gt;Node19 -->
<g id="edge26" class="edge">
<title>Node7&#45;&gt;Node19</title>
<path fill="none" stroke="midnightblue" d="M457.42,-224.15C476.13,-201.41 514.75,-159.21 558,-139.43 621.52,-110.39 700.57,-101.63 759.86,-99.72"/>
<polygon fill="midnightblue" stroke="midnightblue" points="760.04,-103.22 769.94,-99.46 759.85,-96.22 760.04,-103.22"/>
</g>
<!-- Node20 -->
<g id="node20" class="node">
<title>Node20</title>
<g id="a_node20"><a xlink:href="class_photon_1_1_realtime_1_1_connection_callbacks_container.xhtml#ae020162c1ec754e7bcdc604976babac2" target="_top" xlink:title="Called to signal that the &quot;low level connection&quot; got established but before the client can call opera...">
<polygon fill="white" stroke="black" points="564.5,-43.43 564.5,-73.43 727.5,-73.43 727.5,-43.43 564.5,-43.43"/>
<text text-anchor="start" x="572.5" y="-61.43" font-family="Helvetica,sans-Serif" font-size="10.00">Photon.Realtime.Connection</text>
<text text-anchor="middle" x="646" y="-50.43" font-family="Helvetica,sans-Serif" font-size="10.00">CallbacksContainer.OnConnected</text>
</a>
</g>
</g>
<!-- Node7&#45;&gt;Node20 -->
<g id="edge30" class="edge">
<title>Node7&#45;&gt;Node20</title>
<path fill="none" stroke="midnightblue" d="M455.39,-224.19C477.68,-190.22 531.9,-109.79 558,-90.43 564.69,-85.47 572.23,-81.21 580,-77.56"/>
<polygon fill="midnightblue" stroke="midnightblue" points="581.42,-80.76 589.2,-73.56 578.63,-74.34 581.42,-80.76"/>
</g>
<!-- Node22 -->
<g id="node22" class="node">
<title>Node22</title>
<g id="a_node22"><a xlink:href="class_photon_1_1_realtime_1_1_connection_callbacks_container.xhtml#ad8a7ee8a123cf763142db0d18a83c9cd" target="_top" xlink:title="Called after disconnecting from the Photon server.">
<polygon fill="white" stroke="black" points="558,-409.43 558,-439.43 734,-439.43 734,-409.43 558,-409.43"/>
<text text-anchor="start" x="566" y="-427.43" font-family="Helvetica,sans-Serif" font-size="10.00">Photon.Realtime.Connection</text>
<text text-anchor="middle" x="646" y="-416.43" font-family="Helvetica,sans-Serif" font-size="10.00">CallbacksContainer.OnDisconnected</text>
</a>
</g>
</g>
<!-- Node7&#45;&gt;Node22 -->
<g id="edge32" class="edge">
<title>Node7&#45;&gt;Node22</title>
<path fill="none" stroke="midnightblue" d="M452.51,-254.59C467.51,-285.39 505.63,-355.64 558,-394.43 563.52,-398.52 569.64,-402.08 576,-405.18"/>
<polygon fill="midnightblue" stroke="midnightblue" points="574.9,-408.52 585.46,-409.39 577.75,-402.12 574.9,-408.52"/>
</g>
<!-- Node24 -->
<g id="node24" class="node">
<title>Node24</title>
<g id="a_node24"><a xlink:href="class_photon_1_1_realtime_1_1_match_making_callbacks_container.xhtml#aa8f13b83943e6a562e9817807cee4836" target="_top" xlink:title="Called when the local user/client left a room, so the game&#39;s logic can clean up it&#39;s internal state.">
<polygon fill="white" stroke="black" points="567,-273.43 567,-303.43 725,-303.43 725,-273.43 567,-273.43"/>
<text text-anchor="start" x="575" y="-291.43" font-family="Helvetica,sans-Serif" font-size="10.00">Photon.Realtime.MatchMaking</text>
<text text-anchor="middle" x="646" y="-280.43" font-family="Helvetica,sans-Serif" font-size="10.00">CallbacksContainer.OnLeftRoom</text>
</a>
</g>
</g>
<!-- Node7&#45;&gt;Node24 -->
<g id="edge34" class="edge">
<title>Node7&#45;&gt;Node24</title>
<path fill="none" stroke="midnightblue" d="M506.71,-254.47C527.97,-259.69 551.98,-265.59 573.96,-270.98"/>
<polygon fill="midnightblue" stroke="midnightblue" points="573.36,-274.44 583.9,-273.43 575.03,-267.64 573.36,-274.44"/>
</g>
<!-- Node26 -->
<g id="node26" class="node">
<title>Node26</title>
<g id="a_node26"><a xlink:href="class_photon_1_1_realtime_1_1_load_balancing_client.xhtml#a917cbf329c3675953d0c500055bb4803" target="_top" xlink:title="While on the NameServer, this gets you the list of regional servers (short names and their IPs to pin...">
<polygon fill="white" stroke="black" points="770,-458.43 770,-488.43 925,-488.43 925,-458.43 770,-458.43"/>
<text text-anchor="start" x="778" y="-476.43" font-family="Helvetica,sans-Serif" font-size="10.00">Photon.Realtime.LoadBalancing</text>
<text text-anchor="middle" x="847.5" y="-465.43" font-family="Helvetica,sans-Serif" font-size="10.00">Client.OpGetRegions</text>
</a>
</g>
</g>
<!-- Node7&#45;&gt;Node26 -->
<g id="edge36" class="edge">
<title>Node7&#45;&gt;Node26</title>
<path fill="none" stroke="midnightblue" d="M448.48,-254.69C457.19,-294.66 486.6,-402.55 558,-449.43 617.2,-488.3 698.63,-491.65 759.89,-486.81"/>
<polygon fill="midnightblue" stroke="midnightblue" points="760.27,-490.29 769.93,-485.93 759.66,-483.32 760.27,-490.29"/>
</g>
<!-- Node8&#45;&gt;Node4 -->
<g id="edge12" class="edge">
<title>Node8&#45;&gt;Node4</title>
<path fill="none" stroke="midnightblue" d="M907.7,-321.42C924.87,-317.14 943.67,-312.53 961,-308.43 1032.2,-291.59 1113.5,-273.47 1171.86,-260.65"/>
<polygon fill="midnightblue" stroke="midnightblue" points="1172.74,-264.04 1181.75,-258.47 1171.24,-257.2 1172.74,-264.04"/>
</g>
<!-- Node8&#45;&gt;Node5 -->
<g id="edge13" class="edge">
<title>Node8&#45;&gt;Node5</title>
<path fill="none" stroke="midnightblue" d="M917.83,-351.45C932.04,-353.94 946.95,-356.13 961,-357.43 1037.56,-364.52 1058.28,-370.81 1134,-357.43 1236.35,-339.35 1349.25,-290.34 1407.27,-262.83"/>
<polygon fill="midnightblue" stroke="midnightblue" points="1408.93,-265.92 1416.44,-258.45 1405.91,-259.61 1408.93,-265.92"/>
</g>
<!-- Node9 -->
<g id="node9" class="node">
<title>Node9</title>
<g id="a_node9"><a xlink:href="class_photon_1_1_realtime_1_1_load_balancing_client.xhtml#aa12ff3efc3aa91e5ceca9b3a40f7bd79" target="_top" xlink:title=" ">
<polygon fill="white" stroke="black" points="970,-444.43 970,-474.43 1125,-474.43 1125,-444.43 970,-444.43"/>
<text text-anchor="start" x="978" y="-462.43" font-family="Helvetica,sans-Serif" font-size="10.00">Photon.Realtime.LoadBalancing</text>
<text text-anchor="middle" x="1047.5" y="-451.43" font-family="Helvetica,sans-Serif" font-size="10.00">Client.CheckIfOpCanBeSent</text>
</a>
</g>
</g>
<!-- Node8&#45;&gt;Node9 -->
<g id="edge8" class="edge">
<title>Node8&#45;&gt;Node9</title>
<path fill="none" stroke="midnightblue" d="M867.07,-351.68C882.58,-364.42 905.26,-383.08 925,-399.43 941.04,-412.72 942.89,-419.15 961,-429.43 968.38,-433.62 976.44,-437.37 984.57,-440.69"/>
<polygon fill="midnightblue" stroke="midnightblue" points="983.52,-444.03 994.1,-444.38 986.04,-437.5 983.52,-444.03"/>
</g>
<!-- Node12 -->
<g id="node12" class="node">
<title>Node12</title>
<g id="a_node12"><a xlink:href="class_photon_1_1_realtime_1_1_load_balancing_peer.xhtml#a4ed3ae23ffbc88d5b449997e5af8d9af" target="_top" xlink:title="Sends this app&#39;s appId and appVersion to identify this application server side.">
<polygon fill="white" stroke="black" points="970,-318.43 970,-348.43 1125,-348.43 1125,-318.43 970,-318.43"/>
<text text-anchor="start" x="978" y="-336.43" font-family="Helvetica,sans-Serif" font-size="10.00">Photon.Realtime.LoadBalancing</text>
<text text-anchor="middle" x="1047.5" y="-325.43" font-family="Helvetica,sans-Serif" font-size="10.00">Peer.OpAuthenticate</text>
</a>
</g>
</g>
<!-- Node8&#45;&gt;Node12 -->
<g id="edge14" class="edge">
<title>Node8&#45;&gt;Node12</title>
<path fill="none" stroke="midnightblue" d="M925.05,-335.27C936.41,-335.1 948.19,-334.92 959.75,-334.75"/>
<polygon fill="midnightblue" stroke="midnightblue" points="959.88,-338.24 969.83,-334.59 959.77,-331.25 959.88,-338.24"/>
</g>
<!-- Node9&#45;&gt;Node4 -->
<g id="edge11" class="edge">
<title>Node9&#45;&gt;Node4</title>
<path fill="none" stroke="midnightblue" d="M1070.37,-444.21C1088.36,-431.2 1114.05,-411.44 1134,-391.43 1174.2,-351.11 1213.76,-297.3 1235,-266.92"/>
<polygon fill="midnightblue" stroke="midnightblue" points="1237.92,-268.85 1240.74,-258.64 1232.17,-264.87 1237.92,-268.85"/>
</g>
<!-- Node10 -->
<g id="node10" class="node">
<title>Node10</title>
<g id="a_node10"><a xlink:href="class_photon_1_1_realtime_1_1_load_balancing_client.xhtml#ae052ab450db16efdd31985d56f76f0ab" target="_top" xlink:title=" ">
<polygon fill="white" stroke="black" points="1170,-493.93 1170,-534.93 1334,-534.93 1334,-493.93 1170,-493.93"/>
<text text-anchor="start" x="1178" y="-522.93" font-family="Helvetica,sans-Serif" font-size="10.00">Photon.Realtime.LoadBalancing</text>
<text text-anchor="start" x="1178" y="-511.93" font-family="Helvetica,sans-Serif" font-size="10.00">Client.CheckIfClientIsReadyToCall</text>
<text text-anchor="middle" x="1252" y="-500.93" font-family="Helvetica,sans-Serif" font-size="10.00">Operation</text>
</a>
</g>
</g>
<!-- Node9&#45;&gt;Node10 -->
<g id="edge9" class="edge">
<title>Node9&#45;&gt;Node10</title>
<path fill="none" stroke="midnightblue" d="M1103.83,-474.46C1122.84,-479.62 1144.58,-485.53 1165.42,-491.19"/>
<polygon fill="midnightblue" stroke="midnightblue" points="1164.67,-494.61 1175.24,-493.85 1166.5,-487.85 1164.67,-494.61"/>
</g>
<!-- Node11 -->
<g id="node11" class="node">
<title>Node11</title>
<g id="a_node11"><a xlink:href="class_photon_1_1_realtime_1_1_load_balancing_client.xhtml#aa01a53cac6918dab3ecb99669b276f01" target="_top" xlink:title=" ">
<polygon fill="white" stroke="black" points="1170.5,-444.43 1170.5,-474.43 1333.5,-474.43 1333.5,-444.43 1170.5,-444.43"/>
<text text-anchor="start" x="1178.5" y="-462.43" font-family="Helvetica,sans-Serif" font-size="10.00">Photon.Realtime.LoadBalancing</text>
<text text-anchor="middle" x="1252" y="-451.43" font-family="Helvetica,sans-Serif" font-size="10.00">Client.CheckIfOpAllowedOnServer</text>
</a>
</g>
</g>
<!-- Node9&#45;&gt;Node11 -->
<g id="edge10" class="edge">
<title>Node9&#45;&gt;Node11</title>
<path fill="none" stroke="midnightblue" d="M1125.06,-459.43C1136.49,-459.43 1148.37,-459.43 1160.07,-459.43"/>
<polygon fill="midnightblue" stroke="midnightblue" points="1160.28,-462.93 1170.28,-459.43 1160.28,-455.93 1160.28,-462.93"/>
</g>
<!-- Node13&#45;&gt;Node4 -->
<g id="edge16" class="edge">
<title>Node13&#45;&gt;Node4</title>
<path fill="none" stroke="midnightblue" d="M723.8,-239.94C836.49,-240.69 1046.03,-242.07 1164.17,-242.86"/>
<polygon fill="midnightblue" stroke="midnightblue" points="1164.24,-246.36 1174.26,-242.92 1164.28,-239.36 1164.24,-246.36"/>
</g>
<!-- Node14 -->
<g id="node14" class="node">
<title>Node14</title>
<g id="a_node14"><a xlink:href="class_photon_1_1_realtime_1_1_room.xhtml#a5e614a00e26aae5f35f0805c4e4bb7a9" target="_top" xlink:title="Updates a player reference in the Players dictionary (no matter if it existed before or not).">
<polygon fill="white" stroke="black" points="776,-184.43 776,-214.43 919,-214.43 919,-184.43 776,-184.43"/>
<text text-anchor="start" x="784" y="-202.43" font-family="Helvetica,sans-Serif" font-size="10.00">Photon.Realtime.Room.Store</text>
<text text-anchor="middle" x="847.5" y="-191.43" font-family="Helvetica,sans-Serif" font-size="10.00">Player</text>
</a>
</g>
</g>
<!-- Node13&#45;&gt;Node14 -->
<g id="edge17" class="edge">
<title>Node13&#45;&gt;Node14</title>
<path fill="none" stroke="midnightblue" d="M721.85,-224.42C736.23,-221.54 751.34,-218.51 765.88,-215.6"/>
<polygon fill="midnightblue" stroke="midnightblue" points="766.73,-219 775.85,-213.6 765.35,-212.13 766.73,-219"/>
</g>
<!-- Node15&#45;&gt;Node16 -->
<g id="edge19" class="edge">
<title>Node15&#45;&gt;Node16</title>
<path fill="none" stroke="midnightblue" d="M721.85,-175.42C734.81,-172.83 748.36,-170.11 761.55,-167.46"/>
<polygon fill="midnightblue" stroke="midnightblue" points="762.44,-170.86 771.56,-165.46 761.07,-163.99 762.44,-170.86"/>
</g>
<!-- Node17 -->
<g id="node17" class="node">
<title>Node17</title>
<g id="a_node17"><a xlink:href="class_photon_1_1_realtime_1_1_load_balancing_client.xhtml#a29aacea6df375e301f67cb40ea90849e" target="_top" xlink:title=" ">
<polygon fill="white" stroke="black" points="965.5,-135.43 965.5,-165.43 1129.5,-165.43 1129.5,-135.43 965.5,-135.43"/>
<text text-anchor="start" x="973.5" y="-153.43" font-family="Helvetica,sans-Serif" font-size="10.00">Photon.Realtime.LoadBalancing</text>
<text text-anchor="middle" x="1047.5" y="-142.43" font-family="Helvetica,sans-Serif" font-size="10.00">Client.CheckConnectSetupWebGl</text>
</a>
</g>
</g>
<!-- Node16&#45;&gt;Node17 -->
<g id="edge20" class="edge">
<title>Node16&#45;&gt;Node17</title>
<path fill="none" stroke="midnightblue" d="M925.05,-150.43C934.93,-150.43 945.12,-150.43 955.2,-150.43"/>
<polygon fill="midnightblue" stroke="midnightblue" points="955.23,-153.93 965.23,-150.43 955.23,-146.93 955.23,-153.93"/>
</g>
<!-- Node18 -->
<g id="node18" class="node">
<title>Node18</title>
<g id="a_node18"><a xlink:href="class_photon_1_1_realtime_1_1_load_balancing_client.xhtml#a43a3b987e52c0e028ce1d5803b7b9507" target="_top" xlink:title=" ">
<polygon fill="white" stroke="black" points="961,-184.43 961,-214.43 1134,-214.43 1134,-184.43 961,-184.43"/>
<text text-anchor="start" x="969" y="-202.43" font-family="Helvetica,sans-Serif" font-size="10.00">Photon.Realtime.LoadBalancing</text>
<text text-anchor="middle" x="1047.5" y="-191.43" font-family="Helvetica,sans-Serif" font-size="10.00">Client.CheckConnectSetupXboxOne</text>
</a>
</g>
</g>
<!-- Node16&#45;&gt;Node18 -->
<g id="edge23" class="edge">
<title>Node16&#45;&gt;Node18</title>
<path fill="none" stroke="midnightblue" d="M909.25,-165.47C930.35,-170.69 954.18,-176.59 976,-181.98"/>
<polygon fill="midnightblue" stroke="midnightblue" points="975.31,-185.42 985.86,-184.43 977,-178.63 975.31,-185.42"/>
</g>
<!-- Node17&#45;&gt;Node4 -->
<g id="edge21" class="edge">
<title>Node17&#45;&gt;Node4</title>
<path fill="none" stroke="midnightblue" d="M1109.89,-165.58C1118.11,-168.21 1126.34,-171.16 1134,-174.43 1165.02,-187.67 1197.9,-207.65 1220.87,-222.71"/>
<polygon fill="midnightblue" stroke="midnightblue" points="1219.21,-225.8 1229.47,-228.42 1223.08,-219.97 1219.21,-225.8"/>
</g>
<!-- Node17&#45;&gt;Node5 -->
<g id="edge22" class="edge">
<title>Node17&#45;&gt;Node5</title>
<path fill="none" stroke="midnightblue" d="M1112.89,-165.48C1183.84,-182.06 1297.78,-208.68 1372.4,-226.12"/>
<polygon fill="midnightblue" stroke="midnightblue" points="1371.67,-229.54 1382.2,-228.41 1373.26,-222.72 1371.67,-229.54"/>
</g>
<!-- Node18&#45;&gt;Node4 -->
<g id="edge24" class="edge">
<title>Node18&#45;&gt;Node4</title>
<path fill="none" stroke="midnightblue" d="M1117.62,-214.45C1135.12,-218.25 1154.05,-222.37 1171.99,-226.26"/>
<polygon fill="midnightblue" stroke="midnightblue" points="1171.33,-229.7 1181.85,-228.41 1172.82,-222.86 1171.33,-229.7"/>
</g>
<!-- Node19&#45;&gt;Node17 -->
<g id="edge27" class="edge">
<title>Node19&#45;&gt;Node17</title>
<path fill="none" stroke="midnightblue" d="M909.25,-116.47C930.35,-121.69 954.18,-127.59 976,-132.98"/>
<polygon fill="midnightblue" stroke="midnightblue" points="975.31,-136.42 985.86,-135.43 977,-129.63 975.31,-136.42"/>
</g>
<!-- Node19&#45;&gt;Node18 -->
<g id="edge28" class="edge">
<title>Node19&#45;&gt;Node18</title>
<path fill="none" stroke="midnightblue" d="M909.53,-116.58C914.99,-119.1 920.24,-122.03 925,-125.43 946.98,-141.15 938.86,-158.93 961,-174.43 963.87,-176.44 966.91,-178.3 970.06,-180"/>
<polygon fill="midnightblue" stroke="midnightblue" points="968.65,-183.21 979.18,-184.42 971.71,-176.91 968.65,-183.21"/>
</g>
<!-- Node21 -->
<g id="node21" class="node">
<title>Node21</title>
<g id="a_node21"><a xlink:href="interface_photon_1_1_realtime_1_1_i_connection_callbacks.xhtml#a2e3c773af453748eaaf877585d3d8e1d" target="_top" xlink:title="Called to signal that the &quot;low level connection&quot; got established but before the client can call opera...">
<polygon fill="white" stroke="black" points="776,-37.43 776,-67.43 919,-67.43 919,-37.43 776,-37.43"/>
<text text-anchor="start" x="784" y="-55.43" font-family="Helvetica,sans-Serif" font-size="10.00">Photon.Realtime.IConnection</text>
<text text-anchor="middle" x="847.5" y="-44.43" font-family="Helvetica,sans-Serif" font-size="10.00">Callbacks.OnConnected</text>
</a>
</g>
</g>
<!-- Node20&#45;&gt;Node21 -->
<g id="edge31" class="edge">
<title>Node20&#45;&gt;Node21</title>
<path fill="none" stroke="midnightblue" d="M727.57,-56.01C740.2,-55.63 753.25,-55.24 765.88,-54.86"/>
<polygon fill="midnightblue" stroke="midnightblue" points="766.01,-58.35 775.9,-54.55 765.8,-51.36 766.01,-58.35"/>
</g>
<!-- Node23 -->
<g id="node23" class="node">
<title>Node23</title>
<g id="a_node23"><a xlink:href="interface_photon_1_1_realtime_1_1_i_connection_callbacks.xhtml#a5e133a672790851ab0554fdc821c7727" target="_top" xlink:title="Called after disconnecting from the Photon server.">
<polygon fill="white" stroke="black" points="776,-409.43 776,-439.43 919,-439.43 919,-409.43 776,-409.43"/>
<text text-anchor="start" x="784" y="-427.43" font-family="Helvetica,sans-Serif" font-size="10.00">Photon.Realtime.IConnection</text>
<text text-anchor="middle" x="847.5" y="-416.43" font-family="Helvetica,sans-Serif" font-size="10.00">Callbacks.OnDisconnected</text>
</a>
</g>
</g>
<!-- Node22&#45;&gt;Node23 -->
<g id="edge33" class="edge">
<title>Node22&#45;&gt;Node23</title>
<path fill="none" stroke="midnightblue" d="M734.21,-424.43C744.67,-424.43 755.32,-424.43 765.68,-424.43"/>
<polygon fill="midnightblue" stroke="midnightblue" points="765.93,-427.93 775.93,-424.43 765.93,-420.93 765.93,-427.93"/>
</g>
<!-- Node25 -->
<g id="node25" class="node">
<title>Node25</title>
<g id="a_node25"><a xlink:href="interface_photon_1_1_realtime_1_1_i_matchmaking_callbacks.xhtml#acedd813313ad6724f3935801481d8e8f" target="_top" xlink:title="Called when the local user/client left a room, so the game&#39;s logic can clean up it&#39;s internal state.">
<polygon fill="white" stroke="black" points="771.5,-272.43 771.5,-302.43 923.5,-302.43 923.5,-272.43 771.5,-272.43"/>
<text text-anchor="start" x="779.5" y="-290.43" font-family="Helvetica,sans-Serif" font-size="10.00">Photon.Realtime.IMatchmaking</text>
<text text-anchor="middle" x="847.5" y="-279.43" font-family="Helvetica,sans-Serif" font-size="10.00">Callbacks.OnLeftRoom</text>
</a>
</g>
</g>
<!-- Node24&#45;&gt;Node25 -->
<g id="edge35" class="edge">
<title>Node24&#45;&gt;Node25</title>
<path fill="none" stroke="midnightblue" d="M725.28,-288.04C737.01,-287.98 749.16,-287.92 761.04,-287.86"/>
<polygon fill="midnightblue" stroke="midnightblue" points="761.41,-291.36 771.39,-287.81 761.37,-284.36 761.41,-291.36"/>
</g>
<!-- Node26&#45;&gt;Node9 -->
<g id="edge37" class="edge">
<title>Node26&#45;&gt;Node9</title>
<path fill="none" stroke="midnightblue" d="M925.05,-468.02C936.41,-467.22 948.19,-466.38 959.75,-465.57"/>
<polygon fill="midnightblue" stroke="midnightblue" points="960.1,-469.05 969.83,-464.85 959.6,-462.07 960.1,-469.05"/>
</g>
<!-- Node27 -->
<g id="node27" class="node">
<title>Node27</title>
<g id="a_node27"><a xlink:href="class_photon_1_1_realtime_1_1_load_balancing_peer.xhtml#ac21c4ac3367ad68703fb9fd29f1fa063" target="_top" xlink:title=" ">
<polygon fill="white" stroke="black" points="970,-493.43 970,-523.43 1125,-523.43 1125,-493.43 970,-493.43"/>
<text text-anchor="start" x="978" y="-511.43" font-family="Helvetica,sans-Serif" font-size="10.00">Photon.Realtime.LoadBalancing</text>
<text text-anchor="middle" x="1047.5" y="-500.43" font-family="Helvetica,sans-Serif" font-size="10.00">Peer.OpGetRegions</text>
</a>
</g>
</g>
<!-- Node26&#45;&gt;Node27 -->
<g id="edge38" class="edge">
<title>Node26&#45;&gt;Node27</title>
<path fill="none" stroke="midnightblue" d="M925.05,-486.96C936.41,-488.97 948.19,-491.05 959.75,-493.1"/>
<polygon fill="midnightblue" stroke="midnightblue" points="959.37,-496.58 969.83,-494.88 960.59,-489.69 959.37,-496.58"/>
</g>
</g>
</svg>
        <g id="navigator" transform="translate(0 0)" fill="#404254">
                <rect fill="#f2f5e9" fill-opacity="0.5" stroke="#606060" stroke-width=".5" x="0" y="0" width="60" height="60"/>
                <use id="zoomplus" xlink:href="#zoomPlus" x="17" y="9" onmousedown="handleZoom(evt,'in')"/>
                <use id="zoomminus" xlink:href="#zoomMin" x="42" y="9" onmousedown="handleZoom(evt,'out')"/>
                <use id="reset" xlink:href="#resetDef" x="30" y="36" onmousedown="handleReset()"/>
                <g id="arrowUp" xlink:href="#dirArrow" transform="translate(30 24)" onmousedown="handlePan(0,-1)">
                  <use xlink:href="#rim" fill="#404040">
                        <set attributeName="fill" to="#808080" begin="arrowUp.mouseover" end="arrowUp.mouseout"/>
                  </use>
                  <path fill="none" stroke="white" stroke-width="1.5" d="M0,-3.0v7 M-2.5,-0.5L0,-3.0L2.5,-0.5"/>
                </g>
                <g id="arrowRight" xlink:href="#dirArrow" transform="rotate(90) translate(36 -43)" onmousedown="handlePan(1,0)">
                  <use xlink:href="#rim" fill="#404040">
                        <set attributeName="fill" to="#808080" begin="arrowRight.mouseover" end="arrowRight.mouseout"/>
                  </use>
                  <path fill="none" stroke="white" stroke-width="1.5" d="M0,-3.0v7 M-2.5,-0.5L0,-3.0L2.5,-0.5"/>
                </g>
                <g id="arrowDown" xlink:href="#dirArrow" transform="rotate(180) translate(-30 -48)" onmousedown="handlePan(0,1)">
                  <use xlink:href="#rim" fill="#404040">
                        <set attributeName="fill" to="#808080" begin="arrowDown.mouseover" end="arrowDown.mouseout"/>
                  </use>
                  <path fill="none" stroke="white" stroke-width="1.5" d="M0,-3.0v7 M-2.5,-0.5L0,-3.0L2.5,-0.5"/>
                </g>
                <g id="arrowLeft" xlink:href="#dirArrow" transform="rotate(270) translate(-36 17)" onmousedown="handlePan(-1,0)">
                  <use xlink:href="#rim" fill="#404040">
                        <set attributeName="fill" to="#808080" begin="arrowLeft.mouseover" end="arrowLeft.mouseout"/>
                  </use>
                  <path fill="none" stroke="white" stroke-width="1.5" d="M0,-3.0v7 M-2.5,-0.5L0,-3.0L2.5,-0.5"/>
                </g>
        </g>
        <svg viewBox="0 0 15 15" width="100%" height="30px" preserveAspectRatio="xMaxYMin meet">
         <g id="arrow_out" transform="scale(0.3 0.3)">
          <a xlink:href="class_photon_1_1_pun_1_1_demo_1_1_hub_1_1_to_demo_hub_button_a83cf2b61cc387ebc9fc311480833e857_cgraph_org.svg" target="_base">
           <rect id="button" ry="5" rx="5" y="6" x="6" height="38" width="38"
                fill="#f2f5e9" fill-opacity="0.5" stroke="#606060" stroke-width="1.0"/>
           <path id="arrow"
             d="M 11.500037,31.436501 C 11.940474,20.09759 22.043105,11.32322 32.158766,21.979434 L 37.068811,17.246167 C 37.068811,17.246167 37.088388,32 37.088388,32 L 22.160133,31.978069 C 22.160133,31.978069 26.997745,27.140456 26.997745,27.140456 C 18.528582,18.264221 13.291696,25.230495 11.500037,31.436501 z"
             style="fill:#404040;"/>
          </a>
         </g>
        </svg>
</svg>
