<?xml version="1.0" encoding="UTF-8" standalone="no"?>
<!DOCTYPE svg PUBLIC "-//W3C//DTD SVG 1.1//EN"
 "http://www.w3.org/Graphics/SVG/1.1/DTD/svg11.dtd">
<!-- Generated by graphviz version 2.47.3 (20210619.1520)
 -->
<!-- Title: Photon.Pun.Demo.Asteroids.AsteroidsGameManager.StartGame Pages: 1 -->
<svg width="758pt" height="88pt"
 viewBox="0.00 0.00 758.00 88.00" xmlns="http://www.w3.org/2000/svg" xmlns:xlink="http://www.w3.org/1999/xlink">
<g id="graph0" class="graph" transform="scale(1 1) rotate(0) translate(4 84)">
<title>Photon.Pun.Demo.Asteroids.AsteroidsGameManager.StartGame</title>
<polygon fill="white" stroke="transparent" points="-4,4 -4,-84 754,-84 754,4 -4,4"/>
<!-- Node1 -->
<g id="node1" class="node">
<title>Node1</title>
<g id="a_node1"><a xlink:title=" ">
<polygon fill="#bfbfbf" stroke="black" points="0,-24.5 0,-54.5 172,-54.5 172,-24.5 0,-24.5"/>
<text text-anchor="start" x="8" y="-42.5" font-family="Helvetica,sans-Serif" font-size="10.00">Photon.Pun.Demo.Asteroids.</text>
<text text-anchor="middle" x="86" y="-31.5" font-family="Helvetica,sans-Serif" font-size="10.00">AsteroidsGameManager.StartGame</text>
</a>
</g>
</g>
<!-- Node2 -->
<g id="node2" class="node">
<title>Node2</title>
<g id="a_node2"><a xlink:href="class_photon_1_1_pun_1_1_photon_network.xhtml#a3c3998fe3bc09a7de8d09378d7a3e2d0" target="_top" xlink:title=" ">
<polygon fill="white" stroke="black" points="434,-49.5 434,-79.5 574,-79.5 574,-49.5 434,-49.5"/>
<text text-anchor="start" x="442" y="-67.5" font-family="Helvetica,sans-Serif" font-size="10.00">Photon.Pun.PhotonNetwork.</text>
<text text-anchor="middle" x="504" y="-56.5" font-family="Helvetica,sans-Serif" font-size="10.00">Instantiate</text>
</a>
</g>
</g>
<!-- Node1&#45;&gt;Node2 -->
<g id="edge1" class="edge">
<title>Node1&#45;&gt;Node2</title>
<path fill="none" stroke="midnightblue" d="M172.19,-44.62C245.82,-49.04 351.45,-55.39 423.4,-59.72"/>
<polygon fill="midnightblue" stroke="midnightblue" points="423.57,-63.23 433.76,-60.34 423.99,-56.25 423.57,-63.23"/>
</g>
<!-- Node4 -->
<g id="node4" class="node">
<title>Node4</title>
<g id="a_node4"><a xlink:href="class_photon_1_1_pun_1_1_demo_1_1_asteroids_1_1_asteroids_game_manager.xhtml#afe9f216cfb605421f3bca02acc622c38" target="_top" xlink:title=" ">
<polygon fill="white" stroke="black" points="208,-2.5 208,-32.5 398,-32.5 398,-2.5 208,-2.5"/>
<text text-anchor="start" x="216" y="-20.5" font-family="Helvetica,sans-Serif" font-size="10.00">Photon.Pun.Demo.Asteroids.</text>
<text text-anchor="middle" x="303" y="-9.5" font-family="Helvetica,sans-Serif" font-size="10.00">AsteroidsGameManager.SpawnAsteroid</text>
</a>
</g>
</g>
<!-- Node1&#45;&gt;Node4 -->
<g id="edge3" class="edge">
<title>Node1&#45;&gt;Node4</title>
<path fill="none" stroke="midnightblue" d="M172.28,-30.77C180.71,-29.91 189.33,-29.03 197.91,-28.15"/>
<polygon fill="midnightblue" stroke="midnightblue" points="198.38,-31.62 207.97,-27.12 197.66,-24.66 198.38,-31.62"/>
</g>
<!-- Node3 -->
<g id="node3" class="node">
<title>Node3</title>
<g id="a_node3"><a xlink:href="class_photon_1_1_pun_1_1_photon_network.xhtml#ab20d21ae87fdbe5db26810e506089158" target="_top" xlink:title=" ">
<polygon fill="white" stroke="black" points="610,-24.5 610,-54.5 750,-54.5 750,-24.5 610,-24.5"/>
<text text-anchor="start" x="618" y="-42.5" font-family="Helvetica,sans-Serif" font-size="10.00">Photon.Pun.PhotonNetwork.</text>
<text text-anchor="middle" x="680" y="-31.5" font-family="Helvetica,sans-Serif" font-size="10.00">NetworkInstantiate</text>
</a>
</g>
</g>
<!-- Node2&#45;&gt;Node3 -->
<g id="edge2" class="edge">
<title>Node2&#45;&gt;Node3</title>
<path fill="none" stroke="midnightblue" d="M574.02,-54.58C582.48,-53.37 591.17,-52.12 599.76,-50.88"/>
<polygon fill="midnightblue" stroke="midnightblue" points="600.38,-54.33 609.78,-49.45 599.38,-47.4 600.38,-54.33"/>
</g>
<!-- Node5 -->
<g id="node5" class="node">
<title>Node5</title>
<g id="a_node5"><a xlink:href="class_photon_1_1_pun_1_1_photon_network.xhtml#a7e68c3cae2b1b2b7495b545b246192c2" target="_top" xlink:title=" ">
<polygon fill="white" stroke="black" points="434,-0.5 434,-30.5 574,-30.5 574,-0.5 434,-0.5"/>
<text text-anchor="start" x="442" y="-18.5" font-family="Helvetica,sans-Serif" font-size="10.00">Photon.Pun.PhotonNetwork.</text>
<text text-anchor="middle" x="504" y="-7.5" font-family="Helvetica,sans-Serif" font-size="10.00">InstantiateRoomObject</text>
</a>
</g>
</g>
<!-- Node4&#45;&gt;Node5 -->
<g id="edge4" class="edge">
<title>Node4&#45;&gt;Node5</title>
<path fill="none" stroke="midnightblue" d="M398.26,-16.55C406.75,-16.47 415.3,-16.38 423.66,-16.3"/>
<polygon fill="midnightblue" stroke="midnightblue" points="423.77,-19.8 433.73,-16.2 423.7,-12.8 423.77,-19.8"/>
</g>
<!-- Node5&#45;&gt;Node3 -->
<g id="edge5" class="edge">
<title>Node5&#45;&gt;Node3</title>
<path fill="none" stroke="midnightblue" d="M574.02,-25.02C582.48,-26.19 591.17,-27.39 599.76,-28.57"/>
<polygon fill="midnightblue" stroke="midnightblue" points="599.4,-32.05 609.78,-29.95 600.35,-25.12 599.4,-32.05"/>
</g>
</g>
</svg>
