<?xml version="1.0" encoding="UTF-8" standalone="no"?>
<!DOCTYPE svg PUBLIC "-//W3C//DTD SVG 1.1//EN"
 "http://www.w3.org/Graphics/SVG/1.1/DTD/svg11.dtd">
<!-- Generated by graphviz version 2.47.3 (20210619.1520)
 -->
<!-- Title: MainMenu.CreateRoom Pages: 1 -->
<svg width="1297pt" height="345pt"
 viewBox="0.00 0.00 1297.00 345.00" xmlns="http://www.w3.org/2000/svg" xmlns:xlink="http://www.w3.org/1999/xlink">
<g id="graph0" class="graph" transform="scale(1 1) rotate(0) translate(4 341)">
<title>MainMenu.CreateRoom</title>
<polygon fill="white" stroke="transparent" points="-4,4 -4,-341 1293,-341 1293,4 -4,4"/>
<!-- Node1 -->
<g id="node1" class="node">
<title>Node1</title>
<g id="a_node1"><a xlink:title=" ">
<polygon fill="#bfbfbf" stroke="black" points="0,-165 0,-184 119,-184 119,-165 0,-165"/>
<text text-anchor="middle" x="59.5" y="-172" font-family="Helvetica,sans-Serif" font-size="10.00">MainMenu.CreateRoom</text>
</a>
</g>
</g>
<!-- Node2 -->
<g id="node2" class="node">
<title>Node2</title>
<g id="a_node2"><a xlink:href="class_photon_1_1_pun_1_1_photon_network.xhtml#a755417a54b55bdb92361dc74b4a09953" target="_top" xlink:title="Creates a new room.">
<polygon fill="white" stroke="black" points="155,-159.5 155,-189.5 295,-189.5 295,-159.5 155,-159.5"/>
<text text-anchor="start" x="163" y="-177.5" font-family="Helvetica,sans-Serif" font-size="10.00">Photon.Pun.PhotonNetwork.</text>
<text text-anchor="middle" x="225" y="-166.5" font-family="Helvetica,sans-Serif" font-size="10.00">CreateRoom</text>
</a>
</g>
</g>
<!-- Node1&#45;&gt;Node2 -->
<g id="edge1" class="edge">
<title>Node1&#45;&gt;Node2</title>
<path fill="none" stroke="midnightblue" d="M119.07,-174.5C127.43,-174.5 136.15,-174.5 144.82,-174.5"/>
<polygon fill="midnightblue" stroke="midnightblue" points="144.97,-178 154.97,-174.5 144.97,-171 144.97,-178"/>
</g>
<!-- Node3 -->
<g id="node3" class="node">
<title>Node3</title>
<g id="a_node3"><a xlink:href="class_photon_1_1_pun_1_1_photon_network.xhtml#a82287a4a3bbfd5125fc858ae3805481c" target="_top" xlink:title="Internally used helper&#45;method to setup an offline room, the numbers for actor and master&#45;client and t...">
<polygon fill="white" stroke="black" points="338.5,-208.5 338.5,-238.5 478.5,-238.5 478.5,-208.5 338.5,-208.5"/>
<text text-anchor="start" x="346.5" y="-226.5" font-family="Helvetica,sans-Serif" font-size="10.00">Photon.Pun.PhotonNetwork.</text>
<text text-anchor="middle" x="408.5" y="-215.5" font-family="Helvetica,sans-Serif" font-size="10.00">EnterOfflineRoom</text>
</a>
</g>
</g>
<!-- Node2&#45;&gt;Node3 -->
<g id="edge2" class="edge">
<title>Node2&#45;&gt;Node3</title>
<path fill="none" stroke="midnightblue" d="M281.94,-189.6C300.92,-194.73 322.29,-200.5 341.95,-205.8"/>
<polygon fill="midnightblue" stroke="midnightblue" points="341.18,-209.22 351.75,-208.45 343.01,-202.46 341.18,-209.22"/>
</g>
<!-- Node14 -->
<g id="node14" class="node">
<title>Node14</title>
<g id="a_node14"><a xlink:href="class_photon_1_1_realtime_1_1_load_balancing_client.xhtml#ac5360b52a4284e623f41b0f870843342" target="_top" xlink:title="Creates a new room.">
<polygon fill="white" stroke="black" points="331,-110.5 331,-140.5 486,-140.5 486,-110.5 331,-110.5"/>
<text text-anchor="start" x="339" y="-128.5" font-family="Helvetica,sans-Serif" font-size="10.00">Photon.Realtime.LoadBalancing</text>
<text text-anchor="middle" x="408.5" y="-117.5" font-family="Helvetica,sans-Serif" font-size="10.00">Client.OpCreateRoom</text>
</a>
</g>
</g>
<!-- Node2&#45;&gt;Node14 -->
<g id="edge14" class="edge">
<title>Node2&#45;&gt;Node14</title>
<path fill="none" stroke="midnightblue" d="M281.94,-159.4C300.92,-154.27 322.29,-148.5 341.95,-143.2"/>
<polygon fill="midnightblue" stroke="midnightblue" points="343.01,-146.54 351.75,-140.55 341.18,-139.78 343.01,-146.54"/>
</g>
<!-- Node4 -->
<g id="node4" class="node">
<title>Node4</title>
<g id="a_node4"><a xlink:href="class_photon_1_1_realtime_1_1_room.xhtml#a56e911de4cd47b4fd2dba63830c35ed3" target="_top" xlink:title="Checks if the player is in the room&#39;s list already and calls StorePlayer() if not.">
<polygon fill="white" stroke="black" points="541.5,-208.5 541.5,-238.5 678.5,-238.5 678.5,-208.5 541.5,-208.5"/>
<text text-anchor="start" x="549.5" y="-226.5" font-family="Helvetica,sans-Serif" font-size="10.00">Photon.Realtime.Room.Add</text>
<text text-anchor="middle" x="610" y="-215.5" font-family="Helvetica,sans-Serif" font-size="10.00">Player</text>
</a>
</g>
</g>
<!-- Node3&#45;&gt;Node4 -->
<g id="edge3" class="edge">
<title>Node3&#45;&gt;Node4</title>
<path fill="none" stroke="midnightblue" d="M478.72,-223.5C495.65,-223.5 513.88,-223.5 531.19,-223.5"/>
<polygon fill="midnightblue" stroke="midnightblue" points="531.25,-227 541.25,-223.5 531.25,-220 531.25,-227"/>
</g>
<!-- Node6 -->
<g id="node6" class="node">
<title>Node6</title>
<g id="a_node6"><a xlink:href="class_photon_1_1_realtime_1_1_load_balancing_client.xhtml#a32adb95af4cb836a29fc53aa66000caf" target="_top" xlink:title="Internally used to set the LocalPlayer&#39;s ID (from &#45;1 to the actual in&#45;room ID).">
<polygon fill="white" stroke="black" points="532.5,-159.5 532.5,-189.5 687.5,-189.5 687.5,-159.5 532.5,-159.5"/>
<text text-anchor="start" x="540.5" y="-177.5" font-family="Helvetica,sans-Serif" font-size="10.00">Photon.Realtime.LoadBalancing</text>
<text text-anchor="middle" x="610" y="-166.5" font-family="Helvetica,sans-Serif" font-size="10.00">Client.ChangeLocalID</text>
</a>
</g>
</g>
<!-- Node3&#45;&gt;Node6 -->
<g id="edge5" class="edge">
<title>Node3&#45;&gt;Node6</title>
<path fill="none" stroke="midnightblue" d="M470.71,-208.47C491.97,-203.24 515.98,-197.35 537.96,-191.95"/>
<polygon fill="midnightblue" stroke="midnightblue" points="539.03,-195.29 547.9,-189.51 537.36,-188.49 539.03,-195.29"/>
</g>
<!-- Node10 -->
<g id="node10" class="node">
<title>Node10</title>
<g id="a_node10"><a xlink:href="class_photon_1_1_realtime_1_1_match_making_callbacks_container.xhtml#a0cbb3230022bdffebc1191f80f9bfc2a" target="_top" xlink:title="Called when this client created a room and entered it.">
<polygon fill="white" stroke="black" points="522,-306.5 522,-336.5 698,-336.5 698,-306.5 522,-306.5"/>
<text text-anchor="start" x="530" y="-324.5" font-family="Helvetica,sans-Serif" font-size="10.00">Photon.Realtime.MatchMaking</text>
<text text-anchor="middle" x="610" y="-313.5" font-family="Helvetica,sans-Serif" font-size="10.00">CallbacksContainer.OnCreatedRoom</text>
</a>
</g>
</g>
<!-- Node3&#45;&gt;Node10 -->
<g id="edge10" class="edge">
<title>Node3&#45;&gt;Node10</title>
<path fill="none" stroke="midnightblue" d="M428.79,-238.57C450.41,-254.85 487.04,-280.57 522,-296.5 527.22,-298.88 532.72,-301.09 538.32,-303.13"/>
<polygon fill="midnightblue" stroke="midnightblue" points="537.2,-306.45 547.79,-306.4 539.48,-299.83 537.2,-306.45"/>
</g>
<!-- Node12 -->
<g id="node12" class="node">
<title>Node12</title>
<g id="a_node12"><a xlink:href="class_photon_1_1_realtime_1_1_match_making_callbacks_container.xhtml#a5f91efa8551b2be7524bb4c6fb6da57a" target="_top" xlink:title="Called when the LoadBalancingClient entered a room, no matter if this client created it or simply joi...">
<polygon fill="white" stroke="black" points="525,-257.5 525,-287.5 695,-287.5 695,-257.5 525,-257.5"/>
<text text-anchor="start" x="533" y="-275.5" font-family="Helvetica,sans-Serif" font-size="10.00">Photon.Realtime.MatchMaking</text>
<text text-anchor="middle" x="610" y="-264.5" font-family="Helvetica,sans-Serif" font-size="10.00">CallbacksContainer.OnJoinedRoom</text>
</a>
</g>
</g>
<!-- Node3&#45;&gt;Node12 -->
<g id="edge12" class="edge">
<title>Node3&#45;&gt;Node12</title>
<path fill="none" stroke="midnightblue" d="M470.71,-238.53C491.97,-243.76 515.98,-249.65 537.96,-255.05"/>
<polygon fill="midnightblue" stroke="midnightblue" points="537.36,-258.51 547.9,-257.49 539.03,-251.71 537.36,-258.51"/>
</g>
<!-- Node5 -->
<g id="node5" class="node">
<title>Node5</title>
<g id="a_node5"><a xlink:href="class_photon_1_1_realtime_1_1_room.xhtml#a5e614a00e26aae5f35f0805c4e4bb7a9" target="_top" xlink:title="Updates a player reference in the Players dictionary (no matter if it existed before or not).">
<polygon fill="white" stroke="black" points="749,-208.5 749,-238.5 892,-238.5 892,-208.5 749,-208.5"/>
<text text-anchor="start" x="757" y="-226.5" font-family="Helvetica,sans-Serif" font-size="10.00">Photon.Realtime.Room.Store</text>
<text text-anchor="middle" x="820.5" y="-215.5" font-family="Helvetica,sans-Serif" font-size="10.00">Player</text>
</a>
</g>
</g>
<!-- Node4&#45;&gt;Node5 -->
<g id="edge4" class="edge">
<title>Node4&#45;&gt;Node5</title>
<path fill="none" stroke="midnightblue" d="M678.69,-223.5C697.83,-223.5 718.85,-223.5 738.68,-223.5"/>
<polygon fill="midnightblue" stroke="midnightblue" points="738.92,-227 748.92,-223.5 738.92,-220 738.92,-227"/>
</g>
<!-- Node6&#45;&gt;Node5 -->
<g id="edge9" class="edge">
<title>Node6&#45;&gt;Node5</title>
<path fill="none" stroke="midnightblue" d="M674.97,-189.53C697.39,-194.8 722.74,-200.76 745.88,-206.2"/>
<polygon fill="midnightblue" stroke="midnightblue" points="745.11,-209.61 755.65,-208.49 746.71,-202.8 745.11,-209.61"/>
</g>
<!-- Node7 -->
<g id="node7" class="node">
<title>Node7</title>
<g id="a_node7"><a xlink:href="class_photon_1_1_realtime_1_1_load_balancing_client.xhtml#a69dd43d4c7211b5b83cd54d0ebcf79e7" target="_top" xlink:title="Debug output of low level api (and this client).">
<polygon fill="white" stroke="black" points="743,-159.5 743,-189.5 898,-189.5 898,-159.5 743,-159.5"/>
<text text-anchor="start" x="751" y="-177.5" font-family="Helvetica,sans-Serif" font-size="10.00">Photon.Realtime.LoadBalancing</text>
<text text-anchor="middle" x="820.5" y="-166.5" font-family="Helvetica,sans-Serif" font-size="10.00">Client.DebugReturn</text>
</a>
</g>
</g>
<!-- Node6&#45;&gt;Node7 -->
<g id="edge6" class="edge">
<title>Node6&#45;&gt;Node7</title>
<path fill="none" stroke="midnightblue" d="M687.75,-174.5C702.37,-174.5 717.77,-174.5 732.68,-174.5"/>
<polygon fill="midnightblue" stroke="midnightblue" points="732.91,-178 742.91,-174.5 732.91,-171 732.91,-178"/>
</g>
<!-- Node8 -->
<g id="node8" class="node">
<title>Node8</title>
<g id="a_node8"><a xlink:href="class_photon_1_1_realtime_1_1_load_balancing_peer.xhtml#a7f48b5f0c44ef0c67ef32f147ff87246" target="_top" xlink:title="Creates a Peer with specified connection protocol.">
<polygon fill="white" stroke="black" points="943,-159.5 943,-189.5 1098,-189.5 1098,-159.5 943,-159.5"/>
<text text-anchor="start" x="951" y="-177.5" font-family="Helvetica,sans-Serif" font-size="10.00">Photon.Realtime.LoadBalancing</text>
<text text-anchor="middle" x="1020.5" y="-166.5" font-family="Helvetica,sans-Serif" font-size="10.00">Peer.LoadBalancingPeer</text>
</a>
</g>
</g>
<!-- Node7&#45;&gt;Node8 -->
<g id="edge7" class="edge">
<title>Node7&#45;&gt;Node8</title>
<path fill="none" stroke="midnightblue" d="M898.05,-174.5C909.41,-174.5 921.19,-174.5 932.75,-174.5"/>
<polygon fill="midnightblue" stroke="midnightblue" points="932.83,-178 942.83,-174.5 932.83,-171 932.83,-178"/>
</g>
<!-- Node9 -->
<g id="node9" class="node">
<title>Node9</title>
<g id="a_node9"><a xlink:href="class_photon_1_1_realtime_1_1_load_balancing_peer.xhtml#affaff7e1fdffe86b25156ffac5e738c9" target="_top" xlink:title=" ">
<polygon fill="white" stroke="black" points="1134,-159.5 1134,-189.5 1289,-189.5 1289,-159.5 1134,-159.5"/>
<text text-anchor="start" x="1142" y="-177.5" font-family="Helvetica,sans-Serif" font-size="10.00">Photon.Realtime.LoadBalancing</text>
<text text-anchor="middle" x="1211.5" y="-166.5" font-family="Helvetica,sans-Serif" font-size="10.00">Peer.ConfigUnitySockets</text>
</a>
</g>
</g>
<!-- Node8&#45;&gt;Node9 -->
<g id="edge8" class="edge">
<title>Node8&#45;&gt;Node9</title>
<path fill="none" stroke="midnightblue" d="M1098.1,-174.5C1106.56,-174.5 1115.22,-174.5 1123.79,-174.5"/>
<polygon fill="midnightblue" stroke="midnightblue" points="1123.79,-178 1133.79,-174.5 1123.79,-171 1123.79,-178"/>
</g>
<!-- Node11 -->
<g id="node11" class="node">
<title>Node11</title>
<g id="a_node11"><a xlink:href="interface_photon_1_1_realtime_1_1_i_matchmaking_callbacks.xhtml#a3d084f0aa95b2e8f48514695af73b31d" target="_top" xlink:title="Called when this client created a room and entered it.">
<polygon fill="white" stroke="black" points="744.5,-306.5 744.5,-336.5 896.5,-336.5 896.5,-306.5 744.5,-306.5"/>
<text text-anchor="start" x="752.5" y="-324.5" font-family="Helvetica,sans-Serif" font-size="10.00">Photon.Realtime.IMatchmaking</text>
<text text-anchor="middle" x="820.5" y="-313.5" font-family="Helvetica,sans-Serif" font-size="10.00">Callbacks.OnCreatedRoom</text>
</a>
</g>
</g>
<!-- Node10&#45;&gt;Node11 -->
<g id="edge11" class="edge">
<title>Node10&#45;&gt;Node11</title>
<path fill="none" stroke="midnightblue" d="M698.21,-321.5C710.04,-321.5 722.16,-321.5 733.96,-321.5"/>
<polygon fill="midnightblue" stroke="midnightblue" points="734.22,-325 744.22,-321.5 734.22,-318 734.22,-325"/>
</g>
<!-- Node13 -->
<g id="node13" class="node">
<title>Node13</title>
<g id="a_node13"><a xlink:href="interface_photon_1_1_realtime_1_1_i_matchmaking_callbacks.xhtml#a8add9e72c38d241a448f4b539acd684b" target="_top" xlink:title="Called when the LoadBalancingClient entered a room, no matter if this client created it or simply joi...">
<polygon fill="white" stroke="black" points="744.5,-257.5 744.5,-287.5 896.5,-287.5 896.5,-257.5 744.5,-257.5"/>
<text text-anchor="start" x="752.5" y="-275.5" font-family="Helvetica,sans-Serif" font-size="10.00">Photon.Realtime.IMatchmaking</text>
<text text-anchor="middle" x="820.5" y="-264.5" font-family="Helvetica,sans-Serif" font-size="10.00">Callbacks.OnJoinedRoom</text>
</a>
</g>
</g>
<!-- Node12&#45;&gt;Node13 -->
<g id="edge13" class="edge">
<title>Node12&#45;&gt;Node13</title>
<path fill="none" stroke="midnightblue" d="M695.2,-272.5C708.05,-272.5 721.31,-272.5 734.18,-272.5"/>
<polygon fill="midnightblue" stroke="midnightblue" points="734.39,-276 744.39,-272.5 734.39,-269 734.39,-276"/>
</g>
<!-- Node15 -->
<g id="node15" class="node">
<title>Node15</title>
<g id="a_node15"><a xlink:href="class_photon_1_1_realtime_1_1_load_balancing_client.xhtml#aa12ff3efc3aa91e5ceca9b3a40f7bd79" target="_top" xlink:title=" ">
<polygon fill="white" stroke="black" points="532.5,-110.5 532.5,-140.5 687.5,-140.5 687.5,-110.5 532.5,-110.5"/>
<text text-anchor="start" x="540.5" y="-128.5" font-family="Helvetica,sans-Serif" font-size="10.00">Photon.Realtime.LoadBalancing</text>
<text text-anchor="middle" x="610" y="-117.5" font-family="Helvetica,sans-Serif" font-size="10.00">Client.CheckIfOpCanBeSent</text>
</a>
</g>
</g>
<!-- Node14&#45;&gt;Node15 -->
<g id="edge15" class="edge">
<title>Node14&#45;&gt;Node15</title>
<path fill="none" stroke="midnightblue" d="M486.06,-125.5C497.91,-125.5 510.22,-125.5 522.27,-125.5"/>
<polygon fill="midnightblue" stroke="midnightblue" points="522.31,-129 532.31,-125.5 522.31,-122 522.31,-129"/>
</g>
<!-- Node18 -->
<g id="node18" class="node">
<title>Node18</title>
<g id="a_node18"><a xlink:href="class_photon_1_1_realtime_1_1_load_balancing_peer.xhtml#a67344084f00dcf86aabce99c2610edae" target="_top" xlink:title="Creates a room (on either Master or Game Server).">
<polygon fill="white" stroke="black" points="532.5,-31.5 532.5,-61.5 687.5,-61.5 687.5,-31.5 532.5,-31.5"/>
<text text-anchor="start" x="540.5" y="-49.5" font-family="Helvetica,sans-Serif" font-size="10.00">Photon.Realtime.LoadBalancing</text>
<text text-anchor="middle" x="610" y="-38.5" font-family="Helvetica,sans-Serif" font-size="10.00">Peer.OpCreateRoom</text>
</a>
</g>
</g>
<!-- Node14&#45;&gt;Node18 -->
<g id="edge19" class="edge">
<title>Node14&#45;&gt;Node18</title>
<path fill="none" stroke="midnightblue" d="M447.49,-110.45C479.84,-97.65 526.47,-79.18 561.31,-65.38"/>
<polygon fill="midnightblue" stroke="midnightblue" points="562.8,-68.56 570.81,-61.62 560.22,-62.05 562.8,-68.56"/>
</g>
<!-- Node15&#45;&gt;Node7 -->
<g id="edge18" class="edge">
<title>Node15&#45;&gt;Node7</title>
<path fill="none" stroke="midnightblue" d="M674.97,-140.53C697.39,-145.8 722.74,-151.76 745.88,-157.2"/>
<polygon fill="midnightblue" stroke="midnightblue" points="745.11,-160.61 755.65,-159.49 746.71,-153.8 745.11,-160.61"/>
</g>
<!-- Node16 -->
<g id="node16" class="node">
<title>Node16</title>
<g id="a_node16"><a xlink:href="class_photon_1_1_realtime_1_1_load_balancing_client.xhtml#ae052ab450db16efdd31985d56f76f0ab" target="_top" xlink:title=" ">
<polygon fill="white" stroke="black" points="738.5,-50 738.5,-91 902.5,-91 902.5,-50 738.5,-50"/>
<text text-anchor="start" x="746.5" y="-79" font-family="Helvetica,sans-Serif" font-size="10.00">Photon.Realtime.LoadBalancing</text>
<text text-anchor="start" x="746.5" y="-68" font-family="Helvetica,sans-Serif" font-size="10.00">Client.CheckIfClientIsReadyToCall</text>
<text text-anchor="middle" x="820.5" y="-57" font-family="Helvetica,sans-Serif" font-size="10.00">Operation</text>
</a>
</g>
</g>
<!-- Node15&#45;&gt;Node16 -->
<g id="edge16" class="edge">
<title>Node15&#45;&gt;Node16</title>
<path fill="none" stroke="midnightblue" d="M667.97,-110.47C687.63,-105.29 710.13,-99.35 731.68,-93.67"/>
<polygon fill="midnightblue" stroke="midnightblue" points="732.72,-97.01 741.49,-91.08 730.93,-90.24 732.72,-97.01"/>
</g>
<!-- Node17 -->
<g id="node17" class="node">
<title>Node17</title>
<g id="a_node17"><a xlink:href="class_photon_1_1_realtime_1_1_load_balancing_client.xhtml#aa01a53cac6918dab3ecb99669b276f01" target="_top" xlink:title=" ">
<polygon fill="white" stroke="black" points="739,-110.5 739,-140.5 902,-140.5 902,-110.5 739,-110.5"/>
<text text-anchor="start" x="747" y="-128.5" font-family="Helvetica,sans-Serif" font-size="10.00">Photon.Realtime.LoadBalancing</text>
<text text-anchor="middle" x="820.5" y="-117.5" font-family="Helvetica,sans-Serif" font-size="10.00">Client.CheckIfOpAllowedOnServer</text>
</a>
</g>
</g>
<!-- Node15&#45;&gt;Node17 -->
<g id="edge17" class="edge">
<title>Node15&#45;&gt;Node17</title>
<path fill="none" stroke="midnightblue" d="M687.75,-125.5C700.98,-125.5 714.85,-125.5 728.41,-125.5"/>
<polygon fill="midnightblue" stroke="midnightblue" points="728.71,-129 738.71,-125.5 728.71,-122 728.71,-129"/>
</g>
<!-- Node19 -->
<g id="node19" class="node">
<title>Node19</title>
<g id="a_node19"><a xlink:href="class_photon_1_1_realtime_1_1_load_balancing_peer.xhtml#a7ba1675f94fad7ace3f931c73179b117" target="_top" xlink:title="Used by OpJoinRoom and by OpCreateRoom alike.">
<polygon fill="white" stroke="black" points="734,-0.5 734,-30.5 907,-30.5 907,-0.5 734,-0.5"/>
<text text-anchor="start" x="742" y="-18.5" font-family="Helvetica,sans-Serif" font-size="10.00">Photon.Realtime.LoadBalancing</text>
<text text-anchor="middle" x="820.5" y="-7.5" font-family="Helvetica,sans-Serif" font-size="10.00">Peer.RoomOptionsToOpParameters</text>
</a>
</g>
</g>
<!-- Node18&#45;&gt;Node19 -->
<g id="edge20" class="edge">
<title>Node18&#45;&gt;Node19</title>
<path fill="none" stroke="midnightblue" d="M687.75,-35.09C699.45,-33.35 711.65,-31.54 723.7,-29.74"/>
<polygon fill="midnightblue" stroke="midnightblue" points="724.39,-33.18 733.77,-28.25 723.36,-26.26 724.39,-33.18"/>
</g>
</g>
</svg>
