<?xml version="1.0" encoding="UTF-8" standalone="no"?>
<!DOCTYPE svg PUBLIC "-//W3C//DTD SVG 1.1//EN"
 "http://www.w3.org/Graphics/SVG/1.1/DTD/svg11.dtd">
<!-- Generated by graphviz version 2.47.3 (20210619.1520)
 -->
<!-- Title: Photon.Realtime.Demo.ConnectAndJoinRandomLb.OnJoinRandomFailed Pages: 1 -->
<svg width="1174pt" height="198pt"
 viewBox="0.00 0.00 1174.00 197.50" xmlns="http://www.w3.org/2000/svg" xmlns:xlink="http://www.w3.org/1999/xlink">
<g id="graph0" class="graph" transform="scale(1 1) rotate(0) translate(4 193.5)">
<title>Photon.Realtime.Demo.ConnectAndJoinRandomLb.OnJoinRandomFailed</title>
<polygon fill="white" stroke="transparent" points="-4,4 -4,-193.5 1170,-193.5 1170,4 -4,4"/>
<!-- Node1 -->
<g id="node1" class="node">
<title>Node1</title>
<g id="a_node1"><a xlink:title="Called when a previous OpJoinRandom call failed on the server.">
<polygon fill="#bfbfbf" stroke="black" points="0,-48.5 0,-78.5 193,-78.5 193,-48.5 0,-48.5"/>
<text text-anchor="start" x="8" y="-66.5" font-family="Helvetica,sans-Serif" font-size="10.00">Photon.Realtime.Demo.Connect</text>
<text text-anchor="middle" x="96.5" y="-55.5" font-family="Helvetica,sans-Serif" font-size="10.00">AndJoinRandomLb.OnJoinRandomFailed</text>
</a>
</g>
</g>
<!-- Node2 -->
<g id="node2" class="node">
<title>Node2</title>
<g id="a_node2"><a xlink:href="class_photon_1_1_realtime_1_1_load_balancing_client.xhtml#ac5360b52a4284e623f41b0f870843342" target="_top" xlink:title="Creates a new room.">
<polygon fill="white" stroke="black" points="229,-48.5 229,-78.5 384,-78.5 384,-48.5 229,-48.5"/>
<text text-anchor="start" x="237" y="-66.5" font-family="Helvetica,sans-Serif" font-size="10.00">Photon.Realtime.LoadBalancing</text>
<text text-anchor="middle" x="306.5" y="-55.5" font-family="Helvetica,sans-Serif" font-size="10.00">Client.OpCreateRoom</text>
</a>
</g>
</g>
<!-- Node1&#45;&gt;Node2 -->
<g id="edge1" class="edge">
<title>Node1&#45;&gt;Node2</title>
<path fill="none" stroke="midnightblue" d="M193.28,-63.5C201.77,-63.5 210.33,-63.5 218.74,-63.5"/>
<polygon fill="midnightblue" stroke="midnightblue" points="218.91,-67 228.91,-63.5 218.91,-60 218.91,-67"/>
</g>
<!-- Node3 -->
<g id="node3" class="node">
<title>Node3</title>
<g id="a_node3"><a xlink:href="class_photon_1_1_realtime_1_1_load_balancing_client.xhtml#aa12ff3efc3aa91e5ceca9b3a40f7bd79" target="_top" xlink:title=" ">
<polygon fill="white" stroke="black" points="420,-73.5 420,-103.5 575,-103.5 575,-73.5 420,-73.5"/>
<text text-anchor="start" x="428" y="-91.5" font-family="Helvetica,sans-Serif" font-size="10.00">Photon.Realtime.LoadBalancing</text>
<text text-anchor="middle" x="497.5" y="-80.5" font-family="Helvetica,sans-Serif" font-size="10.00">Client.CheckIfOpCanBeSent</text>
</a>
</g>
</g>
<!-- Node2&#45;&gt;Node3 -->
<g id="edge2" class="edge">
<title>Node2&#45;&gt;Node3</title>
<path fill="none" stroke="midnightblue" d="M384.1,-73.63C392.56,-74.75 401.22,-75.9 409.79,-77.03"/>
<polygon fill="midnightblue" stroke="midnightblue" points="409.42,-80.51 419.79,-78.35 410.34,-73.57 409.42,-80.51"/>
</g>
<!-- Node9 -->
<g id="node9" class="node">
<title>Node9</title>
<g id="a_node9"><a xlink:href="class_photon_1_1_realtime_1_1_load_balancing_peer.xhtml#a67344084f00dcf86aabce99c2610edae" target="_top" xlink:title="Creates a room (on either Master or Game Server).">
<polygon fill="white" stroke="black" points="420,-24.5 420,-54.5 575,-54.5 575,-24.5 420,-24.5"/>
<text text-anchor="start" x="428" y="-42.5" font-family="Helvetica,sans-Serif" font-size="10.00">Photon.Realtime.LoadBalancing</text>
<text text-anchor="middle" x="497.5" y="-31.5" font-family="Helvetica,sans-Serif" font-size="10.00">Peer.OpCreateRoom</text>
</a>
</g>
</g>
<!-- Node2&#45;&gt;Node9 -->
<g id="edge8" class="edge">
<title>Node2&#45;&gt;Node9</title>
<path fill="none" stroke="midnightblue" d="M384.1,-53.77C392.56,-52.7 401.22,-51.6 409.79,-50.51"/>
<polygon fill="midnightblue" stroke="midnightblue" points="410.31,-53.97 419.79,-49.24 409.43,-47.03 410.31,-53.97"/>
</g>
<!-- Node4 -->
<g id="node4" class="node">
<title>Node4</title>
<g id="a_node4"><a xlink:href="class_photon_1_1_realtime_1_1_load_balancing_client.xhtml#ae052ab450db16efdd31985d56f76f0ab" target="_top" xlink:title=" ">
<polygon fill="white" stroke="black" points="615.5,-148 615.5,-189 779.5,-189 779.5,-148 615.5,-148"/>
<text text-anchor="start" x="623.5" y="-177" font-family="Helvetica,sans-Serif" font-size="10.00">Photon.Realtime.LoadBalancing</text>
<text text-anchor="start" x="623.5" y="-166" font-family="Helvetica,sans-Serif" font-size="10.00">Client.CheckIfClientIsReadyToCall</text>
<text text-anchor="middle" x="697.5" y="-155" font-family="Helvetica,sans-Serif" font-size="10.00">Operation</text>
</a>
</g>
</g>
<!-- Node3&#45;&gt;Node4 -->
<g id="edge3" class="edge">
<title>Node3&#45;&gt;Node4</title>
<path fill="none" stroke="midnightblue" d="M530.7,-103.64C553.04,-113.94 583.59,-127.62 611,-138.5 616.03,-140.49 621.24,-142.49 626.51,-144.46"/>
<polygon fill="midnightblue" stroke="midnightblue" points="625.42,-147.79 636.02,-147.96 627.84,-141.22 625.42,-147.79"/>
</g>
<!-- Node5 -->
<g id="node5" class="node">
<title>Node5</title>
<g id="a_node5"><a xlink:href="class_photon_1_1_realtime_1_1_load_balancing_client.xhtml#aa01a53cac6918dab3ecb99669b276f01" target="_top" xlink:title=" ">
<polygon fill="white" stroke="black" points="616,-98.5 616,-128.5 779,-128.5 779,-98.5 616,-98.5"/>
<text text-anchor="start" x="624" y="-116.5" font-family="Helvetica,sans-Serif" font-size="10.00">Photon.Realtime.LoadBalancing</text>
<text text-anchor="middle" x="697.5" y="-105.5" font-family="Helvetica,sans-Serif" font-size="10.00">Client.CheckIfOpAllowedOnServer</text>
</a>
</g>
</g>
<!-- Node3&#45;&gt;Node5 -->
<g id="edge4" class="edge">
<title>Node3&#45;&gt;Node5</title>
<path fill="none" stroke="midnightblue" d="M575.05,-98.17C585.09,-99.43 595.45,-100.74 605.7,-102.04"/>
<polygon fill="midnightblue" stroke="midnightblue" points="605.53,-105.54 615.89,-103.32 606.41,-98.6 605.53,-105.54"/>
</g>
<!-- Node6 -->
<g id="node6" class="node">
<title>Node6</title>
<g id="a_node6"><a xlink:href="class_photon_1_1_realtime_1_1_load_balancing_client.xhtml#a69dd43d4c7211b5b83cd54d0ebcf79e7" target="_top" xlink:title="Debug output of low level api (and this client).">
<polygon fill="white" stroke="black" points="620,-49.5 620,-79.5 775,-79.5 775,-49.5 620,-49.5"/>
<text text-anchor="start" x="628" y="-67.5" font-family="Helvetica,sans-Serif" font-size="10.00">Photon.Realtime.LoadBalancing</text>
<text text-anchor="middle" x="697.5" y="-56.5" font-family="Helvetica,sans-Serif" font-size="10.00">Client.DebugReturn</text>
</a>
</g>
</g>
<!-- Node3&#45;&gt;Node6 -->
<g id="edge5" class="edge">
<title>Node3&#45;&gt;Node6</title>
<path fill="none" stroke="midnightblue" d="M575.05,-79.22C586.41,-77.84 598.19,-76.42 609.75,-75.02"/>
<polygon fill="midnightblue" stroke="midnightblue" points="610.32,-78.47 619.83,-73.79 609.48,-71.52 610.32,-78.47"/>
</g>
<!-- Node7 -->
<g id="node7" class="node">
<title>Node7</title>
<g id="a_node7"><a xlink:href="class_photon_1_1_realtime_1_1_load_balancing_peer.xhtml#a7f48b5f0c44ef0c67ef32f147ff87246" target="_top" xlink:title="Creates a Peer with specified connection protocol.">
<polygon fill="white" stroke="black" points="820,-49.5 820,-79.5 975,-79.5 975,-49.5 820,-49.5"/>
<text text-anchor="start" x="828" y="-67.5" font-family="Helvetica,sans-Serif" font-size="10.00">Photon.Realtime.LoadBalancing</text>
<text text-anchor="middle" x="897.5" y="-56.5" font-family="Helvetica,sans-Serif" font-size="10.00">Peer.LoadBalancingPeer</text>
</a>
</g>
</g>
<!-- Node6&#45;&gt;Node7 -->
<g id="edge6" class="edge">
<title>Node6&#45;&gt;Node7</title>
<path fill="none" stroke="midnightblue" d="M775.05,-64.5C786.41,-64.5 798.19,-64.5 809.75,-64.5"/>
<polygon fill="midnightblue" stroke="midnightblue" points="809.83,-68 819.83,-64.5 809.83,-61 809.83,-68"/>
</g>
<!-- Node8 -->
<g id="node8" class="node">
<title>Node8</title>
<g id="a_node8"><a xlink:href="class_photon_1_1_realtime_1_1_load_balancing_peer.xhtml#affaff7e1fdffe86b25156ffac5e738c9" target="_top" xlink:title=" ">
<polygon fill="white" stroke="black" points="1011,-49.5 1011,-79.5 1166,-79.5 1166,-49.5 1011,-49.5"/>
<text text-anchor="start" x="1019" y="-67.5" font-family="Helvetica,sans-Serif" font-size="10.00">Photon.Realtime.LoadBalancing</text>
<text text-anchor="middle" x="1088.5" y="-56.5" font-family="Helvetica,sans-Serif" font-size="10.00">Peer.ConfigUnitySockets</text>
</a>
</g>
</g>
<!-- Node7&#45;&gt;Node8 -->
<g id="edge7" class="edge">
<title>Node7&#45;&gt;Node8</title>
<path fill="none" stroke="midnightblue" d="M975.1,-64.5C983.56,-64.5 992.22,-64.5 1000.79,-64.5"/>
<polygon fill="midnightblue" stroke="midnightblue" points="1000.79,-68 1010.79,-64.5 1000.79,-61 1000.79,-68"/>
</g>
<!-- Node10 -->
<g id="node10" class="node">
<title>Node10</title>
<g id="a_node10"><a xlink:href="class_photon_1_1_realtime_1_1_load_balancing_peer.xhtml#a7ba1675f94fad7ace3f931c73179b117" target="_top" xlink:title="Used by OpJoinRoom and by OpCreateRoom alike.">
<polygon fill="white" stroke="black" points="611,-0.5 611,-30.5 784,-30.5 784,-0.5 611,-0.5"/>
<text text-anchor="start" x="619" y="-18.5" font-family="Helvetica,sans-Serif" font-size="10.00">Photon.Realtime.LoadBalancing</text>
<text text-anchor="middle" x="697.5" y="-7.5" font-family="Helvetica,sans-Serif" font-size="10.00">Peer.RoomOptionsToOpParameters</text>
</a>
</g>
</g>
<!-- Node9&#45;&gt;Node10 -->
<g id="edge9" class="edge">
<title>Node9&#45;&gt;Node10</title>
<path fill="none" stroke="midnightblue" d="M575.05,-30.22C583.5,-29.2 592.18,-28.15 600.82,-27.1"/>
<polygon fill="midnightblue" stroke="midnightblue" points="601.43,-30.55 610.94,-25.87 600.59,-23.6 601.43,-30.55"/>
</g>
</g>
</svg>
