<?xml version="1.0" encoding="UTF-8" standalone="no"?>
<!DOCTYPE svg PUBLIC "-//W3C//DTD SVG 1.1//EN"
 "http://www.w3.org/Graphics/SVG/1.1/DTD/svg11.dtd">
<!-- Generated by graphviz version 2.47.3 (20210619.1520)
 -->
<!-- Title: Photon.Pun.PhotonAnimatorView Pages: 1 -->
<svg width="397pt" height="240pt"
 viewBox="0.00 0.00 397.00 240.00" xmlns="http://www.w3.org/2000/svg" xmlns:xlink="http://www.w3.org/1999/xlink">
<g id="graph0" class="graph" transform="scale(1 1) rotate(0) translate(4 236)">
<title>Photon.Pun.PhotonAnimatorView</title>
<polygon fill="white" stroke="transparent" points="-4,4 -4,-236 393,-236 393,4 -4,4"/>
<!-- Node1 -->
<g id="node1" class="node">
<title>Node1</title>
<g id="a_node1"><a xlink:title="This class helps you to synchronize Mecanim animations Simply add the component to your GameObject an...">
<polygon fill="#bfbfbf" stroke="black" points="87,-0.5 87,-19.5 248,-19.5 248,-0.5 87,-0.5"/>
<text text-anchor="middle" x="167.5" y="-7.5" font-family="Helvetica,sans-Serif" font-size="10.00">Photon.Pun.PhotonAnimatorView</text>
</a>
</g>
</g>
<!-- Node2 -->
<g id="node2" class="node">
<title>Node2</title>
<g id="a_node2"><a xlink:href="class_photon_1_1_pun_1_1_mono_behaviour_pun.xhtml" target="_top" xlink:title="This class adds the property photonView, while logging a warning when your game still uses the networ...">
<polygon fill="white" stroke="black" points="7.5,-67.5 7.5,-86.5 107.5,-86.5 107.5,-67.5 7.5,-67.5"/>
<text text-anchor="middle" x="57.5" y="-74.5" font-family="Helvetica,sans-Serif" font-size="10.00">MonoBehaviourPun</text>
</a>
</g>
</g>
<!-- Node2&#45;&gt;Node1 -->
<g id="edge1" class="edge">
<title>Node2&#45;&gt;Node1</title>
<path fill="none" stroke="midnightblue" d="M81,-62.12C102.79,-49.24 134.54,-30.48 152.9,-19.63"/>
<polygon fill="midnightblue" stroke="midnightblue" points="79.16,-59.13 72.34,-67.23 82.72,-65.16 79.16,-59.13"/>
</g>
<!-- Node3 -->
<g id="node3" class="node">
<title>Node3</title>
<g id="a_node3"><a xlink:title=" ">
<polygon fill="white" stroke="#bfbfbf" points="0,-212.5 0,-231.5 83,-231.5 83,-212.5 0,-212.5"/>
<text text-anchor="middle" x="41.5" y="-219.5" font-family="Helvetica,sans-Serif" font-size="10.00">MonoBehaviour</text>
</a>
</g>
</g>
<!-- Node3&#45;&gt;Node2 -->
<g id="edge2" class="edge">
<title>Node3&#45;&gt;Node2</title>
<path fill="none" stroke="midnightblue" d="M43.57,-202.51C47.06,-171.31 53.99,-109.41 56.53,-86.65"/>
<polygon fill="midnightblue" stroke="midnightblue" points="40.09,-202.16 42.45,-212.48 47.04,-202.93 40.09,-202.16"/>
</g>
<!-- Node4 -->
<g id="node4" class="node">
<title>Node4</title>
<g id="a_node4"><a xlink:href="class_photon_1_1_pun_1_1_photon_view.xhtml" target="_top" xlink:title="A PhotonView identifies an object across the network (viewID) and configures how the controlling clie...">
<polygon fill="white" stroke="black" points="69.5,-134.5 69.5,-153.5 191.5,-153.5 191.5,-134.5 69.5,-134.5"/>
<text text-anchor="middle" x="130.5" y="-141.5" font-family="Helvetica,sans-Serif" font-size="10.00">Photon.Pun.PhotonView</text>
</a>
</g>
</g>
<!-- Node3&#45;&gt;Node4 -->
<g id="edge4" class="edge">
<title>Node3&#45;&gt;Node4</title>
<path fill="none" stroke="midnightblue" d="M59.38,-205.73C77.72,-190.07 105.59,-166.27 120.41,-153.62"/>
<polygon fill="midnightblue" stroke="midnightblue" points="57.04,-203.13 51.71,-212.28 61.59,-208.45 57.04,-203.13"/>
</g>
<!-- Node4&#45;&gt;Node2 -->
<g id="edge3" class="edge">
<title>Node4&#45;&gt;Node2</title>
<path fill="none" stroke="#9a32cd" stroke-dasharray="5,2" d="M112.93,-127.36C98.58,-114.58 78.83,-96.99 67.19,-86.63"/>
<polygon fill="#9a32cd" stroke="#9a32cd" points="110.86,-130.2 120.65,-134.23 115.51,-124.97 110.86,-130.2"/>
<text text-anchor="middle" x="118.5" y="-108" font-family="Helvetica,sans-Serif" font-size="10.00"> pvCache</text>
</g>
<!-- Node5 -->
<g id="node5" class="node">
<title>Node5</title>
<g id="a_node5"><a xlink:href="class_photon_1_1_realtime_1_1_player.xhtml" target="_top" xlink:title="Summarizes a &quot;player&quot; within a room, identified (in that room) by ID (or &quot;actorNumber&quot;).">
<polygon fill="white" stroke="black" points="101,-212.5 101,-231.5 220,-231.5 220,-212.5 101,-212.5"/>
<text text-anchor="middle" x="160.5" y="-219.5" font-family="Helvetica,sans-Serif" font-size="10.00">Photon.Realtime.Player</text>
</a>
</g>
</g>
<!-- Node5&#45;&gt;Node4 -->
<g id="edge5" class="edge">
<title>Node5&#45;&gt;Node4</title>
<path fill="none" stroke="#9a32cd" stroke-dasharray="5,2" d="M153.27,-202.67C147.12,-187.11 138.58,-165.47 133.9,-153.62"/>
<polygon fill="#9a32cd" stroke="#9a32cd" points="150.13,-204.27 157.06,-212.28 156.64,-201.7 150.13,-204.27"/>
<text text-anchor="middle" x="171" y="-186" font-family="Helvetica,sans-Serif" font-size="10.00"> controller</text>
<text text-anchor="middle" x="171" y="-175" font-family="Helvetica,sans-Serif" font-size="10.00">owner</text>
</g>
<!-- Node6 -->
<g id="node6" class="node">
<title>Node6</title>
<g id="a_node6"><a xlink:href="interface_photon_1_1_pun_1_1_i_pun_observable.xhtml" target="_top" xlink:title="Defines the OnPhotonSerializeView method to make it easy to implement correctly for observable script...">
<polygon fill="white" stroke="black" points="125.5,-67.5 125.5,-86.5 209.5,-86.5 209.5,-67.5 125.5,-67.5"/>
<text text-anchor="middle" x="167.5" y="-74.5" font-family="Helvetica,sans-Serif" font-size="10.00">IPunObservable</text>
</a>
</g>
</g>
<!-- Node6&#45;&gt;Node1 -->
<g id="edge6" class="edge">
<title>Node6&#45;&gt;Node1</title>
<path fill="none" stroke="midnightblue" d="M167.5,-57.04C167.5,-44.67 167.5,-29.12 167.5,-19.63"/>
<polygon fill="midnightblue" stroke="midnightblue" points="164,-57.23 167.5,-67.23 171,-57.23 164,-57.23"/>
</g>
<!-- Node7 -->
<g id="node7" class="node">
<title>Node7</title>
<g id="a_node7"><a xlink:href="class_photon_1_1_pun_1_1_photon_stream_queue.xhtml" target="_top" xlink:title="The PhotonStreamQueue helps you poll object states at higher frequencies than what PhotonNetwork....">
<polygon fill="white" stroke="black" points="228,-67.5 228,-86.5 389,-86.5 389,-67.5 228,-67.5"/>
<text text-anchor="middle" x="308.5" y="-74.5" font-family="Helvetica,sans-Serif" font-size="10.00">Photon.Pun.PhotonStreamQueue</text>
</a>
</g>
</g>
<!-- Node7&#45;&gt;Node1 -->
<g id="edge7" class="edge">
<title>Node7&#45;&gt;Node1</title>
<path fill="none" stroke="#9a32cd" stroke-dasharray="5,2" d="M280.54,-63.11C252.62,-50.24 210.46,-30.81 186.3,-19.67"/>
<polygon fill="#9a32cd" stroke="#9a32cd" points="279.23,-66.36 289.78,-67.37 282.16,-60 279.23,-66.36"/>
<text text-anchor="middle" x="285" y="-41" font-family="Helvetica,sans-Serif" font-size="10.00"> m_StreamQueue</text>
</g>
</g>
</svg>
