<?xml version="1.0" encoding="UTF-8" standalone="no"?>
<!DOCTYPE svg PUBLIC "-//W3C//DTD SVG 1.1//EN"
 "http://www.w3.org/Graphics/SVG/1.1/DTD/svg11.dtd">
<!-- Generated by graphviz version 2.47.3 (20210619.1520)
 -->
<!-- Title: Tayx.Graphy.Advanced.G_AdvancedData.SetPosition Pages: 1 -->
<!--zoomable 210 -->
<svg id="main" version="1.1" xmlns="http://www.w3.org/2000/svg" xmlns:xlink="http://www.w3.org/1999/xlink" xml:space="preserve" onload="init(evt)">
<style type="text/css"><![CDATA[
.edge:hover path { stroke: red; }
.edge:hover polygon { stroke: red; fill: red; }
]]></style>
<script type="text/javascript"><![CDATA[
var edges = document.getElementsByTagName('g');
if (edges && edges.length) {
  for (var i=0;i<edges.length;i++) {
    if (edges[i].id.substr(0,4)=='edge') {
      edges[i].setAttribute('class','edge');
    }
  }
}
]]></script>
        <defs>
                <circle id="rim" cx="0" cy="0" r="7"/>
                <circle id="rim2" cx="0" cy="0" r="3.5"/>
                <g id="zoomPlus">
                        <use xlink:href="#rim" fill="#404040">
                                <set attributeName="fill" to="#808080" begin="zoomplus.mouseover" end="zoomplus.mouseout"/>
                        </use>
                        <path d="M-4,0h8M0,-4v8" fill="none" stroke="white" stroke-width="1.5" pointer-events="none"/>
                </g>
                <g id="zoomMin">
                        <use xlink:href="#rim" fill="#404040">
                                <set attributeName="fill" to="#808080" begin="zoomminus.mouseover" end="zoomminus.mouseout"/>
                        </use>
                        <path d="M-4,0h8" fill="none" stroke="white" stroke-width="1.5" pointer-events="none"/>
                </g>
                <g id="dirArrow">
                        <path fill="none" stroke="white" stroke-width="1.5" d="M0,-3.0v7 M-2.5,-0.5L0,-3.0L2.5,-0.5"/>
                </g>
               <g id="resetDef">
                       <use xlink:href="#rim2" fill="#404040">
                               <set attributeName="fill" to="#808080" begin="reset.mouseover" end="reset.mouseout"/>
                       </use>
               </g>
        </defs>

<script type="text/javascript">
var viewWidth = 717;
var viewHeight = 210;
var sectionId = 'dynsection-9';
</script>
<script xlink:href="svgpan.js"/>
<svg id="graph" class="graph">
<g id="viewport">
<title>Tayx.Graphy.Advanced.G_AdvancedData.SetPosition</title>
<polygon fill="white" stroke="transparent" points="-4,4 -4,-206 713,-206 713,4 -4,4"/>
<!-- Node1 -->
<g id="node1" class="node">
<title>Node1</title>
<g id="a_node1"><a xlink:title="Sets the position of the module.">
<polygon fill="#bfbfbf" stroke="black" points="572,-98.5 572,-128.5 709,-128.5 709,-98.5 572,-98.5"/>
<text text-anchor="start" x="580" y="-116.5" font-family="Helvetica,sans-Serif" font-size="10.00">Tayx.Graphy.Advanced.G</text>
<text text-anchor="middle" x="640.5" y="-105.5" font-family="Helvetica,sans-Serif" font-size="10.00">_AdvancedData.SetPosition</text>
</a>
</g>
</g>
<!-- Node2 -->
<g id="node2" class="node">
<title>Node2</title>
<g id="a_node2"><a xlink:href="class_tayx_1_1_graphy_1_1_graphy_manager.xhtml#a0b4d55c65e436a19150af93e701f82b0" target="_top" xlink:title=" ">
<polygon fill="white" stroke="black" points="371,-175 371,-194 531,-194 531,-175 371,-175"/>
<text text-anchor="middle" x="451" y="-182" font-family="Helvetica,sans-Serif" font-size="10.00">Tayx.Graphy.GraphyManager.Init</text>
</a>
</g>
</g>
<!-- Node1&#45;&gt;Node2 -->
<g id="edge1" class="edge">
<title>Node1&#45;&gt;Node2</title>
<path fill="none" stroke="midnightblue" d="M602.94,-133.43C583.48,-143.46 558.9,-155.21 536,-163.5 523.7,-167.95 510.06,-171.81 497.41,-174.95"/>
<polygon fill="midnightblue" stroke="midnightblue" points="604.81,-136.41 612.06,-128.67 601.57,-130.2 604.81,-136.41"/>
</g>
<!-- Node4 -->
<g id="node4" class="node">
<title>Node4</title>
<g id="a_node4"><a xlink:href="class_tayx_1_1_graphy_1_1_advanced_1_1_g___advanced_data.xhtml#ab2e2d1708795b0341799db4b7135da5d" target="_top" xlink:title=" ">
<polygon fill="white" stroke="black" points="366,-123.5 366,-153.5 536,-153.5 536,-123.5 366,-123.5"/>
<text text-anchor="start" x="374" y="-141.5" font-family="Helvetica,sans-Serif" font-size="10.00">Tayx.Graphy.Advanced.G</text>
<text text-anchor="middle" x="451" y="-130.5" font-family="Helvetica,sans-Serif" font-size="10.00">_AdvancedData.RefreshParameters</text>
</a>
</g>
</g>
<!-- Node1&#45;&gt;Node4 -->
<g id="edge3" class="edge">
<title>Node1&#45;&gt;Node4</title>
<path fill="none" stroke="midnightblue" d="M561.68,-123.88C553.29,-125 544.72,-126.14 536.25,-127.27"/>
<polygon fill="midnightblue" stroke="midnightblue" points="562.36,-127.32 571.81,-122.53 561.43,-120.38 562.36,-127.32"/>
</g>
<!-- Node7 -->
<g id="node7" class="node">
<title>Node7</title>
<g id="a_node7"><a xlink:href="class_tayx_1_1_graphy_1_1_graphy_manager.xhtml#a08d5703826ad6b410409331c4d85bf09" target="_top" xlink:title=" ">
<polygon fill="white" stroke="black" points="377.5,-74.5 377.5,-104.5 524.5,-104.5 524.5,-74.5 377.5,-74.5"/>
<text text-anchor="start" x="385.5" y="-92.5" font-family="Helvetica,sans-Serif" font-size="10.00">Tayx.Graphy.GraphyManager.</text>
<text text-anchor="middle" x="451" y="-81.5" font-family="Helvetica,sans-Serif" font-size="10.00">SetModulePosition</text>
</a>
</g>
</g>
<!-- Node1&#45;&gt;Node7 -->
<g id="edge6" class="edge">
<title>Node1&#45;&gt;Node7</title>
<path fill="none" stroke="midnightblue" d="M561.63,-103.53C549.39,-101.97 536.78,-100.35 524.66,-98.8"/>
<polygon fill="midnightblue" stroke="midnightblue" points="561.44,-107.04 571.81,-104.84 562.33,-100.09 561.44,-107.04"/>
</g>
<!-- Node8 -->
<g id="node8" class="node">
<title>Node8</title>
<g id="a_node8"><a xlink:href="class_tayx_1_1_graphy_1_1_advanced_1_1_g___advanced_data.xhtml#ae4e2e7a4ec9be72ea53970601637f8fd" target="_top" xlink:title=" ">
<polygon fill="white" stroke="black" points="367,-25.5 367,-55.5 535,-55.5 535,-25.5 367,-25.5"/>
<text text-anchor="start" x="375" y="-43.5" font-family="Helvetica,sans-Serif" font-size="10.00">Tayx.Graphy.Advanced.G</text>
<text text-anchor="middle" x="451" y="-32.5" font-family="Helvetica,sans-Serif" font-size="10.00">_AdvancedData.UpdateParameters</text>
</a>
</g>
</g>
<!-- Node1&#45;&gt;Node8 -->
<g id="edge7" class="edge">
<title>Node1&#45;&gt;Node8</title>
<path fill="none" stroke="midnightblue" d="M601.04,-94.04C581.8,-84.73 557.97,-73.81 536,-65.5 526.75,-62 516.78,-58.67 507.06,-55.64"/>
<polygon fill="midnightblue" stroke="midnightblue" points="599.58,-97.22 610.1,-98.47 602.65,-90.93 599.58,-97.22"/>
</g>
<!-- Node3 -->
<g id="node3" class="node">
<title>Node3</title>
<g id="a_node3"><a xlink:href="class_tayx_1_1_graphy_1_1_graphy_manager.xhtml#a6a186120c515fe48b10b2cf95caac917" target="_top" xlink:title=" ">
<polygon fill="white" stroke="black" points="183,-171.5 183,-201.5 330,-201.5 330,-171.5 183,-171.5"/>
<text text-anchor="start" x="191" y="-189.5" font-family="Helvetica,sans-Serif" font-size="10.00">Tayx.Graphy.GraphyManager.</text>
<text text-anchor="middle" x="256.5" y="-178.5" font-family="Helvetica,sans-Serif" font-size="10.00">Start</text>
</a>
</g>
</g>
<!-- Node2&#45;&gt;Node3 -->
<g id="edge2" class="edge">
<title>Node2&#45;&gt;Node3</title>
<path fill="none" stroke="midnightblue" d="M360.69,-185.43C350.46,-185.53 340.12,-185.64 330.14,-185.75"/>
<polygon fill="midnightblue" stroke="midnightblue" points="360.91,-188.93 370.87,-185.32 360.83,-181.93 360.91,-188.93"/>
</g>
<!-- Node5 -->
<g id="node5" class="node">
<title>Node5</title>
<g id="a_node5"><a xlink:href="class_tayx_1_1_graphy_1_1_graphy_manager.xhtml#acee2ed06f19bb2ca4dd2c08cd6ea6663" target="_top" xlink:title=" ">
<polygon fill="white" stroke="black" points="183,-122.5 183,-152.5 330,-152.5 330,-122.5 183,-122.5"/>
<text text-anchor="start" x="191" y="-140.5" font-family="Helvetica,sans-Serif" font-size="10.00">Tayx.Graphy.GraphyManager.</text>
<text text-anchor="middle" x="256.5" y="-129.5" font-family="Helvetica,sans-Serif" font-size="10.00">RefreshAllParameters</text>
</a>
</g>
</g>
<!-- Node4&#45;&gt;Node5 -->
<g id="edge4" class="edge">
<title>Node4&#45;&gt;Node5</title>
<path fill="none" stroke="midnightblue" d="M355.73,-138.01C347.09,-137.97 338.43,-137.92 330.03,-137.88"/>
<polygon fill="midnightblue" stroke="midnightblue" points="355.83,-141.51 365.85,-138.06 355.87,-134.51 355.83,-141.51"/>
</g>
<!-- Node6 -->
<g id="node6" class="node">
<title>Node6</title>
<g id="a_node6"><a xlink:href="class_tayx_1_1_graphy_1_1_graphy_manager.xhtml#a348506f37eebf68d2530f2c57845459e" target="_top" xlink:title=" ">
<polygon fill="white" stroke="black" points="0,-122.5 0,-152.5 147,-152.5 147,-122.5 0,-122.5"/>
<text text-anchor="start" x="8" y="-140.5" font-family="Helvetica,sans-Serif" font-size="10.00">Tayx.Graphy.GraphyManager.</text>
<text text-anchor="middle" x="73.5" y="-129.5" font-family="Helvetica,sans-Serif" font-size="10.00">OnApplicationFocus</text>
</a>
</g>
</g>
<!-- Node5&#45;&gt;Node6 -->
<g id="edge5" class="edge">
<title>Node5&#45;&gt;Node6</title>
<path fill="none" stroke="midnightblue" d="M172.88,-137.5C164.28,-137.5 155.58,-137.5 147.09,-137.5"/>
<polygon fill="midnightblue" stroke="midnightblue" points="172.92,-141 182.92,-137.5 172.92,-134 172.92,-141"/>
</g>
<!-- Node9 -->
<g id="node9" class="node">
<title>Node9</title>
<g id="a_node9"><a xlink:href="class_tayx_1_1_graphy_1_1_advanced_1_1_g___advanced_data.xhtml#a2092a4aebd0008fddf83bd40c9bd7712" target="_top" xlink:title=" ">
<polygon fill="white" stroke="black" points="192.5,-49.5 192.5,-79.5 320.5,-79.5 320.5,-49.5 192.5,-49.5"/>
<text text-anchor="start" x="200.5" y="-67.5" font-family="Helvetica,sans-Serif" font-size="10.00">Tayx.Graphy.Advanced.G</text>
<text text-anchor="middle" x="256.5" y="-56.5" font-family="Helvetica,sans-Serif" font-size="10.00">_AdvancedData.Init</text>
</a>
</g>
</g>
<!-- Node8&#45;&gt;Node9 -->
<g id="edge8" class="edge">
<title>Node8&#45;&gt;Node9</title>
<path fill="none" stroke="midnightblue" d="M356.7,-52.13C344.44,-53.66 332.11,-55.2 320.52,-56.64"/>
<polygon fill="midnightblue" stroke="midnightblue" points="357.48,-55.56 366.97,-50.85 356.61,-48.62 357.48,-55.56"/>
</g>
<!-- Node11 -->
<g id="node11" class="node">
<title>Node11</title>
<g id="a_node11"><a xlink:href="class_tayx_1_1_graphy_1_1_graphy_manager.xhtml#a09cf85e2115057a8a96471d52b9c4cd2" target="_top" xlink:title=" ">
<polygon fill="white" stroke="black" points="183,-0.5 183,-30.5 330,-30.5 330,-0.5 183,-0.5"/>
<text text-anchor="start" x="191" y="-18.5" font-family="Helvetica,sans-Serif" font-size="10.00">Tayx.Graphy.GraphyManager.</text>
<text text-anchor="middle" x="256.5" y="-7.5" font-family="Helvetica,sans-Serif" font-size="10.00">UpdateAllParameters</text>
</a>
</g>
</g>
<!-- Node8&#45;&gt;Node11 -->
<g id="edge10" class="edge">
<title>Node8&#45;&gt;Node11</title>
<path fill="none" stroke="midnightblue" d="M356.9,-28.41C347.96,-27.25 338.98,-26.08 330.27,-24.95"/>
<polygon fill="midnightblue" stroke="midnightblue" points="356.6,-31.9 366.97,-29.72 357.5,-24.96 356.6,-31.9"/>
</g>
<!-- Node10 -->
<g id="node10" class="node">
<title>Node10</title>
<g id="a_node10"><a xlink:href="class_tayx_1_1_graphy_1_1_advanced_1_1_g___advanced_data.xhtml#a27dc840460b80ace5f3610035e41d69b" target="_top" xlink:title=" ">
<polygon fill="white" stroke="black" points="8.5,-49.5 8.5,-79.5 138.5,-79.5 138.5,-49.5 8.5,-49.5"/>
<text text-anchor="start" x="16.5" y="-67.5" font-family="Helvetica,sans-Serif" font-size="10.00">Tayx.Graphy.Advanced.G</text>
<text text-anchor="middle" x="73.5" y="-56.5" font-family="Helvetica,sans-Serif" font-size="10.00">_AdvancedData.OnEnable</text>
</a>
</g>
</g>
<!-- Node9&#45;&gt;Node10 -->
<g id="edge9" class="edge">
<title>Node9&#45;&gt;Node10</title>
<path fill="none" stroke="midnightblue" d="M182.08,-64.5C167.66,-64.5 152.64,-64.5 138.55,-64.5"/>
<polygon fill="midnightblue" stroke="midnightblue" points="182.45,-68 192.45,-64.5 182.45,-61 182.45,-68"/>
</g>
</g>
</svg>
        <g id="navigator" transform="translate(0 0)" fill="#404254">
                <rect fill="#f2f5e9" fill-opacity="0.5" stroke="#606060" stroke-width=".5" x="0" y="0" width="60" height="60"/>
                <use id="zoomplus" xlink:href="#zoomPlus" x="17" y="9" onmousedown="handleZoom(evt,'in')"/>
                <use id="zoomminus" xlink:href="#zoomMin" x="42" y="9" onmousedown="handleZoom(evt,'out')"/>
                <use id="reset" xlink:href="#resetDef" x="30" y="36" onmousedown="handleReset()"/>
                <g id="arrowUp" xlink:href="#dirArrow" transform="translate(30 24)" onmousedown="handlePan(0,-1)">
                  <use xlink:href="#rim" fill="#404040">
                        <set attributeName="fill" to="#808080" begin="arrowUp.mouseover" end="arrowUp.mouseout"/>
                  </use>
                  <path fill="none" stroke="white" stroke-width="1.5" d="M0,-3.0v7 M-2.5,-0.5L0,-3.0L2.5,-0.5"/>
                </g>
                <g id="arrowRight" xlink:href="#dirArrow" transform="rotate(90) translate(36 -43)" onmousedown="handlePan(1,0)">
                  <use xlink:href="#rim" fill="#404040">
                        <set attributeName="fill" to="#808080" begin="arrowRight.mouseover" end="arrowRight.mouseout"/>
                  </use>
                  <path fill="none" stroke="white" stroke-width="1.5" d="M0,-3.0v7 M-2.5,-0.5L0,-3.0L2.5,-0.5"/>
                </g>
                <g id="arrowDown" xlink:href="#dirArrow" transform="rotate(180) translate(-30 -48)" onmousedown="handlePan(0,1)">
                  <use xlink:href="#rim" fill="#404040">
                        <set attributeName="fill" to="#808080" begin="arrowDown.mouseover" end="arrowDown.mouseout"/>
                  </use>
                  <path fill="none" stroke="white" stroke-width="1.5" d="M0,-3.0v7 M-2.5,-0.5L0,-3.0L2.5,-0.5"/>
                </g>
                <g id="arrowLeft" xlink:href="#dirArrow" transform="rotate(270) translate(-36 17)" onmousedown="handlePan(-1,0)">
                  <use xlink:href="#rim" fill="#404040">
                        <set attributeName="fill" to="#808080" begin="arrowLeft.mouseover" end="arrowLeft.mouseout"/>
                  </use>
                  <path fill="none" stroke="white" stroke-width="1.5" d="M0,-3.0v7 M-2.5,-0.5L0,-3.0L2.5,-0.5"/>
                </g>
        </g>
        <svg viewBox="0 0 15 15" width="100%" height="30px" preserveAspectRatio="xMaxYMin meet">
         <g id="arrow_out" transform="scale(0.3 0.3)">
          <a xlink:href="class_tayx_1_1_graphy_1_1_advanced_1_1_g___advanced_data_a0e5e65da50bc546e002b4a3eb04bb32a_icgraph_org.svg" target="_base">
           <rect id="button" ry="5" rx="5" y="6" x="6" height="38" width="38"
                fill="#f2f5e9" fill-opacity="0.5" stroke="#606060" stroke-width="1.0"/>
           <path id="arrow"
             d="M 11.500037,31.436501 C 11.940474,20.09759 22.043105,11.32322 32.158766,21.979434 L 37.068811,17.246167 C 37.068811,17.246167 37.088388,32 37.088388,32 L 22.160133,31.978069 C 22.160133,31.978069 26.997745,27.140456 26.997745,27.140456 C 18.528582,18.264221 13.291696,25.230495 11.500037,31.436501 z"
             style="fill:#404040;"/>
          </a>
         </g>
        </svg>
</svg>
