<?xml version="1.0" encoding="UTF-8" standalone="no"?>
<!DOCTYPE svg PUBLIC "-//W3C//DTD SVG 1.1//EN"
 "http://www.w3.org/Graphics/SVG/1.1/DTD/svg11.dtd">
<!-- Generated by graphviz version 2.47.3 (20210619.1520)
 -->
<!-- Title: Photon.Pun.PhotonNetwork.RemoveRPCs Pages: 1 -->
<svg width="1464pt" height="174pt"
 viewBox="0.00 0.00 1464.00 173.50" xmlns="http://www.w3.org/2000/svg" xmlns:xlink="http://www.w3.org/1999/xlink">
<g id="graph0" class="graph" transform="scale(1 1) rotate(0) translate(4 169.5)">
<title>Photon.Pun.PhotonNetwork.RemoveRPCs</title>
<polygon fill="white" stroke="transparent" points="-4,4 -4,-169.5 1460,-169.5 1460,4 -4,4"/>
<!-- Node1 -->
<g id="node1" class="node">
<title>Node1</title>
<g id="a_node1"><a xlink:title="Remove all buffered RPCs from server that were sent by targetPlayer.">
<polygon fill="#bfbfbf" stroke="black" points="0,-24.5 0,-54.5 140,-54.5 140,-24.5 0,-24.5"/>
<text text-anchor="start" x="8" y="-42.5" font-family="Helvetica,sans-Serif" font-size="10.00">Photon.Pun.PhotonNetwork.</text>
<text text-anchor="middle" x="70" y="-31.5" font-family="Helvetica,sans-Serif" font-size="10.00">RemoveRPCs</text>
</a>
</g>
</g>
<!-- Node2 -->
<g id="node2" class="node">
<title>Node2</title>
<g id="a_node2"><a xlink:href="class_photon_1_1_pun_1_1_photon_network.xhtml#a92ebf88db80533a34e0dd73ffb6b1086" target="_top" xlink:title="Removes the RPCs of someone else (to be used as master).">
<polygon fill="white" stroke="black" points="176,-49.5 176,-79.5 316,-79.5 316,-49.5 176,-49.5"/>
<text text-anchor="start" x="184" y="-67.5" font-family="Helvetica,sans-Serif" font-size="10.00">Photon.Pun.PhotonNetwork.</text>
<text text-anchor="middle" x="246" y="-56.5" font-family="Helvetica,sans-Serif" font-size="10.00">OpCleanActorRpcBuffer</text>
</a>
</g>
</g>
<!-- Node1&#45;&gt;Node2 -->
<g id="edge1" class="edge">
<title>Node1&#45;&gt;Node2</title>
<path fill="none" stroke="midnightblue" d="M140.02,-49.42C148.48,-50.63 157.17,-51.88 165.76,-53.12"/>
<polygon fill="midnightblue" stroke="midnightblue" points="165.38,-56.6 175.78,-54.55 166.38,-49.67 165.38,-56.6"/>
</g>
<!-- Node12 -->
<g id="node12" class="node">
<title>Node12</title>
<g id="a_node12"><a xlink:href="class_photon_1_1_pun_1_1_photon_network.xhtml#a7de619407fd7ff3a1156e7ddc8c9d21c" target="_top" xlink:title="Helper function which is called inside this class to erify if certain functions can be used (e....">
<polygon fill="white" stroke="black" points="176,-0.5 176,-30.5 316,-30.5 316,-0.5 176,-0.5"/>
<text text-anchor="start" x="184" y="-18.5" font-family="Helvetica,sans-Serif" font-size="10.00">Photon.Pun.PhotonNetwork.</text>
<text text-anchor="middle" x="246" y="-7.5" font-family="Helvetica,sans-Serif" font-size="10.00">VerifyCanUseNetwork</text>
</a>
</g>
</g>
<!-- Node1&#45;&gt;Node12 -->
<g id="edge11" class="edge">
<title>Node1&#45;&gt;Node12</title>
<path fill="none" stroke="midnightblue" d="M140.02,-29.98C148.48,-28.81 157.17,-27.61 165.76,-26.43"/>
<polygon fill="midnightblue" stroke="midnightblue" points="166.35,-29.88 175.78,-25.05 165.4,-22.95 166.35,-29.88"/>
</g>
<!-- Node3 -->
<g id="node3" class="node">
<title>Node3</title>
<g id="a_node3"><a xlink:href="class_photon_1_1_pun_1_1_photon_network.xhtml#afbfe822d24b062457e37c533b8ff45be" target="_top" xlink:title="Sends PUN&#45;specific events to the server, unless in offlineMode.">
<polygon fill="white" stroke="black" points="352,-49.5 352,-79.5 492,-79.5 492,-49.5 352,-49.5"/>
<text text-anchor="start" x="360" y="-67.5" font-family="Helvetica,sans-Serif" font-size="10.00">Photon.Pun.PhotonNetwork.</text>
<text text-anchor="middle" x="422" y="-56.5" font-family="Helvetica,sans-Serif" font-size="10.00">RaiseEventInternal</text>
</a>
</g>
</g>
<!-- Node2&#45;&gt;Node3 -->
<g id="edge2" class="edge">
<title>Node2&#45;&gt;Node3</title>
<path fill="none" stroke="midnightblue" d="M316.02,-64.5C324.48,-64.5 333.17,-64.5 341.76,-64.5"/>
<polygon fill="midnightblue" stroke="midnightblue" points="341.78,-68 351.78,-64.5 341.78,-61 341.78,-68"/>
</g>
<!-- Node4 -->
<g id="node4" class="node">
<title>Node4</title>
<g id="a_node4"><a xlink:href="class_photon_1_1_realtime_1_1_load_balancing_client.xhtml#a620e340e8f78a51871d94d5868ffdb4c" target="_top" xlink:title="Send an event with custom code/type and any content to the other players in the same room.">
<polygon fill="white" stroke="black" points="528,-49.5 528,-79.5 683,-79.5 683,-49.5 528,-49.5"/>
<text text-anchor="start" x="536" y="-67.5" font-family="Helvetica,sans-Serif" font-size="10.00">Photon.Realtime.LoadBalancing</text>
<text text-anchor="middle" x="605.5" y="-56.5" font-family="Helvetica,sans-Serif" font-size="10.00">Client.OpRaiseEvent</text>
</a>
</g>
</g>
<!-- Node3&#45;&gt;Node4 -->
<g id="edge3" class="edge">
<title>Node3&#45;&gt;Node4</title>
<path fill="none" stroke="midnightblue" d="M492.14,-64.5C500.56,-64.5 509.25,-64.5 517.89,-64.5"/>
<polygon fill="midnightblue" stroke="midnightblue" points="517.98,-68 527.98,-64.5 517.98,-61 517.98,-68"/>
</g>
<!-- Node5 -->
<g id="node5" class="node">
<title>Node5</title>
<g id="a_node5"><a xlink:href="class_photon_1_1_realtime_1_1_load_balancing_client.xhtml#aa12ff3efc3aa91e5ceca9b3a40f7bd79" target="_top" xlink:title=" ">
<polygon fill="white" stroke="black" points="719,-74.5 719,-104.5 874,-104.5 874,-74.5 719,-74.5"/>
<text text-anchor="start" x="727" y="-92.5" font-family="Helvetica,sans-Serif" font-size="10.00">Photon.Realtime.LoadBalancing</text>
<text text-anchor="middle" x="796.5" y="-81.5" font-family="Helvetica,sans-Serif" font-size="10.00">Client.CheckIfOpCanBeSent</text>
</a>
</g>
</g>
<!-- Node4&#45;&gt;Node5 -->
<g id="edge4" class="edge">
<title>Node4&#45;&gt;Node5</title>
<path fill="none" stroke="midnightblue" d="M683.1,-74.63C691.56,-75.75 700.22,-76.9 708.79,-78.03"/>
<polygon fill="midnightblue" stroke="midnightblue" points="708.42,-81.51 718.79,-79.35 709.34,-74.57 708.42,-81.51"/>
</g>
<!-- Node11 -->
<g id="node11" class="node">
<title>Node11</title>
<g id="a_node11"><a xlink:href="class_photon_1_1_realtime_1_1_load_balancing_peer.xhtml#af6d68f09d3f683f8d709c3aa4dfe03cc" target="_top" xlink:title="Send an event with custom code/type and any content to the other players in the same room.">
<polygon fill="white" stroke="black" points="719,-25.5 719,-55.5 874,-55.5 874,-25.5 719,-25.5"/>
<text text-anchor="start" x="727" y="-43.5" font-family="Helvetica,sans-Serif" font-size="10.00">Photon.Realtime.LoadBalancing</text>
<text text-anchor="middle" x="796.5" y="-32.5" font-family="Helvetica,sans-Serif" font-size="10.00">Peer.OpRaiseEvent</text>
</a>
</g>
</g>
<!-- Node4&#45;&gt;Node11 -->
<g id="edge10" class="edge">
<title>Node4&#45;&gt;Node11</title>
<path fill="none" stroke="midnightblue" d="M683.1,-54.77C691.56,-53.7 700.22,-52.6 708.79,-51.51"/>
<polygon fill="midnightblue" stroke="midnightblue" points="709.31,-54.97 718.79,-50.24 708.43,-48.03 709.31,-54.97"/>
</g>
<!-- Node6 -->
<g id="node6" class="node">
<title>Node6</title>
<g id="a_node6"><a xlink:href="class_photon_1_1_realtime_1_1_load_balancing_client.xhtml#ae052ab450db16efdd31985d56f76f0ab" target="_top" xlink:title=" ">
<polygon fill="white" stroke="black" points="910,-124 910,-165 1074,-165 1074,-124 910,-124"/>
<text text-anchor="start" x="918" y="-153" font-family="Helvetica,sans-Serif" font-size="10.00">Photon.Realtime.LoadBalancing</text>
<text text-anchor="start" x="918" y="-142" font-family="Helvetica,sans-Serif" font-size="10.00">Client.CheckIfClientIsReadyToCall</text>
<text text-anchor="middle" x="992" y="-131" font-family="Helvetica,sans-Serif" font-size="10.00">Operation</text>
</a>
</g>
</g>
<!-- Node5&#45;&gt;Node6 -->
<g id="edge5" class="edge">
<title>Node5&#45;&gt;Node6</title>
<path fill="none" stroke="midnightblue" d="M850.37,-104.53C868.45,-109.67 889.12,-115.54 908.95,-121.18"/>
<polygon fill="midnightblue" stroke="midnightblue" points="908.03,-124.55 918.6,-123.92 909.94,-117.82 908.03,-124.55"/>
</g>
<!-- Node7 -->
<g id="node7" class="node">
<title>Node7</title>
<g id="a_node7"><a xlink:href="class_photon_1_1_realtime_1_1_load_balancing_client.xhtml#aa01a53cac6918dab3ecb99669b276f01" target="_top" xlink:title=" ">
<polygon fill="white" stroke="black" points="910.5,-74.5 910.5,-104.5 1073.5,-104.5 1073.5,-74.5 910.5,-74.5"/>
<text text-anchor="start" x="918.5" y="-92.5" font-family="Helvetica,sans-Serif" font-size="10.00">Photon.Realtime.LoadBalancing</text>
<text text-anchor="middle" x="992" y="-81.5" font-family="Helvetica,sans-Serif" font-size="10.00">Client.CheckIfOpAllowedOnServer</text>
</a>
</g>
</g>
<!-- Node5&#45;&gt;Node7 -->
<g id="edge6" class="edge">
<title>Node5&#45;&gt;Node7</title>
<path fill="none" stroke="midnightblue" d="M874.25,-89.5C882.75,-89.5 891.46,-89.5 900.1,-89.5"/>
<polygon fill="midnightblue" stroke="midnightblue" points="900.21,-93 910.21,-89.5 900.21,-86 900.21,-93"/>
</g>
<!-- Node8 -->
<g id="node8" class="node">
<title>Node8</title>
<g id="a_node8"><a xlink:href="class_photon_1_1_realtime_1_1_load_balancing_client.xhtml#a69dd43d4c7211b5b83cd54d0ebcf79e7" target="_top" xlink:title="Debug output of low level api (and this client).">
<polygon fill="white" stroke="black" points="914.5,-25.5 914.5,-55.5 1069.5,-55.5 1069.5,-25.5 914.5,-25.5"/>
<text text-anchor="start" x="922.5" y="-43.5" font-family="Helvetica,sans-Serif" font-size="10.00">Photon.Realtime.LoadBalancing</text>
<text text-anchor="middle" x="992" y="-32.5" font-family="Helvetica,sans-Serif" font-size="10.00">Client.DebugReturn</text>
</a>
</g>
</g>
<!-- Node5&#45;&gt;Node8 -->
<g id="edge7" class="edge">
<title>Node5&#45;&gt;Node8</title>
<path fill="none" stroke="midnightblue" d="M856.87,-74.47C877.4,-69.27 900.57,-63.4 921.81,-58.02"/>
<polygon fill="midnightblue" stroke="midnightblue" points="922.91,-61.35 931.74,-55.51 921.19,-54.57 922.91,-61.35"/>
</g>
<!-- Node9 -->
<g id="node9" class="node">
<title>Node9</title>
<g id="a_node9"><a xlink:href="class_photon_1_1_realtime_1_1_load_balancing_peer.xhtml#a7f48b5f0c44ef0c67ef32f147ff87246" target="_top" xlink:title="Creates a Peer with specified connection protocol.">
<polygon fill="white" stroke="black" points="1110,-25.5 1110,-55.5 1265,-55.5 1265,-25.5 1110,-25.5"/>
<text text-anchor="start" x="1118" y="-43.5" font-family="Helvetica,sans-Serif" font-size="10.00">Photon.Realtime.LoadBalancing</text>
<text text-anchor="middle" x="1187.5" y="-32.5" font-family="Helvetica,sans-Serif" font-size="10.00">Peer.LoadBalancingPeer</text>
</a>
</g>
</g>
<!-- Node8&#45;&gt;Node9 -->
<g id="edge8" class="edge">
<title>Node8&#45;&gt;Node9</title>
<path fill="none" stroke="midnightblue" d="M1069.75,-40.5C1079.54,-40.5 1089.62,-40.5 1099.55,-40.5"/>
<polygon fill="midnightblue" stroke="midnightblue" points="1099.84,-44 1109.84,-40.5 1099.84,-37 1099.84,-44"/>
</g>
<!-- Node10 -->
<g id="node10" class="node">
<title>Node10</title>
<g id="a_node10"><a xlink:href="class_photon_1_1_realtime_1_1_load_balancing_peer.xhtml#affaff7e1fdffe86b25156ffac5e738c9" target="_top" xlink:title=" ">
<polygon fill="white" stroke="black" points="1301,-25.5 1301,-55.5 1456,-55.5 1456,-25.5 1301,-25.5"/>
<text text-anchor="start" x="1309" y="-43.5" font-family="Helvetica,sans-Serif" font-size="10.00">Photon.Realtime.LoadBalancing</text>
<text text-anchor="middle" x="1378.5" y="-32.5" font-family="Helvetica,sans-Serif" font-size="10.00">Peer.ConfigUnitySockets</text>
</a>
</g>
</g>
<!-- Node9&#45;&gt;Node10 -->
<g id="edge9" class="edge">
<title>Node9&#45;&gt;Node10</title>
<path fill="none" stroke="midnightblue" d="M1265.1,-40.5C1273.56,-40.5 1282.22,-40.5 1290.79,-40.5"/>
<polygon fill="midnightblue" stroke="midnightblue" points="1290.79,-44 1300.79,-40.5 1290.79,-37 1290.79,-44"/>
</g>
</g>
</svg>
