<?xml version="1.0" encoding="UTF-8" standalone="no"?>
<!DOCTYPE svg PUBLIC "-//W3C//DTD SVG 1.1//EN"
 "http://www.w3.org/Graphics/SVG/1.1/DTD/svg11.dtd">
<!-- Generated by graphviz version 2.47.3 (20210619.1520)
 -->
<!-- Title: Photon.Pun.PhotonNetwork.GetPhotonView Pages: 1 -->
<svg width="856pt" height="116pt"
 viewBox="0.00 0.00 856.00 115.50" xmlns="http://www.w3.org/2000/svg" xmlns:xlink="http://www.w3.org/1999/xlink">
<g id="graph0" class="graph" transform="scale(1 1) rotate(0) translate(4 111.5)">
<title>Photon.Pun.PhotonNetwork.GetPhotonView</title>
<polygon fill="white" stroke="transparent" points="-4,4 -4,-111.5 852,-111.5 852,4 -4,4"/>
<!-- Node1 -->
<g id="node1" class="node">
<title>Node1</title>
<g id="a_node1"><a xlink:title=" ">
<polygon fill="#bfbfbf" stroke="black" points="708,-44.5 708,-74.5 848,-74.5 848,-44.5 708,-44.5"/>
<text text-anchor="start" x="716" y="-62.5" font-family="Helvetica,sans-Serif" font-size="10.00">Photon.Pun.PhotonNetwork.</text>
<text text-anchor="middle" x="778" y="-51.5" font-family="Helvetica,sans-Serif" font-size="10.00">GetPhotonView</text>
</a>
</g>
</g>
<!-- Node2 -->
<g id="node2" class="node">
<title>Node2</title>
<g id="a_node2"><a xlink:href="class_photon_1_1_pun_1_1_photon_view.xhtml#a5cc014c89059912581ce8727427711ef" target="_top" xlink:title="Finds the PhotonView Component with a viewID in the scene">
<polygon fill="white" stroke="black" points="528,-88 528,-107 672,-107 672,-88 528,-88"/>
<text text-anchor="middle" x="600" y="-95" font-family="Helvetica,sans-Serif" font-size="10.00">Photon.Pun.PhotonView.Find</text>
</a>
</g>
</g>
<!-- Node1&#45;&gt;Node2 -->
<g id="edge1" class="edge">
<title>Node1&#45;&gt;Node2</title>
<path fill="none" stroke="midnightblue" d="M697.92,-76.57C679.75,-80.5 661.06,-84.53 645,-88"/>
<polygon fill="midnightblue" stroke="midnightblue" points="698.91,-79.94 707.95,-74.41 697.43,-73.1 698.91,-79.94"/>
</g>
<!-- Node3 -->
<g id="node3" class="node">
<title>Node3</title>
<g id="a_node3"><a xlink:href="class_photon_1_1_pun_1_1_photon_network.xhtml#a13bebb81d3e182db408b4fb694afcd1f" target="_top" xlink:title=" ">
<polygon fill="white" stroke="black" points="352,-22.5 352,-52.5 492,-52.5 492,-22.5 352,-22.5"/>
<text text-anchor="start" x="360" y="-40.5" font-family="Helvetica,sans-Serif" font-size="10.00">Photon.Pun.PhotonNetwork.</text>
<text text-anchor="middle" x="422" y="-29.5" font-family="Helvetica,sans-Serif" font-size="10.00">OnEvent</text>
</a>
</g>
</g>
<!-- Node1&#45;&gt;Node3 -->
<g id="edge2" class="edge">
<title>Node1&#45;&gt;Node3</title>
<path fill="none" stroke="midnightblue" d="M697.82,-54.58C636.1,-50.74 551.25,-45.47 492.22,-41.8"/>
<polygon fill="midnightblue" stroke="midnightblue" points="697.71,-58.08 707.9,-55.21 698.14,-51.09 697.71,-58.08"/>
</g>
<!-- Node6 -->
<g id="node6" class="node">
<title>Node6</title>
<g id="a_node6"><a xlink:href="class_photon_1_1_pun_1_1_photon_network.xhtml#a571353d12eeae7121c7e0f16e2cfef54" target="_top" xlink:title="Reads updates created by OnSerializeWrite">
<polygon fill="white" stroke="black" points="530,-0.5 530,-30.5 670,-30.5 670,-0.5 530,-0.5"/>
<text text-anchor="start" x="538" y="-18.5" font-family="Helvetica,sans-Serif" font-size="10.00">Photon.Pun.PhotonNetwork.</text>
<text text-anchor="middle" x="600" y="-7.5" font-family="Helvetica,sans-Serif" font-size="10.00">OnSerializeRead</text>
</a>
</g>
</g>
<!-- Node1&#45;&gt;Node6 -->
<g id="edge5" class="edge">
<title>Node1&#45;&gt;Node6</title>
<path fill="none" stroke="midnightblue" d="M707.06,-42.01C691.85,-38.21 675.89,-34.22 661.1,-30.53"/>
<polygon fill="midnightblue" stroke="midnightblue" points="706.37,-45.45 716.92,-44.48 708.07,-38.66 706.37,-45.45"/>
</g>
<!-- Node4 -->
<g id="node4" class="node">
<title>Node4</title>
<g id="a_node4"><a xlink:href="class_photon_1_1_pun_1_1_photon_network.xhtml#a29461361da66594fce3a7394493f8fce" target="_top" xlink:title=" ">
<polygon fill="white" stroke="black" points="176,-22.5 176,-52.5 316,-52.5 316,-22.5 176,-22.5"/>
<text text-anchor="start" x="184" y="-40.5" font-family="Helvetica,sans-Serif" font-size="10.00">Photon.Pun.PhotonNetwork.</text>
<text text-anchor="middle" x="246" y="-29.5" font-family="Helvetica,sans-Serif" font-size="10.00">StaticReset</text>
</a>
</g>
</g>
<!-- Node3&#45;&gt;Node4 -->
<g id="edge3" class="edge">
<title>Node3&#45;&gt;Node4</title>
<path fill="none" stroke="midnightblue" d="M341.97,-37.5C333.38,-37.5 324.68,-37.5 316.22,-37.5"/>
<polygon fill="midnightblue" stroke="midnightblue" points="341.98,-41 351.98,-37.5 341.98,-34 341.98,-41"/>
</g>
<!-- Node5 -->
<g id="node5" class="node">
<title>Node5</title>
<g id="a_node5"><a xlink:href="class_photon_1_1_pun_1_1_photon_network.xhtml#a1b66941ee2aba40b56df1578da9015da" target="_top" xlink:title="Static constructor used for basic setup.">
<polygon fill="white" stroke="black" points="0,-22.5 0,-52.5 140,-52.5 140,-22.5 0,-22.5"/>
<text text-anchor="start" x="8" y="-40.5" font-family="Helvetica,sans-Serif" font-size="10.00">Photon.Pun.PhotonNetwork.</text>
<text text-anchor="middle" x="70" y="-29.5" font-family="Helvetica,sans-Serif" font-size="10.00">PhotonNetwork</text>
</a>
</g>
</g>
<!-- Node4&#45;&gt;Node5 -->
<g id="edge4" class="edge">
<title>Node4&#45;&gt;Node5</title>
<path fill="none" stroke="midnightblue" d="M165.97,-37.5C157.38,-37.5 148.68,-37.5 140.22,-37.5"/>
<polygon fill="midnightblue" stroke="midnightblue" points="165.98,-41 175.98,-37.5 165.98,-34 165.98,-41"/>
</g>
<!-- Node6&#45;&gt;Node3 -->
<g id="edge6" class="edge">
<title>Node6&#45;&gt;Node3</title>
<path fill="none" stroke="midnightblue" d="M519.95,-25.38C510.68,-26.54 501.27,-27.72 492.14,-28.86"/>
<polygon fill="midnightblue" stroke="midnightblue" points="520.46,-28.85 529.95,-24.13 519.59,-21.9 520.46,-28.85"/>
</g>
</g>
</svg>
