<?xml version="1.0" encoding="UTF-8" standalone="no"?>
<!DOCTYPE svg PUBLIC "-//W3C//DTD SVG 1.1//EN"
 "http://www.w3.org/Graphics/SVG/1.1/DTD/svg11.dtd">
<!-- Generated by graphviz version 2.47.3 (20210619.1520)
 -->
<!-- Title: Photon.Realtime.SupportLogger.OnConnected Pages: 1 -->
<svg width="745pt" height="266pt"
 viewBox="0.00 0.00 745.00 266.00" xmlns="http://www.w3.org/2000/svg" xmlns:xlink="http://www.w3.org/1999/xlink">
<g id="graph0" class="graph" transform="scale(1 1) rotate(0) translate(4 262)">
<title>Photon.Realtime.SupportLogger.OnConnected</title>
<polygon fill="white" stroke="transparent" points="-4,4 -4,-262 741,-262 741,4 -4,4"/>
<!-- Node1 -->
<g id="node1" class="node">
<title>Node1</title>
<g id="a_node1"><a xlink:title="Called to signal that the &quot;low level connection&quot; got established but before the client can call opera...">
<polygon fill="#bfbfbf" stroke="black" points="0,-134.5 0,-164.5 158,-164.5 158,-134.5 0,-134.5"/>
<text text-anchor="start" x="8" y="-152.5" font-family="Helvetica,sans-Serif" font-size="10.00">Photon.Realtime.SupportLogger.</text>
<text text-anchor="middle" x="79" y="-141.5" font-family="Helvetica,sans-Serif" font-size="10.00">OnConnected</text>
</a>
</g>
</g>
<!-- Node2 -->
<g id="node2" class="node">
<title>Node2</title>
<g id="a_node2"><a xlink:href="class_photon_1_1_realtime_1_1_support_logger.xhtml#aa9fd97374270d9c14b0fd96d56d56fc0" target="_top" xlink:title=" ">
<polygon fill="white" stroke="black" points="388,-98.5 388,-128.5 546,-128.5 546,-98.5 388,-98.5"/>
<text text-anchor="start" x="396" y="-116.5" font-family="Helvetica,sans-Serif" font-size="10.00">Photon.Realtime.SupportLogger.</text>
<text text-anchor="middle" x="467" y="-105.5" font-family="Helvetica,sans-Serif" font-size="10.00">GetFormattedTimestamp</text>
</a>
</g>
</g>
<!-- Node1&#45;&gt;Node2 -->
<g id="edge1" class="edge">
<title>Node1&#45;&gt;Node2</title>
<path fill="none" stroke="midnightblue" d="M158.14,-139.47C170.14,-138.05 182.39,-136.68 194,-135.5 255.33,-129.26 324.58,-123.68 377.86,-119.7"/>
<polygon fill="midnightblue" stroke="midnightblue" points="378.24,-123.18 387.95,-118.95 377.72,-116.2 378.24,-123.18"/>
</g>
<!-- Node3 -->
<g id="node3" class="node">
<title>Node3</title>
<g id="a_node3"><a xlink:href="class_photon_1_1_realtime_1_1_support_logger_1_1_debug.xhtml#a4aca16e5f5b089d5db20b5ad4474cce0" target="_top" xlink:title=" ">
<polygon fill="white" stroke="black" points="388,-178.5 388,-208.5 546,-208.5 546,-178.5 388,-178.5"/>
<text text-anchor="start" x="396" y="-196.5" font-family="Helvetica,sans-Serif" font-size="10.00">Photon.Realtime.SupportLogger.</text>
<text text-anchor="middle" x="467" y="-185.5" font-family="Helvetica,sans-Serif" font-size="10.00">Debug.Log</text>
</a>
</g>
</g>
<!-- Node1&#45;&gt;Node3 -->
<g id="edge2" class="edge">
<title>Node1&#45;&gt;Node3</title>
<path fill="none" stroke="midnightblue" d="M158.29,-151.94C212.81,-154.37 287.11,-159.17 352,-168.5 366.18,-170.54 381.22,-173.36 395.56,-176.37"/>
<polygon fill="midnightblue" stroke="midnightblue" points="394.85,-179.8 405.36,-178.48 396.32,-172.95 394.85,-179.8"/>
</g>
<!-- Node4 -->
<g id="node4" class="node">
<title>Node4</title>
<g id="a_node4"><a xlink:href="class_photon_1_1_realtime_1_1_support_logger.xhtml#a7a9320afb45b2c3227b7da96e956521d" target="_top" xlink:title="Debug logs basic information (AppId, AppVersion, PeerID, Server address, Region) about the attached P...">
<polygon fill="white" stroke="black" points="194,-51.5 194,-81.5 352,-81.5 352,-51.5 194,-51.5"/>
<text text-anchor="start" x="202" y="-69.5" font-family="Helvetica,sans-Serif" font-size="10.00">Photon.Realtime.SupportLogger.</text>
<text text-anchor="middle" x="273" y="-58.5" font-family="Helvetica,sans-Serif" font-size="10.00">LogBasics</text>
</a>
</g>
</g>
<!-- Node1&#45;&gt;Node4 -->
<g id="edge3" class="edge">
<title>Node1&#45;&gt;Node4</title>
<path fill="none" stroke="midnightblue" d="M112.24,-134.28C134.97,-123.67 166.19,-109.36 194,-97.5 203.45,-93.47 213.61,-89.31 223.37,-85.39"/>
<polygon fill="midnightblue" stroke="midnightblue" points="224.97,-88.53 232.96,-81.58 222.38,-82.02 224.97,-88.53"/>
</g>
<!-- Node8 -->
<g id="node8" class="node">
<title>Node8</title>
<g id="a_node8"><a xlink:href="class_photon_1_1_realtime_1_1_support_logger.xhtml#a0c1931e22e62cde2d06f34ea920ee5a1" target="_top" xlink:title=" ">
<polygon fill="white" stroke="black" points="194,-227.5 194,-257.5 352,-257.5 352,-227.5 194,-227.5"/>
<text text-anchor="start" x="202" y="-245.5" font-family="Helvetica,sans-Serif" font-size="10.00">Photon.Realtime.SupportLogger.</text>
<text text-anchor="middle" x="273" y="-234.5" font-family="Helvetica,sans-Serif" font-size="10.00">StartLogStats</text>
</a>
</g>
</g>
<!-- Node1&#45;&gt;Node8 -->
<g id="edge8" class="edge">
<title>Node1&#45;&gt;Node8</title>
<path fill="none" stroke="midnightblue" d="M101.4,-164.66C123.68,-179.9 160.01,-203.27 194,-218.5 198.3,-220.43 202.8,-222.26 207.37,-223.99"/>
<polygon fill="midnightblue" stroke="midnightblue" points="206.23,-227.29 216.82,-227.39 208.6,-220.71 206.23,-227.29"/>
</g>
<!-- Node9 -->
<g id="node9" class="node">
<title>Node9</title>
<g id="a_node9"><a xlink:href="class_photon_1_1_realtime_1_1_support_logger.xhtml#aa6c6835ffde143fba76cb289e3c7c6f9" target="_top" xlink:title=" ">
<polygon fill="white" stroke="black" points="194,-178.5 194,-208.5 352,-208.5 352,-178.5 194,-178.5"/>
<text text-anchor="start" x="202" y="-196.5" font-family="Helvetica,sans-Serif" font-size="10.00">Photon.Realtime.SupportLogger.</text>
<text text-anchor="middle" x="273" y="-185.5" font-family="Helvetica,sans-Serif" font-size="10.00">StartTrackValues</text>
</a>
</g>
</g>
<!-- Node1&#45;&gt;Node9 -->
<g id="edge10" class="edge">
<title>Node1&#45;&gt;Node9</title>
<path fill="none" stroke="midnightblue" d="M145.54,-164.52C161.98,-168.29 179.74,-172.36 196.62,-176.22"/>
<polygon fill="midnightblue" stroke="midnightblue" points="195.9,-179.65 206.43,-178.47 197.47,-172.83 195.9,-179.65"/>
</g>
<!-- Node4&#45;&gt;Node2 -->
<g id="edge4" class="edge">
<title>Node4&#45;&gt;Node2</title>
<path fill="none" stroke="midnightblue" d="M335.28,-81.5C354.24,-86.14 375.3,-91.3 394.87,-96.09"/>
<polygon fill="midnightblue" stroke="midnightblue" points="394.1,-99.5 404.65,-98.48 395.76,-92.7 394.1,-99.5"/>
</g>
<!-- Node5 -->
<g id="node5" class="node">
<title>Node5</title>
<g id="a_node5"><a xlink:href="class_photon_1_1_realtime_1_1_load_balancing_peer.xhtml#a7f48b5f0c44ef0c67ef32f147ff87246" target="_top" xlink:title="Creates a Peer with specified connection protocol.">
<polygon fill="white" stroke="black" points="389.5,-49.5 389.5,-79.5 544.5,-79.5 544.5,-49.5 389.5,-49.5"/>
<text text-anchor="start" x="397.5" y="-67.5" font-family="Helvetica,sans-Serif" font-size="10.00">Photon.Realtime.LoadBalancing</text>
<text text-anchor="middle" x="467" y="-56.5" font-family="Helvetica,sans-Serif" font-size="10.00">Peer.LoadBalancingPeer</text>
</a>
</g>
</g>
<!-- Node4&#45;&gt;Node5 -->
<g id="edge5" class="edge">
<title>Node4&#45;&gt;Node5</title>
<path fill="none" stroke="midnightblue" d="M352.09,-65.69C360.99,-65.59 370.11,-65.5 379.11,-65.41"/>
<polygon fill="midnightblue" stroke="midnightblue" points="379.26,-68.9 389.22,-65.3 379.18,-61.9 379.26,-68.9"/>
</g>
<!-- Node7 -->
<g id="node7" class="node">
<title>Node7</title>
<g id="a_node7"><a xlink:href="class_photon_1_1_realtime_1_1_support_logger_1_1_debug.xhtml#a4a72d377bb638dbbbf986e3ce6141585" target="_top" xlink:title=" ">
<polygon fill="white" stroke="black" points="388,-0.5 388,-30.5 546,-30.5 546,-0.5 388,-0.5"/>
<text text-anchor="start" x="396" y="-18.5" font-family="Helvetica,sans-Serif" font-size="10.00">Photon.Realtime.SupportLogger.</text>
<text text-anchor="middle" x="467" y="-7.5" font-family="Helvetica,sans-Serif" font-size="10.00">Debug.LogWarning</text>
</a>
</g>
</g>
<!-- Node4&#45;&gt;Node7 -->
<g id="edge7" class="edge">
<title>Node4&#45;&gt;Node7</title>
<path fill="none" stroke="midnightblue" d="M330.57,-51.47C352.25,-45.72 377.18,-39.09 399.69,-33.11"/>
<polygon fill="midnightblue" stroke="midnightblue" points="400.74,-36.46 409.5,-30.51 398.94,-29.69 400.74,-36.46"/>
</g>
<!-- Node6 -->
<g id="node6" class="node">
<title>Node6</title>
<g id="a_node6"><a xlink:href="class_photon_1_1_realtime_1_1_load_balancing_peer.xhtml#affaff7e1fdffe86b25156ffac5e738c9" target="_top" xlink:title=" ">
<polygon fill="white" stroke="black" points="582,-49.5 582,-79.5 737,-79.5 737,-49.5 582,-49.5"/>
<text text-anchor="start" x="590" y="-67.5" font-family="Helvetica,sans-Serif" font-size="10.00">Photon.Realtime.LoadBalancing</text>
<text text-anchor="middle" x="659.5" y="-56.5" font-family="Helvetica,sans-Serif" font-size="10.00">Peer.ConfigUnitySockets</text>
</a>
</g>
</g>
<!-- Node5&#45;&gt;Node6 -->
<g id="edge6" class="edge">
<title>Node5&#45;&gt;Node6</title>
<path fill="none" stroke="midnightblue" d="M544.66,-64.5C553.6,-64.5 562.77,-64.5 571.83,-64.5"/>
<polygon fill="midnightblue" stroke="midnightblue" points="572,-68 582,-64.5 572,-61 572,-68"/>
</g>
<!-- Node8&#45;&gt;Node3 -->
<g id="edge9" class="edge">
<title>Node8&#45;&gt;Node3</title>
<path fill="none" stroke="midnightblue" d="M332.91,-227.47C353.28,-222.27 376.27,-216.4 397.35,-211.02"/>
<polygon fill="midnightblue" stroke="midnightblue" points="398.38,-214.37 407.2,-208.51 396.65,-207.59 398.38,-214.37"/>
</g>
<!-- Node9&#45;&gt;Node3 -->
<g id="edge11" class="edge">
<title>Node9&#45;&gt;Node3</title>
<path fill="none" stroke="midnightblue" d="M352.09,-193.5C360.6,-193.5 369.3,-193.5 377.92,-193.5"/>
<polygon fill="midnightblue" stroke="midnightblue" points="377.98,-197 387.98,-193.5 377.98,-190 377.98,-197"/>
</g>
</g>
</svg>
