<?xml version="1.0" encoding="UTF-8" standalone="no"?>
<!DOCTYPE svg PUBLIC "-//W3C//DTD SVG 1.1//EN"
 "http://www.w3.org/Graphics/SVG/1.1/DTD/svg11.dtd">
<!-- Generated by graphviz version 2.47.3 (20210619.1520)
 -->
<!-- Title: Photon.Pun.Demo.Asteroids.AsteroidsGameManager.EndOfGame Pages: 1 -->
<svg width="1329pt" height="149pt"
 viewBox="0.00 0.00 1329.00 148.50" xmlns="http://www.w3.org/2000/svg" xmlns:xlink="http://www.w3.org/1999/xlink">
<g id="graph0" class="graph" transform="scale(1 1) rotate(0) translate(4 144.5)">
<title>Photon.Pun.Demo.Asteroids.AsteroidsGameManager.EndOfGame</title>
<polygon fill="white" stroke="transparent" points="-4,4 -4,-144.5 1325,-144.5 1325,4 -4,4"/>
<!-- Node1 -->
<g id="node1" class="node">
<title>Node1</title>
<g id="a_node1"><a xlink:title=" ">
<polygon fill="#bfbfbf" stroke="black" points="0,-73.5 0,-103.5 178,-103.5 178,-73.5 0,-73.5"/>
<text text-anchor="start" x="8" y="-91.5" font-family="Helvetica,sans-Serif" font-size="10.00">Photon.Pun.Demo.Asteroids.</text>
<text text-anchor="middle" x="89" y="-80.5" font-family="Helvetica,sans-Serif" font-size="10.00">AsteroidsGameManager.EndOfGame</text>
</a>
</g>
</g>
<!-- Node2 -->
<g id="node2" class="node">
<title>Node2</title>
<g id="a_node2"><a xlink:href="class_photon_1_1_pun_1_1_photon_network.xhtml#a6efe3af5ec21c4ed14b1d4d95eef965f" target="_top" xlink:title="Leave the current room and return to the Master Server where you can join or create rooms (see remark...">
<polygon fill="white" stroke="black" points="214,-73.5 214,-103.5 354,-103.5 354,-73.5 214,-73.5"/>
<text text-anchor="start" x="222" y="-91.5" font-family="Helvetica,sans-Serif" font-size="10.00">Photon.Pun.PhotonNetwork.</text>
<text text-anchor="middle" x="284" y="-80.5" font-family="Helvetica,sans-Serif" font-size="10.00">LeaveRoom</text>
</a>
</g>
</g>
<!-- Node1&#45;&gt;Node2 -->
<g id="edge1" class="edge">
<title>Node1&#45;&gt;Node2</title>
<path fill="none" stroke="midnightblue" d="M178.03,-88.5C186.58,-88.5 195.22,-88.5 203.68,-88.5"/>
<polygon fill="midnightblue" stroke="midnightblue" points="203.89,-92 213.89,-88.5 203.89,-85 203.89,-92"/>
</g>
<!-- Node3 -->
<g id="node3" class="node">
<title>Node3</title>
<g id="a_node3"><a xlink:href="class_photon_1_1_realtime_1_1_match_making_callbacks_container.xhtml#aa8f13b83943e6a562e9817807cee4836" target="_top" xlink:title="Called when the local user/client left a room, so the game&#39;s logic can clean up it&#39;s internal state.">
<polygon fill="white" stroke="black" points="390,-98.5 390,-128.5 548,-128.5 548,-98.5 390,-98.5"/>
<text text-anchor="start" x="398" y="-116.5" font-family="Helvetica,sans-Serif" font-size="10.00">Photon.Realtime.MatchMaking</text>
<text text-anchor="middle" x="469" y="-105.5" font-family="Helvetica,sans-Serif" font-size="10.00">CallbacksContainer.OnLeftRoom</text>
</a>
</g>
</g>
<!-- Node2&#45;&gt;Node3 -->
<g id="edge2" class="edge">
<title>Node2&#45;&gt;Node3</title>
<path fill="none" stroke="midnightblue" d="M354.18,-97.95C362.55,-99.09 371.18,-100.27 379.77,-101.45"/>
<polygon fill="midnightblue" stroke="midnightblue" points="379.44,-104.93 389.83,-102.82 380.39,-98 379.44,-104.93"/>
</g>
<!-- Node5 -->
<g id="node5" class="node">
<title>Node5</title>
<g id="a_node5"><a xlink:href="class_photon_1_1_realtime_1_1_load_balancing_client.xhtml#a14ea6cb3695cfca235d6f67298f33570" target="_top" xlink:title="Leaves the current room, optionally telling the server that the user is just becoming inactive.">
<polygon fill="white" stroke="black" points="391.5,-49.5 391.5,-79.5 546.5,-79.5 546.5,-49.5 391.5,-49.5"/>
<text text-anchor="start" x="399.5" y="-67.5" font-family="Helvetica,sans-Serif" font-size="10.00">Photon.Realtime.LoadBalancing</text>
<text text-anchor="middle" x="469" y="-56.5" font-family="Helvetica,sans-Serif" font-size="10.00">Client.OpLeaveRoom</text>
</a>
</g>
</g>
<!-- Node2&#45;&gt;Node5 -->
<g id="edge4" class="edge">
<title>Node2&#45;&gt;Node5</title>
<path fill="none" stroke="midnightblue" d="M354.18,-79.43C363.01,-78.27 372.13,-77.07 381.19,-75.89"/>
<polygon fill="midnightblue" stroke="midnightblue" points="381.91,-79.32 391.37,-74.55 381,-72.38 381.91,-79.32"/>
</g>
<!-- Node4 -->
<g id="node4" class="node">
<title>Node4</title>
<g id="a_node4"><a xlink:href="interface_photon_1_1_realtime_1_1_i_matchmaking_callbacks.xhtml#acedd813313ad6724f3935801481d8e8f" target="_top" xlink:title="Called when the local user/client left a room, so the game&#39;s logic can clean up it&#39;s internal state.">
<polygon fill="white" stroke="black" points="585.5,-98.5 585.5,-128.5 737.5,-128.5 737.5,-98.5 585.5,-98.5"/>
<text text-anchor="start" x="593.5" y="-116.5" font-family="Helvetica,sans-Serif" font-size="10.00">Photon.Realtime.IMatchmaking</text>
<text text-anchor="middle" x="661.5" y="-105.5" font-family="Helvetica,sans-Serif" font-size="10.00">Callbacks.OnLeftRoom</text>
</a>
</g>
</g>
<!-- Node3&#45;&gt;Node4 -->
<g id="edge3" class="edge">
<title>Node3&#45;&gt;Node4</title>
<path fill="none" stroke="midnightblue" d="M548.03,-113.5C556.99,-113.5 566.16,-113.5 575.21,-113.5"/>
<polygon fill="midnightblue" stroke="midnightblue" points="575.35,-117 585.35,-113.5 575.35,-110 575.35,-117"/>
</g>
<!-- Node6 -->
<g id="node6" class="node">
<title>Node6</title>
<g id="a_node6"><a xlink:href="class_photon_1_1_realtime_1_1_load_balancing_client.xhtml#aa12ff3efc3aa91e5ceca9b3a40f7bd79" target="_top" xlink:title=" ">
<polygon fill="white" stroke="black" points="584,-49.5 584,-79.5 739,-79.5 739,-49.5 584,-49.5"/>
<text text-anchor="start" x="592" y="-67.5" font-family="Helvetica,sans-Serif" font-size="10.00">Photon.Realtime.LoadBalancing</text>
<text text-anchor="middle" x="661.5" y="-56.5" font-family="Helvetica,sans-Serif" font-size="10.00">Client.CheckIfOpCanBeSent</text>
</a>
</g>
</g>
<!-- Node5&#45;&gt;Node6 -->
<g id="edge5" class="edge">
<title>Node5&#45;&gt;Node6</title>
<path fill="none" stroke="midnightblue" d="M546.66,-64.5C555.6,-64.5 564.77,-64.5 573.83,-64.5"/>
<polygon fill="midnightblue" stroke="midnightblue" points="574,-68 584,-64.5 574,-61 574,-68"/>
</g>
<!-- Node12 -->
<g id="node12" class="node">
<title>Node12</title>
<g id="a_node12"><a xlink:href="class_photon_1_1_realtime_1_1_load_balancing_peer.xhtml#a74f970c5eeaef7851411f0b5011bd693" target="_top" xlink:title="Leaves a room with option to come back later or &quot;for good&quot;.">
<polygon fill="white" stroke="black" points="584,-0.5 584,-30.5 739,-30.5 739,-0.5 584,-0.5"/>
<text text-anchor="start" x="592" y="-18.5" font-family="Helvetica,sans-Serif" font-size="10.00">Photon.Realtime.LoadBalancing</text>
<text text-anchor="middle" x="661.5" y="-7.5" font-family="Helvetica,sans-Serif" font-size="10.00">Peer.OpLeaveRoom</text>
</a>
</g>
</g>
<!-- Node5&#45;&gt;Node12 -->
<g id="edge11" class="edge">
<title>Node5&#45;&gt;Node12</title>
<path fill="none" stroke="midnightblue" d="M528.45,-49.47C548.66,-44.27 571.47,-38.4 592.39,-33.02"/>
<polygon fill="midnightblue" stroke="midnightblue" points="593.35,-36.39 602.16,-30.51 591.6,-29.61 593.35,-36.39"/>
</g>
<!-- Node7 -->
<g id="node7" class="node">
<title>Node7</title>
<g id="a_node7"><a xlink:href="class_photon_1_1_realtime_1_1_load_balancing_client.xhtml#ae052ab450db16efdd31985d56f76f0ab" target="_top" xlink:title=" ">
<polygon fill="white" stroke="black" points="775,-99 775,-140 939,-140 939,-99 775,-99"/>
<text text-anchor="start" x="783" y="-128" font-family="Helvetica,sans-Serif" font-size="10.00">Photon.Realtime.LoadBalancing</text>
<text text-anchor="start" x="783" y="-117" font-family="Helvetica,sans-Serif" font-size="10.00">Client.CheckIfClientIsReadyToCall</text>
<text text-anchor="middle" x="857" y="-106" font-family="Helvetica,sans-Serif" font-size="10.00">Operation</text>
</a>
</g>
</g>
<!-- Node6&#45;&gt;Node7 -->
<g id="edge6" class="edge">
<title>Node6&#45;&gt;Node7</title>
<path fill="none" stroke="midnightblue" d="M715.37,-79.53C733.45,-84.67 754.12,-90.54 773.95,-96.18"/>
<polygon fill="midnightblue" stroke="midnightblue" points="773.03,-99.55 783.6,-98.92 774.94,-92.82 773.03,-99.55"/>
</g>
<!-- Node8 -->
<g id="node8" class="node">
<title>Node8</title>
<g id="a_node8"><a xlink:href="class_photon_1_1_realtime_1_1_load_balancing_client.xhtml#aa01a53cac6918dab3ecb99669b276f01" target="_top" xlink:title=" ">
<polygon fill="white" stroke="black" points="775.5,-49.5 775.5,-79.5 938.5,-79.5 938.5,-49.5 775.5,-49.5"/>
<text text-anchor="start" x="783.5" y="-67.5" font-family="Helvetica,sans-Serif" font-size="10.00">Photon.Realtime.LoadBalancing</text>
<text text-anchor="middle" x="857" y="-56.5" font-family="Helvetica,sans-Serif" font-size="10.00">Client.CheckIfOpAllowedOnServer</text>
</a>
</g>
</g>
<!-- Node6&#45;&gt;Node8 -->
<g id="edge7" class="edge">
<title>Node6&#45;&gt;Node8</title>
<path fill="none" stroke="midnightblue" d="M739.25,-64.5C747.75,-64.5 756.46,-64.5 765.1,-64.5"/>
<polygon fill="midnightblue" stroke="midnightblue" points="765.21,-68 775.21,-64.5 765.21,-61 765.21,-68"/>
</g>
<!-- Node9 -->
<g id="node9" class="node">
<title>Node9</title>
<g id="a_node9"><a xlink:href="class_photon_1_1_realtime_1_1_load_balancing_client.xhtml#a69dd43d4c7211b5b83cd54d0ebcf79e7" target="_top" xlink:title="Debug output of low level api (and this client).">
<polygon fill="white" stroke="black" points="779.5,-0.5 779.5,-30.5 934.5,-30.5 934.5,-0.5 779.5,-0.5"/>
<text text-anchor="start" x="787.5" y="-18.5" font-family="Helvetica,sans-Serif" font-size="10.00">Photon.Realtime.LoadBalancing</text>
<text text-anchor="middle" x="857" y="-7.5" font-family="Helvetica,sans-Serif" font-size="10.00">Client.DebugReturn</text>
</a>
</g>
</g>
<!-- Node6&#45;&gt;Node9 -->
<g id="edge8" class="edge">
<title>Node6&#45;&gt;Node9</title>
<path fill="none" stroke="midnightblue" d="M721.87,-49.47C742.4,-44.27 765.57,-38.4 786.81,-33.02"/>
<polygon fill="midnightblue" stroke="midnightblue" points="787.91,-36.35 796.74,-30.51 786.19,-29.57 787.91,-36.35"/>
</g>
<!-- Node10 -->
<g id="node10" class="node">
<title>Node10</title>
<g id="a_node10"><a xlink:href="class_photon_1_1_realtime_1_1_load_balancing_peer.xhtml#a7f48b5f0c44ef0c67ef32f147ff87246" target="_top" xlink:title="Creates a Peer with specified connection protocol.">
<polygon fill="white" stroke="black" points="975,-0.5 975,-30.5 1130,-30.5 1130,-0.5 975,-0.5"/>
<text text-anchor="start" x="983" y="-18.5" font-family="Helvetica,sans-Serif" font-size="10.00">Photon.Realtime.LoadBalancing</text>
<text text-anchor="middle" x="1052.5" y="-7.5" font-family="Helvetica,sans-Serif" font-size="10.00">Peer.LoadBalancingPeer</text>
</a>
</g>
</g>
<!-- Node9&#45;&gt;Node10 -->
<g id="edge9" class="edge">
<title>Node9&#45;&gt;Node10</title>
<path fill="none" stroke="midnightblue" d="M934.75,-15.5C944.54,-15.5 954.62,-15.5 964.55,-15.5"/>
<polygon fill="midnightblue" stroke="midnightblue" points="964.84,-19 974.84,-15.5 964.84,-12 964.84,-19"/>
</g>
<!-- Node11 -->
<g id="node11" class="node">
<title>Node11</title>
<g id="a_node11"><a xlink:href="class_photon_1_1_realtime_1_1_load_balancing_peer.xhtml#affaff7e1fdffe86b25156ffac5e738c9" target="_top" xlink:title=" ">
<polygon fill="white" stroke="black" points="1166,-0.5 1166,-30.5 1321,-30.5 1321,-0.5 1166,-0.5"/>
<text text-anchor="start" x="1174" y="-18.5" font-family="Helvetica,sans-Serif" font-size="10.00">Photon.Realtime.LoadBalancing</text>
<text text-anchor="middle" x="1243.5" y="-7.5" font-family="Helvetica,sans-Serif" font-size="10.00">Peer.ConfigUnitySockets</text>
</a>
</g>
</g>
<!-- Node10&#45;&gt;Node11 -->
<g id="edge10" class="edge">
<title>Node10&#45;&gt;Node11</title>
<path fill="none" stroke="midnightblue" d="M1130.1,-15.5C1138.56,-15.5 1147.22,-15.5 1155.79,-15.5"/>
<polygon fill="midnightblue" stroke="midnightblue" points="1155.79,-19 1165.79,-15.5 1155.79,-12 1155.79,-19"/>
</g>
</g>
</svg>
