<?xml version="1.0" encoding="UTF-8" standalone="no"?>
<!DOCTYPE svg PUBLIC "-//W3C//DTD SVG 1.1//EN"
 "http://www.w3.org/Graphics/SVG/1.1/DTD/svg11.dtd">
<!-- Generated by graphviz version 2.47.3 (20210619.1520)
 -->
<!-- Title: PunStartup.PunStartup Pages: 1 -->
<svg width="627pt" height="78pt"
 viewBox="0.00 0.00 627.00 77.50" xmlns="http://www.w3.org/2000/svg" xmlns:xlink="http://www.w3.org/1999/xlink">
<g id="graph0" class="graph" transform="scale(1 1) rotate(0) translate(4 73.5)">
<title>PunStartup.PunStartup</title>
<polygon fill="white" stroke="transparent" points="-4,4 -4,-73.5 623,-73.5 623,4 -4,4"/>
<!-- Node1 -->
<g id="node1" class="node">
<title>Node1</title>
<g id="a_node1"><a xlink:title=" ">
<polygon fill="#bfbfbf" stroke="black" points="0,-28 0,-47 117,-47 117,-28 0,-28"/>
<text text-anchor="middle" x="58.5" y="-35" font-family="Helvetica,sans-Serif" font-size="10.00">PunStartup.PunStartup</text>
</a>
</g>
</g>
<!-- Node2 -->
<g id="node2" class="node">
<title>Node2</title>
<g id="a_node2"><a xlink:href="class_pun_startup.xhtml#a0e8ad86daded478ee21810ed830e2e9e" target="_top" xlink:title=" ">
<polygon fill="white" stroke="black" points="153,-28 153,-47 265,-47 265,-28 153,-28"/>
<text text-anchor="middle" x="209" y="-35" font-family="Helvetica,sans-Serif" font-size="10.00">PunStartup.OnUpdate</text>
</a>
</g>
</g>
<!-- Node1&#45;&gt;Node2 -->
<g id="edge1" class="edge">
<title>Node1&#45;&gt;Node2</title>
<path fill="none" stroke="midnightblue" d="M117.34,-37.5C125.68,-37.5 134.3,-37.5 142.77,-37.5"/>
<polygon fill="midnightblue" stroke="midnightblue" points="142.99,-41 152.99,-37.5 142.99,-34 142.99,-41"/>
</g>
<!-- Node3 -->
<g id="node3" class="node">
<title>Node3</title>
<g id="a_node3"><a xlink:href="class_pun_startup.xhtml#aeb6f03ee929aaee7306973dbe8c87027" target="_top" xlink:title=" ">
<polygon fill="white" stroke="black" points="301,-50 301,-69 450,-69 450,-50 301,-50"/>
<text text-anchor="middle" x="375.5" y="-57" font-family="Helvetica,sans-Serif" font-size="10.00">PunStartup.LoadPunDemoHub</text>
</a>
</g>
</g>
<!-- Node2&#45;&gt;Node3 -->
<g id="edge2" class="edge">
<title>Node2&#45;&gt;Node3</title>
<path fill="none" stroke="midnightblue" d="M265.23,-44.89C274.31,-46.1 283.88,-47.38 293.42,-48.66"/>
<polygon fill="midnightblue" stroke="midnightblue" points="292.97,-52.13 303.34,-49.98 293.9,-45.19 292.97,-52.13"/>
</g>
<!-- Node5 -->
<g id="node5" class="node">
<title>Node5</title>
<g id="a_node5"><a xlink:href="class_pun_startup.xhtml#a3d101e19ce41fd17486cfd3bd74ff65c" target="_top" xlink:title="Finds scenes in &quot;Assets/Photon Unity Networking/Demos/&quot;, excludes those in folder &quot;PUNGuide_M2H&quot; and ...">
<polygon fill="white" stroke="black" points="301.5,-0.5 301.5,-30.5 449.5,-30.5 449.5,-0.5 301.5,-0.5"/>
<text text-anchor="start" x="309.5" y="-18.5" font-family="Helvetica,sans-Serif" font-size="10.00">PunStartup.SetPunDemoBuild</text>
<text text-anchor="middle" x="375.5" y="-7.5" font-family="Helvetica,sans-Serif" font-size="10.00">Settings</text>
</a>
</g>
</g>
<!-- Node2&#45;&gt;Node5 -->
<g id="edge4" class="edge">
<title>Node2&#45;&gt;Node5</title>
<path fill="none" stroke="midnightblue" d="M265.23,-30.11C273.64,-28.99 282.48,-27.81 291.32,-26.62"/>
<polygon fill="midnightblue" stroke="midnightblue" points="291.85,-30.08 301.3,-25.29 290.92,-23.15 291.85,-30.08"/>
</g>
<!-- Node4 -->
<g id="node4" class="node">
<title>Node4</title>
<g id="a_node4"><a xlink:href="class_pun_startup.xhtml#a76c2bc0eefa7ba641adf538a91768543" target="_top" xlink:title="Finds the asset path base on its name or search query: https://docs.unity3d.com/ScriptReference/Asset...">
<polygon fill="white" stroke="black" points="486,-50 486,-69 619,-69 619,-50 486,-50"/>
<text text-anchor="middle" x="552.5" y="-57" font-family="Helvetica,sans-Serif" font-size="10.00">PunStartup.FindAssetPath</text>
</a>
</g>
</g>
<!-- Node3&#45;&gt;Node4 -->
<g id="edge3" class="edge">
<title>Node3&#45;&gt;Node4</title>
<path fill="none" stroke="midnightblue" d="M450.21,-59.5C458.64,-59.5 467.25,-59.5 475.71,-59.5"/>
<polygon fill="midnightblue" stroke="midnightblue" points="475.94,-63 485.94,-59.5 475.94,-56 475.94,-63"/>
</g>
</g>
</svg>
