<?xml version="1.0" encoding="UTF-8" standalone="no"?>
<!DOCTYPE svg PUBLIC "-//W3C//DTD SVG 1.1//EN"
 "http://www.w3.org/Graphics/SVG/1.1/DTD/svg11.dtd">
<!-- Generated by graphviz version 2.47.3 (20210619.1520)
 -->
<!-- Title: Photon.Chat.ChatClient Pages: 1 -->
<svg width="418pt" height="152pt"
 viewBox="0.00 0.00 418.00 152.00" xmlns="http://www.w3.org/2000/svg" xmlns:xlink="http://www.w3.org/1999/xlink">
<g id="graph0" class="graph" transform="scale(1 1) rotate(0) translate(4 148)">
<title>Photon.Chat.ChatClient</title>
<polygon fill="white" stroke="transparent" points="-4,4 -4,-148 414,-148 414,4 -4,4"/>
<!-- Node1 -->
<g id="node1" class="node">
<title>Node1</title>
<g id="a_node1"><a xlink:title="Central class of the Photon Chat API to connect, handle channels and messages.">
<polygon fill="#bfbfbf" stroke="black" points="140.5,-0.5 140.5,-19.5 259.5,-19.5 259.5,-0.5 140.5,-0.5"/>
<text text-anchor="middle" x="200" y="-7.5" font-family="Helvetica,sans-Serif" font-size="10.00">Photon.Chat.ChatClient</text>
</a>
</g>
</g>
<!-- Node2 -->
<g id="node2" class="node">
<title>Node2</title>
<g id="a_node2"><a xlink:title=" ">
<polygon fill="white" stroke="#bfbfbf" points="0,-67.5 0,-86.5 104,-86.5 104,-67.5 0,-67.5"/>
<text text-anchor="middle" x="52" y="-74.5" font-family="Helvetica,sans-Serif" font-size="10.00">IPhotonPeerListener</text>
</a>
</g>
</g>
<!-- Node2&#45;&gt;Node1 -->
<g id="edge1" class="edge">
<title>Node2&#45;&gt;Node1</title>
<path fill="none" stroke="midnightblue" d="M80.96,-63.28C110.27,-50.41 154.79,-30.85 180.27,-19.67"/>
<polygon fill="midnightblue" stroke="midnightblue" points="79.4,-60.14 71.65,-67.37 82.22,-66.55 79.4,-60.14"/>
</g>
<!-- Node3 -->
<g id="node3" class="node">
<title>Node3</title>
<g id="a_node3"><a xlink:href="interface_photon_1_1_chat_1_1_i_chat_client_listener.xhtml" target="_top" xlink:title="Callback interface for Chat client side.">
<polygon fill="white" stroke="black" points="122.5,-67.5 122.5,-86.5 277.5,-86.5 277.5,-67.5 122.5,-67.5"/>
<text text-anchor="middle" x="200" y="-74.5" font-family="Helvetica,sans-Serif" font-size="10.00">Photon.Chat.IChatClientListener</text>
</a>
</g>
</g>
<!-- Node3&#45;&gt;Node1 -->
<g id="edge2" class="edge">
<title>Node3&#45;&gt;Node1</title>
<path fill="none" stroke="#9a32cd" stroke-dasharray="5,2" d="M200,-57.04C200,-44.67 200,-29.12 200,-19.63"/>
<polygon fill="#9a32cd" stroke="#9a32cd" points="196.5,-57.23 200,-67.23 203.5,-57.23 196.5,-57.23"/>
<text text-anchor="middle" x="217.5" y="-41" font-family="Helvetica,sans-Serif" font-size="10.00"> listener</text>
</g>
<!-- Node4 -->
<g id="node4" class="node">
<title>Node4</title>
<g id="a_node4"><a xlink:href="class_photon_1_1_chat_1_1_chat_peer.xhtml" target="_top" xlink:title="Provides basic operations of the Photon Chat server.">
<polygon fill="white" stroke="black" points="296,-67.5 296,-86.5 410,-86.5 410,-67.5 296,-67.5"/>
<text text-anchor="middle" x="353" y="-74.5" font-family="Helvetica,sans-Serif" font-size="10.00">Photon.Chat.ChatPeer</text>
</a>
</g>
</g>
<!-- Node4&#45;&gt;Node1 -->
<g id="edge3" class="edge">
<title>Node4&#45;&gt;Node1</title>
<path fill="none" stroke="#9a32cd" stroke-dasharray="5,2" d="M323.46,-63.45C293.16,-50.58 246.85,-30.9 220.4,-19.67"/>
<polygon fill="#9a32cd" stroke="#9a32cd" points="322.11,-66.68 332.68,-67.37 324.85,-60.24 322.11,-66.68"/>
<text text-anchor="middle" x="306.5" y="-41" font-family="Helvetica,sans-Serif" font-size="10.00"> chatPeer</text>
</g>
<!-- Node5 -->
<g id="node5" class="node">
<title>Node5</title>
<g id="a_node5"><a xlink:title=" ">
<polygon fill="white" stroke="#bfbfbf" points="319,-124.5 319,-143.5 387,-143.5 387,-124.5 319,-124.5"/>
<text text-anchor="middle" x="353" y="-131.5" font-family="Helvetica,sans-Serif" font-size="10.00">PhotonPeer</text>
</a>
</g>
</g>
<!-- Node5&#45;&gt;Node4 -->
<g id="edge4" class="edge">
<title>Node5&#45;&gt;Node4</title>
<path fill="none" stroke="midnightblue" d="M353,-114.12C353,-104.82 353,-94.06 353,-86.71"/>
<polygon fill="midnightblue" stroke="midnightblue" points="349.5,-114.41 353,-124.41 356.5,-114.41 349.5,-114.41"/>
</g>
</g>
</svg>
