<?xml version="1.0" encoding="UTF-8" standalone="no"?>
<!DOCTYPE svg PUBLIC "-//W3C//DTD SVG 1.1//EN"
 "http://www.w3.org/Graphics/SVG/1.1/DTD/svg11.dtd">
<!-- Generated by graphviz version 2.47.3 (20210619.1520)
 -->
<!-- Title: Tayx.Graphy.Fps.G_FpsManager.SetState Pages: 1 -->
<svg width="1134pt" height="363pt"
 viewBox="0.00 0.00 1134.00 363.44" xmlns="http://www.w3.org/2000/svg" xmlns:xlink="http://www.w3.org/1999/xlink">
<g id="graph0" class="graph" transform="scale(1 1) rotate(0) translate(4 359.44)">
<title>Tayx.Graphy.Fps.G_FpsManager.SetState</title>
<polygon fill="white" stroke="transparent" points="-4,4 -4,-359.44 1130,-359.44 1130,4 -4,4"/>
<!-- Node1 -->
<g id="node1" class="node">
<title>Node1</title>
<g id="a_node1"><a xlink:title="Set the module state.">
<polygon fill="#bfbfbf" stroke="black" points="962,-189.5 962,-219.5 1126,-219.5 1126,-189.5 962,-189.5"/>
<text text-anchor="start" x="970" y="-207.5" font-family="Helvetica,sans-Serif" font-size="10.00">Tayx.Graphy.Fps.G_FpsManager.</text>
<text text-anchor="middle" x="1044" y="-196.5" font-family="Helvetica,sans-Serif" font-size="10.00">SetState</text>
</a>
</g>
</g>
<!-- Node2 -->
<g id="node2" class="node">
<title>Node2</title>
<g id="a_node2"><a xlink:href="class_tayx_1_1_graphy_1_1_graphy_manager.xhtml#a57460bb66e12e12b4995152b661d6589" target="_top" xlink:title=" ">
<polygon fill="white" stroke="black" points="570.5,-282.5 570.5,-312.5 717.5,-312.5 717.5,-282.5 570.5,-282.5"/>
<text text-anchor="start" x="578.5" y="-300.5" font-family="Helvetica,sans-Serif" font-size="10.00">Tayx.Graphy.GraphyManager.</text>
<text text-anchor="middle" x="644" y="-289.5" font-family="Helvetica,sans-Serif" font-size="10.00">Disable</text>
</a>
</g>
</g>
<!-- Node1&#45;&gt;Node2 -->
<g id="edge1" class="edge">
<title>Node1&#45;&gt;Node2</title>
<path fill="none" stroke="midnightblue" d="M1017.39,-226.04C994.89,-243.59 960.44,-267.25 926,-278.5 857.79,-300.78 775.44,-303.76 717.58,-302.25"/>
<polygon fill="midnightblue" stroke="midnightblue" points="1019.77,-228.62 1025.41,-219.65 1015.41,-223.14 1019.77,-228.62"/>
</g>
<!-- Node6 -->
<g id="node6" class="node">
<title>Node6</title>
<g id="a_node6"><a xlink:href="class_tayx_1_1_graphy_1_1_graphy_manager.xhtml#a0b4d55c65e436a19150af93e701f82b0" target="_top" xlink:title=" ">
<polygon fill="white" stroke="black" points="183,-297 183,-316 343,-316 343,-297 183,-297"/>
<text text-anchor="middle" x="263" y="-304" font-family="Helvetica,sans-Serif" font-size="10.00">Tayx.Graphy.GraphyManager.Init</text>
</a>
</g>
</g>
<!-- Node1&#45;&gt;Node6 -->
<g id="edge7" class="edge">
<title>Node1&#45;&gt;Node6</title>
<path fill="none" stroke="midnightblue" d="M1023.65,-227.63C1002.39,-251.22 965.93,-286.69 926,-303.5 705.67,-396.26 406.35,-340.27 301.86,-316.01"/>
<polygon fill="midnightblue" stroke="midnightblue" points="1026.53,-229.64 1030.51,-219.82 1021.28,-225.02 1026.53,-229.64"/>
</g>
<!-- Node8 -->
<g id="node8" class="node">
<title>Node8</title>
<g id="a_node8"><a xlink:href="class_tayx_1_1_graphy_1_1_fps_1_1_g___fps_manager.xhtml#a461269771908583d11533804e81130ad" target="_top" xlink:title=" ">
<polygon fill="white" stroke="black" points="762,-189.5 762,-219.5 926,-219.5 926,-189.5 762,-189.5"/>
<text text-anchor="start" x="770" y="-207.5" font-family="Helvetica,sans-Serif" font-size="10.00">Tayx.Graphy.Fps.G_FpsManager.</text>
<text text-anchor="middle" x="844" y="-196.5" font-family="Helvetica,sans-Serif" font-size="10.00">RefreshParameters</text>
</a>
</g>
</g>
<!-- Node1&#45;&gt;Node8 -->
<g id="edge8" class="edge">
<title>Node1&#45;&gt;Node8</title>
<path fill="none" stroke="midnightblue" d="M951.64,-204.5C943.18,-204.5 934.65,-204.5 926.3,-204.5"/>
<polygon fill="midnightblue" stroke="midnightblue" points="951.89,-208 961.89,-204.5 951.89,-201 951.89,-208"/>
</g>
<!-- Node11 -->
<g id="node11" class="node">
<title>Node11</title>
<g id="a_node11"><a xlink:href="class_tayx_1_1_graphy_1_1_fps_1_1_g___fps_manager.xhtml#a3f7ddb7a747d2cb93931aae0779f0b7f" target="_top" xlink:title=" ">
<polygon fill="white" stroke="black" points="762,-238.5 762,-268.5 926,-268.5 926,-238.5 762,-238.5"/>
<text text-anchor="start" x="770" y="-256.5" font-family="Helvetica,sans-Serif" font-size="10.00">Tayx.Graphy.Fps.G_FpsManager.</text>
<text text-anchor="middle" x="844" y="-245.5" font-family="Helvetica,sans-Serif" font-size="10.00">RestorePreviousState</text>
</a>
</g>
</g>
<!-- Node1&#45;&gt;Node11 -->
<g id="edge11" class="edge">
<title>Node1&#45;&gt;Node11</title>
<path fill="none" stroke="midnightblue" d="M972.38,-221.98C950.56,-227.38 926.72,-233.28 905.64,-238.49"/>
<polygon fill="midnightblue" stroke="midnightblue" points="973.38,-225.33 982.25,-219.53 971.7,-218.54 973.38,-225.33"/>
</g>
<!-- Node13 -->
<g id="node13" class="node">
<title>Node13</title>
<g id="a_node13"><a xlink:href="class_tayx_1_1_graphy_1_1_graphy_manager.xhtml#a9e5ef5aba3c5ed6f9e07e8e1ee02516a" target="_top" xlink:title=" ">
<polygon fill="white" stroke="black" points="770.5,-140.5 770.5,-170.5 917.5,-170.5 917.5,-140.5 770.5,-140.5"/>
<text text-anchor="start" x="778.5" y="-158.5" font-family="Helvetica,sans-Serif" font-size="10.00">Tayx.Graphy.GraphyManager.</text>
<text text-anchor="middle" x="844" y="-147.5" font-family="Helvetica,sans-Serif" font-size="10.00">SetModuleMode</text>
</a>
</g>
</g>
<!-- Node1&#45;&gt;Node13 -->
<g id="edge14" class="edge">
<title>Node1&#45;&gt;Node13</title>
<path fill="none" stroke="midnightblue" d="M972.38,-187.02C950.56,-181.62 926.72,-175.72 905.64,-170.51"/>
<polygon fill="midnightblue" stroke="midnightblue" points="971.7,-190.46 982.25,-189.47 973.38,-183.67 971.7,-190.46"/>
</g>
<!-- Node14 -->
<g id="node14" class="node">
<title>Node14</title>
<g id="a_node14"><a xlink:href="class_tayx_1_1_graphy_1_1_graphy_manager.xhtml#ac2c39047257c8b8785f075d82003b39b" target="_top" xlink:title=" ">
<polygon fill="white" stroke="black" points="770.5,-91.5 770.5,-121.5 917.5,-121.5 917.5,-91.5 770.5,-91.5"/>
<text text-anchor="start" x="778.5" y="-109.5" font-family="Helvetica,sans-Serif" font-size="10.00">Tayx.Graphy.GraphyManager.</text>
<text text-anchor="middle" x="844" y="-98.5" font-family="Helvetica,sans-Serif" font-size="10.00">SetPreset</text>
</a>
</g>
</g>
<!-- Node1&#45;&gt;Node14 -->
<g id="edge15" class="edge">
<title>Node1&#45;&gt;Node14</title>
<path fill="none" stroke="midnightblue" d="M1014.6,-183.39C991.66,-167.12 958.02,-145.03 926,-130.5 918.79,-127.23 911.01,-124.27 903.24,-121.63"/>
<polygon fill="midnightblue" stroke="midnightblue" points="1012.68,-186.32 1022.85,-189.31 1016.77,-180.63 1012.68,-186.32"/>
</g>
<!-- Node16 -->
<g id="node16" class="node">
<title>Node16</title>
<g id="a_node16"><a xlink:href="class_tayx_1_1_graphy_1_1_fps_1_1_g___fps_manager.xhtml#ac39d6d1210b18ccd3efbee72c464b19a" target="_top" xlink:title=" ">
<polygon fill="white" stroke="black" points="762,-42.5 762,-72.5 926,-72.5 926,-42.5 762,-42.5"/>
<text text-anchor="start" x="770" y="-60.5" font-family="Helvetica,sans-Serif" font-size="10.00">Tayx.Graphy.Fps.G_FpsManager.</text>
<text text-anchor="middle" x="844" y="-49.5" font-family="Helvetica,sans-Serif" font-size="10.00">UpdateParameters</text>
</a>
</g>
</g>
<!-- Node1&#45;&gt;Node16 -->
<g id="edge18" class="edge">
<title>Node1&#45;&gt;Node16</title>
<path fill="none" stroke="midnightblue" d="M1026.6,-180.86C1006.15,-153.12 968.64,-107.6 926,-81.5 920.37,-78.05 914.22,-75.08 907.9,-72.51"/>
<polygon fill="midnightblue" stroke="midnightblue" points="1023.93,-183.14 1032.62,-189.2 1029.6,-179.04 1023.93,-183.14"/>
</g>
<!-- Node3 -->
<g id="node3" class="node">
<title>Node3</title>
<g id="a_node3"><a xlink:href="class_tayx_1_1_graphy_1_1_graphy_manager.xhtml#ab748381e2def67b4fd5df7413ffa7d04" target="_top" xlink:title=" ">
<polygon fill="white" stroke="black" points="379,-257.5 379,-287.5 526,-287.5 526,-257.5 379,-257.5"/>
<text text-anchor="start" x="387" y="-275.5" font-family="Helvetica,sans-Serif" font-size="10.00">Tayx.Graphy.GraphyManager.</text>
<text text-anchor="middle" x="452.5" y="-264.5" font-family="Helvetica,sans-Serif" font-size="10.00">ToggleActive</text>
</a>
</g>
</g>
<!-- Node2&#45;&gt;Node3 -->
<g id="edge2" class="edge">
<title>Node2&#45;&gt;Node3</title>
<path fill="none" stroke="midnightblue" d="M560.32,-286.59C548.9,-285.09 537.25,-283.55 526.03,-282.07"/>
<polygon fill="midnightblue" stroke="midnightblue" points="559.9,-290.07 570.28,-287.91 560.82,-283.13 559.9,-290.07"/>
</g>
<!-- Node4 -->
<g id="node4" class="node">
<title>Node4</title>
<g id="a_node4"><a xlink:href="class_tayx_1_1_graphy_1_1_graphy_manager.xhtml#a6b62659ff2351c37037522cc8def6072" target="_top" xlink:title=" ">
<polygon fill="white" stroke="black" points="189.5,-218.5 189.5,-248.5 336.5,-248.5 336.5,-218.5 189.5,-218.5"/>
<text text-anchor="start" x="197.5" y="-236.5" font-family="Helvetica,sans-Serif" font-size="10.00">Tayx.Graphy.GraphyManager.</text>
<text text-anchor="middle" x="263" y="-225.5" font-family="Helvetica,sans-Serif" font-size="10.00">CheckForHotkeyPresses</text>
</a>
</g>
</g>
<!-- Node3&#45;&gt;Node4 -->
<g id="edge3" class="edge">
<title>Node3&#45;&gt;Node4</title>
<path fill="none" stroke="midnightblue" d="M369.24,-255.39C358.23,-253.1 347.01,-250.77 336.19,-248.51"/>
<polygon fill="midnightblue" stroke="midnightblue" points="368.77,-258.87 379.28,-257.48 370.2,-252.01 368.77,-258.87"/>
</g>
<!-- Node3&#45;&gt;Node6 -->
<g id="edge5" class="edge">
<title>Node3&#45;&gt;Node6</title>
<path fill="none" stroke="midnightblue" d="M368.46,-287.56C350.86,-290.75 332.76,-294.03 316.67,-296.95"/>
<polygon fill="midnightblue" stroke="midnightblue" points="369.52,-290.92 378.74,-285.69 368.28,-284.03 369.52,-290.92"/>
</g>
<!-- Node5 -->
<g id="node5" class="node">
<title>Node5</title>
<g id="a_node5"><a xlink:href="class_tayx_1_1_graphy_1_1_graphy_manager.xhtml#a6a41caec3369fb8e46190484bce5c56a" target="_top" xlink:title=" ">
<polygon fill="white" stroke="black" points="0,-218.5 0,-248.5 147,-248.5 147,-218.5 0,-218.5"/>
<text text-anchor="start" x="8" y="-236.5" font-family="Helvetica,sans-Serif" font-size="10.00">Tayx.Graphy.GraphyManager.</text>
<text text-anchor="middle" x="73.5" y="-225.5" font-family="Helvetica,sans-Serif" font-size="10.00">Update</text>
</a>
</g>
</g>
<!-- Node4&#45;&gt;Node5 -->
<g id="edge4" class="edge">
<title>Node4&#45;&gt;Node5</title>
<path fill="none" stroke="midnightblue" d="M179.12,-233.5C168.49,-233.5 157.67,-233.5 147.22,-233.5"/>
<polygon fill="midnightblue" stroke="midnightblue" points="179.24,-237 189.24,-233.5 179.24,-230 179.24,-237"/>
</g>
<!-- Node7 -->
<g id="node7" class="node">
<title>Node7</title>
<g id="a_node7"><a xlink:href="class_tayx_1_1_graphy_1_1_graphy_manager.xhtml#a6a186120c515fe48b10b2cf95caac917" target="_top" xlink:title=" ">
<polygon fill="white" stroke="black" points="0,-291.5 0,-321.5 147,-321.5 147,-291.5 0,-291.5"/>
<text text-anchor="start" x="8" y="-309.5" font-family="Helvetica,sans-Serif" font-size="10.00">Tayx.Graphy.GraphyManager.</text>
<text text-anchor="middle" x="73.5" y="-298.5" font-family="Helvetica,sans-Serif" font-size="10.00">Start</text>
</a>
</g>
</g>
<!-- Node6&#45;&gt;Node7 -->
<g id="edge6" class="edge">
<title>Node6&#45;&gt;Node7</title>
<path fill="none" stroke="midnightblue" d="M172.75,-306.5C164.19,-306.5 155.58,-306.5 147.2,-306.5"/>
<polygon fill="midnightblue" stroke="midnightblue" points="172.75,-310 182.75,-306.5 172.75,-303 172.75,-310"/>
</g>
<!-- Node9 -->
<g id="node9" class="node">
<title>Node9</title>
<g id="a_node9"><a xlink:href="class_tayx_1_1_graphy_1_1_graphy_manager.xhtml#acee2ed06f19bb2ca4dd2c08cd6ea6663" target="_top" xlink:title=" ">
<polygon fill="white" stroke="black" points="570.5,-184.5 570.5,-214.5 717.5,-214.5 717.5,-184.5 570.5,-184.5"/>
<text text-anchor="start" x="578.5" y="-202.5" font-family="Helvetica,sans-Serif" font-size="10.00">Tayx.Graphy.GraphyManager.</text>
<text text-anchor="middle" x="644" y="-191.5" font-family="Helvetica,sans-Serif" font-size="10.00">RefreshAllParameters</text>
</a>
</g>
</g>
<!-- Node8&#45;&gt;Node9 -->
<g id="edge9" class="edge">
<title>Node8&#45;&gt;Node9</title>
<path fill="none" stroke="midnightblue" d="M751.88,-202.2C740.43,-201.91 728.84,-201.62 717.72,-201.34"/>
<polygon fill="midnightblue" stroke="midnightblue" points="751.81,-205.7 761.89,-202.45 751.99,-198.7 751.81,-205.7"/>
</g>
<!-- Node10 -->
<g id="node10" class="node">
<title>Node10</title>
<g id="a_node10"><a xlink:href="class_tayx_1_1_graphy_1_1_graphy_manager.xhtml#a348506f37eebf68d2530f2c57845459e" target="_top" xlink:title=" ">
<polygon fill="white" stroke="black" points="379,-184.5 379,-214.5 526,-214.5 526,-184.5 379,-184.5"/>
<text text-anchor="start" x="387" y="-202.5" font-family="Helvetica,sans-Serif" font-size="10.00">Tayx.Graphy.GraphyManager.</text>
<text text-anchor="middle" x="452.5" y="-191.5" font-family="Helvetica,sans-Serif" font-size="10.00">OnApplicationFocus</text>
</a>
</g>
</g>
<!-- Node9&#45;&gt;Node10 -->
<g id="edge10" class="edge">
<title>Node9&#45;&gt;Node10</title>
<path fill="none" stroke="midnightblue" d="M559.97,-199.5C548.67,-199.5 537.13,-199.5 526.03,-199.5"/>
<polygon fill="midnightblue" stroke="midnightblue" points="560.28,-203 570.28,-199.5 560.28,-196 560.28,-203"/>
</g>
<!-- Node12 -->
<g id="node12" class="node">
<title>Node12</title>
<g id="a_node12"><a xlink:href="class_tayx_1_1_graphy_1_1_graphy_manager.xhtml#aab730e06fd0246bdf98e1a76cf5e59d6" target="_top" xlink:title=" ">
<polygon fill="white" stroke="black" points="570.5,-233.5 570.5,-263.5 717.5,-263.5 717.5,-233.5 570.5,-233.5"/>
<text text-anchor="start" x="578.5" y="-251.5" font-family="Helvetica,sans-Serif" font-size="10.00">Tayx.Graphy.GraphyManager.</text>
<text text-anchor="middle" x="644" y="-240.5" font-family="Helvetica,sans-Serif" font-size="10.00">Enable</text>
</a>
</g>
</g>
<!-- Node11&#45;&gt;Node12 -->
<g id="edge12" class="edge">
<title>Node11&#45;&gt;Node12</title>
<path fill="none" stroke="midnightblue" d="M751.88,-251.2C740.43,-250.91 728.84,-250.62 717.72,-250.34"/>
<polygon fill="midnightblue" stroke="midnightblue" points="751.81,-254.7 761.89,-251.45 751.99,-247.7 751.81,-254.7"/>
</g>
<!-- Node12&#45;&gt;Node3 -->
<g id="edge13" class="edge">
<title>Node12&#45;&gt;Node3</title>
<path fill="none" stroke="midnightblue" d="M560.32,-258.97C548.9,-260.42 537.25,-261.89 526.03,-263.31"/>
<polygon fill="midnightblue" stroke="midnightblue" points="560.8,-262.44 570.28,-257.71 559.92,-255.49 560.8,-262.44"/>
</g>
<!-- Node15 -->
<g id="node15" class="node">
<title>Node15</title>
<g id="a_node15"><a xlink:href="class_tayx_1_1_graphy_1_1_graphy_manager.xhtml#ad2b2c2bf91439abdf0f3839570fb32ae" target="_top" xlink:title=" ">
<polygon fill="white" stroke="black" points="379,-129.5 379,-159.5 526,-159.5 526,-129.5 379,-129.5"/>
<text text-anchor="start" x="387" y="-147.5" font-family="Helvetica,sans-Serif" font-size="10.00">Tayx.Graphy.GraphyManager.</text>
<text text-anchor="middle" x="452.5" y="-136.5" font-family="Helvetica,sans-Serif" font-size="10.00">ToggleModes</text>
</a>
</g>
</g>
<!-- Node14&#45;&gt;Node15 -->
<g id="edge16" class="edge">
<title>Node14&#45;&gt;Node15</title>
<path fill="none" stroke="midnightblue" d="M760.17,-114.58C690.78,-121.35 592.69,-130.92 526.28,-137.4"/>
<polygon fill="midnightblue" stroke="midnightblue" points="760.58,-118.06 770.19,-113.6 759.9,-111.09 760.58,-118.06"/>
</g>
<!-- Node15&#45;&gt;Node4 -->
<g id="edge17" class="edge">
<title>Node15&#45;&gt;Node4</title>
<path fill="none" stroke="midnightblue" d="M403.94,-163.53C395.58,-167.06 386.99,-170.8 379,-174.5 348.86,-188.44 315.13,-205.98 292.04,-218.3"/>
<polygon fill="midnightblue" stroke="midnightblue" points="405.36,-166.73 413.24,-159.65 402.67,-160.27 405.36,-166.73"/>
</g>
<!-- Node17 -->
<g id="node17" class="node">
<title>Node17</title>
<g id="a_node17"><a xlink:href="class_tayx_1_1_graphy_1_1_fps_1_1_g___fps_manager.xhtml#a493ce1f559837c319bcd62a895333926" target="_top" xlink:title=" ">
<polygon fill="white" stroke="black" points="562,-0.5 562,-30.5 726,-30.5 726,-0.5 562,-0.5"/>
<text text-anchor="start" x="570" y="-18.5" font-family="Helvetica,sans-Serif" font-size="10.00">Tayx.Graphy.Fps.G_FpsManager.</text>
<text text-anchor="middle" x="644" y="-7.5" font-family="Helvetica,sans-Serif" font-size="10.00">Start</text>
</a>
</g>
</g>
<!-- Node16&#45;&gt;Node17 -->
<g id="edge19" class="edge">
<title>Node16&#45;&gt;Node17</title>
<path fill="none" stroke="midnightblue" d="M762.09,-40.34C746.73,-37.08 730.77,-33.69 715.76,-30.51"/>
<polygon fill="midnightblue" stroke="midnightblue" points="761.57,-43.8 772.08,-42.46 763.02,-36.96 761.57,-43.8"/>
</g>
<!-- Node18 -->
<g id="node18" class="node">
<title>Node18</title>
<g id="a_node18"><a xlink:href="class_tayx_1_1_graphy_1_1_graphy_manager.xhtml#a09cf85e2115057a8a96471d52b9c4cd2" target="_top" xlink:title=" ">
<polygon fill="white" stroke="black" points="570.5,-49.5 570.5,-79.5 717.5,-79.5 717.5,-49.5 570.5,-49.5"/>
<text text-anchor="start" x="578.5" y="-67.5" font-family="Helvetica,sans-Serif" font-size="10.00">Tayx.Graphy.GraphyManager.</text>
<text text-anchor="middle" x="644" y="-56.5" font-family="Helvetica,sans-Serif" font-size="10.00">UpdateAllParameters</text>
</a>
</g>
</g>
<!-- Node16&#45;&gt;Node18 -->
<g id="edge20" class="edge">
<title>Node16&#45;&gt;Node18</title>
<path fill="none" stroke="midnightblue" d="M751.88,-60.72C740.43,-61.13 728.84,-61.54 717.72,-61.93"/>
<polygon fill="midnightblue" stroke="midnightblue" points="752.02,-64.22 761.89,-60.37 751.78,-57.22 752.02,-64.22"/>
</g>
</g>
</svg>
