<?xml version="1.0" encoding="UTF-8" standalone="no"?>
<!DOCTYPE svg PUBLIC "-//W3C//DTD SVG 1.1//EN"
 "http://www.w3.org/Graphics/SVG/1.1/DTD/svg11.dtd">
<!-- Generated by graphviz version 2.47.3 (20210619.1520)
 -->
<!-- Title: Photon.Pun.Demo.SlotRacer.Utils.SplinePosition.ExecutePositioning Pages: 1 -->
<svg width="742pt" height="50pt"
 viewBox="0.00 0.00 742.00 50.00" xmlns="http://www.w3.org/2000/svg" xmlns:xlink="http://www.w3.org/1999/xlink">
<g id="graph0" class="graph" transform="scale(1 1) rotate(0) translate(4 46)">
<title>Photon.Pun.Demo.SlotRacer.Utils.SplinePosition.ExecutePositioning</title>
<polygon fill="white" stroke="transparent" points="-4,4 -4,-46 738,-46 738,4 -4,4"/>
<!-- Node1 -->
<g id="node1" class="node">
<title>Node1</title>
<g id="a_node1"><a xlink:title=" ">
<polygon fill="#bfbfbf" stroke="black" points="0,-6 0,-36 188,-36 188,-6 0,-6"/>
<text text-anchor="start" x="8" y="-24" font-family="Helvetica,sans-Serif" font-size="10.00">Photon.Pun.Demo.SlotRacer.</text>
<text text-anchor="middle" x="94" y="-13" font-family="Helvetica,sans-Serif" font-size="10.00">Utils.SplinePosition.ExecutePositioning</text>
</a>
</g>
</g>
<!-- Node2 -->
<g id="node2" class="node">
<title>Node2</title>
<g id="a_node2"><a xlink:href="class_photon_1_1_pun_1_1_demo_1_1_slot_racer_1_1_utils_1_1_bezier_spline.xhtml#a882790bce850708c85428578c2eb1c2c" target="_top" xlink:title=" ">
<polygon fill="white" stroke="black" points="224,-0.5 224,-41.5 372,-41.5 372,-0.5 224,-0.5"/>
<text text-anchor="start" x="232" y="-29.5" font-family="Helvetica,sans-Serif" font-size="10.00">Photon.Pun.Demo.SlotRacer.</text>
<text text-anchor="start" x="232" y="-18.5" font-family="Helvetica,sans-Serif" font-size="10.00">Utils.BezierSpline.GetPosition</text>
<text text-anchor="middle" x="298" y="-7.5" font-family="Helvetica,sans-Serif" font-size="10.00">AtDistance</text>
</a>
</g>
</g>
<!-- Node1&#45;&gt;Node2 -->
<g id="edge1" class="edge">
<title>Node1&#45;&gt;Node2</title>
<path fill="none" stroke="midnightblue" d="M188.02,-21C196.56,-21 205.17,-21 213.62,-21"/>
<polygon fill="midnightblue" stroke="midnightblue" points="213.82,-24.5 223.82,-21 213.82,-17.5 213.82,-24.5"/>
</g>
<!-- Node3 -->
<g id="node3" class="node">
<title>Node3</title>
<g id="a_node3"><a xlink:href="class_photon_1_1_pun_1_1_demo_1_1_slot_racer_1_1_utils_1_1_bezier_spline.xhtml#a781ddf5344420bfeb2f5bf8413fcaa54" target="_top" xlink:title=" ">
<polygon fill="white" stroke="black" points="408,-6 408,-36 553,-36 553,-6 408,-6"/>
<text text-anchor="start" x="416" y="-24" font-family="Helvetica,sans-Serif" font-size="10.00">Photon.Pun.Demo.SlotRacer.</text>
<text text-anchor="middle" x="480.5" y="-13" font-family="Helvetica,sans-Serif" font-size="10.00">Utils.BezierSpline.GetPoint</text>
</a>
</g>
</g>
<!-- Node2&#45;&gt;Node3 -->
<g id="edge2" class="edge">
<title>Node2&#45;&gt;Node3</title>
<path fill="none" stroke="midnightblue" d="M372.16,-21C380.65,-21 389.36,-21 397.97,-21"/>
<polygon fill="midnightblue" stroke="midnightblue" points="398,-24.5 408,-21 398,-17.5 398,-24.5"/>
</g>
<!-- Node4 -->
<g id="node4" class="node">
<title>Node4</title>
<g id="a_node4"><a xlink:href="class_photon_1_1_pun_1_1_demo_1_1_slot_racer_1_1_utils_1_1_bezier.xhtml#a92b639bbe28e91ebf634d21804d19b50" target="_top" xlink:title=" ">
<polygon fill="white" stroke="black" points="589,-6 589,-36 734,-36 734,-6 589,-6"/>
<text text-anchor="start" x="597" y="-24" font-family="Helvetica,sans-Serif" font-size="10.00">Photon.Pun.Demo.SlotRacer.</text>
<text text-anchor="middle" x="661.5" y="-13" font-family="Helvetica,sans-Serif" font-size="10.00">Utils.Bezier.GetPoint</text>
</a>
</g>
</g>
<!-- Node3&#45;&gt;Node4 -->
<g id="edge3" class="edge">
<title>Node3&#45;&gt;Node4</title>
<path fill="none" stroke="midnightblue" d="M553.02,-21C561.49,-21 570.18,-21 578.78,-21"/>
<polygon fill="midnightblue" stroke="midnightblue" points="578.8,-24.5 588.8,-21 578.8,-17.5 578.8,-24.5"/>
</g>
</g>
</svg>
