<?xml version="1.0" encoding="UTF-8" standalone="no"?>
<!DOCTYPE svg PUBLIC "-//W3C//DTD SVG 1.1//EN"
 "http://www.w3.org/Graphics/SVG/1.1/DTD/svg11.dtd">
<!-- Generated by graphviz version 2.47.3 (20210619.1520)
 -->
<!-- Title: Photon.Pun.Demo.SlotRacer.SlotLanes Pages: 1 -->
<svg width="276pt" height="252pt"
 viewBox="0.00 0.00 276.00 252.00" xmlns="http://www.w3.org/2000/svg" xmlns:xlink="http://www.w3.org/1999/xlink">
<g id="graph0" class="graph" transform="scale(1 1) rotate(0) translate(4 248)">
<title>Photon.Pun.Demo.SlotRacer.SlotLanes</title>
<polygon fill="white" stroke="transparent" points="-4,4 -4,-248 272,-248 272,4 -4,4"/>
<!-- Node1 -->
<g id="node1" class="node">
<title>Node1</title>
<g id="a_node1"><a xlink:title="Define Slot lanes and grid positions placeholders.">
<polygon fill="#bfbfbf" stroke="black" points="0,-0.5 0,-30.5 145,-30.5 145,-0.5 0,-0.5"/>
<text text-anchor="start" x="8" y="-18.5" font-family="Helvetica,sans-Serif" font-size="10.00">Photon.Pun.Demo.SlotRacer.</text>
<text text-anchor="middle" x="72.5" y="-7.5" font-family="Helvetica,sans-Serif" font-size="10.00">SlotLanes</text>
</a>
</g>
</g>
<!-- Node1&#45;&gt;Node1 -->
<g id="edge6" class="edge">
<title>Node1&#45;&gt;Node1</title>
<path fill="none" stroke="#9a32cd" stroke-dasharray="5,2" d="M155.19,-20.39C160.07,-19.22 163,-17.59 163,-15.5 163,-12.23 155.87,-10.09 145.29,-9.07"/>
<polygon fill="#9a32cd" stroke="#9a32cd" points="154.63,-16.94 145.29,-21.93 155.71,-23.86 154.63,-16.94"/>
<text text-anchor="middle" x="183" y="-13" font-family="Helvetica,sans-Serif" font-size="10.00"> Instance</text>
</g>
<!-- Node2 -->
<g id="node2" class="node">
<title>Node2</title>
<g id="a_node2"><a xlink:title=" ">
<polygon fill="white" stroke="#bfbfbf" points="53,-224.5 53,-243.5 136,-243.5 136,-224.5 53,-224.5"/>
<text text-anchor="middle" x="94.5" y="-231.5" font-family="Helvetica,sans-Serif" font-size="10.00">MonoBehaviour</text>
</a>
</g>
</g>
<!-- Node2&#45;&gt;Node1 -->
<g id="edge1" class="edge">
<title>Node2&#45;&gt;Node1</title>
<path fill="none" stroke="midnightblue" d="M90.94,-214.4C86.47,-190.22 78.98,-146.63 75.5,-109 72.94,-81.32 72.47,-48.81 72.43,-30.64"/>
<polygon fill="midnightblue" stroke="midnightblue" points="87.52,-215.14 92.8,-224.32 94.4,-213.85 87.52,-215.14"/>
</g>
<!-- Node3 -->
<g id="node3" class="node">
<title>Node3</title>
<g id="a_node3"><a xlink:href="class_photon_1_1_pun_1_1_demo_1_1_slot_racer_1_1_utils_1_1_spline_position.xhtml" target="_top" xlink:title=" ">
<polygon fill="white" stroke="black" points="85,-78.5 85,-108.5 230,-108.5 230,-78.5 85,-78.5"/>
<text text-anchor="start" x="93" y="-96.5" font-family="Helvetica,sans-Serif" font-size="10.00">Photon.Pun.Demo.SlotRacer.</text>
<text text-anchor="middle" x="157.5" y="-85.5" font-family="Helvetica,sans-Serif" font-size="10.00">Utils.SplinePosition</text>
</a>
</g>
</g>
<!-- Node2&#45;&gt;Node3 -->
<g id="edge3" class="edge">
<title>Node2&#45;&gt;Node3</title>
<path fill="none" stroke="midnightblue" d="M97.15,-213.87C99.85,-197.87 104.88,-174.72 113.5,-156 121.63,-138.35 135.06,-120.55 144.95,-108.68"/>
<polygon fill="midnightblue" stroke="midnightblue" points="93.64,-213.68 95.58,-224.1 100.56,-214.74 93.64,-213.68"/>
</g>
<!-- Node4 -->
<g id="node4" class="node">
<title>Node4</title>
<g id="a_node4"><a xlink:href="class_photon_1_1_pun_1_1_demo_1_1_slot_racer_1_1_utils_1_1_bezier_spline.xhtml" target="_top" xlink:title=" ">
<polygon fill="white" stroke="black" points="123,-156.5 123,-186.5 268,-186.5 268,-156.5 123,-156.5"/>
<text text-anchor="start" x="131" y="-174.5" font-family="Helvetica,sans-Serif" font-size="10.00">Photon.Pun.Demo.SlotRacer.</text>
<text text-anchor="middle" x="195.5" y="-163.5" font-family="Helvetica,sans-Serif" font-size="10.00">Utils.BezierSpline</text>
</a>
</g>
</g>
<!-- Node2&#45;&gt;Node4 -->
<g id="edge5" class="edge">
<title>Node2&#45;&gt;Node4</title>
<path fill="none" stroke="midnightblue" d="M117.86,-219.01C134.14,-209.25 155.79,-196.29 172.08,-186.53"/>
<polygon fill="midnightblue" stroke="midnightblue" points="115.75,-216.19 108.97,-224.33 119.35,-222.2 115.75,-216.19"/>
</g>
<!-- Node3&#45;&gt;Node1 -->
<g id="edge2" class="edge">
<title>Node3&#45;&gt;Node1</title>
<path fill="none" stroke="#9a32cd" stroke-dasharray="5,2" d="M133.89,-71.39C119.4,-58.43 101.22,-42.18 88.42,-30.73"/>
<polygon fill="#9a32cd" stroke="#9a32cd" points="131.72,-74.15 141.51,-78.2 136.39,-68.93 131.72,-74.15"/>
<text text-anchor="middle" x="151.5" y="-52" font-family="Helvetica,sans-Serif" font-size="10.00"> GridPositions</text>
</g>
<!-- Node4&#45;&gt;Node3 -->
<g id="edge4" class="edge">
<title>Node4&#45;&gt;Node3</title>
<path fill="none" stroke="#9a32cd" stroke-dasharray="5,2" d="M183.85,-147.2C177.57,-134.64 170.02,-119.54 164.62,-108.73"/>
<polygon fill="#9a32cd" stroke="#9a32cd" points="180.75,-148.83 188.35,-156.2 187.01,-145.7 180.75,-148.83"/>
<text text-anchor="middle" x="194" y="-130" font-family="Helvetica,sans-Serif" font-size="10.00"> Spline</text>
</g>
</g>
</svg>
