<?xml version="1.0" encoding="UTF-8" standalone="no"?>
<!DOCTYPE svg PUBLIC "-//W3C//DTD SVG 1.1//EN"
 "http://www.w3.org/Graphics/SVG/1.1/DTD/svg11.dtd">
<!-- Generated by graphviz version 2.47.3 (20210619.1520)
 -->
<!-- Title: Jerarquia Gràfica de la Classe Pages: 1 -->
<svg width="246pt" height="88pt"
 viewBox="0.00 0.00 246.00 88.00" xmlns="http://www.w3.org/2000/svg" xmlns:xlink="http://www.w3.org/1999/xlink">
<g id="graph0" class="graph" transform="scale(1 1) rotate(0) translate(4 84)">
<title>Jerarquia Gràfica de la Classe</title>
<polygon fill="white" stroke="transparent" points="-4,4 -4,-84 242,-84 242,4 -4,4"/>
<!-- Node116 -->
<g id="node1" class="node">
<title>Node116</title>
<g id="a_node1"><a xlink:title=" ">
<polygon fill="white" stroke="#bfbfbf" points="0,-30 0,-49 62,-49 62,-30 0,-30"/>
<text text-anchor="middle" x="31" y="-37" font-family="Helvetica,sans-Serif" font-size="10.00">IEquatable</text>
</a>
</g>
</g>
<!-- Node0 -->
<g id="node2" class="node">
<title>Node0</title>
<g id="a_node2"><a xlink:href="struct_photon_1_1_pun_1_1_photon_network_1_1_raise_event_batch.xhtml" target="_top" xlink:title=" ">
<polygon fill="white" stroke="black" points="98,-49.5 98,-79.5 238,-79.5 238,-49.5 98,-49.5"/>
<text text-anchor="start" x="106" y="-67.5" font-family="Helvetica,sans-Serif" font-size="10.00">Photon.Pun.PhotonNetwork.</text>
<text text-anchor="middle" x="168" y="-56.5" font-family="Helvetica,sans-Serif" font-size="10.00">RaiseEventBatch</text>
</a>
</g>
</g>
<!-- Node116&#45;&gt;Node0 -->
<g id="edge1" class="edge">
<title>Node116&#45;&gt;Node0</title>
<path fill="none" stroke="midnightblue" d="M72.21,-46.95C80.34,-48.45 89.11,-50.08 97.91,-51.71"/>
<polygon fill="midnightblue" stroke="midnightblue" points="72.77,-43.49 62.3,-45.11 71.49,-50.37 72.77,-43.49"/>
</g>
<!-- Node118 -->
<g id="node3" class="node">
<title>Node118</title>
<g id="a_node3"><a xlink:href="class_photon_1_1_pun_1_1_photon_network_1_1_serialize_view_batch.xhtml" target="_top" xlink:title=" ">
<polygon fill="white" stroke="black" points="98,-0.5 98,-30.5 238,-30.5 238,-0.5 98,-0.5"/>
<text text-anchor="start" x="106" y="-18.5" font-family="Helvetica,sans-Serif" font-size="10.00">Photon.Pun.PhotonNetwork.</text>
<text text-anchor="middle" x="168" y="-7.5" font-family="Helvetica,sans-Serif" font-size="10.00">SerializeViewBatch</text>
</a>
</g>
</g>
<!-- Node116&#45;&gt;Node118 -->
<g id="edge2" class="edge">
<title>Node116&#45;&gt;Node118</title>
<path fill="none" stroke="midnightblue" d="M72.21,-32.35C80.34,-30.91 89.11,-29.35 97.91,-27.78"/>
<polygon fill="midnightblue" stroke="midnightblue" points="71.53,-28.92 62.3,-34.11 72.75,-35.81 71.53,-28.92"/>
</g>
</g>
</svg>
