<?xml version="1.0" encoding="UTF-8" standalone="no"?>
<!DOCTYPE svg PUBLIC "-//W3C//DTD SVG 1.1//EN"
 "http://www.w3.org/Graphics/SVG/1.1/DTD/svg11.dtd">
<!-- Generated by graphviz version 2.47.3 (20210619.1520)
 -->
<!-- Title: Tayx.Graphy.UI.IMovable Pages: 1 -->
<svg width="338pt" height="165pt"
 viewBox="0.00 0.00 338.00 164.50" xmlns="http://www.w3.org/2000/svg" xmlns:xlink="http://www.w3.org/1999/xlink">
<g id="graph0" class="graph" transform="scale(1 1) rotate(0) translate(4 160.5)">
<title>Tayx.Graphy.UI.IMovable</title>
<polygon fill="white" stroke="transparent" points="-4,4 -4,-160.5 334,-160.5 334,4 -4,4"/>
<!-- Node1 -->
<g id="node1" class="node">
<title>Node1</title>
<g id="a_node1"><a xlink:title=" ">
<polygon fill="#bfbfbf" stroke="black" points="0,-60.5 0,-79.5 125,-79.5 125,-60.5 0,-60.5"/>
<text text-anchor="middle" x="62.5" y="-67.5" font-family="Helvetica,sans-Serif" font-size="10.00">Tayx.Graphy.UI.IMovable</text>
</a>
</g>
</g>
<!-- Node2 -->
<g id="node2" class="node">
<title>Node2</title>
<g id="a_node2"><a xlink:href="class_tayx_1_1_graphy_1_1_advanced_1_1_g___advanced_data.xhtml" target="_top" xlink:title=" ">
<polygon fill="white" stroke="black" points="181.5,-126 181.5,-156 309.5,-156 309.5,-126 181.5,-126"/>
<text text-anchor="start" x="189.5" y="-144" font-family="Helvetica,sans-Serif" font-size="10.00">Tayx.Graphy.Advanced.G</text>
<text text-anchor="middle" x="245.5" y="-133" font-family="Helvetica,sans-Serif" font-size="10.00">_AdvancedData</text>
</a>
</g>
</g>
<!-- Node1&#45;&gt;Node2 -->
<g id="edge1" class="edge">
<title>Node1&#45;&gt;Node2</title>
<path fill="none" stroke="midnightblue" d="M90.15,-84.36C109.45,-94.39 136.37,-107.6 161,-117 169.31,-120.17 178.23,-123.16 187.03,-125.87"/>
<polygon fill="midnightblue" stroke="midnightblue" points="91.55,-81.15 81.07,-79.59 88.29,-87.34 91.55,-81.15"/>
</g>
<!-- Node3 -->
<g id="node3" class="node">
<title>Node3</title>
<g id="a_node3"><a xlink:href="class_tayx_1_1_graphy_1_1_audio_1_1_g___audio_manager.xhtml" target="_top" xlink:title=" ">
<polygon fill="white" stroke="black" points="190.5,-77 190.5,-107 300.5,-107 300.5,-77 190.5,-77"/>
<text text-anchor="start" x="198.5" y="-95" font-family="Helvetica,sans-Serif" font-size="10.00">Tayx.Graphy.Audio.G</text>
<text text-anchor="middle" x="245.5" y="-84" font-family="Helvetica,sans-Serif" font-size="10.00">_AudioManager</text>
</a>
</g>
</g>
<!-- Node1&#45;&gt;Node3 -->
<g id="edge2" class="edge">
<title>Node1&#45;&gt;Node3</title>
<path fill="none" stroke="midnightblue" d="M135.13,-78.71C153.54,-80.94 173.05,-83.32 190.41,-85.43"/>
<polygon fill="midnightblue" stroke="midnightblue" points="135.38,-75.21 125.03,-77.48 134.54,-82.16 135.38,-75.21"/>
</g>
<!-- Node4 -->
<g id="node4" class="node">
<title>Node4</title>
<g id="a_node4"><a xlink:href="class_tayx_1_1_graphy_1_1_fps_1_1_g___fps_manager.xhtml" target="_top" xlink:title=" ">
<polygon fill="white" stroke="black" points="165,-38.5 165,-57.5 326,-57.5 326,-38.5 165,-38.5"/>
<text text-anchor="middle" x="245.5" y="-45.5" font-family="Helvetica,sans-Serif" font-size="10.00">Tayx.Graphy.Fps.G_FpsManager</text>
</a>
</g>
</g>
<!-- Node1&#45;&gt;Node4 -->
<g id="edge3" class="edge">
<title>Node1&#45;&gt;Node4</title>
<path fill="none" stroke="midnightblue" d="M135.1,-61.3C145.3,-60.06 155.83,-58.78 166.15,-57.52"/>
<polygon fill="midnightblue" stroke="midnightblue" points="134.54,-57.84 125.03,-62.52 135.38,-64.79 134.54,-57.84"/>
</g>
<!-- Node5 -->
<g id="node5" class="node">
<title>Node5</title>
<g id="a_node5"><a xlink:href="class_tayx_1_1_graphy_1_1_ram_1_1_g___ram_manager.xhtml" target="_top" xlink:title=" ">
<polygon fill="white" stroke="black" points="161,-0.5 161,-19.5 330,-19.5 330,-0.5 161,-0.5"/>
<text text-anchor="middle" x="245.5" y="-7.5" font-family="Helvetica,sans-Serif" font-size="10.00">Tayx.Graphy.Ram.G_RamManager</text>
</a>
</g>
</g>
<!-- Node1&#45;&gt;Node5 -->
<g id="edge4" class="edge">
<title>Node1&#45;&gt;Node5</title>
<path fill="none" stroke="midnightblue" d="M92.37,-56.29C111.51,-47.6 137.37,-36.59 161,-29 172.18,-25.41 184.41,-22.22 195.98,-19.54"/>
<polygon fill="midnightblue" stroke="midnightblue" points="90.9,-53.12 83.28,-60.48 93.83,-59.47 90.9,-53.12"/>
</g>
</g>
</svg>
