<?xml version="1.0" encoding="UTF-8" standalone="no"?>
<!DOCTYPE svg PUBLIC "-//W3C//DTD SVG 1.1//EN"
 "http://www.w3.org/Graphics/SVG/1.1/DTD/svg11.dtd">
<!-- Generated by graphviz version 2.47.3 (20210619.1520)
 -->
<!-- Title: Photon.Realtime.IConnectionCallbacks.OnRegionListReceived Pages: 1 -->
<svg width="557pt" height="50pt"
 viewBox="0.00 0.00 557.00 50.00" xmlns="http://www.w3.org/2000/svg" xmlns:xlink="http://www.w3.org/1999/xlink">
<g id="graph0" class="graph" transform="scale(1 1) rotate(0) translate(4 46)">
<title>Photon.Realtime.IConnectionCallbacks.OnRegionListReceived</title>
<polygon fill="white" stroke="transparent" points="-4,4 -4,-46 553,-46 553,4 -4,4"/>
<!-- Node1 -->
<g id="node1" class="node">
<title>Node1</title>
<g id="a_node1"><a xlink:title="Called when the Name Server provided a list of regions for your title.">
<polygon fill="#bfbfbf" stroke="black" points="389,-6 389,-36 549,-36 549,-6 389,-6"/>
<text text-anchor="start" x="397" y="-24" font-family="Helvetica,sans-Serif" font-size="10.00">Photon.Realtime.IConnection</text>
<text text-anchor="middle" x="469" y="-13" font-family="Helvetica,sans-Serif" font-size="10.00">Callbacks.OnRegionListReceived</text>
</a>
</g>
</g>
<!-- Node2 -->
<g id="node2" class="node">
<title>Node2</title>
<g id="a_node2"><a xlink:href="class_photon_1_1_realtime_1_1_connection_callbacks_container.xhtml#af3ffb87efd0b19d76e62bacd80729a8b" target="_top" xlink:title="Called when the Name Server provided a list of regions for your title.">
<polygon fill="white" stroke="black" points="191,-0.5 191,-41.5 353,-41.5 353,-0.5 191,-0.5"/>
<text text-anchor="start" x="199" y="-29.5" font-family="Helvetica,sans-Serif" font-size="10.00">Photon.Realtime.Connection</text>
<text text-anchor="start" x="199" y="-18.5" font-family="Helvetica,sans-Serif" font-size="10.00">CallbacksContainer.OnRegionList</text>
<text text-anchor="middle" x="272" y="-7.5" font-family="Helvetica,sans-Serif" font-size="10.00">Received</text>
</a>
</g>
</g>
<!-- Node1&#45;&gt;Node2 -->
<g id="edge1" class="edge">
<title>Node1&#45;&gt;Node2</title>
<path fill="none" stroke="midnightblue" d="M378.92,-21C370.31,-21 361.61,-21 353.1,-21"/>
<polygon fill="midnightblue" stroke="midnightblue" points="378.97,-24.5 388.97,-21 378.97,-17.5 378.97,-24.5"/>
</g>
<!-- Node3 -->
<g id="node3" class="node">
<title>Node3</title>
<g id="a_node3"><a xlink:href="class_photon_1_1_realtime_1_1_load_balancing_client.xhtml#aae79523656b407a63d1112528093d953" target="_top" xlink:title="Uses the OperationResponses provided by the server to advance the internal state and call ops as need...">
<polygon fill="white" stroke="black" points="0,-6 0,-36 155,-36 155,-6 0,-6"/>
<text text-anchor="start" x="8" y="-24" font-family="Helvetica,sans-Serif" font-size="10.00">Photon.Realtime.LoadBalancing</text>
<text text-anchor="middle" x="77.5" y="-13" font-family="Helvetica,sans-Serif" font-size="10.00">Client.OnOperationResponse</text>
</a>
</g>
</g>
<!-- Node2&#45;&gt;Node3 -->
<g id="edge2" class="edge">
<title>Node2&#45;&gt;Node3</title>
<path fill="none" stroke="midnightblue" d="M180.49,-21C172.04,-21 163.53,-21 155.22,-21"/>
<polygon fill="midnightblue" stroke="midnightblue" points="180.76,-24.5 190.76,-21 180.76,-17.5 180.76,-24.5"/>
</g>
</g>
</svg>
