<?xml version="1.0" encoding="UTF-8" standalone="no"?>
<!DOCTYPE svg PUBLIC "-//W3C//DTD SVG 1.1//EN"
 "http://www.w3.org/Graphics/SVG/1.1/DTD/svg11.dtd">
<!-- Generated by graphviz version 2.47.3 (20210619.1520)
 -->
<!-- Title: Photon.Realtime.IMatchmakingCallbacks Pages: 1 -->
<!--zoomable 1074 -->
<svg id="main" version="1.1" xmlns="http://www.w3.org/2000/svg" xmlns:xlink="http://www.w3.org/1999/xlink" xml:space="preserve" onload="init(evt)">
<style type="text/css"><![CDATA[
.edge:hover path { stroke: red; }
.edge:hover polygon { stroke: red; fill: red; }
]]></style>
<script type="text/javascript"><![CDATA[
var edges = document.getElementsByTagName('g');
if (edges && edges.length) {
  for (var i=0;i<edges.length;i++) {
    if (edges[i].id.substr(0,4)=='edge') {
      edges[i].setAttribute('class','edge');
    }
  }
}
]]></script>
        <defs>
                <circle id="rim" cx="0" cy="0" r="7"/>
                <circle id="rim2" cx="0" cy="0" r="3.5"/>
                <g id="zoomPlus">
                        <use xlink:href="#rim" fill="#404040">
                                <set attributeName="fill" to="#808080" begin="zoomplus.mouseover" end="zoomplus.mouseout"/>
                        </use>
                        <path d="M-4,0h8M0,-4v8" fill="none" stroke="white" stroke-width="1.5" pointer-events="none"/>
                </g>
                <g id="zoomMin">
                        <use xlink:href="#rim" fill="#404040">
                                <set attributeName="fill" to="#808080" begin="zoomminus.mouseover" end="zoomminus.mouseout"/>
                        </use>
                        <path d="M-4,0h8" fill="none" stroke="white" stroke-width="1.5" pointer-events="none"/>
                </g>
                <g id="dirArrow">
                        <path fill="none" stroke="white" stroke-width="1.5" d="M0,-3.0v7 M-2.5,-0.5L0,-3.0L2.5,-0.5"/>
                </g>
               <g id="resetDef">
                       <use xlink:href="#rim2" fill="#404040">
                               <set attributeName="fill" to="#808080" begin="reset.mouseover" end="reset.mouseout"/>
                       </use>
               </g>
        </defs>

<script type="text/javascript">
var viewWidth = 537;
var viewHeight = 1074;
var sectionId = 'dynsection-0';
</script>
<script xlink:href="svgpan.js"/>
<svg id="graph" class="graph">
<g id="viewport">
<title>Photon.Realtime.IMatchmakingCallbacks</title>
<polygon fill="white" stroke="transparent" points="-4,4 -4,-1069.5 533,-1069.5 533,4 -4,4"/>
<!-- Node1 -->
<g id="node1" class="node">
<title>Node1</title>
<g id="a_node1"><a xlink:title="Collection of &quot;organizational&quot; callbacks for the Realtime Api to cover Matchmaking.">
<polygon fill="#bfbfbf" stroke="black" points="0,-402.5 0,-432.5 152,-432.5 152,-402.5 0,-402.5"/>
<text text-anchor="start" x="8" y="-420.5" font-family="Helvetica,sans-Serif" font-size="10.00">Photon.Realtime.IMatchmaking</text>
<text text-anchor="middle" x="76" y="-409.5" font-family="Helvetica,sans-Serif" font-size="10.00">Callbacks</text>
</a>
</g>
</g>
<!-- Node2 -->
<g id="node2" class="node">
<title>Node2</title>
<g id="a_node2"><a xlink:href="class_photon_1_1_pun_1_1_mono_behaviour_pun_callbacks.xhtml" target="_top" xlink:title="This class provides a .photonView and all callbacks/events that PUN can call.">
<polygon fill="white" stroke="black" points="197.5,-539.5 197.5,-569.5 334.5,-569.5 334.5,-539.5 197.5,-539.5"/>
<text text-anchor="start" x="205.5" y="-557.5" font-family="Helvetica,sans-Serif" font-size="10.00">Photon.Pun.MonoBehaviour</text>
<text text-anchor="middle" x="266" y="-546.5" font-family="Helvetica,sans-Serif" font-size="10.00">PunCallbacks</text>
</a>
</g>
</g>
<!-- Node1&#45;&gt;Node2 -->
<g id="edge1" class="edge">
<title>Node1&#45;&gt;Node2</title>
<path fill="none" stroke="midnightblue" d="M94.41,-440.77C114.41,-465.98 149.46,-505.77 188,-529.5 194.22,-533.33 201.1,-536.64 208.1,-539.48"/>
<polygon fill="midnightblue" stroke="midnightblue" points="97.13,-438.57 88.22,-432.83 91.61,-442.87 97.13,-438.57"/>
</g>
<!-- Node26 -->
<g id="node26" class="node">
<title>Node26</title>
<g id="a_node26"><a xlink:href="class_photon_1_1_pun_1_1_photon_handler.xhtml" target="_top" xlink:title="Internal MonoBehaviour that allows Photon to run an Update loop.">
<polygon fill="white" stroke="black" points="199,-501 199,-520 333,-520 333,-501 199,-501"/>
<text text-anchor="middle" x="266" y="-508" font-family="Helvetica,sans-Serif" font-size="10.00">Photon.Pun.PhotonHandler</text>
</a>
</g>
</g>
<!-- Node1&#45;&gt;Node26 -->
<g id="edge25" class="edge">
<title>Node1&#45;&gt;Node26</title>
<path fill="none" stroke="midnightblue" d="M103.49,-439.01C125.07,-455.55 156.94,-477.82 188,-491.5 196.57,-495.27 206.02,-498.38 215.28,-500.92"/>
<polygon fill="midnightblue" stroke="midnightblue" points="105.51,-436.15 95.47,-432.76 101.2,-441.67 105.51,-436.15"/>
</g>
<!-- Node27 -->
<g id="node27" class="node">
<title>Node27</title>
<g id="a_node27"><a xlink:href="class_photon_1_1_pun_1_1_utility_scripts_1_1_on_joined_instantiate.xhtml" target="_top" xlink:title="This component will instantiate a network GameObject when a room is joined">
<polygon fill="white" stroke="black" points="201.5,-451.5 201.5,-481.5 330.5,-481.5 330.5,-451.5 201.5,-451.5"/>
<text text-anchor="start" x="209.5" y="-469.5" font-family="Helvetica,sans-Serif" font-size="10.00">Photon.Pun.UtilityScripts.</text>
<text text-anchor="middle" x="266" y="-458.5" font-family="Helvetica,sans-Serif" font-size="10.00">OnJoinedInstantiate</text>
</a>
</g>
</g>
<!-- Node1&#45;&gt;Node27 -->
<g id="edge26" class="edge">
<title>Node1&#45;&gt;Node27</title>
<path fill="none" stroke="midnightblue" d="M144.61,-435.12C165.18,-440.48 187.58,-446.32 207.43,-451.49"/>
<polygon fill="midnightblue" stroke="midnightblue" points="145.24,-431.67 134.68,-432.53 143.48,-438.44 145.24,-431.67"/>
</g>
<!-- Node28 -->
<g id="node28" class="node">
<title>Node28</title>
<g id="a_node28"><a xlink:href="class_photon_1_1_pun_1_1_utility_scripts_1_1_photon_teams_manager.xhtml" target="_top" xlink:title="Implements teams in a room/game with help of player properties.">
<polygon fill="white" stroke="black" points="201.5,-402.5 201.5,-432.5 330.5,-432.5 330.5,-402.5 201.5,-402.5"/>
<text text-anchor="start" x="209.5" y="-420.5" font-family="Helvetica,sans-Serif" font-size="10.00">Photon.Pun.UtilityScripts.</text>
<text text-anchor="middle" x="266" y="-409.5" font-family="Helvetica,sans-Serif" font-size="10.00">PhotonTeamsManager</text>
</a>
</g>
</g>
<!-- Node1&#45;&gt;Node28 -->
<g id="edge27" class="edge">
<title>Node1&#45;&gt;Node28</title>
<path fill="none" stroke="midnightblue" d="M162.17,-417.5C175.4,-417.5 188.86,-417.5 201.5,-417.5"/>
<polygon fill="midnightblue" stroke="midnightblue" points="162.11,-414 152.11,-417.5 162.11,-421 162.11,-414"/>
</g>
<!-- Node29 -->
<g id="node29" class="node">
<title>Node29</title>
<g id="a_node29"><a xlink:href="class_photon_1_1_realtime_1_1_demo_1_1_connect_and_join_random_lb.xhtml" target="_top" xlink:title=" ">
<polygon fill="white" stroke="black" points="188,-353.5 188,-383.5 344,-383.5 344,-353.5 188,-353.5"/>
<text text-anchor="start" x="196" y="-371.5" font-family="Helvetica,sans-Serif" font-size="10.00">Photon.Realtime.Demo.Connect</text>
<text text-anchor="middle" x="266" y="-360.5" font-family="Helvetica,sans-Serif" font-size="10.00">AndJoinRandomLb</text>
</a>
</g>
</g>
<!-- Node1&#45;&gt;Node29 -->
<g id="edge28" class="edge">
<title>Node1&#45;&gt;Node29</title>
<path fill="none" stroke="midnightblue" d="M144.61,-399.88C165.18,-394.52 187.58,-388.68 207.43,-383.51"/>
<polygon fill="midnightblue" stroke="midnightblue" points="143.48,-396.56 134.68,-402.47 145.24,-403.33 143.48,-396.56"/>
</g>
<!-- Node30 -->
<g id="node30" class="node">
<title>Node30</title>
<g id="a_node30"><a xlink:href="class_photon_1_1_realtime_1_1_match_making_callbacks_container.xhtml" target="_top" xlink:title="Container type for callbacks defined by IMatchmakingCallbacks.">
<polygon fill="white" stroke="black" points="191,-304.5 191,-334.5 341,-334.5 341,-304.5 191,-304.5"/>
<text text-anchor="start" x="199" y="-322.5" font-family="Helvetica,sans-Serif" font-size="10.00">Photon.Realtime.MatchMaking</text>
<text text-anchor="middle" x="266" y="-311.5" font-family="Helvetica,sans-Serif" font-size="10.00">CallbacksContainer</text>
</a>
</g>
</g>
<!-- Node1&#45;&gt;Node30 -->
<g id="edge29" class="edge">
<title>Node1&#45;&gt;Node30</title>
<path fill="none" stroke="midnightblue" d="M104.6,-396.32C126.34,-380.41 157.9,-358.96 188,-344.5 195.6,-340.85 203.87,-337.54 212.07,-334.6"/>
<polygon fill="midnightblue" stroke="midnightblue" points="102.44,-393.57 96.49,-402.34 106.61,-399.19 102.44,-393.57"/>
</g>
<!-- Node31 -->
<g id="node31" class="node">
<title>Node31</title>
<g id="a_node31"><a xlink:href="class_photon_1_1_realtime_1_1_support_logger.xhtml" target="_top" xlink:title="Helper class to debug log basic information about Photon client and vital traffic statistics.">
<polygon fill="white" stroke="black" points="188.5,-266 188.5,-285 343.5,-285 343.5,-266 188.5,-266"/>
<text text-anchor="middle" x="266" y="-273" font-family="Helvetica,sans-Serif" font-size="10.00">Photon.Realtime.SupportLogger</text>
</a>
</g>
</g>
<!-- Node1&#45;&gt;Node31 -->
<g id="edge30" class="edge">
<title>Node1&#45;&gt;Node31</title>
<path fill="none" stroke="midnightblue" d="M92.18,-393.79C111.2,-366.02 146.42,-320.61 188,-295.5 195.21,-291.14 203.36,-287.73 211.59,-285.05"/>
<polygon fill="midnightblue" stroke="midnightblue" points="89.24,-391.89 86.58,-402.14 95.06,-395.78 89.24,-391.89"/>
</g>
<!-- Node3 -->
<g id="node3" class="node">
<title>Node3</title>
<g id="a_node3"><a xlink:href="class_connect_to_server.xhtml" target="_top" xlink:title=" ">
<polygon fill="white" stroke="black" points="409.5,-1046 409.5,-1065 499.5,-1065 499.5,-1046 409.5,-1046"/>
<text text-anchor="middle" x="454.5" y="-1053" font-family="Helvetica,sans-Serif" font-size="10.00">ConnectToServer</text>
</a>
</g>
</g>
<!-- Node2&#45;&gt;Node3 -->
<g id="edge2" class="edge">
<title>Node2&#45;&gt;Node3</title>
<path fill="none" stroke="midnightblue" d="M269.54,-580.07C278.96,-669.99 314.83,-969.83 380,-1036.5 387.83,-1044.51 398.57,-1049.3 409.41,-1052.12"/>
<polygon fill="midnightblue" stroke="midnightblue" points="273,-579.53 268.49,-569.95 266.04,-580.25 273,-579.53"/>
</g>
<!-- Node4 -->
<g id="node4" class="node">
<title>Node4</title>
<g id="a_node4"><a xlink:href="class_disconnection_checker.xhtml" target="_top" xlink:title=" ">
<polygon fill="white" stroke="black" points="397.5,-1008 397.5,-1027 511.5,-1027 511.5,-1008 397.5,-1008"/>
<text text-anchor="middle" x="454.5" y="-1015" font-family="Helvetica,sans-Serif" font-size="10.00">DisconnectionChecker</text>
</a>
</g>
</g>
<!-- Node2&#45;&gt;Node4 -->
<g id="edge3" class="edge">
<title>Node2&#45;&gt;Node4</title>
<path fill="none" stroke="midnightblue" d="M270.04,-579.7C280.77,-664.53 319.5,-937.77 380,-998.5 384.93,-1003.45 390.97,-1007.16 397.45,-1009.94"/>
<polygon fill="midnightblue" stroke="midnightblue" points="273.5,-579.16 268.79,-569.67 266.55,-580.02 273.5,-579.16"/>
</g>
<!-- Node5 -->
<g id="node5" class="node">
<title>Node5</title>
<g id="a_node5"><a xlink:href="class_lobby.xhtml" target="_top" xlink:title=" ">
<polygon fill="white" stroke="black" points="433,-970 433,-989 476,-989 476,-970 433,-970"/>
<text text-anchor="middle" x="454.5" y="-977" font-family="Helvetica,sans-Serif" font-size="10.00">Lobby</text>
</a>
</g>
</g>
<!-- Node2&#45;&gt;Node5 -->
<g id="edge4" class="edge">
<title>Node2&#45;&gt;Node5</title>
<path fill="none" stroke="midnightblue" d="M270.71,-579.88C282.91,-660.04 324.27,-905.8 380,-960.5 393.92,-974.16 416.31,-978.38 432.73,-979.5"/>
<polygon fill="midnightblue" stroke="midnightblue" points="274.13,-579.07 269.18,-569.7 267.2,-580.11 274.13,-579.07"/>
</g>
<!-- Node6 -->
<g id="node6" class="node">
<title>Node6</title>
<g id="a_node6"><a xlink:href="class_main_menu.xhtml" target="_top" xlink:title=" ">
<polygon fill="white" stroke="black" points="423.5,-932 423.5,-951 485.5,-951 485.5,-932 423.5,-932"/>
<text text-anchor="middle" x="454.5" y="-939" font-family="Helvetica,sans-Serif" font-size="10.00">MainMenu</text>
</a>
</g>
</g>
<!-- Node2&#45;&gt;Node6 -->
<g id="edge5" class="edge">
<title>Node2&#45;&gt;Node6</title>
<path fill="none" stroke="midnightblue" d="M266.86,-580.17C267.95,-646.91 280.45,-827.33 380,-922.5 391.53,-933.52 408.58,-938.37 423.36,-940.42"/>
<polygon fill="midnightblue" stroke="midnightblue" points="270.35,-579.73 266.77,-569.76 263.35,-579.79 270.35,-579.73"/>
</g>
<!-- Node7 -->
<g id="node7" class="node">
<title>Node7</title>
<g id="a_node7"><a xlink:href="class_photon_1_1_pun_1_1_demo_1_1_asteroids_1_1_asteroids_game_manager.xhtml" target="_top" xlink:title=" ">
<polygon fill="white" stroke="black" points="383,-882.5 383,-912.5 526,-912.5 526,-882.5 383,-882.5"/>
<text text-anchor="start" x="391" y="-900.5" font-family="Helvetica,sans-Serif" font-size="10.00">Photon.Pun.Demo.Asteroids.</text>
<text text-anchor="middle" x="454.5" y="-889.5" font-family="Helvetica,sans-Serif" font-size="10.00">AsteroidsGameManager</text>
</a>
</g>
</g>
<!-- Node2&#45;&gt;Node7 -->
<g id="edge6" class="edge">
<title>Node2&#45;&gt;Node7</title>
<path fill="none" stroke="midnightblue" d="M268.59,-579.67C273.72,-639.32 294.87,-790.46 380,-873.5 383.56,-876.97 387.62,-879.94 391.97,-882.47"/>
<polygon fill="midnightblue" stroke="midnightblue" points="272.08,-579.34 267.81,-569.64 265.1,-579.88 272.08,-579.34"/>
</g>
<!-- Node8 -->
<g id="node8" class="node">
<title>Node8</title>
<g id="a_node8"><a xlink:href="class_photon_1_1_pun_1_1_demo_1_1_asteroids_1_1_lobby_main_panel.xhtml" target="_top" xlink:title=" ">
<polygon fill="white" stroke="black" points="383,-833.5 383,-863.5 526,-863.5 526,-833.5 383,-833.5"/>
<text text-anchor="start" x="391" y="-851.5" font-family="Helvetica,sans-Serif" font-size="10.00">Photon.Pun.Demo.Asteroids.</text>
<text text-anchor="middle" x="454.5" y="-840.5" font-family="Helvetica,sans-Serif" font-size="10.00">LobbyMainPanel</text>
</a>
</g>
</g>
<!-- Node2&#45;&gt;Node8 -->
<g id="edge7" class="edge">
<title>Node2&#45;&gt;Node8</title>
<path fill="none" stroke="midnightblue" d="M270.45,-579.73C279.04,-632.76 306.25,-756.47 380,-824.5 383.75,-827.96 388.01,-830.92 392.53,-833.45"/>
<polygon fill="midnightblue" stroke="midnightblue" points="273.87,-578.89 268.89,-569.53 266.95,-579.95 273.87,-578.89"/>
</g>
<!-- Node9 -->
<g id="node9" class="node">
<title>Node9</title>
<g id="a_node9"><a xlink:href="class_photon_1_1_pun_1_1_demo_1_1_asteroids_1_1_player_overview_panel.xhtml" target="_top" xlink:title=" ">
<polygon fill="white" stroke="black" points="383,-784.5 383,-814.5 526,-814.5 526,-784.5 383,-784.5"/>
<text text-anchor="start" x="391" y="-802.5" font-family="Helvetica,sans-Serif" font-size="10.00">Photon.Pun.Demo.Asteroids.</text>
<text text-anchor="middle" x="454.5" y="-791.5" font-family="Helvetica,sans-Serif" font-size="10.00">PlayerOverviewPanel</text>
</a>
</g>
</g>
<!-- Node2&#45;&gt;Node9 -->
<g id="edge8" class="edge">
<title>Node2&#45;&gt;Node9</title>
<path fill="none" stroke="midnightblue" d="M273.02,-579.54C285.26,-625.16 317.36,-722 380,-775.5 383.98,-778.9 388.45,-781.82 393.18,-784.33"/>
<polygon fill="midnightblue" stroke="midnightblue" points="276.34,-578.42 270.45,-569.61 269.56,-580.17 276.34,-578.42"/>
</g>
<!-- Node10 -->
<g id="node10" class="node">
<title>Node10</title>
<g id="a_node10"><a xlink:href="class_photon_1_1_pun_1_1_demo_1_1_cockpit_1_1_friend_list_view.xhtml" target="_top" xlink:title="Friend list UI view.">
<polygon fill="white" stroke="black" points="387,-735.5 387,-765.5 522,-765.5 522,-735.5 387,-735.5"/>
<text text-anchor="start" x="395" y="-753.5" font-family="Helvetica,sans-Serif" font-size="10.00">Photon.Pun.Demo.Cockpit.</text>
<text text-anchor="middle" x="454.5" y="-742.5" font-family="Helvetica,sans-Serif" font-size="10.00">FriendListView</text>
</a>
</g>
</g>
<!-- Node2&#45;&gt;Node10 -->
<g id="edge9" class="edge">
<title>Node2&#45;&gt;Node10</title>
<path fill="none" stroke="midnightblue" d="M276.82,-579.19C292.88,-616.46 328.23,-686.94 380,-726.5 384.48,-729.92 389.47,-732.87 394.68,-735.4"/>
<polygon fill="midnightblue" stroke="midnightblue" points="279.9,-577.48 272.81,-569.61 273.44,-580.19 279.9,-577.48"/>
</g>
<!-- Node11 -->
<g id="node11" class="node">
<title>Node11</title>
<g id="a_node11"><a xlink:href="class_photon_1_1_pun_1_1_demo_1_1_cockpit_1_1_player_details_controller.xhtml" target="_top" xlink:title="Controller for the Playerdetails UI view">
<polygon fill="white" stroke="black" points="387,-686.5 387,-716.5 522,-716.5 522,-686.5 387,-686.5"/>
<text text-anchor="start" x="395" y="-704.5" font-family="Helvetica,sans-Serif" font-size="10.00">Photon.Pun.Demo.Cockpit.</text>
<text text-anchor="middle" x="454.5" y="-693.5" font-family="Helvetica,sans-Serif" font-size="10.00">PlayerDetailsController</text>
</a>
</g>
</g>
<!-- Node2&#45;&gt;Node11 -->
<g id="edge10" class="edge">
<title>Node2&#45;&gt;Node11</title>
<path fill="none" stroke="midnightblue" d="M282.78,-577.96C302.47,-605.53 338.63,-650.88 380,-677.5 385.31,-680.91 391.14,-683.88 397.13,-686.46"/>
<polygon fill="midnightblue" stroke="midnightblue" points="285.58,-575.86 276.98,-569.68 279.85,-579.88 285.58,-575.86"/>
</g>
<!-- Node12 -->
<g id="node12" class="node">
<title>Node12</title>
<g id="a_node12"><a xlink:href="class_photon_1_1_pun_1_1_demo_1_1_cockpit_1_1_player_list_view.xhtml" target="_top" xlink:title="Player list UI View.">
<polygon fill="white" stroke="black" points="387,-637.5 387,-667.5 522,-667.5 522,-637.5 387,-637.5"/>
<text text-anchor="start" x="395" y="-655.5" font-family="Helvetica,sans-Serif" font-size="10.00">Photon.Pun.Demo.Cockpit.</text>
<text text-anchor="middle" x="454.5" y="-644.5" font-family="Helvetica,sans-Serif" font-size="10.00">PlayerListView</text>
</a>
</g>
</g>
<!-- Node2&#45;&gt;Node12 -->
<g id="edge11" class="edge">
<title>Node2&#45;&gt;Node12</title>
<path fill="none" stroke="midnightblue" d="M294.72,-575.65C316.87,-591.8 349.21,-613.71 380,-628.5 386.78,-631.75 394.11,-634.73 401.42,-637.4"/>
<polygon fill="midnightblue" stroke="midnightblue" points="296.59,-572.68 286.46,-569.55 292.43,-578.31 296.59,-572.68"/>
</g>
<!-- Node13 -->
<g id="node13" class="node">
<title>Node13</title>
<g id="a_node13"><a xlink:href="class_photon_1_1_pun_1_1_demo_1_1_cockpit_1_1_pun_cockpit.xhtml" target="_top" xlink:title="UI based work in progress to test out api and act as foundation when dealing with room,...">
<polygon fill="white" stroke="black" points="387,-588.5 387,-618.5 522,-618.5 522,-588.5 387,-588.5"/>
<text text-anchor="start" x="395" y="-606.5" font-family="Helvetica,sans-Serif" font-size="10.00">Photon.Pun.Demo.Cockpit.</text>
<text text-anchor="middle" x="454.5" y="-595.5" font-family="Helvetica,sans-Serif" font-size="10.00">PunCockpit</text>
</a>
</g>
</g>
<!-- Node2&#45;&gt;Node13 -->
<g id="edge12" class="edge">
<title>Node2&#45;&gt;Node13</title>
<path fill="none" stroke="midnightblue" d="M334.07,-572.12C354.48,-577.48 376.7,-583.32 396.38,-588.49"/>
<polygon fill="midnightblue" stroke="midnightblue" points="334.78,-568.69 324.22,-569.53 333.01,-575.46 334.78,-568.69"/>
</g>
<!-- Node14 -->
<g id="node14" class="node">
<title>Node14</title>
<g id="a_node14"><a xlink:href="class_photon_1_1_pun_1_1_demo_1_1_cockpit_1_1_pun_cockpit_embed.xhtml" target="_top" xlink:title="Use this in scenes you want to leave Control for connection and pun related commands to Cockpit.">
<polygon fill="white" stroke="black" points="387,-539.5 387,-569.5 522,-569.5 522,-539.5 387,-539.5"/>
<text text-anchor="start" x="395" y="-557.5" font-family="Helvetica,sans-Serif" font-size="10.00">Photon.Pun.Demo.Cockpit.</text>
<text text-anchor="middle" x="454.5" y="-546.5" font-family="Helvetica,sans-Serif" font-size="10.00">PunCockpitEmbed</text>
</a>
</g>
</g>
<!-- Node2&#45;&gt;Node14 -->
<g id="edge13" class="edge">
<title>Node2&#45;&gt;Node14</title>
<path fill="none" stroke="midnightblue" d="M344.67,-554.5C358.66,-554.5 373.12,-554.5 386.76,-554.5"/>
<polygon fill="midnightblue" stroke="midnightblue" points="344.59,-551 334.59,-554.5 344.59,-558 344.59,-551"/>
</g>
<!-- Node15 -->
<g id="node15" class="node">
<title>Node15</title>
<g id="a_node15"><a xlink:href="class_photon_1_1_pun_1_1_demo_1_1_cockpit_1_1_room_list_view.xhtml" target="_top" xlink:title="Room list UI View.">
<polygon fill="white" stroke="black" points="387,-490.5 387,-520.5 522,-520.5 522,-490.5 387,-490.5"/>
<text text-anchor="start" x="395" y="-508.5" font-family="Helvetica,sans-Serif" font-size="10.00">Photon.Pun.Demo.Cockpit.</text>
<text text-anchor="middle" x="454.5" y="-497.5" font-family="Helvetica,sans-Serif" font-size="10.00">RoomListView</text>
</a>
</g>
</g>
<!-- Node2&#45;&gt;Node15 -->
<g id="edge14" class="edge">
<title>Node2&#45;&gt;Node15</title>
<path fill="none" stroke="midnightblue" d="M334.07,-536.88C354.48,-531.52 376.7,-525.68 396.38,-520.51"/>
<polygon fill="midnightblue" stroke="midnightblue" points="333.01,-533.54 324.22,-539.47 334.78,-540.31 333.01,-533.54"/>
</g>
<!-- Node16 -->
<g id="node16" class="node">
<title>Node16</title>
<g id="a_node16"><a xlink:href="class_photon_1_1_pun_1_1_demo_1_1_procedural_1_1_cluster.xhtml" target="_top" xlink:title="The Cluster component has references to all Blocks that are part of this Cluster.">
<polygon fill="white" stroke="black" points="380,-441.5 380,-471.5 529,-471.5 529,-441.5 380,-441.5"/>
<text text-anchor="start" x="388" y="-459.5" font-family="Helvetica,sans-Serif" font-size="10.00">Photon.Pun.Demo.Procedural.</text>
<text text-anchor="middle" x="454.5" y="-448.5" font-family="Helvetica,sans-Serif" font-size="10.00">Cluster</text>
</a>
</g>
</g>
<!-- Node2&#45;&gt;Node16 -->
<g id="edge15" class="edge">
<title>Node2&#45;&gt;Node16</title>
<path fill="none" stroke="midnightblue" d="M335.52,-534.85C338.47,-533.2 341.31,-531.42 344,-529.5 365.69,-513.99 358.41,-497.16 380,-481.5 385.24,-477.7 391.09,-474.45 397.15,-471.67"/>
<polygon fill="midnightblue" stroke="midnightblue" points="333.8,-531.8 326.42,-539.4 336.93,-538.06 333.8,-531.8"/>
</g>
<!-- Node17 -->
<g id="node17" class="node">
<title>Node17</title>
<g id="a_node17"><a xlink:href="class_photon_1_1_pun_1_1_demo_1_1_procedural_1_1_ingame_control_panel.xhtml" target="_top" xlink:title="The Ingame Control Panel basically controls the WorldGenerator.">
<polygon fill="white" stroke="black" points="380,-392.5 380,-422.5 529,-422.5 529,-392.5 380,-392.5"/>
<text text-anchor="start" x="388" y="-410.5" font-family="Helvetica,sans-Serif" font-size="10.00">Photon.Pun.Demo.Procedural.</text>
<text text-anchor="middle" x="454.5" y="-399.5" font-family="Helvetica,sans-Serif" font-size="10.00">IngameControlPanel</text>
</a>
</g>
</g>
<!-- Node2&#45;&gt;Node17 -->
<g id="edge16" class="edge">
<title>Node2&#45;&gt;Node17</title>
<path fill="none" stroke="midnightblue" d="M338.77,-533.95C340.6,-532.56 342.35,-531.08 344,-529.5 377.18,-497.66 347.04,-464.57 380,-432.5 383.96,-428.65 388.54,-425.39 393.43,-422.63"/>
<polygon fill="midnightblue" stroke="midnightblue" points="336.77,-531.08 330.28,-539.45 340.58,-536.95 336.77,-531.08"/>
</g>
<!-- Node18 -->
<g id="node18" class="node">
<title>Node18</title>
<g id="a_node18"><a xlink:href="class_photon_1_1_pun_1_1_demo_1_1_pun_basics_1_1_game_manager.xhtml" target="_top" xlink:title="Game manager.">
<polygon fill="white" stroke="black" points="380,-343.5 380,-373.5 529,-373.5 529,-343.5 380,-343.5"/>
<text text-anchor="start" x="388" y="-361.5" font-family="Helvetica,sans-Serif" font-size="10.00">Photon.Pun.Demo.PunBasics.</text>
<text text-anchor="middle" x="454.5" y="-350.5" font-family="Helvetica,sans-Serif" font-size="10.00">GameManager</text>
</a>
</g>
</g>
<!-- Node2&#45;&gt;Node18 -->
<g id="edge17" class="edge">
<title>Node2&#45;&gt;Node18</title>
<path fill="none" stroke="midnightblue" d="M339.66,-533.65C341.18,-532.35 342.64,-530.97 344,-529.5 389.52,-480.57 334.82,-432.75 380,-383.5 383.55,-379.63 387.73,-376.35 392.26,-373.59"/>
<polygon fill="midnightblue" stroke="midnightblue" points="337.59,-530.83 331.5,-539.5 341.67,-536.52 337.59,-530.83"/>
</g>
<!-- Node19 -->
<g id="node19" class="node">
<title>Node19</title>
<g id="a_node19"><a xlink:href="class_photon_1_1_pun_1_1_demo_1_1_pun_basics_1_1_launcher.xhtml" target="_top" xlink:title="Launch manager.">
<polygon fill="white" stroke="black" points="380,-294.5 380,-324.5 529,-324.5 529,-294.5 380,-294.5"/>
<text text-anchor="start" x="388" y="-312.5" font-family="Helvetica,sans-Serif" font-size="10.00">Photon.Pun.Demo.PunBasics.</text>
<text text-anchor="middle" x="454.5" y="-301.5" font-family="Helvetica,sans-Serif" font-size="10.00">Launcher</text>
</a>
</g>
</g>
<!-- Node2&#45;&gt;Node19 -->
<g id="edge18" class="edge">
<title>Node2&#45;&gt;Node19</title>
<path fill="none" stroke="midnightblue" d="M340.71,-532.9C341.86,-531.82 342.96,-530.69 344,-529.5 402.09,-463.23 322.37,-401.18 380,-334.5 383.35,-330.63 387.32,-327.35 391.66,-324.58"/>
<polygon fill="midnightblue" stroke="midnightblue" points="338.24,-530.39 332.47,-539.27 342.52,-535.92 338.24,-530.39"/>
</g>
<!-- Node20 -->
<g id="node20" class="node">
<title>Node20</title>
<g id="a_node20"><a xlink:href="class_photon_1_1_pun_1_1_demo_1_1_pun_basics_1_1_player_manager.xhtml" target="_top" xlink:title="Player manager.">
<polygon fill="white" stroke="black" points="380,-245.5 380,-275.5 529,-275.5 529,-245.5 380,-245.5"/>
<text text-anchor="start" x="388" y="-263.5" font-family="Helvetica,sans-Serif" font-size="10.00">Photon.Pun.Demo.PunBasics.</text>
<text text-anchor="middle" x="454.5" y="-252.5" font-family="Helvetica,sans-Serif" font-size="10.00">PlayerManager</text>
</a>
</g>
</g>
<!-- Node2&#45;&gt;Node20 -->
<g id="edge19" class="edge">
<title>Node2&#45;&gt;Node20</title>
<path fill="none" stroke="midnightblue" d="M340.77,-532.95C341.9,-531.86 342.98,-530.71 344,-529.5 414.76,-445.78 309.83,-369.71 380,-285.5 383.19,-281.67 387,-278.42 391.17,-275.67"/>
<polygon fill="midnightblue" stroke="midnightblue" points="338.29,-530.45 332.62,-539.41 342.64,-535.94 338.29,-530.45"/>
</g>
<!-- Node21 -->
<g id="node21" class="node">
<title>Node21</title>
<g id="a_node21"><a xlink:href="class_photon_1_1_pun_1_1_utility_scripts_1_1_connect_and_join_random.xhtml" target="_top" xlink:title="Simple component to call ConnectUsingSettings and to get into a PUN room easily.">
<polygon fill="white" stroke="black" points="390,-196.5 390,-226.5 519,-226.5 519,-196.5 390,-196.5"/>
<text text-anchor="start" x="398" y="-214.5" font-family="Helvetica,sans-Serif" font-size="10.00">Photon.Pun.UtilityScripts.</text>
<text text-anchor="middle" x="454.5" y="-203.5" font-family="Helvetica,sans-Serif" font-size="10.00">ConnectAndJoinRandom</text>
</a>
</g>
</g>
<!-- Node2&#45;&gt;Node21 -->
<g id="edge20" class="edge">
<title>Node2&#45;&gt;Node21</title>
<path fill="none" stroke="midnightblue" d="M340.81,-532.99C341.93,-531.88 342.99,-530.72 344,-529.5 427.47,-428.27 297.24,-338.3 380,-236.5 383.15,-232.63 386.92,-229.36 391.07,-226.59"/>
<polygon fill="midnightblue" stroke="midnightblue" points="338.32,-530.49 332.73,-539.49 342.71,-535.95 338.32,-530.49"/>
</g>
<!-- Node22 -->
<g id="node22" class="node">
<title>Node22</title>
<g id="a_node22"><a xlink:href="class_photon_1_1_pun_1_1_utility_scripts_1_1_countdown_timer.xhtml" target="_top" xlink:title="This is a basic, network&#45;synced CountdownTimer based on properties.">
<polygon fill="white" stroke="black" points="390,-147.5 390,-177.5 519,-177.5 519,-147.5 390,-147.5"/>
<text text-anchor="start" x="398" y="-165.5" font-family="Helvetica,sans-Serif" font-size="10.00">Photon.Pun.UtilityScripts.</text>
<text text-anchor="middle" x="454.5" y="-154.5" font-family="Helvetica,sans-Serif" font-size="10.00">CountdownTimer</text>
</a>
</g>
</g>
<!-- Node2&#45;&gt;Node22 -->
<g id="edge21" class="edge">
<title>Node2&#45;&gt;Node22</title>
<path fill="none" stroke="midnightblue" d="M340.93,-532.92C342.01,-531.83 343.03,-530.69 344,-529.5 440.21,-410.74 284.62,-306.93 380,-187.5 383.11,-183.6 386.86,-180.31 390.99,-177.53"/>
<polygon fill="midnightblue" stroke="midnightblue" points="338.65,-530.26 333.15,-539.32 343.1,-535.67 338.65,-530.26"/>
</g>
<!-- Node23 -->
<g id="node23" class="node">
<title>Node23</title>
<g id="a_node23"><a xlink:href="class_photon_1_1_pun_1_1_utility_scripts_1_1_player_numbering.xhtml" target="_top" xlink:title="Implements consistent numbering in a room/game with help of room properties.">
<polygon fill="white" stroke="black" points="390,-98.5 390,-128.5 519,-128.5 519,-98.5 390,-98.5"/>
<text text-anchor="start" x="398" y="-116.5" font-family="Helvetica,sans-Serif" font-size="10.00">Photon.Pun.UtilityScripts.</text>
<text text-anchor="middle" x="454.5" y="-105.5" font-family="Helvetica,sans-Serif" font-size="10.00">PlayerNumbering</text>
</a>
</g>
</g>
<!-- Node2&#45;&gt;Node23 -->
<g id="edge22" class="edge">
<title>Node2&#45;&gt;Node23</title>
<path fill="none" stroke="midnightblue" d="M340.95,-532.93C342.02,-531.84 343.04,-530.7 344,-529.5 398.48,-461.34 325.99,-207.04 380,-138.5 383,-134.69 386.62,-131.46 390.61,-128.71"/>
<polygon fill="midnightblue" stroke="midnightblue" points="338.67,-530.28 333.21,-539.37 343.14,-535.67 338.67,-530.28"/>
</g>
<!-- Node24 -->
<g id="node24" class="node">
<title>Node24</title>
<g id="a_node24"><a xlink:href="class_photon_1_1_pun_1_1_utility_scripts_1_1_pun_teams.xhtml" target="_top" xlink:title="Implements teams in a room/game with help of player properties.">
<polygon fill="white" stroke="black" points="390,-49.5 390,-79.5 519,-79.5 519,-49.5 390,-49.5"/>
<text text-anchor="start" x="398" y="-67.5" font-family="Helvetica,sans-Serif" font-size="10.00">Photon.Pun.UtilityScripts.</text>
<text text-anchor="middle" x="454.5" y="-56.5" font-family="Helvetica,sans-Serif" font-size="10.00">PunTeams</text>
</a>
</g>
</g>
<!-- Node2&#45;&gt;Node24 -->
<g id="edge23" class="edge">
<title>Node2&#45;&gt;Node24</title>
<path fill="none" stroke="midnightblue" d="M340.97,-532.95C342.03,-531.85 343.05,-530.71 344,-529.5 404.86,-452.56 319.67,-166.86 380,-89.5 382.98,-85.67 386.58,-82.43 390.56,-79.68"/>
<polygon fill="midnightblue" stroke="midnightblue" points="338.68,-530.3 333.25,-539.4 343.17,-535.67 338.68,-530.3"/>
</g>
<!-- Node25 -->
<g id="node25" class="node">
<title>Node25</title>
<g id="a_node25"><a xlink:href="class_photon_1_1_pun_1_1_utility_scripts_1_1_pun_turn_manager.xhtml" target="_top" xlink:title="Pun turnBased Game manager.">
<polygon fill="white" stroke="black" points="390,-0.5 390,-30.5 519,-30.5 519,-0.5 390,-0.5"/>
<text text-anchor="start" x="398" y="-18.5" font-family="Helvetica,sans-Serif" font-size="10.00">Photon.Pun.UtilityScripts.</text>
<text text-anchor="middle" x="454.5" y="-7.5" font-family="Helvetica,sans-Serif" font-size="10.00">PunTurnManager</text>
</a>
</g>
</g>
<!-- Node2&#45;&gt;Node25 -->
<g id="edge24" class="edge">
<title>Node2&#45;&gt;Node25</title>
<path fill="none" stroke="midnightblue" d="M340.98,-532.96C342.04,-531.86 343.05,-530.71 344,-529.5 411.38,-443.59 312.69,-125.47 380,-39.5 382.81,-35.91 386.18,-32.84 389.89,-30.24"/>
<polygon fill="midnightblue" stroke="midnightblue" points="338.69,-530.31 333.29,-539.43 343.19,-535.67 338.69,-530.31"/>
</g>
</g>
</svg>
        <g id="navigator" transform="translate(0 0)" fill="#404254">
                <rect fill="#f2f5e9" fill-opacity="0.5" stroke="#606060" stroke-width=".5" x="0" y="0" width="60" height="60"/>
                <use id="zoomplus" xlink:href="#zoomPlus" x="17" y="9" onmousedown="handleZoom(evt,'in')"/>
                <use id="zoomminus" xlink:href="#zoomMin" x="42" y="9" onmousedown="handleZoom(evt,'out')"/>
                <use id="reset" xlink:href="#resetDef" x="30" y="36" onmousedown="handleReset()"/>
                <g id="arrowUp" xlink:href="#dirArrow" transform="translate(30 24)" onmousedown="handlePan(0,-1)">
                  <use xlink:href="#rim" fill="#404040">
                        <set attributeName="fill" to="#808080" begin="arrowUp.mouseover" end="arrowUp.mouseout"/>
                  </use>
                  <path fill="none" stroke="white" stroke-width="1.5" d="M0,-3.0v7 M-2.5,-0.5L0,-3.0L2.5,-0.5"/>
                </g>
                <g id="arrowRight" xlink:href="#dirArrow" transform="rotate(90) translate(36 -43)" onmousedown="handlePan(1,0)">
                  <use xlink:href="#rim" fill="#404040">
                        <set attributeName="fill" to="#808080" begin="arrowRight.mouseover" end="arrowRight.mouseout"/>
                  </use>
                  <path fill="none" stroke="white" stroke-width="1.5" d="M0,-3.0v7 M-2.5,-0.5L0,-3.0L2.5,-0.5"/>
                </g>
                <g id="arrowDown" xlink:href="#dirArrow" transform="rotate(180) translate(-30 -48)" onmousedown="handlePan(0,1)">
                  <use xlink:href="#rim" fill="#404040">
                        <set attributeName="fill" to="#808080" begin="arrowDown.mouseover" end="arrowDown.mouseout"/>
                  </use>
                  <path fill="none" stroke="white" stroke-width="1.5" d="M0,-3.0v7 M-2.5,-0.5L0,-3.0L2.5,-0.5"/>
                </g>
                <g id="arrowLeft" xlink:href="#dirArrow" transform="rotate(270) translate(-36 17)" onmousedown="handlePan(-1,0)">
                  <use xlink:href="#rim" fill="#404040">
                        <set attributeName="fill" to="#808080" begin="arrowLeft.mouseover" end="arrowLeft.mouseout"/>
                  </use>
                  <path fill="none" stroke="white" stroke-width="1.5" d="M0,-3.0v7 M-2.5,-0.5L0,-3.0L2.5,-0.5"/>
                </g>
        </g>
        <svg viewBox="0 0 15 15" width="100%" height="30px" preserveAspectRatio="xMaxYMin meet">
         <g id="arrow_out" transform="scale(0.3 0.3)">
          <a xlink:href="interface_photon_1_1_realtime_1_1_i_matchmaking_callbacks__inherit__graph_org.svg" target="_base">
           <rect id="button" ry="5" rx="5" y="6" x="6" height="38" width="38"
                fill="#f2f5e9" fill-opacity="0.5" stroke="#606060" stroke-width="1.0"/>
           <path id="arrow"
             d="M 11.500037,31.436501 C 11.940474,20.09759 22.043105,11.32322 32.158766,21.979434 L 37.068811,17.246167 C 37.068811,17.246167 37.088388,32 37.088388,32 L 22.160133,31.978069 C 22.160133,31.978069 26.997745,27.140456 26.997745,27.140456 C 18.528582,18.264221 13.291696,25.230495 11.500037,31.436501 z"
             style="fill:#404040;"/>
          </a>
         </g>
        </svg>
</svg>
