<?xml version="1.0" encoding="UTF-8" standalone="no"?>
<!DOCTYPE svg PUBLIC "-//W3C//DTD SVG 1.1//EN"
 "http://www.w3.org/Graphics/SVG/1.1/DTD/svg11.dtd">
<!-- Generated by graphviz version 2.47.3 (20210619.1520)
 -->
<!-- Title: Photon.Realtime.ILobbyCallbacks Pages: 1 -->
<!--zoomable 1074 -->
<svg id="main" version="1.1" xmlns="http://www.w3.org/2000/svg" xmlns:xlink="http://www.w3.org/1999/xlink" xml:space="preserve" onload="init(evt)">
<style type="text/css"><![CDATA[
.edge:hover path { stroke: red; }
.edge:hover polygon { stroke: red; fill: red; }
]]></style>
<script type="text/javascript"><![CDATA[
var edges = document.getElementsByTagName('g');
if (edges && edges.length) {
  for (var i=0;i<edges.length;i++) {
    if (edges[i].id.substr(0,4)=='edge') {
      edges[i].setAttribute('class','edge');
    }
  }
}
]]></script>
        <defs>
                <circle id="rim" cx="0" cy="0" r="7"/>
                <circle id="rim2" cx="0" cy="0" r="3.5"/>
                <g id="zoomPlus">
                        <use xlink:href="#rim" fill="#404040">
                                <set attributeName="fill" to="#808080" begin="zoomplus.mouseover" end="zoomplus.mouseout"/>
                        </use>
                        <path d="M-4,0h8M0,-4v8" fill="none" stroke="white" stroke-width="1.5" pointer-events="none"/>
                </g>
                <g id="zoomMin">
                        <use xlink:href="#rim" fill="#404040">
                                <set attributeName="fill" to="#808080" begin="zoomminus.mouseover" end="zoomminus.mouseout"/>
                        </use>
                        <path d="M-4,0h8" fill="none" stroke="white" stroke-width="1.5" pointer-events="none"/>
                </g>
                <g id="dirArrow">
                        <path fill="none" stroke="white" stroke-width="1.5" d="M0,-3.0v7 M-2.5,-0.5L0,-3.0L2.5,-0.5"/>
                </g>
               <g id="resetDef">
                       <use xlink:href="#rim2" fill="#404040">
                               <set attributeName="fill" to="#808080" begin="reset.mouseover" end="reset.mouseout"/>
                       </use>
               </g>
        </defs>

<script type="text/javascript">
var viewWidth = 553;
var viewHeight = 1074;
var sectionId = 'dynsection-0';
</script>
<script xlink:href="svgpan.js"/>
<svg id="graph" class="graph">
<g id="viewport">
<title>Photon.Realtime.ILobbyCallbacks</title>
<polygon fill="white" stroke="transparent" points="-4,4 -4,-1069.5 549,-1069.5 549,4 -4,4"/>
<!-- Node1 -->
<g id="node1" class="node">
<title>Node1</title>
<g id="a_node1"><a xlink:title="Collection of &quot;organizational&quot; callbacks for the Realtime Api to cover the Lobby.">
<polygon fill="#bfbfbf" stroke="black" points="0,-471 0,-490 163,-490 163,-471 0,-471"/>
<text text-anchor="middle" x="81.5" y="-478" font-family="Helvetica,sans-Serif" font-size="10.00">Photon.Realtime.ILobbyCallbacks</text>
</a>
</g>
</g>
<!-- Node2 -->
<g id="node2" class="node">
<title>Node2</title>
<g id="a_node2"><a xlink:href="class_photon_1_1_pun_1_1_mono_behaviour_pun_callbacks.xhtml" target="_top" xlink:title="This class provides a .photonView and all callbacks/events that PUN can call.">
<polygon fill="white" stroke="black" points="211,-539.5 211,-569.5 348,-569.5 348,-539.5 211,-539.5"/>
<text text-anchor="start" x="219" y="-557.5" font-family="Helvetica,sans-Serif" font-size="10.00">Photon.Pun.MonoBehaviour</text>
<text text-anchor="middle" x="279.5" y="-546.5" font-family="Helvetica,sans-Serif" font-size="10.00">PunCallbacks</text>
</a>
</g>
</g>
<!-- Node1&#45;&gt;Node2 -->
<g id="edge1" class="edge">
<title>Node1&#45;&gt;Node2</title>
<path fill="none" stroke="midnightblue" d="M112.18,-494.33C135.51,-504.94 168.96,-519.56 199,-530.5 207.53,-533.61 216.68,-536.64 225.63,-539.45"/>
<polygon fill="midnightblue" stroke="midnightblue" points="113.39,-491.04 102.84,-490.06 110.48,-497.4 113.39,-491.04"/>
</g>
<!-- Node26 -->
<g id="node26" class="node">
<title>Node26</title>
<g id="a_node26"><a xlink:href="class_photon_1_1_realtime_1_1_demo_1_1_connect_and_join_random_lb.xhtml" target="_top" xlink:title=" ">
<polygon fill="white" stroke="black" points="201.5,-490.5 201.5,-520.5 357.5,-520.5 357.5,-490.5 201.5,-490.5"/>
<text text-anchor="start" x="209.5" y="-508.5" font-family="Helvetica,sans-Serif" font-size="10.00">Photon.Realtime.Demo.Connect</text>
<text text-anchor="middle" x="279.5" y="-497.5" font-family="Helvetica,sans-Serif" font-size="10.00">AndJoinRandomLb</text>
</a>
</g>
</g>
<!-- Node1&#45;&gt;Node26 -->
<g id="edge25" class="edge">
<title>Node1&#45;&gt;Node26</title>
<path fill="none" stroke="midnightblue" d="M167.11,-491.29C178.52,-492.75 190.18,-494.23 201.45,-495.67"/>
<polygon fill="midnightblue" stroke="midnightblue" points="167.52,-487.82 157.16,-490.02 166.64,-494.76 167.52,-487.82"/>
</g>
<!-- Node27 -->
<g id="node27" class="node">
<title>Node27</title>
<g id="a_node27"><a xlink:title=" ">
<polygon fill="white" stroke="#bfbfbf" points="199,-441.5 199,-471.5 360,-471.5 360,-441.5 199,-441.5"/>
<text text-anchor="start" x="207" y="-459.5" font-family="Helvetica,sans-Serif" font-size="10.00">Photon.Realtime.LobbyCallbacks</text>
<text text-anchor="middle" x="279.5" y="-448.5" font-family="Helvetica,sans-Serif" font-size="10.00">Container</text>
</a>
</g>
</g>
<!-- Node1&#45;&gt;Node27 -->
<g id="edge26" class="edge">
<title>Node1&#45;&gt;Node27</title>
<path fill="none" stroke="midnightblue" d="M170.46,-469.73C179.94,-468.57 189.55,-467.39 198.92,-466.24"/>
<polygon fill="midnightblue" stroke="midnightblue" points="169.75,-466.29 160.25,-470.98 170.6,-473.24 169.75,-466.29"/>
</g>
<!-- Node28 -->
<g id="node28" class="node">
<title>Node28</title>
<g id="a_node28"><a xlink:href="class_photon_1_1_realtime_1_1_support_logger.xhtml" target="_top" xlink:title="Helper class to debug log basic information about Photon client and vital traffic statistics.">
<polygon fill="white" stroke="black" points="202,-403 202,-422 357,-422 357,-403 202,-403"/>
<text text-anchor="middle" x="279.5" y="-410" font-family="Helvetica,sans-Serif" font-size="10.00">Photon.Realtime.SupportLogger</text>
</a>
</g>
</g>
<!-- Node1&#45;&gt;Node28 -->
<g id="edge27" class="edge">
<title>Node1&#45;&gt;Node28</title>
<path fill="none" stroke="midnightblue" d="M112.53,-466.72C135.79,-456.39 169.01,-442.39 199,-432.5 210.76,-428.62 223.71,-425.07 235.68,-422.07"/>
<polygon fill="midnightblue" stroke="midnightblue" points="110.9,-463.62 103.2,-470.9 113.76,-470.01 110.9,-463.62"/>
</g>
<!-- Node3 -->
<g id="node3" class="node">
<title>Node3</title>
<g id="a_node3"><a xlink:href="class_connect_to_server.xhtml" target="_top" xlink:title=" ">
<polygon fill="white" stroke="black" points="425.5,-1046 425.5,-1065 515.5,-1065 515.5,-1046 425.5,-1046"/>
<text text-anchor="middle" x="470.5" y="-1053" font-family="Helvetica,sans-Serif" font-size="10.00">ConnectToServer</text>
</a>
</g>
</g>
<!-- Node2&#45;&gt;Node3 -->
<g id="edge2" class="edge">
<title>Node2&#45;&gt;Node3</title>
<path fill="none" stroke="midnightblue" d="M283.18,-580.07C293.09,-670.01 330.59,-969.91 396,-1036.5 403.85,-1044.49 414.59,-1049.27 425.44,-1052.09"/>
<polygon fill="midnightblue" stroke="midnightblue" points="286.64,-579.51 282.08,-569.95 279.68,-580.27 286.64,-579.51"/>
</g>
<!-- Node4 -->
<g id="node4" class="node">
<title>Node4</title>
<g id="a_node4"><a xlink:href="class_disconnection_checker.xhtml" target="_top" xlink:title=" ">
<polygon fill="white" stroke="black" points="413.5,-1008 413.5,-1027 527.5,-1027 527.5,-1008 413.5,-1008"/>
<text text-anchor="middle" x="470.5" y="-1015" font-family="Helvetica,sans-Serif" font-size="10.00">DisconnectionChecker</text>
</a>
</g>
</g>
<!-- Node2&#45;&gt;Node4 -->
<g id="edge3" class="edge">
<title>Node2&#45;&gt;Node4</title>
<path fill="none" stroke="midnightblue" d="M283.69,-579.71C294.92,-664.55 335.25,-937.85 396,-998.5 400.94,-1003.44 406.99,-1007.14 413.47,-1009.92"/>
<polygon fill="midnightblue" stroke="midnightblue" points="287.14,-579.13 282.38,-569.67 280.2,-580.04 287.14,-579.13"/>
</g>
<!-- Node5 -->
<g id="node5" class="node">
<title>Node5</title>
<g id="a_node5"><a xlink:href="class_lobby.xhtml" target="_top" xlink:title=" ">
<polygon fill="white" stroke="black" points="449,-970 449,-989 492,-989 492,-970 449,-970"/>
<text text-anchor="middle" x="470.5" y="-977" font-family="Helvetica,sans-Serif" font-size="10.00">Lobby</text>
</a>
</g>
</g>
<!-- Node2&#45;&gt;Node5 -->
<g id="edge4" class="edge">
<title>Node2&#45;&gt;Node5</title>
<path fill="none" stroke="midnightblue" d="M279.66,-579.89C278.78,-650.94 286.49,-853.6 396,-960.5 409.96,-974.13 432.34,-978.35 448.75,-979.48"/>
<polygon fill="midnightblue" stroke="midnightblue" points="283.17,-579.71 279.87,-569.65 276.17,-579.58 283.17,-579.71"/>
</g>
<!-- Node6 -->
<g id="node6" class="node">
<title>Node6</title>
<g id="a_node6"><a xlink:href="class_main_menu.xhtml" target="_top" xlink:title=" ">
<polygon fill="white" stroke="black" points="439.5,-932 439.5,-951 501.5,-951 501.5,-932 439.5,-932"/>
<text text-anchor="middle" x="470.5" y="-939" font-family="Helvetica,sans-Serif" font-size="10.00">MainMenu</text>
</a>
</g>
</g>
<!-- Node2&#45;&gt;Node6 -->
<g id="edge5" class="edge">
<title>Node2&#45;&gt;Node6</title>
<path fill="none" stroke="midnightblue" d="M280.55,-580.18C282.14,-646.96 295.96,-827.45 396,-922.5 407.56,-933.48 424.61,-938.33 439.38,-940.39"/>
<polygon fill="midnightblue" stroke="midnightblue" points="284.04,-579.71 280.38,-569.77 277.04,-579.83 284.04,-579.71"/>
</g>
<!-- Node7 -->
<g id="node7" class="node">
<title>Node7</title>
<g id="a_node7"><a xlink:href="class_photon_1_1_pun_1_1_demo_1_1_asteroids_1_1_asteroids_game_manager.xhtml" target="_top" xlink:title=" ">
<polygon fill="white" stroke="black" points="399,-882.5 399,-912.5 542,-912.5 542,-882.5 399,-882.5"/>
<text text-anchor="start" x="407" y="-900.5" font-family="Helvetica,sans-Serif" font-size="10.00">Photon.Pun.Demo.Asteroids.</text>
<text text-anchor="middle" x="470.5" y="-889.5" font-family="Helvetica,sans-Serif" font-size="10.00">AsteroidsGameManager</text>
</a>
</g>
</g>
<!-- Node2&#45;&gt;Node7 -->
<g id="edge6" class="edge">
<title>Node2&#45;&gt;Node7</title>
<path fill="none" stroke="midnightblue" d="M282.31,-579.69C287.95,-639.36 310.37,-790.55 396,-873.5 399.57,-876.96 403.64,-879.91 407.99,-882.45"/>
<polygon fill="midnightblue" stroke="midnightblue" points="285.79,-579.31 281.44,-569.65 278.81,-579.91 285.79,-579.31"/>
</g>
<!-- Node8 -->
<g id="node8" class="node">
<title>Node8</title>
<g id="a_node8"><a xlink:href="class_photon_1_1_pun_1_1_demo_1_1_asteroids_1_1_lobby_main_panel.xhtml" target="_top" xlink:title=" ">
<polygon fill="white" stroke="black" points="399,-833.5 399,-863.5 542,-863.5 542,-833.5 399,-833.5"/>
<text text-anchor="start" x="407" y="-851.5" font-family="Helvetica,sans-Serif" font-size="10.00">Photon.Pun.Demo.Asteroids.</text>
<text text-anchor="middle" x="470.5" y="-840.5" font-family="Helvetica,sans-Serif" font-size="10.00">LobbyMainPanel</text>
</a>
</g>
</g>
<!-- Node2&#45;&gt;Node8 -->
<g id="edge7" class="edge">
<title>Node2&#45;&gt;Node8</title>
<path fill="none" stroke="midnightblue" d="M284.21,-579.74C293.32,-632.79 321.73,-756.54 396,-824.5 399.76,-827.94 404.03,-830.89 408.56,-833.42"/>
<polygon fill="midnightblue" stroke="midnightblue" points="287.61,-578.85 282.55,-569.54 280.7,-579.97 287.61,-578.85"/>
</g>
<!-- Node9 -->
<g id="node9" class="node">
<title>Node9</title>
<g id="a_node9"><a xlink:href="class_photon_1_1_pun_1_1_demo_1_1_asteroids_1_1_player_overview_panel.xhtml" target="_top" xlink:title=" ">
<polygon fill="white" stroke="black" points="399,-784.5 399,-814.5 542,-814.5 542,-784.5 399,-784.5"/>
<text text-anchor="start" x="407" y="-802.5" font-family="Helvetica,sans-Serif" font-size="10.00">Photon.Pun.Demo.Asteroids.</text>
<text text-anchor="middle" x="470.5" y="-791.5" font-family="Helvetica,sans-Serif" font-size="10.00">PlayerOverviewPanel</text>
</a>
</g>
</g>
<!-- Node2&#45;&gt;Node9 -->
<g id="edge8" class="edge">
<title>Node2&#45;&gt;Node9</title>
<path fill="none" stroke="midnightblue" d="M286.82,-579.55C299.6,-625.17 332.83,-722.03 396,-775.5 400.1,-778.97 404.71,-781.94 409.58,-784.48"/>
<polygon fill="midnightblue" stroke="midnightblue" points="290.12,-578.36 284.13,-569.61 283.36,-580.18 290.12,-578.36"/>
</g>
<!-- Node10 -->
<g id="node10" class="node">
<title>Node10</title>
<g id="a_node10"><a xlink:href="class_photon_1_1_pun_1_1_demo_1_1_cockpit_1_1_friend_list_view.xhtml" target="_top" xlink:title="Friend list UI view.">
<polygon fill="white" stroke="black" points="403,-735.5 403,-765.5 538,-765.5 538,-735.5 403,-735.5"/>
<text text-anchor="start" x="411" y="-753.5" font-family="Helvetica,sans-Serif" font-size="10.00">Photon.Pun.Demo.Cockpit.</text>
<text text-anchor="middle" x="470.5" y="-742.5" font-family="Helvetica,sans-Serif" font-size="10.00">FriendListView</text>
</a>
</g>
</g>
<!-- Node2&#45;&gt;Node10 -->
<g id="edge9" class="edge">
<title>Node2&#45;&gt;Node10</title>
<path fill="none" stroke="midnightblue" d="M290.69,-579.19C307.3,-616.46 343.69,-686.93 396,-726.5 400.5,-729.9 405.5,-732.83 410.71,-735.36"/>
<polygon fill="midnightblue" stroke="midnightblue" points="293.72,-577.39 286.53,-569.61 287.3,-580.18 293.72,-577.39"/>
</g>
<!-- Node11 -->
<g id="node11" class="node">
<title>Node11</title>
<g id="a_node11"><a xlink:href="class_photon_1_1_pun_1_1_demo_1_1_cockpit_1_1_player_details_controller.xhtml" target="_top" xlink:title="Controller for the Playerdetails UI view">
<polygon fill="white" stroke="black" points="403,-686.5 403,-716.5 538,-716.5 538,-686.5 403,-686.5"/>
<text text-anchor="start" x="411" y="-704.5" font-family="Helvetica,sans-Serif" font-size="10.00">Photon.Pun.Demo.Cockpit.</text>
<text text-anchor="middle" x="470.5" y="-693.5" font-family="Helvetica,sans-Serif" font-size="10.00">PlayerDetailsController</text>
</a>
</g>
</g>
<!-- Node2&#45;&gt;Node11 -->
<g id="edge10" class="edge">
<title>Node2&#45;&gt;Node11</title>
<path fill="none" stroke="midnightblue" d="M296.75,-577.95C316.99,-605.5 354.06,-650.84 396,-677.5 401.32,-680.88 407.17,-683.84 413.17,-686.4"/>
<polygon fill="midnightblue" stroke="midnightblue" points="299.47,-575.74 290.78,-569.67 293.79,-579.83 299.47,-575.74"/>
</g>
<!-- Node12 -->
<g id="node12" class="node">
<title>Node12</title>
<g id="a_node12"><a xlink:href="class_photon_1_1_pun_1_1_demo_1_1_cockpit_1_1_player_list_view.xhtml" target="_top" xlink:title="Player list UI View.">
<polygon fill="white" stroke="black" points="403,-637.5 403,-667.5 538,-667.5 538,-637.5 403,-637.5"/>
<text text-anchor="start" x="411" y="-655.5" font-family="Helvetica,sans-Serif" font-size="10.00">Photon.Pun.Demo.Cockpit.</text>
<text text-anchor="middle" x="470.5" y="-644.5" font-family="Helvetica,sans-Serif" font-size="10.00">PlayerListView</text>
</a>
</g>
</g>
<!-- Node2&#45;&gt;Node12 -->
<g id="edge11" class="edge">
<title>Node2&#45;&gt;Node12</title>
<path fill="none" stroke="midnightblue" d="M308.6,-575.39C331.29,-591.54 364.52,-613.57 396,-628.5 402.91,-631.78 410.39,-634.79 417.84,-637.48"/>
<polygon fill="midnightblue" stroke="midnightblue" points="310.61,-572.53 300.45,-569.52 306.52,-578.21 310.61,-572.53"/>
</g>
<!-- Node13 -->
<g id="node13" class="node">
<title>Node13</title>
<g id="a_node13"><a xlink:href="class_photon_1_1_pun_1_1_demo_1_1_cockpit_1_1_pun_cockpit.xhtml" target="_top" xlink:title="UI based work in progress to test out api and act as foundation when dealing with room,...">
<polygon fill="white" stroke="black" points="403,-588.5 403,-618.5 538,-618.5 538,-588.5 403,-588.5"/>
<text text-anchor="start" x="411" y="-606.5" font-family="Helvetica,sans-Serif" font-size="10.00">Photon.Pun.Demo.Cockpit.</text>
<text text-anchor="middle" x="470.5" y="-595.5" font-family="Helvetica,sans-Serif" font-size="10.00">PunCockpit</text>
</a>
</g>
</g>
<!-- Node2&#45;&gt;Node13 -->
<g id="edge12" class="edge">
<title>Node2&#45;&gt;Node13</title>
<path fill="none" stroke="midnightblue" d="M348.19,-572.05C368.95,-577.43 391.58,-583.3 411.62,-588.49"/>
<polygon fill="midnightblue" stroke="midnightblue" points="349.05,-568.66 338.49,-569.53 347.29,-575.43 349.05,-568.66"/>
</g>
<!-- Node14 -->
<g id="node14" class="node">
<title>Node14</title>
<g id="a_node14"><a xlink:href="class_photon_1_1_pun_1_1_demo_1_1_cockpit_1_1_pun_cockpit_embed.xhtml" target="_top" xlink:title="Use this in scenes you want to leave Control for connection and pun related commands to Cockpit.">
<polygon fill="white" stroke="black" points="403,-539.5 403,-569.5 538,-569.5 538,-539.5 403,-539.5"/>
<text text-anchor="start" x="411" y="-557.5" font-family="Helvetica,sans-Serif" font-size="10.00">Photon.Pun.Demo.Cockpit.</text>
<text text-anchor="middle" x="470.5" y="-546.5" font-family="Helvetica,sans-Serif" font-size="10.00">PunCockpitEmbed</text>
</a>
</g>
</g>
<!-- Node2&#45;&gt;Node14 -->
<g id="edge13" class="edge">
<title>Node2&#45;&gt;Node14</title>
<path fill="none" stroke="midnightblue" d="M358.34,-554.5C373.13,-554.5 388.5,-554.5 402.91,-554.5"/>
<polygon fill="midnightblue" stroke="midnightblue" points="358.2,-551 348.2,-554.5 358.2,-558 358.2,-551"/>
</g>
<!-- Node15 -->
<g id="node15" class="node">
<title>Node15</title>
<g id="a_node15"><a xlink:href="class_photon_1_1_pun_1_1_demo_1_1_cockpit_1_1_room_list_view.xhtml" target="_top" xlink:title="Room list UI View.">
<polygon fill="white" stroke="black" points="403,-490.5 403,-520.5 538,-520.5 538,-490.5 403,-490.5"/>
<text text-anchor="start" x="411" y="-508.5" font-family="Helvetica,sans-Serif" font-size="10.00">Photon.Pun.Demo.Cockpit.</text>
<text text-anchor="middle" x="470.5" y="-497.5" font-family="Helvetica,sans-Serif" font-size="10.00">RoomListView</text>
</a>
</g>
</g>
<!-- Node2&#45;&gt;Node15 -->
<g id="edge14" class="edge">
<title>Node2&#45;&gt;Node15</title>
<path fill="none" stroke="midnightblue" d="M348.19,-536.95C368.95,-531.57 391.58,-525.7 411.62,-520.51"/>
<polygon fill="midnightblue" stroke="midnightblue" points="347.29,-533.57 338.49,-539.47 349.05,-540.34 347.29,-533.57"/>
</g>
<!-- Node16 -->
<g id="node16" class="node">
<title>Node16</title>
<g id="a_node16"><a xlink:href="class_photon_1_1_pun_1_1_demo_1_1_procedural_1_1_cluster.xhtml" target="_top" xlink:title="The Cluster component has references to all Blocks that are part of this Cluster.">
<polygon fill="white" stroke="black" points="396,-441.5 396,-471.5 545,-471.5 545,-441.5 396,-441.5"/>
<text text-anchor="start" x="404" y="-459.5" font-family="Helvetica,sans-Serif" font-size="10.00">Photon.Pun.Demo.Procedural.</text>
<text text-anchor="middle" x="470.5" y="-448.5" font-family="Helvetica,sans-Serif" font-size="10.00">Cluster</text>
</a>
</g>
</g>
<!-- Node2&#45;&gt;Node16 -->
<g id="edge15" class="edge">
<title>Node2&#45;&gt;Node16</title>
<path fill="none" stroke="midnightblue" d="M353.4,-534.71C355.68,-533.39 357.89,-531.99 360,-530.5 382.07,-514.9 374.2,-497.48 396,-481.5 401.22,-477.68 407.06,-474.41 413.12,-471.62"/>
<polygon fill="midnightblue" stroke="midnightblue" points="351.62,-531.69 344.32,-539.37 354.82,-537.92 351.62,-531.69"/>
</g>
<!-- Node17 -->
<g id="node17" class="node">
<title>Node17</title>
<g id="a_node17"><a xlink:href="class_photon_1_1_pun_1_1_demo_1_1_procedural_1_1_ingame_control_panel.xhtml" target="_top" xlink:title="The Ingame Control Panel basically controls the WorldGenerator.">
<polygon fill="white" stroke="black" points="396,-392.5 396,-422.5 545,-422.5 545,-392.5 396,-392.5"/>
<text text-anchor="start" x="404" y="-410.5" font-family="Helvetica,sans-Serif" font-size="10.00">Photon.Pun.Demo.Procedural.</text>
<text text-anchor="middle" x="470.5" y="-399.5" font-family="Helvetica,sans-Serif" font-size="10.00">IngameControlPanel</text>
</a>
</g>
</g>
<!-- Node2&#45;&gt;Node17 -->
<g id="edge16" class="edge">
<title>Node2&#45;&gt;Node17</title>
<path fill="none" stroke="midnightblue" d="M356.05,-533.9C357.42,-532.82 358.74,-531.69 360,-530.5 393.76,-498.67 362.79,-464.91 396,-432.5 399.95,-428.64 404.53,-425.38 409.42,-422.61"/>
<polygon fill="midnightblue" stroke="midnightblue" points="354.1,-530.99 347.74,-539.46 358,-536.81 354.1,-530.99"/>
</g>
<!-- Node18 -->
<g id="node18" class="node">
<title>Node18</title>
<g id="a_node18"><a xlink:href="class_photon_1_1_pun_1_1_demo_1_1_pun_basics_1_1_game_manager.xhtml" target="_top" xlink:title="Game manager.">
<polygon fill="white" stroke="black" points="396,-343.5 396,-373.5 545,-373.5 545,-343.5 396,-343.5"/>
<text text-anchor="start" x="404" y="-361.5" font-family="Helvetica,sans-Serif" font-size="10.00">Photon.Pun.Demo.PunBasics.</text>
<text text-anchor="middle" x="470.5" y="-350.5" font-family="Helvetica,sans-Serif" font-size="10.00">GameManager</text>
</a>
</g>
</g>
<!-- Node2&#45;&gt;Node18 -->
<g id="edge17" class="edge">
<title>Node2&#45;&gt;Node18</title>
<path fill="none" stroke="midnightblue" d="M356.59,-533.77C357.78,-532.73 358.91,-531.64 360,-530.5 406.29,-481.69 350.57,-433.1 396,-383.5 399.55,-379.62 403.72,-376.35 408.25,-373.58"/>
<polygon fill="midnightblue" stroke="midnightblue" points="354.2,-531.19 348.19,-539.91 358.33,-536.84 354.2,-531.19"/>
</g>
<!-- Node19 -->
<g id="node19" class="node">
<title>Node19</title>
<g id="a_node19"><a xlink:href="class_photon_1_1_pun_1_1_demo_1_1_pun_basics_1_1_launcher.xhtml" target="_top" xlink:title="Launch manager.">
<polygon fill="white" stroke="black" points="396,-294.5 396,-324.5 545,-324.5 545,-294.5 396,-294.5"/>
<text text-anchor="start" x="404" y="-312.5" font-family="Helvetica,sans-Serif" font-size="10.00">Photon.Pun.Demo.PunBasics.</text>
<text text-anchor="middle" x="470.5" y="-301.5" font-family="Helvetica,sans-Serif" font-size="10.00">Launcher</text>
</a>
</g>
</g>
<!-- Node2&#45;&gt;Node19 -->
<g id="edge18" class="edge">
<title>Node2&#45;&gt;Node19</title>
<path fill="none" stroke="midnightblue" d="M356.23,-534.28C357.55,-533.09 358.81,-531.83 360,-530.5 419.04,-464.48 338.11,-401.53 396,-334.5 399.35,-330.62 403.32,-327.35 407.66,-324.58"/>
<polygon fill="midnightblue" stroke="midnightblue" points="353.99,-531.58 348.06,-540.36 358.17,-537.19 353.99,-531.58"/>
</g>
<!-- Node20 -->
<g id="node20" class="node">
<title>Node20</title>
<g id="a_node20"><a xlink:href="class_photon_1_1_pun_1_1_demo_1_1_pun_basics_1_1_player_manager.xhtml" target="_top" xlink:title="Player manager.">
<polygon fill="white" stroke="black" points="396,-245.5 396,-275.5 545,-275.5 545,-245.5 396,-245.5"/>
<text text-anchor="start" x="404" y="-263.5" font-family="Helvetica,sans-Serif" font-size="10.00">Photon.Pun.Demo.PunBasics.</text>
<text text-anchor="middle" x="470.5" y="-252.5" font-family="Helvetica,sans-Serif" font-size="10.00">PlayerManager</text>
</a>
</g>
</g>
<!-- Node2&#45;&gt;Node20 -->
<g id="edge19" class="edge">
<title>Node2&#45;&gt;Node20</title>
<path fill="none" stroke="midnightblue" d="M356.29,-534.33C357.6,-533.13 358.83,-531.85 360,-530.5 431.89,-447.16 325.57,-370.07 396,-285.5 399.19,-281.67 403,-278.42 407.17,-275.67"/>
<polygon fill="midnightblue" stroke="midnightblue" points="354.04,-531.65 348.21,-540.5 358.29,-537.21 354.04,-531.65"/>
</g>
<!-- Node21 -->
<g id="node21" class="node">
<title>Node21</title>
<g id="a_node21"><a xlink:href="class_photon_1_1_pun_1_1_utility_scripts_1_1_connect_and_join_random.xhtml" target="_top" xlink:title="Simple component to call ConnectUsingSettings and to get into a PUN room easily.">
<polygon fill="white" stroke="black" points="406,-196.5 406,-226.5 535,-226.5 535,-196.5 406,-196.5"/>
<text text-anchor="start" x="414" y="-214.5" font-family="Helvetica,sans-Serif" font-size="10.00">Photon.Pun.UtilityScripts.</text>
<text text-anchor="middle" x="470.5" y="-203.5" font-family="Helvetica,sans-Serif" font-size="10.00">ConnectAndJoinRandom</text>
</a>
</g>
</g>
<!-- Node2&#45;&gt;Node21 -->
<g id="edge20" class="edge">
<title>Node2&#45;&gt;Node21</title>
<path fill="none" stroke="midnightblue" d="M356.34,-534.37C357.63,-533.15 358.85,-531.86 360,-530.5 444.78,-429.79 312.98,-338.66 396,-236.5 399.15,-232.63 402.92,-229.36 407.07,-226.59"/>
<polygon fill="midnightblue" stroke="midnightblue" points="354.08,-531.69 348.32,-540.59 358.37,-537.23 354.08,-531.69"/>
</g>
<!-- Node22 -->
<g id="node22" class="node">
<title>Node22</title>
<g id="a_node22"><a xlink:href="class_photon_1_1_pun_1_1_utility_scripts_1_1_countdown_timer.xhtml" target="_top" xlink:title="This is a basic, network&#45;synced CountdownTimer based on properties.">
<polygon fill="white" stroke="black" points="406,-147.5 406,-177.5 535,-177.5 535,-147.5 406,-147.5"/>
<text text-anchor="start" x="414" y="-165.5" font-family="Helvetica,sans-Serif" font-size="10.00">Photon.Pun.UtilityScripts.</text>
<text text-anchor="middle" x="470.5" y="-154.5" font-family="Helvetica,sans-Serif" font-size="10.00">CountdownTimer</text>
</a>
</g>
</g>
<!-- Node2&#45;&gt;Node22 -->
<g id="edge21" class="edge">
<title>Node2&#45;&gt;Node22</title>
<path fill="none" stroke="midnightblue" d="M356.26,-534.5C357.58,-533.24 358.83,-531.91 360,-530.5 457.7,-412.39 300.36,-307.29 396,-187.5 399.11,-183.6 402.86,-180.31 406.99,-177.53"/>
<polygon fill="midnightblue" stroke="midnightblue" points="353.79,-531.99 348.03,-540.88 358.08,-537.52 353.79,-531.99"/>
</g>
<!-- Node23 -->
<g id="node23" class="node">
<title>Node23</title>
<g id="a_node23"><a xlink:href="class_photon_1_1_pun_1_1_utility_scripts_1_1_player_numbering.xhtml" target="_top" xlink:title="Implements consistent numbering in a room/game with help of room properties.">
<polygon fill="white" stroke="black" points="406,-98.5 406,-128.5 535,-128.5 535,-98.5 406,-98.5"/>
<text text-anchor="start" x="414" y="-116.5" font-family="Helvetica,sans-Serif" font-size="10.00">Photon.Pun.UtilityScripts.</text>
<text text-anchor="middle" x="470.5" y="-105.5" font-family="Helvetica,sans-Serif" font-size="10.00">PlayerNumbering</text>
</a>
</g>
</g>
<!-- Node2&#45;&gt;Node23 -->
<g id="edge22" class="edge">
<title>Node2&#45;&gt;Node23</title>
<path fill="none" stroke="midnightblue" d="M356.29,-534.52C357.6,-533.26 358.84,-531.92 360,-530.5 415.32,-462.73 341.87,-207.22 396,-138.5 399,-134.69 402.61,-131.45 406.6,-128.71"/>
<polygon fill="midnightblue" stroke="midnightblue" points="353.81,-532.01 348.09,-540.93 358.13,-537.53 353.81,-532.01"/>
</g>
<!-- Node24 -->
<g id="node24" class="node">
<title>Node24</title>
<g id="a_node24"><a xlink:href="class_photon_1_1_pun_1_1_utility_scripts_1_1_pun_teams.xhtml" target="_top" xlink:title="Implements teams in a room/game with help of player properties.">
<polygon fill="white" stroke="black" points="406,-49.5 406,-79.5 535,-79.5 535,-49.5 406,-49.5"/>
<text text-anchor="start" x="414" y="-67.5" font-family="Helvetica,sans-Serif" font-size="10.00">Photon.Pun.UtilityScripts.</text>
<text text-anchor="middle" x="470.5" y="-56.5" font-family="Helvetica,sans-Serif" font-size="10.00">PunTeams</text>
</a>
</g>
</g>
<!-- Node2&#45;&gt;Node24 -->
<g id="edge23" class="edge">
<title>Node2&#45;&gt;Node24</title>
<path fill="none" stroke="midnightblue" d="M356.31,-534.54C357.61,-533.27 358.85,-531.93 360,-530.5 421.79,-454.02 335.54,-167.04 396,-89.5 398.98,-85.67 402.58,-82.43 406.56,-79.68"/>
<polygon fill="midnightblue" stroke="midnightblue" points="353.83,-532.03 348.14,-540.97 358.16,-537.53 353.83,-532.03"/>
</g>
<!-- Node25 -->
<g id="node25" class="node">
<title>Node25</title>
<g id="a_node25"><a xlink:href="class_photon_1_1_pun_1_1_utility_scripts_1_1_pun_turn_manager.xhtml" target="_top" xlink:title="Pun turnBased Game manager.">
<polygon fill="white" stroke="black" points="406,-0.5 406,-30.5 535,-30.5 535,-0.5 406,-0.5"/>
<text text-anchor="start" x="414" y="-18.5" font-family="Helvetica,sans-Serif" font-size="10.00">Photon.Pun.UtilityScripts.</text>
<text text-anchor="middle" x="470.5" y="-7.5" font-family="Helvetica,sans-Serif" font-size="10.00">PunTurnManager</text>
</a>
</g>
</g>
<!-- Node2&#45;&gt;Node25 -->
<g id="edge24" class="edge">
<title>Node2&#45;&gt;Node25</title>
<path fill="none" stroke="midnightblue" d="M356.32,-534.55C357.62,-533.28 358.85,-531.93 360,-530.5 428.4,-445.11 328.56,-125.65 396,-39.5 398.81,-35.91 402.18,-32.84 405.89,-30.23"/>
<polygon fill="midnightblue" stroke="midnightblue" points="353.84,-532.05 348.18,-541 358.19,-537.54 353.84,-532.05"/>
</g>
</g>
</svg>
        <g id="navigator" transform="translate(0 0)" fill="#404254">
                <rect fill="#f2f5e9" fill-opacity="0.5" stroke="#606060" stroke-width=".5" x="0" y="0" width="60" height="60"/>
                <use id="zoomplus" xlink:href="#zoomPlus" x="17" y="9" onmousedown="handleZoom(evt,'in')"/>
                <use id="zoomminus" xlink:href="#zoomMin" x="42" y="9" onmousedown="handleZoom(evt,'out')"/>
                <use id="reset" xlink:href="#resetDef" x="30" y="36" onmousedown="handleReset()"/>
                <g id="arrowUp" xlink:href="#dirArrow" transform="translate(30 24)" onmousedown="handlePan(0,-1)">
                  <use xlink:href="#rim" fill="#404040">
                        <set attributeName="fill" to="#808080" begin="arrowUp.mouseover" end="arrowUp.mouseout"/>
                  </use>
                  <path fill="none" stroke="white" stroke-width="1.5" d="M0,-3.0v7 M-2.5,-0.5L0,-3.0L2.5,-0.5"/>
                </g>
                <g id="arrowRight" xlink:href="#dirArrow" transform="rotate(90) translate(36 -43)" onmousedown="handlePan(1,0)">
                  <use xlink:href="#rim" fill="#404040">
                        <set attributeName="fill" to="#808080" begin="arrowRight.mouseover" end="arrowRight.mouseout"/>
                  </use>
                  <path fill="none" stroke="white" stroke-width="1.5" d="M0,-3.0v7 M-2.5,-0.5L0,-3.0L2.5,-0.5"/>
                </g>
                <g id="arrowDown" xlink:href="#dirArrow" transform="rotate(180) translate(-30 -48)" onmousedown="handlePan(0,1)">
                  <use xlink:href="#rim" fill="#404040">
                        <set attributeName="fill" to="#808080" begin="arrowDown.mouseover" end="arrowDown.mouseout"/>
                  </use>
                  <path fill="none" stroke="white" stroke-width="1.5" d="M0,-3.0v7 M-2.5,-0.5L0,-3.0L2.5,-0.5"/>
                </g>
                <g id="arrowLeft" xlink:href="#dirArrow" transform="rotate(270) translate(-36 17)" onmousedown="handlePan(-1,0)">
                  <use xlink:href="#rim" fill="#404040">
                        <set attributeName="fill" to="#808080" begin="arrowLeft.mouseover" end="arrowLeft.mouseout"/>
                  </use>
                  <path fill="none" stroke="white" stroke-width="1.5" d="M0,-3.0v7 M-2.5,-0.5L0,-3.0L2.5,-0.5"/>
                </g>
        </g>
        <svg viewBox="0 0 15 15" width="100%" height="30px" preserveAspectRatio="xMaxYMin meet">
         <g id="arrow_out" transform="scale(0.3 0.3)">
          <a xlink:href="interface_photon_1_1_realtime_1_1_i_lobby_callbacks__inherit__graph_org.svg" target="_base">
           <rect id="button" ry="5" rx="5" y="6" x="6" height="38" width="38"
                fill="#f2f5e9" fill-opacity="0.5" stroke="#606060" stroke-width="1.0"/>
           <path id="arrow"
             d="M 11.500037,31.436501 C 11.940474,20.09759 22.043105,11.32322 32.158766,21.979434 L 37.068811,17.246167 C 37.068811,17.246167 37.088388,32 37.088388,32 L 22.160133,31.978069 C 22.160133,31.978069 26.997745,27.140456 26.997745,27.140456 C 18.528582,18.264221 13.291696,25.230495 11.500037,31.436501 z"
             style="fill:#404040;"/>
          </a>
         </g>
        </svg>
</svg>
