<?xml version="1.0" encoding="UTF-8" standalone="no"?>
<!DOCTYPE svg PUBLIC "-//W3C//DTD SVG 1.1//EN"
 "http://www.w3.org/Graphics/SVG/1.1/DTD/svg11.dtd">
<!-- Generated by graphviz version 2.47.3 (20210619.1520)
 -->
<!-- Title: Photon.Realtime.IOnEventCallback Pages: 1 -->
<svg width="139pt" height="106pt"
 viewBox="0.00 0.00 139.00 106.00" xmlns="http://www.w3.org/2000/svg" xmlns:xlink="http://www.w3.org/1999/xlink">
<g id="graph0" class="graph" transform="scale(1 1) rotate(0) translate(4 102)">
<title>Photon.Realtime.IOnEventCallback</title>
<polygon fill="white" stroke="transparent" points="-4,4 -4,-102 135,-102 135,4 -4,4"/>
<!-- Node1 -->
<g id="node1" class="node">
<title>Node1</title>
<g id="a_node1"><a xlink:title="Event callback for the Realtime Api.">
<polygon fill="#bfbfbf" stroke="black" points="0,-67.5 0,-97.5 131,-97.5 131,-67.5 0,-67.5"/>
<text text-anchor="start" x="8" y="-85.5" font-family="Helvetica,sans-Serif" font-size="10.00">Photon.Realtime.IOnEvent</text>
<text text-anchor="middle" x="65.5" y="-74.5" font-family="Helvetica,sans-Serif" font-size="10.00">Callback</text>
</a>
</g>
</g>
<!-- Node2 -->
<g id="node2" class="node">
<title>Node2</title>
<g id="a_node2"><a xlink:href="class_photon_1_1_pun_1_1_utility_scripts_1_1_pun_turn_manager.xhtml" target="_top" xlink:title="Pun turnBased Game manager.">
<polygon fill="white" stroke="black" points="1,-0.5 1,-30.5 130,-30.5 130,-0.5 1,-0.5"/>
<text text-anchor="start" x="9" y="-18.5" font-family="Helvetica,sans-Serif" font-size="10.00">Photon.Pun.UtilityScripts.</text>
<text text-anchor="middle" x="65.5" y="-7.5" font-family="Helvetica,sans-Serif" font-size="10.00">PunTurnManager</text>
</a>
</g>
</g>
<!-- Node1&#45;&gt;Node2 -->
<g id="edge1" class="edge">
<title>Node1&#45;&gt;Node2</title>
<path fill="none" stroke="midnightblue" d="M65.5,-57.11C65.5,-48.15 65.5,-38.32 65.5,-30.58"/>
<polygon fill="midnightblue" stroke="midnightblue" points="62,-57.4 65.5,-67.4 69,-57.4 62,-57.4"/>
</g>
</g>
</svg>
