<?xml version="1.0" encoding="UTF-8" standalone="no"?>
<!DOCTYPE svg PUBLIC "-//W3C//DTD SVG 1.1//EN"
 "http://www.w3.org/Graphics/SVG/1.1/DTD/svg11.dtd">
<!-- Generated by graphviz version 2.47.3 (20210619.1520)
 -->
<!-- Title: Photon.Realtime.IConnectionCallbacks Pages: 1 -->
<!--zoomable 1074 -->
<svg id="main" version="1.1" xmlns="http://www.w3.org/2000/svg" xmlns:xlink="http://www.w3.org/1999/xlink" xml:space="preserve" onload="init(evt)">
<style type="text/css"><![CDATA[
.edge:hover path { stroke: red; }
.edge:hover polygon { stroke: red; fill: red; }
]]></style>
<script type="text/javascript"><![CDATA[
var edges = document.getElementsByTagName('g');
if (edges && edges.length) {
  for (var i=0;i<edges.length;i++) {
    if (edges[i].id.substr(0,4)=='edge') {
      edges[i].setAttribute('class','edge');
    }
  }
}
]]></script>
        <defs>
                <circle id="rim" cx="0" cy="0" r="7"/>
                <circle id="rim2" cx="0" cy="0" r="3.5"/>
                <g id="zoomPlus">
                        <use xlink:href="#rim" fill="#404040">
                                <set attributeName="fill" to="#808080" begin="zoomplus.mouseover" end="zoomplus.mouseout"/>
                        </use>
                        <path d="M-4,0h8M0,-4v8" fill="none" stroke="white" stroke-width="1.5" pointer-events="none"/>
                </g>
                <g id="zoomMin">
                        <use xlink:href="#rim" fill="#404040">
                                <set attributeName="fill" to="#808080" begin="zoomminus.mouseover" end="zoomminus.mouseout"/>
                        </use>
                        <path d="M-4,0h8" fill="none" stroke="white" stroke-width="1.5" pointer-events="none"/>
                </g>
                <g id="dirArrow">
                        <path fill="none" stroke="white" stroke-width="1.5" d="M0,-3.0v7 M-2.5,-0.5L0,-3.0L2.5,-0.5"/>
                </g>
               <g id="resetDef">
                       <use xlink:href="#rim2" fill="#404040">
                               <set attributeName="fill" to="#808080" begin="reset.mouseover" end="reset.mouseout"/>
                       </use>
               </g>
        </defs>

<script type="text/javascript">
var viewWidth = 528;
var viewHeight = 1074;
var sectionId = 'dynsection-0';
</script>
<script xlink:href="svgpan.js"/>
<svg id="graph" class="graph">
<g id="viewport">
<title>Photon.Realtime.IConnectionCallbacks</title>
<polygon fill="white" stroke="transparent" points="-4,4 -4,-1069.5 524,-1069.5 524,4 -4,4"/>
<!-- Node1 -->
<g id="node1" class="node">
<title>Node1</title>
<g id="a_node1"><a xlink:title="Collection of &quot;organizational&quot; callbacks for the Realtime Api to cover: Connection and Regions.">
<polygon fill="#bfbfbf" stroke="black" points="0,-465.5 0,-495.5 143,-495.5 143,-465.5 0,-465.5"/>
<text text-anchor="start" x="8" y="-483.5" font-family="Helvetica,sans-Serif" font-size="10.00">Photon.Realtime.IConnection</text>
<text text-anchor="middle" x="71.5" y="-472.5" font-family="Helvetica,sans-Serif" font-size="10.00">Callbacks</text>
</a>
</g>
</g>
<!-- Node2 -->
<g id="node2" class="node">
<title>Node2</title>
<g id="a_node2"><a xlink:href="class_photon_1_1_pun_1_1_mono_behaviour_pun_callbacks.xhtml" target="_top" xlink:title="This class provides a .photonView and all callbacks/events that PUN can call.">
<polygon fill="white" stroke="black" points="188.5,-539.5 188.5,-569.5 325.5,-569.5 325.5,-539.5 188.5,-539.5"/>
<text text-anchor="start" x="196.5" y="-557.5" font-family="Helvetica,sans-Serif" font-size="10.00">Photon.Pun.MonoBehaviour</text>
<text text-anchor="middle" x="257" y="-546.5" font-family="Helvetica,sans-Serif" font-size="10.00">PunCallbacks</text>
</a>
</g>
</g>
<!-- Node1&#45;&gt;Node2 -->
<g id="edge1" class="edge">
<title>Node1&#45;&gt;Node2</title>
<path fill="none" stroke="midnightblue" d="M110.96,-500.12C130.97,-509.92 155.99,-521.56 179,-530.5 187.09,-533.64 195.78,-536.67 204.3,-539.46"/>
<polygon fill="midnightblue" stroke="midnightblue" points="112.38,-496.91 101.86,-495.62 109.28,-503.19 112.38,-496.91"/>
</g>
<!-- Node26 -->
<g id="node26" class="node">
<title>Node26</title>
<g id="a_node26"><a xlink:href="class_photon_1_1_realtime_1_1_connection_callbacks_container.xhtml" target="_top" xlink:title="Container type for callbacks defined by IConnectionCallbacks.">
<polygon fill="white" stroke="black" points="187,-490.5 187,-520.5 327,-520.5 327,-490.5 187,-490.5"/>
<text text-anchor="start" x="195" y="-508.5" font-family="Helvetica,sans-Serif" font-size="10.00">Photon.Realtime.Connection</text>
<text text-anchor="middle" x="257" y="-497.5" font-family="Helvetica,sans-Serif" font-size="10.00">CallbacksContainer</text>
</a>
</g>
</g>
<!-- Node1&#45;&gt;Node26 -->
<g id="edge25" class="edge">
<title>Node1&#45;&gt;Node26</title>
<path fill="none" stroke="midnightblue" d="M153.36,-491.52C164.54,-493.04 175.93,-494.59 186.86,-496.08"/>
<polygon fill="midnightblue" stroke="midnightblue" points="153.56,-488.01 143.18,-490.13 152.62,-494.95 153.56,-488.01"/>
</g>
<!-- Node27 -->
<g id="node27" class="node">
<title>Node27</title>
<g id="a_node27"><a xlink:href="class_photon_1_1_realtime_1_1_demo_1_1_connect_and_join_random_lb.xhtml" target="_top" xlink:title=" ">
<polygon fill="white" stroke="black" points="179,-441.5 179,-471.5 335,-471.5 335,-441.5 179,-441.5"/>
<text text-anchor="start" x="187" y="-459.5" font-family="Helvetica,sans-Serif" font-size="10.00">Photon.Realtime.Demo.Connect</text>
<text text-anchor="middle" x="257" y="-448.5" font-family="Helvetica,sans-Serif" font-size="10.00">AndJoinRandomLb</text>
</a>
</g>
</g>
<!-- Node1&#45;&gt;Node27 -->
<g id="edge26" class="edge">
<title>Node1&#45;&gt;Node27</title>
<path fill="none" stroke="midnightblue" d="M153.16,-469.95C161.73,-468.83 170.43,-467.69 178.95,-466.58"/>
<polygon fill="midnightblue" stroke="midnightblue" points="152.65,-466.49 143.18,-471.26 153.55,-473.43 152.65,-466.49"/>
</g>
<!-- Node28 -->
<g id="node28" class="node">
<title>Node28</title>
<g id="a_node28"><a xlink:href="class_photon_1_1_realtime_1_1_support_logger.xhtml" target="_top" xlink:title="Helper class to debug log basic information about Photon client and vital traffic statistics.">
<polygon fill="white" stroke="black" points="179.5,-403 179.5,-422 334.5,-422 334.5,-403 179.5,-403"/>
<text text-anchor="middle" x="257" y="-410" font-family="Helvetica,sans-Serif" font-size="10.00">Photon.Realtime.SupportLogger</text>
</a>
</g>
</g>
<!-- Node1&#45;&gt;Node28 -->
<g id="edge27" class="edge">
<title>Node1&#45;&gt;Node28</title>
<path fill="none" stroke="midnightblue" d="M111.3,-461.1C131.21,-451.64 156.05,-440.59 179,-432.5 190.2,-428.55 202.57,-425 214.05,-422.02"/>
<polygon fill="midnightblue" stroke="midnightblue" points="109.74,-457.97 102.24,-465.46 112.77,-464.28 109.74,-457.97"/>
</g>
<!-- Node3 -->
<g id="node3" class="node">
<title>Node3</title>
<g id="a_node3"><a xlink:href="class_connect_to_server.xhtml" target="_top" xlink:title=" ">
<polygon fill="white" stroke="black" points="400.5,-1046 400.5,-1065 490.5,-1065 490.5,-1046 400.5,-1046"/>
<text text-anchor="middle" x="445.5" y="-1053" font-family="Helvetica,sans-Serif" font-size="10.00">ConnectToServer</text>
</a>
</g>
</g>
<!-- Node2&#45;&gt;Node3 -->
<g id="edge2" class="edge">
<title>Node2&#45;&gt;Node3</title>
<path fill="none" stroke="midnightblue" d="M260.54,-580.07C269.96,-669.99 305.83,-969.83 371,-1036.5 378.83,-1044.51 389.57,-1049.3 400.41,-1052.12"/>
<polygon fill="midnightblue" stroke="midnightblue" points="264,-579.53 259.49,-569.95 257.04,-580.25 264,-579.53"/>
</g>
<!-- Node4 -->
<g id="node4" class="node">
<title>Node4</title>
<g id="a_node4"><a xlink:href="class_disconnection_checker.xhtml" target="_top" xlink:title=" ">
<polygon fill="white" stroke="black" points="388.5,-1008 388.5,-1027 502.5,-1027 502.5,-1008 388.5,-1008"/>
<text text-anchor="middle" x="445.5" y="-1015" font-family="Helvetica,sans-Serif" font-size="10.00">DisconnectionChecker</text>
</a>
</g>
</g>
<!-- Node2&#45;&gt;Node4 -->
<g id="edge3" class="edge">
<title>Node2&#45;&gt;Node4</title>
<path fill="none" stroke="midnightblue" d="M261.04,-579.7C271.77,-664.53 310.5,-937.77 371,-998.5 375.93,-1003.45 381.97,-1007.16 388.45,-1009.94"/>
<polygon fill="midnightblue" stroke="midnightblue" points="264.5,-579.16 259.79,-569.67 257.55,-580.02 264.5,-579.16"/>
</g>
<!-- Node5 -->
<g id="node5" class="node">
<title>Node5</title>
<g id="a_node5"><a xlink:href="class_lobby.xhtml" target="_top" xlink:title=" ">
<polygon fill="white" stroke="black" points="424,-970 424,-989 467,-989 467,-970 424,-970"/>
<text text-anchor="middle" x="445.5" y="-977" font-family="Helvetica,sans-Serif" font-size="10.00">Lobby</text>
</a>
</g>
</g>
<!-- Node2&#45;&gt;Node5 -->
<g id="edge4" class="edge">
<title>Node2&#45;&gt;Node5</title>
<path fill="none" stroke="midnightblue" d="M261.71,-579.88C273.91,-660.04 315.27,-905.8 371,-960.5 384.92,-974.16 407.31,-978.38 423.73,-979.5"/>
<polygon fill="midnightblue" stroke="midnightblue" points="265.13,-579.07 260.18,-569.7 258.2,-580.11 265.13,-579.07"/>
</g>
<!-- Node6 -->
<g id="node6" class="node">
<title>Node6</title>
<g id="a_node6"><a xlink:href="class_main_menu.xhtml" target="_top" xlink:title=" ">
<polygon fill="white" stroke="black" points="414.5,-932 414.5,-951 476.5,-951 476.5,-932 414.5,-932"/>
<text text-anchor="middle" x="445.5" y="-939" font-family="Helvetica,sans-Serif" font-size="10.00">MainMenu</text>
</a>
</g>
</g>
<!-- Node2&#45;&gt;Node6 -->
<g id="edge5" class="edge">
<title>Node2&#45;&gt;Node6</title>
<path fill="none" stroke="midnightblue" d="M257.86,-580.17C258.95,-646.91 271.45,-827.33 371,-922.5 382.53,-933.52 399.58,-938.37 414.36,-940.42"/>
<polygon fill="midnightblue" stroke="midnightblue" points="261.35,-579.73 257.77,-569.76 254.35,-579.79 261.35,-579.73"/>
</g>
<!-- Node7 -->
<g id="node7" class="node">
<title>Node7</title>
<g id="a_node7"><a xlink:href="class_photon_1_1_pun_1_1_demo_1_1_asteroids_1_1_asteroids_game_manager.xhtml" target="_top" xlink:title=" ">
<polygon fill="white" stroke="black" points="374,-882.5 374,-912.5 517,-912.5 517,-882.5 374,-882.5"/>
<text text-anchor="start" x="382" y="-900.5" font-family="Helvetica,sans-Serif" font-size="10.00">Photon.Pun.Demo.Asteroids.</text>
<text text-anchor="middle" x="445.5" y="-889.5" font-family="Helvetica,sans-Serif" font-size="10.00">AsteroidsGameManager</text>
</a>
</g>
</g>
<!-- Node2&#45;&gt;Node7 -->
<g id="edge6" class="edge">
<title>Node2&#45;&gt;Node7</title>
<path fill="none" stroke="midnightblue" d="M259.59,-579.67C264.72,-639.32 285.87,-790.46 371,-873.5 374.56,-876.97 378.62,-879.94 382.97,-882.47"/>
<polygon fill="midnightblue" stroke="midnightblue" points="263.08,-579.34 258.81,-569.64 256.1,-579.88 263.08,-579.34"/>
</g>
<!-- Node8 -->
<g id="node8" class="node">
<title>Node8</title>
<g id="a_node8"><a xlink:href="class_photon_1_1_pun_1_1_demo_1_1_asteroids_1_1_lobby_main_panel.xhtml" target="_top" xlink:title=" ">
<polygon fill="white" stroke="black" points="374,-833.5 374,-863.5 517,-863.5 517,-833.5 374,-833.5"/>
<text text-anchor="start" x="382" y="-851.5" font-family="Helvetica,sans-Serif" font-size="10.00">Photon.Pun.Demo.Asteroids.</text>
<text text-anchor="middle" x="445.5" y="-840.5" font-family="Helvetica,sans-Serif" font-size="10.00">LobbyMainPanel</text>
</a>
</g>
</g>
<!-- Node2&#45;&gt;Node8 -->
<g id="edge7" class="edge">
<title>Node2&#45;&gt;Node8</title>
<path fill="none" stroke="midnightblue" d="M261.45,-579.73C270.04,-632.76 297.25,-756.47 371,-824.5 374.75,-827.96 379.01,-830.92 383.53,-833.45"/>
<polygon fill="midnightblue" stroke="midnightblue" points="264.87,-578.89 259.89,-569.53 257.95,-579.95 264.87,-578.89"/>
</g>
<!-- Node9 -->
<g id="node9" class="node">
<title>Node9</title>
<g id="a_node9"><a xlink:href="class_photon_1_1_pun_1_1_demo_1_1_asteroids_1_1_player_overview_panel.xhtml" target="_top" xlink:title=" ">
<polygon fill="white" stroke="black" points="374,-784.5 374,-814.5 517,-814.5 517,-784.5 374,-784.5"/>
<text text-anchor="start" x="382" y="-802.5" font-family="Helvetica,sans-Serif" font-size="10.00">Photon.Pun.Demo.Asteroids.</text>
<text text-anchor="middle" x="445.5" y="-791.5" font-family="Helvetica,sans-Serif" font-size="10.00">PlayerOverviewPanel</text>
</a>
</g>
</g>
<!-- Node2&#45;&gt;Node9 -->
<g id="edge8" class="edge">
<title>Node2&#45;&gt;Node9</title>
<path fill="none" stroke="midnightblue" d="M264.02,-579.54C276.26,-625.16 308.36,-722 371,-775.5 374.98,-778.9 379.45,-781.82 384.18,-784.33"/>
<polygon fill="midnightblue" stroke="midnightblue" points="267.34,-578.42 261.45,-569.61 260.56,-580.17 267.34,-578.42"/>
</g>
<!-- Node10 -->
<g id="node10" class="node">
<title>Node10</title>
<g id="a_node10"><a xlink:href="class_photon_1_1_pun_1_1_demo_1_1_cockpit_1_1_friend_list_view.xhtml" target="_top" xlink:title="Friend list UI view.">
<polygon fill="white" stroke="black" points="378,-735.5 378,-765.5 513,-765.5 513,-735.5 378,-735.5"/>
<text text-anchor="start" x="386" y="-753.5" font-family="Helvetica,sans-Serif" font-size="10.00">Photon.Pun.Demo.Cockpit.</text>
<text text-anchor="middle" x="445.5" y="-742.5" font-family="Helvetica,sans-Serif" font-size="10.00">FriendListView</text>
</a>
</g>
</g>
<!-- Node2&#45;&gt;Node10 -->
<g id="edge9" class="edge">
<title>Node2&#45;&gt;Node10</title>
<path fill="none" stroke="midnightblue" d="M267.82,-579.19C283.88,-616.46 319.23,-686.94 371,-726.5 375.48,-729.92 380.47,-732.87 385.68,-735.4"/>
<polygon fill="midnightblue" stroke="midnightblue" points="270.9,-577.48 263.81,-569.61 264.44,-580.19 270.9,-577.48"/>
</g>
<!-- Node11 -->
<g id="node11" class="node">
<title>Node11</title>
<g id="a_node11"><a xlink:href="class_photon_1_1_pun_1_1_demo_1_1_cockpit_1_1_player_details_controller.xhtml" target="_top" xlink:title="Controller for the Playerdetails UI view">
<polygon fill="white" stroke="black" points="378,-686.5 378,-716.5 513,-716.5 513,-686.5 378,-686.5"/>
<text text-anchor="start" x="386" y="-704.5" font-family="Helvetica,sans-Serif" font-size="10.00">Photon.Pun.Demo.Cockpit.</text>
<text text-anchor="middle" x="445.5" y="-693.5" font-family="Helvetica,sans-Serif" font-size="10.00">PlayerDetailsController</text>
</a>
</g>
</g>
<!-- Node2&#45;&gt;Node11 -->
<g id="edge10" class="edge">
<title>Node2&#45;&gt;Node11</title>
<path fill="none" stroke="midnightblue" d="M273.78,-577.96C293.47,-605.53 329.63,-650.88 371,-677.5 376.31,-680.91 382.14,-683.88 388.13,-686.46"/>
<polygon fill="midnightblue" stroke="midnightblue" points="276.58,-575.86 267.98,-569.68 270.85,-579.88 276.58,-575.86"/>
</g>
<!-- Node12 -->
<g id="node12" class="node">
<title>Node12</title>
<g id="a_node12"><a xlink:href="class_photon_1_1_pun_1_1_demo_1_1_cockpit_1_1_player_list_view.xhtml" target="_top" xlink:title="Player list UI View.">
<polygon fill="white" stroke="black" points="378,-637.5 378,-667.5 513,-667.5 513,-637.5 378,-637.5"/>
<text text-anchor="start" x="386" y="-655.5" font-family="Helvetica,sans-Serif" font-size="10.00">Photon.Pun.Demo.Cockpit.</text>
<text text-anchor="middle" x="445.5" y="-644.5" font-family="Helvetica,sans-Serif" font-size="10.00">PlayerListView</text>
</a>
</g>
</g>
<!-- Node2&#45;&gt;Node12 -->
<g id="edge11" class="edge">
<title>Node2&#45;&gt;Node12</title>
<path fill="none" stroke="midnightblue" d="M285.72,-575.65C307.87,-591.8 340.21,-613.71 371,-628.5 377.78,-631.75 385.11,-634.73 392.42,-637.4"/>
<polygon fill="midnightblue" stroke="midnightblue" points="287.59,-572.68 277.46,-569.55 283.43,-578.31 287.59,-572.68"/>
</g>
<!-- Node13 -->
<g id="node13" class="node">
<title>Node13</title>
<g id="a_node13"><a xlink:href="class_photon_1_1_pun_1_1_demo_1_1_cockpit_1_1_pun_cockpit.xhtml" target="_top" xlink:title="UI based work in progress to test out api and act as foundation when dealing with room,...">
<polygon fill="white" stroke="black" points="378,-588.5 378,-618.5 513,-618.5 513,-588.5 378,-588.5"/>
<text text-anchor="start" x="386" y="-606.5" font-family="Helvetica,sans-Serif" font-size="10.00">Photon.Pun.Demo.Cockpit.</text>
<text text-anchor="middle" x="445.5" y="-595.5" font-family="Helvetica,sans-Serif" font-size="10.00">PunCockpit</text>
</a>
</g>
</g>
<!-- Node2&#45;&gt;Node13 -->
<g id="edge12" class="edge">
<title>Node2&#45;&gt;Node13</title>
<path fill="none" stroke="midnightblue" d="M325.07,-572.12C345.48,-577.48 367.7,-583.32 387.38,-588.49"/>
<polygon fill="midnightblue" stroke="midnightblue" points="325.78,-568.69 315.22,-569.53 324.01,-575.46 325.78,-568.69"/>
</g>
<!-- Node14 -->
<g id="node14" class="node">
<title>Node14</title>
<g id="a_node14"><a xlink:href="class_photon_1_1_pun_1_1_demo_1_1_cockpit_1_1_pun_cockpit_embed.xhtml" target="_top" xlink:title="Use this in scenes you want to leave Control for connection and pun related commands to Cockpit.">
<polygon fill="white" stroke="black" points="378,-539.5 378,-569.5 513,-569.5 513,-539.5 378,-539.5"/>
<text text-anchor="start" x="386" y="-557.5" font-family="Helvetica,sans-Serif" font-size="10.00">Photon.Pun.Demo.Cockpit.</text>
<text text-anchor="middle" x="445.5" y="-546.5" font-family="Helvetica,sans-Serif" font-size="10.00">PunCockpitEmbed</text>
</a>
</g>
</g>
<!-- Node2&#45;&gt;Node14 -->
<g id="edge13" class="edge">
<title>Node2&#45;&gt;Node14</title>
<path fill="none" stroke="midnightblue" d="M335.67,-554.5C349.66,-554.5 364.12,-554.5 377.76,-554.5"/>
<polygon fill="midnightblue" stroke="midnightblue" points="335.59,-551 325.59,-554.5 335.59,-558 335.59,-551"/>
</g>
<!-- Node15 -->
<g id="node15" class="node">
<title>Node15</title>
<g id="a_node15"><a xlink:href="class_photon_1_1_pun_1_1_demo_1_1_cockpit_1_1_room_list_view.xhtml" target="_top" xlink:title="Room list UI View.">
<polygon fill="white" stroke="black" points="378,-490.5 378,-520.5 513,-520.5 513,-490.5 378,-490.5"/>
<text text-anchor="start" x="386" y="-508.5" font-family="Helvetica,sans-Serif" font-size="10.00">Photon.Pun.Demo.Cockpit.</text>
<text text-anchor="middle" x="445.5" y="-497.5" font-family="Helvetica,sans-Serif" font-size="10.00">RoomListView</text>
</a>
</g>
</g>
<!-- Node2&#45;&gt;Node15 -->
<g id="edge14" class="edge">
<title>Node2&#45;&gt;Node15</title>
<path fill="none" stroke="midnightblue" d="M325.07,-536.88C345.48,-531.52 367.7,-525.68 387.38,-520.51"/>
<polygon fill="midnightblue" stroke="midnightblue" points="324.01,-533.54 315.22,-539.47 325.78,-540.31 324.01,-533.54"/>
</g>
<!-- Node16 -->
<g id="node16" class="node">
<title>Node16</title>
<g id="a_node16"><a xlink:href="class_photon_1_1_pun_1_1_demo_1_1_procedural_1_1_cluster.xhtml" target="_top" xlink:title="The Cluster component has references to all Blocks that are part of this Cluster.">
<polygon fill="white" stroke="black" points="371,-441.5 371,-471.5 520,-471.5 520,-441.5 371,-441.5"/>
<text text-anchor="start" x="379" y="-459.5" font-family="Helvetica,sans-Serif" font-size="10.00">Photon.Pun.Demo.Procedural.</text>
<text text-anchor="middle" x="445.5" y="-448.5" font-family="Helvetica,sans-Serif" font-size="10.00">Cluster</text>
</a>
</g>
</g>
<!-- Node2&#45;&gt;Node16 -->
<g id="edge15" class="edge">
<title>Node2&#45;&gt;Node16</title>
<path fill="none" stroke="midnightblue" d="M328.45,-534.72C330.71,-533.4 332.91,-531.99 335,-530.5 357,-514.81 349.2,-497.48 371,-481.5 376.22,-477.68 382.06,-474.41 388.12,-471.62"/>
<polygon fill="midnightblue" stroke="midnightblue" points="326.7,-531.68 319.43,-539.39 329.92,-537.9 326.7,-531.68"/>
</g>
<!-- Node17 -->
<g id="node17" class="node">
<title>Node17</title>
<g id="a_node17"><a xlink:href="class_photon_1_1_pun_1_1_demo_1_1_procedural_1_1_ingame_control_panel.xhtml" target="_top" xlink:title="The Ingame Control Panel basically controls the WorldGenerator.">
<polygon fill="white" stroke="black" points="371,-392.5 371,-422.5 520,-422.5 520,-392.5 371,-392.5"/>
<text text-anchor="start" x="379" y="-410.5" font-family="Helvetica,sans-Serif" font-size="10.00">Photon.Pun.Demo.Procedural.</text>
<text text-anchor="middle" x="445.5" y="-399.5" font-family="Helvetica,sans-Serif" font-size="10.00">IngameControlPanel</text>
</a>
</g>
</g>
<!-- Node2&#45;&gt;Node17 -->
<g id="edge16" class="edge">
<title>Node2&#45;&gt;Node17</title>
<path fill="none" stroke="midnightblue" d="M331.07,-533.91C332.43,-532.83 333.74,-531.69 335,-530.5 368.62,-498.52 337.79,-464.91 371,-432.5 374.95,-428.64 379.53,-425.38 384.42,-422.61"/>
<polygon fill="midnightblue" stroke="midnightblue" points="329.11,-531 322.77,-539.49 333.02,-536.81 329.11,-531"/>
</g>
<!-- Node18 -->
<g id="node18" class="node">
<title>Node18</title>
<g id="a_node18"><a xlink:href="class_photon_1_1_pun_1_1_demo_1_1_pun_basics_1_1_game_manager.xhtml" target="_top" xlink:title="Game manager.">
<polygon fill="white" stroke="black" points="371,-343.5 371,-373.5 520,-373.5 520,-343.5 371,-343.5"/>
<text text-anchor="start" x="379" y="-361.5" font-family="Helvetica,sans-Serif" font-size="10.00">Photon.Pun.Demo.PunBasics.</text>
<text text-anchor="middle" x="445.5" y="-350.5" font-family="Helvetica,sans-Serif" font-size="10.00">GameManager</text>
</a>
</g>
</g>
<!-- Node2&#45;&gt;Node18 -->
<g id="edge17" class="edge">
<title>Node2&#45;&gt;Node18</title>
<path fill="none" stroke="midnightblue" d="M332.14,-533.31C333.13,-532.41 334.08,-531.48 335,-530.5 381.07,-481.49 325.57,-433.1 371,-383.5 374.55,-379.62 378.72,-376.35 383.25,-373.58"/>
<polygon fill="midnightblue" stroke="midnightblue" points="329.82,-530.68 323.93,-539.48 334.03,-536.27 329.82,-530.68"/>
</g>
<!-- Node19 -->
<g id="node19" class="node">
<title>Node19</title>
<g id="a_node19"><a xlink:href="class_photon_1_1_pun_1_1_demo_1_1_pun_basics_1_1_launcher.xhtml" target="_top" xlink:title="Launch manager.">
<polygon fill="white" stroke="black" points="371,-294.5 371,-324.5 520,-324.5 520,-294.5 371,-294.5"/>
<text text-anchor="start" x="379" y="-312.5" font-family="Helvetica,sans-Serif" font-size="10.00">Photon.Pun.Demo.PunBasics.</text>
<text text-anchor="middle" x="445.5" y="-301.5" font-family="Helvetica,sans-Serif" font-size="10.00">Launcher</text>
</a>
</g>
</g>
<!-- Node2&#45;&gt;Node19 -->
<g id="edge18" class="edge">
<title>Node2&#45;&gt;Node19</title>
<path fill="none" stroke="midnightblue" d="M332.61,-533C333.44,-532.2 334.23,-531.36 335,-530.5 393.74,-464.22 313.11,-401.53 371,-334.5 374.35,-330.62 378.32,-327.35 382.66,-324.58"/>
<polygon fill="midnightblue" stroke="midnightblue" points="330.15,-530.49 324.51,-539.47 334.51,-535.96 330.15,-530.49"/>
</g>
<!-- Node20 -->
<g id="node20" class="node">
<title>Node20</title>
<g id="a_node20"><a xlink:href="class_photon_1_1_pun_1_1_demo_1_1_pun_basics_1_1_player_manager.xhtml" target="_top" xlink:title="Player manager.">
<polygon fill="white" stroke="black" points="371,-245.5 371,-275.5 520,-275.5 520,-245.5 371,-245.5"/>
<text text-anchor="start" x="379" y="-263.5" font-family="Helvetica,sans-Serif" font-size="10.00">Photon.Pun.Demo.PunBasics.</text>
<text text-anchor="middle" x="445.5" y="-252.5" font-family="Helvetica,sans-Serif" font-size="10.00">PlayerManager</text>
</a>
</g>
</g>
<!-- Node2&#45;&gt;Node20 -->
<g id="edge19" class="edge">
<title>Node2&#45;&gt;Node20</title>
<path fill="none" stroke="midnightblue" d="M332.73,-532.97C333.51,-532.17 334.27,-531.35 335,-530.5 406.51,-446.84 300.57,-370.07 371,-285.5 374.19,-281.67 378,-278.42 382.17,-275.67"/>
<polygon fill="midnightblue" stroke="midnightblue" points="330.48,-530.28 325,-539.35 334.94,-535.68 330.48,-530.28"/>
</g>
<!-- Node21 -->
<g id="node21" class="node">
<title>Node21</title>
<g id="a_node21"><a xlink:href="class_photon_1_1_pun_1_1_utility_scripts_1_1_connect_and_join_random.xhtml" target="_top" xlink:title="Simple component to call ConnectUsingSettings and to get into a PUN room easily.">
<polygon fill="white" stroke="black" points="381,-196.5 381,-226.5 510,-226.5 510,-196.5 381,-196.5"/>
<text text-anchor="start" x="389" y="-214.5" font-family="Helvetica,sans-Serif" font-size="10.00">Photon.Pun.UtilityScripts.</text>
<text text-anchor="middle" x="445.5" y="-203.5" font-family="Helvetica,sans-Serif" font-size="10.00">ConnectAndJoinRandom</text>
</a>
</g>
</g>
<!-- Node2&#45;&gt;Node21 -->
<g id="edge20" class="edge">
<title>Node2&#45;&gt;Node21</title>
<path fill="none" stroke="midnightblue" d="M332.76,-532.99C333.53,-532.19 334.28,-531.36 335,-530.5 419.33,-429.41 287.98,-338.66 371,-236.5 374.15,-232.63 377.92,-229.36 382.07,-226.59"/>
<polygon fill="midnightblue" stroke="midnightblue" points="330.5,-530.32 325.1,-539.43 335,-535.68 330.5,-530.32"/>
</g>
<!-- Node22 -->
<g id="node22" class="node">
<title>Node22</title>
<g id="a_node22"><a xlink:href="class_photon_1_1_pun_1_1_utility_scripts_1_1_countdown_timer.xhtml" target="_top" xlink:title="This is a basic, network&#45;synced CountdownTimer based on properties.">
<polygon fill="white" stroke="black" points="381,-147.5 381,-177.5 510,-177.5 510,-147.5 381,-147.5"/>
<text text-anchor="start" x="389" y="-165.5" font-family="Helvetica,sans-Serif" font-size="10.00">Photon.Pun.UtilityScripts.</text>
<text text-anchor="middle" x="445.5" y="-154.5" font-family="Helvetica,sans-Serif" font-size="10.00">CountdownTimer</text>
</a>
</g>
</g>
<!-- Node2&#45;&gt;Node22 -->
<g id="edge21" class="edge">
<title>Node2&#45;&gt;Node22</title>
<path fill="none" stroke="midnightblue" d="M333.07,-532.7C333.73,-531.99 334.38,-531.26 335,-530.5 432.17,-411.95 275.36,-307.29 371,-187.5 374.11,-183.6 377.86,-180.31 381.99,-177.53"/>
<polygon fill="midnightblue" stroke="midnightblue" points="330.47,-530.32 325.17,-539.49 335.03,-535.63 330.47,-530.32"/>
</g>
<!-- Node23 -->
<g id="node23" class="node">
<title>Node23</title>
<g id="a_node23"><a xlink:href="class_photon_1_1_pun_1_1_utility_scripts_1_1_player_numbering.xhtml" target="_top" xlink:title="Implements consistent numbering in a room/game with help of room properties.">
<polygon fill="white" stroke="black" points="381,-98.5 381,-128.5 510,-128.5 510,-98.5 381,-98.5"/>
<text text-anchor="start" x="389" y="-116.5" font-family="Helvetica,sans-Serif" font-size="10.00">Photon.Pun.UtilityScripts.</text>
<text text-anchor="middle" x="445.5" y="-105.5" font-family="Helvetica,sans-Serif" font-size="10.00">PlayerNumbering</text>
</a>
</g>
</g>
<!-- Node2&#45;&gt;Node23 -->
<g id="edge22" class="edge">
<title>Node2&#45;&gt;Node23</title>
<path fill="none" stroke="midnightblue" d="M333.14,-532.65C333.78,-531.95 334.4,-531.24 335,-530.5 390.01,-462.49 316.87,-207.22 371,-138.5 374,-134.69 377.61,-131.45 381.6,-128.71"/>
<polygon fill="midnightblue" stroke="midnightblue" points="330.78,-530.07 325.56,-539.29 335.39,-535.33 330.78,-530.07"/>
</g>
<!-- Node24 -->
<g id="node24" class="node">
<title>Node24</title>
<g id="a_node24"><a xlink:href="class_photon_1_1_pun_1_1_utility_scripts_1_1_pun_teams.xhtml" target="_top" xlink:title="Implements teams in a room/game with help of player properties.">
<polygon fill="white" stroke="black" points="381,-49.5 381,-79.5 510,-79.5 510,-49.5 381,-49.5"/>
<text text-anchor="start" x="389" y="-67.5" font-family="Helvetica,sans-Serif" font-size="10.00">Photon.Pun.UtilityScripts.</text>
<text text-anchor="middle" x="445.5" y="-56.5" font-family="Helvetica,sans-Serif" font-size="10.00">PunTeams</text>
</a>
</g>
</g>
<!-- Node2&#45;&gt;Node24 -->
<g id="edge23" class="edge">
<title>Node2&#45;&gt;Node24</title>
<path fill="none" stroke="midnightblue" d="M333.15,-532.66C333.79,-531.96 334.41,-531.24 335,-530.5 396.45,-453.74 310.54,-167.04 371,-89.5 373.98,-85.67 377.58,-82.43 381.56,-79.68"/>
<polygon fill="midnightblue" stroke="midnightblue" points="330.78,-530.08 325.6,-539.32 335.41,-535.33 330.78,-530.08"/>
</g>
<!-- Node25 -->
<g id="node25" class="node">
<title>Node25</title>
<g id="a_node25"><a xlink:href="class_photon_1_1_pun_1_1_utility_scripts_1_1_pun_turn_manager.xhtml" target="_top" xlink:title="Pun turnBased Game manager.">
<polygon fill="white" stroke="black" points="381,-0.5 381,-30.5 510,-30.5 510,-0.5 381,-0.5"/>
<text text-anchor="start" x="389" y="-18.5" font-family="Helvetica,sans-Serif" font-size="10.00">Photon.Pun.UtilityScripts.</text>
<text text-anchor="middle" x="445.5" y="-7.5" font-family="Helvetica,sans-Serif" font-size="10.00">PunTurnManager</text>
</a>
</g>
</g>
<!-- Node2&#45;&gt;Node25 -->
<g id="edge24" class="edge">
<title>Node2&#45;&gt;Node25</title>
<path fill="none" stroke="midnightblue" d="M333.16,-532.66C333.8,-531.96 334.41,-531.24 335,-530.5 403.02,-444.81 303.56,-125.65 371,-39.5 373.81,-35.91 377.18,-32.84 380.89,-30.23"/>
<polygon fill="midnightblue" stroke="midnightblue" points="330.79,-530.09 325.63,-539.35 335.43,-535.33 330.79,-530.09"/>
</g>
</g>
</svg>
        <g id="navigator" transform="translate(0 0)" fill="#404254">
                <rect fill="#f2f5e9" fill-opacity="0.5" stroke="#606060" stroke-width=".5" x="0" y="0" width="60" height="60"/>
                <use id="zoomplus" xlink:href="#zoomPlus" x="17" y="9" onmousedown="handleZoom(evt,'in')"/>
                <use id="zoomminus" xlink:href="#zoomMin" x="42" y="9" onmousedown="handleZoom(evt,'out')"/>
                <use id="reset" xlink:href="#resetDef" x="30" y="36" onmousedown="handleReset()"/>
                <g id="arrowUp" xlink:href="#dirArrow" transform="translate(30 24)" onmousedown="handlePan(0,-1)">
                  <use xlink:href="#rim" fill="#404040">
                        <set attributeName="fill" to="#808080" begin="arrowUp.mouseover" end="arrowUp.mouseout"/>
                  </use>
                  <path fill="none" stroke="white" stroke-width="1.5" d="M0,-3.0v7 M-2.5,-0.5L0,-3.0L2.5,-0.5"/>
                </g>
                <g id="arrowRight" xlink:href="#dirArrow" transform="rotate(90) translate(36 -43)" onmousedown="handlePan(1,0)">
                  <use xlink:href="#rim" fill="#404040">
                        <set attributeName="fill" to="#808080" begin="arrowRight.mouseover" end="arrowRight.mouseout"/>
                  </use>
                  <path fill="none" stroke="white" stroke-width="1.5" d="M0,-3.0v7 M-2.5,-0.5L0,-3.0L2.5,-0.5"/>
                </g>
                <g id="arrowDown" xlink:href="#dirArrow" transform="rotate(180) translate(-30 -48)" onmousedown="handlePan(0,1)">
                  <use xlink:href="#rim" fill="#404040">
                        <set attributeName="fill" to="#808080" begin="arrowDown.mouseover" end="arrowDown.mouseout"/>
                  </use>
                  <path fill="none" stroke="white" stroke-width="1.5" d="M0,-3.0v7 M-2.5,-0.5L0,-3.0L2.5,-0.5"/>
                </g>
                <g id="arrowLeft" xlink:href="#dirArrow" transform="rotate(270) translate(-36 17)" onmousedown="handlePan(-1,0)">
                  <use xlink:href="#rim" fill="#404040">
                        <set attributeName="fill" to="#808080" begin="arrowLeft.mouseover" end="arrowLeft.mouseout"/>
                  </use>
                  <path fill="none" stroke="white" stroke-width="1.5" d="M0,-3.0v7 M-2.5,-0.5L0,-3.0L2.5,-0.5"/>
                </g>
        </g>
        <svg viewBox="0 0 15 15" width="100%" height="30px" preserveAspectRatio="xMaxYMin meet">
         <g id="arrow_out" transform="scale(0.3 0.3)">
          <a xlink:href="interface_photon_1_1_realtime_1_1_i_connection_callbacks__inherit__graph_org.svg" target="_base">
           <rect id="button" ry="5" rx="5" y="6" x="6" height="38" width="38"
                fill="#f2f5e9" fill-opacity="0.5" stroke="#606060" stroke-width="1.0"/>
           <path id="arrow"
             d="M 11.500037,31.436501 C 11.940474,20.09759 22.043105,11.32322 32.158766,21.979434 L 37.068811,17.246167 C 37.068811,17.246167 37.088388,32 37.088388,32 L 22.160133,31.978069 C 22.160133,31.978069 26.997745,27.140456 26.997745,27.140456 C 18.528582,18.264221 13.291696,25.230495 11.500037,31.436501 z"
             style="fill:#404040;"/>
          </a>
         </g>
        </svg>
</svg>
