<?xml version="1.0" encoding="UTF-8" standalone="no"?>
<!DOCTYPE svg PUBLIC "-//W3C//DTD SVG 1.1//EN"
 "http://www.w3.org/Graphics/SVG/1.1/DTD/svg11.dtd">
<!-- Generated by graphviz version 2.50.0 (20211204.2007)
 -->
<!-- Title: GenericDictionary&lt; TKey, TValue &gt; Pages: 1 -->
<svg width="270pt" height="106pt"
 viewBox="0.00 0.00 269.50 106.00" xmlns="http://www.w3.org/2000/svg" xmlns:xlink="http://www.w3.org/1999/xlink">
<g id="graph0" class="graph" transform="scale(1 1) rotate(0) translate(4 102)">
<title>GenericDictionary&lt; TKey, TValue &gt;</title>
<polygon fill="white" stroke="transparent" points="-4,4 -4,-102 265.5,-102 265.5,4 -4,4"/>
<!-- Node1 -->
<g id="node1" class="node">
<title>Node1</title>
<g id="a_node1"><a xlink:title="Generic Serializable Dictionary for Unity 2020.1.">
<polygon fill="#bfbfbf" stroke="black" points="68.5,-0.5 68.5,-30.5 168.5,-30.5 168.5,-0.5 68.5,-0.5"/>
<text text-anchor="start" x="76.5" y="-18.5" font-family="Helvetica,sans-Serif" font-size="10.00">GenericDictionary&lt;</text>
<text text-anchor="middle" x="118.5" y="-7.5" font-family="Helvetica,sans-Serif" font-size="10.00"> TKey, TValue &gt;</text>
</a>
</g>
</g>
<!-- Node2 -->
<g id="node2" class="node">
<title>Node2</title>
<g id="a_node2"><a xlink:title=" ">
<polygon fill="white" stroke="black" points="0,-67.5 0,-97.5 97,-97.5 97,-67.5 0,-67.5"/>
<text text-anchor="start" x="8" y="-85.5" font-family="Helvetica,sans-Serif" font-size="10.00">IDictionary&lt; TKey,</text>
<text text-anchor="middle" x="48.5" y="-74.5" font-family="Helvetica,sans-Serif" font-size="10.00"> TValue &gt;</text>
</a>
</g>
</g>
<!-- Node2&#45;&gt;Node1 -->
<g id="edge1" class="edge">
<title>Node2&#45;&gt;Node1</title>
<path fill="none" stroke="midnightblue" d="M71.32,-60.31C81.82,-50.56 93.99,-39.26 103.34,-30.58"/>
<polygon fill="midnightblue" stroke="midnightblue" points="68.64,-58.03 63.69,-67.4 73.4,-63.16 68.64,-58.03"/>
</g>
<!-- Node3 -->
<g id="node3" class="node">
<title>Node3</title>
<g id="a_node3"><a xlink:title=" ">
<polygon fill="white" stroke="black" points="115.5,-73 115.5,-92 261.5,-92 261.5,-73 115.5,-73"/>
<text text-anchor="middle" x="188.5" y="-80" font-family="Helvetica,sans-Serif" font-size="10.00">ISerializationCallbackReceiver</text>
</a>
</g>
</g>
<!-- Node3&#45;&gt;Node1 -->
<g id="edge2" class="edge">
<title>Node3&#45;&gt;Node1</title>
<path fill="none" stroke="midnightblue" d="M171.73,-65.93C160.15,-55.18 144.89,-41 133.67,-30.59"/>
<polygon fill="midnightblue" stroke="midnightblue" points="169.35,-68.49 179.06,-72.73 174.11,-63.36 169.35,-68.49"/>
</g>
</g>
</svg>
