<?xml version="1.0" encoding="UTF-8" standalone="no"?>
<!DOCTYPE svg PUBLIC "-//W3C//DTD SVG 1.1//EN"
 "http://www.w3.org/Graphics/SVG/1.1/DTD/svg11.dtd">
<!-- Generated by graphviz version 2.47.3 (20210619.1520)
 -->
<!-- Title: Photon.Pun.Demo.Asteroids.AsteroidsGame.GetColor Pages: 1 -->
<svg width="539pt" height="149pt"
 viewBox="0.00 0.00 539.00 149.00" xmlns="http://www.w3.org/2000/svg" xmlns:xlink="http://www.w3.org/1999/xlink">
<g id="graph0" class="graph" transform="scale(1 1) rotate(0) translate(4 145)">
<title>Photon.Pun.Demo.Asteroids.AsteroidsGame.GetColor</title>
<polygon fill="white" stroke="transparent" points="-4,4 -4,-145 535,-145 535,4 -4,4"/>
<!-- Node1 -->
<g id="node1" class="node">
<title>Node1</title>
<g id="a_node1"><a xlink:title=" ">
<polygon fill="#bfbfbf" stroke="black" points="388,-55.5 388,-85.5 531,-85.5 531,-55.5 388,-55.5"/>
<text text-anchor="start" x="396" y="-73.5" font-family="Helvetica,sans-Serif" font-size="10.00">Photon.Pun.Demo.Asteroids.</text>
<text text-anchor="middle" x="459.5" y="-62.5" font-family="Helvetica,sans-Serif" font-size="10.00">AsteroidsGame.GetColor</text>
</a>
</g>
</g>
<!-- Node2 -->
<g id="node2" class="node">
<title>Node2</title>
<g id="a_node2"><a xlink:href="class_photon_1_1_pun_1_1_demo_1_1_asteroids_1_1_player_overview_panel.xhtml#aa7938fca7610024fc080bfa6784bbbab" target="_top" xlink:title=" ">
<polygon fill="white" stroke="black" points="194,-110.5 194,-140.5 337,-140.5 337,-110.5 194,-110.5"/>
<text text-anchor="start" x="202" y="-128.5" font-family="Helvetica,sans-Serif" font-size="10.00">Photon.Pun.Demo.Asteroids.</text>
<text text-anchor="middle" x="265.5" y="-117.5" font-family="Helvetica,sans-Serif" font-size="10.00">PlayerOverviewPanel.Awake</text>
</a>
</g>
</g>
<!-- Node1&#45;&gt;Node2 -->
<g id="edge1" class="edge">
<title>Node1&#45;&gt;Node2</title>
<path fill="none" stroke="midnightblue" d="M396.29,-88.32C371.3,-95.48 342.81,-103.64 318.9,-110.49"/>
<polygon fill="midnightblue" stroke="midnightblue" points="397.39,-91.65 406.04,-85.53 395.46,-84.92 397.39,-91.65"/>
</g>
<!-- Node3 -->
<g id="node3" class="node">
<title>Node3</title>
<g id="a_node3"><a xlink:href="class_photon_1_1_pun_1_1_demo_1_1_asteroids_1_1_player_list_entry.xhtml#a01ad9f9794da0298a338bc96758ac83f" target="_top" xlink:title=" ">
<polygon fill="white" stroke="black" points="179,-50 179,-91 352,-91 352,-50 179,-50"/>
<text text-anchor="start" x="187" y="-79" font-family="Helvetica,sans-Serif" font-size="10.00">Photon.Pun.Demo.Asteroids.</text>
<text text-anchor="start" x="187" y="-68" font-family="Helvetica,sans-Serif" font-size="10.00">PlayerListEntry.OnPlayerNumbering</text>
<text text-anchor="middle" x="265.5" y="-57" font-family="Helvetica,sans-Serif" font-size="10.00">Changed</text>
</a>
</g>
</g>
<!-- Node1&#45;&gt;Node3 -->
<g id="edge2" class="edge">
<title>Node1&#45;&gt;Node3</title>
<path fill="none" stroke="midnightblue" d="M377.6,-70.5C369.14,-70.5 360.52,-70.5 352.01,-70.5"/>
<polygon fill="midnightblue" stroke="midnightblue" points="377.82,-74 387.82,-70.5 377.82,-67 377.82,-74"/>
</g>
<!-- Node6 -->
<g id="node6" class="node">
<title>Node6</title>
<g id="a_node6"><a xlink:href="class_photon_1_1_pun_1_1_demo_1_1_asteroids_1_1_spaceship.xhtml#a9219295c104294e1a10163ee99b94257" target="_top" xlink:title=" ">
<polygon fill="white" stroke="black" points="194,-0.5 194,-30.5 337,-30.5 337,-0.5 194,-0.5"/>
<text text-anchor="start" x="202" y="-18.5" font-family="Helvetica,sans-Serif" font-size="10.00">Photon.Pun.Demo.Asteroids.</text>
<text text-anchor="middle" x="265.5" y="-7.5" font-family="Helvetica,sans-Serif" font-size="10.00">Spaceship.Start</text>
</a>
</g>
</g>
<!-- Node1&#45;&gt;Node6 -->
<g id="edge5" class="edge">
<title>Node1&#45;&gt;Node6</title>
<path fill="none" stroke="midnightblue" d="M396.29,-52.68C371.3,-45.52 342.81,-37.36 318.9,-30.51"/>
<polygon fill="midnightblue" stroke="midnightblue" points="395.46,-56.08 406.04,-55.47 397.39,-49.35 395.46,-56.08"/>
</g>
<!-- Node4 -->
<g id="node4" class="node">
<title>Node4</title>
<g id="a_node4"><a xlink:href="class_photon_1_1_pun_1_1_demo_1_1_asteroids_1_1_player_list_entry.xhtml#aff9c10c96ed07b21b0234e3fcd1445c3" target="_top" xlink:title=" ">
<polygon fill="white" stroke="black" points="0,-79.5 0,-109.5 143,-109.5 143,-79.5 0,-79.5"/>
<text text-anchor="start" x="8" y="-97.5" font-family="Helvetica,sans-Serif" font-size="10.00">Photon.Pun.Demo.Asteroids.</text>
<text text-anchor="middle" x="71.5" y="-86.5" font-family="Helvetica,sans-Serif" font-size="10.00">PlayerListEntry.OnDisable</text>
</a>
</g>
</g>
<!-- Node3&#45;&gt;Node4 -->
<g id="edge3" class="edge">
<title>Node3&#45;&gt;Node4</title>
<path fill="none" stroke="midnightblue" d="M168.81,-82.46C160.21,-83.54 151.61,-84.61 143.28,-85.65"/>
<polygon fill="midnightblue" stroke="midnightblue" points="169.4,-85.91 178.89,-81.2 168.53,-78.97 169.4,-85.91"/>
</g>
<!-- Node5 -->
<g id="node5" class="node">
<title>Node5</title>
<g id="a_node5"><a xlink:href="class_photon_1_1_pun_1_1_demo_1_1_asteroids_1_1_player_list_entry.xhtml#a7c371449cdb074b85cf13b3bcd3e9503" target="_top" xlink:title=" ">
<polygon fill="white" stroke="black" points="0,-30.5 0,-60.5 143,-60.5 143,-30.5 0,-30.5"/>
<text text-anchor="start" x="8" y="-48.5" font-family="Helvetica,sans-Serif" font-size="10.00">Photon.Pun.Demo.Asteroids.</text>
<text text-anchor="middle" x="71.5" y="-37.5" font-family="Helvetica,sans-Serif" font-size="10.00">PlayerListEntry.OnEnable</text>
</a>
</g>
</g>
<!-- Node3&#45;&gt;Node5 -->
<g id="edge4" class="edge">
<title>Node3&#45;&gt;Node5</title>
<path fill="none" stroke="midnightblue" d="M168.81,-58.04C160.21,-56.92 151.61,-55.8 143.28,-54.72"/>
<polygon fill="midnightblue" stroke="midnightblue" points="168.52,-61.53 178.89,-59.35 169.42,-54.59 168.52,-61.53"/>
</g>
</g>
</svg>
