<?xml version="1.0" encoding="UTF-8" standalone="no"?>
<!DOCTYPE svg PUBLIC "-//W3C//DTD SVG 1.1//EN"
 "http://www.w3.org/Graphics/SVG/1.1/DTD/svg11.dtd">
<!-- Generated by graphviz version 2.50.0 (20211204.2007)
 -->
<!-- Title: Utils.MapRange Pages: 1 -->
<svg width="431pt" height="66pt"
 viewBox="0.00 0.00 431.00 66.00" xmlns="http://www.w3.org/2000/svg" xmlns:xlink="http://www.w3.org/1999/xlink">
<g id="graph0" class="graph" transform="scale(1 1) rotate(0) translate(4 62)">
<title>Utils.MapRange</title>
<polygon fill="white" stroke="transparent" points="-4,4 -4,-62 427,-62 427,4 -4,4"/>
<!-- Node1 -->
<g id="node1" class="node">
<title>Node1</title>
<g id="a_node1"><a xlink:title="This function will remap a number in range to another.">
<polygon fill="#bfbfbf" stroke="black" points="337,-19.5 337,-38.5 423,-38.5 423,-19.5 337,-19.5"/>
<text text-anchor="middle" x="380" y="-26.5" font-family="Helvetica,sans-Serif" font-size="10.00">Utils.MapRange</text>
</a>
</g>
</g>
<!-- Node2 -->
<g id="node2" class="node">
<title>Node2</title>
<g id="a_node2"><a xlink:href="class_press_any_key.html#aa46b91ab44517db0eda96a4dfc181b39" target="_top" xlink:title=" ">
<polygon fill="white" stroke="black" points="146,-38.5 146,-57.5 301,-57.5 301,-38.5 146,-38.5"/>
<text text-anchor="middle" x="223.5" y="-45.5" font-family="Helvetica,sans-Serif" font-size="10.00">PressAnyKey.SmoothPingPong</text>
</a>
</g>
</g>
<!-- Node1&#45;&gt;Node2 -->
<g id="edge1" class="edge">
<title>Node1&#45;&gt;Node2</title>
<path fill="none" stroke="midnightblue" d="M326.63,-35.44C318.4,-36.45 309.76,-37.51 301.13,-38.58"/>
<polygon fill="midnightblue" stroke="midnightblue" points="327.28,-38.89 336.78,-34.19 326.43,-31.94 327.28,-38.89"/>
</g>
<!-- Node4 -->
<g id="node4" class="node">
<title>Node4</title>
<g id="a_node4"><a xlink:href="class_turret_indicator.html#aaa28d80b0f70bacdde2fd7974603a915" target="_top" xlink:title=" ">
<polygon fill="white" stroke="black" points="167.5,-0.5 167.5,-19.5 279.5,-19.5 279.5,-0.5 167.5,-0.5"/>
<text text-anchor="middle" x="223.5" y="-7.5" font-family="Helvetica,sans-Serif" font-size="10.00">TurretIndicator.Update</text>
</a>
</g>
</g>
<!-- Node1&#45;&gt;Node4 -->
<g id="edge3" class="edge">
<title>Node1&#45;&gt;Node4</title>
<path fill="none" stroke="midnightblue" d="M326.59,-22.55C311.49,-20.7 294.98,-18.67 279.72,-16.79"/>
<polygon fill="midnightblue" stroke="midnightblue" points="326.43,-26.06 336.78,-23.81 327.28,-19.11 326.43,-26.06"/>
</g>
<!-- Node3 -->
<g id="node3" class="node">
<title>Node3</title>
<g id="a_node3"><a xlink:href="class_press_any_key.html#a6e881e18d913060a35fc06ae2fe65b83" target="_top" xlink:title=" ">
<polygon fill="white" stroke="black" points="0,-38.5 0,-57.5 110,-57.5 110,-38.5 0,-38.5"/>
<text text-anchor="middle" x="55" y="-45.5" font-family="Helvetica,sans-Serif" font-size="10.00">PressAnyKey.Update</text>
</a>
</g>
</g>
<!-- Node2&#45;&gt;Node3 -->
<g id="edge2" class="edge">
<title>Node2&#45;&gt;Node3</title>
<path fill="none" stroke="midnightblue" d="M135.5,-48C126.91,-48 118.38,-48 110.26,-48"/>
<polygon fill="midnightblue" stroke="midnightblue" points="135.59,-51.5 145.59,-48 135.59,-44.5 135.59,-51.5"/>
</g>
</g>
</svg>
