<?xml version="1.0" encoding="UTF-8" standalone="no"?>
<!DOCTYPE svg PUBLIC "-//W3C//DTD SVG 1.1//EN"
 "http://www.w3.org/Graphics/SVG/1.1/DTD/svg11.dtd">
<!-- Generated by graphviz version 2.47.3 (20210619.1520)
 -->
<!-- Title: Photon.Chat.ChatClient.SendPrivateMessage Pages: 1 -->
<svg width="331pt" height="39pt"
 viewBox="0.00 0.00 331.00 39.00" xmlns="http://www.w3.org/2000/svg" xmlns:xlink="http://www.w3.org/1999/xlink">
<g id="graph0" class="graph" transform="scale(1 1) rotate(0) translate(4 35)">
<title>Photon.Chat.ChatClient.SendPrivateMessage</title>
<polygon fill="white" stroke="transparent" points="-4,4 -4,-35 327,-35 327,4 -4,4"/>
<!-- Node1 -->
<g id="node1" class="node">
<title>Node1</title>
<g id="a_node1"><a xlink:title="Sends a private message to a single target user.">
<polygon fill="#bfbfbf" stroke="black" points="0,-0.5 0,-30.5 144,-30.5 144,-0.5 0,-0.5"/>
<text text-anchor="start" x="8" y="-18.5" font-family="Helvetica,sans-Serif" font-size="10.00">Photon.Chat.ChatClient.Send</text>
<text text-anchor="middle" x="72" y="-7.5" font-family="Helvetica,sans-Serif" font-size="10.00">PrivateMessage</text>
</a>
</g>
</g>
<!-- Node2 -->
<g id="node2" class="node">
<title>Node2</title>
<g id="a_node2"><a xlink:href="class_photon_1_1_chat_1_1_chat_client.xhtml#af43bd1ad8d9b455840d5d00265b20bb9" target="_top" xlink:title=" ">
<polygon fill="white" stroke="black" points="180,-0.5 180,-30.5 323,-30.5 323,-0.5 180,-0.5"/>
<text text-anchor="start" x="188" y="-18.5" font-family="Helvetica,sans-Serif" font-size="10.00">Photon.Chat.ChatClient.send</text>
<text text-anchor="middle" x="251.5" y="-7.5" font-family="Helvetica,sans-Serif" font-size="10.00">PrivateMessage</text>
</a>
</g>
</g>
<!-- Node1&#45;&gt;Node2 -->
<g id="edge1" class="edge">
<title>Node1&#45;&gt;Node2</title>
<path fill="none" stroke="midnightblue" d="M144.17,-15.5C152.63,-15.5 161.31,-15.5 169.89,-15.5"/>
<polygon fill="midnightblue" stroke="midnightblue" points="169.89,-19 179.89,-15.5 169.89,-12 169.89,-19"/>
</g>
</g>
</svg>
