<?xml version="1.0" encoding="UTF-8" standalone="no"?>
<!DOCTYPE svg PUBLIC "-//W3C//DTD SVG 1.1//EN"
 "http://www.w3.org/Graphics/SVG/1.1/DTD/svg11.dtd">
<!-- Generated by graphviz version 2.47.3 (20210619.1520)
 -->
<!-- Title: PlayerUIController.UpdateCurrentHP Pages: 1 -->
<svg width="464pt" height="104pt"
 viewBox="0.00 0.00 464.00 104.00" xmlns="http://www.w3.org/2000/svg" xmlns:xlink="http://www.w3.org/1999/xlink">
<g id="graph0" class="graph" transform="scale(1 1) rotate(0) translate(4 100)">
<title>PlayerUIController.UpdateCurrentHP</title>
<!-- Node1 -->
<g id="node1" class="node">
<title>Node1</title>
<g id="a_node1"><a xlink:title="Sets the current HP value to the Image.">
<polygon fill="#bfbfbf" stroke="black" points="328,-33 328,-63 456,-63 456,-33 328,-33"/>
<text text-anchor="start" x="336" y="-51" font-family="Helvetica,sans-Serif" font-size="10.00">PlayerUIController.Update</text>
<text text-anchor="middle" x="392" y="-40" font-family="Helvetica,sans-Serif" font-size="10.00">CurrentHP</text>
</a>
</g>
</g>
<!-- Node2 -->
<g id="node2" class="node">
<title>Node2</title>
<g id="a_node2"><a xlink:href="class_player_stats.html#a6542a649dfb0cccc9fe329c83024e3ed" target="_top" xlink:title=" ">
<polygon fill="none" stroke="black" points="146,-76.5 146,-95.5 292,-95.5 292,-76.5 146,-76.5"/>
<text text-anchor="middle" x="219" y="-83.5" font-family="Helvetica,sans-Serif" font-size="10.00">PlayerStats.DealDamageRPC</text>
</a>
</g>
</g>
<!-- Node1&#45;&gt;Node2 -->
<g id="edge1" class="edge">
<title>Node1&#45;&gt;Node2</title>
<path fill="none" stroke="midnightblue" d="M317.82,-64.26C299.11,-68.42 279.59,-72.76 262.95,-76.46"/>
<polygon fill="midnightblue" stroke="midnightblue" points="318.81,-67.63 327.81,-62.04 317.29,-60.79 318.81,-67.63"/>
</g>
<!-- Node3 -->
<g id="node3" class="node">
<title>Node3</title>
<g id="a_node3"><a xlink:href="class_player_stats.html#a07cb6a60391d769fea03f1bc3b6927c6" target="_top" xlink:title=" ">
<polygon fill="none" stroke="black" points="164,-38.5 164,-57.5 274,-57.5 274,-38.5 164,-38.5"/>
<text text-anchor="middle" x="219" y="-45.5" font-family="Helvetica,sans-Serif" font-size="10.00">PlayerStats.HealRPC</text>
</a>
</g>
</g>
<!-- Node1&#45;&gt;Node3 -->
<g id="edge2" class="edge">
<title>Node1&#45;&gt;Node3</title>
<path fill="none" stroke="midnightblue" d="M317.79,-48C303.17,-48 288.06,-48 274.22,-48"/>
<polygon fill="midnightblue" stroke="midnightblue" points="317.81,-51.5 327.81,-48 317.81,-44.5 317.81,-51.5"/>
</g>
<!-- Node5 -->
<g id="node5" class="node">
<title>Node5</title>
<g id="a_node5"><a xlink:href="class_player_stats.html#a75c908d1b8c5eb0b414db7ab99ceab9e" target="_top" xlink:title="Called whenever the player levels up.">
<polygon fill="none" stroke="black" points="167,-0.5 167,-19.5 271,-19.5 271,-0.5 167,-0.5"/>
<text text-anchor="middle" x="219" y="-7.5" font-family="Helvetica,sans-Serif" font-size="10.00">PlayerStats.LevelUp</text>
</a>
</g>
</g>
<!-- Node1&#45;&gt;Node5 -->
<g id="edge4" class="edge">
<title>Node1&#45;&gt;Node5</title>
<path fill="none" stroke="midnightblue" d="M317.82,-31.74C299.11,-27.58 279.59,-23.24 262.95,-19.54"/>
<polygon fill="midnightblue" stroke="midnightblue" points="317.29,-35.21 327.81,-33.96 318.81,-28.37 317.29,-35.21"/>
</g>
<!-- Node4 -->
<g id="node4" class="node">
<title>Node4</title>
<g id="a_node4"><a xlink:href="class_player_stats.html#a27fb46ca044608f34db45eb95ac16b4c" target="_top" xlink:title=" ">
<polygon fill="none" stroke="black" points="0,-38.5 0,-57.5 110,-57.5 110,-38.5 0,-38.5"/>
<text text-anchor="middle" x="55" y="-45.5" font-family="Helvetica,sans-Serif" font-size="10.00">PlayerStats.Respawn</text>
</a>
</g>
</g>
<!-- Node3&#45;&gt;Node4 -->
<g id="edge3" class="edge">
<title>Node3&#45;&gt;Node4</title>
<path fill="none" stroke="midnightblue" d="M153.36,-48C139.07,-48 124.07,-48 110.25,-48"/>
<polygon fill="midnightblue" stroke="midnightblue" points="153.61,-51.5 163.61,-48 153.61,-44.5 153.61,-51.5"/>
</g>
<!-- Node6 -->
<g id="node6" class="node">
<title>Node6</title>
<g id="a_node6"><a xlink:href="class_player_stats.html#a2515cde362ce22291cde0073d23e2d9c" target="_top" xlink:title="Add some XP amount.">
<polygon fill="none" stroke="black" points="5,-0.5 5,-19.5 105,-19.5 105,-0.5 5,-0.5"/>
<text text-anchor="middle" x="55" y="-7.5" font-family="Helvetica,sans-Serif" font-size="10.00">PlayerStats.AddXP</text>
</a>
</g>
</g>
<!-- Node5&#45;&gt;Node6 -->
<g id="edge5" class="edge">
<title>Node5&#45;&gt;Node6</title>
<path fill="none" stroke="midnightblue" d="M156.4,-10C139.49,-10 121.38,-10 105.27,-10"/>
<polygon fill="midnightblue" stroke="midnightblue" points="156.74,-13.5 166.74,-10 156.74,-6.5 156.74,-13.5"/>
</g>
</g>
</svg>
