<?xml version="1.0" encoding="UTF-8" standalone="no"?>
<!DOCTYPE svg PUBLIC "-//W3C//DTD SVG 1.1//EN"
 "http://www.w3.org/Graphics/SVG/1.1/DTD/svg11.dtd">
<!-- Generated by graphviz version 2.50.0 (20211204.2007)
 -->
<!-- Title: GameController.GetTime Pages: 1 -->
<svg width="418pt" height="28pt"
 viewBox="0.00 0.00 418.00 28.00" xmlns="http://www.w3.org/2000/svg" xmlns:xlink="http://www.w3.org/1999/xlink">
<g id="graph0" class="graph" transform="scale(1 1) rotate(0) translate(4 24)">
<title>GameController.GetTime</title>
<polygon fill="white" stroke="transparent" points="-4,4 -4,-24 414,-24 414,4 -4,4"/>
<!-- Node1 -->
<g id="node1" class="node">
<title>Node1</title>
<g id="a_node1"><a xlink:title="Get the current time in seconds from the start of the game">
<polygon fill="#bfbfbf" stroke="black" points="286,-0.5 286,-19.5 410,-19.5 410,-0.5 286,-0.5"/>
<text text-anchor="middle" x="348" y="-7.5" font-family="Helvetica,sans-Serif" font-size="10.00">GameController.GetTime</text>
</a>
</g>
</g>
<!-- Node2 -->
<g id="node2" class="node">
<title>Node2</title>
<g id="a_node2"><a xlink:href="class_minion_stats.html#a6d9ddd98313b1be90a14a331602409bf" target="_top" xlink:title="When this entity dies, it gives to the killer this bounty">
<polygon fill="white" stroke="black" points="122,-0.5 122,-19.5 250,-19.5 250,-0.5 122,-0.5"/>
<text text-anchor="middle" x="186" y="-7.5" font-family="Helvetica,sans-Serif" font-size="10.00">MinionStats.GiveRewards</text>
</a>
</g>
</g>
<!-- Node1&#45;&gt;Node2 -->
<g id="edge1" class="edge">
<title>Node1&#45;&gt;Node2</title>
<path fill="none" stroke="midnightblue" d="M275.4,-10C266.96,-10 258.4,-10 250.09,-10"/>
<polygon fill="midnightblue" stroke="midnightblue" points="275.6,-13.5 285.6,-10 275.6,-6.5 275.6,-13.5"/>
</g>
<!-- Node3 -->
<g id="node3" class="node">
<title>Node3</title>
<g id="a_node3"><a xlink:href="class_minion_stats.html#a5366cb256edc6dc42f01c2907ee14e7a" target="_top" xlink:title="Function that implements what is done when this entity dies.">
<polygon fill="white" stroke="black" points="0,-0.5 0,-19.5 86,-19.5 86,-0.5 0,-0.5"/>
<text text-anchor="middle" x="43" y="-7.5" font-family="Helvetica,sans-Serif" font-size="10.00">MinionStats.Die</text>
</a>
</g>
</g>
<!-- Node2&#45;&gt;Node3 -->
<g id="edge2" class="edge">
<title>Node2&#45;&gt;Node3</title>
<path fill="none" stroke="midnightblue" d="M111.74,-10C103.06,-10 94.44,-10 86.39,-10"/>
<polygon fill="midnightblue" stroke="midnightblue" points="111.92,-13.5 121.92,-10 111.92,-6.5 111.92,-13.5"/>
</g>
</g>
</svg>
