<?xml version="1.0" encoding="UTF-8" standalone="no"?>
<!DOCTYPE svg PUBLIC "-//W3C//DTD SVG 1.1//EN"
 "http://www.w3.org/Graphics/SVG/1.1/DTD/svg11.dtd">
<!-- Generated by graphviz version 2.47.3 (20210619.1520)
 -->
<!-- Title: Photon.Realtime.LoadBalancingClient.CheckConnectSetupWebGl Pages: 1 -->
<!--zoomable 509 -->
<svg id="main" version="1.1" xmlns="http://www.w3.org/2000/svg" xmlns:xlink="http://www.w3.org/1999/xlink" xml:space="preserve" onload="init(evt)">
<style type="text/css"><![CDATA[
.edge:hover path { stroke: red; }
.edge:hover polygon { stroke: red; fill: red; }
]]></style>
<script type="text/javascript"><![CDATA[
var edges = document.getElementsByTagName('g');
if (edges && edges.length) {
  for (var i=0;i<edges.length;i++) {
    if (edges[i].id.substr(0,4)=='edge') {
      edges[i].setAttribute('class','edge');
    }
  }
}
]]></script>
        <defs>
                <circle id="rim" cx="0" cy="0" r="7"/>
                <circle id="rim2" cx="0" cy="0" r="3.5"/>
                <g id="zoomPlus">
                        <use xlink:href="#rim" fill="#404040">
                                <set attributeName="fill" to="#808080" begin="zoomplus.mouseover" end="zoomplus.mouseout"/>
                        </use>
                        <path d="M-4,0h8M0,-4v8" fill="none" stroke="white" stroke-width="1.5" pointer-events="none"/>
                </g>
                <g id="zoomMin">
                        <use xlink:href="#rim" fill="#404040">
                                <set attributeName="fill" to="#808080" begin="zoomminus.mouseover" end="zoomminus.mouseout"/>
                        </use>
                        <path d="M-4,0h8" fill="none" stroke="white" stroke-width="1.5" pointer-events="none"/>
                </g>
                <g id="dirArrow">
                        <path fill="none" stroke="white" stroke-width="1.5" d="M0,-3.0v7 M-2.5,-0.5L0,-3.0L2.5,-0.5"/>
                </g>
               <g id="resetDef">
                       <use xlink:href="#rim2" fill="#404040">
                               <set attributeName="fill" to="#808080" begin="reset.mouseover" end="reset.mouseout"/>
                       </use>
               </g>
        </defs>

<script type="text/javascript">
var viewWidth = 1565;
var viewHeight = 509;
var sectionId = 'dynsection-11';
</script>
<script xlink:href="svgpan.js"/>
<svg id="graph" class="graph">
<g id="viewport">
<title>Photon.Realtime.LoadBalancingClient.CheckConnectSetupWebGl</title>
<polygon fill="white" stroke="transparent" points="-4,4 -4,-505 1561,-505 1561,4 -4,4"/>
<!-- Node1 -->
<g id="node1" class="node">
<title>Node1</title>
<g id="a_node1"><a xlink:title=" ">
<polygon fill="#bfbfbf" stroke="black" points="1393,-245.5 1393,-275.5 1557,-275.5 1557,-245.5 1393,-245.5"/>
<text text-anchor="start" x="1401" y="-263.5" font-family="Helvetica,sans-Serif" font-size="10.00">Photon.Realtime.LoadBalancing</text>
<text text-anchor="middle" x="1475" y="-252.5" font-family="Helvetica,sans-Serif" font-size="10.00">Client.CheckConnectSetupWebGl</text>
</a>
</g>
</g>
<!-- Node2 -->
<g id="node2" class="node">
<title>Node2</title>
<g id="a_node2"><a xlink:href="class_photon_1_1_realtime_1_1_load_balancing_client.xhtml#ad1d932ea902a1b1df7769e9a852077c6" target="_top" xlink:title="Starts the &quot;process&quot; to connect to a Master Server, using MasterServerAddress and AppId properties.">
<polygon fill="white" stroke="black" points="1202,-355.5 1202,-385.5 1357,-385.5 1357,-355.5 1202,-355.5"/>
<text text-anchor="start" x="1210" y="-373.5" font-family="Helvetica,sans-Serif" font-size="10.00">Photon.Realtime.LoadBalancing</text>
<text text-anchor="middle" x="1279.5" y="-362.5" font-family="Helvetica,sans-Serif" font-size="10.00">Client.ConnectToMasterServer</text>
</a>
</g>
</g>
<!-- Node1&#45;&gt;Node2 -->
<g id="edge1" class="edge">
<title>Node1&#45;&gt;Node2</title>
<path fill="none" stroke="midnightblue" d="M1438.33,-280.78C1400.32,-302.38 1341.05,-336.08 1306.99,-355.44"/>
<polygon fill="midnightblue" stroke="midnightblue" points="1440.54,-283.55 1447.5,-275.56 1437.08,-277.46 1440.54,-283.55"/>
</g>
<!-- Node21 -->
<g id="node21" class="node">
<title>Node21</title>
<g id="a_node21"><a xlink:href="class_photon_1_1_realtime_1_1_load_balancing_client.xhtml#a43756ee75b2346cb002f89aee86ff94d" target="_top" xlink:title="Connects to the NameServer for Photon Cloud, where a region and server list can be obtained.">
<polygon fill="white" stroke="black" points="1202,-245.5 1202,-275.5 1357,-275.5 1357,-245.5 1202,-245.5"/>
<text text-anchor="start" x="1210" y="-263.5" font-family="Helvetica,sans-Serif" font-size="10.00">Photon.Realtime.LoadBalancing</text>
<text text-anchor="middle" x="1279.5" y="-252.5" font-family="Helvetica,sans-Serif" font-size="10.00">Client.ConnectToNameServer</text>
</a>
</g>
</g>
<!-- Node1&#45;&gt;Node21 -->
<g id="edge21" class="edge">
<title>Node1&#45;&gt;Node21</title>
<path fill="none" stroke="midnightblue" d="M1382.77,-260.5C1374.21,-260.5 1365.59,-260.5 1357.19,-260.5"/>
<polygon fill="midnightblue" stroke="midnightblue" points="1382.78,-264 1392.78,-260.5 1382.78,-257 1382.78,-264"/>
</g>
<!-- Node25 -->
<g id="node25" class="node">
<title>Node25</title>
<g id="a_node25"><a xlink:href="class_photon_1_1_realtime_1_1_load_balancing_client.xhtml#a8db8b6caf7819906b58b59fb0e31f63c" target="_top" xlink:title="Connects you to a specific region&#39;s Master Server, using the Name Server to find the IP.">
<polygon fill="white" stroke="black" points="1202,-98.5 1202,-128.5 1357,-128.5 1357,-98.5 1202,-98.5"/>
<text text-anchor="start" x="1210" y="-116.5" font-family="Helvetica,sans-Serif" font-size="10.00">Photon.Realtime.LoadBalancing</text>
<text text-anchor="middle" x="1279.5" y="-105.5" font-family="Helvetica,sans-Serif" font-size="10.00">Client.ConnectToRegionMaster</text>
</a>
</g>
</g>
<!-- Node1&#45;&gt;Node25 -->
<g id="edge27" class="edge">
<title>Node1&#45;&gt;Node25</title>
<path fill="none" stroke="midnightblue" d="M1445.58,-238.91C1405.89,-208.76 1334.86,-154.79 1300.37,-128.6"/>
<polygon fill="midnightblue" stroke="midnightblue" points="1443.94,-242.06 1454.02,-245.32 1448.18,-236.49 1443.94,-242.06"/>
</g>
<!-- Node3 -->
<g id="node3" class="node">
<title>Node3</title>
<g id="a_node3"><a xlink:href="class_photon_1_1_realtime_1_1_load_balancing_client.xhtml#a84e280b4685509d7fa65bedebb0828a2" target="_top" xlink:title=" ">
<polygon fill="white" stroke="black" points="984,-421.5 984,-451.5 1139,-451.5 1139,-421.5 984,-421.5"/>
<text text-anchor="start" x="992" y="-439.5" font-family="Helvetica,sans-Serif" font-size="10.00">Photon.Realtime.LoadBalancing</text>
<text text-anchor="middle" x="1061.5" y="-428.5" font-family="Helvetica,sans-Serif" font-size="10.00">Client.Connect</text>
</a>
</g>
</g>
<!-- Node2&#45;&gt;Node3 -->
<g id="edge2" class="edge">
<title>Node2&#45;&gt;Node3</title>
<path fill="none" stroke="midnightblue" d="M1222.56,-388.74C1204.54,-394.52 1184.45,-400.87 1166,-406.5 1149.63,-411.49 1131.73,-416.75 1115.5,-421.44"/>
<polygon fill="midnightblue" stroke="midnightblue" points="1223.89,-391.98 1232.34,-385.59 1221.75,-385.32 1223.89,-391.98"/>
</g>
<!-- Node4 -->
<g id="node4" class="node">
<title>Node4</title>
<g id="a_node4"><a xlink:href="class_photon_1_1_realtime_1_1_load_balancing_client.xhtml#affac531c1eb7a4d77326135150f19b7e" target="_top" xlink:title="Uses the connection&#39;s statusCodes to advance the internal state and call operations as needed.">
<polygon fill="white" stroke="black" points="744.5,-339.5 744.5,-369.5 899.5,-369.5 899.5,-339.5 744.5,-339.5"/>
<text text-anchor="start" x="752.5" y="-357.5" font-family="Helvetica,sans-Serif" font-size="10.00">Photon.Realtime.LoadBalancing</text>
<text text-anchor="middle" x="822" y="-346.5" font-family="Helvetica,sans-Serif" font-size="10.00">Client.OnStatusChanged</text>
</a>
</g>
</g>
<!-- Node2&#45;&gt;Node4 -->
<g id="edge20" class="edge">
<title>Node2&#45;&gt;Node4</title>
<path fill="none" stroke="midnightblue" d="M1191.76,-372.2C1183.06,-372.32 1174.35,-372.43 1166,-372.5 1073.11,-373.33 1049.68,-378.7 957,-372.5 938.38,-371.26 918.4,-369.05 899.71,-366.6"/>
<polygon fill="midnightblue" stroke="midnightblue" points="1192,-375.69 1201.95,-372.04 1191.9,-368.69 1192,-375.69"/>
</g>
<!-- Node19 -->
<g id="node19" class="node">
<title>Node19</title>
<g id="a_node19"><a xlink:href="class_photon_1_1_pun_1_1_photon_network.xhtml#aec6b6dd3b56678c58175e5d2a4cb5661" target="_top" xlink:title="Connect to a Photon Master Server by address, port, appID.">
<polygon fill="white" stroke="black" points="991.5,-333.5 991.5,-363.5 1131.5,-363.5 1131.5,-333.5 991.5,-333.5"/>
<text text-anchor="start" x="999.5" y="-351.5" font-family="Helvetica,sans-Serif" font-size="10.00">Photon.Pun.PhotonNetwork.</text>
<text text-anchor="middle" x="1061.5" y="-340.5" font-family="Helvetica,sans-Serif" font-size="10.00">ConnectToMaster</text>
</a>
</g>
</g>
<!-- Node2&#45;&gt;Node19 -->
<g id="edge18" class="edge">
<title>Node2&#45;&gt;Node19</title>
<path fill="none" stroke="midnightblue" d="M1191.74,-361.66C1171.82,-359.63 1150.89,-357.5 1131.82,-355.56"/>
<polygon fill="midnightblue" stroke="midnightblue" points="1191.44,-365.15 1201.74,-362.68 1192.14,-358.19 1191.44,-365.15"/>
</g>
<!-- Node3&#45;&gt;Node4 -->
<g id="edge3" class="edge">
<title>Node3&#45;&gt;Node4</title>
<path fill="none" stroke="midnightblue" d="M995.48,-418.6C982.66,-414.81 969.36,-410.68 957,-406.5 923.55,-395.19 886.14,-380.49 859.37,-369.61"/>
<polygon fill="midnightblue" stroke="midnightblue" points="994.58,-421.99 1005.16,-421.44 996.55,-415.27 994.58,-421.99"/>
</g>
<!-- Node13 -->
<g id="node13" class="node">
<title>Node13</title>
<g id="a_node13"><a xlink:href="class_photon_1_1_realtime_1_1_load_balancing_client.xhtml#a8d741259a7eceee18c72db9b469d2741" target="_top" xlink:title="Can be used to return to a room quickly, by directly reconnecting to a game server to rejoin a room.">
<polygon fill="white" stroke="black" points="744.5,-421.5 744.5,-451.5 899.5,-451.5 899.5,-421.5 744.5,-421.5"/>
<text text-anchor="start" x="752.5" y="-439.5" font-family="Helvetica,sans-Serif" font-size="10.00">Photon.Realtime.LoadBalancing</text>
<text text-anchor="middle" x="822" y="-428.5" font-family="Helvetica,sans-Serif" font-size="10.00">Client.ReconnectAndRejoin</text>
</a>
</g>
</g>
<!-- Node3&#45;&gt;Node13 -->
<g id="edge12" class="edge">
<title>Node3&#45;&gt;Node13</title>
<path fill="none" stroke="midnightblue" d="M973.46,-436.5C949.23,-436.5 923.1,-436.5 899.52,-436.5"/>
<polygon fill="midnightblue" stroke="midnightblue" points="973.72,-440 983.72,-436.5 973.72,-433 973.72,-440"/>
</g>
<!-- Node16 -->
<g id="node16" class="node">
<title>Node16</title>
<g id="a_node16"><a xlink:href="class_photon_1_1_realtime_1_1_load_balancing_client.xhtml#abab1abad952ecfcbb9cc91af7aa2e568" target="_top" xlink:title="Can be used to reconnect to the master server after a disconnect.">
<polygon fill="white" stroke="black" points="744.5,-470.5 744.5,-500.5 899.5,-500.5 899.5,-470.5 744.5,-470.5"/>
<text text-anchor="start" x="752.5" y="-488.5" font-family="Helvetica,sans-Serif" font-size="10.00">Photon.Realtime.LoadBalancing</text>
<text text-anchor="middle" x="822" y="-477.5" font-family="Helvetica,sans-Serif" font-size="10.00">Client.ReconnectToMaster</text>
</a>
</g>
</g>
<!-- Node3&#45;&gt;Node16 -->
<g id="edge15" class="edge">
<title>Node3&#45;&gt;Node16</title>
<path fill="none" stroke="midnightblue" d="M977.56,-453.61C950.9,-459.11 921.6,-465.16 895.73,-470.49"/>
<polygon fill="midnightblue" stroke="midnightblue" points="978.54,-456.98 987.63,-451.53 977.13,-450.13 978.54,-456.98"/>
</g>
<!-- Node5 -->
<g id="node5" class="node">
<title>Node5</title>
<g id="a_node5"><a xlink:href="class_photon_1_1_pun_1_1_photon_network.xhtml#a1da1c658340e7ecf28575b720104b122" target="_top" xlink:title="Makes this client disconnect from the photon server, a process that leaves any room and calls OnDisco...">
<polygon fill="white" stroke="black" points="547,-298.5 547,-328.5 687,-328.5 687,-298.5 547,-298.5"/>
<text text-anchor="start" x="555" y="-316.5" font-family="Helvetica,sans-Serif" font-size="10.00">Photon.Pun.PhotonNetwork.</text>
<text text-anchor="middle" x="617" y="-305.5" font-family="Helvetica,sans-Serif" font-size="10.00">Disconnect</text>
</a>
</g>
</g>
<!-- Node4&#45;&gt;Node5 -->
<g id="edge4" class="edge">
<title>Node4&#45;&gt;Node5</title>
<path fill="none" stroke="midnightblue" d="M736.42,-337.42C719.97,-334.09 702.91,-330.65 687.04,-327.44"/>
<polygon fill="midnightblue" stroke="midnightblue" points="736.07,-340.92 746.56,-339.47 737.45,-334.06 736.07,-340.92"/>
</g>
<!-- Node6 -->
<g id="node6" class="node">
<title>Node6</title>
<g id="a_node6"><a xlink:href="class_photon_1_1_pun_1_1_demo_1_1_hub_1_1_to_demo_hub_button.xhtml#a83cf2b61cc387ebc9fc311480833e857" target="_top" xlink:title=" ">
<polygon fill="white" stroke="black" points="344,-274.5 344,-304.5 499,-304.5 499,-274.5 344,-274.5"/>
<text text-anchor="start" x="352" y="-292.5" font-family="Helvetica,sans-Serif" font-size="10.00">Photon.Pun.Demo.Hub.ToDemo</text>
<text text-anchor="middle" x="421.5" y="-281.5" font-family="Helvetica,sans-Serif" font-size="10.00">HubButton.BackToHub</text>
</a>
</g>
</g>
<!-- Node5&#45;&gt;Node6 -->
<g id="edge5" class="edge">
<title>Node5&#45;&gt;Node6</title>
<path fill="none" stroke="midnightblue" d="M537.02,-303.7C524.49,-302.15 511.55,-300.54 499.07,-299"/>
<polygon fill="midnightblue" stroke="midnightblue" points="536.61,-307.18 546.96,-304.94 537.47,-300.23 536.61,-307.18"/>
</g>
<!-- Node7 -->
<g id="node7" class="node">
<title>Node7</title>
<g id="a_node7"><a xlink:href="class_photon_1_1_pun_1_1_demo_1_1_cockpit_1_1_pun_cockpit.xhtml#a1cc72ee5a728acc04e81d411d88d6179" target="_top" xlink:title=" ">
<polygon fill="white" stroke="black" points="354,-225.5 354,-255.5 489,-255.5 489,-225.5 354,-225.5"/>
<text text-anchor="start" x="362" y="-243.5" font-family="Helvetica,sans-Serif" font-size="10.00">Photon.Pun.Demo.Cockpit.</text>
<text text-anchor="middle" x="421.5" y="-232.5" font-family="Helvetica,sans-Serif" font-size="10.00">PunCockpit.Disconnect</text>
</a>
</g>
</g>
<!-- Node5&#45;&gt;Node7 -->
<g id="edge6" class="edge">
<title>Node5&#45;&gt;Node7</title>
<path fill="none" stroke="midnightblue" d="M578.2,-293.94C558.51,-284.24 533.83,-272.85 511,-264.5 502.18,-261.27 492.72,-258.26 483.39,-255.53"/>
<polygon fill="midnightblue" stroke="midnightblue" points="576.64,-297.07 587.15,-298.4 579.76,-290.8 576.64,-297.07"/>
</g>
<!-- Node8 -->
<g id="node8" class="node">
<title>Node8</title>
<g id="a_node8"><a xlink:href="class_photon_1_1_pun_1_1_photon_editor.xhtml#a8ff69bf37b897f6afb973016c09fa65e" target="_top" xlink:title=" ">
<polygon fill="white" stroke="black" points="356.5,-176.5 356.5,-206.5 486.5,-206.5 486.5,-176.5 356.5,-176.5"/>
<text text-anchor="start" x="364.5" y="-194.5" font-family="Helvetica,sans-Serif" font-size="10.00">Photon.Pun.PhotonEditor.</text>
<text text-anchor="middle" x="421.5" y="-183.5" font-family="Helvetica,sans-Serif" font-size="10.00">OnCompileStarted</text>
</a>
</g>
</g>
<!-- Node5&#45;&gt;Node8 -->
<g id="edge7" class="edge">
<title>Node5&#45;&gt;Node8</title>
<path fill="none" stroke="midnightblue" d="M597.6,-290.81C578.29,-268.46 545.93,-234.94 511,-215.5 503.49,-211.32 495.21,-207.83 486.82,-204.94"/>
<polygon fill="midnightblue" stroke="midnightblue" points="594.97,-293.12 604.1,-298.49 600.31,-288.6 594.97,-293.12"/>
</g>
<!-- Node11 -->
<g id="node11" class="node">
<title>Node11</title>
<g id="a_node11"><a xlink:href="class_photon_1_1_pun_1_1_utility_scripts_1_1_states_gui.xhtml#a414fd2160f0bd79c9a6826cb31f8006a" target="_top" xlink:title=" ">
<polygon fill="white" stroke="black" points="357,-372.5 357,-402.5 486,-402.5 486,-372.5 357,-372.5"/>
<text text-anchor="start" x="365" y="-390.5" font-family="Helvetica,sans-Serif" font-size="10.00">Photon.Pun.UtilityScripts.</text>
<text text-anchor="middle" x="421.5" y="-379.5" font-family="Helvetica,sans-Serif" font-size="10.00">StatesGui.OnGUI</text>
</a>
</g>
</g>
<!-- Node5&#45;&gt;Node11 -->
<g id="edge10" class="edge">
<title>Node5&#45;&gt;Node11</title>
<path fill="none" stroke="midnightblue" d="M578.16,-332.96C558.46,-342.63 533.79,-354.03 511,-362.5 501.42,-366.06 491.1,-369.4 481.01,-372.42"/>
<polygon fill="midnightblue" stroke="midnightblue" points="579.72,-336.1 587.12,-328.52 576.61,-329.83 579.72,-336.1"/>
</g>
<!-- Node12 -->
<g id="node12" class="node">
<title>Node12</title>
<g id="a_node12"><a xlink:href="class_photon_1_1_pun_1_1_demo_1_1_asteroids_1_1_asteroids_game_manager.xhtml#aab2bcc420ff0aadcf299d2704bccd5dd" target="_top" xlink:title="Called when the local user/client left a room, so the game&#39;s logic can clean up it&#39;s internal state.">
<polygon fill="white" stroke="black" points="332,-323.5 332,-353.5 511,-353.5 511,-323.5 332,-323.5"/>
<text text-anchor="start" x="340" y="-341.5" font-family="Helvetica,sans-Serif" font-size="10.00">Photon.Pun.Demo.Asteroids.</text>
<text text-anchor="middle" x="421.5" y="-330.5" font-family="Helvetica,sans-Serif" font-size="10.00">AsteroidsGameManager.OnLeftRoom</text>
</a>
</g>
</g>
<!-- Node5&#45;&gt;Node12 -->
<g id="edge11" class="edge">
<title>Node5&#45;&gt;Node12</title>
<path fill="none" stroke="midnightblue" d="M537.04,-323.7C528.5,-324.8 519.77,-325.93 511.13,-327.05"/>
<polygon fill="midnightblue" stroke="midnightblue" points="537.49,-327.17 546.96,-322.42 536.6,-320.23 537.49,-327.17"/>
</g>
<!-- Node9 -->
<g id="node9" class="node">
<title>Node9</title>
<g id="a_node9"><a xlink:href="class_photon_1_1_pun_1_1_photon_editor.xhtml#af1f1cae280c6374bd45f8863ad1f30f8" target="_top" xlink:title=" ">
<polygon fill="white" stroke="black" points="166,-176.5 166,-206.5 296,-206.5 296,-176.5 166,-176.5"/>
<text text-anchor="start" x="174" y="-194.5" font-family="Helvetica,sans-Serif" font-size="10.00">Photon.Pun.PhotonEditor.</text>
<text text-anchor="middle" x="231" y="-183.5" font-family="Helvetica,sans-Serif" font-size="10.00">OnDelayCall</text>
</a>
</g>
</g>
<!-- Node8&#45;&gt;Node9 -->
<g id="edge8" class="edge">
<title>Node8&#45;&gt;Node9</title>
<path fill="none" stroke="midnightblue" d="M346.25,-191.5C329.72,-191.5 312.32,-191.5 296.22,-191.5"/>
<polygon fill="midnightblue" stroke="midnightblue" points="346.42,-195 356.42,-191.5 346.42,-188 346.42,-195"/>
</g>
<!-- Node10 -->
<g id="node10" class="node">
<title>Node10</title>
<g id="a_node10"><a xlink:href="class_photon_1_1_pun_1_1_photon_editor.xhtml#a6f2a81525fca83b7245f023595015253" target="_top" xlink:title=" ">
<polygon fill="white" stroke="black" points="0,-176.5 0,-206.5 130,-206.5 130,-176.5 0,-176.5"/>
<text text-anchor="start" x="8" y="-194.5" font-family="Helvetica,sans-Serif" font-size="10.00">Photon.Pun.PhotonEditor.</text>
<text text-anchor="middle" x="65" y="-183.5" font-family="Helvetica,sans-Serif" font-size="10.00">InitializeOnLoadMethod</text>
</a>
</g>
</g>
<!-- Node9&#45;&gt;Node10 -->
<g id="edge9" class="edge">
<title>Node9&#45;&gt;Node10</title>
<path fill="none" stroke="midnightblue" d="M155.44,-191.5C147,-191.5 138.45,-191.5 130.16,-191.5"/>
<polygon fill="midnightblue" stroke="midnightblue" points="155.65,-195 165.65,-191.5 155.65,-188 155.65,-195"/>
</g>
<!-- Node14 -->
<g id="node14" class="node">
<title>Node14</title>
<g id="a_node14"><a xlink:href="class_photon_1_1_pun_1_1_photon_network.xhtml#ae42cf1f2e37a5c3631e2537b35d511bc" target="_top" xlink:title="When the client lost connection during gameplay, this method attempts to reconnect and rejoin the roo...">
<polygon fill="white" stroke="black" points="547,-421.5 547,-451.5 687,-451.5 687,-421.5 547,-421.5"/>
<text text-anchor="start" x="555" y="-439.5" font-family="Helvetica,sans-Serif" font-size="10.00">Photon.Pun.PhotonNetwork.</text>
<text text-anchor="middle" x="617" y="-428.5" font-family="Helvetica,sans-Serif" font-size="10.00">ReconnectAndRejoin</text>
</a>
</g>
</g>
<!-- Node13&#45;&gt;Node14 -->
<g id="edge13" class="edge">
<title>Node13&#45;&gt;Node14</title>
<path fill="none" stroke="midnightblue" d="M734.05,-436.5C718.39,-436.5 702.25,-436.5 687.18,-436.5"/>
<polygon fill="midnightblue" stroke="midnightblue" points="734.25,-440 744.25,-436.5 734.25,-433 734.25,-440"/>
</g>
<!-- Node15 -->
<g id="node15" class="node">
<title>Node15</title>
<g id="a_node15"><a xlink:href="class_photon_1_1_pun_1_1_demo_1_1_cockpit_1_1_pun_cockpit.xhtml#a441719b8ef5cb4f4426a1277498d58ac" target="_top" xlink:title=" ">
<polygon fill="white" stroke="black" points="341,-421.5 341,-451.5 502,-451.5 502,-421.5 341,-421.5"/>
<text text-anchor="start" x="349" y="-439.5" font-family="Helvetica,sans-Serif" font-size="10.00">Photon.Pun.Demo.Cockpit.</text>
<text text-anchor="middle" x="421.5" y="-428.5" font-family="Helvetica,sans-Serif" font-size="10.00">PunCockpit.ReconnectAndRejoin</text>
</a>
</g>
</g>
<!-- Node14&#45;&gt;Node15 -->
<g id="edge14" class="edge">
<title>Node14&#45;&gt;Node15</title>
<path fill="none" stroke="midnightblue" d="M536.95,-436.5C525.44,-436.5 513.59,-436.5 502.07,-436.5"/>
<polygon fill="midnightblue" stroke="midnightblue" points="536.96,-440 546.96,-436.5 536.96,-433 536.96,-440"/>
</g>
<!-- Node17 -->
<g id="node17" class="node">
<title>Node17</title>
<g id="a_node17"><a xlink:href="class_photon_1_1_pun_1_1_photon_network.xhtml#afd132f2621f17054934ed5f1296997ed" target="_top" xlink:title="Can be used to reconnect to the master server after a disconnect.">
<polygon fill="white" stroke="black" points="547,-470.5 547,-500.5 687,-500.5 687,-470.5 547,-470.5"/>
<text text-anchor="start" x="555" y="-488.5" font-family="Helvetica,sans-Serif" font-size="10.00">Photon.Pun.PhotonNetwork.</text>
<text text-anchor="middle" x="617" y="-477.5" font-family="Helvetica,sans-Serif" font-size="10.00">Reconnect</text>
</a>
</g>
</g>
<!-- Node16&#45;&gt;Node17 -->
<g id="edge16" class="edge">
<title>Node16&#45;&gt;Node17</title>
<path fill="none" stroke="midnightblue" d="M734.05,-485.5C718.39,-485.5 702.25,-485.5 687.18,-485.5"/>
<polygon fill="midnightblue" stroke="midnightblue" points="734.25,-489 744.25,-485.5 734.25,-482 734.25,-489"/>
</g>
<!-- Node18 -->
<g id="node18" class="node">
<title>Node18</title>
<g id="a_node18"><a xlink:href="class_photon_1_1_pun_1_1_demo_1_1_cockpit_1_1_pun_cockpit.xhtml#afc41aecd6864c0ea561faebdf7cdb8a6" target="_top" xlink:title=" ">
<polygon fill="white" stroke="black" points="354,-470.5 354,-500.5 489,-500.5 489,-470.5 354,-470.5"/>
<text text-anchor="start" x="362" y="-488.5" font-family="Helvetica,sans-Serif" font-size="10.00">Photon.Pun.Demo.Cockpit.</text>
<text text-anchor="middle" x="421.5" y="-477.5" font-family="Helvetica,sans-Serif" font-size="10.00">PunCockpit.ReConnect</text>
</a>
</g>
</g>
<!-- Node17&#45;&gt;Node18 -->
<g id="edge17" class="edge">
<title>Node17&#45;&gt;Node18</title>
<path fill="none" stroke="midnightblue" d="M536.71,-485.5C520.94,-485.5 504.54,-485.5 489.24,-485.5"/>
<polygon fill="midnightblue" stroke="midnightblue" points="536.96,-489 546.96,-485.5 536.96,-482 536.96,-489"/>
</g>
<!-- Node20 -->
<g id="node20" class="node">
<title>Node20</title>
<g id="a_node20"><a xlink:href="class_photon_1_1_pun_1_1_photon_network.xhtml#ae031208b657a2e01d80ddf4b02d0d23f" target="_top" xlink:title=" ">
<polygon fill="white" stroke="black" points="752,-196.5 752,-226.5 892,-226.5 892,-196.5 752,-196.5"/>
<text text-anchor="start" x="760" y="-214.5" font-family="Helvetica,sans-Serif" font-size="10.00">Photon.Pun.PhotonNetwork.</text>
<text text-anchor="middle" x="822" y="-203.5" font-family="Helvetica,sans-Serif" font-size="10.00">ConnectUsingSettings</text>
</a>
</g>
</g>
<!-- Node19&#45;&gt;Node20 -->
<g id="edge19" class="edge">
<title>Node19&#45;&gt;Node20</title>
<path fill="none" stroke="midnightblue" d="M1020.45,-328.38C1000.18,-317.09 975.93,-301.81 957,-284.5 937.32,-266.51 943.18,-251.3 921,-236.5 912.31,-230.7 902.37,-226.25 892.22,-222.82"/>
<polygon fill="midnightblue" stroke="midnightblue" points="1019,-331.57 1029.45,-333.28 1022.34,-325.42 1019,-331.57"/>
</g>
<!-- Node21&#45;&gt;Node4 -->
<g id="edge25" class="edge">
<title>Node21&#45;&gt;Node4</title>
<path fill="none" stroke="midnightblue" d="M1199.68,-277.58C1188.39,-279.95 1176.91,-282.32 1166,-284.5 1073.34,-303.03 1049.5,-304.18 957,-323.5 933.63,-328.38 908.07,-334.18 885.59,-339.43"/>
<polygon fill="midnightblue" stroke="midnightblue" points="1200.48,-280.99 1209.54,-275.5 1199.04,-274.14 1200.48,-280.99"/>
</g>
<!-- Node22 -->
<g id="node22" class="node">
<title>Node22</title>
<g id="a_node22"><a xlink:href="class_photon_1_1_pun_1_1_photon_network.xhtml#ad3c8b7c177d986ceea13dbfb858a4a79" target="_top" xlink:title="Connect to the Photon Cloud region with the lowest ping (on platforms that support Unity&#39;s Ping).">
<polygon fill="white" stroke="black" points="991.5,-196.5 991.5,-226.5 1131.5,-226.5 1131.5,-196.5 991.5,-196.5"/>
<text text-anchor="start" x="999.5" y="-214.5" font-family="Helvetica,sans-Serif" font-size="10.00">Photon.Pun.PhotonNetwork.</text>
<text text-anchor="middle" x="1061.5" y="-203.5" font-family="Helvetica,sans-Serif" font-size="10.00">ConnectToBestCloudServer</text>
</a>
</g>
</g>
<!-- Node21&#45;&gt;Node22 -->
<g id="edge22" class="edge">
<title>Node21&#45;&gt;Node22</title>
<path fill="none" stroke="midnightblue" d="M1202.42,-243.24C1178.36,-237.78 1151.96,-231.79 1128.65,-226.51"/>
<polygon fill="midnightblue" stroke="midnightblue" points="1201.7,-246.67 1212.22,-245.47 1203.25,-239.84 1201.7,-246.67"/>
</g>
<!-- Node24 -->
<g id="node24" class="node">
<title>Node24</title>
<g id="a_node24"><a xlink:href="class_photon_1_1_pun_1_1_demo_1_1_cockpit_1_1_pun_cockpit.xhtml#a68f4e2a8a556a5d754f19a9bcf482cc2" target="_top" xlink:title="in progress, not fully working">
<polygon fill="white" stroke="black" points="994,-245.5 994,-275.5 1129,-275.5 1129,-245.5 994,-245.5"/>
<text text-anchor="start" x="1002" y="-263.5" font-family="Helvetica,sans-Serif" font-size="10.00">Photon.Pun.Demo.Cockpit.</text>
<text text-anchor="middle" x="1061.5" y="-252.5" font-family="Helvetica,sans-Serif" font-size="10.00">PunCockpit.PingRegions</text>
</a>
</g>
</g>
<!-- Node21&#45;&gt;Node24 -->
<g id="edge26" class="edge">
<title>Node21&#45;&gt;Node24</title>
<path fill="none" stroke="midnightblue" d="M1191.65,-260.5C1170.89,-260.5 1149.04,-260.5 1129.34,-260.5"/>
<polygon fill="midnightblue" stroke="midnightblue" points="1191.74,-264 1201.74,-260.5 1191.74,-257 1191.74,-264"/>
</g>
<!-- Node22&#45;&gt;Node20 -->
<g id="edge24" class="edge">
<title>Node22&#45;&gt;Node20</title>
<path fill="none" stroke="midnightblue" d="M981.43,-211.5C952.55,-211.5 920.14,-211.5 892.19,-211.5"/>
<polygon fill="midnightblue" stroke="midnightblue" points="981.49,-215 991.49,-211.5 981.49,-208 981.49,-215"/>
</g>
<!-- Node23 -->
<g id="node23" class="node">
<title>Node23</title>
<g id="a_node23"><a xlink:href="class_photon_1_1_pun_1_1_demo_1_1_cockpit_1_1_pun_cockpit.xhtml#aa1e25a33ff6d9e679ebb0f1738c5f7fd" target="_top" xlink:title=" ">
<polygon fill="white" stroke="black" points="741.5,-246 741.5,-287 902.5,-287 902.5,-246 741.5,-246"/>
<text text-anchor="start" x="749.5" y="-275" font-family="Helvetica,sans-Serif" font-size="10.00">Photon.Pun.Demo.Cockpit.</text>
<text text-anchor="start" x="749.5" y="-264" font-family="Helvetica,sans-Serif" font-size="10.00">PunCockpit.ConnectToBestCloud</text>
<text text-anchor="middle" x="822" y="-253" font-family="Helvetica,sans-Serif" font-size="10.00">Server</text>
</a>
</g>
</g>
<!-- Node22&#45;&gt;Node23 -->
<g id="edge23" class="edge">
<title>Node22&#45;&gt;Node23</title>
<path fill="none" stroke="midnightblue" d="M985.66,-228.83C959.24,-234.95 929.44,-241.85 902.64,-248.06"/>
<polygon fill="midnightblue" stroke="midnightblue" points="986.65,-232.19 995.6,-226.53 985.07,-225.38 986.65,-232.19"/>
</g>
<!-- Node26 -->
<g id="node26" class="node">
<title>Node26</title>
<g id="a_node26"><a xlink:href="class_photon_1_1_pun_1_1_photon_network.xhtml#a37971483afa605d0d1383970b11f8cec" target="_top" xlink:title="Connects to the Photon Cloud region of choice.">
<polygon fill="white" stroke="black" points="991.5,-147.5 991.5,-177.5 1131.5,-177.5 1131.5,-147.5 991.5,-147.5"/>
<text text-anchor="start" x="999.5" y="-165.5" font-family="Helvetica,sans-Serif" font-size="10.00">Photon.Pun.PhotonNetwork.</text>
<text text-anchor="middle" x="1061.5" y="-154.5" font-family="Helvetica,sans-Serif" font-size="10.00">ConnectToRegion</text>
</a>
</g>
</g>
<!-- Node25&#45;&gt;Node26 -->
<g id="edge28" class="edge">
<title>Node25&#45;&gt;Node26</title>
<path fill="none" stroke="midnightblue" d="M1202.42,-130.76C1178.36,-136.22 1151.96,-142.21 1128.65,-147.49"/>
<polygon fill="midnightblue" stroke="midnightblue" points="1203.25,-134.16 1212.22,-128.53 1201.7,-127.33 1203.25,-134.16"/>
</g>
<!-- Node28 -->
<g id="node28" class="node">
<title>Node28</title>
<g id="a_node28"><a xlink:href="class_photon_1_1_realtime_1_1_load_balancing_client.xhtml#adddf15e4484dfc169c131e31e2640a60" target="_top" xlink:title="A callback of the RegionHandler, provided in OnRegionListReceived.">
<polygon fill="white" stroke="black" points="984,-98.5 984,-128.5 1139,-128.5 1139,-98.5 984,-98.5"/>
<text text-anchor="start" x="992" y="-116.5" font-family="Helvetica,sans-Serif" font-size="10.00">Photon.Realtime.LoadBalancing</text>
<text text-anchor="middle" x="1061.5" y="-105.5" font-family="Helvetica,sans-Serif" font-size="10.00">Client.OnRegionPingCompleted</text>
</a>
</g>
</g>
<!-- Node25&#45;&gt;Node28 -->
<g id="edge31" class="edge">
<title>Node25&#45;&gt;Node28</title>
<path fill="none" stroke="midnightblue" d="M1191.6,-113.5C1174.19,-113.5 1156.03,-113.5 1139.01,-113.5"/>
<polygon fill="midnightblue" stroke="midnightblue" points="1191.74,-117 1201.74,-113.5 1191.74,-110 1191.74,-117"/>
</g>
<!-- Node30 -->
<g id="node30" class="node">
<title>Node30</title>
<g id="a_node30"><a xlink:href="class_photon_1_1_realtime_1_1_demo_1_1_connect_and_join_random_lb.xhtml#a0781b2c1f363952f51639b4d7641a360" target="_top" xlink:title="A callback of the RegionHandler, provided in OnRegionListReceived.">
<polygon fill="white" stroke="black" points="957,-49.5 957,-79.5 1166,-79.5 1166,-49.5 957,-49.5"/>
<text text-anchor="start" x="965" y="-67.5" font-family="Helvetica,sans-Serif" font-size="10.00">Photon.Realtime.Demo.Connect</text>
<text text-anchor="middle" x="1061.5" y="-56.5" font-family="Helvetica,sans-Serif" font-size="10.00">AndJoinRandomLb.OnRegionPingCompleted</text>
</a>
</g>
</g>
<!-- Node25&#45;&gt;Node30 -->
<g id="edge33" class="edge">
<title>Node25&#45;&gt;Node30</title>
<path fill="none" stroke="midnightblue" d="M1202.42,-96.24C1178.36,-90.78 1151.96,-84.79 1128.65,-79.51"/>
<polygon fill="midnightblue" stroke="midnightblue" points="1201.7,-99.67 1212.22,-98.47 1203.25,-92.84 1201.7,-99.67"/>
</g>
<!-- Node32 -->
<g id="node32" class="node">
<title>Node32</title>
<g id="a_node32"><a xlink:href="class_photon_1_1_pun_1_1_photon_network.xhtml#a4a000a2af73ae86a78f9dd502e4a3f45" target="_top" xlink:title=" ">
<polygon fill="white" stroke="black" points="991.5,-0.5 991.5,-30.5 1131.5,-30.5 1131.5,-0.5 991.5,-0.5"/>
<text text-anchor="start" x="999.5" y="-18.5" font-family="Helvetica,sans-Serif" font-size="10.00">Photon.Pun.PhotonNetwork.</text>
<text text-anchor="middle" x="1061.5" y="-7.5" font-family="Helvetica,sans-Serif" font-size="10.00">OnRegionsPinged</text>
</a>
</g>
</g>
<!-- Node25&#45;&gt;Node32 -->
<g id="edge35" class="edge">
<title>Node25&#45;&gt;Node32</title>
<path fill="none" stroke="midnightblue" d="M1252.05,-92.18C1230.18,-75.56 1197.68,-53.08 1166,-39.5 1155.15,-34.85 1143.25,-31.03 1131.52,-27.9"/>
<polygon fill="midnightblue" stroke="midnightblue" points="1250.12,-95.12 1260.17,-98.46 1254.4,-89.58 1250.12,-95.12"/>
</g>
<!-- Node26&#45;&gt;Node20 -->
<g id="edge30" class="edge">
<title>Node26&#45;&gt;Node20</title>
<path fill="none" stroke="midnightblue" d="M981.43,-178.81C952.55,-184.77 920.14,-191.46 892.19,-197.23"/>
<polygon fill="midnightblue" stroke="midnightblue" points="982.4,-182.19 991.49,-176.74 980.99,-175.33 982.4,-182.19"/>
</g>
<!-- Node27 -->
<g id="node27" class="node">
<title>Node27</title>
<g id="a_node27"><a xlink:href="class_photon_1_1_pun_1_1_demo_1_1_cockpit_1_1_pun_cockpit.xhtml#a5c90be793ca1f7501275a194cd9671ab" target="_top" xlink:title=" ">
<polygon fill="white" stroke="black" points="749,-147.5 749,-177.5 895,-177.5 895,-147.5 749,-147.5"/>
<text text-anchor="start" x="757" y="-165.5" font-family="Helvetica,sans-Serif" font-size="10.00">Photon.Pun.Demo.Cockpit.</text>
<text text-anchor="middle" x="822" y="-154.5" font-family="Helvetica,sans-Serif" font-size="10.00">PunCockpit.ConnectToRegion</text>
</a>
</g>
</g>
<!-- Node26&#45;&gt;Node27 -->
<g id="edge29" class="edge">
<title>Node26&#45;&gt;Node27</title>
<path fill="none" stroke="midnightblue" d="M981.38,-162.5C953.51,-162.5 922.34,-162.5 895.08,-162.5"/>
<polygon fill="midnightblue" stroke="midnightblue" points="981.49,-166 991.49,-162.5 981.49,-159 981.49,-166"/>
</g>
<!-- Node29 -->
<g id="node29" class="node">
<title>Node29</title>
<g id="a_node29"><a xlink:href="class_photon_1_1_realtime_1_1_load_balancing_client.xhtml#aae79523656b407a63d1112528093d953" target="_top" xlink:title="Uses the OperationResponses provided by the server to advance the internal state and call ops as need...">
<polygon fill="white" stroke="black" points="744.5,-98.5 744.5,-128.5 899.5,-128.5 899.5,-98.5 744.5,-98.5"/>
<text text-anchor="start" x="752.5" y="-116.5" font-family="Helvetica,sans-Serif" font-size="10.00">Photon.Realtime.LoadBalancing</text>
<text text-anchor="middle" x="822" y="-105.5" font-family="Helvetica,sans-Serif" font-size="10.00">Client.OnOperationResponse</text>
</a>
</g>
</g>
<!-- Node28&#45;&gt;Node29 -->
<g id="edge32" class="edge">
<title>Node28&#45;&gt;Node29</title>
<path fill="none" stroke="midnightblue" d="M973.46,-113.5C949.23,-113.5 923.1,-113.5 899.52,-113.5"/>
<polygon fill="midnightblue" stroke="midnightblue" points="973.72,-117 983.72,-113.5 973.72,-110 973.72,-117"/>
</g>
<!-- Node31 -->
<g id="node31" class="node">
<title>Node31</title>
<g id="a_node31"><a xlink:href="class_photon_1_1_realtime_1_1_demo_1_1_connect_and_join_random_lb.xhtml#a0ae9b9b10119366621182ef8554d102c" target="_top" xlink:title="Called when the Name Server provided a list of regions for your title.">
<polygon fill="white" stroke="black" points="723,-49.5 723,-79.5 921,-79.5 921,-49.5 723,-49.5"/>
<text text-anchor="start" x="731" y="-67.5" font-family="Helvetica,sans-Serif" font-size="10.00">Photon.Realtime.Demo.Connect</text>
<text text-anchor="middle" x="822" y="-56.5" font-family="Helvetica,sans-Serif" font-size="10.00">AndJoinRandomLb.OnRegionListReceived</text>
</a>
</g>
</g>
<!-- Node30&#45;&gt;Node31 -->
<g id="edge34" class="edge">
<title>Node30&#45;&gt;Node31</title>
<path fill="none" stroke="midnightblue" d="M946.46,-64.5C938.07,-64.5 929.64,-64.5 921.35,-64.5"/>
<polygon fill="midnightblue" stroke="midnightblue" points="946.67,-68 956.67,-64.5 946.67,-61 946.67,-68"/>
</g>
<!-- Node33 -->
<g id="node33" class="node">
<title>Node33</title>
<g id="a_node33"><a xlink:href="class_photon_1_1_pun_1_1_photon_network.xhtml#a7efb23346fd80d365c5d9824b9a12be7" target="_top" xlink:title=" ">
<polygon fill="white" stroke="black" points="752,-0.5 752,-30.5 892,-30.5 892,-0.5 752,-0.5"/>
<text text-anchor="start" x="760" y="-18.5" font-family="Helvetica,sans-Serif" font-size="10.00">Photon.Pun.PhotonNetwork.</text>
<text text-anchor="middle" x="822" y="-7.5" font-family="Helvetica,sans-Serif" font-size="10.00">OnOperation</text>
</a>
</g>
</g>
<!-- Node32&#45;&gt;Node33 -->
<g id="edge36" class="edge">
<title>Node32&#45;&gt;Node33</title>
<path fill="none" stroke="midnightblue" d="M981.43,-15.5C952.55,-15.5 920.14,-15.5 892.19,-15.5"/>
<polygon fill="midnightblue" stroke="midnightblue" points="981.49,-19 991.49,-15.5 981.49,-12 981.49,-19"/>
</g>
<!-- Node34 -->
<g id="node34" class="node">
<title>Node34</title>
<g id="a_node34"><a xlink:href="class_photon_1_1_pun_1_1_photon_network.xhtml#a29461361da66594fce3a7394493f8fce" target="_top" xlink:title=" ">
<polygon fill="white" stroke="black" points="547,-0.5 547,-30.5 687,-30.5 687,-0.5 547,-0.5"/>
<text text-anchor="start" x="555" y="-18.5" font-family="Helvetica,sans-Serif" font-size="10.00">Photon.Pun.PhotonNetwork.</text>
<text text-anchor="middle" x="617" y="-7.5" font-family="Helvetica,sans-Serif" font-size="10.00">StaticReset</text>
</a>
</g>
</g>
<!-- Node33&#45;&gt;Node34 -->
<g id="edge37" class="edge">
<title>Node33&#45;&gt;Node34</title>
<path fill="none" stroke="midnightblue" d="M741.8,-15.5C723.76,-15.5 704.74,-15.5 687.16,-15.5"/>
<polygon fill="midnightblue" stroke="midnightblue" points="741.99,-19 751.99,-15.5 741.99,-12 741.99,-19"/>
</g>
<!-- Node35 -->
<g id="node35" class="node">
<title>Node35</title>
<g id="a_node35"><a xlink:href="class_photon_1_1_pun_1_1_photon_network.xhtml#a1b66941ee2aba40b56df1578da9015da" target="_top" xlink:title="Static constructor used for basic setup.">
<polygon fill="white" stroke="black" points="351.5,-0.5 351.5,-30.5 491.5,-30.5 491.5,-0.5 351.5,-0.5"/>
<text text-anchor="start" x="359.5" y="-18.5" font-family="Helvetica,sans-Serif" font-size="10.00">Photon.Pun.PhotonNetwork.</text>
<text text-anchor="middle" x="421.5" y="-7.5" font-family="Helvetica,sans-Serif" font-size="10.00">PhotonNetwork</text>
</a>
</g>
</g>
<!-- Node34&#45;&gt;Node35 -->
<g id="edge38" class="edge">
<title>Node34&#45;&gt;Node35</title>
<path fill="none" stroke="midnightblue" d="M536.7,-15.5C521.71,-15.5 506.15,-15.5 491.51,-15.5"/>
<polygon fill="midnightblue" stroke="midnightblue" points="536.96,-19 546.96,-15.5 536.96,-12 536.96,-19"/>
</g>
</g>
</svg>
        <g id="navigator" transform="translate(0 0)" fill="#404254">
                <rect fill="#f2f5e9" fill-opacity="0.5" stroke="#606060" stroke-width=".5" x="0" y="0" width="60" height="60"/>
                <use id="zoomplus" xlink:href="#zoomPlus" x="17" y="9" onmousedown="handleZoom(evt,'in')"/>
                <use id="zoomminus" xlink:href="#zoomMin" x="42" y="9" onmousedown="handleZoom(evt,'out')"/>
                <use id="reset" xlink:href="#resetDef" x="30" y="36" onmousedown="handleReset()"/>
                <g id="arrowUp" xlink:href="#dirArrow" transform="translate(30 24)" onmousedown="handlePan(0,-1)">
                  <use xlink:href="#rim" fill="#404040">
                        <set attributeName="fill" to="#808080" begin="arrowUp.mouseover" end="arrowUp.mouseout"/>
                  </use>
                  <path fill="none" stroke="white" stroke-width="1.5" d="M0,-3.0v7 M-2.5,-0.5L0,-3.0L2.5,-0.5"/>
                </g>
                <g id="arrowRight" xlink:href="#dirArrow" transform="rotate(90) translate(36 -43)" onmousedown="handlePan(1,0)">
                  <use xlink:href="#rim" fill="#404040">
                        <set attributeName="fill" to="#808080" begin="arrowRight.mouseover" end="arrowRight.mouseout"/>
                  </use>
                  <path fill="none" stroke="white" stroke-width="1.5" d="M0,-3.0v7 M-2.5,-0.5L0,-3.0L2.5,-0.5"/>
                </g>
                <g id="arrowDown" xlink:href="#dirArrow" transform="rotate(180) translate(-30 -48)" onmousedown="handlePan(0,1)">
                  <use xlink:href="#rim" fill="#404040">
                        <set attributeName="fill" to="#808080" begin="arrowDown.mouseover" end="arrowDown.mouseout"/>
                  </use>
                  <path fill="none" stroke="white" stroke-width="1.5" d="M0,-3.0v7 M-2.5,-0.5L0,-3.0L2.5,-0.5"/>
                </g>
                <g id="arrowLeft" xlink:href="#dirArrow" transform="rotate(270) translate(-36 17)" onmousedown="handlePan(-1,0)">
                  <use xlink:href="#rim" fill="#404040">
                        <set attributeName="fill" to="#808080" begin="arrowLeft.mouseover" end="arrowLeft.mouseout"/>
                  </use>
                  <path fill="none" stroke="white" stroke-width="1.5" d="M0,-3.0v7 M-2.5,-0.5L0,-3.0L2.5,-0.5"/>
                </g>
        </g>
        <svg viewBox="0 0 15 15" width="100%" height="30px" preserveAspectRatio="xMaxYMin meet">
         <g id="arrow_out" transform="scale(0.3 0.3)">
          <a xlink:href="class_photon_1_1_realtime_1_1_load_balancing_client_a29aacea6df375e301f67cb40ea90849e_icgraph_org.svg" target="_base">
           <rect id="button" ry="5" rx="5" y="6" x="6" height="38" width="38"
                fill="#f2f5e9" fill-opacity="0.5" stroke="#606060" stroke-width="1.0"/>
           <path id="arrow"
             d="M 11.500037,31.436501 C 11.940474,20.09759 22.043105,11.32322 32.158766,21.979434 L 37.068811,17.246167 C 37.068811,17.246167 37.088388,32 37.088388,32 L 22.160133,31.978069 C 22.160133,31.978069 26.997745,27.140456 26.997745,27.140456 C 18.528582,18.264221 13.291696,25.230495 11.500037,31.436501 z"
             style="fill:#404040;"/>
          </a>
         </g>
        </svg>
</svg>
