<?xml version="1.0" encoding="UTF-8" standalone="no"?>
<!DOCTYPE svg PUBLIC "-//W3C//DTD SVG 1.1//EN"
 "http://www.w3.org/Graphics/SVG/1.1/DTD/svg11.dtd">
<!-- Generated by graphviz version 2.47.3 (20210619.1520)
 -->
<!-- Title: Photon.Pun.Demo.Cockpit.PunCockpit.OnJoinedRoom Pages: 1 -->
<!--zoomable 198 -->
<svg id="main" version="1.1" xmlns="http://www.w3.org/2000/svg" xmlns:xlink="http://www.w3.org/1999/xlink" xml:space="preserve" onload="init(evt)">
<style type="text/css"><![CDATA[
.edge:hover path { stroke: red; }
.edge:hover polygon { stroke: red; fill: red; }
]]></style>
<script type="text/javascript"><![CDATA[
var edges = document.getElementsByTagName('g');
if (edges && edges.length) {
  for (var i=0;i<edges.length;i++) {
    if (edges[i].id.substr(0,4)=='edge') {
      edges[i].setAttribute('class','edge');
    }
  }
}
]]></script>
        <defs>
                <circle id="rim" cx="0" cy="0" r="7"/>
                <circle id="rim2" cx="0" cy="0" r="3.5"/>
                <g id="zoomPlus">
                        <use xlink:href="#rim" fill="#404040">
                                <set attributeName="fill" to="#808080" begin="zoomplus.mouseover" end="zoomplus.mouseout"/>
                        </use>
                        <path d="M-4,0h8M0,-4v8" fill="none" stroke="white" stroke-width="1.5" pointer-events="none"/>
                </g>
                <g id="zoomMin">
                        <use xlink:href="#rim" fill="#404040">
                                <set attributeName="fill" to="#808080" begin="zoomminus.mouseover" end="zoomminus.mouseout"/>
                        </use>
                        <path d="M-4,0h8" fill="none" stroke="white" stroke-width="1.5" pointer-events="none"/>
                </g>
                <g id="dirArrow">
                        <path fill="none" stroke="white" stroke-width="1.5" d="M0,-3.0v7 M-2.5,-0.5L0,-3.0L2.5,-0.5"/>
                </g>
               <g id="resetDef">
                       <use xlink:href="#rim2" fill="#404040">
                               <set attributeName="fill" to="#808080" begin="reset.mouseover" end="reset.mouseout"/>
                       </use>
               </g>
        </defs>

<script type="text/javascript">
var viewWidth = 1063;
var viewHeight = 198;
var sectionId = 'dynsection-22';
</script>
<script xlink:href="svgpan.js"/>
<svg id="graph" class="graph">
<g id="viewport">
<title>Photon.Pun.Demo.Cockpit.PunCockpit.OnJoinedRoom</title>
<polygon fill="white" stroke="transparent" points="-4,4 -4,-194 1059,-194 1059,4 -4,4"/>
<!-- Node1 -->
<g id="node1" class="node">
<title>Node1</title>
<g id="a_node1"><a xlink:title="Called when the LoadBalancingClient entered a room, no matter if this client created it or simply joi...">
<polygon fill="#bfbfbf" stroke="black" points="0,-103.5 0,-133.5 136,-133.5 136,-103.5 0,-103.5"/>
<text text-anchor="start" x="8" y="-121.5" font-family="Helvetica,sans-Serif" font-size="10.00">Photon.Pun.Demo.Cockpit.</text>
<text text-anchor="middle" x="68" y="-110.5" font-family="Helvetica,sans-Serif" font-size="10.00">PunCockpit.OnJoinedRoom</text>
</a>
</g>
</g>
<!-- Node2 -->
<g id="node2" class="node">
<title>Node2</title>
<g id="a_node2"><a xlink:href="class_photon_1_1_pun_1_1_demo_1_1_cockpit_1_1_player_list_view.xhtml#a9162bf1ba43e0a5f2f3af71048d00d35" target="_top" xlink:title=" ">
<polygon fill="white" stroke="black" points="185,-131.5 185,-161.5 320,-161.5 320,-131.5 185,-131.5"/>
<text text-anchor="start" x="193" y="-149.5" font-family="Helvetica,sans-Serif" font-size="10.00">Photon.Pun.Demo.Cockpit.</text>
<text text-anchor="middle" x="252.5" y="-138.5" font-family="Helvetica,sans-Serif" font-size="10.00">PlayerListView.ResetList</text>
</a>
</g>
</g>
<!-- Node1&#45;&gt;Node2 -->
<g id="edge1" class="edge">
<title>Node1&#45;&gt;Node2</title>
<path fill="none" stroke="midnightblue" d="M136.18,-128.81C148.69,-130.73 161.85,-132.75 174.63,-134.71"/>
<polygon fill="midnightblue" stroke="midnightblue" points="174.35,-138.2 184.77,-136.26 175.41,-131.29 174.35,-138.2"/>
</g>
<!-- Node3 -->
<g id="node3" class="node">
<title>Node3</title>
<g id="a_node3"><a xlink:href="class_photon_1_1_pun_1_1_demo_1_1_cockpit_1_1_player_details_controller.xhtml#a776c1d2fe05ed563cfe017dd89070a46" target="_top" xlink:title=" ">
<polygon fill="white" stroke="black" points="172,-71 172,-112 333,-112 333,-71 172,-71"/>
<text text-anchor="start" x="180" y="-100" font-family="Helvetica,sans-Serif" font-size="10.00">Photon.Pun.Demo.Cockpit.</text>
<text text-anchor="start" x="180" y="-89" font-family="Helvetica,sans-Serif" font-size="10.00">PlayerDetailsController.SetPlayer</text>
<text text-anchor="middle" x="252.5" y="-78" font-family="Helvetica,sans-Serif" font-size="10.00">Target</text>
</a>
</g>
</g>
<!-- Node1&#45;&gt;Node3 -->
<g id="edge2" class="edge">
<title>Node1&#45;&gt;Node3</title>
<path fill="none" stroke="midnightblue" d="M136.18,-108.56C144.51,-107.33 153.12,-106.05 161.72,-104.78"/>
<polygon fill="midnightblue" stroke="midnightblue" points="162.41,-108.22 171.79,-103.29 161.38,-101.29 162.41,-108.22"/>
</g>
<!-- Node4 -->
<g id="node4" class="node">
<title>Node4</title>
<g id="a_node4"><a xlink:href="class_photon_1_1_pun_1_1_demo_1_1_cockpit_1_1_player_details_controller.xhtml#abae22d4d627b12989c84e6bda1543ec4" target="_top" xlink:title=" ">
<polygon fill="white" stroke="black" points="369,-159.5 369,-189.5 542,-189.5 542,-159.5 369,-159.5"/>
<text text-anchor="start" x="377" y="-177.5" font-family="Helvetica,sans-Serif" font-size="10.00">Photon.Pun.Demo.Cockpit.</text>
<text text-anchor="middle" x="455.5" y="-166.5" font-family="Helvetica,sans-Serif" font-size="10.00">PlayerDetailsController.AddProperty</text>
</a>
</g>
</g>
<!-- Node3&#45;&gt;Node4 -->
<g id="edge3" class="edge">
<title>Node3&#45;&gt;Node4</title>
<path fill="none" stroke="midnightblue" d="M311.67,-112.05C318.99,-115.25 326.27,-118.76 333,-122.5 350.48,-132.22 351.11,-140.55 369,-149.5 373.55,-151.78 378.34,-153.88 383.24,-155.82"/>
<polygon fill="midnightblue" stroke="midnightblue" points="382.16,-159.15 392.76,-159.35 384.6,-152.59 382.16,-159.15"/>
</g>
<!-- Node8 -->
<g id="node8" class="node">
<title>Node8</title>
<g id="a_node8"><a xlink:href="class_photon_1_1_pun_1_1_demo_1_1_cockpit_1_1_player_details_controller.xhtml#a7f7ce880e8abd641554e67f86e56caa5" target="_top" xlink:title=" ">
<polygon fill="white" stroke="black" points="382.5,-99 382.5,-140 528.5,-140 528.5,-99 382.5,-99"/>
<text text-anchor="start" x="390.5" y="-128" font-family="Helvetica,sans-Serif" font-size="10.00">Photon.Pun.Demo.Cockpit.</text>
<text text-anchor="start" x="390.5" y="-117" font-family="Helvetica,sans-Serif" font-size="10.00">PlayerDetailsController.GetAll</text>
<text text-anchor="middle" x="455.5" y="-106" font-family="Helvetica,sans-Serif" font-size="10.00">PlayerBuiltIntProperties</text>
</a>
</g>
</g>
<!-- Node3&#45;&gt;Node8 -->
<g id="edge7" class="edge">
<title>Node3&#45;&gt;Node8</title>
<path fill="none" stroke="midnightblue" d="M333.23,-102.61C346.03,-104.39 359.3,-106.24 372.16,-108.03"/>
<polygon fill="midnightblue" stroke="midnightblue" points="371.98,-111.54 382.37,-109.45 372.95,-104.61 371.98,-111.54"/>
</g>
<!-- Node9 -->
<g id="node9" class="node">
<title>Node9</title>
<g id="a_node9"><a xlink:href="class_photon_1_1_pun_1_1_demo_1_1_cockpit_1_1_player_details_controller.xhtml#a2129f42f02c12000d9f2764184dccb3b" target="_top" xlink:title=" ">
<polygon fill="white" stroke="black" points="375,-49.5 375,-79.5 536,-79.5 536,-49.5 375,-49.5"/>
<text text-anchor="start" x="383" y="-67.5" font-family="Helvetica,sans-Serif" font-size="10.00">Photon.Pun.Demo.Cockpit.</text>
<text text-anchor="middle" x="455.5" y="-56.5" font-family="Helvetica,sans-Serif" font-size="10.00">PlayerDetailsController.ParseKey</text>
</a>
</g>
</g>
<!-- Node3&#45;&gt;Node9 -->
<g id="edge8" class="edge">
<title>Node3&#45;&gt;Node9</title>
<path fill="none" stroke="midnightblue" d="M333.23,-80.79C343.61,-79.4 354.3,-77.96 364.83,-76.54"/>
<polygon fill="midnightblue" stroke="midnightblue" points="365.42,-80 374.87,-75.2 364.49,-73.06 365.42,-80"/>
</g>
<!-- Node10 -->
<g id="node10" class="node">
<title>Node10</title>
<g id="a_node10"><a xlink:href="class_photon_1_1_pun_1_1_demo_1_1_cockpit_1_1_player_details_controller.xhtml#aed690ef755a9aea053c7644e04a30972" target="_top" xlink:title=" ">
<polygon fill="white" stroke="black" points="375.5,-0.5 375.5,-30.5 535.5,-30.5 535.5,-0.5 375.5,-0.5"/>
<text text-anchor="start" x="383.5" y="-18.5" font-family="Helvetica,sans-Serif" font-size="10.00">Photon.Pun.Demo.Cockpit.</text>
<text text-anchor="middle" x="455.5" y="-7.5" font-family="Helvetica,sans-Serif" font-size="10.00">PlayerDetailsController.ResetList</text>
</a>
</g>
</g>
<!-- Node3&#45;&gt;Node10 -->
<g id="edge9" class="edge">
<title>Node3&#45;&gt;Node10</title>
<path fill="none" stroke="midnightblue" d="M296.55,-70.88C318.04,-61 344.6,-49.41 369,-40.5 375.44,-38.15 382.22,-35.86 389.02,-33.69"/>
<polygon fill="midnightblue" stroke="midnightblue" points="390.46,-36.9 398.96,-30.59 388.37,-30.22 390.46,-36.9"/>
</g>
<!-- Node5 -->
<g id="node5" class="node">
<title>Node5</title>
<g id="a_node5"><a xlink:href="class_photon_1_1_pun_1_1_demo_1_1_cockpit_1_1_property_cell.xhtml#a08df30821595f55e1e081a0cd0299c99" target="_top" xlink:title=" ">
<polygon fill="white" stroke="black" points="578,-159.5 578,-189.5 713,-189.5 713,-159.5 578,-159.5"/>
<text text-anchor="start" x="586" y="-177.5" font-family="Helvetica,sans-Serif" font-size="10.00">Photon.Pun.Demo.Cockpit.</text>
<text text-anchor="middle" x="645.5" y="-166.5" font-family="Helvetica,sans-Serif" font-size="10.00">PropertyCell.AddToList</text>
</a>
</g>
</g>
<!-- Node4&#45;&gt;Node5 -->
<g id="edge4" class="edge">
<title>Node4&#45;&gt;Node5</title>
<path fill="none" stroke="midnightblue" d="M542.25,-174.5C550.72,-174.5 559.27,-174.5 567.65,-174.5"/>
<polygon fill="midnightblue" stroke="midnightblue" points="567.74,-178 577.74,-174.5 567.74,-171 567.74,-178"/>
</g>
<!-- Node6 -->
<g id="node6" class="node">
<title>Node6</title>
<g id="a_node6"><a xlink:href="class_photon_1_1_pun_1_1_demo_1_1_cockpit_1_1_property_cell.xhtml#a931845bc2e9c633224558d2abd8b3a6f" target="_top" xlink:title=" ">
<polygon fill="white" stroke="black" points="749,-159.5 749,-189.5 884,-189.5 884,-159.5 749,-159.5"/>
<text text-anchor="start" x="757" y="-177.5" font-family="Helvetica,sans-Serif" font-size="10.00">Photon.Pun.Demo.Cockpit.</text>
<text text-anchor="middle" x="816.5" y="-166.5" font-family="Helvetica,sans-Serif" font-size="10.00">PropertyCell.UpdateInfo</text>
</a>
</g>
</g>
<!-- Node5&#45;&gt;Node6 -->
<g id="edge5" class="edge">
<title>Node5&#45;&gt;Node6</title>
<path fill="none" stroke="midnightblue" d="M713.29,-174.5C721.62,-174.5 730.19,-174.5 738.66,-174.5"/>
<polygon fill="midnightblue" stroke="midnightblue" points="738.92,-178 748.92,-174.5 738.92,-171 738.92,-178"/>
</g>
<!-- Node7 -->
<g id="node7" class="node">
<title>Node7</title>
<g id="a_node7"><a xlink:href="class_photon_1_1_pun_1_1_demo_1_1_cockpit_1_1_property_cell.xhtml#a31fdb17d6a31c5f85468e815f4451c64" target="_top" xlink:title=" ">
<polygon fill="white" stroke="black" points="920,-159.5 920,-189.5 1055,-189.5 1055,-159.5 920,-159.5"/>
<text text-anchor="start" x="928" y="-177.5" font-family="Helvetica,sans-Serif" font-size="10.00">Photon.Pun.Demo.Cockpit.</text>
<text text-anchor="middle" x="987.5" y="-166.5" font-family="Helvetica,sans-Serif" font-size="10.00">PropertyCell.UpdateUIPing</text>
</a>
</g>
</g>
<!-- Node6&#45;&gt;Node7 -->
<g id="edge6" class="edge">
<title>Node6&#45;&gt;Node7</title>
<path fill="none" stroke="midnightblue" d="M884.29,-174.5C892.62,-174.5 901.19,-174.5 909.66,-174.5"/>
<polygon fill="midnightblue" stroke="midnightblue" points="909.92,-178 919.92,-174.5 909.92,-171 909.92,-178"/>
</g>
</g>
</svg>
        <g id="navigator" transform="translate(0 0)" fill="#404254">
                <rect fill="#f2f5e9" fill-opacity="0.5" stroke="#606060" stroke-width=".5" x="0" y="0" width="60" height="60"/>
                <use id="zoomplus" xlink:href="#zoomPlus" x="17" y="9" onmousedown="handleZoom(evt,'in')"/>
                <use id="zoomminus" xlink:href="#zoomMin" x="42" y="9" onmousedown="handleZoom(evt,'out')"/>
                <use id="reset" xlink:href="#resetDef" x="30" y="36" onmousedown="handleReset()"/>
                <g id="arrowUp" xlink:href="#dirArrow" transform="translate(30 24)" onmousedown="handlePan(0,-1)">
                  <use xlink:href="#rim" fill="#404040">
                        <set attributeName="fill" to="#808080" begin="arrowUp.mouseover" end="arrowUp.mouseout"/>
                  </use>
                  <path fill="none" stroke="white" stroke-width="1.5" d="M0,-3.0v7 M-2.5,-0.5L0,-3.0L2.5,-0.5"/>
                </g>
                <g id="arrowRight" xlink:href="#dirArrow" transform="rotate(90) translate(36 -43)" onmousedown="handlePan(1,0)">
                  <use xlink:href="#rim" fill="#404040">
                        <set attributeName="fill" to="#808080" begin="arrowRight.mouseover" end="arrowRight.mouseout"/>
                  </use>
                  <path fill="none" stroke="white" stroke-width="1.5" d="M0,-3.0v7 M-2.5,-0.5L0,-3.0L2.5,-0.5"/>
                </g>
                <g id="arrowDown" xlink:href="#dirArrow" transform="rotate(180) translate(-30 -48)" onmousedown="handlePan(0,1)">
                  <use xlink:href="#rim" fill="#404040">
                        <set attributeName="fill" to="#808080" begin="arrowDown.mouseover" end="arrowDown.mouseout"/>
                  </use>
                  <path fill="none" stroke="white" stroke-width="1.5" d="M0,-3.0v7 M-2.5,-0.5L0,-3.0L2.5,-0.5"/>
                </g>
                <g id="arrowLeft" xlink:href="#dirArrow" transform="rotate(270) translate(-36 17)" onmousedown="handlePan(-1,0)">
                  <use xlink:href="#rim" fill="#404040">
                        <set attributeName="fill" to="#808080" begin="arrowLeft.mouseover" end="arrowLeft.mouseout"/>
                  </use>
                  <path fill="none" stroke="white" stroke-width="1.5" d="M0,-3.0v7 M-2.5,-0.5L0,-3.0L2.5,-0.5"/>
                </g>
        </g>
        <svg viewBox="0 0 15 15" width="100%" height="30px" preserveAspectRatio="xMaxYMin meet">
         <g id="arrow_out" transform="scale(0.3 0.3)">
          <a xlink:href="class_photon_1_1_pun_1_1_demo_1_1_cockpit_1_1_pun_cockpit_a9dd2f362c48c02ed49c82785d5cc35ad_cgraph_org.svg" target="_base">
           <rect id="button" ry="5" rx="5" y="6" x="6" height="38" width="38"
                fill="#f2f5e9" fill-opacity="0.5" stroke="#606060" stroke-width="1.0"/>
           <path id="arrow"
             d="M 11.500037,31.436501 C 11.940474,20.09759 22.043105,11.32322 32.158766,21.979434 L 37.068811,17.246167 C 37.068811,17.246167 37.088388,32 37.088388,32 L 22.160133,31.978069 C 22.160133,31.978069 26.997745,27.140456 26.997745,27.140456 C 18.528582,18.264221 13.291696,25.230495 11.500037,31.436501 z"
             style="fill:#404040;"/>
          </a>
         </g>
        </svg>
</svg>
