<?xml version="1.0" encoding="UTF-8" standalone="no"?>
<!DOCTYPE svg PUBLIC "-//W3C//DTD SVG 1.1//EN"
 "http://www.w3.org/Graphics/SVG/1.1/DTD/svg11.dtd">
<!-- Generated by graphviz version 2.47.3 (20210619.1520)
 -->
<!-- Title: Photon.Realtime.LoadBalancingClient.ConnectToRegionMaster Pages: 1 -->
<!--zoomable 235 -->
<svg id="main" version="1.1" xmlns="http://www.w3.org/2000/svg" xmlns:xlink="http://www.w3.org/1999/xlink" xml:space="preserve" onload="init(evt)">
<style type="text/css"><![CDATA[
.edge:hover path { stroke: red; }
.edge:hover polygon { stroke: red; fill: red; }
]]></style>
<script type="text/javascript"><![CDATA[
var edges = document.getElementsByTagName('g');
if (edges && edges.length) {
  for (var i=0;i<edges.length;i++) {
    if (edges[i].id.substr(0,4)=='edge') {
      edges[i].setAttribute('class','edge');
    }
  }
}
]]></script>
        <defs>
                <circle id="rim" cx="0" cy="0" r="7"/>
                <circle id="rim2" cx="0" cy="0" r="3.5"/>
                <g id="zoomPlus">
                        <use xlink:href="#rim" fill="#404040">
                                <set attributeName="fill" to="#808080" begin="zoomplus.mouseover" end="zoomplus.mouseout"/>
                        </use>
                        <path d="M-4,0h8M0,-4v8" fill="none" stroke="white" stroke-width="1.5" pointer-events="none"/>
                </g>
                <g id="zoomMin">
                        <use xlink:href="#rim" fill="#404040">
                                <set attributeName="fill" to="#808080" begin="zoomminus.mouseover" end="zoomminus.mouseout"/>
                        </use>
                        <path d="M-4,0h8" fill="none" stroke="white" stroke-width="1.5" pointer-events="none"/>
                </g>
                <g id="dirArrow">
                        <path fill="none" stroke="white" stroke-width="1.5" d="M0,-3.0v7 M-2.5,-0.5L0,-3.0L2.5,-0.5"/>
                </g>
               <g id="resetDef">
                       <use xlink:href="#rim2" fill="#404040">
                               <set attributeName="fill" to="#808080" begin="reset.mouseover" end="reset.mouseout"/>
                       </use>
               </g>
        </defs>

<script type="text/javascript">
var viewWidth = 994;
var viewHeight = 235;
var sectionId = 'dynsection-26';
</script>
<script xlink:href="svgpan.js"/>
<svg id="graph" class="graph">
<g id="viewport">
<title>Photon.Realtime.LoadBalancingClient.ConnectToRegionMaster</title>
<polygon fill="white" stroke="transparent" points="-4,4 -4,-231 990,-231 990,4 -4,4"/>
<!-- Node1 -->
<g id="node1" class="node">
<title>Node1</title>
<g id="a_node1"><a xlink:title="Connects you to a specific region&#39;s Master Server, using the Name Server to find the IP.">
<polygon fill="#bfbfbf" stroke="black" points="831,-73.5 831,-103.5 986,-103.5 986,-73.5 831,-73.5"/>
<text text-anchor="start" x="839" y="-91.5" font-family="Helvetica,sans-Serif" font-size="10.00">Photon.Realtime.LoadBalancing</text>
<text text-anchor="middle" x="908.5" y="-80.5" font-family="Helvetica,sans-Serif" font-size="10.00">Client.ConnectToRegionMaster</text>
</a>
</g>
</g>
<!-- Node2 -->
<g id="node2" class="node">
<title>Node2</title>
<g id="a_node2"><a xlink:href="class_photon_1_1_pun_1_1_photon_network.xhtml#a37971483afa605d0d1383970b11f8cec" target="_top" xlink:title="Connects to the Photon Cloud region of choice.">
<polygon fill="white" stroke="black" points="620.5,-147.5 620.5,-177.5 760.5,-177.5 760.5,-147.5 620.5,-147.5"/>
<text text-anchor="start" x="628.5" y="-165.5" font-family="Helvetica,sans-Serif" font-size="10.00">Photon.Pun.PhotonNetwork.</text>
<text text-anchor="middle" x="690.5" y="-154.5" font-family="Helvetica,sans-Serif" font-size="10.00">ConnectToRegion</text>
</a>
</g>
</g>
<!-- Node1&#45;&gt;Node2 -->
<g id="edge1" class="edge">
<title>Node1&#45;&gt;Node2</title>
<path fill="none" stroke="midnightblue" d="M868.5,-108.04C847.18,-118.15 820.07,-130.11 795,-138.5 784.07,-142.16 772.3,-145.46 760.77,-148.37"/>
<polygon fill="midnightblue" stroke="midnightblue" points="870.06,-111.17 877.56,-103.68 867.03,-104.86 870.06,-111.17"/>
</g>
<!-- Node5 -->
<g id="node5" class="node">
<title>Node5</title>
<g id="a_node5"><a xlink:href="class_photon_1_1_realtime_1_1_load_balancing_client.xhtml#adddf15e4484dfc169c131e31e2640a60" target="_top" xlink:title="A callback of the RegionHandler, provided in OnRegionListReceived.">
<polygon fill="white" stroke="black" points="613,-98.5 613,-128.5 768,-128.5 768,-98.5 613,-98.5"/>
<text text-anchor="start" x="621" y="-116.5" font-family="Helvetica,sans-Serif" font-size="10.00">Photon.Realtime.LoadBalancing</text>
<text text-anchor="middle" x="690.5" y="-105.5" font-family="Helvetica,sans-Serif" font-size="10.00">Client.OnRegionPingCompleted</text>
</a>
</g>
</g>
<!-- Node1&#45;&gt;Node5 -->
<g id="edge4" class="edge">
<title>Node1&#45;&gt;Node5</title>
<path fill="none" stroke="midnightblue" d="M820.6,-98.56C803.19,-100.57 785.03,-102.67 768.01,-104.64"/>
<polygon fill="midnightblue" stroke="midnightblue" points="821.21,-102.01 830.74,-97.38 820.4,-95.06 821.21,-102.01"/>
</g>
<!-- Node7 -->
<g id="node7" class="node">
<title>Node7</title>
<g id="a_node7"><a xlink:href="class_photon_1_1_realtime_1_1_demo_1_1_connect_and_join_random_lb.xhtml#a0781b2c1f363952f51639b4d7641a360" target="_top" xlink:title="A callback of the RegionHandler, provided in OnRegionListReceived.">
<polygon fill="white" stroke="black" points="586,-49.5 586,-79.5 795,-79.5 795,-49.5 586,-49.5"/>
<text text-anchor="start" x="594" y="-67.5" font-family="Helvetica,sans-Serif" font-size="10.00">Photon.Realtime.Demo.Connect</text>
<text text-anchor="middle" x="690.5" y="-56.5" font-family="Helvetica,sans-Serif" font-size="10.00">AndJoinRandomLb.OnRegionPingCompleted</text>
</a>
</g>
</g>
<!-- Node1&#45;&gt;Node7 -->
<g id="edge6" class="edge">
<title>Node1&#45;&gt;Node7</title>
<path fill="none" stroke="midnightblue" d="M820.63,-78.85C812.26,-77.92 803.72,-76.97 795.21,-76.02"/>
<polygon fill="midnightblue" stroke="midnightblue" points="820.41,-82.35 830.74,-79.97 821.19,-75.39 820.41,-82.35"/>
</g>
<!-- Node9 -->
<g id="node9" class="node">
<title>Node9</title>
<g id="a_node9"><a xlink:href="class_photon_1_1_pun_1_1_photon_network.xhtml#a4a000a2af73ae86a78f9dd502e4a3f45" target="_top" xlink:title=" ">
<polygon fill="white" stroke="black" points="620.5,-0.5 620.5,-30.5 760.5,-30.5 760.5,-0.5 620.5,-0.5"/>
<text text-anchor="start" x="628.5" y="-18.5" font-family="Helvetica,sans-Serif" font-size="10.00">Photon.Pun.PhotonNetwork.</text>
<text text-anchor="middle" x="690.5" y="-7.5" font-family="Helvetica,sans-Serif" font-size="10.00">OnRegionsPinged</text>
</a>
</g>
</g>
<!-- Node1&#45;&gt;Node9 -->
<g id="edge8" class="edge">
<title>Node1&#45;&gt;Node9</title>
<path fill="none" stroke="midnightblue" d="M866.75,-69.17C845.65,-59.67 819.3,-48.56 795,-40.5 784.03,-36.86 772.25,-33.51 760.71,-30.53"/>
<polygon fill="midnightblue" stroke="midnightblue" points="865.49,-72.44 876.04,-73.41 868.39,-66.07 865.49,-72.44"/>
</g>
<!-- Node3 -->
<g id="node3" class="node">
<title>Node3</title>
<g id="a_node3"><a xlink:href="class_photon_1_1_pun_1_1_demo_1_1_cockpit_1_1_pun_cockpit.xhtml#a5c90be793ca1f7501275a194cd9671ab" target="_top" xlink:title=" ">
<polygon fill="white" stroke="black" points="378,-196.5 378,-226.5 524,-226.5 524,-196.5 378,-196.5"/>
<text text-anchor="start" x="386" y="-214.5" font-family="Helvetica,sans-Serif" font-size="10.00">Photon.Pun.Demo.Cockpit.</text>
<text text-anchor="middle" x="451" y="-203.5" font-family="Helvetica,sans-Serif" font-size="10.00">PunCockpit.ConnectToRegion</text>
</a>
</g>
</g>
<!-- Node2&#45;&gt;Node3 -->
<g id="edge2" class="edge">
<title>Node2&#45;&gt;Node3</title>
<path fill="none" stroke="midnightblue" d="M610.38,-178.82C582.51,-184.57 551.34,-191 524.08,-196.63"/>
<polygon fill="midnightblue" stroke="midnightblue" points="611.4,-182.19 620.49,-176.74 609.99,-175.33 611.4,-182.19"/>
</g>
<!-- Node4 -->
<g id="node4" class="node">
<title>Node4</title>
<g id="a_node4"><a xlink:href="class_photon_1_1_pun_1_1_photon_network.xhtml#ae031208b657a2e01d80ddf4b02d0d23f" target="_top" xlink:title=" ">
<polygon fill="white" stroke="black" points="381,-147.5 381,-177.5 521,-177.5 521,-147.5 381,-147.5"/>
<text text-anchor="start" x="389" y="-165.5" font-family="Helvetica,sans-Serif" font-size="10.00">Photon.Pun.PhotonNetwork.</text>
<text text-anchor="middle" x="451" y="-154.5" font-family="Helvetica,sans-Serif" font-size="10.00">ConnectUsingSettings</text>
</a>
</g>
</g>
<!-- Node2&#45;&gt;Node4 -->
<g id="edge3" class="edge">
<title>Node2&#45;&gt;Node4</title>
<path fill="none" stroke="midnightblue" d="M610.43,-162.5C581.55,-162.5 549.14,-162.5 521.19,-162.5"/>
<polygon fill="midnightblue" stroke="midnightblue" points="610.49,-166 620.49,-162.5 610.49,-159 610.49,-166"/>
</g>
<!-- Node6 -->
<g id="node6" class="node">
<title>Node6</title>
<g id="a_node6"><a xlink:href="class_photon_1_1_realtime_1_1_load_balancing_client.xhtml#aae79523656b407a63d1112528093d953" target="_top" xlink:title="Uses the OperationResponses provided by the server to advance the internal state and call ops as need...">
<polygon fill="white" stroke="black" points="373.5,-98.5 373.5,-128.5 528.5,-128.5 528.5,-98.5 373.5,-98.5"/>
<text text-anchor="start" x="381.5" y="-116.5" font-family="Helvetica,sans-Serif" font-size="10.00">Photon.Realtime.LoadBalancing</text>
<text text-anchor="middle" x="451" y="-105.5" font-family="Helvetica,sans-Serif" font-size="10.00">Client.OnOperationResponse</text>
</a>
</g>
</g>
<!-- Node5&#45;&gt;Node6 -->
<g id="edge5" class="edge">
<title>Node5&#45;&gt;Node6</title>
<path fill="none" stroke="midnightblue" d="M602.46,-113.5C578.23,-113.5 552.1,-113.5 528.52,-113.5"/>
<polygon fill="midnightblue" stroke="midnightblue" points="602.72,-117 612.72,-113.5 602.72,-110 602.72,-117"/>
</g>
<!-- Node8 -->
<g id="node8" class="node">
<title>Node8</title>
<g id="a_node8"><a xlink:href="class_photon_1_1_realtime_1_1_demo_1_1_connect_and_join_random_lb.xhtml#a0ae9b9b10119366621182ef8554d102c" target="_top" xlink:title="Called when the Name Server provided a list of regions for your title.">
<polygon fill="white" stroke="black" points="352,-49.5 352,-79.5 550,-79.5 550,-49.5 352,-49.5"/>
<text text-anchor="start" x="360" y="-67.5" font-family="Helvetica,sans-Serif" font-size="10.00">Photon.Realtime.Demo.Connect</text>
<text text-anchor="middle" x="451" y="-56.5" font-family="Helvetica,sans-Serif" font-size="10.00">AndJoinRandomLb.OnRegionListReceived</text>
</a>
</g>
</g>
<!-- Node7&#45;&gt;Node8 -->
<g id="edge7" class="edge">
<title>Node7&#45;&gt;Node8</title>
<path fill="none" stroke="midnightblue" d="M575.46,-64.5C567.07,-64.5 558.64,-64.5 550.35,-64.5"/>
<polygon fill="midnightblue" stroke="midnightblue" points="575.67,-68 585.67,-64.5 575.67,-61 575.67,-68"/>
</g>
<!-- Node10 -->
<g id="node10" class="node">
<title>Node10</title>
<g id="a_node10"><a xlink:href="class_photon_1_1_pun_1_1_photon_network.xhtml#a7efb23346fd80d365c5d9824b9a12be7" target="_top" xlink:title=" ">
<polygon fill="white" stroke="black" points="381,-0.5 381,-30.5 521,-30.5 521,-0.5 381,-0.5"/>
<text text-anchor="start" x="389" y="-18.5" font-family="Helvetica,sans-Serif" font-size="10.00">Photon.Pun.PhotonNetwork.</text>
<text text-anchor="middle" x="451" y="-7.5" font-family="Helvetica,sans-Serif" font-size="10.00">OnOperation</text>
</a>
</g>
</g>
<!-- Node9&#45;&gt;Node10 -->
<g id="edge9" class="edge">
<title>Node9&#45;&gt;Node10</title>
<path fill="none" stroke="midnightblue" d="M610.43,-15.5C581.55,-15.5 549.14,-15.5 521.19,-15.5"/>
<polygon fill="midnightblue" stroke="midnightblue" points="610.49,-19 620.49,-15.5 610.49,-12 610.49,-19"/>
</g>
<!-- Node11 -->
<g id="node11" class="node">
<title>Node11</title>
<g id="a_node11"><a xlink:href="class_photon_1_1_pun_1_1_photon_network.xhtml#a29461361da66594fce3a7394493f8fce" target="_top" xlink:title=" ">
<polygon fill="white" stroke="black" points="176,-0.5 176,-30.5 316,-30.5 316,-0.5 176,-0.5"/>
<text text-anchor="start" x="184" y="-18.5" font-family="Helvetica,sans-Serif" font-size="10.00">Photon.Pun.PhotonNetwork.</text>
<text text-anchor="middle" x="246" y="-7.5" font-family="Helvetica,sans-Serif" font-size="10.00">StaticReset</text>
</a>
</g>
</g>
<!-- Node10&#45;&gt;Node11 -->
<g id="edge10" class="edge">
<title>Node10&#45;&gt;Node11</title>
<path fill="none" stroke="midnightblue" d="M370.8,-15.5C352.76,-15.5 333.74,-15.5 316.16,-15.5"/>
<polygon fill="midnightblue" stroke="midnightblue" points="370.99,-19 380.99,-15.5 370.99,-12 370.99,-19"/>
</g>
<!-- Node12 -->
<g id="node12" class="node">
<title>Node12</title>
<g id="a_node12"><a xlink:href="class_photon_1_1_pun_1_1_photon_network.xhtml#a1b66941ee2aba40b56df1578da9015da" target="_top" xlink:title="Static constructor used for basic setup.">
<polygon fill="white" stroke="black" points="0,-0.5 0,-30.5 140,-30.5 140,-0.5 0,-0.5"/>
<text text-anchor="start" x="8" y="-18.5" font-family="Helvetica,sans-Serif" font-size="10.00">Photon.Pun.PhotonNetwork.</text>
<text text-anchor="middle" x="70" y="-7.5" font-family="Helvetica,sans-Serif" font-size="10.00">PhotonNetwork</text>
</a>
</g>
</g>
<!-- Node11&#45;&gt;Node12 -->
<g id="edge11" class="edge">
<title>Node11&#45;&gt;Node12</title>
<path fill="none" stroke="midnightblue" d="M165.97,-15.5C157.38,-15.5 148.68,-15.5 140.22,-15.5"/>
<polygon fill="midnightblue" stroke="midnightblue" points="165.98,-19 175.98,-15.5 165.98,-12 165.98,-19"/>
</g>
</g>
</svg>
        <g id="navigator" transform="translate(0 0)" fill="#404254">
                <rect fill="#f2f5e9" fill-opacity="0.5" stroke="#606060" stroke-width=".5" x="0" y="0" width="60" height="60"/>
                <use id="zoomplus" xlink:href="#zoomPlus" x="17" y="9" onmousedown="handleZoom(evt,'in')"/>
                <use id="zoomminus" xlink:href="#zoomMin" x="42" y="9" onmousedown="handleZoom(evt,'out')"/>
                <use id="reset" xlink:href="#resetDef" x="30" y="36" onmousedown="handleReset()"/>
                <g id="arrowUp" xlink:href="#dirArrow" transform="translate(30 24)" onmousedown="handlePan(0,-1)">
                  <use xlink:href="#rim" fill="#404040">
                        <set attributeName="fill" to="#808080" begin="arrowUp.mouseover" end="arrowUp.mouseout"/>
                  </use>
                  <path fill="none" stroke="white" stroke-width="1.5" d="M0,-3.0v7 M-2.5,-0.5L0,-3.0L2.5,-0.5"/>
                </g>
                <g id="arrowRight" xlink:href="#dirArrow" transform="rotate(90) translate(36 -43)" onmousedown="handlePan(1,0)">
                  <use xlink:href="#rim" fill="#404040">
                        <set attributeName="fill" to="#808080" begin="arrowRight.mouseover" end="arrowRight.mouseout"/>
                  </use>
                  <path fill="none" stroke="white" stroke-width="1.5" d="M0,-3.0v7 M-2.5,-0.5L0,-3.0L2.5,-0.5"/>
                </g>
                <g id="arrowDown" xlink:href="#dirArrow" transform="rotate(180) translate(-30 -48)" onmousedown="handlePan(0,1)">
                  <use xlink:href="#rim" fill="#404040">
                        <set attributeName="fill" to="#808080" begin="arrowDown.mouseover" end="arrowDown.mouseout"/>
                  </use>
                  <path fill="none" stroke="white" stroke-width="1.5" d="M0,-3.0v7 M-2.5,-0.5L0,-3.0L2.5,-0.5"/>
                </g>
                <g id="arrowLeft" xlink:href="#dirArrow" transform="rotate(270) translate(-36 17)" onmousedown="handlePan(-1,0)">
                  <use xlink:href="#rim" fill="#404040">
                        <set attributeName="fill" to="#808080" begin="arrowLeft.mouseover" end="arrowLeft.mouseout"/>
                  </use>
                  <path fill="none" stroke="white" stroke-width="1.5" d="M0,-3.0v7 M-2.5,-0.5L0,-3.0L2.5,-0.5"/>
                </g>
        </g>
        <svg viewBox="0 0 15 15" width="100%" height="30px" preserveAspectRatio="xMaxYMin meet">
         <g id="arrow_out" transform="scale(0.3 0.3)">
          <a xlink:href="class_photon_1_1_realtime_1_1_load_balancing_client_a8db8b6caf7819906b58b59fb0e31f63c_icgraph_org.svg" target="_base">
           <rect id="button" ry="5" rx="5" y="6" x="6" height="38" width="38"
                fill="#f2f5e9" fill-opacity="0.5" stroke="#606060" stroke-width="1.0"/>
           <path id="arrow"
             d="M 11.500037,31.436501 C 11.940474,20.09759 22.043105,11.32322 32.158766,21.979434 L 37.068811,17.246167 C 37.068811,17.246167 37.088388,32 37.088388,32 L 22.160133,31.978069 C 22.160133,31.978069 26.997745,27.140456 26.997745,27.140456 C 18.528582,18.264221 13.291696,25.230495 11.500037,31.436501 z"
             style="fill:#404040;"/>
          </a>
         </g>
        </svg>
</svg>
