<?xml version="1.0" encoding="UTF-8" standalone="no"?>
<!DOCTYPE svg PUBLIC "-//W3C//DTD SVG 1.1//EN"
 "http://www.w3.org/Graphics/SVG/1.1/DTD/svg11.dtd">
<!-- Generated by graphviz version 2.47.3 (20210619.1520)
 -->
<!-- Title: Photon.Pun.Demo.PunBasics.PlayerUI Pages: 1 -->
<!--zoomable 284 -->
<svg id="main" version="1.1" xmlns="http://www.w3.org/2000/svg" xmlns:xlink="http://www.w3.org/1999/xlink" xml:space="preserve" onload="init(evt)">
<style type="text/css"><![CDATA[
.edge:hover path { stroke: red; }
.edge:hover polygon { stroke: red; fill: red; }
]]></style>
<script type="text/javascript"><![CDATA[
var edges = document.getElementsByTagName('g');
if (edges && edges.length) {
  for (var i=0;i<edges.length;i++) {
    if (edges[i].id.substr(0,4)=='edge') {
      edges[i].setAttribute('class','edge');
    }
  }
}
]]></script>
        <defs>
                <circle id="rim" cx="0" cy="0" r="7"/>
                <circle id="rim2" cx="0" cy="0" r="3.5"/>
                <g id="zoomPlus">
                        <use xlink:href="#rim" fill="#404040">
                                <set attributeName="fill" to="#808080" begin="zoomplus.mouseover" end="zoomplus.mouseout"/>
                        </use>
                        <path d="M-4,0h8M0,-4v8" fill="none" stroke="white" stroke-width="1.5" pointer-events="none"/>
                </g>
                <g id="zoomMin">
                        <use xlink:href="#rim" fill="#404040">
                                <set attributeName="fill" to="#808080" begin="zoomminus.mouseover" end="zoomminus.mouseout"/>
                        </use>
                        <path d="M-4,0h8" fill="none" stroke="white" stroke-width="1.5" pointer-events="none"/>
                </g>
                <g id="dirArrow">
                        <path fill="none" stroke="white" stroke-width="1.5" d="M0,-3.0v7 M-2.5,-0.5L0,-3.0L2.5,-0.5"/>
                </g>
               <g id="resetDef">
                       <use xlink:href="#rim2" fill="#404040">
                               <set attributeName="fill" to="#808080" begin="reset.mouseover" end="reset.mouseout"/>
                       </use>
               </g>
        </defs>

<script type="text/javascript">
var viewWidth = 1149;
var viewHeight = 284;
var sectionId = 'dynsection-1';
</script>
<script xlink:href="svgpan.js"/>
<svg id="graph" class="graph">
<g id="viewport">
<title>Photon.Pun.Demo.PunBasics.PlayerUI</title>
<polygon fill="white" stroke="transparent" points="-4,4 -4,-280 1145,-280 1145,4 -4,4"/>
<!-- Node1 -->
<g id="node1" class="node">
<title>Node1</title>
<g id="a_node1"><a xlink:title="Player UI.">
<polygon fill="#bfbfbf" stroke="black" points="992,-128 992,-158 1141,-158 1141,-128 992,-128"/>
<text text-anchor="start" x="1000" y="-146" font-family="Helvetica,sans-Serif" font-size="10.00">Photon.Pun.Demo.PunBasics.</text>
<text text-anchor="middle" x="1066.5" y="-135" font-family="Helvetica,sans-Serif" font-size="10.00">PlayerUI</text>
</a>
</g>
</g>
<!-- Node2 -->
<g id="node2" class="node">
<title>Node2</title>
<g id="a_node2"><a xlink:title=" ">
<polygon fill="white" stroke="#bfbfbf" points="18,-228.5 18,-247.5 101,-247.5 101,-228.5 18,-228.5"/>
<text text-anchor="middle" x="59.5" y="-235.5" font-family="Helvetica,sans-Serif" font-size="10.00">MonoBehaviour</text>
</a>
</g>
</g>
<!-- Node2&#45;&gt;Node1 -->
<g id="edge1" class="edge">
<title>Node2&#45;&gt;Node1</title>
<path fill="none" stroke="midnightblue" d="M100.74,-250.39C140.35,-261.48 202.75,-276 258,-276 258,-276 258,-276 808.5,-276 909.98,-276 1011.33,-193.19 1049.57,-158.26"/>
<polygon fill="midnightblue" stroke="midnightblue" points="101.52,-246.98 90.94,-247.59 99.59,-253.71 101.52,-246.98"/>
</g>
<!-- Node6 -->
<g id="node6" class="node">
<title>Node6</title>
<g id="a_node6"><a xlink:href="class_photon_1_1_pun_1_1_mono_behaviour_pun.xhtml" target="_top" xlink:title="This class adds the property photonView, while logging a warning when your game still uses the networ...">
<polygon fill="white" stroke="black" points="406,-228.5 406,-247.5 506,-247.5 506,-228.5 406,-228.5"/>
<text text-anchor="middle" x="456" y="-235.5" font-family="Helvetica,sans-Serif" font-size="10.00">MonoBehaviourPun</text>
</a>
</g>
</g>
<!-- Node2&#45;&gt;Node6 -->
<g id="edge6" class="edge">
<title>Node2&#45;&gt;Node6</title>
<path fill="none" stroke="midnightblue" d="M111.55,-238C187.86,-238 330.74,-238 405.91,-238"/>
<polygon fill="midnightblue" stroke="midnightblue" points="111.23,-234.5 101.23,-238 111.23,-241.5 111.23,-234.5"/>
</g>
<!-- Node7 -->
<g id="node7" class="node">
<title>Node7</title>
<g id="a_node7"><a xlink:href="class_photon_1_1_pun_1_1_photon_view.xhtml" target="_top" xlink:title="A PhotonView identifies an object across the network (viewID) and configures how the controlling clie...">
<polygon fill="white" stroke="black" points="198,-190.5 198,-209.5 320,-209.5 320,-190.5 198,-190.5"/>
<text text-anchor="middle" x="259" y="-197.5" font-family="Helvetica,sans-Serif" font-size="10.00">Photon.Pun.PhotonView</text>
</a>
</g>
</g>
<!-- Node2&#45;&gt;Node7 -->
<g id="edge8" class="edge">
<title>Node2&#45;&gt;Node7</title>
<path fill="none" stroke="midnightblue" d="M111.62,-228.16C141.43,-222.43 178.84,-215.23 208.38,-209.55"/>
<polygon fill="midnightblue" stroke="midnightblue" points="110.58,-224.8 101.42,-230.13 111.9,-231.67 110.58,-224.8"/>
</g>
<!-- Node3 -->
<g id="node3" class="node">
<title>Node3</title>
<g id="a_node3"><a xlink:title=" ">
<polygon fill="white" stroke="#bfbfbf" points="790,-89.5 790,-108.5 825,-108.5 825,-89.5 790,-89.5"/>
<text text-anchor="middle" x="807.5" y="-96.5" font-family="Helvetica,sans-Serif" font-size="10.00">Text</text>
</a>
</g>
</g>
<!-- Node3&#45;&gt;Node1 -->
<g id="edge2" class="edge">
<title>Node3&#45;&gt;Node1</title>
<path fill="none" stroke="#9a32cd" stroke-dasharray="5,2" d="M835.3,-103.59C872.04,-109.88 939.45,-121.42 991.86,-130.39"/>
<polygon fill="#9a32cd" stroke="#9a32cd" points="835.81,-100.12 825.36,-101.89 834.63,-107.02 835.81,-100.12"/>
<text text-anchor="middle" x="937" y="-130" font-family="Helvetica,sans-Serif" font-size="10.00"> playerNameText</text>
</g>
<!-- Node4 -->
<g id="node4" class="node">
<title>Node4</title>
<g id="a_node4"><a xlink:href="class_photon_1_1_pun_1_1_demo_1_1_pun_basics_1_1_player_manager.xhtml" target="_top" xlink:title="Player manager.">
<polygon fill="white" stroke="black" points="733,-128 733,-158 882,-158 882,-128 733,-128"/>
<text text-anchor="start" x="741" y="-146" font-family="Helvetica,sans-Serif" font-size="10.00">Photon.Pun.Demo.PunBasics.</text>
<text text-anchor="middle" x="807.5" y="-135" font-family="Helvetica,sans-Serif" font-size="10.00">PlayerManager</text>
</a>
</g>
</g>
<!-- Node4&#45;&gt;Node1 -->
<g id="edge3" class="edge">
<title>Node4&#45;&gt;Node1</title>
<path fill="none" stroke="#9a32cd" stroke-dasharray="5,2" d="M892.4,-143C924.48,-143 960.79,-143 991.84,-143"/>
<polygon fill="#9a32cd" stroke="#9a32cd" points="892.15,-139.5 882.15,-143 892.15,-146.5 892.15,-139.5"/>
<text text-anchor="middle" x="937" y="-146" font-family="Helvetica,sans-Serif" font-size="10.00"> target</text>
</g>
<!-- Node5 -->
<g id="node5" class="node">
<title>Node5</title>
<g id="a_node5"><a xlink:href="class_photon_1_1_pun_1_1_mono_behaviour_pun_callbacks.xhtml" target="_top" xlink:title="This class provides a .photonView and all callbacks/events that PUN can call.">
<polygon fill="white" stroke="black" points="553,-133.5 553,-152.5 696,-152.5 696,-133.5 553,-133.5"/>
<text text-anchor="middle" x="624.5" y="-140.5" font-family="Helvetica,sans-Serif" font-size="10.00">MonoBehaviourPunCallbacks</text>
</a>
</g>
</g>
<!-- Node5&#45;&gt;Node4 -->
<g id="edge4" class="edge">
<title>Node5&#45;&gt;Node4</title>
<path fill="none" stroke="midnightblue" d="M706.48,-143C715.24,-143 724.13,-143 732.81,-143"/>
<polygon fill="midnightblue" stroke="midnightblue" points="706.26,-139.5 696.26,-143 706.26,-146.5 706.26,-139.5"/>
</g>
<!-- Node6&#45;&gt;Node5 -->
<g id="edge5" class="edge">
<title>Node6&#45;&gt;Node5</title>
<path fill="none" stroke="midnightblue" d="M502.3,-224.98C507.01,-223.17 511.66,-221.17 516,-219 554.03,-199.99 593.54,-168.49 612.31,-152.68"/>
<polygon fill="midnightblue" stroke="midnightblue" points="500.87,-221.78 492.64,-228.45 503.23,-228.37 500.87,-221.78"/>
</g>
<!-- Node7&#45;&gt;Node6 -->
<g id="edge7" class="edge">
<title>Node7&#45;&gt;Node6</title>
<path fill="none" stroke="#9a32cd" stroke-dasharray="5,2" d="M330.36,-205.28C346.14,-207.15 362.72,-209.65 378,-213 386.24,-214.81 387.99,-216.37 396,-219 405.51,-222.12 415.9,-225.48 425.27,-228.49"/>
<polygon fill="#9a32cd" stroke="#9a32cd" points="330.45,-201.77 320.13,-204.14 329.68,-208.72 330.45,-201.77"/>
<text text-anchor="middle" x="358" y="-216" font-family="Helvetica,sans-Serif" font-size="10.00"> pvCache</text>
</g>
<!-- Node8 -->
<g id="node8" class="node">
<title>Node8</title>
<g id="a_node8"><a xlink:href="class_photon_1_1_realtime_1_1_player.xhtml" target="_top" xlink:title="Summarizes a &quot;player&quot; within a room, identified (in that room) by ID (or &quot;actorNumber&quot;).">
<polygon fill="white" stroke="black" points="0,-166.5 0,-185.5 119,-185.5 119,-166.5 0,-166.5"/>
<text text-anchor="middle" x="59.5" y="-173.5" font-family="Helvetica,sans-Serif" font-size="10.00">Photon.Realtime.Player</text>
</a>
</g>
</g>
<!-- Node8&#45;&gt;Node7 -->
<g id="edge9" class="edge">
<title>Node8&#45;&gt;Node7</title>
<path fill="none" stroke="#9a32cd" stroke-dasharray="5,2" d="M129.32,-173.31C145.98,-173.56 163.69,-174.58 180,-177 197.87,-179.66 217.37,-185.41 232.41,-190.49"/>
<polygon fill="#9a32cd" stroke="#9a32cd" points="129.12,-169.81 119.1,-173.25 129.08,-176.81 129.12,-169.81"/>
<text text-anchor="middle" x="158.5" y="-191" font-family="Helvetica,sans-Serif" font-size="10.00"> controller</text>
<text text-anchor="middle" x="158.5" y="-180" font-family="Helvetica,sans-Serif" font-size="10.00">owner</text>
</g>
<!-- Node9 -->
<g id="node9" class="node">
<title>Node9</title>
<g id="a_node9"><a xlink:href="interface_photon_1_1_realtime_1_1_i_connection_callbacks.xhtml" target="_top" xlink:title="Collection of &quot;organizational&quot; callbacks for the Realtime Api to cover: Connection and Regions.">
<polygon fill="white" stroke="black" points="401,-190.5 401,-209.5 511,-209.5 511,-190.5 401,-190.5"/>
<text text-anchor="middle" x="456" y="-197.5" font-family="Helvetica,sans-Serif" font-size="10.00">IConnectionCallbacks</text>
</a>
</g>
</g>
<!-- Node9&#45;&gt;Node5 -->
<g id="edge10" class="edge">
<title>Node9&#45;&gt;Node5</title>
<path fill="none" stroke="midnightblue" d="M496.92,-187.31C503.31,-185.23 509.84,-183.08 516,-181 543.76,-171.63 575.35,-160.39 597.07,-152.58"/>
<polygon fill="midnightblue" stroke="midnightblue" points="495.51,-184.09 487.07,-190.5 497.66,-190.75 495.51,-184.09"/>
</g>
<!-- Node10 -->
<g id="node10" class="node">
<title>Node10</title>
<g id="a_node10"><a xlink:href="interface_photon_1_1_realtime_1_1_i_matchmaking_callbacks.xhtml" target="_top" xlink:title="Collection of &quot;organizational&quot; callbacks for the Realtime Api to cover Matchmaking.">
<polygon fill="white" stroke="black" points="396,-152.5 396,-171.5 516,-171.5 516,-152.5 396,-152.5"/>
<text text-anchor="middle" x="456" y="-159.5" font-family="Helvetica,sans-Serif" font-size="10.00">IMatchmakingCallbacks</text>
</a>
</g>
</g>
<!-- Node10&#45;&gt;Node5 -->
<g id="edge11" class="edge">
<title>Node10&#45;&gt;Node5</title>
<path fill="none" stroke="midnightblue" d="M526.33,-154.09C535.09,-153.09 544.06,-152.06 552.84,-151.06"/>
<polygon fill="midnightblue" stroke="midnightblue" points="525.71,-150.64 516.17,-155.25 526.5,-157.59 525.71,-150.64"/>
</g>
<!-- Node11 -->
<g id="node11" class="node">
<title>Node11</title>
<g id="a_node11"><a xlink:href="interface_photon_1_1_realtime_1_1_i_in_room_callbacks.xhtml" target="_top" xlink:title="Collection of &quot;in room&quot; callbacks for the Realtime Api to cover: Players entering or leaving,...">
<polygon fill="white" stroke="black" points="408.5,-114.5 408.5,-133.5 503.5,-133.5 503.5,-114.5 408.5,-114.5"/>
<text text-anchor="middle" x="456" y="-121.5" font-family="Helvetica,sans-Serif" font-size="10.00">IInRoomCallbacks</text>
</a>
</g>
</g>
<!-- Node11&#45;&gt;Node5 -->
<g id="edge12" class="edge">
<title>Node11&#45;&gt;Node5</title>
<path fill="none" stroke="midnightblue" d="M514.06,-130.51C526.52,-131.93 539.85,-133.45 552.77,-134.93"/>
<polygon fill="midnightblue" stroke="midnightblue" points="514.15,-127 503.82,-129.34 513.36,-133.95 514.15,-127"/>
</g>
<!-- Node12 -->
<g id="node12" class="node">
<title>Node12</title>
<g id="a_node12"><a xlink:href="interface_photon_1_1_realtime_1_1_i_lobby_callbacks.xhtml" target="_top" xlink:title="Collection of &quot;organizational&quot; callbacks for the Realtime Api to cover the Lobby.">
<polygon fill="white" stroke="black" points="412,-76.5 412,-95.5 500,-95.5 500,-76.5 412,-76.5"/>
<text text-anchor="middle" x="456" y="-83.5" font-family="Helvetica,sans-Serif" font-size="10.00">ILobbyCallbacks</text>
</a>
</g>
</g>
<!-- Node12&#45;&gt;Node5 -->
<g id="edge13" class="edge">
<title>Node12&#45;&gt;Node5</title>
<path fill="none" stroke="midnightblue" d="M499.68,-98.83C505.22,-100.76 510.78,-102.84 516,-105 533.08,-112.08 535.76,-117.34 553,-124 562.34,-127.61 572.63,-130.8 582.39,-133.49"/>
<polygon fill="midnightblue" stroke="midnightblue" points="500.4,-95.38 489.8,-95.52 498.17,-102.02 500.4,-95.38"/>
</g>
<!-- Node13 -->
<g id="node13" class="node">
<title>Node13</title>
<g id="a_node13"><a xlink:href="interface_photon_1_1_realtime_1_1_i_web_rpc_callback.xhtml" target="_top" xlink:title="Interface for &quot;WebRpc&quot; callbacks for the Realtime Api.">
<polygon fill="white" stroke="black" points="409,-38.5 409,-57.5 503,-57.5 503,-38.5 409,-38.5"/>
<text text-anchor="middle" x="456" y="-45.5" font-family="Helvetica,sans-Serif" font-size="10.00">IWebRpcCallback</text>
</a>
</g>
</g>
<!-- Node13&#45;&gt;Node5 -->
<g id="edge14" class="edge">
<title>Node13&#45;&gt;Node5</title>
<path fill="none" stroke="midnightblue" d="M508.18,-61.92C510.93,-63.44 513.56,-65.13 516,-67 539.98,-85.36 528.58,-106.23 553,-124 558.33,-127.88 564.4,-130.97 570.7,-133.42"/>
<polygon fill="midnightblue" stroke="midnightblue" points="509.62,-58.73 499.09,-57.58 506.61,-65.05 509.62,-58.73"/>
</g>
<!-- Node14 -->
<g id="node14" class="node">
<title>Node14</title>
<g id="a_node14"><a xlink:href="interface_photon_1_1_realtime_1_1_i_error_info_callback.xhtml" target="_top" xlink:title="Interface for EventCode.ErrorInfo event callback for the Realtime Api.">
<polygon fill="white" stroke="black" points="410,-0.5 410,-19.5 502,-19.5 502,-0.5 410,-0.5"/>
<text text-anchor="middle" x="456" y="-7.5" font-family="Helvetica,sans-Serif" font-size="10.00">IErrorInfoCallback</text>
</a>
</g>
</g>
<!-- Node14&#45;&gt;Node5 -->
<g id="edge15" class="edge">
<title>Node14&#45;&gt;Node5</title>
<path fill="none" stroke="midnightblue" d="M510.57,-24.62C512.49,-25.96 514.31,-27.41 516,-29 548.98,-60.07 519.28,-93.74 553,-124 557.34,-127.89 562.4,-131 567.77,-133.48"/>
<polygon fill="midnightblue" stroke="midnightblue" points="512.05,-21.43 501.63,-19.52 508.58,-27.51 512.05,-21.43"/>
</g>
<!-- Node15 -->
<g id="node15" class="node">
<title>Node15</title>
<g id="a_node15"><a xlink:href="interface_photon_1_1_pun_1_1_i_pun_observable.xhtml" target="_top" xlink:title="Defines the OnPhotonSerializeView method to make it easy to implement correctly for observable script...">
<polygon fill="white" stroke="black" points="582.5,-95.5 582.5,-114.5 666.5,-114.5 666.5,-95.5 582.5,-95.5"/>
<text text-anchor="middle" x="624.5" y="-102.5" font-family="Helvetica,sans-Serif" font-size="10.00">IPunObservable</text>
</a>
</g>
</g>
<!-- Node15&#45;&gt;Node4 -->
<g id="edge16" class="edge">
<title>Node15&#45;&gt;Node4</title>
<path fill="none" stroke="midnightblue" d="M676.38,-115.68C694.57,-119.5 715.43,-123.88 735.03,-128"/>
<polygon fill="midnightblue" stroke="midnightblue" points="677.08,-112.25 666.57,-113.62 675.64,-119.1 677.08,-112.25"/>
</g>
</g>
</svg>
        <g id="navigator" transform="translate(0 0)" fill="#404254">
                <rect fill="#f2f5e9" fill-opacity="0.5" stroke="#606060" stroke-width=".5" x="0" y="0" width="60" height="60"/>
                <use id="zoomplus" xlink:href="#zoomPlus" x="17" y="9" onmousedown="handleZoom(evt,'in')"/>
                <use id="zoomminus" xlink:href="#zoomMin" x="42" y="9" onmousedown="handleZoom(evt,'out')"/>
                <use id="reset" xlink:href="#resetDef" x="30" y="36" onmousedown="handleReset()"/>
                <g id="arrowUp" xlink:href="#dirArrow" transform="translate(30 24)" onmousedown="handlePan(0,-1)">
                  <use xlink:href="#rim" fill="#404040">
                        <set attributeName="fill" to="#808080" begin="arrowUp.mouseover" end="arrowUp.mouseout"/>
                  </use>
                  <path fill="none" stroke="white" stroke-width="1.5" d="M0,-3.0v7 M-2.5,-0.5L0,-3.0L2.5,-0.5"/>
                </g>
                <g id="arrowRight" xlink:href="#dirArrow" transform="rotate(90) translate(36 -43)" onmousedown="handlePan(1,0)">
                  <use xlink:href="#rim" fill="#404040">
                        <set attributeName="fill" to="#808080" begin="arrowRight.mouseover" end="arrowRight.mouseout"/>
                  </use>
                  <path fill="none" stroke="white" stroke-width="1.5" d="M0,-3.0v7 M-2.5,-0.5L0,-3.0L2.5,-0.5"/>
                </g>
                <g id="arrowDown" xlink:href="#dirArrow" transform="rotate(180) translate(-30 -48)" onmousedown="handlePan(0,1)">
                  <use xlink:href="#rim" fill="#404040">
                        <set attributeName="fill" to="#808080" begin="arrowDown.mouseover" end="arrowDown.mouseout"/>
                  </use>
                  <path fill="none" stroke="white" stroke-width="1.5" d="M0,-3.0v7 M-2.5,-0.5L0,-3.0L2.5,-0.5"/>
                </g>
                <g id="arrowLeft" xlink:href="#dirArrow" transform="rotate(270) translate(-36 17)" onmousedown="handlePan(-1,0)">
                  <use xlink:href="#rim" fill="#404040">
                        <set attributeName="fill" to="#808080" begin="arrowLeft.mouseover" end="arrowLeft.mouseout"/>
                  </use>
                  <path fill="none" stroke="white" stroke-width="1.5" d="M0,-3.0v7 M-2.5,-0.5L0,-3.0L2.5,-0.5"/>
                </g>
        </g>
        <svg viewBox="0 0 15 15" width="100%" height="30px" preserveAspectRatio="xMaxYMin meet">
         <g id="arrow_out" transform="scale(0.3 0.3)">
          <a xlink:href="class_photon_1_1_pun_1_1_demo_1_1_pun_basics_1_1_player_u_i__coll__graph_org.svg" target="_base">
           <rect id="button" ry="5" rx="5" y="6" x="6" height="38" width="38"
                fill="#f2f5e9" fill-opacity="0.5" stroke="#606060" stroke-width="1.0"/>
           <path id="arrow"
             d="M 11.500037,31.436501 C 11.940474,20.09759 22.043105,11.32322 32.158766,21.979434 L 37.068811,17.246167 C 37.068811,17.246167 37.088388,32 37.088388,32 L 22.160133,31.978069 C 22.160133,31.978069 26.997745,27.140456 26.997745,27.140456 C 18.528582,18.264221 13.291696,25.230495 11.500037,31.436501 z"
             style="fill:#404040;"/>
          </a>
         </g>
        </svg>
</svg>
