<?xml version="1.0" encoding="UTF-8" standalone="no"?>
<!DOCTYPE svg PUBLIC "-//W3C//DTD SVG 1.1//EN"
 "http://www.w3.org/Graphics/SVG/1.1/DTD/svg11.dtd">
<!-- Generated by graphviz version 2.47.3 (20210619.1520)
 -->
<!-- Title: PlayerStats.AddXP Pages: 1 -->
<svg width="431pt" height="142pt"
 viewBox="0.00 0.00 431.00 142.00" xmlns="http://www.w3.org/2000/svg" xmlns:xlink="http://www.w3.org/1999/xlink">
<g id="graph0" class="graph" transform="scale(1 1) rotate(0) translate(4 138)">
<title>PlayerStats.AddXP</title>
<!-- Node1 -->
<g id="node1" class="node">
<title>Node1</title>
<g id="a_node1"><a xlink:title="Add some XP amount.">
<polygon fill="#bfbfbf" stroke="black" points="323,-57.5 323,-76.5 423,-76.5 423,-57.5 323,-57.5"/>
<text text-anchor="middle" x="373" y="-64.5" font-family="Helvetica,sans-Serif" font-size="10.00">PlayerStats.AddXP</text>
</a>
</g>
</g>
<!-- Node2 -->
<g id="node2" class="node">
<title>Node2</title>
<g id="a_node2"><a xlink:href="class_mannequin_stats.html#a8bd8eed182eccafe2a9f3a2764e82dc3" target="_top" xlink:title="Function that implements what is done when this entity dies.">
<polygon fill="none" stroke="black" points="183,-114.5 183,-133.5 287,-133.5 287,-114.5 183,-114.5"/>
<text text-anchor="middle" x="235" y="-121.5" font-family="Helvetica,sans-Serif" font-size="10.00">MannequinStats.Die</text>
</a>
</g>
</g>
<!-- Node1&#45;&gt;Node2 -->
<g id="edge1" class="edge">
<title>Node1&#45;&gt;Node2</title>
<path fill="none" stroke="midnightblue" d="M342.06,-80.94C325.87,-88.34 305.46,-97.44 287,-105 279.13,-108.22 270.49,-111.53 262.59,-114.46"/>
<polygon fill="midnightblue" stroke="midnightblue" points="343.92,-83.94 351.55,-76.58 341,-77.58 343.92,-83.94"/>
</g>
<!-- Node3 -->
<g id="node3" class="node">
<title>Node3</title>
<g id="a_node3"><a xlink:href="class_minion_stats.html#a5366cb256edc6dc42f01c2907ee14e7a" target="_top" xlink:title="Function that implements what is done when this entity dies.">
<polygon fill="none" stroke="black" points="192,-76.5 192,-95.5 278,-95.5 278,-76.5 192,-76.5"/>
<text text-anchor="middle" x="235" y="-83.5" font-family="Helvetica,sans-Serif" font-size="10.00">MinionStats.Die</text>
</a>
</g>
</g>
<!-- Node1&#45;&gt;Node3 -->
<g id="edge2" class="edge">
<title>Node1&#45;&gt;Node3</title>
<path fill="none" stroke="midnightblue" d="M312.81,-75.27C301.19,-76.89 289.22,-78.57 278.29,-80.09"/>
<polygon fill="midnightblue" stroke="midnightblue" points="313.48,-78.71 322.9,-73.86 312.51,-71.78 313.48,-78.71"/>
</g>
<!-- Node5 -->
<g id="node5" class="node">
<title>Node5</title>
<g id="a_node5"><a xlink:href="class_turret_stats.html#afba2a2bb8d56fba966bb1c8ff069b63a" target="_top" xlink:title="Function that implements what is done when this entity dies.">
<polygon fill="none" stroke="black" points="194,-38.5 194,-57.5 276,-57.5 276,-38.5 194,-38.5"/>
<text text-anchor="middle" x="235" y="-45.5" font-family="Helvetica,sans-Serif" font-size="10.00">TurretStats.Die</text>
</a>
</g>
</g>
<!-- Node1&#45;&gt;Node5 -->
<g id="edge4" class="edge">
<title>Node1&#45;&gt;Node5</title>
<path fill="none" stroke="midnightblue" d="M312.65,-58.71C300.3,-56.98 287.55,-55.2 276.09,-53.6"/>
<polygon fill="midnightblue" stroke="midnightblue" points="312.51,-62.22 322.9,-60.14 313.48,-55.29 312.51,-62.22"/>
</g>
<!-- Node7 -->
<g id="node7" class="node">
<title>Node7</title>
<g id="a_node7"><a xlink:href="class_player_stats.html#a5caca2bd8f676341a2b269aea8a0f1ff" target="_top" xlink:title="Function that implements what is done when this entity dies.">
<polygon fill="none" stroke="black" points="192.5,-0.5 192.5,-19.5 277.5,-19.5 277.5,-0.5 192.5,-0.5"/>
<text text-anchor="middle" x="235" y="-7.5" font-family="Helvetica,sans-Serif" font-size="10.00">PlayerStats.Die</text>
</a>
</g>
</g>
<!-- Node1&#45;&gt;Node7 -->
<g id="edge6" class="edge">
<title>Node1&#45;&gt;Node7</title>
<path fill="none" stroke="midnightblue" d="M342.06,-53.06C325.87,-45.66 305.46,-36.56 287,-29 279.13,-25.78 270.49,-22.47 262.59,-19.54"/>
<polygon fill="midnightblue" stroke="midnightblue" points="341,-56.42 351.55,-57.42 343.92,-50.06 341,-56.42"/>
</g>
<!-- Node4 -->
<g id="node4" class="node">
<title>Node4</title>
<g id="a_node4"><a xlink:href="class_minion_stats.html#ad1a8cab09c44cd06629a2dbe924c83ff" target="_top" xlink:title=" ">
<polygon fill="none" stroke="black" points="0,-76.5 0,-95.5 147,-95.5 147,-76.5 0,-76.5"/>
<text text-anchor="middle" x="73.5" y="-83.5" font-family="Helvetica,sans-Serif" font-size="10.00">MinionStats.DealDamageRPC</text>
</a>
</g>
</g>
<!-- Node3&#45;&gt;Node4 -->
<g id="edge3" class="edge">
<title>Node3&#45;&gt;Node4</title>
<path fill="none" stroke="midnightblue" d="M181.45,-86C170.5,-86 158.78,-86 147.25,-86"/>
<polygon fill="midnightblue" stroke="midnightblue" points="181.68,-89.5 191.68,-86 181.68,-82.5 181.68,-89.5"/>
</g>
<!-- Node6 -->
<g id="node6" class="node">
<title>Node6</title>
<g id="a_node6"><a xlink:href="class_turret_stats.html#a503110135edcf63f735168caec63debd" target="_top" xlink:title=" ">
<polygon fill="none" stroke="black" points="2,-38.5 2,-57.5 145,-57.5 145,-38.5 2,-38.5"/>
<text text-anchor="middle" x="73.5" y="-45.5" font-family="Helvetica,sans-Serif" font-size="10.00">TurretStats.DealDamageRPC</text>
</a>
</g>
</g>
<!-- Node5&#45;&gt;Node6 -->
<g id="edge5" class="edge">
<title>Node5&#45;&gt;Node6</title>
<path fill="none" stroke="midnightblue" d="M183.75,-48C171.49,-48 158.16,-48 145.16,-48"/>
<polygon fill="midnightblue" stroke="midnightblue" points="183.75,-51.5 193.75,-48 183.75,-44.5 183.75,-51.5"/>
</g>
<!-- Node8 -->
<g id="node8" class="node">
<title>Node8</title>
<g id="a_node8"><a xlink:href="class_player_stats.html#a6542a649dfb0cccc9fe329c83024e3ed" target="_top" xlink:title=" ">
<polygon fill="none" stroke="black" points="0.5,-0.5 0.5,-19.5 146.5,-19.5 146.5,-0.5 0.5,-0.5"/>
<text text-anchor="middle" x="73.5" y="-7.5" font-family="Helvetica,sans-Serif" font-size="10.00">PlayerStats.DealDamageRPC</text>
</a>
</g>
</g>
<!-- Node7&#45;&gt;Node8 -->
<g id="edge7" class="edge">
<title>Node7&#45;&gt;Node8</title>
<path fill="none" stroke="midnightblue" d="M181.99,-10C170.7,-10 158.57,-10 146.66,-10"/>
<polygon fill="midnightblue" stroke="midnightblue" points="182.09,-13.5 192.09,-10 182.09,-6.5 182.09,-13.5"/>
</g>
</g>
</svg>
