<?xml version="1.0" encoding="UTF-8" standalone="no"?>
<!DOCTYPE svg PUBLIC "-//W3C//DTD SVG 1.1//EN"
 "http://www.w3.org/Graphics/SVG/1.1/DTD/svg11.dtd">
<!-- Generated by graphviz version 2.47.3 (20210619.1520)
 -->
<!-- Title: BasicAttack.StartBasicAttackRPC Pages: 1 -->
<svg width="460pt" height="39pt"
 viewBox="0.00 0.00 460.00 39.00" xmlns="http://www.w3.org/2000/svg" xmlns:xlink="http://www.w3.org/1999/xlink">
<g id="graph0" class="graph" transform="scale(1 1) rotate(0) translate(4 35)">
<title>BasicAttack.StartBasicAttackRPC</title>
<!-- Node1 -->
<g id="node1" class="node">
<title>Node1</title>
<g id="a_node1"><a xlink:title=" ">
<polygon fill="#bfbfbf" stroke="black" points="0,-6 0,-25 167,-25 167,-6 0,-6"/>
<text text-anchor="middle" x="83.5" y="-13" font-family="Helvetica,sans-Serif" font-size="10.00">BasicAttack.StartBasicAttackRPC</text>
</a>
</g>
</g>
<!-- Node2 -->
<g id="node2" class="node">
<title>Node2</title>
<g id="a_node2"><a xlink:href="class_target_attack_indicator.html#a9c5085eee4193a588f1673329c646e75" target="_top" xlink:title="Sets the current target to the indicator">
<polygon fill="none" stroke="black" points="203,-0.5 203,-30.5 330,-30.5 330,-0.5 203,-0.5"/>
<text text-anchor="start" x="211" y="-18.5" font-family="Helvetica,sans-Serif" font-size="10.00">TargetAttackIndicator.Set</text>
<text text-anchor="middle" x="266.5" y="-7.5" font-family="Helvetica,sans-Serif" font-size="10.00">Target</text>
</a>
</g>
</g>
<!-- Node1&#45;&gt;Node2 -->
<g id="edge1" class="edge">
<title>Node1&#45;&gt;Node2</title>
<path fill="none" stroke="midnightblue" d="M167.06,-15.5C175.61,-15.5 184.25,-15.5 192.68,-15.5"/>
<polygon fill="midnightblue" stroke="midnightblue" points="192.84,-19 202.84,-15.5 192.84,-12 192.84,-19"/>
</g>
<!-- Node3 -->
<g id="node3" class="node">
<title>Node3</title>
<g id="a_node3"><a xlink:href="class_stats.html#aad08d308b784a74c8a009ba48c0a237f" target="_top" xlink:title="Returns the range of the entity">
<polygon fill="none" stroke="black" points="366,-6 366,-25 452,-25 452,-6 366,-6"/>
<text text-anchor="middle" x="409" y="-13" font-family="Helvetica,sans-Serif" font-size="10.00">Stats.GetRange</text>
</a>
</g>
</g>
<!-- Node2&#45;&gt;Node3 -->
<g id="edge2" class="edge">
<title>Node2&#45;&gt;Node3</title>
<path fill="none" stroke="midnightblue" d="M330.35,-15.5C338.78,-15.5 347.35,-15.5 355.57,-15.5"/>
<polygon fill="midnightblue" stroke="midnightblue" points="355.76,-19 365.76,-15.5 355.76,-12 355.76,-19"/>
</g>
</g>
</svg>
