<?xml version="1.0" encoding="UTF-8" standalone="no"?>
<!DOCTYPE svg PUBLIC "-//W3C//DTD SVG 1.1//EN"
 "http://www.w3.org/Graphics/SVG/1.1/DTD/svg11.dtd">
<!-- Generated by graphviz version 2.47.3 (20210619.1520)
 -->
<!-- Title: Photon.Pun.Demo.Cockpit.PingProperty.Update Pages: 1 -->
<svg width="517pt" height="100pt"
 viewBox="0.00 0.00 517.00 99.50" xmlns="http://www.w3.org/2000/svg" xmlns:xlink="http://www.w3.org/1999/xlink">
<g id="graph0" class="graph" transform="scale(1 1) rotate(0) translate(4 95.5)">
<title>Photon.Pun.Demo.Cockpit.PingProperty.Update</title>
<polygon fill="white" stroke="transparent" points="-4,4 -4,-95.5 513,-95.5 513,4 -4,4"/>
<!-- Node1 -->
<g id="node1" class="node">
<title>Node1</title>
<g id="a_node1"><a xlink:title=" ">
<polygon fill="#bfbfbf" stroke="black" points="0,-33 0,-63 135,-63 135,-33 0,-33"/>
<text text-anchor="start" x="8" y="-51" font-family="Helvetica,sans-Serif" font-size="10.00">Photon.Pun.Demo.Cockpit.</text>
<text text-anchor="middle" x="67.5" y="-40" font-family="Helvetica,sans-Serif" font-size="10.00">PingProperty.Update</text>
</a>
</g>
</g>
<!-- Node2 -->
<g id="node2" class="node">
<title>Node2</title>
<g id="a_node2"><a xlink:href="class_photon_1_1_pun_1_1_photon_network.xhtml#ac8651f3c6c9b6527030eff1c15d2b796" target="_top" xlink:title="The current roundtrip time to the photon server.">
<polygon fill="white" stroke="black" points="176.5,-61 176.5,-91 316.5,-91 316.5,-61 176.5,-61"/>
<text text-anchor="start" x="184.5" y="-79" font-family="Helvetica,sans-Serif" font-size="10.00">Photon.Pun.PhotonNetwork.</text>
<text text-anchor="middle" x="246.5" y="-68" font-family="Helvetica,sans-Serif" font-size="10.00">GetPing</text>
</a>
</g>
</g>
<!-- Node1&#45;&gt;Node2 -->
<g id="edge1" class="edge">
<title>Node1&#45;&gt;Node2</title>
<path fill="none" stroke="midnightblue" d="M135.16,-58.55C145.34,-60.16 155.92,-61.83 166.33,-63.48"/>
<polygon fill="midnightblue" stroke="midnightblue" points="165.82,-66.94 176.24,-65.04 166.91,-60.02 165.82,-66.94"/>
</g>
<!-- Node3 -->
<g id="node3" class="node">
<title>Node3</title>
<g id="a_node3"><a xlink:href="class_photon_1_1_pun_1_1_demo_1_1_cockpit_1_1_property_listener_base.xhtml#a77b753e8476c33ddd6d8261e9a374943" target="_top" xlink:title=" ">
<polygon fill="white" stroke="black" points="171,-0.5 171,-41.5 322,-41.5 322,-0.5 171,-0.5"/>
<text text-anchor="start" x="179" y="-29.5" font-family="Helvetica,sans-Serif" font-size="10.00">Photon.Pun.Demo.Cockpit.</text>
<text text-anchor="start" x="179" y="-18.5" font-family="Helvetica,sans-Serif" font-size="10.00">PropertyListenerBase.OnValue</text>
<text text-anchor="middle" x="246.5" y="-7.5" font-family="Helvetica,sans-Serif" font-size="10.00">Changed</text>
</a>
</g>
</g>
<!-- Node1&#45;&gt;Node3 -->
<g id="edge2" class="edge">
<title>Node1&#45;&gt;Node3</title>
<path fill="none" stroke="midnightblue" d="M135.16,-37.83C143.55,-36.55 152.21,-35.23 160.82,-33.92"/>
<polygon fill="midnightblue" stroke="midnightblue" points="161.53,-37.35 170.89,-32.38 160.47,-30.43 161.53,-37.35"/>
</g>
<!-- Node4 -->
<g id="node4" class="node">
<title>Node4</title>
<g id="a_node4"><a xlink:href="class_photon_1_1_pun_1_1_demo_1_1_cockpit_1_1_property_listener_base.xhtml#aadf02605f64218d6283f2d602eb4c879" target="_top" xlink:title=" ">
<polygon fill="white" stroke="black" points="358,-6 358,-36 509,-36 509,-6 358,-6"/>
<text text-anchor="start" x="366" y="-24" font-family="Helvetica,sans-Serif" font-size="10.00">Photon.Pun.Demo.Cockpit.</text>
<text text-anchor="middle" x="433.5" y="-13" font-family="Helvetica,sans-Serif" font-size="10.00">PropertyListenerBase.FadeOut</text>
</a>
</g>
</g>
<!-- Node3&#45;&gt;Node4 -->
<g id="edge3" class="edge">
<title>Node3&#45;&gt;Node4</title>
<path fill="none" stroke="midnightblue" d="M322.21,-21C330.55,-21 339.1,-21 347.55,-21"/>
<polygon fill="midnightblue" stroke="midnightblue" points="347.81,-24.5 357.81,-21 347.81,-17.5 347.81,-24.5"/>
</g>
</g>
</svg>
