<?xml version="1.0" encoding="UTF-8" standalone="no"?>
<!DOCTYPE svg PUBLIC "-//W3C//DTD SVG 1.1//EN"
 "http://www.w3.org/Graphics/SVG/1.1/DTD/svg11.dtd">
<!-- Generated by graphviz version 2.49.1 (20210923.0004)
 -->
<!-- Title: Coin.OnTriggerEnter Pages: 1 -->
<svg width="419pt" height="39pt"
 viewBox="0.00 0.00 419.00 39.00" xmlns="http://www.w3.org/2000/svg" xmlns:xlink="http://www.w3.org/1999/xlink">
<g id="graph0" class="graph" transform="scale(1 1) rotate(0) translate(4 35)">
<title>Coin.OnTriggerEnter</title>
<!-- Node1 -->
<g id="node1" class="node">
<title>Node1</title>
<g id="a_node1"><a xlink:title=" ">
<polygon fill="#bfbfbf" stroke="black" points="0,-6 0,-25 104,-25 104,-6 0,-6"/>
<text text-anchor="middle" x="52" y="-13" font-family="Helvetica,sans-Serif" font-size="10.00">Coin.OnTriggerEnter</text>
</a>
</g>
</g>
<!-- Node2 -->
<g id="node2" class="node">
<title>Node2</title>
<g id="a_node2"><a xlink:href="class_inventory.html#a154fe342bac27ad9f38a79da5c770d39" target="_top" xlink:title=" ">
<polygon fill="none" stroke="black" points="140,-6 140,-25 235,-25 235,-6 140,-6"/>
<text text-anchor="middle" x="187.5" y="-13" font-family="Helvetica,sans-Serif" font-size="10.00">Inventory.AddGold</text>
</a>
</g>
</g>
<!-- Node1&#45;&gt;Node2 -->
<g id="edge1" class="edge">
<title>Node1&#45;&gt;Node2</title>
<path fill="none" stroke="midnightblue" d="M104.23,-15.5C112.6,-15.5 121.31,-15.5 129.79,-15.5"/>
<polygon fill="midnightblue" stroke="midnightblue" points="130,-19 140,-15.5 130,-12 130,-19"/>
</g>
<!-- Node3 -->
<g id="node3" class="node">
<title>Node3</title>
<g id="a_node3"><a xlink:href="class_player_h_u_d_controller.html#aeef77dcdfaf1c9b719e4350c17c88fa5" target="_top" xlink:title=" ">
<polygon fill="none" stroke="black" points="271,-0.5 271,-30.5 411,-30.5 411,-0.5 271,-0.5"/>
<text text-anchor="start" x="279" y="-18.5" font-family="Helvetica,sans-Serif" font-size="10.00">PlayerHUDController.Update</text>
<text text-anchor="middle" x="341" y="-7.5" font-family="Helvetica,sans-Serif" font-size="10.00">GoldTxt</text>
</a>
</g>
</g>
<!-- Node2&#45;&gt;Node3 -->
<g id="edge2" class="edge">
<title>Node2&#45;&gt;Node3</title>
<path fill="none" stroke="midnightblue" d="M235.19,-15.5C243.31,-15.5 251.96,-15.5 260.68,-15.5"/>
<polygon fill="midnightblue" stroke="midnightblue" points="260.91,-19 270.91,-15.5 260.91,-12 260.91,-19"/>
</g>
</g>
</svg>
