<?xml version="1.0" encoding="UTF-8" standalone="no"?>
<!DOCTYPE svg PUBLIC "-//W3C//DTD SVG 1.1//EN"
 "http://www.w3.org/Graphics/SVG/1.1/DTD/svg11.dtd">
<!-- Generated by graphviz version 2.47.3 (20210619.1520)
 -->
<!-- Title: MinionStats.GiveRewards Pages: 1 -->
<svg width="803pt" height="246pt"
 viewBox="0.00 0.00 803.00 246.00" xmlns="http://www.w3.org/2000/svg" xmlns:xlink="http://www.w3.org/1999/xlink">
<g id="graph0" class="graph" transform="scale(1 1) rotate(0) translate(4 242)">
<title>MinionStats.GiveRewards</title>
<!-- Node1 -->
<g id="node1" class="node">
<title>Node1</title>
<g id="a_node1"><a xlink:title="When this entity dies, it gives to the killer this bounty">
<polygon fill="#bfbfbf" stroke="black" points="0,-142.5 0,-161.5 128,-161.5 128,-142.5 0,-142.5"/>
<text text-anchor="middle" x="64" y="-149.5" font-family="Helvetica,sans-Serif" font-size="10.00">MinionStats.GiveRewards</text>
</a>
</g>
</g>
<!-- Node2 -->
<g id="node2" class="node">
<title>Node2</title>
<g id="a_node2"><a xlink:href="class_game_controller.html#a708420d4559f1a7ad5d1a50d6b3df9bf" target="_top" xlink:title="One of the players killed a minion.">
<polygon fill="none" stroke="black" points="164,-218.5 164,-237.5 297,-237.5 297,-218.5 164,-218.5"/>
<text text-anchor="middle" x="230.5" y="-225.5" font-family="Helvetica,sans-Serif" font-size="10.00">GameController.AddMinion</text>
</a>
</g>
</g>
<!-- Node1&#45;&gt;Node2 -->
<g id="edge1" class="edge">
<title>Node1&#45;&gt;Node2</title>
<path fill="none" stroke="midnightblue" d="M79.19,-161.64C97.92,-174.01 132.25,-195.49 164,-209 169.44,-211.32 175.26,-213.45 181.09,-215.39"/>
<polygon fill="midnightblue" stroke="midnightblue" points="180.27,-218.8 190.86,-218.46 182.37,-212.12 180.27,-218.8"/>
</g>
<!-- Node4 -->
<g id="node4" class="node">
<title>Node4</title>
<g id="a_node4"><a xlink:href="class_player_stats.html#a2515cde362ce22291cde0073d23e2d9c" target="_top" xlink:title="Add some XP amount.">
<polygon fill="none" stroke="black" points="180.5,-180.5 180.5,-199.5 280.5,-199.5 280.5,-180.5 180.5,-180.5"/>
<text text-anchor="middle" x="230.5" y="-187.5" font-family="Helvetica,sans-Serif" font-size="10.00">PlayerStats.AddXP</text>
</a>
</g>
</g>
<!-- Node1&#45;&gt;Node4 -->
<g id="edge3" class="edge">
<title>Node1&#45;&gt;Node4</title>
<path fill="none" stroke="midnightblue" d="M106.51,-161.59C128.32,-166.63 155.23,-172.84 178.32,-178.18"/>
<polygon fill="midnightblue" stroke="midnightblue" points="177.76,-181.64 188.29,-180.48 179.33,-174.82 177.76,-181.64"/>
</g>
<!-- Node5 -->
<g id="node5" class="node">
<title>Node5</title>
<g id="a_node5"><a xlink:href="class_game_controller.html#a3284abf9985021d4e4936f90d858a7dd" target="_top" xlink:title="Get a player GameObject by name.">
<polygon fill="none" stroke="black" points="165,-142.5 165,-161.5 296,-161.5 296,-142.5 165,-142.5"/>
<text text-anchor="middle" x="230.5" y="-149.5" font-family="Helvetica,sans-Serif" font-size="10.00">GameController.GetPlayer</text>
</a>
</g>
</g>
<!-- Node1&#45;&gt;Node5 -->
<g id="edge4" class="edge">
<title>Node1&#45;&gt;Node5</title>
<path fill="none" stroke="midnightblue" d="M128.13,-152C136.88,-152 145.95,-152 154.89,-152"/>
<polygon fill="midnightblue" stroke="midnightblue" points="154.91,-155.5 164.91,-152 154.91,-148.5 154.91,-155.5"/>
</g>
<!-- Node6 -->
<g id="node6" class="node">
<title>Node6</title>
<g id="a_node6"><a xlink:href="class_game_controller.html#a7e7ba340d852830acb4d6f1f172c248c" target="_top" xlink:title="Get the current time in seconds from the start of the game">
<polygon fill="none" stroke="black" points="168.5,-104.5 168.5,-123.5 292.5,-123.5 292.5,-104.5 168.5,-104.5"/>
<text text-anchor="middle" x="230.5" y="-111.5" font-family="Helvetica,sans-Serif" font-size="10.00">GameController.GetTime</text>
</a>
</g>
</g>
<!-- Node1&#45;&gt;Node6 -->
<g id="edge5" class="edge">
<title>Node1&#45;&gt;Node6</title>
<path fill="none" stroke="midnightblue" d="M106.51,-142.41C128.32,-137.37 155.23,-131.16 178.32,-125.82"/>
<polygon fill="midnightblue" stroke="midnightblue" points="179.33,-129.18 188.29,-123.52 177.76,-122.36 179.33,-129.18"/>
</g>
<!-- Node7 -->
<g id="node7" class="node">
<title>Node7</title>
<g id="a_node7"><a xlink:href="class_minion_stats.html#aa5a0ca66d4dd72c3e70c7ae9ee8e6cb8" target="_top" xlink:title=" ">
<polygon fill="none" stroke="black" points="177,-66.5 177,-85.5 284,-85.5 284,-66.5 177,-66.5"/>
<text text-anchor="middle" x="230.5" y="-73.5" font-family="Helvetica,sans-Serif" font-size="10.00">MinionStats.Initialize</text>
</a>
</g>
</g>
<!-- Node1&#45;&gt;Node7 -->
<g id="edge6" class="edge">
<title>Node1&#45;&gt;Node7</title>
<path fill="none" stroke="midnightblue" d="M79.19,-142.36C97.92,-129.99 132.25,-108.51 164,-95 169.44,-92.68 175.26,-90.55 181.09,-88.61"/>
<polygon fill="midnightblue" stroke="midnightblue" points="182.37,-91.88 190.86,-85.54 180.27,-85.2 182.37,-91.88"/>
</g>
<!-- Node3 -->
<g id="node3" class="node">
<title>Node3</title>
<g id="a_node3"><a xlink:href="class_game_u_i_controller.html#ac6d98f05e3ed3d39178b42d85149db5d" target="_top" xlink:title=" ">
<polygon fill="none" stroke="black" points="333,-218.5 333,-237.5 494,-237.5 494,-218.5 333,-218.5"/>
<text text-anchor="middle" x="413.5" y="-225.5" font-family="Helvetica,sans-Serif" font-size="10.00">GameUIController.UpdateMinions</text>
</a>
</g>
</g>
<!-- Node2&#45;&gt;Node3 -->
<g id="edge2" class="edge">
<title>Node2&#45;&gt;Node3</title>
<path fill="none" stroke="midnightblue" d="M297.1,-228C305.46,-228 314.13,-228 322.79,-228"/>
<polygon fill="midnightblue" stroke="midnightblue" points="322.94,-231.5 332.94,-228 322.94,-224.5 322.94,-231.5"/>
</g>
<!-- Node8 -->
<g id="node8" class="node">
<title>Node8</title>
<g id="a_node8"><a xlink:href="class_minion_u_i_controller.html#ab78a1deb8df96e5afb81f12b3732b5f0" target="_top" xlink:title=" ">
<polygon fill="none" stroke="black" points="348,-104.5 348,-123.5 479,-123.5 479,-104.5 348,-104.5"/>
<text text-anchor="middle" x="413.5" y="-111.5" font-family="Helvetica,sans-Serif" font-size="10.00">MinionUIController.Initalize</text>
</a>
</g>
</g>
<!-- Node7&#45;&gt;Node8 -->
<g id="edge7" class="edge">
<title>Node7&#45;&gt;Node8</title>
<path fill="none" stroke="midnightblue" d="M277.17,-85.59C301.49,-90.69 331.58,-97.01 357.21,-102.39"/>
<polygon fill="midnightblue" stroke="midnightblue" points="356.65,-105.85 367.15,-104.48 358.09,-99 356.65,-105.85"/>
</g>
<!-- Node9 -->
<g id="node9" class="node">
<title>Node9</title>
<g id="a_node9"><a xlink:href="class_minion_a_i.html#a174b746b62e9b80b1e59edbbd8a309ff" target="_top" xlink:title=" ">
<polygon fill="none" stroke="black" points="367.5,-66.5 367.5,-85.5 459.5,-85.5 459.5,-66.5 367.5,-66.5"/>
<text text-anchor="middle" x="413.5" y="-73.5" font-family="Helvetica,sans-Serif" font-size="10.00">MinionAI.Initialize</text>
</a>
</g>
</g>
<!-- Node7&#45;&gt;Node9 -->
<g id="edge8" class="edge">
<title>Node7&#45;&gt;Node9</title>
<path fill="none" stroke="midnightblue" d="M284.34,-76C307.24,-76 334.07,-76 357.24,-76"/>
<polygon fill="midnightblue" stroke="midnightblue" points="357.26,-79.5 367.26,-76 357.26,-72.5 357.26,-79.5"/>
</g>
<!-- Node13 -->
<g id="node13" class="node">
<title>Node13</title>
<g id="a_node13"><a xlink:href="class_u_i_controller.html#a5f4c8564677f50adca215a4c91020c5c" target="_top" xlink:title=" ">
<polygon fill="none" stroke="black" points="347,-19.5 347,-38.5 480,-38.5 480,-19.5 347,-19.5"/>
<text text-anchor="middle" x="413.5" y="-26.5" font-family="Helvetica,sans-Serif" font-size="10.00">UIController.InitializeColors</text>
</a>
</g>
</g>
<!-- Node7&#45;&gt;Node13 -->
<g id="edge12" class="edge">
<title>Node7&#45;&gt;Node13</title>
<path fill="none" stroke="midnightblue" d="M268.13,-66.49C296.25,-59.19 335.28,-49.05 365.67,-41.16"/>
<polygon fill="midnightblue" stroke="midnightblue" points="366.82,-44.48 375.62,-38.58 365.06,-37.7 366.82,-44.48"/>
</g>
<!-- Node10 -->
<g id="node10" class="node">
<title>Node10</title>
<g id="a_node10"><a xlink:href="class_utils.html#a6ac07f202eb5cc4bf2322b73d1196f90" target="_top" xlink:title="Returns the enemy Team of the passed one.">
<polygon fill="none" stroke="black" points="534.5,-114.5 534.5,-133.5 644.5,-133.5 644.5,-114.5 534.5,-114.5"/>
<text text-anchor="middle" x="589.5" y="-121.5" font-family="Helvetica,sans-Serif" font-size="10.00">Utils.GetEnemyTeam</text>
</a>
</g>
</g>
<!-- Node9&#45;&gt;Node10 -->
<g id="edge9" class="edge">
<title>Node9&#45;&gt;Node10</title>
<path fill="none" stroke="midnightblue" d="M456.71,-85.56C468.79,-88.44 481.95,-91.72 494,-95 512.27,-99.98 532.35,-106.06 549.28,-111.36"/>
<polygon fill="midnightblue" stroke="midnightblue" points="548.26,-114.7 558.85,-114.37 550.36,-108.03 548.26,-114.7"/>
</g>
<!-- Node11 -->
<g id="node11" class="node">
<title>Node11</title>
<g id="a_node11"><a xlink:href="class_minion_a_i.html#ac52b368d1ec72545ac0c0a4708c1c155" target="_top" xlink:title=" ">
<polygon fill="none" stroke="black" points="539.5,-76.5 539.5,-95.5 639.5,-95.5 639.5,-76.5 539.5,-76.5"/>
<text text-anchor="middle" x="589.5" y="-83.5" font-family="Helvetica,sans-Serif" font-size="10.00">MinionAI.SetRange</text>
</a>
</g>
</g>
<!-- Node9&#45;&gt;Node11 -->
<g id="edge10" class="edge">
<title>Node9&#45;&gt;Node11</title>
<path fill="none" stroke="midnightblue" d="M459.76,-78.6C480.98,-79.82 506.54,-81.29 529.27,-82.6"/>
<polygon fill="midnightblue" stroke="midnightblue" points="529.31,-86.1 539.49,-83.18 529.71,-79.12 529.31,-86.1"/>
</g>
<!-- Node12 -->
<g id="node12" class="node">
<title>Node12</title>
<g id="a_node12"><a xlink:href="class_minion_a_i.html#a84c1cea7268781a3cafec4135d94df5c" target="_top" xlink:title=" ">
<polygon fill="none" stroke="black" points="539.5,-38.5 539.5,-57.5 639.5,-57.5 639.5,-38.5 539.5,-38.5"/>
<text text-anchor="middle" x="589.5" y="-45.5" font-family="Helvetica,sans-Serif" font-size="10.00">MinionAI.SetSpeed</text>
</a>
</g>
</g>
<!-- Node9&#45;&gt;Node12 -->
<g id="edge11" class="edge">
<title>Node9&#45;&gt;Node12</title>
<path fill="none" stroke="midnightblue" d="M459.76,-68.72C481.08,-65.29 506.77,-61.15 529.58,-57.48"/>
<polygon fill="midnightblue" stroke="midnightblue" points="530.18,-60.93 539.49,-55.89 529.07,-54.02 530.18,-60.93"/>
</g>
<!-- Node14 -->
<g id="node14" class="node">
<title>Node14</title>
<g id="a_node14"><a xlink:href="class_u_i_controller.html#a25efcf4c19f58682359f159ebe68cd61" target="_top" xlink:title=" ">
<polygon fill="none" stroke="black" points="530,-0.5 530,-19.5 649,-19.5 649,-0.5 530,-0.5"/>
<text text-anchor="middle" x="589.5" y="-7.5" font-family="Helvetica,sans-Serif" font-size="10.00">UIController.LoadColors</text>
</a>
</g>
</g>
<!-- Node13&#45;&gt;Node14 -->
<g id="edge13" class="edge">
<title>Node13&#45;&gt;Node14</title>
<path fill="none" stroke="midnightblue" d="M480.28,-21.82C493.12,-20.42 506.6,-18.94 519.54,-17.53"/>
<polygon fill="midnightblue" stroke="midnightblue" points="520.21,-20.98 529.77,-16.41 519.45,-14.02 520.21,-20.98"/>
</g>
<!-- Node15 -->
<g id="node15" class="node">
<title>Node15</title>
<g id="a_node15"><a xlink:href="class_utils.html#ab9e5182f0bed89c77ffe578768c9c8c2" target="_top" xlink:title="Pass a hex string and you get the Color.">
<polygon fill="none" stroke="black" points="685,-0.5 685,-19.5 795,-19.5 795,-0.5 685,-0.5"/>
<text text-anchor="middle" x="740" y="-7.5" font-family="Helvetica,sans-Serif" font-size="10.00">Utils.ColorFromString</text>
</a>
</g>
</g>
<!-- Node14&#45;&gt;Node15 -->
<g id="edge14" class="edge">
<title>Node14&#45;&gt;Node15</title>
<path fill="none" stroke="midnightblue" d="M649.19,-10C657.49,-10 666.06,-10 674.46,-10"/>
<polygon fill="midnightblue" stroke="midnightblue" points="674.6,-13.5 684.6,-10 674.6,-6.5 674.6,-13.5"/>
</g>
</g>
</svg>
