<?xml version="1.0" encoding="UTF-8" standalone="no"?>
<!DOCTYPE svg PUBLIC "-//W3C//DTD SVG 1.1//EN"
 "http://www.w3.org/Graphics/SVG/1.1/DTD/svg11.dtd">
<!-- Generated by graphviz version 2.47.3 (20210619.1520)
 -->
<!-- Title: DoxygenWindow.RunDoxygen Pages: 1 -->
<svg width="759pt" height="185pt"
 viewBox="0.00 0.00 759.00 184.50" xmlns="http://www.w3.org/2000/svg" xmlns:xlink="http://www.w3.org/1999/xlink">
<g id="graph0" class="graph" transform="scale(1 1) rotate(0) translate(4 180.5)">
<title>DoxygenWindow.RunDoxygen</title>
<polygon fill="white" stroke="transparent" points="-4,4 -4,-180.5 755,-180.5 755,4 -4,4"/>
<!-- Node1 -->
<g id="node1" class="node">
<title>Node1</title>
<g id="a_node1"><a xlink:title=" ">
<polygon fill="#bfbfbf" stroke="black" points="0,-72 0,-91 148,-91 148,-72 0,-72"/>
<text text-anchor="middle" x="74" y="-79" font-family="Helvetica,sans-Serif" font-size="10.00">DoxygenWindow.RunDoxygen</text>
</a>
</g>
</g>
<!-- Node2 -->
<g id="node2" class="node">
<title>Node2</title>
<g id="a_node2"><a xlink:href="class_doxygen_window.xhtml#a2809a93b756a6cfc371ee76a9d7168d7" target="_top" xlink:title=" ">
<polygon fill="white" stroke="black" points="184,-110 184,-129 364,-129 364,-110 184,-110"/>
<text text-anchor="middle" x="274" y="-117" font-family="Helvetica,sans-Serif" font-size="10.00">DoxygenWindow.OnDoxygenFinished</text>
</a>
</g>
</g>
<!-- Node1&#45;&gt;Node2 -->
<g id="edge1" class="edge">
<title>Node1&#45;&gt;Node2</title>
<path fill="none" stroke="midnightblue" d="M124.71,-91.04C151.54,-96.19 184.86,-102.58 213.11,-108.01"/>
<polygon fill="midnightblue" stroke="midnightblue" points="212.79,-111.51 223.27,-109.96 214.11,-104.63 212.79,-111.51"/>
</g>
<!-- Node3 -->
<g id="node3" class="node">
<title>Node3</title>
<g id="a_node3"><a xlink:href="class_doxy_runner.xhtml#a0a838402bf7b6661d4a1959c1b57aeb6" target="_top" xlink:title=" ">
<polygon fill="white" stroke="black" points="198,-72 198,-91 350,-91 350,-72 198,-72"/>
<text text-anchor="middle" x="274" y="-79" font-family="Helvetica,sans-Serif" font-size="10.00">DoxyRunner.RunThreadedDoxy</text>
</a>
</g>
</g>
<!-- Node1&#45;&gt;Node3 -->
<g id="edge2" class="edge">
<title>Node1&#45;&gt;Node3</title>
<path fill="none" stroke="midnightblue" d="M148.17,-81.5C161.07,-81.5 174.6,-81.5 187.8,-81.5"/>
<polygon fill="midnightblue" stroke="midnightblue" points="187.82,-85 197.82,-81.5 187.82,-78 187.82,-85"/>
</g>
<!-- Node11 -->
<g id="node11" class="node">
<title>Node11</title>
<g id="a_node11"><a xlink:href="class_doxy_thread_safe_output.xhtml#ad08186c77f145bc3cb1ddb50259ef589" target="_top" xlink:title=" ">
<polygon fill="white" stroke="black" points="206.5,-22.5 206.5,-52.5 341.5,-52.5 341.5,-22.5 206.5,-22.5"/>
<text text-anchor="start" x="214.5" y="-40.5" font-family="Helvetica,sans-Serif" font-size="10.00">DoxyThreadSafeOutput.Set</text>
<text text-anchor="middle" x="274" y="-29.5" font-family="Helvetica,sans-Serif" font-size="10.00">Started</text>
</a>
</g>
</g>
<!-- Node1&#45;&gt;Node11 -->
<g id="edge10" class="edge">
<title>Node1&#45;&gt;Node11</title>
<path fill="none" stroke="midnightblue" d="M117.96,-71.95C140.86,-66.87 169.71,-60.45 196.3,-54.54"/>
<polygon fill="midnightblue" stroke="midnightblue" points="197.36,-57.89 206.37,-52.31 195.84,-51.06 197.36,-57.89"/>
</g>
<!-- Node4 -->
<g id="node4" class="node">
<title>Node4</title>
<g id="a_node4"><a xlink:href="class_doxy_runner.xhtml#a7458975df0c43d397051f225d6def184" target="_top" xlink:title="Runs the specified executable with the provided arguments and returns the process&#39; exit code.">
<polygon fill="white" stroke="black" points="432,-138 432,-157 522,-157 522,-138 432,-138"/>
<text text-anchor="middle" x="477" y="-145" font-family="Helvetica,sans-Serif" font-size="10.00">DoxyRunner.Run</text>
</a>
</g>
</g>
<!-- Node3&#45;&gt;Node4 -->
<g id="edge3" class="edge">
<title>Node3&#45;&gt;Node4</title>
<path fill="none" stroke="midnightblue" d="M337.46,-91.08C346.58,-93.54 355.69,-96.63 364,-100.5 382.38,-109.05 381.77,-119.63 400,-128.5 406.96,-131.89 414.59,-134.71 422.24,-137.05"/>
<polygon fill="midnightblue" stroke="midnightblue" points="421.32,-140.43 431.9,-139.76 423.22,-133.69 421.32,-140.43"/>
</g>
<!-- Node7 -->
<g id="node7" class="node">
<title>Node7</title>
<g id="a_node7"><a xlink:href="class_doxy_thread_safe_output.xhtml#a97e2149569e2bb5e749851daa2781423" target="_top" xlink:title=" ">
<polygon fill="white" stroke="black" points="409.5,-88.5 409.5,-118.5 544.5,-118.5 544.5,-88.5 409.5,-88.5"/>
<text text-anchor="start" x="417.5" y="-106.5" font-family="Helvetica,sans-Serif" font-size="10.00">DoxyThreadSafeOutput.Set</text>
<text text-anchor="middle" x="477" y="-95.5" font-family="Helvetica,sans-Serif" font-size="10.00">Finished</text>
</a>
</g>
</g>
<!-- Node3&#45;&gt;Node7 -->
<g id="edge6" class="edge">
<title>Node3&#45;&gt;Node7</title>
<path fill="none" stroke="midnightblue" d="M350.13,-89.72C366.05,-91.47 382.87,-93.31 398.86,-95.06"/>
<polygon fill="midnightblue" stroke="midnightblue" points="398.91,-98.58 409.23,-96.19 399.67,-91.62 398.91,-98.58"/>
</g>
<!-- Node8 -->
<g id="node8" class="node">
<title>Node8</title>
<g id="a_node8"><a xlink:href="class_doxy_runner.xhtml#a4474ed980f895f97ac3517fe85834259" target="_top" xlink:title=" ">
<polygon fill="white" stroke="black" points="400,-50 400,-69 554,-69 554,-50 400,-50"/>
<text text-anchor="middle" x="477" y="-57" font-family="Helvetica,sans-Serif" font-size="10.00">DoxyRunner.updateOuputString</text>
</a>
</g>
</g>
<!-- Node3&#45;&gt;Node8 -->
<g id="edge7" class="edge">
<title>Node3&#45;&gt;Node8</title>
<path fill="none" stroke="midnightblue" d="M350.13,-73.28C363.1,-71.86 376.68,-70.37 389.92,-68.92"/>
<polygon fill="midnightblue" stroke="midnightblue" points="390.4,-72.39 399.96,-67.82 389.63,-65.43 390.4,-72.39"/>
</g>
<!-- Node10 -->
<g id="node10" class="node">
<title>Node10</title>
<g id="a_node10"><a xlink:href="class_doxy_thread_safe_output.xhtml#aa831eccd758e59c835fd3486c39a4a8c" target="_top" xlink:title=" ">
<polygon fill="white" stroke="black" points="405.5,-0.5 405.5,-30.5 548.5,-30.5 548.5,-0.5 405.5,-0.5"/>
<text text-anchor="start" x="413.5" y="-18.5" font-family="Helvetica,sans-Serif" font-size="10.00">DoxyThreadSafeOutput.Write</text>
<text text-anchor="middle" x="477" y="-7.5" font-family="Helvetica,sans-Serif" font-size="10.00">FullLog</text>
</a>
</g>
</g>
<!-- Node3&#45;&gt;Node10 -->
<g id="edge9" class="edge">
<title>Node3&#45;&gt;Node10</title>
<path fill="none" stroke="midnightblue" d="M333.77,-71.91C344.03,-69.4 354.46,-66.3 364,-62.5 381.42,-55.55 382.98,-48.37 400,-40.5 404.89,-38.24 410.03,-36.09 415.25,-34.07"/>
<polygon fill="midnightblue" stroke="midnightblue" points="416.52,-37.34 424.68,-30.58 414.09,-30.77 416.52,-37.34"/>
</g>
<!-- Node5 -->
<g id="node5" class="node">
<title>Node5</title>
<g id="a_node5"><a xlink:href="class_doxy_runner.xhtml#a9e1ad0bb37f42899aeac2e2fb59cb769" target="_top" xlink:title="Quotes all arguments that contain whitespace, or begin with a quote and returns a single argument str...">
<polygon fill="white" stroke="black" points="594,-157 594,-176 747,-176 747,-157 594,-157"/>
<text text-anchor="middle" x="670.5" y="-164" font-family="Helvetica,sans-Serif" font-size="10.00">DoxyRunner.EscapeArguments</text>
</a>
</g>
</g>
<!-- Node4&#45;&gt;Node5 -->
<g id="edge4" class="edge">
<title>Node4&#45;&gt;Node5</title>
<path fill="none" stroke="midnightblue" d="M522.42,-151.91C540.73,-153.72 562.6,-155.89 583.81,-158"/>
<polygon fill="midnightblue" stroke="midnightblue" points="583.52,-161.49 593.81,-158.99 584.21,-154.52 583.52,-161.49"/>
</g>
<!-- Node6 -->
<g id="node6" class="node">
<title>Node6</title>
<g id="a_node6"><a xlink:href="class_doxy_runner.xhtml#a0923bf6769c3b99b4fb8e9ce67877a94" target="_top" xlink:title="Expands environment variables and, if unqualified, locates the exe in the working directory or the ev...">
<polygon fill="white" stroke="black" points="606,-119 606,-138 735,-138 735,-119 606,-119"/>
<text text-anchor="middle" x="670.5" y="-126" font-family="Helvetica,sans-Serif" font-size="10.00">DoxyRunner.FindExePath</text>
</a>
</g>
</g>
<!-- Node4&#45;&gt;Node6 -->
<g id="edge5" class="edge">
<title>Node4&#45;&gt;Node6</title>
<path fill="none" stroke="midnightblue" d="M522.42,-143.09C544.17,-140.94 570.94,-138.28 595.65,-135.83"/>
<polygon fill="midnightblue" stroke="midnightblue" points="596.13,-139.3 605.73,-134.83 595.44,-132.33 596.13,-139.3"/>
</g>
<!-- Node9 -->
<g id="node9" class="node">
<title>Node9</title>
<g id="a_node9"><a xlink:href="class_doxy_thread_safe_output.xhtml#ab2083e9efa17a35c72d3c2c784ef6800" target="_top" xlink:title=" ">
<polygon fill="white" stroke="black" points="590,-50 590,-69 751,-69 751,-50 590,-50"/>
<text text-anchor="middle" x="670.5" y="-57" font-family="Helvetica,sans-Serif" font-size="10.00">DoxyThreadSafeOutput.WriteLine</text>
</a>
</g>
</g>
<!-- Node8&#45;&gt;Node9 -->
<g id="edge8" class="edge">
<title>Node8&#45;&gt;Node9</title>
<path fill="none" stroke="midnightblue" d="M554.24,-59.5C562.54,-59.5 571.05,-59.5 579.5,-59.5"/>
<polygon fill="midnightblue" stroke="midnightblue" points="579.76,-63 589.76,-59.5 579.76,-56 579.76,-63"/>
</g>
</g>
</svg>
