<?xml version="1.0" encoding="UTF-8" standalone="no"?>
<!DOCTYPE svg PUBLIC "-//W3C//DTD SVG 1.1//EN"
 "http://www.w3.org/Graphics/SVG/1.1/DTD/svg11.dtd">
<!-- Generated by graphviz version 2.47.3 (20210619.1520)
 -->
<!-- Title: Photon.Pun.UtilityScripts.OnClickInstantiate.OnPointerClick Pages: 1 -->
<svg width="524pt" height="88pt"
 viewBox="0.00 0.00 524.00 88.00" xmlns="http://www.w3.org/2000/svg" xmlns:xlink="http://www.w3.org/1999/xlink">
<g id="graph0" class="graph" transform="scale(1 1) rotate(0) translate(4 84)">
<title>Photon.Pun.UtilityScripts.OnClickInstantiate.OnPointerClick</title>
<polygon fill="white" stroke="transparent" points="-4,4 -4,-84 520,-84 520,4 -4,4"/>
<!-- Node1 -->
<g id="node1" class="node">
<title>Node1</title>
<g id="a_node1"><a xlink:title=" ">
<polygon fill="#bfbfbf" stroke="black" points="0,-24.5 0,-54.5 164,-54.5 164,-24.5 0,-24.5"/>
<text text-anchor="start" x="8" y="-42.5" font-family="Helvetica,sans-Serif" font-size="10.00">Photon.Pun.UtilityScripts.</text>
<text text-anchor="middle" x="82" y="-31.5" font-family="Helvetica,sans-Serif" font-size="10.00">OnClickInstantiate.OnPointerClick</text>
</a>
</g>
</g>
<!-- Node2 -->
<g id="node2" class="node">
<title>Node2</title>
<g id="a_node2"><a xlink:href="class_photon_1_1_pun_1_1_photon_network.xhtml#a3c3998fe3bc09a7de8d09378d7a3e2d0" target="_top" xlink:title=" ">
<polygon fill="white" stroke="black" points="200,-49.5 200,-79.5 340,-79.5 340,-49.5 200,-49.5"/>
<text text-anchor="start" x="208" y="-67.5" font-family="Helvetica,sans-Serif" font-size="10.00">Photon.Pun.PhotonNetwork.</text>
<text text-anchor="middle" x="270" y="-56.5" font-family="Helvetica,sans-Serif" font-size="10.00">Instantiate</text>
</a>
</g>
</g>
<!-- Node1&#45;&gt;Node2 -->
<g id="edge1" class="edge">
<title>Node1&#45;&gt;Node2</title>
<path fill="none" stroke="midnightblue" d="M164.04,-50.39C172.63,-51.55 181.35,-52.72 189.91,-53.87"/>
<polygon fill="midnightblue" stroke="midnightblue" points="189.49,-57.34 199.87,-55.21 190.42,-50.41 189.49,-57.34"/>
</g>
<!-- Node4 -->
<g id="node4" class="node">
<title>Node4</title>
<g id="a_node4"><a xlink:href="class_photon_1_1_pun_1_1_photon_network.xhtml#a7e68c3cae2b1b2b7495b545b246192c2" target="_top" xlink:title=" ">
<polygon fill="white" stroke="black" points="200,-0.5 200,-30.5 340,-30.5 340,-0.5 200,-0.5"/>
<text text-anchor="start" x="208" y="-18.5" font-family="Helvetica,sans-Serif" font-size="10.00">Photon.Pun.PhotonNetwork.</text>
<text text-anchor="middle" x="270" y="-7.5" font-family="Helvetica,sans-Serif" font-size="10.00">InstantiateRoomObject</text>
</a>
</g>
</g>
<!-- Node1&#45;&gt;Node4 -->
<g id="edge3" class="edge">
<title>Node1&#45;&gt;Node4</title>
<path fill="none" stroke="midnightblue" d="M164.04,-29.04C172.63,-27.94 181.35,-26.81 189.91,-25.71"/>
<polygon fill="midnightblue" stroke="midnightblue" points="190.4,-29.17 199.87,-24.42 189.5,-22.23 190.4,-29.17"/>
</g>
<!-- Node3 -->
<g id="node3" class="node">
<title>Node3</title>
<g id="a_node3"><a xlink:href="class_photon_1_1_pun_1_1_photon_network.xhtml#ab20d21ae87fdbe5db26810e506089158" target="_top" xlink:title=" ">
<polygon fill="white" stroke="black" points="376,-24.5 376,-54.5 516,-54.5 516,-24.5 376,-24.5"/>
<text text-anchor="start" x="384" y="-42.5" font-family="Helvetica,sans-Serif" font-size="10.00">Photon.Pun.PhotonNetwork.</text>
<text text-anchor="middle" x="446" y="-31.5" font-family="Helvetica,sans-Serif" font-size="10.00">NetworkInstantiate</text>
</a>
</g>
</g>
<!-- Node2&#45;&gt;Node3 -->
<g id="edge2" class="edge">
<title>Node2&#45;&gt;Node3</title>
<path fill="none" stroke="midnightblue" d="M340.02,-54.58C348.48,-53.37 357.17,-52.12 365.76,-50.88"/>
<polygon fill="midnightblue" stroke="midnightblue" points="366.38,-54.33 375.78,-49.45 365.38,-47.4 366.38,-54.33"/>
</g>
<!-- Node4&#45;&gt;Node3 -->
<g id="edge4" class="edge">
<title>Node4&#45;&gt;Node3</title>
<path fill="none" stroke="midnightblue" d="M340.02,-25.02C348.48,-26.19 357.17,-27.39 365.76,-28.57"/>
<polygon fill="midnightblue" stroke="midnightblue" points="365.4,-32.05 375.78,-29.95 366.35,-25.12 365.4,-32.05"/>
</g>
</g>
</svg>
