<?xml version="1.0" encoding="UTF-8" standalone="no"?>
<!DOCTYPE svg PUBLIC "-//W3C//DTD SVG 1.1//EN"
 "http://www.w3.org/Graphics/SVG/1.1/DTD/svg11.dtd">
<!-- Generated by graphviz version 2.47.3 (20210619.1520)
 -->
<!-- Title: Tayx.Graphy.GraphyDebugger.CheckDebugPackets Pages: 1 -->
<svg width="586pt" height="137pt"
 viewBox="0.00 0.00 586.00 137.00" xmlns="http://www.w3.org/2000/svg" xmlns:xlink="http://www.w3.org/1999/xlink">
<g id="graph0" class="graph" transform="scale(1 1) rotate(0) translate(4 133)">
<title>Tayx.Graphy.GraphyDebugger.CheckDebugPackets</title>
<polygon fill="white" stroke="transparent" points="-4,4 -4,-133 582,-133 582,4 -4,4"/>
<!-- Node1 -->
<g id="node1" class="node">
<title>Node1</title>
<g id="a_node1"><a xlink:title="Checks all the Debug Packets to see if they have to be executed.">
<polygon fill="#bfbfbf" stroke="black" points="0,-49.5 0,-79.5 151,-79.5 151,-49.5 0,-49.5"/>
<text text-anchor="start" x="8" y="-67.5" font-family="Helvetica,sans-Serif" font-size="10.00">Tayx.Graphy.GraphyDebugger.</text>
<text text-anchor="middle" x="75.5" y="-56.5" font-family="Helvetica,sans-Serif" font-size="10.00">CheckDebugPackets</text>
</a>
</g>
</g>
<!-- Node2 -->
<g id="node2" class="node">
<title>Node2</title>
<g id="a_node2"><a xlink:href="class_tayx_1_1_graphy_1_1_graphy_debugger.xhtml#aeab01bc7a2a6c73d5752f6e2692b84ee" target="_top" xlink:title="Returns true if a condition is met.">
<polygon fill="white" stroke="black" points="194.5,-98.5 194.5,-128.5 345.5,-128.5 345.5,-98.5 194.5,-98.5"/>
<text text-anchor="start" x="202.5" y="-116.5" font-family="Helvetica,sans-Serif" font-size="10.00">Tayx.Graphy.GraphyDebugger.</text>
<text text-anchor="middle" x="270" y="-105.5" font-family="Helvetica,sans-Serif" font-size="10.00">CheckIfConditionIsMet</text>
</a>
</g>
</g>
<!-- Node1&#45;&gt;Node2 -->
<g id="edge1" class="edge">
<title>Node1&#45;&gt;Node2</title>
<path fill="none" stroke="midnightblue" d="M135.56,-79.53C155.98,-84.73 179.04,-90.6 200.17,-95.98"/>
<polygon fill="midnightblue" stroke="midnightblue" points="199.49,-99.42 210.05,-98.49 201.22,-92.64 199.49,-99.42"/>
</g>
<!-- Node4 -->
<g id="node4" class="node">
<title>Node4</title>
<g id="a_node4"><a xlink:href="class_tayx_1_1_graphy_1_1_graphy_debugger.xhtml#a182e41b273186d37407f10a8ce9bf380" target="_top" xlink:title="Executes the operations in the DebugPacket specified.">
<polygon fill="white" stroke="black" points="187,-49.5 187,-79.5 353,-79.5 353,-49.5 187,-49.5"/>
<text text-anchor="start" x="195" y="-67.5" font-family="Helvetica,sans-Serif" font-size="10.00">Tayx.Graphy.GraphyDebugger.</text>
<text text-anchor="middle" x="270" y="-56.5" font-family="Helvetica,sans-Serif" font-size="10.00">ExecuteOperationsInDebugPacket</text>
</a>
</g>
</g>
<!-- Node1&#45;&gt;Node4 -->
<g id="edge3" class="edge">
<title>Node1&#45;&gt;Node4</title>
<path fill="none" stroke="midnightblue" d="M151.2,-64.5C159.63,-64.5 168.3,-64.5 176.92,-64.5"/>
<polygon fill="midnightblue" stroke="midnightblue" points="177,-68 187,-64.5 177,-61 177,-68"/>
</g>
<!-- Node6 -->
<g id="node6" class="node">
<title>Node6</title>
<g id="a_node6"><a xlink:href="class_tayx_1_1_graphy_1_1_graphy_debugger_1_1_debug_packet.xhtml#a01885d992550969a4a546d70723ab3e3" target="_top" xlink:title=" ">
<polygon fill="white" stroke="black" points="194.5,-0.5 194.5,-30.5 345.5,-30.5 345.5,-0.5 194.5,-0.5"/>
<text text-anchor="start" x="202.5" y="-18.5" font-family="Helvetica,sans-Serif" font-size="10.00">Tayx.Graphy.GraphyDebugger.</text>
<text text-anchor="middle" x="270" y="-7.5" font-family="Helvetica,sans-Serif" font-size="10.00">DebugPacket.Update</text>
</a>
</g>
</g>
<!-- Node1&#45;&gt;Node6 -->
<g id="edge5" class="edge">
<title>Node1&#45;&gt;Node6</title>
<path fill="none" stroke="midnightblue" d="M135.56,-49.47C155.98,-44.27 179.04,-38.4 200.17,-33.02"/>
<polygon fill="midnightblue" stroke="midnightblue" points="201.22,-36.36 210.05,-30.51 199.49,-29.58 201.22,-36.36"/>
</g>
<!-- Node3 -->
<g id="node3" class="node">
<title>Node3</title>
<g id="a_node3"><a xlink:href="class_tayx_1_1_graphy_1_1_graphy_debugger.xhtml#ad4eeb77e665a31ab7640e57ae004ba4f" target="_top" xlink:title="Obtains the requested value from the specified variable.">
<polygon fill="white" stroke="black" points="389,-98.5 389,-128.5 578,-128.5 578,-98.5 389,-98.5"/>
<text text-anchor="start" x="397" y="-116.5" font-family="Helvetica,sans-Serif" font-size="10.00">Tayx.Graphy.GraphyDebugger.</text>
<text text-anchor="middle" x="483.5" y="-105.5" font-family="Helvetica,sans-Serif" font-size="10.00">GetRequestedValueFromDebugVariable</text>
</a>
</g>
</g>
<!-- Node2&#45;&gt;Node3 -->
<g id="edge2" class="edge">
<title>Node2&#45;&gt;Node3</title>
<path fill="none" stroke="midnightblue" d="M345.57,-113.5C356.31,-113.5 367.53,-113.5 378.71,-113.5"/>
<polygon fill="midnightblue" stroke="midnightblue" points="378.97,-117 388.97,-113.5 378.97,-110 378.97,-117"/>
</g>
<!-- Node5 -->
<g id="node5" class="node">
<title>Node5</title>
<g id="a_node5"><a xlink:href="class_tayx_1_1_graphy_1_1_graphy_debugger_1_1_debug_packet.xhtml#a8419b4077144b42af41f88b22dfc7760" target="_top" xlink:title=" ">
<polygon fill="white" stroke="black" points="408,-49.5 408,-79.5 559,-79.5 559,-49.5 408,-49.5"/>
<text text-anchor="start" x="416" y="-67.5" font-family="Helvetica,sans-Serif" font-size="10.00">Tayx.Graphy.GraphyDebugger.</text>
<text text-anchor="middle" x="483.5" y="-56.5" font-family="Helvetica,sans-Serif" font-size="10.00">DebugPacket.Executed</text>
</a>
</g>
</g>
<!-- Node4&#45;&gt;Node5 -->
<g id="edge4" class="edge">
<title>Node4&#45;&gt;Node5</title>
<path fill="none" stroke="midnightblue" d="M353.07,-64.5C367.7,-64.5 382.96,-64.5 397.66,-64.5"/>
<polygon fill="midnightblue" stroke="midnightblue" points="397.73,-68 407.73,-64.5 397.73,-61 397.73,-68"/>
</g>
</g>
</svg>
