<?xml version="1.0" encoding="UTF-8" standalone="no"?>
<!DOCTYPE svg PUBLIC "-//W3C//DTD SVG 1.1//EN"
 "http://www.w3.org/Graphics/SVG/1.1/DTD/svg11.dtd">
<!-- Generated by graphviz version 2.47.3 (20210619.1520)
 -->
<!-- Title: ChatGui.OnEnterSend Pages: 1 -->
<!--zoomable 393 -->
<svg id="main" version="1.1" xmlns="http://www.w3.org/2000/svg" xmlns:xlink="http://www.w3.org/1999/xlink" xml:space="preserve" onload="init(evt)">
<style type="text/css"><![CDATA[
.edge:hover path { stroke: red; }
.edge:hover polygon { stroke: red; fill: red; }
]]></style>
<script type="text/javascript"><![CDATA[
var edges = document.getElementsByTagName('g');
if (edges && edges.length) {
  for (var i=0;i<edges.length;i++) {
    if (edges[i].id.substr(0,4)=='edge') {
      edges[i].setAttribute('class','edge');
    }
  }
}
]]></script>
        <defs>
                <circle id="rim" cx="0" cy="0" r="7"/>
                <circle id="rim2" cx="0" cy="0" r="3.5"/>
                <g id="zoomPlus">
                        <use xlink:href="#rim" fill="#404040">
                                <set attributeName="fill" to="#808080" begin="zoomplus.mouseover" end="zoomplus.mouseout"/>
                        </use>
                        <path d="M-4,0h8M0,-4v8" fill="none" stroke="white" stroke-width="1.5" pointer-events="none"/>
                </g>
                <g id="zoomMin">
                        <use xlink:href="#rim" fill="#404040">
                                <set attributeName="fill" to="#808080" begin="zoomminus.mouseover" end="zoomminus.mouseout"/>
                        </use>
                        <path d="M-4,0h8" fill="none" stroke="white" stroke-width="1.5" pointer-events="none"/>
                </g>
                <g id="dirArrow">
                        <path fill="none" stroke="white" stroke-width="1.5" d="M0,-3.0v7 M-2.5,-0.5L0,-3.0L2.5,-0.5"/>
                </g>
               <g id="resetDef">
                       <use xlink:href="#rim2" fill="#404040">
                               <set attributeName="fill" to="#808080" begin="reset.mouseover" end="reset.mouseout"/>
                       </use>
               </g>
        </defs>

<script type="text/javascript">
var viewWidth = 694;
var viewHeight = 393;
var sectionId = 'dynsection-12';
</script>
<script xlink:href="svgpan.js"/>
<svg id="graph" class="graph">
<g id="viewport">
<title>ChatGui.OnEnterSend</title>
<polygon fill="white" stroke="transparent" points="-4,4 -4,-389 690,-389 690,4 -4,4"/>
<!-- Node1 -->
<g id="node1" class="node">
<title>Node1</title>
<g id="a_node1"><a xlink:title=" ">
<polygon fill="#bfbfbf" stroke="black" points="0,-164 0,-183 113,-183 113,-164 0,-164"/>
<text text-anchor="middle" x="56.5" y="-171" font-family="Helvetica,sans-Serif" font-size="10.00">ChatGui.OnEnterSend</text>
</a>
</g>
</g>
<!-- Node2 -->
<g id="node2" class="node">
<title>Node2</title>
<g id="a_node2"><a xlink:href="class_chat_gui.xhtml#a68f45c78a96103fbc13469b6c0603295" target="_top" xlink:title=" ">
<polygon fill="white" stroke="black" points="149,-164 149,-183 286,-183 286,-164 149,-164"/>
<text text-anchor="middle" x="217.5" y="-171" font-family="Helvetica,sans-Serif" font-size="10.00">ChatGui.SendChatMessage</text>
</a>
</g>
</g>
<!-- Node1&#45;&gt;Node2 -->
<g id="edge1" class="edge">
<title>Node1&#45;&gt;Node2</title>
<path fill="none" stroke="midnightblue" d="M113.11,-173.5C121.41,-173.5 130.1,-173.5 138.76,-173.5"/>
<polygon fill="midnightblue" stroke="midnightblue" points="138.89,-177 148.89,-173.5 138.89,-170 138.89,-177"/>
</g>
<!-- Node3 -->
<g id="node3" class="node">
<title>Node3</title>
<g id="a_node3"><a xlink:href="class_photon_1_1_chat_1_1_chat_channel.xhtml#af42f991cd28509516257b12616df138a" target="_top" xlink:title="Clear the local cache of messages currently stored. This frees memory but doesn&#39;t affect the server.">
<polygon fill="white" stroke="black" points="344,-354.5 344,-384.5 476,-384.5 476,-354.5 344,-354.5"/>
<text text-anchor="start" x="352" y="-372.5" font-family="Helvetica,sans-Serif" font-size="10.00">Photon.Chat.ChatChannel.</text>
<text text-anchor="middle" x="410" y="-361.5" font-family="Helvetica,sans-Serif" font-size="10.00">ClearMessages</text>
</a>
</g>
</g>
<!-- Node2&#45;&gt;Node3 -->
<g id="edge2" class="edge">
<title>Node2&#45;&gt;Node3</title>
<path fill="none" stroke="midnightblue" d="M221.41,-183.04C230.79,-212.19 263.14,-300.84 322,-345.5 325.85,-348.42 330.04,-350.99 334.43,-353.25"/>
<polygon fill="midnightblue" stroke="midnightblue" points="333.12,-356.5 343.67,-357.45 336.02,-350.13 333.12,-356.5"/>
</g>
<!-- Node4 -->
<g id="node4" class="node">
<title>Node4</title>
<g id="a_node4"><a xlink:href="class_chat_gui.xhtml#a302c1314efe927af73c05706c04bbe2f" target="_top" xlink:title=" ">
<polygon fill="white" stroke="black" points="341.5,-305.5 341.5,-335.5 478.5,-335.5 478.5,-305.5 341.5,-305.5"/>
<text text-anchor="start" x="349.5" y="-323.5" font-family="Helvetica,sans-Serif" font-size="10.00">ChatGui.PostHelpToCurrent</text>
<text text-anchor="middle" x="410" y="-312.5" font-family="Helvetica,sans-Serif" font-size="10.00">Channel</text>
</a>
</g>
</g>
<!-- Node2&#45;&gt;Node4 -->
<g id="edge3" class="edge">
<title>Node2&#45;&gt;Node4</title>
<path fill="none" stroke="midnightblue" d="M223.84,-183.2C237.17,-206.49 274.31,-265.92 322,-296.5 325.15,-298.52 328.48,-300.38 331.91,-302.07"/>
<polygon fill="midnightblue" stroke="midnightblue" points="330.66,-305.35 341.22,-306.22 333.51,-298.95 330.66,-305.35"/>
</g>
<!-- Node5 -->
<g id="node5" class="node">
<title>Node5</title>
<g id="a_node5"><a xlink:href="class_photon_1_1_chat_1_1_chat_client.xhtml#afefc5d6f79d10d6d755669d14eee9c12" target="_top" xlink:title="Sends a message to a public channel which this client subscribed to.">
<polygon fill="white" stroke="black" points="333,-256.5 333,-286.5 487,-286.5 487,-256.5 333,-256.5"/>
<text text-anchor="start" x="341" y="-274.5" font-family="Helvetica,sans-Serif" font-size="10.00">Photon.Chat.ChatClient.Publish</text>
<text text-anchor="middle" x="410" y="-263.5" font-family="Helvetica,sans-Serif" font-size="10.00">Message</text>
</a>
</g>
</g>
<!-- Node2&#45;&gt;Node5 -->
<g id="edge4" class="edge">
<title>Node2&#45;&gt;Node5</title>
<path fill="none" stroke="midnightblue" d="M229.17,-183.11C247.08,-198.77 284.91,-229.82 322,-247.5 326.09,-249.45 330.36,-251.26 334.73,-252.95"/>
<polygon fill="midnightblue" stroke="midnightblue" points="333.8,-256.34 344.4,-256.44 336.18,-249.75 333.8,-256.34"/>
</g>
<!-- Node7 -->
<g id="node7" class="node">
<title>Node7</title>
<g id="a_node7"><a xlink:href="class_photon_1_1_chat_1_1_chat_client.xhtml#ad50dca47b8149b0952746af0fe25dad2" target="_top" xlink:title="Sends a private message to a single target user.">
<polygon fill="white" stroke="black" points="338,-207.5 338,-237.5 482,-237.5 482,-207.5 338,-207.5"/>
<text text-anchor="start" x="346" y="-225.5" font-family="Helvetica,sans-Serif" font-size="10.00">Photon.Chat.ChatClient.Send</text>
<text text-anchor="middle" x="410" y="-214.5" font-family="Helvetica,sans-Serif" font-size="10.00">PrivateMessage</text>
</a>
</g>
</g>
<!-- Node2&#45;&gt;Node7 -->
<g id="edge6" class="edge">
<title>Node2&#45;&gt;Node7</title>
<path fill="none" stroke="midnightblue" d="M255.68,-183.06C279.8,-189.27 311.95,-197.54 340.58,-204.9"/>
<polygon fill="midnightblue" stroke="midnightblue" points="339.98,-208.36 350.54,-207.46 341.73,-201.58 339.98,-208.36"/>
</g>
<!-- Node8 -->
<g id="node8" class="node">
<title>Node8</title>
<g id="a_node8"><a xlink:href="class_photon_1_1_chat_1_1_chat_client.xhtml#a4082838ff7355c23a7d92b02e8405efc" target="_top" xlink:title="Sets the user&#39;s status (pre&#45;defined or custom) and an optional message.">
<polygon fill="white" stroke="black" points="341.5,-158.5 341.5,-188.5 478.5,-188.5 478.5,-158.5 341.5,-158.5"/>
<text text-anchor="start" x="349.5" y="-176.5" font-family="Helvetica,sans-Serif" font-size="10.00">Photon.Chat.ChatClient.Set</text>
<text text-anchor="middle" x="410" y="-165.5" font-family="Helvetica,sans-Serif" font-size="10.00">OnlineStatus</text>
</a>
</g>
</g>
<!-- Node2&#45;&gt;Node8 -->
<g id="edge7" class="edge">
<title>Node2&#45;&gt;Node8</title>
<path fill="none" stroke="midnightblue" d="M286.2,-173.5C300.71,-173.5 316.15,-173.5 331.02,-173.5"/>
<polygon fill="midnightblue" stroke="midnightblue" points="331.2,-177 341.2,-173.5 331.2,-170 331.2,-177"/>
</g>
<!-- Node9 -->
<g id="node9" class="node">
<title>Node9</title>
<g id="a_node9"><a xlink:href="class_chat_gui.xhtml#aa83d13b8a9345313627a401e3ec5a938" target="_top" xlink:title=" ">
<polygon fill="white" stroke="black" points="353,-120 353,-139 467,-139 467,-120 353,-120"/>
<text text-anchor="middle" x="410" y="-127" font-family="Helvetica,sans-Serif" font-size="10.00">ChatGui.ShowChannel</text>
</a>
</g>
</g>
<!-- Node2&#45;&gt;Node9 -->
<g id="edge8" class="edge">
<title>Node2&#45;&gt;Node9</title>
<path fill="none" stroke="midnightblue" d="M259.79,-163.91C278.75,-159.51 301.51,-154.23 322,-149.5 333.45,-146.86 345.74,-144.03 357.38,-141.35"/>
<polygon fill="midnightblue" stroke="midnightblue" points="358.44,-144.7 367.4,-139.05 356.87,-137.88 358.44,-144.7"/>
</g>
<!-- Node11 -->
<g id="node11" class="node">
<title>Node11</title>
<g id="a_node11"><a xlink:href="class_photon_1_1_chat_1_1_chat_client.xhtml#a5dd578fb1b7cbbebcbe28a95187bb85e" target="_top" xlink:title="Simplified access to either private or public channels by name.">
<polygon fill="white" stroke="black" points="542.5,-76.5 542.5,-106.5 677.5,-106.5 677.5,-76.5 542.5,-76.5"/>
<text text-anchor="start" x="550.5" y="-94.5" font-family="Helvetica,sans-Serif" font-size="10.00">Photon.Chat.ChatClient.Try</text>
<text text-anchor="middle" x="610" y="-83.5" font-family="Helvetica,sans-Serif" font-size="10.00">GetChannel</text>
</a>
</g>
</g>
<!-- Node2&#45;&gt;Node11 -->
<g id="edge12" class="edge">
<title>Node2&#45;&gt;Node11</title>
<path fill="none" stroke="midnightblue" d="M230,-163.89C248.18,-149.32 285.3,-122.11 322,-110.5 390.72,-88.76 473.18,-85.49 532.04,-86.78"/>
<polygon fill="midnightblue" stroke="midnightblue" points="532.29,-90.29 542.38,-87.06 532.48,-83.29 532.29,-90.29"/>
</g>
<!-- Node12 -->
<g id="node12" class="node">
<title>Node12</title>
<g id="a_node12"><a xlink:href="class_photon_1_1_chat_1_1_chat_client.xhtml#abe55a18070d332c5cad63a884d6a1242" target="_top" xlink:title="Sends operation to subscribe to a list of channels by name.">
<polygon fill="white" stroke="black" points="327.5,-44 327.5,-63 492.5,-63 492.5,-44 327.5,-44"/>
<text text-anchor="middle" x="410" y="-51" font-family="Helvetica,sans-Serif" font-size="10.00">Photon.Chat.ChatClient.Subscribe</text>
</a>
</g>
</g>
<!-- Node2&#45;&gt;Node12 -->
<g id="edge11" class="edge">
<title>Node2&#45;&gt;Node12</title>
<path fill="none" stroke="midnightblue" d="M226.22,-163.71C242.05,-144.29 280.26,-100.77 322,-77.5 330.33,-72.86 339.62,-69.07 348.93,-65.98"/>
<polygon fill="midnightblue" stroke="midnightblue" points="350.08,-69.29 358.61,-63.02 348.03,-62.6 350.08,-69.29"/>
</g>
<!-- Node13 -->
<g id="node13" class="node">
<title>Node13</title>
<g id="a_node13"><a xlink:href="class_photon_1_1_chat_1_1_chat_client.xhtml#a107f60bcc98b3ed19922d3222f7a32b7" target="_top" xlink:title="Unsubscribes from a list of channels, which stops getting messages from those.">
<polygon fill="white" stroke="black" points="322,-6 322,-25 498,-25 498,-6 322,-6"/>
<text text-anchor="middle" x="410" y="-13" font-family="Helvetica,sans-Serif" font-size="10.00">Photon.Chat.ChatClient.Unsubscribe</text>
</a>
</g>
</g>
<!-- Node2&#45;&gt;Node13 -->
<g id="edge13" class="edge">
<title>Node2&#45;&gt;Node13</title>
<path fill="none" stroke="midnightblue" d="M222.67,-163.88C234.29,-138.31 269.66,-68.26 322,-34.5 325.17,-32.45 328.54,-30.62 332.02,-28.99"/>
<polygon fill="midnightblue" stroke="midnightblue" points="333.56,-32.14 341.48,-25.1 330.9,-25.66 333.56,-32.14"/>
</g>
<!-- Node6 -->
<g id="node6" class="node">
<title>Node6</title>
<g id="a_node6"><a xlink:href="class_photon_1_1_chat_1_1_chat_client.xhtml#abd054e64db59e580d97a817f99310e99" target="_top" xlink:title=" ">
<polygon fill="white" stroke="black" points="534,-256.5 534,-286.5 686,-286.5 686,-256.5 534,-256.5"/>
<text text-anchor="start" x="542" y="-274.5" font-family="Helvetica,sans-Serif" font-size="10.00">Photon.Chat.ChatClient.publish</text>
<text text-anchor="middle" x="610" y="-263.5" font-family="Helvetica,sans-Serif" font-size="10.00">Message</text>
</a>
</g>
</g>
<!-- Node5&#45;&gt;Node6 -->
<g id="edge5" class="edge">
<title>Node5&#45;&gt;Node6</title>
<path fill="none" stroke="midnightblue" d="M487.27,-271.5C499.18,-271.5 511.56,-271.5 523.67,-271.5"/>
<polygon fill="midnightblue" stroke="midnightblue" points="523.75,-275 533.75,-271.5 523.75,-268 523.75,-275"/>
</g>
<!-- Node10 -->
<g id="node10" class="node">
<title>Node10</title>
<g id="a_node10"><a xlink:href="class_photon_1_1_chat_1_1_chat_channel.xhtml#a9ff674eb16730b6b99234d887616feee" target="_top" xlink:title="Provides a string&#45;representation of all messages in this channel.">
<polygon fill="white" stroke="black" points="544,-125.5 544,-155.5 676,-155.5 676,-125.5 544,-125.5"/>
<text text-anchor="start" x="552" y="-143.5" font-family="Helvetica,sans-Serif" font-size="10.00">Photon.Chat.ChatChannel.</text>
<text text-anchor="middle" x="610" y="-132.5" font-family="Helvetica,sans-Serif" font-size="10.00">ToStringMessages</text>
</a>
</g>
</g>
<!-- Node9&#45;&gt;Node10 -->
<g id="edge9" class="edge">
<title>Node9&#45;&gt;Node10</title>
<path fill="none" stroke="midnightblue" d="M467.21,-132.62C487.93,-133.77 511.75,-135.1 533.88,-136.33"/>
<polygon fill="midnightblue" stroke="midnightblue" points="533.73,-139.82 543.91,-136.88 534.12,-132.83 533.73,-139.82"/>
</g>
<!-- Node9&#45;&gt;Node11 -->
<g id="edge10" class="edge">
<title>Node9&#45;&gt;Node11</title>
<path fill="none" stroke="midnightblue" d="M460.71,-119.96C482.46,-115.79 508.46,-110.79 532.58,-106.17"/>
<polygon fill="midnightblue" stroke="midnightblue" points="533.27,-109.6 542.43,-104.28 531.95,-102.72 533.27,-109.6"/>
</g>
<!-- Node14 -->
<g id="node14" class="node">
<title>Node14</title>
<g id="a_node14"><a xlink:href="class_photon_1_1_chat_1_1_chat_client.xhtml#a0413525517b1e67ed1818f262fe92a5e" target="_top" xlink:title=" ">
<polygon fill="white" stroke="black" points="538,-0.5 538,-30.5 682,-30.5 682,-0.5 538,-0.5"/>
<text text-anchor="start" x="546" y="-18.5" font-family="Helvetica,sans-Serif" font-size="10.00">Photon.Chat.ChatClient.Send</text>
<text text-anchor="middle" x="610" y="-7.5" font-family="Helvetica,sans-Serif" font-size="10.00">ChannelOperation</text>
</a>
</g>
</g>
<!-- Node13&#45;&gt;Node14 -->
<g id="edge14" class="edge">
<title>Node13&#45;&gt;Node14</title>
<path fill="none" stroke="midnightblue" d="M498.13,-15.5C507.99,-15.5 518.01,-15.5 527.78,-15.5"/>
<polygon fill="midnightblue" stroke="midnightblue" points="527.87,-19 537.87,-15.5 527.87,-12 527.87,-19"/>
</g>
</g>
</svg>
        <g id="navigator" transform="translate(0 0)" fill="#404254">
                <rect fill="#f2f5e9" fill-opacity="0.5" stroke="#606060" stroke-width=".5" x="0" y="0" width="60" height="60"/>
                <use id="zoomplus" xlink:href="#zoomPlus" x="17" y="9" onmousedown="handleZoom(evt,'in')"/>
                <use id="zoomminus" xlink:href="#zoomMin" x="42" y="9" onmousedown="handleZoom(evt,'out')"/>
                <use id="reset" xlink:href="#resetDef" x="30" y="36" onmousedown="handleReset()"/>
                <g id="arrowUp" xlink:href="#dirArrow" transform="translate(30 24)" onmousedown="handlePan(0,-1)">
                  <use xlink:href="#rim" fill="#404040">
                        <set attributeName="fill" to="#808080" begin="arrowUp.mouseover" end="arrowUp.mouseout"/>
                  </use>
                  <path fill="none" stroke="white" stroke-width="1.5" d="M0,-3.0v7 M-2.5,-0.5L0,-3.0L2.5,-0.5"/>
                </g>
                <g id="arrowRight" xlink:href="#dirArrow" transform="rotate(90) translate(36 -43)" onmousedown="handlePan(1,0)">
                  <use xlink:href="#rim" fill="#404040">
                        <set attributeName="fill" to="#808080" begin="arrowRight.mouseover" end="arrowRight.mouseout"/>
                  </use>
                  <path fill="none" stroke="white" stroke-width="1.5" d="M0,-3.0v7 M-2.5,-0.5L0,-3.0L2.5,-0.5"/>
                </g>
                <g id="arrowDown" xlink:href="#dirArrow" transform="rotate(180) translate(-30 -48)" onmousedown="handlePan(0,1)">
                  <use xlink:href="#rim" fill="#404040">
                        <set attributeName="fill" to="#808080" begin="arrowDown.mouseover" end="arrowDown.mouseout"/>
                  </use>
                  <path fill="none" stroke="white" stroke-width="1.5" d="M0,-3.0v7 M-2.5,-0.5L0,-3.0L2.5,-0.5"/>
                </g>
                <g id="arrowLeft" xlink:href="#dirArrow" transform="rotate(270) translate(-36 17)" onmousedown="handlePan(-1,0)">
                  <use xlink:href="#rim" fill="#404040">
                        <set attributeName="fill" to="#808080" begin="arrowLeft.mouseover" end="arrowLeft.mouseout"/>
                  </use>
                  <path fill="none" stroke="white" stroke-width="1.5" d="M0,-3.0v7 M-2.5,-0.5L0,-3.0L2.5,-0.5"/>
                </g>
        </g>
        <svg viewBox="0 0 15 15" width="100%" height="30px" preserveAspectRatio="xMaxYMin meet">
         <g id="arrow_out" transform="scale(0.3 0.3)">
          <a xlink:href="class_chat_gui_adcb3927d375b06b5525f47cd6a4ee727_cgraph_org.svg" target="_base">
           <rect id="button" ry="5" rx="5" y="6" x="6" height="38" width="38"
                fill="#f2f5e9" fill-opacity="0.5" stroke="#606060" stroke-width="1.0"/>
           <path id="arrow"
             d="M 11.500037,31.436501 C 11.940474,20.09759 22.043105,11.32322 32.158766,21.979434 L 37.068811,17.246167 C 37.068811,17.246167 37.088388,32 37.088388,32 L 22.160133,31.978069 C 22.160133,31.978069 26.997745,27.140456 26.997745,27.140456 C 18.528582,18.264221 13.291696,25.230495 11.500037,31.436501 z"
             style="fill:#404040;"/>
          </a>
         </g>
        </svg>
</svg>
