<?xml version="1.0" encoding="UTF-8" standalone="no"?>
<!DOCTYPE svg PUBLIC "-//W3C//DTD SVG 1.1//EN"
 "http://www.w3.org/Graphics/SVG/1.1/DTD/svg11.dtd">
<!-- Generated by graphviz version 2.47.3 (20210619.1520)
 -->
<!-- Title: AbilityIndicator Pages: 1 -->
<svg width="720pt" height="574pt"
 viewBox="0.00 0.00 720.00 574.00" xmlns="http://www.w3.org/2000/svg" xmlns:xlink="http://www.w3.org/1999/xlink">
<g id="graph0" class="graph" transform="scale(1 1) rotate(0) translate(4 570)">
<title>AbilityIndicator</title>
<polygon fill="white" stroke="transparent" points="-4,4 -4,-570 716,-570 716,4 -4,4"/>
<!-- Node1 -->
<g id="node1" class="node">
<title>Node1</title>
<g id="a_node1"><a xlink:title=" ">
<polygon fill="#bfbfbf" stroke="black" points="513,-277.5 513,-296.5 593,-296.5 593,-277.5 513,-277.5"/>
<text text-anchor="middle" x="553" y="-284.5" font-family="Helvetica,sans-Serif" font-size="10.00">AbilityIndicator</text>
</a>
</g>
</g>
<!-- Node3 -->
<g id="node3" class="node">
<title>Node3</title>
<g id="a_node3"><a xlink:href="class_ability_cooldown.xhtml" target="_top" xlink:title=" ">
<polygon fill="white" stroke="black" points="444,-201.5 444,-220.5 530,-220.5 530,-201.5 444,-201.5"/>
<text text-anchor="middle" x="487" y="-208.5" font-family="Helvetica,sans-Serif" font-size="10.00">AbilityCooldown</text>
</a>
</g>
</g>
<!-- Node1&#45;&gt;Node3 -->
<g id="edge30" class="edge">
<title>Node1&#45;&gt;Node3</title>
<path fill="none" stroke="#9a32cd" stroke-dasharray="5,2" d="M564.04,-268.34C568.4,-258.92 571.09,-247.55 565,-239 556.85,-227.56 543.51,-220.92 530.15,-217.09"/>
<polygon fill="#9a32cd" stroke="#9a32cd" points="560.9,-266.79 559.19,-277.24 567.05,-270.14 560.9,-266.79"/>
<text text-anchor="middle" x="601" y="-246.5" font-family="Helvetica,sans-Serif" font-size="10.00"> abilityIndicator</text>
</g>
<!-- Node2 -->
<g id="node2" class="node">
<title>Node2</title>
<g id="a_node2"><a xlink:title=" ">
<polygon fill="white" stroke="#bfbfbf" points="276.5,-344.5 276.5,-363.5 359.5,-363.5 359.5,-344.5 276.5,-344.5"/>
<text text-anchor="middle" x="318" y="-351.5" font-family="Helvetica,sans-Serif" font-size="10.00">MonoBehaviour</text>
</a>
</g>
</g>
<!-- Node2&#45;&gt;Node1 -->
<g id="edge1" class="edge">
<title>Node2&#45;&gt;Node1</title>
<path fill="none" stroke="midnightblue" d="M369.75,-343.04C390.8,-338.53 415.25,-332.7 437,-326 449.78,-322.07 452.38,-319.41 465,-315 484.16,-308.31 505.97,-301.61 523.08,-296.56"/>
<polygon fill="midnightblue" stroke="midnightblue" points="368.78,-339.67 359.71,-345.15 370.22,-346.52 368.78,-339.67"/>
</g>
<!-- Node2&#45;&gt;Node3 -->
<g id="edge3" class="edge">
<title>Node2&#45;&gt;Node3</title>
<path fill="none" stroke="midnightblue" d="M369.55,-341.97C380.88,-338.08 392.36,-332.89 402,-326 422.99,-311 466.36,-244.51 481.58,-220.6"/>
<polygon fill="midnightblue" stroke="midnightblue" points="368.17,-338.73 359.68,-345.06 370.27,-345.41 368.17,-338.73"/>
</g>
<!-- Node4 -->
<g id="node4" class="node">
<title>Node4</title>
<g id="a_node4"><a xlink:href="class_player_controller.xhtml" target="_top" xlink:title="Player Controller is the main class that handles all the movement of the Player.">
<polygon fill="white" stroke="black" points="295,-0.5 295,-19.5 381,-19.5 381,-0.5 295,-0.5"/>
<text text-anchor="middle" x="338" y="-7.5" font-family="Helvetica,sans-Serif" font-size="10.00">PlayerController</text>
</a>
</g>
</g>
<!-- Node2&#45;&gt;Node4 -->
<g id="edge5" class="edge">
<title>Node2&#45;&gt;Node4</title>
<path fill="none" stroke="midnightblue" d="M347.71,-339.58C366.78,-328.71 388,-311.37 388,-288 388,-288 388,-288 388,-76 388,-51.65 365.69,-30.83 350.88,-19.69"/>
<polygon fill="midnightblue" stroke="midnightblue" points="345.82,-336.62 338.62,-344.39 349.1,-342.8 345.82,-336.62"/>
</g>
<!-- Node11 -->
<g id="node11" class="node">
<title>Node11</title>
<g id="a_node11"><a xlink:href="class_stats.xhtml" target="_top" xlink:title="Base class Stats of the entity.">
<polygon fill="white" stroke="black" points="211,-277.5 211,-296.5 251,-296.5 251,-277.5 211,-277.5"/>
<text text-anchor="middle" x="231" y="-284.5" font-family="Helvetica,sans-Serif" font-size="10.00">Stats</text>
</a>
</g>
</g>
<!-- Node2&#45;&gt;Node11 -->
<g id="edge16" class="edge">
<title>Node2&#45;&gt;Node11</title>
<path fill="none" stroke="midnightblue" d="M298.01,-338.07C280.84,-325.24 256.68,-307.19 242.55,-296.63"/>
<polygon fill="midnightblue" stroke="midnightblue" points="296.16,-341.05 306.27,-344.23 300.35,-335.44 296.16,-341.05"/>
</g>
<!-- Node13 -->
<g id="node13" class="node">
<title>Node13</title>
<g id="a_node13"><a xlink:href="class_u_i_controller.xhtml" target="_top" xlink:title=" ">
<polygon fill="white" stroke="black" points="90.5,-277.5 90.5,-296.5 157.5,-296.5 157.5,-277.5 90.5,-277.5"/>
<text text-anchor="middle" x="124" y="-284.5" font-family="Helvetica,sans-Serif" font-size="10.00">UIController</text>
</a>
</g>
</g>
<!-- Node2&#45;&gt;Node13 -->
<g id="edge19" class="edge">
<title>Node2&#45;&gt;Node13</title>
<path fill="none" stroke="midnightblue" d="M282.49,-341.1C244.02,-328.21 183.61,-307.97 149.56,-296.56"/>
<polygon fill="midnightblue" stroke="midnightblue" points="281.64,-344.51 292.24,-344.37 283.87,-337.87 281.64,-344.51"/>
</g>
<!-- Node14 -->
<g id="node14" class="node">
<title>Node14</title>
<g id="a_node14"><a xlink:href="class_inventory.xhtml" target="_top" xlink:title=" ">
<polygon fill="white" stroke="black" points="290.5,-239.5 290.5,-258.5 345.5,-258.5 345.5,-239.5 290.5,-239.5"/>
<text text-anchor="middle" x="318" y="-246.5" font-family="Helvetica,sans-Serif" font-size="10.00">Inventory</text>
</a>
</g>
</g>
<!-- Node2&#45;&gt;Node14 -->
<g id="edge23" class="edge">
<title>Node2&#45;&gt;Node14</title>
<path fill="none" stroke="midnightblue" d="M318,-333.94C318,-311.53 318,-275.31 318,-258.76"/>
<polygon fill="midnightblue" stroke="midnightblue" points="314.5,-334.22 318,-344.22 321.5,-334.22 314.5,-334.22"/>
</g>
<!-- Node15 -->
<g id="node15" class="node">
<title>Node15</title>
<g id="a_node15"><a xlink:href="class_basic_attack.xhtml" target="_top" xlink:title=" ">
<polygon fill="white" stroke="black" points="117,-67.5 117,-86.5 187,-86.5 187,-67.5 117,-67.5"/>
<text text-anchor="middle" x="152" y="-74.5" font-family="Helvetica,sans-Serif" font-size="10.00">BasicAttack</text>
</a>
</g>
</g>
<!-- Node2&#45;&gt;Node15 -->
<g id="edge25" class="edge">
<title>Node2&#45;&gt;Node15</title>
<path fill="none" stroke="midnightblue" d="M266.42,-352.96C176.37,-351.47 0,-341.72 0,-288 0,-288 0,-288 0,-143 0,-92.49 71.84,-80.71 116.75,-78.28"/>
<polygon fill="midnightblue" stroke="midnightblue" points="266.38,-356.46 276.43,-353.09 266.48,-349.46 266.38,-356.46"/>
</g>
<!-- Node3&#45;&gt;Node1 -->
<g id="edge2" class="edge">
<title>Node3&#45;&gt;Node1</title>
<path fill="none" stroke="#9a32cd" stroke-dasharray="5,2" d="M496.56,-229.36C502.14,-238.69 509.71,-250.07 518,-259 524.48,-265.97 532.89,-272.53 539.84,-277.43"/>
<polygon fill="#9a32cd" stroke="#9a32cd" points="499.53,-227.51 491.51,-220.58 493.45,-230.99 499.53,-227.51"/>
<text text-anchor="middle" x="541.5" y="-246.5" font-family="Helvetica,sans-Serif" font-size="10.00"> currentCD</text>
</g>
<!-- Node3&#45;&gt;Node4 -->
<g id="edge6" class="edge">
<title>Node3&#45;&gt;Node4</title>
<path fill="none" stroke="#9a32cd" stroke-dasharray="5,2" d="M502.6,-193.75C520.92,-172.61 546.78,-134.87 530,-105 499.82,-51.29 428.05,-27.71 381.32,-17.77"/>
<polygon fill="#9a32cd" stroke="#9a32cd" points="499.95,-191.47 495.83,-201.23 505.14,-196.17 499.95,-191.47"/>
<text text-anchor="middle" x="572" y="-108" font-family="Helvetica,sans-Serif" font-size="10.00"> abilityCooldowns</text>
</g>
<!-- Node9 -->
<g id="node9" class="node">
<title>Node9</title>
<g id="a_node9"><a xlink:href="class_player_stats.xhtml" target="_top" xlink:title="Player Stats is the main class that controls all the Player Statistics in all time in the game execut...">
<polygon fill="white" stroke="black" points="216,-134.5 216,-153.5 284,-153.5 284,-134.5 216,-134.5"/>
<text text-anchor="middle" x="250" y="-141.5" font-family="Helvetica,sans-Serif" font-size="10.00">PlayerStats</text>
</a>
</g>
</g>
<!-- Node3&#45;&gt;Node9 -->
<g id="edge21" class="edge">
<title>Node3&#45;&gt;Node9</title>
<path fill="none" stroke="#9a32cd" stroke-dasharray="5,2" d="M433.75,-205.54C401.15,-201.77 358.94,-194.97 323,-183 301.04,-175.68 277.64,-162.41 263.42,-153.65"/>
<polygon fill="#9a32cd" stroke="#9a32cd" points="433.65,-209.06 443.98,-206.67 434.42,-202.1 433.65,-209.06"/>
<text text-anchor="middle" x="361" y="-175" font-family="Helvetica,sans-Serif" font-size="10.00"> abilityCooldowns</text>
</g>
<!-- Node4&#45;&gt;Node3 -->
<g id="edge4" class="edge">
<title>Node4&#45;&gt;Node3</title>
<path fill="none" stroke="#9a32cd" stroke-dasharray="5,2" d="M378.98,-23.44C387.22,-27.22 395.37,-32 402,-38 454.85,-85.83 478.74,-173.89 485.15,-201.49"/>
<polygon fill="#9a32cd" stroke="#9a32cd" points="380.29,-20.2 369.71,-19.6 377.61,-26.66 380.29,-20.2"/>
<text text-anchor="middle" x="490.5" y="-108" font-family="Helvetica,sans-Serif" font-size="10.00"> playerController</text>
</g>
<!-- Node4&#45;&gt;Node9 -->
<g id="edge20" class="edge">
<title>Node4&#45;&gt;Node9</title>
<path fill="none" stroke="#9a32cd" stroke-dasharray="5,2" d="M326.65,-28.02C307.67,-56.5 270.13,-112.8 255.77,-134.34"/>
<polygon fill="#9a32cd" stroke="#9a32cd" points="329.68,-29.78 332.32,-19.52 323.86,-25.9 329.68,-29.78"/>
<text text-anchor="middle" x="335.5" y="-74.5" font-family="Helvetica,sans-Serif" font-size="10.00"> playerController</text>
</g>
<!-- Node4&#45;&gt;Node15 -->
<g id="edge26" class="edge">
<title>Node4&#45;&gt;Node15</title>
<path fill="none" stroke="#9a32cd" stroke-dasharray="5,2" d="M284.86,-13.51C220.07,-17.13 117.69,-24.87 106,-38 95.87,-49.37 112.54,-60.21 128.58,-67.38"/>
<polygon fill="#9a32cd" stroke="#9a32cd" points="285.12,-17.01 294.91,-12.97 284.74,-10.02 285.12,-17.01"/>
<text text-anchor="middle" x="127.5" y="-41" font-family="Helvetica,sans-Serif" font-size="10.00"> controller</text>
</g>
<!-- Node5 -->
<g id="node5" class="node">
<title>Node5</title>
<g id="a_node5"><a xlink:href="class_character.xhtml" target="_top" xlink:title=" ">
<polygon fill="white" stroke="black" points="627.5,-344.5 627.5,-363.5 686.5,-363.5 686.5,-344.5 627.5,-344.5"/>
<text text-anchor="middle" x="657" y="-351.5" font-family="Helvetica,sans-Serif" font-size="10.00">Character</text>
</a>
</g>
</g>
<!-- Node5&#45;&gt;Node4 -->
<g id="edge7" class="edge">
<title>Node5&#45;&gt;Node4</title>
<path fill="none" stroke="#9a32cd" stroke-dasharray="5,2" d="M661.88,-334.28C664.82,-321.36 668,-303.76 668,-288 668,-288 668,-288 668,-76 668,-18.19 470.59,-10.92 381.14,-10.6"/>
<polygon fill="#9a32cd" stroke="#9a32cd" points="658.41,-333.7 659.44,-344.25 665.21,-335.36 658.41,-333.7"/>
<text text-anchor="middle" x="690" y="-175" font-family="Helvetica,sans-Serif" font-size="10.00"> character</text>
</g>
<!-- Node6 -->
<g id="node6" class="node">
<title>Node6</title>
<g id="a_node6"><a xlink:title=" ">
<polygon fill="white" stroke="#bfbfbf" points="535.5,-546.5 535.5,-565.5 624.5,-565.5 624.5,-546.5 535.5,-546.5"/>
<text text-anchor="middle" x="580" y="-553.5" font-family="Helvetica,sans-Serif" font-size="10.00">ScriptableObject</text>
</a>
</g>
</g>
<!-- Node6&#45;&gt;Node5 -->
<g id="edge8" class="edge">
<title>Node6&#45;&gt;Node5</title>
<path fill="none" stroke="midnightblue" d="M596.28,-538.85C611.14,-523.03 632.36,-497.51 643,-471 658.19,-433.16 658.16,-383.23 657.44,-363.52"/>
<polygon fill="midnightblue" stroke="midnightblue" points="593.62,-536.57 589.18,-546.19 598.65,-541.44 593.62,-536.57"/>
</g>
<!-- Node7 -->
<g id="node7" class="node">
<title>Node7</title>
<g id="a_node7"><a xlink:href="class_ability.xhtml" target="_top" xlink:title=" ">
<polygon fill="white" stroke="black" points="532,-411.5 532,-430.5 576,-430.5 576,-411.5 532,-411.5"/>
<text text-anchor="middle" x="554" y="-418.5" font-family="Helvetica,sans-Serif" font-size="10.00">Ability</text>
</a>
</g>
</g>
<!-- Node6&#45;&gt;Node7 -->
<g id="edge10" class="edge">
<title>Node6&#45;&gt;Node7</title>
<path fill="none" stroke="midnightblue" d="M566.2,-538.22C560.28,-529.96 554.04,-519.52 551,-509 542.99,-481.27 548.6,-446.49 551.97,-430.61"/>
<polygon fill="midnightblue" stroke="midnightblue" points="563.47,-540.42 572.32,-546.24 569.03,-536.17 563.47,-540.42"/>
</g>
<!-- Node8 -->
<g id="node8" class="node">
<title>Node8</title>
<g id="a_node8"><a xlink:href="class_effect.xhtml" target="_top" xlink:title=" ">
<polygon fill="white" stroke="black" points="559.5,-489.5 559.5,-508.5 600.5,-508.5 600.5,-489.5 559.5,-489.5"/>
<text text-anchor="middle" x="580" y="-496.5" font-family="Helvetica,sans-Serif" font-size="10.00">Effect</text>
</a>
</g>
</g>
<!-- Node6&#45;&gt;Node8 -->
<g id="edge12" class="edge">
<title>Node6&#45;&gt;Node8</title>
<path fill="none" stroke="midnightblue" d="M580,-536.12C580,-526.82 580,-516.06 580,-508.71"/>
<polygon fill="midnightblue" stroke="midnightblue" points="576.5,-536.41 580,-546.41 583.5,-536.41 576.5,-536.41"/>
</g>
<!-- Node7&#45;&gt;Node3 -->
<g id="edge29" class="edge">
<title>Node7&#45;&gt;Node3</title>
<path fill="none" stroke="#9a32cd" stroke-dasharray="5,2" d="M535.5,-404.73C524.4,-394.45 511.1,-379.9 504,-364 481.47,-313.57 484.33,-244.75 486.19,-220.71"/>
<polygon fill="#9a32cd" stroke="#9a32cd" points="533.27,-407.43 543.08,-411.43 537.9,-402.18 533.27,-407.43"/>
<text text-anchor="middle" x="505.5" y="-318" font-family="Helvetica,sans-Serif" font-size="10.00"> ability</text>
</g>
<!-- Node7&#45;&gt;Node5 -->
<g id="edge9" class="edge">
<title>Node7&#45;&gt;Node5</title>
<path fill="none" stroke="#9a32cd" stroke-dasharray="5,2" d="M572.94,-405.14C582.6,-397.83 594.68,-389.08 606,-382 616.7,-375.31 629.22,-368.66 639.18,-363.64"/>
<polygon fill="#9a32cd" stroke="#9a32cd" points="570.63,-402.5 564.84,-411.37 574.9,-408.05 570.63,-402.5"/>
<text text-anchor="middle" x="624.5" y="-385" font-family="Helvetica,sans-Serif" font-size="10.00"> abilities</text>
</g>
<!-- Node16 -->
<g id="node16" class="node">
<title>Node16</title>
<g id="a_node16"><a xlink:href="class_indicated_ability.xhtml" target="_top" xlink:title="Encapsulador de les Ability que han de mostrar l&#39;indicador">
<polygon fill="white" stroke="black" points="512.5,-344.5 512.5,-363.5 595.5,-363.5 595.5,-344.5 512.5,-344.5"/>
<text text-anchor="middle" x="554" y="-351.5" font-family="Helvetica,sans-Serif" font-size="10.00">IndicatedAbility</text>
</a>
</g>
</g>
<!-- Node7&#45;&gt;Node16 -->
<g id="edge33" class="edge">
<title>Node7&#45;&gt;Node16</title>
<path fill="none" stroke="midnightblue" d="M554,-401.04C554,-388.67 554,-373.12 554,-363.63"/>
<polygon fill="midnightblue" stroke="midnightblue" points="550.5,-401.23 554,-411.23 557.5,-401.23 550.5,-401.23"/>
</g>
<!-- Node8&#45;&gt;Node7 -->
<g id="edge11" class="edge">
<title>Node8&#45;&gt;Node7</title>
<path fill="none" stroke="#9a32cd" stroke-dasharray="5,2" d="M569.25,-480.34C567.67,-477.29 566.18,-474.11 565,-471 559.79,-457.31 556.68,-440.49 555.16,-430.54"/>
<polygon fill="#9a32cd" stroke="#9a32cd" points="566.36,-482.33 574.33,-489.31 572.45,-478.88 566.36,-482.33"/>
<text text-anchor="middle" x="604" y="-463" font-family="Helvetica,sans-Serif" font-size="10.00"> aToAuthorEffects</text>
<text text-anchor="middle" x="604" y="-452" font-family="Helvetica,sans-Serif" font-size="10.00">aToEnemyEffects</text>
</g>
<!-- Node9&#45;&gt;Node3 -->
<g id="edge31" class="edge">
<title>Node9&#45;&gt;Node3</title>
<path fill="none" stroke="#9a32cd" stroke-dasharray="5,2" d="M294.24,-149.87C324.28,-153.94 364.65,-160.9 399,-172 409.78,-175.49 411.65,-178.38 422,-183 436.39,-189.43 452.79,-196.23 465.51,-201.4"/>
<polygon fill="#9a32cd" stroke="#9a32cd" points="294.43,-146.37 284.07,-148.55 293.53,-153.31 294.43,-146.37"/>
<text text-anchor="middle" x="448.5" y="-175" font-family="Helvetica,sans-Serif" font-size="10.00"> playerStats</text>
</g>
<!-- Node9&#45;&gt;Node4 -->
<g id="edge13" class="edge">
<title>Node9&#45;&gt;Node4</title>
<path fill="none" stroke="#9a32cd" stroke-dasharray="5,2" d="M242.91,-124.38C238.02,-108.45 233.73,-85.27 242,-67 253.29,-42.04 281.6,-27.54 304.56,-19.57"/>
<polygon fill="#9a32cd" stroke="#9a32cd" points="239.69,-125.78 246.25,-134.1 246.31,-123.51 239.69,-125.78"/>
<text text-anchor="middle" x="254.5" y="-74.5" font-family="Helvetica,sans-Serif" font-size="10.00"> stats</text>
</g>
<!-- Node9&#45;&gt;Node15 -->
<g id="edge28" class="edge">
<title>Node9&#45;&gt;Node15</title>
<path fill="none" stroke="#9a32cd" stroke-dasharray="5,2" d="M215.87,-130.63C206.76,-126.61 197.19,-121.69 189,-116 177.06,-107.69 165.76,-95.16 158.86,-86.79"/>
<polygon fill="#9a32cd" stroke="#9a32cd" points="214.54,-133.87 225.12,-134.49 217.24,-127.41 214.54,-133.87"/>
<text text-anchor="middle" x="201.5" y="-108" font-family="Helvetica,sans-Serif" font-size="10.00"> stats</text>
</g>
<!-- Node10 -->
<g id="node10" class="node">
<title>Node10</title>
<g id="a_node10"><a xlink:href="class_ability_affected_stats.xhtml" target="_top" xlink:title="Base class Stats of the entity who is affected by Abilities.">
<polygon fill="white" stroke="black" points="180,-201.5 180,-220.5 282,-220.5 282,-201.5 180,-201.5"/>
<text text-anchor="middle" x="231" y="-208.5" font-family="Helvetica,sans-Serif" font-size="10.00">AbilityAffectedStats</text>
</a>
</g>
</g>
<!-- Node10&#45;&gt;Node9 -->
<g id="edge14" class="edge">
<title>Node10&#45;&gt;Node9</title>
<path fill="none" stroke="midnightblue" d="M236.43,-191.41C240.06,-178.99 244.68,-163.22 247.48,-153.63"/>
<polygon fill="midnightblue" stroke="midnightblue" points="233.01,-190.65 233.56,-201.23 239.73,-192.62 233.01,-190.65"/>
</g>
<!-- Node11&#45;&gt;Node10 -->
<g id="edge15" class="edge">
<title>Node11&#45;&gt;Node10</title>
<path fill="none" stroke="midnightblue" d="M231,-267.07C231,-252.18 231,-232.11 231,-220.77"/>
<polygon fill="midnightblue" stroke="midnightblue" points="227.5,-267.22 231,-277.22 234.5,-267.22 227.5,-267.22"/>
</g>
<!-- Node11&#45;&gt;Node15 -->
<g id="edge27" class="edge">
<title>Node11&#45;&gt;Node15</title>
<path fill="none" stroke="#9a32cd" stroke-dasharray="5,2" d="M211.54,-270.67C197.82,-258.69 180.29,-240.8 171,-221 148.98,-174.07 150.15,-109.54 151.4,-86.55"/>
<polygon fill="#9a32cd" stroke="#9a32cd" points="209.57,-273.58 219.48,-277.32 214.07,-268.22 209.57,-273.58"/>
<text text-anchor="middle" x="183.5" y="-175" font-family="Helvetica,sans-Serif" font-size="10.00"> otherStats</text>
</g>
<!-- Node12 -->
<g id="node12" class="node">
<title>Node12</title>
<g id="a_node12"><a xlink:href="class_player_u_i_controller.xhtml" target="_top" xlink:title="UI Controller for the Player Stats">
<polygon fill="white" stroke="black" points="28.5,-201.5 28.5,-220.5 123.5,-220.5 123.5,-201.5 28.5,-201.5"/>
<text text-anchor="middle" x="76" y="-208.5" font-family="Helvetica,sans-Serif" font-size="10.00">PlayerUIController</text>
</a>
</g>
</g>
<!-- Node12&#45;&gt;Node9 -->
<g id="edge17" class="edge">
<title>Node12&#45;&gt;Node9</title>
<path fill="none" stroke="#9a32cd" stroke-dasharray="5,2" d="M77.81,-191.16C79.44,-184.19 82.45,-176.82 88,-172 106.62,-155.83 174.06,-149.18 215.83,-146.57"/>
<polygon fill="#9a32cd" stroke="#9a32cd" points="74.31,-190.95 76.24,-201.36 81.22,-192.01 74.31,-190.95"/>
<text text-anchor="middle" x="109" y="-175" font-family="Helvetica,sans-Serif" font-size="10.00"> uiControl</text>
</g>
<!-- Node13&#45;&gt;Node12 -->
<g id="edge18" class="edge">
<title>Node13&#45;&gt;Node12</title>
<path fill="none" stroke="midnightblue" d="M112.84,-268.8C103.09,-253.77 89.33,-232.56 81.69,-220.77"/>
<polygon fill="midnightblue" stroke="midnightblue" points="109.93,-270.74 118.31,-277.22 115.8,-266.93 109.93,-270.74"/>
</g>
<!-- Node14&#45;&gt;Node9 -->
<g id="edge22" class="edge">
<title>Node14&#45;&gt;Node9</title>
<path fill="none" stroke="#9a32cd" stroke-dasharray="5,2" d="M308.34,-230.13C303.39,-221.23 297.11,-210.4 291,-201 279.7,-183.63 265.08,-164.32 256.7,-153.52"/>
<polygon fill="#9a32cd" stroke="#9a32cd" points="305.43,-232.08 313.31,-239.17 311.56,-228.71 305.43,-232.08"/>
<text text-anchor="middle" x="325" y="-208.5" font-family="Helvetica,sans-Serif" font-size="10.00"> inventory</text>
</g>
<!-- Node15&#45;&gt;Node4 -->
<g id="edge24" class="edge">
<title>Node15&#45;&gt;Node4</title>
<path fill="none" stroke="#9a32cd" stroke-dasharray="5,2" d="M151.13,-57.31C151.8,-50.35 153.88,-42.96 159,-38 177.85,-19.75 248.28,-13.82 294.98,-11.9"/>
<polygon fill="#9a32cd" stroke="#9a32cd" points="147.62,-57.4 150.98,-67.45 154.62,-57.5 147.62,-57.4"/>
<text text-anchor="middle" x="186.5" y="-41" font-family="Helvetica,sans-Serif" font-size="10.00"> basicAttack</text>
</g>
<!-- Node16&#45;&gt;Node1 -->
<g id="edge32" class="edge">
<title>Node16&#45;&gt;Node1</title>
<path fill="none" stroke="#9a32cd" stroke-dasharray="5,2" d="M553.71,-334.04C553.52,-321.67 553.28,-306.12 553.13,-296.63"/>
<polygon fill="#9a32cd" stroke="#9a32cd" points="550.21,-334.29 553.87,-344.23 557.21,-334.18 550.21,-334.29"/>
<text text-anchor="middle" x="570" y="-318" font-family="Helvetica,sans-Serif" font-size="10.00"> current</text>
</g>
</g>
</svg>
