<?xml version="1.0" encoding="UTF-8" standalone="no"?>
<!DOCTYPE svg PUBLIC "-//W3C//DTD SVG 1.1//EN"
 "http://www.w3.org/Graphics/SVG/1.1/DTD/svg11.dtd">
<!-- Generated by graphviz version 2.49.1 (20210923.0004)
 -->
<!-- Title: PlayerHUDController.UpdateGoldTxt Pages: 1 -->
<svg width="905pt" height="344pt"
 viewBox="0.00 0.00 905.00 344.00" xmlns="http://www.w3.org/2000/svg" xmlns:xlink="http://www.w3.org/1999/xlink">
<g id="graph0" class="graph" transform="scale(1 1) rotate(0) translate(4 340)">
<title>PlayerHUDController.UpdateGoldTxt</title>
<!-- Node1 -->
<g id="node1" class="node">
<title>Node1</title>
<g id="a_node1"><a xlink:title=" ">
<polygon fill="#bfbfbf" stroke="black" points="757,-83 757,-113 897,-113 897,-83 757,-83"/>
<text text-anchor="start" x="765" y="-101" font-family="Helvetica,sans-Serif" font-size="10.00">PlayerHUDController.Update</text>
<text text-anchor="middle" x="827" y="-90" font-family="Helvetica,sans-Serif" font-size="10.00">GoldTxt</text>
</a>
</g>
</g>
<!-- Node2 -->
<g id="node2" class="node">
<title>Node2</title>
<g id="a_node2"><a xlink:href="class_inventory.html#a154fe342bac27ad9f38a79da5c770d39" target="_top" xlink:title=" ">
<polygon fill="none" stroke="black" points="620.5,-240.5 620.5,-259.5 715.5,-259.5 715.5,-240.5 620.5,-240.5"/>
<text text-anchor="middle" x="668" y="-247.5" font-family="Helvetica,sans-Serif" font-size="10.00">Inventory.AddGold</text>
</a>
</g>
</g>
<!-- Node1&#45;&gt;Node2 -->
<g id="edge1" class="edge">
<title>Node1&#45;&gt;Node2</title>
<path fill="none" stroke="midnightblue" d="M803.03,-120.24C768.28,-153.88 703.78,-216.33 679.03,-240.29"/>
<polygon fill="midnightblue" stroke="midnightblue" points="805.62,-122.6 810.37,-113.13 800.75,-117.57 805.62,-122.6"/>
</g>
<!-- Node9 -->
<g id="node9" class="node">
<title>Node9</title>
<g id="a_node9"><a xlink:href="class_inventory.html#a22aa6615c02eff40c88a48c96905e962" target="_top" xlink:title=" ">
<polygon fill="none" stroke="black" points="621,-126.5 621,-145.5 715,-145.5 715,-126.5 621,-126.5"/>
<text text-anchor="middle" x="668" y="-133.5" font-family="Helvetica,sans-Serif" font-size="10.00">Inventory.BuyItem</text>
</a>
</g>
</g>
<!-- Node1&#45;&gt;Node9 -->
<g id="edge8" class="edge">
<title>Node1&#45;&gt;Node9</title>
<path fill="none" stroke="midnightblue" d="M754.22,-115.37C738.49,-119.18 722.39,-123.08 708.48,-126.44"/>
<polygon fill="midnightblue" stroke="midnightblue" points="755.05,-118.77 763.95,-113.02 753.41,-111.97 755.05,-118.77"/>
</g>
<!-- Node13 -->
<g id="node13" class="node">
<title>Node13</title>
<g id="a_node13"><a xlink:href="class_inventory.html#af5cb79cb50692e3fb6c98df25812dcbc" target="_top" xlink:title=" ">
<polygon fill="none" stroke="black" points="621.5,-88.5 621.5,-107.5 714.5,-107.5 714.5,-88.5 621.5,-88.5"/>
<text text-anchor="middle" x="668" y="-95.5" font-family="Helvetica,sans-Serif" font-size="10.00">Inventory.Initialize</text>
</a>
</g>
</g>
<!-- Node1&#45;&gt;Node13 -->
<g id="edge12" class="edge">
<title>Node1&#45;&gt;Node13</title>
<path fill="none" stroke="midnightblue" d="M746.37,-98C735.6,-98 724.86,-98 714.95,-98"/>
<polygon fill="midnightblue" stroke="midnightblue" points="746.68,-101.5 756.68,-98 746.68,-94.5 746.68,-101.5"/>
</g>
<!-- Node18 -->
<g id="node18" class="node">
<title>Node18</title>
<g id="a_node18"><a xlink:href="class_inventory.html#af1e7ae193e520340f457705d73e27607" target="_top" xlink:title=" ">
<polygon fill="none" stroke="black" points="621.5,-47.5 621.5,-66.5 714.5,-66.5 714.5,-47.5 621.5,-47.5"/>
<text text-anchor="middle" x="668" y="-54.5" font-family="Helvetica,sans-Serif" font-size="10.00">Inventory.SellItem</text>
</a>
</g>
</g>
<!-- Node1&#45;&gt;Node18 -->
<g id="edge17" class="edge">
<title>Node1&#45;&gt;Node18</title>
<path fill="none" stroke="midnightblue" d="M758.7,-80.43C740.47,-75.67 721.42,-70.69 705.59,-66.55"/>
<polygon fill="midnightblue" stroke="midnightblue" points="757.87,-83.83 768.43,-82.97 759.64,-77.05 757.87,-83.83"/>
</g>
<!-- Node20 -->
<g id="node20" class="node">
<title>Node20</title>
<g id="a_node20"><a xlink:href="class_inventory.html#ac533e00e2603d169f9d4972f853e1447" target="_top" xlink:title=" ">
<polygon fill="none" stroke="black" points="615,-3.5 615,-22.5 721,-22.5 721,-3.5 615,-3.5"/>
<text text-anchor="middle" x="668" y="-10.5" font-family="Helvetica,sans-Serif" font-size="10.00">Inventory.SpendGold</text>
</a>
</g>
</g>
<!-- Node1&#45;&gt;Node20 -->
<g id="edge19" class="edge">
<title>Node1&#45;&gt;Node20</title>
<path fill="none" stroke="midnightblue" d="M792.19,-77.87C771.78,-65.92 745.13,-50.67 721,-38 710.8,-32.64 699.27,-27.05 689.67,-22.52"/>
<polygon fill="midnightblue" stroke="midnightblue" points="790.42,-80.89 800.82,-82.94 793.97,-74.86 790.42,-80.89"/>
</g>
<!-- Node3 -->
<g id="node3" class="node">
<title>Node3</title>
<g id="a_node3"><a xlink:href="class_minion_stats.html#a6d9ddd98313b1be90a14a331602409bf" target="_top" xlink:title="When this entity dies, it gives to the killer this bounty">
<polygon fill="none" stroke="black" points="441,-316.5 441,-335.5 569,-335.5 569,-316.5 441,-316.5"/>
<text text-anchor="middle" x="505" y="-323.5" font-family="Helvetica,sans-Serif" font-size="10.00">MinionStats.GiveRewards</text>
</a>
</g>
</g>
<!-- Node2&#45;&gt;Node3 -->
<g id="edge2" class="edge">
<title>Node2&#45;&gt;Node3</title>
<path fill="none" stroke="midnightblue" d="M646.75,-265.82C629.57,-278.55 603.83,-296.07 579,-307 570.49,-310.75 561.09,-313.88 551.94,-316.44"/>
<polygon fill="midnightblue" stroke="midnightblue" points="649.03,-268.48 654.9,-259.65 644.81,-262.89 649.03,-268.48"/>
</g>
<!-- Node5 -->
<g id="node5" class="node">
<title>Node5</title>
<g id="a_node5"><a xlink:href="class_turret_stats.html#abeb56bb247ac9247caff0e93a4a1dc68" target="_top" xlink:title="When this entity dies, it gives to the killer this bounty">
<polygon fill="none" stroke="black" points="443,-278.5 443,-297.5 567,-297.5 567,-278.5 443,-278.5"/>
<text text-anchor="middle" x="505" y="-285.5" font-family="Helvetica,sans-Serif" font-size="10.00">TurretStats.GiveRewards</text>
</a>
</g>
</g>
<!-- Node2&#45;&gt;Node5 -->
<g id="edge4" class="edge">
<title>Node2&#45;&gt;Node5</title>
<path fill="none" stroke="midnightblue" d="M616.6,-261.9C593.97,-267.24 567.63,-273.45 546.33,-278.48"/>
<polygon fill="midnightblue" stroke="midnightblue" points="617.44,-265.29 626.37,-259.59 615.84,-258.48 617.44,-265.29"/>
</g>
<!-- Node7 -->
<g id="node7" class="node">
<title>Node7</title>
<g id="a_node7"><a xlink:href="class_player_stats.html#abecc5e0421296d745f700eee2a26adf3" target="_top" xlink:title="When this entity dies, it gives to the killer this bounty">
<polygon fill="none" stroke="black" points="441.5,-240.5 441.5,-259.5 568.5,-259.5 568.5,-240.5 441.5,-240.5"/>
<text text-anchor="middle" x="505" y="-247.5" font-family="Helvetica,sans-Serif" font-size="10.00">PlayerStats.GiveRewards</text>
</a>
</g>
</g>
<!-- Node2&#45;&gt;Node7 -->
<g id="edge6" class="edge">
<title>Node2&#45;&gt;Node7</title>
<path fill="none" stroke="midnightblue" d="M610.34,-250C596.85,-250 582.38,-250 568.64,-250"/>
<polygon fill="midnightblue" stroke="midnightblue" points="610.43,-253.5 620.43,-250 610.43,-246.5 610.43,-253.5"/>
</g>
<!-- Node8 -->
<g id="node8" class="node">
<title>Node8</title>
<g id="a_node8"><a xlink:href="class_player_stats.html#a15175185aaa4f8290e5148640f0ff80a" target="_top" xlink:title=" ">
<polygon fill="none" stroke="black" points="454.5,-202.5 454.5,-221.5 555.5,-221.5 555.5,-202.5 454.5,-202.5"/>
<text text-anchor="middle" x="505" y="-209.5" font-family="Helvetica,sans-Serif" font-size="10.00">PlayerStats.Update</text>
</a>
</g>
</g>
<!-- Node2&#45;&gt;Node8 -->
<g id="edge7" class="edge">
<title>Node2&#45;&gt;Node8</title>
<path fill="none" stroke="midnightblue" d="M616.6,-238.1C593.97,-232.76 567.63,-226.55 546.33,-221.52"/>
<polygon fill="midnightblue" stroke="midnightblue" points="615.84,-241.52 626.37,-240.41 617.44,-234.71 615.84,-241.52"/>
</g>
<!-- Node4 -->
<g id="node4" class="node">
<title>Node4</title>
<g id="a_node4"><a xlink:href="class_minion_stats.html#a5366cb256edc6dc42f01c2907ee14e7a" target="_top" xlink:title="Function that implements what is done when this entity dies.">
<polygon fill="none" stroke="black" points="290,-316.5 290,-335.5 376,-335.5 376,-316.5 290,-316.5"/>
<text text-anchor="middle" x="333" y="-323.5" font-family="Helvetica,sans-Serif" font-size="10.00">MinionStats.Die</text>
</a>
</g>
</g>
<!-- Node3&#45;&gt;Node4 -->
<g id="edge3" class="edge">
<title>Node3&#45;&gt;Node4</title>
<path fill="none" stroke="midnightblue" d="M430.49,-326C411.93,-326 392.62,-326 376.2,-326"/>
<polygon fill="midnightblue" stroke="midnightblue" points="430.7,-329.5 440.7,-326 430.7,-322.5 430.7,-329.5"/>
</g>
<!-- Node6 -->
<g id="node6" class="node">
<title>Node6</title>
<g id="a_node6"><a xlink:href="class_turret_stats.html#afba2a2bb8d56fba966bb1c8ff069b63a" target="_top" xlink:title="Function that implements what is done when this entity dies.">
<polygon fill="none" stroke="black" points="292,-278.5 292,-297.5 374,-297.5 374,-278.5 292,-278.5"/>
<text text-anchor="middle" x="333" y="-285.5" font-family="Helvetica,sans-Serif" font-size="10.00">TurretStats.Die</text>
</a>
</g>
</g>
<!-- Node5&#45;&gt;Node6 -->
<g id="edge5" class="edge">
<title>Node5&#45;&gt;Node6</title>
<path fill="none" stroke="midnightblue" d="M432.6,-288C412.59,-288 391.55,-288 374.07,-288"/>
<polygon fill="midnightblue" stroke="midnightblue" points="432.63,-291.5 442.63,-288 432.63,-284.5 432.63,-291.5"/>
</g>
<!-- Node10 -->
<g id="node10" class="node">
<title>Node10</title>
<g id="a_node10"><a xlink:href="class_current_item_shop.html#ac931da08dc792088bbb913a1db71cf27" target="_top" xlink:title=" ">
<polygon fill="none" stroke="black" points="434.5,-164.5 434.5,-183.5 575.5,-183.5 575.5,-164.5 434.5,-164.5"/>
<text text-anchor="middle" x="505" y="-171.5" font-family="Helvetica,sans-Serif" font-size="10.00">CurrentItemShop.BuyCurrent</text>
</a>
</g>
</g>
<!-- Node9&#45;&gt;Node10 -->
<g id="edge9" class="edge">
<title>Node9&#45;&gt;Node10</title>
<path fill="none" stroke="midnightblue" d="M616.6,-147.9C593.97,-153.24 567.63,-159.45 546.33,-164.48"/>
<polygon fill="midnightblue" stroke="midnightblue" points="617.44,-151.29 626.37,-145.59 615.84,-144.48 617.44,-151.29"/>
</g>
<!-- Node11 -->
<g id="node11" class="node">
<title>Node11</title>
<g id="a_node11"><a xlink:href="class_item_u_i.html#a7989b50db532215f7732954841b6ae4d" target="_top" xlink:title=" ">
<polygon fill="none" stroke="black" points="463.5,-126.5 463.5,-145.5 546.5,-145.5 546.5,-126.5 463.5,-126.5"/>
<text text-anchor="middle" x="505" y="-133.5" font-family="Helvetica,sans-Serif" font-size="10.00">ItemUI.BuyItem</text>
</a>
</g>
</g>
<!-- Node9&#45;&gt;Node11 -->
<g id="edge10" class="edge">
<title>Node9&#45;&gt;Node11</title>
<path fill="none" stroke="midnightblue" d="M610.73,-136C589.63,-136 566.08,-136 546.66,-136"/>
<polygon fill="midnightblue" stroke="midnightblue" points="610.86,-139.5 620.86,-136 610.86,-132.5 610.86,-139.5"/>
</g>
<!-- Node12 -->
<g id="node12" class="node">
<title>Node12</title>
<g id="a_node12"><a xlink:href="class_item_u_i.html#a2b89b23e671541d302225044a9d9de6f" target="_top" xlink:title=" ">
<polygon fill="none" stroke="black" points="276.5,-126.5 276.5,-145.5 389.5,-145.5 389.5,-126.5 276.5,-126.5"/>
<text text-anchor="middle" x="333" y="-133.5" font-family="Helvetica,sans-Serif" font-size="10.00">ItemUI.OnPointerClick</text>
</a>
</g>
</g>
<!-- Node11&#45;&gt;Node12 -->
<g id="edge11" class="edge">
<title>Node11&#45;&gt;Node12</title>
<path fill="none" stroke="midnightblue" d="M453.15,-136C433.19,-136 410.22,-136 389.81,-136"/>
<polygon fill="midnightblue" stroke="midnightblue" points="453.28,-139.5 463.28,-136 453.28,-132.5 453.28,-139.5"/>
</g>
<!-- Node14 -->
<g id="node14" class="node">
<title>Node14</title>
<g id="a_node14"><a xlink:href="class_player_stats.html#ae874ab5cbb490cbdcf3f5613b8bc2240" target="_top" xlink:title="Initialize the actual Stats of the Player.">
<polygon fill="none" stroke="black" points="452,-88.5 452,-107.5 558,-107.5 558,-88.5 452,-88.5"/>
<text text-anchor="middle" x="505" y="-95.5" font-family="Helvetica,sans-Serif" font-size="10.00">PlayerStats.Initialize</text>
</a>
</g>
</g>
<!-- Node13&#45;&gt;Node14 -->
<g id="edge13" class="edge">
<title>Node13&#45;&gt;Node14</title>
<path fill="none" stroke="midnightblue" d="M610.86,-98C593.71,-98 574.93,-98 558.06,-98"/>
<polygon fill="midnightblue" stroke="midnightblue" points="611.29,-101.5 621.29,-98 611.29,-94.5 611.29,-101.5"/>
</g>
<!-- Node15 -->
<g id="node15" class="node">
<title>Node15</title>
<g id="a_node15"><a xlink:href="class_player_controller.html#a75e94e4fd555e57e55ab4b7e54024dcf" target="_top" xlink:title="Initialize the PlayerController.">
<polygon fill="none" stroke="black" points="271,-88.5 271,-107.5 395,-107.5 395,-88.5 271,-88.5"/>
<text text-anchor="middle" x="333" y="-95.5" font-family="Helvetica,sans-Serif" font-size="10.00">PlayerController.Initialize</text>
</a>
</g>
</g>
<!-- Node14&#45;&gt;Node15 -->
<g id="edge14" class="edge">
<title>Node14&#45;&gt;Node15</title>
<path fill="none" stroke="midnightblue" d="M441.35,-98C426.27,-98 410.17,-98 395.16,-98"/>
<polygon fill="midnightblue" stroke="midnightblue" points="441.61,-101.5 451.61,-98 441.61,-94.5 441.61,-101.5"/>
</g>
<!-- Node16 -->
<g id="node16" class="node">
<title>Node16</title>
<g id="a_node16"><a xlink:href="class_model_sync.html#ab8359f73ae31a7f926c80ebcd7e9444a" target="_top" xlink:title="This starts all the initialization chain for the player.">
<polygon fill="none" stroke="black" points="125,-88.5 125,-107.5 235,-107.5 235,-88.5 125,-88.5"/>
<text text-anchor="middle" x="180" y="-95.5" font-family="Helvetica,sans-Serif" font-size="10.00">ModelSync.DoEnable</text>
</a>
</g>
</g>
<!-- Node15&#45;&gt;Node16 -->
<g id="edge15" class="edge">
<title>Node15&#45;&gt;Node16</title>
<path fill="none" stroke="midnightblue" d="M260.58,-98C252,-98 243.36,-98 235.09,-98"/>
<polygon fill="midnightblue" stroke="midnightblue" points="260.58,-101.5 270.58,-98 260.58,-94.5 260.58,-101.5"/>
</g>
<!-- Node17 -->
<g id="node17" class="node">
<title>Node17</title>
<g id="a_node17"><a xlink:href="class_model_sync.html#a47be08ee3bbd2a173514e74da3dd65cb" target="_top" xlink:title=" ">
<polygon fill="none" stroke="black" points="0,-88.5 0,-107.5 89,-107.5 89,-88.5 0,-88.5"/>
<text text-anchor="middle" x="44.5" y="-95.5" font-family="Helvetica,sans-Serif" font-size="10.00">ModelSync.Start</text>
</a>
</g>
</g>
<!-- Node16&#45;&gt;Node17 -->
<g id="edge16" class="edge">
<title>Node16&#45;&gt;Node17</title>
<path fill="none" stroke="midnightblue" d="M114.62,-98C105.98,-98 97.29,-98 89.12,-98"/>
<polygon fill="midnightblue" stroke="midnightblue" points="114.7,-101.5 124.7,-98 114.7,-94.5 114.7,-101.5"/>
</g>
<!-- Node19 -->
<g id="node19" class="node">
<title>Node19</title>
<g id="a_node19"><a xlink:href="class_sellable_item_u_i.html#acf95fddf5bd754193101c046807a195c" target="_top" xlink:title=" ">
<polygon fill="none" stroke="black" points="442.5,-39 442.5,-69 567.5,-69 567.5,-39 442.5,-39"/>
<text text-anchor="start" x="450.5" y="-57" font-family="Helvetica,sans-Serif" font-size="10.00">SellableItemUI.OnPointer</text>
<text text-anchor="middle" x="505" y="-46" font-family="Helvetica,sans-Serif" font-size="10.00">Click</text>
</a>
</g>
</g>
<!-- Node18&#45;&gt;Node19 -->
<g id="edge18" class="edge">
<title>Node18&#45;&gt;Node19</title>
<path fill="none" stroke="midnightblue" d="M611.29,-55.96C597.24,-55.7 582.08,-55.42 567.75,-55.15"/>
<polygon fill="midnightblue" stroke="midnightblue" points="611.23,-59.46 621.29,-56.15 611.36,-52.46 611.23,-59.46"/>
</g>
<!-- Node21 -->
<g id="node21" class="node">
<title>Node21</title>
<g id="a_node21"><a xlink:href="class_respawn_canvas.html#aeb8465a7dc3b9f4fe6a36afc1c8bcf9a" target="_top" xlink:title=" ">
<polygon fill="none" stroke="black" points="431,-0.5 431,-19.5 579,-19.5 579,-0.5 431,-0.5"/>
<text text-anchor="middle" x="505" y="-7.5" font-family="Helvetica,sans-Serif" font-size="10.00">RespawnCanvas.BuyRespawn</text>
</a>
</g>
</g>
<!-- Node20&#45;&gt;Node21 -->
<g id="edge20" class="edge">
<title>Node20&#45;&gt;Node21</title>
<path fill="none" stroke="midnightblue" d="M604.66,-11.84C596.28,-11.68 587.62,-11.52 579.07,-11.36"/>
<polygon fill="midnightblue" stroke="midnightblue" points="604.66,-15.34 614.73,-12.03 604.79,-8.34 604.66,-15.34"/>
</g>
</g>
</svg>
