<?xml version="1.0" encoding="UTF-8" standalone="no"?>
<!DOCTYPE svg PUBLIC "-//W3C//DTD SVG 1.1//EN"
 "http://www.w3.org/Graphics/SVG/1.1/DTD/svg11.dtd">
<!-- Generated by graphviz version 2.47.3 (20210619.1520)
 -->
<!-- Title: Photon.Pun.MonoBehaviourPunCallbacks Pages: 1 -->
<svg width="698pt" height="260pt"
 viewBox="0.00 0.00 698.00 260.00" xmlns="http://www.w3.org/2000/svg" xmlns:xlink="http://www.w3.org/1999/xlink">
<g id="graph0" class="graph" transform="scale(1 1) rotate(0) translate(4 256)">
<title>Photon.Pun.MonoBehaviourPunCallbacks</title>
<polygon fill="white" stroke="transparent" points="-4,4 -4,-256 694,-256 694,4 -4,4"/>
<!-- Node1 -->
<g id="node1" class="node">
<title>Node1</title>
<g id="a_node1"><a xlink:title="This class provides a .photonView and all callbacks/events that PUN can call.">
<polygon fill="#bfbfbf" stroke="black" points="553,-109 553,-139 690,-139 690,-109 553,-109"/>
<text text-anchor="start" x="561" y="-127" font-family="Helvetica,sans-Serif" font-size="10.00">Photon.Pun.MonoBehaviour</text>
<text text-anchor="middle" x="621.5" y="-116" font-family="Helvetica,sans-Serif" font-size="10.00">PunCallbacks</text>
</a>
</g>
</g>
<!-- Node2 -->
<g id="node2" class="node">
<title>Node2</title>
<g id="a_node2"><a xlink:href="class_photon_1_1_pun_1_1_mono_behaviour_pun.xhtml" target="_top" xlink:title="This class adds the property photonView, while logging a warning when your game still uses the networ...">
<polygon fill="white" stroke="black" points="406,-228.5 406,-247.5 506,-247.5 506,-228.5 406,-228.5"/>
<text text-anchor="middle" x="456" y="-235.5" font-family="Helvetica,sans-Serif" font-size="10.00">MonoBehaviourPun</text>
</a>
</g>
</g>
<!-- Node2&#45;&gt;Node1 -->
<g id="edge1" class="edge">
<title>Node2&#45;&gt;Node1</title>
<path fill="none" stroke="midnightblue" d="M504.36,-224.77C508.4,-223.04 512.33,-221.12 516,-219 553.56,-197.26 589.14,-160.17 607.52,-139.35"/>
<polygon fill="midnightblue" stroke="midnightblue" points="502.91,-221.58 494.85,-228.46 505.44,-228.11 502.91,-221.58"/>
</g>
<!-- Node3 -->
<g id="node3" class="node">
<title>Node3</title>
<g id="a_node3"><a xlink:title=" ">
<polygon fill="white" stroke="#bfbfbf" points="18,-232.5 18,-251.5 101,-251.5 101,-232.5 18,-232.5"/>
<text text-anchor="middle" x="59.5" y="-239.5" font-family="Helvetica,sans-Serif" font-size="10.00">MonoBehaviour</text>
</a>
</g>
</g>
<!-- Node3&#45;&gt;Node2 -->
<g id="edge2" class="edge">
<title>Node3&#45;&gt;Node2</title>
<path fill="none" stroke="midnightblue" d="M111.11,-241.99C173.77,-241.9 283.76,-241.52 378,-240 386.96,-239.86 396.5,-239.65 405.71,-239.42"/>
<polygon fill="midnightblue" stroke="midnightblue" points="111.1,-238.49 101.1,-242 111.1,-245.49 111.1,-238.49"/>
</g>
<!-- Node4 -->
<g id="node4" class="node">
<title>Node4</title>
<g id="a_node4"><a xlink:href="class_photon_1_1_pun_1_1_photon_view.xhtml" target="_top" xlink:title="A PhotonView identifies an object across the network (viewID) and configures how the controlling clie...">
<polygon fill="white" stroke="black" points="198,-206.5 198,-225.5 320,-225.5 320,-206.5 198,-206.5"/>
<text text-anchor="middle" x="259" y="-213.5" font-family="Helvetica,sans-Serif" font-size="10.00">Photon.Pun.PhotonView</text>
</a>
</g>
</g>
<!-- Node3&#45;&gt;Node4 -->
<g id="edge4" class="edge">
<title>Node3&#45;&gt;Node4</title>
<path fill="none" stroke="midnightblue" d="M111.56,-235.28C137.86,-231.82 170.1,-227.57 197.63,-223.95"/>
<polygon fill="midnightblue" stroke="midnightblue" points="110.88,-231.84 101.42,-236.61 111.79,-238.78 110.88,-231.84"/>
</g>
<!-- Node4&#45;&gt;Node2 -->
<g id="edge3" class="edge">
<title>Node4&#45;&gt;Node2</title>
<path fill="none" stroke="#9a32cd" stroke-dasharray="5,2" d="M330.22,-223.66C345.95,-225.4 362.55,-227.25 378,-229 386.96,-230.02 396.5,-231.12 405.71,-232.19"/>
<polygon fill="#9a32cd" stroke="#9a32cd" points="330.36,-220.15 320.04,-222.54 329.59,-227.11 330.36,-220.15"/>
<text text-anchor="middle" x="358" y="-232" font-family="Helvetica,sans-Serif" font-size="10.00"> pvCache</text>
</g>
<!-- Node5 -->
<g id="node5" class="node">
<title>Node5</title>
<g id="a_node5"><a xlink:href="class_photon_1_1_realtime_1_1_player.xhtml" target="_top" xlink:title="Summarizes a &quot;player&quot; within a room, identified (in that room) by ID (or &quot;actorNumber&quot;).">
<polygon fill="white" stroke="black" points="0,-182.5 0,-201.5 119,-201.5 119,-182.5 0,-182.5"/>
<text text-anchor="middle" x="59.5" y="-189.5" font-family="Helvetica,sans-Serif" font-size="10.00">Photon.Realtime.Player</text>
</a>
</g>
</g>
<!-- Node5&#45;&gt;Node4 -->
<g id="edge5" class="edge">
<title>Node5&#45;&gt;Node4</title>
<path fill="none" stroke="#9a32cd" stroke-dasharray="5,2" d="M129.32,-189.31C145.98,-189.56 163.69,-190.58 180,-193 197.87,-195.66 217.37,-201.41 232.41,-206.49"/>
<polygon fill="#9a32cd" stroke="#9a32cd" points="129.12,-185.81 119.1,-189.25 129.08,-192.81 129.12,-185.81"/>
<text text-anchor="middle" x="158.5" y="-207" font-family="Helvetica,sans-Serif" font-size="10.00"> controller</text>
<text text-anchor="middle" x="158.5" y="-196" font-family="Helvetica,sans-Serif" font-size="10.00">owner</text>
</g>
<!-- Node6 -->
<g id="node6" class="node">
<title>Node6</title>
<g id="a_node6"><a xlink:href="interface_photon_1_1_realtime_1_1_i_connection_callbacks.xhtml" target="_top" xlink:title="Collection of &quot;organizational&quot; callbacks for the Realtime Api to cover: Connection and Regions.">
<polygon fill="white" stroke="black" points="401,-190.5 401,-209.5 511,-209.5 511,-190.5 401,-190.5"/>
<text text-anchor="middle" x="456" y="-197.5" font-family="Helvetica,sans-Serif" font-size="10.00">IConnectionCallbacks</text>
</a>
</g>
</g>
<!-- Node6&#45;&gt;Node1 -->
<g id="edge6" class="edge">
<title>Node6&#45;&gt;Node1</title>
<path fill="none" stroke="midnightblue" d="M500.13,-187.15C505.53,-185.24 510.93,-183.18 516,-181 544.3,-168.85 575.05,-151.54 595.82,-139.18"/>
<polygon fill="midnightblue" stroke="midnightblue" points="498.83,-183.9 490.48,-190.42 501.07,-190.53 498.83,-183.9"/>
</g>
<!-- Node7 -->
<g id="node7" class="node">
<title>Node7</title>
<g id="a_node7"><a xlink:href="interface_photon_1_1_realtime_1_1_i_matchmaking_callbacks.xhtml" target="_top" xlink:title="Collection of &quot;organizational&quot; callbacks for the Realtime Api to cover Matchmaking.">
<polygon fill="white" stroke="black" points="396,-152.5 396,-171.5 516,-171.5 516,-152.5 396,-152.5"/>
<text text-anchor="middle" x="456" y="-159.5" font-family="Helvetica,sans-Serif" font-size="10.00">IMatchmakingCallbacks</text>
</a>
</g>
</g>
<!-- Node7&#45;&gt;Node1 -->
<g id="edge7" class="edge">
<title>Node7&#45;&gt;Node1</title>
<path fill="none" stroke="midnightblue" d="M508.36,-150.06C523.37,-146.57 539.98,-142.71 555.7,-139.06"/>
<polygon fill="midnightblue" stroke="midnightblue" points="507.21,-146.74 498.26,-152.41 508.79,-153.56 507.21,-146.74"/>
</g>
<!-- Node8 -->
<g id="node8" class="node">
<title>Node8</title>
<g id="a_node8"><a xlink:href="interface_photon_1_1_realtime_1_1_i_in_room_callbacks.xhtml" target="_top" xlink:title="Collection of &quot;in room&quot; callbacks for the Realtime Api to cover: Players entering or leaving,...">
<polygon fill="white" stroke="black" points="408.5,-114.5 408.5,-133.5 503.5,-133.5 503.5,-114.5 408.5,-114.5"/>
<text text-anchor="middle" x="456" y="-121.5" font-family="Helvetica,sans-Serif" font-size="10.00">IInRoomCallbacks</text>
</a>
</g>
</g>
<!-- Node8&#45;&gt;Node1 -->
<g id="edge8" class="edge">
<title>Node8&#45;&gt;Node1</title>
<path fill="none" stroke="midnightblue" d="M514.14,-124C526.67,-124 540.04,-124 552.93,-124"/>
<polygon fill="midnightblue" stroke="midnightblue" points="513.85,-120.5 503.85,-124 513.85,-127.5 513.85,-120.5"/>
</g>
<!-- Node9 -->
<g id="node9" class="node">
<title>Node9</title>
<g id="a_node9"><a xlink:href="interface_photon_1_1_realtime_1_1_i_lobby_callbacks.xhtml" target="_top" xlink:title="Collection of &quot;organizational&quot; callbacks for the Realtime Api to cover the Lobby.">
<polygon fill="white" stroke="black" points="412,-76.5 412,-95.5 500,-95.5 500,-76.5 412,-76.5"/>
<text text-anchor="middle" x="456" y="-83.5" font-family="Helvetica,sans-Serif" font-size="10.00">ILobbyCallbacks</text>
</a>
</g>
</g>
<!-- Node9&#45;&gt;Node1 -->
<g id="edge9" class="edge">
<title>Node9&#45;&gt;Node1</title>
<path fill="none" stroke="midnightblue" d="M508.36,-97.94C523.37,-101.43 539.98,-105.29 555.7,-108.94"/>
<polygon fill="midnightblue" stroke="midnightblue" points="508.79,-94.44 498.26,-95.59 507.21,-101.26 508.79,-94.44"/>
</g>
<!-- Node10 -->
<g id="node10" class="node">
<title>Node10</title>
<g id="a_node10"><a xlink:href="interface_photon_1_1_realtime_1_1_i_web_rpc_callback.xhtml" target="_top" xlink:title="Interface for &quot;WebRpc&quot; callbacks for the Realtime Api.">
<polygon fill="white" stroke="black" points="409,-38.5 409,-57.5 503,-57.5 503,-38.5 409,-38.5"/>
<text text-anchor="middle" x="456" y="-45.5" font-family="Helvetica,sans-Serif" font-size="10.00">IWebRpcCallback</text>
</a>
</g>
</g>
<!-- Node10&#45;&gt;Node1 -->
<g id="edge10" class="edge">
<title>Node10&#45;&gt;Node1</title>
<path fill="none" stroke="midnightblue" d="M500.13,-60.85C505.53,-62.76 510.93,-64.82 516,-67 544.3,-79.15 575.05,-96.46 595.82,-108.82"/>
<polygon fill="midnightblue" stroke="midnightblue" points="501.07,-57.47 490.48,-57.58 498.83,-64.1 501.07,-57.47"/>
</g>
<!-- Node11 -->
<g id="node11" class="node">
<title>Node11</title>
<g id="a_node11"><a xlink:href="interface_photon_1_1_realtime_1_1_i_error_info_callback.xhtml" target="_top" xlink:title="Interface for EventCode.ErrorInfo event callback for the Realtime Api.">
<polygon fill="white" stroke="black" points="410,-0.5 410,-19.5 502,-19.5 502,-0.5 410,-0.5"/>
<text text-anchor="middle" x="456" y="-7.5" font-family="Helvetica,sans-Serif" font-size="10.00">IErrorInfoCallback</text>
</a>
</g>
</g>
<!-- Node11&#45;&gt;Node1 -->
<g id="edge11" class="edge">
<title>Node11&#45;&gt;Node1</title>
<path fill="none" stroke="midnightblue" d="M504.36,-23.23C508.4,-24.96 512.33,-26.88 516,-29 553.56,-50.74 589.14,-87.83 607.52,-108.65"/>
<polygon fill="midnightblue" stroke="midnightblue" points="505.44,-19.89 494.85,-19.54 502.91,-26.42 505.44,-19.89"/>
</g>
</g>
</svg>
