<?xml version="1.0" encoding="UTF-8" standalone="no"?>
<!DOCTYPE svg PUBLIC "-//W3C//DTD SVG 1.1//EN"
 "http://www.w3.org/Graphics/SVG/1.1/DTD/svg11.dtd">
<!-- Generated by graphviz version 2.50.0 (20211204.2007)
 -->
<!-- Title: PlayerStats.RegenManaRPC Pages: 1 -->
<svg width="504pt" height="78pt"
 viewBox="0.00 0.00 504.00 77.50" xmlns="http://www.w3.org/2000/svg" xmlns:xlink="http://www.w3.org/1999/xlink">
<g id="graph0" class="graph" transform="scale(1 1) rotate(0) translate(4 73.5)">
<title>PlayerStats.RegenManaRPC</title>
<polygon fill="white" stroke="transparent" points="-4,4 -4,-73.5 500,-73.5 500,4 -4,4"/>
<!-- Node1 -->
<g id="node1" class="node">
<title>Node1</title>
<g id="a_node1"><a xlink:title=" ">
<polygon fill="#bfbfbf" stroke="black" points="0,-22.5 0,-41.5 143,-41.5 143,-22.5 0,-22.5"/>
<text text-anchor="middle" x="71.5" y="-29.5" font-family="Helvetica,sans-Serif" font-size="10.00">PlayerStats.RegenManaRPC</text>
</a>
</g>
</g>
<!-- Node2 -->
<g id="node2" class="node">
<title>Node2</title>
<g id="a_node2"><a xlink:href="class_player_u_i_controller.html#ac7bf7455ce00b144f6a1678e524819b2" target="_top" xlink:title="Sets the current MP value to the Image.">
<polygon fill="white" stroke="black" points="192.5,-39 192.5,-69 320.5,-69 320.5,-39 192.5,-39"/>
<text text-anchor="start" x="200.5" y="-57" font-family="Helvetica,sans-Serif" font-size="10.00">PlayerUIController.Update</text>
<text text-anchor="middle" x="256.5" y="-46" font-family="Helvetica,sans-Serif" font-size="10.00">CurrentMana</text>
</a>
</g>
</g>
<!-- Node1&#45;&gt;Node2 -->
<g id="edge1" class="edge">
<title>Node1&#45;&gt;Node2</title>
<path fill="none" stroke="midnightblue" d="M143.25,-40.51C156.03,-42.04 169.38,-43.65 182.22,-45.19"/>
<polygon fill="midnightblue" stroke="midnightblue" points="182.05,-48.7 192.4,-46.41 182.89,-41.75 182.05,-48.7"/>
</g>
<!-- Node4 -->
<g id="node4" class="node">
<title>Node4</title>
<g id="a_node4"><a xlink:href="class_player_h_u_d_controller.html#a09d27238c0e659b8f98828367c7622ba" target="_top" xlink:title=" ">
<polygon fill="white" stroke="black" points="179,-0.5 179,-19.5 334,-19.5 334,-0.5 179,-0.5"/>
<text text-anchor="middle" x="256.5" y="-7.5" font-family="Helvetica,sans-Serif" font-size="10.00">PlayerHUDController.UpdateMP</text>
</a>
</g>
</g>
<!-- Node1&#45;&gt;Node4 -->
<g id="edge3" class="edge">
<title>Node1&#45;&gt;Node4</title>
<path fill="none" stroke="midnightblue" d="M143.25,-23.49C151.64,-22.49 160.27,-21.45 168.84,-20.42"/>
<polygon fill="midnightblue" stroke="midnightblue" points="169.35,-23.88 178.86,-19.21 168.52,-16.93 169.35,-23.88"/>
</g>
<!-- Node3 -->
<g id="node3" class="node">
<title>Node3</title>
<g id="a_node3"><a xlink:href="class_utils.html#a459472171f68c903c975020cc5b02fee" target="_top" xlink:title="Calculates the actual normalized fill amount for the image.">
<polygon fill="white" stroke="black" points="370,-22.5 370,-41.5 496,-41.5 496,-22.5 370,-22.5"/>
<text text-anchor="middle" x="433" y="-29.5" font-family="Helvetica,sans-Serif" font-size="10.00">Utils.CalculateFillAmount</text>
</a>
</g>
</g>
<!-- Node2&#45;&gt;Node3 -->
<g id="edge2" class="edge">
<title>Node2&#45;&gt;Node3</title>
<path fill="none" stroke="midnightblue" d="M320.99,-46C333.53,-44.42 346.77,-42.75 359.57,-41.13"/>
<polygon fill="midnightblue" stroke="midnightblue" points="360.24,-44.58 369.72,-39.85 359.36,-37.63 360.24,-44.58"/>
</g>
<!-- Node4&#45;&gt;Node3 -->
<g id="edge4" class="edge">
<title>Node4&#45;&gt;Node3</title>
<path fill="none" stroke="midnightblue" d="M333.02,-19.52C341.99,-20.65 351.13,-21.8 360.04,-22.93"/>
<polygon fill="midnightblue" stroke="midnightblue" points="359.64,-26.4 370,-24.18 360.51,-19.46 359.64,-26.4"/>
</g>
</g>
</svg>
