<?xml version="1.0" encoding="UTF-8" standalone="no"?>
<!DOCTYPE svg PUBLIC "-//W3C//DTD SVG 1.1//EN"
 "http://www.w3.org/Graphics/SVG/1.1/DTD/svg11.dtd">
<!-- Generated by graphviz version 2.47.3 (20210619.1520)
 -->
<!-- Title: PlayerStats Pages: 1 -->
<!--zoomable 593 -->
<svg id="main" version="1.1" xmlns="http://www.w3.org/2000/svg" xmlns:xlink="http://www.w3.org/1999/xlink" xml:space="preserve" onload="init(evt)">
<style type="text/css"><![CDATA[
.edge:hover path { stroke: red; }
.edge:hover polygon { stroke: red; fill: red; }
]]></style>
<script type="text/javascript"><![CDATA[
var edges = document.getElementsByTagName('g');
if (edges && edges.length) {
  for (var i=0;i<edges.length;i++) {
    if (edges[i].id.substr(0,4)=='edge') {
      edges[i].setAttribute('class','edge');
    }
  }
}
]]></script>
        <defs>
                <circle id="rim" cx="0" cy="0" r="7"/>
                <circle id="rim2" cx="0" cy="0" r="3.5"/>
                <g id="zoomPlus">
                        <use xlink:href="#rim" fill="#404040">
                                <set attributeName="fill" to="#808080" begin="zoomplus.mouseover" end="zoomplus.mouseout"/>
                        </use>
                        <path d="M-4,0h8M0,-4v8" fill="none" stroke="white" stroke-width="1.5" pointer-events="none"/>
                </g>
                <g id="zoomMin">
                        <use xlink:href="#rim" fill="#404040">
                                <set attributeName="fill" to="#808080" begin="zoomminus.mouseover" end="zoomminus.mouseout"/>
                        </use>
                        <path d="M-4,0h8" fill="none" stroke="white" stroke-width="1.5" pointer-events="none"/>
                </g>
                <g id="dirArrow">
                        <path fill="none" stroke="white" stroke-width="1.5" d="M0,-3.0v7 M-2.5,-0.5L0,-3.0L2.5,-0.5"/>
                </g>
               <g id="resetDef">
                       <use xlink:href="#rim2" fill="#404040">
                               <set attributeName="fill" to="#808080" begin="reset.mouseover" end="reset.mouseout"/>
                       </use>
               </g>
        </defs>

<script type="text/javascript">
var viewWidth = 1229;
var viewHeight = 593;
var sectionId = 'dynsection-1';
</script>
<script xlink:href="svgpan.js"/>
<svg id="graph" class="graph">
<g id="viewport">
<title>PlayerStats</title>
<!-- Node1 -->
<g id="node1" class="node">
<title>Node1</title>
<g id="a_node1"><a xlink:title="Player Stats is the main class that controls all the Player Statistics in all time in the game execut...">
<polygon fill="#bfbfbf" stroke="black" points="572.5,-227.5 572.5,-246.5 640.5,-246.5 640.5,-227.5 572.5,-227.5"/>
<text text-anchor="middle" x="606.5" y="-234.5" font-family="Helvetica,sans-Serif" font-size="10.00">PlayerStats</text>
</a>
</g>
</g>
<!-- Node7 -->
<g id="node7" class="node">
<title>Node7</title>
<g id="a_node7"><a xlink:href="class_player_controller.html" target="_top" xlink:title="Player Controller is the main class that handles all the movement of the Player.">
<polygon fill="none" stroke="black" points="755,-185.5 755,-204.5 841,-204.5 841,-185.5 755,-185.5"/>
<text text-anchor="middle" x="798" y="-192.5" font-family="Helvetica,sans-Serif" font-size="10.00">PlayerController</text>
</a>
</g>
</g>
<!-- Node1&#45;&gt;Node7 -->
<g id="edge26" class="edge">
<title>Node1&#45;&gt;Node7</title>
<path fill="none" stroke="#9a32cd" stroke-dasharray="5,2" d="M645.77,-224.52C652.47,-222.54 659.41,-220.61 666,-219 695.42,-211.8 729.04,-205.69 754.85,-201.43"/>
<polygon fill="#9a32cd" stroke="#9a32cd" points="644.72,-221.18 636.18,-227.44 646.76,-227.88 644.72,-221.18"/>
<text text-anchor="middle" x="701.5" y="-222" font-family="Helvetica,sans-Serif" font-size="10.00"> stats</text>
</g>
<!-- Node8 -->
<g id="node8" class="node">
<title>Node8</title>
<g id="a_node8"><a xlink:href="class_ability_cooldown.html" target="_top" xlink:title=" ">
<polygon fill="none" stroke="black" points="953,-272.5 953,-291.5 1039,-291.5 1039,-272.5 953,-272.5"/>
<text text-anchor="middle" x="996" y="-279.5" font-family="Helvetica,sans-Serif" font-size="10.00">AbilityCooldown</text>
</a>
</g>
</g>
<!-- Node1&#45;&gt;Node8 -->
<g id="edge22" class="edge">
<title>Node1&#45;&gt;Node8</title>
<path fill="none" stroke="#9a32cd" stroke-dasharray="5,2" d="M645.07,-249.56C651.98,-251.58 659.17,-253.5 666,-255 750.54,-273.57 772.66,-274.89 859,-281 890.44,-283.22 926.08,-283.4 952.98,-283.06"/>
<polygon fill="#9a32cd" stroke="#9a32cd" points="645.81,-246.12 635.22,-246.55 643.77,-252.82 645.81,-246.12"/>
<text text-anchor="middle" x="798" y="-282" font-family="Helvetica,sans-Serif" font-size="10.00"> playerStats</text>
</g>
<!-- Node15 -->
<g id="node15" class="node">
<title>Node15</title>
<g id="a_node15"><a xlink:href="class_basic_attack.html" target="_top" xlink:title=" ">
<polygon fill="none" stroke="black" points="961,-99.5 961,-118.5 1031,-118.5 1031,-99.5 961,-99.5"/>
<text text-anchor="middle" x="996" y="-106.5" font-family="Helvetica,sans-Serif" font-size="10.00">BasicAttack</text>
</a>
</g>
</g>
<!-- Node1&#45;&gt;Node15 -->
<g id="edge31" class="edge">
<title>Node1&#45;&gt;Node15</title>
<path fill="none" stroke="#9a32cd" stroke-dasharray="5,2" d="M619.53,-218.89C630.1,-204.37 646.78,-184.57 666,-173 761.22,-115.68 897.49,-108.27 960.56,-108.2"/>
<polygon fill="#9a32cd" stroke="#9a32cd" points="616.63,-216.92 613.77,-227.12 622.37,-220.94 616.63,-216.92"/>
<text text-anchor="middle" x="798" y="-136" font-family="Helvetica,sans-Serif" font-size="10.00"> stats</text>
</g>
<!-- Node16 -->
<g id="node16" class="node">
<title>Node16</title>
<g id="a_node16"><a xlink:href="class_inventory.html" target="_top" xlink:title=" ">
<polygon fill="none" stroke="black" points="770.5,-339.5 770.5,-358.5 825.5,-358.5 825.5,-339.5 770.5,-339.5"/>
<text text-anchor="middle" x="798" y="-346.5" font-family="Helvetica,sans-Serif" font-size="10.00">Inventory</text>
</a>
</g>
</g>
<!-- Node1&#45;&gt;Node16 -->
<g id="edge39" class="edge">
<title>Node1&#45;&gt;Node16</title>
<path fill="none" stroke="#9a32cd" stroke-dasharray="5,2" d="M626.36,-253.49C637.32,-262.37 651.75,-272.92 666,-280 695.48,-294.63 707.83,-285.77 737,-301 756.63,-311.25 776.03,-328.39 787.25,-339.17"/>
<polygon fill="#9a32cd" stroke="#9a32cd" points="628.31,-250.55 618.39,-246.82 623.82,-255.92 628.31,-250.55"/>
<text text-anchor="middle" x="701.5" y="-304" font-family="Helvetica,sans-Serif" font-size="10.00"> stats</text>
</g>
<!-- Node2 -->
<g id="node2" class="node">
<title>Node2</title>
<g id="a_node2"><a xlink:href="class_ability_affected_stats.html" target="_top" xlink:title=" ">
<polygon fill="none" stroke="black" points="385,-189.5 385,-208.5 487,-208.5 487,-189.5 385,-189.5"/>
<text text-anchor="middle" x="436" y="-196.5" font-family="Helvetica,sans-Serif" font-size="10.00">AbilityAffectedStats</text>
</a>
</g>
</g>
<!-- Node2&#45;&gt;Node1 -->
<g id="edge1" class="edge">
<title>Node2&#45;&gt;Node1</title>
<path fill="none" stroke="midnightblue" d="M489.6,-210.86C516.62,-216.96 548.73,-224.2 572.29,-229.51"/>
<polygon fill="midnightblue" stroke="midnightblue" points="490.04,-207.37 479.52,-208.59 488.5,-214.2 490.04,-207.37"/>
</g>
<!-- Node3 -->
<g id="node3" class="node">
<title>Node3</title>
<g id="a_node3"><a xlink:href="class_stats.html" target="_top" xlink:title="Base class Stats of the entity.">
<polygon fill="none" stroke="black" points="217.5,-163.5 217.5,-182.5 257.5,-182.5 257.5,-163.5 217.5,-163.5"/>
<text text-anchor="middle" x="237.5" y="-170.5" font-family="Helvetica,sans-Serif" font-size="10.00">Stats</text>
</a>
</g>
</g>
<!-- Node3&#45;&gt;Node2 -->
<g id="edge2" class="edge">
<title>Node3&#45;&gt;Node2</title>
<path fill="none" stroke="midnightblue" d="M267.79,-176.88C298.6,-180.95 347.67,-187.45 384.71,-192.35"/>
<polygon fill="midnightblue" stroke="midnightblue" points="268.07,-173.38 257.7,-175.54 267.15,-180.32 268.07,-173.38"/>
</g>
<!-- Node3&#45;&gt;Node15 -->
<g id="edge30" class="edge">
<title>Node3&#45;&gt;Node15</title>
<path fill="none" stroke="#9a32cd" stroke-dasharray="5,2" d="M267.86,-168.39C356.66,-154.74 630.34,-114.88 859,-105 892.75,-103.54 901.24,-103.88 935,-105 943.35,-105.28 952.34,-105.77 960.75,-106.32"/>
<polygon fill="#9a32cd" stroke="#9a32cd" points="267.08,-164.97 257.73,-169.95 268.15,-171.88 267.08,-164.97"/>
<text text-anchor="middle" x="606.5" y="-131" font-family="Helvetica,sans-Serif" font-size="10.00"> otherStats</text>
</g>
<!-- Node4 -->
<g id="node4" class="node">
<title>Node4</title>
<g id="a_node4"><a xlink:title=" ">
<polygon fill="none" stroke="#bfbfbf" points="13.5,-163.5 13.5,-182.5 96.5,-182.5 96.5,-163.5 13.5,-163.5"/>
<text text-anchor="middle" x="55" y="-170.5" font-family="Helvetica,sans-Serif" font-size="10.00">MonoBehaviour</text>
</a>
</g>
</g>
<!-- Node4&#45;&gt;Node3 -->
<g id="edge3" class="edge">
<title>Node4&#45;&gt;Node3</title>
<path fill="none" stroke="midnightblue" d="M106.55,-173C143.29,-173 191,-173 217.18,-173"/>
<polygon fill="midnightblue" stroke="midnightblue" points="106.51,-169.5 96.51,-173 106.51,-176.5 106.51,-169.5"/>
</g>
<!-- Node6 -->
<g id="node6" class="node">
<title>Node6</title>
<g id="a_node6"><a xlink:href="class_u_i_controller.html" target="_top" xlink:title=" ">
<polygon fill="none" stroke="black" points="204,-207.5 204,-226.5 271,-226.5 271,-207.5 204,-207.5"/>
<text text-anchor="middle" x="237.5" y="-214.5" font-family="Helvetica,sans-Serif" font-size="10.00">UIController</text>
</a>
</g>
</g>
<!-- Node4&#45;&gt;Node6 -->
<g id="edge6" class="edge">
<title>Node4&#45;&gt;Node6</title>
<path fill="none" stroke="midnightblue" d="M105.02,-184.95C136.38,-192.59 176.2,-202.3 203.75,-209.02"/>
<polygon fill="midnightblue" stroke="midnightblue" points="105.71,-181.52 95.17,-182.55 104.05,-188.32 105.71,-181.52"/>
</g>
<!-- Node4&#45;&gt;Node7 -->
<g id="edge8" class="edge">
<title>Node4&#45;&gt;Node7</title>
<path fill="none" stroke="midnightblue" d="M85.55,-159.51C120.74,-144.7 181.66,-123 236.5,-123 236.5,-123 236.5,-123 607.5,-123 676.83,-123 751.68,-165.64 782.49,-185.29"/>
<polygon fill="midnightblue" stroke="midnightblue" points="84.14,-156.31 76.34,-163.48 86.9,-162.74 84.14,-156.31"/>
</g>
<!-- Node4&#45;&gt;Node8 -->
<g id="edge10" class="edge">
<title>Node4&#45;&gt;Node8</title>
<path fill="none" stroke="midnightblue" d="M72.76,-190.01C86.62,-203.34 107.31,-221.64 128,-234 348.52,-365.68 413.63,-397.28 666,-445 804.73,-471.23 949.69,-330.04 986.24,-291.51"/>
<polygon fill="midnightblue" stroke="midnightblue" points="75.03,-187.33 65.45,-182.82 70.12,-192.32 75.03,-187.33"/>
</g>
<!-- Node12 -->
<g id="node12" class="node">
<title>Node12</title>
<g id="a_node12"><a xlink:href="class_ability_indicator.html" target="_top" xlink:title=" ">
<polygon fill="none" stroke="black" points="1141,-272.5 1141,-291.5 1221,-291.5 1221,-272.5 1141,-272.5"/>
<text text-anchor="middle" x="1181" y="-279.5" font-family="Helvetica,sans-Serif" font-size="10.00">AbilityIndicator</text>
</a>
</g>
</g>
<!-- Node4&#45;&gt;Node12 -->
<g id="edge17" class="edge">
<title>Node4&#45;&gt;Node12</title>
<path fill="none" stroke="midnightblue" d="M62.4,-153.73C72.37,-126.37 94.09,-76.22 128,-46 167.1,-11.15 184.12,0 236.5,0 236.5,0 236.5,0 997,0 1129.78,0 1171.09,-222.71 1178.64,-272.29"/>
<polygon fill="midnightblue" stroke="midnightblue" points="59.04,-152.73 59.04,-163.33 65.65,-155.04 59.04,-152.73"/>
</g>
<!-- Node4&#45;&gt;Node15 -->
<g id="edge28" class="edge">
<title>Node4&#45;&gt;Node15</title>
<path fill="none" stroke="midnightblue" d="M67.95,-154.95C93.89,-118.17 159.3,-38 236.5,-38 236.5,-38 236.5,-38 799,-38 870.3,-38 947.93,-80.04 979.93,-99.42"/>
<polygon fill="midnightblue" stroke="midnightblue" points="65,-153.07 62.22,-163.29 70.77,-157.03 65,-153.07"/>
</g>
<!-- Node4&#45;&gt;Node16 -->
<g id="edge34" class="edge">
<title>Node4&#45;&gt;Node16</title>
<path fill="none" stroke="midnightblue" d="M80.99,-187.52C94.61,-195.09 111.93,-204.17 128,-211 160.73,-224.9 169.81,-226.25 204,-236 407.18,-293.95 456.31,-322.13 666,-348 701.89,-352.43 743.73,-351.74 770.29,-350.58"/>
<polygon fill="midnightblue" stroke="midnightblue" points="82.63,-184.43 72.2,-182.56 79.19,-190.52 82.63,-184.43"/>
</g>
<!-- Node5 -->
<g id="node5" class="node">
<title>Node5</title>
<g id="a_node5"><a xlink:href="class_player_u_i_controller.html" target="_top" xlink:title="UI Controller for the Player Stats">
<polygon fill="none" stroke="black" points="388.5,-227.5 388.5,-246.5 483.5,-246.5 483.5,-227.5 388.5,-227.5"/>
<text text-anchor="middle" x="436" y="-234.5" font-family="Helvetica,sans-Serif" font-size="10.00">PlayerUIController</text>
</a>
</g>
</g>
<!-- Node5&#45;&gt;Node1 -->
<g id="edge4" class="edge">
<title>Node5&#45;&gt;Node1</title>
<path fill="none" stroke="#9a32cd" stroke-dasharray="5,2" d="M494.09,-237C520.17,-237 550.14,-237 572.42,-237"/>
<polygon fill="#9a32cd" stroke="#9a32cd" points="493.94,-233.5 483.94,-237 493.94,-240.5 493.94,-233.5"/>
<text text-anchor="middle" x="526" y="-240" font-family="Helvetica,sans-Serif" font-size="10.00"> uiControl</text>
</g>
<!-- Node6&#45;&gt;Node5 -->
<g id="edge5" class="edge">
<title>Node6&#45;&gt;Node5</title>
<path fill="none" stroke="midnightblue" d="M281.64,-221.39C313.21,-224.6 356.01,-228.96 388.38,-232.25"/>
<polygon fill="midnightblue" stroke="midnightblue" points="281.69,-217.88 271.39,-220.35 280.98,-224.84 281.69,-217.88"/>
</g>
<!-- Node7&#45;&gt;Node1 -->
<g id="edge7" class="edge">
<title>Node7&#45;&gt;Node1</title>
<path fill="none" stroke="#9a32cd" stroke-dasharray="5,2" d="M756.81,-183.22C730.21,-177.49 695.02,-173.97 666,-185 643.65,-193.5 624.38,-214.89 614.52,-227.43"/>
<polygon fill="#9a32cd" stroke="#9a32cd" points="756.02,-186.62 766.55,-185.49 757.61,-179.81 756.02,-186.62"/>
<text text-anchor="middle" x="701.5" y="-188" font-family="Helvetica,sans-Serif" font-size="10.00"> playerController</text>
</g>
<!-- Node7&#45;&gt;Node8 -->
<g id="edge11" class="edge">
<title>Node7&#45;&gt;Node8</title>
<path fill="none" stroke="#9a32cd" stroke-dasharray="5,2" d="M827.75,-208.85C837.55,-213.32 848.65,-218.12 859,-222 892.05,-234.38 902.82,-230.51 935,-245 951.96,-252.64 969.93,-264.25 981.74,-272.42"/>
<polygon fill="#9a32cd" stroke="#9a32cd" points="829,-205.57 818.46,-204.53 826.05,-211.92 829,-205.57"/>
<text text-anchor="middle" x="897" y="-248" font-family="Helvetica,sans-Serif" font-size="10.00"> playerController</text>
</g>
<!-- Node7&#45;&gt;Node15 -->
<g id="edge29" class="edge">
<title>Node7&#45;&gt;Node15</title>
<path fill="none" stroke="#9a32cd" stroke-dasharray="5,2" d="M816.02,-177.91C830.21,-164.02 849.57,-145.93 859,-141 876.46,-131.87 926.55,-121.43 960.81,-115.03"/>
<polygon fill="#9a32cd" stroke="#9a32cd" points="813.42,-175.57 808.77,-185.09 818.34,-180.55 813.42,-175.57"/>
<text text-anchor="middle" x="897" y="-144" font-family="Helvetica,sans-Serif" font-size="10.00"> controller</text>
</g>
<!-- Node8&#45;&gt;Node1 -->
<g id="edge32" class="edge">
<title>Node8&#45;&gt;Node1</title>
<path fill="none" stroke="#9a32cd" stroke-dasharray="5,2" d="M942.83,-272.04C913.08,-266.66 875.06,-260.25 841,-256 769.97,-247.13 686.24,-241.48 640.85,-238.81"/>
<polygon fill="#9a32cd" stroke="#9a32cd" points="942.52,-275.54 952.98,-273.9 943.78,-268.66 942.52,-275.54"/>
<text text-anchor="middle" x="798" y="-259" font-family="Helvetica,sans-Serif" font-size="10.00"> abilityCooldowns</text>
</g>
<!-- Node8&#45;&gt;Node7 -->
<g id="edge9" class="edge">
<title>Node8&#45;&gt;Node7</title>
<path fill="none" stroke="#9a32cd" stroke-dasharray="5,2" d="M984.9,-263.52C974.68,-246.77 957.22,-222.94 935,-211 906.31,-195.58 869.38,-192.08 841.24,-192.16"/>
<polygon fill="#9a32cd" stroke="#9a32cd" points="982.02,-265.53 990.07,-272.42 988.07,-262.01 982.02,-265.53"/>
<text text-anchor="middle" x="897" y="-214" font-family="Helvetica,sans-Serif" font-size="10.00"> abilityCooldowns</text>
</g>
<!-- Node8&#45;&gt;Node12 -->
<g id="edge18" class="edge">
<title>Node8&#45;&gt;Node12</title>
<path fill="none" stroke="#9a32cd" stroke-dasharray="5,2" d="M1049.45,-282C1078.59,-282 1114.23,-282 1140.91,-282"/>
<polygon fill="#9a32cd" stroke="#9a32cd" points="1049.44,-278.5 1039.44,-282 1049.44,-285.5 1049.44,-278.5"/>
<text text-anchor="middle" x="1090" y="-285" font-family="Helvetica,sans-Serif" font-size="10.00"> currentCD</text>
</g>
<!-- Node9 -->
<g id="node9" class="node">
<title>Node9</title>
<g id="a_node9"><a xlink:href="class_ability.html" target="_top" xlink:title="Base abstract class for an Ability.">
<polygon fill="none" stroke="black" points="414,-526.5 414,-545.5 458,-545.5 458,-526.5 414,-526.5"/>
<text text-anchor="middle" x="436" y="-533.5" font-family="Helvetica,sans-Serif" font-size="10.00">Ability</text>
</a>
</g>
</g>
<!-- Node9&#45;&gt;Node8 -->
<g id="edge12" class="edge">
<title>Node9&#45;&gt;Node8</title>
<path fill="none" stroke="#9a32cd" stroke-dasharray="5,2" d="M468.44,-536.37C566.51,-536.88 864.46,-533.33 935,-473 991.53,-424.65 995.47,-323.67 995.25,-291.83"/>
<polygon fill="#9a32cd" stroke="#9a32cd" points="468.3,-532.87 458.28,-536.3 468.25,-539.87 468.3,-532.87"/>
<text text-anchor="middle" x="701.5" y="-533" font-family="Helvetica,sans-Serif" font-size="10.00"> ability</text>
</g>
<!-- Node13 -->
<g id="node13" class="node">
<title>Node13</title>
<g id="a_node13"><a xlink:href="class_indicated_ability.html" target="_top" xlink:title="Encapsulador de les Ability que han de mostrar l&#39;indicador">
<polygon fill="none" stroke="black" points="565,-564.5 565,-583.5 648,-583.5 648,-564.5 565,-564.5"/>
<text text-anchor="middle" x="606.5" y="-571.5" font-family="Helvetica,sans-Serif" font-size="10.00">IndicatedAbility</text>
</a>
</g>
</g>
<!-- Node9&#45;&gt;Node13 -->
<g id="edge20" class="edge">
<title>Node9&#45;&gt;Node13</title>
<path fill="none" stroke="midnightblue" d="M468.1,-543.01C495.3,-549.15 534.97,-558.09 564.7,-564.8"/>
<polygon fill="midnightblue" stroke="midnightblue" points="468.87,-539.6 458.34,-540.81 467.33,-546.43 468.87,-539.6"/>
</g>
<!-- Node14 -->
<g id="node14" class="node">
<title>Node14</title>
<g id="a_node14"><a xlink:href="class_character.html" target="_top" xlink:title=" ">
<polygon fill="none" stroke="black" points="577,-487.5 577,-506.5 636,-506.5 636,-487.5 577,-487.5"/>
<text text-anchor="middle" x="606.5" y="-494.5" font-family="Helvetica,sans-Serif" font-size="10.00">Character</text>
</a>
</g>
</g>
<!-- Node9&#45;&gt;Node14 -->
<g id="edge25" class="edge">
<title>Node9&#45;&gt;Node14</title>
<path fill="none" stroke="#9a32cd" stroke-dasharray="5,2" d="M467.67,-523.14C479.21,-518.73 492.54,-514.12 505,-511 528.75,-505.05 556.34,-501.44 576.6,-499.37"/>
<polygon fill="#9a32cd" stroke="#9a32cd" points="466.09,-520 458.07,-526.92 468.66,-526.51 466.09,-520"/>
<text text-anchor="middle" x="526" y="-514" font-family="Helvetica,sans-Serif" font-size="10.00"> abilities</text>
</g>
<!-- Node10 -->
<g id="node10" class="node">
<title>Node10</title>
<g id="a_node10"><a xlink:title=" ">
<polygon fill="none" stroke="#bfbfbf" points="10.5,-485.5 10.5,-504.5 99.5,-504.5 99.5,-485.5 10.5,-485.5"/>
<text text-anchor="middle" x="55" y="-492.5" font-family="Helvetica,sans-Serif" font-size="10.00">ScriptableObject</text>
</a>
</g>
</g>
<!-- Node10&#45;&gt;Node9 -->
<g id="edge13" class="edge">
<title>Node10&#45;&gt;Node9</title>
<path fill="none" stroke="midnightblue" d="M109.82,-500.82C194.79,-510.01 356.3,-527.49 413.92,-533.72"/>
<polygon fill="midnightblue" stroke="midnightblue" points="110.16,-497.34 99.85,-499.74 109.41,-504.3 110.16,-497.34"/>
</g>
<!-- Node11 -->
<g id="node11" class="node">
<title>Node11</title>
<g id="a_node11"><a xlink:href="class_effect.html" target="_top" xlink:title="Abstract base info container class for an Effect.">
<polygon fill="none" stroke="black" points="217,-543.5 217,-562.5 258,-562.5 258,-543.5 217,-543.5"/>
<text text-anchor="middle" x="237.5" y="-550.5" font-family="Helvetica,sans-Serif" font-size="10.00">Effect</text>
</a>
</g>
</g>
<!-- Node10&#45;&gt;Node11 -->
<g id="edge15" class="edge">
<title>Node10&#45;&gt;Node11</title>
<path fill="none" stroke="midnightblue" d="M82.39,-509.2C95.76,-515.95 112.42,-523.67 128,-529 158.3,-539.36 194.93,-546.38 216.93,-550.03"/>
<polygon fill="midnightblue" stroke="midnightblue" points="83.79,-505.99 73.29,-504.51 80.58,-512.21 83.79,-505.99"/>
</g>
<!-- Node10&#45;&gt;Node14 -->
<g id="edge24" class="edge">
<title>Node10&#45;&gt;Node14</title>
<path fill="none" stroke="midnightblue" d="M109.87,-495.2C224.56,-495.61 489.53,-496.58 576.94,-496.9"/>
<polygon fill="midnightblue" stroke="midnightblue" points="109.59,-491.7 99.58,-495.16 109.56,-498.7 109.59,-491.7"/>
</g>
<!-- Node17 -->
<g id="node17" class="node">
<title>Node17</title>
<g id="a_node17"><a xlink:href="class_item.html" target="_top" xlink:title="Base class for an Item">
<polygon fill="none" stroke="black" points="220,-421.5 220,-440.5 255,-440.5 255,-421.5 220,-421.5"/>
<text text-anchor="middle" x="237.5" y="-428.5" font-family="Helvetica,sans-Serif" font-size="10.00">Item</text>
</a>
</g>
</g>
<!-- Node10&#45;&gt;Node17 -->
<g id="edge36" class="edge">
<title>Node10&#45;&gt;Node17</title>
<path fill="none" stroke="midnightblue" d="M95.39,-482.24C121.27,-473.72 155.79,-462.09 186,-451 197.33,-446.84 209.96,-441.84 219.75,-437.88"/>
<polygon fill="midnightblue" stroke="midnightblue" points="93.99,-479.02 85.58,-485.46 96.17,-485.67 93.99,-479.02"/>
</g>
<!-- Node11&#45;&gt;Node9 -->
<g id="edge14" class="edge">
<title>Node11&#45;&gt;Node9</title>
<path fill="none" stroke="#9a32cd" stroke-dasharray="5,2" d="M268.27,-550.42C308.33,-546.96 378.61,-540.88 413.74,-537.84"/>
<polygon fill="#9a32cd" stroke="#9a32cd" points="267.72,-546.96 258.06,-551.31 268.32,-553.93 267.72,-546.96"/>
<text text-anchor="middle" x="328" y="-551" font-family="Helvetica,sans-Serif" font-size="10.00"> aToAuthorEffects</text>
</g>
<!-- Node11&#45;&gt;Node13 -->
<g id="edge21" class="edge">
<title>Node11&#45;&gt;Node13</title>
<path fill="none" stroke="#9a32cd" stroke-dasharray="5,2" d="M268.25,-559.72C275.04,-561.02 282.24,-562.22 289,-563 387.58,-574.4 504.49,-575.19 564.88,-574.67"/>
<polygon fill="#9a32cd" stroke="#9a32cd" points="268.55,-556.2 258.05,-557.63 267.15,-563.06 268.55,-556.2"/>
<text text-anchor="middle" x="436" y="-577" font-family="Helvetica,sans-Serif" font-size="10.00"> aToEnemyEffects</text>
</g>
<!-- Node12&#45;&gt;Node8 -->
<g id="edge16" class="edge">
<title>Node12&#45;&gt;Node8</title>
<path fill="none" stroke="#9a32cd" stroke-dasharray="5,2" d="M1142.19,-269.83C1135.84,-268.24 1129.28,-266.86 1123,-266 1093.94,-262 1086.08,-262.19 1057,-266 1046.95,-267.32 1036.19,-269.82 1026.6,-272.47"/>
<polygon fill="#9a32cd" stroke="#9a32cd" points="1141.34,-273.23 1151.91,-272.47 1143.18,-266.47 1141.34,-273.23"/>
<text text-anchor="middle" x="1090" y="-269" font-family="Helvetica,sans-Serif" font-size="10.00"> abilityIndicator</text>
</g>
<!-- Node13&#45;&gt;Node12 -->
<g id="edge19" class="edge">
<title>Node13&#45;&gt;Node12</title>
<path fill="none" stroke="#9a32cd" stroke-dasharray="5,2" d="M658.5,-572.01C725.78,-567.43 846.04,-552.39 935,-503 1043.68,-442.66 1144.15,-325.82 1172.24,-291.62"/>
<polygon fill="#9a32cd" stroke="#9a32cd" points="657.93,-568.54 648.17,-572.66 658.37,-575.52 657.93,-568.54"/>
<text text-anchor="middle" x="897" y="-537" font-family="Helvetica,sans-Serif" font-size="10.00"> current</text>
</g>
<!-- Node14&#45;&gt;Node7 -->
<g id="edge23" class="edge">
<title>Node14&#45;&gt;Node7</title>
<path fill="none" stroke="#9a32cd" stroke-dasharray="5,2" d="M628.09,-480.76C657.65,-456.16 711.37,-406.42 737,-351 760.93,-299.26 725.03,-272.49 755,-224 760.03,-215.86 768.29,-209.43 776.16,-204.71"/>
<polygon fill="#9a32cd" stroke="#9a32cd" points="625.63,-478.25 620.09,-487.29 630.05,-483.68 625.63,-478.25"/>
<text text-anchor="middle" x="701.5" y="-446" font-family="Helvetica,sans-Serif" font-size="10.00"> character</text>
</g>
<!-- Node15&#45;&gt;Node7 -->
<g id="edge27" class="edge">
<title>Node15&#45;&gt;Node7</title>
<path fill="none" stroke="#9a32cd" stroke-dasharray="5,2" d="M976.86,-125.27C965.5,-134.76 950.19,-146.32 935,-154 934.4,-154.31 870.7,-173.46 830.71,-185.48"/>
<polygon fill="#9a32cd" stroke="#9a32cd" points="979.41,-127.7 984.71,-118.52 974.84,-122.39 979.41,-127.7"/>
<text text-anchor="middle" x="897" y="-178" font-family="Helvetica,sans-Serif" font-size="10.00"> basicAttack</text>
</g>
<!-- Node16&#45;&gt;Node1 -->
<g id="edge33" class="edge">
<title>Node16&#45;&gt;Node1</title>
<path fill="none" stroke="#9a32cd" stroke-dasharray="5,2" d="M760.41,-342C727.28,-335.16 681.37,-324.31 666,-314 639.79,-296.41 620.53,-263.13 612.14,-246.69"/>
<polygon fill="#9a32cd" stroke="#9a32cd" points="759.74,-345.43 770.24,-343.98 761.13,-338.57 759.74,-345.43"/>
<text text-anchor="middle" x="701.5" y="-339" font-family="Helvetica,sans-Serif" font-size="10.00"> inventory</text>
</g>
<!-- Node17&#45;&gt;Node16 -->
<g id="edge35" class="edge">
<title>Node17&#45;&gt;Node16</title>
<path fill="none" stroke="#9a32cd" stroke-dasharray="5,2" d="M265.22,-436.02C342.32,-449.21 570.29,-479.12 737,-407 760.93,-396.65 780.87,-372.18 790.6,-358.56"/>
<polygon fill="#9a32cd" stroke="#9a32cd" points="265.82,-432.57 255.37,-434.28 264.61,-439.46 265.82,-432.57"/>
<text text-anchor="middle" x="526" y="-455" font-family="Helvetica,sans-Serif" font-size="10.00"> items</text>
</g>
<!-- Node18 -->
<g id="node18" class="node">
<title>Node18</title>
<g id="a_node18"><a xlink:href="class_generic_dictionary.html" target="_top" xlink:title=" ">
<polygon fill="none" stroke="black" points="5,-384 5,-414 105,-414 105,-384 5,-384"/>
<text text-anchor="start" x="13" y="-402" font-family="Helvetica,sans-Serif" font-size="10.00">GenericDictionary&lt;</text>
<text text-anchor="middle" x="55" y="-391" font-family="Helvetica,sans-Serif" font-size="10.00"> IntStatistic, int &gt;</text>
</a>
</g>
</g>
<!-- Node18&#45;&gt;Node17 -->
<g id="edge37" class="edge">
<title>Node18&#45;&gt;Node17</title>
<path fill="none" stroke="#9a32cd" stroke-dasharray="5,2" d="M115.16,-407.86C137.42,-411.38 162.92,-415.63 186,-420 197.28,-422.14 209.91,-424.89 219.71,-427.1"/>
<polygon fill="#9a32cd" stroke="#9a32cd" points="115.61,-404.39 105.19,-406.3 114.52,-411.31 115.61,-404.39"/>
<text text-anchor="middle" x="157" y="-423" font-family="Helvetica,sans-Serif" font-size="10.00"> iEffectsInt</text>
</g>
<!-- Node19 -->
<g id="node19" class="node">
<title>Node19</title>
<g id="a_node19"><a xlink:href="class_generic_dictionary.html" target="_top" xlink:title=" ">
<polygon fill="none" stroke="black" points="0,-433 0,-463 110,-463 110,-433 0,-433"/>
<text text-anchor="start" x="8" y="-451" font-family="Helvetica,sans-Serif" font-size="10.00">GenericDictionary&lt;</text>
<text text-anchor="middle" x="55" y="-440" font-family="Helvetica,sans-Serif" font-size="10.00"> FloatStatistic, float &gt;</text>
</a>
</g>
</g>
<!-- Node19&#45;&gt;Node17 -->
<g id="edge38" class="edge">
<title>Node19&#45;&gt;Node17</title>
<path fill="none" stroke="#9a32cd" stroke-dasharray="5,2" d="M120.32,-440.76C122.91,-440.5 125.48,-440.24 128,-440 160.55,-436.84 198.65,-433.84 219.94,-432.23"/>
<polygon fill="#9a32cd" stroke="#9a32cd" points="119.82,-437.3 110.24,-441.81 120.54,-444.26 119.82,-437.3"/>
<text text-anchor="middle" x="157" y="-443" font-family="Helvetica,sans-Serif" font-size="10.00"> iEffectsFloat</text>
</g>
</g>
</svg>
        <g id="navigator" transform="translate(0 0)" fill="#404254">
                <rect fill="#f2f5e9" fill-opacity="0.5" stroke="#606060" stroke-width=".5" x="0" y="0" width="60" height="60"/>
                <use id="zoomplus" xlink:href="#zoomPlus" x="17" y="9" onmousedown="handleZoom(evt,'in')"/>
                <use id="zoomminus" xlink:href="#zoomMin" x="42" y="9" onmousedown="handleZoom(evt,'out')"/>
                <use id="reset" xlink:href="#resetDef" x="30" y="36" onmousedown="handleReset()"/>
                <g id="arrowUp" xlink:href="#dirArrow" transform="translate(30 24)" onmousedown="handlePan(0,-1)">
                  <use xlink:href="#rim" fill="#404040">
                        <set attributeName="fill" to="#808080" begin="arrowUp.mouseover" end="arrowUp.mouseout"/>
                  </use>
                  <path fill="none" stroke="white" stroke-width="1.5" d="M0,-3.0v7 M-2.5,-0.5L0,-3.0L2.5,-0.5"/>
                </g>
                <g id="arrowRight" xlink:href="#dirArrow" transform="rotate(90) translate(36 -43)" onmousedown="handlePan(1,0)">
                  <use xlink:href="#rim" fill="#404040">
                        <set attributeName="fill" to="#808080" begin="arrowRight.mouseover" end="arrowRight.mouseout"/>
                  </use>
                  <path fill="none" stroke="white" stroke-width="1.5" d="M0,-3.0v7 M-2.5,-0.5L0,-3.0L2.5,-0.5"/>
                </g>
                <g id="arrowDown" xlink:href="#dirArrow" transform="rotate(180) translate(-30 -48)" onmousedown="handlePan(0,1)">
                  <use xlink:href="#rim" fill="#404040">
                        <set attributeName="fill" to="#808080" begin="arrowDown.mouseover" end="arrowDown.mouseout"/>
                  </use>
                  <path fill="none" stroke="white" stroke-width="1.5" d="M0,-3.0v7 M-2.5,-0.5L0,-3.0L2.5,-0.5"/>
                </g>
                <g id="arrowLeft" xlink:href="#dirArrow" transform="rotate(270) translate(-36 17)" onmousedown="handlePan(-1,0)">
                  <use xlink:href="#rim" fill="#404040">
                        <set attributeName="fill" to="#808080" begin="arrowLeft.mouseover" end="arrowLeft.mouseout"/>
                  </use>
                  <path fill="none" stroke="white" stroke-width="1.5" d="M0,-3.0v7 M-2.5,-0.5L0,-3.0L2.5,-0.5"/>
                </g>
        </g>
        <svg viewBox="0 0 15 15" width="100%" height="30px" preserveAspectRatio="xMaxYMin meet">
         <g id="arrow_out" transform="scale(0.3 0.3)">
          <a xlink:href="class_player_stats__coll__graph_org.svg" target="_base">
           <rect id="button" ry="5" rx="5" y="6" x="6" height="38" width="38"
                fill="#f2f5e9" fill-opacity="0.5" stroke="#606060" stroke-width="1.0"/>
           <path id="arrow"
             d="M 11.500037,31.436501 C 11.940474,20.09759 22.043105,11.32322 32.158766,21.979434 L 37.068811,17.246167 C 37.068811,17.246167 37.088388,32 37.088388,32 L 22.160133,31.978069 C 22.160133,31.978069 26.997745,27.140456 26.997745,27.140456 C 18.528582,18.264221 13.291696,25.230495 11.500037,31.436501 z"
             style="fill:#404040;"/>
          </a>
         </g>
        </svg>
</svg>
