<?xml version="1.0" encoding="UTF-8" standalone="no"?>
<!DOCTYPE svg PUBLIC "-//W3C//DTD SVG 1.1//EN"
 "http://www.w3.org/Graphics/SVG/1.1/DTD/svg11.dtd">
<!-- Generated by graphviz version 2.50.0 (20211204.2007)
 -->
<!-- Title: MovableStats.HealRPC Pages: 1 -->
<svg width="308pt" height="66pt"
 viewBox="0.00 0.00 308.00 66.00" xmlns="http://www.w3.org/2000/svg" xmlns:xlink="http://www.w3.org/1999/xlink">
<g id="graph0" class="graph" transform="scale(1 1) rotate(0) translate(4 62)">
<title>MovableStats.HealRPC</title>
<polygon fill="white" stroke="transparent" points="-4,4 -4,-62 304,-62 304,4 -4,4"/>
<!-- Node1 -->
<g id="node1" class="node">
<title>Node1</title>
<g id="a_node1"><a xlink:title=" ">
<polygon fill="#bfbfbf" stroke="black" points="0,-19.5 0,-38.5 118,-38.5 118,-19.5 0,-19.5"/>
<text text-anchor="middle" x="59" y="-26.5" font-family="Helvetica,sans-Serif" font-size="10.00">MovableStats.HealRPC</text>
</a>
</g>
</g>
<!-- Node2 -->
<g id="node2" class="node">
<title>Node2</title>
<g id="a_node2"><a xlink:href="class_stats.html#a0a3ad8a03e844abd233531fd9874a91b" target="_top" xlink:title="This method retuns the UIController of the entity.">
<polygon fill="white" stroke="black" points="193,-38.5 193,-57.5 261,-57.5 261,-38.5 193,-38.5"/>
<text text-anchor="middle" x="227" y="-45.5" font-family="Helvetica,sans-Serif" font-size="10.00">Stats.GetUI</text>
</a>
</g>
</g>
<!-- Node1&#45;&gt;Node2 -->
<g id="edge1" class="edge">
<title>Node1&#45;&gt;Node2</title>
<path fill="none" stroke="midnightblue" d="M118.06,-35.65C139.4,-38.09 163.16,-40.81 182.94,-43.07"/>
<polygon fill="midnightblue" stroke="midnightblue" points="182.56,-46.55 192.89,-44.21 183.36,-39.6 182.56,-46.55"/>
</g>
<!-- Node3 -->
<g id="node3" class="node">
<title>Node3</title>
<g id="a_node3"><a xlink:href="class_u_i_controller.html#a465eebf37083ebf78879ab8bbd71c069" target="_top" xlink:title="Updates the current HP of the entity.">
<polygon fill="white" stroke="black" points="154,-0.5 154,-19.5 300,-19.5 300,-0.5 154,-0.5"/>
<text text-anchor="middle" x="227" y="-7.5" font-family="Helvetica,sans-Serif" font-size="10.00">UIController.UpdateCurrentHP</text>
</a>
</g>
</g>
<!-- Node1&#45;&gt;Node3 -->
<g id="edge2" class="edge">
<title>Node1&#45;&gt;Node3</title>
<path fill="none" stroke="midnightblue" d="M118.06,-22.35C126.39,-21.4 135.09,-20.4 143.79,-19.41"/>
<polygon fill="midnightblue" stroke="midnightblue" points="144.42,-22.86 153.96,-18.25 143.63,-15.91 144.42,-22.86"/>
</g>
</g>
</svg>
