<?xml version="1.0" encoding="UTF-8" standalone="no"?>
<!DOCTYPE svg PUBLIC "-//W3C//DTD SVG 1.1//EN"
 "http://www.w3.org/Graphics/SVG/1.1/DTD/svg11.dtd">
<!-- Generated by graphviz version 2.47.3 (20210619.1520)
 -->
<!-- Title: Ability_StatsChanger Pages: 1 -->
<!--zoomable 569 -->
<svg id="main" version="1.1" xmlns="http://www.w3.org/2000/svg" xmlns:xlink="http://www.w3.org/1999/xlink" xml:space="preserve" onload="init(evt)">
<style type="text/css"><![CDATA[
.edge:hover path { stroke: red; }
.edge:hover polygon { stroke: red; fill: red; }
]]></style>
<script type="text/javascript"><![CDATA[
var edges = document.getElementsByTagName('g');
if (edges && edges.length) {
  for (var i=0;i<edges.length;i++) {
    if (edges[i].id.substr(0,4)=='edge') {
      edges[i].setAttribute('class','edge');
    }
  }
}
]]></script>
        <defs>
                <circle id="rim" cx="0" cy="0" r="7"/>
                <circle id="rim2" cx="0" cy="0" r="3.5"/>
                <g id="zoomPlus">
                        <use xlink:href="#rim" fill="#404040">
                                <set attributeName="fill" to="#808080" begin="zoomplus.mouseover" end="zoomplus.mouseout"/>
                        </use>
                        <path d="M-4,0h8M0,-4v8" fill="none" stroke="white" stroke-width="1.5" pointer-events="none"/>
                </g>
                <g id="zoomMin">
                        <use xlink:href="#rim" fill="#404040">
                                <set attributeName="fill" to="#808080" begin="zoomminus.mouseover" end="zoomminus.mouseout"/>
                        </use>
                        <path d="M-4,0h8" fill="none" stroke="white" stroke-width="1.5" pointer-events="none"/>
                </g>
                <g id="dirArrow">
                        <path fill="none" stroke="white" stroke-width="1.5" d="M0,-3.0v7 M-2.5,-0.5L0,-3.0L2.5,-0.5"/>
                </g>
               <g id="resetDef">
                       <use xlink:href="#rim2" fill="#404040">
                               <set attributeName="fill" to="#808080" begin="reset.mouseover" end="reset.mouseout"/>
                       </use>
               </g>
        </defs>

<script type="text/javascript">
var viewWidth = 1221;
var viewHeight = 569;
var sectionId = 'dynsection-1';
</script>
<script xlink:href="svgpan.js"/>
<svg id="graph" class="graph">
<g id="viewport">
<title>Ability_StatsChanger</title>
<polygon fill="white" stroke="transparent" points="-4,4 -4,-565 1217,-565 1217,4 -4,4"/>
<!-- Node1 -->
<g id="node1" class="node">
<title>Node1</title>
<g id="a_node1"><a xlink:title=" ">
<polygon fill="#bfbfbf" stroke="black" points="1105,-84.5 1105,-103.5 1213,-103.5 1213,-84.5 1105,-84.5"/>
<text text-anchor="middle" x="1159" y="-91.5" font-family="Helvetica,sans-Serif" font-size="10.00">Ability_StatsChanger</text>
</a>
</g>
</g>
<!-- Node2 -->
<g id="node2" class="node">
<title>Node2</title>
<g id="a_node2"><a xlink:href="class_non_indicated_ability.xhtml" target="_top" xlink:title="Encapsulador de les Ability que NO han de mostrar cap indicador.">
<polygon fill="white" stroke="black" points="614,-0.5 614,-19.5 714,-19.5 714,-0.5 614,-0.5"/>
<text text-anchor="middle" x="664" y="-7.5" font-family="Helvetica,sans-Serif" font-size="10.00">NonIndicatedAbility</text>
</a>
</g>
</g>
<!-- Node2&#45;&gt;Node1 -->
<g id="edge1" class="edge">
<title>Node2&#45;&gt;Node1</title>
<path fill="none" stroke="midnightblue" d="M723.98,-20.05C820.75,-36.54 1011.72,-69.08 1104.67,-84.91"/>
<polygon fill="midnightblue" stroke="midnightblue" points="724.52,-16.59 714.07,-18.36 723.34,-23.49 724.52,-16.59"/>
</g>
<!-- Node3 -->
<g id="node3" class="node">
<title>Node3</title>
<g id="a_node3"><a xlink:href="class_ability.xhtml" target="_top" xlink:title=" ">
<polygon fill="white" stroke="black" points="341,-29.5 341,-48.5 385,-48.5 385,-29.5 341,-29.5"/>
<text text-anchor="middle" x="363" y="-36.5" font-family="Helvetica,sans-Serif" font-size="10.00">Ability</text>
</a>
</g>
</g>
<!-- Node3&#45;&gt;Node2 -->
<g id="edge2" class="edge">
<title>Node3&#45;&gt;Node2</title>
<path fill="none" stroke="midnightblue" d="M395.24,-34.39C421.54,-30.63 460.16,-25.41 494,-22 534.24,-17.94 580.01,-14.78 613.76,-12.73"/>
<polygon fill="midnightblue" stroke="midnightblue" points="394.52,-30.96 385.12,-35.85 395.52,-37.88 394.52,-30.96"/>
</g>
<!-- Node14 -->
<g id="node14" class="node">
<title>Node14</title>
<g id="a_node14"><a xlink:href="class_ability_cooldown.xhtml" target="_top" xlink:title=" ">
<polygon fill="white" stroke="black" points="502,-300.5 502,-319.5 588,-319.5 588,-300.5 502,-300.5"/>
<text text-anchor="middle" x="545" y="-307.5" font-family="Helvetica,sans-Serif" font-size="10.00">AbilityCooldown</text>
</a>
</g>
</g>
<!-- Node3&#45;&gt;Node14 -->
<g id="edge20" class="edge">
<title>Node3&#45;&gt;Node14</title>
<path fill="none" stroke="#9a32cd" stroke-dasharray="5,2" d="M376.15,-57.3C411.17,-110.02 511.46,-261.01 537.67,-300.47"/>
<polygon fill="#9a32cd" stroke="#9a32cd" points="378.85,-55.04 370.41,-48.65 373.02,-58.91 378.85,-55.04"/>
<text text-anchor="middle" x="448.5" y="-209" font-family="Helvetica,sans-Serif" font-size="10.00"> ability</text>
</g>
<!-- Node16 -->
<g id="node16" class="node">
<title>Node16</title>
<g id="a_node16"><a xlink:href="class_indicated_ability.xhtml" target="_top" xlink:title="Encapsulador de les Ability que han de mostrar l&#39;indicador">
<polygon fill="white" stroke="black" points="503.5,-31.5 503.5,-50.5 586.5,-50.5 586.5,-31.5 503.5,-31.5"/>
<text text-anchor="middle" x="545" y="-38.5" font-family="Helvetica,sans-Serif" font-size="10.00">IndicatedAbility</text>
</a>
</g>
</g>
<!-- Node3&#45;&gt;Node16 -->
<g id="edge25" class="edge">
<title>Node3&#45;&gt;Node16</title>
<path fill="none" stroke="midnightblue" d="M395.3,-39.35C425.28,-39.68 470.67,-40.19 503.42,-40.55"/>
<polygon fill="midnightblue" stroke="midnightblue" points="395.04,-35.84 385,-39.23 394.96,-42.84 395.04,-35.84"/>
</g>
<!-- Node17 -->
<g id="node17" class="node">
<title>Node17</title>
<g id="a_node17"><a xlink:href="class_character.xhtml" target="_top" xlink:title=" ">
<polygon fill="white" stroke="black" points="515.5,-71.5 515.5,-90.5 574.5,-90.5 574.5,-71.5 515.5,-71.5"/>
<text text-anchor="middle" x="545" y="-78.5" font-family="Helvetica,sans-Serif" font-size="10.00">Character</text>
</a>
</g>
</g>
<!-- Node3&#45;&gt;Node17 -->
<g id="edge30" class="edge">
<title>Node3&#45;&gt;Node17</title>
<path fill="none" stroke="#9a32cd" stroke-dasharray="5,2" d="M395.17,-44.79C417.71,-49.13 448.85,-55.43 476,-62 488.99,-65.14 503.24,-69.05 515.33,-72.51"/>
<polygon fill="#9a32cd" stroke="#9a32cd" points="395.63,-41.32 385.15,-42.89 394.32,-48.2 395.63,-41.32"/>
<text text-anchor="middle" x="448.5" y="-65" font-family="Helvetica,sans-Serif" font-size="10.00"> abilities</text>
</g>
<!-- Node4 -->
<g id="node4" class="node">
<title>Node4</title>
<g id="a_node4"><a xlink:title=" ">
<polygon fill="white" stroke="#bfbfbf" points="0,-39.5 0,-58.5 89,-58.5 89,-39.5 0,-39.5"/>
<text text-anchor="middle" x="44.5" y="-46.5" font-family="Helvetica,sans-Serif" font-size="10.00">ScriptableObject</text>
</a>
</g>
</g>
<!-- Node4&#45;&gt;Node3 -->
<g id="edge3" class="edge">
<title>Node4&#45;&gt;Node3</title>
<path fill="none" stroke="midnightblue" d="M99.28,-47.3C170.36,-45.05 292.28,-41.2 340.99,-39.66"/>
<polygon fill="midnightblue" stroke="midnightblue" points="99.06,-43.81 89.18,-47.62 99.28,-50.8 99.06,-43.81"/>
</g>
<!-- Node5 -->
<g id="node5" class="node">
<title>Node5</title>
<g id="a_node5"><a xlink:href="class_effect.xhtml" target="_top" xlink:title="Abstract base info container class for an Effect.">
<polygon fill="white" stroke="black" points="147,-1.5 147,-20.5 188,-20.5 188,-1.5 147,-1.5"/>
<text text-anchor="middle" x="167.5" y="-8.5" font-family="Helvetica,sans-Serif" font-size="10.00">Effect</text>
</a>
</g>
</g>
<!-- Node4&#45;&gt;Node5 -->
<g id="edge5" class="edge">
<title>Node4&#45;&gt;Node5</title>
<path fill="none" stroke="midnightblue" d="M85.81,-36.34C106.39,-29.88 130.5,-22.31 146.97,-17.13"/>
<polygon fill="midnightblue" stroke="midnightblue" points="84.53,-33.08 76.03,-39.41 86.62,-39.75 84.53,-33.08"/>
</g>
<!-- Node4&#45;&gt;Node17 -->
<g id="edge29" class="edge">
<title>Node4&#45;&gt;Node17</title>
<path fill="none" stroke="midnightblue" d="M95.91,-60.35C99.65,-60.98 103.38,-61.54 107,-62 260.13,-81.38 445.57,-81.96 515.49,-81.38"/>
<polygon fill="midnightblue" stroke="midnightblue" points="96.49,-56.9 86.03,-58.55 95.24,-63.79 96.49,-56.9"/>
</g>
<!-- Node5&#45;&gt;Node3 -->
<g id="edge4" class="edge">
<title>Node5&#45;&gt;Node3</title>
<path fill="none" stroke="#9a32cd" stroke-dasharray="5,2" d="M198.31,-12.44C226.09,-14.12 268.59,-17.52 305,-24 316.99,-26.13 330.15,-29.52 340.8,-32.54"/>
<polygon fill="#9a32cd" stroke="#9a32cd" points="198.26,-8.93 188.07,-11.86 197.86,-15.92 198.26,-8.93"/>
<text text-anchor="middle" x="266" y="-27" font-family="Helvetica,sans-Serif" font-size="10.00"> aToAuthorEffects</text>
</g>
<!-- Node5&#45;&gt;Node16 -->
<g id="edge26" class="edge">
<title>Node5&#45;&gt;Node16</title>
<path fill="none" stroke="#9a32cd" stroke-dasharray="5,2" d="M198.18,-8.48C242.8,-5.2 329.74,-0.79 403,-9 440.79,-13.23 483.24,-23.66 511.59,-31.47"/>
<polygon fill="#9a32cd" stroke="#9a32cd" points="197.74,-5 188.04,-9.26 198.28,-11.98 197.74,-5"/>
<text text-anchor="middle" x="363" y="-12" font-family="Helvetica,sans-Serif" font-size="10.00"> aToEnemyEffects</text>
</g>
<!-- Node6 -->
<g id="node6" class="node">
<title>Node6</title>
<g id="a_node6"><a xlink:href="class_effect_manager.xhtml" target="_top" xlink:title=" ">
<polygon fill="white" stroke="black" points="922.5,-169.5 922.5,-188.5 1001.5,-188.5 1001.5,-169.5 922.5,-169.5"/>
<text text-anchor="middle" x="962" y="-176.5" font-family="Helvetica,sans-Serif" font-size="10.00">EffectManager</text>
</a>
</g>
</g>
<!-- Node6&#45;&gt;Node1 -->
<g id="edge6" class="edge">
<title>Node6&#45;&gt;Node1</title>
<path fill="none" stroke="#9a32cd" stroke-dasharray="5,2" d="M994.21,-165.4C1033.9,-148.09 1101.45,-118.65 1136.09,-103.55"/>
<polygon fill="#9a32cd" stroke="#9a32cd" points="992.76,-162.21 984.99,-169.41 995.56,-168.63 992.76,-162.21"/>
<text text-anchor="middle" x="1055" y="-154" font-family="Helvetica,sans-Serif" font-size="10.00"> effectManager</text>
</g>
<!-- Node7 -->
<g id="node7" class="node">
<title>Node7</title>
<g id="a_node7"><a xlink:title=" ">
<polygon fill="white" stroke="#bfbfbf" points="126,-351.5 126,-370.5 209,-370.5 209,-351.5 126,-351.5"/>
<text text-anchor="middle" x="167.5" y="-358.5" font-family="Helvetica,sans-Serif" font-size="10.00">MonoBehaviour</text>
</a>
</g>
</g>
<!-- Node7&#45;&gt;Node6 -->
<g id="edge7" class="edge">
<title>Node7&#45;&gt;Node6</title>
<path fill="none" stroke="midnightblue" d="M177.24,-342.18C200.27,-295.66 267.47,-179 362,-179 362,-179 362,-179 773,-179 824.73,-179 884.47,-179 922.47,-179"/>
<polygon fill="midnightblue" stroke="midnightblue" points="174.07,-340.69 172.88,-351.21 180.38,-343.72 174.07,-340.69"/>
</g>
<!-- Node10 -->
<g id="node10" class="node">
<title>Node10</title>
<g id="a_node10"><a xlink:href="class_stats.xhtml" target="_top" xlink:title="Base class Stats of the entity.">
<polygon fill="white" stroke="black" points="343,-502.5 343,-521.5 383,-521.5 383,-502.5 343,-502.5"/>
<text text-anchor="middle" x="363" y="-509.5" font-family="Helvetica,sans-Serif" font-size="10.00">Stats</text>
</a>
</g>
</g>
<!-- Node7&#45;&gt;Node10 -->
<g id="edge11" class="edge">
<title>Node7&#45;&gt;Node10</title>
<path fill="none" stroke="midnightblue" d="M172.78,-380.66C179.58,-407.11 195.45,-453.74 227,-479 261.09,-506.29 314.46,-511.49 342.81,-512.19"/>
<polygon fill="midnightblue" stroke="midnightblue" points="176.12,-379.6 170.4,-370.68 169.31,-381.22 176.12,-379.6"/>
</g>
<!-- Node12 -->
<g id="node12" class="node">
<title>Node12</title>
<g id="a_node12"><a xlink:href="class_u_i_controller.xhtml" target="_top" xlink:title=" ">
<polygon fill="white" stroke="black" points="329.5,-410.5 329.5,-429.5 396.5,-429.5 396.5,-410.5 329.5,-410.5"/>
<text text-anchor="middle" x="363" y="-417.5" font-family="Helvetica,sans-Serif" font-size="10.00">UIController</text>
</a>
</g>
</g>
<!-- Node7&#45;&gt;Node12 -->
<g id="edge14" class="edge">
<title>Node7&#45;&gt;Node12</title>
<path fill="none" stroke="midnightblue" d="M190.38,-376.13C201.01,-382.84 214.22,-390.27 227,-395 260.64,-407.46 301.38,-413.91 329.25,-417.11"/>
<polygon fill="midnightblue" stroke="midnightblue" points="192.07,-373.06 181.78,-370.51 188.24,-378.91 192.07,-373.06"/>
</g>
<!-- Node13 -->
<g id="node13" class="node">
<title>Node13</title>
<g id="a_node13"><a xlink:href="class_player_controller.xhtml" target="_top" xlink:title="Player Controller is the main class that handles all the movement of the Player.">
<polygon fill="white" stroke="black" points="919,-371.5 919,-390.5 1005,-390.5 1005,-371.5 919,-371.5"/>
<text text-anchor="middle" x="962" y="-378.5" font-family="Helvetica,sans-Serif" font-size="10.00">PlayerController</text>
</a>
</g>
</g>
<!-- Node7&#45;&gt;Node13 -->
<g id="edge16" class="edge">
<title>Node7&#45;&gt;Node13</title>
<path fill="none" stroke="midnightblue" d="M219.18,-369.12C258.13,-374.66 313.33,-381 362,-381 362,-381 362,-381 773,-381 823.1,-381 880.71,-381 918.81,-381"/>
<polygon fill="midnightblue" stroke="midnightblue" points="219.54,-365.64 209.14,-367.66 218.54,-372.56 219.54,-365.64"/>
</g>
<!-- Node7&#45;&gt;Node14 -->
<g id="edge18" class="edge">
<title>Node7&#45;&gt;Node14</title>
<path fill="none" stroke="midnightblue" d="M219.15,-354.12C293.91,-343.97 432.41,-325.16 501.91,-315.72"/>
<polygon fill="midnightblue" stroke="midnightblue" points="218.48,-350.68 209.04,-355.49 219.42,-357.62 218.48,-350.68"/>
</g>
<!-- Node15 -->
<g id="node15" class="node">
<title>Node15</title>
<g id="a_node15"><a xlink:href="class_ability_indicator.xhtml" target="_top" xlink:title=" ">
<polygon fill="white" stroke="black" points="732,-213.5 732,-232.5 812,-232.5 812,-213.5 732,-213.5"/>
<text text-anchor="middle" x="772" y="-220.5" font-family="Helvetica,sans-Serif" font-size="10.00">AbilityIndicator</text>
</a>
</g>
</g>
<!-- Node7&#45;&gt;Node15 -->
<g id="edge22" class="edge">
<title>Node7&#45;&gt;Node15</title>
<path fill="none" stroke="midnightblue" d="M198.96,-347.47C269.93,-316.78 452.56,-242.65 614,-218 653.76,-211.93 699.83,-214.51 731.73,-217.8"/>
<polygon fill="midnightblue" stroke="midnightblue" points="197.47,-344.3 189.7,-351.5 200.26,-350.72 197.47,-344.3"/>
</g>
<!-- Node18 -->
<g id="node18" class="node">
<title>Node18</title>
<g id="a_node18"><a xlink:href="class_basic_attack.xhtml" target="_top" xlink:title=" ">
<polygon fill="white" stroke="black" points="1124,-405.5 1124,-424.5 1194,-424.5 1194,-405.5 1124,-405.5"/>
<text text-anchor="middle" x="1159" y="-412.5" font-family="Helvetica,sans-Serif" font-size="10.00">BasicAttack</text>
</a>
</g>
</g>
<!-- Node7&#45;&gt;Node18 -->
<g id="edge33" class="edge">
<title>Node7&#45;&gt;Node18</title>
<path fill="none" stroke="midnightblue" d="M169.01,-341.14C171.09,-304.99 181.02,-228.58 227,-190 300.36,-128.45 1011.45,-75.16 1087,-134 1131.76,-168.86 1152.76,-360.34 1157.12,-405.47"/>
<polygon fill="midnightblue" stroke="midnightblue" points="165.5,-341.23 168.57,-351.37 172.5,-341.53 165.5,-341.23"/>
</g>
<!-- Node19 -->
<g id="node19" class="node">
<title>Node19</title>
<g id="a_node19"><a xlink:href="class_inventory.xhtml" target="_top" xlink:title=" ">
<polygon fill="white" stroke="black" points="421,-459.5 421,-478.5 476,-478.5 476,-459.5 421,-459.5"/>
<text text-anchor="middle" x="448.5" y="-466.5" font-family="Helvetica,sans-Serif" font-size="10.00">Inventory</text>
</a>
</g>
</g>
<!-- Node7&#45;&gt;Node19 -->
<g id="edge39" class="edge">
<title>Node7&#45;&gt;Node19</title>
<path fill="none" stroke="midnightblue" d="M182.23,-378.83C193.04,-391.63 209.2,-408.28 227,-418 290.8,-452.84 377.54,-463.96 420.75,-467.45"/>
<polygon fill="midnightblue" stroke="midnightblue" points="184.67,-376.28 175.65,-370.72 179.23,-380.69 184.67,-376.28"/>
</g>
<!-- Node8 -->
<g id="node8" class="node">
<title>Node8</title>
<g id="a_node8"><a xlink:href="class_player_stats.xhtml" target="_top" xlink:title="Player Stats is the main class that controls all the Player Statistics in all time in the game execut...">
<polygon fill="white" stroke="black" points="738,-438.5 738,-457.5 806,-457.5 806,-438.5 738,-438.5"/>
<text text-anchor="middle" x="772" y="-445.5" font-family="Helvetica,sans-Serif" font-size="10.00">PlayerStats</text>
</a>
</g>
</g>
<!-- Node8&#45;&gt;Node6 -->
<g id="edge8" class="edge">
<title>Node8&#45;&gt;Node6</title>
<path fill="none" stroke="#9a32cd" stroke-dasharray="5,2" d="M785.45,-430.18C821.72,-378.29 926.46,-228.43 954.19,-188.74"/>
<polygon fill="#9a32cd" stroke="#9a32cd" points="782.55,-428.22 779.69,-438.43 788.29,-432.23 782.55,-428.22"/>
<text text-anchor="middle" x="865.5" y="-363" font-family="Helvetica,sans-Serif" font-size="10.00"> stats</text>
</g>
<!-- Node8&#45;&gt;Node13 -->
<g id="edge31" class="edge">
<title>Node8&#45;&gt;Node13</title>
<path fill="none" stroke="#9a32cd" stroke-dasharray="5,2" d="M794.34,-432.7C804.7,-425.86 817.57,-418.19 830,-413 845.94,-406.35 887,-396.74 918.94,-389.79"/>
<polygon fill="#9a32cd" stroke="#9a32cd" points="792.25,-429.89 785.96,-438.42 796.19,-435.67 792.25,-429.89"/>
<text text-anchor="middle" x="865.5" y="-416" font-family="Helvetica,sans-Serif" font-size="10.00"> stats</text>
</g>
<!-- Node8&#45;&gt;Node14 -->
<g id="edge27" class="edge">
<title>Node8&#45;&gt;Node14</title>
<path fill="none" stroke="#9a32cd" stroke-dasharray="5,2" d="M759.08,-429.74C748.66,-414.96 732.36,-394.46 714,-381 690.51,-363.77 614,-334.63 572.82,-319.6"/>
<polygon fill="#9a32cd" stroke="#9a32cd" points="756.25,-431.8 764.77,-438.09 762.03,-427.86 756.25,-431.8"/>
<text text-anchor="middle" x="664" y="-384" font-family="Helvetica,sans-Serif" font-size="10.00"> playerStats</text>
</g>
<!-- Node8&#45;&gt;Node18 -->
<g id="edge36" class="edge">
<title>Node8&#45;&gt;Node18</title>
<path fill="none" stroke="#9a32cd" stroke-dasharray="5,2" d="M816.13,-456.38C820.79,-457.04 825.49,-457.61 830,-458 937.56,-467.36 1064.04,-439.78 1123.63,-424.47"/>
<polygon fill="#9a32cd" stroke="#9a32cd" points="816.45,-452.89 806.03,-454.79 815.36,-459.8 816.45,-452.89"/>
<text text-anchor="middle" x="962" y="-461" font-family="Helvetica,sans-Serif" font-size="10.00"> stats</text>
</g>
<!-- Node9 -->
<g id="node9" class="node">
<title>Node9</title>
<g id="a_node9"><a xlink:href="class_ability_affected_stats.xhtml" target="_top" xlink:title="Base class Stats of the entity who is affected by Abilities.">
<polygon fill="white" stroke="black" points="494,-502.5 494,-521.5 596,-521.5 596,-502.5 494,-502.5"/>
<text text-anchor="middle" x="545" y="-509.5" font-family="Helvetica,sans-Serif" font-size="10.00">AbilityAffectedStats</text>
</a>
</g>
</g>
<!-- Node9&#45;&gt;Node8 -->
<g id="edge9" class="edge">
<title>Node9&#45;&gt;Node8</title>
<path fill="none" stroke="midnightblue" d="M606.43,-510.2C639.21,-507.55 679.89,-501.5 714,-488 731.99,-480.88 749.75,-467.04 760.55,-457.65"/>
<polygon fill="midnightblue" stroke="midnightblue" points="605.8,-506.73 596.08,-510.94 606.31,-513.71 605.8,-506.73"/>
</g>
<!-- Node10&#45;&gt;Node9 -->
<g id="edge10" class="edge">
<title>Node10&#45;&gt;Node9</title>
<path fill="none" stroke="midnightblue" d="M393.28,-512C420.39,-512 461.27,-512 493.62,-512"/>
<polygon fill="midnightblue" stroke="midnightblue" points="393.26,-508.5 383.26,-512 393.26,-515.5 393.26,-508.5"/>
</g>
<!-- Node10&#45;&gt;Node18 -->
<g id="edge35" class="edge">
<title>Node10&#45;&gt;Node18</title>
<path fill="none" stroke="#9a32cd" stroke-dasharray="5,2" d="M392.79,-521.94C428,-533.2 489.64,-550 544,-550 544,-550 544,-550 963,-550 1051.12,-550 1128.18,-455.66 1151.09,-424.71"/>
<polygon fill="#9a32cd" stroke="#9a32cd" points="393.76,-518.58 383.16,-518.79 391.58,-525.23 393.76,-518.58"/>
<text text-anchor="middle" x="772" y="-553" font-family="Helvetica,sans-Serif" font-size="10.00"> otherStats</text>
</g>
<!-- Node11 -->
<g id="node11" class="node">
<title>Node11</title>
<g id="a_node11"><a xlink:href="class_player_u_i_controller.xhtml" target="_top" xlink:title="UI Controller for the Player Stats">
<polygon fill="white" stroke="black" points="497.5,-413.5 497.5,-432.5 592.5,-432.5 592.5,-413.5 497.5,-413.5"/>
<text text-anchor="middle" x="545" y="-420.5" font-family="Helvetica,sans-Serif" font-size="10.00">PlayerUIController</text>
</a>
</g>
</g>
<!-- Node11&#45;&gt;Node8 -->
<g id="edge12" class="edge">
<title>Node11&#45;&gt;Node8</title>
<path fill="none" stroke="#9a32cd" stroke-dasharray="5,2" d="M602.59,-429.29C645.29,-434.03 702.4,-440.38 737.93,-444.33"/>
<polygon fill="#9a32cd" stroke="#9a32cd" points="602.95,-425.81 592.62,-428.18 602.17,-432.76 602.95,-425.81"/>
<text text-anchor="middle" x="664" y="-444" font-family="Helvetica,sans-Serif" font-size="10.00"> uiControl</text>
</g>
<!-- Node12&#45;&gt;Node11 -->
<g id="edge13" class="edge">
<title>Node12&#45;&gt;Node11</title>
<path fill="none" stroke="midnightblue" d="M406.63,-420.71C433.94,-421.17 469.38,-421.76 497.42,-422.22"/>
<polygon fill="midnightblue" stroke="midnightblue" points="406.65,-417.21 396.6,-420.54 406.54,-424.21 406.65,-417.21"/>
</g>
<!-- Node13&#45;&gt;Node8 -->
<g id="edge15" class="edge">
<title>Node13&#45;&gt;Node8</title>
<path fill="none" stroke="#9a32cd" stroke-dasharray="5,2" d="M943.59,-397.6C932.31,-407.4 916.82,-419.18 901,-426 870.46,-439.16 832.62,-444.46 806.03,-446.59"/>
<polygon fill="#9a32cd" stroke="#9a32cd" points="946.25,-399.9 951.33,-390.6 941.56,-394.71 946.25,-399.9"/>
<text text-anchor="middle" x="865.5" y="-446" font-family="Helvetica,sans-Serif" font-size="10.00"> playerController</text>
</g>
<!-- Node13&#45;&gt;Node14 -->
<g id="edge19" class="edge">
<title>Node13&#45;&gt;Node14</title>
<path fill="none" stroke="#9a32cd" stroke-dasharray="5,2" d="M948.62,-362.96C937.76,-348.54 920.65,-328.99 901,-318 865.7,-298.25 852.22,-303.25 812,-299 733.17,-290.68 640.58,-298.44 588.05,-304.48"/>
<polygon fill="#9a32cd" stroke="#9a32cd" points="945.85,-365.1 954.55,-371.15 951.52,-361 945.85,-365.1"/>
<text text-anchor="middle" x="772" y="-302" font-family="Helvetica,sans-Serif" font-size="10.00"> playerController</text>
</g>
<!-- Node13&#45;&gt;Node18 -->
<g id="edge34" class="edge">
<title>Node13&#45;&gt;Node18</title>
<path fill="none" stroke="#9a32cd" stroke-dasharray="5,2" d="M1015.32,-391.58C1017.91,-392.07 1020.48,-392.54 1023,-393 1057.23,-399.21 1096.49,-405.52 1123.82,-409.78"/>
<polygon fill="#9a32cd" stroke="#9a32cd" points="1015.73,-388.09 1005.25,-389.65 1014.41,-394.97 1015.73,-388.09"/>
<text text-anchor="middle" x="1055" y="-406" font-family="Helvetica,sans-Serif" font-size="10.00"> controller</text>
</g>
<!-- Node14&#45;&gt;Node8 -->
<g id="edge37" class="edge">
<title>Node14&#45;&gt;Node8</title>
<path fill="none" stroke="#9a32cd" stroke-dasharray="5,2" d="M556.35,-328.42C567.93,-347.3 588.47,-376.1 614,-392 652.8,-416.16 671.45,-399.32 714,-416 729.22,-421.96 745.35,-431.34 756.55,-438.41"/>
<polygon fill="#9a32cd" stroke="#9a32cd" points="559.22,-326.4 551.13,-319.56 553.19,-329.95 559.22,-326.4"/>
<text text-anchor="middle" x="664" y="-419" font-family="Helvetica,sans-Serif" font-size="10.00"> abilityCooldowns</text>
</g>
<!-- Node14&#45;&gt;Node13 -->
<g id="edge17" class="edge">
<title>Node14&#45;&gt;Node13</title>
<path fill="none" stroke="#9a32cd" stroke-dasharray="5,2" d="M598.39,-310.24C683.34,-311.23 847.04,-315.79 901,-336 921.49,-343.67 940.92,-360.65 951.87,-371.42"/>
<polygon fill="#9a32cd" stroke="#9a32cd" points="598.22,-306.74 588.19,-310.13 598.15,-313.74 598.22,-306.74"/>
<text text-anchor="middle" x="772" y="-322" font-family="Helvetica,sans-Serif" font-size="10.00"> abilityCooldowns</text>
</g>
<!-- Node14&#45;&gt;Node15 -->
<g id="edge23" class="edge">
<title>Node14&#45;&gt;Node15</title>
<path fill="none" stroke="#9a32cd" stroke-dasharray="5,2" d="M568.89,-295.06C581.72,-287.24 598.26,-278.07 614,-272 656.55,-255.6 670.81,-263.65 714,-249 727.29,-244.49 741.66,-237.93 752.64,-232.52"/>
<polygon fill="#9a32cd" stroke="#9a32cd" points="566.89,-292.17 560.27,-300.44 570.6,-298.11 566.89,-292.17"/>
<text text-anchor="middle" x="664" y="-275" font-family="Helvetica,sans-Serif" font-size="10.00"> currentCD</text>
</g>
<!-- Node15&#45;&gt;Node14 -->
<g id="edge21" class="edge">
<title>Node15&#45;&gt;Node14</title>
<path fill="none" stroke="#9a32cd" stroke-dasharray="5,2" d="M721.76,-219.02C689.55,-218.45 647.41,-221.67 614,-238 584.96,-252.19 561.9,-284.37 551.7,-300.46"/>
<polygon fill="#9a32cd" stroke="#9a32cd" points="721.75,-222.52 731.85,-219.32 721.96,-215.52 721.75,-222.52"/>
<text text-anchor="middle" x="664" y="-241" font-family="Helvetica,sans-Serif" font-size="10.00"> abilityIndicator</text>
</g>
<!-- Node16&#45;&gt;Node15 -->
<g id="edge24" class="edge">
<title>Node16&#45;&gt;Node15</title>
<path fill="none" stroke="#9a32cd" stroke-dasharray="5,2" d="M582.89,-54.76C587.43,-56.95 591.91,-59.37 596,-62 668.61,-108.61 739.3,-186.42 762.81,-213.43"/>
<polygon fill="#9a32cd" stroke="#9a32cd" points="584.15,-51.48 573.59,-50.59 581.28,-57.87 584.15,-51.48"/>
<text text-anchor="middle" x="664" y="-162" font-family="Helvetica,sans-Serif" font-size="10.00"> current</text>
</g>
<!-- Node17&#45;&gt;Node13 -->
<g id="edge28" class="edge">
<title>Node17&#45;&gt;Node13</title>
<path fill="none" stroke="#9a32cd" stroke-dasharray="5,2" d="M584.93,-76.89C620.27,-74.81 672.97,-75.97 714,-95 847.02,-156.69 936.04,-328.66 956.5,-371.32"/>
<polygon fill="#9a32cd" stroke="#9a32cd" points="584.28,-73.42 574.55,-77.62 584.77,-80.4 584.28,-73.42"/>
<text text-anchor="middle" x="772" y="-166" font-family="Helvetica,sans-Serif" font-size="10.00"> character</text>
</g>
<!-- Node18&#45;&gt;Node13 -->
<g id="edge32" class="edge">
<title>Node18&#45;&gt;Node13</title>
<path fill="none" stroke="#9a32cd" stroke-dasharray="5,2" d="M1133.67,-400.53C1120.37,-393.45 1103.33,-385.68 1087,-382 1060.22,-375.97 1029.36,-375.7 1005.12,-376.94"/>
<polygon fill="#9a32cd" stroke="#9a32cd" points="1132.18,-403.71 1142.62,-405.49 1135.57,-397.58 1132.18,-403.71"/>
<text text-anchor="middle" x="1055" y="-385" font-family="Helvetica,sans-Serif" font-size="10.00"> basicAttack</text>
</g>
<!-- Node19&#45;&gt;Node8 -->
<g id="edge38" class="edge">
<title>Node19&#45;&gt;Node8</title>
<path fill="none" stroke="#9a32cd" stroke-dasharray="5,2" d="M486.45,-468.24C537.65,-466.94 633.02,-463.66 714,-456 721.76,-455.27 730.08,-454.24 737.9,-453.16"/>
<polygon fill="#9a32cd" stroke="#9a32cd" points="486.13,-464.74 476.21,-468.48 486.29,-471.74 486.13,-464.74"/>
<text text-anchor="middle" x="545" y="-471" font-family="Helvetica,sans-Serif" font-size="10.00"> inventory</text>
</g>
</g>
</svg>
        <g id="navigator" transform="translate(0 0)" fill="#404254">
                <rect fill="#f2f5e9" fill-opacity="0.5" stroke="#606060" stroke-width=".5" x="0" y="0" width="60" height="60"/>
                <use id="zoomplus" xlink:href="#zoomPlus" x="17" y="9" onmousedown="handleZoom(evt,'in')"/>
                <use id="zoomminus" xlink:href="#zoomMin" x="42" y="9" onmousedown="handleZoom(evt,'out')"/>
                <use id="reset" xlink:href="#resetDef" x="30" y="36" onmousedown="handleReset()"/>
                <g id="arrowUp" xlink:href="#dirArrow" transform="translate(30 24)" onmousedown="handlePan(0,-1)">
                  <use xlink:href="#rim" fill="#404040">
                        <set attributeName="fill" to="#808080" begin="arrowUp.mouseover" end="arrowUp.mouseout"/>
                  </use>
                  <path fill="none" stroke="white" stroke-width="1.5" d="M0,-3.0v7 M-2.5,-0.5L0,-3.0L2.5,-0.5"/>
                </g>
                <g id="arrowRight" xlink:href="#dirArrow" transform="rotate(90) translate(36 -43)" onmousedown="handlePan(1,0)">
                  <use xlink:href="#rim" fill="#404040">
                        <set attributeName="fill" to="#808080" begin="arrowRight.mouseover" end="arrowRight.mouseout"/>
                  </use>
                  <path fill="none" stroke="white" stroke-width="1.5" d="M0,-3.0v7 M-2.5,-0.5L0,-3.0L2.5,-0.5"/>
                </g>
                <g id="arrowDown" xlink:href="#dirArrow" transform="rotate(180) translate(-30 -48)" onmousedown="handlePan(0,1)">
                  <use xlink:href="#rim" fill="#404040">
                        <set attributeName="fill" to="#808080" begin="arrowDown.mouseover" end="arrowDown.mouseout"/>
                  </use>
                  <path fill="none" stroke="white" stroke-width="1.5" d="M0,-3.0v7 M-2.5,-0.5L0,-3.0L2.5,-0.5"/>
                </g>
                <g id="arrowLeft" xlink:href="#dirArrow" transform="rotate(270) translate(-36 17)" onmousedown="handlePan(-1,0)">
                  <use xlink:href="#rim" fill="#404040">
                        <set attributeName="fill" to="#808080" begin="arrowLeft.mouseover" end="arrowLeft.mouseout"/>
                  </use>
                  <path fill="none" stroke="white" stroke-width="1.5" d="M0,-3.0v7 M-2.5,-0.5L0,-3.0L2.5,-0.5"/>
                </g>
        </g>
        <svg viewBox="0 0 15 15" width="100%" height="30px" preserveAspectRatio="xMaxYMin meet">
         <g id="arrow_out" transform="scale(0.3 0.3)">
          <a xlink:href="class_ability___stats_changer__coll__graph_org.svg" target="_base">
           <rect id="button" ry="5" rx="5" y="6" x="6" height="38" width="38"
                fill="#f2f5e9" fill-opacity="0.5" stroke="#606060" stroke-width="1.0"/>
           <path id="arrow"
             d="M 11.500037,31.436501 C 11.940474,20.09759 22.043105,11.32322 32.158766,21.979434 L 37.068811,17.246167 C 37.068811,17.246167 37.088388,32 37.088388,32 L 22.160133,31.978069 C 22.160133,31.978069 26.997745,27.140456 26.997745,27.140456 C 18.528582,18.264221 13.291696,25.230495 11.500037,31.436501 z"
             style="fill:#404040;"/>
          </a>
         </g>
        </svg>
</svg>
