<?xml version="1.0" encoding="UTF-8" standalone="no"?>
<!DOCTYPE svg PUBLIC "-//W3C//DTD SVG 1.1//EN"
 "http://www.w3.org/Graphics/SVG/1.1/DTD/svg11.dtd">
<!-- Generated by graphviz version 2.47.3 (20210619.1520)
 -->
<!-- Title: ConnectToServer.RetryConnectionCorrutine Pages: 1 -->
<svg width="349pt" height="78pt"
 viewBox="0.00 0.00 349.00 77.50" xmlns="http://www.w3.org/2000/svg" xmlns:xlink="http://www.w3.org/1999/xlink">
<g id="graph0" class="graph" transform="scale(1 1) rotate(0) translate(4 73.5)">
<title>ConnectToServer.RetryConnectionCorrutine</title>
<polygon fill="white" stroke="transparent" points="-4,4 -4,-73.5 345,-73.5 345,4 -4,4"/>
<!-- Node1 -->
<g id="node1" class="node">
<title>Node1</title>
<g id="a_node1"><a xlink:title=" ">
<polygon fill="#bfbfbf" stroke="black" points="0,-17 0,-47 165,-47 165,-17 0,-17"/>
<text text-anchor="start" x="8" y="-35" font-family="Helvetica,sans-Serif" font-size="10.00">ConnectToServer.RetryConnection</text>
<text text-anchor="middle" x="82.5" y="-24" font-family="Helvetica,sans-Serif" font-size="10.00">Corrutine</text>
</a>
</g>
</g>
<!-- Node2 -->
<g id="node2" class="node">
<title>Node2</title>
<g id="a_node2"><a xlink:href="class_photon_1_1_pun_1_1_photon_network.xhtml#a3eaa67a8c2af70028949403df6b60ca2" target="_top" xlink:title="Connect to Photon as configured in the PhotonServerSettings file.">
<polygon fill="white" stroke="black" points="201,-39 201,-69 341,-69 341,-39 201,-39"/>
<text text-anchor="start" x="209" y="-57" font-family="Helvetica,sans-Serif" font-size="10.00">Photon.Pun.PhotonNetwork.</text>
<text text-anchor="middle" x="271" y="-46" font-family="Helvetica,sans-Serif" font-size="10.00">ConnectUsingSettings</text>
</a>
</g>
</g>
<!-- Node1&#45;&gt;Node2 -->
<g id="edge1" class="edge">
<title>Node1&#45;&gt;Node2</title>
<path fill="none" stroke="midnightblue" d="M165.03,-41.62C173.63,-42.63 182.35,-43.66 190.92,-44.67"/>
<polygon fill="midnightblue" stroke="midnightblue" points="190.54,-48.15 200.88,-45.85 191.36,-41.2 190.54,-48.15"/>
</g>
<!-- Node3 -->
<g id="node3" class="node">
<title>Node3</title>
<g id="a_node3"><a xlink:href="class_connect_to_server.xhtml#a2ca5fc3ab94cacd35c3cc2b641e1b463" target="_top" xlink:title=" ">
<polygon fill="white" stroke="black" points="202,-0.5 202,-19.5 340,-19.5 340,-0.5 202,-0.5"/>
<text text-anchor="middle" x="271" y="-7.5" font-family="Helvetica,sans-Serif" font-size="10.00">ConnectToServer.ShowError</text>
</a>
</g>
</g>
<!-- Node1&#45;&gt;Node3 -->
<g id="edge2" class="edge">
<title>Node1&#45;&gt;Node3</title>
<path fill="none" stroke="midnightblue" d="M165.03,-22.38C173.84,-21.34 182.78,-20.29 191.55,-19.25"/>
<polygon fill="midnightblue" stroke="midnightblue" points="192.22,-22.7 201.74,-18.05 191.4,-15.75 192.22,-22.7"/>
</g>
</g>
</svg>
