<?xml version="1.0" encoding="UTF-8" standalone="no"?>
<!DOCTYPE svg PUBLIC "-//W3C//DTD SVG 1.1//EN"
 "http://www.w3.org/Graphics/SVG/1.1/DTD/svg11.dtd">
<!-- Generated by graphviz version 2.50.0 (20211204.2007)
 -->
<!-- Title: PlayerStats.LevelUp Pages: 1 -->
<svg width="457pt" height="127pt"
 viewBox="0.00 0.00 457.00 126.50" xmlns="http://www.w3.org/2000/svg" xmlns:xlink="http://www.w3.org/1999/xlink">
<g id="graph0" class="graph" transform="scale(1 1) rotate(0) translate(4 122.5)">
<title>PlayerStats.LevelUp</title>
<polygon fill="white" stroke="transparent" points="-4,4 -4,-122.5 453,-122.5 453,4 -4,4"/>
<!-- Node1 -->
<g id="node1" class="node">
<title>Node1</title>
<g id="a_node1"><a xlink:title="Called whenever the player levels up.">
<polygon fill="#bfbfbf" stroke="black" points="0,-55 0,-74 104,-74 104,-55 0,-55"/>
<text text-anchor="middle" x="52" y="-62" font-family="Helvetica,sans-Serif" font-size="10.00">PlayerStats.LevelUp</text>
</a>
</g>
</g>
<!-- Node2 -->
<g id="node2" class="node">
<title>Node2</title>
<g id="a_node2"><a xlink:href="class_player_stats.html#aab2157e21bb713cc5d12a4b50e176ae6" target="_top" xlink:title=" ">
<polygon fill="white" stroke="black" points="140,-99 140,-118 271,-118 271,-99 140,-99"/>
<text text-anchor="middle" x="205.5" y="-106" font-family="Helvetica,sans-Serif" font-size="10.00">PlayerStats.GetXPNeeded</text>
</a>
</g>
</g>
<!-- Node1&#45;&gt;Node2 -->
<g id="edge1" class="edge">
<title>Node1&#45;&gt;Node2</title>
<path fill="none" stroke="midnightblue" d="M85.87,-74.05C108.21,-80.53 137.96,-89.17 162.08,-96.18"/>
<polygon fill="midnightblue" stroke="midnightblue" points="161.11,-99.54 171.69,-98.97 163.06,-92.82 161.11,-99.54"/>
</g>
<!-- Node3 -->
<g id="node3" class="node">
<title>Node3</title>
<g id="a_node3"><a xlink:href="class_player_u_i_controller.html#aca577b724c1f3f2ed54ad1165a7842c2" target="_top" xlink:title="Sets the current HP value to the Image.">
<polygon fill="white" stroke="black" points="141.5,-0.5 141.5,-30.5 269.5,-30.5 269.5,-0.5 141.5,-0.5"/>
<text text-anchor="start" x="149.5" y="-18.5" font-family="Helvetica,sans-Serif" font-size="10.00">PlayerUIController.Update</text>
<text text-anchor="middle" x="205.5" y="-7.5" font-family="Helvetica,sans-Serif" font-size="10.00">CurrentHP</text>
</a>
</g>
</g>
<!-- Node1&#45;&gt;Node3 -->
<g id="edge2" class="edge">
<title>Node1&#45;&gt;Node3</title>
<path fill="none" stroke="midnightblue" d="M82.57,-54.94C101.25,-48.89 125.98,-40.89 148.29,-33.68"/>
<polygon fill="midnightblue" stroke="midnightblue" points="149.57,-36.94 158.01,-30.54 147.42,-30.28 149.57,-36.94"/>
</g>
<!-- Node6 -->
<g id="node6" class="node">
<title>Node6</title>
<g id="a_node6"><a xlink:href="class_player_u_i_controller.html#ac7bf7455ce00b144f6a1678e524819b2" target="_top" xlink:title="Sets the current MP value to the Image.">
<polygon fill="white" stroke="black" points="141.5,-49.5 141.5,-79.5 269.5,-79.5 269.5,-49.5 141.5,-49.5"/>
<text text-anchor="start" x="149.5" y="-67.5" font-family="Helvetica,sans-Serif" font-size="10.00">PlayerUIController.Update</text>
<text text-anchor="middle" x="205.5" y="-56.5" font-family="Helvetica,sans-Serif" font-size="10.00">CurrentMana</text>
</a>
</g>
</g>
<!-- Node1&#45;&gt;Node6 -->
<g id="edge5" class="edge">
<title>Node1&#45;&gt;Node6</title>
<path fill="none" stroke="midnightblue" d="M104.29,-64.5C112.96,-64.5 122.11,-64.5 131.21,-64.5"/>
<polygon fill="midnightblue" stroke="midnightblue" points="131.44,-68 141.44,-64.5 131.44,-61 131.44,-68"/>
</g>
<!-- Node4 -->
<g id="node4" class="node">
<title>Node4</title>
<g id="a_node4"><a xlink:href="class_utils.html#a459472171f68c903c975020cc5b02fee" target="_top" xlink:title="Calculates the actual normalized fill amount for the image.">
<polygon fill="white" stroke="black" points="315,-49 315,-68 441,-68 441,-49 315,-49"/>
<text text-anchor="middle" x="378" y="-56" font-family="Helvetica,sans-Serif" font-size="10.00">Utils.CalculateFillAmount</text>
</a>
</g>
</g>
<!-- Node3&#45;&gt;Node4 -->
<g id="edge3" class="edge">
<title>Node3&#45;&gt;Node4</title>
<path fill="none" stroke="midnightblue" d="M266.13,-30.54C286.82,-35.76 309.73,-41.53 329.33,-46.48"/>
<polygon fill="midnightblue" stroke="midnightblue" points="328.69,-49.93 339.24,-48.98 330.4,-43.14 328.69,-49.93"/>
</g>
<!-- Node5 -->
<g id="node5" class="node">
<title>Node5</title>
<g id="a_node5"><a xlink:href="class_player_u_i_controller.html#aaa62b1e4dc1ee6689adbc72b8dcb73d3" target="_top" xlink:title="When you heal HP, we will reset the lerped bar">
<polygon fill="white" stroke="black" points="307,-6 307,-25 449,-25 449,-6 307,-6"/>
<text text-anchor="middle" x="378" y="-13" font-family="Helvetica,sans-Serif" font-size="10.00">PlayerUIController.ResetLerp</text>
</a>
</g>
</g>
<!-- Node3&#45;&gt;Node5 -->
<g id="edge4" class="edge">
<title>Node3&#45;&gt;Node5</title>
<path fill="none" stroke="midnightblue" d="M269.5,-15.5C278.33,-15.5 287.49,-15.5 296.58,-15.5"/>
<polygon fill="midnightblue" stroke="midnightblue" points="296.79,-19 306.79,-15.5 296.79,-12 296.79,-19"/>
</g>
<!-- Node6&#45;&gt;Node4 -->
<g id="edge6" class="edge">
<title>Node6&#45;&gt;Node4</title>
<path fill="none" stroke="midnightblue" d="M269.5,-62.28C280.95,-61.88 292.97,-61.46 304.66,-61.05"/>
<polygon fill="midnightblue" stroke="midnightblue" points="304.95,-64.54 314.82,-60.69 304.71,-57.54 304.95,-64.54"/>
</g>
</g>
</svg>
