<?xml version="1.0" encoding="UTF-8" standalone="no"?>
<!DOCTYPE svg PUBLIC "-//W3C//DTD SVG 1.1//EN"
 "http://www.w3.org/Graphics/SVG/1.1/DTD/svg11.dtd">
<!-- Generated by graphviz version 2.47.3 (20210619.1520)
 -->
<!-- Title: Tayx.Graphy.Ram.G_RamManager.SetGraphActive Pages: 1 -->
<svg width="1366pt" height="364pt"
 viewBox="0.00 0.00 1366.00 364.16" xmlns="http://www.w3.org/2000/svg" xmlns:xlink="http://www.w3.org/1999/xlink">
<g id="graph0" class="graph" transform="scale(1 1) rotate(0) translate(4 360.16)">
<title>Tayx.Graphy.Ram.G_RamManager.SetGraphActive</title>
<polygon fill="white" stroke="transparent" points="-4,4 -4,-360.16 1362,-360.16 1362,4 -4,4"/>
<!-- Node1 -->
<g id="node1" class="node">
<title>Node1</title>
<g id="a_node1"><a xlink:title=" ">
<polygon fill="#bfbfbf" stroke="black" points="1186,-189.5 1186,-219.5 1358,-219.5 1358,-189.5 1186,-189.5"/>
<text text-anchor="start" x="1194" y="-207.5" font-family="Helvetica,sans-Serif" font-size="10.00">Tayx.Graphy.Ram.G_RamManager.</text>
<text text-anchor="middle" x="1272" y="-196.5" font-family="Helvetica,sans-Serif" font-size="10.00">SetGraphActive</text>
</a>
</g>
</g>
<!-- Node2 -->
<g id="node2" class="node">
<title>Node2</title>
<g id="a_node2"><a xlink:href="class_tayx_1_1_graphy_1_1_ram_1_1_g___ram_manager.xhtml#a00af4a150c20f8d373fb6df080b1e3e1" target="_top" xlink:title="Set the module state.">
<polygon fill="white" stroke="black" points="978,-189.5 978,-219.5 1150,-219.5 1150,-189.5 978,-189.5"/>
<text text-anchor="start" x="986" y="-207.5" font-family="Helvetica,sans-Serif" font-size="10.00">Tayx.Graphy.Ram.G_RamManager.</text>
<text text-anchor="middle" x="1064" y="-196.5" font-family="Helvetica,sans-Serif" font-size="10.00">SetState</text>
</a>
</g>
</g>
<!-- Node1&#45;&gt;Node2 -->
<g id="edge1" class="edge">
<title>Node1&#45;&gt;Node2</title>
<path fill="none" stroke="midnightblue" d="M1175.49,-204.5C1167.05,-204.5 1158.55,-204.5 1150.21,-204.5"/>
<polygon fill="midnightblue" stroke="midnightblue" points="1175.72,-208 1185.72,-204.5 1175.72,-201 1175.72,-208"/>
</g>
<!-- Node3 -->
<g id="node3" class="node">
<title>Node3</title>
<g id="a_node3"><a xlink:href="class_tayx_1_1_graphy_1_1_graphy_manager.xhtml#a57460bb66e12e12b4995152b661d6589" target="_top" xlink:title=" ">
<polygon fill="white" stroke="black" points="574.5,-282.5 574.5,-312.5 721.5,-312.5 721.5,-282.5 574.5,-282.5"/>
<text text-anchor="start" x="582.5" y="-300.5" font-family="Helvetica,sans-Serif" font-size="10.00">Tayx.Graphy.GraphyManager.</text>
<text text-anchor="middle" x="648" y="-289.5" font-family="Helvetica,sans-Serif" font-size="10.00">Disable</text>
</a>
</g>
</g>
<!-- Node2&#45;&gt;Node3 -->
<g id="edge2" class="edge">
<title>Node2&#45;&gt;Node3</title>
<path fill="none" stroke="midnightblue" d="M1036.71,-225.83C1013.37,-243.41 977.54,-267.24 942,-278.5 869.47,-301.48 781.92,-304.12 721.52,-302.33"/>
<polygon fill="midnightblue" stroke="midnightblue" points="1038.93,-228.53 1044.72,-219.66 1034.66,-222.99 1038.93,-228.53"/>
</g>
<!-- Node7 -->
<g id="node7" class="node">
<title>Node7</title>
<g id="a_node7"><a xlink:href="class_tayx_1_1_graphy_1_1_graphy_manager.xhtml#a0b4d55c65e436a19150af93e701f82b0" target="_top" xlink:title=" ">
<polygon fill="white" stroke="black" points="183,-297 183,-316 343,-316 343,-297 183,-297"/>
<text text-anchor="middle" x="263" y="-304" font-family="Helvetica,sans-Serif" font-size="10.00">Tayx.Graphy.GraphyManager.Init</text>
</a>
</g>
</g>
<!-- Node2&#45;&gt;Node7 -->
<g id="edge8" class="edge">
<title>Node2&#45;&gt;Node7</title>
<path fill="none" stroke="midnightblue" d="M1043.54,-227.22C1021.58,-251.11 983.47,-287.53 942,-304.5 715.14,-397.35 408.71,-340.46 302.29,-316.01"/>
<polygon fill="midnightblue" stroke="midnightblue" points="1046.27,-229.42 1050.35,-219.65 1041.06,-224.74 1046.27,-229.42"/>
</g>
<!-- Node9 -->
<g id="node9" class="node">
<title>Node9</title>
<g id="a_node9"><a xlink:href="class_tayx_1_1_graphy_1_1_ram_1_1_g___ram_manager.xhtml#a42f32f1355b815fb810b661fe4b90fdc" target="_top" xlink:title=" ">
<polygon fill="white" stroke="black" points="770,-189.5 770,-219.5 942,-219.5 942,-189.5 770,-189.5"/>
<text text-anchor="start" x="778" y="-207.5" font-family="Helvetica,sans-Serif" font-size="10.00">Tayx.Graphy.Ram.G_RamManager.</text>
<text text-anchor="middle" x="856" y="-196.5" font-family="Helvetica,sans-Serif" font-size="10.00">RefreshParameters</text>
</a>
</g>
</g>
<!-- Node2&#45;&gt;Node9 -->
<g id="edge9" class="edge">
<title>Node2&#45;&gt;Node9</title>
<path fill="none" stroke="midnightblue" d="M967.49,-204.5C959.05,-204.5 950.55,-204.5 942.21,-204.5"/>
<polygon fill="midnightblue" stroke="midnightblue" points="967.72,-208 977.72,-204.5 967.72,-201 967.72,-208"/>
</g>
<!-- Node12 -->
<g id="node12" class="node">
<title>Node12</title>
<g id="a_node12"><a xlink:href="class_tayx_1_1_graphy_1_1_ram_1_1_g___ram_manager.xhtml#abdd7ccef7202322ad28b1de2d219e9d1" target="_top" xlink:title=" ">
<polygon fill="white" stroke="black" points="770,-238.5 770,-268.5 942,-268.5 942,-238.5 770,-238.5"/>
<text text-anchor="start" x="778" y="-256.5" font-family="Helvetica,sans-Serif" font-size="10.00">Tayx.Graphy.Ram.G_RamManager.</text>
<text text-anchor="middle" x="856" y="-245.5" font-family="Helvetica,sans-Serif" font-size="10.00">RestorePreviousState</text>
</a>
</g>
</g>
<!-- Node2&#45;&gt;Node12 -->
<g id="edge12" class="edge">
<title>Node2&#45;&gt;Node12</title>
<path fill="none" stroke="midnightblue" d="M989.83,-221.9C967.04,-227.32 942.12,-233.25 920.09,-238.49"/>
<polygon fill="midnightblue" stroke="midnightblue" points="990.87,-225.25 999.79,-219.53 989.25,-218.44 990.87,-225.25"/>
</g>
<!-- Node14 -->
<g id="node14" class="node">
<title>Node14</title>
<g id="a_node14"><a xlink:href="class_tayx_1_1_graphy_1_1_graphy_manager.xhtml#a9e5ef5aba3c5ed6f9e07e8e1ee02516a" target="_top" xlink:title=" ">
<polygon fill="white" stroke="black" points="782.5,-140.5 782.5,-170.5 929.5,-170.5 929.5,-140.5 782.5,-140.5"/>
<text text-anchor="start" x="790.5" y="-158.5" font-family="Helvetica,sans-Serif" font-size="10.00">Tayx.Graphy.GraphyManager.</text>
<text text-anchor="middle" x="856" y="-147.5" font-family="Helvetica,sans-Serif" font-size="10.00">SetModuleMode</text>
</a>
</g>
</g>
<!-- Node2&#45;&gt;Node14 -->
<g id="edge15" class="edge">
<title>Node2&#45;&gt;Node14</title>
<path fill="none" stroke="midnightblue" d="M989.83,-187.1C967.04,-181.68 942.12,-175.75 920.09,-170.51"/>
<polygon fill="midnightblue" stroke="midnightblue" points="989.25,-190.56 999.79,-189.47 990.87,-183.75 989.25,-190.56"/>
</g>
<!-- Node15 -->
<g id="node15" class="node">
<title>Node15</title>
<g id="a_node15"><a xlink:href="class_tayx_1_1_graphy_1_1_graphy_manager.xhtml#ac2c39047257c8b8785f075d82003b39b" target="_top" xlink:title=" ">
<polygon fill="white" stroke="black" points="782.5,-91.5 782.5,-121.5 929.5,-121.5 929.5,-91.5 782.5,-91.5"/>
<text text-anchor="start" x="790.5" y="-109.5" font-family="Helvetica,sans-Serif" font-size="10.00">Tayx.Graphy.GraphyManager.</text>
<text text-anchor="middle" x="856" y="-98.5" font-family="Helvetica,sans-Serif" font-size="10.00">SetPreset</text>
</a>
</g>
</g>
<!-- Node2&#45;&gt;Node15 -->
<g id="edge16" class="edge">
<title>Node2&#45;&gt;Node15</title>
<path fill="none" stroke="midnightblue" d="M1033.89,-183.55C1010.12,-167.23 975.16,-144.99 942,-130.5 934.41,-127.18 926.24,-124.2 918.08,-121.55"/>
<polygon fill="midnightblue" stroke="midnightblue" points="1031.91,-186.43 1042.11,-189.26 1035.9,-180.68 1031.91,-186.43"/>
</g>
<!-- Node17 -->
<g id="node17" class="node">
<title>Node17</title>
<g id="a_node17"><a xlink:href="class_tayx_1_1_graphy_1_1_ram_1_1_g___ram_manager.xhtml#a1acb2bac295238dc6b3e4c2b3198568d" target="_top" xlink:title=" ">
<polygon fill="white" stroke="black" points="770,-42.5 770,-72.5 942,-72.5 942,-42.5 770,-42.5"/>
<text text-anchor="start" x="778" y="-60.5" font-family="Helvetica,sans-Serif" font-size="10.00">Tayx.Graphy.Ram.G_RamManager.</text>
<text text-anchor="middle" x="856" y="-49.5" font-family="Helvetica,sans-Serif" font-size="10.00">UpdateParameters</text>
</a>
</g>
</g>
<!-- Node2&#45;&gt;Node17 -->
<g id="edge19" class="edge">
<title>Node2&#45;&gt;Node17</title>
<path fill="none" stroke="midnightblue" d="M1045.91,-180.79C1024.64,-152.97 985.73,-107.38 942,-81.5 936.19,-78.06 929.87,-75.1 923.38,-72.55"/>
<polygon fill="midnightblue" stroke="midnightblue" points="1043.38,-183.25 1052.18,-189.15 1048.98,-179.05 1043.38,-183.25"/>
</g>
<!-- Node4 -->
<g id="node4" class="node">
<title>Node4</title>
<g id="a_node4"><a xlink:href="class_tayx_1_1_graphy_1_1_graphy_manager.xhtml#ab748381e2def67b4fd5df7413ffa7d04" target="_top" xlink:title=" ">
<polygon fill="white" stroke="black" points="379,-257.5 379,-287.5 526,-287.5 526,-257.5 379,-257.5"/>
<text text-anchor="start" x="387" y="-275.5" font-family="Helvetica,sans-Serif" font-size="10.00">Tayx.Graphy.GraphyManager.</text>
<text text-anchor="middle" x="452.5" y="-264.5" font-family="Helvetica,sans-Serif" font-size="10.00">ToggleActive</text>
</a>
</g>
</g>
<!-- Node3&#45;&gt;Node4 -->
<g id="edge3" class="edge">
<title>Node3&#45;&gt;Node4</title>
<path fill="none" stroke="midnightblue" d="M564.32,-286.82C551.64,-285.18 538.63,-283.5 526.19,-281.89"/>
<polygon fill="midnightblue" stroke="midnightblue" points="564.03,-290.31 574.4,-288.12 564.93,-283.37 564.03,-290.31"/>
</g>
<!-- Node5 -->
<g id="node5" class="node">
<title>Node5</title>
<g id="a_node5"><a xlink:href="class_tayx_1_1_graphy_1_1_graphy_manager.xhtml#a6b62659ff2351c37037522cc8def6072" target="_top" xlink:title=" ">
<polygon fill="white" stroke="black" points="189.5,-218.5 189.5,-248.5 336.5,-248.5 336.5,-218.5 189.5,-218.5"/>
<text text-anchor="start" x="197.5" y="-236.5" font-family="Helvetica,sans-Serif" font-size="10.00">Tayx.Graphy.GraphyManager.</text>
<text text-anchor="middle" x="263" y="-225.5" font-family="Helvetica,sans-Serif" font-size="10.00">CheckForHotkeyPresses</text>
</a>
</g>
</g>
<!-- Node4&#45;&gt;Node5 -->
<g id="edge4" class="edge">
<title>Node4&#45;&gt;Node5</title>
<path fill="none" stroke="midnightblue" d="M369.24,-255.39C358.23,-253.1 347.01,-250.77 336.19,-248.51"/>
<polygon fill="midnightblue" stroke="midnightblue" points="368.77,-258.87 379.28,-257.48 370.2,-252.01 368.77,-258.87"/>
</g>
<!-- Node4&#45;&gt;Node7 -->
<g id="edge6" class="edge">
<title>Node4&#45;&gt;Node7</title>
<path fill="none" stroke="midnightblue" d="M368.46,-287.56C350.86,-290.75 332.76,-294.03 316.67,-296.95"/>
<polygon fill="midnightblue" stroke="midnightblue" points="369.52,-290.92 378.74,-285.69 368.28,-284.03 369.52,-290.92"/>
</g>
<!-- Node6 -->
<g id="node6" class="node">
<title>Node6</title>
<g id="a_node6"><a xlink:href="class_tayx_1_1_graphy_1_1_graphy_manager.xhtml#a6a41caec3369fb8e46190484bce5c56a" target="_top" xlink:title=" ">
<polygon fill="white" stroke="black" points="0,-218.5 0,-248.5 147,-248.5 147,-218.5 0,-218.5"/>
<text text-anchor="start" x="8" y="-236.5" font-family="Helvetica,sans-Serif" font-size="10.00">Tayx.Graphy.GraphyManager.</text>
<text text-anchor="middle" x="73.5" y="-225.5" font-family="Helvetica,sans-Serif" font-size="10.00">Update</text>
</a>
</g>
</g>
<!-- Node5&#45;&gt;Node6 -->
<g id="edge5" class="edge">
<title>Node5&#45;&gt;Node6</title>
<path fill="none" stroke="midnightblue" d="M179.12,-233.5C168.49,-233.5 157.67,-233.5 147.22,-233.5"/>
<polygon fill="midnightblue" stroke="midnightblue" points="179.24,-237 189.24,-233.5 179.24,-230 179.24,-237"/>
</g>
<!-- Node8 -->
<g id="node8" class="node">
<title>Node8</title>
<g id="a_node8"><a xlink:href="class_tayx_1_1_graphy_1_1_graphy_manager.xhtml#a6a186120c515fe48b10b2cf95caac917" target="_top" xlink:title=" ">
<polygon fill="white" stroke="black" points="0,-291.5 0,-321.5 147,-321.5 147,-291.5 0,-291.5"/>
<text text-anchor="start" x="8" y="-309.5" font-family="Helvetica,sans-Serif" font-size="10.00">Tayx.Graphy.GraphyManager.</text>
<text text-anchor="middle" x="73.5" y="-298.5" font-family="Helvetica,sans-Serif" font-size="10.00">Start</text>
</a>
</g>
</g>
<!-- Node7&#45;&gt;Node8 -->
<g id="edge7" class="edge">
<title>Node7&#45;&gt;Node8</title>
<path fill="none" stroke="midnightblue" d="M172.75,-306.5C164.19,-306.5 155.58,-306.5 147.2,-306.5"/>
<polygon fill="midnightblue" stroke="midnightblue" points="172.75,-310 182.75,-306.5 172.75,-303 172.75,-310"/>
</g>
<!-- Node10 -->
<g id="node10" class="node">
<title>Node10</title>
<g id="a_node10"><a xlink:href="class_tayx_1_1_graphy_1_1_graphy_manager.xhtml#acee2ed06f19bb2ca4dd2c08cd6ea6663" target="_top" xlink:title=" ">
<polygon fill="white" stroke="black" points="574.5,-184.5 574.5,-214.5 721.5,-214.5 721.5,-184.5 574.5,-184.5"/>
<text text-anchor="start" x="582.5" y="-202.5" font-family="Helvetica,sans-Serif" font-size="10.00">Tayx.Graphy.GraphyManager.</text>
<text text-anchor="middle" x="648" y="-191.5" font-family="Helvetica,sans-Serif" font-size="10.00">RefreshAllParameters</text>
</a>
</g>
</g>
<!-- Node9&#45;&gt;Node10 -->
<g id="edge10" class="edge">
<title>Node9&#45;&gt;Node10</title>
<path fill="none" stroke="midnightblue" d="M759.58,-202.18C746.86,-201.88 733.99,-201.56 721.75,-201.27"/>
<polygon fill="midnightblue" stroke="midnightblue" points="759.64,-205.69 769.72,-202.43 759.81,-198.69 759.64,-205.69"/>
</g>
<!-- Node11 -->
<g id="node11" class="node">
<title>Node11</title>
<g id="a_node11"><a xlink:href="class_tayx_1_1_graphy_1_1_graphy_manager.xhtml#a348506f37eebf68d2530f2c57845459e" target="_top" xlink:title=" ">
<polygon fill="white" stroke="black" points="379,-184.5 379,-214.5 526,-214.5 526,-184.5 379,-184.5"/>
<text text-anchor="start" x="387" y="-202.5" font-family="Helvetica,sans-Serif" font-size="10.00">Tayx.Graphy.GraphyManager.</text>
<text text-anchor="middle" x="452.5" y="-191.5" font-family="Helvetica,sans-Serif" font-size="10.00">OnApplicationFocus</text>
</a>
</g>
</g>
<!-- Node10&#45;&gt;Node11 -->
<g id="edge11" class="edge">
<title>Node10&#45;&gt;Node11</title>
<path fill="none" stroke="midnightblue" d="M564.32,-199.5C551.64,-199.5 538.63,-199.5 526.19,-199.5"/>
<polygon fill="midnightblue" stroke="midnightblue" points="564.4,-203 574.4,-199.5 564.4,-196 564.4,-203"/>
</g>
<!-- Node13 -->
<g id="node13" class="node">
<title>Node13</title>
<g id="a_node13"><a xlink:href="class_tayx_1_1_graphy_1_1_graphy_manager.xhtml#aab730e06fd0246bdf98e1a76cf5e59d6" target="_top" xlink:title=" ">
<polygon fill="white" stroke="black" points="574.5,-233.5 574.5,-263.5 721.5,-263.5 721.5,-233.5 574.5,-233.5"/>
<text text-anchor="start" x="582.5" y="-251.5" font-family="Helvetica,sans-Serif" font-size="10.00">Tayx.Graphy.GraphyManager.</text>
<text text-anchor="middle" x="648" y="-240.5" font-family="Helvetica,sans-Serif" font-size="10.00">Enable</text>
</a>
</g>
</g>
<!-- Node12&#45;&gt;Node13 -->
<g id="edge13" class="edge">
<title>Node12&#45;&gt;Node13</title>
<path fill="none" stroke="midnightblue" d="M759.58,-251.18C746.86,-250.88 733.99,-250.56 721.75,-250.27"/>
<polygon fill="midnightblue" stroke="midnightblue" points="759.64,-254.69 769.72,-251.43 759.81,-247.69 759.64,-254.69"/>
</g>
<!-- Node13&#45;&gt;Node4 -->
<g id="edge14" class="edge">
<title>Node13&#45;&gt;Node4</title>
<path fill="none" stroke="midnightblue" d="M564.32,-258.76C551.64,-260.33 538.63,-261.94 526.19,-263.48"/>
<polygon fill="midnightblue" stroke="midnightblue" points="564.9,-262.21 574.4,-257.5 564.04,-255.26 564.9,-262.21"/>
</g>
<!-- Node16 -->
<g id="node16" class="node">
<title>Node16</title>
<g id="a_node16"><a xlink:href="class_tayx_1_1_graphy_1_1_graphy_manager.xhtml#ad2b2c2bf91439abdf0f3839570fb32ae" target="_top" xlink:title=" ">
<polygon fill="white" stroke="black" points="379,-129.5 379,-159.5 526,-159.5 526,-129.5 379,-129.5"/>
<text text-anchor="start" x="387" y="-147.5" font-family="Helvetica,sans-Serif" font-size="10.00">Tayx.Graphy.GraphyManager.</text>
<text text-anchor="middle" x="452.5" y="-136.5" font-family="Helvetica,sans-Serif" font-size="10.00">ToggleModes</text>
</a>
</g>
</g>
<!-- Node15&#45;&gt;Node16 -->
<g id="edge17" class="edge">
<title>Node15&#45;&gt;Node16</title>
<path fill="none" stroke="midnightblue" d="M772.27,-114.33C699.74,-121.19 595.33,-131.08 526.01,-137.64"/>
<polygon fill="midnightblue" stroke="midnightblue" points="772.67,-117.81 782.29,-113.38 772.01,-110.84 772.67,-117.81"/>
</g>
<!-- Node16&#45;&gt;Node5 -->
<g id="edge18" class="edge">
<title>Node16&#45;&gt;Node5</title>
<path fill="none" stroke="midnightblue" d="M403.94,-163.53C395.58,-167.06 386.99,-170.8 379,-174.5 348.86,-188.44 315.13,-205.98 292.04,-218.3"/>
<polygon fill="midnightblue" stroke="midnightblue" points="405.36,-166.73 413.24,-159.65 402.67,-160.27 405.36,-166.73"/>
</g>
<!-- Node18 -->
<g id="node18" class="node">
<title>Node18</title>
<g id="a_node18"><a xlink:href="class_tayx_1_1_graphy_1_1_ram_1_1_g___ram_manager.xhtml#a0a23747eec60fe4e3793e4debb97b242" target="_top" xlink:title=" ">
<polygon fill="white" stroke="black" points="562,-0.5 562,-30.5 734,-30.5 734,-0.5 562,-0.5"/>
<text text-anchor="start" x="570" y="-18.5" font-family="Helvetica,sans-Serif" font-size="10.00">Tayx.Graphy.Ram.G_RamManager.</text>
<text text-anchor="middle" x="648" y="-7.5" font-family="Helvetica,sans-Serif" font-size="10.00">Start</text>
</a>
</g>
</g>
<!-- Node17&#45;&gt;Node18 -->
<g id="edge20" class="edge">
<title>Node17&#45;&gt;Node18</title>
<path fill="none" stroke="midnightblue" d="M771.28,-40.43C755.16,-37.14 738.39,-33.72 722.62,-30.51"/>
<polygon fill="midnightblue" stroke="midnightblue" points="770.71,-43.89 781.21,-42.46 772.11,-37.03 770.71,-43.89"/>
</g>
<!-- Node19 -->
<g id="node19" class="node">
<title>Node19</title>
<g id="a_node19"><a xlink:href="class_tayx_1_1_graphy_1_1_graphy_manager.xhtml#a09cf85e2115057a8a96471d52b9c4cd2" target="_top" xlink:title=" ">
<polygon fill="white" stroke="black" points="574.5,-49.5 574.5,-79.5 721.5,-79.5 721.5,-49.5 574.5,-49.5"/>
<text text-anchor="start" x="582.5" y="-67.5" font-family="Helvetica,sans-Serif" font-size="10.00">Tayx.Graphy.GraphyManager.</text>
<text text-anchor="middle" x="648" y="-56.5" font-family="Helvetica,sans-Serif" font-size="10.00">UpdateAllParameters</text>
</a>
</g>
</g>
<!-- Node17&#45;&gt;Node19 -->
<g id="edge21" class="edge">
<title>Node17&#45;&gt;Node19</title>
<path fill="none" stroke="midnightblue" d="M759.58,-60.74C746.86,-61.17 733.99,-61.61 721.75,-62.03"/>
<polygon fill="midnightblue" stroke="midnightblue" points="759.85,-64.24 769.72,-60.4 759.61,-57.24 759.85,-64.24"/>
</g>
</g>
</svg>
