<?xml version="1.0" encoding="UTF-8" standalone="no"?>
<!DOCTYPE svg PUBLIC "-//W3C//DTD SVG 1.1//EN"
 "http://www.w3.org/Graphics/SVG/1.1/DTD/svg11.dtd">
<!-- Generated by graphviz version 2.49.1 (20210923.0004)
 -->
<!-- Title: BasicAttack.CastRay Pages: 1 -->
<svg width="584pt" height="104pt"
 viewBox="0.00 0.00 584.00 104.00" xmlns="http://www.w3.org/2000/svg" xmlns:xlink="http://www.w3.org/1999/xlink">
<g id="graph0" class="graph" transform="scale(1 1) rotate(0) translate(4 100)">
<title>BasicAttack.CastRay</title>
<!-- Node1 -->
<g id="node1" class="node">
<title>Node1</title>
<g id="a_node1"><a xlink:title=" ">
<polygon fill="#bfbfbf" stroke="black" points="0,-38.5 0,-57.5 110,-57.5 110,-38.5 0,-38.5"/>
<text text-anchor="middle" x="55" y="-45.5" font-family="Helvetica,sans-Serif" font-size="10.00">BasicAttack.CastRay</text>
</a>
</g>
</g>
<!-- Node2 -->
<g id="node2" class="node">
<title>Node2</title>
<g id="a_node2"><a xlink:href="class_player_stats.html#ae3f3c15bb7d83955090bb397985aa006" target="_top" xlink:title="Returns true if the current entity can BasicAttack the other.">
<polygon fill="none" stroke="black" points="161.5,-76.5 161.5,-95.5 277.5,-95.5 277.5,-76.5 161.5,-76.5"/>
<text text-anchor="middle" x="219.5" y="-83.5" font-family="Helvetica,sans-Serif" font-size="10.00">PlayerStats.CanAttack</text>
</a>
</g>
</g>
<!-- Node1&#45;&gt;Node2 -->
<g id="edge1" class="edge">
<title>Node1&#45;&gt;Node2</title>
<path fill="none" stroke="midnightblue" d="M97.01,-57.59C118.55,-62.63 145.13,-68.84 167.94,-74.18"/>
<polygon fill="midnightblue" stroke="midnightblue" points="167.25,-77.61 177.79,-76.48 168.85,-70.79 167.25,-77.61"/>
</g>
<!-- Node5 -->
<g id="node5" class="node">
<title>Node5</title>
<g id="a_node5"><a xlink:href="class_basic_attack.html#a965a4cbb50653a0b2ed02e8bf1f88433" target="_top" xlink:title=" ">
<polygon fill="none" stroke="black" points="158.5,-38.5 158.5,-57.5 280.5,-57.5 280.5,-38.5 158.5,-38.5"/>
<text text-anchor="middle" x="219.5" y="-45.5" font-family="Helvetica,sans-Serif" font-size="10.00">BasicAttack.ResetState</text>
</a>
</g>
</g>
<!-- Node1&#45;&gt;Node5 -->
<g id="edge4" class="edge">
<title>Node1&#45;&gt;Node5</title>
<path fill="none" stroke="midnightblue" d="M110.11,-48C122.35,-48 135.52,-48 148.31,-48"/>
<polygon fill="midnightblue" stroke="midnightblue" points="148.47,-51.5 158.47,-48 148.47,-44.5 148.47,-51.5"/>
</g>
<!-- Node7 -->
<g id="node7" class="node">
<title>Node7</title>
<g id="a_node7"><a xlink:href="class_basic_attack.html#a6700fa1b84e430381504535f20c2e3d8" target="_top" xlink:title=" ">
<polygon fill="none" stroke="black" points="146,-0.5 146,-19.5 293,-19.5 293,-0.5 146,-0.5"/>
<text text-anchor="middle" x="219.5" y="-7.5" font-family="Helvetica,sans-Serif" font-size="10.00">BasicAttack.StartBasicAttack</text>
</a>
</g>
</g>
<!-- Node1&#45;&gt;Node7 -->
<g id="edge6" class="edge">
<title>Node1&#45;&gt;Node7</title>
<path fill="none" stroke="midnightblue" d="M97.01,-38.41C118.55,-33.37 145.13,-27.16 167.94,-21.82"/>
<polygon fill="midnightblue" stroke="midnightblue" points="168.85,-25.21 177.79,-19.52 167.25,-18.39 168.85,-25.21"/>
</g>
<!-- Node3 -->
<g id="node3" class="node">
<title>Node3</title>
<g id="a_node3"><a xlink:href="class_player_stats.html#ab3af90aeca2c49cac5ec15500ba15d8a" target="_top" xlink:title="Returns true if the Player is in range with the other entity">
<polygon fill="none" stroke="black" points="335,-76.5 335,-95.5 448,-95.5 448,-76.5 335,-76.5"/>
<text text-anchor="middle" x="391.5" y="-83.5" font-family="Helvetica,sans-Serif" font-size="10.00">PlayerStats.IsInRange</text>
</a>
</g>
</g>
<!-- Node2&#45;&gt;Node3 -->
<g id="edge2" class="edge">
<title>Node2&#45;&gt;Node3</title>
<path fill="none" stroke="midnightblue" d="M277.58,-86C292.69,-86 309.13,-86 324.67,-86"/>
<polygon fill="midnightblue" stroke="midnightblue" points="324.72,-89.5 334.72,-86 324.72,-82.5 324.72,-89.5"/>
</g>
<!-- Node4 -->
<g id="node4" class="node">
<title>Node4</title>
<g id="a_node4"><a xlink:href="class_stats.html#aad08d308b784a74c8a009ba48c0a237f" target="_top" xlink:title="Returns the range of the entity">
<polygon fill="none" stroke="black" points="490,-76.5 490,-95.5 576,-95.5 576,-76.5 490,-76.5"/>
<text text-anchor="middle" x="533" y="-83.5" font-family="Helvetica,sans-Serif" font-size="10.00">Stats.GetRange</text>
</a>
</g>
</g>
<!-- Node3&#45;&gt;Node4 -->
<g id="edge3" class="edge">
<title>Node3&#45;&gt;Node4</title>
<path fill="none" stroke="midnightblue" d="M448.03,-86C458.52,-86 469.45,-86 479.83,-86"/>
<polygon fill="midnightblue" stroke="midnightblue" points="479.99,-89.5 489.99,-86 479.99,-82.5 479.99,-89.5"/>
</g>
<!-- Node6 -->
<g id="node6" class="node">
<title>Node6</title>
<g id="a_node6"><a xlink:href="class_player_controller.html#a36323c07b7cd9e0ccab9c8016611827c" target="_top" xlink:title="The player will look at the position of this Transform.">
<polygon fill="none" stroke="black" points="329,-11 329,-41 454,-41 454,-11 329,-11"/>
<text text-anchor="start" x="337" y="-29" font-family="Helvetica,sans-Serif" font-size="10.00">PlayerController.SetLook</text>
<text text-anchor="middle" x="391.5" y="-18" font-family="Helvetica,sans-Serif" font-size="10.00">AtTarget</text>
</a>
</g>
</g>
<!-- Node5&#45;&gt;Node6 -->
<g id="edge5" class="edge">
<title>Node5&#45;&gt;Node6</title>
<path fill="none" stroke="midnightblue" d="M280.91,-40.18C293.19,-38.59 306.21,-36.91 318.83,-35.27"/>
<polygon fill="midnightblue" stroke="midnightblue" points="319.38,-38.73 328.85,-33.98 318.48,-31.79 319.38,-38.73"/>
</g>
<!-- Node7&#45;&gt;Node6 -->
<g id="edge7" class="edge">
<title>Node7&#45;&gt;Node6</title>
<path fill="none" stroke="midnightblue" d="M293.09,-16.83C301.56,-17.63 310.19,-18.44 318.65,-19.24"/>
<polygon fill="midnightblue" stroke="midnightblue" points="318.58,-22.75 328.86,-20.2 319.23,-15.78 318.58,-22.75"/>
</g>
</g>
</svg>
