<?xml version="1.0" encoding="UTF-8" standalone="no"?>
<!DOCTYPE svg PUBLIC "-//W3C//DTD SVG 1.1//EN"
 "http://www.w3.org/Graphics/SVG/1.1/DTD/svg11.dtd">
<!-- Generated by graphviz version 2.50.0 (20211204.2007)
 -->
<!-- Title: CurrentItemShop.SetCurrent Pages: 1 -->
<svg width="318pt" height="104pt"
 viewBox="0.00 0.00 318.00 104.00" xmlns="http://www.w3.org/2000/svg" xmlns:xlink="http://www.w3.org/1999/xlink">
<g id="graph0" class="graph" transform="scale(1 1) rotate(0) translate(4 100)">
<title>CurrentItemShop.SetCurrent</title>
<polygon fill="white" stroke="transparent" points="-4,4 -4,-100 314,-100 314,4 -4,4"/>
<!-- Node1 -->
<g id="node1" class="node">
<title>Node1</title>
<g id="a_node1"><a xlink:title=" ">
<polygon fill="#bfbfbf" stroke="black" points="0,-38.5 0,-57.5 139,-57.5 139,-38.5 0,-38.5"/>
<text text-anchor="middle" x="69.5" y="-45.5" font-family="Helvetica,sans-Serif" font-size="10.00">CurrentItemShop.SetCurrent</text>
</a>
</g>
</g>
<!-- Node2 -->
<g id="node2" class="node">
<title>Node2</title>
<g id="a_node2"><a xlink:href="class_item_u_i.html#a3621f37c3d29275407a00265d7823825" target="_top" xlink:title=" ">
<polygon fill="white" stroke="black" points="201.5,-76.5 201.5,-95.5 283.5,-95.5 283.5,-76.5 201.5,-76.5"/>
<text text-anchor="middle" x="242.5" y="-83.5" font-family="Helvetica,sans-Serif" font-size="10.00">ItemUI.GetItem</text>
</a>
</g>
</g>
<!-- Node1&#45;&gt;Node2 -->
<g id="edge1" class="edge">
<title>Node1&#45;&gt;Node2</title>
<path fill="none" stroke="midnightblue" d="M113.65,-57.59C137.3,-62.85 166.74,-69.39 191.41,-74.87"/>
<polygon fill="midnightblue" stroke="midnightblue" points="190.78,-78.31 201.3,-77.07 192.3,-71.48 190.78,-78.31"/>
</g>
<!-- Node3 -->
<g id="node3" class="node">
<title>Node3</title>
<g id="a_node3"><a xlink:href="class_item_u_i.html#af1bd6a6501f51af9f49a53a5a1a871e4" target="_top" xlink:title=" ">
<polygon fill="white" stroke="black" points="193,-38.5 193,-57.5 292,-57.5 292,-38.5 193,-38.5"/>
<text text-anchor="middle" x="242.5" y="-45.5" font-family="Helvetica,sans-Serif" font-size="10.00">ItemUI.ResetActive</text>
</a>
</g>
</g>
<!-- Node1&#45;&gt;Node3 -->
<g id="edge2" class="edge">
<title>Node1&#45;&gt;Node3</title>
<path fill="none" stroke="midnightblue" d="M139.07,-48C153.57,-48 168.75,-48 182.85,-48"/>
<polygon fill="midnightblue" stroke="midnightblue" points="182.9,-51.5 192.9,-48 182.9,-44.5 182.9,-51.5"/>
</g>
<!-- Node4 -->
<g id="node4" class="node">
<title>Node4</title>
<g id="a_node4"><a xlink:href="class_item_statistic_effect.html#a37cc28041fcf0c1f5bd7eded463b2509" target="_top" xlink:title=" ">
<polygon fill="white" stroke="black" points="175,-0.5 175,-19.5 310,-19.5 310,-0.5 175,-0.5"/>
<text text-anchor="middle" x="242.5" y="-7.5" font-family="Helvetica,sans-Serif" font-size="10.00">ItemStatisticEffect.ToString</text>
</a>
</g>
</g>
<!-- Node1&#45;&gt;Node4 -->
<g id="edge3" class="edge">
<title>Node1&#45;&gt;Node4</title>
<path fill="none" stroke="midnightblue" d="M113.65,-38.41C136.42,-33.35 164.55,-27.1 188.62,-21.75"/>
<polygon fill="midnightblue" stroke="midnightblue" points="189.66,-25.11 198.66,-19.52 188.14,-18.27 189.66,-25.11"/>
</g>
</g>
</svg>
