<?xml version="1.0" encoding="UTF-8" standalone="no"?>
<!DOCTYPE svg PUBLIC "-//W3C//DTD SVG 1.1//EN"
 "http://www.w3.org/Graphics/SVG/1.1/DTD/svg11.dtd">
<!-- Generated by graphviz version 2.50.0 (20211204.2007)
 -->
<!-- Title: MinionStats.Die Pages: 1 -->
<svg width="624pt" height="190pt"
 viewBox="0.00 0.00 624.00 189.50" xmlns="http://www.w3.org/2000/svg" xmlns:xlink="http://www.w3.org/1999/xlink">
<g id="graph0" class="graph" transform="scale(1 1) rotate(0) translate(4 185.5)">
<title>MinionStats.Die</title>
<polygon fill="white" stroke="transparent" points="-4,4 -4,-185.5 620,-185.5 620,4 -4,4"/>
<!-- Node1 -->
<g id="node1" class="node">
<title>Node1</title>
<g id="a_node1"><a xlink:title="Function that implements what is done when this entity dies.">
<polygon fill="#bfbfbf" stroke="black" points="0,-95.5 0,-114.5 86,-114.5 86,-95.5 0,-95.5"/>
<text text-anchor="middle" x="43" y="-102.5" font-family="Helvetica,sans-Serif" font-size="10.00">MinionStats.Die</text>
</a>
</g>
</g>
<!-- Node2 -->
<g id="node2" class="node">
<title>Node2</title>
<g id="a_node2"><a xlink:href="class_minion_a_i.html#ab2c89d67e723eeeb2fb44f42c46db000" target="_top" xlink:title=" ">
<polygon fill="white" stroke="black" points="141.5,-114.5 141.5,-133.5 230.5,-133.5 230.5,-114.5 141.5,-114.5"/>
<text text-anchor="middle" x="186" y="-121.5" font-family="Helvetica,sans-Serif" font-size="10.00">MinionAI.Disable</text>
</a>
</g>
</g>
<!-- Node1&#45;&gt;Node2 -->
<g id="edge1" class="edge">
<title>Node1&#45;&gt;Node2</title>
<path fill="none" stroke="midnightblue" d="M86.3,-110.7C100.41,-112.6 116.32,-114.74 131.17,-116.75"/>
<polygon fill="midnightblue" stroke="midnightblue" points="130.88,-120.24 141.26,-118.11 131.82,-113.3 130.88,-120.24"/>
</g>
<!-- Node3 -->
<g id="node3" class="node">
<title>Node3</title>
<g id="a_node3"><a xlink:href="class_minion_stats.html#a6d9ddd98313b1be90a14a331602409bf" target="_top" xlink:title="When this entity dies, it gives to the killer this bounty">
<polygon fill="white" stroke="black" points="122,-76.5 122,-95.5 250,-95.5 250,-76.5 122,-76.5"/>
<text text-anchor="middle" x="186" y="-83.5" font-family="Helvetica,sans-Serif" font-size="10.00">MinionStats.GiveRewards</text>
</a>
</g>
</g>
<!-- Node1&#45;&gt;Node3 -->
<g id="edge2" class="edge">
<title>Node1&#45;&gt;Node3</title>
<path fill="none" stroke="midnightblue" d="M86.3,-99.3C94.44,-98.2 103.17,-97.03 111.96,-95.84"/>
<polygon fill="midnightblue" stroke="midnightblue" points="112.43,-99.31 121.87,-94.51 111.49,-92.37 112.43,-99.31"/>
</g>
<!-- Node4 -->
<g id="node4" class="node">
<title>Node4</title>
<g id="a_node4"><a xlink:href="class_inventory.html#a154fe342bac27ad9f38a79da5c770d39" target="_top" xlink:title=" ">
<polygon fill="white" stroke="black" points="305,-155.5 305,-174.5 400,-174.5 400,-155.5 305,-155.5"/>
<text text-anchor="middle" x="352.5" y="-162.5" font-family="Helvetica,sans-Serif" font-size="10.00">Inventory.AddGold</text>
</a>
</g>
</g>
<!-- Node3&#45;&gt;Node4 -->
<g id="edge3" class="edge">
<title>Node3&#45;&gt;Node4</title>
<path fill="none" stroke="midnightblue" d="M229.66,-95.55C236.73,-98.06 243.78,-101.16 250,-105 269.8,-117.21 266.39,-130.48 286,-143 291.31,-146.39 297.19,-149.31 303.2,-151.82"/>
<polygon fill="midnightblue" stroke="midnightblue" points="302.07,-155.14 312.66,-155.43 304.56,-148.6 302.07,-155.14"/>
</g>
<!-- Node6 -->
<g id="node6" class="node">
<title>Node6</title>
<g id="a_node6"><a xlink:href="class_game_controller.html#a708420d4559f1a7ad5d1a50d6b3df9bf" target="_top" xlink:title="One of the players killed a minion.">
<polygon fill="white" stroke="black" points="286,-114.5 286,-133.5 419,-133.5 419,-114.5 286,-114.5"/>
<text text-anchor="middle" x="352.5" y="-121.5" font-family="Helvetica,sans-Serif" font-size="10.00">GameController.AddMinion</text>
</a>
</g>
</g>
<!-- Node3&#45;&gt;Node6 -->
<g id="edge5" class="edge">
<title>Node3&#45;&gt;Node6</title>
<path fill="none" stroke="midnightblue" d="M228.51,-95.59C250.32,-100.63 277.23,-106.84 300.32,-112.18"/>
<polygon fill="midnightblue" stroke="midnightblue" points="299.76,-115.64 310.29,-114.48 301.33,-108.82 299.76,-115.64"/>
</g>
<!-- Node8 -->
<g id="node8" class="node">
<title>Node8</title>
<g id="a_node8"><a xlink:href="class_player_stats.html#a2515cde362ce22291cde0073d23e2d9c" target="_top" xlink:title="Add some XP amount.">
<polygon fill="white" stroke="black" points="302.5,-76.5 302.5,-95.5 402.5,-95.5 402.5,-76.5 302.5,-76.5"/>
<text text-anchor="middle" x="352.5" y="-83.5" font-family="Helvetica,sans-Serif" font-size="10.00">PlayerStats.AddXP</text>
</a>
</g>
</g>
<!-- Node3&#45;&gt;Node8 -->
<g id="edge7" class="edge">
<title>Node3&#45;&gt;Node8</title>
<path fill="none" stroke="midnightblue" d="M250.13,-86C263.92,-86 278.47,-86 292.11,-86"/>
<polygon fill="midnightblue" stroke="midnightblue" points="292.33,-89.5 302.33,-86 292.33,-82.5 292.33,-89.5"/>
</g>
<!-- Node9 -->
<g id="node9" class="node">
<title>Node9</title>
<g id="a_node9"><a xlink:href="class_game_controller.html#a3284abf9985021d4e4936f90d858a7dd" target="_top" xlink:title="Get a player GameObject by name.">
<polygon fill="white" stroke="black" points="287,-38.5 287,-57.5 418,-57.5 418,-38.5 287,-38.5"/>
<text text-anchor="middle" x="352.5" y="-45.5" font-family="Helvetica,sans-Serif" font-size="10.00">GameController.GetPlayer</text>
</a>
</g>
</g>
<!-- Node3&#45;&gt;Node9 -->
<g id="edge8" class="edge">
<title>Node3&#45;&gt;Node9</title>
<path fill="none" stroke="midnightblue" d="M228.51,-76.41C250.32,-71.37 277.23,-65.16 300.32,-59.82"/>
<polygon fill="midnightblue" stroke="midnightblue" points="301.33,-63.18 310.29,-57.52 299.76,-56.36 301.33,-63.18"/>
</g>
<!-- Node10 -->
<g id="node10" class="node">
<title>Node10</title>
<g id="a_node10"><a xlink:href="class_game_controller.html#a7e7ba340d852830acb4d6f1f172c248c" target="_top" xlink:title="Get the current time in seconds from the start of the game">
<polygon fill="white" stroke="black" points="290.5,-0.5 290.5,-19.5 414.5,-19.5 414.5,-0.5 290.5,-0.5"/>
<text text-anchor="middle" x="352.5" y="-7.5" font-family="Helvetica,sans-Serif" font-size="10.00">GameController.GetTime</text>
</a>
</g>
</g>
<!-- Node3&#45;&gt;Node10 -->
<g id="edge9" class="edge">
<title>Node3&#45;&gt;Node10</title>
<path fill="none" stroke="midnightblue" d="M201.19,-76.36C219.92,-63.99 254.25,-42.51 286,-29 291.44,-26.68 297.26,-24.55 303.09,-22.61"/>
<polygon fill="midnightblue" stroke="midnightblue" points="304.37,-25.88 312.86,-19.54 302.27,-19.2 304.37,-25.88"/>
</g>
<!-- Node5 -->
<g id="node5" class="node">
<title>Node5</title>
<g id="a_node5"><a xlink:href="class_player_h_u_d_controller.html#aeef77dcdfaf1c9b719e4350c17c88fa5" target="_top" xlink:title=" ">
<polygon fill="white" stroke="black" points="465.5,-151 465.5,-181 605.5,-181 605.5,-151 465.5,-151"/>
<text text-anchor="start" x="473.5" y="-169" font-family="Helvetica,sans-Serif" font-size="10.00">PlayerHUDController.Update</text>
<text text-anchor="middle" x="535.5" y="-158" font-family="Helvetica,sans-Serif" font-size="10.00">GoldTxt</text>
</a>
</g>
</g>
<!-- Node4&#45;&gt;Node5 -->
<g id="edge4" class="edge">
<title>Node4&#45;&gt;Node5</title>
<path fill="none" stroke="midnightblue" d="M400.11,-165.26C416.89,-165.35 436.33,-165.46 455.12,-165.56"/>
<polygon fill="midnightblue" stroke="midnightblue" points="455.15,-169.06 465.17,-165.62 455.19,-162.06 455.15,-169.06"/>
</g>
<!-- Node7 -->
<g id="node7" class="node">
<title>Node7</title>
<g id="a_node7"><a xlink:href="class_game_u_i_controller.html#ac6d98f05e3ed3d39178b42d85149db5d" target="_top" xlink:title=" ">
<polygon fill="white" stroke="black" points="455,-112.5 455,-131.5 616,-131.5 616,-112.5 455,-112.5"/>
<text text-anchor="middle" x="535.5" y="-119.5" font-family="Helvetica,sans-Serif" font-size="10.00">GameUIController.UpdateMinions</text>
</a>
</g>
</g>
<!-- Node6&#45;&gt;Node7 -->
<g id="edge6" class="edge">
<title>Node6&#45;&gt;Node7</title>
<path fill="none" stroke="midnightblue" d="M419.1,-123.28C427.46,-123.18 436.13,-123.09 444.79,-122.99"/>
<polygon fill="midnightblue" stroke="midnightblue" points="444.98,-126.49 454.94,-122.88 444.9,-119.49 444.98,-126.49"/>
</g>
</g>
</svg>
