<?xml version="1.0" encoding="UTF-8" standalone="no"?>
<!DOCTYPE svg PUBLIC "-//W3C//DTD SVG 1.1//EN"
 "http://www.w3.org/Graphics/SVG/1.1/DTD/svg11.dtd">
<!-- Generated by graphviz version 2.47.3 (20210619.1520)
 -->
<!-- Title: Tayx.Graphy.Advanced.G_AdvancedData.SetState Pages: 1 -->
<svg width="1098pt" height="370pt"
 viewBox="0.00 0.00 1098.00 369.51" xmlns="http://www.w3.org/2000/svg" xmlns:xlink="http://www.w3.org/1999/xlink">
<g id="graph0" class="graph" transform="scale(1 1) rotate(0) translate(4 365.51)">
<title>Tayx.Graphy.Advanced.G_AdvancedData.SetState</title>
<polygon fill="white" stroke="transparent" points="-4,4 -4,-365.51 1094,-365.51 1094,4 -4,4"/>
<!-- Node1 -->
<g id="node1" class="node">
<title>Node1</title>
<g id="a_node1"><a xlink:title="Set the module state.">
<polygon fill="#bfbfbf" stroke="black" points="962,-189.5 962,-219.5 1090,-219.5 1090,-189.5 962,-189.5"/>
<text text-anchor="start" x="970" y="-207.5" font-family="Helvetica,sans-Serif" font-size="10.00">Tayx.Graphy.Advanced.G</text>
<text text-anchor="middle" x="1026" y="-196.5" font-family="Helvetica,sans-Serif" font-size="10.00">_AdvancedData.SetState</text>
</a>
</g>
</g>
<!-- Node2 -->
<g id="node2" class="node">
<title>Node2</title>
<g id="a_node2"><a xlink:href="class_tayx_1_1_graphy_1_1_graphy_manager.xhtml#a57460bb66e12e12b4995152b661d6589" target="_top" xlink:title=" ">
<polygon fill="white" stroke="black" points="562,-282.5 562,-312.5 709,-312.5 709,-282.5 562,-282.5"/>
<text text-anchor="start" x="570" y="-300.5" font-family="Helvetica,sans-Serif" font-size="10.00">Tayx.Graphy.GraphyManager.</text>
<text text-anchor="middle" x="635.5" y="-289.5" font-family="Helvetica,sans-Serif" font-size="10.00">Disable</text>
</a>
</g>
</g>
<!-- Node1&#45;&gt;Node2 -->
<g id="edge1" class="edge">
<title>Node1&#45;&gt;Node2</title>
<path fill="none" stroke="midnightblue" d="M1003.2,-226.76C984.51,-244.25 955.94,-267.44 926,-278.5 855.6,-304.5 769.08,-306.67 709.05,-303.94"/>
<polygon fill="midnightblue" stroke="midnightblue" points="1005.79,-229.12 1010.57,-219.66 1000.94,-224.07 1005.79,-229.12"/>
</g>
<!-- Node6 -->
<g id="node6" class="node">
<title>Node6</title>
<g id="a_node6"><a xlink:href="class_tayx_1_1_graphy_1_1_graphy_manager.xhtml#a0b4d55c65e436a19150af93e701f82b0" target="_top" xlink:title=" ">
<polygon fill="white" stroke="black" points="183,-297 183,-316 343,-316 343,-297 183,-297"/>
<text text-anchor="middle" x="263" y="-304" font-family="Helvetica,sans-Serif" font-size="10.00">Tayx.Graphy.GraphyManager.Init</text>
</a>
</g>
</g>
<!-- Node1&#45;&gt;Node6 -->
<g id="edge7" class="edge">
<title>Node1&#45;&gt;Node6</title>
<path fill="none" stroke="midnightblue" d="M1009.65,-228.11C992.48,-252.26 962.26,-288.57 926,-305.5 706.52,-407.97 399.76,-342.4 298.17,-316.02"/>
<polygon fill="midnightblue" stroke="midnightblue" points="1012.57,-230.04 1015.37,-219.82 1006.81,-226.06 1012.57,-230.04"/>
</g>
<!-- Node8 -->
<g id="node8" class="node">
<title>Node8</title>
<g id="a_node8"><a xlink:href="class_tayx_1_1_graphy_1_1_advanced_1_1_g___advanced_data.xhtml#ab2e2d1708795b0341799db4b7135da5d" target="_top" xlink:title=" ">
<polygon fill="white" stroke="black" points="750.5,-189.5 750.5,-219.5 920.5,-219.5 920.5,-189.5 750.5,-189.5"/>
<text text-anchor="start" x="758.5" y="-207.5" font-family="Helvetica,sans-Serif" font-size="10.00">Tayx.Graphy.Advanced.G</text>
<text text-anchor="middle" x="835.5" y="-196.5" font-family="Helvetica,sans-Serif" font-size="10.00">_AdvancedData.RefreshParameters</text>
</a>
</g>
</g>
<!-- Node1&#45;&gt;Node8 -->
<g id="edge8" class="edge">
<title>Node1&#45;&gt;Node8</title>
<path fill="none" stroke="midnightblue" d="M951.86,-204.5C941.62,-204.5 931.02,-204.5 920.59,-204.5"/>
<polygon fill="midnightblue" stroke="midnightblue" points="951.97,-208 961.97,-204.5 951.97,-201 951.97,-208"/>
</g>
<!-- Node11 -->
<g id="node11" class="node">
<title>Node11</title>
<g id="a_node11"><a xlink:href="class_tayx_1_1_graphy_1_1_advanced_1_1_g___advanced_data.xhtml#aa66be7c203f90b432ea5a23aac02ec65" target="_top" xlink:title="Restores state to the previous one.">
<polygon fill="white" stroke="black" points="745,-238.5 745,-268.5 926,-268.5 926,-238.5 745,-238.5"/>
<text text-anchor="start" x="753" y="-256.5" font-family="Helvetica,sans-Serif" font-size="10.00">Tayx.Graphy.Advanced.G</text>
<text text-anchor="middle" x="835.5" y="-245.5" font-family="Helvetica,sans-Serif" font-size="10.00">_AdvancedData.RestorePreviousState</text>
</a>
</g>
</g>
<!-- Node1&#45;&gt;Node11 -->
<g id="edge11" class="edge">
<title>Node1&#45;&gt;Node11</title>
<path fill="none" stroke="midnightblue" d="M957.21,-222.12C936.58,-227.48 914.12,-233.32 894.23,-238.49"/>
<polygon fill="midnightblue" stroke="midnightblue" points="958.36,-225.44 967.16,-219.53 956.6,-218.66 958.36,-225.44"/>
</g>
<!-- Node13 -->
<g id="node13" class="node">
<title>Node13</title>
<g id="a_node13"><a xlink:href="class_tayx_1_1_graphy_1_1_graphy_manager.xhtml#a9e5ef5aba3c5ed6f9e07e8e1ee02516a" target="_top" xlink:title=" ">
<polygon fill="white" stroke="black" points="762,-140.5 762,-170.5 909,-170.5 909,-140.5 762,-140.5"/>
<text text-anchor="start" x="770" y="-158.5" font-family="Helvetica,sans-Serif" font-size="10.00">Tayx.Graphy.GraphyManager.</text>
<text text-anchor="middle" x="835.5" y="-147.5" font-family="Helvetica,sans-Serif" font-size="10.00">SetModuleMode</text>
</a>
</g>
</g>
<!-- Node1&#45;&gt;Node13 -->
<g id="edge14" class="edge">
<title>Node1&#45;&gt;Node13</title>
<path fill="none" stroke="midnightblue" d="M957.21,-186.88C936.58,-181.52 914.12,-175.68 894.23,-170.51"/>
<polygon fill="midnightblue" stroke="midnightblue" points="956.6,-190.34 967.16,-189.47 958.36,-183.56 956.6,-190.34"/>
</g>
<!-- Node14 -->
<g id="node14" class="node">
<title>Node14</title>
<g id="a_node14"><a xlink:href="class_tayx_1_1_graphy_1_1_graphy_manager.xhtml#ac2c39047257c8b8785f075d82003b39b" target="_top" xlink:title=" ">
<polygon fill="white" stroke="black" points="762,-91.5 762,-121.5 909,-121.5 909,-91.5 762,-91.5"/>
<text text-anchor="start" x="770" y="-109.5" font-family="Helvetica,sans-Serif" font-size="10.00">Tayx.Graphy.GraphyManager.</text>
<text text-anchor="middle" x="835.5" y="-98.5" font-family="Helvetica,sans-Serif" font-size="10.00">SetPreset</text>
</a>
</g>
</g>
<!-- Node1&#45;&gt;Node14 -->
<g id="edge15" class="edge">
<title>Node1&#45;&gt;Node14</title>
<path fill="none" stroke="midnightblue" d="M1000.75,-182.68C981.65,-166.51 953.71,-145.02 926,-131.5 918.32,-127.75 909.98,-124.48 901.58,-121.66"/>
<polygon fill="midnightblue" stroke="midnightblue" points="998.51,-185.36 1008.37,-189.24 1003.08,-180.06 998.51,-185.36"/>
</g>
<!-- Node16 -->
<g id="node16" class="node">
<title>Node16</title>
<g id="a_node16"><a xlink:href="class_tayx_1_1_graphy_1_1_advanced_1_1_g___advanced_data.xhtml#ae4e2e7a4ec9be72ea53970601637f8fd" target="_top" xlink:title=" ">
<polygon fill="white" stroke="black" points="751.5,-42.5 751.5,-72.5 919.5,-72.5 919.5,-42.5 751.5,-42.5"/>
<text text-anchor="start" x="759.5" y="-60.5" font-family="Helvetica,sans-Serif" font-size="10.00">Tayx.Graphy.Advanced.G</text>
<text text-anchor="middle" x="835.5" y="-49.5" font-family="Helvetica,sans-Serif" font-size="10.00">_AdvancedData.UpdateParameters</text>
</a>
</g>
</g>
<!-- Node1&#45;&gt;Node16 -->
<g id="edge18" class="edge">
<title>Node1&#45;&gt;Node16</title>
<path fill="none" stroke="midnightblue" d="M1012.15,-180.7C995.82,-152.73 965,-106.91 926,-81.5 920.74,-78.07 915.01,-75.14 909.07,-72.62"/>
<polygon fill="midnightblue" stroke="midnightblue" points="1009.14,-182.49 1017.13,-189.45 1015.22,-179.02 1009.14,-182.49"/>
</g>
<!-- Node3 -->
<g id="node3" class="node">
<title>Node3</title>
<g id="a_node3"><a xlink:href="class_tayx_1_1_graphy_1_1_graphy_manager.xhtml#ab748381e2def67b4fd5df7413ffa7d04" target="_top" xlink:title=" ">
<polygon fill="white" stroke="black" points="379,-257.5 379,-287.5 526,-287.5 526,-257.5 379,-257.5"/>
<text text-anchor="start" x="387" y="-275.5" font-family="Helvetica,sans-Serif" font-size="10.00">Tayx.Graphy.GraphyManager.</text>
<text text-anchor="middle" x="452.5" y="-264.5" font-family="Helvetica,sans-Serif" font-size="10.00">ToggleActive</text>
</a>
</g>
</g>
<!-- Node2&#45;&gt;Node3 -->
<g id="edge2" class="edge">
<title>Node2&#45;&gt;Node3</title>
<path fill="none" stroke="midnightblue" d="M551.88,-286.09C543.28,-284.9 534.58,-283.7 526.09,-282.53"/>
<polygon fill="midnightblue" stroke="midnightblue" points="551.54,-289.57 561.92,-287.48 552.5,-282.64 551.54,-289.57"/>
</g>
<!-- Node4 -->
<g id="node4" class="node">
<title>Node4</title>
<g id="a_node4"><a xlink:href="class_tayx_1_1_graphy_1_1_graphy_manager.xhtml#a6b62659ff2351c37037522cc8def6072" target="_top" xlink:title=" ">
<polygon fill="white" stroke="black" points="189.5,-200.5 189.5,-230.5 336.5,-230.5 336.5,-200.5 189.5,-200.5"/>
<text text-anchor="start" x="197.5" y="-218.5" font-family="Helvetica,sans-Serif" font-size="10.00">Tayx.Graphy.GraphyManager.</text>
<text text-anchor="middle" x="263" y="-207.5" font-family="Helvetica,sans-Serif" font-size="10.00">CheckForHotkeyPresses</text>
</a>
</g>
</g>
<!-- Node3&#45;&gt;Node4 -->
<g id="edge3" class="edge">
<title>Node3&#45;&gt;Node4</title>
<path fill="none" stroke="midnightblue" d="M391.93,-254.39C366.72,-246.73 337.69,-237.9 313.66,-230.6"/>
<polygon fill="midnightblue" stroke="midnightblue" points="391.16,-257.81 401.75,-257.37 393.2,-251.12 391.16,-257.81"/>
</g>
<!-- Node3&#45;&gt;Node6 -->
<g id="edge5" class="edge">
<title>Node3&#45;&gt;Node6</title>
<path fill="none" stroke="midnightblue" d="M368.46,-287.56C350.86,-290.75 332.76,-294.03 316.67,-296.95"/>
<polygon fill="midnightblue" stroke="midnightblue" points="369.52,-290.92 378.74,-285.69 368.28,-284.03 369.52,-290.92"/>
</g>
<!-- Node5 -->
<g id="node5" class="node">
<title>Node5</title>
<g id="a_node5"><a xlink:href="class_tayx_1_1_graphy_1_1_graphy_manager.xhtml#a6a41caec3369fb8e46190484bce5c56a" target="_top" xlink:title=" ">
<polygon fill="white" stroke="black" points="0,-200.5 0,-230.5 147,-230.5 147,-200.5 0,-200.5"/>
<text text-anchor="start" x="8" y="-218.5" font-family="Helvetica,sans-Serif" font-size="10.00">Tayx.Graphy.GraphyManager.</text>
<text text-anchor="middle" x="73.5" y="-207.5" font-family="Helvetica,sans-Serif" font-size="10.00">Update</text>
</a>
</g>
</g>
<!-- Node4&#45;&gt;Node5 -->
<g id="edge4" class="edge">
<title>Node4&#45;&gt;Node5</title>
<path fill="none" stroke="midnightblue" d="M179.12,-215.5C168.49,-215.5 157.67,-215.5 147.22,-215.5"/>
<polygon fill="midnightblue" stroke="midnightblue" points="179.24,-219 189.24,-215.5 179.24,-212 179.24,-219"/>
</g>
<!-- Node7 -->
<g id="node7" class="node">
<title>Node7</title>
<g id="a_node7"><a xlink:href="class_tayx_1_1_graphy_1_1_graphy_manager.xhtml#a6a186120c515fe48b10b2cf95caac917" target="_top" xlink:title=" ">
<polygon fill="white" stroke="black" points="0,-291.5 0,-321.5 147,-321.5 147,-291.5 0,-291.5"/>
<text text-anchor="start" x="8" y="-309.5" font-family="Helvetica,sans-Serif" font-size="10.00">Tayx.Graphy.GraphyManager.</text>
<text text-anchor="middle" x="73.5" y="-298.5" font-family="Helvetica,sans-Serif" font-size="10.00">Start</text>
</a>
</g>
</g>
<!-- Node6&#45;&gt;Node7 -->
<g id="edge6" class="edge">
<title>Node6&#45;&gt;Node7</title>
<path fill="none" stroke="midnightblue" d="M172.75,-306.5C164.19,-306.5 155.58,-306.5 147.2,-306.5"/>
<polygon fill="midnightblue" stroke="midnightblue" points="172.75,-310 182.75,-306.5 172.75,-303 172.75,-310"/>
</g>
<!-- Node9 -->
<g id="node9" class="node">
<title>Node9</title>
<g id="a_node9"><a xlink:href="class_tayx_1_1_graphy_1_1_graphy_manager.xhtml#acee2ed06f19bb2ca4dd2c08cd6ea6663" target="_top" xlink:title=" ">
<polygon fill="white" stroke="black" points="562,-184.5 562,-214.5 709,-214.5 709,-184.5 562,-184.5"/>
<text text-anchor="start" x="570" y="-202.5" font-family="Helvetica,sans-Serif" font-size="10.00">Tayx.Graphy.GraphyManager.</text>
<text text-anchor="middle" x="635.5" y="-191.5" font-family="Helvetica,sans-Serif" font-size="10.00">RefreshAllParameters</text>
</a>
</g>
</g>
<!-- Node8&#45;&gt;Node9 -->
<g id="edge9" class="edge">
<title>Node8&#45;&gt;Node9</title>
<path fill="none" stroke="midnightblue" d="M739.93,-202.11C729.57,-201.85 719.15,-201.59 709.12,-201.33"/>
<polygon fill="midnightblue" stroke="midnightblue" points="740.16,-205.62 750.24,-202.37 740.33,-198.62 740.16,-205.62"/>
</g>
<!-- Node10 -->
<g id="node10" class="node">
<title>Node10</title>
<g id="a_node10"><a xlink:href="class_tayx_1_1_graphy_1_1_graphy_manager.xhtml#a348506f37eebf68d2530f2c57845459e" target="_top" xlink:title=" ">
<polygon fill="white" stroke="black" points="379,-184.5 379,-214.5 526,-214.5 526,-184.5 379,-184.5"/>
<text text-anchor="start" x="387" y="-202.5" font-family="Helvetica,sans-Serif" font-size="10.00">Tayx.Graphy.GraphyManager.</text>
<text text-anchor="middle" x="452.5" y="-191.5" font-family="Helvetica,sans-Serif" font-size="10.00">OnApplicationFocus</text>
</a>
</g>
</g>
<!-- Node9&#45;&gt;Node10 -->
<g id="edge10" class="edge">
<title>Node9&#45;&gt;Node10</title>
<path fill="none" stroke="midnightblue" d="M551.88,-199.5C543.28,-199.5 534.58,-199.5 526.09,-199.5"/>
<polygon fill="midnightblue" stroke="midnightblue" points="551.92,-203 561.92,-199.5 551.92,-196 551.92,-203"/>
</g>
<!-- Node12 -->
<g id="node12" class="node">
<title>Node12</title>
<g id="a_node12"><a xlink:href="class_tayx_1_1_graphy_1_1_graphy_manager.xhtml#aab730e06fd0246bdf98e1a76cf5e59d6" target="_top" xlink:title=" ">
<polygon fill="white" stroke="black" points="562,-233.5 562,-263.5 709,-263.5 709,-233.5 562,-233.5"/>
<text text-anchor="start" x="570" y="-251.5" font-family="Helvetica,sans-Serif" font-size="10.00">Tayx.Graphy.GraphyManager.</text>
<text text-anchor="middle" x="635.5" y="-240.5" font-family="Helvetica,sans-Serif" font-size="10.00">Enable</text>
</a>
</g>
</g>
<!-- Node11&#45;&gt;Node12 -->
<g id="edge12" class="edge">
<title>Node11&#45;&gt;Node12</title>
<path fill="none" stroke="midnightblue" d="M734.64,-250.98C726,-250.76 717.37,-250.54 709.02,-250.33"/>
<polygon fill="midnightblue" stroke="midnightblue" points="734.68,-254.48 744.77,-251.23 734.86,-247.48 734.68,-254.48"/>
</g>
<!-- Node12&#45;&gt;Node3 -->
<g id="edge13" class="edge">
<title>Node12&#45;&gt;Node3</title>
<path fill="none" stroke="midnightblue" d="M551.88,-259.45C543.28,-260.6 534.58,-261.75 526.09,-262.87"/>
<polygon fill="midnightblue" stroke="midnightblue" points="552.47,-262.91 561.92,-258.12 551.55,-255.97 552.47,-262.91"/>
</g>
<!-- Node15 -->
<g id="node15" class="node">
<title>Node15</title>
<g id="a_node15"><a xlink:href="class_tayx_1_1_graphy_1_1_graphy_manager.xhtml#ad2b2c2bf91439abdf0f3839570fb32ae" target="_top" xlink:title=" ">
<polygon fill="white" stroke="black" points="379,-123.5 379,-153.5 526,-153.5 526,-123.5 379,-123.5"/>
<text text-anchor="start" x="387" y="-141.5" font-family="Helvetica,sans-Serif" font-size="10.00">Tayx.Graphy.GraphyManager.</text>
<text text-anchor="middle" x="452.5" y="-130.5" font-family="Helvetica,sans-Serif" font-size="10.00">ToggleModes</text>
</a>
</g>
</g>
<!-- Node14&#45;&gt;Node15 -->
<g id="edge16" class="edge">
<title>Node14&#45;&gt;Node15</title>
<path fill="none" stroke="midnightblue" d="M751.8,-113.45C684.52,-119.1 590.51,-126.99 526.11,-132.4"/>
<polygon fill="midnightblue" stroke="midnightblue" points="752.27,-116.92 761.94,-112.59 751.68,-109.94 752.27,-116.92"/>
</g>
<!-- Node15&#45;&gt;Node4 -->
<g id="edge17" class="edge">
<title>Node15&#45;&gt;Node4</title>
<path fill="none" stroke="midnightblue" d="M405.26,-157.49C373.08,-170.71 330.73,-188.1 300.82,-200.38"/>
<polygon fill="midnightblue" stroke="midnightblue" points="406.98,-160.57 414.9,-153.53 404.32,-154.09 406.98,-160.57"/>
</g>
<!-- Node17 -->
<g id="node17" class="node">
<title>Node17</title>
<g id="a_node17"><a xlink:href="class_tayx_1_1_graphy_1_1_advanced_1_1_g___advanced_data.xhtml#a2092a4aebd0008fddf83bd40c9bd7712" target="_top" xlink:title=" ">
<polygon fill="white" stroke="black" points="571.5,-0.5 571.5,-30.5 699.5,-30.5 699.5,-0.5 571.5,-0.5"/>
<text text-anchor="start" x="579.5" y="-18.5" font-family="Helvetica,sans-Serif" font-size="10.00">Tayx.Graphy.Advanced.G</text>
<text text-anchor="middle" x="635.5" y="-7.5" font-family="Helvetica,sans-Serif" font-size="10.00">_AdvancedData.Init</text>
</a>
</g>
</g>
<!-- Node16&#45;&gt;Node17 -->
<g id="edge19" class="edge">
<title>Node16&#45;&gt;Node17</title>
<path fill="none" stroke="midnightblue" d="M753.68,-40.36C735.69,-36.54 716.86,-32.55 699.7,-28.91"/>
<polygon fill="midnightblue" stroke="midnightblue" points="753.07,-43.8 763.58,-42.46 754.52,-36.96 753.07,-43.8"/>
</g>
<!-- Node19 -->
<g id="node19" class="node">
<title>Node19</title>
<g id="a_node19"><a xlink:href="class_tayx_1_1_graphy_1_1_graphy_manager.xhtml#a09cf85e2115057a8a96471d52b9c4cd2" target="_top" xlink:title=" ">
<polygon fill="white" stroke="black" points="562,-49.5 562,-79.5 709,-79.5 709,-49.5 562,-49.5"/>
<text text-anchor="start" x="570" y="-67.5" font-family="Helvetica,sans-Serif" font-size="10.00">Tayx.Graphy.GraphyManager.</text>
<text text-anchor="middle" x="635.5" y="-56.5" font-family="Helvetica,sans-Serif" font-size="10.00">UpdateAllParameters</text>
</a>
</g>
</g>
<!-- Node16&#45;&gt;Node19 -->
<g id="edge21" class="edge">
<title>Node16&#45;&gt;Node19</title>
<path fill="none" stroke="midnightblue" d="M741.1,-60.8C730.33,-61.18 719.46,-61.57 709.02,-61.94"/>
<polygon fill="midnightblue" stroke="midnightblue" points="741.52,-64.29 751.39,-60.44 741.27,-57.29 741.52,-64.29"/>
</g>
<!-- Node18 -->
<g id="node18" class="node">
<title>Node18</title>
<g id="a_node18"><a xlink:href="class_tayx_1_1_graphy_1_1_advanced_1_1_g___advanced_data.xhtml#a27dc840460b80ace5f3610035e41d69b" target="_top" xlink:title=" ">
<polygon fill="white" stroke="black" points="387.5,-0.5 387.5,-30.5 517.5,-30.5 517.5,-0.5 387.5,-0.5"/>
<text text-anchor="start" x="395.5" y="-18.5" font-family="Helvetica,sans-Serif" font-size="10.00">Tayx.Graphy.Advanced.G</text>
<text text-anchor="middle" x="452.5" y="-7.5" font-family="Helvetica,sans-Serif" font-size="10.00">_AdvancedData.OnEnable</text>
</a>
</g>
</g>
<!-- Node17&#45;&gt;Node18 -->
<g id="edge20" class="edge">
<title>Node17&#45;&gt;Node18</title>
<path fill="none" stroke="midnightblue" d="M561.08,-15.5C546.66,-15.5 531.64,-15.5 517.55,-15.5"/>
<polygon fill="midnightblue" stroke="midnightblue" points="561.45,-19 571.45,-15.5 561.45,-12 561.45,-19"/>
</g>
</g>
</svg>
