<?xml version="1.0" encoding="UTF-8" standalone="no"?>
<!DOCTYPE svg PUBLIC "-//W3C//DTD SVG 1.1//EN"
 "http://www.w3.org/Graphics/SVG/1.1/DTD/svg11.dtd">
<!-- Generated by graphviz version 2.47.3 (20210619.1520)
 -->
<!-- Title: PlayerStats.Respawn Pages: 1 -->
<svg width="650pt" height="166pt"
 viewBox="0.00 0.00 650.00 165.50" xmlns="http://www.w3.org/2000/svg" xmlns:xlink="http://www.w3.org/1999/xlink">
<g id="graph0" class="graph" transform="scale(1 1) rotate(0) translate(4 161.5)">
<title>PlayerStats.Respawn</title>
<!-- Node1 -->
<g id="node1" class="node">
<title>Node1</title>
<g id="a_node1"><a xlink:title=" ">
<polygon fill="#bfbfbf" stroke="black" points="0,-66.5 0,-85.5 110,-85.5 110,-66.5 0,-66.5"/>
<text text-anchor="middle" x="55" y="-73.5" font-family="Helvetica,sans-Serif" font-size="10.00">PlayerStats.Respawn</text>
</a>
</g>
</g>
<!-- Node2 -->
<g id="node2" class="node">
<title>Node2</title>
<g id="a_node2"><a xlink:href="class_player_stats.html#a07cb6a60391d769fea03f1bc3b6927c6" target="_top" xlink:title=" ">
<polygon fill="none" stroke="black" points="162.5,-88.5 162.5,-107.5 272.5,-107.5 272.5,-88.5 162.5,-88.5"/>
<text text-anchor="middle" x="217.5" y="-95.5" font-family="Helvetica,sans-Serif" font-size="10.00">PlayerStats.HealRPC</text>
</a>
</g>
</g>
<!-- Node1&#45;&gt;Node2 -->
<g id="edge1" class="edge">
<title>Node1&#45;&gt;Node2</title>
<path fill="none" stroke="midnightblue" d="M110.34,-83.45C123.88,-85.3 138.52,-87.31 152.47,-89.22"/>
<polygon fill="midnightblue" stroke="midnightblue" points="152.11,-92.71 162.49,-90.6 153.06,-85.77 152.11,-92.71"/>
</g>
<!-- Node6 -->
<g id="node6" class="node">
<title>Node6</title>
<g id="a_node6"><a xlink:href="class_player_stats.html#a0348bfd846a1fb5122239414e9ec558b" target="_top" xlink:title=" ">
<polygon fill="none" stroke="black" points="146,-44.5 146,-63.5 289,-63.5 289,-44.5 146,-44.5"/>
<text text-anchor="middle" x="217.5" y="-51.5" font-family="Helvetica,sans-Serif" font-size="10.00">PlayerStats.RegenManaRPC</text>
</a>
</g>
</g>
<!-- Node1&#45;&gt;Node6 -->
<g id="edge6" class="edge">
<title>Node1&#45;&gt;Node6</title>
<path fill="none" stroke="midnightblue" d="M110.34,-68.55C118.93,-67.37 127.96,-66.14 136.98,-64.9"/>
<polygon fill="midnightblue" stroke="midnightblue" points="137.71,-68.33 147.14,-63.51 136.76,-61.4 137.71,-68.33"/>
</g>
<!-- Node3 -->
<g id="node3" class="node">
<title>Node3</title>
<g id="a_node3"><a xlink:href="class_player_u_i_controller.html#aca577b724c1f3f2ed54ad1165a7842c2" target="_top" xlink:title="Sets the current HP value to the Image.">
<polygon fill="none" stroke="black" points="338.5,-127 338.5,-157 466.5,-157 466.5,-127 338.5,-127"/>
<text text-anchor="start" x="346.5" y="-145" font-family="Helvetica,sans-Serif" font-size="10.00">PlayerUIController.Update</text>
<text text-anchor="middle" x="402.5" y="-134" font-family="Helvetica,sans-Serif" font-size="10.00">CurrentHP</text>
</a>
</g>
</g>
<!-- Node2&#45;&gt;Node3 -->
<g id="edge2" class="edge">
<title>Node2&#45;&gt;Node3</title>
<path fill="none" stroke="midnightblue" d="M258.21,-107.55C278.9,-112.52 304.87,-118.77 328.99,-124.57"/>
<polygon fill="midnightblue" stroke="midnightblue" points="328.3,-128 338.84,-126.93 329.94,-121.19 328.3,-128"/>
</g>
<!-- Node5 -->
<g id="node5" class="node">
<title>Node5</title>
<g id="a_node5"><a xlink:href="class_player_h_u_d_controller.html#ab2461120d3cfef6e83b38062b1373e04" target="_top" xlink:title=" ">
<polygon fill="none" stroke="black" points="326,-88.5 326,-107.5 479,-107.5 479,-88.5 326,-88.5"/>
<text text-anchor="middle" x="402.5" y="-95.5" font-family="Helvetica,sans-Serif" font-size="10.00">PlayerHUDController.UpdateHP</text>
</a>
</g>
</g>
<!-- Node2&#45;&gt;Node5 -->
<g id="edge4" class="edge">
<title>Node2&#45;&gt;Node5</title>
<path fill="none" stroke="midnightblue" d="M272.91,-98C286.44,-98 301.26,-98 315.89,-98"/>
<polygon fill="midnightblue" stroke="midnightblue" points="315.96,-101.5 325.96,-98 315.96,-94.5 315.96,-101.5"/>
</g>
<!-- Node4 -->
<g id="node4" class="node">
<title>Node4</title>
<g id="a_node4"><a xlink:href="class_utils.html#a459472171f68c903c975020cc5b02fee" target="_top" xlink:title="Calculates the actual normalized fill amount for the image.">
<polygon fill="none" stroke="black" points="516,-66.5 516,-85.5 642,-85.5 642,-66.5 516,-66.5"/>
<text text-anchor="middle" x="579" y="-73.5" font-family="Helvetica,sans-Serif" font-size="10.00">Utils.CalculateFillAmount</text>
</a>
</g>
</g>
<!-- Node3&#45;&gt;Node4 -->
<g id="edge3" class="edge">
<title>Node3&#45;&gt;Node4</title>
<path fill="none" stroke="midnightblue" d="M451.45,-126.98C460.96,-123.82 470.83,-120.41 480,-117 502.67,-108.57 527.83,-98.02 546.98,-89.73"/>
<polygon fill="midnightblue" stroke="midnightblue" points="548.63,-92.83 556.4,-85.62 545.84,-86.41 548.63,-92.83"/>
</g>
<!-- Node5&#45;&gt;Node4 -->
<g id="edge5" class="edge">
<title>Node5&#45;&gt;Node4</title>
<path fill="none" stroke="midnightblue" d="M479.02,-88.48C487.99,-87.35 497.13,-86.2 506.04,-85.07"/>
<polygon fill="midnightblue" stroke="midnightblue" points="506.51,-88.54 516,-83.82 505.64,-81.6 506.51,-88.54"/>
</g>
<!-- Node7 -->
<g id="node7" class="node">
<title>Node7</title>
<g id="a_node7"><a xlink:href="class_player_u_i_controller.html#ac7bf7455ce00b144f6a1678e524819b2" target="_top" xlink:title="Sets the current MP value to the Image.">
<polygon fill="none" stroke="black" points="338.5,-39 338.5,-69 466.5,-69 466.5,-39 338.5,-39"/>
<text text-anchor="start" x="346.5" y="-57" font-family="Helvetica,sans-Serif" font-size="10.00">PlayerUIController.Update</text>
<text text-anchor="middle" x="402.5" y="-46" font-family="Helvetica,sans-Serif" font-size="10.00">CurrentMana</text>
</a>
</g>
</g>
<!-- Node6&#45;&gt;Node7 -->
<g id="edge7" class="edge">
<title>Node6&#45;&gt;Node7</title>
<path fill="none" stroke="midnightblue" d="M289.25,-54C302.03,-54 315.38,-54 328.22,-54"/>
<polygon fill="midnightblue" stroke="midnightblue" points="328.4,-57.5 338.4,-54 328.4,-50.5 328.4,-57.5"/>
</g>
<!-- Node8 -->
<g id="node8" class="node">
<title>Node8</title>
<g id="a_node8"><a xlink:href="class_player_h_u_d_controller.html#a09d27238c0e659b8f98828367c7622ba" target="_top" xlink:title=" ">
<polygon fill="none" stroke="black" points="325,-0.5 325,-19.5 480,-19.5 480,-0.5 325,-0.5"/>
<text text-anchor="middle" x="402.5" y="-7.5" font-family="Helvetica,sans-Serif" font-size="10.00">PlayerHUDController.UpdateMP</text>
</a>
</g>
</g>
<!-- Node6&#45;&gt;Node8 -->
<g id="edge9" class="edge">
<title>Node6&#45;&gt;Node8</title>
<path fill="none" stroke="midnightblue" d="M258.21,-44.45C285.67,-37.85 322.4,-29.02 351.8,-21.95"/>
<polygon fill="midnightblue" stroke="midnightblue" points="352.96,-25.27 361.87,-19.53 351.33,-18.46 352.96,-25.27"/>
</g>
<!-- Node7&#45;&gt;Node4 -->
<g id="edge8" class="edge">
<title>Node7&#45;&gt;Node4</title>
<path fill="none" stroke="midnightblue" d="M466.99,-62C479.53,-63.58 492.77,-65.25 505.57,-66.87"/>
<polygon fill="midnightblue" stroke="midnightblue" points="505.36,-70.37 515.72,-68.15 506.24,-63.42 505.36,-70.37"/>
</g>
<!-- Node8&#45;&gt;Node4 -->
<g id="edge10" class="edge">
<title>Node8&#45;&gt;Node4</title>
<path fill="none" stroke="midnightblue" d="M448.45,-19.54C458.93,-22.21 469.96,-25.39 480,-29 505.18,-38.06 532.53,-51.5 551.92,-61.69"/>
<polygon fill="midnightblue" stroke="midnightblue" points="550.29,-64.79 560.76,-66.4 553.58,-58.61 550.29,-64.79"/>
</g>
</g>
</svg>
