<?xml version="1.0" encoding="UTF-8" standalone="no"?>
<!DOCTYPE svg PUBLIC "-//W3C//DTD SVG 1.1//EN"
 "http://www.w3.org/Graphics/SVG/1.1/DTD/svg11.dtd">
<!-- Generated by graphviz version 2.47.3 (20210619.1520)
 -->
<!-- Title: DoxyThreadSafeOutput.WriteFullLog Pages: 1 -->
<svg width="866pt" height="39pt"
 viewBox="0.00 0.00 866.00 39.00" xmlns="http://www.w3.org/2000/svg" xmlns:xlink="http://www.w3.org/1999/xlink">
<g id="graph0" class="graph" transform="scale(1 1) rotate(0) translate(4 35)">
<title>DoxyThreadSafeOutput.WriteFullLog</title>
<polygon fill="white" stroke="transparent" points="-4,4 -4,-35 862,-35 862,4 -4,4"/>
<!-- Node1 -->
<g id="node1" class="node">
<title>Node1</title>
<g id="a_node1"><a xlink:title=" ">
<polygon fill="#bfbfbf" stroke="black" points="715,-0.5 715,-30.5 858,-30.5 858,-0.5 715,-0.5"/>
<text text-anchor="start" x="723" y="-18.5" font-family="Helvetica,sans-Serif" font-size="10.00">DoxyThreadSafeOutput.Write</text>
<text text-anchor="middle" x="786.5" y="-7.5" font-family="Helvetica,sans-Serif" font-size="10.00">FullLog</text>
</a>
</g>
</g>
<!-- Node2 -->
<g id="node2" class="node">
<title>Node2</title>
<g id="a_node2"><a xlink:href="class_doxy_runner.xhtml#a0a838402bf7b6661d4a1959c1b57aeb6" target="_top" xlink:title=" ">
<polygon fill="white" stroke="black" points="527,-6 527,-25 679,-25 679,-6 527,-6"/>
<text text-anchor="middle" x="603" y="-13" font-family="Helvetica,sans-Serif" font-size="10.00">DoxyRunner.RunThreadedDoxy</text>
</a>
</g>
</g>
<!-- Node1&#45;&gt;Node2 -->
<g id="edge1" class="edge">
<title>Node1&#45;&gt;Node2</title>
<path fill="none" stroke="midnightblue" d="M704.61,-15.5C696.19,-15.5 687.66,-15.5 679.3,-15.5"/>
<polygon fill="midnightblue" stroke="midnightblue" points="704.81,-19 714.81,-15.5 704.81,-12 704.81,-19"/>
</g>
<!-- Node3 -->
<g id="node3" class="node">
<title>Node3</title>
<g id="a_node3"><a xlink:href="class_doxygen_window.xhtml#a63924417d5b5b7a71570ec9a9ef1ca5e" target="_top" xlink:title=" ">
<polygon fill="white" stroke="black" points="343,-6 343,-25 491,-25 491,-6 343,-6"/>
<text text-anchor="middle" x="417" y="-13" font-family="Helvetica,sans-Serif" font-size="10.00">DoxygenWindow.RunDoxygen</text>
</a>
</g>
</g>
<!-- Node2&#45;&gt;Node3 -->
<g id="edge2" class="edge">
<title>Node2&#45;&gt;Node3</title>
<path fill="none" stroke="midnightblue" d="M516.84,-15.5C508.24,-15.5 499.55,-15.5 491.08,-15.5"/>
<polygon fill="midnightblue" stroke="midnightblue" points="516.89,-19 526.89,-15.5 516.89,-12 516.89,-19"/>
</g>
<!-- Node4 -->
<g id="node4" class="node">
<title>Node4</title>
<g id="a_node4"><a xlink:href="class_doxygen_window.xhtml#a22550b6648437b01aed667098462184d" target="_top" xlink:title=" ">
<polygon fill="white" stroke="black" points="158,-6 158,-25 307,-25 307,-6 158,-6"/>
<text text-anchor="middle" x="232.5" y="-13" font-family="Helvetica,sans-Serif" font-size="10.00">DoxygenWindow.GenerateGUI</text>
</a>
</g>
</g>
<!-- Node3&#45;&gt;Node4 -->
<g id="edge3" class="edge">
<title>Node3&#45;&gt;Node4</title>
<path fill="none" stroke="midnightblue" d="M332.59,-15.5C324.15,-15.5 315.62,-15.5 307.29,-15.5"/>
<polygon fill="midnightblue" stroke="midnightblue" points="332.82,-19 342.82,-15.5 332.82,-12 332.82,-19"/>
</g>
<!-- Node5 -->
<g id="node5" class="node">
<title>Node5</title>
<g id="a_node5"><a xlink:href="class_doxygen_window.xhtml#ad1e45df94b1f6cfea9a99f1e3c6920dd" target="_top" xlink:title=" ">
<polygon fill="white" stroke="black" points="0,-6 0,-25 122,-25 122,-6 0,-6"/>
<text text-anchor="middle" x="61" y="-13" font-family="Helvetica,sans-Serif" font-size="10.00">DoxygenWindow.OnGUI</text>
</a>
</g>
</g>
<!-- Node4&#45;&gt;Node5 -->
<g id="edge4" class="edge">
<title>Node4&#45;&gt;Node5</title>
<path fill="none" stroke="midnightblue" d="M147.59,-15.5C139,-15.5 130.4,-15.5 122.13,-15.5"/>
<polygon fill="midnightblue" stroke="midnightblue" points="147.65,-19 157.65,-15.5 147.65,-12 147.65,-19"/>
</g>
</g>
</svg>
