<?xml version="1.0" encoding="UTF-8" standalone="no"?>
<!DOCTYPE svg PUBLIC "-//W3C//DTD SVG 1.1//EN"
 "http://www.w3.org/Graphics/SVG/1.1/DTD/svg11.dtd">
<!-- Generated by graphviz version 2.47.3 (20210619.1520)
 -->
<!-- Title: AbilityIndicator Pages: 1 -->
<svg width="720pt" height="575pt"
 viewBox="0.00 0.00 720.00 575.00" xmlns="http://www.w3.org/2000/svg" xmlns:xlink="http://www.w3.org/1999/xlink">
<g id="graph0" class="graph" transform="scale(1 1) rotate(0) translate(4 571)">
<title>AbilityIndicator</title>
<polygon fill="white" stroke="transparent" points="-4,4 -4,-571 716,-571 716,4 -4,4"/>
<!-- Node1 -->
<g id="node1" class="node">
<title>Node1</title>
<g id="a_node1"><a xlink:title=" ">
<polygon fill="#bfbfbf" stroke="black" points="432,-268.5 432,-287.5 512,-287.5 512,-268.5 432,-268.5"/>
<text text-anchor="middle" x="472" y="-275.5" font-family="Helvetica,sans-Serif" font-size="10.00">AbilityIndicator</text>
</a>
</g>
</g>
<!-- Node3 -->
<g id="node3" class="node">
<title>Node3</title>
<g id="a_node3"><a xlink:href="class_ability_cooldown.xhtml" target="_top" xlink:title=" ">
<polygon fill="white" stroke="black" points="427,-201.5 427,-220.5 513,-220.5 513,-201.5 427,-201.5"/>
<text text-anchor="middle" x="470" y="-208.5" font-family="Helvetica,sans-Serif" font-size="10.00">AbilityCooldown</text>
</a>
</g>
</g>
<!-- Node1&#45;&gt;Node3 -->
<g id="edge35" class="edge">
<title>Node1&#45;&gt;Node3</title>
<path fill="none" stroke="#9a32cd" stroke-dasharray="5,2" d="M430.13,-263.58C424.52,-260.03 419.5,-255.58 416,-250 407.71,-236.8 423.47,-226.9 440.06,-220.52"/>
<polygon fill="#9a32cd" stroke="#9a32cd" points="428.82,-266.85 439.29,-268.44 432.1,-260.66 428.82,-266.85"/>
<text text-anchor="middle" x="449" y="-242" font-family="Helvetica,sans-Serif" font-size="10.00"> abilityIndicator</text>
</g>
<!-- Node2 -->
<g id="node2" class="node">
<title>Node2</title>
<g id="a_node2"><a xlink:title=" ">
<polygon fill="white" stroke="#bfbfbf" points="101.5,-335.5 101.5,-354.5 184.5,-354.5 184.5,-335.5 101.5,-335.5"/>
<text text-anchor="middle" x="143" y="-342.5" font-family="Helvetica,sans-Serif" font-size="10.00">MonoBehaviour</text>
</a>
</g>
</g>
<!-- Node2&#45;&gt;Node1 -->
<g id="edge1" class="edge">
<title>Node2&#45;&gt;Node1</title>
<path fill="none" stroke="midnightblue" d="M194.72,-336.26C226.84,-331.24 268.92,-324.31 306,-317 351.69,-308 403.99,-295.69 437.48,-287.55"/>
<polygon fill="midnightblue" stroke="midnightblue" points="194.01,-332.83 184.66,-337.81 195.08,-339.74 194.01,-332.83"/>
</g>
<!-- Node2&#45;&gt;Node3 -->
<g id="edge3" class="edge">
<title>Node2&#45;&gt;Node3</title>
<path fill="none" stroke="midnightblue" d="M173.89,-331.53C239.81,-304.92 392.79,-243.17 448.89,-220.52"/>
<polygon fill="midnightblue" stroke="midnightblue" points="172.42,-328.35 164.46,-335.34 175.04,-334.84 172.42,-328.35"/>
</g>
<!-- Node4 -->
<g id="node4" class="node">
<title>Node4</title>
<g id="a_node4"><a xlink:href="class_player_controller.xhtml" target="_top" xlink:title="Player Controller is the main class that handles all the movement of the Player.">
<polygon fill="white" stroke="black" points="310,-0.5 310,-19.5 396,-19.5 396,-0.5 310,-0.5"/>
<text text-anchor="middle" x="353" y="-7.5" font-family="Helvetica,sans-Serif" font-size="10.00">PlayerController</text>
</a>
</g>
</g>
<!-- Node2&#45;&gt;Node4 -->
<g id="edge5" class="edge">
<title>Node2&#45;&gt;Node4</title>
<path fill="none" stroke="midnightblue" d="M91.09,-341.02C50.18,-335.52 0,-320.36 0,-279 0,-279 0,-279 0,-76 0,-44.84 215.45,-22.7 309.72,-14.5"/>
<polygon fill="midnightblue" stroke="midnightblue" points="90.91,-344.52 101.25,-342.22 91.73,-337.57 90.91,-344.52"/>
</g>
<!-- Node11 -->
<g id="node11" class="node">
<title>Node11</title>
<g id="a_node11"><a xlink:href="class_stats.xhtml" target="_top" xlink:title="Base class Stats of the entity.">
<polygon fill="white" stroke="black" points="123,-268.5 123,-287.5 163,-287.5 163,-268.5 123,-268.5"/>
<text text-anchor="middle" x="143" y="-275.5" font-family="Helvetica,sans-Serif" font-size="10.00">Stats</text>
</a>
</g>
</g>
<!-- Node2&#45;&gt;Node11 -->
<g id="edge16" class="edge">
<title>Node2&#45;&gt;Node11</title>
<path fill="none" stroke="midnightblue" d="M143,-325.04C143,-312.67 143,-297.12 143,-287.63"/>
<polygon fill="midnightblue" stroke="midnightblue" points="139.5,-325.23 143,-335.23 146.5,-325.23 139.5,-325.23"/>
</g>
<!-- Node13 -->
<g id="node13" class="node">
<title>Node13</title>
<g id="a_node13"><a xlink:href="class_u_i_controller.xhtml" target="_top" xlink:title=" ">
<polygon fill="white" stroke="black" points="191.5,-268.5 191.5,-287.5 258.5,-287.5 258.5,-268.5 191.5,-268.5"/>
<text text-anchor="middle" x="225" y="-275.5" font-family="Helvetica,sans-Serif" font-size="10.00">UIController</text>
</a>
</g>
</g>
<!-- Node2&#45;&gt;Node13 -->
<g id="edge19" class="edge">
<title>Node2&#45;&gt;Node13</title>
<path fill="none" stroke="midnightblue" d="M162.28,-328.71C178.44,-315.91 200.92,-298.09 214.12,-287.63"/>
<polygon fill="midnightblue" stroke="midnightblue" points="159.72,-326.28 154.06,-335.23 164.07,-331.76 159.72,-326.28"/>
</g>
<!-- Node14 -->
<g id="node14" class="node">
<title>Node14</title>
<g id="a_node14"><a xlink:href="class_inventory.xhtml" target="_top" xlink:title=" ">
<polygon fill="white" stroke="black" points="222.5,-67.5 222.5,-86.5 277.5,-86.5 277.5,-67.5 222.5,-67.5"/>
<text text-anchor="middle" x="250" y="-74.5" font-family="Helvetica,sans-Serif" font-size="10.00">Inventory</text>
</a>
</g>
</g>
<!-- Node2&#45;&gt;Node14 -->
<g id="edge23" class="edge">
<title>Node2&#45;&gt;Node14</title>
<path fill="none" stroke="midnightblue" d="M114.65,-330.3C96.37,-319.29 76,-301.88 76,-279 76,-279 76,-279 76,-176.5 76,-129.14 113.58,-127.96 155,-105 161,-101.67 196.61,-91.96 222.47,-85.14"/>
<polygon fill="midnightblue" stroke="midnightblue" points="113.19,-333.5 123.62,-335.34 116.61,-327.39 113.19,-333.5"/>
</g>
<!-- Node18 -->
<g id="node18" class="node">
<title>Node18</title>
<g id="a_node18"><a xlink:href="class_basic_attack.xhtml" target="_top" xlink:title=" ">
<polygon fill="white" stroke="black" points="134,-67.5 134,-86.5 204,-86.5 204,-67.5 134,-67.5"/>
<text text-anchor="middle" x="169" y="-74.5" font-family="Helvetica,sans-Serif" font-size="10.00">BasicAttack</text>
</a>
</g>
</g>
<!-- Node2&#45;&gt;Node18 -->
<g id="edge30" class="edge">
<title>Node2&#45;&gt;Node18</title>
<path fill="none" stroke="midnightblue" d="M91.48,-332.43C64.9,-323.09 38,-306.78 38,-279 38,-279 38,-279 38,-143 38,-100.09 95.09,-85.51 133.89,-80.55"/>
<polygon fill="midnightblue" stroke="midnightblue" points="90.61,-335.83 101.2,-335.56 92.75,-329.16 90.61,-335.83"/>
</g>
<!-- Node3&#45;&gt;Node1 -->
<g id="edge2" class="edge">
<title>Node3&#45;&gt;Node1</title>
<path fill="none" stroke="#9a32cd" stroke-dasharray="5,2" d="M482.25,-229.69C483.8,-232.68 485.14,-235.84 486,-239 488.82,-249.31 483.36,-260.77 478.45,-268.38"/>
<polygon fill="#9a32cd" stroke="#9a32cd" points="485.12,-227.68 476.95,-220.94 479.13,-231.3 485.12,-227.68"/>
<text text-anchor="middle" x="509.5" y="-242" font-family="Helvetica,sans-Serif" font-size="10.00"> currentCD</text>
</g>
<!-- Node3&#45;&gt;Node4 -->
<g id="edge6" class="edge">
<title>Node3&#45;&gt;Node4</title>
<path fill="none" stroke="#9a32cd" stroke-dasharray="5,2" d="M470.78,-191.17C471.04,-161.79 467.6,-104.52 440,-67 423.4,-44.43 394.72,-28.57 374.85,-19.63"/>
<polygon fill="#9a32cd" stroke="#9a32cd" points="467.28,-191.2 470.53,-201.29 474.28,-191.38 467.28,-191.2"/>
<text text-anchor="middle" x="500" y="-108" font-family="Helvetica,sans-Serif" font-size="10.00"> abilityCooldowns</text>
</g>
<!-- Node9 -->
<g id="node9" class="node">
<title>Node9</title>
<g id="a_node9"><a xlink:href="class_player_stats.xhtml" target="_top" xlink:title="Player Stats is the main class that controls all the Player Statistics in all time in the game execut...">
<polygon fill="white" stroke="black" points="264,-134.5 264,-153.5 332,-153.5 332,-134.5 264,-134.5"/>
<text text-anchor="middle" x="298" y="-141.5" font-family="Helvetica,sans-Serif" font-size="10.00">PlayerStats</text>
</a>
</g>
</g>
<!-- Node3&#45;&gt;Node9 -->
<g id="edge21" class="edge">
<title>Node3&#45;&gt;Node9</title>
<path fill="none" stroke="#9a32cd" stroke-dasharray="5,2" d="M416.66,-202.98C375.8,-197.21 325.07,-189.02 317,-183 307.42,-175.86 302.36,-162.54 299.93,-153.72"/>
<polygon fill="#9a32cd" stroke="#9a32cd" points="416.42,-206.48 426.81,-204.39 417.38,-199.55 416.42,-206.48"/>
<text text-anchor="middle" x="355" y="-175" font-family="Helvetica,sans-Serif" font-size="10.00"> abilityCooldowns</text>
</g>
<!-- Node4&#45;&gt;Node3 -->
<g id="edge4" class="edge">
<title>Node4&#45;&gt;Node3</title>
<path fill="none" stroke="#9a32cd" stroke-dasharray="5,2" d="M406.45,-13.07C434.8,-16.07 469.38,-22.88 497,-38 532.86,-57.62 544.94,-67 560,-105 576.9,-147.63 518.48,-185.1 487.73,-201.38"/>
<polygon fill="#9a32cd" stroke="#9a32cd" points="406.59,-9.57 396.31,-12.13 405.94,-16.54 406.59,-9.57"/>
<text text-anchor="middle" x="597.5" y="-108" font-family="Helvetica,sans-Serif" font-size="10.00"> playerController</text>
</g>
<!-- Node4&#45;&gt;Node9 -->
<g id="edge20" class="edge">
<title>Node4&#45;&gt;Node9</title>
<path fill="none" stroke="#9a32cd" stroke-dasharray="5,2" d="M358.8,-29.44C362.83,-44.97 366.7,-67.68 362,-87 358.57,-101.1 357.13,-105.61 347,-116 339.41,-123.79 329.08,-129.93 319.86,-134.38"/>
<polygon fill="#9a32cd" stroke="#9a32cd" points="362.09,-28.2 355.96,-19.55 355.36,-30.13 362.09,-28.2"/>
<text text-anchor="middle" x="400.5" y="-74.5" font-family="Helvetica,sans-Serif" font-size="10.00"> playerController</text>
</g>
<!-- Node4&#45;&gt;Node18 -->
<g id="edge31" class="edge">
<title>Node4&#45;&gt;Node18</title>
<path fill="none" stroke="#9a32cd" stroke-dasharray="5,2" d="M313.08,-22.6C298.21,-27.13 281.24,-32.54 266,-38 253.8,-42.37 251.05,-44.22 239,-49 223.14,-55.29 205.18,-62.21 191.42,-67.47"/>
<polygon fill="#9a32cd" stroke="#9a32cd" points="314.43,-25.85 322.99,-19.62 312.41,-19.15 314.43,-25.85"/>
<text text-anchor="middle" x="287.5" y="-41" font-family="Helvetica,sans-Serif" font-size="10.00"> controller</text>
</g>
<!-- Node5 -->
<g id="node5" class="node">
<title>Node5</title>
<g id="a_node5"><a xlink:href="class_character.xhtml" target="_top" xlink:title=" ">
<polygon fill="white" stroke="black" points="625.5,-335.5 625.5,-354.5 684.5,-354.5 684.5,-335.5 625.5,-335.5"/>
<text text-anchor="middle" x="655" y="-342.5" font-family="Helvetica,sans-Serif" font-size="10.00">Character</text>
</a>
</g>
</g>
<!-- Node5&#45;&gt;Node4 -->
<g id="edge7" class="edge">
<title>Node5&#45;&gt;Node4</title>
<path fill="none" stroke="#9a32cd" stroke-dasharray="5,2" d="M660.76,-325.33C664.24,-312.44 668,-294.84 668,-279 668,-279 668,-279 668,-76 668,-21.14 482.41,-12.2 396.14,-11.01"/>
<polygon fill="#9a32cd" stroke="#9a32cd" points="657.3,-324.7 657.89,-335.28 664.03,-326.65 657.3,-324.7"/>
<text text-anchor="middle" x="690" y="-175" font-family="Helvetica,sans-Serif" font-size="10.00"> character</text>
</g>
<!-- Node6 -->
<g id="node6" class="node">
<title>Node6</title>
<g id="a_node6"><a xlink:title=" ">
<polygon fill="white" stroke="#bfbfbf" points="505.5,-542 505.5,-561 594.5,-561 594.5,-542 505.5,-542"/>
<text text-anchor="middle" x="550" y="-549" font-family="Helvetica,sans-Serif" font-size="10.00">ScriptableObject</text>
</a>
</g>
</g>
<!-- Node6&#45;&gt;Node5 -->
<g id="edge8" class="edge">
<title>Node6&#45;&gt;Node5</title>
<path fill="none" stroke="midnightblue" d="M562.2,-533.3C565.5,-528.43 568.99,-523.07 572,-518 606.17,-460.38 614.04,-445.32 641,-384 645.36,-374.09 649.54,-362.35 652.18,-354.57"/>
<polygon fill="midnightblue" stroke="midnightblue" points="559.09,-531.64 556.27,-541.86 564.84,-535.63 559.09,-531.64"/>
</g>
<!-- Node7 -->
<g id="node7" class="node">
<title>Node7</title>
<g id="a_node7"><a xlink:href="class_ability.xhtml" target="_top" xlink:title="Base abstract class for an Ability.">
<polygon fill="white" stroke="black" points="559,-402.5 559,-421.5 603,-421.5 603,-402.5 559,-402.5"/>
<text text-anchor="middle" x="581" y="-409.5" font-family="Helvetica,sans-Serif" font-size="10.00">Ability</text>
</a>
</g>
</g>
<!-- Node6&#45;&gt;Node7 -->
<g id="edge10" class="edge">
<title>Node6&#45;&gt;Node7</title>
<path fill="none" stroke="midnightblue" d="M554.37,-532.1C559.08,-512.15 566.74,-479.35 573,-451 575.21,-440.99 577.62,-429.47 579.21,-421.76"/>
<polygon fill="midnightblue" stroke="midnightblue" points="550.92,-531.46 552.03,-541.99 557.73,-533.07 550.92,-531.46"/>
</g>
<!-- Node8 -->
<g id="node8" class="node">
<title>Node8</title>
<g id="a_node8"><a xlink:href="class_effect.xhtml" target="_top" xlink:title="Abstract base info container class for an Effect.">
<polygon fill="white" stroke="black" points="473.5,-469.5 473.5,-488.5 514.5,-488.5 514.5,-469.5 473.5,-469.5"/>
<text text-anchor="middle" x="494" y="-476.5" font-family="Helvetica,sans-Serif" font-size="10.00">Effect</text>
</a>
</g>
</g>
<!-- Node6&#45;&gt;Node8 -->
<g id="edge12" class="edge">
<title>Node6&#45;&gt;Node8</title>
<path fill="none" stroke="midnightblue" d="M542.96,-532.38C539.24,-524.14 534.17,-514.56 528,-507 522.19,-499.87 514.2,-493.41 507.42,-488.59"/>
<polygon fill="midnightblue" stroke="midnightblue" points="539.83,-533.98 546.92,-541.85 546.29,-531.28 539.83,-533.98"/>
</g>
<!-- Node15 -->
<g id="node15" class="node">
<title>Node15</title>
<g id="a_node15"><a xlink:href="class_item.xhtml" target="_top" xlink:title="Base class for an Item">
<polygon fill="white" stroke="black" points="394.5,-469.5 394.5,-488.5 429.5,-488.5 429.5,-469.5 394.5,-469.5"/>
<text text-anchor="middle" x="412" y="-476.5" font-family="Helvetica,sans-Serif" font-size="10.00">Item</text>
</a>
</g>
</g>
<!-- Node6&#45;&gt;Node15 -->
<g id="edge25" class="edge">
<title>Node6&#45;&gt;Node15</title>
<path fill="none" stroke="midnightblue" d="M530.36,-535.87C517.59,-526.8 500.34,-515.31 484,-507 466.15,-497.92 444.5,-490.21 429.63,-485.38"/>
<polygon fill="midnightblue" stroke="midnightblue" points="528.64,-538.95 538.79,-541.98 532.75,-533.28 528.64,-538.95"/>
</g>
<!-- Node7&#45;&gt;Node3 -->
<g id="edge34" class="edge">
<title>Node7&#45;&gt;Node3</title>
<path fill="none" stroke="#9a32cd" stroke-dasharray="5,2" d="M581.43,-392.13C581.21,-357.52 575.85,-283.38 537,-239 529.57,-230.51 519.08,-224.65 508.6,-220.62"/>
<polygon fill="#9a32cd" stroke="#9a32cd" points="577.93,-392.23 581.35,-402.25 584.93,-392.28 577.93,-392.23"/>
<text text-anchor="middle" x="587.5" y="-309" font-family="Helvetica,sans-Serif" font-size="10.00"> ability</text>
</g>
<!-- Node7&#45;&gt;Node5 -->
<g id="edge9" class="edge">
<title>Node7&#45;&gt;Node5</title>
<path fill="none" stroke="#9a32cd" stroke-dasharray="5,2" d="M589.3,-392.96C593.08,-386.11 598.05,-378.62 604,-373 612.23,-365.23 623.13,-359.06 632.74,-354.59"/>
<polygon fill="#9a32cd" stroke="#9a32cd" points="586,-391.73 584.64,-402.23 592.25,-394.87 586,-391.73"/>
<text text-anchor="middle" x="622.5" y="-376" font-family="Helvetica,sans-Serif" font-size="10.00"> abilities</text>
</g>
<!-- Node19 -->
<g id="node19" class="node">
<title>Node19</title>
<g id="a_node19"><a xlink:href="class_indicated_ability.xhtml" target="_top" xlink:title="Encapsulador de les Ability que han de mostrar l&#39;indicador">
<polygon fill="white" stroke="black" points="430.5,-335.5 430.5,-354.5 513.5,-354.5 513.5,-335.5 430.5,-335.5"/>
<text text-anchor="middle" x="472" y="-342.5" font-family="Helvetica,sans-Serif" font-size="10.00">IndicatedAbility</text>
</a>
</g>
</g>
<!-- Node7&#45;&gt;Node19 -->
<g id="edge38" class="edge">
<title>Node7&#45;&gt;Node19</title>
<path fill="none" stroke="midnightblue" d="M557.43,-396.94C535.84,-384.07 504.58,-365.43 486.47,-354.63"/>
<polygon fill="midnightblue" stroke="midnightblue" points="555.92,-400.12 566.3,-402.23 559.5,-394.11 555.92,-400.12"/>
</g>
<!-- Node8&#45;&gt;Node7 -->
<g id="edge11" class="edge">
<title>Node8&#45;&gt;Node7</title>
<path fill="none" stroke="#9a32cd" stroke-dasharray="5,2" d="M490.24,-458.97C489.98,-452.39 490.98,-445.33 495,-440 498.96,-434.75 534.76,-424.77 558.9,-418.52"/>
<polygon fill="#9a32cd" stroke="#9a32cd" points="486.81,-459.75 491.57,-469.22 493.76,-458.85 486.81,-459.75"/>
<text text-anchor="middle" x="534" y="-443" font-family="Helvetica,sans-Serif" font-size="10.00"> aToAuthorEffects</text>
</g>
<!-- Node8&#45;&gt;Node19 -->
<g id="edge39" class="edge">
<title>Node8&#45;&gt;Node19</title>
<path fill="none" stroke="#9a32cd" stroke-dasharray="5,2" d="M484.14,-460.15C478.8,-449.44 472.74,-435.35 470,-422 465.06,-397.95 468.36,-368.73 470.53,-354.55"/>
<polygon fill="#9a32cd" stroke="#9a32cd" points="481.17,-462.02 488.92,-469.25 487.37,-458.77 481.17,-462.02"/>
<text text-anchor="middle" x="510" y="-409.5" font-family="Helvetica,sans-Serif" font-size="10.00"> aToEnemyEffects</text>
</g>
<!-- Node9&#45;&gt;Node3 -->
<g id="edge36" class="edge">
<title>Node9&#45;&gt;Node3</title>
<path fill="none" stroke="#9a32cd" stroke-dasharray="5,2" d="M342.12,-155.75C358.33,-160.17 376.7,-165.72 393,-172 396.04,-173.17 430.91,-190.5 452.67,-201.35"/>
<polygon fill="#9a32cd" stroke="#9a32cd" points="342.91,-152.34 332.35,-153.15 341.11,-159.1 342.91,-152.34"/>
<text text-anchor="middle" x="442.5" y="-175" font-family="Helvetica,sans-Serif" font-size="10.00"> playerStats</text>
</g>
<!-- Node9&#45;&gt;Node4 -->
<g id="edge13" class="edge">
<title>Node9&#45;&gt;Node4</title>
<path fill="none" stroke="#9a32cd" stroke-dasharray="5,2" d="M320.22,-128.01C324.02,-124.49 327.53,-120.45 330,-116 340.66,-96.76 332.41,-88.52 337,-67 340.63,-49.99 346.6,-30.56 350.13,-19.64"/>
<polygon fill="#9a32cd" stroke="#9a32cd" points="317.82,-125.45 312.25,-134.46 322.22,-130.89 317.82,-125.45"/>
<text text-anchor="middle" x="349.5" y="-74.5" font-family="Helvetica,sans-Serif" font-size="10.00"> stats</text>
</g>
<!-- Node9&#45;&gt;Node14 -->
<g id="edge28" class="edge">
<title>Node9&#45;&gt;Node14</title>
<path fill="none" stroke="#9a32cd" stroke-dasharray="5,2" d="M260.63,-129.54C255.2,-125.97 250.32,-121.52 247,-116 241.61,-107.04 244.01,-94.67 246.65,-86.5"/>
<polygon fill="#9a32cd" stroke="#9a32cd" points="259.04,-132.66 269.49,-134.45 262.44,-126.54 259.04,-132.66"/>
<text text-anchor="middle" x="259.5" y="-108" font-family="Helvetica,sans-Serif" font-size="10.00"> stats</text>
</g>
<!-- Node9&#45;&gt;Node18 -->
<g id="edge33" class="edge">
<title>Node9&#45;&gt;Node18</title>
<path fill="none" stroke="#9a32cd" stroke-dasharray="5,2" d="M254,-132.06C241.02,-127.95 227.06,-122.63 215,-116 200.47,-108.02 186.14,-95.17 177.43,-86.66"/>
<polygon fill="#9a32cd" stroke="#9a32cd" points="253.11,-135.45 263.69,-134.97 255.12,-128.75 253.11,-135.45"/>
<text text-anchor="middle" x="227.5" y="-108" font-family="Helvetica,sans-Serif" font-size="10.00"> stats</text>
</g>
<!-- Node10 -->
<g id="node10" class="node">
<title>Node10</title>
<g id="a_node10"><a xlink:href="class_ability_affected_stats.xhtml" target="_top" xlink:title=" ">
<polygon fill="white" stroke="black" points="142,-201.5 142,-220.5 244,-220.5 244,-201.5 142,-201.5"/>
<text text-anchor="middle" x="193" y="-208.5" font-family="Helvetica,sans-Serif" font-size="10.00">AbilityAffectedStats</text>
</a>
</g>
</g>
<!-- Node10&#45;&gt;Node9 -->
<g id="edge14" class="edge">
<title>Node10&#45;&gt;Node9</title>
<path fill="none" stroke="midnightblue" d="M212.32,-195.14C222.17,-187.82 234.47,-179.07 246,-172 256.92,-165.3 269.69,-158.65 279.84,-153.63"/>
<polygon fill="midnightblue" stroke="midnightblue" points="209.93,-192.55 204.05,-201.36 214.14,-198.14 209.93,-192.55"/>
</g>
<!-- Node11&#45;&gt;Node10 -->
<g id="edge15" class="edge">
<title>Node11&#45;&gt;Node10</title>
<path fill="none" stroke="midnightblue" d="M155.87,-260.27C165.62,-247.6 178.61,-230.7 186.36,-220.63"/>
<polygon fill="midnightblue" stroke="midnightblue" points="153.07,-258.17 149.74,-268.23 158.61,-262.44 153.07,-258.17"/>
</g>
<!-- Node11&#45;&gt;Node18 -->
<g id="edge32" class="edge">
<title>Node11&#45;&gt;Node18</title>
<path fill="none" stroke="#9a32cd" stroke-dasharray="5,2" d="M138.82,-258.36C136.6,-247.52 134.11,-233.56 133,-221 128.37,-168.73 136.92,-154.26 155,-105 157.33,-98.66 160.83,-91.91 163.75,-86.74"/>
<polygon fill="#9a32cd" stroke="#9a32cd" points="135.44,-259.29 140.96,-268.33 142.28,-257.82 135.44,-259.29"/>
<text text-anchor="middle" x="158.5" y="-175" font-family="Helvetica,sans-Serif" font-size="10.00"> otherStats</text>
</g>
<!-- Node12 -->
<g id="node12" class="node">
<title>Node12</title>
<g id="a_node12"><a xlink:href="class_player_u_i_controller.xhtml" target="_top" xlink:title="UI Controller for the Player Stats">
<polygon fill="white" stroke="black" points="262.5,-201.5 262.5,-220.5 357.5,-220.5 357.5,-201.5 262.5,-201.5"/>
<text text-anchor="middle" x="310" y="-208.5" font-family="Helvetica,sans-Serif" font-size="10.00">PlayerUIController</text>
</a>
</g>
</g>
<!-- Node12&#45;&gt;Node9 -->
<g id="edge17" class="edge">
<title>Node12&#45;&gt;Node9</title>
<path fill="none" stroke="#9a32cd" stroke-dasharray="5,2" d="M266.28,-196.59C260.62,-193.05 255.57,-188.59 252,-183 244.09,-170.6 259.11,-160.26 274.05,-153.52"/>
<polygon fill="#9a32cd" stroke="#9a32cd" points="265.06,-199.9 275.55,-201.43 268.31,-193.69 265.06,-199.9"/>
<text text-anchor="middle" x="273" y="-175" font-family="Helvetica,sans-Serif" font-size="10.00"> uiControl</text>
</g>
<!-- Node13&#45;&gt;Node12 -->
<g id="edge18" class="edge">
<title>Node13&#45;&gt;Node12</title>
<path fill="none" stroke="midnightblue" d="M244.53,-262.07C261.3,-249.24 284.91,-231.19 298.72,-220.63"/>
<polygon fill="midnightblue" stroke="midnightblue" points="242.28,-259.38 236.46,-268.23 246.53,-264.94 242.28,-259.38"/>
</g>
<!-- Node14&#45;&gt;Node9 -->
<g id="edge22" class="edge">
<title>Node14&#45;&gt;Node9</title>
<path fill="none" stroke="#9a32cd" stroke-dasharray="5,2" d="M266.34,-93.7C269.71,-97.28 273.1,-101.15 276,-105 283.16,-114.5 289.76,-126.53 293.83,-134.48"/>
<polygon fill="#9a32cd" stroke="#9a32cd" points="268.76,-91.17 259.24,-86.51 263.78,-96.09 268.76,-91.17"/>
<text text-anchor="middle" x="305" y="-108" font-family="Helvetica,sans-Serif" font-size="10.00"> inventory</text>
</g>
<!-- Node15&#45;&gt;Node14 -->
<g id="edge24" class="edge">
<title>Node15&#45;&gt;Node14</title>
<path fill="none" stroke="#9a32cd" stroke-dasharray="5,2" d="M400.65,-460.23C393.65,-447.57 386,-429.88 386,-413 386,-413 386,-413 386,-243.5 386,-222.62 381.88,-214.56 366,-201 344.18,-182.37 330.33,-194.4 304,-183 251.81,-160.41 222.42,-165.82 195,-116 187.05,-101.56 204.85,-91.45 222.27,-85.31"/>
<polygon fill="#9a32cd" stroke="#9a32cd" points="397.86,-462.38 405.97,-469.19 403.88,-458.81 397.86,-462.38"/>
<text text-anchor="middle" x="400" y="-275.5" font-family="Helvetica,sans-Serif" font-size="10.00"> items</text>
</g>
<!-- Node16 -->
<g id="node16" class="node">
<title>Node16</title>
<g id="a_node16"><a xlink:href="class_generic_dictionary.xhtml" target="_top" xlink:title=" ">
<polygon fill="white" stroke="black" points="257,-536.5 257,-566.5 357,-566.5 357,-536.5 257,-536.5"/>
<text text-anchor="start" x="265" y="-554.5" font-family="Helvetica,sans-Serif" font-size="10.00">GenericDictionary&lt;</text>
<text text-anchor="middle" x="307" y="-543.5" font-family="Helvetica,sans-Serif" font-size="10.00"> IntStatistic, int &gt;</text>
</a>
</g>
</g>
<!-- Node16&#45;&gt;Node15 -->
<g id="edge26" class="edge">
<title>Node16&#45;&gt;Node15</title>
<path fill="none" stroke="#9a32cd" stroke-dasharray="5,2" d="M335.29,-530.67C346.1,-523.18 358.57,-514.62 370,-507 379.38,-500.75 390.06,-493.89 398.31,-488.64"/>
<polygon fill="#9a32cd" stroke="#9a32cd" points="333.24,-527.84 327.03,-536.42 337.24,-533.58 333.24,-527.84"/>
<text text-anchor="middle" x="393" y="-510" font-family="Helvetica,sans-Serif" font-size="10.00"> iEffectsInt</text>
</g>
<!-- Node17 -->
<g id="node17" class="node">
<title>Node17</title>
<g id="a_node17"><a xlink:href="class_generic_dictionary.xhtml" target="_top" xlink:title=" ">
<polygon fill="white" stroke="black" points="375,-536.5 375,-566.5 485,-566.5 485,-536.5 375,-536.5"/>
<text text-anchor="start" x="383" y="-554.5" font-family="Helvetica,sans-Serif" font-size="10.00">GenericDictionary&lt;</text>
<text text-anchor="middle" x="430" y="-543.5" font-family="Helvetica,sans-Serif" font-size="10.00"> FloatStatistic, float &gt;</text>
</a>
</g>
</g>
<!-- Node17&#45;&gt;Node15 -->
<g id="edge27" class="edge">
<title>Node17&#45;&gt;Node15</title>
<path fill="none" stroke="#9a32cd" stroke-dasharray="5,2" d="M423.87,-526.48C420.56,-513.51 416.67,-498.29 414.27,-488.89"/>
<polygon fill="#9a32cd" stroke="#9a32cd" points="420.49,-527.41 426.36,-536.23 427.27,-525.68 420.49,-527.41"/>
<text text-anchor="middle" x="451" y="-510" font-family="Helvetica,sans-Serif" font-size="10.00"> iEffectsFloat</text>
</g>
<!-- Node18&#45;&gt;Node4 -->
<g id="edge29" class="edge">
<title>Node18&#45;&gt;Node4</title>
<path fill="none" stroke="#9a32cd" stroke-dasharray="5,2" d="M172.36,-57.06C174.54,-50.07 178.12,-42.72 184,-38 202.88,-22.84 266.23,-16.04 309.77,-13.1"/>
<polygon fill="#9a32cd" stroke="#9a32cd" points="168.83,-56.77 169.96,-67.3 175.65,-58.36 168.83,-56.77"/>
<text text-anchor="middle" x="211.5" y="-41" font-family="Helvetica,sans-Serif" font-size="10.00"> basicAttack</text>
</g>
<!-- Node19&#45;&gt;Node1 -->
<g id="edge37" class="edge">
<title>Node19&#45;&gt;Node1</title>
<path fill="none" stroke="#9a32cd" stroke-dasharray="5,2" d="M472,-325.04C472,-312.67 472,-297.12 472,-287.63"/>
<polygon fill="#9a32cd" stroke="#9a32cd" points="468.5,-325.23 472,-335.23 475.5,-325.23 468.5,-325.23"/>
<text text-anchor="middle" x="489" y="-309" font-family="Helvetica,sans-Serif" font-size="10.00"> current</text>
</g>
</g>
</svg>
