<?xml version="1.0" encoding="UTF-8" standalone="no"?>
<!DOCTYPE svg PUBLIC "-//W3C//DTD SVG 1.1//EN"
 "http://www.w3.org/Graphics/SVG/1.1/DTD/svg11.dtd">
<!-- Generated by graphviz version 2.47.3 (20210619.1520)
 -->
<!-- Title: PlayerController.Initialize Pages: 1 -->
<svg width="986pt" height="186pt"
 viewBox="0.00 0.00 986.00 186.00" xmlns="http://www.w3.org/2000/svg" xmlns:xlink="http://www.w3.org/1999/xlink">
<g id="graph0" class="graph" transform="scale(1 1) rotate(0) translate(4 182)">
<title>PlayerController.Initialize</title>
<!-- Node1 -->
<g id="node1" class="node">
<title>Node1</title>
<g id="a_node1"><a xlink:title="Initialize the PlayerController.">
<polygon fill="#bfbfbf" stroke="black" points="0,-107 0,-126 124,-126 124,-107 0,-107"/>
<text text-anchor="middle" x="62" y="-114" font-family="Helvetica,sans-Serif" font-size="10.00">PlayerController.Initialize</text>
</a>
</g>
</g>
<!-- Node2 -->
<g id="node2" class="node">
<title>Node2</title>
<g id="a_node2"><a xlink:href="class_player_stats.html#afcace3e680c4d2f0d8ae4a3d963b0d53" target="_top" xlink:title="Returns the AbilityCooldowns of the abilities">
<polygon fill="none" stroke="black" points="160,-145 160,-164 281,-164 281,-145 160,-145"/>
<text text-anchor="middle" x="220.5" y="-152" font-family="Helvetica,sans-Serif" font-size="10.00">PlayerStats.GetAbilities</text>
</a>
</g>
</g>
<!-- Node1&#45;&gt;Node2 -->
<g id="edge1" class="edge">
<title>Node1&#45;&gt;Node2</title>
<path fill="none" stroke="midnightblue" d="M102.49,-126.09C123.14,-131.1 148.61,-137.29 170.51,-142.61"/>
<polygon fill="midnightblue" stroke="midnightblue" points="169.75,-146.02 180.29,-144.98 171.4,-139.22 169.75,-146.02"/>
</g>
<!-- Node3 -->
<g id="node3" class="node">
<title>Node3</title>
<g id="a_node3"><a xlink:href="class_basic_attack.html#ac85eb061d597f5879d31fb8e7a0316d5" target="_top" xlink:title=" ">
<polygon fill="none" stroke="black" points="166.5,-107 166.5,-126 274.5,-126 274.5,-107 166.5,-107"/>
<text text-anchor="middle" x="220.5" y="-114" font-family="Helvetica,sans-Serif" font-size="10.00">BasicAttack.Initialize</text>
</a>
</g>
</g>
<!-- Node1&#45;&gt;Node3 -->
<g id="edge2" class="edge">
<title>Node1&#45;&gt;Node3</title>
<path fill="none" stroke="midnightblue" d="M124.4,-116.5C134.81,-116.5 145.63,-116.5 156.08,-116.5"/>
<polygon fill="midnightblue" stroke="midnightblue" points="156.39,-120 166.39,-116.5 156.39,-113 156.39,-120"/>
</g>
<!-- Node4 -->
<g id="node4" class="node">
<title>Node4</title>
<g id="a_node4"><a xlink:href="class_player_stats.html#ae874ab5cbb490cbdcf3f5613b8bc2240" target="_top" xlink:title="Initialize the actual Stats of the Player.">
<polygon fill="none" stroke="black" points="167.5,-69 167.5,-88 273.5,-88 273.5,-69 167.5,-69"/>
<text text-anchor="middle" x="220.5" y="-76" font-family="Helvetica,sans-Serif" font-size="10.00">PlayerStats.Initialize</text>
</a>
</g>
</g>
<!-- Node1&#45;&gt;Node4 -->
<g id="edge3" class="edge">
<title>Node1&#45;&gt;Node4</title>
<path fill="none" stroke="midnightblue" d="M102.49,-106.91C123.14,-101.9 148.61,-95.71 170.51,-90.39"/>
<polygon fill="midnightblue" stroke="midnightblue" points="171.4,-93.78 180.29,-88.02 169.75,-86.98 171.4,-93.78"/>
</g>
<!-- Node5 -->
<g id="node5" class="node">
<title>Node5</title>
<g id="a_node5"><a xlink:href="class_player_u_i_controller.html#ab6ed746dec17fdf763bc4ec1d713db7f" target="_top" xlink:title="Initializes all the values and colors for this Player.">
<polygon fill="none" stroke="black" points="323.5,-126 323.5,-145 454.5,-145 454.5,-126 323.5,-126"/>
<text text-anchor="middle" x="389" y="-133" font-family="Helvetica,sans-Serif" font-size="10.00">PlayerUIController.Initalize</text>
</a>
</g>
</g>
<!-- Node4&#45;&gt;Node5 -->
<g id="edge4" class="edge">
<title>Node4&#45;&gt;Node5</title>
<path fill="none" stroke="midnightblue" d="M254.92,-88.03C263.53,-90.8 272.7,-94.02 281,-97.5 297.68,-104.5 300.16,-109.9 317,-116.5 323.23,-118.94 329.88,-121.18 336.52,-123.19"/>
<polygon fill="midnightblue" stroke="midnightblue" points="335.62,-126.58 346.2,-125.98 337.56,-119.85 335.62,-126.58"/>
</g>
<!-- Node10 -->
<g id="node10" class="node">
<title>Node10</title>
<g id="a_node10"><a xlink:href="class_player_h_u_d_controller.html#a3717d3272b98e6e47c909bdb5af2a99f" target="_top" xlink:title=" ">
<polygon fill="none" stroke="black" points="317,-88 317,-107 461,-107 461,-88 317,-88"/>
<text text-anchor="middle" x="389" y="-95" font-family="Helvetica,sans-Serif" font-size="10.00">PlayerHUDController.Initialize</text>
</a>
</g>
</g>
<!-- Node4&#45;&gt;Node10 -->
<g id="edge10" class="edge">
<title>Node4&#45;&gt;Node10</title>
<path fill="none" stroke="midnightblue" d="M273.72,-84.46C284.17,-85.65 295.37,-86.93 306.53,-88.2"/>
<polygon fill="midnightblue" stroke="midnightblue" points="306.41,-91.71 316.74,-89.37 307.2,-84.76 306.41,-91.71"/>
</g>
<!-- Node11 -->
<g id="node11" class="node">
<title>Node11</title>
<g id="a_node11"><a xlink:href="class_inventory.html#af5cb79cb50692e3fb6c98df25812dcbc" target="_top" xlink:title=" ">
<polygon fill="none" stroke="black" points="342.5,-50 342.5,-69 435.5,-69 435.5,-50 342.5,-50"/>
<text text-anchor="middle" x="389" y="-57" font-family="Helvetica,sans-Serif" font-size="10.00">Inventory.Initialize</text>
</a>
</g>
</g>
<!-- Node4&#45;&gt;Node11 -->
<g id="edge11" class="edge">
<title>Node4&#45;&gt;Node11</title>
<path fill="none" stroke="midnightblue" d="M273.72,-72.54C292.4,-70.41 313.5,-68 332.45,-65.84"/>
<polygon fill="midnightblue" stroke="midnightblue" points="332.89,-69.31 342.43,-64.7 332.09,-62.36 332.89,-69.31"/>
</g>
<!-- Node13 -->
<g id="node13" class="node">
<title>Node13</title>
<g id="a_node13"><a xlink:href="class_player_h_u_d_controller.html#adf30ead91cd36140e32d0ad158fbbae4" target="_top" xlink:title=" ">
<polygon fill="none" stroke="black" points="317,-0.5 317,-30.5 461,-30.5 461,-0.5 317,-0.5"/>
<text text-anchor="start" x="325" y="-18.5" font-family="Helvetica,sans-Serif" font-size="10.00">PlayerHUDController.Initialize</text>
<text text-anchor="middle" x="389" y="-7.5" font-family="Helvetica,sans-Serif" font-size="10.00">Abilities</text>
</a>
</g>
</g>
<!-- Node4&#45;&gt;Node13 -->
<g id="edge13" class="edge">
<title>Node4&#45;&gt;Node13</title>
<path fill="none" stroke="midnightblue" d="M244.95,-68.87C264.22,-61.02 292.27,-49.77 317,-40.5 322.78,-38.33 328.85,-36.11 334.9,-33.94"/>
<polygon fill="midnightblue" stroke="midnightblue" points="336.1,-37.22 344.34,-30.56 333.75,-30.63 336.1,-37.22"/>
</g>
<!-- Node6 -->
<g id="node6" class="node">
<title>Node6</title>
<g id="a_node6"><a xlink:href="class_player_u_i_controller.html#aa5b61a93967fa5ce39bfd950a9e9d584" target="_top" xlink:title="Initializes all the values into the Image and Text.">
<polygon fill="none" stroke="black" points="500.5,-120.5 500.5,-150.5 633.5,-150.5 633.5,-120.5 500.5,-120.5"/>
<text text-anchor="start" x="508.5" y="-138.5" font-family="Helvetica,sans-Serif" font-size="10.00">PlayerUIController.Initialize</text>
<text text-anchor="middle" x="567" y="-127.5" font-family="Helvetica,sans-Serif" font-size="10.00">Values</text>
</a>
</g>
</g>
<!-- Node5&#45;&gt;Node6 -->
<g id="edge5" class="edge">
<title>Node5&#45;&gt;Node6</title>
<path fill="none" stroke="midnightblue" d="M454.54,-135.5C466.07,-135.5 478.18,-135.5 490,-135.5"/>
<polygon fill="midnightblue" stroke="midnightblue" points="490.29,-139 500.29,-135.5 490.29,-132 490.29,-139"/>
</g>
<!-- Node7 -->
<g id="node7" class="node">
<title>Node7</title>
<g id="a_node7"><a xlink:href="class_player_u_i_controller.html#adadd54ec10a1236aa7c08022d27fa068" target="_top" xlink:title="Sets the current level and xp to the Image.">
<polygon fill="none" stroke="black" points="680.5,-147.5 680.5,-177.5 808.5,-177.5 808.5,-147.5 680.5,-147.5"/>
<text text-anchor="start" x="688.5" y="-165.5" font-family="Helvetica,sans-Serif" font-size="10.00">PlayerUIController.Update</text>
<text text-anchor="middle" x="744.5" y="-154.5" font-family="Helvetica,sans-Serif" font-size="10.00">CurrentLevel</text>
</a>
</g>
</g>
<!-- Node6&#45;&gt;Node7 -->
<g id="edge6" class="edge">
<title>Node6&#45;&gt;Node7</title>
<path fill="none" stroke="midnightblue" d="M633.85,-145.63C645.78,-147.47 658.29,-149.39 670.41,-151.26"/>
<polygon fill="midnightblue" stroke="midnightblue" points="670.06,-154.74 680.48,-152.8 671.13,-147.82 670.06,-154.74"/>
</g>
<!-- Node9 -->
<g id="node9" class="node">
<title>Node9</title>
<g id="a_node9"><a xlink:href="class_player_u_i_controller.html#aacc9f1b78d9e1adab16f8fc2ec246dfb" target="_top" xlink:title=" ">
<polygon fill="none" stroke="black" points="680.5,-98.5 680.5,-128.5 808.5,-128.5 808.5,-98.5 680.5,-98.5"/>
<text text-anchor="start" x="688.5" y="-116.5" font-family="Helvetica,sans-Serif" font-size="10.00">PlayerUIController.Update</text>
<text text-anchor="middle" x="744.5" y="-105.5" font-family="Helvetica,sans-Serif" font-size="10.00">MaxHP</text>
</a>
</g>
</g>
<!-- Node6&#45;&gt;Node9 -->
<g id="edge8" class="edge">
<title>Node6&#45;&gt;Node9</title>
<path fill="none" stroke="midnightblue" d="M633.85,-127.25C645.78,-125.75 658.29,-124.18 670.41,-122.66"/>
<polygon fill="midnightblue" stroke="midnightblue" points="670.99,-126.12 680.48,-121.4 670.12,-119.17 670.99,-126.12"/>
</g>
<!-- Node8 -->
<g id="node8" class="node">
<title>Node8</title>
<g id="a_node8"><a xlink:href="class_utils.html#a459472171f68c903c975020cc5b02fee" target="_top" xlink:title="Calculates the actual normalized fill amount for the image.">
<polygon fill="none" stroke="black" points="852,-128 852,-147 978,-147 978,-128 852,-128"/>
<text text-anchor="middle" x="915" y="-135" font-family="Helvetica,sans-Serif" font-size="10.00">Utils.CalculateFillAmount</text>
</a>
</g>
</g>
<!-- Node7&#45;&gt;Node8 -->
<g id="edge7" class="edge">
<title>Node7&#45;&gt;Node8</title>
<path fill="none" stroke="midnightblue" d="M808.72,-153.12C819.52,-151.52 830.81,-149.84 841.81,-148.21"/>
<polygon fill="midnightblue" stroke="midnightblue" points="842.44,-151.65 851.82,-146.73 841.42,-144.73 842.44,-151.65"/>
</g>
<!-- Node9&#45;&gt;Node8 -->
<g id="edge9" class="edge">
<title>Node9&#45;&gt;Node8</title>
<path fill="none" stroke="midnightblue" d="M808.72,-122.5C819.52,-124.04 830.81,-125.65 841.81,-127.22"/>
<polygon fill="midnightblue" stroke="midnightblue" points="841.43,-130.7 851.82,-128.64 842.42,-123.77 841.43,-130.7"/>
</g>
<!-- Node12 -->
<g id="node12" class="node">
<title>Node12</title>
<g id="a_node12"><a xlink:href="class_player_h_u_d_controller.html#aeef77dcdfaf1c9b719e4350c17c88fa5" target="_top" xlink:title=" ">
<polygon fill="none" stroke="black" points="497,-44.5 497,-74.5 637,-74.5 637,-44.5 497,-44.5"/>
<text text-anchor="start" x="505" y="-62.5" font-family="Helvetica,sans-Serif" font-size="10.00">PlayerHUDController.Update</text>
<text text-anchor="middle" x="567" y="-51.5" font-family="Helvetica,sans-Serif" font-size="10.00">GoldTxt</text>
</a>
</g>
</g>
<!-- Node11&#45;&gt;Node12 -->
<g id="edge12" class="edge">
<title>Node11&#45;&gt;Node12</title>
<path fill="none" stroke="midnightblue" d="M435.78,-59.5C451.36,-59.5 469.26,-59.5 486.69,-59.5"/>
<polygon fill="midnightblue" stroke="midnightblue" points="486.89,-63 496.89,-59.5 486.89,-56 486.89,-63"/>
</g>
<!-- Node14 -->
<g id="node14" class="node">
<title>Node14</title>
<g id="a_node14"><a xlink:href="class_ability_cooldown.html#aa01c150ac26f1694a1e174e152510094" target="_top" xlink:title="Initializes the current AbilityCooldown.">
<polygon fill="none" stroke="black" points="505,-6 505,-25 629,-25 629,-6 505,-6"/>
<text text-anchor="middle" x="567" y="-13" font-family="Helvetica,sans-Serif" font-size="10.00">AbilityCooldown.Initialize</text>
</a>
</g>
</g>
<!-- Node13&#45;&gt;Node14 -->
<g id="edge14" class="edge">
<title>Node13&#45;&gt;Node14</title>
<path fill="none" stroke="midnightblue" d="M461.08,-15.5C472.18,-15.5 483.66,-15.5 494.76,-15.5"/>
<polygon fill="midnightblue" stroke="midnightblue" points="494.84,-19 504.84,-15.5 494.84,-12 494.84,-19"/>
</g>
<!-- Node15 -->
<g id="node15" class="node">
<title>Node15</title>
<g id="a_node15"><a xlink:href="class_ability_cooldown.html#a2142f4ae1a75b2e88bd33d8553680a33" target="_top" xlink:title="This function is called whenever this ability is ready and you have enough mana.">
<polygon fill="none" stroke="black" points="673,-39 673,-58 816,-58 816,-39 673,-39"/>
<text text-anchor="middle" x="744.5" y="-46" font-family="Helvetica,sans-Serif" font-size="10.00">AbilityCooldown.AbilityReady</text>
</a>
</g>
</g>
<!-- Node14&#45;&gt;Node15 -->
<g id="edge15" class="edge">
<title>Node14&#45;&gt;Node15</title>
<path fill="none" stroke="midnightblue" d="M618.76,-25.04C638.77,-28.81 661.92,-33.16 682.81,-37.09"/>
<polygon fill="midnightblue" stroke="midnightblue" points="682.38,-40.57 692.85,-38.98 683.67,-33.69 682.38,-40.57"/>
</g>
<!-- Node16 -->
<g id="node16" class="node">
<title>Node16</title>
<g id="a_node16"><a xlink:href="class_ability.html#a680fce4c2981c462afc82d28fe3958ef" target="_top" xlink:title=" ">
<polygon fill="none" stroke="black" points="703.5,-1 703.5,-20 785.5,-20 785.5,-1 703.5,-1"/>
<text text-anchor="middle" x="744.5" y="-8" font-family="Helvetica,sans-Serif" font-size="10.00">Ability.Initialize</text>
</a>
</g>
</g>
<!-- Node14&#45;&gt;Node16 -->
<g id="edge16" class="edge">
<title>Node14&#45;&gt;Node16</title>
<path fill="none" stroke="midnightblue" d="M629.38,-13.75C650.26,-13.16 673.33,-12.5 693.23,-11.93"/>
<polygon fill="midnightblue" stroke="midnightblue" points="693.42,-15.43 703.32,-11.64 693.22,-8.43 693.42,-15.43"/>
</g>
</g>
</svg>
