<?xml version="1.0" encoding="UTF-8" standalone="no"?>
<!DOCTYPE svg PUBLIC "-//W3C//DTD SVG 1.1//EN"
 "http://www.w3.org/Graphics/SVG/1.1/DTD/svg11.dtd">
<!-- Generated by graphviz version 2.47.3 (20210619.1520)
 -->
<!-- Title: Tayx.Graphy.GraphyManager.Init Pages: 1 -->
<!--zoomable 599 -->
<svg id="main" version="1.1" xmlns="http://www.w3.org/2000/svg" xmlns:xlink="http://www.w3.org/1999/xlink" xml:space="preserve" onload="init(evt)">
<style type="text/css"><![CDATA[
.edge:hover path { stroke: red; }
.edge:hover polygon { stroke: red; fill: red; }
]]></style>
<script type="text/javascript"><![CDATA[
var edges = document.getElementsByTagName('g');
if (edges && edges.length) {
  for (var i=0;i<edges.length;i++) {
    if (edges[i].id.substr(0,4)=='edge') {
      edges[i].setAttribute('class','edge');
    }
  }
}
]]></script>
        <defs>
                <circle id="rim" cx="0" cy="0" r="7"/>
                <circle id="rim2" cx="0" cy="0" r="3.5"/>
                <g id="zoomPlus">
                        <use xlink:href="#rim" fill="#404040">
                                <set attributeName="fill" to="#808080" begin="zoomplus.mouseover" end="zoomplus.mouseout"/>
                        </use>
                        <path d="M-4,0h8M0,-4v8" fill="none" stroke="white" stroke-width="1.5" pointer-events="none"/>
                </g>
                <g id="zoomMin">
                        <use xlink:href="#rim" fill="#404040">
                                <set attributeName="fill" to="#808080" begin="zoomminus.mouseover" end="zoomminus.mouseout"/>
                        </use>
                        <path d="M-4,0h8" fill="none" stroke="white" stroke-width="1.5" pointer-events="none"/>
                </g>
                <g id="dirArrow">
                        <path fill="none" stroke="white" stroke-width="1.5" d="M0,-3.0v7 M-2.5,-0.5L0,-3.0L2.5,-0.5"/>
                </g>
               <g id="resetDef">
                       <use xlink:href="#rim2" fill="#404040">
                               <set attributeName="fill" to="#808080" begin="reset.mouseover" end="reset.mouseout"/>
                       </use>
               </g>
        </defs>

<script type="text/javascript">
var viewWidth = 1192;
var viewHeight = 599;
var sectionId = 'dynsection-11';
</script>
<script xlink:href="svgpan.js"/>
<svg id="graph" class="graph">
<g id="viewport">
<title>Tayx.Graphy.GraphyManager.Init</title>
<polygon fill="white" stroke="transparent" points="-4,4 -4,-594.94 1188,-594.94 1188,4 -4,4"/>
<!-- Node1 -->
<g id="node1" class="node">
<title>Node1</title>
<g id="a_node1"><a xlink:title=" ">
<polygon fill="#bfbfbf" stroke="black" points="0,-374.94 0,-393.94 160,-393.94 160,-374.94 0,-374.94"/>
<text text-anchor="middle" x="80" y="-381.94" font-family="Helvetica,sans-Serif" font-size="10.00">Tayx.Graphy.GraphyManager.Init</text>
</a>
</g>
</g>
<!-- Node2 -->
<g id="node2" class="node">
<title>Node2</title>
<g id="a_node2"><a xlink:href="class_tayx_1_1_graphy_1_1_advanced_1_1_g___advanced_data.xhtml#a0e5e65da50bc546e002b4a3eb04bb32a" target="_top" xlink:title="Sets the position of the module.">
<polygon fill="white" stroke="black" points="213.5,-560.44 213.5,-590.44 350.5,-590.44 350.5,-560.44 213.5,-560.44"/>
<text text-anchor="start" x="221.5" y="-578.44" font-family="Helvetica,sans-Serif" font-size="10.00">Tayx.Graphy.Advanced.G</text>
<text text-anchor="middle" x="282" y="-567.44" font-family="Helvetica,sans-Serif" font-size="10.00">_AdvancedData.SetPosition</text>
</a>
</g>
</g>
<!-- Node1&#45;&gt;Node2 -->
<g id="edge1" class="edge">
<title>Node1&#45;&gt;Node2</title>
<path fill="none" stroke="midnightblue" d="M84.81,-394.1C96.65,-422.79 135.61,-508.19 196,-551.44 198.54,-553.25 201.21,-554.93 203.97,-556.49"/>
<polygon fill="midnightblue" stroke="midnightblue" points="202.58,-559.7 213.09,-561.02 205.7,-553.44 202.58,-559.7"/>
</g>
<!-- Node3 -->
<g id="node3" class="node">
<title>Node3</title>
<g id="a_node3"><a xlink:href="class_tayx_1_1_graphy_1_1_audio_1_1_g___audio_manager.xhtml#a67d3972a35762f59378be42c0021652f" target="_top" xlink:title="Sets the position of the module.">
<polygon fill="white" stroke="black" points="213.5,-511.44 213.5,-541.44 350.5,-541.44 350.5,-511.44 213.5,-511.44"/>
<text text-anchor="start" x="221.5" y="-529.44" font-family="Helvetica,sans-Serif" font-size="10.00">Tayx.Graphy.Audio.G</text>
<text text-anchor="middle" x="282" y="-518.44" font-family="Helvetica,sans-Serif" font-size="10.00">_AudioManager.SetPosition</text>
</a>
</g>
</g>
<!-- Node1&#45;&gt;Node3 -->
<g id="edge2" class="edge">
<title>Node1&#45;&gt;Node3</title>
<path fill="none" stroke="midnightblue" d="M87.56,-394.03C103.45,-416.5 146.34,-472.89 196,-502.44 198.99,-504.22 202.12,-505.87 205.33,-507.4"/>
<polygon fill="midnightblue" stroke="midnightblue" points="204.03,-510.65 214.6,-511.42 206.82,-504.23 204.03,-510.65"/>
</g>
<!-- Node4 -->
<g id="node4" class="node">
<title>Node4</title>
<g id="a_node4"><a xlink:href="class_tayx_1_1_graphy_1_1_fps_1_1_g___fps_manager.xhtml#a5e6eacb402913740f54045950953d6b4" target="_top" xlink:title="Sets the position of the module.">
<polygon fill="white" stroke="black" points="200,-462.44 200,-492.44 364,-492.44 364,-462.44 200,-462.44"/>
<text text-anchor="start" x="208" y="-480.44" font-family="Helvetica,sans-Serif" font-size="10.00">Tayx.Graphy.Fps.G_FpsManager.</text>
<text text-anchor="middle" x="282" y="-469.44" font-family="Helvetica,sans-Serif" font-size="10.00">SetPosition</text>
</a>
</g>
</g>
<!-- Node1&#45;&gt;Node4 -->
<g id="edge3" class="edge">
<title>Node1&#45;&gt;Node4</title>
<path fill="none" stroke="midnightblue" d="M94.18,-393.95C114.93,-408.54 156.89,-436.54 196,-453.44 200.63,-455.44 205.48,-457.32 210.41,-459.09"/>
<polygon fill="midnightblue" stroke="midnightblue" points="209.35,-462.42 219.95,-462.33 211.6,-455.8 209.35,-462.42"/>
</g>
<!-- Node5 -->
<g id="node5" class="node">
<title>Node5</title>
<g id="a_node5"><a xlink:href="class_tayx_1_1_graphy_1_1_ram_1_1_g___ram_manager.xhtml#a4b0b2224234a738b775e5184f2b759a6" target="_top" xlink:title="Sets the position of the module.">
<polygon fill="white" stroke="black" points="196,-413.44 196,-443.44 368,-443.44 368,-413.44 196,-413.44"/>
<text text-anchor="start" x="204" y="-431.44" font-family="Helvetica,sans-Serif" font-size="10.00">Tayx.Graphy.Ram.G_RamManager.</text>
<text text-anchor="middle" x="282" y="-420.44" font-family="Helvetica,sans-Serif" font-size="10.00">SetPosition</text>
</a>
</g>
</g>
<!-- Node1&#45;&gt;Node5 -->
<g id="edge4" class="edge">
<title>Node1&#45;&gt;Node5</title>
<path fill="none" stroke="midnightblue" d="M124.4,-393.99C147.22,-399.01 175.9,-405.32 202.46,-411.16"/>
<polygon fill="midnightblue" stroke="midnightblue" points="202,-414.64 212.52,-413.37 203.51,-407.81 202,-414.64"/>
</g>
<!-- Node6 -->
<g id="node6" class="node">
<title>Node6</title>
<g id="a_node6"><a xlink:href="class_tayx_1_1_graphy_1_1_advanced_1_1_g___advanced_data.xhtml#ac91888d741e22b8802e3d38323e6e0cd" target="_top" xlink:title="Set the module state.">
<polygon fill="white" stroke="black" points="826,-287.44 826,-317.44 954,-317.44 954,-287.44 826,-287.44"/>
<text text-anchor="start" x="834" y="-305.44" font-family="Helvetica,sans-Serif" font-size="10.00">Tayx.Graphy.Advanced.G</text>
<text text-anchor="middle" x="890" y="-294.44" font-family="Helvetica,sans-Serif" font-size="10.00">_AdvancedData.SetState</text>
</a>
</g>
</g>
<!-- Node1&#45;&gt;Node6 -->
<g id="edge5" class="edge">
<title>Node1&#45;&gt;Node6</title>
<path fill="none" stroke="midnightblue" d="M160.22,-392.04C289.59,-402.17 553.3,-413.19 768,-360.44 799.56,-352.68 832.65,-336.16 856.23,-322.73"/>
<polygon fill="midnightblue" stroke="midnightblue" points="858.21,-325.62 865.09,-317.57 854.69,-319.57 858.21,-325.62"/>
</g>
<!-- Node7 -->
<g id="node7" class="node">
<title>Node7</title>
<g id="a_node7"><a xlink:href="class_tayx_1_1_graphy_1_1_audio_1_1_g___audio_manager.xhtml#adc6cbaec95f86a1f896a089a03bf8ef9" target="_top" xlink:title="Set the module state.">
<polygon fill="white" stroke="black" points="827.5,-128.44 827.5,-158.44 952.5,-158.44 952.5,-128.44 827.5,-128.44"/>
<text text-anchor="start" x="835.5" y="-146.44" font-family="Helvetica,sans-Serif" font-size="10.00">Tayx.Graphy.Audio.G</text>
<text text-anchor="middle" x="890" y="-135.44" font-family="Helvetica,sans-Serif" font-size="10.00">_AudioManager.SetState</text>
</a>
</g>
</g>
<!-- Node1&#45;&gt;Node7 -->
<g id="edge6" class="edge">
<title>Node1&#45;&gt;Node7</title>
<path fill="none" stroke="midnightblue" d="M84.91,-374.77C97.01,-346 136.63,-260.07 196,-213.44 341.63,-99.05 404.69,-101.94 587,-69.44 666.2,-55.32 696.23,-33.11 768,-69.44 792.11,-81.64 781.88,-102.92 804,-118.44 808.3,-121.45 812.96,-124.11 817.81,-126.44"/>
<polygon fill="midnightblue" stroke="midnightblue" points="816.77,-129.81 827.34,-130.56 819.55,-123.38 816.77,-129.81"/>
</g>
<!-- Node9 -->
<g id="node9" class="node">
<title>Node9</title>
<g id="a_node9"><a xlink:href="class_tayx_1_1_graphy_1_1_fps_1_1_g___fps_manager.xhtml#af91e873d1642e9d13ce648a65fc87949" target="_top" xlink:title="Set the module state.">
<polygon fill="white" stroke="black" points="808,-79.44 808,-109.44 972,-109.44 972,-79.44 808,-79.44"/>
<text text-anchor="start" x="816" y="-97.44" font-family="Helvetica,sans-Serif" font-size="10.00">Tayx.Graphy.Fps.G_FpsManager.</text>
<text text-anchor="middle" x="890" y="-86.44" font-family="Helvetica,sans-Serif" font-size="10.00">SetState</text>
</a>
</g>
</g>
<!-- Node1&#45;&gt;Node9 -->
<g id="edge8" class="edge">
<title>Node1&#45;&gt;Node9</title>
<path fill="none" stroke="midnightblue" d="M81.84,-374.74C85.86,-334.8 106.77,-181.82 196,-110.44 395.75,49.36 516.74,1.58 768,-46.44 796.87,-51.96 827.65,-64.26 850.93,-75.03"/>
<polygon fill="midnightblue" stroke="midnightblue" points="849.57,-78.26 860.11,-79.37 852.56,-71.93 849.57,-78.26"/>
</g>
<!-- Node11 -->
<g id="node11" class="node">
<title>Node11</title>
<g id="a_node11"><a xlink:href="class_tayx_1_1_graphy_1_1_ram_1_1_g___ram_manager.xhtml#a00af4a150c20f8d373fb6df080b1e3e1" target="_top" xlink:title="Set the module state.">
<polygon fill="white" stroke="black" points="804,-238.44 804,-268.44 976,-268.44 976,-238.44 804,-238.44"/>
<text text-anchor="start" x="812" y="-256.44" font-family="Helvetica,sans-Serif" font-size="10.00">Tayx.Graphy.Ram.G_RamManager.</text>
<text text-anchor="middle" x="890" y="-245.44" font-family="Helvetica,sans-Serif" font-size="10.00">SetState</text>
</a>
</g>
</g>
<!-- Node1&#45;&gt;Node11 -->
<g id="edge10" class="edge">
<title>Node1&#45;&gt;Node11</title>
<path fill="none" stroke="midnightblue" d="M160.28,-381.54C329.73,-374.82 716.03,-356.5 768,-327.44 791.59,-314.25 781.88,-293.95 804,-278.44 806.86,-276.43 809.88,-274.59 813,-272.89"/>
<polygon fill="midnightblue" stroke="midnightblue" points="814.61,-276 822.07,-268.48 811.55,-269.71 814.61,-276"/>
</g>
<!-- Node13 -->
<g id="node13" class="node">
<title>Node13</title>
<g id="a_node13"><a xlink:href="class_tayx_1_1_graphy_1_1_graphy_manager.xhtml#ab748381e2def67b4fd5df7413ffa7d04" target="_top" xlink:title=" ">
<polygon fill="white" stroke="black" points="208.5,-222.44 208.5,-252.44 355.5,-252.44 355.5,-222.44 208.5,-222.44"/>
<text text-anchor="start" x="216.5" y="-240.44" font-family="Helvetica,sans-Serif" font-size="10.00">Tayx.Graphy.GraphyManager.</text>
<text text-anchor="middle" x="282" y="-229.44" font-family="Helvetica,sans-Serif" font-size="10.00">ToggleActive</text>
</a>
</g>
</g>
<!-- Node1&#45;&gt;Node13 -->
<g id="edge12" class="edge">
<title>Node1&#45;&gt;Node13</title>
<path fill="none" stroke="midnightblue" d="M94.12,-374.79C125.98,-351.38 208.01,-291.09 252.04,-258.72"/>
<polygon fill="midnightblue" stroke="midnightblue" points="254.33,-261.38 260.31,-252.64 250.18,-255.74 254.33,-261.38"/>
</g>
<!-- Node8 -->
<g id="node8" class="node">
<title>Node8</title>
<g id="a_node8"><a xlink:href="class_tayx_1_1_graphy_1_1_audio_1_1_g___audio_manager.xhtml#a67d33c59a742691d9a9c3c6843bbc131" target="_top" xlink:title=" ">
<polygon fill="white" stroke="black" points="1020.5,-128.44 1020.5,-158.44 1175.5,-158.44 1175.5,-128.44 1020.5,-128.44"/>
<text text-anchor="start" x="1028.5" y="-146.44" font-family="Helvetica,sans-Serif" font-size="10.00">Tayx.Graphy.Audio.G</text>
<text text-anchor="middle" x="1098" y="-135.44" font-family="Helvetica,sans-Serif" font-size="10.00">_AudioManager.SetGraphActive</text>
</a>
</g>
</g>
<!-- Node7&#45;&gt;Node8 -->
<g id="edge7" class="edge">
<title>Node7&#45;&gt;Node8</title>
<path fill="none" stroke="midnightblue" d="M952.53,-143.44C970.7,-143.44 990.94,-143.44 1010.38,-143.44"/>
<polygon fill="midnightblue" stroke="midnightblue" points="1010.46,-146.94 1020.46,-143.44 1010.46,-139.94 1010.46,-146.94"/>
</g>
<!-- Node10 -->
<g id="node10" class="node">
<title>Node10</title>
<g id="a_node10"><a xlink:href="class_tayx_1_1_graphy_1_1_fps_1_1_g___fps_manager.xhtml#ab34052fcec562720da46d628a11c35b6" target="_top" xlink:title=" ">
<polygon fill="white" stroke="black" points="1016,-79.44 1016,-109.44 1180,-109.44 1180,-79.44 1016,-79.44"/>
<text text-anchor="start" x="1024" y="-97.44" font-family="Helvetica,sans-Serif" font-size="10.00">Tayx.Graphy.Fps.G_FpsManager.</text>
<text text-anchor="middle" x="1098" y="-86.44" font-family="Helvetica,sans-Serif" font-size="10.00">SetGraphActive</text>
</a>
</g>
</g>
<!-- Node9&#45;&gt;Node10 -->
<g id="edge9" class="edge">
<title>Node9&#45;&gt;Node10</title>
<path fill="none" stroke="midnightblue" d="M972.12,-94.44C983.15,-94.44 994.54,-94.44 1005.74,-94.44"/>
<polygon fill="midnightblue" stroke="midnightblue" points="1005.95,-97.94 1015.95,-94.44 1005.95,-90.94 1005.95,-97.94"/>
</g>
<!-- Node12 -->
<g id="node12" class="node">
<title>Node12</title>
<g id="a_node12"><a xlink:href="class_tayx_1_1_graphy_1_1_ram_1_1_g___ram_manager.xhtml#a773c87f61c2bce8bef6c324cda1b30f4" target="_top" xlink:title=" ">
<polygon fill="white" stroke="black" points="1012,-238.44 1012,-268.44 1184,-268.44 1184,-238.44 1012,-238.44"/>
<text text-anchor="start" x="1020" y="-256.44" font-family="Helvetica,sans-Serif" font-size="10.00">Tayx.Graphy.Ram.G_RamManager.</text>
<text text-anchor="middle" x="1098" y="-245.44" font-family="Helvetica,sans-Serif" font-size="10.00">SetGraphActive</text>
</a>
</g>
</g>
<!-- Node11&#45;&gt;Node12 -->
<g id="edge11" class="edge">
<title>Node11&#45;&gt;Node12</title>
<path fill="none" stroke="midnightblue" d="M976.28,-253.44C984.62,-253.44 993.12,-253.44 1001.55,-253.44"/>
<polygon fill="midnightblue" stroke="midnightblue" points="1001.79,-256.94 1011.79,-253.44 1001.79,-249.94 1001.79,-256.94"/>
</g>
<!-- Node14 -->
<g id="node14" class="node">
<title>Node14</title>
<g id="a_node14"><a xlink:href="class_tayx_1_1_graphy_1_1_graphy_manager.xhtml#a57460bb66e12e12b4995152b661d6589" target="_top" xlink:title=" ">
<polygon fill="white" stroke="black" points="604,-128.44 604,-158.44 751,-158.44 751,-128.44 604,-128.44"/>
<text text-anchor="start" x="612" y="-146.44" font-family="Helvetica,sans-Serif" font-size="10.00">Tayx.Graphy.GraphyManager.</text>
<text text-anchor="middle" x="677.5" y="-135.44" font-family="Helvetica,sans-Serif" font-size="10.00">Disable</text>
</a>
</g>
</g>
<!-- Node13&#45;&gt;Node14 -->
<g id="edge13" class="edge">
<title>Node13&#45;&gt;Node14</title>
<path fill="none" stroke="midnightblue" d="M346.22,-222.34C416.36,-205.58 529.35,-178.59 603.27,-160.93"/>
<polygon fill="midnightblue" stroke="midnightblue" points="604.52,-164.23 613.43,-158.5 602.89,-157.42 604.52,-164.23"/>
</g>
<!-- Node15 -->
<g id="node15" class="node">
<title>Node15</title>
<g id="a_node15"><a xlink:href="class_tayx_1_1_graphy_1_1_graphy_manager.xhtml#aab730e06fd0246bdf98e1a76cf5e59d6" target="_top" xlink:title=" ">
<polygon fill="white" stroke="black" points="404,-222.44 404,-252.44 551,-252.44 551,-222.44 404,-222.44"/>
<text text-anchor="start" x="412" y="-240.44" font-family="Helvetica,sans-Serif" font-size="10.00">Tayx.Graphy.GraphyManager.</text>
<text text-anchor="middle" x="477.5" y="-229.44" font-family="Helvetica,sans-Serif" font-size="10.00">Enable</text>
</a>
</g>
</g>
<!-- Node13&#45;&gt;Node15 -->
<g id="edge18" class="edge">
<title>Node13&#45;&gt;Node15</title>
<path fill="none" stroke="midnightblue" d="M355.6,-237.44C368.04,-237.44 381.05,-237.44 393.73,-237.44"/>
<polygon fill="midnightblue" stroke="midnightblue" points="393.81,-240.94 403.81,-237.44 393.81,-233.94 393.81,-240.94"/>
</g>
<!-- Node14&#45;&gt;Node6 -->
<g id="edge14" class="edge">
<title>Node14&#45;&gt;Node6</title>
<path fill="none" stroke="midnightblue" d="M751.3,-156.82C757.41,-159.93 763.1,-163.75 768,-168.44 805.16,-204.01 766.89,-242.82 804,-278.44 807.78,-282.06 812.05,-285.15 816.64,-287.77"/>
<polygon fill="midnightblue" stroke="midnightblue" points="815.25,-290.99 825.77,-292.27 818.34,-284.71 815.25,-290.99"/>
</g>
<!-- Node14&#45;&gt;Node7 -->
<g id="edge15" class="edge">
<title>Node14&#45;&gt;Node7</title>
<path fill="none" stroke="midnightblue" d="M751.24,-143.44C772.58,-143.44 795.9,-143.44 817.19,-143.44"/>
<polygon fill="midnightblue" stroke="midnightblue" points="817.46,-146.94 827.46,-143.44 817.46,-139.94 817.46,-146.94"/>
</g>
<!-- Node14&#45;&gt;Node9 -->
<g id="edge16" class="edge">
<title>Node14&#45;&gt;Node9</title>
<path fill="none" stroke="midnightblue" d="M743.09,-128.4C765.72,-123.14 791.31,-117.18 814.67,-111.74"/>
<polygon fill="midnightblue" stroke="midnightblue" points="815.59,-115.12 824.53,-109.44 814,-108.3 815.59,-115.12"/>
</g>
<!-- Node14&#45;&gt;Node11 -->
<g id="edge17" class="edge">
<title>Node14&#45;&gt;Node11</title>
<path fill="none" stroke="midnightblue" d="M742.55,-158.45C751.28,-161.32 759.98,-164.64 768,-168.44 803.9,-185.45 840.62,-212.95 864.04,-232.05"/>
<polygon fill="midnightblue" stroke="midnightblue" points="861.81,-234.75 871.75,-238.42 866.27,-229.35 861.81,-234.75"/>
</g>
<!-- Node16 -->
<g id="node16" class="node">
<title>Node16</title>
<g id="a_node16"><a xlink:href="class_tayx_1_1_graphy_1_1_advanced_1_1_g___advanced_data.xhtml#aa66be7c203f90b432ea5a23aac02ec65" target="_top" xlink:title="Restores state to the previous one.">
<polygon fill="white" stroke="black" points="587,-287.44 587,-317.44 768,-317.44 768,-287.44 587,-287.44"/>
<text text-anchor="start" x="595" y="-305.44" font-family="Helvetica,sans-Serif" font-size="10.00">Tayx.Graphy.Advanced.G</text>
<text text-anchor="middle" x="677.5" y="-294.44" font-family="Helvetica,sans-Serif" font-size="10.00">_AdvancedData.RestorePreviousState</text>
</a>
</g>
</g>
<!-- Node15&#45;&gt;Node16 -->
<g id="edge19" class="edge">
<title>Node15&#45;&gt;Node16</title>
<path fill="none" stroke="midnightblue" d="M515.84,-252.6C536.61,-260.76 563.04,-270.72 587,-278.44 593.48,-280.53 600.27,-282.58 607.08,-284.55"/>
<polygon fill="midnightblue" stroke="midnightblue" points="606.47,-288.02 617.04,-287.38 608.38,-281.28 606.47,-288.02"/>
</g>
<!-- Node17 -->
<g id="node17" class="node">
<title>Node17</title>
<g id="a_node17"><a xlink:href="class_tayx_1_1_graphy_1_1_audio_1_1_g___audio_manager.xhtml#a9f5d615c367fd9488cf98ae62dc268b7" target="_top" xlink:title=" ">
<polygon fill="white" stroke="black" points="598.5,-177.94 598.5,-218.94 756.5,-218.94 756.5,-177.94 598.5,-177.94"/>
<text text-anchor="start" x="606.5" y="-206.94" font-family="Helvetica,sans-Serif" font-size="10.00">Tayx.Graphy.Audio.G</text>
<text text-anchor="start" x="606.5" y="-195.94" font-family="Helvetica,sans-Serif" font-size="10.00">_AudioManager.RestorePrevious</text>
<text text-anchor="middle" x="677.5" y="-184.94" font-family="Helvetica,sans-Serif" font-size="10.00">State</text>
</a>
</g>
</g>
<!-- Node15&#45;&gt;Node17 -->
<g id="edge21" class="edge">
<title>Node15&#45;&gt;Node17</title>
<path fill="none" stroke="midnightblue" d="M551.1,-223.14C563.21,-220.75 575.88,-218.26 588.32,-215.81"/>
<polygon fill="midnightblue" stroke="midnightblue" points="589.1,-219.22 598.24,-213.85 587.75,-212.35 589.1,-219.22"/>
</g>
<!-- Node18 -->
<g id="node18" class="node">
<title>Node18</title>
<g id="a_node18"><a xlink:href="class_tayx_1_1_graphy_1_1_fps_1_1_g___fps_manager.xhtml#a3f7ddb7a747d2cb93931aae0779f0b7f" target="_top" xlink:title=" ">
<polygon fill="white" stroke="black" points="595.5,-79.44 595.5,-109.44 759.5,-109.44 759.5,-79.44 595.5,-79.44"/>
<text text-anchor="start" x="603.5" y="-97.44" font-family="Helvetica,sans-Serif" font-size="10.00">Tayx.Graphy.Fps.G_FpsManager.</text>
<text text-anchor="middle" x="677.5" y="-86.44" font-family="Helvetica,sans-Serif" font-size="10.00">RestorePreviousState</text>
</a>
</g>
</g>
<!-- Node15&#45;&gt;Node18 -->
<g id="edge23" class="edge">
<title>Node15&#45;&gt;Node18</title>
<path fill="none" stroke="midnightblue" d="M488.16,-222.09C505.03,-196.59 542.34,-145.62 587,-118.44 589.82,-116.72 592.76,-115.13 595.78,-113.65"/>
<polygon fill="midnightblue" stroke="midnightblue" points="597.35,-116.78 605.07,-109.53 594.51,-110.38 597.35,-116.78"/>
</g>
<!-- Node19 -->
<g id="node19" class="node">
<title>Node19</title>
<g id="a_node19"><a xlink:href="class_tayx_1_1_graphy_1_1_ram_1_1_g___ram_manager.xhtml#abdd7ccef7202322ad28b1de2d219e9d1" target="_top" xlink:title=" ">
<polygon fill="white" stroke="black" points="591.5,-238.44 591.5,-268.44 763.5,-268.44 763.5,-238.44 591.5,-238.44"/>
<text text-anchor="start" x="599.5" y="-256.44" font-family="Helvetica,sans-Serif" font-size="10.00">Tayx.Graphy.Ram.G_RamManager.</text>
<text text-anchor="middle" x="677.5" y="-245.44" font-family="Helvetica,sans-Serif" font-size="10.00">RestorePreviousState</text>
</a>
</g>
</g>
<!-- Node15&#45;&gt;Node19 -->
<g id="edge25" class="edge">
<title>Node15&#45;&gt;Node19</title>
<path fill="none" stroke="midnightblue" d="M551.1,-243.31C560.95,-244.1 571.18,-244.93 581.35,-245.75"/>
<polygon fill="midnightblue" stroke="midnightblue" points="581.24,-249.25 591.49,-246.57 581.81,-242.27 581.24,-249.25"/>
</g>
<!-- Node16&#45;&gt;Node6 -->
<g id="edge20" class="edge">
<title>Node16&#45;&gt;Node6</title>
<path fill="none" stroke="midnightblue" d="M768.08,-302.44C783.9,-302.44 800.2,-302.44 815.51,-302.44"/>
<polygon fill="midnightblue" stroke="midnightblue" points="815.94,-305.94 825.94,-302.44 815.94,-298.94 815.94,-305.94"/>
</g>
<!-- Node17&#45;&gt;Node7 -->
<g id="edge22" class="edge">
<title>Node17&#45;&gt;Node7</title>
<path fill="none" stroke="midnightblue" d="M756.58,-178.04C777.9,-172.47 800.81,-166.48 821.49,-161.08"/>
<polygon fill="midnightblue" stroke="midnightblue" points="822.65,-164.39 831.44,-158.48 820.88,-157.62 822.65,-164.39"/>
</g>
<!-- Node18&#45;&gt;Node9 -->
<g id="edge24" class="edge">
<title>Node18&#45;&gt;Node9</title>
<path fill="none" stroke="midnightblue" d="M759.58,-94.44C772.1,-94.44 785.11,-94.44 797.83,-94.44"/>
<polygon fill="midnightblue" stroke="midnightblue" points="797.96,-97.94 807.96,-94.44 797.96,-90.94 797.96,-97.94"/>
</g>
<!-- Node19&#45;&gt;Node11 -->
<g id="edge26" class="edge">
<title>Node19&#45;&gt;Node11</title>
<path fill="none" stroke="midnightblue" d="M763.51,-253.44C773.44,-253.44 783.62,-253.44 793.67,-253.44"/>
<polygon fill="midnightblue" stroke="midnightblue" points="793.67,-256.94 803.67,-253.44 793.67,-249.94 793.67,-256.94"/>
</g>
</g>
</svg>
        <g id="navigator" transform="translate(0 0)" fill="#404254">
                <rect fill="#f2f5e9" fill-opacity="0.5" stroke="#606060" stroke-width=".5" x="0" y="0" width="60" height="60"/>
                <use id="zoomplus" xlink:href="#zoomPlus" x="17" y="9" onmousedown="handleZoom(evt,'in')"/>
                <use id="zoomminus" xlink:href="#zoomMin" x="42" y="9" onmousedown="handleZoom(evt,'out')"/>
                <use id="reset" xlink:href="#resetDef" x="30" y="36" onmousedown="handleReset()"/>
                <g id="arrowUp" xlink:href="#dirArrow" transform="translate(30 24)" onmousedown="handlePan(0,-1)">
                  <use xlink:href="#rim" fill="#404040">
                        <set attributeName="fill" to="#808080" begin="arrowUp.mouseover" end="arrowUp.mouseout"/>
                  </use>
                  <path fill="none" stroke="white" stroke-width="1.5" d="M0,-3.0v7 M-2.5,-0.5L0,-3.0L2.5,-0.5"/>
                </g>
                <g id="arrowRight" xlink:href="#dirArrow" transform="rotate(90) translate(36 -43)" onmousedown="handlePan(1,0)">
                  <use xlink:href="#rim" fill="#404040">
                        <set attributeName="fill" to="#808080" begin="arrowRight.mouseover" end="arrowRight.mouseout"/>
                  </use>
                  <path fill="none" stroke="white" stroke-width="1.5" d="M0,-3.0v7 M-2.5,-0.5L0,-3.0L2.5,-0.5"/>
                </g>
                <g id="arrowDown" xlink:href="#dirArrow" transform="rotate(180) translate(-30 -48)" onmousedown="handlePan(0,1)">
                  <use xlink:href="#rim" fill="#404040">
                        <set attributeName="fill" to="#808080" begin="arrowDown.mouseover" end="arrowDown.mouseout"/>
                  </use>
                  <path fill="none" stroke="white" stroke-width="1.5" d="M0,-3.0v7 M-2.5,-0.5L0,-3.0L2.5,-0.5"/>
                </g>
                <g id="arrowLeft" xlink:href="#dirArrow" transform="rotate(270) translate(-36 17)" onmousedown="handlePan(-1,0)">
                  <use xlink:href="#rim" fill="#404040">
                        <set attributeName="fill" to="#808080" begin="arrowLeft.mouseover" end="arrowLeft.mouseout"/>
                  </use>
                  <path fill="none" stroke="white" stroke-width="1.5" d="M0,-3.0v7 M-2.5,-0.5L0,-3.0L2.5,-0.5"/>
                </g>
        </g>
        <svg viewBox="0 0 15 15" width="100%" height="30px" preserveAspectRatio="xMaxYMin meet">
         <g id="arrow_out" transform="scale(0.3 0.3)">
          <a xlink:href="class_tayx_1_1_graphy_1_1_graphy_manager_a0b4d55c65e436a19150af93e701f82b0_cgraph_org.svg" target="_base">
           <rect id="button" ry="5" rx="5" y="6" x="6" height="38" width="38"
                fill="#f2f5e9" fill-opacity="0.5" stroke="#606060" stroke-width="1.0"/>
           <path id="arrow"
             d="M 11.500037,31.436501 C 11.940474,20.09759 22.043105,11.32322 32.158766,21.979434 L 37.068811,17.246167 C 37.068811,17.246167 37.088388,32 37.088388,32 L 22.160133,31.978069 C 22.160133,31.978069 26.997745,27.140456 26.997745,27.140456 C 18.528582,18.264221 13.291696,25.230495 11.500037,31.436501 z"
             style="fill:#404040;"/>
          </a>
         </g>
        </svg>
</svg>
