<?xml version="1.0" encoding="UTF-8" standalone="no"?>
<!DOCTYPE svg PUBLIC "-//W3C//DTD SVG 1.1//EN"
 "http://www.w3.org/Graphics/SVG/1.1/DTD/svg11.dtd">
<!-- Generated by graphviz version 2.47.3 (20210619.1520)
 -->
<!-- Title: InstantEffect Pages: 1 -->
<svg width="297pt" height="196pt"
 viewBox="0.00 0.00 296.50 196.00" xmlns="http://www.w3.org/2000/svg" xmlns:xlink="http://www.w3.org/1999/xlink">
<g id="graph0" class="graph" transform="scale(1 1) rotate(0) translate(4 192)">
<title>InstantEffect</title>
<!-- Node1 -->
<g id="node1" class="node">
<title>Node1</title>
<g id="a_node1"><a xlink:title="InstantEffect és un encapsulador per tots els Effect que s&#39;executen de forma instantània.">
<polygon fill="#bfbfbf" stroke="black" points="91,-56.5 91,-75.5 162,-75.5 162,-56.5 91,-56.5"/>
<text text-anchor="middle" x="126.5" y="-63.5" font-family="Helvetica,sans-Serif" font-size="10.00">InstantEffect</text>
</a>
</g>
</g>
<!-- Node4 -->
<g id="node4" class="node">
<title>Node4</title>
<g id="a_node4"><a xlink:href="class_heal_effect.html" target="_top" xlink:title=" ">
<polygon fill="none" stroke="black" points="0,-0.5 0,-19.5 61,-19.5 61,-0.5 0,-0.5"/>
<text text-anchor="middle" x="30.5" y="-7.5" font-family="Helvetica,sans-Serif" font-size="10.00">HealEffect</text>
</a>
</g>
</g>
<!-- Node1&#45;&gt;Node4 -->
<g id="edge3" class="edge">
<title>Node1&#45;&gt;Node4</title>
<path fill="none" stroke="midnightblue" d="M101.93,-51.18C84.26,-41.24 60.99,-28.15 45.89,-19.65"/>
<polygon fill="midnightblue" stroke="midnightblue" points="100.64,-54.47 111.08,-56.32 104.08,-48.37 100.64,-54.47"/>
</g>
<!-- Node5 -->
<g id="node5" class="node">
<title>Node5</title>
<g id="a_node5"><a xlink:href="class_heal_relative_effect.html" target="_top" xlink:title=" ">
<polygon fill="none" stroke="black" points="79,-0.5 79,-19.5 174,-19.5 174,-0.5 79,-0.5"/>
<text text-anchor="middle" x="126.5" y="-7.5" font-family="Helvetica,sans-Serif" font-size="10.00">HealRelativeEffect</text>
</a>
</g>
</g>
<!-- Node1&#45;&gt;Node5 -->
<g id="edge4" class="edge">
<title>Node1&#45;&gt;Node5</title>
<path fill="none" stroke="midnightblue" d="M126.5,-45.8C126.5,-36.91 126.5,-26.78 126.5,-19.75"/>
<polygon fill="midnightblue" stroke="midnightblue" points="123,-46.08 126.5,-56.08 130,-46.08 123,-46.08"/>
</g>
<!-- Node6 -->
<g id="node6" class="node">
<title>Node6</title>
<g id="a_node6"><a xlink:href="class_item_statistic_effect.html" target="_top" xlink:title=" ">
<polygon fill="none" stroke="black" points="192.5,-0.5 192.5,-19.5 288.5,-19.5 288.5,-0.5 192.5,-0.5"/>
<text text-anchor="middle" x="240.5" y="-7.5" font-family="Helvetica,sans-Serif" font-size="10.00">ItemStatisticEffect</text>
</a>
</g>
</g>
<!-- Node1&#45;&gt;Node6 -->
<g id="edge5" class="edge">
<title>Node1&#45;&gt;Node6</title>
<path fill="none" stroke="midnightblue" d="M153.74,-52.1C175.04,-42.01 204.04,-28.27 222.52,-19.52"/>
<polygon fill="midnightblue" stroke="midnightblue" points="152.1,-49 144.56,-56.44 155.1,-55.33 152.1,-49"/>
</g>
<!-- Node2 -->
<g id="node2" class="node">
<title>Node2</title>
<g id="a_node2"><a xlink:href="class_effect.html" target="_top" xlink:title="Abstract base info container class for an Effect.">
<polygon fill="none" stroke="black" points="106,-112.5 106,-131.5 147,-131.5 147,-112.5 106,-112.5"/>
<text text-anchor="middle" x="126.5" y="-119.5" font-family="Helvetica,sans-Serif" font-size="10.00">Effect</text>
</a>
</g>
</g>
<!-- Node2&#45;&gt;Node1 -->
<g id="edge1" class="edge">
<title>Node2&#45;&gt;Node1</title>
<path fill="none" stroke="midnightblue" d="M126.5,-101.8C126.5,-92.91 126.5,-82.78 126.5,-75.75"/>
<polygon fill="midnightblue" stroke="midnightblue" points="123,-102.08 126.5,-112.08 130,-102.08 123,-102.08"/>
</g>
<!-- Node3 -->
<g id="node3" class="node">
<title>Node3</title>
<g id="a_node3"><a xlink:title=" ">
<polygon fill="none" stroke="#bfbfbf" points="82,-168.5 82,-187.5 171,-187.5 171,-168.5 82,-168.5"/>
<text text-anchor="middle" x="126.5" y="-175.5" font-family="Helvetica,sans-Serif" font-size="10.00">ScriptableObject</text>
</a>
</g>
</g>
<!-- Node3&#45;&gt;Node2 -->
<g id="edge2" class="edge">
<title>Node3&#45;&gt;Node2</title>
<path fill="none" stroke="midnightblue" d="M126.5,-157.8C126.5,-148.91 126.5,-138.78 126.5,-131.75"/>
<polygon fill="midnightblue" stroke="midnightblue" points="123,-158.08 126.5,-168.08 130,-158.08 123,-158.08"/>
</g>
</g>
</svg>
