<?xml version="1.0" encoding="UTF-8" standalone="no"?>
<!DOCTYPE svg PUBLIC "-//W3C//DTD SVG 1.1//EN"
 "http://www.w3.org/Graphics/SVG/1.1/DTD/svg11.dtd">
<!-- Generated by graphviz version 2.49.1 (20210923.0004)
 -->
<!-- Title: Ability_Instanciable.TriggerAbility Pages: 1 -->
<svg width="489pt" height="116pt"
 viewBox="0.00 0.00 489.00 115.50" xmlns="http://www.w3.org/2000/svg" xmlns:xlink="http://www.w3.org/1999/xlink">
<g id="graph0" class="graph" transform="scale(1 1) rotate(0) translate(4 111.5)">
<title>Ability_Instanciable.TriggerAbility</title>
<!-- Node1 -->
<g id="node1" class="node">
<title>Node1</title>
<g id="a_node1"><a xlink:title=" ">
<polygon fill="#bfbfbf" stroke="black" points="0,-63.5 0,-93.5 133,-93.5 133,-63.5 0,-63.5"/>
<text text-anchor="start" x="8" y="-81.5" font-family="Helvetica,sans-Serif" font-size="10.00">Ability_Instanciable.Trigger</text>
<text text-anchor="middle" x="66.5" y="-70.5" font-family="Helvetica,sans-Serif" font-size="10.00">Ability</text>
</a>
</g>
</g>
<!-- Node2 -->
<g id="node2" class="node">
<title>Node2</title>
<g id="a_node2"><a xlink:href="class_ability___instanciable.html#a1961e1d7df052be5c467203bb9415560" target="_top" xlink:title=" ">
<polygon fill="none" stroke="black" points="169,-88 169,-107 308,-107 308,-88 169,-88"/>
<text text-anchor="middle" x="238.5" y="-95" font-family="Helvetica,sans-Serif" font-size="10.00">Ability_Instanciable.Initialize</text>
</a>
</g>
</g>
<!-- Node1&#45;&gt;Node2 -->
<g id="edge1" class="edge">
<title>Node1&#45;&gt;Node2</title>
<path fill="none" stroke="midnightblue" d="M133.23,-85.85C141.62,-86.78 150.28,-87.75 158.85,-88.71"/>
<polygon fill="midnightblue" stroke="midnightblue" points="158.53,-92.2 168.86,-89.83 159.31,-85.24 158.53,-92.2"/>
</g>
<!-- Node3 -->
<g id="node3" class="node">
<title>Node3</title>
<g id="a_node3"><a xlink:href="class_effect_manager.html#a921aed9a2553637cdd387d3075150709" target="_top" xlink:title="Starts an Effect to the entity who has this EffectManager.">
<polygon fill="none" stroke="black" points="170.5,-50 170.5,-69 306.5,-69 306.5,-50 170.5,-50"/>
<text text-anchor="middle" x="238.5" y="-57" font-family="Helvetica,sans-Serif" font-size="10.00">EffectManager.TriggerEffect</text>
</a>
</g>
</g>
<!-- Node1&#45;&gt;Node3 -->
<g id="edge2" class="edge">
<title>Node1&#45;&gt;Node3</title>
<path fill="none" stroke="midnightblue" d="M133.23,-71.15C142.05,-70.17 151.17,-69.15 160.17,-68.14"/>
<polygon fill="midnightblue" stroke="midnightblue" points="160.71,-71.6 170.26,-67.01 159.94,-64.65 160.71,-71.6"/>
</g>
<!-- Node4 -->
<g id="node4" class="node">
<title>Node4</title>
<g id="a_node4"><a xlink:href="class_effect.html#ad48818ca38f71bb7d5e844bd220ffce0" target="_top" xlink:title=" ">
<polygon fill="none" stroke="black" points="373,-88 373,-107 452,-107 452,-88 373,-88"/>
<text text-anchor="middle" x="412.5" y="-95" font-family="Helvetica,sans-Serif" font-size="10.00">Effect.Activate</text>
</a>
</g>
</g>
<!-- Node3&#45;&gt;Node4 -->
<g id="edge3" class="edge">
<title>Node3&#45;&gt;Node4</title>
<path fill="none" stroke="midnightblue" d="M282.9,-69.09C307.22,-74.46 337.61,-81.18 362.75,-86.73"/>
<polygon fill="midnightblue" stroke="midnightblue" points="362.29,-90.21 372.81,-88.95 363.8,-83.38 362.29,-90.21"/>
</g>
<!-- Node5 -->
<g id="node5" class="node">
<title>Node5</title>
<g id="a_node5"><a xlink:href="class_effect.html#a280600ca7907b4f73d355e6a62a7040c" target="_top" xlink:title=" ">
<polygon fill="none" stroke="black" points="363,-50 363,-69 462,-69 462,-50 363,-50"/>
<text text-anchor="middle" x="412.5" y="-57" font-family="Helvetica,sans-Serif" font-size="10.00">Effect.GetCorrutine</text>
</a>
</g>
</g>
<!-- Node3&#45;&gt;Node5 -->
<g id="edge4" class="edge">
<title>Node3&#45;&gt;Node5</title>
<path fill="none" stroke="midnightblue" d="M306.99,-59.5C321.98,-59.5 337.76,-59.5 352.39,-59.5"/>
<polygon fill="midnightblue" stroke="midnightblue" points="352.81,-63 362.81,-59.5 352.81,-56 352.81,-63"/>
</g>
<!-- Node6 -->
<g id="node6" class="node">
<title>Node6</title>
<g id="a_node6"><a xlink:href="class_effect_h_u_d_controller.html#a5d2dd46778d538fb1474624fd083818b" target="_top" xlink:title=" ">
<polygon fill="none" stroke="black" points="344,-0.5 344,-30.5 481,-30.5 481,-0.5 344,-0.5"/>
<text text-anchor="start" x="352" y="-18.5" font-family="Helvetica,sans-Serif" font-size="10.00">EffectHUDController.Update</text>
<text text-anchor="middle" x="412.5" y="-7.5" font-family="Helvetica,sans-Serif" font-size="10.00">Effects</text>
</a>
</g>
</g>
<!-- Node3&#45;&gt;Node6 -->
<g id="edge5" class="edge">
<title>Node3&#45;&gt;Node6</title>
<path fill="none" stroke="midnightblue" d="M276.82,-49.95C296.1,-45.02 320.25,-38.84 342.75,-33.09"/>
<polygon fill="midnightblue" stroke="midnightblue" points="343.79,-36.43 352.61,-30.57 342.05,-29.65 343.79,-36.43"/>
</g>
</g>
</svg>
