<?xml version="1.0" encoding="UTF-8" standalone="no"?>
<!DOCTYPE svg PUBLIC "-//W3C//DTD SVG 1.1//EN"
 "http://www.w3.org/Graphics/SVG/1.1/DTD/svg11.dtd">
<!-- Generated by graphviz version 2.47.3 (20210619.1520)
 -->
<!-- Title: Photon.Pun.MonoBehaviourPunEditor Pages: 1 -->
<svg width="408pt" height="186pt"
 viewBox="0.00 0.00 408.00 186.00" xmlns="http://www.w3.org/2000/svg" xmlns:xlink="http://www.w3.org/1999/xlink">
<g id="graph0" class="graph" transform="scale(1 1) rotate(0) translate(4 182)">
<title>Photon.Pun.MonoBehaviourPunEditor</title>
<polygon fill="white" stroke="transparent" points="-4,4 -4,-182 404,-182 404,4 -4,4"/>
<!-- Node1 -->
<g id="node1" class="node">
<title>Node1</title>
<g id="a_node1"><a xlink:title=" ">
<polygon fill="#bfbfbf" stroke="black" points="78,-73.5 78,-103.5 215,-103.5 215,-73.5 78,-73.5"/>
<text text-anchor="start" x="86" y="-91.5" font-family="Helvetica,sans-Serif" font-size="10.00">Photon.Pun.MonoBehaviour</text>
<text text-anchor="middle" x="146.5" y="-80.5" font-family="Helvetica,sans-Serif" font-size="10.00">PunEditor</text>
</a>
</g>
</g>
<!-- Node3 -->
<g id="node3" class="node">
<title>Node3</title>
<g id="a_node3"><a xlink:href="class_photon_1_1_pun_1_1_photon_animator_view_editor.xhtml" target="_top" xlink:title=" ">
<polygon fill="white" stroke="black" points="255.5,-147.5 255.5,-177.5 395.5,-177.5 395.5,-147.5 255.5,-147.5"/>
<text text-anchor="start" x="263.5" y="-165.5" font-family="Helvetica,sans-Serif" font-size="10.00">Photon.Pun.PhotonAnimator</text>
<text text-anchor="middle" x="325.5" y="-154.5" font-family="Helvetica,sans-Serif" font-size="10.00">ViewEditor</text>
</a>
</g>
</g>
<!-- Node1&#45;&gt;Node3 -->
<g id="edge2" class="edge">
<title>Node1&#45;&gt;Node3</title>
<path fill="none" stroke="midnightblue" d="M185.14,-108.19C204.53,-117.95 228.73,-129.53 251,-138.5 258.72,-141.61 267.01,-144.62 275.15,-147.4"/>
<polygon fill="midnightblue" stroke="midnightblue" points="186.53,-104.97 176.03,-103.57 183.36,-111.22 186.53,-104.97"/>
</g>
<!-- Node4 -->
<g id="node4" class="node">
<title>Node4</title>
<g id="a_node4"><a xlink:href="class_photon_1_1_pun_1_1_photon_rigidbody2_d_view_editor.xhtml" target="_top" xlink:title=" ">
<polygon fill="white" stroke="black" points="251,-98.5 251,-128.5 400,-128.5 400,-98.5 251,-98.5"/>
<text text-anchor="start" x="259" y="-116.5" font-family="Helvetica,sans-Serif" font-size="10.00">Photon.Pun.PhotonRigidbody2</text>
<text text-anchor="middle" x="325.5" y="-105.5" font-family="Helvetica,sans-Serif" font-size="10.00">DViewEditor</text>
</a>
</g>
</g>
<!-- Node1&#45;&gt;Node4 -->
<g id="edge3" class="edge">
<title>Node1&#45;&gt;Node4</title>
<path fill="none" stroke="midnightblue" d="M225.16,-99.47C233.73,-100.68 242.45,-101.91 250.97,-103.11"/>
<polygon fill="midnightblue" stroke="midnightblue" points="225.56,-95.99 215.17,-98.06 224.59,-102.92 225.56,-95.99"/>
</g>
<!-- Node5 -->
<g id="node5" class="node">
<title>Node5</title>
<g id="a_node5"><a xlink:href="class_photon_1_1_pun_1_1_photon_rigidbody_view_editor.xhtml" target="_top" xlink:title=" ">
<polygon fill="white" stroke="black" points="253.5,-49.5 253.5,-79.5 397.5,-79.5 397.5,-49.5 253.5,-49.5"/>
<text text-anchor="start" x="261.5" y="-67.5" font-family="Helvetica,sans-Serif" font-size="10.00">Photon.Pun.PhotonRigidbody</text>
<text text-anchor="middle" x="325.5" y="-56.5" font-family="Helvetica,sans-Serif" font-size="10.00">ViewEditor</text>
</a>
</g>
</g>
<!-- Node1&#45;&gt;Node5 -->
<g id="edge4" class="edge">
<title>Node1&#45;&gt;Node5</title>
<path fill="none" stroke="midnightblue" d="M225.23,-77.96C234.58,-76.69 244.09,-75.4 253.34,-74.15"/>
<polygon fill="midnightblue" stroke="midnightblue" points="224.61,-74.51 215.17,-79.32 225.55,-81.45 224.61,-74.51"/>
</g>
<!-- Node6 -->
<g id="node6" class="node">
<title>Node6</title>
<g id="a_node6"><a xlink:href="class_photon_1_1_pun_1_1_photon_transform_view_classic_editor.xhtml" target="_top" xlink:title=" ">
<polygon fill="white" stroke="black" points="253.5,-0.5 253.5,-30.5 397.5,-30.5 397.5,-0.5 253.5,-0.5"/>
<text text-anchor="start" x="261.5" y="-18.5" font-family="Helvetica,sans-Serif" font-size="10.00">Photon.Pun.PhotonTransform</text>
<text text-anchor="middle" x="325.5" y="-7.5" font-family="Helvetica,sans-Serif" font-size="10.00">ViewClassicEditor</text>
</a>
</g>
</g>
<!-- Node1&#45;&gt;Node6 -->
<g id="edge5" class="edge">
<title>Node1&#45;&gt;Node6</title>
<path fill="none" stroke="midnightblue" d="M186.01,-68.84C205.27,-59.38 229.09,-48.22 251,-39.5 258.86,-36.37 267.3,-33.33 275.56,-30.52"/>
<polygon fill="midnightblue" stroke="midnightblue" points="184.36,-65.76 176.95,-73.33 187.47,-72.03 184.36,-65.76"/>
</g>
<!-- Node2 -->
<g id="node2" class="node">
<title>Node2</title>
<g id="a_node2"><a xlink:title=" ">
<polygon fill="white" stroke="#bfbfbf" points="0,-79 0,-98 42,-98 42,-79 0,-79"/>
<text text-anchor="middle" x="21" y="-86" font-family="Helvetica,sans-Serif" font-size="10.00">Editor</text>
</a>
</g>
</g>
<!-- Node2&#45;&gt;Node1 -->
<g id="edge1" class="edge">
<title>Node2&#45;&gt;Node1</title>
<path fill="none" stroke="midnightblue" d="M52.2,-88.5C60.07,-88.5 68.87,-88.5 77.84,-88.5"/>
<polygon fill="midnightblue" stroke="midnightblue" points="52.12,-85 42.12,-88.5 52.12,-92 52.12,-85"/>
</g>
</g>
</svg>
