<?xml version="1.0" encoding="UTF-8" standalone="no"?>
<!DOCTYPE svg PUBLIC "-//W3C//DTD SVG 1.1//EN"
 "http://www.w3.org/Graphics/SVG/1.1/DTD/svg11.dtd">
<!-- Generated by graphviz version 2.47.3 (20210619.1520)
 -->
<!-- Title: Photon.Pun.Demo.SlotRacer.Utils.BezierSplineInspector.ShowDirections Pages: 1 -->
<svg width="722pt" height="88pt"
 viewBox="0.00 0.00 722.00 88.00" xmlns="http://www.w3.org/2000/svg" xmlns:xlink="http://www.w3.org/1999/xlink">
<g id="graph0" class="graph" transform="scale(1 1) rotate(0) translate(4 84)">
<title>Photon.Pun.Demo.SlotRacer.Utils.BezierSplineInspector.ShowDirections</title>
<polygon fill="white" stroke="transparent" points="-4,4 -4,-84 718,-84 718,4 -4,4"/>
<!-- Node1 -->
<g id="node1" class="node">
<title>Node1</title>
<g id="a_node1"><a xlink:title=" ">
<polygon fill="#bfbfbf" stroke="black" points="0,-19 0,-60 161,-60 161,-19 0,-19"/>
<text text-anchor="start" x="8" y="-48" font-family="Helvetica,sans-Serif" font-size="10.00">Photon.Pun.Demo.SlotRacer.</text>
<text text-anchor="start" x="8" y="-37" font-family="Helvetica,sans-Serif" font-size="10.00">Utils.BezierSplineInspector.Show</text>
<text text-anchor="middle" x="80.5" y="-26" font-family="Helvetica,sans-Serif" font-size="10.00">Directions</text>
</a>
</g>
</g>
<!-- Node2 -->
<g id="node2" class="node">
<title>Node2</title>
<g id="a_node2"><a xlink:href="class_photon_1_1_pun_1_1_demo_1_1_slot_racer_1_1_utils_1_1_bezier_spline.xhtml#ab35c04ba6acf62df7603be053f4f7d22" target="_top" xlink:title=" ">
<polygon fill="white" stroke="black" points="197,-49.5 197,-79.5 348,-79.5 348,-49.5 197,-49.5"/>
<text text-anchor="start" x="205" y="-67.5" font-family="Helvetica,sans-Serif" font-size="10.00">Photon.Pun.Demo.SlotRacer.</text>
<text text-anchor="middle" x="272.5" y="-56.5" font-family="Helvetica,sans-Serif" font-size="10.00">Utils.BezierSpline.GetDirection</text>
</a>
</g>
</g>
<!-- Node1&#45;&gt;Node2 -->
<g id="edge1" class="edge">
<title>Node1&#45;&gt;Node2</title>
<path fill="none" stroke="midnightblue" d="M161.25,-49.99C169.72,-51.11 178.35,-52.24 186.87,-53.36"/>
<polygon fill="midnightblue" stroke="midnightblue" points="186.43,-56.84 196.81,-54.67 187.35,-49.9 186.43,-56.84"/>
</g>
<!-- Node5 -->
<g id="node5" class="node">
<title>Node5</title>
<g id="a_node5"><a xlink:href="class_photon_1_1_pun_1_1_demo_1_1_slot_racer_1_1_utils_1_1_bezier_spline.xhtml#a781ddf5344420bfeb2f5bf8413fcaa54" target="_top" xlink:title=" ">
<polygon fill="white" stroke="black" points="200,-0.5 200,-30.5 345,-30.5 345,-0.5 200,-0.5"/>
<text text-anchor="start" x="208" y="-18.5" font-family="Helvetica,sans-Serif" font-size="10.00">Photon.Pun.Demo.SlotRacer.</text>
<text text-anchor="middle" x="272.5" y="-7.5" font-family="Helvetica,sans-Serif" font-size="10.00">Utils.BezierSpline.GetPoint</text>
</a>
</g>
</g>
<!-- Node1&#45;&gt;Node5 -->
<g id="edge4" class="edge">
<title>Node1&#45;&gt;Node5</title>
<path fill="none" stroke="midnightblue" d="M161.25,-29.43C170.65,-28.24 180.25,-27.03 189.67,-25.84"/>
<polygon fill="midnightblue" stroke="midnightblue" points="190.33,-29.28 199.81,-24.56 189.45,-22.34 190.33,-29.28"/>
</g>
<!-- Node3 -->
<g id="node3" class="node">
<title>Node3</title>
<g id="a_node3"><a xlink:href="class_photon_1_1_pun_1_1_demo_1_1_slot_racer_1_1_utils_1_1_bezier_spline.xhtml#a710a65cb21a8c0c861e78073c1cd2972" target="_top" xlink:title=" ">
<polygon fill="white" stroke="black" points="384,-49.5 384,-79.5 532,-79.5 532,-49.5 384,-49.5"/>
<text text-anchor="start" x="392" y="-67.5" font-family="Helvetica,sans-Serif" font-size="10.00">Photon.Pun.Demo.SlotRacer.</text>
<text text-anchor="middle" x="458" y="-56.5" font-family="Helvetica,sans-Serif" font-size="10.00">Utils.BezierSpline.GetVelocity</text>
</a>
</g>
</g>
<!-- Node2&#45;&gt;Node3 -->
<g id="edge2" class="edge">
<title>Node2&#45;&gt;Node3</title>
<path fill="none" stroke="midnightblue" d="M348.14,-64.5C356.62,-64.5 365.31,-64.5 373.9,-64.5"/>
<polygon fill="midnightblue" stroke="midnightblue" points="373.92,-68 383.92,-64.5 373.92,-61 373.92,-68"/>
</g>
<!-- Node4 -->
<g id="node4" class="node">
<title>Node4</title>
<g id="a_node4"><a xlink:href="class_photon_1_1_pun_1_1_demo_1_1_slot_racer_1_1_utils_1_1_bezier.xhtml#abe7d75f2a21945ddda206a7c9d655801" target="_top" xlink:title=" ">
<polygon fill="white" stroke="black" points="568,-49.5 568,-79.5 714,-79.5 714,-49.5 568,-49.5"/>
<text text-anchor="start" x="576" y="-67.5" font-family="Helvetica,sans-Serif" font-size="10.00">Photon.Pun.Demo.SlotRacer.</text>
<text text-anchor="middle" x="641" y="-56.5" font-family="Helvetica,sans-Serif" font-size="10.00">Utils.Bezier.GetFirstDerivative</text>
</a>
</g>
</g>
<!-- Node3&#45;&gt;Node4 -->
<g id="edge3" class="edge">
<title>Node3&#45;&gt;Node4</title>
<path fill="none" stroke="midnightblue" d="M532.1,-64.5C540.47,-64.5 549.04,-64.5 557.53,-64.5"/>
<polygon fill="midnightblue" stroke="midnightblue" points="557.81,-68 567.81,-64.5 557.81,-61 557.81,-68"/>
</g>
<!-- Node6 -->
<g id="node6" class="node">
<title>Node6</title>
<g id="a_node6"><a xlink:href="class_photon_1_1_pun_1_1_demo_1_1_slot_racer_1_1_utils_1_1_bezier.xhtml#a92b639bbe28e91ebf634d21804d19b50" target="_top" xlink:title=" ">
<polygon fill="white" stroke="black" points="385.5,-0.5 385.5,-30.5 530.5,-30.5 530.5,-0.5 385.5,-0.5"/>
<text text-anchor="start" x="393.5" y="-18.5" font-family="Helvetica,sans-Serif" font-size="10.00">Photon.Pun.Demo.SlotRacer.</text>
<text text-anchor="middle" x="458" y="-7.5" font-family="Helvetica,sans-Serif" font-size="10.00">Utils.Bezier.GetPoint</text>
</a>
</g>
</g>
<!-- Node5&#45;&gt;Node6 -->
<g id="edge5" class="edge">
<title>Node5&#45;&gt;Node6</title>
<path fill="none" stroke="midnightblue" d="M345.23,-15.5C355.01,-15.5 365.1,-15.5 375.04,-15.5"/>
<polygon fill="midnightblue" stroke="midnightblue" points="375.32,-19 385.32,-15.5 375.32,-12 375.32,-19"/>
</g>
</g>
</svg>
