<?xml version="1.0" encoding="UTF-8" standalone="no"?>
<!DOCTYPE svg PUBLIC "-//W3C//DTD SVG 1.1//EN"
 "http://www.w3.org/Graphics/SVG/1.1/DTD/svg11.dtd">
<!-- Generated by graphviz version 2.47.3 (20210619.1520)
 -->
<!-- Title: Photon.Realtime.Room.AddPlayer Pages: 1 -->
<!--zoomable 483 -->
<svg id="main" version="1.1" xmlns="http://www.w3.org/2000/svg" xmlns:xlink="http://www.w3.org/1999/xlink" xml:space="preserve" onload="init(evt)">
<style type="text/css"><![CDATA[
.edge:hover path { stroke: red; }
.edge:hover polygon { stroke: red; fill: red; }
]]></style>
<script type="text/javascript"><![CDATA[
var edges = document.getElementsByTagName('g');
if (edges && edges.length) {
  for (var i=0;i<edges.length;i++) {
    if (edges[i].id.substr(0,4)=='edge') {
      edges[i].setAttribute('class','edge');
    }
  }
}
]]></script>
        <defs>
                <circle id="rim" cx="0" cy="0" r="7"/>
                <circle id="rim2" cx="0" cy="0" r="3.5"/>
                <g id="zoomPlus">
                        <use xlink:href="#rim" fill="#404040">
                                <set attributeName="fill" to="#808080" begin="zoomplus.mouseover" end="zoomplus.mouseout"/>
                        </use>
                        <path d="M-4,0h8M0,-4v8" fill="none" stroke="white" stroke-width="1.5" pointer-events="none"/>
                </g>
                <g id="zoomMin">
                        <use xlink:href="#rim" fill="#404040">
                                <set attributeName="fill" to="#808080" begin="zoomminus.mouseover" end="zoomminus.mouseout"/>
                        </use>
                        <path d="M-4,0h8" fill="none" stroke="white" stroke-width="1.5" pointer-events="none"/>
                </g>
                <g id="dirArrow">
                        <path fill="none" stroke="white" stroke-width="1.5" d="M0,-3.0v7 M-2.5,-0.5L0,-3.0L2.5,-0.5"/>
                </g>
               <g id="resetDef">
                       <use xlink:href="#rim2" fill="#404040">
                               <set attributeName="fill" to="#808080" begin="reset.mouseover" end="reset.mouseout"/>
                       </use>
               </g>
        </defs>

<script type="text/javascript">
var viewWidth = 725;
var viewHeight = 483;
var sectionId = 'dynsection-3';
</script>
<script xlink:href="svgpan.js"/>
<svg id="graph" class="graph">
<g id="viewport">
<title>Photon.Realtime.Room.AddPlayer</title>
<polygon fill="white" stroke="transparent" points="-4,4 -4,-478.5 721,-478.5 721,4 -4,4"/>
<!-- Node1 -->
<g id="node1" class="node">
<title>Node1</title>
<g id="a_node1"><a xlink:title="Checks if the player is in the room&#39;s list already and calls StorePlayer() if not.">
<polygon fill="#bfbfbf" stroke="black" points="580,-193.5 580,-223.5 717,-223.5 717,-193.5 580,-193.5"/>
<text text-anchor="start" x="588" y="-211.5" font-family="Helvetica,sans-Serif" font-size="10.00">Photon.Realtime.Room.Add</text>
<text text-anchor="middle" x="648.5" y="-200.5" font-family="Helvetica,sans-Serif" font-size="10.00">Player</text>
</a>
</g>
</g>
<!-- Node2 -->
<g id="node2" class="node">
<title>Node2</title>
<g id="a_node2"><a xlink:href="class_photon_1_1_pun_1_1_photon_network.xhtml#a82287a4a3bbfd5125fc858ae3805481c" target="_top" xlink:title="Internally used helper&#45;method to setup an offline room, the numbers for actor and master&#45;client and t...">
<polygon fill="white" stroke="black" points="404,-193.5 404,-223.5 544,-223.5 544,-193.5 404,-193.5"/>
<text text-anchor="start" x="412" y="-211.5" font-family="Helvetica,sans-Serif" font-size="10.00">Photon.Pun.PhotonNetwork.</text>
<text text-anchor="middle" x="474" y="-200.5" font-family="Helvetica,sans-Serif" font-size="10.00">EnterOfflineRoom</text>
</a>
</g>
</g>
<!-- Node1&#45;&gt;Node2 -->
<g id="edge1" class="edge">
<title>Node1&#45;&gt;Node2</title>
<path fill="none" stroke="midnightblue" d="M569.57,-208.5C561.11,-208.5 552.54,-208.5 544.19,-208.5"/>
<polygon fill="midnightblue" stroke="midnightblue" points="569.82,-212 579.82,-208.5 569.82,-205 569.82,-212"/>
</g>
<!-- Node3 -->
<g id="node3" class="node">
<title>Node3</title>
<g id="a_node3"><a xlink:href="class_photon_1_1_pun_1_1_photon_network.xhtml#a755417a54b55bdb92361dc74b4a09953" target="_top" xlink:title="Creates a new room.">
<polygon fill="white" stroke="black" points="228,-270.5 228,-300.5 368,-300.5 368,-270.5 228,-270.5"/>
<text text-anchor="start" x="236" y="-288.5" font-family="Helvetica,sans-Serif" font-size="10.00">Photon.Pun.PhotonNetwork.</text>
<text text-anchor="middle" x="298" y="-277.5" font-family="Helvetica,sans-Serif" font-size="10.00">CreateRoom</text>
</a>
</g>
</g>
<!-- Node2&#45;&gt;Node3 -->
<g id="edge2" class="edge">
<title>Node2&#45;&gt;Node3</title>
<path fill="none" stroke="midnightblue" d="M433.71,-228.03C414.12,-237.55 389.97,-248.98 368,-258.5 358.67,-262.54 348.53,-266.66 338.97,-270.42"/>
<polygon fill="midnightblue" stroke="midnightblue" points="435.49,-231.05 442.94,-223.52 432.42,-224.77 435.49,-231.05"/>
</g>
<!-- Node11 -->
<g id="node11" class="node">
<title>Node11</title>
<g id="a_node11"><a xlink:href="class_photon_1_1_pun_1_1_photon_network.xhtml#a1a8502c779302e9b39db304e4f533feb" target="_top" xlink:title="Joins a specific room by name and creates it on demand.">
<polygon fill="white" stroke="black" points="228,-218.5 228,-248.5 368,-248.5 368,-218.5 228,-218.5"/>
<text text-anchor="start" x="236" y="-236.5" font-family="Helvetica,sans-Serif" font-size="10.00">Photon.Pun.PhotonNetwork.</text>
<text text-anchor="middle" x="298" y="-225.5" font-family="Helvetica,sans-Serif" font-size="10.00">JoinOrCreateRoom</text>
</a>
</g>
</g>
<!-- Node2&#45;&gt;Node11 -->
<g id="edge10" class="edge">
<title>Node2&#45;&gt;Node11</title>
<path fill="none" stroke="midnightblue" d="M393.97,-219.86C385.38,-221.09 376.68,-222.34 368.22,-223.55"/>
<polygon fill="midnightblue" stroke="midnightblue" points="394.58,-223.3 403.98,-218.42 393.58,-216.37 394.58,-223.3"/>
</g>
<!-- Node12 -->
<g id="node12" class="node">
<title>Node12</title>
<g id="a_node12"><a xlink:href="class_photon_1_1_pun_1_1_photon_network.xhtml#a875d4e8ae4a362db598eac33b5fb5313" target="_top" xlink:title="Joins a random room that matches the filter.">
<polygon fill="white" stroke="black" points="228,-169.5 228,-199.5 368,-199.5 368,-169.5 228,-169.5"/>
<text text-anchor="start" x="236" y="-187.5" font-family="Helvetica,sans-Serif" font-size="10.00">Photon.Pun.PhotonNetwork.</text>
<text text-anchor="middle" x="298" y="-176.5" font-family="Helvetica,sans-Serif" font-size="10.00">JoinRandomRoom</text>
</a>
</g>
</g>
<!-- Node2&#45;&gt;Node12 -->
<g id="edge11" class="edge">
<title>Node2&#45;&gt;Node12</title>
<path fill="none" stroke="midnightblue" d="M393.97,-197.6C385.38,-196.41 376.68,-195.21 368.22,-194.05"/>
<polygon fill="midnightblue" stroke="midnightblue" points="393.6,-201.08 403.98,-198.98 394.55,-194.15 393.6,-201.08"/>
</g>
<!-- Node13 -->
<g id="node13" class="node">
<title>Node13</title>
<g id="a_node13"><a xlink:href="class_photon_1_1_pun_1_1_photon_network.xhtml#ae4640a50e5a883807370aaa4a4d6102d" target="_top" xlink:title="Joins a room by name.">
<polygon fill="white" stroke="black" points="228,-71.5 228,-101.5 368,-101.5 368,-71.5 228,-71.5"/>
<text text-anchor="start" x="236" y="-89.5" font-family="Helvetica,sans-Serif" font-size="10.00">Photon.Pun.PhotonNetwork.</text>
<text text-anchor="middle" x="298" y="-78.5" font-family="Helvetica,sans-Serif" font-size="10.00">JoinRoom</text>
</a>
</g>
</g>
<!-- Node2&#45;&gt;Node13 -->
<g id="edge12" class="edge">
<title>Node2&#45;&gt;Node13</title>
<path fill="none" stroke="midnightblue" d="M442.93,-187.41C407.97,-162.91 351.16,-123.08 320.41,-101.51"/>
<polygon fill="midnightblue" stroke="midnightblue" points="441.12,-190.42 451.31,-193.3 445.14,-184.69 441.12,-190.42"/>
</g>
<!-- Node4 -->
<g id="node4" class="node">
<title>Node4</title>
<g id="a_node4"><a xlink:href="class_main_menu.xhtml#ad1ecd6c8eea2c5f5531906486e1f0040" target="_top" xlink:title=" ">
<polygon fill="white" stroke="black" points="36.5,-455 36.5,-474 155.5,-474 155.5,-455 36.5,-455"/>
<text text-anchor="middle" x="96" y="-462" font-family="Helvetica,sans-Serif" font-size="10.00">MainMenu.CreateRoom</text>
</a>
</g>
</g>
<!-- Node3&#45;&gt;Node4 -->
<g id="edge3" class="edge">
<title>Node3&#45;&gt;Node4</title>
<path fill="none" stroke="midnightblue" d="M287.89,-310.46C273.42,-346.38 241.63,-412 192,-445.5 181.27,-452.75 168.39,-457.35 155.64,-460.25"/>
<polygon fill="midnightblue" stroke="midnightblue" points="291.3,-311.34 291.67,-300.75 284.78,-308.8 291.3,-311.34"/>
</g>
<!-- Node5 -->
<g id="node5" class="node">
<title>Node5</title>
<g id="a_node5"><a xlink:href="class_photon_1_1_pun_1_1_demo_1_1_cockpit_1_1_pun_cockpit.xhtml#af748530e9da9ad5a1d411191b5930df9" target="_top" xlink:title=" ">
<polygon fill="white" stroke="black" points="28.5,-405.5 28.5,-435.5 163.5,-435.5 163.5,-405.5 28.5,-405.5"/>
<text text-anchor="start" x="36.5" y="-423.5" font-family="Helvetica,sans-Serif" font-size="10.00">Photon.Pun.Demo.Cockpit.</text>
<text text-anchor="middle" x="96" y="-412.5" font-family="Helvetica,sans-Serif" font-size="10.00">PunCockpit.CreateRoom</text>
</a>
</g>
</g>
<!-- Node3&#45;&gt;Node5 -->
<g id="edge4" class="edge">
<title>Node3&#45;&gt;Node5</title>
<path fill="none" stroke="midnightblue" d="M280.71,-309.11C262.13,-334.26 229.43,-373.42 192,-395.5 183.33,-400.61 173.62,-404.7 163.79,-407.95"/>
<polygon fill="midnightblue" stroke="midnightblue" points="283.66,-311.01 286.68,-300.85 277.99,-306.91 283.66,-311.01"/>
</g>
<!-- Node6 -->
<g id="node6" class="node">
<title>Node6</title>
<g id="a_node6"><a xlink:href="class_photon_1_1_pun_1_1_demo_1_1_asteroids_1_1_lobby_main_panel.xhtml#add3669bfe4f0772f5a98655b4be816d6" target="_top" xlink:title=" ">
<polygon fill="white" stroke="black" points="2.5,-345 2.5,-386 189.5,-386 189.5,-345 2.5,-345"/>
<text text-anchor="start" x="10.5" y="-374" font-family="Helvetica,sans-Serif" font-size="10.00">Photon.Pun.Demo.Asteroids.</text>
<text text-anchor="start" x="10.5" y="-363" font-family="Helvetica,sans-Serif" font-size="10.00">LobbyMainPanel.OnCreateRoomButton</text>
<text text-anchor="middle" x="96" y="-352" font-family="Helvetica,sans-Serif" font-size="10.00">Clicked</text>
</a>
</g>
</g>
<!-- Node3&#45;&gt;Node6 -->
<g id="edge5" class="edge">
<title>Node3&#45;&gt;Node6</title>
<path fill="none" stroke="midnightblue" d="M259.09,-305.11C239.37,-314.92 214.7,-326.56 192,-335.5 183.63,-338.8 174.74,-341.99 165.89,-344.99"/>
<polygon fill="midnightblue" stroke="midnightblue" points="260.69,-308.23 268.06,-300.61 257.55,-301.97 260.69,-308.23"/>
</g>
<!-- Node7 -->
<g id="node7" class="node">
<title>Node7</title>
<g id="a_node7"><a xlink:href="class_photon_1_1_pun_1_1_utility_scripts_1_1_states_gui.xhtml#a414fd2160f0bd79c9a6826cb31f8006a" target="_top" xlink:title=" ">
<polygon fill="white" stroke="black" points="31.5,-295.5 31.5,-325.5 160.5,-325.5 160.5,-295.5 31.5,-295.5"/>
<text text-anchor="start" x="39.5" y="-313.5" font-family="Helvetica,sans-Serif" font-size="10.00">Photon.Pun.UtilityScripts.</text>
<text text-anchor="middle" x="96" y="-302.5" font-family="Helvetica,sans-Serif" font-size="10.00">StatesGui.OnGUI</text>
</a>
</g>
</g>
<!-- Node3&#45;&gt;Node7 -->
<g id="edge6" class="edge">
<title>Node3&#45;&gt;Node7</title>
<path fill="none" stroke="midnightblue" d="M217.8,-295.4C198.86,-297.77 178.88,-300.27 160.74,-302.53"/>
<polygon fill="midnightblue" stroke="midnightblue" points="218.4,-298.85 227.89,-294.14 217.53,-291.91 218.4,-298.85"/>
</g>
<!-- Node8 -->
<g id="node8" class="node">
<title>Node8</title>
<g id="a_node8"><a xlink:href="class_photon_1_1_pun_1_1_demo_1_1_asteroids_1_1_lobby_main_panel.xhtml#a7a3bee5bbe6b6089b3356fddcc01843b" target="_top" xlink:title="Called when a previous OpJoinRandom call failed on the server.">
<polygon fill="white" stroke="black" points="4,-246.5 4,-276.5 188,-276.5 188,-246.5 4,-246.5"/>
<text text-anchor="start" x="12" y="-264.5" font-family="Helvetica,sans-Serif" font-size="10.00">Photon.Pun.Demo.Asteroids.</text>
<text text-anchor="middle" x="96" y="-253.5" font-family="Helvetica,sans-Serif" font-size="10.00">LobbyMainPanel.OnJoinRandomFailed</text>
</a>
</g>
</g>
<!-- Node3&#45;&gt;Node8 -->
<g id="edge7" class="edge">
<title>Node3&#45;&gt;Node8</title>
<path fill="none" stroke="midnightblue" d="M217.89,-276.01C208.18,-274.84 198.2,-273.64 188.33,-272.46"/>
<polygon fill="midnightblue" stroke="midnightblue" points="217.55,-279.49 227.89,-277.21 218.38,-272.54 217.55,-279.49"/>
</g>
<!-- Node9 -->
<g id="node9" class="node">
<title>Node9</title>
<g id="a_node9"><a xlink:href="class_photon_1_1_pun_1_1_demo_1_1_pun_basics_1_1_launcher.xhtml#a89c3b0ab473f7be7c1240230a8a70ec7" target="_top" xlink:title="Called when a JoinRandom() call failed.">
<polygon fill="white" stroke="black" points="20,-197.5 20,-227.5 172,-227.5 172,-197.5 20,-197.5"/>
<text text-anchor="start" x="28" y="-215.5" font-family="Helvetica,sans-Serif" font-size="10.00">Photon.Pun.Demo.PunBasics.</text>
<text text-anchor="middle" x="96" y="-204.5" font-family="Helvetica,sans-Serif" font-size="10.00">Launcher.OnJoinRandomFailed</text>
</a>
</g>
</g>
<!-- Node3&#45;&gt;Node9 -->
<g id="edge8" class="edge">
<title>Node3&#45;&gt;Node9</title>
<path fill="none" stroke="midnightblue" d="M245.83,-266.51C239.76,-263.95 233.7,-261.26 228,-258.5 211.33,-250.43 209.11,-244.59 192,-237.5 182.94,-233.75 173.16,-230.42 163.43,-227.51"/>
<polygon fill="midnightblue" stroke="midnightblue" points="244.74,-269.84 255.32,-270.39 247.39,-263.37 244.74,-269.84"/>
</g>
<!-- Node10 -->
<g id="node10" class="node">
<title>Node10</title>
<g id="a_node10"><a xlink:href="class_photon_1_1_pun_1_1_utility_scripts_1_1_connect_and_join_random.xhtml#ad46a9fab53a0b38efbb4f5963bc902fe" target="_top" xlink:title="Called when a previous OpJoinRandom call failed on the server.">
<polygon fill="white" stroke="black" points="0,-137 0,-178 192,-178 192,-137 0,-137"/>
<text text-anchor="start" x="8" y="-166" font-family="Helvetica,sans-Serif" font-size="10.00">Photon.Pun.UtilityScripts.</text>
<text text-anchor="start" x="8" y="-155" font-family="Helvetica,sans-Serif" font-size="10.00">ConnectAndJoinRandom.OnJoinRandom</text>
<text text-anchor="middle" x="96" y="-144" font-family="Helvetica,sans-Serif" font-size="10.00">Failed</text>
</a>
</g>
</g>
<!-- Node3&#45;&gt;Node10 -->
<g id="edge9" class="edge">
<title>Node3&#45;&gt;Node10</title>
<path fill="none" stroke="midnightblue" d="M237.06,-265.4C233.84,-263.31 230.79,-261.02 228,-258.5 202.03,-235.06 218.63,-211.19 192,-188.5 187.38,-184.56 182.24,-181.12 176.82,-178.12"/>
<polygon fill="midnightblue" stroke="midnightblue" points="235.48,-268.53 245.9,-270.47 238.96,-262.46 235.48,-268.53"/>
</g>
<!-- Node14 -->
<g id="node14" class="node">
<title>Node14</title>
<g id="a_node14"><a xlink:href="class_main_menu.xhtml#a677f2954b9aea6a374b84799a683537f" target="_top" xlink:title=" ">
<polygon fill="white" stroke="black" points="42.5,-99 42.5,-118 149.5,-118 149.5,-99 42.5,-99"/>
<text text-anchor="middle" x="96" y="-106" font-family="Helvetica,sans-Serif" font-size="10.00">MainMenu.JoinRoom</text>
</a>
</g>
</g>
<!-- Node13&#45;&gt;Node14 -->
<g id="edge13" class="edge">
<title>Node13&#45;&gt;Node14</title>
<path fill="none" stroke="midnightblue" d="M217.85,-95.21C194.96,-97.72 170.54,-100.41 149.69,-102.7"/>
<polygon fill="midnightblue" stroke="midnightblue" points="218.33,-98.67 227.89,-94.1 217.57,-91.72 218.33,-98.67"/>
</g>
<!-- Node15 -->
<g id="node15" class="node">
<title>Node15</title>
<g id="a_node15"><a xlink:href="class_photon_1_1_pun_1_1_demo_1_1_cockpit_1_1_pun_cockpit.xhtml#ae9bd6f6fe9ea586ea81e0d8e6deaa126" target="_top" xlink:title=" ">
<polygon fill="white" stroke="black" points="28.5,-49.5 28.5,-79.5 163.5,-79.5 163.5,-49.5 28.5,-49.5"/>
<text text-anchor="start" x="36.5" y="-67.5" font-family="Helvetica,sans-Serif" font-size="10.00">Photon.Pun.Demo.Cockpit.</text>
<text text-anchor="middle" x="96" y="-56.5" font-family="Helvetica,sans-Serif" font-size="10.00">PunCockpit.JoinRoom</text>
</a>
</g>
</g>
<!-- Node13&#45;&gt;Node15 -->
<g id="edge14" class="edge">
<title>Node13&#45;&gt;Node15</title>
<path fill="none" stroke="midnightblue" d="M217.52,-77.76C199.71,-75.8 180.99,-73.74 163.75,-71.84"/>
<polygon fill="midnightblue" stroke="midnightblue" points="217.57,-81.28 227.89,-78.9 218.33,-74.33 217.57,-81.28"/>
</g>
<!-- Node16 -->
<g id="node16" class="node">
<title>Node16</title>
<g id="a_node16"><a xlink:href="class_photon_1_1_pun_1_1_demo_1_1_asteroids_1_1_room_list_entry.xhtml#a5c5fad3c1d62ed0ff0e293c5cfe28e0d" target="_top" xlink:title=" ">
<polygon fill="white" stroke="black" points="24.5,-0.5 24.5,-30.5 167.5,-30.5 167.5,-0.5 24.5,-0.5"/>
<text text-anchor="start" x="32.5" y="-18.5" font-family="Helvetica,sans-Serif" font-size="10.00">Photon.Pun.Demo.Asteroids.</text>
<text text-anchor="middle" x="96" y="-7.5" font-family="Helvetica,sans-Serif" font-size="10.00">RoomListEntry.Start</text>
</a>
</g>
</g>
<!-- Node13&#45;&gt;Node16 -->
<g id="edge15" class="edge">
<title>Node13&#45;&gt;Node16</title>
<path fill="none" stroke="midnightblue" d="M257.64,-66.93C238.2,-57.77 214.21,-47.21 192,-39.5 182.68,-36.26 172.71,-33.26 162.85,-30.56"/>
<polygon fill="midnightblue" stroke="midnightblue" points="256.25,-70.14 266.78,-71.29 259.27,-63.83 256.25,-70.14"/>
</g>
</g>
</svg>
        <g id="navigator" transform="translate(0 0)" fill="#404254">
                <rect fill="#f2f5e9" fill-opacity="0.5" stroke="#606060" stroke-width=".5" x="0" y="0" width="60" height="60"/>
                <use id="zoomplus" xlink:href="#zoomPlus" x="17" y="9" onmousedown="handleZoom(evt,'in')"/>
                <use id="zoomminus" xlink:href="#zoomMin" x="42" y="9" onmousedown="handleZoom(evt,'out')"/>
                <use id="reset" xlink:href="#resetDef" x="30" y="36" onmousedown="handleReset()"/>
                <g id="arrowUp" xlink:href="#dirArrow" transform="translate(30 24)" onmousedown="handlePan(0,-1)">
                  <use xlink:href="#rim" fill="#404040">
                        <set attributeName="fill" to="#808080" begin="arrowUp.mouseover" end="arrowUp.mouseout"/>
                  </use>
                  <path fill="none" stroke="white" stroke-width="1.5" d="M0,-3.0v7 M-2.5,-0.5L0,-3.0L2.5,-0.5"/>
                </g>
                <g id="arrowRight" xlink:href="#dirArrow" transform="rotate(90) translate(36 -43)" onmousedown="handlePan(1,0)">
                  <use xlink:href="#rim" fill="#404040">
                        <set attributeName="fill" to="#808080" begin="arrowRight.mouseover" end="arrowRight.mouseout"/>
                  </use>
                  <path fill="none" stroke="white" stroke-width="1.5" d="M0,-3.0v7 M-2.5,-0.5L0,-3.0L2.5,-0.5"/>
                </g>
                <g id="arrowDown" xlink:href="#dirArrow" transform="rotate(180) translate(-30 -48)" onmousedown="handlePan(0,1)">
                  <use xlink:href="#rim" fill="#404040">
                        <set attributeName="fill" to="#808080" begin="arrowDown.mouseover" end="arrowDown.mouseout"/>
                  </use>
                  <path fill="none" stroke="white" stroke-width="1.5" d="M0,-3.0v7 M-2.5,-0.5L0,-3.0L2.5,-0.5"/>
                </g>
                <g id="arrowLeft" xlink:href="#dirArrow" transform="rotate(270) translate(-36 17)" onmousedown="handlePan(-1,0)">
                  <use xlink:href="#rim" fill="#404040">
                        <set attributeName="fill" to="#808080" begin="arrowLeft.mouseover" end="arrowLeft.mouseout"/>
                  </use>
                  <path fill="none" stroke="white" stroke-width="1.5" d="M0,-3.0v7 M-2.5,-0.5L0,-3.0L2.5,-0.5"/>
                </g>
        </g>
        <svg viewBox="0 0 15 15" width="100%" height="30px" preserveAspectRatio="xMaxYMin meet">
         <g id="arrow_out" transform="scale(0.3 0.3)">
          <a xlink:href="class_photon_1_1_realtime_1_1_room_a56e911de4cd47b4fd2dba63830c35ed3_icgraph_org.svg" target="_base">
           <rect id="button" ry="5" rx="5" y="6" x="6" height="38" width="38"
                fill="#f2f5e9" fill-opacity="0.5" stroke="#606060" stroke-width="1.0"/>
           <path id="arrow"
             d="M 11.500037,31.436501 C 11.940474,20.09759 22.043105,11.32322 32.158766,21.979434 L 37.068811,17.246167 C 37.068811,17.246167 37.088388,32 37.088388,32 L 22.160133,31.978069 C 22.160133,31.978069 26.997745,27.140456 26.997745,27.140456 C 18.528582,18.264221 13.291696,25.230495 11.500037,31.436501 z"
             style="fill:#404040;"/>
          </a>
         </g>
        </svg>
</svg>
