<?xml version="1.0" encoding="UTF-8" standalone="no"?>
<!DOCTYPE svg PUBLIC "-//W3C//DTD SVG 1.1//EN"
 "http://www.w3.org/Graphics/SVG/1.1/DTD/svg11.dtd">
<!-- Generated by graphviz version 2.47.3 (20210619.1520)
 -->
<!-- Title: RespawnCanvas.Update Pages: 1 -->
<svg width="844pt" height="182pt"
 viewBox="0.00 0.00 844.00 181.50" xmlns="http://www.w3.org/2000/svg" xmlns:xlink="http://www.w3.org/1999/xlink">
<g id="graph0" class="graph" transform="scale(1 1) rotate(0) translate(4 177.5)">
<title>RespawnCanvas.Update</title>
<!-- Node1 -->
<g id="node1" class="node">
<title>Node1</title>
<g id="a_node1"><a xlink:title=" ">
<polygon fill="#bfbfbf" stroke="black" points="0,-104.5 0,-123.5 122,-123.5 122,-104.5 0,-104.5"/>
<text text-anchor="middle" x="61" y="-111.5" font-family="Helvetica,sans-Serif" font-size="10.00">RespawnCanvas.Update</text>
</a>
</g>
</g>
<!-- Node2 -->
<g id="node2" class="node">
<title>Node2</title>
<g id="a_node2"><a xlink:href="class_respawn_canvas.html#a5936d81c38156d99c5e38554d6bd7100" target="_top" xlink:title="Returns the instant respawn gold cost for a given count.">
<polygon fill="none" stroke="black" points="158,-143 158,-173 304,-173 304,-143 158,-143"/>
<text text-anchor="start" x="166" y="-161" font-family="Helvetica,sans-Serif" font-size="10.00">RespawnCanvas.GetRespawn</text>
<text text-anchor="middle" x="231" y="-150" font-family="Helvetica,sans-Serif" font-size="10.00">GoldCost</text>
</a>
</g>
</g>
<!-- Node1&#45;&gt;Node2 -->
<g id="edge1" class="edge">
<title>Node1&#45;&gt;Node2</title>
<path fill="none" stroke="midnightblue" d="M98.45,-123.55C117.2,-128.46 140.66,-134.6 162.55,-140.33"/>
<polygon fill="midnightblue" stroke="midnightblue" points="161.92,-143.79 172.48,-142.93 163.69,-137.02 161.92,-143.79"/>
</g>
<!-- Node3 -->
<g id="node3" class="node">
<title>Node3</title>
<g id="a_node3"><a xlink:href="class_inventory.html#a082ecfd863641ad40a7582834e3d786e" target="_top" xlink:title=" ">
<polygon fill="none" stroke="black" points="167,-104.5 167,-123.5 295,-123.5 295,-104.5 167,-104.5"/>
<text text-anchor="middle" x="231" y="-111.5" font-family="Helvetica,sans-Serif" font-size="10.00">Inventory.HasEnoughGold</text>
</a>
</g>
</g>
<!-- Node1&#45;&gt;Node3 -->
<g id="edge2" class="edge">
<title>Node1&#45;&gt;Node3</title>
<path fill="none" stroke="midnightblue" d="M122.18,-114C133.39,-114 145.22,-114 156.78,-114"/>
<polygon fill="midnightblue" stroke="midnightblue" points="156.84,-117.5 166.84,-114 156.84,-110.5 156.84,-117.5"/>
</g>
<!-- Node4 -->
<g id="node4" class="node">
<title>Node4</title>
<g id="a_node4"><a xlink:href="class_player_stats.html#a27fb46ca044608f34db45eb95ac16b4c" target="_top" xlink:title=" ">
<polygon fill="none" stroke="black" points="176,-66.5 176,-85.5 286,-85.5 286,-66.5 176,-66.5"/>
<text text-anchor="middle" x="231" y="-73.5" font-family="Helvetica,sans-Serif" font-size="10.00">PlayerStats.Respawn</text>
</a>
</g>
</g>
<!-- Node1&#45;&gt;Node4 -->
<g id="edge3" class="edge">
<title>Node1&#45;&gt;Node4</title>
<path fill="none" stroke="midnightblue" d="M104.39,-104.41C126.76,-99.35 154.4,-93.1 178.05,-87.75"/>
<polygon fill="midnightblue" stroke="midnightblue" points="178.93,-91.14 187.91,-85.52 177.39,-84.31 178.93,-91.14"/>
</g>
<!-- Node5 -->
<g id="node5" class="node">
<title>Node5</title>
<g id="a_node5"><a xlink:href="class_player_stats.html#a07cb6a60391d769fea03f1bc3b6927c6" target="_top" xlink:title=" ">
<polygon fill="none" stroke="black" points="356.5,-88.5 356.5,-107.5 466.5,-107.5 466.5,-88.5 356.5,-88.5"/>
<text text-anchor="middle" x="411.5" y="-95.5" font-family="Helvetica,sans-Serif" font-size="10.00">PlayerStats.HealRPC</text>
</a>
</g>
</g>
<!-- Node4&#45;&gt;Node5 -->
<g id="edge4" class="edge">
<title>Node4&#45;&gt;Node5</title>
<path fill="none" stroke="midnightblue" d="M286.04,-82.66C305,-85 326.49,-87.65 346.21,-90.08"/>
<polygon fill="midnightblue" stroke="midnightblue" points="345.98,-93.57 356.34,-91.32 346.84,-86.63 345.98,-93.57"/>
</g>
<!-- Node9 -->
<g id="node9" class="node">
<title>Node9</title>
<g id="a_node9"><a xlink:href="class_player_stats.html#a0348bfd846a1fb5122239414e9ec558b" target="_top" xlink:title=" ">
<polygon fill="none" stroke="black" points="340,-44.5 340,-63.5 483,-63.5 483,-44.5 340,-44.5"/>
<text text-anchor="middle" x="411.5" y="-51.5" font-family="Helvetica,sans-Serif" font-size="10.00">PlayerStats.RegenManaRPC</text>
</a>
</g>
</g>
<!-- Node4&#45;&gt;Node9 -->
<g id="edge9" class="edge">
<title>Node4&#45;&gt;Node9</title>
<path fill="none" stroke="midnightblue" d="M286.04,-69.34C299.8,-67.64 314.88,-65.78 329.66,-63.96"/>
<polygon fill="midnightblue" stroke="midnightblue" points="330.32,-67.41 339.82,-62.71 329.46,-60.46 330.32,-67.41"/>
</g>
<!-- Node6 -->
<g id="node6" class="node">
<title>Node6</title>
<g id="a_node6"><a xlink:href="class_player_u_i_controller.html#aca577b724c1f3f2ed54ad1165a7842c2" target="_top" xlink:title="Sets the current HP value to the Image.">
<polygon fill="none" stroke="black" points="532.5,-127 532.5,-157 660.5,-157 660.5,-127 532.5,-127"/>
<text text-anchor="start" x="540.5" y="-145" font-family="Helvetica,sans-Serif" font-size="10.00">PlayerUIController.Update</text>
<text text-anchor="middle" x="596.5" y="-134" font-family="Helvetica,sans-Serif" font-size="10.00">CurrentHP</text>
</a>
</g>
</g>
<!-- Node5&#45;&gt;Node6 -->
<g id="edge5" class="edge">
<title>Node5&#45;&gt;Node6</title>
<path fill="none" stroke="midnightblue" d="M452.21,-107.55C472.9,-112.52 498.87,-118.77 522.99,-124.57"/>
<polygon fill="midnightblue" stroke="midnightblue" points="522.3,-128 532.84,-126.93 523.94,-121.19 522.3,-128"/>
</g>
<!-- Node8 -->
<g id="node8" class="node">
<title>Node8</title>
<g id="a_node8"><a xlink:href="class_player_h_u_d_controller.html#ab2461120d3cfef6e83b38062b1373e04" target="_top" xlink:title=" ">
<polygon fill="none" stroke="black" points="520,-88.5 520,-107.5 673,-107.5 673,-88.5 520,-88.5"/>
<text text-anchor="middle" x="596.5" y="-95.5" font-family="Helvetica,sans-Serif" font-size="10.00">PlayerHUDController.UpdateHP</text>
</a>
</g>
</g>
<!-- Node5&#45;&gt;Node8 -->
<g id="edge7" class="edge">
<title>Node5&#45;&gt;Node8</title>
<path fill="none" stroke="midnightblue" d="M466.91,-98C480.44,-98 495.26,-98 509.89,-98"/>
<polygon fill="midnightblue" stroke="midnightblue" points="509.96,-101.5 519.96,-98 509.96,-94.5 509.96,-101.5"/>
</g>
<!-- Node7 -->
<g id="node7" class="node">
<title>Node7</title>
<g id="a_node7"><a xlink:href="class_utils.html#a459472171f68c903c975020cc5b02fee" target="_top" xlink:title="Calculates the actual normalized fill amount for the image.">
<polygon fill="none" stroke="black" points="710,-66.5 710,-85.5 836,-85.5 836,-66.5 710,-66.5"/>
<text text-anchor="middle" x="773" y="-73.5" font-family="Helvetica,sans-Serif" font-size="10.00">Utils.CalculateFillAmount</text>
</a>
</g>
</g>
<!-- Node6&#45;&gt;Node7 -->
<g id="edge6" class="edge">
<title>Node6&#45;&gt;Node7</title>
<path fill="none" stroke="midnightblue" d="M645.45,-126.98C654.96,-123.82 664.83,-120.41 674,-117 696.67,-108.57 721.83,-98.02 740.98,-89.73"/>
<polygon fill="midnightblue" stroke="midnightblue" points="742.63,-92.83 750.4,-85.62 739.84,-86.41 742.63,-92.83"/>
</g>
<!-- Node8&#45;&gt;Node7 -->
<g id="edge8" class="edge">
<title>Node8&#45;&gt;Node7</title>
<path fill="none" stroke="midnightblue" d="M673.02,-88.48C681.99,-87.35 691.13,-86.2 700.04,-85.07"/>
<polygon fill="midnightblue" stroke="midnightblue" points="700.51,-88.54 710,-83.82 699.64,-81.6 700.51,-88.54"/>
</g>
<!-- Node10 -->
<g id="node10" class="node">
<title>Node10</title>
<g id="a_node10"><a xlink:href="class_player_u_i_controller.html#ac7bf7455ce00b144f6a1678e524819b2" target="_top" xlink:title="Sets the current MP value to the Image.">
<polygon fill="none" stroke="black" points="532.5,-39 532.5,-69 660.5,-69 660.5,-39 532.5,-39"/>
<text text-anchor="start" x="540.5" y="-57" font-family="Helvetica,sans-Serif" font-size="10.00">PlayerUIController.Update</text>
<text text-anchor="middle" x="596.5" y="-46" font-family="Helvetica,sans-Serif" font-size="10.00">CurrentMana</text>
</a>
</g>
</g>
<!-- Node9&#45;&gt;Node10 -->
<g id="edge10" class="edge">
<title>Node9&#45;&gt;Node10</title>
<path fill="none" stroke="midnightblue" d="M483.25,-54C496.03,-54 509.38,-54 522.22,-54"/>
<polygon fill="midnightblue" stroke="midnightblue" points="522.4,-57.5 532.4,-54 522.4,-50.5 522.4,-57.5"/>
</g>
<!-- Node11 -->
<g id="node11" class="node">
<title>Node11</title>
<g id="a_node11"><a xlink:href="class_player_h_u_d_controller.html#a09d27238c0e659b8f98828367c7622ba" target="_top" xlink:title=" ">
<polygon fill="none" stroke="black" points="519,-0.5 519,-19.5 674,-19.5 674,-0.5 519,-0.5"/>
<text text-anchor="middle" x="596.5" y="-7.5" font-family="Helvetica,sans-Serif" font-size="10.00">PlayerHUDController.UpdateMP</text>
</a>
</g>
</g>
<!-- Node9&#45;&gt;Node11 -->
<g id="edge12" class="edge">
<title>Node9&#45;&gt;Node11</title>
<path fill="none" stroke="midnightblue" d="M452.21,-44.45C479.67,-37.85 516.4,-29.02 545.8,-21.95"/>
<polygon fill="midnightblue" stroke="midnightblue" points="546.96,-25.27 555.87,-19.53 545.33,-18.46 546.96,-25.27"/>
</g>
<!-- Node10&#45;&gt;Node7 -->
<g id="edge11" class="edge">
<title>Node10&#45;&gt;Node7</title>
<path fill="none" stroke="midnightblue" d="M660.99,-62C673.53,-63.58 686.77,-65.25 699.57,-66.87"/>
<polygon fill="midnightblue" stroke="midnightblue" points="699.36,-70.37 709.72,-68.15 700.24,-63.42 699.36,-70.37"/>
</g>
<!-- Node11&#45;&gt;Node7 -->
<g id="edge13" class="edge">
<title>Node11&#45;&gt;Node7</title>
<path fill="none" stroke="midnightblue" d="M642.45,-19.54C652.93,-22.21 663.96,-25.39 674,-29 699.18,-38.06 726.53,-51.5 745.92,-61.69"/>
<polygon fill="midnightblue" stroke="midnightblue" points="744.29,-64.79 754.76,-66.4 747.58,-58.61 744.29,-64.79"/>
</g>
</g>
</svg>
