<?xml version="1.0" encoding="UTF-8" standalone="no"?>
<!DOCTYPE svg PUBLIC "-//W3C//DTD SVG 1.1//EN"
 "http://www.w3.org/Graphics/SVG/1.1/DTD/svg11.dtd">
<!-- Generated by graphviz version 2.47.3 (20210619.1520)
 -->
<!-- Title: Photon.Pun.Demo.SlotRacer.PlayerControl Pages: 1 -->
<svg width="210pt" height="151pt"
 viewBox="0.00 0.00 210.00 151.00" xmlns="http://www.w3.org/2000/svg" xmlns:xlink="http://www.w3.org/1999/xlink">
<g id="graph0" class="graph" transform="scale(1 1) rotate(0) translate(4 147)">
<title>Photon.Pun.Demo.SlotRacer.PlayerControl</title>
<polygon fill="white" stroke="transparent" points="-4,4 -4,-147 206,-147 206,4 -4,4"/>
<!-- Node1 -->
<g id="node1" class="node">
<title>Node1</title>
<g id="a_node1"><a xlink:title="Player control.">
<polygon fill="#bfbfbf" stroke="black" points="32.5,-0.5 32.5,-30.5 177.5,-30.5 177.5,-0.5 32.5,-0.5"/>
<text text-anchor="start" x="40.5" y="-18.5" font-family="Helvetica,sans-Serif" font-size="10.00">Photon.Pun.Demo.SlotRacer.</text>
<text text-anchor="middle" x="105" y="-7.5" font-family="Helvetica,sans-Serif" font-size="10.00">PlayerControl</text>
</a>
</g>
</g>
<!-- Node2 -->
<g id="node2" class="node">
<title>Node2</title>
<g id="a_node2"><a xlink:href="class_photon_1_1_pun_1_1_mono_behaviour_pun.xhtml" target="_top" xlink:title="This class adds the property photonView, while logging a warning when your game still uses the networ...">
<polygon fill="white" stroke="black" points="0,-67.5 0,-86.5 100,-86.5 100,-67.5 0,-67.5"/>
<text text-anchor="middle" x="50" y="-74.5" font-family="Helvetica,sans-Serif" font-size="10.00">MonoBehaviourPun</text>
</a>
</g>
</g>
<!-- Node2&#45;&gt;Node1 -->
<g id="edge1" class="edge">
<title>Node2&#45;&gt;Node1</title>
<path fill="none" stroke="midnightblue" d="M64.71,-60.09C73.22,-50.88 83.84,-39.39 92.04,-30.52"/>
<polygon fill="midnightblue" stroke="midnightblue" points="62.1,-57.76 57.88,-67.48 67.24,-62.51 62.1,-57.76"/>
</g>
<!-- Node3 -->
<g id="node3" class="node">
<title>Node3</title>
<g id="a_node3"><a xlink:title=" ">
<polygon fill="white" stroke="#bfbfbf" points="8.5,-123.5 8.5,-142.5 91.5,-142.5 91.5,-123.5 8.5,-123.5"/>
<text text-anchor="middle" x="50" y="-130.5" font-family="Helvetica,sans-Serif" font-size="10.00">MonoBehaviour</text>
</a>
</g>
</g>
<!-- Node3&#45;&gt;Node2 -->
<g id="edge2" class="edge">
<title>Node3&#45;&gt;Node2</title>
<path fill="none" stroke="midnightblue" d="M50,-112.8C50,-103.91 50,-93.78 50,-86.75"/>
<polygon fill="midnightblue" stroke="midnightblue" points="46.5,-113.08 50,-123.08 53.5,-113.08 46.5,-113.08"/>
</g>
<!-- Node4 -->
<g id="node4" class="node">
<title>Node4</title>
<g id="a_node4"><a xlink:href="interface_photon_1_1_pun_1_1_i_pun_observable.xhtml" target="_top" xlink:title="Defines the OnPhotonSerializeView method to make it easy to implement correctly for observable script...">
<polygon fill="white" stroke="black" points="118,-67.5 118,-86.5 202,-86.5 202,-67.5 118,-67.5"/>
<text text-anchor="middle" x="160" y="-74.5" font-family="Helvetica,sans-Serif" font-size="10.00">IPunObservable</text>
</a>
</g>
</g>
<!-- Node4&#45;&gt;Node1 -->
<g id="edge3" class="edge">
<title>Node4&#45;&gt;Node1</title>
<path fill="none" stroke="midnightblue" d="M145.29,-60.09C136.78,-50.88 126.16,-39.39 117.96,-30.52"/>
<polygon fill="midnightblue" stroke="midnightblue" points="142.76,-62.51 152.12,-67.48 147.9,-57.76 142.76,-62.51"/>
</g>
</g>
</svg>
