<?xml version="1.0" encoding="UTF-8" standalone="no"?>
<!DOCTYPE svg PUBLIC "-//W3C//DTD SVG 1.1//EN"
 "http://www.w3.org/Graphics/SVG/1.1/DTD/svg11.dtd">
<!-- Generated by graphviz version 2.47.3 (20210619.1520)
 -->
<!-- Title: EffectManager Pages: 1 -->
<!--zoomable 429 -->
<svg id="main" version="1.1" xmlns="http://www.w3.org/2000/svg" xmlns:xlink="http://www.w3.org/1999/xlink" xml:space="preserve" onload="init(evt)">
<style type="text/css"><![CDATA[
.edge:hover path { stroke: red; }
.edge:hover polygon { stroke: red; fill: red; }
]]></style>
<script type="text/javascript"><![CDATA[
var edges = document.getElementsByTagName('g');
if (edges && edges.length) {
  for (var i=0;i<edges.length;i++) {
    if (edges[i].id.substr(0,4)=='edge') {
      edges[i].setAttribute('class','edge');
    }
  }
}
]]></script>
        <defs>
                <circle id="rim" cx="0" cy="0" r="7"/>
                <circle id="rim2" cx="0" cy="0" r="3.5"/>
                <g id="zoomPlus">
                        <use xlink:href="#rim" fill="#404040">
                                <set attributeName="fill" to="#808080" begin="zoomplus.mouseover" end="zoomplus.mouseout"/>
                        </use>
                        <path d="M-4,0h8M0,-4v8" fill="none" stroke="white" stroke-width="1.5" pointer-events="none"/>
                </g>
                <g id="zoomMin">
                        <use xlink:href="#rim" fill="#404040">
                                <set attributeName="fill" to="#808080" begin="zoomminus.mouseover" end="zoomminus.mouseout"/>
                        </use>
                        <path d="M-4,0h8" fill="none" stroke="white" stroke-width="1.5" pointer-events="none"/>
                </g>
                <g id="dirArrow">
                        <path fill="none" stroke="white" stroke-width="1.5" d="M0,-3.0v7 M-2.5,-0.5L0,-3.0L2.5,-0.5"/>
                </g>
               <g id="resetDef">
                       <use xlink:href="#rim2" fill="#404040">
                               <set attributeName="fill" to="#808080" begin="reset.mouseover" end="reset.mouseout"/>
                       </use>
               </g>
        </defs>

<script type="text/javascript">
var viewWidth = 958;
var viewHeight = 429;
var sectionId = 'dynsection-1';
</script>
<script xlink:href="svgpan.js"/>
<svg id="graph" class="graph">
<g id="viewport">
<title>EffectManager</title>
<polygon fill="white" stroke="transparent" points="-4,4 -4,-425 954,-425 954,4 -4,4"/>
<!-- Node1 -->
<g id="node1" class="node">
<title>Node1</title>
<g id="a_node1"><a xlink:title=" ">
<polygon fill="#bfbfbf" stroke="black" points="74.5,-134.5 74.5,-153.5 153.5,-153.5 153.5,-134.5 74.5,-134.5"/>
<text text-anchor="middle" x="114" y="-141.5" font-family="Helvetica,sans-Serif" font-size="10.00">EffectManager</text>
</a>
</g>
</g>
<!-- Node2 -->
<g id="node2" class="node">
<title>Node2</title>
<g id="a_node2"><a xlink:title=" ">
<polygon fill="white" stroke="#bfbfbf" points="309.5,-401.5 309.5,-420.5 392.5,-420.5 392.5,-401.5 309.5,-401.5"/>
<text text-anchor="middle" x="351" y="-408.5" font-family="Helvetica,sans-Serif" font-size="10.00">MonoBehaviour</text>
</a>
</g>
</g>
<!-- Node2&#45;&gt;Node1 -->
<g id="edge1" class="edge">
<title>Node2&#45;&gt;Node1</title>
<path fill="none" stroke="midnightblue" d="M299.44,-407.83C232.19,-403.56 123,-391.07 123,-355 123,-355 123,-355 123,-243.5 123,-210.19 117.83,-170.8 115.33,-153.67"/>
<polygon fill="midnightblue" stroke="midnightblue" points="299.26,-411.32 309.45,-408.42 299.67,-404.33 299.26,-411.32"/>
</g>
<!-- Node5 -->
<g id="node5" class="node">
<title>Node5</title>
<g id="a_node5"><a xlink:href="class_stats.xhtml" target="_top" xlink:title="Base class Stats of the entity.">
<polygon fill="white" stroke="black" points="199,-344.5 199,-363.5 239,-363.5 239,-344.5 199,-344.5"/>
<text text-anchor="middle" x="219" y="-351.5" font-family="Helvetica,sans-Serif" font-size="10.00">Stats</text>
</a>
</g>
</g>
<!-- Node2&#45;&gt;Node5 -->
<g id="edge5" class="edge">
<title>Node2&#45;&gt;Node5</title>
<path fill="none" stroke="midnightblue" d="M320.97,-397.49C295.89,-387.04 260.84,-372.43 239.05,-363.35"/>
<polygon fill="midnightblue" stroke="midnightblue" points="319.8,-400.79 330.38,-401.41 322.49,-394.33 319.8,-400.79"/>
</g>
<!-- Node7 -->
<g id="node7" class="node">
<title>Node7</title>
<g id="a_node7"><a xlink:href="class_u_i_controller.xhtml" target="_top" xlink:title=" ">
<polygon fill="white" stroke="black" points="351.5,-344.5 351.5,-363.5 418.5,-363.5 418.5,-344.5 351.5,-344.5"/>
<text text-anchor="middle" x="385" y="-351.5" font-family="Helvetica,sans-Serif" font-size="10.00">UIController</text>
</a>
</g>
</g>
<!-- Node2&#45;&gt;Node7 -->
<g id="edge8" class="edge">
<title>Node2&#45;&gt;Node7</title>
<path fill="none" stroke="midnightblue" d="M361.73,-392.64C367.68,-383.01 374.83,-371.46 379.61,-363.71"/>
<polygon fill="midnightblue" stroke="midnightblue" points="358.59,-391.06 356.31,-401.41 364.55,-394.74 358.59,-391.06"/>
</g>
<!-- Node8 -->
<g id="node8" class="node">
<title>Node8</title>
<g id="a_node8"><a xlink:href="class_player_controller.xhtml" target="_top" xlink:title="Player Controller is the main class that handles all the movement of the Player.">
<polygon fill="white" stroke="black" points="434,-134.5 434,-153.5 520,-153.5 520,-134.5 434,-134.5"/>
<text text-anchor="middle" x="477" y="-141.5" font-family="Helvetica,sans-Serif" font-size="10.00">PlayerController</text>
</a>
</g>
</g>
<!-- Node2&#45;&gt;Node8 -->
<g id="edge10" class="edge">
<title>Node2&#45;&gt;Node8</title>
<path fill="none" stroke="midnightblue" d="M402.84,-401.82C448.24,-393.15 507,-377.56 507,-355 507,-355 507,-355 507,-210 507,-188.13 492.82,-165.61 483.96,-153.67"/>
<polygon fill="midnightblue" stroke="midnightblue" points="402.01,-398.41 392.81,-403.67 403.27,-405.3 402.01,-398.41"/>
</g>
<!-- Node9 -->
<g id="node9" class="node">
<title>Node9</title>
<g id="a_node9"><a xlink:href="class_ability_cooldown.xhtml" target="_top" xlink:title=" ">
<polygon fill="white" stroke="black" points="511,-67.5 511,-86.5 597,-86.5 597,-67.5 511,-67.5"/>
<text text-anchor="middle" x="554" y="-74.5" font-family="Helvetica,sans-Serif" font-size="10.00">AbilityCooldown</text>
</a>
</g>
</g>
<!-- Node2&#45;&gt;Node9 -->
<g id="edge12" class="edge">
<title>Node2&#45;&gt;Node9</title>
<path fill="none" stroke="midnightblue" d="M402.65,-409.06C476.38,-406.29 603,-395.63 603,-355 603,-355 603,-355 603,-210 603,-162.49 649.78,-144.24 623,-105 616.91,-96.08 607.39,-90.1 597.34,-86.1"/>
<polygon fill="midnightblue" stroke="midnightblue" points="402.49,-405.56 392.61,-409.4 402.73,-412.56 402.49,-405.56"/>
</g>
<!-- Node13 -->
<g id="node13" class="node">
<title>Node13</title>
<g id="a_node13"><a xlink:href="class_ability_indicator.xhtml" target="_top" xlink:title=" ">
<polygon fill="white" stroke="black" points="624,-0.5 624,-19.5 704,-19.5 704,-0.5 624,-0.5"/>
<text text-anchor="middle" x="664" y="-7.5" font-family="Helvetica,sans-Serif" font-size="10.00">AbilityIndicator</text>
</a>
</g>
</g>
<!-- Node2&#45;&gt;Node13 -->
<g id="edge19" class="edge">
<title>Node2&#45;&gt;Node13</title>
<path fill="none" stroke="midnightblue" d="M402.76,-406.26C492.63,-399.05 668,-381.59 668,-355 668,-355 668,-355 668,-243.5 668,-156.94 675.78,-135.53 678,-49 678.13,-44.11 679.16,-42.75 678,-38 676.4,-31.43 672.9,-24.68 669.8,-19.58"/>
<polygon fill="midnightblue" stroke="midnightblue" points="402.46,-402.77 392.77,-407.04 403.01,-409.75 402.46,-402.77"/>
</g>
<!-- Node16 -->
<g id="node16" class="node">
<title>Node16</title>
<g id="a_node16"><a xlink:href="class_basic_attack.xhtml" target="_top" xlink:title=" ">
<polygon fill="white" stroke="black" points="155,-67.5 155,-86.5 225,-86.5 225,-67.5 155,-67.5"/>
<text text-anchor="middle" x="190" y="-74.5" font-family="Helvetica,sans-Serif" font-size="10.00">BasicAttack</text>
</a>
</g>
</g>
<!-- Node2&#45;&gt;Node16 -->
<g id="edge30" class="edge">
<title>Node2&#45;&gt;Node16</title>
<path fill="none" stroke="midnightblue" d="M299.11,-407.14C201.43,-401.06 0,-384.91 0,-355 0,-355 0,-355 0,-143 0,-110.66 99.76,-91.06 154.71,-82.72"/>
<polygon fill="midnightblue" stroke="midnightblue" points="299.16,-410.65 309.36,-407.77 299.59,-403.67 299.16,-410.65"/>
</g>
<!-- Node17 -->
<g id="node17" class="node">
<title>Node17</title>
<g id="a_node17"><a xlink:href="class_inventory.xhtml" target="_top" xlink:title=" ">
<polygon fill="white" stroke="black" points="281.5,-306.5 281.5,-325.5 336.5,-325.5 336.5,-306.5 281.5,-306.5"/>
<text text-anchor="middle" x="309" y="-313.5" font-family="Helvetica,sans-Serif" font-size="10.00">Inventory</text>
</a>
</g>
</g>
<!-- Node2&#45;&gt;Node17 -->
<g id="edge36" class="edge">
<title>Node2&#45;&gt;Node17</title>
<path fill="none" stroke="midnightblue" d="M342.95,-392.17C333.93,-372.2 319.67,-340.63 312.87,-325.56"/>
<polygon fill="midnightblue" stroke="midnightblue" points="339.82,-393.74 347.12,-401.42 346.2,-390.86 339.82,-393.74"/>
</g>
<!-- Node3 -->
<g id="node3" class="node">
<title>Node3</title>
<g id="a_node3"><a xlink:href="class_player_stats.xhtml" target="_top" xlink:title="Player Stats is the main class that controls all the Player Statistics in all time in the game execut...">
<polygon fill="white" stroke="black" points="272,-201.5 272,-220.5 340,-220.5 340,-201.5 272,-201.5"/>
<text text-anchor="middle" x="306" y="-208.5" font-family="Helvetica,sans-Serif" font-size="10.00">PlayerStats</text>
</a>
</g>
</g>
<!-- Node3&#45;&gt;Node1 -->
<g id="edge2" class="edge">
<title>Node3&#45;&gt;Node1</title>
<path fill="none" stroke="#9a32cd" stroke-dasharray="5,2" d="M261.69,-208.85C230.18,-206.46 187.64,-199.99 154,-183 140.15,-176 127.81,-162.64 120.62,-153.78"/>
<polygon fill="#9a32cd" stroke="#9a32cd" points="261.73,-212.35 271.93,-209.51 262.18,-205.37 261.73,-212.35"/>
<text text-anchor="middle" x="166.5" y="-175" font-family="Helvetica,sans-Serif" font-size="10.00"> stats</text>
</g>
<!-- Node3&#45;&gt;Node8 -->
<g id="edge28" class="edge">
<title>Node3&#45;&gt;Node8</title>
<path fill="none" stroke="#9a32cd" stroke-dasharray="5,2" d="M350.39,-208.9C379.09,-206.44 416.31,-199.86 445,-183 457.05,-175.92 466.66,-162.58 472.1,-153.74"/>
<polygon fill="#9a32cd" stroke="#9a32cd" points="349.96,-205.42 340.23,-209.63 350.46,-212.4 349.96,-205.42"/>
<text text-anchor="middle" x="469.5" y="-175" font-family="Helvetica,sans-Serif" font-size="10.00"> stats</text>
</g>
<!-- Node3&#45;&gt;Node9 -->
<g id="edge24" class="edge">
<title>Node3&#45;&gt;Node9</title>
<path fill="none" stroke="#9a32cd" stroke-dasharray="5,2" d="M289.73,-193.71C280.52,-183.31 269.9,-169 265,-154 258.12,-132.95 256.82,-118.97 274,-105 291.95,-90.4 436.75,-82.62 510.77,-79.56"/>
<polygon fill="#9a32cd" stroke="#9a32cd" points="287.29,-196.23 296.67,-201.15 292.4,-191.45 287.29,-196.23"/>
<text text-anchor="middle" x="291.5" y="-141.5" font-family="Helvetica,sans-Serif" font-size="10.00"> playerStats</text>
</g>
<!-- Node3&#45;&gt;Node16 -->
<g id="edge33" class="edge">
<title>Node3&#45;&gt;Node16</title>
<path fill="none" stroke="#9a32cd" stroke-dasharray="5,2" d="M262.31,-198C240.56,-189.54 216.33,-175.74 204,-154 191.55,-132.06 189.84,-101.36 189.8,-86.59"/>
<polygon fill="#9a32cd" stroke="#9a32cd" points="261.16,-201.31 271.75,-201.42 263.54,-194.73 261.16,-201.31"/>
<text text-anchor="middle" x="216.5" y="-141.5" font-family="Helvetica,sans-Serif" font-size="10.00"> stats</text>
</g>
<!-- Node4 -->
<g id="node4" class="node">
<title>Node4</title>
<g id="a_node4"><a xlink:href="class_ability_affected_stats.xhtml" target="_top" xlink:title="Base class Stats of the entity who is affected by Abilities.">
<polygon fill="white" stroke="black" points="168,-268.5 168,-287.5 270,-287.5 270,-268.5 168,-268.5"/>
<text text-anchor="middle" x="219" y="-275.5" font-family="Helvetica,sans-Serif" font-size="10.00">AbilityAffectedStats</text>
</a>
</g>
</g>
<!-- Node4&#45;&gt;Node3 -->
<g id="edge3" class="edge">
<title>Node4&#45;&gt;Node3</title>
<path fill="none" stroke="midnightblue" d="M238.99,-262.07C256.16,-249.24 280.32,-231.19 294.45,-220.63"/>
<polygon fill="midnightblue" stroke="midnightblue" points="236.65,-259.44 230.73,-268.23 240.84,-265.05 236.65,-259.44"/>
</g>
<!-- Node5&#45;&gt;Node4 -->
<g id="edge4" class="edge">
<title>Node5&#45;&gt;Node4</title>
<path fill="none" stroke="midnightblue" d="M219,-334.07C219,-319.18 219,-299.11 219,-287.77"/>
<polygon fill="midnightblue" stroke="midnightblue" points="215.5,-334.22 219,-344.22 222.5,-334.22 215.5,-334.22"/>
</g>
<!-- Node5&#45;&gt;Node16 -->
<g id="edge32" class="edge">
<title>Node5&#45;&gt;Node16</title>
<path fill="none" stroke="#9a32cd" stroke-dasharray="5,2" d="M191.52,-339.93C153.69,-320.22 87.2,-278.93 60,-221 51.45,-202.78 43.59,-164.49 65,-134 85.7,-104.51 125.68,-90.31 154.87,-83.64"/>
<polygon fill="#9a32cd" stroke="#9a32cd" points="189.97,-343.07 200.47,-344.48 193.14,-336.83 189.97,-343.07"/>
<text text-anchor="middle" x="84.5" y="-208.5" font-family="Helvetica,sans-Serif" font-size="10.00"> otherStats</text>
</g>
<!-- Node6 -->
<g id="node6" class="node">
<title>Node6</title>
<g id="a_node6"><a xlink:href="class_player_u_i_controller.xhtml" target="_top" xlink:title="UI Controller for the Player Stats">
<polygon fill="white" stroke="black" points="366.5,-268.5 366.5,-287.5 461.5,-287.5 461.5,-268.5 366.5,-268.5"/>
<text text-anchor="middle" x="414" y="-275.5" font-family="Helvetica,sans-Serif" font-size="10.00">PlayerUIController</text>
</a>
</g>
</g>
<!-- Node6&#45;&gt;Node3 -->
<g id="edge6" class="edge">
<title>Node6&#45;&gt;Node3</title>
<path fill="none" stroke="#9a32cd" stroke-dasharray="5,2" d="M390.64,-262.94C369.25,-250.07 338.28,-231.43 320.33,-220.63"/>
<polygon fill="#9a32cd" stroke="#9a32cd" points="389.06,-266.08 399.43,-268.23 392.67,-260.08 389.06,-266.08"/>
<text text-anchor="middle" x="387" y="-242" font-family="Helvetica,sans-Serif" font-size="10.00"> uiControl</text>
</g>
<!-- Node7&#45;&gt;Node6 -->
<g id="edge7" class="edge">
<title>Node7&#45;&gt;Node6</title>
<path fill="none" stroke="midnightblue" d="M392.25,-334.51C398.1,-319.57 406.08,-299.22 410.56,-287.77"/>
<polygon fill="midnightblue" stroke="midnightblue" points="388.83,-333.63 388.44,-344.22 395.35,-336.19 388.83,-333.63"/>
</g>
<!-- Node8&#45;&gt;Node3 -->
<g id="edge9" class="edge">
<title>Node8&#45;&gt;Node3</title>
<path fill="none" stroke="#9a32cd" stroke-dasharray="5,2" d="M424.6,-156.01C408.12,-160.19 390.05,-165.54 374,-172 363.34,-176.3 336.85,-191.64 320.26,-201.47"/>
<polygon fill="#9a32cd" stroke="#9a32cd" points="425.74,-159.33 434.63,-153.56 424.08,-152.53 425.74,-159.33"/>
<text text-anchor="middle" x="409.5" y="-175" font-family="Helvetica,sans-Serif" font-size="10.00"> playerController</text>
</g>
<!-- Node8&#45;&gt;Node9 -->
<g id="edge13" class="edge">
<title>Node8&#45;&gt;Node9</title>
<path fill="none" stroke="#9a32cd" stroke-dasharray="5,2" d="M522.23,-130.3C529.57,-126.64 536.55,-121.96 542,-116 549.48,-107.84 552.29,-95.03 553.36,-86.58"/>
<polygon fill="#9a32cd" stroke="#9a32cd" points="520.58,-127.21 512.82,-134.42 523.39,-133.62 520.58,-127.21"/>
<text text-anchor="middle" x="583.5" y="-108" font-family="Helvetica,sans-Serif" font-size="10.00"> playerController</text>
</g>
<!-- Node8&#45;&gt;Node16 -->
<g id="edge31" class="edge">
<title>Node8&#45;&gt;Node16</title>
<path fill="none" stroke="#9a32cd" stroke-dasharray="5,2" d="M448.91,-130.42C429.16,-122.05 401.92,-111.45 377,-105 325.08,-91.56 263.2,-84.28 225.26,-80.76"/>
<polygon fill="#9a32cd" stroke="#9a32cd" points="447.67,-133.7 458.23,-134.44 450.44,-127.27 447.67,-133.7"/>
<text text-anchor="middle" x="431.5" y="-108" font-family="Helvetica,sans-Serif" font-size="10.00"> controller</text>
</g>
<!-- Node9&#45;&gt;Node3 -->
<g id="edge34" class="edge">
<title>Node9&#45;&gt;Node3</title>
<path fill="none" stroke="#9a32cd" stroke-dasharray="5,2" d="M500.44,-79.99C430.39,-83.16 315.01,-90.52 302,-105 292.16,-115.95 312.77,-120.24 318,-134 326.83,-157.22 316.49,-186.82 310.18,-201.27"/>
<polygon fill="#9a32cd" stroke="#9a32cd" points="501.01,-83.47 510.85,-79.54 500.7,-76.48 501.01,-83.47"/>
<text text-anchor="middle" x="360" y="-141.5" font-family="Helvetica,sans-Serif" font-size="10.00"> abilityCooldowns</text>
</g>
<!-- Node9&#45;&gt;Node8 -->
<g id="edge11" class="edge">
<title>Node9&#45;&gt;Node8</title>
<path fill="none" stroke="#9a32cd" stroke-dasharray="5,2" d="M501.08,-82.94C487.52,-86.89 474.41,-93.62 466,-105 459.55,-113.73 465.25,-126.16 470.56,-134.39"/>
<polygon fill="#9a32cd" stroke="#9a32cd" points="502.09,-86.3 510.98,-80.54 500.43,-79.5 502.09,-86.3"/>
<text text-anchor="middle" x="504" y="-108" font-family="Helvetica,sans-Serif" font-size="10.00"> abilityCooldowns</text>
</g>
<!-- Node9&#45;&gt;Node13 -->
<g id="edge20" class="edge">
<title>Node9&#45;&gt;Node13</title>
<path fill="none" stroke="#9a32cd" stroke-dasharray="5,2" d="M583.58,-63.22C592.56,-59.01 602.34,-54.1 611,-49 626.22,-40.04 642.57,-27.89 653.02,-19.76"/>
<polygon fill="#9a32cd" stroke="#9a32cd" points="581.88,-60.15 574.24,-67.48 584.79,-66.52 581.88,-60.15"/>
<text text-anchor="middle" x="650.5" y="-41" font-family="Helvetica,sans-Serif" font-size="10.00"> currentCD</text>
</g>
<!-- Node10 -->
<g id="node10" class="node">
<title>Node10</title>
<g id="a_node10"><a xlink:href="class_ability.xhtml" target="_top" xlink:title=" ">
<polygon fill="white" stroke="black" points="755,-268.5 755,-287.5 799,-287.5 799,-268.5 755,-268.5"/>
<text text-anchor="middle" x="777" y="-275.5" font-family="Helvetica,sans-Serif" font-size="10.00">Ability</text>
</a>
</g>
</g>
<!-- Node10&#45;&gt;Node9 -->
<g id="edge14" class="edge">
<title>Node10&#45;&gt;Node9</title>
<path fill="none" stroke="#9a32cd" stroke-dasharray="5,2" d="M778.13,-258.41C778.21,-252.2 777.97,-245.28 777,-239 774.3,-221.5 774.38,-216.02 765,-201 732.19,-148.47 718.34,-134.71 664,-105 643.47,-93.77 618.26,-87.15 597.15,-83.28"/>
<polygon fill="#9a32cd" stroke="#9a32cd" points="774.63,-258.36 777.74,-268.49 781.62,-258.64 774.63,-258.36"/>
<text text-anchor="middle" x="766.5" y="-175" font-family="Helvetica,sans-Serif" font-size="10.00"> ability</text>
</g>
<!-- Node14 -->
<g id="node14" class="node">
<title>Node14</title>
<g id="a_node14"><a xlink:href="class_indicated_ability.xhtml" target="_top" xlink:title="Encapsulador de les Ability que han de mostrar l&#39;indicador">
<polygon fill="white" stroke="black" points="819.5,-201.5 819.5,-220.5 902.5,-220.5 902.5,-201.5 819.5,-201.5"/>
<text text-anchor="middle" x="861" y="-208.5" font-family="Helvetica,sans-Serif" font-size="10.00">IndicatedAbility</text>
</a>
</g>
</g>
<!-- Node10&#45;&gt;Node14 -->
<g id="edge22" class="edge">
<title>Node10&#45;&gt;Node14</title>
<path fill="none" stroke="midnightblue" d="M796.3,-262.07C812.88,-249.24 836.21,-231.19 849.85,-220.63"/>
<polygon fill="midnightblue" stroke="midnightblue" points="794.1,-259.35 788.33,-268.23 798.38,-264.88 794.1,-259.35"/>
</g>
<!-- Node15 -->
<g id="node15" class="node">
<title>Node15</title>
<g id="a_node15"><a xlink:href="class_character.xhtml" target="_top" xlink:title=" ">
<polygon fill="white" stroke="black" points="696.5,-201.5 696.5,-220.5 755.5,-220.5 755.5,-201.5 696.5,-201.5"/>
<text text-anchor="middle" x="726" y="-208.5" font-family="Helvetica,sans-Serif" font-size="10.00">Character</text>
</a>
</g>
</g>
<!-- Node10&#45;&gt;Node15 -->
<g id="edge27" class="edge">
<title>Node10&#45;&gt;Node15</title>
<path fill="none" stroke="#9a32cd" stroke-dasharray="5,2" d="M752.82,-262.55C748.1,-258.91 743.53,-254.68 740,-250 733.31,-241.13 729.54,-228.74 727.64,-220.55"/>
<polygon fill="#9a32cd" stroke="#9a32cd" points="751.06,-265.59 761.27,-268.45 755.07,-259.85 751.06,-265.59"/>
<text text-anchor="middle" x="758.5" y="-242" font-family="Helvetica,sans-Serif" font-size="10.00"> abilities</text>
</g>
<!-- Node11 -->
<g id="node11" class="node">
<title>Node11</title>
<g id="a_node11"><a xlink:title=" ">
<polygon fill="white" stroke="#bfbfbf" points="699.5,-401.5 699.5,-420.5 788.5,-420.5 788.5,-401.5 699.5,-401.5"/>
<text text-anchor="middle" x="744" y="-408.5" font-family="Helvetica,sans-Serif" font-size="10.00">ScriptableObject</text>
</a>
</g>
</g>
<!-- Node11&#45;&gt;Node10 -->
<g id="edge15" class="edge">
<title>Node11&#45;&gt;Node10</title>
<path fill="none" stroke="midnightblue" d="M748.67,-391.47C755.88,-362.83 769.46,-308.92 774.78,-287.8"/>
<polygon fill="midnightblue" stroke="midnightblue" points="745.21,-390.85 746.17,-401.4 752,-392.56 745.21,-390.85"/>
</g>
<!-- Node12 -->
<g id="node12" class="node">
<title>Node12</title>
<g id="a_node12"><a xlink:href="class_effect.xhtml" target="_top" xlink:title="Abstract base info container class for an Effect.">
<polygon fill="white" stroke="black" points="772.5,-344.5 772.5,-363.5 813.5,-363.5 813.5,-344.5 772.5,-344.5"/>
<text text-anchor="middle" x="793" y="-351.5" font-family="Helvetica,sans-Serif" font-size="10.00">Effect</text>
</a>
</g>
</g>
<!-- Node11&#45;&gt;Node12 -->
<g id="edge17" class="edge">
<title>Node11&#45;&gt;Node12</title>
<path fill="none" stroke="midnightblue" d="M758.41,-393.83C767.18,-383.98 778.05,-371.78 785.24,-363.71"/>
<polygon fill="midnightblue" stroke="midnightblue" points="755.7,-391.61 751.66,-401.41 760.92,-396.27 755.7,-391.61"/>
</g>
<!-- Node11&#45;&gt;Node15 -->
<g id="edge26" class="edge">
<title>Node11&#45;&gt;Node15</title>
<path fill="none" stroke="midnightblue" d="M742.14,-391.1C739.21,-361.18 733.41,-301.04 729,-250 728.13,-239.98 727.24,-228.46 726.65,-220.76"/>
<polygon fill="midnightblue" stroke="midnightblue" points="738.68,-391.72 743.14,-401.33 745.65,-391.04 738.68,-391.72"/>
</g>
<!-- Node12&#45;&gt;Node10 -->
<g id="edge16" class="edge">
<title>Node12&#45;&gt;Node10</title>
<path fill="none" stroke="#9a32cd" stroke-dasharray="5,2" d="M781.71,-335.51C780.2,-332.45 778.87,-329.21 778,-326 774.5,-313.08 775.08,-297.42 775.94,-287.84"/>
<polygon fill="#9a32cd" stroke="#9a32cd" points="778.83,-337.54 786.84,-344.47 784.91,-334.05 778.83,-337.54"/>
<text text-anchor="middle" x="817" y="-313.5" font-family="Helvetica,sans-Serif" font-size="10.00"> aToAuthorEffects</text>
</g>
<!-- Node12&#45;&gt;Node14 -->
<g id="edge23" class="edge">
<title>Node12&#45;&gt;Node14</title>
<path fill="none" stroke="#9a32cd" stroke-dasharray="5,2" d="M823.53,-347.28C835.66,-343.38 848.49,-336.86 856,-326 878.76,-293.08 868.71,-241.13 863.46,-220.68"/>
<polygon fill="#9a32cd" stroke="#9a32cd" points="822.36,-343.97 813.64,-349.97 824.2,-350.72 822.36,-343.97"/>
<text text-anchor="middle" x="910" y="-275.5" font-family="Helvetica,sans-Serif" font-size="10.00"> aToEnemyEffects</text>
</g>
<!-- Node13&#45;&gt;Node9 -->
<g id="edge18" class="edge">
<title>Node13&#45;&gt;Node9</title>
<path fill="none" stroke="#9a32cd" stroke-dasharray="5,2" d="M613.6,-16.15C585.21,-20.21 553.74,-27.05 545,-38 538.32,-46.37 543.31,-58.88 548.11,-67.24"/>
<polygon fill="#9a32cd" stroke="#9a32cd" points="614.42,-19.57 623.86,-14.78 613.49,-12.64 614.42,-19.57"/>
<text text-anchor="middle" x="578" y="-41" font-family="Helvetica,sans-Serif" font-size="10.00"> abilityIndicator</text>
</g>
<!-- Node14&#45;&gt;Node13 -->
<g id="edge21" class="edge">
<title>Node14&#45;&gt;Node13</title>
<path fill="none" stroke="#9a32cd" stroke-dasharray="5,2" d="M854.34,-191.71C845.56,-169.4 828.45,-131.43 805,-105 769.07,-64.51 711.95,-33.66 682.66,-19.51"/>
<polygon fill="#9a32cd" stroke="#9a32cd" points="851.15,-193.17 857.97,-201.28 857.69,-190.68 851.15,-193.17"/>
<text text-anchor="middle" x="830" y="-108" font-family="Helvetica,sans-Serif" font-size="10.00"> current</text>
</g>
<!-- Node15&#45;&gt;Node8 -->
<g id="edge25" class="edge">
<title>Node15&#45;&gt;Node8</title>
<path fill="none" stroke="#9a32cd" stroke-dasharray="5,2" d="M686.56,-199.7C637.65,-186.94 555.19,-165.41 509.66,-153.52"/>
<polygon fill="#9a32cd" stroke="#9a32cd" points="685.9,-203.15 696.46,-202.29 687.67,-196.38 685.9,-203.15"/>
<text text-anchor="middle" x="638" y="-175" font-family="Helvetica,sans-Serif" font-size="10.00"> character</text>
</g>
<!-- Node16&#45;&gt;Node8 -->
<g id="edge29" class="edge">
<title>Node16&#45;&gt;Node8</title>
<path fill="none" stroke="#9a32cd" stroke-dasharray="5,2" d="M226.15,-89.55C252.52,-97.69 289.24,-108.45 322,-116 342.7,-120.77 395.44,-129.7 433.66,-135.99"/>
<polygon fill="#9a32cd" stroke="#9a32cd" points="227.17,-86.2 216.58,-86.57 225.08,-92.88 227.17,-86.2"/>
<text text-anchor="middle" x="349.5" y="-108" font-family="Helvetica,sans-Serif" font-size="10.00"> basicAttack</text>
</g>
<!-- Node17&#45;&gt;Node3 -->
<g id="edge35" class="edge">
<title>Node17&#45;&gt;Node3</title>
<path fill="none" stroke="#9a32cd" stroke-dasharray="5,2" d="M308.44,-295.94C307.79,-273.53 306.74,-237.31 306.26,-220.76"/>
<polygon fill="#9a32cd" stroke="#9a32cd" points="304.95,-296.32 308.74,-306.22 311.95,-296.12 304.95,-296.32"/>
<text text-anchor="middle" x="330" y="-275.5" font-family="Helvetica,sans-Serif" font-size="10.00"> inventory</text>
</g>
</g>
</svg>
        <g id="navigator" transform="translate(0 0)" fill="#404254">
                <rect fill="#f2f5e9" fill-opacity="0.5" stroke="#606060" stroke-width=".5" x="0" y="0" width="60" height="60"/>
                <use id="zoomplus" xlink:href="#zoomPlus" x="17" y="9" onmousedown="handleZoom(evt,'in')"/>
                <use id="zoomminus" xlink:href="#zoomMin" x="42" y="9" onmousedown="handleZoom(evt,'out')"/>
                <use id="reset" xlink:href="#resetDef" x="30" y="36" onmousedown="handleReset()"/>
                <g id="arrowUp" xlink:href="#dirArrow" transform="translate(30 24)" onmousedown="handlePan(0,-1)">
                  <use xlink:href="#rim" fill="#404040">
                        <set attributeName="fill" to="#808080" begin="arrowUp.mouseover" end="arrowUp.mouseout"/>
                  </use>
                  <path fill="none" stroke="white" stroke-width="1.5" d="M0,-3.0v7 M-2.5,-0.5L0,-3.0L2.5,-0.5"/>
                </g>
                <g id="arrowRight" xlink:href="#dirArrow" transform="rotate(90) translate(36 -43)" onmousedown="handlePan(1,0)">
                  <use xlink:href="#rim" fill="#404040">
                        <set attributeName="fill" to="#808080" begin="arrowRight.mouseover" end="arrowRight.mouseout"/>
                  </use>
                  <path fill="none" stroke="white" stroke-width="1.5" d="M0,-3.0v7 M-2.5,-0.5L0,-3.0L2.5,-0.5"/>
                </g>
                <g id="arrowDown" xlink:href="#dirArrow" transform="rotate(180) translate(-30 -48)" onmousedown="handlePan(0,1)">
                  <use xlink:href="#rim" fill="#404040">
                        <set attributeName="fill" to="#808080" begin="arrowDown.mouseover" end="arrowDown.mouseout"/>
                  </use>
                  <path fill="none" stroke="white" stroke-width="1.5" d="M0,-3.0v7 M-2.5,-0.5L0,-3.0L2.5,-0.5"/>
                </g>
                <g id="arrowLeft" xlink:href="#dirArrow" transform="rotate(270) translate(-36 17)" onmousedown="handlePan(-1,0)">
                  <use xlink:href="#rim" fill="#404040">
                        <set attributeName="fill" to="#808080" begin="arrowLeft.mouseover" end="arrowLeft.mouseout"/>
                  </use>
                  <path fill="none" stroke="white" stroke-width="1.5" d="M0,-3.0v7 M-2.5,-0.5L0,-3.0L2.5,-0.5"/>
                </g>
        </g>
        <svg viewBox="0 0 15 15" width="100%" height="30px" preserveAspectRatio="xMaxYMin meet">
         <g id="arrow_out" transform="scale(0.3 0.3)">
          <a xlink:href="class_effect_manager__coll__graph_org.svg" target="_base">
           <rect id="button" ry="5" rx="5" y="6" x="6" height="38" width="38"
                fill="#f2f5e9" fill-opacity="0.5" stroke="#606060" stroke-width="1.0"/>
           <path id="arrow"
             d="M 11.500037,31.436501 C 11.940474,20.09759 22.043105,11.32322 32.158766,21.979434 L 37.068811,17.246167 C 37.068811,17.246167 37.088388,32 37.088388,32 L 22.160133,31.978069 C 22.160133,31.978069 26.997745,27.140456 26.997745,27.140456 C 18.528582,18.264221 13.291696,25.230495 11.500037,31.436501 z"
             style="fill:#404040;"/>
          </a>
         </g>
        </svg>
</svg>
