<?xml version="1.0" encoding="UTF-8" standalone="no"?>
<!DOCTYPE svg PUBLIC "-//W3C//DTD SVG 1.1//EN"
 "http://www.w3.org/Graphics/SVG/1.1/DTD/svg11.dtd">
<!-- Generated by graphviz version 2.49.1 (20210923.0004)
 -->
<!-- Title: Ability_StatsChanger.TriggerAbility Pages: 1 -->
<svg width="493pt" height="116pt"
 viewBox="0.00 0.00 493.00 115.50" xmlns="http://www.w3.org/2000/svg" xmlns:xlink="http://www.w3.org/1999/xlink">
<g id="graph0" class="graph" transform="scale(1 1) rotate(0) translate(4 111.5)">
<title>Ability_StatsChanger.TriggerAbility</title>
<!-- Node1 -->
<g id="node1" class="node">
<title>Node1</title>
<g id="a_node1"><a xlink:title=" ">
<polygon fill="#bfbfbf" stroke="black" points="0,-44.5 0,-74.5 140,-74.5 140,-44.5 0,-44.5"/>
<text text-anchor="start" x="8" y="-62.5" font-family="Helvetica,sans-Serif" font-size="10.00">Ability_StatsChanger.Trigger</text>
<text text-anchor="middle" x="70" y="-51.5" font-family="Helvetica,sans-Serif" font-size="10.00">Ability</text>
</a>
</g>
</g>
<!-- Node2 -->
<g id="node2" class="node">
<title>Node2</title>
<g id="a_node2"><a xlink:href="class_effect_manager.html#a921aed9a2553637cdd387d3075150709" target="_top" xlink:title="Starts an Effect to the entity who has this EffectManager.">
<polygon fill="none" stroke="black" points="176,-50 176,-69 312,-69 312,-50 176,-50"/>
<text text-anchor="middle" x="244" y="-57" font-family="Helvetica,sans-Serif" font-size="10.00">EffectManager.TriggerEffect</text>
</a>
</g>
</g>
<!-- Node1&#45;&gt;Node2 -->
<g id="edge1" class="edge">
<title>Node1&#45;&gt;Node2</title>
<path fill="none" stroke="midnightblue" d="M140.46,-59.5C148.75,-59.5 157.25,-59.5 165.63,-59.5"/>
<polygon fill="midnightblue" stroke="midnightblue" points="165.79,-63 175.79,-59.5 165.79,-56 165.79,-63"/>
</g>
<!-- Node3 -->
<g id="node3" class="node">
<title>Node3</title>
<g id="a_node3"><a xlink:href="class_effect.html#ad48818ca38f71bb7d5e844bd220ffce0" target="_top" xlink:title=" ">
<polygon fill="none" stroke="black" points="377,-88 377,-107 456,-107 456,-88 377,-88"/>
<text text-anchor="middle" x="416.5" y="-95" font-family="Helvetica,sans-Serif" font-size="10.00">Effect.Activate</text>
</a>
</g>
</g>
<!-- Node2&#45;&gt;Node3 -->
<g id="edge2" class="edge">
<title>Node2&#45;&gt;Node3</title>
<path fill="none" stroke="midnightblue" d="M288.02,-69.09C312.04,-74.44 342.04,-81.13 366.9,-86.67"/>
<polygon fill="midnightblue" stroke="midnightblue" points="366.34,-90.13 376.86,-88.89 367.86,-83.3 366.34,-90.13"/>
</g>
<!-- Node4 -->
<g id="node4" class="node">
<title>Node4</title>
<g id="a_node4"><a xlink:href="class_effect.html#a280600ca7907b4f73d355e6a62a7040c" target="_top" xlink:title=" ">
<polygon fill="none" stroke="black" points="367,-50 367,-69 466,-69 466,-50 367,-50"/>
<text text-anchor="middle" x="416.5" y="-57" font-family="Helvetica,sans-Serif" font-size="10.00">Effect.GetCorrutine</text>
</a>
</g>
</g>
<!-- Node2&#45;&gt;Node4 -->
<g id="edge3" class="edge">
<title>Node2&#45;&gt;Node4</title>
<path fill="none" stroke="midnightblue" d="M312.39,-59.5C327.07,-59.5 342.49,-59.5 356.8,-59.5"/>
<polygon fill="midnightblue" stroke="midnightblue" points="357,-63 367,-59.5 357,-56 357,-63"/>
</g>
<!-- Node5 -->
<g id="node5" class="node">
<title>Node5</title>
<g id="a_node5"><a xlink:href="class_effect_h_u_d_controller.html#a5d2dd46778d538fb1474624fd083818b" target="_top" xlink:title=" ">
<polygon fill="none" stroke="black" points="348,-0.5 348,-30.5 485,-30.5 485,-0.5 348,-0.5"/>
<text text-anchor="start" x="356" y="-18.5" font-family="Helvetica,sans-Serif" font-size="10.00">EffectHUDController.Update</text>
<text text-anchor="middle" x="416.5" y="-7.5" font-family="Helvetica,sans-Serif" font-size="10.00">Effects</text>
</a>
</g>
</g>
<!-- Node2&#45;&gt;Node5 -->
<g id="edge4" class="edge">
<title>Node2&#45;&gt;Node5</title>
<path fill="none" stroke="midnightblue" d="M282,-49.95C301.11,-45.02 325.04,-38.84 347.35,-33.09"/>
<polygon fill="midnightblue" stroke="midnightblue" points="348.31,-36.45 357.12,-30.57 346.56,-29.68 348.31,-36.45"/>
</g>
</g>
</svg>
