<?xml version="1.0" encoding="UTF-8" standalone="no"?>
<!DOCTYPE svg PUBLIC "-//W3C//DTD SVG 1.1//EN"
 "http://www.w3.org/Graphics/SVG/1.1/DTD/svg11.dtd">
<!-- Generated by graphviz version 2.47.3 (20210619.1520)
 -->
<!-- Title: Ability_Lis4.DealDamageInTime Pages: 1 -->
<svg width="344pt" height="104pt"
 viewBox="0.00 0.00 344.00 104.00" xmlns="http://www.w3.org/2000/svg" xmlns:xlink="http://www.w3.org/1999/xlink">
<g id="graph0" class="graph" transform="scale(1 1) rotate(0) translate(4 100)">
<title>Ability_Lis4.DealDamageInTime</title>
<!-- Node1 -->
<g id="node1" class="node">
<title>Node1</title>
<g id="a_node1"><a xlink:title=" ">
<polygon fill="#bfbfbf" stroke="black" points="0,-38.5 0,-57.5 154,-57.5 154,-38.5 0,-38.5"/>
<text text-anchor="middle" x="77" y="-45.5" font-family="Helvetica,sans-Serif" font-size="10.00">Ability_Lis4.DealDamageInTime</text>
</a>
</g>
</g>
<!-- Node2 -->
<g id="node2" class="node">
<title>Node2</title>
<g id="a_node2"><a xlink:href="class_ability_base.html#a2def910c9621754a4e91d49ab5455af4" target="_top" xlink:title="Returns the calculated damage.">
<polygon fill="none" stroke="black" points="190,-76.5 190,-95.5 336,-95.5 336,-76.5 190,-76.5"/>
<text text-anchor="middle" x="263" y="-83.5" font-family="Helvetica,sans-Serif" font-size="10.00">AbilityBase.CalculateDamage</text>
</a>
</g>
</g>
<!-- Node1&#45;&gt;Node2 -->
<g id="edge1" class="edge">
<title>Node1&#45;&gt;Node2</title>
<path fill="none" stroke="midnightblue" d="M124.43,-57.59C149.15,-62.69 179.74,-69.01 205.79,-74.39"/>
<polygon fill="midnightblue" stroke="midnightblue" points="205.4,-77.89 215.9,-76.48 206.82,-71.03 205.4,-77.89"/>
</g>
<!-- Node3 -->
<g id="node3" class="node">
<title>Node3</title>
<g id="a_node3"><a xlink:href="class_stats.html#acebcf18ce39553a9c811f368a56a5583" target="_top" xlink:title="Specify the amount of damage and the Inventory that the amount of Gold will go in if it is hit for th...">
<polygon fill="none" stroke="black" points="214,-38.5 214,-57.5 312,-57.5 312,-38.5 214,-38.5"/>
<text text-anchor="middle" x="263" y="-45.5" font-family="Helvetica,sans-Serif" font-size="10.00">Stats.DealDamage</text>
</a>
</g>
</g>
<!-- Node1&#45;&gt;Node3 -->
<g id="edge2" class="edge">
<title>Node1&#45;&gt;Node3</title>
<path fill="none" stroke="midnightblue" d="M154.17,-48C170.71,-48 187.96,-48 203.69,-48"/>
<polygon fill="midnightblue" stroke="midnightblue" points="203.78,-51.5 213.78,-48 203.78,-44.5 203.78,-51.5"/>
</g>
<!-- Node4 -->
<g id="node4" class="node">
<title>Node4</title>
<g id="a_node4"><a xlink:href="class_ability.html#a548a250c44f3c230ac82ad28a6c78720" target="_top" xlink:title=" ">
<polygon fill="none" stroke="black" points="212.5,-0.5 212.5,-19.5 313.5,-19.5 313.5,-0.5 212.5,-0.5"/>
<text text-anchor="middle" x="263" y="-7.5" font-family="Helvetica,sans-Serif" font-size="10.00">Ability.GetTickTime</text>
</a>
</g>
</g>
<!-- Node1&#45;&gt;Node4 -->
<g id="edge3" class="edge">
<title>Node1&#45;&gt;Node4</title>
<path fill="none" stroke="midnightblue" d="M124.43,-38.41C149.15,-33.31 179.74,-26.99 205.79,-21.61"/>
<polygon fill="midnightblue" stroke="midnightblue" points="206.82,-24.97 215.9,-19.52 205.4,-18.11 206.82,-24.97"/>
</g>
</g>
</svg>
