<?xml version="1.0" encoding="UTF-8" standalone="no"?>
<!DOCTYPE svg PUBLIC "-//W3C//DTD SVG 1.1//EN"
 "http://www.w3.org/Graphics/SVG/1.1/DTD/svg11.dtd">
<!-- Generated by graphviz version 2.47.3 (20210619.1520)
 -->
<!-- Title: Tayx.Graphy.Audio.G_AudioGraph.Init Pages: 1 -->
<svg width="679pt" height="186pt"
 viewBox="0.00 0.00 679.00 186.00" xmlns="http://www.w3.org/2000/svg" xmlns:xlink="http://www.w3.org/1999/xlink">
<g id="graph0" class="graph" transform="scale(1 1) rotate(0) translate(4 182)">
<title>Tayx.Graphy.Audio.G_AudioGraph.Init</title>
<polygon fill="white" stroke="transparent" points="-4,4 -4,-182 675,-182 675,4 -4,4"/>
<!-- Node1 -->
<g id="node1" class="node">
<title>Node1</title>
<g id="a_node1"><a xlink:title=" ">
<polygon fill="#bfbfbf" stroke="black" points="0,-48.5 0,-78.5 110,-78.5 110,-48.5 0,-48.5"/>
<text text-anchor="start" x="8" y="-66.5" font-family="Helvetica,sans-Serif" font-size="10.00">Tayx.Graphy.Audio.G</text>
<text text-anchor="middle" x="55" y="-55.5" font-family="Helvetica,sans-Serif" font-size="10.00">_AudioGraph.Init</text>
</a>
</g>
</g>
<!-- Node2 -->
<g id="node2" class="node">
<title>Node2</title>
<g id="a_node2"><a xlink:href="class_tayx_1_1_graphy_1_1_audio_1_1_g___audio_graph.xhtml#a6522e25a1da553924df60f3405495d78" target="_top" xlink:title=" ">
<polygon fill="white" stroke="black" points="146,-48.5 146,-78.5 303,-78.5 303,-48.5 146,-48.5"/>
<text text-anchor="start" x="154" y="-66.5" font-family="Helvetica,sans-Serif" font-size="10.00">Tayx.Graphy.Audio.G</text>
<text text-anchor="middle" x="224.5" y="-55.5" font-family="Helvetica,sans-Serif" font-size="10.00">_AudioGraph.UpdateParameters</text>
</a>
</g>
</g>
<!-- Node1&#45;&gt;Node2 -->
<g id="edge1" class="edge">
<title>Node1&#45;&gt;Node2</title>
<path fill="none" stroke="midnightblue" d="M110.38,-63.5C118.55,-63.5 127.15,-63.5 135.8,-63.5"/>
<polygon fill="midnightblue" stroke="midnightblue" points="135.97,-67 145.97,-63.5 135.97,-60 135.97,-67"/>
</g>
<!-- Node3 -->
<g id="node3" class="node">
<title>Node3</title>
<g id="a_node3"><a xlink:href="class_tayx_1_1_graphy_1_1_audio_1_1_g___audio_graph.xhtml#a8402c6f4decc0ed051e2a3afd42c4cc8" target="_top" xlink:title="Creates the points for the graph/s.">
<polygon fill="white" stroke="black" points="347,-73.5 347,-103.5 479,-103.5 479,-73.5 347,-73.5"/>
<text text-anchor="start" x="355" y="-91.5" font-family="Helvetica,sans-Serif" font-size="10.00">Tayx.Graphy.Audio.G</text>
<text text-anchor="middle" x="413" y="-80.5" font-family="Helvetica,sans-Serif" font-size="10.00">_AudioGraph.CreatePoints</text>
</a>
</g>
</g>
<!-- Node2&#45;&gt;Node3 -->
<g id="edge2" class="edge">
<title>Node2&#45;&gt;Node3</title>
<path fill="none" stroke="midnightblue" d="M303.24,-73.92C314.34,-75.41 325.74,-76.94 336.78,-78.42"/>
<polygon fill="midnightblue" stroke="midnightblue" points="336.43,-81.9 346.81,-79.76 337.36,-74.96 336.43,-81.9"/>
</g>
<!-- Node8 -->
<g id="node8" class="node">
<title>Node8</title>
<g id="a_node8"><a xlink:href="class_tayx_1_1_graphy_1_1_g___graph_shader.xhtml#a531ef44ced25f9686183cc7c46ca3920" target="_top" xlink:title="This is done to avoid a design problem that arrays in shaders have, and should be called before initi...">
<polygon fill="white" stroke="black" points="339,-24.5 339,-54.5 487,-54.5 487,-24.5 339,-24.5"/>
<text text-anchor="start" x="347" y="-42.5" font-family="Helvetica,sans-Serif" font-size="10.00">Tayx.Graphy.G_GraphShader.</text>
<text text-anchor="middle" x="413" y="-31.5" font-family="Helvetica,sans-Serif" font-size="10.00">InitializeShader</text>
</a>
</g>
</g>
<!-- Node2&#45;&gt;Node8 -->
<g id="edge7" class="edge">
<title>Node2&#45;&gt;Node8</title>
<path fill="none" stroke="midnightblue" d="M303.24,-53.5C311.72,-52.4 320.37,-51.29 328.91,-50.19"/>
<polygon fill="midnightblue" stroke="midnightblue" points="329.39,-53.66 338.86,-48.91 328.5,-46.72 329.39,-53.66"/>
</g>
<!-- Node4 -->
<g id="node4" class="node">
<title>Node4</title>
<g id="a_node4"><a xlink:href="class_tayx_1_1_graphy_1_1_g___graph_shader.xhtml#ac039f519ec84d521e44bf8f9b90ff7e8" target="_top" xlink:title="Updates the material linked with this shader graph with the values in the float[] array.">
<polygon fill="white" stroke="black" points="523,-147.5 523,-177.5 671,-177.5 671,-147.5 523,-147.5"/>
<text text-anchor="start" x="531" y="-165.5" font-family="Helvetica,sans-Serif" font-size="10.00">Tayx.Graphy.G_GraphShader.</text>
<text text-anchor="middle" x="597" y="-154.5" font-family="Helvetica,sans-Serif" font-size="10.00">UpdateArray</text>
</a>
</g>
</g>
<!-- Node3&#45;&gt;Node4 -->
<g id="edge3" class="edge">
<title>Node3&#45;&gt;Node4</title>
<path fill="none" stroke="midnightblue" d="M444.61,-103.66C466.24,-114.1 496.06,-127.93 523,-138.5 527.77,-140.37 532.75,-142.22 537.77,-144.01"/>
<polygon fill="midnightblue" stroke="midnightblue" points="536.83,-147.39 547.43,-147.38 539.14,-140.78 536.83,-147.39"/>
</g>
<!-- Node5 -->
<g id="node5" class="node">
<title>Node5</title>
<g id="a_node5"><a xlink:href="class_tayx_1_1_graphy_1_1_g___graph_shader.xhtml#a67831882b060d17c9d7a754546ef2e6b" target="_top" xlink:title="Updates the average parameter in the material.">
<polygon fill="white" stroke="black" points="523,-98.5 523,-128.5 671,-128.5 671,-98.5 523,-98.5"/>
<text text-anchor="start" x="531" y="-116.5" font-family="Helvetica,sans-Serif" font-size="10.00">Tayx.Graphy.G_GraphShader.</text>
<text text-anchor="middle" x="597" y="-105.5" font-family="Helvetica,sans-Serif" font-size="10.00">UpdateAverage</text>
</a>
</g>
</g>
<!-- Node3&#45;&gt;Node5 -->
<g id="edge4" class="edge">
<title>Node3&#45;&gt;Node5</title>
<path fill="none" stroke="midnightblue" d="M479.19,-97.45C490.16,-98.96 501.67,-100.54 513.01,-102.1"/>
<polygon fill="midnightblue" stroke="midnightblue" points="512.54,-105.57 522.92,-103.46 513.49,-98.63 512.54,-105.57"/>
</g>
<!-- Node6 -->
<g id="node6" class="node">
<title>Node6</title>
<g id="a_node6"><a xlink:href="class_tayx_1_1_graphy_1_1_g___graph_shader.xhtml#ac4ec72181f804fc7e8516292bd3a5995" target="_top" xlink:title="Updates the colors in the material.">
<polygon fill="white" stroke="black" points="523,-49.5 523,-79.5 671,-79.5 671,-49.5 523,-49.5"/>
<text text-anchor="start" x="531" y="-67.5" font-family="Helvetica,sans-Serif" font-size="10.00">Tayx.Graphy.G_GraphShader.</text>
<text text-anchor="middle" x="597" y="-56.5" font-family="Helvetica,sans-Serif" font-size="10.00">UpdateColors</text>
</a>
</g>
</g>
<!-- Node3&#45;&gt;Node6 -->
<g id="edge5" class="edge">
<title>Node3&#45;&gt;Node6</title>
<path fill="none" stroke="midnightblue" d="M479.19,-79.9C490.05,-78.47 501.44,-76.97 512.67,-75.49"/>
<polygon fill="midnightblue" stroke="midnightblue" points="513.46,-78.91 522.92,-74.14 512.55,-71.97 513.46,-78.91"/>
</g>
<!-- Node7 -->
<g id="node7" class="node">
<title>Node7</title>
<g id="a_node7"><a xlink:href="class_tayx_1_1_graphy_1_1_g___graph_shader.xhtml#af57c3227f9ad5e7a55f17532749cbf18" target="_top" xlink:title="Updates the thresholds in the material.">
<polygon fill="white" stroke="black" points="523,-0.5 523,-30.5 671,-30.5 671,-0.5 523,-0.5"/>
<text text-anchor="start" x="531" y="-18.5" font-family="Helvetica,sans-Serif" font-size="10.00">Tayx.Graphy.G_GraphShader.</text>
<text text-anchor="middle" x="597" y="-7.5" font-family="Helvetica,sans-Serif" font-size="10.00">UpdateThresholds</text>
</a>
</g>
</g>
<!-- Node3&#45;&gt;Node7 -->
<g id="edge6" class="edge">
<title>Node3&#45;&gt;Node7</title>
<path fill="none" stroke="midnightblue" d="M465.75,-73.43C473.01,-70.76 480.28,-67.77 487,-64.5 504.29,-56.09 505.76,-49.02 523,-40.5 527.35,-38.35 531.93,-36.31 536.59,-34.39"/>
<polygon fill="midnightblue" stroke="midnightblue" points="538.18,-37.52 546.21,-30.62 535.62,-31.01 538.18,-37.52"/>
</g>
</g>
</svg>
