<?xml version="1.0" encoding="UTF-8" standalone="no"?>
<!DOCTYPE svg PUBLIC "-//W3C//DTD SVG 1.1//EN"
 "http://www.w3.org/Graphics/SVG/1.1/DTD/svg11.dtd">
<!-- Generated by graphviz version 2.50.0 (20211204.2007)
 -->
<!-- Title: EffectManager.TriggerEffect Pages: 1 -->
<svg width="323pt" height="214pt"
 viewBox="0.00 0.00 323.00 213.50" xmlns="http://www.w3.org/2000/svg" xmlns:xlink="http://www.w3.org/1999/xlink">
<g id="graph0" class="graph" transform="scale(1 1) rotate(0) translate(4 209.5)">
<title>EffectManager.TriggerEffect</title>
<polygon fill="white" stroke="transparent" points="-4,4 -4,-209.5 319,-209.5 319,4 -4,4"/>
<!-- Node1 -->
<g id="node1" class="node">
<title>Node1</title>
<g id="a_node1"><a xlink:title="/// Starts an Effect to the entity who has this EffectManager.">
<polygon fill="#bfbfbf" stroke="black" points="179,-104 179,-123 315,-123 315,-104 179,-104"/>
<text text-anchor="middle" x="247" y="-111" font-family="Helvetica,sans-Serif" font-size="10.00">EffectManager.TriggerEffect</text>
</a>
</g>
</g>
<!-- Node2 -->
<g id="node2" class="node">
<title>Node2</title>
<g id="a_node2"><a xlink:href="class_ability___lis1.html#afd1d7924ca79144a0e19a84705b7590e" target="_top" xlink:title=" ">
<polygon fill="white" stroke="black" points="4,-186 4,-205 139,-205 139,-186 4,-186"/>
<text text-anchor="middle" x="71.5" y="-193" font-family="Helvetica,sans-Serif" font-size="10.00">Ability_Lis1.OnTriggerEnter</text>
</a>
</g>
</g>
<!-- Node1&#45;&gt;Node2 -->
<g id="edge1" class="edge">
<title>Node1&#45;&gt;Node2</title>
<path fill="none" stroke="midnightblue" d="M224.85,-128.94C204.69,-143.03 173.03,-163.59 143,-176.5 134.38,-180.21 124.86,-183.36 115.67,-185.96"/>
<polygon fill="midnightblue" stroke="midnightblue" points="226.88,-131.79 233.01,-123.15 222.83,-126.08 226.88,-131.79"/>
</g>
<!-- Node3 -->
<g id="node3" class="node">
<title>Node3</title>
<g id="a_node3"><a xlink:href="class_ability___lis4.html#a4497c50ddbd3f508448a76a1eafdd203" target="_top" xlink:title=" ">
<polygon fill="white" stroke="black" points="4,-148 4,-167 139,-167 139,-148 4,-148"/>
<text text-anchor="middle" x="71.5" y="-155" font-family="Helvetica,sans-Serif" font-size="10.00">Ability_Lis4.OnTriggerEnter</text>
</a>
</g>
</g>
<!-- Node1&#45;&gt;Node3 -->
<g id="edge2" class="edge">
<title>Node1&#45;&gt;Node3</title>
<path fill="none" stroke="midnightblue" d="M198.44,-125.56C170.61,-132.62 135.98,-141.4 110.07,-147.97"/>
<polygon fill="midnightblue" stroke="midnightblue" points="199.52,-128.9 208.35,-123.05 197.8,-122.11 199.52,-128.9"/>
</g>
<!-- Node4 -->
<g id="node4" class="node">
<title>Node4</title>
<g id="a_node4"><a xlink:href="class_ability___instanciable.html#a2874cb997047ff431148d036aa06e163" target="_top" xlink:title=" ">
<polygon fill="white" stroke="black" points="5,-98.5 5,-128.5 138,-128.5 138,-98.5 5,-98.5"/>
<text text-anchor="start" x="13" y="-116.5" font-family="Helvetica,sans-Serif" font-size="10.00">Ability_Instanciable.Trigger</text>
<text text-anchor="middle" x="71.5" y="-105.5" font-family="Helvetica,sans-Serif" font-size="10.00">Ability</text>
</a>
</g>
</g>
<!-- Node1&#45;&gt;Node4 -->
<g id="edge3" class="edge">
<title>Node1&#45;&gt;Node4</title>
<path fill="none" stroke="midnightblue" d="M168.81,-113.5C158.61,-113.5 148.24,-113.5 138.26,-113.5"/>
<polygon fill="midnightblue" stroke="midnightblue" points="168.92,-117 178.92,-113.5 168.92,-110 168.92,-117"/>
</g>
<!-- Node5 -->
<g id="node5" class="node">
<title>Node5</title>
<g id="a_node5"><a xlink:href="class_ability___player_relative.html#a147af83cdc2b932f749d96e9974260fa" target="_top" xlink:title=" ">
<polygon fill="white" stroke="black" points="0,-49.5 0,-79.5 143,-79.5 143,-49.5 0,-49.5"/>
<text text-anchor="start" x="8" y="-67.5" font-family="Helvetica,sans-Serif" font-size="10.00">Ability_PlayerRelative.Trigger</text>
<text text-anchor="middle" x="71.5" y="-56.5" font-family="Helvetica,sans-Serif" font-size="10.00">Ability</text>
</a>
</g>
</g>
<!-- Node1&#45;&gt;Node5 -->
<g id="edge4" class="edge">
<title>Node1&#45;&gt;Node5</title>
<path fill="none" stroke="midnightblue" d="M202.22,-101.13C178.98,-94.57 150.26,-86.46 125.74,-79.54"/>
<polygon fill="midnightblue" stroke="midnightblue" points="201.56,-104.59 212.14,-103.94 203.46,-97.85 201.56,-104.59"/>
</g>
<!-- Node6 -->
<g id="node6" class="node">
<title>Node6</title>
<g id="a_node6"><a xlink:href="class_ability___stats_changer.html#a9b5d2b57c9e1369ec89ff50b9818d1b6" target="_top" xlink:title=" ">
<polygon fill="white" stroke="black" points="1.5,-0.5 1.5,-30.5 141.5,-30.5 141.5,-0.5 1.5,-0.5"/>
<text text-anchor="start" x="9.5" y="-18.5" font-family="Helvetica,sans-Serif" font-size="10.00">Ability_StatsChanger.Trigger</text>
<text text-anchor="middle" x="71.5" y="-7.5" font-family="Helvetica,sans-Serif" font-size="10.00">Ability</text>
</a>
</g>
</g>
<!-- Node1&#45;&gt;Node6 -->
<g id="edge5" class="edge">
<title>Node1&#45;&gt;Node6</title>
<path fill="none" stroke="midnightblue" d="M226.65,-97.3C206.69,-81.22 174.18,-56.68 143,-40.5 135.97,-36.85 128.29,-33.52 120.66,-30.57"/>
<polygon fill="midnightblue" stroke="midnightblue" points="224.68,-100.21 234.64,-103.83 229.11,-94.79 224.68,-100.21"/>
</g>
</g>
</svg>
