<?xml version="1.0" encoding="UTF-8" standalone="no"?>
<!DOCTYPE svg PUBLIC "-//W3C//DTD SVG 1.1//EN"
 "http://www.w3.org/Graphics/SVG/1.1/DTD/svg11.dtd">
<!-- Generated by graphviz version 2.47.3 (20210619.1520)
 -->
<!-- Title: Tayx.Graphy.Ram.G_RamGraph.Update Pages: 1 -->
<svg width="550pt" height="39pt"
 viewBox="0.00 0.00 550.00 39.00" xmlns="http://www.w3.org/2000/svg" xmlns:xlink="http://www.w3.org/1999/xlink">
<g id="graph0" class="graph" transform="scale(1 1) rotate(0) translate(4 35)">
<title>Tayx.Graphy.Ram.G_RamGraph.Update</title>
<polygon fill="white" stroke="transparent" points="-4,4 -4,-35 546,-35 546,4 -4,4"/>
<!-- Node1 -->
<g id="node1" class="node">
<title>Node1</title>
<g id="a_node1"><a xlink:title=" ">
<polygon fill="#bfbfbf" stroke="black" points="0,-0.5 0,-30.5 161,-30.5 161,-0.5 0,-0.5"/>
<text text-anchor="start" x="8" y="-18.5" font-family="Helvetica,sans-Serif" font-size="10.00">Tayx.Graphy.Ram.G_RamGraph.</text>
<text text-anchor="middle" x="80.5" y="-7.5" font-family="Helvetica,sans-Serif" font-size="10.00">Update</text>
</a>
</g>
</g>
<!-- Node2 -->
<g id="node2" class="node">
<title>Node2</title>
<g id="a_node2"><a xlink:href="class_tayx_1_1_graphy_1_1_ram_1_1_g___ram_graph.xhtml#a8cfebda02d1d789f66c7f9333f9b23fb" target="_top" xlink:title="Updates the graph/s.">
<polygon fill="white" stroke="black" points="197,-0.5 197,-30.5 358,-30.5 358,-0.5 197,-0.5"/>
<text text-anchor="start" x="205" y="-18.5" font-family="Helvetica,sans-Serif" font-size="10.00">Tayx.Graphy.Ram.G_RamGraph.</text>
<text text-anchor="middle" x="277.5" y="-7.5" font-family="Helvetica,sans-Serif" font-size="10.00">UpdateGraph</text>
</a>
</g>
</g>
<!-- Node1&#45;&gt;Node2 -->
<g id="edge1" class="edge">
<title>Node1&#45;&gt;Node2</title>
<path fill="none" stroke="midnightblue" d="M161.1,-15.5C169.57,-15.5 178.24,-15.5 186.82,-15.5"/>
<polygon fill="midnightblue" stroke="midnightblue" points="186.84,-19 196.84,-15.5 186.84,-12 186.84,-19"/>
</g>
<!-- Node3 -->
<g id="node3" class="node">
<title>Node3</title>
<g id="a_node3"><a xlink:href="class_tayx_1_1_graphy_1_1_g___graph_shader.xhtml#a2a5905cd3809406d645ef762f86d9280" target="_top" xlink:title="Updates the points in the graph with the set array of values.">
<polygon fill="white" stroke="black" points="394,-0.5 394,-30.5 542,-30.5 542,-0.5 394,-0.5"/>
<text text-anchor="start" x="402" y="-18.5" font-family="Helvetica,sans-Serif" font-size="10.00">Tayx.Graphy.G_GraphShader.</text>
<text text-anchor="middle" x="468" y="-7.5" font-family="Helvetica,sans-Serif" font-size="10.00">UpdatePoints</text>
</a>
</g>
</g>
<!-- Node2&#45;&gt;Node3 -->
<g id="edge2" class="edge">
<title>Node2&#45;&gt;Node3</title>
<path fill="none" stroke="midnightblue" d="M358.17,-15.5C366.6,-15.5 375.19,-15.5 383.66,-15.5"/>
<polygon fill="midnightblue" stroke="midnightblue" points="383.91,-19 393.91,-15.5 383.91,-12 383.91,-19"/>
</g>
</g>
</svg>
