<?xml version="1.0" encoding="UTF-8" standalone="no"?>
<!DOCTYPE svg PUBLIC "-//W3C//DTD SVG 1.1//EN"
 "http://www.w3.org/Graphics/SVG/1.1/DTD/svg11.dtd">
<!-- Generated by graphviz version 2.47.3 (20210619.1520)
 -->
<!-- Title: Stats.DealDamage Pages: 1 -->
<svg width="487pt" height="268pt"
 viewBox="0.00 0.00 487.00 267.50" xmlns="http://www.w3.org/2000/svg" xmlns:xlink="http://www.w3.org/1999/xlink">
<g id="graph0" class="graph" transform="scale(1 1) rotate(0) translate(4 263.5)">
<title>Stats.DealDamage</title>
<!-- Node1 -->
<g id="node1" class="node">
<title>Node1</title>
<g id="a_node1"><a xlink:title="Specify the amount of damage and the Inventory that the amount of Gold will go in if it is hit for th...">
<polygon fill="#bfbfbf" stroke="black" points="381,-114.5 381,-133.5 479,-133.5 479,-114.5 381,-114.5"/>
<text text-anchor="middle" x="430" y="-121.5" font-family="Helvetica,sans-Serif" font-size="10.00">Stats.DealDamage</text>
</a>
</g>
</g>
<!-- Node2 -->
<g id="node2" class="node">
<title>Node2</title>
<g id="a_node2"><a xlink:href="class_basic_attack.html#ab41a7fd3006e5a8a3d2d8399d41e630f" target="_top" xlink:title=" ">
<polygon fill="none" stroke="black" points="183,-231.5 183,-250.5 345,-250.5 345,-231.5 183,-231.5"/>
<text text-anchor="middle" x="264" y="-238.5" font-family="Helvetica,sans-Serif" font-size="10.00">BasicAttack.DamageBasicAttack</text>
</a>
</g>
</g>
<!-- Node1&#45;&gt;Node2 -->
<g id="edge1" class="edge">
<title>Node1&#45;&gt;Node2</title>
<path fill="none" stroke="midnightblue" d="M417.65,-142.31C403.34,-163.86 376.73,-199.21 345,-219 336.44,-224.34 326.59,-228.4 316.78,-231.48"/>
<polygon fill="midnightblue" stroke="midnightblue" points="420.69,-144.04 423.17,-133.74 414.81,-140.25 420.69,-144.04"/>
</g>
<!-- Node4 -->
<g id="node4" class="node">
<title>Node4</title>
<g id="a_node4"><a xlink:href="class_minion_a_i.html#a09c01338937d9f42fa47d55ca1a36cb6" target="_top" xlink:title=" ">
<polygon fill="none" stroke="black" points="204,-190.5 204,-209.5 324,-209.5 324,-190.5 204,-190.5"/>
<text text-anchor="middle" x="264" y="-197.5" font-family="Helvetica,sans-Serif" font-size="10.00">MinionAI.DamageTarget</text>
</a>
</g>
</g>
<!-- Node1&#45;&gt;Node4 -->
<g id="edge3" class="edge">
<title>Node1&#45;&gt;Node4</title>
<path fill="none" stroke="midnightblue" d="M409.67,-140.13C393.38,-152.96 368.95,-170.46 345,-181 336.38,-184.8 326.88,-187.9 317.54,-190.41"/>
<polygon fill="midnightblue" stroke="midnightblue" points="412.24,-142.56 417.83,-133.56 407.85,-137.11 412.24,-142.56"/>
</g>
<!-- Node6 -->
<g id="node6" class="node">
<title>Node6</title>
<g id="a_node6"><a xlink:href="class_ability___lis4.html#abf66fa4ed9cc553dc8ab52d7bbd12406" target="_top" xlink:title=" ">
<polygon fill="none" stroke="black" points="187,-152.5 187,-171.5 341,-171.5 341,-152.5 187,-152.5"/>
<text text-anchor="middle" x="264" y="-159.5" font-family="Helvetica,sans-Serif" font-size="10.00">Ability_Lis4.DealDamageInTime</text>
</a>
</g>
</g>
<!-- Node1&#45;&gt;Node6 -->
<g id="edge5" class="edge">
<title>Node1&#45;&gt;Node6</title>
<path fill="none" stroke="midnightblue" d="M377.66,-135.9C354.61,-141.24 327.78,-147.45 306.09,-152.48"/>
<polygon fill="midnightblue" stroke="midnightblue" points="378.66,-139.26 387.62,-133.59 377.08,-132.44 378.66,-139.26"/>
</g>
<!-- Node8 -->
<g id="node8" class="node">
<title>Node8</title>
<g id="a_node8"><a xlink:href="class_ability___lis1.html#afd1d7924ca79144a0e19a84705b7590e" target="_top" xlink:title=" ">
<polygon fill="none" stroke="black" points="196.5,-114.5 196.5,-133.5 331.5,-133.5 331.5,-114.5 196.5,-114.5"/>
<text text-anchor="middle" x="264" y="-121.5" font-family="Helvetica,sans-Serif" font-size="10.00">Ability_Lis1.OnTriggerEnter</text>
</a>
</g>
</g>
<!-- Node1&#45;&gt;Node8 -->
<g id="edge7" class="edge">
<title>Node1&#45;&gt;Node8</title>
<path fill="none" stroke="midnightblue" d="M370.33,-124C357.74,-124 344.36,-124 331.51,-124"/>
<polygon fill="midnightblue" stroke="midnightblue" points="370.68,-127.5 380.68,-124 370.68,-120.5 370.68,-127.5"/>
</g>
<!-- Node9 -->
<g id="node9" class="node">
<title>Node9</title>
<g id="a_node9"><a xlink:href="class_ability___lis4.html#a4497c50ddbd3f508448a76a1eafdd203" target="_top" xlink:title=" ">
<polygon fill="none" stroke="black" points="196.5,-76.5 196.5,-95.5 331.5,-95.5 331.5,-76.5 196.5,-76.5"/>
<text text-anchor="middle" x="264" y="-83.5" font-family="Helvetica,sans-Serif" font-size="10.00">Ability_Lis4.OnTriggerEnter</text>
</a>
</g>
</g>
<!-- Node1&#45;&gt;Node9 -->
<g id="edge8" class="edge">
<title>Node1&#45;&gt;Node9</title>
<path fill="none" stroke="midnightblue" d="M377.66,-112.1C354.61,-106.76 327.78,-100.55 306.09,-95.52"/>
<polygon fill="midnightblue" stroke="midnightblue" points="377.08,-115.56 387.62,-114.41 378.66,-108.74 377.08,-115.56"/>
</g>
<!-- Node10 -->
<g id="node10" class="node">
<title>Node10</title>
<g id="a_node10"><a xlink:href="class_out_of_bounds.html#a17995358e6ec7014c0e35845aa4e7890" target="_top" xlink:title=" ">
<polygon fill="none" stroke="black" points="192.5,-38.5 192.5,-57.5 335.5,-57.5 335.5,-38.5 192.5,-38.5"/>
<text text-anchor="middle" x="264" y="-45.5" font-family="Helvetica,sans-Serif" font-size="10.00">OutOfBounds.OnTriggerEnter</text>
</a>
</g>
</g>
<!-- Node1&#45;&gt;Node10 -->
<g id="edge9" class="edge">
<title>Node1&#45;&gt;Node10</title>
<path fill="none" stroke="midnightblue" d="M409.67,-107.87C393.38,-95.04 368.95,-77.54 345,-67 336.38,-63.2 326.88,-60.1 317.54,-57.59"/>
<polygon fill="midnightblue" stroke="midnightblue" points="407.85,-110.89 417.83,-114.44 412.24,-105.44 407.85,-110.89"/>
</g>
<!-- Node11 -->
<g id="node11" class="node">
<title>Node11</title>
<g id="a_node11"><a xlink:href="class_ranged_attack_follow.html#a3af5fcd78604ae899fb6c46c184987fa" target="_top" xlink:title=" ">
<polygon fill="none" stroke="black" points="194,-0.5 194,-19.5 334,-19.5 334,-0.5 194,-0.5"/>
<text text-anchor="middle" x="264" y="-7.5" font-family="Helvetica,sans-Serif" font-size="10.00">RangedAttackFollow.Update</text>
</a>
</g>
</g>
<!-- Node1&#45;&gt;Node11 -->
<g id="edge10" class="edge">
<title>Node1&#45;&gt;Node11</title>
<path fill="none" stroke="midnightblue" d="M417.98,-105.84C403.84,-84.13 377.24,-48.32 345,-29 338.51,-25.11 331.28,-22.02 323.89,-19.56"/>
<polygon fill="midnightblue" stroke="midnightblue" points="415.12,-107.86 423.42,-114.45 421.04,-104.12 415.12,-107.86"/>
</g>
<!-- Node3 -->
<g id="node3" class="node">
<title>Node3</title>
<g id="a_node3"><a xlink:href="class_model_player_mediator.html#a4fbf51870eca9fe09be5598b1b610749" target="_top" xlink:title=" ">
<polygon fill="none" stroke="black" points="0,-229 0,-259 147,-259 147,-229 0,-229"/>
<text text-anchor="start" x="8" y="-247" font-family="Helvetica,sans-Serif" font-size="10.00">ModelPlayerMediator.Damage</text>
<text text-anchor="middle" x="73.5" y="-236" font-family="Helvetica,sans-Serif" font-size="10.00">BasicAttack</text>
</a>
</g>
</g>
<!-- Node2&#45;&gt;Node3 -->
<g id="edge2" class="edge">
<title>Node2&#45;&gt;Node3</title>
<path fill="none" stroke="midnightblue" d="M172.75,-242.44C164.18,-242.57 155.56,-242.71 147.18,-242.84"/>
<polygon fill="midnightblue" stroke="midnightblue" points="172.84,-245.94 182.79,-242.28 172.73,-238.94 172.84,-245.94"/>
</g>
<!-- Node5 -->
<g id="node5" class="node">
<title>Node5</title>
<g id="a_node5"><a xlink:href="class_minion_attack.html#a9302ebf23d762d3fad0506021ded19d5" target="_top" xlink:title=" ">
<polygon fill="none" stroke="black" points="21,-190.5 21,-209.5 126,-209.5 126,-190.5 21,-190.5"/>
<text text-anchor="middle" x="73.5" y="-197.5" font-family="Helvetica,sans-Serif" font-size="10.00">MinionAttack.Attack</text>
</a>
</g>
</g>
<!-- Node4&#45;&gt;Node5 -->
<g id="edge4" class="edge">
<title>Node4&#45;&gt;Node5</title>
<path fill="none" stroke="midnightblue" d="M193.75,-200C171.37,-200 146.97,-200 126.1,-200"/>
<polygon fill="midnightblue" stroke="midnightblue" points="193.87,-203.5 203.87,-200 193.87,-196.5 193.87,-203.5"/>
</g>
<!-- Node7 -->
<g id="node7" class="node">
<title>Node7</title>
<g id="a_node7"><a xlink:href="class_ability___lis4.html#a81b6301f39ee1f8a105aaf40bb6ec51e" target="_top" xlink:title=" ">
<polygon fill="none" stroke="black" points="21,-152.5 21,-171.5 126,-171.5 126,-152.5 21,-152.5"/>
<text text-anchor="middle" x="73.5" y="-159.5" font-family="Helvetica,sans-Serif" font-size="10.00">Ability_Lis4.Initialize</text>
</a>
</g>
</g>
<!-- Node6&#45;&gt;Node7 -->
<g id="edge6" class="edge">
<title>Node6&#45;&gt;Node7</title>
<path fill="none" stroke="midnightblue" d="M176.74,-162C159.42,-162 141.74,-162 126.06,-162"/>
<polygon fill="midnightblue" stroke="midnightblue" points="176.87,-165.5 186.87,-162 176.87,-158.5 176.87,-165.5"/>
</g>
</g>
</svg>
