<?xml version="1.0" encoding="UTF-8" standalone="no"?>
<!DOCTYPE svg PUBLIC "-//W3C//DTD SVG 1.1//EN"
 "http://www.w3.org/Graphics/SVG/1.1/DTD/svg11.dtd">
<!-- Generated by graphviz version 2.49.1 (20210923.0004)
 -->
<!-- Title: MovableStats.Heal Pages: 1 -->
<svg width="450pt" height="218pt"
 viewBox="0.00 0.00 450.00 218.00" xmlns="http://www.w3.org/2000/svg" xmlns:xlink="http://www.w3.org/1999/xlink">
<g id="graph0" class="graph" transform="scale(1 1) rotate(0) translate(4 214)">
<title>MovableStats.Heal</title>
<!-- Node1 -->
<g id="node1" class="node">
<title>Node1</title>
<g id="a_node1"><a xlink:title=" ">
<polygon fill="#bfbfbf" stroke="black" points="344,-95.5 344,-114.5 442,-114.5 442,-95.5 344,-95.5"/>
<text text-anchor="middle" x="393" y="-102.5" font-family="Helvetica,sans-Serif" font-size="10.00">MovableStats.Heal</text>
</a>
</g>
</g>
<!-- Node2 -->
<g id="node2" class="node">
<title>Node2</title>
<g id="a_node2"><a xlink:href="class_heal_effect.html#a339d401861134bd9b6aaf777fe5d1cef" target="_top" xlink:title=" ">
<polygon fill="none" stroke="black" points="185.5,-190.5 185.5,-209.5 283.5,-209.5 283.5,-190.5 185.5,-190.5"/>
<text text-anchor="middle" x="234.5" y="-197.5" font-family="Helvetica,sans-Serif" font-size="10.00">HealEffect.Activate</text>
</a>
</g>
</g>
<!-- Node1&#45;&gt;Node2 -->
<g id="edge1" class="edge">
<title>Node1&#45;&gt;Node2</title>
<path fill="none" stroke="midnightblue" d="M377.55,-122.22C362.08,-139.58 335.95,-165.88 308,-181 300.45,-185.09 291.97,-188.33 283.55,-190.89"/>
<polygon fill="midnightblue" stroke="midnightblue" points="380.33,-124.36 384.25,-114.51 375.05,-119.77 380.33,-124.36"/>
</g>
<!-- Node3 -->
<g id="node3" class="node">
<title>Node3</title>
<g id="a_node3"><a xlink:href="class_heal_relative_effect.html#a51b9463a8c26ca163a387671a9bbe374" target="_top" xlink:title=" ">
<polygon fill="none" stroke="black" points="168.5,-152.5 168.5,-171.5 300.5,-171.5 300.5,-152.5 168.5,-152.5"/>
<text text-anchor="middle" x="234.5" y="-159.5" font-family="Helvetica,sans-Serif" font-size="10.00">HealRelativeEffect.Activate</text>
</a>
</g>
</g>
<!-- Node1&#45;&gt;Node3 -->
<g id="edge2" class="edge">
<title>Node1&#45;&gt;Node3</title>
<path fill="none" stroke="midnightblue" d="M363.99,-119.1C347.89,-126.85 327.12,-136.23 308,-143 298.07,-146.52 287.16,-149.72 276.89,-152.44"/>
<polygon fill="midnightblue" stroke="midnightblue" points="365.91,-122.06 373.36,-114.53 362.84,-115.77 365.91,-122.06"/>
</g>
<!-- Node4 -->
<g id="node4" class="node">
<title>Node4</title>
<g id="a_node4"><a xlink:href="class_mannequin_stats.html#a8bd8eed182eccafe2a9f3a2764e82dc3" target="_top" xlink:title="Function that implements what is done when this entity dies.">
<polygon fill="none" stroke="black" points="182.5,-114.5 182.5,-133.5 286.5,-133.5 286.5,-114.5 182.5,-114.5"/>
<text text-anchor="middle" x="234.5" y="-121.5" font-family="Helvetica,sans-Serif" font-size="10.00">MannequinStats.Die</text>
</a>
</g>
</g>
<!-- Node1&#45;&gt;Node4 -->
<g id="edge3" class="edge">
<title>Node1&#45;&gt;Node4</title>
<path fill="none" stroke="midnightblue" d="M333.77,-112.07C318.27,-113.95 301.64,-115.97 286.56,-117.8"/>
<polygon fill="midnightblue" stroke="midnightblue" points="334.26,-115.54 343.77,-110.86 333.42,-108.59 334.26,-115.54"/>
</g>
<!-- Node5 -->
<g id="node5" class="node">
<title>Node5</title>
<g id="a_node5"><a xlink:href="class_base_regenerator.html#a4d65b6c57ff0f1c756eee99844fda2fa" target="_top" xlink:title=" ">
<polygon fill="none" stroke="black" points="161,-76.5 161,-95.5 308,-95.5 308,-76.5 161,-76.5"/>
<text text-anchor="middle" x="234.5" y="-83.5" font-family="Helvetica,sans-Serif" font-size="10.00">BaseRegenerator.HealPlayers</text>
</a>
</g>
</g>
<!-- Node1&#45;&gt;Node5 -->
<g id="edge4" class="edge">
<title>Node1&#45;&gt;Node5</title>
<path fill="none" stroke="midnightblue" d="M333.74,-97.93C325.35,-96.91 316.64,-95.85 308.03,-94.81"/>
<polygon fill="midnightblue" stroke="midnightblue" points="333.42,-101.41 343.77,-99.14 334.26,-94.46 333.42,-101.41"/>
</g>
<!-- Node7 -->
<g id="node7" class="node">
<title>Node7</title>
<g id="a_node7"><a xlink:href="class_heart.html#a0fe409e888708ccf6fa062c07feca68c" target="_top" xlink:title=" ">
<polygon fill="none" stroke="black" points="180.5,-38.5 180.5,-57.5 288.5,-57.5 288.5,-38.5 180.5,-38.5"/>
<text text-anchor="middle" x="234.5" y="-45.5" font-family="Helvetica,sans-Serif" font-size="10.00">Heart.OnTriggerEnter</text>
</a>
</g>
</g>
<!-- Node1&#45;&gt;Node7 -->
<g id="edge6" class="edge">
<title>Node1&#45;&gt;Node7</title>
<path fill="none" stroke="midnightblue" d="M363.99,-90.9C347.89,-83.15 327.12,-73.77 308,-67 298.07,-63.48 287.16,-60.28 276.89,-57.56"/>
<polygon fill="midnightblue" stroke="midnightblue" points="362.84,-94.23 373.36,-95.47 365.91,-87.94 362.84,-94.23"/>
</g>
<!-- Node8 -->
<g id="node8" class="node">
<title>Node8</title>
<g id="a_node8"><a xlink:href="class_player_stats.html#a15175185aaa4f8290e5148640f0ff80a" target="_top" xlink:title=" ">
<polygon fill="none" stroke="black" points="184,-0.5 184,-19.5 285,-19.5 285,-0.5 184,-0.5"/>
<text text-anchor="middle" x="234.5" y="-7.5" font-family="Helvetica,sans-Serif" font-size="10.00">PlayerStats.Update</text>
</a>
</g>
</g>
<!-- Node1&#45;&gt;Node8 -->
<g id="edge7" class="edge">
<title>Node1&#45;&gt;Node8</title>
<path fill="none" stroke="midnightblue" d="M377.55,-87.78C362.08,-70.42 335.95,-44.12 308,-29 300.9,-25.16 292.99,-22.07 285.08,-19.58"/>
<polygon fill="midnightblue" stroke="midnightblue" points="375.05,-90.23 384.25,-95.49 380.33,-85.64 375.05,-90.23"/>
</g>
<!-- Node6 -->
<g id="node6" class="node">
<title>Node6</title>
<g id="a_node6"><a xlink:href="class_base_regenerator.html#acecbe261698255104a7aa49ff334be98" target="_top" xlink:title=" ">
<polygon fill="none" stroke="black" points="0,-76.5 0,-95.5 125,-95.5 125,-76.5 0,-76.5"/>
<text text-anchor="middle" x="62.5" y="-83.5" font-family="Helvetica,sans-Serif" font-size="10.00">BaseRegenerator.Update</text>
</a>
</g>
</g>
<!-- Node5&#45;&gt;Node6 -->
<g id="edge5" class="edge">
<title>Node5&#45;&gt;Node6</title>
<path fill="none" stroke="midnightblue" d="M150.8,-86C142.16,-86 133.49,-86 125.14,-86"/>
<polygon fill="midnightblue" stroke="midnightblue" points="150.91,-89.5 160.91,-86 150.91,-82.5 150.91,-89.5"/>
</g>
</g>
</svg>
