<?xml version="1.0" encoding="UTF-8" standalone="no"?>
<!DOCTYPE svg PUBLIC "-//W3C//DTD SVG 1.1//EN"
 "http://www.w3.org/Graphics/SVG/1.1/DTD/svg11.dtd">
<!-- Generated by graphviz version 2.47.3 (20210619.1520)
 -->
<!-- Title: Photon.Pun.PhotonRigidbody2DView Pages: 1 -->
<svg width="228pt" height="241pt"
 viewBox="0.00 0.00 228.00 241.00" xmlns="http://www.w3.org/2000/svg" xmlns:xlink="http://www.w3.org/1999/xlink">
<g id="graph0" class="graph" transform="scale(1 1) rotate(0) translate(4 237)">
<title>Photon.Pun.PhotonRigidbody2DView</title>
<polygon fill="white" stroke="transparent" points="-4,4 -4,-237 224,-237 224,4 -4,4"/>
<!-- Node1 -->
<g id="node1" class="node">
<title>Node1</title>
<g id="a_node1"><a xlink:title=" ">
<polygon fill="#bfbfbf" stroke="black" points="65,-0.5 65,-30.5 214,-30.5 214,-0.5 65,-0.5"/>
<text text-anchor="start" x="73" y="-18.5" font-family="Helvetica,sans-Serif" font-size="10.00">Photon.Pun.PhotonRigidbody2</text>
<text text-anchor="middle" x="139.5" y="-7.5" font-family="Helvetica,sans-Serif" font-size="10.00">DView</text>
</a>
</g>
</g>
<!-- Node2 -->
<g id="node2" class="node">
<title>Node2</title>
<g id="a_node2"><a xlink:href="class_photon_1_1_pun_1_1_mono_behaviour_pun.xhtml" target="_top" xlink:title="This class adds the property photonView, while logging a warning when your game still uses the networ...">
<polygon fill="white" stroke="black" points="7.5,-68.5 7.5,-87.5 107.5,-87.5 107.5,-68.5 7.5,-68.5"/>
<text text-anchor="middle" x="57.5" y="-75.5" font-family="Helvetica,sans-Serif" font-size="10.00">MonoBehaviourPun</text>
</a>
</g>
</g>
<!-- Node2&#45;&gt;Node1 -->
<g id="edge1" class="edge">
<title>Node2&#45;&gt;Node1</title>
<path fill="none" stroke="midnightblue" d="M77.59,-62.18C90.67,-52.53 107.63,-40.01 120.49,-30.53"/>
<polygon fill="midnightblue" stroke="midnightblue" points="75.22,-59.58 69.25,-68.33 79.37,-65.21 75.22,-59.58"/>
</g>
<!-- Node3 -->
<g id="node3" class="node">
<title>Node3</title>
<g id="a_node3"><a xlink:title=" ">
<polygon fill="white" stroke="#bfbfbf" points="0,-213.5 0,-232.5 83,-232.5 83,-213.5 0,-213.5"/>
<text text-anchor="middle" x="41.5" y="-220.5" font-family="Helvetica,sans-Serif" font-size="10.00">MonoBehaviour</text>
</a>
</g>
</g>
<!-- Node3&#45;&gt;Node2 -->
<g id="edge2" class="edge">
<title>Node3&#45;&gt;Node2</title>
<path fill="none" stroke="midnightblue" d="M43.57,-203.51C47.06,-172.31 53.99,-110.41 56.53,-87.65"/>
<polygon fill="midnightblue" stroke="midnightblue" points="40.09,-203.16 42.45,-213.48 47.04,-203.93 40.09,-203.16"/>
</g>
<!-- Node4 -->
<g id="node4" class="node">
<title>Node4</title>
<g id="a_node4"><a xlink:href="class_photon_1_1_pun_1_1_photon_view.xhtml" target="_top" xlink:title="A PhotonView identifies an object across the network (viewID) and configures how the controlling clie...">
<polygon fill="white" stroke="black" points="69.5,-135.5 69.5,-154.5 191.5,-154.5 191.5,-135.5 69.5,-135.5"/>
<text text-anchor="middle" x="130.5" y="-142.5" font-family="Helvetica,sans-Serif" font-size="10.00">Photon.Pun.PhotonView</text>
</a>
</g>
</g>
<!-- Node3&#45;&gt;Node4 -->
<g id="edge4" class="edge">
<title>Node3&#45;&gt;Node4</title>
<path fill="none" stroke="midnightblue" d="M59.38,-206.73C77.72,-191.07 105.59,-167.27 120.41,-154.62"/>
<polygon fill="midnightblue" stroke="midnightblue" points="57.04,-204.13 51.71,-213.28 61.59,-209.45 57.04,-204.13"/>
</g>
<!-- Node4&#45;&gt;Node2 -->
<g id="edge3" class="edge">
<title>Node4&#45;&gt;Node2</title>
<path fill="none" stroke="#9a32cd" stroke-dasharray="5,2" d="M112.93,-128.36C98.58,-115.58 78.83,-97.99 67.19,-87.63"/>
<polygon fill="#9a32cd" stroke="#9a32cd" points="110.86,-131.2 120.65,-135.23 115.51,-125.97 110.86,-131.2"/>
<text text-anchor="middle" x="118.5" y="-109" font-family="Helvetica,sans-Serif" font-size="10.00"> pvCache</text>
</g>
<!-- Node5 -->
<g id="node5" class="node">
<title>Node5</title>
<g id="a_node5"><a xlink:href="class_photon_1_1_realtime_1_1_player.xhtml" target="_top" xlink:title="Summarizes a &quot;player&quot; within a room, identified (in that room) by ID (or &quot;actorNumber&quot;).">
<polygon fill="white" stroke="black" points="101,-213.5 101,-232.5 220,-232.5 220,-213.5 101,-213.5"/>
<text text-anchor="middle" x="160.5" y="-220.5" font-family="Helvetica,sans-Serif" font-size="10.00">Photon.Realtime.Player</text>
</a>
</g>
</g>
<!-- Node5&#45;&gt;Node4 -->
<g id="edge5" class="edge">
<title>Node5&#45;&gt;Node4</title>
<path fill="none" stroke="#9a32cd" stroke-dasharray="5,2" d="M153.27,-203.67C147.12,-188.11 138.58,-166.47 133.9,-154.62"/>
<polygon fill="#9a32cd" stroke="#9a32cd" points="150.13,-205.27 157.06,-213.28 156.64,-202.7 150.13,-205.27"/>
<text text-anchor="middle" x="170" y="-187" font-family="Helvetica,sans-Serif" font-size="10.00"> controller</text>
<text text-anchor="middle" x="170" y="-176" font-family="Helvetica,sans-Serif" font-size="10.00">owner</text>
</g>
<!-- Node6 -->
<g id="node6" class="node">
<title>Node6</title>
<g id="a_node6"><a xlink:href="interface_photon_1_1_pun_1_1_i_pun_observable.xhtml" target="_top" xlink:title="Defines the OnPhotonSerializeView method to make it easy to implement correctly for observable script...">
<polygon fill="white" stroke="black" points="125.5,-68.5 125.5,-87.5 209.5,-87.5 209.5,-68.5 125.5,-68.5"/>
<text text-anchor="middle" x="167.5" y="-75.5" font-family="Helvetica,sans-Serif" font-size="10.00">IPunObservable</text>
</a>
</g>
</g>
<!-- Node6&#45;&gt;Node1 -->
<g id="edge6" class="edge">
<title>Node6&#45;&gt;Node1</title>
<path fill="none" stroke="midnightblue" d="M159.21,-59.1C155.03,-50.05 150.02,-39.23 146.1,-30.76"/>
<polygon fill="midnightblue" stroke="midnightblue" points="156.11,-60.73 163.49,-68.33 162.46,-57.79 156.11,-60.73"/>
</g>
</g>
</svg>
