<?xml version="1.0" encoding="UTF-8" standalone="no"?>
<!DOCTYPE svg PUBLIC "-//W3C//DTD SVG 1.1//EN"
 "http://www.w3.org/Graphics/SVG/1.1/DTD/svg11.dtd">
<!-- Generated by graphviz version 2.47.3 (20210619.1520)
 -->
<!-- Title: Photon.Pun.PhotonRigidbodyViewEditor.OnInspectorGUI Pages: 1 -->
<svg width="816pt" height="78pt"
 viewBox="0.00 0.00 816.00 77.50" xmlns="http://www.w3.org/2000/svg" xmlns:xlink="http://www.w3.org/1999/xlink">
<g id="graph0" class="graph" transform="scale(1 1) rotate(0) translate(4 73.5)">
<title>Photon.Pun.PhotonRigidbodyViewEditor.OnInspectorGUI</title>
<polygon fill="white" stroke="transparent" points="-4,4 -4,-73.5 812,-73.5 812,4 -4,4"/>
<!-- Node1 -->
<g id="node1" class="node">
<title>Node1</title>
<g id="a_node1"><a xlink:title=" ">
<polygon fill="#bfbfbf" stroke="black" points="0,-22.5 0,-52.5 144,-52.5 144,-22.5 0,-22.5"/>
<text text-anchor="start" x="8" y="-40.5" font-family="Helvetica,sans-Serif" font-size="10.00">Photon.Pun.PhotonRigidbody</text>
<text text-anchor="middle" x="72" y="-29.5" font-family="Helvetica,sans-Serif" font-size="10.00">ViewEditor.OnInspectorGUI</text>
</a>
</g>
</g>
<!-- Node2 -->
<g id="node2" class="node">
<title>Node2</title>
<g id="a_node2"><a xlink:href="class_photon_1_1_pun_1_1_photon_g_u_i.xhtml#a87da9217fb6ddb91e92dc0783926a78a" target="_top" xlink:title=" ">
<polygon fill="white" stroke="black" points="180,-50 180,-69 365,-69 365,-50 180,-50"/>
<text text-anchor="middle" x="272.5" y="-57" font-family="Helvetica,sans-Serif" font-size="10.00">Photon.Pun.PhotonGUI.ContainerBody</text>
</a>
</g>
</g>
<!-- Node1&#45;&gt;Node2 -->
<g id="edge1" class="edge">
<title>Node1&#45;&gt;Node2</title>
<path fill="none" stroke="midnightblue" d="M144.1,-45.38C154.3,-46.51 164.94,-47.69 175.52,-48.86"/>
<polygon fill="midnightblue" stroke="midnightblue" points="175.31,-52.36 185.64,-49.98 176.08,-45.4 175.31,-52.36"/>
</g>
<!-- Node4 -->
<g id="node4" class="node">
<title>Node4</title>
<g id="a_node4"><a xlink:href="class_photon_1_1_pun_1_1_photon_g_u_i.xhtml#a64c80b6cd15d48eff215c4c161f016b5" target="_top" xlink:title=" ">
<polygon fill="white" stroke="black" points="191.5,-0.5 191.5,-30.5 353.5,-30.5 353.5,-0.5 191.5,-0.5"/>
<text text-anchor="start" x="199.5" y="-18.5" font-family="Helvetica,sans-Serif" font-size="10.00">Photon.Pun.PhotonGUI.Container</text>
<text text-anchor="middle" x="272.5" y="-7.5" font-family="Helvetica,sans-Serif" font-size="10.00">HeaderToggle</text>
</a>
</g>
</g>
<!-- Node1&#45;&gt;Node4 -->
<g id="edge3" class="edge">
<title>Node1&#45;&gt;Node4</title>
<path fill="none" stroke="midnightblue" d="M144.1,-29.62C156.22,-28.28 168.94,-26.87 181.47,-25.48"/>
<polygon fill="midnightblue" stroke="midnightblue" points="181.9,-28.95 191.45,-24.37 181.13,-21.99 181.9,-28.95"/>
</g>
<!-- Node3 -->
<g id="node3" class="node">
<title>Node3</title>
<g id="a_node3"><a xlink:href="class_photon_1_1_pun_1_1_photon_g_u_i.xhtml#a5a6c798ce508cee8502c24185ead7adc" target="_top" xlink:title=" ">
<polygon fill="white" stroke="black" points="401,-50 401,-69 598,-69 598,-50 401,-50"/>
<text text-anchor="middle" x="499.5" y="-57" font-family="Helvetica,sans-Serif" font-size="10.00">Photon.Pun.PhotonGUI.DoContainerBody</text>
</a>
</g>
</g>
<!-- Node2&#45;&gt;Node3 -->
<g id="edge2" class="edge">
<title>Node2&#45;&gt;Node3</title>
<path fill="none" stroke="midnightblue" d="M365.02,-59.5C373.5,-59.5 382.15,-59.5 390.76,-59.5"/>
<polygon fill="midnightblue" stroke="midnightblue" points="390.83,-63 400.83,-59.5 390.83,-56 390.83,-63"/>
</g>
<!-- Node5 -->
<g id="node5" class="node">
<title>Node5</title>
<g id="a_node5"><a xlink:href="class_photon_1_1_pun_1_1_photon_g_u_i.xhtml#a633f7e1ae78cda5f5be8ea59937a087a" target="_top" xlink:title=" ">
<polygon fill="white" stroke="black" points="412.5,-0.5 412.5,-30.5 586.5,-30.5 586.5,-0.5 412.5,-0.5"/>
<text text-anchor="start" x="420.5" y="-18.5" font-family="Helvetica,sans-Serif" font-size="10.00">Photon.Pun.PhotonGUI.DoContainer</text>
<text text-anchor="middle" x="499.5" y="-7.5" font-family="Helvetica,sans-Serif" font-size="10.00">HeaderToggle</text>
</a>
</g>
</g>
<!-- Node4&#45;&gt;Node5 -->
<g id="edge4" class="edge">
<title>Node4&#45;&gt;Node5</title>
<path fill="none" stroke="midnightblue" d="M353.78,-15.5C369.31,-15.5 385.73,-15.5 401.72,-15.5"/>
<polygon fill="midnightblue" stroke="midnightblue" points="402.15,-19 412.15,-15.5 402.15,-12 402.15,-19"/>
</g>
<!-- Node6 -->
<g id="node6" class="node">
<title>Node6</title>
<g id="a_node6"><a xlink:href="class_photon_1_1_pun_1_1_photon_g_u_i.xhtml#ad47afe0a55f521dffdf89c792e2dfe31" target="_top" xlink:title=" ">
<polygon fill="white" stroke="black" points="634,-0.5 634,-30.5 808,-30.5 808,-0.5 634,-0.5"/>
<text text-anchor="start" x="642" y="-18.5" font-family="Helvetica,sans-Serif" font-size="10.00">Photon.Pun.PhotonGUI.DoContainer</text>
<text text-anchor="middle" x="721" y="-7.5" font-family="Helvetica,sans-Serif" font-size="10.00">Header</text>
</a>
</g>
</g>
<!-- Node5&#45;&gt;Node6 -->
<g id="edge5" class="edge">
<title>Node5&#45;&gt;Node6</title>
<path fill="none" stroke="midnightblue" d="M586.62,-15.5C598.73,-15.5 611.23,-15.5 623.52,-15.5"/>
<polygon fill="midnightblue" stroke="midnightblue" points="623.77,-19 633.77,-15.5 623.77,-12 623.77,-19"/>
</g>
</g>
</svg>
