<?xml version="1.0" encoding="UTF-8" standalone="no"?>
<!DOCTYPE svg PUBLIC "-//W3C//DTD SVG 1.1//EN"
 "http://www.w3.org/Graphics/SVG/1.1/DTD/svg11.dtd">
<!-- Generated by graphviz version 2.49.1 (20210923.0004)
 -->
<!-- Title: MinionStats.Initialize Pages: 1 -->
<svg width="585pt" height="142pt"
 viewBox="0.00 0.00 585.00 142.00" xmlns="http://www.w3.org/2000/svg" xmlns:xlink="http://www.w3.org/1999/xlink">
<g id="graph0" class="graph" transform="scale(1 1) rotate(0) translate(4 138)">
<title>MinionStats.Initialize</title>
<!-- Node1 -->
<g id="node1" class="node">
<title>Node1</title>
<g id="a_node1"><a xlink:title=" ">
<polygon fill="#bfbfbf" stroke="black" points="0,-66.5 0,-85.5 107,-85.5 107,-66.5 0,-66.5"/>
<text text-anchor="middle" x="53.5" y="-73.5" font-family="Helvetica,sans-Serif" font-size="10.00">MinionStats.Initialize</text>
</a>
</g>
</g>
<!-- Node2 -->
<g id="node2" class="node">
<title>Node2</title>
<g id="a_node2"><a xlink:href="class_minion_u_i_controller.html#ab78a1deb8df96e5afb81f12b3732b5f0" target="_top" xlink:title=" ">
<polygon fill="none" stroke="black" points="144,-104.5 144,-123.5 275,-123.5 275,-104.5 144,-104.5"/>
<text text-anchor="middle" x="209.5" y="-111.5" font-family="Helvetica,sans-Serif" font-size="10.00">MinionUIController.Initalize</text>
</a>
</g>
</g>
<!-- Node1&#45;&gt;Node2 -->
<g id="edge1" class="edge">
<title>Node1&#45;&gt;Node2</title>
<path fill="none" stroke="midnightblue" d="M93.36,-85.59C113.59,-90.58 138.52,-96.73 160,-102.03"/>
<polygon fill="midnightblue" stroke="midnightblue" points="159.37,-105.48 169.92,-104.48 161.05,-98.69 159.37,-105.48"/>
</g>
<!-- Node3 -->
<g id="node3" class="node">
<title>Node3</title>
<g id="a_node3"><a xlink:href="class_minion_a_i.html#a174b746b62e9b80b1e59edbbd8a309ff" target="_top" xlink:title=" ">
<polygon fill="none" stroke="black" points="163.5,-66.5 163.5,-85.5 255.5,-85.5 255.5,-66.5 163.5,-66.5"/>
<text text-anchor="middle" x="209.5" y="-73.5" font-family="Helvetica,sans-Serif" font-size="10.00">MinionAI.Initialize</text>
</a>
</g>
</g>
<!-- Node1&#45;&gt;Node3 -->
<g id="edge2" class="edge">
<title>Node1&#45;&gt;Node3</title>
<path fill="none" stroke="midnightblue" d="M107.07,-76C121.93,-76 138.16,-76 153.18,-76"/>
<polygon fill="midnightblue" stroke="midnightblue" points="153.36,-79.5 163.36,-76 153.36,-72.5 153.36,-79.5"/>
</g>
<!-- Node7 -->
<g id="node7" class="node">
<title>Node7</title>
<g id="a_node7"><a xlink:href="class_u_i_controller.html#a5f4c8564677f50adca215a4c91020c5c" target="_top" xlink:title=" ">
<polygon fill="none" stroke="black" points="143,-19.5 143,-38.5 276,-38.5 276,-19.5 143,-19.5"/>
<text text-anchor="middle" x="209.5" y="-26.5" font-family="Helvetica,sans-Serif" font-size="10.00">UIController.InitializeColors</text>
</a>
</g>
</g>
<!-- Node1&#45;&gt;Node7 -->
<g id="edge6" class="edge">
<title>Node1&#45;&gt;Node7</title>
<path fill="none" stroke="midnightblue" d="M85.66,-66.49C109.17,-59.31 141.65,-49.4 167.3,-41.57"/>
<polygon fill="midnightblue" stroke="midnightblue" points="168.58,-44.84 177.12,-38.58 166.53,-38.15 168.58,-44.84"/>
</g>
<!-- Node4 -->
<g id="node4" class="node">
<title>Node4</title>
<g id="a_node4"><a xlink:href="class_utils.html#a6ac07f202eb5cc4bf2322b73d1196f90" target="_top" xlink:title="Returns the enemy Team of the passed one.">
<polygon fill="none" stroke="black" points="316.5,-114.5 316.5,-133.5 426.5,-133.5 426.5,-114.5 316.5,-114.5"/>
<text text-anchor="middle" x="371.5" y="-121.5" font-family="Helvetica,sans-Serif" font-size="10.00">Utils.GetEnemyTeam</text>
</a>
</g>
</g>
<!-- Node3&#45;&gt;Node4 -->
<g id="edge3" class="edge">
<title>Node3&#45;&gt;Node4</title>
<path fill="none" stroke="midnightblue" d="M243.85,-85.57C254.17,-88.55 265.56,-91.88 276,-95 293.7,-100.28 313.23,-106.25 329.91,-111.39"/>
<polygon fill="midnightblue" stroke="midnightblue" points="329.31,-114.87 339.89,-114.48 331.37,-108.18 329.31,-114.87"/>
</g>
<!-- Node5 -->
<g id="node5" class="node">
<title>Node5</title>
<g id="a_node5"><a xlink:href="class_minion_a_i.html#ac52b368d1ec72545ac0c0a4708c1c155" target="_top" xlink:title=" ">
<polygon fill="none" stroke="black" points="321.5,-76.5 321.5,-95.5 421.5,-95.5 421.5,-76.5 321.5,-76.5"/>
<text text-anchor="middle" x="371.5" y="-83.5" font-family="Helvetica,sans-Serif" font-size="10.00">MinionAI.SetRange</text>
</a>
</g>
</g>
<!-- Node3&#45;&gt;Node5 -->
<g id="edge4" class="edge">
<title>Node3&#45;&gt;Node5</title>
<path fill="none" stroke="midnightblue" d="M255.92,-78.84C273.15,-79.92 293.03,-81.16 311.34,-82.3"/>
<polygon fill="midnightblue" stroke="midnightblue" points="311.12,-85.8 321.32,-82.93 311.56,-78.81 311.12,-85.8"/>
</g>
<!-- Node6 -->
<g id="node6" class="node">
<title>Node6</title>
<g id="a_node6"><a xlink:href="class_minion_a_i.html#a84c1cea7268781a3cafec4135d94df5c" target="_top" xlink:title=" ">
<polygon fill="none" stroke="black" points="321.5,-38.5 321.5,-57.5 421.5,-57.5 421.5,-38.5 321.5,-38.5"/>
<text text-anchor="middle" x="371.5" y="-45.5" font-family="Helvetica,sans-Serif" font-size="10.00">MinionAI.SetSpeed</text>
</a>
</g>
</g>
<!-- Node3&#45;&gt;Node6 -->
<g id="edge5" class="edge">
<title>Node3&#45;&gt;Node6</title>
<path fill="none" stroke="midnightblue" d="M255.92,-68.05C273.15,-65.04 293.03,-61.56 311.34,-58.35"/>
<polygon fill="midnightblue" stroke="midnightblue" points="312.08,-61.78 321.32,-56.61 310.87,-54.88 312.08,-61.78"/>
</g>
<!-- Node8 -->
<g id="node8" class="node">
<title>Node8</title>
<g id="a_node8"><a xlink:href="class_u_i_controller.html#a25efcf4c19f58682359f159ebe68cd61" target="_top" xlink:title="Loads all the necessary colors for all the dynamic UIs in the game">
<polygon fill="none" stroke="black" points="312,-0.5 312,-19.5 431,-19.5 431,-0.5 312,-0.5"/>
<text text-anchor="middle" x="371.5" y="-7.5" font-family="Helvetica,sans-Serif" font-size="10.00">UIController.LoadColors</text>
</a>
</g>
</g>
<!-- Node7&#45;&gt;Node8 -->
<g id="edge7" class="edge">
<title>Node7&#45;&gt;Node8</title>
<path fill="none" stroke="midnightblue" d="M276.04,-21.22C284.6,-20.2 293.39,-19.16 302,-18.13"/>
<polygon fill="midnightblue" stroke="midnightblue" points="302.47,-21.6 311.99,-16.95 301.65,-14.65 302.47,-21.6"/>
</g>
<!-- Node9 -->
<g id="node9" class="node">
<title>Node9</title>
<g id="a_node9"><a xlink:href="class_utils.html#ab9e5182f0bed89c77ffe578768c9c8c2" target="_top" xlink:title="Pass a hex string and you get the Color.">
<polygon fill="none" stroke="black" points="467,-0.5 467,-19.5 577,-19.5 577,-0.5 467,-0.5"/>
<text text-anchor="middle" x="522" y="-7.5" font-family="Helvetica,sans-Serif" font-size="10.00">Utils.ColorFromString</text>
</a>
</g>
</g>
<!-- Node8&#45;&gt;Node9 -->
<g id="edge8" class="edge">
<title>Node8&#45;&gt;Node9</title>
<path fill="none" stroke="midnightblue" d="M431.19,-10C439.49,-10 448.06,-10 456.46,-10"/>
<polygon fill="midnightblue" stroke="midnightblue" points="456.6,-13.5 466.6,-10 456.6,-6.5 456.6,-13.5"/>
</g>
</g>
</svg>
