<?xml version="1.0" encoding="UTF-8" standalone="no"?>
<!DOCTYPE svg PUBLIC "-//W3C//DTD SVG 1.1//EN"
 "http://www.w3.org/Graphics/SVG/1.1/DTD/svg11.dtd">
<!-- Generated by graphviz version 2.47.3 (20210619.1520)
 -->
<!-- Title: AbilityCooldown Pages: 1 -->
<!--zoomable 440 -->
<svg id="main" version="1.1" xmlns="http://www.w3.org/2000/svg" xmlns:xlink="http://www.w3.org/1999/xlink" xml:space="preserve" onload="init(evt)">
<style type="text/css"><![CDATA[
.edge:hover path { stroke: red; }
.edge:hover polygon { stroke: red; fill: red; }
]]></style>
<script type="text/javascript"><![CDATA[
var edges = document.getElementsByTagName('g');
if (edges && edges.length) {
  for (var i=0;i<edges.length;i++) {
    if (edges[i].id.substr(0,4)=='edge') {
      edges[i].setAttribute('class','edge');
    }
  }
}
]]></script>
        <defs>
                <circle id="rim" cx="0" cy="0" r="7"/>
                <circle id="rim2" cx="0" cy="0" r="3.5"/>
                <g id="zoomPlus">
                        <use xlink:href="#rim" fill="#404040">
                                <set attributeName="fill" to="#808080" begin="zoomplus.mouseover" end="zoomplus.mouseout"/>
                        </use>
                        <path d="M-4,0h8M0,-4v8" fill="none" stroke="white" stroke-width="1.5" pointer-events="none"/>
                </g>
                <g id="zoomMin">
                        <use xlink:href="#rim" fill="#404040">
                                <set attributeName="fill" to="#808080" begin="zoomminus.mouseover" end="zoomminus.mouseout"/>
                        </use>
                        <path d="M-4,0h8" fill="none" stroke="white" stroke-width="1.5" pointer-events="none"/>
                </g>
                <g id="dirArrow">
                        <path fill="none" stroke="white" stroke-width="1.5" d="M0,-3.0v7 M-2.5,-0.5L0,-3.0L2.5,-0.5"/>
                </g>
               <g id="resetDef">
                       <use xlink:href="#rim2" fill="#404040">
                               <set attributeName="fill" to="#808080" begin="reset.mouseover" end="reset.mouseout"/>
                       </use>
               </g>
        </defs>

<script type="text/javascript">
var viewWidth = 1032;
var viewHeight = 440;
var sectionId = 'dynsection-1';
</script>
<script xlink:href="svgpan.js"/>
<svg id="graph" class="graph">
<g id="viewport">
<title>AbilityCooldown</title>
<polygon fill="white" stroke="transparent" points="-4,4 -4,-436 1027.5,-436 1027.5,4 -4,4"/>
<!-- Node1 -->
<g id="node1" class="node">
<title>Node1</title>
<g id="a_node1"><a xlink:title=" ">
<polygon fill="#bfbfbf" stroke="black" points="448,-210.5 448,-229.5 534,-229.5 534,-210.5 448,-210.5"/>
<text text-anchor="middle" x="491" y="-217.5" font-family="Helvetica,sans-Serif" font-size="10.00">AbilityCooldown</text>
</a>
</g>
</g>
<!-- Node3 -->
<g id="node3" class="node">
<title>Node3</title>
<g id="a_node3"><a xlink:href="class_player_controller.xhtml" target="_top" xlink:title="Player Controller is the main class that handles all the movement of the Player.">
<polygon fill="white" stroke="black" points="711,-134.5 711,-153.5 797,-153.5 797,-134.5 711,-134.5"/>
<text text-anchor="middle" x="754" y="-141.5" font-family="Helvetica,sans-Serif" font-size="10.00">PlayerController</text>
</a>
</g>
</g>
<!-- Node1&#45;&gt;Node3 -->
<g id="edge4" class="edge">
<title>Node1&#45;&gt;Node3</title>
<path fill="none" stroke="#9a32cd" stroke-dasharray="5,2" d="M544.56,-218.97C606.28,-217.92 702.94,-212.85 732,-192 744.74,-182.86 750.32,-164.43 752.6,-153.56"/>
<polygon fill="#9a32cd" stroke="#9a32cd" points="544.17,-215.47 534.22,-219.11 544.27,-222.47 544.17,-215.47"/>
<text text-anchor="middle" x="784" y="-179.5" font-family="Helvetica,sans-Serif" font-size="10.00"> abilityCooldowns</text>
</g>
<!-- Node8 -->
<g id="node8" class="node">
<title>Node8</title>
<g id="a_node8"><a xlink:href="class_player_stats.xhtml" target="_top" xlink:title="Player Stats is the main class that controls all the Player Statistics in all time in the game execut...">
<polygon fill="white" stroke="black" points="373,-67.5 373,-86.5 441,-86.5 441,-67.5 373,-67.5"/>
<text text-anchor="middle" x="407" y="-74.5" font-family="Helvetica,sans-Serif" font-size="10.00">PlayerStats</text>
</a>
</g>
</g>
<!-- Node1&#45;&gt;Node8 -->
<g id="edge19" class="edge">
<title>Node1&#45;&gt;Node8</title>
<path fill="none" stroke="#9a32cd" stroke-dasharray="5,2" d="M453.22,-206.21C445.88,-202.47 438.7,-197.79 433,-192 403.94,-162.5 404.68,-107.62 406.19,-86.55"/>
<polygon fill="#9a32cd" stroke="#9a32cd" points="451.96,-209.48 462.51,-210.45 454.87,-203.11 451.96,-209.48"/>
<text text-anchor="middle" x="449" y="-141.5" font-family="Helvetica,sans-Serif" font-size="10.00"> abilityCooldowns</text>
</g>
<!-- Node15 -->
<g id="node15" class="node">
<title>Node15</title>
<g id="a_node15"><a xlink:href="class_ability_indicator.xhtml" target="_top" xlink:title=" ">
<polygon fill="white" stroke="black" points="501,-134.5 501,-153.5 581,-153.5 581,-134.5 501,-134.5"/>
<text text-anchor="middle" x="541" y="-141.5" font-family="Helvetica,sans-Serif" font-size="10.00">AbilityIndicator</text>
</a>
</g>
</g>
<!-- Node1&#45;&gt;Node15 -->
<g id="edge30" class="edge">
<title>Node1&#45;&gt;Node15</title>
<path fill="none" stroke="#9a32cd" stroke-dasharray="5,2" d="M502.62,-201.8C512.78,-186.77 527.11,-165.56 535.08,-153.77"/>
<polygon fill="#9a32cd" stroke="#9a32cd" points="499.63,-199.98 496.93,-210.22 505.43,-203.89 499.63,-199.98"/>
<text text-anchor="middle" x="544.5" y="-179.5" font-family="Helvetica,sans-Serif" font-size="10.00"> currentCD</text>
</g>
<!-- Node2 -->
<g id="node2" class="node">
<title>Node2</title>
<g id="a_node2"><a xlink:title=" ">
<polygon fill="white" stroke="#bfbfbf" points="340.5,-277.5 340.5,-296.5 423.5,-296.5 423.5,-277.5 340.5,-277.5"/>
<text text-anchor="middle" x="382" y="-284.5" font-family="Helvetica,sans-Serif" font-size="10.00">MonoBehaviour</text>
</a>
</g>
</g>
<!-- Node2&#45;&gt;Node1 -->
<g id="edge1" class="edge">
<title>Node2&#45;&gt;Node1</title>
<path fill="none" stroke="midnightblue" d="M405.57,-271.94C427.16,-259.07 458.42,-240.43 476.53,-229.63"/>
<polygon fill="midnightblue" stroke="midnightblue" points="403.5,-269.11 396.7,-277.23 407.08,-275.12 403.5,-269.11"/>
</g>
<!-- Node2&#45;&gt;Node3 -->
<g id="edge3" class="edge">
<title>Node2&#45;&gt;Node3</title>
<path fill="none" stroke="midnightblue" d="M433.86,-283.33C540.86,-276.59 779.95,-254.68 826,-192 831.26,-184.84 831.06,-179.31 826,-172 819.23,-162.23 808.47,-156 797.3,-152.01"/>
<polygon fill="midnightblue" stroke="midnightblue" points="433.39,-279.85 423.63,-283.96 433.82,-286.84 433.39,-279.85"/>
</g>
<!-- Node10 -->
<g id="node10" class="node">
<title>Node10</title>
<g id="a_node10"><a xlink:href="class_stats.xhtml" target="_top" xlink:title="Base class Stats of the entity.">
<polygon fill="white" stroke="black" points="211,-210.5 211,-229.5 251,-229.5 251,-210.5 211,-210.5"/>
<text text-anchor="middle" x="231" y="-217.5" font-family="Helvetica,sans-Serif" font-size="10.00">Stats</text>
</a>
</g>
</g>
<!-- Node2&#45;&gt;Node10 -->
<g id="edge14" class="edge">
<title>Node2&#45;&gt;Node10</title>
<path fill="none" stroke="midnightblue" d="M352.45,-273.28C322.55,-260.41 277.12,-240.85 251.13,-229.67"/>
<polygon fill="midnightblue" stroke="midnightblue" points="351.38,-276.63 361.95,-277.37 354.15,-270.2 351.38,-276.63"/>
</g>
<!-- Node12 -->
<g id="node12" class="node">
<title>Node12</title>
<g id="a_node12"><a xlink:href="class_u_i_controller.xhtml" target="_top" xlink:title=" ">
<polygon fill="white" stroke="black" points="84.5,-210.5 84.5,-229.5 151.5,-229.5 151.5,-210.5 84.5,-210.5"/>
<text text-anchor="middle" x="118" y="-217.5" font-family="Helvetica,sans-Serif" font-size="10.00">UIController</text>
</a>
</g>
</g>
<!-- Node2&#45;&gt;Node12 -->
<g id="edge17" class="edge">
<title>Node2&#45;&gt;Node12</title>
<path fill="none" stroke="midnightblue" d="M337.5,-275.04C284.99,-262.11 198.85,-240.91 151.61,-229.28"/>
<polygon fill="midnightblue" stroke="midnightblue" points="336.67,-278.44 347.22,-277.44 338.34,-271.65 336.67,-278.44"/>
</g>
<!-- Node13 -->
<g id="node13" class="node">
<title>Node13</title>
<g id="a_node13"><a xlink:href="class_inventory.xhtml" target="_top" xlink:title=" ">
<polygon fill="white" stroke="black" points="581.5,-172.5 581.5,-191.5 636.5,-191.5 636.5,-172.5 581.5,-172.5"/>
<text text-anchor="middle" x="609" y="-179.5" font-family="Helvetica,sans-Serif" font-size="10.00">Inventory</text>
</a>
</g>
</g>
<!-- Node2&#45;&gt;Node13 -->
<g id="edge21" class="edge">
<title>Node2&#45;&gt;Node13</title>
<path fill="none" stroke="midnightblue" d="M434.03,-286.13C489.22,-285.12 571.52,-280 594,-259 612.87,-241.37 611.87,-207.44 610.19,-191.57"/>
<polygon fill="midnightblue" stroke="midnightblue" points="433.66,-282.63 423.71,-286.27 433.76,-289.63 433.66,-282.63"/>
</g>
<!-- Node14 -->
<g id="node14" class="node">
<title>Node14</title>
<g id="a_node14"><a xlink:href="class_basic_attack.xhtml" target="_top" xlink:title=" ">
<polygon fill="white" stroke="black" points="372,-0.5 372,-19.5 442,-19.5 442,-0.5 372,-0.5"/>
<text text-anchor="middle" x="407" y="-7.5" font-family="Helvetica,sans-Serif" font-size="10.00">BasicAttack</text>
</a>
</g>
</g>
<!-- Node2&#45;&gt;Node14 -->
<g id="edge23" class="edge">
<title>Node2&#45;&gt;Node14</title>
<path fill="none" stroke="midnightblue" d="M330.39,-282.51C226.08,-274.75 0,-254.12 0,-221 0,-221 0,-221 0,-76 0,-38.48 273.22,-18.81 371.95,-12.92"/>
<polygon fill="midnightblue" stroke="midnightblue" points="330.16,-286 340.39,-283.24 330.67,-279.02 330.16,-286"/>
</g>
<!-- Node2&#45;&gt;Node15 -->
<g id="edge29" class="edge">
<title>Node2&#45;&gt;Node15</title>
<path fill="none" stroke="midnightblue" d="M385.11,-267.48C390.36,-242.07 403.47,-196.75 433,-172 438.37,-167.5 472.3,-159.44 500.72,-153.29"/>
<polygon fill="midnightblue" stroke="midnightblue" points="381.66,-266.84 383.26,-277.32 388.55,-268.13 381.66,-266.84"/>
</g>
<!-- Node3&#45;&gt;Node1 -->
<g id="edge2" class="edge">
<title>Node3&#45;&gt;Node1</title>
<path fill="none" stroke="#9a32cd" stroke-dasharray="5,2" d="M701.11,-156.08C687.57,-160.05 673.35,-165.27 661,-172 649.11,-178.48 650.21,-186.12 638,-192 605.27,-207.76 564.37,-214.36 534.03,-217.1"/>
<polygon fill="#9a32cd" stroke="#9a32cd" points="702.1,-159.43 710.81,-153.4 700.24,-152.68 702.1,-159.43"/>
<text text-anchor="middle" x="696.5" y="-179.5" font-family="Helvetica,sans-Serif" font-size="10.00"> playerController</text>
</g>
<!-- Node3&#45;&gt;Node8 -->
<g id="edge18" class="edge">
<title>Node3&#45;&gt;Node8</title>
<path fill="none" stroke="#9a32cd" stroke-dasharray="5,2" d="M713.38,-131.35C699.19,-126.95 683.25,-121.64 669,-116 658.46,-111.83 656.89,-108.12 646,-105 575.15,-84.68 488.39,-79.55 441.33,-78.32"/>
<polygon fill="#9a32cd" stroke="#9a32cd" points="712.76,-134.82 723.35,-134.38 714.8,-128.13 712.76,-134.82"/>
<text text-anchor="middle" x="704.5" y="-108" font-family="Helvetica,sans-Serif" font-size="10.00"> playerController</text>
</g>
<!-- Node3&#45;&gt;Node14 -->
<g id="edge24" class="edge">
<title>Node3&#45;&gt;Node14</title>
<path fill="none" stroke="#9a32cd" stroke-dasharray="5,2" d="M766.66,-125.79C777.25,-109.12 788.61,-83.95 775,-67 733.88,-15.79 526.09,-10.6 442.2,-10.63"/>
<polygon fill="#9a32cd" stroke="#9a32cd" points="763.47,-124.26 760.71,-134.49 769.25,-128.21 763.47,-124.26"/>
<text text-anchor="middle" x="802.5" y="-74.5" font-family="Helvetica,sans-Serif" font-size="10.00"> controller</text>
</g>
<!-- Node4 -->
<g id="node4" class="node">
<title>Node4</title>
<g id="a_node4"><a xlink:href="class_character.xhtml" target="_top" xlink:title=" ">
<polygon fill="white" stroke="black" points="964.5,-210.5 964.5,-229.5 1023.5,-229.5 1023.5,-210.5 964.5,-210.5"/>
<text text-anchor="middle" x="994" y="-217.5" font-family="Helvetica,sans-Serif" font-size="10.00">Character</text>
</a>
</g>
</g>
<!-- Node4&#45;&gt;Node3 -->
<g id="edge5" class="edge">
<title>Node4&#45;&gt;Node3</title>
<path fill="none" stroke="#9a32cd" stroke-dasharray="5,2" d="M978.69,-203.31C967.37,-192.7 951.02,-179.33 934,-172 889.89,-153 834.7,-147.04 797.14,-145.34"/>
<polygon fill="#9a32cd" stroke="#9a32cd" points="976.38,-205.95 985.98,-210.43 981.27,-200.94 976.38,-205.95"/>
<text text-anchor="middle" x="987" y="-179.5" font-family="Helvetica,sans-Serif" font-size="10.00"> character</text>
</g>
<!-- Node5 -->
<g id="node5" class="node">
<title>Node5</title>
<g id="a_node5"><a xlink:title=" ">
<polygon fill="white" stroke="#bfbfbf" points="911.5,-412.5 911.5,-431.5 1000.5,-431.5 1000.5,-412.5 911.5,-412.5"/>
<text text-anchor="middle" x="956" y="-419.5" font-family="Helvetica,sans-Serif" font-size="10.00">ScriptableObject</text>
</a>
</g>
</g>
<!-- Node5&#45;&gt;Node4 -->
<g id="edge6" class="edge">
<title>Node5&#45;&gt;Node4</title>
<path fill="none" stroke="midnightblue" d="M967.59,-403.78C969.3,-400.63 970.87,-397.3 972,-394 992.74,-333.58 994.24,-255.23 994.12,-229.56"/>
<polygon fill="midnightblue" stroke="midnightblue" points="964.52,-402.09 962.3,-412.45 970.5,-405.74 964.52,-402.09"/>
</g>
<!-- Node6 -->
<g id="node6" class="node">
<title>Node6</title>
<g id="a_node6"><a xlink:href="class_ability.xhtml" target="_top" xlink:title=" ">
<polygon fill="white" stroke="black" points="883,-277.5 883,-296.5 927,-296.5 927,-277.5 883,-277.5"/>
<text text-anchor="middle" x="905" y="-284.5" font-family="Helvetica,sans-Serif" font-size="10.00">Ability</text>
</a>
</g>
</g>
<!-- Node5&#45;&gt;Node6 -->
<g id="edge8" class="edge">
<title>Node5&#45;&gt;Node6</title>
<path fill="none" stroke="midnightblue" d="M957.79,-402.12C958.99,-379.73 958.06,-342.05 942,-315 937.37,-307.21 929.53,-301 922.25,-296.51"/>
<polygon fill="midnightblue" stroke="midnightblue" points="954.28,-402.07 957.03,-412.3 961.26,-402.59 954.28,-402.07"/>
</g>
<!-- Node7 -->
<g id="node7" class="node">
<title>Node7</title>
<g id="a_node7"><a xlink:href="class_effect.xhtml" target="_top" xlink:title=" ">
<polygon fill="white" stroke="black" points="864.5,-355.5 864.5,-374.5 905.5,-374.5 905.5,-355.5 864.5,-355.5"/>
<text text-anchor="middle" x="885" y="-362.5" font-family="Helvetica,sans-Serif" font-size="10.00">Effect</text>
</a>
</g>
</g>
<!-- Node5&#45;&gt;Node7 -->
<g id="edge10" class="edge">
<title>Node5&#45;&gt;Node7</title>
<path fill="none" stroke="midnightblue" d="M936.63,-406C923.68,-395.96 907.08,-383.1 896.25,-374.71"/>
<polygon fill="midnightblue" stroke="midnightblue" points="934.86,-409.05 944.91,-412.41 939.14,-403.52 934.86,-409.05"/>
</g>
<!-- Node6&#45;&gt;Node1 -->
<g id="edge27" class="edge">
<title>Node6&#45;&gt;Node1</title>
<path fill="none" stroke="#9a32cd" stroke-dasharray="5,2" d="M872.64,-280.92C798.77,-269.32 617.65,-240.88 534.29,-227.8"/>
<polygon fill="#9a32cd" stroke="#9a32cd" points="872.32,-284.41 882.74,-282.51 873.41,-277.5 872.32,-284.41"/>
<text text-anchor="middle" x="736.5" y="-251" font-family="Helvetica,sans-Serif" font-size="10.00"> ability</text>
</g>
<!-- Node6&#45;&gt;Node4 -->
<g id="edge7" class="edge">
<title>Node6&#45;&gt;Node4</title>
<path fill="none" stroke="#9a32cd" stroke-dasharray="5,2" d="M919.29,-269.65C926.04,-262.48 934.48,-254.29 943,-248 952.67,-240.86 964.48,-234.48 974.3,-229.72"/>
<polygon fill="#9a32cd" stroke="#9a32cd" points="916.37,-267.65 912.23,-277.41 921.55,-272.36 916.37,-267.65"/>
<text text-anchor="middle" x="961.5" y="-251" font-family="Helvetica,sans-Serif" font-size="10.00"> abilities</text>
</g>
<!-- Node16 -->
<g id="node16" class="node">
<title>Node16</title>
<g id="a_node16"><a xlink:href="class_indicated_ability.xhtml" target="_top" xlink:title="Encapsulador de les Ability que han de mostrar l&#39;indicador">
<polygon fill="white" stroke="black" points="863.5,-210.5 863.5,-229.5 946.5,-229.5 946.5,-210.5 863.5,-210.5"/>
<text text-anchor="middle" x="905" y="-217.5" font-family="Helvetica,sans-Serif" font-size="10.00">IndicatedAbility</text>
</a>
</g>
</g>
<!-- Node6&#45;&gt;Node16 -->
<g id="edge32" class="edge">
<title>Node6&#45;&gt;Node16</title>
<path fill="none" stroke="midnightblue" d="M905,-267.04C905,-254.67 905,-239.12 905,-229.63"/>
<polygon fill="midnightblue" stroke="midnightblue" points="901.5,-267.23 905,-277.23 908.5,-267.23 901.5,-267.23"/>
</g>
<!-- Node7&#45;&gt;Node6 -->
<g id="edge9" class="edge">
<title>Node7&#45;&gt;Node6</title>
<path fill="none" stroke="#9a32cd" stroke-dasharray="5,2" d="M869.56,-347.57C867.28,-344.28 865.27,-340.7 864,-337 860.83,-327.75 859.36,-323.61 864,-315 868.37,-306.9 876.35,-300.83 884.11,-296.51"/>
<polygon fill="#9a32cd" stroke="#9a32cd" points="866.9,-349.85 875.91,-355.42 872.34,-345.45 866.9,-349.85"/>
<text text-anchor="middle" x="903" y="-329" font-family="Helvetica,sans-Serif" font-size="10.00"> aToAuthorEffects</text>
<text text-anchor="middle" x="903" y="-318" font-family="Helvetica,sans-Serif" font-size="10.00">aToEnemyEffects</text>
</g>
<!-- Node8&#45;&gt;Node1 -->
<g id="edge33" class="edge">
<title>Node8&#45;&gt;Node1</title>
<path fill="none" stroke="#9a32cd" stroke-dasharray="5,2" d="M383.47,-92.36C362.46,-107.11 336.86,-131.09 350,-154 369.92,-188.72 414.17,-205.03 447.83,-212.61"/>
<polygon fill="#9a32cd" stroke="#9a32cd" points="385.69,-95.08 392.07,-86.63 381.81,-89.26 385.69,-95.08"/>
<text text-anchor="middle" x="376.5" y="-141.5" font-family="Helvetica,sans-Serif" font-size="10.00"> playerStats</text>
</g>
<!-- Node8&#45;&gt;Node3 -->
<g id="edge11" class="edge">
<title>Node8&#45;&gt;Node3</title>
<path fill="none" stroke="#9a32cd" stroke-dasharray="5,2" d="M451.18,-80.41C490.43,-83.45 549,-90.2 598,-105 608.85,-108.28 610.26,-112.4 621,-116 650.27,-125.8 684.41,-132.64 710.77,-136.99"/>
<polygon fill="#9a32cd" stroke="#9a32cd" points="451.37,-76.92 441.14,-79.68 450.86,-83.9 451.37,-76.92"/>
<text text-anchor="middle" x="633.5" y="-108" font-family="Helvetica,sans-Serif" font-size="10.00"> stats</text>
</g>
<!-- Node8&#45;&gt;Node14 -->
<g id="edge26" class="edge">
<title>Node8&#45;&gt;Node14</title>
<path fill="none" stroke="#9a32cd" stroke-dasharray="5,2" d="M407,-57.04C407,-44.67 407,-29.12 407,-19.63"/>
<polygon fill="#9a32cd" stroke="#9a32cd" points="403.5,-57.23 407,-67.23 410.5,-57.23 403.5,-57.23"/>
<text text-anchor="middle" x="419.5" y="-41" font-family="Helvetica,sans-Serif" font-size="10.00"> stats</text>
</g>
<!-- Node9 -->
<g id="node9" class="node">
<title>Node9</title>
<g id="a_node9"><a xlink:href="class_ability_affected_stats.xhtml" target="_top" xlink:title="Base class Stats of the entity who is affected by Abilities.">
<polygon fill="white" stroke="black" points="180,-134.5 180,-153.5 282,-153.5 282,-134.5 180,-134.5"/>
<text text-anchor="middle" x="231" y="-141.5" font-family="Helvetica,sans-Serif" font-size="10.00">AbilityAffectedStats</text>
</a>
</g>
</g>
<!-- Node9&#45;&gt;Node8 -->
<g id="edge12" class="edge">
<title>Node9&#45;&gt;Node8</title>
<path fill="none" stroke="midnightblue" d="M254.05,-129.3C268.12,-121.38 286.67,-111.68 304,-105 326.25,-96.42 352.23,-89.63 372.53,-85.01"/>
<polygon fill="midnightblue" stroke="midnightblue" points="252.03,-126.43 245.1,-134.45 255.51,-132.5 252.03,-126.43"/>
</g>
<!-- Node10&#45;&gt;Node9 -->
<g id="edge13" class="edge">
<title>Node10&#45;&gt;Node9</title>
<path fill="none" stroke="midnightblue" d="M231,-200.07C231,-185.18 231,-165.11 231,-153.77"/>
<polygon fill="midnightblue" stroke="midnightblue" points="227.5,-200.22 231,-210.22 234.5,-200.22 227.5,-200.22"/>
</g>
<!-- Node10&#45;&gt;Node14 -->
<g id="edge25" class="edge">
<title>Node10&#45;&gt;Node14</title>
<path fill="none" stroke="#9a32cd" stroke-dasharray="5,2" d="M208.49,-204.59C185.55,-188.01 155.39,-159.75 171,-134 215.09,-61.31 317.72,-29.57 371.96,-17.47"/>
<polygon fill="#9a32cd" stroke="#9a32cd" points="206.6,-207.54 216.82,-210.34 210.58,-201.78 206.6,-207.54"/>
<text text-anchor="middle" x="217.5" y="-108" font-family="Helvetica,sans-Serif" font-size="10.00"> otherStats</text>
</g>
<!-- Node11 -->
<g id="node11" class="node">
<title>Node11</title>
<g id="a_node11"><a xlink:href="class_player_u_i_controller.xhtml" target="_top" xlink:title="UI Controller for the Player Stats">
<polygon fill="white" stroke="black" points="28.5,-134.5 28.5,-153.5 123.5,-153.5 123.5,-134.5 28.5,-134.5"/>
<text text-anchor="middle" x="76" y="-141.5" font-family="Helvetica,sans-Serif" font-size="10.00">PlayerUIController</text>
</a>
</g>
</g>
<!-- Node11&#45;&gt;Node8 -->
<g id="edge15" class="edge">
<title>Node11&#45;&gt;Node8</title>
<path fill="none" stroke="#9a32cd" stroke-dasharray="5,2" d="M77.62,-123.93C79.21,-116.93 82.26,-109.59 88,-105 109.86,-87.51 294.94,-80.83 372.76,-78.77"/>
<polygon fill="#9a32cd" stroke="#9a32cd" points="74.1,-123.83 76.13,-134.22 81.03,-124.83 74.1,-123.83"/>
<text text-anchor="middle" x="109" y="-108" font-family="Helvetica,sans-Serif" font-size="10.00"> uiControl</text>
</g>
<!-- Node12&#45;&gt;Node11 -->
<g id="edge16" class="edge">
<title>Node12&#45;&gt;Node11</title>
<path fill="none" stroke="midnightblue" d="M108,-201.37C99.48,-186.37 87.6,-165.44 80.98,-153.77"/>
<polygon fill="midnightblue" stroke="midnightblue" points="105.04,-203.25 113.02,-210.22 111.12,-199.8 105.04,-203.25"/>
</g>
<!-- Node13&#45;&gt;Node8 -->
<g id="edge20" class="edge">
<title>Node13&#45;&gt;Node8</title>
<path fill="none" stroke="#9a32cd" stroke-dasharray="5,2" d="M605.54,-162.51C602.83,-152.81 598.11,-141.43 590,-134 548.48,-95.95 481.72,-83.74 441.34,-79.83"/>
<polygon fill="#9a32cd" stroke="#9a32cd" points="602.17,-163.48 607.81,-172.44 608.99,-161.91 602.17,-163.48"/>
<text text-anchor="middle" x="623" y="-141.5" font-family="Helvetica,sans-Serif" font-size="10.00"> inventory</text>
</g>
<!-- Node14&#45;&gt;Node3 -->
<g id="edge22" class="edge">
<title>Node14&#45;&gt;Node3</title>
<path fill="none" stroke="#9a32cd" stroke-dasharray="5,2" d="M452.44,-11.33C522.96,-14.29 659.05,-30.12 740,-105 748.26,-112.64 751.66,-125.57 753.05,-134.2"/>
<polygon fill="#9a32cd" stroke="#9a32cd" points="452.23,-7.82 442.11,-10.97 451.98,-14.82 452.23,-7.82"/>
<text text-anchor="middle" x="743.5" y="-74.5" font-family="Helvetica,sans-Serif" font-size="10.00"> basicAttack</text>
</g>
<!-- Node15&#45;&gt;Node1 -->
<g id="edge28" class="edge">
<title>Node15&#45;&gt;Node1</title>
<path fill="none" stroke="#9a32cd" stroke-dasharray="5,2" d="M491.01,-155.69C467.72,-161.17 444.37,-167.6 441,-172 435.6,-179.06 436.45,-184.37 441,-192 446,-200.39 454.61,-206.33 463.29,-210.45"/>
<polygon fill="#9a32cd" stroke="#9a32cd" points="491.96,-159.06 500.92,-153.4 490.39,-152.24 491.96,-159.06"/>
<text text-anchor="middle" x="474" y="-179.5" font-family="Helvetica,sans-Serif" font-size="10.00"> abilityIndicator</text>
</g>
<!-- Node16&#45;&gt;Node15 -->
<g id="edge31" class="edge">
<title>Node16&#45;&gt;Node15</title>
<path fill="none" stroke="#9a32cd" stroke-dasharray="5,2" d="M886.17,-204.39C870.87,-193.4 848.25,-179.06 826,-172 727.84,-140.86 697.22,-166.48 595,-154 590.47,-153.45 585.74,-152.79 581.05,-152.07"/>
<polygon fill="#9a32cd" stroke="#9a32cd" points="884.16,-207.26 894.27,-210.4 888.32,-201.63 884.16,-207.26"/>
<text text-anchor="middle" x="883" y="-179.5" font-family="Helvetica,sans-Serif" font-size="10.00"> current</text>
</g>
</g>
</svg>
        <g id="navigator" transform="translate(0 0)" fill="#404254">
                <rect fill="#f2f5e9" fill-opacity="0.5" stroke="#606060" stroke-width=".5" x="0" y="0" width="60" height="60"/>
                <use id="zoomplus" xlink:href="#zoomPlus" x="17" y="9" onmousedown="handleZoom(evt,'in')"/>
                <use id="zoomminus" xlink:href="#zoomMin" x="42" y="9" onmousedown="handleZoom(evt,'out')"/>
                <use id="reset" xlink:href="#resetDef" x="30" y="36" onmousedown="handleReset()"/>
                <g id="arrowUp" xlink:href="#dirArrow" transform="translate(30 24)" onmousedown="handlePan(0,-1)">
                  <use xlink:href="#rim" fill="#404040">
                        <set attributeName="fill" to="#808080" begin="arrowUp.mouseover" end="arrowUp.mouseout"/>
                  </use>
                  <path fill="none" stroke="white" stroke-width="1.5" d="M0,-3.0v7 M-2.5,-0.5L0,-3.0L2.5,-0.5"/>
                </g>
                <g id="arrowRight" xlink:href="#dirArrow" transform="rotate(90) translate(36 -43)" onmousedown="handlePan(1,0)">
                  <use xlink:href="#rim" fill="#404040">
                        <set attributeName="fill" to="#808080" begin="arrowRight.mouseover" end="arrowRight.mouseout"/>
                  </use>
                  <path fill="none" stroke="white" stroke-width="1.5" d="M0,-3.0v7 M-2.5,-0.5L0,-3.0L2.5,-0.5"/>
                </g>
                <g id="arrowDown" xlink:href="#dirArrow" transform="rotate(180) translate(-30 -48)" onmousedown="handlePan(0,1)">
                  <use xlink:href="#rim" fill="#404040">
                        <set attributeName="fill" to="#808080" begin="arrowDown.mouseover" end="arrowDown.mouseout"/>
                  </use>
                  <path fill="none" stroke="white" stroke-width="1.5" d="M0,-3.0v7 M-2.5,-0.5L0,-3.0L2.5,-0.5"/>
                </g>
                <g id="arrowLeft" xlink:href="#dirArrow" transform="rotate(270) translate(-36 17)" onmousedown="handlePan(-1,0)">
                  <use xlink:href="#rim" fill="#404040">
                        <set attributeName="fill" to="#808080" begin="arrowLeft.mouseover" end="arrowLeft.mouseout"/>
                  </use>
                  <path fill="none" stroke="white" stroke-width="1.5" d="M0,-3.0v7 M-2.5,-0.5L0,-3.0L2.5,-0.5"/>
                </g>
        </g>
        <svg viewBox="0 0 15 15" width="100%" height="30px" preserveAspectRatio="xMaxYMin meet">
         <g id="arrow_out" transform="scale(0.3 0.3)">
          <a xlink:href="class_ability_cooldown__coll__graph_org.svg" target="_base">
           <rect id="button" ry="5" rx="5" y="6" x="6" height="38" width="38"
                fill="#f2f5e9" fill-opacity="0.5" stroke="#606060" stroke-width="1.0"/>
           <path id="arrow"
             d="M 11.500037,31.436501 C 11.940474,20.09759 22.043105,11.32322 32.158766,21.979434 L 37.068811,17.246167 C 37.068811,17.246167 37.088388,32 37.088388,32 L 22.160133,31.978069 C 22.160133,31.978069 26.997745,27.140456 26.997745,27.140456 C 18.528582,18.264221 13.291696,25.230495 11.500037,31.436501 z"
             style="fill:#404040;"/>
          </a>
         </g>
        </svg>
</svg>
