<?xml version="1.0" encoding="UTF-8" standalone="no"?>
<!DOCTYPE svg PUBLIC "-//W3C//DTD SVG 1.1//EN"
 "http://www.w3.org/Graphics/SVG/1.1/DTD/svg11.dtd">
<!-- Generated by graphviz version 2.47.3 (20210619.1520)
 -->
<!-- Title: Photon.Pun.PhotonGUI.ContainerHeaderFoldout Pages: 1 -->
<svg width="663pt" height="137pt"
 viewBox="0.00 0.00 663.00 137.00" xmlns="http://www.w3.org/2000/svg" xmlns:xlink="http://www.w3.org/1999/xlink">
<g id="graph0" class="graph" transform="scale(1 1) rotate(0) translate(4 133)">
<title>Photon.Pun.PhotonGUI.ContainerHeaderFoldout</title>
<polygon fill="white" stroke="transparent" points="-4,4 -4,-133 659,-133 659,4 -4,4"/>
<!-- Node1 -->
<g id="node1" class="node">
<title>Node1</title>
<g id="a_node1"><a xlink:title=" ">
<polygon fill="#bfbfbf" stroke="black" points="493,-49.5 493,-79.5 655,-79.5 655,-49.5 493,-49.5"/>
<text text-anchor="start" x="501" y="-67.5" font-family="Helvetica,sans-Serif" font-size="10.00">Photon.Pun.PhotonGUI.Container</text>
<text text-anchor="middle" x="574" y="-56.5" font-family="Helvetica,sans-Serif" font-size="10.00">HeaderFoldout</text>
</a>
</g>
</g>
<!-- Node2 -->
<g id="node2" class="node">
<title>Node2</title>
<g id="a_node2"><a xlink:href="class_photon_1_1_pun_1_1_photon_animator_view_editor.xhtml#ac104c8f09b123df1bad32101be45ece4" target="_top" xlink:title=" ">
<polygon fill="white" stroke="black" points="266,-98.5 266,-128.5 439,-128.5 439,-98.5 266,-98.5"/>
<text text-anchor="start" x="274" y="-116.5" font-family="Helvetica,sans-Serif" font-size="10.00">Photon.Pun.PhotonAnimator</text>
<text text-anchor="middle" x="352.5" y="-105.5" font-family="Helvetica,sans-Serif" font-size="10.00">ViewEditor.DrawParameterInspector</text>
</a>
</g>
</g>
<!-- Node1&#45;&gt;Node2 -->
<g id="edge1" class="edge">
<title>Node1&#45;&gt;Node2</title>
<path fill="none" stroke="midnightblue" d="M495.69,-81.76C471.23,-87.22 444.41,-93.21 420.72,-98.49"/>
<polygon fill="midnightblue" stroke="midnightblue" points="496.65,-85.13 505.65,-79.53 495.13,-78.3 496.65,-85.13"/>
</g>
<!-- Node4 -->
<g id="node4" class="node">
<title>Node4</title>
<g id="a_node4"><a xlink:href="class_photon_1_1_pun_1_1_utility_scripts_1_1_photon_teams_manager_editor.xhtml#aee70d90ca9516afa33dfd387fd83ccdd" target="_top" xlink:title=" ">
<polygon fill="white" stroke="black" points="248,-0.5 248,-30.5 457,-30.5 457,-0.5 248,-0.5"/>
<text text-anchor="start" x="256" y="-18.5" font-family="Helvetica,sans-Serif" font-size="10.00">Photon.Pun.UtilityScripts.</text>
<text text-anchor="middle" x="352.5" y="-7.5" font-family="Helvetica,sans-Serif" font-size="10.00">PhotonTeamsManagerEditor.DrawTeamsList</text>
</a>
</g>
</g>
<!-- Node1&#45;&gt;Node4 -->
<g id="edge3" class="edge">
<title>Node1&#45;&gt;Node4</title>
<path fill="none" stroke="midnightblue" d="M495.69,-47.24C471.23,-41.78 444.41,-35.79 420.72,-30.51"/>
<polygon fill="midnightblue" stroke="midnightblue" points="495.13,-50.7 505.65,-49.47 496.65,-43.87 495.13,-50.7"/>
</g>
<!-- Node6 -->
<g id="node6" class="node">
<title>Node6</title>
<g id="a_node6"><a xlink:href="class_photon_1_1_pun_1_1_photon_animator_view_editor.xhtml#a924f7554a55913583384a10f61b3e52f" target="_top" xlink:title=" ">
<polygon fill="white" stroke="black" points="273.5,-49.5 273.5,-79.5 431.5,-79.5 431.5,-49.5 273.5,-49.5"/>
<text text-anchor="start" x="281.5" y="-67.5" font-family="Helvetica,sans-Serif" font-size="10.00">Photon.Pun.PhotonAnimator</text>
<text text-anchor="middle" x="352.5" y="-56.5" font-family="Helvetica,sans-Serif" font-size="10.00">ViewEditor.DrawWeightInspector</text>
</a>
</g>
</g>
<!-- Node1&#45;&gt;Node6 -->
<g id="edge5" class="edge">
<title>Node1&#45;&gt;Node6</title>
<path fill="none" stroke="midnightblue" d="M482.42,-64.5C465.56,-64.5 448.08,-64.5 431.63,-64.5"/>
<polygon fill="midnightblue" stroke="midnightblue" points="482.82,-68 492.82,-64.5 482.82,-61 482.82,-68"/>
</g>
<!-- Node3 -->
<g id="node3" class="node">
<title>Node3</title>
<g id="a_node3"><a xlink:href="class_photon_1_1_pun_1_1_photon_animator_view_editor.xhtml#aad6c249b63a243cefe9cddb67450ba9f" target="_top" xlink:title=" ">
<polygon fill="white" stroke="black" points="36,-73.5 36,-103.5 176,-103.5 176,-73.5 36,-73.5"/>
<text text-anchor="start" x="44" y="-91.5" font-family="Helvetica,sans-Serif" font-size="10.00">Photon.Pun.PhotonAnimator</text>
<text text-anchor="middle" x="106" y="-80.5" font-family="Helvetica,sans-Serif" font-size="10.00">ViewEditor.OnInspectorGUI</text>
</a>
</g>
</g>
<!-- Node2&#45;&gt;Node3 -->
<g id="edge2" class="edge">
<title>Node2&#45;&gt;Node3</title>
<path fill="none" stroke="midnightblue" d="M255.91,-103.73C229.36,-101.01 201.05,-98.12 176.32,-95.59"/>
<polygon fill="midnightblue" stroke="midnightblue" points="255.68,-107.22 265.99,-104.76 256.39,-100.26 255.68,-107.22"/>
</g>
<!-- Node5 -->
<g id="node5" class="node">
<title>Node5</title>
<g id="a_node5"><a xlink:href="class_photon_1_1_pun_1_1_utility_scripts_1_1_photon_teams_manager_editor.xhtml#a642ccd577e2f3bc9b54852cefabe12d5" target="_top" xlink:title=" ">
<polygon fill="white" stroke="black" points="0,-0.5 0,-30.5 212,-30.5 212,-0.5 0,-0.5"/>
<text text-anchor="start" x="8" y="-18.5" font-family="Helvetica,sans-Serif" font-size="10.00">Photon.Pun.UtilityScripts.</text>
<text text-anchor="middle" x="106" y="-7.5" font-family="Helvetica,sans-Serif" font-size="10.00">PhotonTeamsManagerEditor.OnInspectorGUI</text>
</a>
</g>
</g>
<!-- Node4&#45;&gt;Node5 -->
<g id="edge4" class="edge">
<title>Node4&#45;&gt;Node5</title>
<path fill="none" stroke="midnightblue" d="M237.77,-15.5C229.19,-15.5 220.55,-15.5 212.02,-15.5"/>
<polygon fill="midnightblue" stroke="midnightblue" points="237.81,-19 247.81,-15.5 237.81,-12 237.81,-19"/>
</g>
<!-- Node6&#45;&gt;Node3 -->
<g id="edge6" class="edge">
<title>Node6&#45;&gt;Node3</title>
<path fill="none" stroke="midnightblue" d="M263.42,-73.15C234.68,-75.97 203.19,-79.06 176.04,-81.72"/>
<polygon fill="midnightblue" stroke="midnightblue" points="263.86,-76.62 273.47,-72.16 263.17,-69.65 263.86,-76.62"/>
</g>
</g>
</svg>
