<?xml version="1.0" encoding="UTF-8" standalone="no"?>
<!DOCTYPE svg PUBLIC "-//W3C//DTD SVG 1.1//EN"
 "http://www.w3.org/Graphics/SVG/1.1/DTD/svg11.dtd">
<!-- Generated by graphviz version 2.47.3 (20210619.1520)
 -->
<!-- Title: NexusStats.DealDamageRPC Pages: 1 -->
<svg width="489pt" height="78pt"
 viewBox="0.00 0.00 489.00 77.50" xmlns="http://www.w3.org/2000/svg" xmlns:xlink="http://www.w3.org/1999/xlink">
<g id="graph0" class="graph" transform="scale(1 1) rotate(0) translate(4 73.5)">
<title>NexusStats.DealDamageRPC</title>
<polygon fill="white" stroke="transparent" points="-4,4 -4,-73.5 485,-73.5 485,4 -4,4"/>
<!-- Node1 -->
<g id="node1" class="node">
<title>Node1</title>
<g id="a_node1"><a xlink:title=" ">
<polygon fill="#bfbfbf" stroke="black" points="0,-28 0,-47 146,-47 146,-28 0,-28"/>
<text text-anchor="middle" x="73" y="-35" font-family="Helvetica,sans-Serif" font-size="10.00">NexusStats.DealDamageRPC</text>
</a>
</g>
</g>
<!-- Node2 -->
<g id="node2" class="node">
<title>Node2</title>
<g id="a_node2"><a xlink:href="class_nexus_stats.xhtml#a3faadcb2bca6d50c1da5e1235900f3f7" target="_top" xlink:title="Function that implements what is done when this entity dies.">
<polygon fill="white" stroke="black" points="209.5,-50 209.5,-69 294.5,-69 294.5,-50 209.5,-50"/>
<text text-anchor="middle" x="252" y="-57" font-family="Helvetica,sans-Serif" font-size="10.00">NexusStats.Die</text>
</a>
</g>
</g>
<!-- Node1&#45;&gt;Node2 -->
<g id="edge1" class="edge">
<title>Node1&#45;&gt;Node2</title>
<path fill="none" stroke="midnightblue" d="M146.25,-46.48C164.06,-48.69 182.78,-51.02 199.39,-53.09"/>
<polygon fill="midnightblue" stroke="midnightblue" points="199.08,-56.57 209.43,-54.33 199.94,-49.63 199.08,-56.57"/>
</g>
<!-- Node3 -->
<g id="node3" class="node">
<title>Node3</title>
<g id="a_node3"><a xlink:href="class_structure_u_i_controller.xhtml#a440b6978d77790330878b47582fe43dc" target="_top" xlink:title="Updates the current HP of the entity.">
<polygon fill="white" stroke="black" points="182,-0.5 182,-30.5 322,-30.5 322,-0.5 182,-0.5"/>
<text text-anchor="start" x="190" y="-18.5" font-family="Helvetica,sans-Serif" font-size="10.00">StructureUIController.Update</text>
<text text-anchor="middle" x="252" y="-7.5" font-family="Helvetica,sans-Serif" font-size="10.00">CurrentHP</text>
</a>
</g>
</g>
<!-- Node1&#45;&gt;Node3 -->
<g id="edge2" class="edge">
<title>Node1&#45;&gt;Node3</title>
<path fill="none" stroke="midnightblue" d="M146.25,-28.52C154.7,-27.47 163.35,-26.39 171.89,-25.33"/>
<polygon fill="midnightblue" stroke="midnightblue" points="172.35,-28.8 181.84,-24.1 171.49,-21.86 172.35,-28.8"/>
</g>
<!-- Node4 -->
<g id="node4" class="node">
<title>Node4</title>
<g id="a_node4"><a xlink:href="class_u_i_controller.xhtml#a7d7833a7840917741dbc8c4a83dbe918" target="_top" xlink:title="Calculates the actual normalized fill amount for the image.">
<polygon fill="white" stroke="black" points="358,-0.5 358,-30.5 481,-30.5 481,-0.5 358,-0.5"/>
<text text-anchor="start" x="366" y="-18.5" font-family="Helvetica,sans-Serif" font-size="10.00">UIController.CalculateFill</text>
<text text-anchor="middle" x="419.5" y="-7.5" font-family="Helvetica,sans-Serif" font-size="10.00">Amount</text>
</a>
</g>
</g>
<!-- Node3&#45;&gt;Node4 -->
<g id="edge3" class="edge">
<title>Node3&#45;&gt;Node4</title>
<path fill="none" stroke="midnightblue" d="M322.23,-15.5C330.67,-15.5 339.3,-15.5 347.76,-15.5"/>
<polygon fill="midnightblue" stroke="midnightblue" points="347.97,-19 357.97,-15.5 347.97,-12 347.97,-19"/>
</g>
</g>
</svg>
