<?xml version="1.0" encoding="UTF-8" standalone="no"?>
<!DOCTYPE svg PUBLIC "-//W3C//DTD SVG 1.1//EN"
 "http://www.w3.org/Graphics/SVG/1.1/DTD/svg11.dtd">
<!-- Generated by graphviz version 2.47.3 (20210619.1520)
 -->
<!-- Title: Photon.Pun.PhotonEditor.DisplayErrorMessage Pages: 1 -->
<svg width="845pt" height="105pt"
 viewBox="0.00 0.00 845.00 104.55" xmlns="http://www.w3.org/2000/svg" xmlns:xlink="http://www.w3.org/1999/xlink">
<g id="graph0" class="graph" transform="scale(1 1) rotate(0) translate(4 100.55)">
<title>Photon.Pun.PhotonEditor.DisplayErrorMessage</title>
<polygon fill="white" stroke="transparent" points="-4,4 -4,-100.55 841,-100.55 841,4 -4,4"/>
<!-- Node1 -->
<g id="node1" class="node">
<title>Node1</title>
<g id="a_node1"><a xlink:title=" ">
<polygon fill="#bfbfbf" stroke="black" points="707,-49.5 707,-79.5 837,-79.5 837,-49.5 707,-49.5"/>
<text text-anchor="start" x="715" y="-67.5" font-family="Helvetica,sans-Serif" font-size="10.00">Photon.Pun.PhotonEditor.</text>
<text text-anchor="middle" x="772" y="-56.5" font-family="Helvetica,sans-Serif" font-size="10.00">DisplayErrorMessage</text>
</a>
</g>
</g>
<!-- Node2 -->
<g id="node2" class="node">
<title>Node2</title>
<g id="a_node2"><a xlink:href="class_photon_1_1_pun_1_1_photon_editor.xhtml#a99bd344ea5aca58ba407c82fbbe7da62" target="_top" xlink:title=" ">
<polygon fill="white" stroke="black" points="332,-49.5 332,-79.5 462,-79.5 462,-49.5 332,-49.5"/>
<text text-anchor="start" x="340" y="-67.5" font-family="Helvetica,sans-Serif" font-size="10.00">Photon.Pun.PhotonEditor.</text>
<text text-anchor="middle" x="397" y="-56.5" font-family="Helvetica,sans-Serif" font-size="10.00">RegisterWithEmail</text>
</a>
</g>
</g>
<!-- Node1&#45;&gt;Node2 -->
<g id="edge1" class="edge">
<title>Node1&#45;&gt;Node2</title>
<path fill="none" stroke="midnightblue" d="M711.22,-81.97C698.09,-85.1 684.16,-87.88 671,-89.5 594.69,-98.89 574.31,-98.89 498,-89.5 481.48,-87.47 463.77,-83.61 447.91,-79.53"/>
<polygon fill="midnightblue" stroke="midnightblue" points="712.23,-85.33 721.09,-79.53 710.54,-78.54 712.23,-85.33"/>
</g>
<!-- Node5 -->
<g id="node5" class="node">
<title>Node5</title>
<g id="a_node5"><a xlink:href="class_photon_1_1_pun_1_1_photon_editor.xhtml#ac07287a770388bd30d8da090375bed4c" target="_top" xlink:title=" ">
<polygon fill="white" stroke="black" points="506.5,-49.5 506.5,-79.5 662.5,-79.5 662.5,-49.5 506.5,-49.5"/>
<text text-anchor="start" x="514.5" y="-67.5" font-family="Helvetica,sans-Serif" font-size="10.00">Photon.Pun.PhotonEditor.</text>
<text text-anchor="middle" x="584.5" y="-56.5" font-family="Helvetica,sans-Serif" font-size="10.00">RegisterWithEmailErrorCallback</text>
</a>
</g>
</g>
<!-- Node1&#45;&gt;Node5 -->
<g id="edge4" class="edge">
<title>Node1&#45;&gt;Node5</title>
<path fill="none" stroke="midnightblue" d="M696.74,-64.5C685.54,-64.5 673.97,-64.5 662.71,-64.5"/>
<polygon fill="midnightblue" stroke="midnightblue" points="696.9,-68 706.9,-64.5 696.9,-61 696.9,-68"/>
</g>
<!-- Node6 -->
<g id="node6" class="node">
<title>Node6</title>
<g id="a_node6"><a xlink:href="class_photon_1_1_pun_1_1_photon_editor.xhtml#ab0369cb6bade59d45e7f48a327d01998" target="_top" xlink:title=" ">
<polygon fill="white" stroke="black" points="498,-0.5 498,-30.5 671,-30.5 671,-0.5 498,-0.5"/>
<text text-anchor="start" x="506" y="-18.5" font-family="Helvetica,sans-Serif" font-size="10.00">Photon.Pun.PhotonEditor.</text>
<text text-anchor="middle" x="584.5" y="-7.5" font-family="Helvetica,sans-Serif" font-size="10.00">RegisterWithEmailSuccessCallback</text>
</a>
</g>
</g>
<!-- Node1&#45;&gt;Node6 -->
<g id="edge6" class="edge">
<title>Node1&#45;&gt;Node6</title>
<path fill="none" stroke="midnightblue" d="M704.28,-46.88C683.99,-41.52 661.89,-35.68 642.31,-30.51"/>
<polygon fill="midnightblue" stroke="midnightblue" points="703.52,-50.3 714.08,-49.47 705.31,-43.53 703.52,-50.3"/>
</g>
<!-- Node3 -->
<g id="node3" class="node">
<title>Node3</title>
<g id="a_node3"><a xlink:href="class_photon_1_1_pun_1_1_photon_editor.xhtml#a4ccbec55036af587ae405f134b92e89c" target="_top" xlink:title=" ">
<polygon fill="white" stroke="black" points="166,-49.5 166,-79.5 296,-79.5 296,-49.5 166,-49.5"/>
<text text-anchor="start" x="174" y="-67.5" font-family="Helvetica,sans-Serif" font-size="10.00">Photon.Pun.PhotonEditor.</text>
<text text-anchor="middle" x="231" y="-56.5" font-family="Helvetica,sans-Serif" font-size="10.00">UiSetupApp</text>
</a>
</g>
</g>
<!-- Node2&#45;&gt;Node3 -->
<g id="edge2" class="edge">
<title>Node2&#45;&gt;Node3</title>
<path fill="none" stroke="midnightblue" d="M321.44,-64.5C313,-64.5 304.45,-64.5 296.16,-64.5"/>
<polygon fill="midnightblue" stroke="midnightblue" points="321.65,-68 331.65,-64.5 321.65,-61 321.65,-68"/>
</g>
<!-- Node4 -->
<g id="node4" class="node">
<title>Node4</title>
<g id="a_node4"><a xlink:href="class_photon_1_1_pun_1_1_photon_editor.xhtml#ab21f8a304ebf60d3732e3100f2417c8d" target="_top" xlink:title=" ">
<polygon fill="white" stroke="black" points="0,-49.5 0,-79.5 130,-79.5 130,-49.5 0,-49.5"/>
<text text-anchor="start" x="8" y="-67.5" font-family="Helvetica,sans-Serif" font-size="10.00">Photon.Pun.PhotonEditor.</text>
<text text-anchor="middle" x="65" y="-56.5" font-family="Helvetica,sans-Serif" font-size="10.00">OnGUI</text>
</a>
</g>
</g>
<!-- Node3&#45;&gt;Node4 -->
<g id="edge3" class="edge">
<title>Node3&#45;&gt;Node4</title>
<path fill="none" stroke="midnightblue" d="M155.44,-64.5C147,-64.5 138.45,-64.5 130.16,-64.5"/>
<polygon fill="midnightblue" stroke="midnightblue" points="155.65,-68 165.65,-64.5 155.65,-61 155.65,-68"/>
</g>
<!-- Node5&#45;&gt;Node2 -->
<g id="edge5" class="edge">
<title>Node5&#45;&gt;Node2</title>
<path fill="none" stroke="midnightblue" d="M496.36,-64.5C484.84,-64.5 473.2,-64.5 462.16,-64.5"/>
<polygon fill="midnightblue" stroke="midnightblue" points="496.44,-68 506.44,-64.5 496.44,-61 496.44,-68"/>
</g>
<!-- Node6&#45;&gt;Node2 -->
<g id="edge7" class="edge">
<title>Node6&#45;&gt;Node2</title>
<path fill="none" stroke="midnightblue" d="M516.78,-33.12C496.49,-38.48 474.39,-44.32 454.81,-49.49"/>
<polygon fill="midnightblue" stroke="midnightblue" points="517.81,-36.47 526.58,-30.53 516.02,-29.7 517.81,-36.47"/>
</g>
</g>
</svg>
