<?xml version="1.0" encoding="UTF-8" standalone="no"?>
<!DOCTYPE svg PUBLIC "-//W3C//DTD SVG 1.1//EN"
 "http://www.w3.org/Graphics/SVG/1.1/DTD/svg11.dtd">
<!-- Generated by graphviz version 2.47.3 (20210619.1520)
 -->
<!-- Title: Photon.Realtime.LoadBalancingPeer.OpLeaveLobby Pages: 1 -->
<svg width="754pt" height="39pt"
 viewBox="0.00 0.00 754.00 39.00" xmlns="http://www.w3.org/2000/svg" xmlns:xlink="http://www.w3.org/1999/xlink">
<g id="graph0" class="graph" transform="scale(1 1) rotate(0) translate(4 35)">
<title>Photon.Realtime.LoadBalancingPeer.OpLeaveLobby</title>
<polygon fill="white" stroke="transparent" points="-4,4 -4,-35 750,-35 750,4 -4,4"/>
<!-- Node1 -->
<g id="node1" class="node">
<title>Node1</title>
<g id="a_node1"><a xlink:title="Leaves the lobby on the Master Server.">
<polygon fill="#bfbfbf" stroke="black" points="591,-0.5 591,-30.5 746,-30.5 746,-0.5 591,-0.5"/>
<text text-anchor="start" x="599" y="-18.5" font-family="Helvetica,sans-Serif" font-size="10.00">Photon.Realtime.LoadBalancing</text>
<text text-anchor="middle" x="668.5" y="-7.5" font-family="Helvetica,sans-Serif" font-size="10.00">Peer.OpLeaveLobby</text>
</a>
</g>
</g>
<!-- Node2 -->
<g id="node2" class="node">
<title>Node2</title>
<g id="a_node2"><a xlink:href="class_photon_1_1_realtime_1_1_load_balancing_client.xhtml#a736a2b78bff4da4d80404e9f98963267" target="_top" xlink:title="Opposite of joining a lobby.">
<polygon fill="white" stroke="black" points="400,-0.5 400,-30.5 555,-30.5 555,-0.5 400,-0.5"/>
<text text-anchor="start" x="408" y="-18.5" font-family="Helvetica,sans-Serif" font-size="10.00">Photon.Realtime.LoadBalancing</text>
<text text-anchor="middle" x="477.5" y="-7.5" font-family="Helvetica,sans-Serif" font-size="10.00">Client.OpLeaveLobby</text>
</a>
</g>
</g>
<!-- Node1&#45;&gt;Node2 -->
<g id="edge1" class="edge">
<title>Node1&#45;&gt;Node2</title>
<path fill="none" stroke="midnightblue" d="M580.9,-15.5C572.33,-15.5 563.67,-15.5 555.21,-15.5"/>
<polygon fill="midnightblue" stroke="midnightblue" points="580.9,-19 590.9,-15.5 580.9,-12 580.9,-19"/>
</g>
<!-- Node3 -->
<g id="node3" class="node">
<title>Node3</title>
<g id="a_node3"><a xlink:href="class_photon_1_1_pun_1_1_photon_network.xhtml#a2fa56a022fa01dbbe46475d7d77f5e59" target="_top" xlink:title="Leave a lobby to stop getting updates about available rooms.">
<polygon fill="white" stroke="black" points="224,-0.5 224,-30.5 364,-30.5 364,-0.5 224,-0.5"/>
<text text-anchor="start" x="232" y="-18.5" font-family="Helvetica,sans-Serif" font-size="10.00">Photon.Pun.PhotonNetwork.</text>
<text text-anchor="middle" x="294" y="-7.5" font-family="Helvetica,sans-Serif" font-size="10.00">LeaveLobby</text>
</a>
</g>
</g>
<!-- Node2&#45;&gt;Node3 -->
<g id="edge2" class="edge">
<title>Node2&#45;&gt;Node3</title>
<path fill="none" stroke="midnightblue" d="M389.77,-15.5C381.2,-15.5 372.59,-15.5 364.23,-15.5"/>
<polygon fill="midnightblue" stroke="midnightblue" points="389.79,-19 399.79,-15.5 389.79,-12 389.79,-19"/>
</g>
<!-- Node4 -->
<g id="node4" class="node">
<title>Node4</title>
<g id="a_node4"><a xlink:href="class_photon_1_1_pun_1_1_demo_1_1_asteroids_1_1_lobby_main_panel.xhtml#afb8a816635252a1a8a2def147909b48c" target="_top" xlink:title=" ">
<polygon fill="white" stroke="black" points="0,-0.5 0,-30.5 188,-30.5 188,-0.5 0,-0.5"/>
<text text-anchor="start" x="8" y="-18.5" font-family="Helvetica,sans-Serif" font-size="10.00">Photon.Pun.Demo.Asteroids.</text>
<text text-anchor="middle" x="94" y="-7.5" font-family="Helvetica,sans-Serif" font-size="10.00">LobbyMainPanel.OnBackButtonClicked</text>
</a>
</g>
</g>
<!-- Node3&#45;&gt;Node4 -->
<g id="edge3" class="edge">
<title>Node3&#45;&gt;Node4</title>
<path fill="none" stroke="midnightblue" d="M213.66,-15.5C205.29,-15.5 196.73,-15.5 188.22,-15.5"/>
<polygon fill="midnightblue" stroke="midnightblue" points="213.75,-19 223.75,-15.5 213.75,-12 213.75,-19"/>
</g>
</g>
</svg>
