<?xml version="1.0" encoding="UTF-8" standalone="no"?>
<!DOCTYPE svg PUBLIC "-//W3C//DTD SVG 1.1//EN"
 "http://www.w3.org/Graphics/SVG/1.1/DTD/svg11.dtd">
<!-- Generated by graphviz version 2.47.3 (20210619.1520)
 -->
<!-- Title: Effect Pages: 1 -->
<svg width="277pt" height="196pt"
 viewBox="0.00 0.00 277.00 196.00" xmlns="http://www.w3.org/2000/svg" xmlns:xlink="http://www.w3.org/1999/xlink">
<g id="graph0" class="graph" transform="scale(1 1) rotate(0) translate(4 192)">
<title>Effect</title>
<polygon fill="white" stroke="transparent" points="-4,4 -4,-192 273,-192 273,4 -4,4"/>
<!-- Node1 -->
<g id="node1" class="node">
<title>Node1</title>
<g id="a_node1"><a xlink:title=" ">
<polygon fill="#bfbfbf" stroke="black" points="150,-112.5 150,-131.5 191,-131.5 191,-112.5 150,-112.5"/>
<text text-anchor="middle" x="170.5" y="-119.5" font-family="Helvetica,sans-Serif" font-size="10.00">Effect</text>
</a>
</g>
</g>
<!-- Node3 -->
<g id="node3" class="node">
<title>Node3</title>
<g id="a_node3"><a xlink:href="class_instant_effect.xhtml" target="_top" xlink:title="InstantEffect és un encapsulador per tots els Effect que s&#39;executen de forma instantània.">
<polygon fill="white" stroke="black" points="91,-56.5 91,-75.5 162,-75.5 162,-56.5 91,-56.5"/>
<text text-anchor="middle" x="126.5" y="-63.5" font-family="Helvetica,sans-Serif" font-size="10.00">InstantEffect</text>
</a>
</g>
</g>
<!-- Node1&#45;&gt;Node3 -->
<g id="edge2" class="edge">
<title>Node1&#45;&gt;Node3</title>
<path fill="none" stroke="midnightblue" d="M156.77,-104.14C149.1,-94.74 139.87,-83.4 133.63,-75.75"/>
<polygon fill="midnightblue" stroke="midnightblue" points="154.2,-106.54 163.23,-112.08 159.63,-102.12 154.2,-106.54"/>
</g>
<!-- Node6 -->
<g id="node6" class="node">
<title>Node6</title>
<g id="a_node6"><a xlink:href="class_timed_effect.xhtml" target="_top" xlink:title="TimedEffect és un encapsulador per tots els Effect que NO s&#39;executen de forma instantània.">
<polygon fill="white" stroke="black" points="188.5,-56.5 188.5,-75.5 256.5,-75.5 256.5,-56.5 188.5,-56.5"/>
<text text-anchor="middle" x="222.5" y="-63.5" font-family="Helvetica,sans-Serif" font-size="10.00">TimedEffect</text>
</a>
</g>
</g>
<!-- Node1&#45;&gt;Node6 -->
<g id="edge5" class="edge">
<title>Node1&#45;&gt;Node6</title>
<path fill="none" stroke="midnightblue" d="M186.18,-104.72C195.34,-95.2 206.55,-83.56 214.07,-75.75"/>
<polygon fill="midnightblue" stroke="midnightblue" points="183.5,-102.45 179.09,-112.08 188.54,-107.31 183.5,-102.45"/>
</g>
<!-- Node2 -->
<g id="node2" class="node">
<title>Node2</title>
<g id="a_node2"><a xlink:title=" ">
<polygon fill="white" stroke="#bfbfbf" points="126,-168.5 126,-187.5 215,-187.5 215,-168.5 126,-168.5"/>
<text text-anchor="middle" x="170.5" y="-175.5" font-family="Helvetica,sans-Serif" font-size="10.00">ScriptableObject</text>
</a>
</g>
</g>
<!-- Node2&#45;&gt;Node1 -->
<g id="edge1" class="edge">
<title>Node2&#45;&gt;Node1</title>
<path fill="none" stroke="midnightblue" d="M170.5,-157.8C170.5,-148.91 170.5,-138.78 170.5,-131.75"/>
<polygon fill="midnightblue" stroke="midnightblue" points="167,-158.08 170.5,-168.08 174,-158.08 167,-158.08"/>
</g>
<!-- Node4 -->
<g id="node4" class="node">
<title>Node4</title>
<g id="a_node4"><a xlink:href="class_heal_effect.xhtml" target="_top" xlink:title=" ">
<polygon fill="white" stroke="black" points="0,-0.5 0,-19.5 61,-19.5 61,-0.5 0,-0.5"/>
<text text-anchor="middle" x="30.5" y="-7.5" font-family="Helvetica,sans-Serif" font-size="10.00">HealEffect</text>
</a>
</g>
</g>
<!-- Node3&#45;&gt;Node4 -->
<g id="edge3" class="edge">
<title>Node3&#45;&gt;Node4</title>
<path fill="none" stroke="midnightblue" d="M101.93,-51.18C84.26,-41.24 60.99,-28.15 45.89,-19.65"/>
<polygon fill="midnightblue" stroke="midnightblue" points="100.64,-54.47 111.08,-56.32 104.08,-48.37 100.64,-54.47"/>
</g>
<!-- Node5 -->
<g id="node5" class="node">
<title>Node5</title>
<g id="a_node5"><a xlink:href="class_heal_relative_effect.xhtml" target="_top" xlink:title=" ">
<polygon fill="white" stroke="black" points="79,-0.5 79,-19.5 174,-19.5 174,-0.5 79,-0.5"/>
<text text-anchor="middle" x="126.5" y="-7.5" font-family="Helvetica,sans-Serif" font-size="10.00">HealRelativeEffect</text>
</a>
</g>
</g>
<!-- Node3&#45;&gt;Node5 -->
<g id="edge4" class="edge">
<title>Node3&#45;&gt;Node5</title>
<path fill="none" stroke="midnightblue" d="M126.5,-45.8C126.5,-36.91 126.5,-26.78 126.5,-19.75"/>
<polygon fill="midnightblue" stroke="midnightblue" points="123,-46.08 126.5,-56.08 130,-46.08 123,-46.08"/>
</g>
<!-- Node7 -->
<g id="node7" class="node">
<title>Node7</title>
<g id="a_node7"><a xlink:href="class_upgrade_effect.xhtml" target="_top" xlink:title=" ">
<polygon fill="white" stroke="black" points="192,-0.5 192,-19.5 269,-19.5 269,-0.5 192,-0.5"/>
<text text-anchor="middle" x="230.5" y="-7.5" font-family="Helvetica,sans-Serif" font-size="10.00">UpgradeEffect</text>
</a>
</g>
</g>
<!-- Node6&#45;&gt;Node7 -->
<g id="edge6" class="edge">
<title>Node6&#45;&gt;Node7</title>
<path fill="none" stroke="midnightblue" d="M225.3,-46.1C226.63,-37.14 228.15,-26.86 229.2,-19.75"/>
<polygon fill="midnightblue" stroke="midnightblue" points="221.82,-45.68 223.82,-56.08 228.75,-46.7 221.82,-45.68"/>
</g>
</g>
</svg>
