<?xml version="1.0" encoding="UTF-8" standalone="no"?>
<!DOCTYPE svg PUBLIC "-//W3C//DTD SVG 1.1//EN"
 "http://www.w3.org/Graphics/SVG/1.1/DTD/svg11.dtd">
<!-- Generated by graphviz version 2.47.3 (20210619.1520)
 -->
<!-- Title: UIController.CalculateFillAmount Pages: 1 -->
<!--zoomable 382 -->
<svg id="main" version="1.1" xmlns="http://www.w3.org/2000/svg" xmlns:xlink="http://www.w3.org/1999/xlink" xml:space="preserve" onload="init(evt)">
<style type="text/css"><![CDATA[
.edge:hover path { stroke: red; }
.edge:hover polygon { stroke: red; fill: red; }
]]></style>
<script type="text/javascript"><![CDATA[
var edges = document.getElementsByTagName('g');
if (edges && edges.length) {
  for (var i=0;i<edges.length;i++) {
    if (edges[i].id.substr(0,4)=='edge') {
      edges[i].setAttribute('class','edge');
    }
  }
}
]]></script>
        <defs>
                <circle id="rim" cx="0" cy="0" r="7"/>
                <circle id="rim2" cx="0" cy="0" r="3.5"/>
                <g id="zoomPlus">
                        <use xlink:href="#rim" fill="#404040">
                                <set attributeName="fill" to="#808080" begin="zoomplus.mouseover" end="zoomplus.mouseout"/>
                        </use>
                        <path d="M-4,0h8M0,-4v8" fill="none" stroke="white" stroke-width="1.5" pointer-events="none"/>
                </g>
                <g id="zoomMin">
                        <use xlink:href="#rim" fill="#404040">
                                <set attributeName="fill" to="#808080" begin="zoomminus.mouseover" end="zoomminus.mouseout"/>
                        </use>
                        <path d="M-4,0h8" fill="none" stroke="white" stroke-width="1.5" pointer-events="none"/>
                </g>
                <g id="dirArrow">
                        <path fill="none" stroke="white" stroke-width="1.5" d="M0,-3.0v7 M-2.5,-0.5L0,-3.0L2.5,-0.5"/>
                </g>
               <g id="resetDef">
                       <use xlink:href="#rim2" fill="#404040">
                               <set attributeName="fill" to="#808080" begin="reset.mouseover" end="reset.mouseout"/>
                       </use>
               </g>
        </defs>

<script type="text/javascript">
var viewWidth = 1259;
var viewHeight = 382;
var sectionId = 'dynsection-1';
</script>
<script xlink:href="svgpan.js"/>
<svg id="graph" class="graph">
<g id="viewport">
<title>UIController.CalculateFillAmount</title>
<!-- Node1 -->
<g id="node1" class="node">
<title>Node1</title>
<g id="a_node1"><a xlink:title="Calculates the actual normalized fill amount for the image.">
<polygon fill="#bfbfbf" stroke="black" points="1128,-177 1128,-207 1251,-207 1251,-177 1128,-177"/>
<text text-anchor="start" x="1136" y="-195" font-family="Helvetica,sans-Serif" font-size="10.00">UIController.CalculateFill</text>
<text text-anchor="middle" x="1189.5" y="-184" font-family="Helvetica,sans-Serif" font-size="10.00">Amount</text>
</a>
</g>
</g>
<!-- Node2 -->
<g id="node2" class="node">
<title>Node2</title>
<g id="a_node2"><a xlink:href="class_structure_u_i_controller.html#a440b6978d77790330878b47582fe43dc" target="_top" xlink:title="Updates the current HP of the entity.">
<polygon fill="none" stroke="black" points="952,-311 952,-341 1092,-341 1092,-311 952,-311"/>
<text text-anchor="start" x="960" y="-329" font-family="Helvetica,sans-Serif" font-size="10.00">StructureUIController.Update</text>
<text text-anchor="middle" x="1022" y="-318" font-family="Helvetica,sans-Serif" font-size="10.00">CurrentHP</text>
</a>
</g>
</g>
<!-- Node1&#45;&gt;Node2 -->
<g id="edge1" class="edge">
<title>Node1&#45;&gt;Node2</title>
<path fill="none" stroke="midnightblue" d="M1171.8,-215.4C1154.18,-238.68 1124.51,-274.15 1092,-297 1084.35,-302.38 1075.54,-307.03 1066.83,-310.93"/>
<polygon fill="midnightblue" stroke="midnightblue" points="1174.8,-217.24 1177.95,-207.12 1169.17,-213.06 1174.8,-217.24"/>
</g>
<!-- Node5 -->
<g id="node5" class="node">
<title>Node5</title>
<g id="a_node5"><a xlink:href="class_minion_u_i_controller.html#a9042cfa3430e60cf37cf0e0797692742" target="_top" xlink:title="Updates the current HP of the entity.">
<polygon fill="none" stroke="black" points="957.5,-257 957.5,-287 1086.5,-287 1086.5,-257 957.5,-257"/>
<text text-anchor="start" x="965.5" y="-275" font-family="Helvetica,sans-Serif" font-size="10.00">MinionUIController.Update</text>
<text text-anchor="middle" x="1022" y="-264" font-family="Helvetica,sans-Serif" font-size="10.00">CurrentHP</text>
</a>
</g>
</g>
<!-- Node1&#45;&gt;Node5 -->
<g id="edge4" class="edge">
<title>Node1&#45;&gt;Node5</title>
<path fill="none" stroke="midnightblue" d="M1151.52,-211.91C1133.68,-221.32 1111.88,-232.54 1092,-242 1081.38,-247.05 1069.7,-252.26 1059.02,-256.89"/>
<polygon fill="midnightblue" stroke="midnightblue" points="1153.27,-214.94 1160.46,-207.17 1149.99,-208.76 1153.27,-214.94"/>
</g>
<!-- Node7 -->
<g id="node7" class="node">
<title>Node7</title>
<g id="a_node7"><a xlink:href="class_player_u_i_controller.html#aca577b724c1f3f2ed54ad1165a7842c2" target="_top" xlink:title="Sets the current HP value to the Image.">
<polygon fill="none" stroke="black" points="958,-202 958,-232 1086,-232 1086,-202 958,-202"/>
<text text-anchor="start" x="966" y="-220" font-family="Helvetica,sans-Serif" font-size="10.00">PlayerUIController.Update</text>
<text text-anchor="middle" x="1022" y="-209" font-family="Helvetica,sans-Serif" font-size="10.00">CurrentHP</text>
</a>
</g>
</g>
<!-- Node1&#45;&gt;Node7 -->
<g id="edge6" class="edge">
<title>Node1&#45;&gt;Node7</title>
<path fill="none" stroke="midnightblue" d="M1117.83,-202.67C1107.31,-204.26 1096.53,-205.89 1086.18,-207.46"/>
<polygon fill="midnightblue" stroke="midnightblue" points="1118.45,-206.12 1127.81,-201.17 1117.4,-199.2 1118.45,-206.12"/>
</g>
<!-- Node13 -->
<g id="node13" class="node">
<title>Node13</title>
<g id="a_node13"><a xlink:href="class_player_u_i_controller.html#adadd54ec10a1236aa7c08022d27fa068" target="_top" xlink:title="Sets the current level and xp to the Image.">
<polygon fill="none" stroke="black" points="958,-104 958,-134 1086,-134 1086,-104 958,-104"/>
<text text-anchor="start" x="966" y="-122" font-family="Helvetica,sans-Serif" font-size="10.00">PlayerUIController.Update</text>
<text text-anchor="middle" x="1022" y="-111" font-family="Helvetica,sans-Serif" font-size="10.00">CurrentLevel</text>
</a>
</g>
</g>
<!-- Node1&#45;&gt;Node13 -->
<g id="edge12" class="edge">
<title>Node1&#45;&gt;Node13</title>
<path fill="none" stroke="midnightblue" d="M1151.3,-172.26C1133.57,-163.17 1111.92,-152.53 1092,-144 1084.04,-140.59 1075.43,-137.23 1067.1,-134.13"/>
<polygon fill="midnightblue" stroke="midnightblue" points="1149.7,-175.37 1160.19,-176.85 1152.91,-169.15 1149.7,-175.37"/>
</g>
<!-- Node23 -->
<g id="node23" class="node">
<title>Node23</title>
<g id="a_node23"><a xlink:href="class_player_u_i_controller.html#ac7bf7455ce00b144f6a1678e524819b2" target="_top" xlink:title="Sets the current MP value to the Image.">
<polygon fill="none" stroke="black" points="958,-44 958,-74 1086,-74 1086,-44 958,-44"/>
<text text-anchor="start" x="966" y="-62" font-family="Helvetica,sans-Serif" font-size="10.00">PlayerUIController.Update</text>
<text text-anchor="middle" x="1022" y="-51" font-family="Helvetica,sans-Serif" font-size="10.00">CurrentMana</text>
</a>
</g>
</g>
<!-- Node1&#45;&gt;Node23 -->
<g id="edge23" class="edge">
<title>Node1&#45;&gt;Node23</title>
<path fill="none" stroke="midnightblue" d="M1169.69,-168.99C1151.42,-147.67 1122.12,-116.02 1092,-94 1081.59,-86.39 1069.28,-79.57 1057.97,-74.01"/>
<polygon fill="midnightblue" stroke="midnightblue" points="1167.23,-171.5 1176.35,-176.89 1172.58,-166.99 1167.23,-171.5"/>
</g>
<!-- Node26 -->
<g id="node26" class="node">
<title>Node26</title>
<g id="a_node26"><a xlink:href="class_player_u_i_controller.html#aacc9f1b78d9e1adab16f8fc2ec246dfb" target="_top" xlink:title=" ">
<polygon fill="none" stroke="black" points="958,-153 958,-183 1086,-183 1086,-153 958,-153"/>
<text text-anchor="start" x="966" y="-171" font-family="Helvetica,sans-Serif" font-size="10.00">PlayerUIController.Update</text>
<text text-anchor="middle" x="1022" y="-160" font-family="Helvetica,sans-Serif" font-size="10.00">MaxHP</text>
</a>
</g>
</g>
<!-- Node1&#45;&gt;Node26 -->
<g id="edge27" class="edge">
<title>Node1&#45;&gt;Node26</title>
<path fill="none" stroke="midnightblue" d="M1117.83,-181.75C1107.31,-180.23 1096.53,-178.66 1086.18,-177.16"/>
<polygon fill="midnightblue" stroke="midnightblue" points="1117.41,-185.23 1127.81,-183.2 1118.42,-178.3 1117.41,-185.23"/>
</g>
<!-- Node3 -->
<g id="node3" class="node">
<title>Node3</title>
<g id="a_node3"><a xlink:href="class_nexus_stats.html#ae804a5fa576e7252285f85ff03aa0615" target="_top" xlink:title=" ">
<polygon fill="none" stroke="black" points="769.5,-354.5 769.5,-373.5 915.5,-373.5 915.5,-354.5 769.5,-354.5"/>
<text text-anchor="middle" x="842.5" y="-361.5" font-family="Helvetica,sans-Serif" font-size="10.00">NexusStats.DealDamageRPC</text>
</a>
</g>
</g>
<!-- Node2&#45;&gt;Node3 -->
<g id="edge2" class="edge">
<title>Node2&#45;&gt;Node3</title>
<path fill="none" stroke="midnightblue" d="M941.94,-342.93C923.39,-346.9 904.27,-350.99 887.88,-354.5"/>
<polygon fill="midnightblue" stroke="midnightblue" points="942.82,-346.32 951.87,-340.8 941.35,-339.47 942.82,-346.32"/>
</g>
<!-- Node4 -->
<g id="node4" class="node">
<title>Node4</title>
<g id="a_node4"><a xlink:href="class_turret_stats.html#a503110135edcf63f735168caec63debd" target="_top" xlink:title=" ">
<polygon fill="none" stroke="black" points="771,-316.5 771,-335.5 914,-335.5 914,-316.5 771,-316.5"/>
<text text-anchor="middle" x="842.5" y="-323.5" font-family="Helvetica,sans-Serif" font-size="10.00">TurretStats.DealDamageRPC</text>
</a>
</g>
</g>
<!-- Node2&#45;&gt;Node4 -->
<g id="edge3" class="edge">
<title>Node2&#45;&gt;Node4</title>
<path fill="none" stroke="midnightblue" d="M941.63,-326C932.49,-326 923.21,-326 914.2,-326"/>
<polygon fill="midnightblue" stroke="midnightblue" points="941.87,-329.5 951.87,-326 941.87,-322.5 941.87,-329.5"/>
</g>
<!-- Node6 -->
<g id="node6" class="node">
<title>Node6</title>
<g id="a_node6"><a xlink:href="class_minion_stats.html#ad1a8cab09c44cd06629a2dbe924c83ff" target="_top" xlink:title=" ">
<polygon fill="none" stroke="black" points="769,-278.5 769,-297.5 916,-297.5 916,-278.5 769,-278.5"/>
<text text-anchor="middle" x="842.5" y="-285.5" font-family="Helvetica,sans-Serif" font-size="10.00">MinionStats.DealDamageRPC</text>
</a>
</g>
</g>
<!-- Node5&#45;&gt;Node6 -->
<g id="edge5" class="edge">
<title>Node5&#45;&gt;Node6</title>
<path fill="none" stroke="midnightblue" d="M947.29,-278.64C937.04,-279.57 926.53,-280.52 916.3,-281.44"/>
<polygon fill="midnightblue" stroke="midnightblue" points="947.77,-282.11 957.42,-277.73 947.15,-275.14 947.77,-282.11"/>
</g>
<!-- Node8 -->
<g id="node8" class="node">
<title>Node8</title>
<g id="a_node8"><a xlink:href="class_player_stats.html#a6542a649dfb0cccc9fe329c83024e3ed" target="_top" xlink:title=" ">
<polygon fill="none" stroke="black" points="769.5,-240.5 769.5,-259.5 915.5,-259.5 915.5,-240.5 769.5,-240.5"/>
<text text-anchor="middle" x="842.5" y="-247.5" font-family="Helvetica,sans-Serif" font-size="10.00">PlayerStats.DealDamageRPC</text>
</a>
</g>
</g>
<!-- Node7&#45;&gt;Node8 -->
<g id="edge7" class="edge">
<title>Node7&#45;&gt;Node8</title>
<path fill="none" stroke="midnightblue" d="M948.07,-230.56C930.15,-233.89 911.34,-237.39 894.69,-240.48"/>
<polygon fill="midnightblue" stroke="midnightblue" points="948.73,-234 957.92,-228.73 947.45,-227.11 948.73,-234"/>
</g>
<!-- Node9 -->
<g id="node9" class="node">
<title>Node9</title>
<g id="a_node9"><a xlink:href="class_player_stats.html#a07cb6a60391d769fea03f1bc3b6927c6" target="_top" xlink:title=" ">
<polygon fill="none" stroke="black" points="787.5,-202.5 787.5,-221.5 897.5,-221.5 897.5,-202.5 787.5,-202.5"/>
<text text-anchor="middle" x="842.5" y="-209.5" font-family="Helvetica,sans-Serif" font-size="10.00">PlayerStats.HealRPC</text>
</a>
</g>
</g>
<!-- Node7&#45;&gt;Node9 -->
<g id="edge8" class="edge">
<title>Node7&#45;&gt;Node9</title>
<path fill="none" stroke="midnightblue" d="M947.61,-214.93C930.85,-214.46 913.33,-213.97 897.56,-213.52"/>
<polygon fill="midnightblue" stroke="midnightblue" points="947.83,-218.44 957.92,-215.22 948.02,-211.44 947.83,-218.44"/>
</g>
<!-- Node11 -->
<g id="node11" class="node">
<title>Node11</title>
<g id="a_node11"><a xlink:href="class_player_stats.html#a75c908d1b8c5eb0b414db7ab99ceab9e" target="_top" xlink:title="Called whenever the player levels up.">
<polygon fill="none" stroke="black" points="790.5,-114.5 790.5,-133.5 894.5,-133.5 894.5,-114.5 790.5,-114.5"/>
<text text-anchor="middle" x="842.5" y="-121.5" font-family="Helvetica,sans-Serif" font-size="10.00">PlayerStats.LevelUp</text>
</a>
</g>
</g>
<!-- Node7&#45;&gt;Node11 -->
<g id="edge10" class="edge">
<title>Node7&#45;&gt;Node11</title>
<path fill="none" stroke="midnightblue" d="M957.83,-196.91C955.82,-195.68 953.87,-194.38 952,-193 930.26,-176.95 938.26,-159.33 916,-144 909.55,-139.56 902.14,-136.1 894.57,-133.4"/>
<polygon fill="midnightblue" stroke="midnightblue" points="956.54,-200.19 967,-201.87 959.87,-194.04 956.54,-200.19"/>
</g>
<!-- Node10 -->
<g id="node10" class="node">
<title>Node10</title>
<g id="a_node10"><a xlink:href="class_player_stats.html#a27fb46ca044608f34db45eb95ac16b4c" target="_top" xlink:title=" ">
<polygon fill="none" stroke="black" points="612.5,-202.5 612.5,-221.5 722.5,-221.5 722.5,-202.5 612.5,-202.5"/>
<text text-anchor="middle" x="667.5" y="-209.5" font-family="Helvetica,sans-Serif" font-size="10.00">PlayerStats.Respawn</text>
</a>
</g>
</g>
<!-- Node9&#45;&gt;Node10 -->
<g id="edge9" class="edge">
<title>Node9&#45;&gt;Node10</title>
<path fill="none" stroke="midnightblue" d="M777.14,-212C759.18,-212 739.87,-212 722.57,-212"/>
<polygon fill="midnightblue" stroke="midnightblue" points="777.24,-215.5 787.24,-212 777.24,-208.5 777.24,-215.5"/>
</g>
<!-- Node12 -->
<g id="node12" class="node">
<title>Node12</title>
<g id="a_node12"><a xlink:href="class_player_stats.html#a2515cde362ce22291cde0073d23e2d9c" target="_top" xlink:title="Add some XP amount.">
<polygon fill="none" stroke="black" points="617.5,-95.5 617.5,-114.5 717.5,-114.5 717.5,-95.5 617.5,-95.5"/>
<text text-anchor="middle" x="667.5" y="-102.5" font-family="Helvetica,sans-Serif" font-size="10.00">PlayerStats.AddXP</text>
</a>
</g>
</g>
<!-- Node11&#45;&gt;Node12 -->
<g id="edge11" class="edge">
<title>Node11&#45;&gt;Node12</title>
<path fill="none" stroke="midnightblue" d="M779.91,-117.24C759.48,-114.99 737.03,-112.53 717.66,-110.4"/>
<polygon fill="midnightblue" stroke="midnightblue" points="779.74,-120.74 790.06,-118.35 780.5,-113.78 779.74,-120.74"/>
</g>
<!-- Node13&#45;&gt;Node12 -->
<g id="edge13" class="edge">
<title>Node13&#45;&gt;Node12</title>
<path fill="none" stroke="midnightblue" d="M947.74,-107.97C937.11,-106.74 926.29,-105.68 916,-105 847.4,-100.45 767.87,-101.59 717.87,-103.08"/>
<polygon fill="midnightblue" stroke="midnightblue" points="947.49,-111.47 957.84,-109.2 948.33,-104.52 947.49,-111.47"/>
</g>
<!-- Node14 -->
<g id="node14" class="node">
<title>Node14</title>
<g id="a_node14"><a xlink:href="class_player_u_i_controller.html#aa5b61a93967fa5ce39bfd950a9e9d584" target="_top" xlink:title="Initializes all the values into the Image and Text.">
<polygon fill="none" stroke="black" points="776,-153 776,-183 909,-183 909,-153 776,-153"/>
<text text-anchor="start" x="784" y="-171" font-family="Helvetica,sans-Serif" font-size="10.00">PlayerUIController.Initialize</text>
<text text-anchor="middle" x="842.5" y="-160" font-family="Helvetica,sans-Serif" font-size="10.00">Values</text>
</a>
</g>
</g>
<!-- Node13&#45;&gt;Node14 -->
<g id="edge14" class="edge">
<title>Node13&#45;&gt;Node14</title>
<path fill="none" stroke="midnightblue" d="M956.44,-136.82C937.28,-142.11 916.48,-147.85 898.02,-152.95"/>
<polygon fill="midnightblue" stroke="midnightblue" points="957.59,-140.14 966.3,-134.1 955.72,-133.39 957.59,-140.14"/>
</g>
<!-- Node15 -->
<g id="node15" class="node">
<title>Node15</title>
<g id="a_node15"><a xlink:href="class_player_u_i_controller.html#ab6ed746dec17fdf763bc4ec1d713db7f" target="_top" xlink:title="Initializes all the values and colors for this Player.">
<polygon fill="none" stroke="black" points="602,-158.5 602,-177.5 733,-177.5 733,-158.5 602,-158.5"/>
<text text-anchor="middle" x="667.5" y="-165.5" font-family="Helvetica,sans-Serif" font-size="10.00">PlayerUIController.Initalize</text>
</a>
</g>
</g>
<!-- Node14&#45;&gt;Node15 -->
<g id="edge15" class="edge">
<title>Node14&#45;&gt;Node15</title>
<path fill="none" stroke="midnightblue" d="M765.36,-168C754.59,-168 743.6,-168 733.07,-168"/>
<polygon fill="midnightblue" stroke="midnightblue" points="765.6,-171.5 775.6,-168 765.6,-164.5 765.6,-171.5"/>
</g>
<!-- Node16 -->
<g id="node16" class="node">
<title>Node16</title>
<g id="a_node16"><a xlink:href="class_mannequin_stats.html#a37606eeeec31415945d8e152af0f7e15" target="_top" xlink:title=" ">
<polygon fill="none" stroke="black" points="441,-177.5 441,-196.5 566,-196.5 566,-177.5 441,-177.5"/>
<text text-anchor="middle" x="503.5" y="-184.5" font-family="Helvetica,sans-Serif" font-size="10.00">MannequinStats.Initialize</text>
</a>
</g>
</g>
<!-- Node15&#45;&gt;Node16 -->
<g id="edge16" class="edge">
<title>Node15&#45;&gt;Node16</title>
<path fill="none" stroke="midnightblue" d="M591.58,-176.79C583.03,-177.79 574.4,-178.8 566.05,-179.78"/>
<polygon fill="midnightblue" stroke="midnightblue" points="592.02,-180.26 601.54,-175.62 591.2,-173.31 592.02,-180.26"/>
</g>
<!-- Node18 -->
<g id="node18" class="node">
<title>Node18</title>
<g id="a_node18"><a xlink:href="class_player_stats.html#a5e274804959d13db76f140e8efcf9411" target="_top" xlink:title="Initialize the actual Stats of the Player.">
<polygon fill="none" stroke="black" points="450.5,-139.5 450.5,-158.5 556.5,-158.5 556.5,-139.5 450.5,-139.5"/>
<text text-anchor="middle" x="503.5" y="-146.5" font-family="Helvetica,sans-Serif" font-size="10.00">PlayerStats.Initialize</text>
</a>
</g>
</g>
<!-- Node15&#45;&gt;Node18 -->
<g id="edge18" class="edge">
<title>Node15&#45;&gt;Node18</title>
<path fill="none" stroke="midnightblue" d="M591.28,-159.18C579.52,-157.8 567.6,-156.4 556.52,-155.1"/>
<polygon fill="midnightblue" stroke="midnightblue" points="591.2,-162.69 601.54,-160.38 592.02,-155.74 591.2,-162.69"/>
</g>
<!-- Node17 -->
<g id="node17" class="node">
<title>Node17</title>
<g id="a_node17"><a xlink:href="class_mannequin.html#af638d1036ae3aee689fe03b43cea0df5" target="_top" xlink:title=" ">
<polygon fill="none" stroke="black" points="299,-177.5 299,-196.5 387,-196.5 387,-177.5 299,-177.5"/>
<text text-anchor="middle" x="343" y="-184.5" font-family="Helvetica,sans-Serif" font-size="10.00">Mannequin.Start</text>
</a>
</g>
</g>
<!-- Node16&#45;&gt;Node17 -->
<g id="edge17" class="edge">
<title>Node16&#45;&gt;Node17</title>
<path fill="none" stroke="midnightblue" d="M430.59,-187C415.77,-187 400.6,-187 387.19,-187"/>
<polygon fill="midnightblue" stroke="midnightblue" points="430.77,-190.5 440.77,-187 430.77,-183.5 430.77,-190.5"/>
</g>
<!-- Node19 -->
<g id="node19" class="node">
<title>Node19</title>
<g id="a_node19"><a xlink:href="class_player_controller.html#a75e94e4fd555e57e55ab4b7e54024dcf" target="_top" xlink:title="Initialize the PlayerController.">
<polygon fill="none" stroke="black" points="281,-139.5 281,-158.5 405,-158.5 405,-139.5 281,-139.5"/>
<text text-anchor="middle" x="343" y="-146.5" font-family="Helvetica,sans-Serif" font-size="10.00">PlayerController.Initialize</text>
</a>
</g>
</g>
<!-- Node18&#45;&gt;Node19 -->
<g id="edge19" class="edge">
<title>Node18&#45;&gt;Node19</title>
<path fill="none" stroke="midnightblue" d="M439.82,-149C428.39,-149 416.47,-149 405.08,-149"/>
<polygon fill="midnightblue" stroke="midnightblue" points="440.16,-152.5 450.16,-149 440.16,-145.5 440.16,-152.5"/>
</g>
<!-- Node20 -->
<g id="node20" class="node">
<title>Node20</title>
<g id="a_node20"><a xlink:href="class_model_sync.html#ab8359f73ae31a7f926c80ebcd7e9444a" target="_top" xlink:title="This starts all the initialization chain for the player.">
<polygon fill="none" stroke="black" points="135,-139.5 135,-158.5 245,-158.5 245,-139.5 135,-139.5"/>
<text text-anchor="middle" x="190" y="-146.5" font-family="Helvetica,sans-Serif" font-size="10.00">ModelSync.DoEnable</text>
</a>
</g>
</g>
<!-- Node19&#45;&gt;Node20 -->
<g id="edge20" class="edge">
<title>Node19&#45;&gt;Node20</title>
<path fill="none" stroke="midnightblue" d="M270.58,-149C262,-149 253.36,-149 245.09,-149"/>
<polygon fill="midnightblue" stroke="midnightblue" points="270.58,-152.5 280.58,-149 270.58,-145.5 270.58,-152.5"/>
</g>
<!-- Node21 -->
<g id="node21" class="node">
<title>Node21</title>
<g id="a_node21"><a xlink:href="class_model_sync.html#a47be08ee3bbd2a173514e74da3dd65cb" target="_top" xlink:title=" ">
<polygon fill="none" stroke="black" points="5,-158.5 5,-177.5 94,-177.5 94,-158.5 5,-158.5"/>
<text text-anchor="middle" x="49.5" y="-165.5" font-family="Helvetica,sans-Serif" font-size="10.00">ModelSync.Start</text>
</a>
</g>
</g>
<!-- Node20&#45;&gt;Node21 -->
<g id="edge21" class="edge">
<title>Node20&#45;&gt;Node21</title>
<path fill="none" stroke="midnightblue" d="M124.54,-157.84C114.35,-159.24 104.01,-160.66 94.43,-161.97"/>
<polygon fill="midnightblue" stroke="midnightblue" points="125.23,-161.28 134.66,-156.45 124.28,-154.35 125.23,-161.28"/>
</g>
<!-- Node22 -->
<g id="node22" class="node">
<title>Node22</title>
<g id="a_node22"><a xlink:href="class_model_sync.html#abf63af5a901636617cb742aab24c4d6f" target="_top" xlink:title=" ">
<polygon fill="none" stroke="black" points="0,-120.5 0,-139.5 99,-139.5 99,-120.5 0,-120.5"/>
<text text-anchor="middle" x="49.5" y="-127.5" font-family="Helvetica,sans-Serif" font-size="10.00">ModelSync.Update</text>
</a>
</g>
</g>
<!-- Node20&#45;&gt;Node22 -->
<g id="edge22" class="edge">
<title>Node20&#45;&gt;Node22</title>
<path fill="none" stroke="midnightblue" d="M124.7,-140.18C116.15,-139.01 107.51,-137.82 99.28,-136.69"/>
<polygon fill="midnightblue" stroke="midnightblue" points="124.28,-143.65 134.66,-141.55 125.23,-136.72 124.28,-143.65"/>
</g>
<!-- Node23&#45;&gt;Node11 -->
<g id="edge24" class="edge">
<title>Node23&#45;&gt;Node11</title>
<path fill="none" stroke="midnightblue" d="M970.37,-77.54C937.49,-89.58 896,-104.78 869.6,-114.44"/>
<polygon fill="midnightblue" stroke="midnightblue" points="971.65,-80.8 979.83,-74.08 969.24,-74.23 971.65,-80.8"/>
</g>
<!-- Node24 -->
<g id="node24" class="node">
<title>Node24</title>
<g id="a_node24"><a xlink:href="class_player_stats.html#a0348bfd846a1fb5122239414e9ec558b" target="_top" xlink:title=" ">
<polygon fill="none" stroke="black" points="771,-38.5 771,-57.5 914,-57.5 914,-38.5 771,-38.5"/>
<text text-anchor="middle" x="842.5" y="-45.5" font-family="Helvetica,sans-Serif" font-size="10.00">PlayerStats.RegenManaRPC</text>
</a>
</g>
</g>
<!-- Node23&#45;&gt;Node24 -->
<g id="edge25" class="edge">
<title>Node23&#45;&gt;Node24</title>
<path fill="none" stroke="midnightblue" d="M947.84,-54.47C936.73,-53.78 925.28,-53.07 914.23,-52.38"/>
<polygon fill="midnightblue" stroke="midnightblue" points="947.72,-57.97 957.92,-55.09 948.16,-50.98 947.72,-57.97"/>
</g>
<!-- Node25 -->
<g id="node25" class="node">
<title>Node25</title>
<g id="a_node25"><a xlink:href="class_player_stats.html#adb29a13d34d6e2880a34d67340b8b74a" target="_top" xlink:title=" ">
<polygon fill="none" stroke="black" points="771,-0.5 771,-19.5 914,-19.5 914,-0.5 771,-0.5"/>
<text text-anchor="middle" x="842.5" y="-7.5" font-family="Helvetica,sans-Serif" font-size="10.00">PlayerStats.SpendManaRPC</text>
</a>
</g>
</g>
<!-- Node23&#45;&gt;Node25 -->
<g id="edge26" class="edge">
<title>Node23&#45;&gt;Node25</title>
<path fill="none" stroke="midnightblue" d="M959.54,-41.19C945.26,-37.13 930.11,-32.87 916,-29 904.45,-25.84 891.84,-22.49 880.42,-19.51"/>
<polygon fill="midnightblue" stroke="midnightblue" points="958.68,-44.59 969.26,-43.97 960.61,-37.86 958.68,-44.59"/>
</g>
<!-- Node26&#45;&gt;Node14 -->
<g id="edge28" class="edge">
<title>Node26&#45;&gt;Node14</title>
<path fill="none" stroke="midnightblue" d="M947.76,-168C934.94,-168 921.67,-168 909.08,-168"/>
<polygon fill="midnightblue" stroke="midnightblue" points="947.92,-171.5 957.92,-168 947.92,-164.5 947.92,-171.5"/>
</g>
</g>
</svg>
        <g id="navigator" transform="translate(0 0)" fill="#404254">
                <rect fill="#f2f5e9" fill-opacity="0.5" stroke="#606060" stroke-width=".5" x="0" y="0" width="60" height="60"/>
                <use id="zoomplus" xlink:href="#zoomPlus" x="17" y="9" onmousedown="handleZoom(evt,'in')"/>
                <use id="zoomminus" xlink:href="#zoomMin" x="42" y="9" onmousedown="handleZoom(evt,'out')"/>
                <use id="reset" xlink:href="#resetDef" x="30" y="36" onmousedown="handleReset()"/>
                <g id="arrowUp" xlink:href="#dirArrow" transform="translate(30 24)" onmousedown="handlePan(0,-1)">
                  <use xlink:href="#rim" fill="#404040">
                        <set attributeName="fill" to="#808080" begin="arrowUp.mouseover" end="arrowUp.mouseout"/>
                  </use>
                  <path fill="none" stroke="white" stroke-width="1.5" d="M0,-3.0v7 M-2.5,-0.5L0,-3.0L2.5,-0.5"/>
                </g>
                <g id="arrowRight" xlink:href="#dirArrow" transform="rotate(90) translate(36 -43)" onmousedown="handlePan(1,0)">
                  <use xlink:href="#rim" fill="#404040">
                        <set attributeName="fill" to="#808080" begin="arrowRight.mouseover" end="arrowRight.mouseout"/>
                  </use>
                  <path fill="none" stroke="white" stroke-width="1.5" d="M0,-3.0v7 M-2.5,-0.5L0,-3.0L2.5,-0.5"/>
                </g>
                <g id="arrowDown" xlink:href="#dirArrow" transform="rotate(180) translate(-30 -48)" onmousedown="handlePan(0,1)">
                  <use xlink:href="#rim" fill="#404040">
                        <set attributeName="fill" to="#808080" begin="arrowDown.mouseover" end="arrowDown.mouseout"/>
                  </use>
                  <path fill="none" stroke="white" stroke-width="1.5" d="M0,-3.0v7 M-2.5,-0.5L0,-3.0L2.5,-0.5"/>
                </g>
                <g id="arrowLeft" xlink:href="#dirArrow" transform="rotate(270) translate(-36 17)" onmousedown="handlePan(-1,0)">
                  <use xlink:href="#rim" fill="#404040">
                        <set attributeName="fill" to="#808080" begin="arrowLeft.mouseover" end="arrowLeft.mouseout"/>
                  </use>
                  <path fill="none" stroke="white" stroke-width="1.5" d="M0,-3.0v7 M-2.5,-0.5L0,-3.0L2.5,-0.5"/>
                </g>
        </g>
        <svg viewBox="0 0 15 15" width="100%" height="30px" preserveAspectRatio="xMaxYMin meet">
         <g id="arrow_out" transform="scale(0.3 0.3)">
          <a xlink:href="class_u_i_controller_a7d7833a7840917741dbc8c4a83dbe918_icgraph_org.svg" target="_base">
           <rect id="button" ry="5" rx="5" y="6" x="6" height="38" width="38"
                fill="#f2f5e9" fill-opacity="0.5" stroke="#606060" stroke-width="1.0"/>
           <path id="arrow"
             d="M 11.500037,31.436501 C 11.940474,20.09759 22.043105,11.32322 32.158766,21.979434 L 37.068811,17.246167 C 37.068811,17.246167 37.088388,32 37.088388,32 L 22.160133,31.978069 C 22.160133,31.978069 26.997745,27.140456 26.997745,27.140456 C 18.528582,18.264221 13.291696,25.230495 11.500037,31.436501 z"
             style="fill:#404040;"/>
          </a>
         </g>
        </svg>
</svg>
