<?xml version="1.0" encoding="UTF-8" standalone="no"?>
<!DOCTYPE svg PUBLIC "-//W3C//DTD SVG 1.1//EN"
 "http://www.w3.org/Graphics/SVG/1.1/DTD/svg11.dtd">
<!-- Generated by graphviz version 2.47.3 (20210619.1520)
 -->
<!-- Title: PlayerStats.DealDamageRPC Pages: 1 -->
<svg width="1076pt" height="132pt"
 viewBox="0.00 0.00 1076.00 132.00" xmlns="http://www.w3.org/2000/svg" xmlns:xlink="http://www.w3.org/1999/xlink">
<g id="graph0" class="graph" transform="scale(1 1) rotate(0) translate(4 128)">
<title>PlayerStats.DealDamageRPC</title>
<!-- Node1 -->
<g id="node1" class="node">
<title>Node1</title>
<g id="a_node1"><a xlink:title=" ">
<polygon fill="#bfbfbf" stroke="black" points="0,-26 0,-45 146,-45 146,-26 0,-26"/>
<text text-anchor="middle" x="73" y="-33" font-family="Helvetica,sans-Serif" font-size="10.00">PlayerStats.DealDamageRPC</text>
</a>
</g>
</g>
<!-- Node2 -->
<g id="node2" class="node">
<title>Node2</title>
<g id="a_node2"><a xlink:href="class_player_stats.html#a5caca2bd8f676341a2b269aea8a0f1ff" target="_top" xlink:title="Function that implements what is done when this entity dies.">
<polygon fill="none" stroke="black" points="182,-48 182,-67 267,-67 267,-48 182,-48"/>
<text text-anchor="middle" x="224.5" y="-55" font-family="Helvetica,sans-Serif" font-size="10.00">PlayerStats.Die</text>
</a>
</g>
</g>
<!-- Node1&#45;&gt;Node2 -->
<g id="edge1" class="edge">
<title>Node1&#45;&gt;Node2</title>
<path fill="none" stroke="midnightblue" d="M138.7,-45.02C149.83,-46.66 161.25,-48.34 171.97,-49.92"/>
<polygon fill="midnightblue" stroke="midnightblue" points="171.59,-53.4 182,-51.39 172.61,-46.47 171.59,-53.4"/>
</g>
<!-- Node10 -->
<g id="node10" class="node">
<title>Node10</title>
<g id="a_node10"><a xlink:href="class_player_u_i_controller.html#aca577b724c1f3f2ed54ad1165a7842c2" target="_top" xlink:title="Sets the current HP value to the Image.">
<polygon fill="none" stroke="black" points="446.5,-0.5 446.5,-30.5 574.5,-30.5 574.5,-0.5 446.5,-0.5"/>
<text text-anchor="start" x="454.5" y="-18.5" font-family="Helvetica,sans-Serif" font-size="10.00">PlayerUIController.Update</text>
<text text-anchor="middle" x="510.5" y="-7.5" font-family="Helvetica,sans-Serif" font-size="10.00">CurrentHP</text>
</a>
</g>
</g>
<!-- Node1&#45;&gt;Node10 -->
<g id="edge10" class="edge">
<title>Node1&#45;&gt;Node10</title>
<path fill="none" stroke="midnightblue" d="M146.4,-32.17C226.77,-28.48 355.76,-22.56 436.41,-18.86"/>
<polygon fill="midnightblue" stroke="midnightblue" points="436.65,-22.35 446.48,-18.39 436.33,-15.36 436.65,-22.35"/>
</g>
<!-- Node3 -->
<g id="node3" class="node">
<title>Node3</title>
<g id="a_node3"><a xlink:href="class_player_stats.html#a2515cde362ce22291cde0073d23e2d9c" target="_top" xlink:title="Add some XP amount.">
<polygon fill="none" stroke="black" points="306,-86 306,-105 406,-105 406,-86 306,-86"/>
<text text-anchor="middle" x="356" y="-93" font-family="Helvetica,sans-Serif" font-size="10.00">PlayerStats.AddXP</text>
</a>
</g>
</g>
<!-- Node2&#45;&gt;Node3 -->
<g id="edge2" class="edge">
<title>Node2&#45;&gt;Node3</title>
<path fill="none" stroke="midnightblue" d="M258.18,-67.09C274.59,-71.9 294.68,-77.8 312.29,-82.97"/>
<polygon fill="midnightblue" stroke="midnightblue" points="311.75,-86.46 322.33,-85.91 313.72,-79.74 311.75,-86.46"/>
</g>
<!-- Node4 -->
<g id="node4" class="node">
<title>Node4</title>
<g id="a_node4"><a xlink:href="class_player_stats.html#a5e274804959d13db76f140e8efcf9411" target="_top" xlink:title="Initialize the actual Stats of the Player.">
<polygon fill="none" stroke="black" points="303,-48 303,-67 409,-67 409,-48 303,-48"/>
<text text-anchor="middle" x="356" y="-55" font-family="Helvetica,sans-Serif" font-size="10.00">PlayerStats.Initialize</text>
</a>
</g>
</g>
<!-- Node2&#45;&gt;Node4 -->
<g id="edge3" class="edge">
<title>Node2&#45;&gt;Node4</title>
<path fill="none" stroke="midnightblue" d="M267.19,-57.5C275.37,-57.5 284.12,-57.5 292.81,-57.5"/>
<polygon fill="midnightblue" stroke="midnightblue" points="292.94,-61 302.94,-57.5 292.94,-54 292.94,-61"/>
</g>
<!-- Node5 -->
<g id="node5" class="node">
<title>Node5</title>
<g id="a_node5"><a xlink:href="class_player_u_i_controller.html#ab6ed746dec17fdf763bc4ec1d713db7f" target="_top" xlink:title="Initializes all the values and colors for this Player.">
<polygon fill="none" stroke="black" points="445,-50 445,-69 576,-69 576,-50 445,-50"/>
<text text-anchor="middle" x="510.5" y="-57" font-family="Helvetica,sans-Serif" font-size="10.00">PlayerUIController.Initalize</text>
</a>
</g>
</g>
<!-- Node4&#45;&gt;Node5 -->
<g id="edge4" class="edge">
<title>Node4&#45;&gt;Node5</title>
<path fill="none" stroke="midnightblue" d="M409.06,-58.18C417.3,-58.29 425.97,-58.4 434.62,-58.52"/>
<polygon fill="midnightblue" stroke="midnightblue" points="434.69,-62.02 444.73,-58.65 434.78,-55.02 434.69,-62.02"/>
</g>
<!-- Node6 -->
<g id="node6" class="node">
<title>Node6</title>
<g id="a_node6"><a xlink:href="class_player_u_i_controller.html#aa5b61a93967fa5ce39bfd950a9e9d584" target="_top" xlink:title="Initializes all the values into the Image and Text.">
<polygon fill="none" stroke="black" points="612,-44.5 612,-74.5 745,-74.5 745,-44.5 612,-44.5"/>
<text text-anchor="start" x="620" y="-62.5" font-family="Helvetica,sans-Serif" font-size="10.00">PlayerUIController.Initialize</text>
<text text-anchor="middle" x="678.5" y="-51.5" font-family="Helvetica,sans-Serif" font-size="10.00">Values</text>
</a>
</g>
</g>
<!-- Node5&#45;&gt;Node6 -->
<g id="edge5" class="edge">
<title>Node5&#45;&gt;Node6</title>
<path fill="none" stroke="midnightblue" d="M576.16,-59.5C584.6,-59.5 593.3,-59.5 601.9,-59.5"/>
<polygon fill="midnightblue" stroke="midnightblue" points="601.93,-63 611.93,-59.5 601.93,-56 601.93,-63"/>
</g>
<!-- Node7 -->
<g id="node7" class="node">
<title>Node7</title>
<g id="a_node7"><a xlink:href="class_player_u_i_controller.html#adadd54ec10a1236aa7c08022d27fa068" target="_top" xlink:title="Sets the current level and xp to the Image.">
<polygon fill="none" stroke="black" points="781,-93.5 781,-123.5 909,-123.5 909,-93.5 781,-93.5"/>
<text text-anchor="start" x="789" y="-111.5" font-family="Helvetica,sans-Serif" font-size="10.00">PlayerUIController.Update</text>
<text text-anchor="middle" x="845" y="-100.5" font-family="Helvetica,sans-Serif" font-size="10.00">CurrentLevel</text>
</a>
</g>
</g>
<!-- Node6&#45;&gt;Node7 -->
<g id="edge6" class="edge">
<title>Node6&#45;&gt;Node7</title>
<path fill="none" stroke="midnightblue" d="M730.2,-74.6C747.16,-79.66 766.24,-85.34 783.86,-90.58"/>
<polygon fill="midnightblue" stroke="midnightblue" points="782.89,-93.95 793.47,-93.45 784.89,-87.24 782.89,-93.95"/>
</g>
<!-- Node9 -->
<g id="node9" class="node">
<title>Node9</title>
<g id="a_node9"><a xlink:href="class_player_u_i_controller.html#aacc9f1b78d9e1adab16f8fc2ec246dfb" target="_top" xlink:title=" ">
<polygon fill="none" stroke="black" points="781,-44.5 781,-74.5 909,-74.5 909,-44.5 781,-44.5"/>
<text text-anchor="start" x="789" y="-62.5" font-family="Helvetica,sans-Serif" font-size="10.00">PlayerUIController.Update</text>
<text text-anchor="middle" x="845" y="-51.5" font-family="Helvetica,sans-Serif" font-size="10.00">MaxHP</text>
</a>
</g>
</g>
<!-- Node6&#45;&gt;Node9 -->
<g id="edge8" class="edge">
<title>Node6&#45;&gt;Node9</title>
<path fill="none" stroke="midnightblue" d="M745.46,-59.5C753.79,-59.5 762.34,-59.5 770.77,-59.5"/>
<polygon fill="midnightblue" stroke="midnightblue" points="770.96,-63 780.96,-59.5 770.96,-56 770.96,-63"/>
</g>
<!-- Node8 -->
<g id="node8" class="node">
<title>Node8</title>
<g id="a_node8"><a xlink:href="class_u_i_controller.html#a7d7833a7840917741dbc8c4a83dbe918" target="_top" xlink:title="Calculates the actual normalized fill amount for the image.">
<polygon fill="none" stroke="black" points="945,-44.5 945,-74.5 1068,-74.5 1068,-44.5 945,-44.5"/>
<text text-anchor="start" x="953" y="-62.5" font-family="Helvetica,sans-Serif" font-size="10.00">UIController.CalculateFill</text>
<text text-anchor="middle" x="1006.5" y="-51.5" font-family="Helvetica,sans-Serif" font-size="10.00">Amount</text>
</a>
</g>
</g>
<!-- Node7&#45;&gt;Node8 -->
<g id="edge7" class="edge">
<title>Node7&#45;&gt;Node8</title>
<path fill="none" stroke="midnightblue" d="M895.16,-93.4C911.45,-88.39 929.76,-82.77 946.71,-77.56"/>
<polygon fill="midnightblue" stroke="midnightblue" points="947.97,-80.83 956.51,-74.55 945.92,-74.14 947.97,-80.83"/>
</g>
<!-- Node9&#45;&gt;Node8 -->
<g id="edge9" class="edge">
<title>Node9&#45;&gt;Node8</title>
<path fill="none" stroke="midnightblue" d="M909.04,-59.5C917.4,-59.5 926.01,-59.5 934.49,-59.5"/>
<polygon fill="midnightblue" stroke="midnightblue" points="934.74,-63 944.74,-59.5 934.74,-56 934.74,-63"/>
</g>
<!-- Node10&#45;&gt;Node8 -->
<g id="edge11" class="edge">
<title>Node10&#45;&gt;Node8</title>
<path fill="none" stroke="midnightblue" d="M574.54,-14.53C653.27,-14.24 791.85,-16.72 909,-34.5 920.9,-36.31 933.45,-38.97 945.43,-41.91"/>
<polygon fill="midnightblue" stroke="midnightblue" points="944.77,-45.35 955.32,-44.41 946.49,-38.56 944.77,-45.35"/>
</g>
</g>
</svg>
