<?xml version="1.0" encoding="UTF-8" standalone="no"?>
<!DOCTYPE svg PUBLIC "-//W3C//DTD SVG 1.1//EN"
 "http://www.w3.org/Graphics/SVG/1.1/DTD/svg11.dtd">
<!-- Generated by graphviz version 2.47.3 (20210619.1520)
 -->
<!-- Title: Photon.Pun.Demo.Asteroids.PlayerOverviewPanel Pages: 1 -->
<!--zoomable 256 -->
<svg id="main" version="1.1" xmlns="http://www.w3.org/2000/svg" xmlns:xlink="http://www.w3.org/1999/xlink" xml:space="preserve" onload="init(evt)">
<style type="text/css"><![CDATA[
.edge:hover path { stroke: red; }
.edge:hover polygon { stroke: red; fill: red; }
]]></style>
<script type="text/javascript"><![CDATA[
var edges = document.getElementsByTagName('g');
if (edges && edges.length) {
  for (var i=0;i<edges.length;i++) {
    if (edges[i].id.substr(0,4)=='edge') {
      edges[i].setAttribute('class','edge');
    }
  }
}
]]></script>
        <defs>
                <circle id="rim" cx="0" cy="0" r="7"/>
                <circle id="rim2" cx="0" cy="0" r="3.5"/>
                <g id="zoomPlus">
                        <use xlink:href="#rim" fill="#404040">
                                <set attributeName="fill" to="#808080" begin="zoomplus.mouseover" end="zoomplus.mouseout"/>
                        </use>
                        <path d="M-4,0h8M0,-4v8" fill="none" stroke="white" stroke-width="1.5" pointer-events="none"/>
                </g>
                <g id="zoomMin">
                        <use xlink:href="#rim" fill="#404040">
                                <set attributeName="fill" to="#808080" begin="zoomminus.mouseover" end="zoomminus.mouseout"/>
                        </use>
                        <path d="M-4,0h8" fill="none" stroke="white" stroke-width="1.5" pointer-events="none"/>
                </g>
                <g id="dirArrow">
                        <path fill="none" stroke="white" stroke-width="1.5" d="M0,-3.0v7 M-2.5,-0.5L0,-3.0L2.5,-0.5"/>
                </g>
               <g id="resetDef">
                       <use xlink:href="#rim2" fill="#404040">
                               <set attributeName="fill" to="#808080" begin="reset.mouseover" end="reset.mouseout"/>
                       </use>
               </g>
        </defs>

<script type="text/javascript">
var viewWidth = 605;
var viewHeight = 256;
var sectionId = 'dynsection-0';
</script>
<script xlink:href="svgpan.js"/>
<svg id="graph" class="graph">
<g id="viewport">
<title>Photon.Pun.Demo.Asteroids.PlayerOverviewPanel</title>
<polygon fill="white" stroke="transparent" points="-4,4 -4,-252 601,-252 601,4 -4,4"/>
<!-- Node1 -->
<g id="node1" class="node">
<title>Node1</title>
<g id="a_node1"><a xlink:title=" ">
<polygon fill="#bfbfbf" stroke="black" points="454,-109 454,-139 597,-139 597,-109 454,-109"/>
<text text-anchor="start" x="462" y="-127" font-family="Helvetica,sans-Serif" font-size="10.00">Photon.Pun.Demo.Asteroids.</text>
<text text-anchor="middle" x="525.5" y="-116" font-family="Helvetica,sans-Serif" font-size="10.00">PlayerOverviewPanel</text>
</a>
</g>
</g>
<!-- Node2 -->
<g id="node2" class="node">
<title>Node2</title>
<g id="a_node2"><a xlink:href="class_photon_1_1_pun_1_1_mono_behaviour_pun_callbacks.xhtml" target="_top" xlink:title="This class provides a .photonView and all callbacks/events that PUN can call.">
<polygon fill="white" stroke="black" points="275,-114.5 275,-133.5 418,-133.5 418,-114.5 275,-114.5"/>
<text text-anchor="middle" x="346.5" y="-121.5" font-family="Helvetica,sans-Serif" font-size="10.00">MonoBehaviourPunCallbacks</text>
</a>
</g>
</g>
<!-- Node2&#45;&gt;Node1 -->
<g id="edge1" class="edge">
<title>Node2&#45;&gt;Node1</title>
<path fill="none" stroke="midnightblue" d="M428.49,-124C436.97,-124 445.54,-124 453.89,-124"/>
<polygon fill="midnightblue" stroke="midnightblue" points="428.22,-120.5 418.22,-124 428.22,-127.5 428.22,-120.5"/>
</g>
<!-- Node3 -->
<g id="node3" class="node">
<title>Node3</title>
<g id="a_node3"><a xlink:href="class_photon_1_1_pun_1_1_mono_behaviour_pun.xhtml" target="_top" xlink:title="This class adds the property photonView, while logging a warning when your game still uses the networ...">
<polygon fill="white" stroke="black" points="129,-228.5 129,-247.5 229,-247.5 229,-228.5 129,-228.5"/>
<text text-anchor="middle" x="179" y="-235.5" font-family="Helvetica,sans-Serif" font-size="10.00">MonoBehaviourPun</text>
</a>
</g>
</g>
<!-- Node3&#45;&gt;Node2 -->
<g id="edge2" class="edge">
<title>Node3&#45;&gt;Node2</title>
<path fill="none" stroke="midnightblue" d="M227.34,-224.73C231.38,-223.01 235.32,-221.11 239,-219 280.93,-194.99 320.77,-152.44 337.38,-133.52"/>
<polygon fill="midnightblue" stroke="midnightblue" points="225.89,-221.54 217.83,-228.41 228.42,-228.07 225.89,-221.54"/>
</g>
<!-- Node4 -->
<g id="node4" class="node">
<title>Node4</title>
<g id="a_node4"><a xlink:title=" ">
<polygon fill="white" stroke="#bfbfbf" points="0,-228.5 0,-247.5 83,-247.5 83,-228.5 0,-228.5"/>
<text text-anchor="middle" x="41.5" y="-235.5" font-family="Helvetica,sans-Serif" font-size="10.00">MonoBehaviour</text>
</a>
</g>
</g>
<!-- Node4&#45;&gt;Node3 -->
<g id="edge3" class="edge">
<title>Node4&#45;&gt;Node3</title>
<path fill="none" stroke="midnightblue" d="M93.16,-238C104.81,-238 117.17,-238 128.76,-238"/>
<polygon fill="midnightblue" stroke="midnightblue" points="93.15,-234.5 83.15,-238 93.15,-241.5 93.15,-234.5"/>
</g>
<!-- Node5 -->
<g id="node5" class="node">
<title>Node5</title>
<g id="a_node5"><a xlink:href="interface_photon_1_1_realtime_1_1_i_connection_callbacks.xhtml" target="_top" xlink:title="Collection of &quot;organizational&quot; callbacks for the Realtime Api to cover: Connection and Regions.">
<polygon fill="white" stroke="black" points="124,-190.5 124,-209.5 234,-209.5 234,-190.5 124,-190.5"/>
<text text-anchor="middle" x="179" y="-197.5" font-family="Helvetica,sans-Serif" font-size="10.00">IConnectionCallbacks</text>
</a>
</g>
</g>
<!-- Node5&#45;&gt;Node2 -->
<g id="edge4" class="edge">
<title>Node5&#45;&gt;Node2</title>
<path fill="none" stroke="midnightblue" d="M222.91,-187.19C228.38,-185.26 233.86,-183.18 239,-181 272.4,-166.82 309.29,-145.78 329.71,-133.62"/>
<polygon fill="midnightblue" stroke="midnightblue" points="221.51,-183.97 213.15,-190.48 223.75,-190.6 221.51,-183.97"/>
</g>
<!-- Node6 -->
<g id="node6" class="node">
<title>Node6</title>
<g id="a_node6"><a xlink:href="interface_photon_1_1_realtime_1_1_i_matchmaking_callbacks.xhtml" target="_top" xlink:title="Collection of &quot;organizational&quot; callbacks for the Realtime Api to cover Matchmaking.">
<polygon fill="white" stroke="black" points="119,-152.5 119,-171.5 239,-171.5 239,-152.5 119,-152.5"/>
<text text-anchor="middle" x="179" y="-159.5" font-family="Helvetica,sans-Serif" font-size="10.00">IMatchmakingCallbacks</text>
</a>
</g>
</g>
<!-- Node6&#45;&gt;Node2 -->
<g id="edge5" class="edge">
<title>Node6&#45;&gt;Node2</title>
<path fill="none" stroke="midnightblue" d="M231.81,-150.1C255.07,-144.76 282.15,-138.55 304.04,-133.52"/>
<polygon fill="midnightblue" stroke="midnightblue" points="230.73,-146.76 221.76,-152.41 232.29,-153.58 230.73,-146.76"/>
</g>
<!-- Node7 -->
<g id="node7" class="node">
<title>Node7</title>
<g id="a_node7"><a xlink:href="interface_photon_1_1_realtime_1_1_i_in_room_callbacks.xhtml" target="_top" xlink:title="Collection of &quot;in room&quot; callbacks for the Realtime Api to cover: Players entering or leaving,...">
<polygon fill="white" stroke="black" points="131.5,-114.5 131.5,-133.5 226.5,-133.5 226.5,-114.5 131.5,-114.5"/>
<text text-anchor="middle" x="179" y="-121.5" font-family="Helvetica,sans-Serif" font-size="10.00">IInRoomCallbacks</text>
</a>
</g>
</g>
<!-- Node7&#45;&gt;Node2 -->
<g id="edge6" class="edge">
<title>Node7&#45;&gt;Node2</title>
<path fill="none" stroke="midnightblue" d="M236.65,-124C248.95,-124 262.12,-124 274.89,-124"/>
<polygon fill="midnightblue" stroke="midnightblue" points="236.54,-120.5 226.54,-124 236.54,-127.5 236.54,-120.5"/>
</g>
<!-- Node8 -->
<g id="node8" class="node">
<title>Node8</title>
<g id="a_node8"><a xlink:href="interface_photon_1_1_realtime_1_1_i_lobby_callbacks.xhtml" target="_top" xlink:title="Collection of &quot;organizational&quot; callbacks for the Realtime Api to cover the Lobby.">
<polygon fill="white" stroke="black" points="135,-76.5 135,-95.5 223,-95.5 223,-76.5 135,-76.5"/>
<text text-anchor="middle" x="179" y="-83.5" font-family="Helvetica,sans-Serif" font-size="10.00">ILobbyCallbacks</text>
</a>
</g>
</g>
<!-- Node8&#45;&gt;Node2 -->
<g id="edge7" class="edge">
<title>Node8&#45;&gt;Node2</title>
<path fill="none" stroke="midnightblue" d="M231.81,-97.9C255.07,-103.24 282.15,-109.45 304.04,-114.48"/>
<polygon fill="midnightblue" stroke="midnightblue" points="232.29,-94.42 221.76,-95.59 230.73,-101.24 232.29,-94.42"/>
</g>
<!-- Node9 -->
<g id="node9" class="node">
<title>Node9</title>
<g id="a_node9"><a xlink:href="interface_photon_1_1_realtime_1_1_i_web_rpc_callback.xhtml" target="_top" xlink:title="Interface for &quot;WebRpc&quot; callbacks for the Realtime Api.">
<polygon fill="white" stroke="black" points="132,-38.5 132,-57.5 226,-57.5 226,-38.5 132,-38.5"/>
<text text-anchor="middle" x="179" y="-45.5" font-family="Helvetica,sans-Serif" font-size="10.00">IWebRpcCallback</text>
</a>
</g>
</g>
<!-- Node9&#45;&gt;Node2 -->
<g id="edge8" class="edge">
<title>Node9&#45;&gt;Node2</title>
<path fill="none" stroke="midnightblue" d="M222.91,-60.81C228.38,-62.74 233.86,-64.82 239,-67 272.4,-81.18 309.29,-102.22 329.71,-114.38"/>
<polygon fill="midnightblue" stroke="midnightblue" points="223.75,-57.4 213.15,-57.52 221.51,-64.03 223.75,-57.4"/>
</g>
<!-- Node10 -->
<g id="node10" class="node">
<title>Node10</title>
<g id="a_node10"><a xlink:href="interface_photon_1_1_realtime_1_1_i_error_info_callback.xhtml" target="_top" xlink:title="Interface for EventCode.ErrorInfo event callback for the Realtime Api.">
<polygon fill="white" stroke="black" points="133,-0.5 133,-19.5 225,-19.5 225,-0.5 133,-0.5"/>
<text text-anchor="middle" x="179" y="-7.5" font-family="Helvetica,sans-Serif" font-size="10.00">IErrorInfoCallback</text>
</a>
</g>
</g>
<!-- Node10&#45;&gt;Node2 -->
<g id="edge9" class="edge">
<title>Node10&#45;&gt;Node2</title>
<path fill="none" stroke="midnightblue" d="M227.34,-23.27C231.38,-24.99 235.32,-26.89 239,-29 280.93,-53.01 320.77,-95.56 337.38,-114.48"/>
<polygon fill="midnightblue" stroke="midnightblue" points="228.42,-19.93 217.83,-19.59 225.89,-26.46 228.42,-19.93"/>
</g>
</g>
</svg>
        <g id="navigator" transform="translate(0 0)" fill="#404254">
                <rect fill="#f2f5e9" fill-opacity="0.5" stroke="#606060" stroke-width=".5" x="0" y="0" width="60" height="60"/>
                <use id="zoomplus" xlink:href="#zoomPlus" x="17" y="9" onmousedown="handleZoom(evt,'in')"/>
                <use id="zoomminus" xlink:href="#zoomMin" x="42" y="9" onmousedown="handleZoom(evt,'out')"/>
                <use id="reset" xlink:href="#resetDef" x="30" y="36" onmousedown="handleReset()"/>
                <g id="arrowUp" xlink:href="#dirArrow" transform="translate(30 24)" onmousedown="handlePan(0,-1)">
                  <use xlink:href="#rim" fill="#404040">
                        <set attributeName="fill" to="#808080" begin="arrowUp.mouseover" end="arrowUp.mouseout"/>
                  </use>
                  <path fill="none" stroke="white" stroke-width="1.5" d="M0,-3.0v7 M-2.5,-0.5L0,-3.0L2.5,-0.5"/>
                </g>
                <g id="arrowRight" xlink:href="#dirArrow" transform="rotate(90) translate(36 -43)" onmousedown="handlePan(1,0)">
                  <use xlink:href="#rim" fill="#404040">
                        <set attributeName="fill" to="#808080" begin="arrowRight.mouseover" end="arrowRight.mouseout"/>
                  </use>
                  <path fill="none" stroke="white" stroke-width="1.5" d="M0,-3.0v7 M-2.5,-0.5L0,-3.0L2.5,-0.5"/>
                </g>
                <g id="arrowDown" xlink:href="#dirArrow" transform="rotate(180) translate(-30 -48)" onmousedown="handlePan(0,1)">
                  <use xlink:href="#rim" fill="#404040">
                        <set attributeName="fill" to="#808080" begin="arrowDown.mouseover" end="arrowDown.mouseout"/>
                  </use>
                  <path fill="none" stroke="white" stroke-width="1.5" d="M0,-3.0v7 M-2.5,-0.5L0,-3.0L2.5,-0.5"/>
                </g>
                <g id="arrowLeft" xlink:href="#dirArrow" transform="rotate(270) translate(-36 17)" onmousedown="handlePan(-1,0)">
                  <use xlink:href="#rim" fill="#404040">
                        <set attributeName="fill" to="#808080" begin="arrowLeft.mouseover" end="arrowLeft.mouseout"/>
                  </use>
                  <path fill="none" stroke="white" stroke-width="1.5" d="M0,-3.0v7 M-2.5,-0.5L0,-3.0L2.5,-0.5"/>
                </g>
        </g>
        <svg viewBox="0 0 15 15" width="100%" height="30px" preserveAspectRatio="xMaxYMin meet">
         <g id="arrow_out" transform="scale(0.3 0.3)">
          <a xlink:href="class_photon_1_1_pun_1_1_demo_1_1_asteroids_1_1_player_overview_panel__inherit__graph_org.svg" target="_base">
           <rect id="button" ry="5" rx="5" y="6" x="6" height="38" width="38"
                fill="#f2f5e9" fill-opacity="0.5" stroke="#606060" stroke-width="1.0"/>
           <path id="arrow"
             d="M 11.500037,31.436501 C 11.940474,20.09759 22.043105,11.32322 32.158766,21.979434 L 37.068811,17.246167 C 37.068811,17.246167 37.088388,32 37.088388,32 L 22.160133,31.978069 C 22.160133,31.978069 26.997745,27.140456 26.997745,27.140456 C 18.528582,18.264221 13.291696,25.230495 11.500037,31.436501 z"
             style="fill:#404040;"/>
          </a>
         </g>
        </svg>
</svg>
