<?xml version="1.0" encoding="UTF-8" standalone="no"?>
<!DOCTYPE svg PUBLIC "-//W3C//DTD SVG 1.1//EN"
 "http://www.w3.org/Graphics/SVG/1.1/DTD/svg11.dtd">
<!-- Generated by graphviz version 2.47.3 (20210619.1520)
 -->
<!-- Title: Inventory.CanBuy Pages: 1 -->
<svg width="468pt" height="170pt"
 viewBox="0.00 0.00 468.00 170.24" xmlns="http://www.w3.org/2000/svg" xmlns:xlink="http://www.w3.org/1999/xlink">
<g id="graph0" class="graph" transform="scale(1 1) rotate(0) translate(4 166.24)">
<title>Inventory.CanBuy</title>
<!-- Node1 -->
<g id="node1" class="node">
<title>Node1</title>
<g id="a_node1"><a xlink:title=" ">
<polygon fill="#bfbfbf" stroke="black" points="368,-76.5 368,-95.5 460,-95.5 460,-76.5 368,-76.5"/>
<text text-anchor="middle" x="414" y="-83.5" font-family="Helvetica,sans-Serif" font-size="10.00">Inventory.CanBuy</text>
</a>
</g>
</g>
<!-- Node2 -->
<g id="node2" class="node">
<title>Node2</title>
<g id="a_node2"><a xlink:href="class_current_item_shop.html#ac931da08dc792088bbb913a1db71cf27" target="_top" xlink:title=" ">
<polygon fill="none" stroke="black" points="0,-142.5 0,-161.5 141,-161.5 141,-142.5 0,-142.5"/>
<text text-anchor="middle" x="70.5" y="-149.5" font-family="Helvetica,sans-Serif" font-size="10.00">CurrentItemShop.BuyCurrent</text>
</a>
</g>
</g>
<!-- Node1&#45;&gt;Node2 -->
<g id="edge1" class="edge">
<title>Node1&#45;&gt;Node2</title>
<path fill="none" stroke="midnightblue" d="M395.47,-102.95C380.12,-116.59 356.48,-134.78 332,-143 269.9,-163.85 194.74,-164 141.15,-160.19"/>
<polygon fill="midnightblue" stroke="midnightblue" points="398.11,-105.28 403.1,-95.94 393.37,-100.13 398.11,-105.28"/>
</g>
<!-- Node3 -->
<g id="node3" class="node">
<title>Node3</title>
<g id="a_node3"><a xlink:href="class_inventory.html#a22aa6615c02eff40c88a48c96905e962" target="_top" xlink:title=" ">
<polygon fill="none" stroke="black" points="207.5,-114.5 207.5,-133.5 301.5,-133.5 301.5,-114.5 207.5,-114.5"/>
<text text-anchor="middle" x="254.5" y="-121.5" font-family="Helvetica,sans-Serif" font-size="10.00">Inventory.BuyItem</text>
</a>
</g>
</g>
<!-- Node1&#45;&gt;Node3 -->
<g id="edge2" class="edge">
<title>Node1&#45;&gt;Node3</title>
<path fill="none" stroke="midnightblue" d="M363.4,-97.97C341.32,-103.29 315.7,-109.48 294.96,-114.48"/>
<polygon fill="midnightblue" stroke="midnightblue" points="364.36,-101.34 373.26,-95.59 362.71,-94.53 364.36,-101.34"/>
</g>
<!-- Node4 -->
<g id="node4" class="node">
<title>Node4</title>
<g id="a_node4"><a xlink:href="class_item_u_i.html#a2b89b23e671541d302225044a9d9de6f" target="_top" xlink:title=" ">
<polygon fill="none" stroke="black" points="14,-95.5 14,-114.5 127,-114.5 127,-95.5 14,-95.5"/>
<text text-anchor="middle" x="70.5" y="-102.5" font-family="Helvetica,sans-Serif" font-size="10.00">ItemUI.OnPointerClick</text>
</a>
</g>
</g>
<!-- Node1&#45;&gt;Node4 -->
<g id="edge9" class="edge">
<title>Node1&#45;&gt;Node4</title>
<path fill="none" stroke="midnightblue" d="M357.44,-89.09C293.99,-92.62 190.77,-98.36 127.24,-101.9"/>
<polygon fill="midnightblue" stroke="midnightblue" points="357.86,-92.57 367.65,-88.52 357.47,-85.58 357.86,-92.57"/>
</g>
<!-- Node5 -->
<g id="node5" class="node">
<title>Node5</title>
<g id="a_node5"><a xlink:href="class_current_item_shop.html#a96327722769d2770bdf5cebc78efbb03" target="_top" xlink:title=" ">
<polygon fill="none" stroke="black" points="177,-38.5 177,-57.5 332,-57.5 332,-38.5 177,-38.5"/>
<text text-anchor="middle" x="254.5" y="-45.5" font-family="Helvetica,sans-Serif" font-size="10.00">CurrentItemShop.CheckBuyable</text>
</a>
</g>
</g>
<!-- Node1&#45;&gt;Node5 -->
<g id="edge5" class="edge">
<title>Node1&#45;&gt;Node5</title>
<path fill="none" stroke="midnightblue" d="M363.4,-74.03C341.32,-68.71 315.7,-62.52 294.96,-57.52"/>
<polygon fill="midnightblue" stroke="midnightblue" points="362.71,-77.47 373.26,-76.41 364.36,-70.66 362.71,-77.47"/>
</g>
<!-- Node7 -->
<g id="node7" class="node">
<title>Node7</title>
<g id="a_node7"><a xlink:href="class_item_u_i.html#aea5d8c789ccc8a8f0b2df526321f7b5e" target="_top" xlink:title=" ">
<polygon fill="none" stroke="black" points="199.5,-0.5 199.5,-19.5 309.5,-19.5 309.5,-0.5 199.5,-0.5"/>
<text text-anchor="middle" x="254.5" y="-7.5" font-family="Helvetica,sans-Serif" font-size="10.00">ItemUI.CheckBuyable</text>
</a>
</g>
</g>
<!-- Node1&#45;&gt;Node7 -->
<g id="edge7" class="edge">
<title>Node1&#45;&gt;Node7</title>
<path fill="none" stroke="midnightblue" d="M394.43,-69.9C378.76,-57.09 355.23,-39.61 332,-29 323.66,-25.19 314.44,-22.08 305.38,-19.55"/>
<polygon fill="midnightblue" stroke="midnightblue" points="392.36,-72.73 402.28,-76.46 396.86,-67.36 392.36,-72.73"/>
</g>
<!-- Node3&#45;&gt;Node2 -->
<g id="edge3" class="edge">
<title>Node3&#45;&gt;Node2</title>
<path fill="none" stroke="midnightblue" d="M197.1,-132.68C176.86,-135.79 153.94,-139.32 133.27,-142.5"/>
<polygon fill="midnightblue" stroke="midnightblue" points="197.75,-136.12 207.1,-131.14 196.69,-129.2 197.75,-136.12"/>
</g>
<!-- Node3&#45;&gt;Node4 -->
<g id="edge4" class="edge">
<title>Node3&#45;&gt;Node4</title>
<path fill="none" stroke="midnightblue" d="M197.13,-118.12C174.89,-115.79 149.4,-113.13 127.22,-110.82"/>
<polygon fill="midnightblue" stroke="midnightblue" points="196.79,-121.6 207.1,-119.16 197.52,-114.64 196.79,-121.6"/>
</g>
<!-- Node6 -->
<g id="node6" class="node">
<title>Node6</title>
<g id="a_node6"><a xlink:href="class_shop.html#a41ec87cc228509d14232052a67281eb7" target="_top" xlink:title=" ">
<polygon fill="none" stroke="black" points="34,-19.5 34,-38.5 107,-38.5 107,-19.5 34,-19.5"/>
<text text-anchor="middle" x="70.5" y="-26.5" font-family="Helvetica,sans-Serif" font-size="10.00">Shop.Update</text>
</a>
</g>
</g>
<!-- Node5&#45;&gt;Node6 -->
<g id="edge6" class="edge">
<title>Node5&#45;&gt;Node6</title>
<path fill="none" stroke="midnightblue" d="M166.62,-38.93C145.7,-36.75 124.49,-34.53 107.42,-32.75"/>
<polygon fill="midnightblue" stroke="midnightblue" points="166.53,-42.44 176.84,-40 167.26,-35.48 166.53,-42.44"/>
</g>
<!-- Node7&#45;&gt;Node6 -->
<g id="edge8" class="edge">
<title>Node7&#45;&gt;Node6</title>
<path fill="none" stroke="midnightblue" d="M189.38,-16.69C161.72,-19.58 130.41,-22.85 107.01,-25.29"/>
<polygon fill="midnightblue" stroke="midnightblue" points="189.8,-20.17 199.39,-15.65 189.08,-13.21 189.8,-20.17"/>
</g>
</g>
</svg>
