<?xml version="1.0" encoding="UTF-8" standalone="no"?>
<!DOCTYPE svg PUBLIC "-//W3C//DTD SVG 1.1//EN"
 "http://www.w3.org/Graphics/SVG/1.1/DTD/svg11.dtd">
<!-- Generated by graphviz version 2.47.3 (20210619.1520)
 -->
<!-- Title: Photon.Pun.PhotonGUI.DrawSplitter Pages: 1 -->
<svg width="847pt" height="190pt"
 viewBox="0.00 0.00 847.00 190.00" xmlns="http://www.w3.org/2000/svg" xmlns:xlink="http://www.w3.org/1999/xlink">
<g id="graph0" class="graph" transform="scale(1 1) rotate(0) translate(4 186)">
<title>Photon.Pun.PhotonGUI.DrawSplitter</title>
<polygon fill="white" stroke="transparent" points="-4,4 -4,-186 843,-186 843,4 -4,4"/>
<!-- Node1 -->
<g id="node1" class="node">
<title>Node1</title>
<g id="a_node1"><a xlink:title=" ">
<polygon fill="#bfbfbf" stroke="black" points="696,-77.5 696,-107.5 839,-107.5 839,-77.5 696,-77.5"/>
<text text-anchor="start" x="704" y="-95.5" font-family="Helvetica,sans-Serif" font-size="10.00">Photon.Pun.PhotonGUI.Draw</text>
<text text-anchor="middle" x="767.5" y="-84.5" font-family="Helvetica,sans-Serif" font-size="10.00">Splitter</text>
</a>
</g>
</g>
<!-- Node2 -->
<g id="node2" class="node">
<title>Node2</title>
<g id="a_node2"><a xlink:href="class_photon_1_1_pun_1_1_photon_animator_view_editor.xhtml#ac104c8f09b123df1bad32101be45ece4" target="_top" xlink:title=" ">
<polygon fill="white" stroke="black" points="469,-151.5 469,-181.5 642,-181.5 642,-151.5 469,-151.5"/>
<text text-anchor="start" x="477" y="-169.5" font-family="Helvetica,sans-Serif" font-size="10.00">Photon.Pun.PhotonAnimator</text>
<text text-anchor="middle" x="555.5" y="-158.5" font-family="Helvetica,sans-Serif" font-size="10.00">ViewEditor.DrawParameterInspector</text>
</a>
</g>
</g>
<!-- Node1&#45;&gt;Node2 -->
<g id="edge1" class="edge">
<title>Node1&#45;&gt;Node2</title>
<path fill="none" stroke="midnightblue" d="M729.58,-112.2C709.44,-122.33 683.83,-134.25 660,-142.5 650.41,-145.82 640.17,-148.82 629.99,-151.49"/>
<polygon fill="midnightblue" stroke="midnightblue" points="731.38,-115.2 738.7,-107.54 728.2,-108.97 731.38,-115.2"/>
</g>
<!-- Node4 -->
<g id="node4" class="node">
<title>Node4</title>
<g id="a_node4"><a xlink:href="class_photon_1_1_pun_1_1_photon_transform_view_classic_editor.xhtml#ab204421d9b4301e046b7a20e95493611" target="_top" xlink:title=" ">
<polygon fill="white" stroke="black" points="480,-53.5 480,-83.5 631,-83.5 631,-53.5 480,-53.5"/>
<text text-anchor="start" x="488" y="-71.5" font-family="Helvetica,sans-Serif" font-size="10.00">Photon.Pun.PhotonTransform</text>
<text text-anchor="middle" x="555.5" y="-60.5" font-family="Helvetica,sans-Serif" font-size="10.00">ViewClassicEditor.DrawSplitter</text>
</a>
</g>
</g>
<!-- Node1&#45;&gt;Node4 -->
<g id="edge3" class="edge">
<title>Node1&#45;&gt;Node4</title>
<path fill="none" stroke="midnightblue" d="M685.83,-83.28C667.85,-81.23 648.86,-79.06 631.14,-77.03"/>
<polygon fill="midnightblue" stroke="midnightblue" points="685.66,-86.78 695.99,-84.44 686.45,-79.83 685.66,-86.78"/>
</g>
<!-- Node7 -->
<g id="node7" class="node">
<title>Node7</title>
<g id="a_node7"><a xlink:href="class_photon_1_1_pun_1_1_utility_scripts_1_1_photon_teams_manager_editor.xhtml#aee70d90ca9516afa33dfd387fd83ccdd" target="_top" xlink:title=" ">
<polygon fill="white" stroke="black" points="451,-3.5 451,-33.5 660,-33.5 660,-3.5 451,-3.5"/>
<text text-anchor="start" x="459" y="-21.5" font-family="Helvetica,sans-Serif" font-size="10.00">Photon.Pun.UtilityScripts.</text>
<text text-anchor="middle" x="555.5" y="-10.5" font-family="Helvetica,sans-Serif" font-size="10.00">PhotonTeamsManagerEditor.DrawTeamsList</text>
</a>
</g>
</g>
<!-- Node1&#45;&gt;Node7 -->
<g id="edge6" class="edge">
<title>Node1&#45;&gt;Node7</title>
<path fill="none" stroke="midnightblue" d="M728.65,-72.9C708.63,-63.1 683.4,-51.62 660,-43.5 649.43,-39.83 638.08,-36.5 626.91,-33.55"/>
<polygon fill="midnightblue" stroke="midnightblue" points="727.23,-76.11 737.75,-77.42 730.34,-69.84 727.23,-76.11"/>
</g>
<!-- Node9 -->
<g id="node9" class="node">
<title>Node9</title>
<g id="a_node9"><a xlink:href="class_photon_1_1_pun_1_1_photon_animator_view_editor.xhtml#a924f7554a55913583384a10f61b3e52f" target="_top" xlink:title=" ">
<polygon fill="white" stroke="black" points="476.5,-102.5 476.5,-132.5 634.5,-132.5 634.5,-102.5 476.5,-102.5"/>
<text text-anchor="start" x="484.5" y="-120.5" font-family="Helvetica,sans-Serif" font-size="10.00">Photon.Pun.PhotonAnimator</text>
<text text-anchor="middle" x="555.5" y="-109.5" font-family="Helvetica,sans-Serif" font-size="10.00">ViewEditor.DrawWeightInspector</text>
</a>
</g>
</g>
<!-- Node1&#45;&gt;Node9 -->
<g id="edge8" class="edge">
<title>Node1&#45;&gt;Node9</title>
<path fill="none" stroke="midnightblue" d="M685.71,-102.12C668.99,-104.11 651.4,-106.2 634.77,-108.18"/>
<polygon fill="midnightblue" stroke="midnightblue" points="686.47,-105.55 695.99,-100.89 685.65,-98.6 686.47,-105.55"/>
</g>
<!-- Node3 -->
<g id="node3" class="node">
<title>Node3</title>
<g id="a_node3"><a xlink:href="class_photon_1_1_pun_1_1_photon_animator_view_editor.xhtml#aad6c249b63a243cefe9cddb67450ba9f" target="_top" xlink:title=" ">
<polygon fill="white" stroke="black" points="239,-130.5 239,-160.5 379,-160.5 379,-130.5 239,-130.5"/>
<text text-anchor="start" x="247" y="-148.5" font-family="Helvetica,sans-Serif" font-size="10.00">Photon.Pun.PhotonAnimator</text>
<text text-anchor="middle" x="309" y="-137.5" font-family="Helvetica,sans-Serif" font-size="10.00">ViewEditor.OnInspectorGUI</text>
</a>
</g>
</g>
<!-- Node2&#45;&gt;Node3 -->
<g id="edge2" class="edge">
<title>Node2&#45;&gt;Node3</title>
<path fill="none" stroke="midnightblue" d="M458.91,-158.29C432.36,-156.01 404.05,-153.58 379.32,-151.45"/>
<polygon fill="midnightblue" stroke="midnightblue" points="458.72,-161.79 468.99,-159.16 459.32,-154.81 458.72,-161.79"/>
</g>
<!-- Node5 -->
<g id="node5" class="node">
<title>Node5</title>
<g id="a_node5"><a xlink:href="class_photon_1_1_pun_1_1_photon_transform_view_classic_editor.xhtml#a5842c82125aae647ea8612030ac4444d" target="_top" xlink:title=" ">
<polygon fill="white" stroke="black" points="222,-50 222,-91 396,-91 396,-50 222,-50"/>
<text text-anchor="start" x="230" y="-79" font-family="Helvetica,sans-Serif" font-size="10.00">Photon.Pun.PhotonTransform</text>
<text text-anchor="start" x="230" y="-68" font-family="Helvetica,sans-Serif" font-size="10.00">ViewClassicEditor.DrawSynchronize</text>
<text text-anchor="middle" x="309" y="-57" font-family="Helvetica,sans-Serif" font-size="10.00">PositionData</text>
</a>
</g>
</g>
<!-- Node4&#45;&gt;Node5 -->
<g id="edge4" class="edge">
<title>Node4&#45;&gt;Node5</title>
<path fill="none" stroke="midnightblue" d="M469.76,-69.19C445.98,-69.39 420.09,-69.6 396.22,-69.79"/>
<polygon fill="midnightblue" stroke="midnightblue" points="469.84,-72.69 479.81,-69.11 469.79,-65.69 469.84,-72.69"/>
</g>
<!-- Node6 -->
<g id="node6" class="node">
<title>Node6</title>
<g id="a_node6"><a xlink:href="class_photon_1_1_pun_1_1_photon_transform_view_classic_editor.xhtml#a3c39c395b6e04811cb3a897cf02a5923" target="_top" xlink:title=" ">
<polygon fill="white" stroke="black" points="0,-55.5 0,-85.5 167,-85.5 167,-55.5 0,-55.5"/>
<text text-anchor="start" x="8" y="-73.5" font-family="Helvetica,sans-Serif" font-size="10.00">Photon.Pun.PhotonTransform</text>
<text text-anchor="middle" x="83.5" y="-62.5" font-family="Helvetica,sans-Serif" font-size="10.00">ViewClassicEditor.OnInspectorGUI</text>
</a>
</g>
</g>
<!-- Node5&#45;&gt;Node6 -->
<g id="edge5" class="edge">
<title>Node5&#45;&gt;Node6</title>
<path fill="none" stroke="midnightblue" d="M211.72,-70.5C196.91,-70.5 181.72,-70.5 167.24,-70.5"/>
<polygon fill="midnightblue" stroke="midnightblue" points="211.91,-74 221.91,-70.5 211.91,-67 211.91,-74"/>
</g>
<!-- Node8 -->
<g id="node8" class="node">
<title>Node8</title>
<g id="a_node8"><a xlink:href="class_photon_1_1_pun_1_1_utility_scripts_1_1_photon_teams_manager_editor.xhtml#a642ccd577e2f3bc9b54852cefabe12d5" target="_top" xlink:title=" ">
<polygon fill="white" stroke="black" points="203,-0.5 203,-30.5 415,-30.5 415,-0.5 203,-0.5"/>
<text text-anchor="start" x="211" y="-18.5" font-family="Helvetica,sans-Serif" font-size="10.00">Photon.Pun.UtilityScripts.</text>
<text text-anchor="middle" x="309" y="-7.5" font-family="Helvetica,sans-Serif" font-size="10.00">PhotonTeamsManagerEditor.OnInspectorGUI</text>
</a>
</g>
</g>
<!-- Node7&#45;&gt;Node8 -->
<g id="edge7" class="edge">
<title>Node7&#45;&gt;Node8</title>
<path fill="none" stroke="midnightblue" d="M440.77,-17.1C432.19,-17 423.55,-16.89 415.02,-16.79"/>
<polygon fill="midnightblue" stroke="midnightblue" points="440.77,-20.6 450.81,-17.23 440.85,-13.61 440.77,-20.6"/>
</g>
<!-- Node9&#45;&gt;Node3 -->
<g id="edge9" class="edge">
<title>Node9&#45;&gt;Node3</title>
<path fill="none" stroke="midnightblue" d="M466.42,-127.59C437.68,-130.88 406.19,-134.48 379.04,-137.59"/>
<polygon fill="midnightblue" stroke="midnightblue" points="466.93,-131.05 476.47,-126.44 466.13,-124.1 466.93,-131.05"/>
</g>
</g>
</svg>
