<?xml version="1.0" encoding="UTF-8" standalone="no"?>
<!DOCTYPE svg PUBLIC "-//W3C//DTD SVG 1.1//EN"
 "http://www.w3.org/Graphics/SVG/1.1/DTD/svg11.dtd">
<!-- Generated by graphviz version 2.49.1 (20210923.0004)
 -->
<!-- Title: MovableStats.ApplyStatistic Pages: 1 -->
<svg width="777pt" height="97pt"
 viewBox="0.00 0.00 777.00 96.50" xmlns="http://www.w3.org/2000/svg" xmlns:xlink="http://www.w3.org/1999/xlink">
<g id="graph0" class="graph" transform="scale(1 1) rotate(0) translate(4 92.5)">
<title>MovableStats.ApplyStatistic</title>
<!-- Node1 -->
<g id="node1" class="node">
<title>Node1</title>
<g id="a_node1"><a xlink:title=" ">
<polygon fill="#bfbfbf" stroke="black" points="630,-28 630,-47 769,-47 769,-28 630,-28"/>
<text text-anchor="middle" x="699.5" y="-35" font-family="Helvetica,sans-Serif" font-size="10.00">MovableStats.ApplyStatistic</text>
</a>
</g>
</g>
<!-- Node2 -->
<g id="node2" class="node">
<title>Node2</title>
<g id="a_node2"><a xlink:href="class_item_statistic_effect.html#abbdbb3e54a3aeeb784c5aadaec695753" target="_top" xlink:title=" ">
<polygon fill="none" stroke="black" points="458,-50 458,-69 592,-69 592,-50 458,-50"/>
<text text-anchor="middle" x="525" y="-57" font-family="Helvetica,sans-Serif" font-size="10.00">ItemStatisticEffect.Activate</text>
</a>
</g>
</g>
<!-- Node1&#45;&gt;Node2 -->
<g id="edge1" class="edge">
<title>Node1&#45;&gt;Node2</title>
<path fill="none" stroke="midnightblue" d="M619.86,-47.53C610.61,-48.71 601.24,-49.9 592.19,-51.06"/>
<polygon fill="midnightblue" stroke="midnightblue" points="620.35,-51 629.83,-46.26 619.47,-44.05 620.35,-51"/>
</g>
<!-- Node7 -->
<g id="node7" class="node">
<title>Node7</title>
<g id="a_node7"><a xlink:href="class_statistic_change_effect.html#a18670b90afa4c33f7b5ec466af94c38d" target="_top" xlink:title=" ">
<polygon fill="none" stroke="black" points="456,-0.5 456,-30.5 594,-30.5 594,-0.5 456,-0.5"/>
<text text-anchor="start" x="464" y="-18.5" font-family="Helvetica,sans-Serif" font-size="10.00">StatisticChangeEffect.Apply</text>
<text text-anchor="middle" x="525" y="-7.5" font-family="Helvetica,sans-Serif" font-size="10.00">TimedEffect</text>
</a>
</g>
</g>
<!-- Node1&#45;&gt;Node7 -->
<g id="edge6" class="edge">
<title>Node1&#45;&gt;Node7</title>
<path fill="none" stroke="midnightblue" d="M619.83,-27.47C611.26,-26.37 602.59,-25.27 594.15,-24.19"/>
<polygon fill="midnightblue" stroke="midnightblue" points="619.47,-30.95 629.83,-28.74 620.35,-24 619.47,-30.95"/>
</g>
<!-- Node3 -->
<g id="node3" class="node">
<title>Node3</title>
<g id="a_node3"><a xlink:href="class_inventory.html#a22aa6615c02eff40c88a48c96905e962" target="_top" xlink:title=" ">
<polygon fill="none" stroke="black" points="326,-50 326,-69 420,-69 420,-50 326,-50"/>
<text text-anchor="middle" x="373" y="-57" font-family="Helvetica,sans-Serif" font-size="10.00">Inventory.BuyItem</text>
</a>
</g>
</g>
<!-- Node2&#45;&gt;Node3 -->
<g id="edge2" class="edge">
<title>Node2&#45;&gt;Node3</title>
<path fill="none" stroke="midnightblue" d="M447.6,-59.5C438.2,-59.5 428.84,-59.5 420.09,-59.5"/>
<polygon fill="midnightblue" stroke="midnightblue" points="447.77,-63 457.77,-59.5 447.77,-56 447.77,-63"/>
</g>
<!-- Node4 -->
<g id="node4" class="node">
<title>Node4</title>
<g id="a_node4"><a xlink:href="class_current_item_shop.html#ac931da08dc792088bbb913a1db71cf27" target="_top" xlink:title=" ">
<polygon fill="none" stroke="black" points="149,-69 149,-88 290,-88 290,-69 149,-69"/>
<text text-anchor="middle" x="219.5" y="-76" font-family="Helvetica,sans-Serif" font-size="10.00">CurrentItemShop.BuyCurrent</text>
</a>
</g>
</g>
<!-- Node3&#45;&gt;Node4 -->
<g id="edge3" class="edge">
<title>Node3&#45;&gt;Node4</title>
<path fill="none" stroke="midnightblue" d="M315.76,-66.55C307.43,-67.6 298.77,-68.68 290.2,-69.76"/>
<polygon fill="midnightblue" stroke="midnightblue" points="316.24,-70.02 325.72,-65.3 315.36,-63.08 316.24,-70.02"/>
</g>
<!-- Node5 -->
<g id="node5" class="node">
<title>Node5</title>
<g id="a_node5"><a xlink:href="class_item_u_i.html#a7989b50db532215f7732954841b6ae4d" target="_top" xlink:title=" ">
<polygon fill="none" stroke="black" points="178,-31 178,-50 261,-50 261,-31 178,-31"/>
<text text-anchor="middle" x="219.5" y="-38" font-family="Helvetica,sans-Serif" font-size="10.00">ItemUI.BuyItem</text>
</a>
</g>
</g>
<!-- Node3&#45;&gt;Node5 -->
<g id="edge4" class="edge">
<title>Node3&#45;&gt;Node5</title>
<path fill="none" stroke="midnightblue" d="M315.58,-52.42C297.49,-50.16 277.83,-47.69 261.11,-45.59"/>
<polygon fill="midnightblue" stroke="midnightblue" points="315.36,-55.92 325.72,-53.7 316.24,-48.98 315.36,-55.92"/>
</g>
<!-- Node6 -->
<g id="node6" class="node">
<title>Node6</title>
<g id="a_node6"><a xlink:href="class_item_u_i.html#a2b89b23e671541d302225044a9d9de6f" target="_top" xlink:title=" ">
<polygon fill="none" stroke="black" points="0,-31 0,-50 113,-50 113,-31 0,-31"/>
<text text-anchor="middle" x="56.5" y="-38" font-family="Helvetica,sans-Serif" font-size="10.00">ItemUI.OnPointerClick</text>
</a>
</g>
</g>
<!-- Node5&#45;&gt;Node6 -->
<g id="edge5" class="edge">
<title>Node5&#45;&gt;Node6</title>
<path fill="none" stroke="midnightblue" d="M167.4,-40.5C150.08,-40.5 130.66,-40.5 113.01,-40.5"/>
<polygon fill="midnightblue" stroke="midnightblue" points="167.87,-44 177.87,-40.5 167.87,-37 167.87,-44"/>
</g>
</g>
</svg>
