<?xml version="1.0" encoding="UTF-8" standalone="no"?>
<!DOCTYPE svg PUBLIC "-//W3C//DTD SVG 1.1//EN"
 "http://www.w3.org/Graphics/SVG/1.1/DTD/svg11.dtd">
<!-- Generated by graphviz version 2.47.3 (20210619.1520)
 -->
<!-- Title: Photon.Realtime.LoadBalancingPeer.OpJoinRoom Pages: 1 -->
<!--zoomable 228 -->
<svg id="main" version="1.1" xmlns="http://www.w3.org/2000/svg" xmlns:xlink="http://www.w3.org/1999/xlink" xml:space="preserve" onload="init(evt)">
<style type="text/css"><![CDATA[
.edge:hover path { stroke: red; }
.edge:hover polygon { stroke: red; fill: red; }
]]></style>
<script type="text/javascript"><![CDATA[
var edges = document.getElementsByTagName('g');
if (edges && edges.length) {
  for (var i=0;i<edges.length;i++) {
    if (edges[i].id.substr(0,4)=='edge') {
      edges[i].setAttribute('class','edge');
    }
  }
}
]]></script>
        <defs>
                <circle id="rim" cx="0" cy="0" r="7"/>
                <circle id="rim2" cx="0" cy="0" r="3.5"/>
                <g id="zoomPlus">
                        <use xlink:href="#rim" fill="#404040">
                                <set attributeName="fill" to="#808080" begin="zoomplus.mouseover" end="zoomplus.mouseout"/>
                        </use>
                        <path d="M-4,0h8M0,-4v8" fill="none" stroke="white" stroke-width="1.5" pointer-events="none"/>
                </g>
                <g id="zoomMin">
                        <use xlink:href="#rim" fill="#404040">
                                <set attributeName="fill" to="#808080" begin="zoomminus.mouseover" end="zoomminus.mouseout"/>
                        </use>
                        <path d="M-4,0h8" fill="none" stroke="white" stroke-width="1.5" pointer-events="none"/>
                </g>
                <g id="dirArrow">
                        <path fill="none" stroke="white" stroke-width="1.5" d="M0,-3.0v7 M-2.5,-0.5L0,-3.0L2.5,-0.5"/>
                </g>
               <g id="resetDef">
                       <use xlink:href="#rim2" fill="#404040">
                               <set attributeName="fill" to="#808080" begin="reset.mouseover" end="reset.mouseout"/>
                       </use>
               </g>
        </defs>

<script type="text/javascript">
var viewWidth = 718;
var viewHeight = 228;
var sectionId = 'dynsection-17';
</script>
<script xlink:href="svgpan.js"/>
<svg id="graph" class="graph">
<g id="viewport">
<title>Photon.Realtime.LoadBalancingPeer.OpJoinRoom</title>
<polygon fill="white" stroke="transparent" points="-4,4 -4,-224 714,-224 714,4 -4,4"/>
<!-- Node1 -->
<g id="node1" class="node">
<title>Node1</title>
<g id="a_node1"><a xlink:title="Joins a room by name or creates new room if room with given name not exists.">
<polygon fill="#bfbfbf" stroke="black" points="555,-115.5 555,-145.5 710,-145.5 710,-115.5 555,-115.5"/>
<text text-anchor="start" x="563" y="-133.5" font-family="Helvetica,sans-Serif" font-size="10.00">Photon.Realtime.LoadBalancing</text>
<text text-anchor="middle" x="632.5" y="-122.5" font-family="Helvetica,sans-Serif" font-size="10.00">Peer.OpJoinRoom</text>
</a>
</g>
</g>
<!-- Node2 -->
<g id="node2" class="node">
<title>Node2</title>
<g id="a_node2"><a xlink:href="class_photon_1_1_realtime_1_1_load_balancing_client.xhtml#aae79523656b407a63d1112528093d953" target="_top" xlink:title="Uses the OperationResponses provided by the server to advance the internal state and call ops as need...">
<polygon fill="white" stroke="black" points="364,-189.5 364,-219.5 519,-219.5 519,-189.5 364,-189.5"/>
<text text-anchor="start" x="372" y="-207.5" font-family="Helvetica,sans-Serif" font-size="10.00">Photon.Realtime.LoadBalancing</text>
<text text-anchor="middle" x="441.5" y="-196.5" font-family="Helvetica,sans-Serif" font-size="10.00">Client.OnOperationResponse</text>
</a>
</g>
</g>
<!-- Node1&#45;&gt;Node2 -->
<g id="edge1" class="edge">
<title>Node1&#45;&gt;Node2</title>
<path fill="none" stroke="midnightblue" d="M590.58,-150.04C569.45,-159.78 543.1,-171.4 519,-180.5 510.8,-183.6 502,-186.63 493.39,-189.43"/>
<polygon fill="midnightblue" stroke="midnightblue" points="592.31,-153.1 599.9,-145.71 589.36,-146.75 592.31,-153.1"/>
</g>
<!-- Node3 -->
<g id="node3" class="node">
<title>Node3</title>
<g id="a_node3"><a xlink:href="class_photon_1_1_realtime_1_1_load_balancing_client.xhtml#a2a3dfdab131b12d557f582b6a89fbf9f" target="_top" xlink:title="Joins a specific room by name and creates it on demand.">
<polygon fill="white" stroke="black" points="364,-140.5 364,-170.5 519,-170.5 519,-140.5 364,-140.5"/>
<text text-anchor="start" x="372" y="-158.5" font-family="Helvetica,sans-Serif" font-size="10.00">Photon.Realtime.LoadBalancing</text>
<text text-anchor="middle" x="441.5" y="-147.5" font-family="Helvetica,sans-Serif" font-size="10.00">Client.OpJoinOrCreateRoom</text>
</a>
</g>
</g>
<!-- Node1&#45;&gt;Node3 -->
<g id="edge2" class="edge">
<title>Node1&#45;&gt;Node3</title>
<path fill="none" stroke="midnightblue" d="M544.9,-141.96C536.33,-143.09 527.67,-144.23 519.21,-145.35"/>
<polygon fill="midnightblue" stroke="midnightblue" points="545.44,-145.41 554.9,-140.63 544.53,-138.47 545.44,-145.41"/>
</g>
<!-- Node5 -->
<g id="node5" class="node">
<title>Node5</title>
<g id="a_node5"><a xlink:href="class_photon_1_1_realtime_1_1_load_balancing_client.xhtml#a0dc81af9d3bde45838728c93f906c2ca" target="_top" xlink:title="Joins a room by name.">
<polygon fill="white" stroke="black" points="364,-91.5 364,-121.5 519,-121.5 519,-91.5 364,-91.5"/>
<text text-anchor="start" x="372" y="-109.5" font-family="Helvetica,sans-Serif" font-size="10.00">Photon.Realtime.LoadBalancing</text>
<text text-anchor="middle" x="441.5" y="-98.5" font-family="Helvetica,sans-Serif" font-size="10.00">Client.OpJoinRoom</text>
</a>
</g>
</g>
<!-- Node1&#45;&gt;Node5 -->
<g id="edge4" class="edge">
<title>Node1&#45;&gt;Node5</title>
<path fill="none" stroke="midnightblue" d="M544.9,-119.5C536.33,-118.41 527.67,-117.32 519.21,-116.24"/>
<polygon fill="midnightblue" stroke="midnightblue" points="544.54,-122.99 554.9,-120.77 545.42,-116.04 544.54,-122.99"/>
</g>
<!-- Node10 -->
<g id="node10" class="node">
<title>Node10</title>
<g id="a_node10"><a xlink:href="class_photon_1_1_realtime_1_1_load_balancing_client.xhtml#afde54809fa49258427c1c31a34264fd6" target="_top" xlink:title="Rejoins a room by roomName (using the userID internally to return).">
<polygon fill="white" stroke="black" points="364,-36.5 364,-66.5 519,-66.5 519,-36.5 364,-36.5"/>
<text text-anchor="start" x="372" y="-54.5" font-family="Helvetica,sans-Serif" font-size="10.00">Photon.Realtime.LoadBalancing</text>
<text text-anchor="middle" x="441.5" y="-43.5" font-family="Helvetica,sans-Serif" font-size="10.00">Client.OpRejoinRoom</text>
</a>
</g>
</g>
<!-- Node1&#45;&gt;Node10 -->
<g id="edge9" class="edge">
<title>Node1&#45;&gt;Node10</title>
<path fill="none" stroke="midnightblue" d="M587.41,-111.47C566.69,-102.58 541.61,-91.91 519,-82.5 506.3,-77.22 492.36,-71.54 479.91,-66.5"/>
<polygon fill="midnightblue" stroke="midnightblue" points="586.03,-114.69 596.6,-115.42 588.8,-108.25 586.03,-114.69"/>
</g>
<!-- Node4 -->
<g id="node4" class="node">
<title>Node4</title>
<g id="a_node4"><a xlink:href="class_photon_1_1_pun_1_1_photon_network.xhtml#a1a8502c779302e9b39db304e4f533feb" target="_top" xlink:title="Joins a specific room by name and creates it on demand.">
<polygon fill="white" stroke="black" points="188,-140.5 188,-170.5 328,-170.5 328,-140.5 188,-140.5"/>
<text text-anchor="start" x="196" y="-158.5" font-family="Helvetica,sans-Serif" font-size="10.00">Photon.Pun.PhotonNetwork.</text>
<text text-anchor="middle" x="258" y="-147.5" font-family="Helvetica,sans-Serif" font-size="10.00">JoinOrCreateRoom</text>
</a>
</g>
</g>
<!-- Node3&#45;&gt;Node4 -->
<g id="edge3" class="edge">
<title>Node3&#45;&gt;Node4</title>
<path fill="none" stroke="midnightblue" d="M353.77,-155.5C345.2,-155.5 336.59,-155.5 328.23,-155.5"/>
<polygon fill="midnightblue" stroke="midnightblue" points="353.79,-159 363.79,-155.5 353.79,-152 353.79,-159"/>
</g>
<!-- Node6 -->
<g id="node6" class="node">
<title>Node6</title>
<g id="a_node6"><a xlink:href="class_photon_1_1_pun_1_1_photon_network.xhtml#ae4640a50e5a883807370aaa4a4d6102d" target="_top" xlink:title="Joins a room by name.">
<polygon fill="white" stroke="black" points="188,-91.5 188,-121.5 328,-121.5 328,-91.5 188,-91.5"/>
<text text-anchor="start" x="196" y="-109.5" font-family="Helvetica,sans-Serif" font-size="10.00">Photon.Pun.PhotonNetwork.</text>
<text text-anchor="middle" x="258" y="-98.5" font-family="Helvetica,sans-Serif" font-size="10.00">JoinRoom</text>
</a>
</g>
</g>
<!-- Node5&#45;&gt;Node6 -->
<g id="edge5" class="edge">
<title>Node5&#45;&gt;Node6</title>
<path fill="none" stroke="midnightblue" d="M353.77,-106.5C345.2,-106.5 336.59,-106.5 328.23,-106.5"/>
<polygon fill="midnightblue" stroke="midnightblue" points="353.79,-110 363.79,-106.5 353.79,-103 353.79,-110"/>
</g>
<!-- Node7 -->
<g id="node7" class="node">
<title>Node7</title>
<g id="a_node7"><a xlink:href="class_main_menu.xhtml#a677f2954b9aea6a374b84799a683537f" target="_top" xlink:title=" ">
<polygon fill="white" stroke="black" points="22.5,-148 22.5,-167 129.5,-167 129.5,-148 22.5,-148"/>
<text text-anchor="middle" x="76" y="-155" font-family="Helvetica,sans-Serif" font-size="10.00">MainMenu.JoinRoom</text>
</a>
</g>
</g>
<!-- Node6&#45;&gt;Node7 -->
<g id="edge6" class="edge">
<title>Node6&#45;&gt;Node7</title>
<path fill="none" stroke="midnightblue" d="M199.42,-124.59C184.06,-129.27 167.43,-134.2 152,-138.5 140.36,-141.75 127.63,-145.06 116.02,-147.99"/>
<polygon fill="midnightblue" stroke="midnightblue" points="200.78,-127.83 209.31,-121.56 198.73,-121.14 200.78,-127.83"/>
</g>
<!-- Node8 -->
<g id="node8" class="node">
<title>Node8</title>
<g id="a_node8"><a xlink:href="class_photon_1_1_pun_1_1_demo_1_1_cockpit_1_1_pun_cockpit.xhtml#ae9bd6f6fe9ea586ea81e0d8e6deaa126" target="_top" xlink:title=" ">
<polygon fill="white" stroke="black" points="8.5,-98.5 8.5,-128.5 143.5,-128.5 143.5,-98.5 8.5,-98.5"/>
<text text-anchor="start" x="16.5" y="-116.5" font-family="Helvetica,sans-Serif" font-size="10.00">Photon.Pun.Demo.Cockpit.</text>
<text text-anchor="middle" x="76" y="-105.5" font-family="Helvetica,sans-Serif" font-size="10.00">PunCockpit.JoinRoom</text>
</a>
</g>
</g>
<!-- Node6&#45;&gt;Node8 -->
<g id="edge7" class="edge">
<title>Node6&#45;&gt;Node8</title>
<path fill="none" stroke="midnightblue" d="M177.92,-109.58C166.44,-110.02 154.72,-110.48 143.52,-110.91"/>
<polygon fill="midnightblue" stroke="midnightblue" points="178.07,-113.07 187.92,-109.19 177.79,-106.08 178.07,-113.07"/>
</g>
<!-- Node9 -->
<g id="node9" class="node">
<title>Node9</title>
<g id="a_node9"><a xlink:href="class_photon_1_1_pun_1_1_demo_1_1_asteroids_1_1_room_list_entry.xhtml#a5c5fad3c1d62ed0ff0e293c5cfe28e0d" target="_top" xlink:title=" ">
<polygon fill="white" stroke="black" points="4.5,-49.5 4.5,-79.5 147.5,-79.5 147.5,-49.5 4.5,-49.5"/>
<text text-anchor="start" x="12.5" y="-67.5" font-family="Helvetica,sans-Serif" font-size="10.00">Photon.Pun.Demo.Asteroids.</text>
<text text-anchor="middle" x="76" y="-56.5" font-family="Helvetica,sans-Serif" font-size="10.00">RoomListEntry.Start</text>
</a>
</g>
</g>
<!-- Node6&#45;&gt;Node9 -->
<g id="edge8" class="edge">
<title>Node6&#45;&gt;Node9</title>
<path fill="none" stroke="midnightblue" d="M182.65,-89.15C168.93,-85.95 154.72,-82.63 141.33,-79.51"/>
<polygon fill="midnightblue" stroke="midnightblue" points="181.99,-92.59 192.52,-91.46 183.58,-85.77 181.99,-92.59"/>
</g>
<!-- Node11 -->
<g id="node11" class="node">
<title>Node11</title>
<g id="a_node11"><a xlink:href="class_photon_1_1_pun_1_1_photon_network.xhtml#af4b1a8a87b39134b946ae85128e9d5e1" target="_top" xlink:title="Rejoins a room by roomName (using the userID internally to return).">
<polygon fill="white" stroke="black" points="188,-24.5 188,-54.5 328,-54.5 328,-24.5 188,-24.5"/>
<text text-anchor="start" x="196" y="-42.5" font-family="Helvetica,sans-Serif" font-size="10.00">Photon.Pun.PhotonNetwork.</text>
<text text-anchor="middle" x="258" y="-31.5" font-family="Helvetica,sans-Serif" font-size="10.00">RejoinRoom</text>
</a>
</g>
</g>
<!-- Node10&#45;&gt;Node11 -->
<g id="edge10" class="edge">
<title>Node10&#45;&gt;Node11</title>
<path fill="none" stroke="midnightblue" d="M353.77,-45.77C345.2,-45.2 336.59,-44.63 328.23,-44.08"/>
<polygon fill="midnightblue" stroke="midnightblue" points="353.58,-49.26 363.79,-46.43 354.04,-42.28 353.58,-49.26"/>
</g>
<!-- Node12 -->
<g id="node12" class="node">
<title>Node12</title>
<g id="a_node12"><a xlink:href="class_photon_1_1_pun_1_1_demo_1_1_cockpit_1_1_pun_cockpit.xhtml#a4310525cd7bd0629f55c86abac93ab45" target="_top" xlink:title="Called when a previous OpJoinRoom call failed on the server.">
<polygon fill="white" stroke="black" points="0,-0.5 0,-30.5 152,-30.5 152,-0.5 0,-0.5"/>
<text text-anchor="start" x="8" y="-18.5" font-family="Helvetica,sans-Serif" font-size="10.00">Photon.Pun.Demo.Cockpit.</text>
<text text-anchor="middle" x="76" y="-7.5" font-family="Helvetica,sans-Serif" font-size="10.00">PunCockpit.OnJoinRoomFailed</text>
</a>
</g>
</g>
<!-- Node11&#45;&gt;Node12 -->
<g id="edge11" class="edge">
<title>Node11&#45;&gt;Node12</title>
<path fill="none" stroke="midnightblue" d="M177.95,-28.96C169.39,-27.82 160.69,-26.66 152.18,-25.52"/>
<polygon fill="midnightblue" stroke="midnightblue" points="177.55,-32.44 187.92,-30.29 178.47,-25.5 177.55,-32.44"/>
</g>
</g>
</svg>
        <g id="navigator" transform="translate(0 0)" fill="#404254">
                <rect fill="#f2f5e9" fill-opacity="0.5" stroke="#606060" stroke-width=".5" x="0" y="0" width="60" height="60"/>
                <use id="zoomplus" xlink:href="#zoomPlus" x="17" y="9" onmousedown="handleZoom(evt,'in')"/>
                <use id="zoomminus" xlink:href="#zoomMin" x="42" y="9" onmousedown="handleZoom(evt,'out')"/>
                <use id="reset" xlink:href="#resetDef" x="30" y="36" onmousedown="handleReset()"/>
                <g id="arrowUp" xlink:href="#dirArrow" transform="translate(30 24)" onmousedown="handlePan(0,-1)">
                  <use xlink:href="#rim" fill="#404040">
                        <set attributeName="fill" to="#808080" begin="arrowUp.mouseover" end="arrowUp.mouseout"/>
                  </use>
                  <path fill="none" stroke="white" stroke-width="1.5" d="M0,-3.0v7 M-2.5,-0.5L0,-3.0L2.5,-0.5"/>
                </g>
                <g id="arrowRight" xlink:href="#dirArrow" transform="rotate(90) translate(36 -43)" onmousedown="handlePan(1,0)">
                  <use xlink:href="#rim" fill="#404040">
                        <set attributeName="fill" to="#808080" begin="arrowRight.mouseover" end="arrowRight.mouseout"/>
                  </use>
                  <path fill="none" stroke="white" stroke-width="1.5" d="M0,-3.0v7 M-2.5,-0.5L0,-3.0L2.5,-0.5"/>
                </g>
                <g id="arrowDown" xlink:href="#dirArrow" transform="rotate(180) translate(-30 -48)" onmousedown="handlePan(0,1)">
                  <use xlink:href="#rim" fill="#404040">
                        <set attributeName="fill" to="#808080" begin="arrowDown.mouseover" end="arrowDown.mouseout"/>
                  </use>
                  <path fill="none" stroke="white" stroke-width="1.5" d="M0,-3.0v7 M-2.5,-0.5L0,-3.0L2.5,-0.5"/>
                </g>
                <g id="arrowLeft" xlink:href="#dirArrow" transform="rotate(270) translate(-36 17)" onmousedown="handlePan(-1,0)">
                  <use xlink:href="#rim" fill="#404040">
                        <set attributeName="fill" to="#808080" begin="arrowLeft.mouseover" end="arrowLeft.mouseout"/>
                  </use>
                  <path fill="none" stroke="white" stroke-width="1.5" d="M0,-3.0v7 M-2.5,-0.5L0,-3.0L2.5,-0.5"/>
                </g>
        </g>
        <svg viewBox="0 0 15 15" width="100%" height="30px" preserveAspectRatio="xMaxYMin meet">
         <g id="arrow_out" transform="scale(0.3 0.3)">
          <a xlink:href="class_photon_1_1_realtime_1_1_load_balancing_peer_a1dc6be1075f64edd0b746f2e61c114f5_icgraph_org.svg" target="_base">
           <rect id="button" ry="5" rx="5" y="6" x="6" height="38" width="38"
                fill="#f2f5e9" fill-opacity="0.5" stroke="#606060" stroke-width="1.0"/>
           <path id="arrow"
             d="M 11.500037,31.436501 C 11.940474,20.09759 22.043105,11.32322 32.158766,21.979434 L 37.068811,17.246167 C 37.068811,17.246167 37.088388,32 37.088388,32 L 22.160133,31.978069 C 22.160133,31.978069 26.997745,27.140456 26.997745,27.140456 C 18.528582,18.264221 13.291696,25.230495 11.500037,31.436501 z"
             style="fill:#404040;"/>
          </a>
         </g>
        </svg>
</svg>
