<?xml version="1.0" encoding="UTF-8" standalone="no"?>
<!DOCTYPE svg PUBLIC "-//W3C//DTD SVG 1.1//EN"
 "http://www.w3.org/Graphics/SVG/1.1/DTD/svg11.dtd">
<!-- Generated by graphviz version 2.47.3 (20210619.1520)
 -->
<!-- Title: Photon.Pun.PhotonGUI.DoContainerHeaderToggle Pages: 1 -->
<!--zoomable 203 -->
<svg id="main" version="1.1" xmlns="http://www.w3.org/2000/svg" xmlns:xlink="http://www.w3.org/1999/xlink" xml:space="preserve" onload="init(evt)">
<style type="text/css"><![CDATA[
.edge:hover path { stroke: red; }
.edge:hover polygon { stroke: red; fill: red; }
]]></style>
<script type="text/javascript"><![CDATA[
var edges = document.getElementsByTagName('g');
if (edges && edges.length) {
  for (var i=0;i<edges.length;i++) {
    if (edges[i].id.substr(0,4)=='edge') {
      edges[i].setAttribute('class','edge');
    }
  }
}
]]></script>
        <defs>
                <circle id="rim" cx="0" cy="0" r="7"/>
                <circle id="rim2" cx="0" cy="0" r="3.5"/>
                <g id="zoomPlus">
                        <use xlink:href="#rim" fill="#404040">
                                <set attributeName="fill" to="#808080" begin="zoomplus.mouseover" end="zoomplus.mouseout"/>
                        </use>
                        <path d="M-4,0h8M0,-4v8" fill="none" stroke="white" stroke-width="1.5" pointer-events="none"/>
                </g>
                <g id="zoomMin">
                        <use xlink:href="#rim" fill="#404040">
                                <set attributeName="fill" to="#808080" begin="zoomminus.mouseover" end="zoomminus.mouseout"/>
                        </use>
                        <path d="M-4,0h8" fill="none" stroke="white" stroke-width="1.5" pointer-events="none"/>
                </g>
                <g id="dirArrow">
                        <path fill="none" stroke="white" stroke-width="1.5" d="M0,-3.0v7 M-2.5,-0.5L0,-3.0L2.5,-0.5"/>
                </g>
               <g id="resetDef">
                       <use xlink:href="#rim2" fill="#404040">
                               <set attributeName="fill" to="#808080" begin="reset.mouseover" end="reset.mouseout"/>
                       </use>
               </g>
        </defs>

<script type="text/javascript">
var viewWidth = 980;
var viewHeight = 203;
var sectionId = 'dynsection-13';
</script>
<script xlink:href="svgpan.js"/>
<svg id="graph" class="graph">
<g id="viewport">
<title>Photon.Pun.PhotonGUI.DoContainerHeaderToggle</title>
<polygon fill="white" stroke="transparent" points="-4,4 -4,-198.5 976,-198.5 976,4 -4,4"/>
<!-- Node1 -->
<g id="node1" class="node">
<title>Node1</title>
<g id="a_node1"><a xlink:title=" ">
<polygon fill="#bfbfbf" stroke="black" points="798,-49.5 798,-79.5 972,-79.5 972,-49.5 798,-49.5"/>
<text text-anchor="start" x="806" y="-67.5" font-family="Helvetica,sans-Serif" font-size="10.00">Photon.Pun.PhotonGUI.DoContainer</text>
<text text-anchor="middle" x="885" y="-56.5" font-family="Helvetica,sans-Serif" font-size="10.00">HeaderToggle</text>
</a>
</g>
</g>
<!-- Node2 -->
<g id="node2" class="node">
<title>Node2</title>
<g id="a_node2"><a xlink:href="class_photon_1_1_pun_1_1_photon_g_u_i.xhtml#a64c80b6cd15d48eff215c4c161f016b5" target="_top" xlink:title=" ">
<polygon fill="white" stroke="black" points="600,-49.5 600,-79.5 762,-79.5 762,-49.5 600,-49.5"/>
<text text-anchor="start" x="608" y="-67.5" font-family="Helvetica,sans-Serif" font-size="10.00">Photon.Pun.PhotonGUI.Container</text>
<text text-anchor="middle" x="681" y="-56.5" font-family="Helvetica,sans-Serif" font-size="10.00">HeaderToggle</text>
</a>
</g>
</g>
<!-- Node1&#45;&gt;Node2 -->
<g id="edge1" class="edge">
<title>Node1&#45;&gt;Node2</title>
<path fill="none" stroke="midnightblue" d="M787.75,-64.5C779.19,-64.5 770.6,-64.5 762.2,-64.5"/>
<polygon fill="midnightblue" stroke="midnightblue" points="787.75,-68 797.75,-64.5 787.75,-61 787.75,-68"/>
</g>
<!-- Node3 -->
<g id="node3" class="node">
<title>Node3</title>
<g id="a_node3"><a xlink:href="class_photon_1_1_pun_1_1_photon_transform_view_classic_editor.xhtml#a704efe9512b500b280f591a572972dc6" target="_top" xlink:title=" ">
<polygon fill="white" stroke="black" points="413,-98.5 413,-128.5 564,-128.5 564,-98.5 413,-98.5"/>
<text text-anchor="start" x="421" y="-116.5" font-family="Helvetica,sans-Serif" font-size="10.00">Photon.Pun.PhotonTransform</text>
<text text-anchor="middle" x="488.5" y="-105.5" font-family="Helvetica,sans-Serif" font-size="10.00">ViewClassicEditor.DrawHeader</text>
</a>
</g>
</g>
<!-- Node2&#45;&gt;Node3 -->
<g id="edge2" class="edge">
<title>Node2&#45;&gt;Node3</title>
<path fill="none" stroke="midnightblue" d="M611.77,-82.05C590.85,-87.43 568.04,-93.3 547.84,-98.49"/>
<polygon fill="midnightblue" stroke="midnightblue" points="612.74,-85.42 621.55,-79.53 610.99,-78.64 612.74,-85.42"/>
</g>
<!-- Node8 -->
<g id="node8" class="node">
<title>Node8</title>
<g id="a_node8"><a xlink:href="class_photon_1_1_pun_1_1_photon_rigidbody2_d_view_editor.xhtml#a4783947892755227f7d432438066c6e6" target="_top" xlink:title=" ">
<polygon fill="white" stroke="black" points="414,-49.5 414,-79.5 563,-79.5 563,-49.5 414,-49.5"/>
<text text-anchor="start" x="422" y="-67.5" font-family="Helvetica,sans-Serif" font-size="10.00">Photon.Pun.PhotonRigidbody2</text>
<text text-anchor="middle" x="488.5" y="-56.5" font-family="Helvetica,sans-Serif" font-size="10.00">DViewEditor.OnInspectorGUI</text>
</a>
</g>
</g>
<!-- Node2&#45;&gt;Node8 -->
<g id="edge9" class="edge">
<title>Node2&#45;&gt;Node8</title>
<path fill="none" stroke="midnightblue" d="M589.49,-64.5C580.71,-64.5 571.87,-64.5 563.27,-64.5"/>
<polygon fill="midnightblue" stroke="midnightblue" points="589.76,-68 599.76,-64.5 589.76,-61 589.76,-68"/>
</g>
<!-- Node9 -->
<g id="node9" class="node">
<title>Node9</title>
<g id="a_node9"><a xlink:href="class_photon_1_1_pun_1_1_photon_rigidbody_view_editor.xhtml#a3915f110d372990778510dd1bfbfed11" target="_top" xlink:title=" ">
<polygon fill="white" stroke="black" points="416.5,-0.5 416.5,-30.5 560.5,-30.5 560.5,-0.5 416.5,-0.5"/>
<text text-anchor="start" x="424.5" y="-18.5" font-family="Helvetica,sans-Serif" font-size="10.00">Photon.Pun.PhotonRigidbody</text>
<text text-anchor="middle" x="488.5" y="-7.5" font-family="Helvetica,sans-Serif" font-size="10.00">ViewEditor.OnInspectorGUI</text>
</a>
</g>
</g>
<!-- Node2&#45;&gt;Node9 -->
<g id="edge10" class="edge">
<title>Node2&#45;&gt;Node9</title>
<path fill="none" stroke="midnightblue" d="M611.77,-46.95C590.85,-41.57 568.04,-35.7 547.84,-30.51"/>
<polygon fill="midnightblue" stroke="midnightblue" points="610.99,-50.36 621.55,-49.47 612.74,-43.58 610.99,-50.36"/>
</g>
<!-- Node4 -->
<g id="node4" class="node">
<title>Node4</title>
<g id="a_node4"><a xlink:href="class_photon_1_1_pun_1_1_photon_transform_view_classic_editor.xhtml#a8f7a92910950ff01ae11866fe3359992" target="_top" xlink:title=" ">
<polygon fill="white" stroke="black" points="203,-153 203,-194 377,-194 377,-153 203,-153"/>
<text text-anchor="start" x="211" y="-182" font-family="Helvetica,sans-Serif" font-size="10.00">Photon.Pun.PhotonTransform</text>
<text text-anchor="start" x="211" y="-171" font-family="Helvetica,sans-Serif" font-size="10.00">ViewClassicEditor.DrawSynchronize</text>
<text text-anchor="middle" x="290" y="-160" font-family="Helvetica,sans-Serif" font-size="10.00">PositionHeader</text>
</a>
</g>
</g>
<!-- Node3&#45;&gt;Node4 -->
<g id="edge3" class="edge">
<title>Node3&#45;&gt;Node4</title>
<path fill="none" stroke="midnightblue" d="M428.56,-131.5C406.39,-138.27 381.03,-146.01 358.17,-152.99"/>
<polygon fill="midnightblue" stroke="midnightblue" points="429.63,-134.83 438.17,-128.56 427.58,-128.14 429.63,-134.83"/>
</g>
<!-- Node6 -->
<g id="node6" class="node">
<title>Node6</title>
<g id="a_node6"><a xlink:href="class_photon_1_1_pun_1_1_photon_transform_view_classic_editor.xhtml#a1158e6dddbe06391b47e081cc96fa655" target="_top" xlink:title=" ">
<polygon fill="white" stroke="black" points="203,-93 203,-134 377,-134 377,-93 203,-93"/>
<text text-anchor="start" x="211" y="-122" font-family="Helvetica,sans-Serif" font-size="10.00">Photon.Pun.PhotonTransform</text>
<text text-anchor="start" x="211" y="-111" font-family="Helvetica,sans-Serif" font-size="10.00">ViewClassicEditor.DrawSynchronize</text>
<text text-anchor="middle" x="290" y="-100" font-family="Helvetica,sans-Serif" font-size="10.00">RotationHeader</text>
</a>
</g>
</g>
<!-- Node3&#45;&gt;Node6 -->
<g id="edge5" class="edge">
<title>Node3&#45;&gt;Node6</title>
<path fill="none" stroke="midnightblue" d="M402.66,-113.5C394.17,-113.5 385.54,-113.5 377.04,-113.5"/>
<polygon fill="midnightblue" stroke="midnightblue" points="402.93,-117 412.93,-113.5 402.93,-110 402.93,-117"/>
</g>
<!-- Node7 -->
<g id="node7" class="node">
<title>Node7</title>
<g id="a_node7"><a xlink:href="class_photon_1_1_pun_1_1_photon_transform_view_classic_editor.xhtml#a75382b01b9f629b4db44645f212a78e9" target="_top" xlink:title=" ">
<polygon fill="white" stroke="black" points="203,-33 203,-74 377,-74 377,-33 203,-33"/>
<text text-anchor="start" x="211" y="-62" font-family="Helvetica,sans-Serif" font-size="10.00">Photon.Pun.PhotonTransform</text>
<text text-anchor="start" x="211" y="-51" font-family="Helvetica,sans-Serif" font-size="10.00">ViewClassicEditor.DrawSynchronize</text>
<text text-anchor="middle" x="290" y="-40" font-family="Helvetica,sans-Serif" font-size="10.00">ScaleHeader</text>
</a>
</g>
</g>
<!-- Node3&#45;&gt;Node7 -->
<g id="edge7" class="edge">
<title>Node3&#45;&gt;Node7</title>
<path fill="none" stroke="midnightblue" d="M428.56,-95.5C406.39,-88.73 381.03,-80.99 358.17,-74.01"/>
<polygon fill="midnightblue" stroke="midnightblue" points="427.58,-98.86 438.17,-98.44 429.63,-92.17 427.58,-98.86"/>
</g>
<!-- Node5 -->
<g id="node5" class="node">
<title>Node5</title>
<g id="a_node5"><a xlink:href="class_photon_1_1_pun_1_1_photon_transform_view_classic_editor.xhtml#a3c39c395b6e04811cb3a897cf02a5923" target="_top" xlink:title=" ">
<polygon fill="white" stroke="black" points="0,-98.5 0,-128.5 167,-128.5 167,-98.5 0,-98.5"/>
<text text-anchor="start" x="8" y="-116.5" font-family="Helvetica,sans-Serif" font-size="10.00">Photon.Pun.PhotonTransform</text>
<text text-anchor="middle" x="83.5" y="-105.5" font-family="Helvetica,sans-Serif" font-size="10.00">ViewClassicEditor.OnInspectorGUI</text>
</a>
</g>
</g>
<!-- Node4&#45;&gt;Node5 -->
<g id="edge4" class="edge">
<title>Node4&#45;&gt;Node5</title>
<path fill="none" stroke="midnightblue" d="M209.19,-150.08C184.51,-142.84 157.99,-135.06 135.78,-128.54"/>
<polygon fill="midnightblue" stroke="midnightblue" points="208.33,-153.48 218.91,-152.94 210.3,-146.76 208.33,-153.48"/>
</g>
<!-- Node6&#45;&gt;Node5 -->
<g id="edge6" class="edge">
<title>Node6&#45;&gt;Node5</title>
<path fill="none" stroke="midnightblue" d="M192.86,-113.5C184.31,-113.5 175.7,-113.5 167.27,-113.5"/>
<polygon fill="midnightblue" stroke="midnightblue" points="192.87,-117 202.87,-113.5 192.87,-110 192.87,-117"/>
</g>
<!-- Node7&#45;&gt;Node5 -->
<g id="edge8" class="edge">
<title>Node7&#45;&gt;Node5</title>
<path fill="none" stroke="midnightblue" d="M209.19,-76.92C184.51,-84.16 157.99,-91.94 135.78,-98.46"/>
<polygon fill="midnightblue" stroke="midnightblue" points="210.3,-80.24 218.91,-74.06 208.33,-73.52 210.3,-80.24"/>
</g>
</g>
</svg>
        <g id="navigator" transform="translate(0 0)" fill="#404254">
                <rect fill="#f2f5e9" fill-opacity="0.5" stroke="#606060" stroke-width=".5" x="0" y="0" width="60" height="60"/>
                <use id="zoomplus" xlink:href="#zoomPlus" x="17" y="9" onmousedown="handleZoom(evt,'in')"/>
                <use id="zoomminus" xlink:href="#zoomMin" x="42" y="9" onmousedown="handleZoom(evt,'out')"/>
                <use id="reset" xlink:href="#resetDef" x="30" y="36" onmousedown="handleReset()"/>
                <g id="arrowUp" xlink:href="#dirArrow" transform="translate(30 24)" onmousedown="handlePan(0,-1)">
                  <use xlink:href="#rim" fill="#404040">
                        <set attributeName="fill" to="#808080" begin="arrowUp.mouseover" end="arrowUp.mouseout"/>
                  </use>
                  <path fill="none" stroke="white" stroke-width="1.5" d="M0,-3.0v7 M-2.5,-0.5L0,-3.0L2.5,-0.5"/>
                </g>
                <g id="arrowRight" xlink:href="#dirArrow" transform="rotate(90) translate(36 -43)" onmousedown="handlePan(1,0)">
                  <use xlink:href="#rim" fill="#404040">
                        <set attributeName="fill" to="#808080" begin="arrowRight.mouseover" end="arrowRight.mouseout"/>
                  </use>
                  <path fill="none" stroke="white" stroke-width="1.5" d="M0,-3.0v7 M-2.5,-0.5L0,-3.0L2.5,-0.5"/>
                </g>
                <g id="arrowDown" xlink:href="#dirArrow" transform="rotate(180) translate(-30 -48)" onmousedown="handlePan(0,1)">
                  <use xlink:href="#rim" fill="#404040">
                        <set attributeName="fill" to="#808080" begin="arrowDown.mouseover" end="arrowDown.mouseout"/>
                  </use>
                  <path fill="none" stroke="white" stroke-width="1.5" d="M0,-3.0v7 M-2.5,-0.5L0,-3.0L2.5,-0.5"/>
                </g>
                <g id="arrowLeft" xlink:href="#dirArrow" transform="rotate(270) translate(-36 17)" onmousedown="handlePan(-1,0)">
                  <use xlink:href="#rim" fill="#404040">
                        <set attributeName="fill" to="#808080" begin="arrowLeft.mouseover" end="arrowLeft.mouseout"/>
                  </use>
                  <path fill="none" stroke="white" stroke-width="1.5" d="M0,-3.0v7 M-2.5,-0.5L0,-3.0L2.5,-0.5"/>
                </g>
        </g>
        <svg viewBox="0 0 15 15" width="100%" height="30px" preserveAspectRatio="xMaxYMin meet">
         <g id="arrow_out" transform="scale(0.3 0.3)">
          <a xlink:href="class_photon_1_1_pun_1_1_photon_g_u_i_a633f7e1ae78cda5f5be8ea59937a087a_icgraph_org.svg" target="_base">
           <rect id="button" ry="5" rx="5" y="6" x="6" height="38" width="38"
                fill="#f2f5e9" fill-opacity="0.5" stroke="#606060" stroke-width="1.0"/>
           <path id="arrow"
             d="M 11.500037,31.436501 C 11.940474,20.09759 22.043105,11.32322 32.158766,21.979434 L 37.068811,17.246167 C 37.068811,17.246167 37.088388,32 37.088388,32 L 22.160133,31.978069 C 22.160133,31.978069 26.997745,27.140456 26.997745,27.140456 C 18.528582,18.264221 13.291696,25.230495 11.500037,31.436501 z"
             style="fill:#404040;"/>
          </a>
         </g>
        </svg>
</svg>
