<?xml version="1.0" encoding="UTF-8" standalone="no"?>
<!DOCTYPE svg PUBLIC "-//W3C//DTD SVG 1.1//EN"
 "http://www.w3.org/Graphics/SVG/1.1/DTD/svg11.dtd">
<!-- Generated by graphviz version 2.49.1 (20210923.0004)
 -->
<!-- Title: Discord.ActivityManager.ActivityManager Pages: 1 -->
<svg width="462pt" height="186pt"
 viewBox="0.00 0.00 462.00 186.00" xmlns="http://www.w3.org/2000/svg" xmlns:xlink="http://www.w3.org/1999/xlink">
<g id="graph0" class="graph" transform="scale(1 1) rotate(0) translate(4 182)">
<title>Discord.ActivityManager.ActivityManager</title>
<polygon fill="white" stroke="transparent" points="-4,4 -4,-182 458,-182 458,4 -4,4"/>
<!-- Node1 -->
<g id="node1" class="node">
<title>Node1</title>
<g id="a_node1"><a xlink:title=" ">
<polygon fill="#bfbfbf" stroke="black" points="0,-73.5 0,-103.5 125,-103.5 125,-73.5 0,-73.5"/>
<text text-anchor="start" x="8" y="-91.5" font-family="Helvetica,sans-Serif" font-size="10.00">Discord.ActivityManager.</text>
<text text-anchor="middle" x="62.5" y="-80.5" font-family="Helvetica,sans-Serif" font-size="10.00">ActivityManager</text>
</a>
</g>
</g>
<!-- Node2 -->
<g id="node2" class="node">
<title>Node2</title>
<g id="a_node2"><a xlink:href="class_discord_1_1_activity_manager.html#a29595cc68f656daa1a73157d72e31e99" target="_top" xlink:title=" ">
<polygon fill="white" stroke="black" points="161,-73.5 161,-103.5 286,-103.5 286,-73.5 161,-73.5"/>
<text text-anchor="start" x="169" y="-91.5" font-family="Helvetica,sans-Serif" font-size="10.00">Discord.ActivityManager.</text>
<text text-anchor="middle" x="223.5" y="-80.5" font-family="Helvetica,sans-Serif" font-size="10.00">InitEvents</text>
</a>
</g>
</g>
<!-- Node1&#45;&gt;Node2 -->
<g id="edge1" class="edge">
<title>Node1&#45;&gt;Node2</title>
<path fill="none" stroke="midnightblue" d="M125.43,-88.5C133.67,-88.5 142.18,-88.5 150.58,-88.5"/>
<polygon fill="midnightblue" stroke="midnightblue" points="150.74,-92 160.74,-88.5 150.74,-85 150.74,-92"/>
</g>
<!-- Node3 -->
<g id="node3" class="node">
<title>Node3</title>
<g id="a_node3"><a xlink:href="class_discord_1_1_activity_manager.html#a61bb3bc0de37c3fce0a398f0e2317ec3" target="_top" xlink:title=" ">
<polygon fill="white" stroke="black" points="325.5,-147.5 325.5,-177.5 450.5,-177.5 450.5,-147.5 325.5,-147.5"/>
<text text-anchor="start" x="333.5" y="-165.5" font-family="Helvetica,sans-Serif" font-size="10.00">Discord.ActivityManager.</text>
<text text-anchor="middle" x="388" y="-154.5" font-family="Helvetica,sans-Serif" font-size="10.00">OnActivityInviteImpl</text>
</a>
</g>
</g>
<!-- Node2&#45;&gt;Node3 -->
<g id="edge2" class="edge">
<title>Node2&#45;&gt;Node3</title>
<path fill="none" stroke="midnightblue" d="M251.81,-103.62C271.13,-114.04 297.79,-127.87 322,-138.5 326.08,-140.29 330.33,-142.06 334.63,-143.79"/>
<polygon fill="midnightblue" stroke="midnightblue" points="333.46,-147.09 344.05,-147.47 336.01,-140.57 333.46,-147.09"/>
</g>
<!-- Node4 -->
<g id="node4" class="node">
<title>Node4</title>
<g id="a_node4"><a xlink:href="class_discord_1_1_activity_manager.html#a5e658be4827f42f9785099f61a39ad7b" target="_top" xlink:title=" ">
<polygon fill="white" stroke="black" points="325.5,-98.5 325.5,-128.5 450.5,-128.5 450.5,-98.5 325.5,-98.5"/>
<text text-anchor="start" x="333.5" y="-116.5" font-family="Helvetica,sans-Serif" font-size="10.00">Discord.ActivityManager.</text>
<text text-anchor="middle" x="388" y="-105.5" font-family="Helvetica,sans-Serif" font-size="10.00">OnActivityJoinImpl</text>
</a>
</g>
</g>
<!-- Node2&#45;&gt;Node4 -->
<g id="edge3" class="edge">
<title>Node2&#45;&gt;Node4</title>
<path fill="none" stroke="midnightblue" d="M286.4,-98.02C295.85,-99.48 305.67,-100.99 315.32,-102.47"/>
<polygon fill="midnightblue" stroke="midnightblue" points="314.86,-105.94 325.27,-104 315.92,-99.02 314.86,-105.94"/>
</g>
<!-- Node5 -->
<g id="node5" class="node">
<title>Node5</title>
<g id="a_node5"><a xlink:href="class_discord_1_1_activity_manager.html#a228d33eb973fb5d6ff789814bf262bb6" target="_top" xlink:title=" ">
<polygon fill="white" stroke="black" points="322,-49.5 322,-79.5 454,-79.5 454,-49.5 322,-49.5"/>
<text text-anchor="start" x="330" y="-67.5" font-family="Helvetica,sans-Serif" font-size="10.00">Discord.ActivityManager.</text>
<text text-anchor="middle" x="388" y="-56.5" font-family="Helvetica,sans-Serif" font-size="10.00">OnActivityJoinRequestImpl</text>
</a>
</g>
</g>
<!-- Node2&#45;&gt;Node5 -->
<g id="edge4" class="edge">
<title>Node2&#45;&gt;Node5</title>
<path fill="none" stroke="midnightblue" d="M286.4,-79.36C294.71,-78.13 303.32,-76.86 311.83,-75.6"/>
<polygon fill="midnightblue" stroke="midnightblue" points="312.38,-79.06 321.76,-74.14 311.36,-72.13 312.38,-79.06"/>
</g>
<!-- Node6 -->
<g id="node6" class="node">
<title>Node6</title>
<g id="a_node6"><a xlink:href="class_discord_1_1_activity_manager.html#a98cbf134ff173805ddb30e022a49fcff" target="_top" xlink:title=" ">
<polygon fill="white" stroke="black" points="325.5,-0.5 325.5,-30.5 450.5,-30.5 450.5,-0.5 325.5,-0.5"/>
<text text-anchor="start" x="333.5" y="-18.5" font-family="Helvetica,sans-Serif" font-size="10.00">Discord.ActivityManager.</text>
<text text-anchor="middle" x="388" y="-7.5" font-family="Helvetica,sans-Serif" font-size="10.00">OnActivitySpectateImpl</text>
</a>
</g>
</g>
<!-- Node2&#45;&gt;Node6 -->
<g id="edge5" class="edge">
<title>Node2&#45;&gt;Node6</title>
<path fill="none" stroke="midnightblue" d="M253.61,-73.31C272.83,-63.5 298.66,-50.71 322,-40.5 326.73,-38.43 331.68,-36.36 336.66,-34.34"/>
<polygon fill="midnightblue" stroke="midnightblue" points="338.21,-37.49 346.2,-30.54 335.62,-30.99 338.21,-37.49"/>
</g>
</g>
</svg>
