<?xml version="1.0" encoding="UTF-8" standalone="no"?>
<!DOCTYPE svg PUBLIC "-//W3C//DTD SVG 1.1//EN"
 "http://www.w3.org/Graphics/SVG/1.1/DTD/svg11.dtd">
<!-- Generated by graphviz version 2.47.3 (20210619.1520)
 -->
<!-- Title: Photon.Pun.Demo.Cockpit.Forms.SetRoomCustomPropertyUIForm Pages: 1 -->
<svg width="616pt" height="88pt"
 viewBox="0.00 0.00 616.00 88.00" xmlns="http://www.w3.org/2000/svg" xmlns:xlink="http://www.w3.org/1999/xlink">
<g id="graph0" class="graph" transform="scale(1 1) rotate(0) translate(4 84)">
<title>Photon.Pun.Demo.Cockpit.Forms.SetRoomCustomPropertyUIForm</title>
<polygon fill="white" stroke="transparent" points="-4,4 -4,-84 612,-84 612,4 -4,4"/>
<!-- Node1 -->
<g id="node1" class="node">
<title>Node1</title>
<g id="a_node1"><a xlink:title="Room custom properties UI Form.">
<polygon fill="#bfbfbf" stroke="black" points="418,-31 418,-61 608,-61 608,-31 418,-31"/>
<text text-anchor="start" x="426" y="-49" font-family="Helvetica,sans-Serif" font-size="10.00">Photon.Pun.Demo.Cockpit.</text>
<text text-anchor="middle" x="513" y="-38" font-family="Helvetica,sans-Serif" font-size="10.00">Forms.SetRoomCustomPropertyUIForm</text>
</a>
</g>
</g>
<!-- Node2 -->
<g id="node2" class="node">
<title>Node2</title>
<g id="a_node2"><a xlink:title=" ">
<polygon fill="white" stroke="#bfbfbf" points="197,-60.5 197,-79.5 280,-79.5 280,-60.5 197,-60.5"/>
<text text-anchor="middle" x="238.5" y="-67.5" font-family="Helvetica,sans-Serif" font-size="10.00">MonoBehaviour</text>
</a>
</g>
</g>
<!-- Node2&#45;&gt;Node1 -->
<g id="edge1" class="edge">
<title>Node2&#45;&gt;Node1</title>
<path fill="none" stroke="midnightblue" d="M290.2,-65.53C325.99,-62.38 375.02,-58.06 417.87,-54.29"/>
<polygon fill="midnightblue" stroke="midnightblue" points="289.66,-62.07 280,-66.43 290.27,-69.04 289.66,-62.07"/>
</g>
<!-- Node3 -->
<g id="node3" class="node">
<title>Node3</title>
<g id="a_node3"><a xlink:href="class_photon_1_1_pun_1_1_demo_1_1_cockpit_1_1_forms_1_1_set_room_custom_property_u_i_form_1_1_on_submit_event.xhtml" target="_top" xlink:title=" ">
<polygon fill="white" stroke="black" points="142,-0.5 142,-41.5 335,-41.5 335,-0.5 142,-0.5"/>
<text text-anchor="start" x="150" y="-29.5" font-family="Helvetica,sans-Serif" font-size="10.00">Photon.Pun.Demo.Cockpit.</text>
<text text-anchor="start" x="150" y="-18.5" font-family="Helvetica,sans-Serif" font-size="10.00">Forms.SetRoomCustomPropertyUIForm.</text>
<text text-anchor="middle" x="238.5" y="-7.5" font-family="Helvetica,sans-Serif" font-size="10.00">OnSubmitEvent</text>
</a>
</g>
</g>
<!-- Node3&#45;&gt;Node1 -->
<g id="edge2" class="edge">
<title>Node3&#45;&gt;Node1</title>
<path fill="none" stroke="#9a32cd" stroke-dasharray="5,2" d="M345.35,-30.71C369.28,-32.91 394.52,-35.22 417.92,-37.37"/>
<polygon fill="#9a32cd" stroke="#9a32cd" points="345.47,-27.21 335.19,-29.78 344.83,-34.18 345.47,-27.21"/>
<text text-anchor="middle" x="376.5" y="-37" font-family="Helvetica,sans-Serif" font-size="10.00"> OnSubmit</text>
</g>
<!-- Node4 -->
<g id="node4" class="node">
<title>Node4</title>
<g id="a_node4"><a xlink:title=" ">
<polygon fill="white" stroke="#bfbfbf" points="0,-11.5 0,-30.5 105,-30.5 105,-11.5 0,-11.5"/>
<text text-anchor="middle" x="52.5" y="-18.5" font-family="Helvetica,sans-Serif" font-size="10.00">UnityEvent&lt; string &gt;</text>
</a>
</g>
</g>
<!-- Node4&#45;&gt;Node3 -->
<g id="edge3" class="edge">
<title>Node4&#45;&gt;Node3</title>
<path fill="none" stroke="midnightblue" d="M115.44,-21C123.97,-21 132.89,-21 141.86,-21"/>
<polygon fill="midnightblue" stroke="midnightblue" points="115.24,-17.5 105.24,-21 115.24,-24.5 115.24,-17.5"/>
</g>
</g>
</svg>
