<?xml version="1.0" encoding="UTF-8" standalone="no"?>
<!DOCTYPE svg PUBLIC "-//W3C//DTD SVG 1.1//EN"
 "http://www.w3.org/Graphics/SVG/1.1/DTD/svg11.dtd">
<!-- Generated by graphviz version 2.49.1 (20210923.0004)
 -->
<!-- Title: Discord.AchievementManager.OnUserAchievementUpdateImpl Pages: 1 -->
<svg width="532pt" height="39pt"
 viewBox="0.00 0.00 532.00 39.00" xmlns="http://www.w3.org/2000/svg" xmlns:xlink="http://www.w3.org/1999/xlink">
<g id="graph0" class="graph" transform="scale(1 1) rotate(0) translate(4 35)">
<title>Discord.AchievementManager.OnUserAchievementUpdateImpl</title>
<polygon fill="white" stroke="transparent" points="-4,4 -4,-35 528,-35 528,4 -4,4"/>
<!-- Node1 -->
<g id="node1" class="node">
<title>Node1</title>
<g id="a_node1"><a xlink:title=" ">
<polygon fill="#bfbfbf" stroke="black" points="370,-0.5 370,-30.5 524,-30.5 524,-0.5 370,-0.5"/>
<text text-anchor="start" x="378" y="-18.5" font-family="Helvetica,sans-Serif" font-size="10.00">Discord.AchievementManager.</text>
<text text-anchor="middle" x="447" y="-7.5" font-family="Helvetica,sans-Serif" font-size="10.00">OnUserAchievementUpdateImpl</text>
</a>
</g>
</g>
<!-- Node2 -->
<g id="node2" class="node">
<title>Node2</title>
<g id="a_node2"><a xlink:href="class_discord_1_1_achievement_manager.html#a4f32ec576a202586e5fe1fb3b0514580" target="_top" xlink:title=" ">
<polygon fill="white" stroke="black" points="185,-0.5 185,-30.5 334,-30.5 334,-0.5 185,-0.5"/>
<text text-anchor="start" x="193" y="-18.5" font-family="Helvetica,sans-Serif" font-size="10.00">Discord.AchievementManager.</text>
<text text-anchor="middle" x="259.5" y="-7.5" font-family="Helvetica,sans-Serif" font-size="10.00">InitEvents</text>
</a>
</g>
</g>
<!-- Node1&#45;&gt;Node2 -->
<g id="edge1" class="edge">
<title>Node1&#45;&gt;Node2</title>
<path fill="none" stroke="midnightblue" d="M359.73,-15.5C351.15,-15.5 342.5,-15.5 334.07,-15.5"/>
<polygon fill="midnightblue" stroke="midnightblue" points="359.75,-19 369.75,-15.5 359.75,-12 359.75,-19"/>
</g>
<!-- Node3 -->
<g id="node3" class="node">
<title>Node3</title>
<g id="a_node3"><a xlink:href="class_discord_1_1_achievement_manager.html#aa69eaf39ac55a00e9f91a980a0a0cc6a" target="_top" xlink:title=" ">
<polygon fill="white" stroke="black" points="0,-0.5 0,-30.5 149,-30.5 149,-0.5 0,-0.5"/>
<text text-anchor="start" x="8" y="-18.5" font-family="Helvetica,sans-Serif" font-size="10.00">Discord.AchievementManager.</text>
<text text-anchor="middle" x="74.5" y="-7.5" font-family="Helvetica,sans-Serif" font-size="10.00">AchievementManager</text>
</a>
</g>
</g>
<!-- Node2&#45;&gt;Node3 -->
<g id="edge2" class="edge">
<title>Node2&#45;&gt;Node3</title>
<path fill="none" stroke="midnightblue" d="M174.61,-15.5C166.16,-15.5 157.62,-15.5 149.29,-15.5"/>
<polygon fill="midnightblue" stroke="midnightblue" points="174.86,-19 184.86,-15.5 174.86,-12 174.86,-19"/>
</g>
</g>
</svg>
