<?xml version="1.0" encoding="UTF-8" standalone="no"?>
<!DOCTYPE svg PUBLIC "-//W3C//DTD SVG 1.1//EN"
 "http://www.w3.org/Graphics/SVG/1.1/DTD/svg11.dtd">
<!-- Generated by graphviz version 2.49.1 (20210923.0004)
 -->
<!-- Title: Discord.ImageManager.Fetch Pages: 1 -->
<svg width="512pt" height="39pt"
 viewBox="0.00 0.00 512.00 39.00" xmlns="http://www.w3.org/2000/svg" xmlns:xlink="http://www.w3.org/1999/xlink">
<g id="graph0" class="graph" transform="scale(1 1) rotate(0) translate(4 35)">
<title>Discord.ImageManager.Fetch</title>
<!-- Node1 -->
<g id="node1" class="node">
<title>Node1</title>
<g id="a_node1"><a xlink:title=" ">
<polygon fill="#bfbfbf" stroke="black" points="0,-6 0,-25 144,-25 144,-6 0,-6"/>
<text text-anchor="middle" x="72" y="-13" font-family="Helvetica,sans-Serif" font-size="10.00">Discord.ImageManager.Fetch</text>
</a>
</g>
</g>
<!-- Node2 -->
<g id="node2" class="node">
<title>Node2</title>
<g id="a_node2"><a xlink:href="class_discord_1_1_image_manager.html#a0add19a454f1d361ba0cc0eb8316098e" target="_top" xlink:title=" ">
<polygon fill="none" stroke="black" points="180,-0.5 180,-30.5 324,-30.5 324,-0.5 180,-0.5"/>
<text text-anchor="start" x="188" y="-18.5" font-family="Helvetica,sans-Serif" font-size="10.00">Discord.ImageManager.Fetch</text>
<text text-anchor="middle" x="252" y="-7.5" font-family="Helvetica,sans-Serif" font-size="10.00">CallbackImpl</text>
</a>
</g>
</g>
<!-- Node1&#45;&gt;Node2 -->
<g id="edge1" class="edge">
<title>Node1&#45;&gt;Node2</title>
<path fill="none" stroke="midnightblue" d="M144.12,-15.5C152.61,-15.5 161.33,-15.5 169.94,-15.5"/>
<polygon fill="midnightblue" stroke="midnightblue" points="170,-19 180,-15.5 170,-12 170,-19"/>
</g>
<!-- Node3 -->
<g id="node3" class="node">
<title>Node3</title>
<g id="a_node3"><a xlink:href="class_discord_1_1_image_manager.html#a995ef33310b3dcd53ba900e584038ccc" target="_top" xlink:title=" ">
<polygon fill="none" stroke="black" points="360,-0.5 360,-30.5 504,-30.5 504,-0.5 360,-0.5"/>
<text text-anchor="start" x="368" y="-18.5" font-family="Helvetica,sans-Serif" font-size="10.00">Discord.ImageManager.Fetch</text>
<text text-anchor="middle" x="432" y="-7.5" font-family="Helvetica,sans-Serif" font-size="10.00">Handler</text>
</a>
</g>
</g>
<!-- Node2&#45;&gt;Node3 -->
<g id="edge2" class="edge">
<title>Node2&#45;&gt;Node3</title>
<path fill="none" stroke="midnightblue" d="M324.12,-15.5C332.61,-15.5 341.33,-15.5 349.94,-15.5"/>
<polygon fill="midnightblue" stroke="midnightblue" points="350,-19 360,-15.5 350,-12 350,-19"/>
</g>
</g>
</svg>
