<?xml version="1.0" encoding="UTF-8" standalone="no"?>
<!DOCTYPE svg PUBLIC "-//W3C//DTD SVG 1.1//EN"
 "http://www.w3.org/Graphics/SVG/1.1/DTD/svg11.dtd">
<!-- Generated by graphviz version 2.47.3 (20210619.1520)
 -->
<!-- Title: Photon.Pun.PhotonAnimatorViewEditor Pages: 1 -->
<svg width="1059pt" height="180pt"
 viewBox="0.00 0.00 1059.00 180.00" xmlns="http://www.w3.org/2000/svg" xmlns:xlink="http://www.w3.org/1999/xlink">
<g id="graph0" class="graph" transform="scale(1 1) rotate(0) translate(4 176)">
<title>Photon.Pun.PhotonAnimatorViewEditor</title>
<polygon fill="white" stroke="transparent" points="-4,4 -4,-176 1055,-176 1055,4 -4,4"/>
<!-- Node1 -->
<g id="node1" class="node">
<title>Node1</title>
<g id="a_node1"><a xlink:title=" ">
<polygon fill="#bfbfbf" stroke="black" points="911,-74 911,-104 1051,-104 1051,-74 911,-74"/>
<text text-anchor="start" x="919" y="-92" font-family="Helvetica,sans-Serif" font-size="10.00">Photon.Pun.PhotonAnimator</text>
<text text-anchor="middle" x="981" y="-81" font-family="Helvetica,sans-Serif" font-size="10.00">ViewEditor</text>
</a>
</g>
</g>
<!-- Node2 -->
<g id="node2" class="node">
<title>Node2</title>
<g id="a_node2"><a xlink:href="class_photon_1_1_pun_1_1_mono_behaviour_pun_editor.xhtml" target="_top" xlink:title=" ">
<polygon fill="white" stroke="black" points="688,-114.5 688,-133.5 813,-133.5 813,-114.5 688,-114.5"/>
<text text-anchor="middle" x="750.5" y="-121.5" font-family="Helvetica,sans-Serif" font-size="10.00">MonoBehaviourPunEditor</text>
</a>
</g>
</g>
<!-- Node2&#45;&gt;Node1 -->
<g id="edge1" class="edge">
<title>Node2&#45;&gt;Node1</title>
<path fill="none" stroke="midnightblue" d="M823.13,-113.03C851.07,-108.75 882.98,-103.86 910.69,-99.62"/>
<polygon fill="midnightblue" stroke="midnightblue" points="822.39,-109.6 813.03,-114.57 823.45,-116.52 822.39,-109.6"/>
</g>
<!-- Node3 -->
<g id="node3" class="node">
<title>Node3</title>
<g id="a_node3"><a xlink:title=" ">
<polygon fill="white" stroke="#bfbfbf" points="455.5,-114.5 455.5,-133.5 497.5,-133.5 497.5,-114.5 455.5,-114.5"/>
<text text-anchor="middle" x="476.5" y="-121.5" font-family="Helvetica,sans-Serif" font-size="10.00">Editor</text>
</a>
</g>
</g>
<!-- Node3&#45;&gt;Node2 -->
<g id="edge2" class="edge">
<title>Node3&#45;&gt;Node2</title>
<path fill="none" stroke="midnightblue" d="M507.65,-124C550.91,-124 631.53,-124 687.75,-124"/>
<polygon fill="midnightblue" stroke="midnightblue" points="507.5,-120.5 497.5,-124 507.5,-127.5 507.5,-120.5"/>
</g>
<!-- Node4 -->
<g id="node4" class="node">
<title>Node4</title>
<g id="a_node4"><a xlink:href="class_photon_1_1_pun_1_1_mono_behaviour_pun.xhtml" target="_top" xlink:title="This class adds the property photonView, while logging a warning when your game still uses the networ...">
<polygon fill="white" stroke="black" points="399.5,-152.5 399.5,-171.5 553.5,-171.5 553.5,-152.5 399.5,-152.5"/>
<text text-anchor="middle" x="476.5" y="-159.5" font-family="Helvetica,sans-Serif" font-size="10.00">Photon.Pun.MonoBehaviourPun</text>
</a>
</g>
</g>
<!-- Node4&#45;&gt;Node2 -->
<g id="edge3" class="edge">
<title>Node4&#45;&gt;Node2</title>
<path fill="none" stroke="#9a32cd" stroke-dasharray="5,2" d="M555.95,-151.04C597.84,-145.19 648.65,-138.09 687.7,-132.63"/>
<polygon fill="#9a32cd" stroke="#9a32cd" points="555.21,-147.61 545.79,-152.46 556.17,-154.54 555.21,-147.61"/>
<text text-anchor="middle" x="613.5" y="-150" font-family="Helvetica,sans-Serif" font-size="10.00"> mbTarget</text>
</g>
<!-- Node5 -->
<g id="node5" class="node">
<title>Node5</title>
<g id="a_node5"><a xlink:title=" ">
<polygon fill="white" stroke="#bfbfbf" points="18,-112.5 18,-131.5 101,-131.5 101,-112.5 18,-112.5"/>
<text text-anchor="middle" x="59.5" y="-119.5" font-family="Helvetica,sans-Serif" font-size="10.00">MonoBehaviour</text>
</a>
</g>
</g>
<!-- Node5&#45;&gt;Node4 -->
<g id="edge4" class="edge">
<title>Node5&#45;&gt;Node4</title>
<path fill="none" stroke="midnightblue" d="M111.19,-132.04C119.78,-133.53 128.63,-134.92 137,-136 226.72,-147.62 330.55,-154.66 399.31,-158.42"/>
<polygon fill="midnightblue" stroke="midnightblue" points="111.73,-128.58 101.27,-130.28 110.5,-135.48 111.73,-128.58"/>
</g>
<!-- Node6 -->
<g id="node6" class="node">
<title>Node6</title>
<g id="a_node6"><a xlink:href="class_photon_1_1_pun_1_1_photon_view.xhtml" target="_top" xlink:title="A PhotonView identifies an object across the network (viewID) and configures how the controlling clie...">
<polygon fill="white" stroke="black" points="198,-57.5 198,-76.5 320,-76.5 320,-57.5 198,-57.5"/>
<text text-anchor="middle" x="259" y="-64.5" font-family="Helvetica,sans-Serif" font-size="10.00">Photon.Pun.PhotonView</text>
</a>
</g>
</g>
<!-- Node5&#45;&gt;Node6 -->
<g id="edge6" class="edge">
<title>Node5&#45;&gt;Node6</title>
<path fill="none" stroke="midnightblue" d="M104.64,-109.71C140.6,-99.69 190.65,-85.76 223.66,-76.56"/>
<polygon fill="midnightblue" stroke="midnightblue" points="103.6,-106.37 94.9,-112.42 105.47,-113.11 103.6,-106.37"/>
</g>
<!-- Node9 -->
<g id="node9" class="node">
<title>Node9</title>
<g id="a_node9"><a xlink:href="class_photon_1_1_pun_1_1_mono_behaviour_pun.xhtml" target="_top" xlink:title="This class adds the property photonView, while logging a warning when your game still uses the networ...">
<polygon fill="white" stroke="black" points="426.5,-38.5 426.5,-57.5 526.5,-57.5 526.5,-38.5 426.5,-38.5"/>
<text text-anchor="middle" x="476.5" y="-45.5" font-family="Helvetica,sans-Serif" font-size="10.00">MonoBehaviourPun</text>
</a>
</g>
</g>
<!-- Node5&#45;&gt;Node9 -->
<g id="edge10" class="edge">
<title>Node5&#45;&gt;Node9</title>
<path fill="none" stroke="midnightblue" d="M111.18,-126.07C189.68,-131.34 336.02,-136.76 378,-108 394.42,-96.75 380.73,-79.76 396,-67 404.6,-59.81 415.47,-55.25 426.38,-52.38"/>
<polygon fill="midnightblue" stroke="midnightblue" points="111.25,-122.56 101.03,-125.36 110.77,-129.55 111.25,-122.56"/>
</g>
<!-- Node6&#45;&gt;Node4 -->
<g id="edge5" class="edge">
<title>Node6&#45;&gt;Node4</title>
<path fill="none" stroke="#9a32cd" stroke-dasharray="5,2" d="M282.5,-82.13C308.72,-99.15 353.85,-126.55 396,-143 405.52,-146.71 415.97,-149.84 426.08,-152.42"/>
<polygon fill="#9a32cd" stroke="#9a32cd" points="284.32,-79.14 274.05,-76.58 280.48,-85 284.32,-79.14"/>
<text text-anchor="middle" x="358" y="-137" font-family="Helvetica,sans-Serif" font-size="10.00"> pvCache</text>
</g>
<!-- Node6&#45;&gt;Node9 -->
<g id="edge11" class="edge">
<title>Node6&#45;&gt;Node9</title>
<path fill="none" stroke="#9a32cd" stroke-dasharray="5,2" d="M330.05,-60.82C361.49,-58.05 397.83,-54.85 426.32,-52.34"/>
<polygon fill="#9a32cd" stroke="#9a32cd" points="329.68,-57.34 320.03,-61.71 330.3,-64.32 329.68,-57.34"/>
<text text-anchor="middle" x="358" y="-63" font-family="Helvetica,sans-Serif" font-size="10.00"> pvCache</text>
</g>
<!-- Node7 -->
<g id="node7" class="node">
<title>Node7</title>
<g id="a_node7"><a xlink:href="class_photon_1_1_realtime_1_1_player.xhtml" target="_top" xlink:title="Summarizes a &quot;player&quot; within a room, identified (in that room) by ID (or &quot;actorNumber&quot;).">
<polygon fill="white" stroke="black" points="0,-50.5 0,-69.5 119,-69.5 119,-50.5 0,-50.5"/>
<text text-anchor="middle" x="59.5" y="-57.5" font-family="Helvetica,sans-Serif" font-size="10.00">Photon.Realtime.Player</text>
</a>
</g>
</g>
<!-- Node7&#45;&gt;Node6 -->
<g id="edge7" class="edge">
<title>Node7&#45;&gt;Node6</title>
<path fill="none" stroke="#9a32cd" stroke-dasharray="5,2" d="M129.34,-59.77C145.94,-59.94 163.61,-60.3 180,-61 185.83,-61.25 191.91,-61.58 197.98,-61.97"/>
<polygon fill="#9a32cd" stroke="#9a32cd" points="129.2,-56.27 119.17,-59.69 129.15,-63.27 129.2,-56.27"/>
<text text-anchor="middle" x="158.5" y="-75" font-family="Helvetica,sans-Serif" font-size="10.00"> controller</text>
<text text-anchor="middle" x="158.5" y="-64" font-family="Helvetica,sans-Serif" font-size="10.00">owner</text>
</g>
<!-- Node8 -->
<g id="node8" class="node">
<title>Node8</title>
<g id="a_node8"><a xlink:href="class_photon_1_1_pun_1_1_photon_animator_view.xhtml" target="_top" xlink:title="This class helps you to synchronize Mecanim animations Simply add the component to your GameObject an...">
<polygon fill="white" stroke="black" points="670,-60.5 670,-79.5 831,-79.5 831,-60.5 670,-60.5"/>
<text text-anchor="middle" x="750.5" y="-67.5" font-family="Helvetica,sans-Serif" font-size="10.00">Photon.Pun.PhotonAnimatorView</text>
</a>
</g>
</g>
<!-- Node8&#45;&gt;Node1 -->
<g id="edge8" class="edge">
<title>Node8&#45;&gt;Node1</title>
<path fill="none" stroke="#9a32cd" stroke-dasharray="5,2" d="M841.26,-75.9C858.44,-77.16 876.28,-78.55 893,-80 898.75,-80.5 904.71,-81.05 910.69,-81.62"/>
<polygon fill="#9a32cd" stroke="#9a32cd" points="841.46,-72.41 831.24,-75.18 840.96,-79.39 841.46,-72.41"/>
<text text-anchor="middle" x="871" y="-83" font-family="Helvetica,sans-Serif" font-size="10.00"> m_Target</text>
</g>
<!-- Node9&#45;&gt;Node8 -->
<g id="edge9" class="edge">
<title>Node9&#45;&gt;Node8</title>
<path fill="none" stroke="midnightblue" d="M536.9,-52.8C575.91,-55.96 627.4,-60.12 669.93,-63.56"/>
<polygon fill="midnightblue" stroke="midnightblue" points="537.01,-49.3 526.76,-51.98 536.44,-56.28 537.01,-49.3"/>
</g>
<!-- Node10 -->
<g id="node10" class="node">
<title>Node10</title>
<g id="a_node10"><a xlink:href="interface_photon_1_1_pun_1_1_i_pun_observable.xhtml" target="_top" xlink:title="Defines the OnPhotonSerializeView method to make it easy to implement correctly for observable script...">
<polygon fill="white" stroke="black" points="434.5,-0.5 434.5,-19.5 518.5,-19.5 518.5,-0.5 434.5,-0.5"/>
<text text-anchor="middle" x="476.5" y="-7.5" font-family="Helvetica,sans-Serif" font-size="10.00">IPunObservable</text>
</a>
</g>
</g>
<!-- Node10&#45;&gt;Node8 -->
<g id="edge12" class="edge">
<title>Node10&#45;&gt;Node8</title>
<path fill="none" stroke="midnightblue" d="M528.4,-21.23C579.7,-32.54 658,-49.82 706.35,-60.48"/>
<polygon fill="midnightblue" stroke="midnightblue" points="529.03,-17.78 518.52,-19.05 527.53,-24.62 529.03,-17.78"/>
</g>
<!-- Node11 -->
<g id="node11" class="node">
<title>Node11</title>
<g id="a_node11"><a xlink:href="class_photon_1_1_pun_1_1_photon_stream_queue.xhtml" target="_top" xlink:title="The PhotonStreamQueue helps you poll object states at higher frequencies than what PhotonNetwork....">
<polygon fill="white" stroke="black" points="396,-76.5 396,-95.5 557,-95.5 557,-76.5 396,-76.5"/>
<text text-anchor="middle" x="476.5" y="-83.5" font-family="Helvetica,sans-Serif" font-size="10.00">Photon.Pun.PhotonStreamQueue</text>
</a>
</g>
</g>
<!-- Node11&#45;&gt;Node8 -->
<g id="edge13" class="edge">
<title>Node11&#45;&gt;Node8</title>
<path fill="none" stroke="#9a32cd" stroke-dasharray="5,2" d="M567.39,-80.71C600.44,-78.77 637.62,-76.58 669.73,-74.69"/>
<polygon fill="#9a32cd" stroke="#9a32cd" points="567.05,-77.23 557.27,-81.31 567.46,-84.21 567.05,-77.23"/>
<text text-anchor="middle" x="613.5" y="-83" font-family="Helvetica,sans-Serif" font-size="10.00"> m_StreamQueue</text>
</g>
</g>
</svg>
