<?xml version="1.0" encoding="UTF-8" standalone="no"?>
<!DOCTYPE svg PUBLIC "-//W3C//DTD SVG 1.1//EN"
 "http://www.w3.org/Graphics/SVG/1.1/DTD/svg11.dtd">
<!-- Generated by graphviz version 2.47.3 (20210619.1520)
 -->
<!-- Title: Photon.Pun.UtilityScripts.SmoothSyncMovement Pages: 1 -->
<svg width="270pt" height="151pt"
 viewBox="0.00 0.00 270.00 151.00" xmlns="http://www.w3.org/2000/svg" xmlns:xlink="http://www.w3.org/1999/xlink">
<g id="graph0" class="graph" transform="scale(1 1) rotate(0) translate(4 147)">
<title>Photon.Pun.UtilityScripts.SmoothSyncMovement</title>
<polygon fill="white" stroke="transparent" points="-4,4 -4,-147 266,-147 266,4 -4,4"/>
<!-- Node1 -->
<g id="node1" class="node">
<title>Node1</title>
<g id="a_node1"><a xlink:title="Smoothed out movement for network gameobjects">
<polygon fill="#bfbfbf" stroke="black" points="85.5,-0.5 85.5,-30.5 214.5,-30.5 214.5,-0.5 85.5,-0.5"/>
<text text-anchor="start" x="93.5" y="-18.5" font-family="Helvetica,sans-Serif" font-size="10.00">Photon.Pun.UtilityScripts.</text>
<text text-anchor="middle" x="150" y="-7.5" font-family="Helvetica,sans-Serif" font-size="10.00">SmoothSyncMovement</text>
</a>
</g>
</g>
<!-- Node2 -->
<g id="node2" class="node">
<title>Node2</title>
<g id="a_node2"><a xlink:href="class_photon_1_1_pun_1_1_mono_behaviour_pun.xhtml" target="_top" xlink:title="This class adds the property photonView, while logging a warning when your game still uses the networ...">
<polygon fill="white" stroke="black" points="0,-67.5 0,-86.5 160,-86.5 160,-67.5 0,-67.5"/>
<text text-anchor="middle" x="80" y="-74.5" font-family="Helvetica,sans-Serif" font-size="10.00">Photon::Pun::MonoBehaviourPun</text>
</a>
</g>
</g>
<!-- Node2&#45;&gt;Node1 -->
<g id="edge1" class="edge">
<title>Node2&#45;&gt;Node1</title>
<path fill="none" stroke="midnightblue" d="M97.74,-60.92C108.73,-51.58 122.75,-39.66 133.5,-30.52"/>
<polygon fill="midnightblue" stroke="midnightblue" points="95.38,-58.33 90.03,-67.48 99.92,-63.67 95.38,-58.33"/>
</g>
<!-- Node3 -->
<g id="node3" class="node">
<title>Node3</title>
<g id="a_node3"><a xlink:title=" ">
<polygon fill="white" stroke="#bfbfbf" points="38.5,-123.5 38.5,-142.5 121.5,-142.5 121.5,-123.5 38.5,-123.5"/>
<text text-anchor="middle" x="80" y="-130.5" font-family="Helvetica,sans-Serif" font-size="10.00">MonoBehaviour</text>
</a>
</g>
</g>
<!-- Node3&#45;&gt;Node2 -->
<g id="edge2" class="edge">
<title>Node3&#45;&gt;Node2</title>
<path fill="none" stroke="midnightblue" d="M80,-112.8C80,-103.91 80,-93.78 80,-86.75"/>
<polygon fill="midnightblue" stroke="midnightblue" points="76.5,-113.08 80,-123.08 83.5,-113.08 76.5,-113.08"/>
</g>
<!-- Node4 -->
<g id="node4" class="node">
<title>Node4</title>
<g id="a_node4"><a xlink:href="interface_photon_1_1_pun_1_1_i_pun_observable.xhtml" target="_top" xlink:title="Defines the OnPhotonSerializeView method to make it easy to implement correctly for observable script...">
<polygon fill="white" stroke="black" points="178,-67.5 178,-86.5 262,-86.5 262,-67.5 178,-67.5"/>
<text text-anchor="middle" x="220" y="-74.5" font-family="Helvetica,sans-Serif" font-size="10.00">IPunObservable</text>
</a>
</g>
</g>
<!-- Node4&#45;&gt;Node1 -->
<g id="edge3" class="edge">
<title>Node4&#45;&gt;Node1</title>
<path fill="none" stroke="midnightblue" d="M202.26,-60.92C191.27,-51.58 177.25,-39.66 166.5,-30.52"/>
<polygon fill="midnightblue" stroke="midnightblue" points="200.08,-63.67 209.97,-67.48 204.62,-58.33 200.08,-63.67"/>
</g>
</g>
</svg>
