<?xml version="1.0" encoding="UTF-8" standalone="no"?>
<!DOCTYPE svg PUBLIC "-//W3C//DTD SVG 1.1//EN"
 "http://www.w3.org/Graphics/SVG/1.1/DTD/svg11.dtd">
<!-- Generated by graphviz version 2.49.1 (20210923.0004)
 -->
<!-- Title: AbilityBase.CalculateDamage Pages: 1 -->
<svg width="485pt" height="104pt"
 viewBox="0.00 0.00 485.00 104.00" xmlns="http://www.w3.org/2000/svg" xmlns:xlink="http://www.w3.org/1999/xlink">
<g id="graph0" class="graph" transform="scale(1 1) rotate(0) translate(4 100)">
<title>AbilityBase.CalculateDamage</title>
<!-- Node1 -->
<g id="node1" class="node">
<title>Node1</title>
<g id="a_node1"><a xlink:title="Returns the calculated damage.">
<polygon fill="#bfbfbf" stroke="black" points="331,-38.5 331,-57.5 477,-57.5 477,-38.5 331,-38.5"/>
<text text-anchor="middle" x="404" y="-45.5" font-family="Helvetica,sans-Serif" font-size="10.00">AbilityBase.CalculateDamage</text>
</a>
</g>
</g>
<!-- Node2 -->
<g id="node2" class="node">
<title>Node2</title>
<g id="a_node2"><a xlink:href="class_ability___lis4.html#abf66fa4ed9cc553dc8ab52d7bbd12406" target="_top" xlink:title=" ">
<polygon fill="none" stroke="black" points="141,-76.5 141,-95.5 295,-95.5 295,-76.5 141,-76.5"/>
<text text-anchor="middle" x="218" y="-83.5" font-family="Helvetica,sans-Serif" font-size="10.00">Ability_Lis4.DealDamageInTime</text>
</a>
</g>
</g>
<!-- Node1&#45;&gt;Node2 -->
<g id="edge1" class="edge">
<title>Node1&#45;&gt;Node2</title>
<path fill="none" stroke="midnightblue" d="M346.44,-59.68C320.35,-65.07 289.76,-71.39 265.1,-76.48"/>
<polygon fill="midnightblue" stroke="midnightblue" points="347.48,-63.04 356.57,-57.59 346.07,-56.18 347.48,-63.04"/>
</g>
<!-- Node4 -->
<g id="node4" class="node">
<title>Node4</title>
<g id="a_node4"><a xlink:href="class_ability___lis1.html#afd1d7924ca79144a0e19a84705b7590e" target="_top" xlink:title=" ">
<polygon fill="none" stroke="black" points="150.5,-38.5 150.5,-57.5 285.5,-57.5 285.5,-38.5 150.5,-38.5"/>
<text text-anchor="middle" x="218" y="-45.5" font-family="Helvetica,sans-Serif" font-size="10.00">Ability_Lis1.OnTriggerEnter</text>
</a>
</g>
</g>
<!-- Node1&#45;&gt;Node4 -->
<g id="edge3" class="edge">
<title>Node1&#45;&gt;Node4</title>
<path fill="none" stroke="midnightblue" d="M320.59,-48C308.87,-48 296.95,-48 285.59,-48"/>
<polygon fill="midnightblue" stroke="midnightblue" points="320.81,-51.5 330.81,-48 320.81,-44.5 320.81,-51.5"/>
</g>
<!-- Node5 -->
<g id="node5" class="node">
<title>Node5</title>
<g id="a_node5"><a xlink:href="class_ability___lis4.html#a4497c50ddbd3f508448a76a1eafdd203" target="_top" xlink:title=" ">
<polygon fill="none" stroke="black" points="150.5,-0.5 150.5,-19.5 285.5,-19.5 285.5,-0.5 150.5,-0.5"/>
<text text-anchor="middle" x="218" y="-7.5" font-family="Helvetica,sans-Serif" font-size="10.00">Ability_Lis4.OnTriggerEnter</text>
</a>
</g>
</g>
<!-- Node1&#45;&gt;Node5 -->
<g id="edge4" class="edge">
<title>Node1&#45;&gt;Node5</title>
<path fill="none" stroke="midnightblue" d="M346.44,-36.32C320.35,-30.93 289.76,-24.61 265.1,-19.52"/>
<polygon fill="midnightblue" stroke="midnightblue" points="346.07,-39.82 356.57,-38.41 347.48,-32.96 346.07,-39.82"/>
</g>
<!-- Node3 -->
<g id="node3" class="node">
<title>Node3</title>
<g id="a_node3"><a xlink:href="class_ability___lis4.html#a81b6301f39ee1f8a105aaf40bb6ec51e" target="_top" xlink:title=" ">
<polygon fill="none" stroke="black" points="0,-76.5 0,-95.5 105,-95.5 105,-76.5 0,-76.5"/>
<text text-anchor="middle" x="52.5" y="-83.5" font-family="Helvetica,sans-Serif" font-size="10.00">Ability_Lis4.Initialize</text>
</a>
</g>
</g>
<!-- Node2&#45;&gt;Node3 -->
<g id="edge2" class="edge">
<title>Node2&#45;&gt;Node3</title>
<path fill="none" stroke="midnightblue" d="M130.99,-86C122.14,-86 113.35,-86 105.04,-86"/>
<polygon fill="midnightblue" stroke="midnightblue" points="130.99,-89.5 140.99,-86 130.99,-82.5 130.99,-89.5"/>
</g>
</g>
</svg>
