<?xml version="1.0" encoding="UTF-8" standalone="no"?>
<!DOCTYPE svg PUBLIC "-//W3C//DTD SVG 1.1//EN"
 "http://www.w3.org/Graphics/SVG/1.1/DTD/svg11.dtd">
<!-- Generated by graphviz version 2.49.1 (20210923.0004)
 -->
<!-- Title: Mannequin.Start Pages: 1 -->
<!--zoomable 88 -->
<svg id="main" version="1.1" xmlns="http://www.w3.org/2000/svg" xmlns:xlink="http://www.w3.org/1999/xlink" xml:space="preserve" onload="init(evt)">
<style type="text/css"><![CDATA[
.edge:hover path { stroke: red; }
.edge:hover polygon { stroke: red; fill: red; }
]]></style>
<script type="text/javascript"><![CDATA[
var edges = document.getElementsByTagName('g');
if (edges && edges.length) {
  for (var i=0;i<edges.length;i++) {
    if (edges[i].id.substr(0,4)=='edge') {
      edges[i].setAttribute('class','edge');
    }
  }
}
]]></script>
        <defs>
                <circle id="rim" cx="0" cy="0" r="7"/>
                <circle id="rim2" cx="0" cy="0" r="3.5"/>
                <g id="zoomPlus">
                        <use xlink:href="#rim" fill="#404040">
                                <set attributeName="fill" to="#808080" begin="zoomplus.mouseover" end="zoomplus.mouseout"/>
                        </use>
                        <path d="M-4,0h8M0,-4v8" fill="none" stroke="white" stroke-width="1.5" pointer-events="none"/>
                </g>
                <g id="zoomMin">
                        <use xlink:href="#rim" fill="#404040">
                                <set attributeName="fill" to="#808080" begin="zoomminus.mouseover" end="zoomminus.mouseout"/>
                        </use>
                        <path d="M-4,0h8" fill="none" stroke="white" stroke-width="1.5" pointer-events="none"/>
                </g>
                <g id="dirArrow">
                        <path fill="none" stroke="white" stroke-width="1.5" d="M0,-3.0v7 M-2.5,-0.5L0,-3.0L2.5,-0.5"/>
                </g>
               <g id="resetDef">
                       <use xlink:href="#rim2" fill="#404040">
                               <set attributeName="fill" to="#808080" begin="reset.mouseover" end="reset.mouseout"/>
                       </use>
               </g>
        </defs>

<script type="text/javascript">
var viewWidth = 935;
var viewHeight = 88;
var sectionId = 'dynsection-1';
</script>
<script xlink:href="svgpan.js"/>
<svg id="graph" class="graph">
<g id="viewport">
<title>Mannequin.Start</title>
<!-- Node1 -->
<g id="node1" class="node">
<title>Node1</title>
<g id="a_node1"><a xlink:title=" ">
<polygon fill="#bfbfbf" stroke="black" points="0,-30 0,-49 88,-49 88,-30 0,-30"/>
<text text-anchor="middle" x="44" y="-37" font-family="Helvetica,sans-Serif" font-size="10.00">Mannequin.Start</text>
</a>
</g>
</g>
<!-- Node2 -->
<g id="node2" class="node">
<title>Node2</title>
<g id="a_node2"><a xlink:href="class_mannequin_stats.html#a0cecf416149ad28539cb696fad4ae175" target="_top" xlink:title=" ">
<polygon fill="none" stroke="black" points="124,-30 124,-49 249,-49 249,-30 124,-30"/>
<text text-anchor="middle" x="186.5" y="-37" font-family="Helvetica,sans-Serif" font-size="10.00">MannequinStats.Initialize</text>
</a>
</g>
</g>
<!-- Node1&#45;&gt;Node2 -->
<g id="edge1" class="edge">
<title>Node1&#45;&gt;Node2</title>
<path fill="none" stroke="midnightblue" d="M88.3,-39.5C96.36,-39.5 104.97,-39.5 113.61,-39.5"/>
<polygon fill="midnightblue" stroke="midnightblue" points="113.75,-43 123.75,-39.5 113.75,-36 113.75,-43"/>
</g>
<!-- Node3 -->
<g id="node3" class="node">
<title>Node3</title>
<g id="a_node3"><a xlink:href="class_player_u_i_controller.html#ab6ed746dec17fdf763bc4ec1d713db7f" target="_top" xlink:title="Initializes all the values and colors for this Player.">
<polygon fill="none" stroke="black" points="285,-30 285,-49 416,-49 416,-30 285,-30"/>
<text text-anchor="middle" x="350.5" y="-37" font-family="Helvetica,sans-Serif" font-size="10.00">PlayerUIController.Initalize</text>
</a>
</g>
</g>
<!-- Node2&#45;&gt;Node3 -->
<g id="edge2" class="edge">
<title>Node2&#45;&gt;Node3</title>
<path fill="none" stroke="midnightblue" d="M249.21,-39.5C257.47,-39.5 266.02,-39.5 274.48,-39.5"/>
<polygon fill="midnightblue" stroke="midnightblue" points="274.73,-43 284.73,-39.5 274.73,-36 274.73,-43"/>
</g>
<!-- Node4 -->
<g id="node4" class="node">
<title>Node4</title>
<g id="a_node4"><a xlink:href="class_player_u_i_controller.html#aa5b61a93967fa5ce39bfd950a9e9d584" target="_top" xlink:title="Initializes all the values into the Image and Text.">
<polygon fill="none" stroke="black" points="452,-24.5 452,-54.5 585,-54.5 585,-24.5 452,-24.5"/>
<text text-anchor="start" x="460" y="-42.5" font-family="Helvetica,sans-Serif" font-size="10.00">PlayerUIController.Initialize</text>
<text text-anchor="middle" x="518.5" y="-31.5" font-family="Helvetica,sans-Serif" font-size="10.00">Values</text>
</a>
</g>
</g>
<!-- Node3&#45;&gt;Node4 -->
<g id="edge3" class="edge">
<title>Node3&#45;&gt;Node4</title>
<path fill="none" stroke="midnightblue" d="M416.16,-39.5C424.6,-39.5 433.3,-39.5 441.9,-39.5"/>
<polygon fill="midnightblue" stroke="midnightblue" points="441.93,-43 451.93,-39.5 441.93,-36 441.93,-43"/>
</g>
<!-- Node5 -->
<g id="node5" class="node">
<title>Node5</title>
<g id="a_node5"><a xlink:href="class_player_u_i_controller.html#adadd54ec10a1236aa7c08022d27fa068" target="_top" xlink:title="Sets the current level and xp to the Image.">
<polygon fill="none" stroke="black" points="621,-49.5 621,-79.5 749,-79.5 749,-49.5 621,-49.5"/>
<text text-anchor="start" x="629" y="-67.5" font-family="Helvetica,sans-Serif" font-size="10.00">PlayerUIController.Update</text>
<text text-anchor="middle" x="685" y="-56.5" font-family="Helvetica,sans-Serif" font-size="10.00">CurrentLevel</text>
</a>
</g>
</g>
<!-- Node4&#45;&gt;Node5 -->
<g id="edge4" class="edge">
<title>Node4&#45;&gt;Node5</title>
<path fill="none" stroke="midnightblue" d="M585.46,-49.52C593.88,-50.8 602.53,-52.12 611.05,-53.41"/>
<polygon fill="midnightblue" stroke="midnightblue" points="610.55,-56.88 620.96,-54.92 611.6,-49.96 610.55,-56.88"/>
</g>
<!-- Node7 -->
<g id="node7" class="node">
<title>Node7</title>
<g id="a_node7"><a xlink:href="class_player_u_i_controller.html#aacc9f1b78d9e1adab16f8fc2ec246dfb" target="_top" xlink:title=" ">
<polygon fill="none" stroke="black" points="621,-0.5 621,-30.5 749,-30.5 749,-0.5 621,-0.5"/>
<text text-anchor="start" x="629" y="-18.5" font-family="Helvetica,sans-Serif" font-size="10.00">PlayerUIController.Update</text>
<text text-anchor="middle" x="685" y="-7.5" font-family="Helvetica,sans-Serif" font-size="10.00">MaxHP</text>
</a>
</g>
</g>
<!-- Node4&#45;&gt;Node7 -->
<g id="edge6" class="edge">
<title>Node4&#45;&gt;Node7</title>
<path fill="none" stroke="midnightblue" d="M585.46,-29.88C593.88,-28.65 602.53,-27.39 611.05,-26.14"/>
<polygon fill="midnightblue" stroke="midnightblue" points="611.57,-29.6 620.96,-24.7 610.56,-22.68 611.57,-29.6"/>
</g>
<!-- Node6 -->
<g id="node6" class="node">
<title>Node6</title>
<g id="a_node6"><a xlink:href="class_utils.html#a459472171f68c903c975020cc5b02fee" target="_top" xlink:title="Calculates the actual normalized fill amount for the image.">
<polygon fill="none" stroke="black" points="793,-49 793,-68 919,-68 919,-49 793,-49"/>
<text text-anchor="middle" x="856" y="-56" font-family="Helvetica,sans-Serif" font-size="10.00">Utils.CalculateFillAmount</text>
</a>
</g>
</g>
<!-- Node5&#45;&gt;Node6 -->
<g id="edge5" class="edge">
<title>Node5&#45;&gt;Node6</title>
<path fill="none" stroke="midnightblue" d="M749.41,-62.25C760.31,-61.86 771.71,-61.46 782.82,-61.06"/>
<polygon fill="midnightblue" stroke="midnightblue" points="783.05,-64.56 792.92,-60.7 782.8,-57.56 783.05,-64.56"/>
</g>
<!-- Node7&#45;&gt;Node6 -->
<g id="edge7" class="edge">
<title>Node7&#45;&gt;Node6</title>
<path fill="none" stroke="midnightblue" d="M745.11,-30.54C765.62,-35.76 788.32,-41.53 807.75,-46.48"/>
<polygon fill="midnightblue" stroke="midnightblue" points="807.02,-49.9 817.58,-48.98 808.75,-43.12 807.02,-49.9"/>
</g>
<!-- Node8 -->
<g id="node8" class="node">
<title>Node8</title>
<g id="a_node8"><a xlink:href="class_player_u_i_controller.html#aaa62b1e4dc1ee6689adbc72b8dcb73d3" target="_top" xlink:title="When you heal HP, we will reset the lerped bar">
<polygon fill="none" stroke="black" points="785,-6 785,-25 927,-25 927,-6 785,-6"/>
<text text-anchor="middle" x="856" y="-13" font-family="Helvetica,sans-Serif" font-size="10.00">PlayerUIController.ResetLerp</text>
</a>
</g>
</g>
<!-- Node7&#45;&gt;Node8 -->
<g id="edge8" class="edge">
<title>Node7&#45;&gt;Node8</title>
<path fill="none" stroke="midnightblue" d="M749.41,-15.5C757.76,-15.5 766.4,-15.5 774.98,-15.5"/>
<polygon fill="midnightblue" stroke="midnightblue" points="775,-19 785,-15.5 775,-12 775,-19"/>
</g>
</g>
</svg>
        <g id="navigator" transform="translate(0 0)" fill="#404254">
                <rect fill="#f2f5e9" fill-opacity="0.5" stroke="#606060" stroke-width=".5" x="0" y="0" width="60" height="60"/>
                <use id="zoomplus" xlink:href="#zoomPlus" x="17" y="9" onmousedown="handleZoom(evt,'in')"/>
                <use id="zoomminus" xlink:href="#zoomMin" x="42" y="9" onmousedown="handleZoom(evt,'out')"/>
                <use id="reset" xlink:href="#resetDef" x="30" y="36" onmousedown="handleReset()"/>
                <g id="arrowUp" xlink:href="#dirArrow" transform="translate(30 24)" onmousedown="handlePan(0,-1)">
                  <use xlink:href="#rim" fill="#404040">
                        <set attributeName="fill" to="#808080" begin="arrowUp.mouseover" end="arrowUp.mouseout"/>
                  </use>
                  <path fill="none" stroke="white" stroke-width="1.5" d="M0,-3.0v7 M-2.5,-0.5L0,-3.0L2.5,-0.5"/>
                </g>
                <g id="arrowRight" xlink:href="#dirArrow" transform="rotate(90) translate(36 -43)" onmousedown="handlePan(1,0)">
                  <use xlink:href="#rim" fill="#404040">
                        <set attributeName="fill" to="#808080" begin="arrowRight.mouseover" end="arrowRight.mouseout"/>
                  </use>
                  <path fill="none" stroke="white" stroke-width="1.5" d="M0,-3.0v7 M-2.5,-0.5L0,-3.0L2.5,-0.5"/>
                </g>
                <g id="arrowDown" xlink:href="#dirArrow" transform="rotate(180) translate(-30 -48)" onmousedown="handlePan(0,1)">
                  <use xlink:href="#rim" fill="#404040">
                        <set attributeName="fill" to="#808080" begin="arrowDown.mouseover" end="arrowDown.mouseout"/>
                  </use>
                  <path fill="none" stroke="white" stroke-width="1.5" d="M0,-3.0v7 M-2.5,-0.5L0,-3.0L2.5,-0.5"/>
                </g>
                <g id="arrowLeft" xlink:href="#dirArrow" transform="rotate(270) translate(-36 17)" onmousedown="handlePan(-1,0)">
                  <use xlink:href="#rim" fill="#404040">
                        <set attributeName="fill" to="#808080" begin="arrowLeft.mouseover" end="arrowLeft.mouseout"/>
                  </use>
                  <path fill="none" stroke="white" stroke-width="1.5" d="M0,-3.0v7 M-2.5,-0.5L0,-3.0L2.5,-0.5"/>
                </g>
        </g>
        <svg viewBox="0 0 15 15" width="100%" height="30px" preserveAspectRatio="xMaxYMin meet">
         <g id="arrow_out" transform="scale(0.3 0.3)">
          <a xlink:href="class_mannequin_af638d1036ae3aee689fe03b43cea0df5_cgraph_org.svg" target="_base">
           <rect id="button" ry="5" rx="5" y="6" x="6" height="38" width="38"
                fill="#f2f5e9" fill-opacity="0.5" stroke="#606060" stroke-width="1.0"/>
           <path id="arrow"
             d="M 11.500037,31.436501 C 11.940474,20.09759 22.043105,11.32322 32.158766,21.979434 L 37.068811,17.246167 C 37.068811,17.246167 37.088388,32 37.088388,32 L 22.160133,31.978069 C 22.160133,31.978069 26.997745,27.140456 26.997745,27.140456 C 18.528582,18.264221 13.291696,25.230495 11.500037,31.436501 z"
             style="fill:#404040;"/>
          </a>
         </g>
        </svg>
</svg>
