<?xml version="1.0" encoding="UTF-8" standalone="no"?>
<!DOCTYPE svg PUBLIC "-//W3C//DTD SVG 1.1//EN"
 "http://www.w3.org/Graphics/SVG/1.1/DTD/svg11.dtd">
<!-- Generated by graphviz version 2.47.3 (20210619.1520)
 -->
<!-- Title: BasicAttack.StartBasicAttack Pages: 1 -->
<svg width="337pt" height="78pt"
 viewBox="0.00 0.00 337.00 77.50" xmlns="http://www.w3.org/2000/svg" xmlns:xlink="http://www.w3.org/1999/xlink">
<g id="graph0" class="graph" transform="scale(1 1) rotate(0) translate(4 73.5)">
<title>BasicAttack.StartBasicAttack</title>
<polygon fill="white" stroke="transparent" points="-4,4 -4,-73.5 333,-73.5 333,4 -4,4"/>
<!-- Node1 -->
<g id="node1" class="node">
<title>Node1</title>
<g id="a_node1"><a xlink:title=" ">
<polygon fill="#bfbfbf" stroke="black" points="0,-28 0,-47 147,-47 147,-28 0,-28"/>
<text text-anchor="middle" x="73.5" y="-35" font-family="Helvetica,sans-Serif" font-size="10.00">BasicAttack.StartBasicAttack</text>
</a>
</g>
</g>
<!-- Node2 -->
<g id="node2" class="node">
<title>Node2</title>
<g id="a_node2"><a xlink:href="class_photon_1_1_pun_1_1_photon_view.xhtml#a92bc79e36a53f2137e4b45e5162bdd7b" target="_top" xlink:title="Call a RPC method of this GameObject on remote clients of this room (or on all, including this client...">
<polygon fill="white" stroke="black" points="183,-50 183,-69 329,-69 329,-50 183,-50"/>
<text text-anchor="middle" x="256" y="-57" font-family="Helvetica,sans-Serif" font-size="10.00">Photon.Pun.PhotonView.RPC</text>
</a>
</g>
</g>
<!-- Node1&#45;&gt;Node2 -->
<g id="edge1" class="edge">
<title>Node1&#45;&gt;Node2</title>
<path fill="none" stroke="midnightblue" d="M147.14,-46.35C155.59,-47.38 164.25,-48.44 172.81,-49.48"/>
<polygon fill="midnightblue" stroke="midnightblue" points="172.46,-52.97 182.81,-50.7 173.3,-46.02 172.46,-52.97"/>
</g>
<!-- Node3 -->
<g id="node3" class="node">
<title>Node3</title>
<g id="a_node3"><a xlink:href="class_player_controller.xhtml#a36323c07b7cd9e0ccab9c8016611827c" target="_top" xlink:title="The player will look at the position of this Transform.">
<polygon fill="white" stroke="black" points="193.5,-0.5 193.5,-30.5 318.5,-30.5 318.5,-0.5 193.5,-0.5"/>
<text text-anchor="start" x="201.5" y="-18.5" font-family="Helvetica,sans-Serif" font-size="10.00">PlayerController.SetLook</text>
<text text-anchor="middle" x="256" y="-7.5" font-family="Helvetica,sans-Serif" font-size="10.00">AtTarget</text>
</a>
</g>
</g>
<!-- Node1&#45;&gt;Node3 -->
<g id="edge2" class="edge">
<title>Node1&#45;&gt;Node3</title>
<path fill="none" stroke="midnightblue" d="M147.14,-28.65C158.96,-27.21 171.19,-25.71 183,-24.28"/>
<polygon fill="midnightblue" stroke="midnightblue" points="183.74,-27.71 193.24,-23.03 182.89,-20.76 183.74,-27.71"/>
</g>
</g>
</svg>
