<?xml version="1.0" encoding="UTF-8" standalone="no"?>
<!DOCTYPE svg PUBLIC "-//W3C//DTD SVG 1.1//EN"
 "http://www.w3.org/Graphics/SVG/1.1/DTD/svg11.dtd">
<!-- Generated by graphviz version 2.50.0 (20211204.2007)
 -->
<!-- Title: Inventory.HadAlreadyBought Pages: 1 -->
<svg width="792pt" height="170pt"
 viewBox="0.00 0.00 792.00 170.24" xmlns="http://www.w3.org/2000/svg" xmlns:xlink="http://www.w3.org/1999/xlink">
<g id="graph0" class="graph" transform="scale(1 1) rotate(0) translate(4 166.24)">
<title>Inventory.HadAlreadyBought</title>
<polygon fill="white" stroke="transparent" points="-4,4 -4,-166.24 788,-166.24 788,4 -4,4"/>
<!-- Node1 -->
<g id="node1" class="node">
<title>Node1</title>
<g id="a_node1"><a xlink:title=" ">
<polygon fill="#bfbfbf" stroke="black" points="645,-76.5 645,-95.5 784,-95.5 784,-76.5 645,-76.5"/>
<text text-anchor="middle" x="714.5" y="-83.5" font-family="Helvetica,sans-Serif" font-size="10.00">Inventory.HadAlreadyBought</text>
</a>
</g>
</g>
<!-- Node2 -->
<g id="node2" class="node">
<title>Node2</title>
<g id="a_node2"><a xlink:href="class_inventory.html#a4eba5ec568d6e06c754b71057888fcdd" target="_top" xlink:title=" ">
<polygon fill="white" stroke="black" points="517,-76.5 517,-95.5 609,-95.5 609,-76.5 517,-76.5"/>
<text text-anchor="middle" x="563" y="-83.5" font-family="Helvetica,sans-Serif" font-size="10.00">Inventory.CanBuy</text>
</a>
</g>
</g>
<!-- Node1&#45;&gt;Node2 -->
<g id="edge1" class="edge">
<title>Node1&#45;&gt;Node2</title>
<path fill="none" stroke="midnightblue" d="M634.62,-86C625.89,-86 617.23,-86 609.13,-86"/>
<polygon fill="midnightblue" stroke="midnightblue" points="634.88,-89.5 644.88,-86 634.88,-82.5 634.88,-89.5"/>
</g>
<!-- Node3 -->
<g id="node3" class="node">
<title>Node3</title>
<g id="a_node3"><a xlink:href="class_current_item_shop.html#ac931da08dc792088bbb913a1db71cf27" target="_top" xlink:title=" ">
<polygon fill="white" stroke="black" points="149,-142.5 149,-161.5 290,-161.5 290,-142.5 149,-142.5"/>
<text text-anchor="middle" x="219.5" y="-149.5" font-family="Helvetica,sans-Serif" font-size="10.00">CurrentItemShop.BuyCurrent</text>
</a>
</g>
</g>
<!-- Node2&#45;&gt;Node3 -->
<g id="edge2" class="edge">
<title>Node2&#45;&gt;Node3</title>
<path fill="none" stroke="midnightblue" d="M544.47,-102.95C529.12,-116.59 505.48,-134.78 481,-143 418.9,-163.85 343.74,-164 290.15,-160.19"/>
<polygon fill="midnightblue" stroke="midnightblue" points="547.11,-105.28 552.1,-95.94 542.37,-100.13 547.11,-105.28"/>
</g>
<!-- Node4 -->
<g id="node4" class="node">
<title>Node4</title>
<g id="a_node4"><a xlink:href="class_item_u_i.html#a7989b50db532215f7732954841b6ae4d" target="_top" xlink:title=" ">
<polygon fill="white" stroke="black" points="178,-95.5 178,-114.5 261,-114.5 261,-95.5 178,-95.5"/>
<text text-anchor="middle" x="219.5" y="-102.5" font-family="Helvetica,sans-Serif" font-size="10.00">ItemUI.BuyItem</text>
</a>
</g>
</g>
<!-- Node2&#45;&gt;Node4 -->
<g id="edge3" class="edge">
<title>Node2&#45;&gt;Node4</title>
<path fill="none" stroke="midnightblue" d="M506.45,-89.09C437.71,-92.92 322.29,-99.34 261.23,-102.73"/>
<polygon fill="midnightblue" stroke="midnightblue" points="506.86,-92.57 516.65,-88.52 506.47,-85.58 506.86,-92.57"/>
</g>
<!-- Node6 -->
<g id="node6" class="node">
<title>Node6</title>
<g id="a_node6"><a xlink:href="class_inventory.html#a22aa6615c02eff40c88a48c96905e962" target="_top" xlink:title=" ">
<polygon fill="white" stroke="black" points="356.5,-114.5 356.5,-133.5 450.5,-133.5 450.5,-114.5 356.5,-114.5"/>
<text text-anchor="middle" x="403.5" y="-121.5" font-family="Helvetica,sans-Serif" font-size="10.00">Inventory.BuyItem</text>
</a>
</g>
</g>
<!-- Node2&#45;&gt;Node6 -->
<g id="edge5" class="edge">
<title>Node2&#45;&gt;Node6</title>
<path fill="none" stroke="midnightblue" d="M512.4,-97.97C490.32,-103.29 464.7,-109.48 443.96,-114.48"/>
<polygon fill="midnightblue" stroke="midnightblue" points="513.36,-101.34 522.26,-95.59 511.71,-94.53 513.36,-101.34"/>
</g>
<!-- Node7 -->
<g id="node7" class="node">
<title>Node7</title>
<g id="a_node7"><a xlink:href="class_current_item_shop.html#a96327722769d2770bdf5cebc78efbb03" target="_top" xlink:title=" ">
<polygon fill="white" stroke="black" points="326,-38.5 326,-57.5 481,-57.5 481,-38.5 326,-38.5"/>
<text text-anchor="middle" x="403.5" y="-45.5" font-family="Helvetica,sans-Serif" font-size="10.00">CurrentItemShop.CheckBuyable</text>
</a>
</g>
</g>
<!-- Node2&#45;&gt;Node7 -->
<g id="edge8" class="edge">
<title>Node2&#45;&gt;Node7</title>
<path fill="none" stroke="midnightblue" d="M512.4,-74.03C490.32,-68.71 464.7,-62.52 443.96,-57.52"/>
<polygon fill="midnightblue" stroke="midnightblue" points="511.71,-77.47 522.26,-76.41 513.36,-70.66 511.71,-77.47"/>
</g>
<!-- Node9 -->
<g id="node9" class="node">
<title>Node9</title>
<g id="a_node9"><a xlink:href="class_item_u_i.html#aea5d8c789ccc8a8f0b2df526321f7b5e" target="_top" xlink:title=" ">
<polygon fill="white" stroke="black" points="348.5,-0.5 348.5,-19.5 458.5,-19.5 458.5,-0.5 348.5,-0.5"/>
<text text-anchor="middle" x="403.5" y="-7.5" font-family="Helvetica,sans-Serif" font-size="10.00">ItemUI.CheckBuyable</text>
</a>
</g>
</g>
<!-- Node2&#45;&gt;Node9 -->
<g id="edge10" class="edge">
<title>Node2&#45;&gt;Node9</title>
<path fill="none" stroke="midnightblue" d="M543.43,-69.9C527.76,-57.09 504.23,-39.61 481,-29 472.66,-25.19 463.44,-22.08 454.38,-19.55"/>
<polygon fill="midnightblue" stroke="midnightblue" points="541.36,-72.73 551.28,-76.46 545.86,-67.36 541.36,-72.73"/>
</g>
<!-- Node5 -->
<g id="node5" class="node">
<title>Node5</title>
<g id="a_node5"><a xlink:href="class_item_u_i.html#a2b89b23e671541d302225044a9d9de6f" target="_top" xlink:title=" ">
<polygon fill="white" stroke="black" points="0,-95.5 0,-114.5 113,-114.5 113,-95.5 0,-95.5"/>
<text text-anchor="middle" x="56.5" y="-102.5" font-family="Helvetica,sans-Serif" font-size="10.00">ItemUI.OnPointerClick</text>
</a>
</g>
</g>
<!-- Node4&#45;&gt;Node5 -->
<g id="edge4" class="edge">
<title>Node4&#45;&gt;Node5</title>
<path fill="none" stroke="midnightblue" d="M167.4,-105C150.08,-105 130.66,-105 113.01,-105"/>
<polygon fill="midnightblue" stroke="midnightblue" points="167.87,-108.5 177.87,-105 167.87,-101.5 167.87,-108.5"/>
</g>
<!-- Node6&#45;&gt;Node3 -->
<g id="edge6" class="edge">
<title>Node6&#45;&gt;Node3</title>
<path fill="none" stroke="midnightblue" d="M346.1,-132.68C325.86,-135.79 302.94,-139.32 282.27,-142.5"/>
<polygon fill="midnightblue" stroke="midnightblue" points="346.75,-136.12 356.1,-131.14 345.69,-129.2 346.75,-136.12"/>
</g>
<!-- Node6&#45;&gt;Node4 -->
<g id="edge7" class="edge">
<title>Node6&#45;&gt;Node4</title>
<path fill="none" stroke="midnightblue" d="M345.86,-118.09C318.46,-115.23 286.18,-111.86 261.24,-109.25"/>
<polygon fill="midnightblue" stroke="midnightblue" points="345.79,-121.6 356.1,-119.16 346.52,-114.64 345.79,-121.6"/>
</g>
<!-- Node8 -->
<g id="node8" class="node">
<title>Node8</title>
<g id="a_node8"><a xlink:href="class_shop.html#a41ec87cc228509d14232052a67281eb7" target="_top" xlink:title=" ">
<polygon fill="white" stroke="black" points="183,-19.5 183,-38.5 256,-38.5 256,-19.5 183,-19.5"/>
<text text-anchor="middle" x="219.5" y="-26.5" font-family="Helvetica,sans-Serif" font-size="10.00">Shop.Update</text>
</a>
</g>
</g>
<!-- Node7&#45;&gt;Node8 -->
<g id="edge9" class="edge">
<title>Node7&#45;&gt;Node8</title>
<path fill="none" stroke="midnightblue" d="M315.62,-38.93C294.7,-36.75 273.49,-34.53 256.42,-32.75"/>
<polygon fill="midnightblue" stroke="midnightblue" points="315.53,-42.44 325.84,-40 316.26,-35.48 315.53,-42.44"/>
</g>
<!-- Node9&#45;&gt;Node8 -->
<g id="edge11" class="edge">
<title>Node9&#45;&gt;Node8</title>
<path fill="none" stroke="midnightblue" d="M338.38,-16.69C310.72,-19.58 279.41,-22.85 256.01,-25.29"/>
<polygon fill="midnightblue" stroke="midnightblue" points="338.8,-20.17 348.39,-15.65 338.08,-13.21 338.8,-20.17"/>
</g>
</g>
</svg>
