<?xml version="1.0" encoding="UTF-8" standalone="no"?>
<!DOCTYPE svg PUBLIC "-//W3C//DTD SVG 1.1//EN"
 "http://www.w3.org/Graphics/SVG/1.1/DTD/svg11.dtd">
<!-- Generated by graphviz version 2.47.3 (20210619.1520)
 -->
<!-- Title: UIController.CalculateFillAmount Pages: 1 -->
<!--zoomable 317 -->
<svg id="main" version="1.1" xmlns="http://www.w3.org/2000/svg" xmlns:xlink="http://www.w3.org/1999/xlink" xml:space="preserve" onload="init(evt)">
<style type="text/css"><![CDATA[
.edge:hover path { stroke: red; }
.edge:hover polygon { stroke: red; fill: red; }
]]></style>
<script type="text/javascript"><![CDATA[
var edges = document.getElementsByTagName('g');
if (edges && edges.length) {
  for (var i=0;i<edges.length;i++) {
    if (edges[i].id.substr(0,4)=='edge') {
      edges[i].setAttribute('class','edge');
    }
  }
}
]]></script>
        <defs>
                <circle id="rim" cx="0" cy="0" r="7"/>
                <circle id="rim2" cx="0" cy="0" r="3.5"/>
                <g id="zoomPlus">
                        <use xlink:href="#rim" fill="#404040">
                                <set attributeName="fill" to="#808080" begin="zoomplus.mouseover" end="zoomplus.mouseout"/>
                        </use>
                        <path d="M-4,0h8M0,-4v8" fill="none" stroke="white" stroke-width="1.5" pointer-events="none"/>
                </g>
                <g id="zoomMin">
                        <use xlink:href="#rim" fill="#404040">
                                <set attributeName="fill" to="#808080" begin="zoomminus.mouseover" end="zoomminus.mouseout"/>
                        </use>
                        <path d="M-4,0h8" fill="none" stroke="white" stroke-width="1.5" pointer-events="none"/>
                </g>
                <g id="dirArrow">
                        <path fill="none" stroke="white" stroke-width="1.5" d="M0,-3.0v7 M-2.5,-0.5L0,-3.0L2.5,-0.5"/>
                </g>
               <g id="resetDef">
                       <use xlink:href="#rim2" fill="#404040">
                               <set attributeName="fill" to="#808080" begin="reset.mouseover" end="reset.mouseout"/>
                       </use>
               </g>
        </defs>

<script type="text/javascript">
var viewWidth = 1270;
var viewHeight = 317;
var sectionId = 'dynsection-2';
</script>
<script xlink:href="svgpan.js"/>
<svg id="graph" class="graph">
<g id="viewport">
<title>UIController.CalculateFillAmount</title>
<polygon fill="white" stroke="transparent" points="-4,4 -4,-312.5 1266,-312.5 1266,4 -4,4"/>
<!-- Node1 -->
<g id="node1" class="node">
<title>Node1</title>
<g id="a_node1"><a xlink:title="Calculates the actual normalized fill amount for the image.">
<polygon fill="#bfbfbf" stroke="black" points="1139,-155 1139,-185 1262,-185 1262,-155 1139,-155"/>
<text text-anchor="start" x="1147" y="-173" font-family="Helvetica,sans-Serif" font-size="10.00">UIController.CalculateFill</text>
<text text-anchor="middle" x="1200.5" y="-162" font-family="Helvetica,sans-Serif" font-size="10.00">Amount</text>
</a>
</g>
</g>
<!-- Node2 -->
<g id="node2" class="node">
<title>Node2</title>
<g id="a_node2"><a xlink:href="class_minion_u_i_controller.xhtml#a9042cfa3430e60cf37cf0e0797692742" target="_top" xlink:title="Updates the current HP of the entity.">
<polygon fill="white" stroke="black" points="974,-278 974,-308 1103,-308 1103,-278 974,-278"/>
<text text-anchor="start" x="982" y="-296" font-family="Helvetica,sans-Serif" font-size="10.00">MinionUIController.Update</text>
<text text-anchor="middle" x="1038.5" y="-285" font-family="Helvetica,sans-Serif" font-size="10.00">CurrentHP</text>
</a>
</g>
</g>
<!-- Node1&#45;&gt;Node2 -->
<g id="edge1" class="edge">
<title>Node1&#45;&gt;Node2</title>
<path fill="none" stroke="midnightblue" d="M1182.09,-192.98C1164.32,-215.08 1134.87,-248.13 1103,-269 1097.87,-272.36 1092.21,-275.34 1086.44,-277.96"/>
<polygon fill="midnightblue" stroke="midnightblue" points="1184.87,-195.11 1188.32,-185.09 1179.37,-190.78 1184.87,-195.11"/>
</g>
<!-- Node4 -->
<g id="node4" class="node">
<title>Node4</title>
<g id="a_node4"><a xlink:href="class_nexus_u_i_controller.xhtml#ae447bcfebc5992515b4ff2b8ffb3a0e2" target="_top" xlink:title="Updates the current HP of the entity.">
<polygon fill="white" stroke="black" points="974.5,-229 974.5,-259 1102.5,-259 1102.5,-229 974.5,-229"/>
<text text-anchor="start" x="982.5" y="-247" font-family="Helvetica,sans-Serif" font-size="10.00">NexusUIController.Update</text>
<text text-anchor="middle" x="1038.5" y="-236" font-family="Helvetica,sans-Serif" font-size="10.00">CurrentHP</text>
</a>
</g>
</g>
<!-- Node1&#45;&gt;Node4 -->
<g id="edge3" class="edge">
<title>Node1&#45;&gt;Node4</title>
<path fill="none" stroke="midnightblue" d="M1163.5,-189.92C1145.56,-199.52 1123.4,-210.9 1103,-220 1096.11,-223.07 1088.7,-226.11 1081.45,-228.94"/>
<polygon fill="midnightblue" stroke="midnightblue" points="1165.32,-192.92 1172.46,-185.09 1162,-186.76 1165.32,-192.92"/>
</g>
<!-- Node6 -->
<g id="node6" class="node">
<title>Node6</title>
<g id="a_node6"><a xlink:href="class_player_u_i_controller.xhtml#aca577b724c1f3f2ed54ad1165a7842c2" target="_top" xlink:title="Sets the current HP value to the Image.">
<polygon fill="white" stroke="black" points="974.5,-180 974.5,-210 1102.5,-210 1102.5,-180 974.5,-180"/>
<text text-anchor="start" x="982.5" y="-198" font-family="Helvetica,sans-Serif" font-size="10.00">PlayerUIController.Update</text>
<text text-anchor="middle" x="1038.5" y="-187" font-family="Helvetica,sans-Serif" font-size="10.00">CurrentHP</text>
</a>
</g>
</g>
<!-- Node1&#45;&gt;Node6 -->
<g id="edge5" class="edge">
<title>Node1&#45;&gt;Node6</title>
<path fill="none" stroke="midnightblue" d="M1128.53,-181.09C1119.92,-182.44 1111.16,-183.8 1102.67,-185.13"/>
<polygon fill="midnightblue" stroke="midnightblue" points="1129.21,-184.52 1138.55,-179.52 1128.13,-177.61 1129.21,-184.52"/>
</g>
<!-- Node11 -->
<g id="node11" class="node">
<title>Node11</title>
<g id="a_node11"><a xlink:href="class_player_u_i_controller.xhtml#adadd54ec10a1236aa7c08022d27fa068" target="_top" xlink:title="Sets the current level and xp to the Image.">
<polygon fill="white" stroke="black" points="974.5,-131 974.5,-161 1102.5,-161 1102.5,-131 974.5,-131"/>
<text text-anchor="start" x="982.5" y="-149" font-family="Helvetica,sans-Serif" font-size="10.00">PlayerUIController.Update</text>
<text text-anchor="middle" x="1038.5" y="-138" font-family="Helvetica,sans-Serif" font-size="10.00">CurrentLevel</text>
</a>
</g>
</g>
<!-- Node1&#45;&gt;Node11 -->
<g id="edge11" class="edge">
<title>Node1&#45;&gt;Node11</title>
<path fill="none" stroke="midnightblue" d="M1128.53,-159.35C1119.92,-158.06 1111.16,-156.75 1102.67,-155.48"/>
<polygon fill="midnightblue" stroke="midnightblue" points="1128.15,-162.84 1138.55,-160.86 1129.18,-155.91 1128.15,-162.84"/>
</g>
<!-- Node12 -->
<g id="node12" class="node">
<title>Node12</title>
<g id="a_node12"><a xlink:href="class_player_u_i_controller.xhtml#ac7bf7455ce00b144f6a1678e524819b2" target="_top" xlink:title="Sets the current MP value to the Image.">
<polygon fill="white" stroke="black" points="974.5,-82 974.5,-112 1102.5,-112 1102.5,-82 974.5,-82"/>
<text text-anchor="start" x="982.5" y="-100" font-family="Helvetica,sans-Serif" font-size="10.00">PlayerUIController.Update</text>
<text text-anchor="middle" x="1038.5" y="-89" font-family="Helvetica,sans-Serif" font-size="10.00">CurrentMana</text>
</a>
</g>
</g>
<!-- Node1&#45;&gt;Node12 -->
<g id="edge12" class="edge">
<title>Node1&#45;&gt;Node12</title>
<path fill="none" stroke="midnightblue" d="M1161.31,-150.05C1143.73,-141.11 1122.48,-130.66 1103,-122 1095.42,-118.63 1087.24,-115.24 1079.35,-112.08"/>
<polygon fill="midnightblue" stroke="midnightblue" points="1160.18,-153.4 1170.67,-154.84 1163.37,-147.17 1160.18,-153.4"/>
</g>
<!-- Node15 -->
<g id="node15" class="node">
<title>Node15</title>
<g id="a_node15"><a xlink:href="class_player_u_i_controller.xhtml#aacc9f1b78d9e1adab16f8fc2ec246dfb" target="_top" xlink:title=" ">
<polygon fill="white" stroke="black" points="974.5,-33 974.5,-63 1102.5,-63 1102.5,-33 974.5,-33"/>
<text text-anchor="start" x="982.5" y="-51" font-family="Helvetica,sans-Serif" font-size="10.00">PlayerUIController.Update</text>
<text text-anchor="middle" x="1038.5" y="-40" font-family="Helvetica,sans-Serif" font-size="10.00">MaxHP</text>
</a>
</g>
</g>
<!-- Node1&#45;&gt;Node15 -->
<g id="edge15" class="edge">
<title>Node1&#45;&gt;Node15</title>
<path fill="none" stroke="midnightblue" d="M1181.4,-146.95C1163.45,-125.38 1134.19,-93.5 1103,-73 1097.36,-69.29 1091.08,-65.99 1084.73,-63.11"/>
<polygon fill="midnightblue" stroke="midnightblue" points="1178.89,-149.41 1187.92,-154.94 1184.31,-144.98 1178.89,-149.41"/>
</g>
<!-- Node3 -->
<g id="node3" class="node">
<title>Node3</title>
<g id="a_node3"><a xlink:href="class_minion_stats.xhtml#ad1a8cab09c44cd06629a2dbe924c83ff" target="_top" xlink:title=" ">
<polygon fill="white" stroke="black" points="791,-283.5 791,-302.5 938,-302.5 938,-283.5 791,-283.5"/>
<text text-anchor="middle" x="864.5" y="-290.5" font-family="Helvetica,sans-Serif" font-size="10.00">MinionStats.DealDamageRPC</text>
</a>
</g>
</g>
<!-- Node2&#45;&gt;Node3 -->
<g id="edge2" class="edge">
<title>Node2&#45;&gt;Node3</title>
<path fill="none" stroke="midnightblue" d="M963.69,-293C955.2,-293 946.55,-293 938.08,-293"/>
<polygon fill="midnightblue" stroke="midnightblue" points="963.94,-296.5 973.94,-293 963.94,-289.5 963.94,-296.5"/>
</g>
<!-- Node5 -->
<g id="node5" class="node">
<title>Node5</title>
<g id="a_node5"><a xlink:href="class_nexus_stats.xhtml#ae804a5fa576e7252285f85ff03aa0615" target="_top" xlink:title=" ">
<polygon fill="white" stroke="black" points="791.5,-234.5 791.5,-253.5 937.5,-253.5 937.5,-234.5 791.5,-234.5"/>
<text text-anchor="middle" x="864.5" y="-241.5" font-family="Helvetica,sans-Serif" font-size="10.00">NexusStats.DealDamageRPC</text>
</a>
</g>
</g>
<!-- Node4&#45;&gt;Node5 -->
<g id="edge4" class="edge">
<title>Node4&#45;&gt;Node5</title>
<path fill="none" stroke="midnightblue" d="M964.19,-244C955.37,-244 946.38,-244 937.58,-244"/>
<polygon fill="midnightblue" stroke="midnightblue" points="964.43,-247.5 974.43,-244 964.43,-240.5 964.43,-247.5"/>
</g>
<!-- Node7 -->
<g id="node7" class="node">
<title>Node7</title>
<g id="a_node7"><a xlink:href="class_player_stats.xhtml#a6542a649dfb0cccc9fe329c83024e3ed" target="_top" xlink:title=" ">
<polygon fill="white" stroke="black" points="281,-177.5 281,-196.5 427,-196.5 427,-177.5 281,-177.5"/>
<text text-anchor="middle" x="354" y="-184.5" font-family="Helvetica,sans-Serif" font-size="10.00">PlayerStats.DealDamageRPC</text>
</a>
</g>
</g>
<!-- Node6&#45;&gt;Node7 -->
<g id="edge6" class="edge">
<title>Node6&#45;&gt;Node7</title>
<path fill="none" stroke="midnightblue" d="M963.83,-194.14C832.1,-192.59 557.81,-189.38 427.17,-187.85"/>
<polygon fill="midnightblue" stroke="midnightblue" points="964.17,-197.64 974.21,-194.26 964.25,-190.64 964.17,-197.64"/>
</g>
<!-- Node8 -->
<g id="node8" class="node">
<title>Node8</title>
<g id="a_node8"><a xlink:href="class_player_stats.xhtml#a07cb6a60391d769fea03f1bc3b6927c6" target="_top" xlink:title=" ">
<polygon fill="white" stroke="black" points="809.5,-158.5 809.5,-177.5 919.5,-177.5 919.5,-158.5 809.5,-158.5"/>
<text text-anchor="middle" x="864.5" y="-165.5" font-family="Helvetica,sans-Serif" font-size="10.00">PlayerStats.HealRPC</text>
</a>
</g>
</g>
<!-- Node6&#45;&gt;Node8 -->
<g id="edge7" class="edge">
<title>Node6&#45;&gt;Node8</title>
<path fill="none" stroke="midnightblue" d="M964.16,-183.49C949.17,-181.13 933.66,-178.7 919.5,-176.48"/>
<polygon fill="midnightblue" stroke="midnightblue" points="964.01,-187.01 974.43,-185.1 965.09,-180.09 964.01,-187.01"/>
</g>
<!-- Node9 -->
<g id="node9" class="node">
<title>Node9</title>
<g id="a_node9"><a xlink:href="class_player_stats.xhtml#a27fb46ca044608f34db45eb95ac16b4c" target="_top" xlink:title=" ">
<polygon fill="white" stroke="black" points="634.5,-158.5 634.5,-177.5 744.5,-177.5 744.5,-158.5 634.5,-158.5"/>
<text text-anchor="middle" x="689.5" y="-165.5" font-family="Helvetica,sans-Serif" font-size="10.00">PlayerStats.Respawn</text>
</a>
</g>
</g>
<!-- Node8&#45;&gt;Node9 -->
<g id="edge8" class="edge">
<title>Node8&#45;&gt;Node9</title>
<path fill="none" stroke="midnightblue" d="M799.14,-168C781.18,-168 761.87,-168 744.57,-168"/>
<polygon fill="midnightblue" stroke="midnightblue" points="799.24,-171.5 809.24,-168 799.24,-164.5 799.24,-171.5"/>
</g>
<!-- Node10 -->
<g id="node10" class="node">
<title>Node10</title>
<g id="a_node10"><a xlink:href="class_player_stats.xhtml#a5caca2bd8f676341a2b269aea8a0f1ff" target="_top" xlink:title="Function that implements what is done when this entity dies.">
<polygon fill="white" stroke="black" points="483,-158.5 483,-177.5 568,-177.5 568,-158.5 483,-158.5"/>
<text text-anchor="middle" x="525.5" y="-165.5" font-family="Helvetica,sans-Serif" font-size="10.00">PlayerStats.Die</text>
</a>
</g>
</g>
<!-- Node9&#45;&gt;Node10 -->
<g id="edge9" class="edge">
<title>Node9&#45;&gt;Node10</title>
<path fill="none" stroke="midnightblue" d="M624.1,-168C605.28,-168 585.21,-168 568.2,-168"/>
<polygon fill="midnightblue" stroke="midnightblue" points="624.11,-171.5 634.11,-168 624.11,-164.5 624.11,-171.5"/>
</g>
<!-- Node10&#45;&gt;Node7 -->
<g id="edge10" class="edge">
<title>Node10&#45;&gt;Node7</title>
<path fill="none" stroke="midnightblue" d="M472.46,-173.83C458.14,-175.44 442.34,-177.21 427.1,-178.92"/>
<polygon fill="midnightblue" stroke="midnightblue" points="473.05,-177.29 482.6,-172.7 472.27,-170.33 473.05,-177.29"/>
</g>
<!-- Node13 -->
<g id="node13" class="node">
<title>Node13</title>
<g id="a_node13"><a xlink:href="class_player_stats.xhtml#a0348bfd846a1fb5122239414e9ec558b" target="_top" xlink:title=" ">
<polygon fill="white" stroke="black" points="793,-120.5 793,-139.5 936,-139.5 936,-120.5 793,-120.5"/>
<text text-anchor="middle" x="864.5" y="-127.5" font-family="Helvetica,sans-Serif" font-size="10.00">PlayerStats.RegenManaRPC</text>
</a>
</g>
</g>
<!-- Node12&#45;&gt;Node13 -->
<g id="edge13" class="edge">
<title>Node12&#45;&gt;Node13</title>
<path fill="none" stroke="midnightblue" d="M964.22,-111.06C947.64,-114.24 930.42,-117.54 915.1,-120.48"/>
<polygon fill="midnightblue" stroke="midnightblue" points="965.27,-114.42 974.43,-109.1 963.95,-107.55 965.27,-114.42"/>
</g>
<!-- Node14 -->
<g id="node14" class="node">
<title>Node14</title>
<g id="a_node14"><a xlink:href="class_player_stats.xhtml#adb29a13d34d6e2880a34d67340b8b74a" target="_top" xlink:title=" ">
<polygon fill="white" stroke="black" points="793,-82.5 793,-101.5 936,-101.5 936,-82.5 793,-82.5"/>
<text text-anchor="middle" x="864.5" y="-89.5" font-family="Helvetica,sans-Serif" font-size="10.00">PlayerStats.SpendManaRPC</text>
</a>
</g>
</g>
<!-- Node12&#45;&gt;Node14 -->
<g id="edge14" class="edge">
<title>Node12&#45;&gt;Node14</title>
<path fill="none" stroke="midnightblue" d="M964.37,-94.87C955.01,-94.6 945.44,-94.32 936.11,-94.05"/>
<polygon fill="midnightblue" stroke="midnightblue" points="964.33,-98.37 974.43,-95.17 964.54,-91.38 964.33,-98.37"/>
</g>
<!-- Node16 -->
<g id="node16" class="node">
<title>Node16</title>
<g id="a_node16"><a xlink:href="class_player_u_i_controller.xhtml#aa5b61a93967fa5ce39bfd950a9e9d584" target="_top" xlink:title="Initializes all the values into the Image and Text.">
<polygon fill="white" stroke="black" points="798,-33 798,-63 931,-63 931,-33 798,-33"/>
<text text-anchor="start" x="806" y="-51" font-family="Helvetica,sans-Serif" font-size="10.00">PlayerUIController.Initialize</text>
<text text-anchor="middle" x="864.5" y="-40" font-family="Helvetica,sans-Serif" font-size="10.00">Values</text>
</a>
</g>
</g>
<!-- Node15&#45;&gt;Node16 -->
<g id="edge16" class="edge">
<title>Node15&#45;&gt;Node16</title>
<path fill="none" stroke="midnightblue" d="M964.4,-48C953.36,-48 942.03,-48 931.16,-48"/>
<polygon fill="midnightblue" stroke="midnightblue" points="964.43,-51.5 974.43,-48 964.43,-44.5 964.43,-51.5"/>
</g>
<!-- Node17 -->
<g id="node17" class="node">
<title>Node17</title>
<g id="a_node17"><a xlink:href="class_player_u_i_controller.xhtml#ab6ed746dec17fdf763bc4ec1d713db7f" target="_top" xlink:title="Initializes all the values and colors for this Player.">
<polygon fill="white" stroke="black" points="624,-38.5 624,-57.5 755,-57.5 755,-38.5 624,-38.5"/>
<text text-anchor="middle" x="689.5" y="-45.5" font-family="Helvetica,sans-Serif" font-size="10.00">PlayerUIController.Initalize</text>
</a>
</g>
</g>
<!-- Node16&#45;&gt;Node17 -->
<g id="edge17" class="edge">
<title>Node16&#45;&gt;Node17</title>
<path fill="none" stroke="midnightblue" d="M787.36,-48C776.59,-48 765.6,-48 755.07,-48"/>
<polygon fill="midnightblue" stroke="midnightblue" points="787.6,-51.5 797.6,-48 787.6,-44.5 787.6,-51.5"/>
</g>
<!-- Node18 -->
<g id="node18" class="node">
<title>Node18</title>
<g id="a_node18"><a xlink:href="class_mannequin_stats.xhtml#a37606eeeec31415945d8e152af0f7e15" target="_top" xlink:title=" ">
<polygon fill="white" stroke="black" points="463,-57.5 463,-76.5 588,-76.5 588,-57.5 463,-57.5"/>
<text text-anchor="middle" x="525.5" y="-64.5" font-family="Helvetica,sans-Serif" font-size="10.00">MannequinStats.Initialize</text>
</a>
</g>
</g>
<!-- Node17&#45;&gt;Node18 -->
<g id="edge18" class="edge">
<title>Node17&#45;&gt;Node18</title>
<path fill="none" stroke="midnightblue" d="M613.58,-56.79C605.03,-57.79 596.4,-58.8 588.05,-59.78"/>
<polygon fill="midnightblue" stroke="midnightblue" points="614.02,-60.26 623.54,-55.62 613.2,-53.31 614.02,-60.26"/>
</g>
<!-- Node20 -->
<g id="node20" class="node">
<title>Node20</title>
<g id="a_node20"><a xlink:href="class_player_stats.xhtml#a5e274804959d13db76f140e8efcf9411" target="_top" xlink:title="Initialize the actual Stats of the Player.">
<polygon fill="white" stroke="black" points="472.5,-19.5 472.5,-38.5 578.5,-38.5 578.5,-19.5 472.5,-19.5"/>
<text text-anchor="middle" x="525.5" y="-26.5" font-family="Helvetica,sans-Serif" font-size="10.00">PlayerStats.Initialize</text>
</a>
</g>
</g>
<!-- Node17&#45;&gt;Node20 -->
<g id="edge20" class="edge">
<title>Node17&#45;&gt;Node20</title>
<path fill="none" stroke="midnightblue" d="M613.28,-39.18C601.52,-37.8 589.6,-36.4 578.52,-35.1"/>
<polygon fill="midnightblue" stroke="midnightblue" points="613.2,-42.69 623.54,-40.38 614.02,-35.74 613.2,-42.69"/>
</g>
<!-- Node19 -->
<g id="node19" class="node">
<title>Node19</title>
<g id="a_node19"><a xlink:href="class_mannequin.xhtml#af638d1036ae3aee689fe03b43cea0df5" target="_top" xlink:title=" ">
<polygon fill="white" stroke="black" points="310,-57.5 310,-76.5 398,-76.5 398,-57.5 310,-57.5"/>
<text text-anchor="middle" x="354" y="-64.5" font-family="Helvetica,sans-Serif" font-size="10.00">Mannequin.Start</text>
</a>
</g>
</g>
<!-- Node18&#45;&gt;Node19 -->
<g id="edge19" class="edge">
<title>Node18&#45;&gt;Node19</title>
<path fill="none" stroke="midnightblue" d="M452.62,-67C434.05,-67 414.64,-67 398.06,-67"/>
<polygon fill="midnightblue" stroke="midnightblue" points="452.83,-70.5 462.83,-67 452.83,-63.5 452.83,-70.5"/>
</g>
<!-- Node21 -->
<g id="node21" class="node">
<title>Node21</title>
<g id="a_node21"><a xlink:href="class_player_controller.xhtml#a75e94e4fd555e57e55ab4b7e54024dcf" target="_top" xlink:title="Initialize the PlayerController.">
<polygon fill="white" stroke="black" points="292,-19.5 292,-38.5 416,-38.5 416,-19.5 292,-19.5"/>
<text text-anchor="middle" x="354" y="-26.5" font-family="Helvetica,sans-Serif" font-size="10.00">PlayerController.Initialize</text>
</a>
</g>
</g>
<!-- Node20&#45;&gt;Node21 -->
<g id="edge21" class="edge">
<title>Node20&#45;&gt;Node21</title>
<path fill="none" stroke="midnightblue" d="M462.09,-29C447.14,-29 431.18,-29 416.28,-29"/>
<polygon fill="midnightblue" stroke="midnightblue" points="462.26,-32.5 472.26,-29 462.26,-25.5 462.26,-32.5"/>
</g>
<!-- Node22 -->
<g id="node22" class="node">
<title>Node22</title>
<g id="a_node22"><a xlink:href="class_model_sync.xhtml#ab8359f73ae31a7f926c80ebcd7e9444a" target="_top" xlink:title="This starts all the initialization chain for the player.">
<polygon fill="white" stroke="black" points="135,-19.5 135,-38.5 245,-38.5 245,-19.5 135,-19.5"/>
<text text-anchor="middle" x="190" y="-26.5" font-family="Helvetica,sans-Serif" font-size="10.00">ModelSync.DoEnable</text>
</a>
</g>
</g>
<!-- Node21&#45;&gt;Node22 -->
<g id="edge22" class="edge">
<title>Node21&#45;&gt;Node22</title>
<path fill="none" stroke="midnightblue" d="M281.58,-29C269.36,-29 256.84,-29 245.16,-29"/>
<polygon fill="midnightblue" stroke="midnightblue" points="281.75,-32.5 291.75,-29 281.75,-25.5 281.75,-32.5"/>
</g>
<!-- Node23 -->
<g id="node23" class="node">
<title>Node23</title>
<g id="a_node23"><a xlink:href="class_model_sync.xhtml#a47be08ee3bbd2a173514e74da3dd65cb" target="_top" xlink:title=" ">
<polygon fill="white" stroke="black" points="5,-38.5 5,-57.5 94,-57.5 94,-38.5 5,-38.5"/>
<text text-anchor="middle" x="49.5" y="-45.5" font-family="Helvetica,sans-Serif" font-size="10.00">ModelSync.Start</text>
</a>
</g>
</g>
<!-- Node22&#45;&gt;Node23 -->
<g id="edge23" class="edge">
<title>Node22&#45;&gt;Node23</title>
<path fill="none" stroke="midnightblue" d="M124.54,-37.84C114.35,-39.24 104.01,-40.66 94.43,-41.97"/>
<polygon fill="midnightblue" stroke="midnightblue" points="125.23,-41.28 134.66,-36.45 124.28,-34.35 125.23,-41.28"/>
</g>
<!-- Node24 -->
<g id="node24" class="node">
<title>Node24</title>
<g id="a_node24"><a xlink:href="class_model_sync.xhtml#abf63af5a901636617cb742aab24c4d6f" target="_top" xlink:title=" ">
<polygon fill="white" stroke="black" points="0,-0.5 0,-19.5 99,-19.5 99,-0.5 0,-0.5"/>
<text text-anchor="middle" x="49.5" y="-7.5" font-family="Helvetica,sans-Serif" font-size="10.00">ModelSync.Update</text>
</a>
</g>
</g>
<!-- Node22&#45;&gt;Node24 -->
<g id="edge24" class="edge">
<title>Node22&#45;&gt;Node24</title>
<path fill="none" stroke="midnightblue" d="M124.7,-20.18C116.15,-19.01 107.51,-17.82 99.28,-16.69"/>
<polygon fill="midnightblue" stroke="midnightblue" points="124.28,-23.65 134.66,-21.55 125.23,-16.72 124.28,-23.65"/>
</g>
</g>
</svg>
        <g id="navigator" transform="translate(0 0)" fill="#404254">
                <rect fill="#f2f5e9" fill-opacity="0.5" stroke="#606060" stroke-width=".5" x="0" y="0" width="60" height="60"/>
                <use id="zoomplus" xlink:href="#zoomPlus" x="17" y="9" onmousedown="handleZoom(evt,'in')"/>
                <use id="zoomminus" xlink:href="#zoomMin" x="42" y="9" onmousedown="handleZoom(evt,'out')"/>
                <use id="reset" xlink:href="#resetDef" x="30" y="36" onmousedown="handleReset()"/>
                <g id="arrowUp" xlink:href="#dirArrow" transform="translate(30 24)" onmousedown="handlePan(0,-1)">
                  <use xlink:href="#rim" fill="#404040">
                        <set attributeName="fill" to="#808080" begin="arrowUp.mouseover" end="arrowUp.mouseout"/>
                  </use>
                  <path fill="none" stroke="white" stroke-width="1.5" d="M0,-3.0v7 M-2.5,-0.5L0,-3.0L2.5,-0.5"/>
                </g>
                <g id="arrowRight" xlink:href="#dirArrow" transform="rotate(90) translate(36 -43)" onmousedown="handlePan(1,0)">
                  <use xlink:href="#rim" fill="#404040">
                        <set attributeName="fill" to="#808080" begin="arrowRight.mouseover" end="arrowRight.mouseout"/>
                  </use>
                  <path fill="none" stroke="white" stroke-width="1.5" d="M0,-3.0v7 M-2.5,-0.5L0,-3.0L2.5,-0.5"/>
                </g>
                <g id="arrowDown" xlink:href="#dirArrow" transform="rotate(180) translate(-30 -48)" onmousedown="handlePan(0,1)">
                  <use xlink:href="#rim" fill="#404040">
                        <set attributeName="fill" to="#808080" begin="arrowDown.mouseover" end="arrowDown.mouseout"/>
                  </use>
                  <path fill="none" stroke="white" stroke-width="1.5" d="M0,-3.0v7 M-2.5,-0.5L0,-3.0L2.5,-0.5"/>
                </g>
                <g id="arrowLeft" xlink:href="#dirArrow" transform="rotate(270) translate(-36 17)" onmousedown="handlePan(-1,0)">
                  <use xlink:href="#rim" fill="#404040">
                        <set attributeName="fill" to="#808080" begin="arrowLeft.mouseover" end="arrowLeft.mouseout"/>
                  </use>
                  <path fill="none" stroke="white" stroke-width="1.5" d="M0,-3.0v7 M-2.5,-0.5L0,-3.0L2.5,-0.5"/>
                </g>
        </g>
        <svg viewBox="0 0 15 15" width="100%" height="30px" preserveAspectRatio="xMaxYMin meet">
         <g id="arrow_out" transform="scale(0.3 0.3)">
          <a xlink:href="class_u_i_controller_a7d7833a7840917741dbc8c4a83dbe918_icgraph_org.svg" target="_base">
           <rect id="button" ry="5" rx="5" y="6" x="6" height="38" width="38"
                fill="#f2f5e9" fill-opacity="0.5" stroke="#606060" stroke-width="1.0"/>
           <path id="arrow"
             d="M 11.500037,31.436501 C 11.940474,20.09759 22.043105,11.32322 32.158766,21.979434 L 37.068811,17.246167 C 37.068811,17.246167 37.088388,32 37.088388,32 L 22.160133,31.978069 C 22.160133,31.978069 26.997745,27.140456 26.997745,27.140456 C 18.528582,18.264221 13.291696,25.230495 11.500037,31.436501 z"
             style="fill:#404040;"/>
          </a>
         </g>
        </svg>
</svg>
