<?xml version="1.0" encoding="UTF-8" standalone="no"?>
<!DOCTYPE svg PUBLIC "-//W3C//DTD SVG 1.1//EN"
 "http://www.w3.org/Graphics/SVG/1.1/DTD/svg11.dtd">
<!-- Generated by graphviz version 2.47.3 (20210619.1520)
 -->
<!-- Title: Photon.Pun.PhotonAnimatorView.SerializeDataDiscretly Pages: 1 -->
<svg width="327pt" height="57pt"
 viewBox="0.00 0.00 327.00 57.00" xmlns="http://www.w3.org/2000/svg" xmlns:xlink="http://www.w3.org/1999/xlink">
<g id="graph0" class="graph" transform="scale(1 1) rotate(0) translate(4 53)">
<title>Photon.Pun.PhotonAnimatorView.SerializeDataDiscretly</title>
<polygon fill="white" stroke="transparent" points="-4,4 -4,-53 323,-53 323,4 -4,4"/>
<!-- Node1 -->
<g id="node1" class="node">
<title>Node1</title>
<g id="a_node1"><a xlink:title=" ">
<polygon fill="#bfbfbf" stroke="black" points="179,-0.5 179,-30.5 319,-30.5 319,-0.5 179,-0.5"/>
<text text-anchor="start" x="187" y="-18.5" font-family="Helvetica,sans-Serif" font-size="10.00">Photon.Pun.PhotonAnimator</text>
<text text-anchor="middle" x="249" y="-7.5" font-family="Helvetica,sans-Serif" font-size="10.00">View.SerializeDataDiscretly</text>
</a>
</g>
</g>
<!-- Node2 -->
<g id="node2" class="node">
<title>Node2</title>
<g id="a_node2"><a xlink:href="class_photon_1_1_pun_1_1_photon_animator_view.xhtml#a35a3d7a2cff101c804c6e71ea0df1a32" target="_top" xlink:title="Called by PUN several times per second, so that your script can write and read synchronization data f...">
<polygon fill="white" stroke="black" points="0,-0.5 0,-30.5 143,-30.5 143,-0.5 0,-0.5"/>
<text text-anchor="start" x="8" y="-18.5" font-family="Helvetica,sans-Serif" font-size="10.00">Photon.Pun.PhotonAnimator</text>
<text text-anchor="middle" x="71.5" y="-7.5" font-family="Helvetica,sans-Serif" font-size="10.00">View.OnPhotonSerializeView</text>
</a>
</g>
</g>
<!-- Node1&#45;&gt;Node2 -->
<g id="edge1" class="edge">
<title>Node1&#45;&gt;Node2</title>
<path fill="none" stroke="midnightblue" d="M168.65,-15.5C160.19,-15.5 151.63,-15.5 143.28,-15.5"/>
<polygon fill="midnightblue" stroke="midnightblue" points="168.89,-19 178.89,-15.5 168.89,-12 168.89,-19"/>
</g>
<!-- Node2&#45;&gt;Node2 -->
<g id="edge2" class="edge">
<title>Node2&#45;&gt;Node2</title>
<path fill="none" stroke="midnightblue" d="M102.77,-40.96C98.89,-45.68 88.47,-49 71.5,-49 43.66,-49 33.43,-40.06 40.83,-30.66"/>
<polygon fill="midnightblue" stroke="midnightblue" points="106.25,-40.44 102.17,-30.66 99.26,-40.85 106.25,-40.44"/>
</g>
</g>
</svg>
