<?xml version="1.0" encoding="UTF-8" standalone="no"?>
<!DOCTYPE svg PUBLIC "-//W3C//DTD SVG 1.1//EN"
 "http://www.w3.org/Graphics/SVG/1.1/DTD/svg11.dtd">
<!-- Generated by graphviz version 2.47.3 (20210619.1520)
 -->
<!-- Title: Utils.CalculateFillAmount Pages: 1 -->
<svg width="1299pt" height="464pt"
 viewBox="0.00 0.00 1299.00 463.50" xmlns="http://www.w3.org/2000/svg" xmlns:xlink="http://www.w3.org/1999/xlink">
<g id="graph0" class="graph" transform="scale(1 1) rotate(0) translate(4 459.5)">
<title>Utils.CalculateFillAmount</title>
<!-- Node1 -->
<g id="node1" class="node">
<title>Node1</title>
<g id="a_node1"><a xlink:title="Calculates the actual normalized fill amount for the image.">
<polygon fill="#bfbfbf" stroke="black" points="1165,-239.5 1165,-258.5 1291,-258.5 1291,-239.5 1165,-239.5"/>
<text text-anchor="middle" x="1228" y="-246.5" font-family="Helvetica,sans-Serif" font-size="10.00">Utils.CalculateFillAmount</text>
</a>
</g>
</g>
<!-- Node2 -->
<g id="node2" class="node">
<title>Node2</title>
<g id="a_node2"><a xlink:href="class_structure_u_i_controller.html#a440b6978d77790330878b47582fe43dc" target="_top" xlink:title="Updates the current HP of the entity.">
<polygon fill="none" stroke="black" points="981.5,-425 981.5,-455 1121.5,-455 1121.5,-425 981.5,-425"/>
<text text-anchor="start" x="989.5" y="-443" font-family="Helvetica,sans-Serif" font-size="10.00">StructureUIController.Update</text>
<text text-anchor="middle" x="1051.5" y="-432" font-family="Helvetica,sans-Serif" font-size="10.00">CurrentHP</text>
</a>
</g>
</g>
<!-- Node1&#45;&gt;Node2 -->
<g id="edge1" class="edge">
<title>Node1&#45;&gt;Node2</title>
<path fill="none" stroke="midnightblue" d="M1220.86,-268.43C1208.88,-303.2 1179.09,-376.15 1129,-416 1124.64,-419.47 1119.78,-422.44 1114.68,-424.98"/>
<polygon fill="midnightblue" stroke="midnightblue" points="1224.3,-269.17 1224.13,-258.57 1217.66,-266.96 1224.3,-269.17"/>
</g>
<!-- Node3 -->
<g id="node3" class="node">
<title>Node3</title>
<g id="a_node3"><a xlink:href="class_minion_u_i_controller.html#a9042cfa3430e60cf37cf0e0797692742" target="_top" xlink:title="Updates the current HP of the entity.">
<polygon fill="none" stroke="black" points="987,-376 987,-406 1116,-406 1116,-376 987,-376"/>
<text text-anchor="start" x="995" y="-394" font-family="Helvetica,sans-Serif" font-size="10.00">MinionUIController.Update</text>
<text text-anchor="middle" x="1051.5" y="-383" font-family="Helvetica,sans-Serif" font-size="10.00">CurrentHP</text>
</a>
</g>
</g>
<!-- Node1&#45;&gt;Node3 -->
<g id="edge2" class="edge">
<title>Node1&#45;&gt;Node3</title>
<path fill="none" stroke="midnightblue" d="M1216.51,-267.35C1200.77,-293.27 1168.61,-340.43 1129,-367 1123.91,-370.41 1118.32,-373.36 1112.53,-375.9"/>
<polygon fill="midnightblue" stroke="midnightblue" points="1219.64,-268.93 1221.72,-258.54 1213.62,-265.36 1219.64,-268.93"/>
</g>
<!-- Node5 -->
<g id="node5" class="node">
<title>Node5</title>
<g id="a_node5"><a xlink:href="class_player_u_i_controller.html#aca577b724c1f3f2ed54ad1165a7842c2" target="_top" xlink:title="Sets the current HP value to the Image.">
<polygon fill="none" stroke="black" points="987.5,-190 987.5,-220 1115.5,-220 1115.5,-190 987.5,-190"/>
<text text-anchor="start" x="995.5" y="-208" font-family="Helvetica,sans-Serif" font-size="10.00">PlayerUIController.Update</text>
<text text-anchor="middle" x="1051.5" y="-197" font-family="Helvetica,sans-Serif" font-size="10.00">CurrentHP</text>
</a>
</g>
</g>
<!-- Node1&#45;&gt;Node5 -->
<g id="edge4" class="edge">
<title>Node1&#45;&gt;Node5</title>
<path fill="none" stroke="midnightblue" d="M1179.31,-236.97C1158.61,-231.75 1134.14,-225.59 1112.25,-220.07"/>
<polygon fill="midnightblue" stroke="midnightblue" points="1178.58,-240.4 1189.14,-239.45 1180.3,-233.61 1178.58,-240.4"/>
</g>
<!-- Node8 -->
<g id="node8" class="node">
<title>Node8</title>
<g id="a_node8"><a xlink:href="class_player_u_i_controller.html#adadd54ec10a1236aa7c08022d27fa068" target="_top" xlink:title="Sets the current level and xp to the Image.">
<polygon fill="none" stroke="black" points="987.5,-278 987.5,-308 1115.5,-308 1115.5,-278 987.5,-278"/>
<text text-anchor="start" x="995.5" y="-296" font-family="Helvetica,sans-Serif" font-size="10.00">PlayerUIController.Update</text>
<text text-anchor="middle" x="1051.5" y="-285" font-family="Helvetica,sans-Serif" font-size="10.00">CurrentLevel</text>
</a>
</g>
</g>
<!-- Node1&#45;&gt;Node8 -->
<g id="edge7" class="edge">
<title>Node1&#45;&gt;Node8</title>
<path fill="none" stroke="midnightblue" d="M1179.31,-261.03C1158.61,-266.25 1134.14,-272.41 1112.25,-277.93"/>
<polygon fill="midnightblue" stroke="midnightblue" points="1180.3,-264.39 1189.14,-258.55 1178.58,-257.6 1180.3,-264.39"/>
</g>
<!-- Node18 -->
<g id="node18" class="node">
<title>Node18</title>
<g id="a_node18"><a xlink:href="class_player_u_i_controller.html#ac7bf7455ce00b144f6a1678e524819b2" target="_top" xlink:title="Sets the current MP value to the Image.">
<polygon fill="none" stroke="black" points="987.5,-141 987.5,-171 1115.5,-171 1115.5,-141 987.5,-141"/>
<text text-anchor="start" x="995.5" y="-159" font-family="Helvetica,sans-Serif" font-size="10.00">PlayerUIController.Update</text>
<text text-anchor="middle" x="1051.5" y="-148" font-family="Helvetica,sans-Serif" font-size="10.00">CurrentMana</text>
</a>
</g>
</g>
<!-- Node1&#45;&gt;Node18 -->
<g id="edge18" class="edge">
<title>Node1&#45;&gt;Node18</title>
<path fill="none" stroke="midnightblue" d="M1207.73,-233.09C1188.7,-218 1158.27,-195.55 1129,-181 1121.62,-177.33 1113.57,-174.03 1105.57,-171.11"/>
<polygon fill="midnightblue" stroke="midnightblue" points="1205.64,-235.9 1215.63,-239.44 1210.03,-230.45 1205.64,-235.9"/>
</g>
<!-- Node24 -->
<g id="node24" class="node">
<title>Node24</title>
<g id="a_node24"><a xlink:href="class_player_h_u_d_controller.html#ab2461120d3cfef6e83b38062b1373e04" target="_top" xlink:title=" ">
<polygon fill="none" stroke="black" points="975,-54.5 975,-73.5 1128,-73.5 1128,-54.5 975,-54.5"/>
<text text-anchor="middle" x="1051.5" y="-61.5" font-family="Helvetica,sans-Serif" font-size="10.00">PlayerHUDController.UpdateHP</text>
</a>
</g>
</g>
<!-- Node1&#45;&gt;Node24 -->
<g id="edge25" class="edge">
<title>Node1&#45;&gt;Node24</title>
<path fill="none" stroke="midnightblue" d="M1219.73,-229.77C1206.49,-197.21 1175.47,-131.05 1129,-93 1118.34,-84.27 1104.78,-77.99 1092.04,-73.56"/>
<polygon fill="midnightblue" stroke="midnightblue" points="1216.61,-231.41 1223.53,-239.44 1223.13,-228.85 1216.61,-231.41"/>
</g>
<!-- Node28 -->
<g id="node28" class="node">
<title>Node28</title>
<g id="a_node28"><a xlink:href="class_player_h_u_d_controller.html#a654b56cf8a75ded0109d5aac569b2757" target="_top" xlink:title=" ">
<polygon fill="none" stroke="black" points="795,-234 795,-264 935,-264 935,-234 795,-234"/>
<text text-anchor="start" x="803" y="-252" font-family="Helvetica,sans-Serif" font-size="10.00">PlayerHUDController.Update</text>
<text text-anchor="middle" x="865" y="-241" font-family="Helvetica,sans-Serif" font-size="10.00">Level</text>
</a>
</g>
</g>
<!-- Node1&#45;&gt;Node28 -->
<g id="edge30" class="edge">
<title>Node1&#45;&gt;Node28</title>
<path fill="none" stroke="midnightblue" d="M1154.94,-249C1091.03,-249 998.3,-249 935.25,-249"/>
<polygon fill="midnightblue" stroke="midnightblue" points="1154.94,-252.5 1164.94,-249 1154.94,-245.5 1154.94,-252.5"/>
</g>
<!-- Node29 -->
<g id="node29" class="node">
<title>Node29</title>
<g id="a_node29"><a xlink:href="class_player_u_i_controller.html#aacc9f1b78d9e1adab16f8fc2ec246dfb" target="_top" xlink:title=" ">
<polygon fill="none" stroke="black" points="987.5,-327 987.5,-357 1115.5,-357 1115.5,-327 987.5,-327"/>
<text text-anchor="start" x="995.5" y="-345" font-family="Helvetica,sans-Serif" font-size="10.00">PlayerUIController.Update</text>
<text text-anchor="middle" x="1051.5" y="-334" font-family="Helvetica,sans-Serif" font-size="10.00">MaxHP</text>
</a>
</g>
</g>
<!-- Node1&#45;&gt;Node29 -->
<g id="edge32" class="edge">
<title>Node1&#45;&gt;Node29</title>
<path fill="none" stroke="midnightblue" d="M1208.12,-264.99C1189.17,-280.37 1158.61,-303.38 1129,-318 1122.26,-321.33 1114.96,-324.32 1107.64,-326.97"/>
<polygon fill="midnightblue" stroke="midnightblue" points="1210.48,-267.58 1215.97,-258.52 1206.03,-262.18 1210.48,-267.58"/>
</g>
<!-- Node30 -->
<g id="node30" class="node">
<title>Node30</title>
<g id="a_node30"><a xlink:href="class_player_h_u_d_controller.html#a09d27238c0e659b8f98828367c7622ba" target="_top" xlink:title=" ">
<polygon fill="none" stroke="black" points="974,-102.5 974,-121.5 1129,-121.5 1129,-102.5 974,-102.5"/>
<text text-anchor="middle" x="1051.5" y="-109.5" font-family="Helvetica,sans-Serif" font-size="10.00">PlayerHUDController.UpdateMP</text>
</a>
</g>
</g>
<!-- Node1&#45;&gt;Node30 -->
<g id="edge34" class="edge">
<title>Node1&#45;&gt;Node30</title>
<path fill="none" stroke="midnightblue" d="M1216.64,-230.55C1201.06,-204.53 1169.09,-157.4 1129,-132 1122.16,-127.67 1114.41,-124.27 1106.53,-121.6"/>
<polygon fill="midnightblue" stroke="midnightblue" points="1213.74,-232.52 1221.79,-239.4 1219.79,-229 1213.74,-232.52"/>
</g>
<!-- Node4 -->
<g id="node4" class="node">
<title>Node4</title>
<g id="a_node4"><a xlink:href="class_minion_stats.html#abecc35855bcf8bb1e30909708b3fa882" target="_top" xlink:title=" ">
<polygon fill="none" stroke="black" points="809.5,-381.5 809.5,-400.5 920.5,-400.5 920.5,-381.5 809.5,-381.5"/>
<text text-anchor="middle" x="865" y="-388.5" font-family="Helvetica,sans-Serif" font-size="10.00">MinionStats.HealRPC</text>
</a>
</g>
</g>
<!-- Node3&#45;&gt;Node4 -->
<g id="edge3" class="edge">
<title>Node3&#45;&gt;Node4</title>
<path fill="none" stroke="midnightblue" d="M976.49,-391C957.8,-391 938.08,-391 920.54,-391"/>
<polygon fill="midnightblue" stroke="midnightblue" points="976.75,-394.5 986.75,-391 976.75,-387.5 976.75,-394.5"/>
</g>
<!-- Node6 -->
<g id="node6" class="node">
<title>Node6</title>
<g id="a_node6"><a xlink:href="class_player_stats.html#a75c908d1b8c5eb0b414db7ab99ceab9e" target="_top" xlink:title="Called whenever the player levels up.">
<polygon fill="none" stroke="black" points="813,-195.5 813,-214.5 917,-214.5 917,-195.5 813,-195.5"/>
<text text-anchor="middle" x="865" y="-202.5" font-family="Helvetica,sans-Serif" font-size="10.00">PlayerStats.LevelUp</text>
</a>
</g>
</g>
<!-- Node5&#45;&gt;Node6 -->
<g id="edge5" class="edge">
<title>Node5&#45;&gt;Node6</title>
<path fill="none" stroke="midnightblue" d="M977.21,-205C957.13,-205 935.8,-205 917.24,-205"/>
<polygon fill="midnightblue" stroke="midnightblue" points="977.26,-208.5 987.26,-205 977.26,-201.5 977.26,-208.5"/>
</g>
<!-- Node7 -->
<g id="node7" class="node">
<title>Node7</title>
<g id="a_node7"><a xlink:href="class_player_stats.html#af74a866a9312c345f3cd03235be2f329" target="_top" xlink:title=" ">
<polygon fill="none" stroke="black" points="631,-239.5 631,-258.5 750,-258.5 750,-239.5 631,-239.5"/>
<text text-anchor="middle" x="690.5" y="-246.5" font-family="Helvetica,sans-Serif" font-size="10.00">PlayerStats.AddXpRPC</text>
</a>
</g>
</g>
<!-- Node6&#45;&gt;Node7 -->
<g id="edge6" class="edge">
<title>Node6&#45;&gt;Node7</title>
<path fill="none" stroke="midnightblue" d="M816.71,-217.06C789.05,-224.12 754.61,-232.9 728.86,-239.47"/>
<polygon fill="midnightblue" stroke="midnightblue" points="817.75,-220.41 826.57,-214.55 816.02,-213.63 817.75,-220.41"/>
</g>
<!-- Node8&#45;&gt;Node7 -->
<g id="edge8" class="edge">
<title>Node8&#45;&gt;Node7</title>
<path fill="none" stroke="midnightblue" d="M977.34,-290.95C925.37,-288.68 854.07,-283.93 792,-274 768.92,-270.31 743.36,-263.92 723.8,-258.52"/>
<polygon fill="midnightblue" stroke="midnightblue" points="977.33,-294.45 987.47,-291.37 977.63,-287.45 977.33,-294.45"/>
</g>
<!-- Node9 -->
<g id="node9" class="node">
<title>Node9</title>
<g id="a_node9"><a xlink:href="class_player_u_i_controller.html#aa5b61a93967fa5ce39bfd950a9e9d584" target="_top" xlink:title="Initializes all the values into the Image and Text.">
<polygon fill="none" stroke="black" points="798.5,-324 798.5,-354 931.5,-354 931.5,-324 798.5,-324"/>
<text text-anchor="start" x="806.5" y="-342" font-family="Helvetica,sans-Serif" font-size="10.00">PlayerUIController.Initialize</text>
<text text-anchor="middle" x="865" y="-331" font-family="Helvetica,sans-Serif" font-size="10.00">Values</text>
</a>
</g>
</g>
<!-- Node8&#45;&gt;Node9 -->
<g id="edge9" class="edge">
<title>Node8&#45;&gt;Node9</title>
<path fill="none" stroke="midnightblue" d="M980.32,-310.5C962.5,-314.94 943.51,-319.67 926.23,-323.98"/>
<polygon fill="midnightblue" stroke="midnightblue" points="981.23,-313.88 990.09,-308.06 979.54,-307.09 981.23,-313.88"/>
</g>
<!-- Node10 -->
<g id="node10" class="node">
<title>Node10</title>
<g id="a_node10"><a xlink:href="class_player_u_i_controller.html#ab6ed746dec17fdf763bc4ec1d713db7f" target="_top" xlink:title="Initializes all the values and colors for this Player.">
<polygon fill="none" stroke="black" points="625,-329.5 625,-348.5 756,-348.5 756,-329.5 625,-329.5"/>
<text text-anchor="middle" x="690.5" y="-336.5" font-family="Helvetica,sans-Serif" font-size="10.00">PlayerUIController.Initalize</text>
</a>
</g>
</g>
<!-- Node9&#45;&gt;Node10 -->
<g id="edge10" class="edge">
<title>Node9&#45;&gt;Node10</title>
<path fill="none" stroke="midnightblue" d="M788.15,-339C777.49,-339 766.6,-339 756.17,-339"/>
<polygon fill="midnightblue" stroke="midnightblue" points="788.29,-342.5 798.29,-339 788.29,-335.5 788.29,-342.5"/>
</g>
<!-- Node11 -->
<g id="node11" class="node">
<title>Node11</title>
<g id="a_node11"><a xlink:href="class_player_stats.html#ae874ab5cbb490cbdcf3f5613b8bc2240" target="_top" xlink:title="Initialize the actual Stats of the Player.">
<polygon fill="none" stroke="black" points="462,-348.5 462,-367.5 568,-367.5 568,-348.5 462,-348.5"/>
<text text-anchor="middle" x="515" y="-355.5" font-family="Helvetica,sans-Serif" font-size="10.00">PlayerStats.Initialize</text>
</a>
</g>
</g>
<!-- Node10&#45;&gt;Node11 -->
<g id="edge11" class="edge">
<title>Node10&#45;&gt;Node11</title>
<path fill="none" stroke="midnightblue" d="M614.7,-347.19C599.03,-348.91 582.84,-350.68 568.21,-352.28"/>
<polygon fill="midnightblue" stroke="midnightblue" points="615.34,-350.64 624.9,-346.07 614.57,-343.68 615.34,-350.64"/>
</g>
<!-- Node16 -->
<g id="node16" class="node">
<title>Node16</title>
<g id="a_node16"><a xlink:href="class_mannequin_stats.html#a0cecf416149ad28539cb696fad4ae175" target="_top" xlink:title=" ">
<polygon fill="none" stroke="black" points="452.5,-310.5 452.5,-329.5 577.5,-329.5 577.5,-310.5 452.5,-310.5"/>
<text text-anchor="middle" x="515" y="-317.5" font-family="Helvetica,sans-Serif" font-size="10.00">MannequinStats.Initialize</text>
</a>
</g>
</g>
<!-- Node10&#45;&gt;Node16 -->
<g id="edge16" class="edge">
<title>Node10&#45;&gt;Node16</title>
<path fill="none" stroke="midnightblue" d="M614.66,-330.8C602.35,-329.46 589.72,-328.07 577.78,-326.77"/>
<polygon fill="midnightblue" stroke="midnightblue" points="614.57,-334.32 624.9,-331.93 615.34,-327.36 614.57,-334.32"/>
</g>
<!-- Node12 -->
<g id="node12" class="node">
<title>Node12</title>
<g id="a_node12"><a xlink:href="class_player_controller.html#a75e94e4fd555e57e55ab4b7e54024dcf" target="_top" xlink:title="Initialize the PlayerController.">
<polygon fill="none" stroke="black" points="281,-348.5 281,-367.5 405,-367.5 405,-348.5 281,-348.5"/>
<text text-anchor="middle" x="343" y="-355.5" font-family="Helvetica,sans-Serif" font-size="10.00">PlayerController.Initialize</text>
</a>
</g>
</g>
<!-- Node11&#45;&gt;Node12 -->
<g id="edge12" class="edge">
<title>Node11&#45;&gt;Node12</title>
<path fill="none" stroke="midnightblue" d="M451.35,-358C436.27,-358 420.17,-358 405.16,-358"/>
<polygon fill="midnightblue" stroke="midnightblue" points="451.61,-361.5 461.61,-358 451.61,-354.5 451.61,-361.5"/>
</g>
<!-- Node13 -->
<g id="node13" class="node">
<title>Node13</title>
<g id="a_node13"><a xlink:href="class_model_sync.html#ab8359f73ae31a7f926c80ebcd7e9444a" target="_top" xlink:title="This starts all the initialization chain for the player.">
<polygon fill="none" stroke="black" points="135,-348.5 135,-367.5 245,-367.5 245,-348.5 135,-348.5"/>
<text text-anchor="middle" x="190" y="-355.5" font-family="Helvetica,sans-Serif" font-size="10.00">ModelSync.DoEnable</text>
</a>
</g>
</g>
<!-- Node12&#45;&gt;Node13 -->
<g id="edge13" class="edge">
<title>Node12&#45;&gt;Node13</title>
<path fill="none" stroke="midnightblue" d="M270.58,-358C262,-358 253.36,-358 245.09,-358"/>
<polygon fill="midnightblue" stroke="midnightblue" points="270.58,-361.5 280.58,-358 270.58,-354.5 270.58,-361.5"/>
</g>
<!-- Node14 -->
<g id="node14" class="node">
<title>Node14</title>
<g id="a_node14"><a xlink:href="class_model_sync.html#a47be08ee3bbd2a173514e74da3dd65cb" target="_top" xlink:title=" ">
<polygon fill="none" stroke="black" points="5,-367.5 5,-386.5 94,-386.5 94,-367.5 5,-367.5"/>
<text text-anchor="middle" x="49.5" y="-374.5" font-family="Helvetica,sans-Serif" font-size="10.00">ModelSync.Start</text>
</a>
</g>
</g>
<!-- Node13&#45;&gt;Node14 -->
<g id="edge14" class="edge">
<title>Node13&#45;&gt;Node14</title>
<path fill="none" stroke="midnightblue" d="M124.54,-366.84C114.35,-368.24 104.01,-369.66 94.43,-370.97"/>
<polygon fill="midnightblue" stroke="midnightblue" points="125.23,-370.28 134.66,-365.45 124.28,-363.35 125.23,-370.28"/>
</g>
<!-- Node15 -->
<g id="node15" class="node">
<title>Node15</title>
<g id="a_node15"><a xlink:href="class_model_sync.html#abf63af5a901636617cb742aab24c4d6f" target="_top" xlink:title=" ">
<polygon fill="none" stroke="black" points="0,-329.5 0,-348.5 99,-348.5 99,-329.5 0,-329.5"/>
<text text-anchor="middle" x="49.5" y="-336.5" font-family="Helvetica,sans-Serif" font-size="10.00">ModelSync.Update</text>
</a>
</g>
</g>
<!-- Node13&#45;&gt;Node15 -->
<g id="edge15" class="edge">
<title>Node13&#45;&gt;Node15</title>
<path fill="none" stroke="midnightblue" d="M124.7,-349.18C116.15,-348.01 107.51,-346.82 99.28,-345.69"/>
<polygon fill="midnightblue" stroke="midnightblue" points="124.28,-352.65 134.66,-350.55 125.23,-345.72 124.28,-352.65"/>
</g>
<!-- Node17 -->
<g id="node17" class="node">
<title>Node17</title>
<g id="a_node17"><a xlink:href="class_mannequin.html#af638d1036ae3aee689fe03b43cea0df5" target="_top" xlink:title=" ">
<polygon fill="none" stroke="black" points="299,-310.5 299,-329.5 387,-329.5 387,-310.5 299,-310.5"/>
<text text-anchor="middle" x="343" y="-317.5" font-family="Helvetica,sans-Serif" font-size="10.00">Mannequin.Start</text>
</a>
</g>
</g>
<!-- Node16&#45;&gt;Node17 -->
<g id="edge17" class="edge">
<title>Node16&#45;&gt;Node17</title>
<path fill="none" stroke="midnightblue" d="M441.91,-320C423.29,-320 403.82,-320 387.19,-320"/>
<polygon fill="midnightblue" stroke="midnightblue" points="442.15,-323.5 452.15,-320 442.15,-316.5 442.15,-323.5"/>
</g>
<!-- Node18&#45;&gt;Node6 -->
<g id="edge19" class="edge">
<title>Node18&#45;&gt;Node6</title>
<path fill="none" stroke="midnightblue" d="M983.86,-173.7C956.17,-181.05 925.14,-189.29 901.88,-195.47"/>
<polygon fill="midnightblue" stroke="midnightblue" points="985.12,-176.98 993.89,-171.03 983.33,-170.22 985.12,-176.98"/>
</g>
<!-- Node19 -->
<g id="node19" class="node">
<title>Node19</title>
<g id="a_node19"><a xlink:href="class_player_stats.html#a0348bfd846a1fb5122239414e9ec558b" target="_top" xlink:title=" ">
<polygon fill="none" stroke="black" points="793.5,-114.5 793.5,-133.5 936.5,-133.5 936.5,-114.5 793.5,-114.5"/>
<text text-anchor="middle" x="865" y="-121.5" font-family="Helvetica,sans-Serif" font-size="10.00">PlayerStats.RegenManaRPC</text>
</a>
</g>
</g>
<!-- Node18&#45;&gt;Node19 -->
<g id="edge20" class="edge">
<title>Node18&#45;&gt;Node19</title>
<path fill="none" stroke="midnightblue" d="M977.25,-143.3C958.44,-140.03 938.54,-136.58 920.84,-133.51"/>
<polygon fill="midnightblue" stroke="midnightblue" points="976.81,-146.77 987.26,-145.03 978.01,-139.87 976.81,-146.77"/>
</g>
<!-- Node23 -->
<g id="node23" class="node">
<title>Node23</title>
<g id="a_node23"><a xlink:href="class_player_stats.html#adb29a13d34d6e2880a34d67340b8b74a" target="_top" xlink:title=" ">
<polygon fill="none" stroke="black" points="793.5,-152.5 793.5,-171.5 936.5,-171.5 936.5,-152.5 793.5,-152.5"/>
<text text-anchor="middle" x="865" y="-159.5" font-family="Helvetica,sans-Serif" font-size="10.00">PlayerStats.SpendManaRPC</text>
</a>
</g>
</g>
<!-- Node18&#45;&gt;Node23 -->
<g id="edge24" class="edge">
<title>Node18&#45;&gt;Node23</title>
<path fill="none" stroke="midnightblue" d="M977.2,-158.38C963.88,-158.82 950,-159.27 936.75,-159.7"/>
<polygon fill="midnightblue" stroke="midnightblue" points="977.38,-161.88 987.26,-158.06 977.16,-154.88 977.38,-161.88"/>
</g>
<!-- Node20 -->
<g id="node20" class="node">
<title>Node20</title>
<g id="a_node20"><a xlink:href="class_player_stats.html#a27fb46ca044608f34db45eb95ac16b4c" target="_top" xlink:title="This is triggered when the player respawns.">
<polygon fill="none" stroke="black" points="635.5,-57.5 635.5,-76.5 745.5,-76.5 745.5,-57.5 635.5,-57.5"/>
<text text-anchor="middle" x="690.5" y="-64.5" font-family="Helvetica,sans-Serif" font-size="10.00">PlayerStats.Respawn</text>
</a>
</g>
</g>
<!-- Node19&#45;&gt;Node20 -->
<g id="edge21" class="edge">
<title>Node19&#45;&gt;Node20</title>
<path fill="none" stroke="midnightblue" d="M815.18,-111.85C807.39,-109.7 799.45,-107.38 792,-105 765.17,-96.41 735.03,-84.74 714.81,-76.6"/>
<polygon fill="midnightblue" stroke="midnightblue" points="814.36,-115.25 824.93,-114.48 816.18,-108.49 814.36,-115.25"/>
</g>
<!-- Node21 -->
<g id="node21" class="node">
<title>Node21</title>
<g id="a_node21"><a xlink:href="class_respawn_canvas.html#aeb8465a7dc3b9f4fe6a36afc1c8bcf9a" target="_top" xlink:title=" ">
<polygon fill="none" stroke="black" points="441,-76.5 441,-95.5 589,-95.5 589,-76.5 441,-76.5"/>
<text text-anchor="middle" x="515" y="-83.5" font-family="Helvetica,sans-Serif" font-size="10.00">RespawnCanvas.BuyRespawn</text>
</a>
</g>
</g>
<!-- Node20&#45;&gt;Node21 -->
<g id="edge22" class="edge">
<title>Node20&#45;&gt;Node21</title>
<path fill="none" stroke="midnightblue" d="M625.02,-74.06C613.39,-75.34 601.18,-76.67 589.31,-77.97"/>
<polygon fill="midnightblue" stroke="midnightblue" points="625.52,-77.53 635.08,-72.96 624.76,-70.57 625.52,-77.53"/>
</g>
<!-- Node22 -->
<g id="node22" class="node">
<title>Node22</title>
<g id="a_node22"><a xlink:href="class_respawn_canvas.html#a272c2f78c7bfbeb481fcb4b737fe446c" target="_top" xlink:title=" ">
<polygon fill="none" stroke="black" points="454,-38.5 454,-57.5 576,-57.5 576,-38.5 454,-38.5"/>
<text text-anchor="middle" x="515" y="-45.5" font-family="Helvetica,sans-Serif" font-size="10.00">RespawnCanvas.Update</text>
</a>
</g>
</g>
<!-- Node20&#45;&gt;Node22 -->
<g id="edge23" class="edge">
<title>Node20&#45;&gt;Node22</title>
<path fill="none" stroke="midnightblue" d="M624.81,-59.92C608.9,-58.17 591.94,-56.32 576.26,-54.6"/>
<polygon fill="midnightblue" stroke="midnightblue" points="624.76,-63.43 635.08,-61.04 625.52,-56.47 624.76,-63.43"/>
</g>
<!-- Node25 -->
<g id="node25" class="node">
<title>Node25</title>
<g id="a_node25"><a xlink:href="class_player_stats.html#a72df1a303afe102b8b4ac7a1e594cd75" target="_top" xlink:title=" ">
<polygon fill="none" stroke="black" points="792,-38.5 792,-57.5 938,-57.5 938,-38.5 792,-38.5"/>
<text text-anchor="middle" x="865" y="-45.5" font-family="Helvetica,sans-Serif" font-size="10.00">PlayerStats.DealDamageRPC</text>
</a>
</g>
</g>
<!-- Node24&#45;&gt;Node25 -->
<g id="edge26" class="edge">
<title>Node24&#45;&gt;Node25</title>
<path fill="none" stroke="midnightblue" d="M964.89,-56.58C955.96,-55.8 946.95,-55.02 938.19,-54.26"/>
<polygon fill="midnightblue" stroke="midnightblue" points="964.66,-60.07 974.92,-57.45 965.26,-53.1 964.66,-60.07"/>
</g>
<!-- Node26 -->
<g id="node26" class="node">
<title>Node26</title>
<g id="a_node26"><a xlink:href="class_player_stats.html#a5caca2bd8f676341a2b269aea8a0f1ff" target="_top" xlink:title="Function that implements what is done when this entity dies.">
<polygon fill="none" stroke="black" points="822.5,-76.5 822.5,-95.5 907.5,-95.5 907.5,-76.5 822.5,-76.5"/>
<text text-anchor="middle" x="865" y="-83.5" font-family="Helvetica,sans-Serif" font-size="10.00">PlayerStats.Die</text>
</a>
</g>
</g>
<!-- Node24&#45;&gt;Node26 -->
<g id="edge27" class="edge">
<title>Node24&#45;&gt;Node26</title>
<path fill="none" stroke="midnightblue" d="M964.89,-74.21C944.97,-76.58 924.65,-79.01 907.64,-81.03"/>
<polygon fill="midnightblue" stroke="midnightblue" points="965.41,-77.67 974.92,-73.01 964.58,-70.72 965.41,-77.67"/>
</g>
<!-- Node27 -->
<g id="node27" class="node">
<title>Node27</title>
<g id="a_node27"><a xlink:href="class_player_stats.html#ae2c6a9d91ac8ff99b7f0dc32079f1931" target="_top" xlink:title=" ">
<polygon fill="none" stroke="black" points="810,-0.5 810,-19.5 920,-19.5 920,-0.5 810,-0.5"/>
<text text-anchor="middle" x="865" y="-7.5" font-family="Helvetica,sans-Serif" font-size="10.00">PlayerStats.HealRPC</text>
</a>
</g>
</g>
<!-- Node24&#45;&gt;Node27 -->
<g id="edge28" class="edge">
<title>Node24&#45;&gt;Node27</title>
<path fill="none" stroke="midnightblue" d="M1011.22,-51.32C989.67,-44.48 962.44,-36.02 938,-29 926.82,-25.79 914.6,-22.48 903.45,-19.55"/>
<polygon fill="midnightblue" stroke="midnightblue" points="1010.41,-54.73 1021,-54.44 1012.53,-48.06 1010.41,-54.73"/>
</g>
<!-- Node27&#45;&gt;Node20 -->
<g id="edge29" class="edge">
<title>Node27&#45;&gt;Node20</title>
<path fill="none" stroke="midnightblue" d="M815.18,-22.15C807.39,-24.3 799.45,-26.62 792,-29 765.17,-37.59 735.03,-49.26 714.81,-57.4"/>
<polygon fill="midnightblue" stroke="midnightblue" points="816.18,-25.51 824.93,-19.52 814.36,-18.75 816.18,-25.51"/>
</g>
<!-- Node28&#45;&gt;Node7 -->
<g id="edge31" class="edge">
<title>Node28&#45;&gt;Node7</title>
<path fill="none" stroke="midnightblue" d="M784.68,-249C773.05,-249 761.26,-249 750.15,-249"/>
<polygon fill="midnightblue" stroke="midnightblue" points="784.83,-252.5 794.83,-249 784.83,-245.5 784.83,-252.5"/>
</g>
<!-- Node29&#45;&gt;Node9 -->
<g id="edge33" class="edge">
<title>Node29&#45;&gt;Node9</title>
<path fill="none" stroke="midnightblue" d="M977.02,-340.81C962.03,-340.56 946.36,-340.31 931.67,-340.07"/>
<polygon fill="midnightblue" stroke="midnightblue" points="977.21,-344.31 987.26,-340.97 977.32,-337.31 977.21,-344.31"/>
</g>
<!-- Node30&#45;&gt;Node19 -->
<g id="edge36" class="edge">
<title>Node30&#45;&gt;Node19</title>
<path fill="none" stroke="midnightblue" d="M963.72,-117.64C954.7,-118.23 945.61,-118.82 936.79,-119.4"/>
<polygon fill="midnightblue" stroke="midnightblue" points="964.11,-121.13 973.86,-116.98 963.65,-114.14 964.11,-121.13"/>
</g>
<!-- Node30&#45;&gt;Node23 -->
<g id="edge37" class="edge">
<title>Node30&#45;&gt;Node23</title>
<path fill="none" stroke="midnightblue" d="M1002.88,-124.13C993.3,-126.66 983.31,-129.36 974,-132 957.9,-136.56 954.09,-138.42 938,-143 926.81,-146.18 914.59,-149.48 903.44,-152.41"/>
<polygon fill="midnightblue" stroke="midnightblue" points="1003.89,-127.48 1012.67,-121.56 1002.11,-120.71 1003.89,-127.48"/>
</g>
<!-- Node30&#45;&gt;Node26 -->
<g id="edge35" class="edge">
<title>Node30&#45;&gt;Node26</title>
<path fill="none" stroke="midnightblue" d="M972.69,-101.03C950.36,-97.89 926.87,-94.58 907.63,-91.87"/>
<polygon fill="midnightblue" stroke="midnightblue" points="972.46,-104.54 982.85,-102.47 973.43,-97.6 972.46,-104.54"/>
</g>
</g>
</svg>
