<?xml version="1.0" encoding="UTF-8" standalone="no"?>
<!DOCTYPE svg PUBLIC "-//W3C//DTD SVG 1.1//EN"
 "http://www.w3.org/Graphics/SVG/1.1/DTD/svg11.dtd">
<!-- Generated by graphviz version 2.50.0 (20211204.2007)
 -->
<!-- Title: ItemUI.OnPointerClick Pages: 1 -->
<!--zoomable 247 -->
<svg id="main" version="1.1" xmlns="http://www.w3.org/2000/svg" xmlns:xlink="http://www.w3.org/1999/xlink" xml:space="preserve" onload="init(evt)">
<style type="text/css"><![CDATA[
.edge:hover path { stroke: red; }
.edge:hover polygon { stroke: red; fill: red; }
]]></style>
<script type="text/javascript"><![CDATA[
var edges = document.getElementsByTagName('g');
if (edges && edges.length) {
  for (var i=0;i<edges.length;i++) {
    if (edges[i].id.substr(0,4)=='edge') {
      edges[i].setAttribute('class','edge');
    }
  }
}
]]></script>
        <defs>
                <circle id="rim" cx="0" cy="0" r="7"/>
                <circle id="rim2" cx="0" cy="0" r="3.5"/>
                <g id="zoomPlus">
                        <use xlink:href="#rim" fill="#404040">
                                <set attributeName="fill" to="#808080" begin="zoomplus.mouseover" end="zoomplus.mouseout"/>
                        </use>
                        <path d="M-4,0h8M0,-4v8" fill="none" stroke="white" stroke-width="1.5" pointer-events="none"/>
                </g>
                <g id="zoomMin">
                        <use xlink:href="#rim" fill="#404040">
                                <set attributeName="fill" to="#808080" begin="zoomminus.mouseover" end="zoomminus.mouseout"/>
                        </use>
                        <path d="M-4,0h8" fill="none" stroke="white" stroke-width="1.5" pointer-events="none"/>
                </g>
                <g id="dirArrow">
                        <path fill="none" stroke="white" stroke-width="1.5" d="M0,-3.0v7 M-2.5,-0.5L0,-3.0L2.5,-0.5"/>
                </g>
               <g id="resetDef">
                       <use xlink:href="#rim2" fill="#404040">
                               <set attributeName="fill" to="#808080" begin="reset.mouseover" end="reset.mouseout"/>
                       </use>
               </g>
        </defs>

<script type="text/javascript">
var viewWidth = 1138;
var viewHeight = 247;
var sectionId = 'dynsection-7';
</script>
<script xlink:href="svgpan.js"/>
<svg id="graph" class="graph">
<g id="viewport">
<title>ItemUI.OnPointerClick</title>
<polygon fill="white" stroke="transparent" points="-4,4 -4,-242.74 1134,-242.74 1134,4 -4,4"/>
<!-- Node1 -->
<g id="node1" class="node">
<title>Node1</title>
<g id="a_node1"><a xlink:title=" ">
<polygon fill="#bfbfbf" stroke="black" points="0,-66.74 0,-85.74 113,-85.74 113,-66.74 0,-66.74"/>
<text text-anchor="middle" x="56.5" y="-73.74" font-family="Helvetica,sans-Serif" font-size="10.00">ItemUI.OnPointerClick</text>
</a>
</g>
</g>
<!-- Node2 -->
<g id="node2" class="node">
<title>Node2</title>
<g id="a_node2"><a xlink:href="class_item_u_i.html#a7989b50db532215f7732954841b6ae4d" target="_top" xlink:title=" ">
<polygon fill="white" stroke="black" points="177,-104.74 177,-123.74 260,-123.74 260,-104.74 177,-104.74"/>
<text text-anchor="middle" x="218.5" y="-111.74" font-family="Helvetica,sans-Serif" font-size="10.00">ItemUI.BuyItem</text>
</a>
</g>
</g>
<!-- Node1&#45;&gt;Node2 -->
<g id="edge1" class="edge">
<title>Node1&#45;&gt;Node2</title>
<path fill="none" stroke="midnightblue" d="M97.87,-85.83C118.99,-90.84 145.03,-97.02 167.42,-102.34"/>
<polygon fill="midnightblue" stroke="midnightblue" points="166.88,-105.81 177.42,-104.72 168.49,-99 166.88,-105.81"/>
</g>
<!-- Node14 -->
<g id="node14" class="node">
<title>Node14</title>
<g id="a_node14"><a xlink:href="class_current_item_shop.html#a7df6c42491987972d6d04a06c803525a" target="_top" xlink:title=" ">
<polygon fill="white" stroke="black" points="149,-47.74 149,-66.74 288,-66.74 288,-47.74 149,-47.74"/>
<text text-anchor="middle" x="218.5" y="-54.74" font-family="Helvetica,sans-Serif" font-size="10.00">CurrentItemShop.SetCurrent</text>
</a>
</g>
</g>
<!-- Node1&#45;&gt;Node14 -->
<g id="edge14" class="edge">
<title>Node1&#45;&gt;Node14</title>
<path fill="none" stroke="midnightblue" d="M113.01,-69.64C121.31,-68.66 130.01,-67.63 138.68,-66.6"/>
<polygon fill="midnightblue" stroke="midnightblue" points="139.32,-70.05 148.83,-65.39 138.49,-63.09 139.32,-70.05"/>
</g>
<!-- Node3 -->
<g id="node3" class="node">
<title>Node3</title>
<g id="a_node3"><a xlink:href="class_inventory.html#a22aa6615c02eff40c88a48c96905e962" target="_top" xlink:title=" ">
<polygon fill="white" stroke="black" points="326.5,-142.74 326.5,-161.74 420.5,-161.74 420.5,-142.74 326.5,-142.74"/>
<text text-anchor="middle" x="373.5" y="-149.74" font-family="Helvetica,sans-Serif" font-size="10.00">Inventory.BuyItem</text>
</a>
</g>
</g>
<!-- Node2&#45;&gt;Node3 -->
<g id="edge2" class="edge">
<title>Node2&#45;&gt;Node3</title>
<path fill="none" stroke="midnightblue" d="M258.11,-123.83C278.21,-128.82 302.98,-134.97 324.32,-140.27"/>
<polygon fill="midnightblue" stroke="midnightblue" points="323.62,-143.7 334.17,-142.72 325.31,-136.91 323.62,-143.7"/>
</g>
<!-- Node6 -->
<g id="node6" class="node">
<title>Node6</title>
<g id="a_node6"><a xlink:href="class_inventory.html#a4eba5ec568d6e06c754b71057888fcdd" target="_top" xlink:title=" ">
<polygon fill="white" stroke="black" points="483,-82.74 483,-101.74 575,-101.74 575,-82.74 483,-82.74"/>
<text text-anchor="middle" x="529" y="-89.74" font-family="Helvetica,sans-Serif" font-size="10.00">Inventory.CanBuy</text>
</a>
</g>
</g>
<!-- Node2&#45;&gt;Node6 -->
<g id="edge13" class="edge">
<title>Node2&#45;&gt;Node6</title>
<path fill="none" stroke="midnightblue" d="M260.15,-111.34C314.59,-107.45 411.4,-100.55 472.52,-96.19"/>
<polygon fill="midnightblue" stroke="midnightblue" points="473.02,-99.67 482.75,-95.46 472.53,-92.68 473.02,-99.67"/>
</g>
<!-- Node4 -->
<g id="node4" class="node">
<title>Node4</title>
<g id="a_node4"><a xlink:href="class_item_statistic_effect.html#abbdbb3e54a3aeeb784c5aadaec695753" target="_top" xlink:title=" ">
<polygon fill="white" stroke="black" points="462,-120.74 462,-139.74 596,-139.74 596,-120.74 462,-120.74"/>
<text text-anchor="middle" x="529" y="-127.74" font-family="Helvetica,sans-Serif" font-size="10.00">ItemStatisticEffect.Activate</text>
</a>
</g>
</g>
<!-- Node3&#45;&gt;Node4 -->
<g id="edge3" class="edge">
<title>Node3&#45;&gt;Node4</title>
<path fill="none" stroke="midnightblue" d="M420.56,-145.64C430.39,-144.23 441.04,-142.7 451.67,-141.18"/>
<polygon fill="midnightblue" stroke="midnightblue" points="452.43,-144.6 461.83,-139.72 451.44,-137.67 452.43,-144.6"/>
</g>
<!-- Node3&#45;&gt;Node6 -->
<g id="edge5" class="edge">
<title>Node3&#45;&gt;Node6</title>
<path fill="none" stroke="midnightblue" d="M393.7,-142.69C416.55,-131.37 452.44,-113.71 459,-111.24 465.33,-108.85 472.08,-106.62 478.8,-104.59"/>
<polygon fill="midnightblue" stroke="midnightblue" points="479.93,-107.91 488.56,-101.76 477.98,-101.19 479.93,-107.91"/>
</g>
<!-- Node8 -->
<g id="node8" class="node">
<title>Node8</title>
<g id="a_node8"><a xlink:href="class_player_h_u_d_controller.html#aeef77dcdfaf1c9b719e4350c17c88fa5" target="_top" xlink:title=" ">
<polygon fill="white" stroke="black" points="459,-208.24 459,-238.24 599,-238.24 599,-208.24 459,-208.24"/>
<text text-anchor="start" x="467" y="-226.24" font-family="Helvetica,sans-Serif" font-size="10.00">PlayerHUDController.Update</text>
<text text-anchor="middle" x="529" y="-215.24" font-family="Helvetica,sans-Serif" font-size="10.00">GoldTxt</text>
</a>
</g>
</g>
<!-- Node3&#45;&gt;Node8 -->
<g id="edge7" class="edge">
<title>Node3&#45;&gt;Node8</title>
<path fill="none" stroke="midnightblue" d="M389.97,-161.91C406.6,-172.05 434.03,-188.05 459,-199.24 463.08,-201.06 467.35,-202.84 471.67,-204.56"/>
<polygon fill="midnightblue" stroke="midnightblue" points="470.59,-207.89 481.18,-208.18 473.08,-201.35 470.59,-207.89"/>
</g>
<!-- Node9 -->
<g id="node9" class="node">
<title>Node9</title>
<g id="a_node9"><a xlink:href="class_player_h_u_d_controller.html#ac39302aee1420d6afbc3a73805929143" target="_top" xlink:title=" ">
<polygon fill="white" stroke="black" points="459,-159.24 459,-189.24 599,-189.24 599,-159.24 459,-159.24"/>
<text text-anchor="start" x="467" y="-177.24" font-family="Helvetica,sans-Serif" font-size="10.00">PlayerHUDController.Update</text>
<text text-anchor="middle" x="529" y="-166.24" font-family="Helvetica,sans-Serif" font-size="10.00">Items</text>
</a>
</g>
</g>
<!-- Node3&#45;&gt;Node9 -->
<g id="edge8" class="edge">
<title>Node3&#45;&gt;Node9</title>
<path fill="none" stroke="midnightblue" d="M420.56,-158.84C429.53,-160.12 439.18,-161.51 448.89,-162.9"/>
<polygon fill="midnightblue" stroke="midnightblue" points="448.59,-166.39 458.99,-164.35 449.58,-159.46 448.59,-166.39"/>
</g>
<!-- Node5 -->
<g id="node5" class="node">
<title>Node5</title>
<g id="a_node5"><a xlink:href="class_movable_stats.html#acf1dcd4dda6a7737fd53e33c84d2f6e7" target="_top" xlink:title=" ">
<polygon fill="white" stroke="black" points="635,-120.74 635,-139.74 774,-139.74 774,-120.74 635,-120.74"/>
<text text-anchor="middle" x="704.5" y="-127.74" font-family="Helvetica,sans-Serif" font-size="10.00">MovableStats.ApplyStatistic</text>
</a>
</g>
</g>
<!-- Node4&#45;&gt;Node5 -->
<g id="edge4" class="edge">
<title>Node4&#45;&gt;Node5</title>
<path fill="none" stroke="midnightblue" d="M596.09,-130.24C605.37,-130.24 614.99,-130.24 624.48,-130.24"/>
<polygon fill="midnightblue" stroke="midnightblue" points="624.71,-133.74 634.71,-130.24 624.71,-126.74 624.71,-133.74"/>
</g>
<!-- Node7 -->
<g id="node7" class="node">
<title>Node7</title>
<g id="a_node7"><a xlink:href="class_inventory.html#a78bab4c24d6da82bdef1a27f5c33934e" target="_top" xlink:title=" ">
<polygon fill="white" stroke="black" points="635,-82.74 635,-101.74 774,-101.74 774,-82.74 635,-82.74"/>
<text text-anchor="middle" x="704.5" y="-89.74" font-family="Helvetica,sans-Serif" font-size="10.00">Inventory.HadAlreadyBought</text>
</a>
</g>
</g>
<!-- Node6&#45;&gt;Node7 -->
<g id="edge6" class="edge">
<title>Node6&#45;&gt;Node7</title>
<path fill="none" stroke="midnightblue" d="M575.13,-92.24C590.18,-92.24 607.42,-92.24 624.28,-92.24"/>
<polygon fill="midnightblue" stroke="midnightblue" points="624.7,-95.74 634.7,-92.24 624.7,-88.74 624.7,-95.74"/>
</g>
<!-- Node10 -->
<g id="node10" class="node">
<title>Node10</title>
<g id="a_node10"><a xlink:href="class_sellable_item_u_i.html#a6af430a8024bce99b71d8e5867e1c496" target="_top" xlink:title=" ">
<polygon fill="white" stroke="black" points="646.5,-161.74 646.5,-180.74 762.5,-180.74 762.5,-161.74 646.5,-161.74"/>
<text text-anchor="middle" x="704.5" y="-168.74" font-family="Helvetica,sans-Serif" font-size="10.00">SellableItemUI.SetItem</text>
</a>
</g>
</g>
<!-- Node9&#45;&gt;Node10 -->
<g id="edge9" class="edge">
<title>Node9&#45;&gt;Node10</title>
<path fill="none" stroke="midnightblue" d="M599.07,-173.04C611.33,-172.83 624.07,-172.61 636.28,-172.4"/>
<polygon fill="midnightblue" stroke="midnightblue" points="636.44,-175.9 646.38,-172.22 636.32,-168.9 636.44,-175.9"/>
</g>
<!-- Node11 -->
<g id="node11" class="node">
<title>Node11</title>
<g id="a_node11"><a xlink:href="class_sellable_item_u_i.html#a4470cb453b79fb32e9d18d61389cb21d" target="_top" xlink:title=" ">
<polygon fill="white" stroke="black" points="810,-96.74 810,-115.74 959,-115.74 959,-96.74 810,-96.74"/>
<text text-anchor="middle" x="884.5" y="-103.74" font-family="Helvetica,sans-Serif" font-size="10.00">SellableItemUI.GetIDescription</text>
</a>
</g>
</g>
<!-- Node10&#45;&gt;Node11 -->
<g id="edge10" class="edge">
<title>Node10&#45;&gt;Node11</title>
<path fill="none" stroke="midnightblue" d="M736.67,-161.68C748.43,-157.96 761.88,-153.56 774,-149.24 800.02,-139.96 829.12,-128.48 850.78,-119.71"/>
<polygon fill="midnightblue" stroke="midnightblue" points="852.22,-122.91 860.17,-115.9 849.58,-116.42 852.22,-122.91"/>
</g>
<!-- Node13 -->
<g id="node13" class="node">
<title>Node13</title>
<g id="a_node13"><a xlink:href="class_tooltip_hoverable.html#aa032f3d5511f81d1991c779fba71d295" target="_top" xlink:title=" ">
<polygon fill="white" stroke="black" points="817.5,-161.74 817.5,-180.74 951.5,-180.74 951.5,-161.74 817.5,-161.74"/>
<text text-anchor="middle" x="884.5" y="-168.74" font-family="Helvetica,sans-Serif" font-size="10.00">TooltipHoverable.SetTooltip</text>
</a>
</g>
</g>
<!-- Node10&#45;&gt;Node13 -->
<g id="edge12" class="edge">
<title>Node10&#45;&gt;Node13</title>
<path fill="none" stroke="midnightblue" d="M762.8,-171.24C776.92,-171.24 792.27,-171.24 807.13,-171.24"/>
<polygon fill="midnightblue" stroke="midnightblue" points="807.32,-174.74 817.32,-171.24 807.32,-167.74 807.32,-174.74"/>
</g>
<!-- Node12 -->
<g id="node12" class="node">
<title>Node12</title>
<g id="a_node12"><a xlink:href="class_item_statistic_effect.html#a37cc28041fcf0c1f5bd7eded463b2509" target="_top" xlink:title=" ">
<polygon fill="white" stroke="black" points="995,-44.74 995,-63.74 1130,-63.74 1130,-44.74 995,-44.74"/>
<text text-anchor="middle" x="1062.5" y="-51.74" font-family="Helvetica,sans-Serif" font-size="10.00">ItemStatisticEffect.ToString</text>
</a>
</g>
</g>
<!-- Node11&#45;&gt;Node12 -->
<g id="edge11" class="edge">
<title>Node11&#45;&gt;Node12</title>
<path fill="none" stroke="midnightblue" d="M917.78,-96.7C946.35,-88.26 988.22,-75.89 1019.41,-66.67"/>
<polygon fill="midnightblue" stroke="midnightblue" points="1020.53,-69.99 1029.13,-63.8 1018.54,-63.28 1020.53,-69.99"/>
</g>
<!-- Node14&#45;&gt;Node12 -->
<g id="edge17" class="edge">
<title>Node14&#45;&gt;Node12</title>
<path fill="none" stroke="midnightblue" d="M240.63,-47.73C261.41,-38.83 294.24,-25.92 324,-19.24 412.85,0.71 436.94,-0.24 528,-0.24 528,-0.24 528,-0.24 705.5,-0.24 816.99,-0.24 945.92,-26.44 1013.88,-42.34"/>
<polygon fill="midnightblue" stroke="midnightblue" points="1013.31,-45.81 1023.85,-44.71 1014.93,-39 1013.31,-45.81"/>
</g>
<!-- Node15 -->
<g id="node15" class="node">
<title>Node15</title>
<g id="a_node15"><a xlink:href="class_item_u_i.html#a3621f37c3d29275407a00265d7823825" target="_top" xlink:title=" ">
<polygon fill="white" stroke="black" points="332.5,-66.74 332.5,-85.74 414.5,-85.74 414.5,-66.74 332.5,-66.74"/>
<text text-anchor="middle" x="373.5" y="-73.74" font-family="Helvetica,sans-Serif" font-size="10.00">ItemUI.GetItem</text>
</a>
</g>
</g>
<!-- Node14&#45;&gt;Node15 -->
<g id="edge15" class="edge">
<title>Node14&#45;&gt;Node15</title>
<path fill="none" stroke="midnightblue" d="M288.39,-65.79C299.81,-67.21 311.46,-68.66 322.31,-70"/>
<polygon fill="midnightblue" stroke="midnightblue" points="322.07,-73.5 332.42,-71.26 322.93,-66.55 322.07,-73.5"/>
</g>
<!-- Node16 -->
<g id="node16" class="node">
<title>Node16</title>
<g id="a_node16"><a xlink:href="class_item_u_i.html#af1bd6a6501f51af9f49a53a5a1a871e4" target="_top" xlink:title=" ">
<polygon fill="white" stroke="black" points="324,-28.74 324,-47.74 423,-47.74 423,-28.74 324,-28.74"/>
<text text-anchor="middle" x="373.5" y="-35.74" font-family="Helvetica,sans-Serif" font-size="10.00">ItemUI.ResetActive</text>
</a>
</g>
</g>
<!-- Node14&#45;&gt;Node16 -->
<g id="edge16" class="edge">
<title>Node14&#45;&gt;Node16</title>
<path fill="none" stroke="midnightblue" d="M288.39,-48.68C296.85,-47.63 305.43,-46.56 313.72,-45.54"/>
<polygon fill="midnightblue" stroke="midnightblue" points="314.17,-49.01 323.66,-44.3 313.31,-42.06 314.17,-49.01"/>
</g>
</g>
</svg>
        <g id="navigator" transform="translate(0 0)" fill="#404254">
                <rect fill="#f2f5e9" fill-opacity="0.5" stroke="#606060" stroke-width=".5" x="0" y="0" width="60" height="60"/>
                <use id="zoomplus" xlink:href="#zoomPlus" x="17" y="9" onmousedown="handleZoom(evt,'in')"/>
                <use id="zoomminus" xlink:href="#zoomMin" x="42" y="9" onmousedown="handleZoom(evt,'out')"/>
                <use id="reset" xlink:href="#resetDef" x="30" y="36" onmousedown="handleReset()"/>
                <g id="arrowUp" xlink:href="#dirArrow" transform="translate(30 24)" onmousedown="handlePan(0,-1)">
                  <use xlink:href="#rim" fill="#404040">
                        <set attributeName="fill" to="#808080" begin="arrowUp.mouseover" end="arrowUp.mouseout"/>
                  </use>
                  <path fill="none" stroke="white" stroke-width="1.5" d="M0,-3.0v7 M-2.5,-0.5L0,-3.0L2.5,-0.5"/>
                </g>
                <g id="arrowRight" xlink:href="#dirArrow" transform="rotate(90) translate(36 -43)" onmousedown="handlePan(1,0)">
                  <use xlink:href="#rim" fill="#404040">
                        <set attributeName="fill" to="#808080" begin="arrowRight.mouseover" end="arrowRight.mouseout"/>
                  </use>
                  <path fill="none" stroke="white" stroke-width="1.5" d="M0,-3.0v7 M-2.5,-0.5L0,-3.0L2.5,-0.5"/>
                </g>
                <g id="arrowDown" xlink:href="#dirArrow" transform="rotate(180) translate(-30 -48)" onmousedown="handlePan(0,1)">
                  <use xlink:href="#rim" fill="#404040">
                        <set attributeName="fill" to="#808080" begin="arrowDown.mouseover" end="arrowDown.mouseout"/>
                  </use>
                  <path fill="none" stroke="white" stroke-width="1.5" d="M0,-3.0v7 M-2.5,-0.5L0,-3.0L2.5,-0.5"/>
                </g>
                <g id="arrowLeft" xlink:href="#dirArrow" transform="rotate(270) translate(-36 17)" onmousedown="handlePan(-1,0)">
                  <use xlink:href="#rim" fill="#404040">
                        <set attributeName="fill" to="#808080" begin="arrowLeft.mouseover" end="arrowLeft.mouseout"/>
                  </use>
                  <path fill="none" stroke="white" stroke-width="1.5" d="M0,-3.0v7 M-2.5,-0.5L0,-3.0L2.5,-0.5"/>
                </g>
        </g>
        <svg viewBox="0 0 15 15" width="100%" height="30px" preserveAspectRatio="xMaxYMin meet">
         <g id="arrow_out" transform="scale(0.3 0.3)">
          <a xlink:href="class_item_u_i_a2b89b23e671541d302225044a9d9de6f_cgraph_org.svg" target="_base">
           <rect id="button" ry="5" rx="5" y="6" x="6" height="38" width="38"
                fill="#f2f5e9" fill-opacity="0.5" stroke="#606060" stroke-width="1.0"/>
           <path id="arrow"
             d="M 11.500037,31.436501 C 11.940474,20.09759 22.043105,11.32322 32.158766,21.979434 L 37.068811,17.246167 C 37.068811,17.246167 37.088388,32 37.088388,32 L 22.160133,31.978069 C 22.160133,31.978069 26.997745,27.140456 26.997745,27.140456 C 18.528582,18.264221 13.291696,25.230495 11.500037,31.436501 z"
             style="fill:#404040;"/>
          </a>
         </g>
        </svg>
</svg>
