<?xml version="1.0" encoding="UTF-8" standalone="no"?>
<!DOCTYPE svg PUBLIC "-//W3C//DTD SVG 1.1//EN"
 "http://www.w3.org/Graphics/SVG/1.1/DTD/svg11.dtd">
<!-- Generated by graphviz version 2.47.3 (20210619.1520)
 -->
<!-- Title: ModelSync.Update Pages: 1 -->
<!--zoomable 264 -->
<svg id="main" version="1.1" xmlns="http://www.w3.org/2000/svg" xmlns:xlink="http://www.w3.org/1999/xlink" xml:space="preserve" onload="init(evt)">
<style type="text/css"><![CDATA[
.edge:hover path { stroke: red; }
.edge:hover polygon { stroke: red; fill: red; }
]]></style>
<script type="text/javascript"><![CDATA[
var edges = document.getElementsByTagName('g');
if (edges && edges.length) {
  for (var i=0;i<edges.length;i++) {
    if (edges[i].id.substr(0,4)=='edge') {
      edges[i].setAttribute('class','edge');
    }
  }
}
]]></script>
        <defs>
                <circle id="rim" cx="0" cy="0" r="7"/>
                <circle id="rim2" cx="0" cy="0" r="3.5"/>
                <g id="zoomPlus">
                        <use xlink:href="#rim" fill="#404040">
                                <set attributeName="fill" to="#808080" begin="zoomplus.mouseover" end="zoomplus.mouseout"/>
                        </use>
                        <path d="M-4,0h8M0,-4v8" fill="none" stroke="white" stroke-width="1.5" pointer-events="none"/>
                </g>
                <g id="zoomMin">
                        <use xlink:href="#rim" fill="#404040">
                                <set attributeName="fill" to="#808080" begin="zoomminus.mouseover" end="zoomminus.mouseout"/>
                        </use>
                        <path d="M-4,0h8" fill="none" stroke="white" stroke-width="1.5" pointer-events="none"/>
                </g>
                <g id="dirArrow">
                        <path fill="none" stroke="white" stroke-width="1.5" d="M0,-3.0v7 M-2.5,-0.5L0,-3.0L2.5,-0.5"/>
                </g>
               <g id="resetDef">
                       <use xlink:href="#rim2" fill="#404040">
                               <set attributeName="fill" to="#808080" begin="reset.mouseover" end="reset.mouseout"/>
                       </use>
               </g>
        </defs>

<script type="text/javascript">
var viewWidth = 1305;
var viewHeight = 264;
var sectionId = 'dynsection-4';
</script>
<script xlink:href="svgpan.js"/>
<svg id="graph" class="graph">
<g id="viewport">
<title>ModelSync.Update</title>
<!-- Node1 -->
<g id="node1" class="node">
<title>Node1</title>
<g id="a_node1"><a xlink:title=" ">
<polygon fill="#bfbfbf" stroke="black" points="0,-107.5 0,-126.5 99,-126.5 99,-107.5 0,-107.5"/>
<text text-anchor="middle" x="49.5" y="-114.5" font-family="Helvetica,sans-Serif" font-size="10.00">ModelSync.Update</text>
</a>
</g>
</g>
<!-- Node2 -->
<g id="node2" class="node">
<title>Node2</title>
<g id="a_node2"><a xlink:href="class_model_sync.html#ab8359f73ae31a7f926c80ebcd7e9444a" target="_top" xlink:title="This starts all the initialization chain for the player.">
<polygon fill="none" stroke="black" points="135,-107.5 135,-126.5 245,-126.5 245,-107.5 135,-107.5"/>
<text text-anchor="middle" x="190" y="-114.5" font-family="Helvetica,sans-Serif" font-size="10.00">ModelSync.DoEnable</text>
</a>
</g>
</g>
<!-- Node1&#45;&gt;Node2 -->
<g id="edge1" class="edge">
<title>Node1&#45;&gt;Node2</title>
<path fill="none" stroke="midnightblue" d="M99.33,-117C107.61,-117 116.33,-117 124.93,-117"/>
<polygon fill="midnightblue" stroke="midnightblue" points="124.95,-120.5 134.95,-117 124.95,-113.5 124.95,-120.5"/>
</g>
<!-- Node3 -->
<g id="node3" class="node">
<title>Node3</title>
<g id="a_node3"><a xlink:href="class_player_controller.html#a75e94e4fd555e57e55ab4b7e54024dcf" target="_top" xlink:title="Initialize the PlayerController.">
<polygon fill="none" stroke="black" points="292,-145.5 292,-164.5 416,-164.5 416,-145.5 292,-145.5"/>
<text text-anchor="middle" x="354" y="-152.5" font-family="Helvetica,sans-Serif" font-size="10.00">PlayerController.Initialize</text>
</a>
</g>
</g>
<!-- Node2&#45;&gt;Node3 -->
<g id="edge2" class="edge">
<title>Node2&#45;&gt;Node3</title>
<path fill="none" stroke="midnightblue" d="M231.88,-126.59C253.35,-131.63 279.86,-137.84 302.6,-143.18"/>
<polygon fill="midnightblue" stroke="midnightblue" points="301.88,-146.6 312.41,-145.48 303.48,-139.79 301.88,-146.6"/>
</g>
<!-- Node23 -->
<g id="node23" class="node">
<title>Node23</title>
<g id="a_node23"><a xlink:href="class_model_player_mediator.html#abb544efe7192b8e934f60f770d5ac334" target="_top" xlink:title=" ">
<polygon fill="none" stroke="black" points="281,-107.5 281,-126.5 427,-126.5 427,-107.5 281,-107.5"/>
<text text-anchor="middle" x="354" y="-114.5" font-family="Helvetica,sans-Serif" font-size="10.00">ModelPlayerMediator.Initialize</text>
</a>
</g>
</g>
<!-- Node2&#45;&gt;Node23 -->
<g id="edge23" class="edge">
<title>Node2&#45;&gt;Node23</title>
<path fill="none" stroke="midnightblue" d="M245.39,-117C253.59,-117 262.19,-117 270.81,-117"/>
<polygon fill="midnightblue" stroke="midnightblue" points="270.91,-120.5 280.91,-117 270.91,-113.5 270.91,-120.5"/>
</g>
<!-- Node24 -->
<g id="node24" class="node">
<title>Node24</title>
<g id="a_node24"><a xlink:href="class_player_controller.html#a6be7bc2319b024c6bf66f1b1c96f7ba5" target="_top" xlink:title="Player Model will call this function to parent and sync itself to this GameObject">
<polygon fill="none" stroke="black" points="288,-69.5 288,-88.5 420,-88.5 420,-69.5 288,-69.5"/>
<text text-anchor="middle" x="354" y="-76.5" font-family="Helvetica,sans-Serif" font-size="10.00">PlayerController.SetParent</text>
</a>
</g>
</g>
<!-- Node2&#45;&gt;Node24 -->
<g id="edge24" class="edge">
<title>Node2&#45;&gt;Node24</title>
<path fill="none" stroke="midnightblue" d="M231.88,-107.41C253.35,-102.37 279.86,-96.16 302.6,-90.82"/>
<polygon fill="midnightblue" stroke="midnightblue" points="303.48,-94.21 312.41,-88.52 301.88,-87.4 303.48,-94.21"/>
</g>
<!-- Node4 -->
<g id="node4" class="node">
<title>Node4</title>
<g id="a_node4"><a xlink:href="class_player_stats.html#afcace3e680c4d2f0d8ae4a3d963b0d53" target="_top" xlink:title="Returns the AbilityCooldowns of the abilities">
<polygon fill="none" stroke="black" points="463,-183.5 463,-202.5 584,-202.5 584,-183.5 463,-183.5"/>
<text text-anchor="middle" x="523.5" y="-190.5" font-family="Helvetica,sans-Serif" font-size="10.00">PlayerStats.GetAbilities</text>
</a>
</g>
</g>
<!-- Node3&#45;&gt;Node4 -->
<g id="edge3" class="edge">
<title>Node3&#45;&gt;Node4</title>
<path fill="none" stroke="midnightblue" d="M397.27,-164.59C419.57,-169.65 447.12,-175.9 470.7,-181.25"/>
<polygon fill="midnightblue" stroke="midnightblue" points="470.01,-184.68 480.54,-183.48 471.56,-177.85 470.01,-184.68"/>
</g>
<!-- Node5 -->
<g id="node5" class="node">
<title>Node5</title>
<g id="a_node5"><a xlink:href="class_basic_attack.html#ac85eb061d597f5879d31fb8e7a0316d5" target="_top" xlink:title=" ">
<polygon fill="none" stroke="black" points="469.5,-145.5 469.5,-164.5 577.5,-164.5 577.5,-145.5 469.5,-145.5"/>
<text text-anchor="middle" x="523.5" y="-152.5" font-family="Helvetica,sans-Serif" font-size="10.00">BasicAttack.Initialize</text>
</a>
</g>
</g>
<!-- Node3&#45;&gt;Node5 -->
<g id="edge4" class="edge">
<title>Node3&#45;&gt;Node5</title>
<path fill="none" stroke="midnightblue" d="M416.42,-155C430.39,-155 445.26,-155 459.31,-155"/>
<polygon fill="midnightblue" stroke="midnightblue" points="459.37,-158.5 469.37,-155 459.37,-151.5 459.37,-158.5"/>
</g>
<!-- Node6 -->
<g id="node6" class="node">
<title>Node6</title>
<g id="a_node6"><a xlink:href="class_player_stats.html#ae874ab5cbb490cbdcf3f5613b8bc2240" target="_top" xlink:title="Initialize the actual Stats of the Player.">
<polygon fill="none" stroke="black" points="470.5,-107.5 470.5,-126.5 576.5,-126.5 576.5,-107.5 470.5,-107.5"/>
<text text-anchor="middle" x="523.5" y="-114.5" font-family="Helvetica,sans-Serif" font-size="10.00">PlayerStats.Initialize</text>
</a>
</g>
</g>
<!-- Node3&#45;&gt;Node6 -->
<g id="edge5" class="edge">
<title>Node3&#45;&gt;Node6</title>
<path fill="none" stroke="midnightblue" d="M397.27,-145.41C419.57,-140.35 447.12,-134.1 470.7,-128.75"/>
<polygon fill="midnightblue" stroke="midnightblue" points="471.56,-132.15 480.54,-126.52 470.01,-125.32 471.56,-132.15"/>
</g>
<!-- Node7 -->
<g id="node7" class="node">
<title>Node7</title>
<g id="a_node7"><a xlink:href="class_player_u_i_controller.html#ab6ed746dec17fdf763bc4ec1d713db7f" target="_top" xlink:title="Initializes all the values and colors for this Player.">
<polygon fill="none" stroke="black" points="626.5,-205.5 626.5,-224.5 757.5,-224.5 757.5,-205.5 626.5,-205.5"/>
<text text-anchor="middle" x="692" y="-212.5" font-family="Helvetica,sans-Serif" font-size="10.00">PlayerUIController.Initalize</text>
</a>
</g>
</g>
<!-- Node6&#45;&gt;Node7 -->
<g id="edge6" class="edge">
<title>Node6&#45;&gt;Node7</title>
<path fill="none" stroke="midnightblue" d="M567.29,-126.61C573.25,-129.07 579.02,-132.15 584,-136 607.7,-154.33 596.22,-174.77 620,-193 624.35,-196.34 629.22,-199.17 634.3,-201.58"/>
<polygon fill="midnightblue" stroke="midnightblue" points="633.06,-204.85 643.64,-205.47 635.75,-198.39 633.06,-204.85"/>
</g>
<!-- Node13 -->
<g id="node13" class="node">
<title>Node13</title>
<g id="a_node13"><a xlink:href="class_player_h_u_d_controller.html#af18de1b3d5444d69cc35c9390692ab72" target="_top" xlink:title=" ">
<polygon fill="none" stroke="black" points="620,-164.5 620,-183.5 764,-183.5 764,-164.5 620,-164.5"/>
<text text-anchor="middle" x="692" y="-171.5" font-family="Helvetica,sans-Serif" font-size="10.00">PlayerHUDController.Initialize</text>
</a>
</g>
</g>
<!-- Node6&#45;&gt;Node13 -->
<g id="edge13" class="edge">
<title>Node6&#45;&gt;Node13</title>
<path fill="none" stroke="midnightblue" d="M557.92,-126.53C566.53,-129.3 575.7,-132.52 584,-136 600.68,-143 603.16,-148.4 620,-155 626.23,-157.44 632.88,-159.68 639.52,-161.69"/>
<polygon fill="midnightblue" stroke="midnightblue" points="638.62,-165.08 649.2,-164.48 640.56,-158.35 638.62,-165.08"/>
</g>
<!-- Node15 -->
<g id="node15" class="node">
<title>Node15</title>
<g id="a_node15"><a xlink:href="class_effect_manager.html#a5b9a498227bc61493b5246eb1303fc6e" target="_top" xlink:title="This method initializes the EffectManager with the proper HUD Controller to start showing the effects...">
<polygon fill="none" stroke="black" points="633.5,-126.5 633.5,-145.5 750.5,-145.5 750.5,-126.5 633.5,-126.5"/>
<text text-anchor="middle" x="692" y="-133.5" font-family="Helvetica,sans-Serif" font-size="10.00">EffectManager.Initialize</text>
</a>
</g>
</g>
<!-- Node6&#45;&gt;Node15 -->
<g id="edge15" class="edge">
<title>Node6&#45;&gt;Node15</title>
<path fill="none" stroke="midnightblue" d="M576.72,-122.96C591.51,-124.65 607.82,-126.51 623.38,-128.28"/>
<polygon fill="midnightblue" stroke="midnightblue" points="623.13,-131.78 633.46,-129.43 623.93,-124.82 623.13,-131.78"/>
</g>
<!-- Node16 -->
<g id="node16" class="node">
<title>Node16</title>
<g id="a_node16"><a xlink:href="class_inventory.html#af5cb79cb50692e3fb6c98df25812dcbc" target="_top" xlink:title=" ">
<polygon fill="none" stroke="black" points="645.5,-88.5 645.5,-107.5 738.5,-107.5 738.5,-88.5 645.5,-88.5"/>
<text text-anchor="middle" x="692" y="-95.5" font-family="Helvetica,sans-Serif" font-size="10.00">Inventory.Initialize</text>
</a>
</g>
</g>
<!-- Node6&#45;&gt;Node16 -->
<g id="edge16" class="edge">
<title>Node6&#45;&gt;Node16</title>
<path fill="none" stroke="midnightblue" d="M576.72,-111.04C595.4,-108.91 616.5,-106.5 635.45,-104.34"/>
<polygon fill="midnightblue" stroke="midnightblue" points="635.89,-107.81 645.43,-103.2 635.09,-100.86 635.89,-107.81"/>
</g>
<!-- Node18 -->
<g id="node18" class="node">
<title>Node18</title>
<g id="a_node18"><a xlink:href="class_player_h_u_d_controller.html#adf30ead91cd36140e32d0ad158fbbae4" target="_top" xlink:title=" ">
<polygon fill="none" stroke="black" points="620,-39 620,-69 764,-69 764,-39 620,-39"/>
<text text-anchor="start" x="628" y="-57" font-family="Helvetica,sans-Serif" font-size="10.00">PlayerHUDController.Initialize</text>
<text text-anchor="middle" x="692" y="-46" font-family="Helvetica,sans-Serif" font-size="10.00">Abilities</text>
</a>
</g>
</g>
<!-- Node6&#45;&gt;Node18 -->
<g id="edge18" class="edge">
<title>Node6&#45;&gt;Node18</title>
<path fill="none" stroke="midnightblue" d="M547.95,-107.37C567.22,-99.52 595.27,-88.27 620,-79 625.78,-76.83 631.85,-74.61 637.9,-72.44"/>
<polygon fill="midnightblue" stroke="midnightblue" points="639.1,-75.72 647.34,-69.06 636.75,-69.13 639.1,-75.72"/>
</g>
<!-- Node22 -->
<g id="node22" class="node">
<title>Node22</title>
<g id="a_node22"><a xlink:href="class_player_stats.html#a856d6147e020365c88ea7b01cb4961a6" target="_top" xlink:title=" ">
<polygon fill="none" stroke="black" points="635.5,-0.5 635.5,-19.5 748.5,-19.5 748.5,-0.5 635.5,-0.5"/>
<text text-anchor="middle" x="692" y="-7.5" font-family="Helvetica,sans-Serif" font-size="10.00">PlayerStats.InitValues</text>
</a>
</g>
</g>
<!-- Node6&#45;&gt;Node22 -->
<g id="edge22" class="edge">
<title>Node6&#45;&gt;Node22</title>
<path fill="none" stroke="midnightblue" d="M532.08,-107.45C546.96,-89.34 581.88,-49.98 620,-29 624.18,-26.7 628.66,-24.66 633.25,-22.87"/>
<polygon fill="midnightblue" stroke="midnightblue" points="634.52,-26.13 642.79,-19.51 632.2,-19.53 634.52,-26.13"/>
</g>
<!-- Node8 -->
<g id="node8" class="node">
<title>Node8</title>
<g id="a_node8"><a xlink:href="class_player_u_i_controller.html#aa5b61a93967fa5ce39bfd950a9e9d584" target="_top" xlink:title="Initializes all the values into the Image and Text.">
<polygon fill="none" stroke="black" points="803.5,-201 803.5,-231 936.5,-231 936.5,-201 803.5,-201"/>
<text text-anchor="start" x="811.5" y="-219" font-family="Helvetica,sans-Serif" font-size="10.00">PlayerUIController.Initialize</text>
<text text-anchor="middle" x="870" y="-208" font-family="Helvetica,sans-Serif" font-size="10.00">Values</text>
</a>
</g>
</g>
<!-- Node7&#45;&gt;Node8 -->
<g id="edge7" class="edge">
<title>Node7&#45;&gt;Node8</title>
<path fill="none" stroke="midnightblue" d="M757.54,-215.37C769.07,-215.43 781.18,-215.5 793,-215.57"/>
<polygon fill="midnightblue" stroke="midnightblue" points="793.27,-219.07 803.29,-215.63 793.31,-212.07 793.27,-219.07"/>
</g>
<!-- Node9 -->
<g id="node9" class="node">
<title>Node9</title>
<g id="a_node9"><a xlink:href="class_player_u_i_controller.html#adadd54ec10a1236aa7c08022d27fa068" target="_top" xlink:title="Sets the current level and xp to the Image.">
<polygon fill="none" stroke="black" points="983.5,-225 983.5,-255 1111.5,-255 1111.5,-225 983.5,-225"/>
<text text-anchor="start" x="991.5" y="-243" font-family="Helvetica,sans-Serif" font-size="10.00">PlayerUIController.Update</text>
<text text-anchor="middle" x="1047.5" y="-232" font-family="Helvetica,sans-Serif" font-size="10.00">CurrentLevel</text>
</a>
</g>
</g>
<!-- Node8&#45;&gt;Node9 -->
<g id="edge8" class="edge">
<title>Node8&#45;&gt;Node9</title>
<path fill="none" stroke="midnightblue" d="M936.85,-225C948.78,-226.64 961.29,-228.35 973.41,-230"/>
<polygon fill="midnightblue" stroke="midnightblue" points="973.1,-233.49 983.48,-231.38 974.05,-226.56 973.1,-233.49"/>
</g>
<!-- Node11 -->
<g id="node11" class="node">
<title>Node11</title>
<g id="a_node11"><a xlink:href="class_player_u_i_controller.html#aacc9f1b78d9e1adab16f8fc2ec246dfb" target="_top" xlink:title=" ">
<polygon fill="none" stroke="black" points="983.5,-176 983.5,-206 1111.5,-206 1111.5,-176 983.5,-176"/>
<text text-anchor="start" x="991.5" y="-194" font-family="Helvetica,sans-Serif" font-size="10.00">PlayerUIController.Update</text>
<text text-anchor="middle" x="1047.5" y="-183" font-family="Helvetica,sans-Serif" font-size="10.00">MaxHP</text>
</a>
</g>
</g>
<!-- Node8&#45;&gt;Node11 -->
<g id="edge10" class="edge">
<title>Node8&#45;&gt;Node11</title>
<path fill="none" stroke="midnightblue" d="M936.85,-206.62C948.78,-204.92 961.29,-203.14 973.41,-201.41"/>
<polygon fill="midnightblue" stroke="midnightblue" points="974.07,-204.85 983.48,-199.98 973.09,-197.92 974.07,-204.85"/>
</g>
<!-- Node10 -->
<g id="node10" class="node">
<title>Node10</title>
<g id="a_node10"><a xlink:href="class_utils.html#a459472171f68c903c975020cc5b02fee" target="_top" xlink:title="Calculates the actual normalized fill amount for the image.">
<polygon fill="none" stroke="black" points="1163,-224.5 1163,-243.5 1289,-243.5 1289,-224.5 1163,-224.5"/>
<text text-anchor="middle" x="1226" y="-231.5" font-family="Helvetica,sans-Serif" font-size="10.00">Utils.CalculateFillAmount</text>
</a>
</g>
</g>
<!-- Node9&#45;&gt;Node10 -->
<g id="edge9" class="edge">
<title>Node9&#45;&gt;Node10</title>
<path fill="none" stroke="midnightblue" d="M1111.72,-237.85C1124.96,-237.4 1139.03,-236.92 1152.57,-236.46"/>
<polygon fill="midnightblue" stroke="midnightblue" points="1152.94,-239.95 1162.81,-236.11 1152.7,-232.96 1152.94,-239.95"/>
</g>
<!-- Node11&#45;&gt;Node10 -->
<g id="edge11" class="edge">
<title>Node11&#45;&gt;Node10</title>
<path fill="none" stroke="midnightblue" d="M1110.23,-206.04C1131.75,-211.28 1155.58,-217.09 1175.93,-222.04"/>
<polygon fill="midnightblue" stroke="midnightblue" points="1175.37,-225.51 1185.91,-224.48 1177.03,-218.71 1175.37,-225.51"/>
</g>
<!-- Node12 -->
<g id="node12" class="node">
<title>Node12</title>
<g id="a_node12"><a xlink:href="class_player_u_i_controller.html#aaa62b1e4dc1ee6689adbc72b8dcb73d3" target="_top" xlink:title="When you heal HP, we will reset the lerped bar">
<polygon fill="none" stroke="black" points="1155,-181.5 1155,-200.5 1297,-200.5 1297,-181.5 1155,-181.5"/>
<text text-anchor="middle" x="1226" y="-188.5" font-family="Helvetica,sans-Serif" font-size="10.00">PlayerUIController.ResetLerp</text>
</a>
</g>
</g>
<!-- Node11&#45;&gt;Node12 -->
<g id="edge12" class="edge">
<title>Node11&#45;&gt;Node12</title>
<path fill="none" stroke="midnightblue" d="M1111.72,-191C1122.4,-191 1133.61,-191 1144.66,-191"/>
<polygon fill="midnightblue" stroke="midnightblue" points="1144.73,-194.5 1154.73,-191 1144.73,-187.5 1144.73,-194.5"/>
</g>
<!-- Node14 -->
<g id="node14" class="node">
<title>Node14</title>
<g id="a_node14"><a xlink:href="class_sellable_item_u_i.html#a10394a2c7d2d0a72d9c8b05fbf3e8696" target="_top" xlink:title=" ">
<polygon fill="none" stroke="black" points="811.5,-162.5 811.5,-181.5 928.5,-181.5 928.5,-162.5 811.5,-162.5"/>
<text text-anchor="middle" x="870" y="-169.5" font-family="Helvetica,sans-Serif" font-size="10.00">SellableItemUI.Initialize</text>
</a>
</g>
</g>
<!-- Node13&#45;&gt;Node14 -->
<g id="edge14" class="edge">
<title>Node13&#45;&gt;Node14</title>
<path fill="none" stroke="midnightblue" d="M764.08,-173.19C776.38,-173.05 789.13,-172.91 801.34,-172.77"/>
<polygon fill="midnightblue" stroke="midnightblue" points="801.48,-176.27 811.44,-172.65 801.4,-169.27 801.48,-176.27"/>
</g>
<!-- Node17 -->
<g id="node17" class="node">
<title>Node17</title>
<g id="a_node17"><a xlink:href="class_player_h_u_d_controller.html#aeef77dcdfaf1c9b719e4350c17c88fa5" target="_top" xlink:title=" ">
<polygon fill="none" stroke="black" points="800,-83 800,-113 940,-113 940,-83 800,-83"/>
<text text-anchor="start" x="808" y="-101" font-family="Helvetica,sans-Serif" font-size="10.00">PlayerHUDController.Update</text>
<text text-anchor="middle" x="870" y="-90" font-family="Helvetica,sans-Serif" font-size="10.00">GoldTxt</text>
</a>
</g>
</g>
<!-- Node16&#45;&gt;Node17 -->
<g id="edge17" class="edge">
<title>Node16&#45;&gt;Node17</title>
<path fill="none" stroke="midnightblue" d="M738.78,-98C754.36,-98 772.26,-98 789.69,-98"/>
<polygon fill="midnightblue" stroke="midnightblue" points="789.89,-101.5 799.89,-98 789.89,-94.5 789.89,-101.5"/>
</g>
<!-- Node19 -->
<g id="node19" class="node">
<title>Node19</title>
<g id="a_node19"><a xlink:href="class_ability_cooldown.html#aa01c150ac26f1694a1e174e152510094" target="_top" xlink:title="Initializes the current AbilityCooldown.">
<polygon fill="none" stroke="black" points="808,-44.5 808,-63.5 932,-63.5 932,-44.5 808,-44.5"/>
<text text-anchor="middle" x="870" y="-51.5" font-family="Helvetica,sans-Serif" font-size="10.00">AbilityCooldown.Initialize</text>
</a>
</g>
</g>
<!-- Node18&#45;&gt;Node19 -->
<g id="edge19" class="edge">
<title>Node18&#45;&gt;Node19</title>
<path fill="none" stroke="midnightblue" d="M764.08,-54C775.18,-54 786.66,-54 797.76,-54"/>
<polygon fill="midnightblue" stroke="midnightblue" points="797.84,-57.5 807.84,-54 797.84,-50.5 797.84,-57.5"/>
</g>
<!-- Node20 -->
<g id="node20" class="node">
<title>Node20</title>
<g id="a_node20"><a xlink:href="class_ability_cooldown.html#a2142f4ae1a75b2e88bd33d8553680a33" target="_top" xlink:title="This function is called whenever this ability is ready and you have enough mana.">
<polygon fill="none" stroke="black" points="976,-63.5 976,-82.5 1119,-82.5 1119,-63.5 976,-63.5"/>
<text text-anchor="middle" x="1047.5" y="-70.5" font-family="Helvetica,sans-Serif" font-size="10.00">AbilityCooldown.AbilityReady</text>
</a>
</g>
</g>
<!-- Node19&#45;&gt;Node20 -->
<g id="edge20" class="edge">
<title>Node19&#45;&gt;Node20</title>
<path fill="none" stroke="midnightblue" d="M932.38,-60.65C943.13,-61.81 954.46,-63.04 965.63,-64.25"/>
<polygon fill="midnightblue" stroke="midnightblue" points="965.52,-67.75 975.84,-65.35 966.27,-60.79 965.52,-67.75"/>
</g>
<!-- Node21 -->
<g id="node21" class="node">
<title>Node21</title>
<g id="a_node21"><a xlink:href="class_ability.html#a680fce4c2981c462afc82d28fe3958ef" target="_top" xlink:title=" ">
<polygon fill="none" stroke="black" points="1006.5,-25.5 1006.5,-44.5 1088.5,-44.5 1088.5,-25.5 1006.5,-25.5"/>
<text text-anchor="middle" x="1047.5" y="-32.5" font-family="Helvetica,sans-Serif" font-size="10.00">Ability.Initialize</text>
</a>
</g>
</g>
<!-- Node19&#45;&gt;Node21 -->
<g id="edge21" class="edge">
<title>Node19&#45;&gt;Node21</title>
<path fill="none" stroke="midnightblue" d="M932.38,-47.35C953.26,-45.09 976.33,-42.6 996.23,-40.44"/>
<polygon fill="midnightblue" stroke="midnightblue" points="996.75,-43.91 1006.32,-39.35 996,-36.95 996.75,-43.91"/>
</g>
</g>
</svg>
        <g id="navigator" transform="translate(0 0)" fill="#404254">
                <rect fill="#f2f5e9" fill-opacity="0.5" stroke="#606060" stroke-width=".5" x="0" y="0" width="60" height="60"/>
                <use id="zoomplus" xlink:href="#zoomPlus" x="17" y="9" onmousedown="handleZoom(evt,'in')"/>
                <use id="zoomminus" xlink:href="#zoomMin" x="42" y="9" onmousedown="handleZoom(evt,'out')"/>
                <use id="reset" xlink:href="#resetDef" x="30" y="36" onmousedown="handleReset()"/>
                <g id="arrowUp" xlink:href="#dirArrow" transform="translate(30 24)" onmousedown="handlePan(0,-1)">
                  <use xlink:href="#rim" fill="#404040">
                        <set attributeName="fill" to="#808080" begin="arrowUp.mouseover" end="arrowUp.mouseout"/>
                  </use>
                  <path fill="none" stroke="white" stroke-width="1.5" d="M0,-3.0v7 M-2.5,-0.5L0,-3.0L2.5,-0.5"/>
                </g>
                <g id="arrowRight" xlink:href="#dirArrow" transform="rotate(90) translate(36 -43)" onmousedown="handlePan(1,0)">
                  <use xlink:href="#rim" fill="#404040">
                        <set attributeName="fill" to="#808080" begin="arrowRight.mouseover" end="arrowRight.mouseout"/>
                  </use>
                  <path fill="none" stroke="white" stroke-width="1.5" d="M0,-3.0v7 M-2.5,-0.5L0,-3.0L2.5,-0.5"/>
                </g>
                <g id="arrowDown" xlink:href="#dirArrow" transform="rotate(180) translate(-30 -48)" onmousedown="handlePan(0,1)">
                  <use xlink:href="#rim" fill="#404040">
                        <set attributeName="fill" to="#808080" begin="arrowDown.mouseover" end="arrowDown.mouseout"/>
                  </use>
                  <path fill="none" stroke="white" stroke-width="1.5" d="M0,-3.0v7 M-2.5,-0.5L0,-3.0L2.5,-0.5"/>
                </g>
                <g id="arrowLeft" xlink:href="#dirArrow" transform="rotate(270) translate(-36 17)" onmousedown="handlePan(-1,0)">
                  <use xlink:href="#rim" fill="#404040">
                        <set attributeName="fill" to="#808080" begin="arrowLeft.mouseover" end="arrowLeft.mouseout"/>
                  </use>
                  <path fill="none" stroke="white" stroke-width="1.5" d="M0,-3.0v7 M-2.5,-0.5L0,-3.0L2.5,-0.5"/>
                </g>
        </g>
        <svg viewBox="0 0 15 15" width="100%" height="30px" preserveAspectRatio="xMaxYMin meet">
         <g id="arrow_out" transform="scale(0.3 0.3)">
          <a xlink:href="class_model_sync_abf63af5a901636617cb742aab24c4d6f_cgraph_org.svg" target="_base">
           <rect id="button" ry="5" rx="5" y="6" x="6" height="38" width="38"
                fill="#f2f5e9" fill-opacity="0.5" stroke="#606060" stroke-width="1.0"/>
           <path id="arrow"
             d="M 11.500037,31.436501 C 11.940474,20.09759 22.043105,11.32322 32.158766,21.979434 L 37.068811,17.246167 C 37.068811,17.246167 37.088388,32 37.088388,32 L 22.160133,31.978069 C 22.160133,31.978069 26.997745,27.140456 26.997745,27.140456 C 18.528582,18.264221 13.291696,25.230495 11.500037,31.436501 z"
             style="fill:#404040;"/>
          </a>
         </g>
        </svg>
</svg>
