<?xml version="1.0" encoding="UTF-8" standalone="no"?>
<!DOCTYPE svg PUBLIC "-//W3C//DTD SVG 1.1//EN"
 "http://www.w3.org/Graphics/SVG/1.1/DTD/svg11.dtd">
<!-- Generated by graphviz version 2.47.3 (20210619.1520)
 -->
<!-- Title: Photon.Realtime.Demo.ConnectAndJoinRandomLb.OnRegionPingCompleted Pages: 1 -->
<svg width="1399pt" height="355pt"
 viewBox="0.00 0.00 1399.00 354.50" xmlns="http://www.w3.org/2000/svg" xmlns:xlink="http://www.w3.org/1999/xlink">
<g id="graph0" class="graph" transform="scale(1 1) rotate(0) translate(4 350.5)">
<title>Photon.Realtime.Demo.ConnectAndJoinRandomLb.OnRegionPingCompleted</title>
<polygon fill="white" stroke="transparent" points="-4,4 -4,-350.5 1395,-350.5 1395,4 -4,4"/>
<!-- Node1 -->
<g id="node1" class="node">
<title>Node1</title>
<g id="a_node1"><a xlink:title="A callback of the RegionHandler, provided in OnRegionListReceived.">
<polygon fill="#bfbfbf" stroke="black" points="0,-66.5 0,-96.5 209,-96.5 209,-66.5 0,-66.5"/>
<text text-anchor="start" x="8" y="-84.5" font-family="Helvetica,sans-Serif" font-size="10.00">Photon.Realtime.Demo.Connect</text>
<text text-anchor="middle" x="104.5" y="-73.5" font-family="Helvetica,sans-Serif" font-size="10.00">AndJoinRandomLb.OnRegionPingCompleted</text>
</a>
</g>
</g>
<!-- Node2 -->
<g id="node2" class="node">
<title>Node2</title>
<g id="a_node2"><a xlink:href="class_photon_1_1_realtime_1_1_load_balancing_client.xhtml#a8db8b6caf7819906b58b59fb0e31f63c" target="_top" xlink:title="Connects you to a specific region&#39;s Master Server, using the Name Server to find the IP.">
<polygon fill="white" stroke="black" points="245,-66.5 245,-96.5 400,-96.5 400,-66.5 245,-66.5"/>
<text text-anchor="start" x="253" y="-84.5" font-family="Helvetica,sans-Serif" font-size="10.00">Photon.Realtime.LoadBalancing</text>
<text text-anchor="middle" x="322.5" y="-73.5" font-family="Helvetica,sans-Serif" font-size="10.00">Client.ConnectToRegionMaster</text>
</a>
</g>
</g>
<!-- Node1&#45;&gt;Node2 -->
<g id="edge1" class="edge">
<title>Node1&#45;&gt;Node2</title>
<path fill="none" stroke="midnightblue" d="M209.07,-81.5C217.62,-81.5 226.2,-81.5 234.6,-81.5"/>
<polygon fill="midnightblue" stroke="midnightblue" points="234.75,-85 244.75,-81.5 234.75,-78 234.75,-85"/>
</g>
<!-- Node3 -->
<g id="node3" class="node">
<title>Node3</title>
<g id="a_node3"><a xlink:href="class_photon_1_1_realtime_1_1_load_balancing_client.xhtml#a41ac38b72df503d0c9997b0ab1b78801" target="_top" xlink:title=" ">
<polygon fill="white" stroke="black" points="445,-173.5 445,-203.5 600,-203.5 600,-173.5 445,-173.5"/>
<text text-anchor="start" x="453" y="-191.5" font-family="Helvetica,sans-Serif" font-size="10.00">Photon.Realtime.LoadBalancing</text>
<text text-anchor="middle" x="522.5" y="-180.5" font-family="Helvetica,sans-Serif" font-size="10.00">Client.CallAuthenticate</text>
</a>
</g>
</g>
<!-- Node2&#45;&gt;Node3 -->
<g id="edge2" class="edge">
<title>Node2&#45;&gt;Node3</title>
<path fill="none" stroke="midnightblue" d="M351.45,-96.6C386.38,-115.48 446.27,-147.84 484.85,-168.69"/>
<polygon fill="midnightblue" stroke="midnightblue" points="483.23,-171.8 493.69,-173.47 486.56,-165.64 483.23,-171.8"/>
</g>
<!-- Node7 -->
<g id="node7" class="node">
<title>Node7</title>
<g id="a_node7"><a xlink:href="class_photon_1_1_realtime_1_1_load_balancing_client.xhtml#a69dd43d4c7211b5b83cd54d0ebcf79e7" target="_top" xlink:title="Debug output of low level api (and this client).">
<polygon fill="white" stroke="black" points="849.5,-85.5 849.5,-115.5 1004.5,-115.5 1004.5,-85.5 849.5,-85.5"/>
<text text-anchor="start" x="857.5" y="-103.5" font-family="Helvetica,sans-Serif" font-size="10.00">Photon.Realtime.LoadBalancing</text>
<text text-anchor="middle" x="927" y="-92.5" font-family="Helvetica,sans-Serif" font-size="10.00">Client.DebugReturn</text>
</a>
</g>
</g>
<!-- Node2&#45;&gt;Node7 -->
<g id="edge17" class="edge">
<title>Node2&#45;&gt;Node7</title>
<path fill="none" stroke="midnightblue" d="M400.11,-83.92C512.52,-87.46 721.54,-94.05 839.38,-97.77"/>
<polygon fill="midnightblue" stroke="midnightblue" points="839.35,-101.27 849.45,-98.09 839.57,-94.27 839.35,-101.27"/>
</g>
<!-- Node11 -->
<g id="node11" class="node">
<title>Node11</title>
<g id="a_node11"><a xlink:href="class_photon_1_1_realtime_1_1_load_balancing_client.xhtml#a29aacea6df375e301f67cb40ea90849e" target="_top" xlink:title=" ">
<polygon fill="white" stroke="black" points="645,-41.5 645,-71.5 809,-71.5 809,-41.5 645,-41.5"/>
<text text-anchor="start" x="653" y="-59.5" font-family="Helvetica,sans-Serif" font-size="10.00">Photon.Realtime.LoadBalancing</text>
<text text-anchor="middle" x="727" y="-48.5" font-family="Helvetica,sans-Serif" font-size="10.00">Client.CheckConnectSetupWebGl</text>
</a>
</g>
</g>
<!-- Node2&#45;&gt;Node11 -->
<g id="edge12" class="edge">
<title>Node2&#45;&gt;Node11</title>
<path fill="none" stroke="midnightblue" d="M400.15,-76.74C466.9,-72.59 563.78,-66.58 634.55,-62.18"/>
<polygon fill="midnightblue" stroke="midnightblue" points="635.03,-65.66 644.8,-61.54 634.6,-58.67 635.03,-65.66"/>
</g>
<!-- Node12 -->
<g id="node12" class="node">
<title>Node12</title>
<g id="a_node12"><a xlink:href="class_photon_1_1_realtime_1_1_load_balancing_client.xhtml#a43a3b987e52c0e028ce1d5803b7b9507" target="_top" xlink:title=" ">
<polygon fill="white" stroke="black" points="436,-0.5 436,-30.5 609,-30.5 609,-0.5 436,-0.5"/>
<text text-anchor="start" x="444" y="-18.5" font-family="Helvetica,sans-Serif" font-size="10.00">Photon.Realtime.LoadBalancing</text>
<text text-anchor="middle" x="522.5" y="-7.5" font-family="Helvetica,sans-Serif" font-size="10.00">Client.CheckConnectSetupXboxOne</text>
</a>
</g>
</g>
<!-- Node2&#45;&gt;Node12 -->
<g id="edge15" class="edge">
<title>Node2&#45;&gt;Node12</title>
<path fill="none" stroke="midnightblue" d="M368.93,-66.36C397.98,-56.67 435.84,-44.05 466.58,-33.81"/>
<polygon fill="midnightblue" stroke="midnightblue" points="467.91,-37.05 476.29,-30.57 465.69,-30.41 467.91,-37.05"/>
</g>
<!-- Node4 -->
<g id="node4" class="node">
<title>Node4</title>
<g id="a_node4"><a xlink:href="class_photon_1_1_realtime_1_1_load_balancing_client.xhtml#aa12ff3efc3aa91e5ceca9b3a40f7bd79" target="_top" xlink:title=" ">
<polygon fill="white" stroke="black" points="649.5,-255.5 649.5,-285.5 804.5,-285.5 804.5,-255.5 649.5,-255.5"/>
<text text-anchor="start" x="657.5" y="-273.5" font-family="Helvetica,sans-Serif" font-size="10.00">Photon.Realtime.LoadBalancing</text>
<text text-anchor="middle" x="727" y="-262.5" font-family="Helvetica,sans-Serif" font-size="10.00">Client.CheckIfOpCanBeSent</text>
</a>
</g>
</g>
<!-- Node3&#45;&gt;Node4 -->
<g id="edge3" class="edge">
<title>Node3&#45;&gt;Node4</title>
<path fill="none" stroke="midnightblue" d="M557.35,-203.52C581.62,-214.16 615.16,-228.6 645,-240.5 654.61,-244.33 664.91,-248.28 674.85,-251.99"/>
<polygon fill="midnightblue" stroke="midnightblue" points="673.63,-255.28 684.23,-255.48 676.07,-248.71 673.63,-255.28"/>
</g>
<!-- Node3&#45;&gt;Node7 -->
<g id="edge9" class="edge">
<title>Node3&#45;&gt;Node7</title>
<path fill="none" stroke="midnightblue" d="M600.07,-192.89C658.58,-194 740.54,-190.65 809,-169.5 842.36,-159.19 876.28,-137.72 898.94,-121.45"/>
<polygon fill="midnightblue" stroke="midnightblue" points="901.06,-124.24 907.05,-115.51 896.92,-118.6 901.06,-124.24"/>
</g>
<!-- Node8 -->
<g id="node8" class="node">
<title>Node8</title>
<g id="a_node8"><a xlink:href="class_photon_1_1_realtime_1_1_load_balancing_peer.xhtml#a7f48b5f0c44ef0c67ef32f147ff87246" target="_top" xlink:title="Creates a Peer with specified connection protocol.">
<polygon fill="white" stroke="black" points="1045,-85.5 1045,-115.5 1200,-115.5 1200,-85.5 1045,-85.5"/>
<text text-anchor="start" x="1053" y="-103.5" font-family="Helvetica,sans-Serif" font-size="10.00">Photon.Realtime.LoadBalancing</text>
<text text-anchor="middle" x="1122.5" y="-92.5" font-family="Helvetica,sans-Serif" font-size="10.00">Peer.LoadBalancingPeer</text>
</a>
</g>
</g>
<!-- Node3&#45;&gt;Node8 -->
<g id="edge10" class="edge">
<title>Node3&#45;&gt;Node8</title>
<path fill="none" stroke="midnightblue" d="M600.28,-192.87C615.12,-193.55 630.54,-194.14 645,-194.5 717.87,-196.3 736.89,-205.11 809,-194.5 905.9,-180.24 1014.43,-142.37 1074.7,-119.29"/>
<polygon fill="midnightblue" stroke="midnightblue" points="1076.24,-122.44 1084.31,-115.57 1073.72,-115.91 1076.24,-122.44"/>
</g>
<!-- Node10 -->
<g id="node10" class="node">
<title>Node10</title>
<g id="a_node10"><a xlink:href="class_photon_1_1_realtime_1_1_load_balancing_peer.xhtml#a4ed3ae23ffbc88d5b449997e5af8d9af" target="_top" xlink:title="Sends this app&#39;s appId and appVersion to identify this application server side.">
<polygon fill="white" stroke="black" points="649.5,-129.5 649.5,-159.5 804.5,-159.5 804.5,-129.5 649.5,-129.5"/>
<text text-anchor="start" x="657.5" y="-147.5" font-family="Helvetica,sans-Serif" font-size="10.00">Photon.Realtime.LoadBalancing</text>
<text text-anchor="middle" x="727" y="-136.5" font-family="Helvetica,sans-Serif" font-size="10.00">Peer.OpAuthenticate</text>
</a>
</g>
</g>
<!-- Node3&#45;&gt;Node10 -->
<g id="edge11" class="edge">
<title>Node3&#45;&gt;Node10</title>
<path fill="none" stroke="midnightblue" d="M592.62,-173.48C610.12,-169.68 629.05,-165.57 646.99,-161.67"/>
<polygon fill="midnightblue" stroke="midnightblue" points="647.82,-165.07 656.85,-159.53 646.33,-158.23 647.82,-165.07"/>
</g>
<!-- Node5 -->
<g id="node5" class="node">
<title>Node5</title>
<g id="a_node5"><a xlink:href="class_photon_1_1_realtime_1_1_load_balancing_client.xhtml#ae052ab450db16efdd31985d56f76f0ab" target="_top" xlink:title=" ">
<polygon fill="white" stroke="black" points="845,-305 845,-346 1009,-346 1009,-305 845,-305"/>
<text text-anchor="start" x="853" y="-334" font-family="Helvetica,sans-Serif" font-size="10.00">Photon.Realtime.LoadBalancing</text>
<text text-anchor="start" x="853" y="-323" font-family="Helvetica,sans-Serif" font-size="10.00">Client.CheckIfClientIsReadyToCall</text>
<text text-anchor="middle" x="927" y="-312" font-family="Helvetica,sans-Serif" font-size="10.00">Operation</text>
</a>
</g>
</g>
<!-- Node4&#45;&gt;Node5 -->
<g id="edge4" class="edge">
<title>Node4&#45;&gt;Node5</title>
<path fill="none" stroke="midnightblue" d="M782.1,-285.53C800.6,-290.67 821.76,-296.54 842.04,-302.18"/>
<polygon fill="midnightblue" stroke="midnightblue" points="841.35,-305.62 851.92,-304.92 843.22,-298.87 841.35,-305.62"/>
</g>
<!-- Node6 -->
<g id="node6" class="node">
<title>Node6</title>
<g id="a_node6"><a xlink:href="class_photon_1_1_realtime_1_1_load_balancing_client.xhtml#aa01a53cac6918dab3ecb99669b276f01" target="_top" xlink:title=" ">
<polygon fill="white" stroke="black" points="845.5,-255.5 845.5,-285.5 1008.5,-285.5 1008.5,-255.5 845.5,-255.5"/>
<text text-anchor="start" x="853.5" y="-273.5" font-family="Helvetica,sans-Serif" font-size="10.00">Photon.Realtime.LoadBalancing</text>
<text text-anchor="middle" x="927" y="-262.5" font-family="Helvetica,sans-Serif" font-size="10.00">Client.CheckIfOpAllowedOnServer</text>
</a>
</g>
</g>
<!-- Node4&#45;&gt;Node6 -->
<g id="edge5" class="edge">
<title>Node4&#45;&gt;Node6</title>
<path fill="none" stroke="midnightblue" d="M804.55,-270.5C814.59,-270.5 824.95,-270.5 835.2,-270.5"/>
<polygon fill="midnightblue" stroke="midnightblue" points="835.39,-274 845.39,-270.5 835.39,-267 835.39,-274"/>
</g>
<!-- Node4&#45;&gt;Node7 -->
<g id="edge6" class="edge">
<title>Node4&#45;&gt;Node7</title>
<path fill="none" stroke="midnightblue" d="M746.1,-255.47C762.57,-241.76 787.51,-220.88 809,-202.5 840.87,-175.23 877.24,-143.42 900.85,-122.66"/>
<polygon fill="midnightblue" stroke="midnightblue" points="903.45,-125.04 908.64,-115.81 898.82,-119.79 903.45,-125.04"/>
</g>
<!-- Node7&#45;&gt;Node8 -->
<g id="edge7" class="edge">
<title>Node7&#45;&gt;Node8</title>
<path fill="none" stroke="midnightblue" d="M1004.75,-100.5C1014.54,-100.5 1024.62,-100.5 1034.55,-100.5"/>
<polygon fill="midnightblue" stroke="midnightblue" points="1034.84,-104 1044.84,-100.5 1034.84,-97 1034.84,-104"/>
</g>
<!-- Node9 -->
<g id="node9" class="node">
<title>Node9</title>
<g id="a_node9"><a xlink:href="class_photon_1_1_realtime_1_1_load_balancing_peer.xhtml#affaff7e1fdffe86b25156ffac5e738c9" target="_top" xlink:title=" ">
<polygon fill="white" stroke="black" points="1236,-85.5 1236,-115.5 1391,-115.5 1391,-85.5 1236,-85.5"/>
<text text-anchor="start" x="1244" y="-103.5" font-family="Helvetica,sans-Serif" font-size="10.00">Photon.Realtime.LoadBalancing</text>
<text text-anchor="middle" x="1313.5" y="-92.5" font-family="Helvetica,sans-Serif" font-size="10.00">Peer.ConfigUnitySockets</text>
</a>
</g>
</g>
<!-- Node8&#45;&gt;Node9 -->
<g id="edge8" class="edge">
<title>Node8&#45;&gt;Node9</title>
<path fill="none" stroke="midnightblue" d="M1200.1,-100.5C1208.56,-100.5 1217.22,-100.5 1225.79,-100.5"/>
<polygon fill="midnightblue" stroke="midnightblue" points="1225.79,-104 1235.79,-100.5 1225.79,-97 1225.79,-104"/>
</g>
<!-- Node11&#45;&gt;Node7 -->
<g id="edge13" class="edge">
<title>Node11&#45;&gt;Node7</title>
<path fill="none" stroke="midnightblue" d="M795.59,-71.52C812.54,-75.29 830.86,-79.36 848.26,-83.22"/>
<polygon fill="midnightblue" stroke="midnightblue" points="847.86,-86.72 858.38,-85.47 849.38,-79.89 847.86,-86.72"/>
</g>
<!-- Node11&#45;&gt;Node8 -->
<g id="edge14" class="edge">
<title>Node11&#45;&gt;Node8</title>
<path fill="none" stroke="midnightblue" d="M809.19,-58.74C865.5,-61.09 942.09,-65.86 1009,-75.5 1022.86,-77.5 1037.56,-80.27 1051.59,-83.25"/>
<polygon fill="midnightblue" stroke="midnightblue" points="1051.16,-86.74 1061.67,-85.44 1052.65,-79.9 1051.16,-86.74"/>
</g>
<!-- Node12&#45;&gt;Node7 -->
<g id="edge16" class="edge">
<title>Node12&#45;&gt;Node7</title>
<path fill="none" stroke="midnightblue" d="M609.03,-9.86C666.73,-8.57 743.91,-11.76 809,-31.5 842.42,-41.63 876.32,-63.13 898.97,-79.45"/>
<polygon fill="midnightblue" stroke="midnightblue" points="896.95,-82.31 907.07,-85.42 901.1,-76.67 896.95,-82.31"/>
</g>
</g>
</svg>
