<?xml version="1.0" encoding="UTF-8" standalone="no"?>
<!DOCTYPE svg PUBLIC "-//W3C//DTD SVG 1.1//EN"
 "http://www.w3.org/Graphics/SVG/1.1/DTD/svg11.dtd">
<!-- Generated by graphviz version 2.47.3 (20210619.1520)
 -->
<!-- Title: Photon.Pun.UtilityScripts.PlayerNumbering.OnJoinedRoom Pages: 1 -->
<svg width="351pt" height="39pt"
 viewBox="0.00 0.00 351.00 39.00" xmlns="http://www.w3.org/2000/svg" xmlns:xlink="http://www.w3.org/1999/xlink">
<g id="graph0" class="graph" transform="scale(1 1) rotate(0) translate(4 35)">
<title>Photon.Pun.UtilityScripts.PlayerNumbering.OnJoinedRoom</title>
<polygon fill="white" stroke="transparent" points="-4,4 -4,-35 347,-35 347,4 -4,4"/>
<!-- Node1 -->
<g id="node1" class="node">
<title>Node1</title>
<g id="a_node1"><a xlink:title="Called when the LoadBalancingClient entered a room, no matter if this client created it or simply joi...">
<polygon fill="#bfbfbf" stroke="black" points="0,-0.5 0,-30.5 160,-30.5 160,-0.5 0,-0.5"/>
<text text-anchor="start" x="8" y="-18.5" font-family="Helvetica,sans-Serif" font-size="10.00">Photon.Pun.UtilityScripts.</text>
<text text-anchor="middle" x="80" y="-7.5" font-family="Helvetica,sans-Serif" font-size="10.00">PlayerNumbering.OnJoinedRoom</text>
</a>
</g>
</g>
<!-- Node2 -->
<g id="node2" class="node">
<title>Node2</title>
<g id="a_node2"><a xlink:href="class_photon_1_1_pun_1_1_utility_scripts_1_1_player_numbering.xhtml#af9f275a5db8a0af391b65e935cd91c6f" target="_top" xlink:title="Internal call Refresh the cached data and call the OnPlayerNumberingChanged delegate.">
<polygon fill="white" stroke="black" points="196,-0.5 196,-30.5 343,-30.5 343,-0.5 196,-0.5"/>
<text text-anchor="start" x="204" y="-18.5" font-family="Helvetica,sans-Serif" font-size="10.00">Photon.Pun.UtilityScripts.</text>
<text text-anchor="middle" x="269.5" y="-7.5" font-family="Helvetica,sans-Serif" font-size="10.00">PlayerNumbering.RefreshData</text>
</a>
</g>
</g>
<!-- Node1&#45;&gt;Node2 -->
<g id="edge1" class="edge">
<title>Node1&#45;&gt;Node2</title>
<path fill="none" stroke="midnightblue" d="M160.25,-15.5C168.63,-15.5 177.17,-15.5 185.6,-15.5"/>
<polygon fill="midnightblue" stroke="midnightblue" points="185.8,-19 195.8,-15.5 185.8,-12 185.8,-19"/>
</g>
</g>
</svg>
