<?xml version="1.0" encoding="UTF-8" standalone="no"?>
<!DOCTYPE svg PUBLIC "-//W3C//DTD SVG 1.1//EN"
 "http://www.w3.org/Graphics/SVG/1.1/DTD/svg11.dtd">
<!-- Generated by graphviz version 2.47.3 (20210619.1520)
 -->
<!-- Title: AbilityIndicator Pages: 1 -->
<!--zoomable 516 -->
<svg id="main" version="1.1" xmlns="http://www.w3.org/2000/svg" xmlns:xlink="http://www.w3.org/1999/xlink" xml:space="preserve" onload="init(evt)">
<style type="text/css"><![CDATA[
.edge:hover path { stroke: red; }
.edge:hover polygon { stroke: red; fill: red; }
]]></style>
<script type="text/javascript"><![CDATA[
var edges = document.getElementsByTagName('g');
if (edges && edges.length) {
  for (var i=0;i<edges.length;i++) {
    if (edges[i].id.substr(0,4)=='edge') {
      edges[i].setAttribute('class','edge');
    }
  }
}
]]></script>
        <defs>
                <circle id="rim" cx="0" cy="0" r="7"/>
                <circle id="rim2" cx="0" cy="0" r="3.5"/>
                <g id="zoomPlus">
                        <use xlink:href="#rim" fill="#404040">
                                <set attributeName="fill" to="#808080" begin="zoomplus.mouseover" end="zoomplus.mouseout"/>
                        </use>
                        <path d="M-4,0h8M0,-4v8" fill="none" stroke="white" stroke-width="1.5" pointer-events="none"/>
                </g>
                <g id="zoomMin">
                        <use xlink:href="#rim" fill="#404040">
                                <set attributeName="fill" to="#808080" begin="zoomminus.mouseover" end="zoomminus.mouseout"/>
                        </use>
                        <path d="M-4,0h8" fill="none" stroke="white" stroke-width="1.5" pointer-events="none"/>
                </g>
                <g id="dirArrow">
                        <path fill="none" stroke="white" stroke-width="1.5" d="M0,-3.0v7 M-2.5,-0.5L0,-3.0L2.5,-0.5"/>
                </g>
               <g id="resetDef">
                       <use xlink:href="#rim2" fill="#404040">
                               <set attributeName="fill" to="#808080" begin="reset.mouseover" end="reset.mouseout"/>
                       </use>
               </g>
        </defs>

<script type="text/javascript">
var viewWidth = 711;
var viewHeight = 516;
var sectionId = 'dynsection-1';
</script>
<script xlink:href="svgpan.js"/>
<svg id="graph" class="graph">
<g id="viewport">
<title>AbilityIndicator</title>
<polygon fill="white" stroke="transparent" points="-4,4 -4,-512 706.5,-512 706.5,4 -4,4"/>
<!-- Node1 -->
<g id="node1" class="node">
<title>Node1</title>
<g id="a_node1"><a xlink:title=" ">
<polygon fill="#bfbfbf" stroke="black" points="406,-297.5 406,-316.5 486,-316.5 486,-297.5 406,-297.5"/>
<text text-anchor="middle" x="446" y="-304.5" font-family="Helvetica,sans-Serif" font-size="10.00">AbilityIndicator</text>
</a>
</g>
</g>
<!-- Node6 -->
<g id="node6" class="node">
<title>Node6</title>
<g id="a_node6"><a xlink:href="class_ability_cooldown.xhtml" target="_top" xlink:title=" ">
<polygon fill="white" stroke="black" points="394,-221.5 394,-240.5 480,-240.5 480,-221.5 394,-221.5"/>
<text text-anchor="middle" x="437" y="-228.5" font-family="Helvetica,sans-Serif" font-size="10.00">AbilityCooldown</text>
</a>
</g>
</g>
<!-- Node1&#45;&gt;Node6 -->
<g id="edge32" class="edge">
<title>Node1&#45;&gt;Node6</title>
<path fill="none" stroke="#9a32cd" stroke-dasharray="5,2" d="M404.13,-292.58C398.52,-289.03 393.5,-284.58 390,-279 385.27,-271.47 385.55,-266.69 390,-259 394.81,-250.69 403.25,-244.72 411.66,-240.54"/>
<polygon fill="#9a32cd" stroke="#9a32cd" points="402.82,-295.85 413.29,-297.44 406.1,-289.66 402.82,-295.85"/>
<text text-anchor="middle" x="423" y="-266.5" font-family="Helvetica,sans-Serif" font-size="10.00"> abilityIndicator</text>
</g>
<!-- Node2 -->
<g id="node2" class="node">
<title>Node2</title>
<g id="a_node2"><a xlink:title=" ">
<polygon fill="white" stroke="#bfbfbf" points="275.5,-364.5 275.5,-383.5 358.5,-383.5 358.5,-364.5 275.5,-364.5"/>
<text text-anchor="middle" x="317" y="-371.5" font-family="Helvetica,sans-Serif" font-size="10.00">MonoBehaviour</text>
</a>
</g>
</g>
<!-- Node2&#45;&gt;Node1 -->
<g id="edge1" class="edge">
<title>Node2&#45;&gt;Node1</title>
<path fill="none" stroke="midnightblue" d="M344.81,-360.12C354.13,-355.73 364.55,-350.73 374,-346 393.47,-336.26 415.57,-324.49 430.09,-316.65"/>
<polygon fill="midnightblue" stroke="midnightblue" points="343.15,-357.03 335.58,-364.45 346.12,-363.37 343.15,-357.03"/>
</g>
<!-- Node2&#45;&gt;Node6 -->
<g id="edge7" class="edge">
<title>Node2&#45;&gt;Node6</title>
<path fill="none" stroke="midnightblue" d="M326.27,-355.45C342.27,-325.35 374.13,-266.4 382,-259 390.53,-250.99 401.88,-244.87 412.06,-240.51"/>
<polygon fill="midnightblue" stroke="midnightblue" points="323.1,-353.96 321.51,-364.43 329.28,-357.24 323.1,-353.96"/>
</g>
<!-- Node7 -->
<g id="node7" class="node">
<title>Node7</title>
<g id="a_node7"><a xlink:href="class_player_controller.xhtml" target="_top" xlink:title="Player Controller is the main class that handles all the movement of the Player.">
<polygon fill="white" stroke="black" points="312,-0.5 312,-19.5 398,-19.5 398,-0.5 312,-0.5"/>
<text text-anchor="middle" x="355" y="-7.5" font-family="Helvetica,sans-Serif" font-size="10.00">PlayerController</text>
</a>
</g>
</g>
<!-- Node2&#45;&gt;Node7 -->
<g id="edge9" class="edge">
<title>Node2&#45;&gt;Node7</title>
<path fill="none" stroke="midnightblue" d="M368.76,-371.54C418.11,-369.15 487.93,-362.8 509,-346 525.83,-332.58 574.1,-186.17 578,-165 593.98,-78.24 466.92,-35.96 397.79,-19.54"/>
<polygon fill="midnightblue" stroke="midnightblue" points="368.4,-368.06 358.57,-372 368.72,-375.05 368.4,-368.06"/>
</g>
<!-- Node11 -->
<g id="node11" class="node">
<title>Node11</title>
<g id="a_node11"><a xlink:href="class_stats.xhtml" target="_top" xlink:title="Base class Stats of the entity.">
<polygon fill="white" stroke="black" points="211,-297.5 211,-316.5 251,-316.5 251,-297.5 211,-297.5"/>
<text text-anchor="middle" x="231" y="-304.5" font-family="Helvetica,sans-Serif" font-size="10.00">Stats</text>
</a>
</g>
</g>
<!-- Node2&#45;&gt;Node11 -->
<g id="edge17" class="edge">
<title>Node2&#45;&gt;Node11</title>
<path fill="none" stroke="midnightblue" d="M297.24,-358.07C280.27,-345.24 256.38,-327.19 242.41,-316.63"/>
<polygon fill="midnightblue" stroke="midnightblue" points="295.31,-361 305.4,-364.23 299.53,-355.41 295.31,-361"/>
</g>
<!-- Node13 -->
<g id="node13" class="node">
<title>Node13</title>
<g id="a_node13"><a xlink:href="class_u_i_controller.xhtml" target="_top" xlink:title=" ">
<polygon fill="white" stroke="black" points="77.5,-297.5 77.5,-316.5 144.5,-316.5 144.5,-297.5 77.5,-297.5"/>
<text text-anchor="middle" x="111" y="-304.5" font-family="Helvetica,sans-Serif" font-size="10.00">UIController</text>
</a>
</g>
</g>
<!-- Node2&#45;&gt;Node13 -->
<g id="edge20" class="edge">
<title>Node2&#45;&gt;Node13</title>
<path fill="none" stroke="midnightblue" d="M280.07,-361.35C239.27,-348.47 174.53,-328.05 138.14,-316.56"/>
<polygon fill="midnightblue" stroke="midnightblue" points="279.06,-364.7 289.64,-364.37 281.16,-358.02 279.06,-364.7"/>
</g>
<!-- Node14 -->
<g id="node14" class="node">
<title>Node14</title>
<g id="a_node14"><a xlink:href="class_inventory.xhtml" target="_top" xlink:title=" ">
<polygon fill="white" stroke="black" points="289.5,-259.5 289.5,-278.5 344.5,-278.5 344.5,-259.5 289.5,-259.5"/>
<text text-anchor="middle" x="317" y="-266.5" font-family="Helvetica,sans-Serif" font-size="10.00">Inventory</text>
</a>
</g>
</g>
<!-- Node2&#45;&gt;Node14 -->
<g id="edge24" class="edge">
<title>Node2&#45;&gt;Node14</title>
<path fill="none" stroke="midnightblue" d="M317,-353.94C317,-331.53 317,-295.31 317,-278.76"/>
<polygon fill="midnightblue" stroke="midnightblue" points="313.5,-354.22 317,-364.22 320.5,-354.22 313.5,-354.22"/>
</g>
<!-- Node15 -->
<g id="node15" class="node">
<title>Node15</title>
<g id="a_node15"><a xlink:href="class_basic_attack.xhtml" target="_top" xlink:title=" ">
<polygon fill="white" stroke="black" points="83,-67.5 83,-86.5 153,-86.5 153,-67.5 83,-67.5"/>
<text text-anchor="middle" x="118" y="-74.5" font-family="Helvetica,sans-Serif" font-size="10.00">BasicAttack</text>
</a>
</g>
</g>
<!-- Node2&#45;&gt;Node15 -->
<g id="edge26" class="edge">
<title>Node2&#45;&gt;Node15</title>
<path fill="none" stroke="midnightblue" d="M264.96,-372.91C175.02,-371.35 0,-361.43 0,-308 0,-308 0,-308 0,-154 0,-114.16 48.13,-94.21 82.92,-84.99"/>
<polygon fill="midnightblue" stroke="midnightblue" points="265.18,-376.42 275.23,-373.06 265.28,-369.42 265.18,-376.42"/>
</g>
<!-- Node3 -->
<g id="node3" class="node">
<title>Node3</title>
<g id="a_node3"><a xlink:href="class_ability.xhtml" target="_top" xlink:title=" ">
<polygon fill="white" stroke="black" points="551,-364.5 551,-383.5 595,-383.5 595,-364.5 551,-364.5"/>
<text text-anchor="middle" x="573" y="-371.5" font-family="Helvetica,sans-Serif" font-size="10.00">Ability</text>
</a>
</g>
</g>
<!-- Node3&#45;&gt;Node1 -->
<g id="edge2" class="edge">
<title>Node3&#45;&gt;Node1</title>
<path fill="none" stroke="#9a32cd" stroke-dasharray="5,2" d="M547.16,-359.77C522,-346.9 484.51,-327.71 462.93,-316.67"/>
<polygon fill="#9a32cd" stroke="#9a32cd" points="545.64,-362.93 556.14,-364.37 548.83,-356.7 545.64,-362.93"/>
<text text-anchor="middle" x="534" y="-338" font-family="Helvetica,sans-Serif" font-size="10.00"> current</text>
</g>
<!-- Node3&#45;&gt;Node6 -->
<g id="edge31" class="edge">
<title>Node3&#45;&gt;Node6</title>
<path fill="none" stroke="#9a32cd" stroke-dasharray="5,2" d="M567.72,-354.48C559.68,-329.44 542.04,-284.95 512,-259 502.16,-250.5 489.43,-244.6 477.26,-240.54"/>
<polygon fill="#9a32cd" stroke="#9a32cd" points="564.42,-355.64 570.67,-364.19 571.12,-353.61 564.42,-355.64"/>
<text text-anchor="middle" x="566.5" y="-304.5" font-family="Helvetica,sans-Serif" font-size="10.00"> ability</text>
</g>
<!-- Node8 -->
<g id="node8" class="node">
<title>Node8</title>
<g id="a_node8"><a xlink:href="class_character.xhtml" target="_top" xlink:title=" ">
<polygon fill="white" stroke="black" points="601.5,-183.5 601.5,-202.5 660.5,-202.5 660.5,-183.5 601.5,-183.5"/>
<text text-anchor="middle" x="631" y="-190.5" font-family="Helvetica,sans-Serif" font-size="10.00">Character</text>
</a>
</g>
</g>
<!-- Node3&#45;&gt;Node8 -->
<g id="edge13" class="edge">
<title>Node3&#45;&gt;Node8</title>
<path fill="none" stroke="#9a32cd" stroke-dasharray="5,2" d="M578.97,-354.58C591.33,-316.42 619.33,-230.01 628.23,-202.55"/>
<polygon fill="#9a32cd" stroke="#9a32cd" points="575.55,-353.77 575.8,-364.37 582.21,-355.93 575.55,-353.77"/>
<text text-anchor="middle" x="615.5" y="-304.5" font-family="Helvetica,sans-Serif" font-size="10.00"> abilities</text>
</g>
<!-- Node4 -->
<g id="node4" class="node">
<title>Node4</title>
<g id="a_node4"><a xlink:title=" ">
<polygon fill="white" stroke="#bfbfbf" points="613.5,-488.5 613.5,-507.5 702.5,-507.5 702.5,-488.5 613.5,-488.5"/>
<text text-anchor="middle" x="658" y="-495.5" font-family="Helvetica,sans-Serif" font-size="10.00">ScriptableObject</text>
</a>
</g>
</g>
<!-- Node4&#45;&gt;Node3 -->
<g id="edge3" class="edge">
<title>Node4&#45;&gt;Node3</title>
<path fill="none" stroke="midnightblue" d="M660.45,-478.11C662.08,-457.2 661.36,-423.6 644,-402 632.11,-387.2 611.13,-380.5 595.05,-377.48"/>
<polygon fill="midnightblue" stroke="midnightblue" points="656.94,-477.96 659.39,-488.27 663.91,-478.68 656.94,-477.96"/>
</g>
<!-- Node5 -->
<g id="node5" class="node">
<title>Node5</title>
<g id="a_node5"><a xlink:href="class_effect.xhtml" target="_top" xlink:title=" ">
<polygon fill="white" stroke="black" points="570.5,-431.5 570.5,-450.5 611.5,-450.5 611.5,-431.5 570.5,-431.5"/>
<text text-anchor="middle" x="591" y="-438.5" font-family="Helvetica,sans-Serif" font-size="10.00">Effect</text>
</a>
</g>
</g>
<!-- Node4&#45;&gt;Node5 -->
<g id="edge5" class="edge">
<title>Node4&#45;&gt;Node5</title>
<path fill="none" stroke="midnightblue" d="M639.73,-482C627.5,-471.96 611.84,-459.1 601.62,-450.71"/>
<polygon fill="midnightblue" stroke="midnightblue" points="637.58,-484.77 647.53,-488.41 642.02,-479.36 637.58,-484.77"/>
</g>
<!-- Node4&#45;&gt;Node8 -->
<g id="edge12" class="edge">
<title>Node4&#45;&gt;Node8</title>
<path fill="none" stroke="midnightblue" d="M677.85,-481.55C688.32,-471.57 699,-457.56 699,-442 699,-442 699,-442 699,-268 699,-237.64 667.59,-214.37 647.46,-202.57"/>
<polygon fill="midnightblue" stroke="midnightblue" points="675.3,-479.14 670.08,-488.36 679.91,-484.41 675.3,-479.14"/>
</g>
<!-- Node5&#45;&gt;Node3 -->
<g id="edge4" class="edge">
<title>Node5&#45;&gt;Node3</title>
<path fill="none" stroke="#9a32cd" stroke-dasharray="5,2" d="M578.22,-422.65C576.51,-419.57 575,-416.29 574,-413 571.05,-403.27 571.29,-391.5 571.95,-383.66"/>
<polygon fill="#9a32cd" stroke="#9a32cd" points="575.32,-424.61 583.69,-431.11 581.2,-420.81 575.32,-424.61"/>
<text text-anchor="middle" x="609" y="-405" font-family="Helvetica,sans-Serif" font-size="10.00"> toAuthorEffects</text>
</g>
<!-- Node6&#45;&gt;Node1 -->
<g id="edge6" class="edge">
<title>Node6&#45;&gt;Node1</title>
<path fill="none" stroke="#9a32cd" stroke-dasharray="5,2" d="M454.14,-248.58C456.54,-251.79 458.64,-255.32 460,-259 464.82,-272.1 457.72,-287.71 451.99,-297.23"/>
<polygon fill="#9a32cd" stroke="#9a32cd" points="456.63,-246.12 447.42,-240.89 451.36,-250.72 456.63,-246.12"/>
<text text-anchor="middle" x="484.5" y="-266.5" font-family="Helvetica,sans-Serif" font-size="10.00"> currentCD</text>
</g>
<!-- Node6&#45;&gt;Node7 -->
<g id="edge10" class="edge">
<title>Node6&#45;&gt;Node7</title>
<path fill="none" stroke="#9a32cd" stroke-dasharray="5,2" d="M433.51,-211.28C431.44,-202.42 428.36,-191.87 424,-183 410.28,-155.08 395.14,-155.2 382,-127 364.44,-89.33 357.81,-39.3 355.77,-19.55"/>
<polygon fill="#9a32cd" stroke="#9a32cd" points="430.14,-212.26 435.61,-221.33 436.99,-210.83 430.14,-212.26"/>
<text text-anchor="middle" x="420" y="-113.5" font-family="Helvetica,sans-Serif" font-size="10.00"> abilityCooldowns</text>
</g>
<!-- Node9 -->
<g id="node9" class="node">
<title>Node9</title>
<g id="a_node9"><a xlink:href="class_player_stats.xhtml" target="_top" xlink:title="Player Stats is the main class that controls all the Player Statistics in all time in the game execut...">
<polygon fill="white" stroke="black" points="196,-145.5 196,-164.5 264,-164.5 264,-145.5 196,-145.5"/>
<text text-anchor="middle" x="230" y="-152.5" font-family="Helvetica,sans-Serif" font-size="10.00">PlayerStats</text>
</a>
</g>
</g>
<!-- Node6&#45;&gt;Node9 -->
<g id="edge22" class="edge">
<title>Node6&#45;&gt;Node9</title>
<path fill="none" stroke="#9a32cd" stroke-dasharray="5,2" d="M383.56,-223.06C339.17,-217 281.77,-208.36 272,-203 263.37,-198.26 246.11,-176.95 236.62,-164.71"/>
<polygon fill="#9a32cd" stroke="#9a32cd" points="383.29,-226.56 393.67,-224.43 384.22,-219.62 383.29,-226.56"/>
<text text-anchor="middle" x="310" y="-190.5" font-family="Helvetica,sans-Serif" font-size="10.00"> abilityCooldowns</text>
</g>
<!-- Node7&#45;&gt;Node6 -->
<g id="edge8" class="edge">
<title>Node7&#45;&gt;Node6</title>
<path fill="none" stroke="#9a32cd" stroke-dasharray="5,2" d="M381.15,-24.49C407.61,-39.86 446.73,-67.75 462,-105 478.6,-145.51 465.73,-161.43 452,-203 449.85,-209.52 446.1,-216.27 442.89,-221.39"/>
<polygon fill="#9a32cd" stroke="#9a32cd" points="382.81,-21.41 372.38,-19.58 379.39,-27.52 382.81,-21.41"/>
<text text-anchor="middle" x="503.5" y="-113.5" font-family="Helvetica,sans-Serif" font-size="10.00"> playerController</text>
</g>
<!-- Node7&#45;&gt;Node9 -->
<g id="edge21" class="edge">
<title>Node7&#45;&gt;Node9</title>
<path fill="none" stroke="#9a32cd" stroke-dasharray="5,2" d="M301.75,-18.98C272.95,-26.3 239.73,-40.3 222,-67 205.72,-91.51 218.71,-128.84 225.96,-145.48"/>
<polygon fill="#9a32cd" stroke="#9a32cd" points="302.77,-22.33 311.72,-16.65 301.19,-15.51 302.77,-22.33"/>
<text text-anchor="middle" x="257.5" y="-74.5" font-family="Helvetica,sans-Serif" font-size="10.00"> playerController</text>
</g>
<!-- Node7&#45;&gt;Node15 -->
<g id="edge27" class="edge">
<title>Node7&#45;&gt;Node15</title>
<path fill="none" stroke="#9a32cd" stroke-dasharray="5,2" d="M301.57,-11.05C262.31,-12.85 208.47,-19.08 165,-38 149.22,-44.87 134.37,-58.53 125.73,-67.47"/>
<polygon fill="#9a32cd" stroke="#9a32cd" points="301.86,-14.54 311.72,-10.67 301.6,-7.55 301.86,-14.54"/>
<text text-anchor="middle" x="186.5" y="-41" font-family="Helvetica,sans-Serif" font-size="10.00"> controller</text>
</g>
<!-- Node8&#45;&gt;Node7 -->
<g id="edge11" class="edge">
<title>Node8&#45;&gt;Node7</title>
<path fill="none" stroke="#9a32cd" stroke-dasharray="5,2" d="M634.35,-173.44C639.05,-140.83 643.28,-73.33 606,-38 591.25,-24.02 466.08,-16.12 398.27,-12.83"/>
<polygon fill="#9a32cd" stroke="#9a32cd" points="630.88,-172.99 632.73,-183.42 637.79,-174.1 630.88,-172.99"/>
<text text-anchor="middle" x="660" y="-119" font-family="Helvetica,sans-Serif" font-size="10.00"> character</text>
<text text-anchor="middle" x="660" y="-108" font-family="Helvetica,sans-Serif" font-size="10.00">characters</text>
</g>
<!-- Node8&#45;&gt;Node15 -->
<g id="edge29" class="edge">
<title>Node8&#45;&gt;Node15</title>
<path fill="none" stroke="#9a32cd" stroke-dasharray="5,2" d="M598.15,-179.82C568.2,-168.1 523.25,-148.97 487,-127 473.47,-118.8 473.77,-110.69 459,-105 405.16,-84.26 257.46,-92.15 200,-87 184.59,-85.62 167.59,-83.8 153.08,-82.16"/>
<polygon fill="#9a32cd" stroke="#9a32cd" points="597.1,-183.16 607.69,-183.5 599.62,-176.63 597.1,-183.16"/>
<text text-anchor="middle" x="582" y="-152.5" font-family="Helvetica,sans-Serif" font-size="10.00"> character</text>
</g>
<!-- Node9&#45;&gt;Node6 -->
<g id="edge33" class="edge">
<title>Node9&#45;&gt;Node6</title>
<path fill="none" stroke="#9a32cd" stroke-dasharray="5,2" d="M274.21,-160.87C297.15,-164.67 325.09,-171.35 348,-183 360.08,-189.14 359.47,-195.9 371,-203 383.33,-210.6 398.18,-216.89 410.66,-221.48"/>
<polygon fill="#9a32cd" stroke="#9a32cd" points="274.47,-157.37 264.05,-159.32 273.41,-164.29 274.47,-157.37"/>
<text text-anchor="middle" x="397.5" y="-190.5" font-family="Helvetica,sans-Serif" font-size="10.00"> playerStats</text>
</g>
<!-- Node9&#45;&gt;Node7 -->
<g id="edge14" class="edge">
<title>Node9&#45;&gt;Node7</title>
<path fill="none" stroke="#9a32cd" stroke-dasharray="5,2" d="M246.93,-138.29C260.87,-125.07 280.89,-105.42 297,-87 317.32,-63.76 338.73,-34.17 348.92,-19.73"/>
<polygon fill="#9a32cd" stroke="#9a32cd" points="244.39,-135.87 239.5,-145.27 249.18,-140.97 244.39,-135.87"/>
<text text-anchor="middle" x="325.5" y="-74.5" font-family="Helvetica,sans-Serif" font-size="10.00"> stats</text>
</g>
<!-- Node9&#45;&gt;Node15 -->
<g id="edge30" class="edge">
<title>Node9&#45;&gt;Node15</title>
<path fill="none" stroke="#9a32cd" stroke-dasharray="5,2" d="M205.26,-140.55C197.97,-136.39 190.07,-131.67 183,-127 163.19,-113.92 141.39,-96.9 128.74,-86.75"/>
<polygon fill="#9a32cd" stroke="#9a32cd" points="203.6,-143.64 214.04,-145.48 207.03,-137.53 203.6,-143.64"/>
<text text-anchor="middle" x="195.5" y="-113.5" font-family="Helvetica,sans-Serif" font-size="10.00"> stats</text>
</g>
<!-- Node10 -->
<g id="node10" class="node">
<title>Node10</title>
<g id="a_node10"><a xlink:href="class_ability_affected_stats.xhtml" target="_top" xlink:title="Base class Stats of the entity who is affected by Abilities.">
<polygon fill="white" stroke="black" points="180,-221.5 180,-240.5 282,-240.5 282,-221.5 180,-221.5"/>
<text text-anchor="middle" x="231" y="-228.5" font-family="Helvetica,sans-Serif" font-size="10.00">AbilityAffectedStats</text>
</a>
</g>
</g>
<!-- Node10&#45;&gt;Node9 -->
<g id="edge15" class="edge">
<title>Node10&#45;&gt;Node9</title>
<path fill="none" stroke="midnightblue" d="M227.81,-210.86C227.47,-208.23 227.19,-205.55 227,-203 226.35,-194.14 226.51,-191.88 227,-183 227.33,-176.97 228.08,-170.22 228.75,-164.98"/>
<polygon fill="midnightblue" stroke="midnightblue" points="224.39,-211.67 229.33,-221.04 231.31,-210.63 224.39,-211.67"/>
</g>
<!-- Node11&#45;&gt;Node10 -->
<g id="edge16" class="edge">
<title>Node11&#45;&gt;Node10</title>
<path fill="none" stroke="midnightblue" d="M231,-287.07C231,-272.18 231,-252.11 231,-240.77"/>
<polygon fill="midnightblue" stroke="midnightblue" points="227.5,-287.22 231,-297.22 234.5,-287.22 227.5,-287.22"/>
</g>
<!-- Node11&#45;&gt;Node15 -->
<g id="edge28" class="edge">
<title>Node11&#45;&gt;Node15</title>
<path fill="none" stroke="#9a32cd" stroke-dasharray="5,2" d="M200.9,-299.11C155.71,-288.1 73.84,-265.27 57,-241 20.83,-188.87 85.05,-112.58 109.3,-86.85"/>
<polygon fill="#9a32cd" stroke="#9a32cd" points="200.2,-302.54 210.74,-301.47 201.83,-295.74 200.2,-302.54"/>
<text text-anchor="middle" x="73.5" y="-190.5" font-family="Helvetica,sans-Serif" font-size="10.00"> otherStats</text>
</g>
<!-- Node12 -->
<g id="node12" class="node">
<title>Node12</title>
<g id="a_node12"><a xlink:href="class_player_u_i_controller.xhtml" target="_top" xlink:title="UI Controller for the Player Stats">
<polygon fill="white" stroke="black" points="66.5,-221.5 66.5,-240.5 161.5,-240.5 161.5,-221.5 66.5,-221.5"/>
<text text-anchor="middle" x="114" y="-228.5" font-family="Helvetica,sans-Serif" font-size="10.00">PlayerUIController</text>
</a>
</g>
</g>
<!-- Node12&#45;&gt;Node9 -->
<g id="edge18" class="edge">
<title>Node12&#45;&gt;Node9</title>
<path fill="none" stroke="#9a32cd" stroke-dasharray="5,2" d="M133.88,-215.2C147.02,-205.64 164.74,-193.14 181,-183 191.55,-176.42 203.8,-169.67 213.41,-164.57"/>
<polygon fill="#9a32cd" stroke="#9a32cd" points="131.59,-212.55 125.6,-221.29 135.73,-218.19 131.59,-212.55"/>
<text text-anchor="middle" x="202" y="-190.5" font-family="Helvetica,sans-Serif" font-size="10.00"> uiControl</text>
</g>
<!-- Node13&#45;&gt;Node12 -->
<g id="edge19" class="edge">
<title>Node13&#45;&gt;Node12</title>
<path fill="none" stroke="midnightblue" d="M111.77,-287.07C112.37,-272.18 113.18,-252.11 113.64,-240.77"/>
<polygon fill="midnightblue" stroke="midnightblue" points="108.26,-287.09 111.36,-297.22 115.26,-287.37 108.26,-287.09"/>
</g>
<!-- Node14&#45;&gt;Node9 -->
<g id="edge23" class="edge">
<title>Node14&#45;&gt;Node9</title>
<path fill="none" stroke="#9a32cd" stroke-dasharray="5,2" d="M310.23,-249.87C305.92,-240.3 299.53,-228.93 291,-221 277.02,-208 265.54,-216.46 252,-203 241.14,-192.2 235,-175.02 232.1,-164.69"/>
<polygon fill="#9a32cd" stroke="#9a32cd" points="307.07,-251.38 314.1,-259.31 313.55,-248.73 307.07,-251.38"/>
<text text-anchor="middle" x="327" y="-228.5" font-family="Helvetica,sans-Serif" font-size="10.00"> inventory</text>
</g>
<!-- Node15&#45;&gt;Node7 -->
<g id="edge25" class="edge">
<title>Node15&#45;&gt;Node7</title>
<path fill="none" stroke="#9a32cd" stroke-dasharray="5,2" d="M94.79,-61.26C86.31,-54.09 80.27,-45.45 87,-38 101.76,-21.68 239.73,-14.76 311.73,-12.24"/>
<polygon fill="#9a32cd" stroke="#9a32cd" points="92.86,-64.18 102.97,-67.34 97.04,-58.56 92.86,-64.18"/>
<text text-anchor="middle" x="114.5" y="-41" font-family="Helvetica,sans-Serif" font-size="10.00"> basicAttack</text>
</g>
</g>
</svg>
        <g id="navigator" transform="translate(0 0)" fill="#404254">
                <rect fill="#f2f5e9" fill-opacity="0.5" stroke="#606060" stroke-width=".5" x="0" y="0" width="60" height="60"/>
                <use id="zoomplus" xlink:href="#zoomPlus" x="17" y="9" onmousedown="handleZoom(evt,'in')"/>
                <use id="zoomminus" xlink:href="#zoomMin" x="42" y="9" onmousedown="handleZoom(evt,'out')"/>
                <use id="reset" xlink:href="#resetDef" x="30" y="36" onmousedown="handleReset()"/>
                <g id="arrowUp" xlink:href="#dirArrow" transform="translate(30 24)" onmousedown="handlePan(0,-1)">
                  <use xlink:href="#rim" fill="#404040">
                        <set attributeName="fill" to="#808080" begin="arrowUp.mouseover" end="arrowUp.mouseout"/>
                  </use>
                  <path fill="none" stroke="white" stroke-width="1.5" d="M0,-3.0v7 M-2.5,-0.5L0,-3.0L2.5,-0.5"/>
                </g>
                <g id="arrowRight" xlink:href="#dirArrow" transform="rotate(90) translate(36 -43)" onmousedown="handlePan(1,0)">
                  <use xlink:href="#rim" fill="#404040">
                        <set attributeName="fill" to="#808080" begin="arrowRight.mouseover" end="arrowRight.mouseout"/>
                  </use>
                  <path fill="none" stroke="white" stroke-width="1.5" d="M0,-3.0v7 M-2.5,-0.5L0,-3.0L2.5,-0.5"/>
                </g>
                <g id="arrowDown" xlink:href="#dirArrow" transform="rotate(180) translate(-30 -48)" onmousedown="handlePan(0,1)">
                  <use xlink:href="#rim" fill="#404040">
                        <set attributeName="fill" to="#808080" begin="arrowDown.mouseover" end="arrowDown.mouseout"/>
                  </use>
                  <path fill="none" stroke="white" stroke-width="1.5" d="M0,-3.0v7 M-2.5,-0.5L0,-3.0L2.5,-0.5"/>
                </g>
                <g id="arrowLeft" xlink:href="#dirArrow" transform="rotate(270) translate(-36 17)" onmousedown="handlePan(-1,0)">
                  <use xlink:href="#rim" fill="#404040">
                        <set attributeName="fill" to="#808080" begin="arrowLeft.mouseover" end="arrowLeft.mouseout"/>
                  </use>
                  <path fill="none" stroke="white" stroke-width="1.5" d="M0,-3.0v7 M-2.5,-0.5L0,-3.0L2.5,-0.5"/>
                </g>
        </g>
        <svg viewBox="0 0 15 15" width="100%" height="30px" preserveAspectRatio="xMaxYMin meet">
         <g id="arrow_out" transform="scale(0.3 0.3)">
          <a xlink:href="class_ability_indicator__coll__graph_org.svg" target="_base">
           <rect id="button" ry="5" rx="5" y="6" x="6" height="38" width="38"
                fill="#f2f5e9" fill-opacity="0.5" stroke="#606060" stroke-width="1.0"/>
           <path id="arrow"
             d="M 11.500037,31.436501 C 11.940474,20.09759 22.043105,11.32322 32.158766,21.979434 L 37.068811,17.246167 C 37.068811,17.246167 37.088388,32 37.088388,32 L 22.160133,31.978069 C 22.160133,31.978069 26.997745,27.140456 26.997745,27.140456 C 18.528582,18.264221 13.291696,25.230495 11.500037,31.436501 z"
             style="fill:#404040;"/>
          </a>
         </g>
        </svg>
</svg>
