<?xml version="1.0" encoding="UTF-8" standalone="no"?>
<!DOCTYPE svg PUBLIC "-//W3C//DTD SVG 1.1//EN"
 "http://www.w3.org/Graphics/SVG/1.1/DTD/svg11.dtd">
<!-- Generated by graphviz version 2.47.3 (20210619.1520)
 -->
<!-- Title: ModelSync.Update Pages: 1 -->
<!--zoomable 142 -->
<svg id="main" version="1.1" xmlns="http://www.w3.org/2000/svg" xmlns:xlink="http://www.w3.org/1999/xlink" xml:space="preserve" onload="init(evt)">
<style type="text/css"><![CDATA[
.edge:hover path { stroke: red; }
.edge:hover polygon { stroke: red; fill: red; }
]]></style>
<script type="text/javascript"><![CDATA[
var edges = document.getElementsByTagName('g');
if (edges && edges.length) {
  for (var i=0;i<edges.length;i++) {
    if (edges[i].id.substr(0,4)=='edge') {
      edges[i].setAttribute('class','edge');
    }
  }
}
]]></script>
        <defs>
                <circle id="rim" cx="0" cy="0" r="7"/>
                <circle id="rim2" cx="0" cy="0" r="3.5"/>
                <g id="zoomPlus">
                        <use xlink:href="#rim" fill="#404040">
                                <set attributeName="fill" to="#808080" begin="zoomplus.mouseover" end="zoomplus.mouseout"/>
                        </use>
                        <path d="M-4,0h8M0,-4v8" fill="none" stroke="white" stroke-width="1.5" pointer-events="none"/>
                </g>
                <g id="zoomMin">
                        <use xlink:href="#rim" fill="#404040">
                                <set attributeName="fill" to="#808080" begin="zoomminus.mouseover" end="zoomminus.mouseout"/>
                        </use>
                        <path d="M-4,0h8" fill="none" stroke="white" stroke-width="1.5" pointer-events="none"/>
                </g>
                <g id="dirArrow">
                        <path fill="none" stroke="white" stroke-width="1.5" d="M0,-3.0v7 M-2.5,-0.5L0,-3.0L2.5,-0.5"/>
                </g>
               <g id="resetDef">
                       <use xlink:href="#rim2" fill="#404040">
                               <set attributeName="fill" to="#808080" begin="reset.mouseover" end="reset.mouseout"/>
                       </use>
               </g>
        </defs>

<script type="text/javascript">
var viewWidth = 1266;
var viewHeight = 142;
var sectionId = 'dynsection-5';
</script>
<script xlink:href="svgpan.js"/>
<svg id="graph" class="graph">
<g id="viewport">
<title>ModelSync.Update</title>
<!-- Node1 -->
<g id="node1" class="node">
<title>Node1</title>
<g id="a_node1"><a xlink:title=" ">
<polygon fill="#bfbfbf" stroke="black" points="0,-38.5 0,-57.5 99,-57.5 99,-38.5 0,-38.5"/>
<text text-anchor="middle" x="49.5" y="-45.5" font-family="Helvetica,sans-Serif" font-size="10.00">ModelSync.Update</text>
</a>
</g>
</g>
<!-- Node2 -->
<g id="node2" class="node">
<title>Node2</title>
<g id="a_node2"><a xlink:href="class_model_sync.html#ab8359f73ae31a7f926c80ebcd7e9444a" target="_top" xlink:title="This starts all the initialization chain for the player.">
<polygon fill="none" stroke="black" points="135,-38.5 135,-57.5 245,-57.5 245,-38.5 135,-38.5"/>
<text text-anchor="middle" x="190" y="-45.5" font-family="Helvetica,sans-Serif" font-size="10.00">ModelSync.DoEnable</text>
</a>
</g>
</g>
<!-- Node1&#45;&gt;Node2 -->
<g id="edge1" class="edge">
<title>Node1&#45;&gt;Node2</title>
<path fill="none" stroke="midnightblue" d="M99.33,-48C107.61,-48 116.33,-48 124.93,-48"/>
<polygon fill="midnightblue" stroke="midnightblue" points="124.95,-51.5 134.95,-48 124.95,-44.5 124.95,-51.5"/>
</g>
<!-- Node3 -->
<g id="node3" class="node">
<title>Node3</title>
<g id="a_node3"><a xlink:href="class_player_controller.html#a75e94e4fd555e57e55ab4b7e54024dcf" target="_top" xlink:title="Initialize the PlayerController.">
<polygon fill="none" stroke="black" points="292,-76.5 292,-95.5 416,-95.5 416,-76.5 292,-76.5"/>
<text text-anchor="middle" x="354" y="-83.5" font-family="Helvetica,sans-Serif" font-size="10.00">PlayerController.Initialize</text>
</a>
</g>
</g>
<!-- Node2&#45;&gt;Node3 -->
<g id="edge2" class="edge">
<title>Node2&#45;&gt;Node3</title>
<path fill="none" stroke="midnightblue" d="M231.88,-57.59C253.35,-62.63 279.86,-68.84 302.6,-74.18"/>
<polygon fill="midnightblue" stroke="midnightblue" points="301.88,-77.6 312.41,-76.48 303.48,-70.79 301.88,-77.6"/>
</g>
<!-- Node14 -->
<g id="node14" class="node">
<title>Node14</title>
<g id="a_node14"><a xlink:href="class_model_player_mediator.html#abb544efe7192b8e934f60f770d5ac334" target="_top" xlink:title=" ">
<polygon fill="none" stroke="black" points="281,-38.5 281,-57.5 427,-57.5 427,-38.5 281,-38.5"/>
<text text-anchor="middle" x="354" y="-45.5" font-family="Helvetica,sans-Serif" font-size="10.00">ModelPlayerMediator.Initialize</text>
</a>
</g>
</g>
<!-- Node2&#45;&gt;Node14 -->
<g id="edge14" class="edge">
<title>Node2&#45;&gt;Node14</title>
<path fill="none" stroke="midnightblue" d="M245.39,-48C253.59,-48 262.19,-48 270.81,-48"/>
<polygon fill="midnightblue" stroke="midnightblue" points="270.91,-51.5 280.91,-48 270.91,-44.5 270.91,-51.5"/>
</g>
<!-- Node15 -->
<g id="node15" class="node">
<title>Node15</title>
<g id="a_node15"><a xlink:href="class_player_controller.html#a6be7bc2319b024c6bf66f1b1c96f7ba5" target="_top" xlink:title="Player Model will call this function to parent and sync itself to this GameObject">
<polygon fill="none" stroke="black" points="288,-0.5 288,-19.5 420,-19.5 420,-0.5 288,-0.5"/>
<text text-anchor="middle" x="354" y="-7.5" font-family="Helvetica,sans-Serif" font-size="10.00">PlayerController.SetParent</text>
</a>
</g>
</g>
<!-- Node2&#45;&gt;Node15 -->
<g id="edge15" class="edge">
<title>Node2&#45;&gt;Node15</title>
<path fill="none" stroke="midnightblue" d="M231.88,-38.41C253.35,-33.37 279.86,-27.16 302.6,-21.82"/>
<polygon fill="midnightblue" stroke="midnightblue" points="303.48,-25.21 312.41,-19.52 301.88,-18.4 303.48,-25.21"/>
</g>
<!-- Node4 -->
<g id="node4" class="node">
<title>Node4</title>
<g id="a_node4"><a xlink:href="class_basic_attack.html#ac85eb061d597f5879d31fb8e7a0316d5" target="_top" xlink:title=" ">
<polygon fill="none" stroke="black" points="471,-114.5 471,-133.5 579,-133.5 579,-114.5 471,-114.5"/>
<text text-anchor="middle" x="525" y="-121.5" font-family="Helvetica,sans-Serif" font-size="10.00">BasicAttack.Initialize</text>
</a>
</g>
</g>
<!-- Node3&#45;&gt;Node4 -->
<g id="edge3" class="edge">
<title>Node3&#45;&gt;Node4</title>
<path fill="none" stroke="midnightblue" d="M397.65,-95.59C420.15,-100.65 447.95,-106.9 471.74,-112.25"/>
<polygon fill="midnightblue" stroke="midnightblue" points="471.14,-115.7 481.66,-114.48 472.67,-108.87 471.14,-115.7"/>
</g>
<!-- Node5 -->
<g id="node5" class="node">
<title>Node5</title>
<g id="a_node5"><a xlink:href="class_player_stats.html#a5e274804959d13db76f140e8efcf9411" target="_top" xlink:title="Initialize the actual Stats of the Player.">
<polygon fill="none" stroke="black" points="472,-76.5 472,-95.5 578,-95.5 578,-76.5 472,-76.5"/>
<text text-anchor="middle" x="525" y="-83.5" font-family="Helvetica,sans-Serif" font-size="10.00">PlayerStats.Initialize</text>
</a>
</g>
</g>
<!-- Node3&#45;&gt;Node5 -->
<g id="edge4" class="edge">
<title>Node3&#45;&gt;Node5</title>
<path fill="none" stroke="midnightblue" d="M416.01,-86C430.84,-86 446.71,-86 461.6,-86"/>
<polygon fill="midnightblue" stroke="midnightblue" points="461.73,-89.5 471.73,-86 461.73,-82.5 461.73,-89.5"/>
</g>
<!-- Node11 -->
<g id="node11" class="node">
<title>Node11</title>
<g id="a_node11"><a xlink:href="class_ability_cooldown.html#aa01c150ac26f1694a1e174e152510094" target="_top" xlink:title="Initializes the current AbilityCooldown.">
<polygon fill="none" stroke="black" points="463,-38.5 463,-57.5 587,-57.5 587,-38.5 463,-38.5"/>
<text text-anchor="middle" x="525" y="-45.5" font-family="Helvetica,sans-Serif" font-size="10.00">AbilityCooldown.Initialize</text>
</a>
</g>
</g>
<!-- Node3&#45;&gt;Node11 -->
<g id="edge11" class="edge">
<title>Node3&#45;&gt;Node11</title>
<path fill="none" stroke="midnightblue" d="M397.65,-76.41C420.15,-71.35 447.95,-65.1 471.74,-59.75"/>
<polygon fill="midnightblue" stroke="midnightblue" points="472.67,-63.13 481.66,-57.52 471.14,-56.3 472.67,-63.13"/>
</g>
<!-- Node6 -->
<g id="node6" class="node">
<title>Node6</title>
<g id="a_node6"><a xlink:href="class_player_u_i_controller.html#ab6ed746dec17fdf763bc4ec1d713db7f" target="_top" xlink:title="Initializes all the values and colors for this Player.">
<polygon fill="none" stroke="black" points="629,-76.5 629,-95.5 760,-95.5 760,-76.5 629,-76.5"/>
<text text-anchor="middle" x="694.5" y="-83.5" font-family="Helvetica,sans-Serif" font-size="10.00">PlayerUIController.Initalize</text>
</a>
</g>
</g>
<!-- Node5&#45;&gt;Node6 -->
<g id="edge5" class="edge">
<title>Node5&#45;&gt;Node6</title>
<path fill="none" stroke="midnightblue" d="M578.08,-86C590.86,-86 604.79,-86 618.42,-86"/>
<polygon fill="midnightblue" stroke="midnightblue" points="618.75,-89.5 628.75,-86 618.75,-82.5 618.75,-89.5"/>
</g>
<!-- Node7 -->
<g id="node7" class="node">
<title>Node7</title>
<g id="a_node7"><a xlink:href="class_player_u_i_controller.html#aa5b61a93967fa5ce39bfd950a9e9d584" target="_top" xlink:title="Initializes all the values into the Image and Text.">
<polygon fill="none" stroke="black" points="802,-71 802,-101 935,-101 935,-71 802,-71"/>
<text text-anchor="start" x="810" y="-89" font-family="Helvetica,sans-Serif" font-size="10.00">PlayerUIController.Initialize</text>
<text text-anchor="middle" x="868.5" y="-78" font-family="Helvetica,sans-Serif" font-size="10.00">Values</text>
</a>
</g>
</g>
<!-- Node6&#45;&gt;Node7 -->
<g id="edge6" class="edge">
<title>Node6&#45;&gt;Node7</title>
<path fill="none" stroke="midnightblue" d="M760.04,-86C770.37,-86 781.14,-86 791.7,-86"/>
<polygon fill="midnightblue" stroke="midnightblue" points="791.74,-89.5 801.74,-86 791.74,-82.5 791.74,-89.5"/>
</g>
<!-- Node8 -->
<g id="node8" class="node">
<title>Node8</title>
<g id="a_node8"><a xlink:href="class_player_u_i_controller.html#adadd54ec10a1236aa7c08022d27fa068" target="_top" xlink:title="Sets the current level and xp to the Image.">
<polygon fill="none" stroke="black" points="971,-96 971,-126 1099,-126 1099,-96 971,-96"/>
<text text-anchor="start" x="979" y="-114" font-family="Helvetica,sans-Serif" font-size="10.00">PlayerUIController.Update</text>
<text text-anchor="middle" x="1035" y="-103" font-family="Helvetica,sans-Serif" font-size="10.00">CurrentLevel</text>
</a>
</g>
</g>
<!-- Node7&#45;&gt;Node8 -->
<g id="edge7" class="edge">
<title>Node7&#45;&gt;Node8</title>
<path fill="none" stroke="midnightblue" d="M935.46,-96.02C943.88,-97.3 952.53,-98.62 961.05,-99.91"/>
<polygon fill="midnightblue" stroke="midnightblue" points="960.55,-103.38 970.96,-101.42 961.6,-96.46 960.55,-103.38"/>
</g>
<!-- Node10 -->
<g id="node10" class="node">
<title>Node10</title>
<g id="a_node10"><a xlink:href="class_player_u_i_controller.html#aacc9f1b78d9e1adab16f8fc2ec246dfb" target="_top" xlink:title=" ">
<polygon fill="none" stroke="black" points="971,-47 971,-77 1099,-77 1099,-47 971,-47"/>
<text text-anchor="start" x="979" y="-65" font-family="Helvetica,sans-Serif" font-size="10.00">PlayerUIController.Update</text>
<text text-anchor="middle" x="1035" y="-54" font-family="Helvetica,sans-Serif" font-size="10.00">MaxHP</text>
</a>
</g>
</g>
<!-- Node7&#45;&gt;Node10 -->
<g id="edge9" class="edge">
<title>Node7&#45;&gt;Node10</title>
<path fill="none" stroke="midnightblue" d="M935.46,-76.38C943.88,-75.15 952.53,-73.89 961.05,-72.64"/>
<polygon fill="midnightblue" stroke="midnightblue" points="961.57,-76.1 970.96,-71.2 960.56,-69.18 961.57,-76.1"/>
</g>
<!-- Node9 -->
<g id="node9" class="node">
<title>Node9</title>
<g id="a_node9"><a xlink:href="class_u_i_controller.html#a7d7833a7840917741dbc8c4a83dbe918" target="_top" xlink:title="Calculates the actual normalized fill amount for the image.">
<polygon fill="none" stroke="black" points="1135,-71 1135,-101 1258,-101 1258,-71 1135,-71"/>
<text text-anchor="start" x="1143" y="-89" font-family="Helvetica,sans-Serif" font-size="10.00">UIController.CalculateFill</text>
<text text-anchor="middle" x="1196.5" y="-78" font-family="Helvetica,sans-Serif" font-size="10.00">Amount</text>
</a>
</g>
</g>
<!-- Node8&#45;&gt;Node9 -->
<g id="edge8" class="edge">
<title>Node8&#45;&gt;Node9</title>
<path fill="none" stroke="midnightblue" d="M1099.04,-101.12C1107.49,-99.8 1116.2,-98.43 1124.77,-97.09"/>
<polygon fill="midnightblue" stroke="midnightblue" points="1125.4,-100.53 1134.74,-95.52 1124.32,-93.61 1125.4,-100.53"/>
</g>
<!-- Node10&#45;&gt;Node9 -->
<g id="edge10" class="edge">
<title>Node10&#45;&gt;Node9</title>
<path fill="none" stroke="midnightblue" d="M1099.04,-71.49C1107.49,-72.76 1116.2,-74.07 1124.77,-75.36"/>
<polygon fill="midnightblue" stroke="midnightblue" points="1124.33,-78.83 1134.74,-76.86 1125.37,-71.91 1124.33,-78.83"/>
</g>
<!-- Node12 -->
<g id="node12" class="node">
<title>Node12</title>
<g id="a_node12"><a xlink:href="class_ability_cooldown.html#a2142f4ae1a75b2e88bd33d8553680a33" target="_top" xlink:title="This function is called whenever this ability is ready and you have enough mana.">
<polygon fill="none" stroke="black" points="623,-38.5 623,-57.5 766,-57.5 766,-38.5 623,-38.5"/>
<text text-anchor="middle" x="694.5" y="-45.5" font-family="Helvetica,sans-Serif" font-size="10.00">AbilityCooldown.AbilityReady</text>
</a>
</g>
</g>
<!-- Node11&#45;&gt;Node12 -->
<g id="edge12" class="edge">
<title>Node11&#45;&gt;Node12</title>
<path fill="none" stroke="midnightblue" d="M587.42,-48C595.58,-48 604.05,-48 612.49,-48"/>
<polygon fill="midnightblue" stroke="midnightblue" points="612.73,-51.5 622.73,-48 612.73,-44.5 612.73,-51.5"/>
</g>
<!-- Node13 -->
<g id="node13" class="node">
<title>Node13</title>
<g id="a_node13"><a xlink:href="class_ability.html#a680fce4c2981c462afc82d28fe3958ef" target="_top" xlink:title=" ">
<polygon fill="none" stroke="black" points="653.5,-0.5 653.5,-19.5 735.5,-19.5 735.5,-0.5 653.5,-0.5"/>
<text text-anchor="middle" x="694.5" y="-7.5" font-family="Helvetica,sans-Serif" font-size="10.00">Ability.Initialize</text>
</a>
</g>
</g>
<!-- Node11&#45;&gt;Node13 -->
<g id="edge13" class="edge">
<title>Node11&#45;&gt;Node13</title>
<path fill="none" stroke="midnightblue" d="M568.27,-38.41C591.08,-33.24 619.38,-26.81 643.31,-21.39"/>
<polygon fill="midnightblue" stroke="midnightblue" points="644.29,-24.75 653.27,-19.13 642.74,-17.93 644.29,-24.75"/>
</g>
</g>
</svg>
        <g id="navigator" transform="translate(0 0)" fill="#404254">
                <rect fill="#f2f5e9" fill-opacity="0.5" stroke="#606060" stroke-width=".5" x="0" y="0" width="60" height="60"/>
                <use id="zoomplus" xlink:href="#zoomPlus" x="17" y="9" onmousedown="handleZoom(evt,'in')"/>
                <use id="zoomminus" xlink:href="#zoomMin" x="42" y="9" onmousedown="handleZoom(evt,'out')"/>
                <use id="reset" xlink:href="#resetDef" x="30" y="36" onmousedown="handleReset()"/>
                <g id="arrowUp" xlink:href="#dirArrow" transform="translate(30 24)" onmousedown="handlePan(0,-1)">
                  <use xlink:href="#rim" fill="#404040">
                        <set attributeName="fill" to="#808080" begin="arrowUp.mouseover" end="arrowUp.mouseout"/>
                  </use>
                  <path fill="none" stroke="white" stroke-width="1.5" d="M0,-3.0v7 M-2.5,-0.5L0,-3.0L2.5,-0.5"/>
                </g>
                <g id="arrowRight" xlink:href="#dirArrow" transform="rotate(90) translate(36 -43)" onmousedown="handlePan(1,0)">
                  <use xlink:href="#rim" fill="#404040">
                        <set attributeName="fill" to="#808080" begin="arrowRight.mouseover" end="arrowRight.mouseout"/>
                  </use>
                  <path fill="none" stroke="white" stroke-width="1.5" d="M0,-3.0v7 M-2.5,-0.5L0,-3.0L2.5,-0.5"/>
                </g>
                <g id="arrowDown" xlink:href="#dirArrow" transform="rotate(180) translate(-30 -48)" onmousedown="handlePan(0,1)">
                  <use xlink:href="#rim" fill="#404040">
                        <set attributeName="fill" to="#808080" begin="arrowDown.mouseover" end="arrowDown.mouseout"/>
                  </use>
                  <path fill="none" stroke="white" stroke-width="1.5" d="M0,-3.0v7 M-2.5,-0.5L0,-3.0L2.5,-0.5"/>
                </g>
                <g id="arrowLeft" xlink:href="#dirArrow" transform="rotate(270) translate(-36 17)" onmousedown="handlePan(-1,0)">
                  <use xlink:href="#rim" fill="#404040">
                        <set attributeName="fill" to="#808080" begin="arrowLeft.mouseover" end="arrowLeft.mouseout"/>
                  </use>
                  <path fill="none" stroke="white" stroke-width="1.5" d="M0,-3.0v7 M-2.5,-0.5L0,-3.0L2.5,-0.5"/>
                </g>
        </g>
        <svg viewBox="0 0 15 15" width="100%" height="30px" preserveAspectRatio="xMaxYMin meet">
         <g id="arrow_out" transform="scale(0.3 0.3)">
          <a xlink:href="class_model_sync_abf63af5a901636617cb742aab24c4d6f_cgraph_org.svg" target="_base">
           <rect id="button" ry="5" rx="5" y="6" x="6" height="38" width="38"
                fill="#f2f5e9" fill-opacity="0.5" stroke="#606060" stroke-width="1.0"/>
           <path id="arrow"
             d="M 11.500037,31.436501 C 11.940474,20.09759 22.043105,11.32322 32.158766,21.979434 L 37.068811,17.246167 C 37.068811,17.246167 37.088388,32 37.088388,32 L 22.160133,31.978069 C 22.160133,31.978069 26.997745,27.140456 26.997745,27.140456 C 18.528582,18.264221 13.291696,25.230495 11.500037,31.436501 z"
             style="fill:#404040;"/>
          </a>
         </g>
        </svg>
</svg>
