<?xml version="1.0" encoding="UTF-8" standalone="no"?>
<!DOCTYPE svg PUBLIC "-//W3C//DTD SVG 1.1//EN"
 "http://www.w3.org/Graphics/SVG/1.1/DTD/svg11.dtd">
<!-- Generated by graphviz version 2.47.3 (20210619.1520)
 -->
<!-- Title: ModelSync Pages: 1 -->
<!--zoomable 505 -->
<svg id="main" version="1.1" xmlns="http://www.w3.org/2000/svg" xmlns:xlink="http://www.w3.org/1999/xlink" xml:space="preserve" onload="init(evt)">
<style type="text/css"><![CDATA[
.edge:hover path { stroke: red; }
.edge:hover polygon { stroke: red; fill: red; }
]]></style>
<script type="text/javascript"><![CDATA[
var edges = document.getElementsByTagName('g');
if (edges && edges.length) {
  for (var i=0;i<edges.length;i++) {
    if (edges[i].id.substr(0,4)=='edge') {
      edges[i].setAttribute('class','edge');
    }
  }
}
]]></script>
        <defs>
                <circle id="rim" cx="0" cy="0" r="7"/>
                <circle id="rim2" cx="0" cy="0" r="3.5"/>
                <g id="zoomPlus">
                        <use xlink:href="#rim" fill="#404040">
                                <set attributeName="fill" to="#808080" begin="zoomplus.mouseover" end="zoomplus.mouseout"/>
                        </use>
                        <path d="M-4,0h8M0,-4v8" fill="none" stroke="white" stroke-width="1.5" pointer-events="none"/>
                </g>
                <g id="zoomMin">
                        <use xlink:href="#rim" fill="#404040">
                                <set attributeName="fill" to="#808080" begin="zoomminus.mouseover" end="zoomminus.mouseout"/>
                        </use>
                        <path d="M-4,0h8" fill="none" stroke="white" stroke-width="1.5" pointer-events="none"/>
                </g>
                <g id="dirArrow">
                        <path fill="none" stroke="white" stroke-width="1.5" d="M0,-3.0v7 M-2.5,-0.5L0,-3.0L2.5,-0.5"/>
                </g>
               <g id="resetDef">
                       <use xlink:href="#rim2" fill="#404040">
                               <set attributeName="fill" to="#808080" begin="reset.mouseover" end="reset.mouseout"/>
                       </use>
               </g>
        </defs>

<script type="text/javascript">
var viewWidth = 942;
var viewHeight = 505;
var sectionId = 'dynsection-1';
</script>
<script xlink:href="svgpan.js"/>
<svg id="graph" class="graph">
<g id="viewport">
<title>ModelSync</title>
<polygon fill="white" stroke="transparent" points="-4,4 -4,-501 938,-501 938,4 -4,4"/>
<!-- Node1 -->
<g id="node1" class="node">
<title>Node1</title>
<g id="a_node1"><a xlink:title=" ">
<polygon fill="#bfbfbf" stroke="black" points="68.5,-134.5 68.5,-153.5 133.5,-153.5 133.5,-134.5 68.5,-134.5"/>
<text text-anchor="middle" x="101" y="-141.5" font-family="Helvetica,sans-Serif" font-size="10.00">ModelSync</text>
</a>
</g>
</g>
<!-- Node2 -->
<g id="node2" class="node">
<title>Node2</title>
<g id="a_node2"><a xlink:title=" ">
<polygon fill="white" stroke="#bfbfbf" points="316.5,-420.5 316.5,-439.5 399.5,-439.5 399.5,-420.5 316.5,-420.5"/>
<text text-anchor="middle" x="358" y="-427.5" font-family="Helvetica,sans-Serif" font-size="10.00">MonoBehaviour</text>
</a>
</g>
</g>
<!-- Node2&#45;&gt;Node1 -->
<g id="edge1" class="edge">
<title>Node2&#45;&gt;Node1</title>
<path fill="none" stroke="midnightblue" d="M306.35,-422.04C248.88,-412.8 164,-394.07 164,-364 164,-364 164,-364 164,-210 164,-183.76 137.19,-164.09 118.55,-153.59"/>
<polygon fill="midnightblue" stroke="midnightblue" points="305.96,-425.52 316.38,-423.6 307.04,-418.6 305.96,-425.52"/>
</g>
<!-- Node3 -->
<g id="node3" class="node">
<title>Node3</title>
<g id="a_node3"><a xlink:href="class_model_player_mediator.xhtml" target="_top" xlink:title=" ">
<polygon fill="white" stroke="black" points="28,-201.5 28,-220.5 136,-220.5 136,-201.5 28,-201.5"/>
<text text-anchor="middle" x="82" y="-208.5" font-family="Helvetica,sans-Serif" font-size="10.00">ModelPlayerMediator</text>
</a>
</g>
</g>
<!-- Node2&#45;&gt;Node3 -->
<g id="edge3" class="edge">
<title>Node2&#45;&gt;Node3</title>
<path fill="none" stroke="midnightblue" d="M306.19,-428.24C252.58,-426.43 173.47,-420.57 150,-402 90.38,-354.82 82.98,-251.11 82.1,-220.6"/>
<polygon fill="midnightblue" stroke="midnightblue" points="306.11,-431.74 316.21,-428.54 306.32,-424.74 306.11,-431.74"/>
</g>
<!-- Node4 -->
<g id="node4" class="node">
<title>Node4</title>
<g id="a_node4"><a xlink:href="class_basic_attack.xhtml" target="_top" xlink:title=" ">
<polygon fill="white" stroke="black" points="200,-277.5 200,-296.5 270,-296.5 270,-277.5 200,-277.5"/>
<text text-anchor="middle" x="235" y="-284.5" font-family="Helvetica,sans-Serif" font-size="10.00">BasicAttack</text>
</a>
</g>
</g>
<!-- Node2&#45;&gt;Node4 -->
<g id="edge5" class="edge">
<title>Node2&#45;&gt;Node4</title>
<path fill="none" stroke="midnightblue" d="M343.41,-412.28C317.15,-382.17 262.79,-319.86 242.69,-296.82"/>
<polygon fill="midnightblue" stroke="midnightblue" points="341.09,-414.94 350.31,-420.18 346.37,-410.34 341.09,-414.94"/>
</g>
<!-- Node5 -->
<g id="node5" class="node">
<title>Node5</title>
<g id="a_node5"><a xlink:href="class_player_controller.xhtml" target="_top" xlink:title="Player Controller is the main class that handles all the movement of the Player.">
<polygon fill="white" stroke="black" points="275,-201.5 275,-220.5 361,-220.5 361,-201.5 275,-201.5"/>
<text text-anchor="middle" x="318" y="-208.5" font-family="Helvetica,sans-Serif" font-size="10.00">PlayerController</text>
</a>
</g>
</g>
<!-- Node2&#45;&gt;Node5 -->
<g id="edge7" class="edge">
<title>Node2&#45;&gt;Node5</title>
<path fill="none" stroke="midnightblue" d="M360.71,-409.83C364.86,-374.35 369.81,-296.79 344,-239 340.82,-231.87 334.9,-225.49 329.52,-220.73"/>
<polygon fill="midnightblue" stroke="midnightblue" points="357.19,-409.8 359.38,-420.16 364.13,-410.69 357.19,-409.8"/>
</g>
<!-- Node6 -->
<g id="node6" class="node">
<title>Node6</title>
<g id="a_node6"><a xlink:href="class_ability_cooldown.xhtml" target="_top" xlink:title=" ">
<polygon fill="white" stroke="black" points="350,-67.5 350,-86.5 436,-86.5 436,-67.5 350,-67.5"/>
<text text-anchor="middle" x="393" y="-74.5" font-family="Helvetica,sans-Serif" font-size="10.00">AbilityCooldown</text>
</a>
</g>
</g>
<!-- Node2&#45;&gt;Node6 -->
<g id="edge9" class="edge">
<title>Node2&#45;&gt;Node6</title>
<path fill="none" stroke="midnightblue" d="M409.96,-423.29C476.3,-415.08 586.32,-398.12 618,-373 656.36,-342.59 636.37,-310.57 672,-277 685.31,-264.46 699.3,-274.5 709,-259 777.23,-149.92 537.31,-99.89 436.03,-83.95"/>
<polygon fill="midnightblue" stroke="midnightblue" points="409.21,-419.85 399.7,-424.53 410.05,-426.8 409.21,-419.85"/>
</g>
<!-- Node10 -->
<g id="node10" class="node">
<title>Node10</title>
<g id="a_node10"><a xlink:href="class_ability_indicator.xhtml" target="_top" xlink:title=" ">
<polygon fill="white" stroke="black" points="353,-0.5 353,-19.5 433,-19.5 433,-0.5 353,-0.5"/>
<text text-anchor="middle" x="393" y="-7.5" font-family="Helvetica,sans-Serif" font-size="10.00">AbilityIndicator</text>
</a>
</g>
</g>
<!-- Node2&#45;&gt;Node10 -->
<g id="edge16" class="edge">
<title>Node2&#45;&gt;Node10</title>
<path fill="none" stroke="midnightblue" d="M306.12,-424.88C206.89,-416.3 0,-394.73 0,-364 0,-364 0,-364 0,-76 0,-40.51 252.63,-20.15 352.79,-13.47"/>
<polygon fill="midnightblue" stroke="midnightblue" points="305.97,-428.38 316.23,-425.74 306.57,-421.41 305.97,-428.38"/>
</g>
<!-- Node14 -->
<g id="node14" class="node">
<title>Node14</title>
<g id="a_node14"><a xlink:href="class_stats.xhtml" target="_top" xlink:title="Base class Stats of the entity.">
<polygon fill="white" stroke="black" points="386,-353.5 386,-372.5 426,-372.5 426,-353.5 386,-353.5"/>
<text text-anchor="middle" x="406" y="-360.5" font-family="Helvetica,sans-Serif" font-size="10.00">Stats</text>
</a>
</g>
</g>
<!-- Node2&#45;&gt;Node14 -->
<g id="edge24" class="edge">
<title>Node2&#45;&gt;Node14</title>
<path fill="none" stroke="midnightblue" d="M370.62,-411.9C379.95,-399.27 392.26,-382.6 399.63,-372.63"/>
<polygon fill="midnightblue" stroke="midnightblue" points="367.6,-410.11 364.47,-420.23 373.23,-414.27 367.6,-410.11"/>
</g>
<!-- Node16 -->
<g id="node16" class="node">
<title>Node16</title>
<g id="a_node16"><a xlink:href="class_u_i_controller.xhtml" target="_top" xlink:title=" ">
<polygon fill="white" stroke="black" points="541.5,-353.5 541.5,-372.5 608.5,-372.5 608.5,-353.5 541.5,-353.5"/>
<text text-anchor="middle" x="575" y="-360.5" font-family="Helvetica,sans-Serif" font-size="10.00">UIController</text>
</a>
</g>
</g>
<!-- Node2&#45;&gt;Node16 -->
<g id="edge27" class="edge">
<title>Node2&#45;&gt;Node16</title>
<path fill="none" stroke="midnightblue" d="M409.51,-421.16C434.19,-416.73 463.97,-410.37 490,-402 514.78,-394.03 542.01,-381.06 558.81,-372.52"/>
<polygon fill="midnightblue" stroke="midnightblue" points="408.87,-417.72 399.62,-422.89 410.08,-424.62 408.87,-417.72"/>
</g>
<!-- Node17 -->
<g id="node17" class="node">
<title>Node17</title>
<g id="a_node17"><a xlink:href="class_inventory.xhtml" target="_top" xlink:title=" ">
<polygon fill="white" stroke="black" points="459.5,-315.5 459.5,-334.5 514.5,-334.5 514.5,-315.5 459.5,-315.5"/>
<text text-anchor="middle" x="487" y="-322.5" font-family="Helvetica,sans-Serif" font-size="10.00">Inventory</text>
</a>
</g>
</g>
<!-- Node2&#45;&gt;Node17 -->
<g id="edge31" class="edge">
<title>Node2&#45;&gt;Node17</title>
<path fill="none" stroke="midnightblue" d="M378.7,-414.41C384.33,-410.41 390.42,-406.06 396,-402 413.47,-389.3 418.3,-386.7 435,-373 450.62,-360.19 467.84,-344.23 478.03,-334.59"/>
<polygon fill="midnightblue" stroke="midnightblue" points="376.51,-411.68 370.37,-420.31 380.55,-417.39 376.51,-411.68"/>
</g>
<!-- Node3&#45;&gt;Node1 -->
<g id="edge2" class="edge">
<title>Node3&#45;&gt;Node1</title>
<path fill="none" stroke="#9a32cd" stroke-dasharray="5,2" d="M87.43,-191.41C91.06,-178.99 95.68,-163.22 98.48,-153.63"/>
<polygon fill="#9a32cd" stroke="#9a32cd" points="84.01,-190.65 84.56,-201.23 90.73,-192.62 84.01,-190.65"/>
<text text-anchor="middle" x="113.5" y="-175" font-family="Helvetica,sans-Serif" font-size="10.00"> mediator</text>
</g>
<!-- Node4&#45;&gt;Node3 -->
<g id="edge4" class="edge">
<title>Node4&#45;&gt;Node3</title>
<path fill="none" stroke="#9a32cd" stroke-dasharray="5,2" d="M189.82,-282.33C167.46,-278.85 140.86,-272.1 120,-259 104.72,-249.4 92.82,-231.48 86.65,-220.76"/>
<polygon fill="#9a32cd" stroke="#9a32cd" points="189.38,-285.8 199.76,-283.7 190.34,-278.86 189.38,-285.8"/>
<text text-anchor="middle" x="147.5" y="-246.5" font-family="Helvetica,sans-Serif" font-size="10.00"> basicAttack</text>
</g>
<!-- Node4&#45;&gt;Node5 -->
<g id="edge36" class="edge">
<title>Node4&#45;&gt;Node5</title>
<path fill="none" stroke="#9a32cd" stroke-dasharray="5,2" d="M252.88,-270.52C257.19,-266.77 261.77,-262.75 266,-259 280.93,-245.75 298.07,-230.19 308.46,-220.72"/>
<polygon fill="#9a32cd" stroke="#9a32cd" points="250.35,-268.09 245.09,-277.29 254.94,-273.37 250.35,-268.09"/>
<text text-anchor="middle" x="314.5" y="-246.5" font-family="Helvetica,sans-Serif" font-size="10.00"> basicAttack</text>
</g>
<!-- Node5&#45;&gt;Node4 -->
<g id="edge6" class="edge">
<title>Node5&#45;&gt;Node4</title>
<path fill="none" stroke="#9a32cd" stroke-dasharray="5,2" d="M264.72,-215.06C248.78,-218.78 232.93,-225.86 223,-239 214.47,-250.29 222.31,-267 228.7,-277.16"/>
<polygon fill="#9a32cd" stroke="#9a32cd" points="265.44,-218.48 274.6,-213.15 264.11,-211.61 265.44,-218.48"/>
<text text-anchor="middle" x="244.5" y="-246.5" font-family="Helvetica,sans-Serif" font-size="10.00"> controller</text>
</g>
<!-- Node5&#45;&gt;Node6 -->
<g id="edge10" class="edge">
<title>Node5&#45;&gt;Node6</title>
<path fill="none" stroke="#9a32cd" stroke-dasharray="5,2" d="M285.86,-197.29C255.73,-183.43 217.83,-159.77 236,-134 261.6,-97.69 312.94,-84.79 349.96,-80.28"/>
<polygon fill="#9a32cd" stroke="#9a32cd" points="284.72,-200.61 295.29,-201.43 287.54,-194.2 284.72,-200.61"/>
<text text-anchor="middle" x="271.5" y="-141.5" font-family="Helvetica,sans-Serif" font-size="10.00"> playerController</text>
</g>
<!-- Node12 -->
<g id="node12" class="node">
<title>Node12</title>
<g id="a_node12"><a xlink:href="class_player_stats.xhtml" target="_top" xlink:title="Player Stats is the main class that controls all the Player Statistics in all time in the game execut...">
<polygon fill="white" stroke="black" points="407,-134.5 407,-153.5 475,-153.5 475,-134.5 407,-134.5"/>
<text text-anchor="middle" x="441" y="-141.5" font-family="Helvetica,sans-Serif" font-size="10.00">PlayerStats</text>
</a>
</g>
</g>
<!-- Node5&#45;&gt;Node12 -->
<g id="edge28" class="edge">
<title>Node5&#45;&gt;Node12</title>
<path fill="none" stroke="#9a32cd" stroke-dasharray="5,2" d="M316.29,-190.84C316.69,-184.14 318.41,-177.04 323,-172 328.71,-165.72 374.18,-156.62 406.97,-150.76"/>
<polygon fill="#9a32cd" stroke="#9a32cd" points="312.8,-191.39 316.56,-201.3 319.8,-191.21 312.8,-191.39"/>
<text text-anchor="middle" x="358.5" y="-175" font-family="Helvetica,sans-Serif" font-size="10.00"> playerController</text>
</g>
<!-- Node6&#45;&gt;Node5 -->
<g id="edge8" class="edge">
<title>Node6&#45;&gt;Node5</title>
<path fill="none" stroke="#9a32cd" stroke-dasharray="5,2" d="M354.01,-90.79C346.7,-94.51 339.61,-99.18 334,-105 309.09,-130.85 309.72,-147.25 313,-183 313.56,-189.08 314.81,-195.83 315.92,-201.06"/>
<polygon fill="#9a32cd" stroke="#9a32cd" points="355.63,-93.9 363.29,-86.58 352.74,-87.52 355.63,-93.9"/>
<text text-anchor="middle" x="352" y="-141.5" font-family="Helvetica,sans-Serif" font-size="10.00"> abilityCooldowns</text>
</g>
<!-- Node6&#45;&gt;Node10 -->
<g id="edge17" class="edge">
<title>Node6&#45;&gt;Node10</title>
<path fill="none" stroke="#9a32cd" stroke-dasharray="5,2" d="M365.52,-61.46C361.28,-57.97 357.49,-53.82 355,-49 348.84,-37.06 361.63,-26.53 374.01,-19.6"/>
<polygon fill="#9a32cd" stroke="#9a32cd" points="363.8,-64.53 374,-67.39 367.81,-58.79 363.8,-64.53"/>
<text text-anchor="middle" x="378.5" y="-41" font-family="Helvetica,sans-Serif" font-size="10.00"> currentCD</text>
</g>
<!-- Node6&#45;&gt;Node12 -->
<g id="edge29" class="edge">
<title>Node6&#45;&gt;Node12</title>
<path fill="none" stroke="#9a32cd" stroke-dasharray="5,2" d="M355.79,-90.67C342.81,-97.15 333.21,-105.83 341,-116 349.09,-126.57 381.25,-133.94 406.94,-138.28"/>
<polygon fill="#9a32cd" stroke="#9a32cd" points="357.41,-93.78 365.14,-86.54 354.58,-87.37 357.41,-93.78"/>
<text text-anchor="middle" x="379" y="-108" font-family="Helvetica,sans-Serif" font-size="10.00"> abilityCooldowns</text>
</g>
<!-- Node7 -->
<g id="node7" class="node">
<title>Node7</title>
<g id="a_node7"><a xlink:href="class_ability.xhtml" target="_top" xlink:title=" ">
<polygon fill="white" stroke="black" points="739,-353.5 739,-372.5 783,-372.5 783,-353.5 739,-353.5"/>
<text text-anchor="middle" x="761" y="-360.5" font-family="Helvetica,sans-Serif" font-size="10.00">Ability</text>
</a>
</g>
</g>
<!-- Node7&#45;&gt;Node6 -->
<g id="edge11" class="edge">
<title>Node7&#45;&gt;Node6</title>
<path fill="none" stroke="#9a32cd" stroke-dasharray="5,2" d="M766.48,-343.52C770.41,-328.66 775,-307.17 775,-288 775,-288 775,-288 775,-143 775,-119.12 758.69,-115 737,-105 684.57,-80.83 516.08,-77.75 436.02,-77.7"/>
<polygon fill="#9a32cd" stroke="#9a32cd" points="763.03,-342.87 763.7,-353.44 769.77,-344.76 763.03,-342.87"/>
<text text-anchor="middle" x="789.5" y="-208.5" font-family="Helvetica,sans-Serif" font-size="10.00"> ability</text>
</g>
<!-- Node11 -->
<g id="node11" class="node">
<title>Node11</title>
<g id="a_node11"><a xlink:href="class_indicated_ability.xhtml" target="_top" xlink:title="Encapsulador de les Ability que han de mostrar l&#39;indicador">
<polygon fill="white" stroke="black" points="803.5,-277.5 803.5,-296.5 886.5,-296.5 886.5,-277.5 803.5,-277.5"/>
<text text-anchor="middle" x="845" y="-284.5" font-family="Helvetica,sans-Serif" font-size="10.00">IndicatedAbility</text>
</a>
</g>
</g>
<!-- Node7&#45;&gt;Node11 -->
<g id="edge19" class="edge">
<title>Node7&#45;&gt;Node11</title>
<path fill="none" stroke="midnightblue" d="M778.67,-346.43C795.91,-331.25 821.49,-308.71 835.31,-296.54"/>
<polygon fill="midnightblue" stroke="midnightblue" points="776.16,-343.98 770.97,-353.22 780.78,-349.24 776.16,-343.98"/>
</g>
<!-- Node18 -->
<g id="node18" class="node">
<title>Node18</title>
<g id="a_node18"><a xlink:href="class_character.xhtml" target="_top" xlink:title=" ">
<polygon fill="white" stroke="black" points="680.5,-277.5 680.5,-296.5 739.5,-296.5 739.5,-277.5 680.5,-277.5"/>
<text text-anchor="middle" x="710" y="-284.5" font-family="Helvetica,sans-Serif" font-size="10.00">Character</text>
</a>
</g>
</g>
<!-- Node7&#45;&gt;Node18 -->
<g id="edge34" class="edge">
<title>Node7&#45;&gt;Node18</title>
<path fill="none" stroke="#9a32cd" stroke-dasharray="5,2" d="M736.35,-347.53C731.74,-343.92 727.33,-339.71 724,-335 715.75,-323.32 712.3,-306.73 710.9,-296.7"/>
<polygon fill="#9a32cd" stroke="#9a32cd" points="734.48,-350.49 744.68,-353.37 738.5,-344.76 734.48,-350.49"/>
<text text-anchor="middle" x="742.5" y="-322.5" font-family="Helvetica,sans-Serif" font-size="10.00"> abilities</text>
</g>
<!-- Node8 -->
<g id="node8" class="node">
<title>Node8</title>
<g id="a_node8"><a xlink:title=" ">
<polygon fill="white" stroke="#bfbfbf" points="683.5,-477.5 683.5,-496.5 772.5,-496.5 772.5,-477.5 683.5,-477.5"/>
<text text-anchor="middle" x="728" y="-484.5" font-family="Helvetica,sans-Serif" font-size="10.00">ScriptableObject</text>
</a>
</g>
</g>
<!-- Node8&#45;&gt;Node7 -->
<g id="edge12" class="edge">
<title>Node8&#45;&gt;Node7</title>
<path fill="none" stroke="midnightblue" d="M732.99,-467.55C740.22,-440.83 753.32,-392.4 758.65,-372.69"/>
<polygon fill="midnightblue" stroke="midnightblue" points="729.61,-466.66 730.37,-477.23 736.36,-468.49 729.61,-466.66"/>
</g>
<!-- Node9 -->
<g id="node9" class="node">
<title>Node9</title>
<g id="a_node9"><a xlink:href="class_effect.xhtml" target="_top" xlink:title="Abstract base info container class for an Effect.">
<polygon fill="white" stroke="black" points="756.5,-420.5 756.5,-439.5 797.5,-439.5 797.5,-420.5 756.5,-420.5"/>
<text text-anchor="middle" x="777" y="-427.5" font-family="Helvetica,sans-Serif" font-size="10.00">Effect</text>
</a>
</g>
</g>
<!-- Node8&#45;&gt;Node9 -->
<g id="edge14" class="edge">
<title>Node8&#45;&gt;Node9</title>
<path fill="none" stroke="midnightblue" d="M742.41,-469.83C751.18,-459.98 762.05,-447.78 769.24,-439.71"/>
<polygon fill="midnightblue" stroke="midnightblue" points="739.7,-467.61 735.66,-477.41 744.92,-472.27 739.7,-467.61"/>
</g>
<!-- Node8&#45;&gt;Node18 -->
<g id="edge33" class="edge">
<title>Node8&#45;&gt;Node18</title>
<path fill="none" stroke="midnightblue" d="M725.3,-467.01C721.37,-438.43 714.18,-382.66 711,-335 710.11,-321.64 709.95,-306.11 709.95,-296.67"/>
<polygon fill="midnightblue" stroke="midnightblue" points="721.87,-467.76 726.72,-477.17 728.8,-466.79 721.87,-467.76"/>
</g>
<!-- Node9&#45;&gt;Node7 -->
<g id="edge13" class="edge">
<title>Node9&#45;&gt;Node7</title>
<path fill="none" stroke="#9a32cd" stroke-dasharray="5,2" d="M765.72,-411.51C764.21,-408.44 762.88,-405.21 762,-402 759.32,-392.2 759.5,-380.44 760.07,-372.62"/>
<polygon fill="#9a32cd" stroke="#9a32cd" points="762.85,-413.53 770.86,-420.47 768.92,-410.05 762.85,-413.53"/>
<text text-anchor="middle" x="801" y="-394" font-family="Helvetica,sans-Serif" font-size="10.00"> aToAuthorEffects</text>
</g>
<!-- Node9&#45;&gt;Node11 -->
<g id="edge20" class="edge">
<title>Node9&#45;&gt;Node11</title>
<path fill="none" stroke="#9a32cd" stroke-dasharray="5,2" d="M807.53,-423.28C819.66,-419.38 832.49,-412.86 840,-402 862.76,-369.08 852.71,-317.13 847.46,-296.68"/>
<polygon fill="#9a32cd" stroke="#9a32cd" points="806.36,-419.97 797.64,-425.97 808.2,-426.72 806.36,-419.97"/>
<text text-anchor="middle" x="894" y="-360.5" font-family="Helvetica,sans-Serif" font-size="10.00"> aToEnemyEffects</text>
</g>
<!-- Node10&#45;&gt;Node6 -->
<g id="edge15" class="edge">
<title>Node10&#45;&gt;Node6</title>
<path fill="none" stroke="#9a32cd" stroke-dasharray="5,2" d="M403.35,-28.61C405.92,-34.95 407.55,-42.22 406,-49 404.52,-55.49 401.27,-62.24 398.39,-67.37"/>
<polygon fill="#9a32cd" stroke="#9a32cd" points="406.45,-26.99 398.86,-19.6 400.19,-30.11 406.45,-26.99"/>
<text text-anchor="middle" x="439" y="-41" font-family="Helvetica,sans-Serif" font-size="10.00"> abilityIndicator</text>
</g>
<!-- Node11&#45;&gt;Node10 -->
<g id="edge18" class="edge">
<title>Node11&#45;&gt;Node10</title>
<path fill="none" stroke="#9a32cd" stroke-dasharray="5,2" d="M842.26,-267.38C840.3,-252.44 838,-230.92 838,-212 838,-212 838,-212 838,-76 838,-35.3 542.82,-17.78 433.28,-12.68"/>
<polygon fill="#9a32cd" stroke="#9a32cd" points="838.8,-267.95 843.65,-277.37 845.74,-266.98 838.8,-267.95"/>
<text text-anchor="middle" x="855" y="-141.5" font-family="Helvetica,sans-Serif" font-size="10.00"> current</text>
</g>
<!-- Node12&#45;&gt;Node4 -->
<g id="edge38" class="edge">
<title>Node12&#45;&gt;Node4</title>
<path fill="none" stroke="#9a32cd" stroke-dasharray="5,2" d="M396.89,-153.45C366.34,-159.47 328.47,-167.29 313,-172 280,-182.04 267.7,-179.15 241,-201 219.28,-218.78 207.53,-232.24 216,-259 218.15,-265.78 222.67,-272.32 226.77,-277.27"/>
<polygon fill="#9a32cd" stroke="#9a32cd" points="397.79,-156.84 406.94,-151.49 396.45,-149.97 397.79,-156.84"/>
<text text-anchor="middle" x="253.5" y="-208.5" font-family="Helvetica,sans-Serif" font-size="10.00"> stats</text>
</g>
<!-- Node12&#45;&gt;Node5 -->
<g id="edge35" class="edge">
<title>Node12&#45;&gt;Node5</title>
<path fill="none" stroke="#9a32cd" stroke-dasharray="5,2" d="M424.87,-160.33C416.23,-167.93 405.1,-176.78 394,-183 380.07,-190.8 363.48,-197.01 349.35,-201.49"/>
<polygon fill="#9a32cd" stroke="#9a32cd" points="427.27,-162.88 432.31,-153.56 422.56,-157.7 427.27,-162.88"/>
<text text-anchor="middle" x="422.5" y="-175" font-family="Helvetica,sans-Serif" font-size="10.00"> stats</text>
</g>
<!-- Node12&#45;&gt;Node6 -->
<g id="edge21" class="edge">
<title>Node12&#45;&gt;Node6</title>
<path fill="none" stroke="#9a32cd" stroke-dasharray="5,2" d="M432.99,-124.96C429.7,-118.4 425.58,-111.1 421,-105 415.89,-98.2 409.03,-91.55 403.38,-86.55"/>
<polygon fill="#9a32cd" stroke="#9a32cd" points="430,-126.83 437.43,-134.39 436.33,-123.85 430,-126.83"/>
<text text-anchor="middle" x="454.5" y="-108" font-family="Helvetica,sans-Serif" font-size="10.00"> playerStats</text>
</g>
<!-- Node13 -->
<g id="node13" class="node">
<title>Node13</title>
<g id="a_node13"><a xlink:href="class_ability_affected_stats.xhtml" target="_top" xlink:title="Base class Stats of the entity who is affected by Abilities.">
<polygon fill="white" stroke="black" points="373,-239.5 373,-258.5 475,-258.5 475,-239.5 373,-239.5"/>
<text text-anchor="middle" x="424" y="-246.5" font-family="Helvetica,sans-Serif" font-size="10.00">AbilityAffectedStats</text>
</a>
</g>
</g>
<!-- Node13&#45;&gt;Node12 -->
<g id="edge22" class="edge">
<title>Node13&#45;&gt;Node12</title>
<path fill="none" stroke="midnightblue" d="M429.23,-229.3C432.61,-216.39 436.78,-198.79 439,-183 440.4,-173.06 440.84,-161.52 440.97,-153.8"/>
<polygon fill="midnightblue" stroke="midnightblue" points="425.77,-228.69 426.53,-239.26 432.52,-230.52 425.77,-228.69"/>
</g>
<!-- Node14&#45;&gt;Node4 -->
<g id="edge37" class="edge">
<title>Node14&#45;&gt;Node4</title>
<path fill="none" stroke="#9a32cd" stroke-dasharray="5,2" d="M376.43,-349.2C341.61,-334.13 284.74,-309.52 254.82,-296.58"/>
<polygon fill="#9a32cd" stroke="#9a32cd" points="375.48,-352.61 386.05,-353.37 378.26,-346.18 375.48,-352.61"/>
<text text-anchor="middle" x="364.5" y="-322.5" font-family="Helvetica,sans-Serif" font-size="10.00"> otherStats</text>
</g>
<!-- Node14&#45;&gt;Node13 -->
<g id="edge23" class="edge">
<title>Node14&#45;&gt;Node13</title>
<path fill="none" stroke="midnightblue" d="M409.05,-343.01C412.99,-318.48 419.7,-276.79 422.59,-258.75"/>
<polygon fill="midnightblue" stroke="midnightblue" points="405.54,-342.78 407.41,-353.21 412.45,-343.89 405.54,-342.78"/>
</g>
<!-- Node15 -->
<g id="node15" class="node">
<title>Node15</title>
<g id="a_node15"><a xlink:href="class_player_u_i_controller.xhtml" target="_top" xlink:title="UI Controller for the Player Stats">
<polygon fill="white" stroke="black" points="545.5,-239.5 545.5,-258.5 640.5,-258.5 640.5,-239.5 545.5,-239.5"/>
<text text-anchor="middle" x="593" y="-246.5" font-family="Helvetica,sans-Serif" font-size="10.00">PlayerUIController</text>
</a>
</g>
</g>
<!-- Node15&#45;&gt;Node12 -->
<g id="edge25" class="edge">
<title>Node15&#45;&gt;Node12</title>
<path fill="none" stroke="#9a32cd" stroke-dasharray="5,2" d="M578.92,-231.42C563.83,-214.53 538.46,-188.53 512,-172 499.47,-164.17 484.32,-158.03 471.23,-153.59"/>
<polygon fill="#9a32cd" stroke="#9a32cd" points="576.61,-234.09 585.82,-239.32 581.88,-229.49 576.61,-234.09"/>
<text text-anchor="middle" x="589" y="-208.5" font-family="Helvetica,sans-Serif" font-size="10.00"> uiControl</text>
</g>
<!-- Node16&#45;&gt;Node15 -->
<g id="edge26" class="edge">
<title>Node16&#45;&gt;Node15</title>
<path fill="none" stroke="midnightblue" d="M578.05,-343.01C581.99,-318.48 588.7,-276.79 591.59,-258.75"/>
<polygon fill="midnightblue" stroke="midnightblue" points="574.54,-342.78 576.41,-353.21 581.45,-343.89 574.54,-342.78"/>
</g>
<!-- Node17&#45;&gt;Node12 -->
<g id="edge30" class="edge">
<title>Node17&#45;&gt;Node12</title>
<path fill="none" stroke="#9a32cd" stroke-dasharray="5,2" d="M485.65,-305.02C484.15,-287.67 481.23,-261.37 476,-239 468.83,-208.34 464.52,-201.3 453,-172 450.6,-165.89 447.6,-159.14 445.2,-153.92"/>
<polygon fill="#9a32cd" stroke="#9a32cd" points="482.2,-305.76 486.47,-315.45 489.17,-305.21 482.2,-305.76"/>
<text text-anchor="middle" x="500" y="-246.5" font-family="Helvetica,sans-Serif" font-size="10.00"> inventory</text>
</g>
<!-- Node18&#45;&gt;Node5 -->
<g id="edge32" class="edge">
<title>Node18&#45;&gt;Node5</title>
<path fill="none" stroke="#9a32cd" stroke-dasharray="5,2" d="M693.17,-270.6C680.2,-259.72 661.28,-245.91 642,-239 591.45,-220.89 437.09,-214.79 361.14,-212.85"/>
<polygon fill="#9a32cd" stroke="#9a32cd" points="690.93,-273.29 700.77,-277.21 695.53,-268.01 690.93,-273.29"/>
<text text-anchor="middle" x="699" y="-246.5" font-family="Helvetica,sans-Serif" font-size="10.00"> character</text>
</g>
</g>
</svg>
        <g id="navigator" transform="translate(0 0)" fill="#404254">
                <rect fill="#f2f5e9" fill-opacity="0.5" stroke="#606060" stroke-width=".5" x="0" y="0" width="60" height="60"/>
                <use id="zoomplus" xlink:href="#zoomPlus" x="17" y="9" onmousedown="handleZoom(evt,'in')"/>
                <use id="zoomminus" xlink:href="#zoomMin" x="42" y="9" onmousedown="handleZoom(evt,'out')"/>
                <use id="reset" xlink:href="#resetDef" x="30" y="36" onmousedown="handleReset()"/>
                <g id="arrowUp" xlink:href="#dirArrow" transform="translate(30 24)" onmousedown="handlePan(0,-1)">
                  <use xlink:href="#rim" fill="#404040">
                        <set attributeName="fill" to="#808080" begin="arrowUp.mouseover" end="arrowUp.mouseout"/>
                  </use>
                  <path fill="none" stroke="white" stroke-width="1.5" d="M0,-3.0v7 M-2.5,-0.5L0,-3.0L2.5,-0.5"/>
                </g>
                <g id="arrowRight" xlink:href="#dirArrow" transform="rotate(90) translate(36 -43)" onmousedown="handlePan(1,0)">
                  <use xlink:href="#rim" fill="#404040">
                        <set attributeName="fill" to="#808080" begin="arrowRight.mouseover" end="arrowRight.mouseout"/>
                  </use>
                  <path fill="none" stroke="white" stroke-width="1.5" d="M0,-3.0v7 M-2.5,-0.5L0,-3.0L2.5,-0.5"/>
                </g>
                <g id="arrowDown" xlink:href="#dirArrow" transform="rotate(180) translate(-30 -48)" onmousedown="handlePan(0,1)">
                  <use xlink:href="#rim" fill="#404040">
                        <set attributeName="fill" to="#808080" begin="arrowDown.mouseover" end="arrowDown.mouseout"/>
                  </use>
                  <path fill="none" stroke="white" stroke-width="1.5" d="M0,-3.0v7 M-2.5,-0.5L0,-3.0L2.5,-0.5"/>
                </g>
                <g id="arrowLeft" xlink:href="#dirArrow" transform="rotate(270) translate(-36 17)" onmousedown="handlePan(-1,0)">
                  <use xlink:href="#rim" fill="#404040">
                        <set attributeName="fill" to="#808080" begin="arrowLeft.mouseover" end="arrowLeft.mouseout"/>
                  </use>
                  <path fill="none" stroke="white" stroke-width="1.5" d="M0,-3.0v7 M-2.5,-0.5L0,-3.0L2.5,-0.5"/>
                </g>
        </g>
        <svg viewBox="0 0 15 15" width="100%" height="30px" preserveAspectRatio="xMaxYMin meet">
         <g id="arrow_out" transform="scale(0.3 0.3)">
          <a xlink:href="class_model_sync__coll__graph_org.svg" target="_base">
           <rect id="button" ry="5" rx="5" y="6" x="6" height="38" width="38"
                fill="#f2f5e9" fill-opacity="0.5" stroke="#606060" stroke-width="1.0"/>
           <path id="arrow"
             d="M 11.500037,31.436501 C 11.940474,20.09759 22.043105,11.32322 32.158766,21.979434 L 37.068811,17.246167 C 37.068811,17.246167 37.088388,32 37.088388,32 L 22.160133,31.978069 C 22.160133,31.978069 26.997745,27.140456 26.997745,27.140456 C 18.528582,18.264221 13.291696,25.230495 11.500037,31.436501 z"
             style="fill:#404040;"/>
          </a>
         </g>
        </svg>
</svg>
