<?xml version="1.0" encoding="UTF-8" standalone="no"?>
<!DOCTYPE svg PUBLIC "-//W3C//DTD SVG 1.1//EN"
 "http://www.w3.org/Graphics/SVG/1.1/DTD/svg11.dtd">
<!-- Generated by graphviz version 2.47.3 (20210619.1520)
 -->
<!-- Title: StatisticChangeEffect.ApplyTimedEffect Pages: 1 -->
<svg width="328pt" height="66pt"
 viewBox="0.00 0.00 328.00 66.00" xmlns="http://www.w3.org/2000/svg" xmlns:xlink="http://www.w3.org/1999/xlink">
<g id="graph0" class="graph" transform="scale(1 1) rotate(0) translate(4 62)">
<title>StatisticChangeEffect.ApplyTimedEffect</title>
<!-- Node1 -->
<g id="node1" class="node">
<title>Node1</title>
<g id="a_node1"><a xlink:title=" ">
<polygon fill="#bfbfbf" stroke="black" points="0,-14 0,-44 138,-44 138,-14 0,-14"/>
<text text-anchor="start" x="8" y="-32" font-family="Helvetica,sans-Serif" font-size="10.00">StatisticChangeEffect.Apply</text>
<text text-anchor="middle" x="69" y="-21" font-family="Helvetica,sans-Serif" font-size="10.00">TimedEffect</text>
</a>
</g>
</g>
<!-- Node2 -->
<g id="node2" class="node">
<title>Node2</title>
<g id="a_node2"><a xlink:href="class_player_stats.html#a458a138dd67acf0dc36b82c559a2ee40" target="_top" xlink:title=" ">
<polygon fill="none" stroke="black" points="181.5,-38.5 181.5,-57.5 312.5,-57.5 312.5,-38.5 181.5,-38.5"/>
<text text-anchor="middle" x="247" y="-45.5" font-family="Helvetica,sans-Serif" font-size="10.00">PlayerStats.ApplyStatistic</text>
</a>
</g>
</g>
<!-- Node1&#45;&gt;Node2 -->
<g id="edge1" class="edge">
<title>Node1&#45;&gt;Node2</title>
<path fill="none" stroke="midnightblue" d="M138.05,-36.35C148.93,-37.52 160.25,-38.74 171.28,-39.93"/>
<polygon fill="midnightblue" stroke="midnightblue" points="170.99,-43.42 181.31,-41.02 171.75,-36.46 170.99,-43.42"/>
</g>
<!-- Node3 -->
<g id="node3" class="node">
<title>Node3</title>
<g id="a_node3"><a xlink:href="class_effect_manager.html#aabe536a972389473af36e685412eecd1" target="_top" xlink:title=" ">
<polygon fill="none" stroke="black" points="174,-0.5 174,-19.5 320,-19.5 320,-0.5 174,-0.5"/>
<text text-anchor="middle" x="247" y="-7.5" font-family="Helvetica,sans-Serif" font-size="10.00">EffectManager.OnFinishEffect</text>
</a>
</g>
</g>
<!-- Node1&#45;&gt;Node3 -->
<g id="edge2" class="edge">
<title>Node1&#45;&gt;Node3</title>
<path fill="none" stroke="midnightblue" d="M138.05,-21.65C146.46,-20.75 155.13,-19.81 163.72,-18.88"/>
<polygon fill="midnightblue" stroke="midnightblue" points="164.2,-22.35 173.76,-17.8 163.44,-15.39 164.2,-22.35"/>
</g>
</g>
</svg>
