<?xml version="1.0" encoding="UTF-8" standalone="no"?>
<!DOCTYPE svg PUBLIC "-//W3C//DTD SVG 1.1//EN"
 "http://www.w3.org/Graphics/SVG/1.1/DTD/svg11.dtd">
<!-- Generated by graphviz version 2.47.3 (20210619.1520)
 -->
<!-- Title: ModelPlayerMediator.Initialize Pages: 1 -->
<svg width="435pt" height="66pt"
 viewBox="0.00 0.00 435.00 66.00" xmlns="http://www.w3.org/2000/svg" xmlns:xlink="http://www.w3.org/1999/xlink">
<g id="graph0" class="graph" transform="scale(1 1) rotate(0) translate(4 62)">
<title>ModelPlayerMediator.Initialize</title>
<!-- Node1 -->
<g id="node1" class="node">
<title>Node1</title>
<g id="a_node1"><a xlink:title=" ">
<polygon fill="#bfbfbf" stroke="black" points="281,-19.5 281,-38.5 427,-38.5 427,-19.5 281,-19.5"/>
<text text-anchor="middle" x="354" y="-26.5" font-family="Helvetica,sans-Serif" font-size="10.00">ModelPlayerMediator.Initialize</text>
</a>
</g>
</g>
<!-- Node2 -->
<g id="node2" class="node">
<title>Node2</title>
<g id="a_node2"><a xlink:href="class_model_sync.html#ab8359f73ae31a7f926c80ebcd7e9444a" target="_top" xlink:title="This starts all the initialization chain for the player.">
<polygon fill="none" stroke="black" points="135,-19.5 135,-38.5 245,-38.5 245,-19.5 135,-19.5"/>
<text text-anchor="middle" x="190" y="-26.5" font-family="Helvetica,sans-Serif" font-size="10.00">ModelSync.DoEnable</text>
</a>
</g>
</g>
<!-- Node1&#45;&gt;Node2 -->
<g id="edge1" class="edge">
<title>Node1&#45;&gt;Node2</title>
<path fill="none" stroke="midnightblue" d="M270.26,-29C261.84,-29 253.44,-29 245.43,-29"/>
<polygon fill="midnightblue" stroke="midnightblue" points="270.53,-32.5 280.53,-29 270.53,-25.5 270.53,-32.5"/>
</g>
<!-- Node3 -->
<g id="node3" class="node">
<title>Node3</title>
<g id="a_node3"><a xlink:href="class_model_sync.html#a47be08ee3bbd2a173514e74da3dd65cb" target="_top" xlink:title=" ">
<polygon fill="none" stroke="black" points="5,-38.5 5,-57.5 94,-57.5 94,-38.5 5,-38.5"/>
<text text-anchor="middle" x="49.5" y="-45.5" font-family="Helvetica,sans-Serif" font-size="10.00">ModelSync.Start</text>
</a>
</g>
</g>
<!-- Node2&#45;&gt;Node3 -->
<g id="edge2" class="edge">
<title>Node2&#45;&gt;Node3</title>
<path fill="none" stroke="midnightblue" d="M124.54,-37.84C114.35,-39.24 104.01,-40.66 94.43,-41.97"/>
<polygon fill="midnightblue" stroke="midnightblue" points="125.23,-41.28 134.66,-36.45 124.28,-34.35 125.23,-41.28"/>
</g>
<!-- Node4 -->
<g id="node4" class="node">
<title>Node4</title>
<g id="a_node4"><a xlink:href="class_model_sync.html#abf63af5a901636617cb742aab24c4d6f" target="_top" xlink:title=" ">
<polygon fill="none" stroke="black" points="0,-0.5 0,-19.5 99,-19.5 99,-0.5 0,-0.5"/>
<text text-anchor="middle" x="49.5" y="-7.5" font-family="Helvetica,sans-Serif" font-size="10.00">ModelSync.Update</text>
</a>
</g>
</g>
<!-- Node2&#45;&gt;Node4 -->
<g id="edge3" class="edge">
<title>Node2&#45;&gt;Node4</title>
<path fill="none" stroke="midnightblue" d="M124.7,-20.18C116.15,-19.01 107.51,-17.82 99.28,-16.69"/>
<polygon fill="midnightblue" stroke="midnightblue" points="124.28,-23.65 134.66,-21.55 125.23,-16.72 124.28,-23.65"/>
</g>
</g>
</svg>
