<?xml version="1.0" encoding="UTF-8" standalone="no"?>
<!DOCTYPE svg PUBLIC "-//W3C//DTD SVG 1.1//EN"
 "http://www.w3.org/Graphics/SVG/1.1/DTD/svg11.dtd">
<!-- Generated by graphviz version 2.47.3 (20210619.1520)
 -->
<!-- Title: ChatGui.OnGetMessages Pages: 1 -->
<svg width="457pt" height="88pt"
 viewBox="0.00 0.00 457.00 88.00" xmlns="http://www.w3.org/2000/svg" xmlns:xlink="http://www.w3.org/1999/xlink">
<g id="graph0" class="graph" transform="scale(1 1) rotate(0) translate(4 84)">
<title>ChatGui.OnGetMessages</title>
<polygon fill="white" stroke="transparent" points="-4,4 -4,-84 453,-84 453,4 -4,4"/>
<!-- Node1 -->
<g id="node1" class="node">
<title>Node1</title>
<g id="a_node1"><a xlink:title="Notifies app that client got new messages from server Number of senders is equal to number of message...">
<polygon fill="#bfbfbf" stroke="black" points="0,-30 0,-49 128,-49 128,-30 0,-30"/>
<text text-anchor="middle" x="64" y="-37" font-family="Helvetica,sans-Serif" font-size="10.00">ChatGui.OnGetMessages</text>
</a>
</g>
</g>
<!-- Node2 -->
<g id="node2" class="node">
<title>Node2</title>
<g id="a_node2"><a xlink:href="class_chat_gui.xhtml#aa83d13b8a9345313627a401e3ec5a938" target="_top" xlink:title=" ">
<polygon fill="white" stroke="black" points="164,-30 164,-49 278,-49 278,-30 164,-30"/>
<text text-anchor="middle" x="221" y="-37" font-family="Helvetica,sans-Serif" font-size="10.00">ChatGui.ShowChannel</text>
</a>
</g>
</g>
<!-- Node1&#45;&gt;Node2 -->
<g id="edge1" class="edge">
<title>Node1&#45;&gt;Node2</title>
<path fill="none" stroke="midnightblue" d="M128.04,-39.5C136.51,-39.5 145.21,-39.5 153.72,-39.5"/>
<polygon fill="midnightblue" stroke="midnightblue" points="153.99,-43 163.99,-39.5 153.99,-36 153.99,-43"/>
</g>
<!-- Node3 -->
<g id="node3" class="node">
<title>Node3</title>
<g id="a_node3"><a xlink:href="class_photon_1_1_chat_1_1_chat_channel.xhtml#a9ff674eb16730b6b99234d887616feee" target="_top" xlink:title="Provides a string&#45;representation of all messages in this channel.">
<polygon fill="white" stroke="black" points="315.5,-49.5 315.5,-79.5 447.5,-79.5 447.5,-49.5 315.5,-49.5"/>
<text text-anchor="start" x="323.5" y="-67.5" font-family="Helvetica,sans-Serif" font-size="10.00">Photon.Chat.ChatChannel.</text>
<text text-anchor="middle" x="381.5" y="-56.5" font-family="Helvetica,sans-Serif" font-size="10.00">ToStringMessages</text>
</a>
</g>
</g>
<!-- Node2&#45;&gt;Node3 -->
<g id="edge2" class="edge">
<title>Node2&#45;&gt;Node3</title>
<path fill="none" stroke="midnightblue" d="M278.33,-48.38C287.15,-49.78 296.38,-51.23 305.54,-52.68"/>
<polygon fill="midnightblue" stroke="midnightblue" points="305.01,-56.14 315.43,-54.24 306.1,-49.22 305.01,-56.14"/>
</g>
<!-- Node4 -->
<g id="node4" class="node">
<title>Node4</title>
<g id="a_node4"><a xlink:href="class_photon_1_1_chat_1_1_chat_client.xhtml#a5dd578fb1b7cbbebcbe28a95187bb85e" target="_top" xlink:title="Simplified access to either private or public channels by name.">
<polygon fill="white" stroke="black" points="314,-0.5 314,-30.5 449,-30.5 449,-0.5 314,-0.5"/>
<text text-anchor="start" x="322" y="-18.5" font-family="Helvetica,sans-Serif" font-size="10.00">Photon.Chat.ChatClient.Try</text>
<text text-anchor="middle" x="381.5" y="-7.5" font-family="Helvetica,sans-Serif" font-size="10.00">GetChannel</text>
</a>
</g>
</g>
<!-- Node2&#45;&gt;Node4 -->
<g id="edge3" class="edge">
<title>Node2&#45;&gt;Node4</title>
<path fill="none" stroke="midnightblue" d="M278.33,-30.97C286.58,-29.72 295.19,-28.42 303.76,-27.12"/>
<polygon fill="midnightblue" stroke="midnightblue" points="304.42,-30.56 313.79,-25.6 303.37,-23.64 304.42,-30.56"/>
</g>
</g>
</svg>
