<?xml version="1.0" encoding="UTF-8" standalone="no"?>
<!DOCTYPE svg PUBLIC "-//W3C//DTD SVG 1.1//EN"
 "http://www.w3.org/Graphics/SVG/1.1/DTD/svg11.dtd">
<!-- Generated by graphviz version 2.47.3 (20210619.1520)
 -->
<!-- Title: Photon.Pun.PhotonTransformViewClassicEditor.DrawPropertyWithHelpIcon Pages: 1 -->
<svg width="788pt" height="213pt"
 viewBox="0.00 0.00 788.00 213.00" xmlns="http://www.w3.org/2000/svg" xmlns:xlink="http://www.w3.org/1999/xlink">
<g id="graph0" class="graph" transform="scale(1 1) rotate(0) translate(4 209)">
<title>Photon.Pun.PhotonTransformViewClassicEditor.DrawPropertyWithHelpIcon</title>
<polygon fill="white" stroke="transparent" points="-4,4 -4,-209 784,-209 784,4 -4,4"/>
<!-- Node1 -->
<g id="node1" class="node">
<title>Node1</title>
<g id="a_node1"><a xlink:title=" ">
<polygon fill="#bfbfbf" stroke="black" points="623,-78.5 623,-119.5 780,-119.5 780,-78.5 623,-78.5"/>
<text text-anchor="start" x="631" y="-107.5" font-family="Helvetica,sans-Serif" font-size="10.00">Photon.Pun.PhotonTransform</text>
<text text-anchor="start" x="631" y="-96.5" font-family="Helvetica,sans-Serif" font-size="10.00">ViewClassicEditor.DrawProperty</text>
<text text-anchor="middle" x="701.5" y="-85.5" font-family="Helvetica,sans-Serif" font-size="10.00">WithHelpIcon</text>
</a>
</g>
</g>
<!-- Node2 -->
<g id="node2" class="node">
<title>Node2</title>
<g id="a_node2"><a xlink:href="class_photon_1_1_pun_1_1_photon_transform_view_classic_editor.xhtml#acb274e9b4e39fc3a276e2f1d6333aa07" target="_top" xlink:title=" ">
<polygon fill="white" stroke="black" points="413,-163.5 413,-204.5 587,-204.5 587,-163.5 413,-163.5"/>
<text text-anchor="start" x="421" y="-192.5" font-family="Helvetica,sans-Serif" font-size="10.00">Photon.Pun.PhotonTransform</text>
<text text-anchor="start" x="421" y="-181.5" font-family="Helvetica,sans-Serif" font-size="10.00">ViewClassicEditor.DrawSynchronize</text>
<text text-anchor="middle" x="500" y="-170.5" font-family="Helvetica,sans-Serif" font-size="10.00">PositionDataExtrapolation</text>
</a>
</g>
</g>
<!-- Node1&#45;&gt;Node2 -->
<g id="edge1" class="edge">
<title>Node1&#45;&gt;Node2</title>
<path fill="none" stroke="midnightblue" d="M651.69,-124.19C631.85,-134.02 608.56,-145.05 587,-154 579.26,-157.21 571.04,-160.38 562.87,-163.39"/>
<polygon fill="midnightblue" stroke="midnightblue" points="653.45,-127.22 660.83,-119.62 650.32,-120.95 653.45,-127.22"/>
</g>
<!-- Node5 -->
<g id="node5" class="node">
<title>Node5</title>
<g id="a_node5"><a xlink:href="class_photon_1_1_pun_1_1_photon_transform_view_classic_editor.xhtml#a8e695ea2628ef1113a8ca49895a81c0c" target="_top" xlink:title=" ">
<polygon fill="white" stroke="black" points="413,-103.5 413,-144.5 587,-144.5 587,-103.5 413,-103.5"/>
<text text-anchor="start" x="421" y="-132.5" font-family="Helvetica,sans-Serif" font-size="10.00">Photon.Pun.PhotonTransform</text>
<text text-anchor="start" x="421" y="-121.5" font-family="Helvetica,sans-Serif" font-size="10.00">ViewClassicEditor.DrawSynchronize</text>
<text text-anchor="middle" x="500" y="-110.5" font-family="Helvetica,sans-Serif" font-size="10.00">PositionDataInterpolation</text>
</a>
</g>
</g>
<!-- Node1&#45;&gt;Node5 -->
<g id="edge4" class="edge">
<title>Node1&#45;&gt;Node5</title>
<path fill="none" stroke="midnightblue" d="M612.83,-109.99C604.29,-111.06 595.62,-112.14 587.09,-113.21"/>
<polygon fill="midnightblue" stroke="midnightblue" points="613.31,-113.45 622.8,-108.74 612.44,-106.51 613.31,-113.45"/>
</g>
<!-- Node6 -->
<g id="node6" class="node">
<title>Node6</title>
<g id="a_node6"><a xlink:href="class_photon_1_1_pun_1_1_photon_transform_view_classic_editor.xhtml#ac86d530120098e99ea03867c7fb27de9" target="_top" xlink:title=" ">
<polygon fill="white" stroke="black" points="203,-60.5 203,-101.5 377,-101.5 377,-60.5 203,-60.5"/>
<text text-anchor="start" x="211" y="-89.5" font-family="Helvetica,sans-Serif" font-size="10.00">Photon.Pun.PhotonTransform</text>
<text text-anchor="start" x="211" y="-78.5" font-family="Helvetica,sans-Serif" font-size="10.00">ViewClassicEditor.DrawSynchronize</text>
<text text-anchor="middle" x="290" y="-67.5" font-family="Helvetica,sans-Serif" font-size="10.00">RotationData</text>
</a>
</g>
</g>
<!-- Node1&#45;&gt;Node6 -->
<g id="edge6" class="edge">
<title>Node1&#45;&gt;Node6</title>
<path fill="none" stroke="midnightblue" d="M612.76,-95.13C604.06,-94.75 595.36,-94.37 587,-94 516.34,-90.89 436.19,-87.37 377.13,-84.78"/>
<polygon fill="midnightblue" stroke="midnightblue" points="612.82,-98.64 622.96,-95.58 613.12,-91.65 612.82,-98.64"/>
</g>
<!-- Node7 -->
<g id="node7" class="node">
<title>Node7</title>
<g id="a_node7"><a xlink:href="class_photon_1_1_pun_1_1_photon_transform_view_classic_editor.xhtml#ae3c22fd93640eb43de544c03e064766a" target="_top" xlink:title=" ">
<polygon fill="white" stroke="black" points="203,-0.5 203,-41.5 377,-41.5 377,-0.5 203,-0.5"/>
<text text-anchor="start" x="211" y="-29.5" font-family="Helvetica,sans-Serif" font-size="10.00">Photon.Pun.PhotonTransform</text>
<text text-anchor="start" x="211" y="-18.5" font-family="Helvetica,sans-Serif" font-size="10.00">ViewClassicEditor.DrawSynchronize</text>
<text text-anchor="middle" x="290" y="-7.5" font-family="Helvetica,sans-Serif" font-size="10.00">ScaleData</text>
</a>
</g>
</g>
<!-- Node1&#45;&gt;Node7 -->
<g id="edge8" class="edge">
<title>Node1&#45;&gt;Node7</title>
<path fill="none" stroke="midnightblue" d="M612.92,-82.32C543.25,-69.05 446.3,-50.58 377.04,-37.39"/>
<polygon fill="midnightblue" stroke="midnightblue" points="612.52,-85.8 622.99,-84.24 613.83,-78.93 612.52,-85.8"/>
</g>
<!-- Node3 -->
<g id="node3" class="node">
<title>Node3</title>
<g id="a_node3"><a xlink:href="class_photon_1_1_pun_1_1_photon_transform_view_classic_editor.xhtml#a5842c82125aae647ea8612030ac4444d" target="_top" xlink:title=" ">
<polygon fill="white" stroke="black" points="203,-120.5 203,-161.5 377,-161.5 377,-120.5 203,-120.5"/>
<text text-anchor="start" x="211" y="-149.5" font-family="Helvetica,sans-Serif" font-size="10.00">Photon.Pun.PhotonTransform</text>
<text text-anchor="start" x="211" y="-138.5" font-family="Helvetica,sans-Serif" font-size="10.00">ViewClassicEditor.DrawSynchronize</text>
<text text-anchor="middle" x="290" y="-127.5" font-family="Helvetica,sans-Serif" font-size="10.00">PositionData</text>
</a>
</g>
</g>
<!-- Node2&#45;&gt;Node3 -->
<g id="edge2" class="edge">
<title>Node2&#45;&gt;Node3</title>
<path fill="none" stroke="midnightblue" d="M402.84,-164.12C394.23,-162.34 385.55,-160.55 377.04,-158.79"/>
<polygon fill="midnightblue" stroke="midnightblue" points="402.4,-167.6 412.9,-166.2 403.81,-160.75 402.4,-167.6"/>
</g>
<!-- Node4 -->
<g id="node4" class="node">
<title>Node4</title>
<g id="a_node4"><a xlink:href="class_photon_1_1_pun_1_1_photon_transform_view_classic_editor.xhtml#a3c39c395b6e04811cb3a897cf02a5923" target="_top" xlink:title=" ">
<polygon fill="white" stroke="black" points="0,-66 0,-96 167,-96 167,-66 0,-66"/>
<text text-anchor="start" x="8" y="-84" font-family="Helvetica,sans-Serif" font-size="10.00">Photon.Pun.PhotonTransform</text>
<text text-anchor="middle" x="83.5" y="-73" font-family="Helvetica,sans-Serif" font-size="10.00">ViewClassicEditor.OnInspectorGUI</text>
</a>
</g>
</g>
<!-- Node3&#45;&gt;Node4 -->
<g id="edge3" class="edge">
<title>Node3&#45;&gt;Node4</title>
<path fill="none" stroke="midnightblue" d="M209.19,-117.58C184.51,-110.34 157.99,-102.56 135.78,-96.04"/>
<polygon fill="midnightblue" stroke="midnightblue" points="208.33,-120.98 218.91,-120.44 210.3,-114.26 208.33,-120.98"/>
</g>
<!-- Node5&#45;&gt;Node3 -->
<g id="edge5" class="edge">
<title>Node5&#45;&gt;Node3</title>
<path fill="none" stroke="midnightblue" d="M402.84,-131.86C394.23,-132.56 385.55,-133.27 377.04,-133.97"/>
<polygon fill="midnightblue" stroke="midnightblue" points="403.22,-135.34 412.9,-131.04 402.65,-128.36 403.22,-135.34"/>
</g>
<!-- Node6&#45;&gt;Node4 -->
<g id="edge7" class="edge">
<title>Node6&#45;&gt;Node4</title>
<path fill="none" stroke="midnightblue" d="M192.86,-81C184.31,-81 175.7,-81 167.27,-81"/>
<polygon fill="midnightblue" stroke="midnightblue" points="192.87,-84.5 202.87,-81 192.87,-77.5 192.87,-84.5"/>
</g>
<!-- Node7&#45;&gt;Node4 -->
<g id="edge9" class="edge">
<title>Node7&#45;&gt;Node4</title>
<path fill="none" stroke="midnightblue" d="M209.19,-44.42C184.51,-51.66 157.99,-59.44 135.78,-65.96"/>
<polygon fill="midnightblue" stroke="midnightblue" points="210.3,-47.74 218.91,-41.56 208.33,-41.02 210.3,-47.74"/>
</g>
</g>
</svg>
