<?xml version="1.0" encoding="UTF-8" standalone="no"?>
<!DOCTYPE svg PUBLIC "-//W3C//DTD SVG 1.1//EN"
 "http://www.w3.org/Graphics/SVG/1.1/DTD/svg11.dtd">
<!-- Generated by graphviz version 2.47.3 (20210619.1520)
 -->
<!-- Title: Photon.Pun.PhotonEditor.OnGUI Pages: 1 -->
<svg width="859pt" height="279pt"
 viewBox="0.00 0.00 859.00 279.32" xmlns="http://www.w3.org/2000/svg" xmlns:xlink="http://www.w3.org/1999/xlink">
<g id="graph0" class="graph" transform="scale(1 1) rotate(0) translate(4 275.32)">
<title>Photon.Pun.PhotonEditor.OnGUI</title>
<polygon fill="white" stroke="transparent" points="-4,4 -4,-275.32 855,-275.32 855,4 -4,4"/>
<!-- Node1 -->
<g id="node1" class="node">
<title>Node1</title>
<g id="a_node1"><a xlink:title=" ">
<polygon fill="#bfbfbf" stroke="black" points="0,-168.82 0,-198.82 130,-198.82 130,-168.82 0,-168.82"/>
<text text-anchor="start" x="8" y="-186.82" font-family="Helvetica,sans-Serif" font-size="10.00">Photon.Pun.PhotonEditor.</text>
<text text-anchor="middle" x="65" y="-175.82" font-family="Helvetica,sans-Serif" font-size="10.00">OnGUI</text>
</a>
</g>
</g>
<!-- Node2 -->
<g id="node2" class="node">
<title>Node2</title>
<g id="a_node2"><a xlink:href="class_photon_1_1_pun_1_1_photon_editor.xhtml#abe16b8195085be37d248e648bde9c8e1" target="_top" xlink:title=" ">
<polygon fill="white" stroke="black" points="166,-193.82 166,-223.82 296,-223.82 296,-193.82 166,-193.82"/>
<text text-anchor="start" x="174" y="-211.82" font-family="Helvetica,sans-Serif" font-size="10.00">Photon.Pun.PhotonEditor.</text>
<text text-anchor="middle" x="231" y="-200.82" font-family="Helvetica,sans-Serif" font-size="10.00">UiMainWizard</text>
</a>
</g>
</g>
<!-- Node1&#45;&gt;Node2 -->
<g id="edge1" class="edge">
<title>Node1&#45;&gt;Node2</title>
<path fill="none" stroke="midnightblue" d="M130.35,-193.63C138.73,-194.9 147.37,-196.22 155.9,-197.52"/>
<polygon fill="midnightblue" stroke="midnightblue" points="155.43,-200.99 165.84,-199.04 156.48,-194.07 155.43,-200.99"/>
</g>
<!-- Node5 -->
<g id="node5" class="node">
<title>Node5</title>
<g id="a_node5"><a xlink:href="class_photon_1_1_pun_1_1_photon_editor.xhtml#a4ccbec55036af587ae405f134b92e89c" target="_top" xlink:title=" ">
<polygon fill="white" stroke="black" points="166,-144.82 166,-174.82 296,-174.82 296,-144.82 166,-144.82"/>
<text text-anchor="start" x="174" y="-162.82" font-family="Helvetica,sans-Serif" font-size="10.00">Photon.Pun.PhotonEditor.</text>
<text text-anchor="middle" x="231" y="-151.82" font-family="Helvetica,sans-Serif" font-size="10.00">UiSetupApp</text>
</a>
</g>
</g>
<!-- Node1&#45;&gt;Node5 -->
<g id="edge4" class="edge">
<title>Node1&#45;&gt;Node5</title>
<path fill="none" stroke="midnightblue" d="M130.35,-174.4C138.73,-173.17 147.37,-171.91 155.9,-170.66"/>
<polygon fill="midnightblue" stroke="midnightblue" points="156.45,-174.12 165.84,-169.21 155.44,-167.19 156.45,-174.12"/>
</g>
<!-- Node3 -->
<g id="node3" class="node">
<title>Node3</title>
<g id="a_node3"><a xlink:href="class_photon_1_1_pun_1_1_photon_editor.xhtml#a8cbfa2aac08a2f9e10192255212b5227" target="_top" xlink:title=" ">
<polygon fill="white" stroke="black" points="335.5,-240.82 335.5,-270.82 465.5,-270.82 465.5,-240.82 335.5,-240.82"/>
<text text-anchor="start" x="343.5" y="-258.82" font-family="Helvetica,sans-Serif" font-size="10.00">Photon.Pun.PhotonEditor.</text>
<text text-anchor="middle" x="400.5" y="-247.82" font-family="Helvetica,sans-Serif" font-size="10.00">HighlightSettings</text>
</a>
</g>
</g>
<!-- Node2&#45;&gt;Node3 -->
<g id="edge2" class="edge">
<title>Node2&#45;&gt;Node3</title>
<path fill="none" stroke="midnightblue" d="M285.46,-223.82C301.63,-228.35 319.53,-233.38 336.27,-238.08"/>
<polygon fill="midnightblue" stroke="midnightblue" points="335.4,-241.47 345.97,-240.8 337.29,-234.73 335.4,-241.47"/>
</g>
<!-- Node4 -->
<g id="node4" class="node">
<title>Node4</title>
<g id="a_node4"><a xlink:href="class_photon_1_1_pun_1_1_photon_editor.xhtml#aeabec7a13ea885f2099f09d6798d17c7" target="_top" xlink:title=" ">
<polygon fill="white" stroke="black" points="335.5,-191.82 335.5,-221.82 465.5,-221.82 465.5,-191.82 335.5,-191.82"/>
<text text-anchor="start" x="343.5" y="-209.82" font-family="Helvetica,sans-Serif" font-size="10.00">Photon.Pun.PhotonEditor.</text>
<text text-anchor="middle" x="400.5" y="-198.82" font-family="Helvetica,sans-Serif" font-size="10.00">UiTitleBox</text>
</a>
</g>
</g>
<!-- Node2&#45;&gt;Node4 -->
<g id="edge3" class="edge">
<title>Node2&#45;&gt;Node4</title>
<path fill="none" stroke="midnightblue" d="M296.28,-208.05C305.8,-207.94 315.67,-207.82 325.37,-207.7"/>
<polygon fill="midnightblue" stroke="midnightblue" points="325.43,-211.2 335.39,-207.58 325.35,-204.2 325.43,-211.2"/>
</g>
<!-- Node5&#45;&gt;Node3 -->
<g id="edge5" class="edge">
<title>Node5&#45;&gt;Node3</title>
<path fill="none" stroke="midnightblue" d="M279.37,-174.88C285.24,-177.72 290.95,-181.02 296,-184.82 317.03,-200.63 310.73,-216.33 332,-231.82 333.88,-233.19 335.84,-234.48 337.87,-235.71"/>
<polygon fill="midnightblue" stroke="midnightblue" points="336.63,-239.01 347.09,-240.66 339.94,-232.85 336.63,-239.01"/>
</g>
<!-- Node5&#45;&gt;Node4 -->
<g id="edge16" class="edge">
<title>Node5&#45;&gt;Node4</title>
<path fill="none" stroke="midnightblue" d="M285.46,-174.82C301.63,-179.35 319.53,-184.38 336.27,-189.08"/>
<polygon fill="midnightblue" stroke="midnightblue" points="335.4,-192.47 345.97,-191.8 337.29,-185.73 335.4,-192.47"/>
</g>
<!-- Node6 -->
<g id="node6" class="node">
<title>Node6</title>
<g id="a_node6"><a xlink:href="class_photon_1_1_pun_1_1_server_settings.xhtml#ac96c99572f9b9c595510fbee9ed31469" target="_top" xlink:title="Checks if a string is a Guid by attempting to create one.">
<polygon fill="white" stroke="black" points="332,-65.82 332,-95.82 469,-95.82 469,-65.82 332,-65.82"/>
<text text-anchor="start" x="340" y="-83.82" font-family="Helvetica,sans-Serif" font-size="10.00">Photon.Pun.ServerSettings.</text>
<text text-anchor="middle" x="400.5" y="-72.82" font-family="Helvetica,sans-Serif" font-size="10.00">IsAppId</text>
</a>
</g>
</g>
<!-- Node5&#45;&gt;Node6 -->
<g id="edge6" class="edge">
<title>Node5&#45;&gt;Node6</title>
<path fill="none" stroke="midnightblue" d="M262.05,-144.73C281.84,-134.88 308.35,-121.86 332,-110.82 339.68,-107.23 347.9,-103.49 355.86,-99.93"/>
<polygon fill="midnightblue" stroke="midnightblue" points="357.34,-103.1 365.05,-95.83 354.49,-96.71 357.34,-103.1"/>
</g>
<!-- Node7 -->
<g id="node7" class="node">
<title>Node7</title>
<g id="a_node7"><a xlink:href="class_photon_1_1_pun_1_1_photon_editor.xhtml#a99bd344ea5aca58ba407c82fbbe7da62" target="_top" xlink:title=" ">
<polygon fill="white" stroke="black" points="335.5,-16.82 335.5,-46.82 465.5,-46.82 465.5,-16.82 335.5,-16.82"/>
<text text-anchor="start" x="343.5" y="-34.82" font-family="Helvetica,sans-Serif" font-size="10.00">Photon.Pun.PhotonEditor.</text>
<text text-anchor="middle" x="400.5" y="-23.82" font-family="Helvetica,sans-Serif" font-size="10.00">RegisterWithEmail</text>
</a>
</g>
</g>
<!-- Node5&#45;&gt;Node7 -->
<g id="edge7" class="edge">
<title>Node5&#45;&gt;Node7</title>
<path fill="none" stroke="midnightblue" d="M242.91,-144.6C259.69,-122.22 293.91,-80.41 332,-55.82 334.45,-54.24 337.02,-52.74 339.66,-51.34"/>
<polygon fill="midnightblue" stroke="midnightblue" points="341.39,-54.38 348.87,-46.88 338.34,-48.08 341.39,-54.38"/>
</g>
<!-- Node11 -->
<g id="node11" class="node">
<title>Node11</title>
<g id="a_node11"><a xlink:href="class_photon_1_1_pun_1_1_photon_editor.xhtml#ae12c66548a6dcbd0e1633c824cc64a67" target="_top" xlink:title=" ">
<polygon fill="white" stroke="black" points="717.5,-138.82 717.5,-168.82 847.5,-168.82 847.5,-138.82 717.5,-138.82"/>
<text text-anchor="start" x="725.5" y="-156.82" font-family="Helvetica,sans-Serif" font-size="10.00">Photon.Pun.PhotonEditor.</text>
<text text-anchor="middle" x="782.5" y="-145.82" font-family="Helvetica,sans-Serif" font-size="10.00">SaveSettings</text>
</a>
</g>
</g>
<!-- Node5&#45;&gt;Node11 -->
<g id="edge15" class="edge">
<title>Node5&#45;&gt;Node11</title>
<path fill="none" stroke="midnightblue" d="M296.11,-159.12C398.55,-158 598.61,-155.81 707.16,-154.63"/>
<polygon fill="midnightblue" stroke="midnightblue" points="707.41,-158.13 717.37,-154.52 707.34,-151.13 707.41,-158.13"/>
</g>
<!-- Node12 -->
<g id="node12" class="node">
<title>Node12</title>
<g id="a_node12"><a xlink:href="class_photon_1_1_pun_1_1_server_settings.xhtml#a76a0d8344cc3fcc39e47bd1550a27fdb" target="_top" xlink:title="Sets appid and region code in the AppSettings. Used in Editor.">
<polygon fill="white" stroke="black" points="714,-81.82 714,-111.82 851,-111.82 851,-81.82 714,-81.82"/>
<text text-anchor="start" x="722" y="-99.82" font-family="Helvetica,sans-Serif" font-size="10.00">Photon.Pun.ServerSettings.</text>
<text text-anchor="middle" x="782.5" y="-88.82" font-family="Helvetica,sans-Serif" font-size="10.00">UseCloud</text>
</a>
</g>
</g>
<!-- Node5&#45;&gt;Node12 -->
<g id="edge17" class="edge">
<title>Node5&#45;&gt;Node12</title>
<path fill="none" stroke="midnightblue" d="M296.11,-152.47C397.55,-140.84 594.74,-118.23 703.97,-105.71"/>
<polygon fill="midnightblue" stroke="midnightblue" points="704.4,-109.18 713.94,-104.56 703.61,-102.23 704.4,-109.18"/>
</g>
<!-- Node8 -->
<g id="node8" class="node">
<title>Node8</title>
<g id="a_node8"><a xlink:href="class_photon_1_1_pun_1_1_photon_editor.xhtml#ac35d650dc27236224e5f8b35394d143a" target="_top" xlink:title=" ">
<polygon fill="white" stroke="black" points="717.5,-16.82 717.5,-46.82 847.5,-46.82 847.5,-16.82 717.5,-16.82"/>
<text text-anchor="start" x="725.5" y="-34.82" font-family="Helvetica,sans-Serif" font-size="10.00">Photon.Pun.PhotonEditor.</text>
<text text-anchor="middle" x="782.5" y="-23.82" font-family="Helvetica,sans-Serif" font-size="10.00">DisplayErrorMessage</text>
</a>
</g>
</g>
<!-- Node7&#45;&gt;Node8 -->
<g id="edge8" class="edge">
<title>Node7&#45;&gt;Node8</title>
<path fill="none" stroke="midnightblue" d="M453.18,-16.79C469.6,-12.71 487.93,-8.85 505,-6.82 581.35,2.27 601.65,2.27 678,-6.82 691.74,-8.45 706.29,-11.27 720,-14.44"/>
<polygon fill="midnightblue" stroke="midnightblue" points="719.27,-17.86 729.82,-16.79 720.91,-11.05 719.27,-17.86"/>
</g>
<!-- Node9 -->
<g id="node9" class="node">
<title>Node9</title>
<g id="a_node9"><a xlink:href="class_photon_1_1_pun_1_1_photon_editor.xhtml#ac07287a770388bd30d8da090375bed4c" target="_top" xlink:title=" ">
<polygon fill="white" stroke="black" points="513.5,-16.82 513.5,-46.82 669.5,-46.82 669.5,-16.82 513.5,-16.82"/>
<text text-anchor="start" x="521.5" y="-34.82" font-family="Helvetica,sans-Serif" font-size="10.00">Photon.Pun.PhotonEditor.</text>
<text text-anchor="middle" x="591.5" y="-23.82" font-family="Helvetica,sans-Serif" font-size="10.00">RegisterWithEmailErrorCallback</text>
</a>
</g>
</g>
<!-- Node7&#45;&gt;Node9 -->
<g id="edge9" class="edge">
<title>Node7&#45;&gt;Node9</title>
<path fill="none" stroke="midnightblue" d="M465.75,-31.82C477.83,-31.82 490.64,-31.82 503.27,-31.82"/>
<polygon fill="midnightblue" stroke="midnightblue" points="503.35,-35.32 513.35,-31.82 503.35,-28.32 503.35,-35.32"/>
</g>
<!-- Node10 -->
<g id="node10" class="node">
<title>Node10</title>
<g id="a_node10"><a xlink:href="class_photon_1_1_pun_1_1_photon_editor.xhtml#ab0369cb6bade59d45e7f48a327d01998" target="_top" xlink:title=" ">
<polygon fill="white" stroke="black" points="505,-65.82 505,-95.82 678,-95.82 678,-65.82 505,-65.82"/>
<text text-anchor="start" x="513" y="-83.82" font-family="Helvetica,sans-Serif" font-size="10.00">Photon.Pun.PhotonEditor.</text>
<text text-anchor="middle" x="591.5" y="-72.82" font-family="Helvetica,sans-Serif" font-size="10.00">RegisterWithEmailSuccessCallback</text>
</a>
</g>
</g>
<!-- Node7&#45;&gt;Node10 -->
<g id="edge11" class="edge">
<title>Node7&#45;&gt;Node10</title>
<path fill="none" stroke="midnightblue" d="M459.49,-46.85C479.54,-52.05 502.17,-57.92 522.92,-63.3"/>
<polygon fill="midnightblue" stroke="midnightblue" points="522.06,-66.69 532.62,-65.81 523.82,-59.91 522.06,-66.69"/>
</g>
<!-- Node9&#45;&gt;Node8 -->
<g id="edge10" class="edge">
<title>Node9&#45;&gt;Node8</title>
<path fill="none" stroke="midnightblue" d="M669.65,-31.82C682.01,-31.82 694.78,-31.82 707.07,-31.82"/>
<polygon fill="midnightblue" stroke="midnightblue" points="707.27,-35.32 717.27,-31.82 707.27,-28.32 707.27,-35.32"/>
</g>
<!-- Node10&#45;&gt;Node8 -->
<g id="edge12" class="edge">
<title>Node10&#45;&gt;Node8</title>
<path fill="none" stroke="midnightblue" d="M650.49,-65.78C670.54,-60.59 693.17,-54.72 713.92,-49.34"/>
<polygon fill="midnightblue" stroke="midnightblue" points="714.82,-52.72 723.62,-46.82 713.06,-45.95 714.82,-52.72"/>
</g>
<!-- Node10&#45;&gt;Node11 -->
<g id="edge13" class="edge">
<title>Node10&#45;&gt;Node11</title>
<path fill="none" stroke="midnightblue" d="M631.66,-95.94C661.06,-107.3 701.48,-122.91 732.94,-135.06"/>
<polygon fill="midnightblue" stroke="midnightblue" points="731.8,-138.37 742.39,-138.71 734.32,-131.84 731.8,-138.37"/>
</g>
<!-- Node10&#45;&gt;Node12 -->
<g id="edge14" class="edge">
<title>Node10&#45;&gt;Node12</title>
<path fill="none" stroke="midnightblue" d="M678.15,-88.07C686.69,-88.79 695.33,-89.52 703.78,-90.24"/>
<polygon fill="midnightblue" stroke="midnightblue" points="703.72,-93.75 713.98,-91.1 704.31,-86.77 703.72,-93.75"/>
</g>
</g>
</svg>
