<?xml version="1.0" encoding="UTF-8" standalone="no"?>
<!DOCTYPE svg PUBLIC "-//W3C//DTD SVG 1.1//EN"
 "http://www.w3.org/Graphics/SVG/1.1/DTD/svg11.dtd">
<!-- Generated by graphviz version 2.47.3 (20210619.1520)
 -->
<!-- Title: Ability Pages: 1 -->
<svg width="453pt" height="196pt"
 viewBox="0.00 0.00 452.50 196.00" xmlns="http://www.w3.org/2000/svg" xmlns:xlink="http://www.w3.org/1999/xlink">
<g id="graph0" class="graph" transform="scale(1 1) rotate(0) translate(4 192)">
<title>Ability</title>
<polygon fill="white" stroke="transparent" points="-4,4 -4,-192 448.5,-192 448.5,4 -4,4"/>
<!-- Node1 -->
<g id="node1" class="node">
<title>Node1</title>
<g id="a_node1"><a xlink:title=" ">
<polygon fill="#bfbfbf" stroke="black" points="234.5,-112.5 234.5,-131.5 278.5,-131.5 278.5,-112.5 234.5,-112.5"/>
<text text-anchor="middle" x="256.5" y="-119.5" font-family="Helvetica,sans-Serif" font-size="10.00">Ability</text>
</a>
</g>
</g>
<!-- Node3 -->
<g id="node3" class="node">
<title>Node3</title>
<g id="a_node3"><a xlink:href="class_indicated_ability.xhtml" target="_top" xlink:title="Encapsulador de les Ability que han de mostrar l&#39;indicador">
<polygon fill="white" stroke="black" points="160,-56.5 160,-75.5 243,-75.5 243,-56.5 160,-56.5"/>
<text text-anchor="middle" x="201.5" y="-63.5" font-family="Helvetica,sans-Serif" font-size="10.00">IndicatedAbility</text>
</a>
</g>
</g>
<!-- Node1&#45;&gt;Node3 -->
<g id="edge2" class="edge">
<title>Node1&#45;&gt;Node3</title>
<path fill="none" stroke="midnightblue" d="M240.21,-105C230.46,-95.43 218.45,-83.64 210.41,-75.75"/>
<polygon fill="midnightblue" stroke="midnightblue" points="237.83,-107.57 247.42,-112.08 242.73,-102.58 237.83,-107.57"/>
</g>
<!-- Node7 -->
<g id="node7" class="node">
<title>Node7</title>
<g id="a_node7"><a xlink:href="class_non_indicated_ability.xhtml" target="_top" xlink:title="Encapsulador de les Ability que NO han de mostrar cap indicador.">
<polygon fill="white" stroke="black" points="300.5,-56.5 300.5,-75.5 400.5,-75.5 400.5,-56.5 300.5,-56.5"/>
<text text-anchor="middle" x="350.5" y="-63.5" font-family="Helvetica,sans-Serif" font-size="10.00">NonIndicatedAbility</text>
</a>
</g>
</g>
<!-- Node1&#45;&gt;Node7 -->
<g id="edge6" class="edge">
<title>Node1&#45;&gt;Node7</title>
<path fill="none" stroke="midnightblue" d="M280.56,-107.18C297.86,-97.24 320.65,-84.15 335.43,-75.65"/>
<polygon fill="midnightblue" stroke="midnightblue" points="278.53,-104.31 271.6,-112.32 282.02,-110.38 278.53,-104.31"/>
</g>
<!-- Node2 -->
<g id="node2" class="node">
<title>Node2</title>
<g id="a_node2"><a xlink:title=" ">
<polygon fill="white" stroke="#bfbfbf" points="212,-168.5 212,-187.5 301,-187.5 301,-168.5 212,-168.5"/>
<text text-anchor="middle" x="256.5" y="-175.5" font-family="Helvetica,sans-Serif" font-size="10.00">ScriptableObject</text>
</a>
</g>
</g>
<!-- Node2&#45;&gt;Node1 -->
<g id="edge1" class="edge">
<title>Node2&#45;&gt;Node1</title>
<path fill="none" stroke="midnightblue" d="M256.5,-157.8C256.5,-148.91 256.5,-138.78 256.5,-131.75"/>
<polygon fill="midnightblue" stroke="midnightblue" points="253,-158.08 256.5,-168.08 260,-158.08 253,-158.08"/>
</g>
<!-- Node4 -->
<g id="node4" class="node">
<title>Node4</title>
<g id="a_node4"><a xlink:href="class_ability___dash.xhtml" target="_top" xlink:title=" ">
<polygon fill="white" stroke="black" points="0,-0.5 0,-19.5 71,-19.5 71,-0.5 0,-0.5"/>
<text text-anchor="middle" x="35.5" y="-7.5" font-family="Helvetica,sans-Serif" font-size="10.00">Ability_Dash</text>
</a>
</g>
</g>
<!-- Node3&#45;&gt;Node4 -->
<g id="edge3" class="edge">
<title>Node3&#45;&gt;Node4</title>
<path fill="none" stroke="midnightblue" d="M165.55,-53.3C134.27,-43.13 89.68,-28.62 61.68,-19.52"/>
<polygon fill="midnightblue" stroke="midnightblue" points="164.6,-56.68 175.2,-56.44 166.77,-50.02 164.6,-56.68"/>
</g>
<!-- Node5 -->
<g id="node5" class="node">
<title>Node5</title>
<g id="a_node5"><a xlink:href="class_ability___instanciable.xhtml" target="_top" xlink:title=" ">
<polygon fill="white" stroke="black" points="89,-0.5 89,-19.5 190,-19.5 190,-0.5 89,-0.5"/>
<text text-anchor="middle" x="139.5" y="-7.5" font-family="Helvetica,sans-Serif" font-size="10.00">Ability_Instanciable</text>
</a>
</g>
</g>
<!-- Node3&#45;&gt;Node5 -->
<g id="edge4" class="edge">
<title>Node3&#45;&gt;Node5</title>
<path fill="none" stroke="midnightblue" d="M183.75,-49.54C172.69,-39.91 158.87,-27.87 149.64,-19.83"/>
<polygon fill="midnightblue" stroke="midnightblue" points="181.7,-52.4 191.54,-56.32 186.3,-47.12 181.7,-52.4"/>
</g>
<!-- Node6 -->
<g id="node6" class="node">
<title>Node6</title>
<g id="a_node6"><a xlink:href="class_ability___player_relative.xhtml" target="_top" xlink:title=" ">
<polygon fill="white" stroke="black" points="208.5,-0.5 208.5,-19.5 318.5,-19.5 318.5,-0.5 208.5,-0.5"/>
<text text-anchor="middle" x="263.5" y="-7.5" font-family="Helvetica,sans-Serif" font-size="10.00">Ability_PlayerRelative</text>
</a>
</g>
</g>
<!-- Node3&#45;&gt;Node6 -->
<g id="edge5" class="edge">
<title>Node3&#45;&gt;Node6</title>
<path fill="none" stroke="midnightblue" d="M219.25,-49.54C230.31,-39.91 244.13,-27.87 253.36,-19.83"/>
<polygon fill="midnightblue" stroke="midnightblue" points="216.7,-47.12 211.46,-56.32 221.3,-52.4 216.7,-47.12"/>
</g>
<!-- Node8 -->
<g id="node8" class="node">
<title>Node8</title>
<g id="a_node8"><a xlink:href="class_ability___stats_changer.xhtml" target="_top" xlink:title=" ">
<polygon fill="white" stroke="black" points="336.5,-0.5 336.5,-19.5 444.5,-19.5 444.5,-0.5 336.5,-0.5"/>
<text text-anchor="middle" x="390.5" y="-7.5" font-family="Helvetica,sans-Serif" font-size="10.00">Ability_StatsChanger</text>
</a>
</g>
</g>
<!-- Node7&#45;&gt;Node8 -->
<g id="edge7" class="edge">
<title>Node7&#45;&gt;Node8</title>
<path fill="none" stroke="midnightblue" d="M363.2,-47.86C370.13,-38.5 378.41,-27.33 384.02,-19.75"/>
<polygon fill="midnightblue" stroke="midnightblue" points="360.25,-45.96 357.11,-56.08 365.87,-50.13 360.25,-45.96"/>
</g>
</g>
</svg>
