<?xml version="1.0" encoding="UTF-8" standalone="no"?>
<!DOCTYPE svg PUBLIC "-//W3C//DTD SVG 1.1//EN"
 "http://www.w3.org/Graphics/SVG/1.1/DTD/svg11.dtd">
<!-- Generated by graphviz version 2.47.3 (20210619.1520)
 -->
<!-- Title: TurretShooter.OnTriggerEnter Pages: 1 -->
<!--zoomable 142 -->
<svg id="main" version="1.1" xmlns="http://www.w3.org/2000/svg" xmlns:xlink="http://www.w3.org/1999/xlink" xml:space="preserve" onload="init(evt)">
<style type="text/css"><![CDATA[
.edge:hover path { stroke: red; }
.edge:hover polygon { stroke: red; fill: red; }
]]></style>
<script type="text/javascript"><![CDATA[
var edges = document.getElementsByTagName('g');
if (edges && edges.length) {
  for (var i=0;i<edges.length;i++) {
    if (edges[i].id.substr(0,4)=='edge') {
      edges[i].setAttribute('class','edge');
    }
  }
}
]]></script>
        <defs>
                <circle id="rim" cx="0" cy="0" r="7"/>
                <circle id="rim2" cx="0" cy="0" r="3.5"/>
                <g id="zoomPlus">
                        <use xlink:href="#rim" fill="#404040">
                                <set attributeName="fill" to="#808080" begin="zoomplus.mouseover" end="zoomplus.mouseout"/>
                        </use>
                        <path d="M-4,0h8M0,-4v8" fill="none" stroke="white" stroke-width="1.5" pointer-events="none"/>
                </g>
                <g id="zoomMin">
                        <use xlink:href="#rim" fill="#404040">
                                <set attributeName="fill" to="#808080" begin="zoomminus.mouseover" end="zoomminus.mouseout"/>
                        </use>
                        <path d="M-4,0h8" fill="none" stroke="white" stroke-width="1.5" pointer-events="none"/>
                </g>
                <g id="dirArrow">
                        <path fill="none" stroke="white" stroke-width="1.5" d="M0,-3.0v7 M-2.5,-0.5L0,-3.0L2.5,-0.5"/>
                </g>
               <g id="resetDef">
                       <use xlink:href="#rim2" fill="#404040">
                               <set attributeName="fill" to="#808080" begin="reset.mouseover" end="reset.mouseout"/>
                       </use>
               </g>
        </defs>

<script type="text/javascript">
var viewWidth = 823;
var viewHeight = 142;
var sectionId = 'dynsection-8';
</script>
<script xlink:href="svgpan.js"/>
<svg id="graph" class="graph">
<g id="viewport">
<title>TurretShooter.OnTriggerEnter</title>
<!-- Node1 -->
<g id="node1" class="node">
<title>Node1</title>
<g id="a_node1"><a xlink:title=" ">
<polygon fill="#bfbfbf" stroke="black" points="0,-76.5 0,-95.5 143,-95.5 143,-76.5 0,-76.5"/>
<text text-anchor="middle" x="71.5" y="-83.5" font-family="Helvetica,sans-Serif" font-size="10.00">TurretShooter.OnTriggerEnter</text>
</a>
</g>
</g>
<!-- Node2 -->
<g id="node2" class="node">
<title>Node2</title>
<g id="a_node2"><a xlink:href="class_turret_shooter.html#a94f71f9418731d9f066ea45766fef5ae" target="_top" xlink:title="When an Attackable entity enters the range trigger, it gets added to the corresponding list depending...">
<polygon fill="none" stroke="black" points="179.5,-114.5 179.5,-133.5 305.5,-133.5 305.5,-114.5 179.5,-114.5"/>
<text text-anchor="middle" x="242.5" y="-121.5" font-family="Helvetica,sans-Serif" font-size="10.00">TurretShooter.AddEnemy</text>
</a>
</g>
</g>
<!-- Node1&#45;&gt;Node2 -->
<g id="edge1" class="edge">
<title>Node1&#45;&gt;Node2</title>
<path fill="none" stroke="midnightblue" d="M115.15,-95.59C137.65,-100.65 165.45,-106.9 189.24,-112.25"/>
<polygon fill="midnightblue" stroke="midnightblue" points="188.64,-115.7 199.16,-114.48 190.17,-108.87 188.64,-115.7"/>
</g>
<!-- Node3 -->
<g id="node3" class="node">
<title>Node3</title>
<g id="a_node3"><a xlink:href="class_turret_shooter.html#a3b5b505f7ae60b8770a992a332e3bd7c" target="_top" xlink:title="Returns if the turret is currently attacking any entity.">
<polygon fill="none" stroke="black" points="179,-76.5 179,-95.5 306,-95.5 306,-76.5 179,-76.5"/>
<text text-anchor="middle" x="242.5" y="-83.5" font-family="Helvetica,sans-Serif" font-size="10.00">TurretShooter.IsAttacking</text>
</a>
</g>
</g>
<!-- Node1&#45;&gt;Node3 -->
<g id="edge2" class="edge">
<title>Node1&#45;&gt;Node3</title>
<path fill="none" stroke="midnightblue" d="M143.19,-86C151.62,-86 160.23,-86 168.68,-86"/>
<polygon fill="midnightblue" stroke="midnightblue" points="168.89,-89.5 178.89,-86 168.89,-82.5 168.89,-89.5"/>
</g>
<!-- Node4 -->
<g id="node4" class="node">
<title>Node4</title>
<g id="a_node4"><a xlink:href="class_turret_shooter.html#abdbfe8d7746ee1e665f8da7e1a423bf7" target="_top" xlink:title=" ">
<polygon fill="none" stroke="black" points="190.5,-38.5 190.5,-57.5 294.5,-57.5 294.5,-38.5 190.5,-38.5"/>
<text text-anchor="middle" x="242.5" y="-45.5" font-family="Helvetica,sans-Serif" font-size="10.00">TurretShooter.Shoot</text>
</a>
</g>
</g>
<!-- Node1&#45;&gt;Node4 -->
<g id="edge3" class="edge">
<title>Node1&#45;&gt;Node4</title>
<path fill="none" stroke="midnightblue" d="M115.15,-76.41C137.65,-71.35 165.45,-65.1 189.24,-59.75"/>
<polygon fill="midnightblue" stroke="midnightblue" points="190.17,-63.13 199.16,-57.52 188.64,-56.3 190.17,-63.13"/>
</g>
<!-- Node5 -->
<g id="node5" class="node">
<title>Node5</title>
<g id="a_node5"><a xlink:href="class_turret_shooter.html#a8be25a5629564093b66ab8d2b42692cc" target="_top" xlink:title=" ">
<polygon fill="none" stroke="black" points="342,-33 342,-63 469,-63 469,-33 342,-33"/>
<text text-anchor="start" x="350" y="-51" font-family="Helvetica,sans-Serif" font-size="10.00">TurretShooter.AttackWith</text>
<text text-anchor="middle" x="405.5" y="-40" font-family="Helvetica,sans-Serif" font-size="10.00">Priority</text>
</a>
</g>
</g>
<!-- Node4&#45;&gt;Node5 -->
<g id="edge4" class="edge">
<title>Node4&#45;&gt;Node5</title>
<path fill="none" stroke="midnightblue" d="M294.88,-48C306.53,-48 319.12,-48 331.47,-48"/>
<polygon fill="midnightblue" stroke="midnightblue" points="331.76,-51.5 341.76,-48 331.76,-44.5 331.76,-51.5"/>
</g>
<!-- Node6 -->
<g id="node6" class="node">
<title>Node6</title>
<g id="a_node6"><a xlink:href="class_turret_shooter.html#af4787c8905eb7428580b784b1cb1ffed" target="_top" xlink:title="Returns true if the turret is attacking the local player right now.">
<polygon fill="none" stroke="black" points="515,-76.5 515,-95.5 650,-95.5 650,-76.5 515,-76.5"/>
<text text-anchor="middle" x="582.5" y="-83.5" font-family="Helvetica,sans-Serif" font-size="10.00">TurretShooter.AttacksLocal</text>
</a>
</g>
</g>
<!-- Node5&#45;&gt;Node6 -->
<g id="edge5" class="edge">
<title>Node5&#45;&gt;Node6</title>
<path fill="none" stroke="midnightblue" d="M469.18,-61.61C488.3,-65.76 509.14,-70.29 527.62,-74.3"/>
<polygon fill="midnightblue" stroke="midnightblue" points="527.1,-77.77 537.61,-76.47 528.58,-70.93 527.1,-77.77"/>
</g>
<!-- Node7 -->
<g id="node7" class="node">
<title>Node7</title>
<g id="a_node7"><a xlink:href="class_turret_indicator.html#af9280d63c24d0703a0d072d1a72d47bb" target="_top" xlink:title="This function gets calls whenever the Turret changes the intern state.">
<polygon fill="none" stroke="black" points="505,-38.5 505,-57.5 660,-57.5 660,-38.5 505,-38.5"/>
<text text-anchor="middle" x="582.5" y="-45.5" font-family="Helvetica,sans-Serif" font-size="10.00">TurretIndicator.OnStateChanged</text>
</a>
</g>
</g>
<!-- Node5&#45;&gt;Node7 -->
<g id="edge6" class="edge">
<title>Node5&#45;&gt;Node7</title>
<path fill="none" stroke="midnightblue" d="M469.18,-48C477.5,-48 486.15,-48 494.78,-48"/>
<polygon fill="midnightblue" stroke="midnightblue" points="494.89,-51.5 504.89,-48 494.89,-44.5 494.89,-51.5"/>
</g>
<!-- Node9 -->
<g id="node9" class="node">
<title>Node9</title>
<g id="a_node9"><a xlink:href="class_ranged_attack_follow.html#a4552d59821a468e45dbcb0dd3d30db48" target="_top" xlink:title=" ">
<polygon fill="none" stroke="black" points="507,-0.5 507,-19.5 658,-19.5 658,-0.5 507,-0.5"/>
<text text-anchor="middle" x="582.5" y="-7.5" font-family="Helvetica,sans-Serif" font-size="10.00">RangedAttackFollow.SetTarget</text>
</a>
</g>
</g>
<!-- Node5&#45;&gt;Node9 -->
<g id="edge8" class="edge">
<title>Node5&#45;&gt;Node9</title>
<path fill="none" stroke="midnightblue" d="M469.18,-34.39C488.3,-30.24 509.14,-25.71 527.62,-21.7"/>
<polygon fill="midnightblue" stroke="midnightblue" points="528.58,-25.07 537.61,-19.53 527.1,-18.23 528.58,-25.07"/>
</g>
<!-- Node8 -->
<g id="node8" class="node">
<title>Node8</title>
<g id="a_node8"><a xlink:href="class_turret_indicator.html#a4ce9f7929435b6d9ba46c4fd34d67f50" target="_top" xlink:title="Returns the color corresponing to the current State of the indicator">
<polygon fill="none" stroke="black" points="696,-33 696,-63 815,-63 815,-33 696,-33"/>
<text text-anchor="start" x="704" y="-51" font-family="Helvetica,sans-Serif" font-size="10.00">TurretIndicator.GetColor</text>
<text text-anchor="middle" x="755.5" y="-40" font-family="Helvetica,sans-Serif" font-size="10.00">FromState</text>
</a>
</g>
</g>
<!-- Node7&#45;&gt;Node8 -->
<g id="edge7" class="edge">
<title>Node7&#45;&gt;Node8</title>
<path fill="none" stroke="midnightblue" d="M660.5,-48C668.94,-48 677.5,-48 685.83,-48"/>
<polygon fill="midnightblue" stroke="midnightblue" points="685.87,-51.5 695.87,-48 685.87,-44.5 685.87,-51.5"/>
</g>
</g>
</svg>
        <g id="navigator" transform="translate(0 0)" fill="#404254">
                <rect fill="#f2f5e9" fill-opacity="0.5" stroke="#606060" stroke-width=".5" x="0" y="0" width="60" height="60"/>
                <use id="zoomplus" xlink:href="#zoomPlus" x="17" y="9" onmousedown="handleZoom(evt,'in')"/>
                <use id="zoomminus" xlink:href="#zoomMin" x="42" y="9" onmousedown="handleZoom(evt,'out')"/>
                <use id="reset" xlink:href="#resetDef" x="30" y="36" onmousedown="handleReset()"/>
                <g id="arrowUp" xlink:href="#dirArrow" transform="translate(30 24)" onmousedown="handlePan(0,-1)">
                  <use xlink:href="#rim" fill="#404040">
                        <set attributeName="fill" to="#808080" begin="arrowUp.mouseover" end="arrowUp.mouseout"/>
                  </use>
                  <path fill="none" stroke="white" stroke-width="1.5" d="M0,-3.0v7 M-2.5,-0.5L0,-3.0L2.5,-0.5"/>
                </g>
                <g id="arrowRight" xlink:href="#dirArrow" transform="rotate(90) translate(36 -43)" onmousedown="handlePan(1,0)">
                  <use xlink:href="#rim" fill="#404040">
                        <set attributeName="fill" to="#808080" begin="arrowRight.mouseover" end="arrowRight.mouseout"/>
                  </use>
                  <path fill="none" stroke="white" stroke-width="1.5" d="M0,-3.0v7 M-2.5,-0.5L0,-3.0L2.5,-0.5"/>
                </g>
                <g id="arrowDown" xlink:href="#dirArrow" transform="rotate(180) translate(-30 -48)" onmousedown="handlePan(0,1)">
                  <use xlink:href="#rim" fill="#404040">
                        <set attributeName="fill" to="#808080" begin="arrowDown.mouseover" end="arrowDown.mouseout"/>
                  </use>
                  <path fill="none" stroke="white" stroke-width="1.5" d="M0,-3.0v7 M-2.5,-0.5L0,-3.0L2.5,-0.5"/>
                </g>
                <g id="arrowLeft" xlink:href="#dirArrow" transform="rotate(270) translate(-36 17)" onmousedown="handlePan(-1,0)">
                  <use xlink:href="#rim" fill="#404040">
                        <set attributeName="fill" to="#808080" begin="arrowLeft.mouseover" end="arrowLeft.mouseout"/>
                  </use>
                  <path fill="none" stroke="white" stroke-width="1.5" d="M0,-3.0v7 M-2.5,-0.5L0,-3.0L2.5,-0.5"/>
                </g>
        </g>
        <svg viewBox="0 0 15 15" width="100%" height="30px" preserveAspectRatio="xMaxYMin meet">
         <g id="arrow_out" transform="scale(0.3 0.3)">
          <a xlink:href="class_turret_shooter_ac92c11affc1a61877bda45f9cedf9fe2_cgraph_org.svg" target="_base">
           <rect id="button" ry="5" rx="5" y="6" x="6" height="38" width="38"
                fill="#f2f5e9" fill-opacity="0.5" stroke="#606060" stroke-width="1.0"/>
           <path id="arrow"
             d="M 11.500037,31.436501 C 11.940474,20.09759 22.043105,11.32322 32.158766,21.979434 L 37.068811,17.246167 C 37.068811,17.246167 37.088388,32 37.088388,32 L 22.160133,31.978069 C 22.160133,31.978069 26.997745,27.140456 26.997745,27.140456 C 18.528582,18.264221 13.291696,25.230495 11.500037,31.436501 z"
             style="fill:#404040;"/>
          </a>
         </g>
        </svg>
</svg>
