<?xml version="1.0" encoding="UTF-8" standalone="no"?>
<!DOCTYPE svg PUBLIC "-//W3C//DTD SVG 1.1//EN"
 "http://www.w3.org/Graphics/SVG/1.1/DTD/svg11.dtd">
<!-- Generated by graphviz version 2.47.3 (20210619.1520)
 -->
<!-- Title: Photon.Pun.UtilityScripts.PhotonLagSimulationGui.NetSimHasNoPeerWindow Pages: 1 -->
<svg width="376pt" height="50pt"
 viewBox="0.00 0.00 376.00 50.00" xmlns="http://www.w3.org/2000/svg" xmlns:xlink="http://www.w3.org/1999/xlink">
<g id="graph0" class="graph" transform="scale(1 1) rotate(0) translate(4 46)">
<title>Photon.Pun.UtilityScripts.PhotonLagSimulationGui.NetSimHasNoPeerWindow</title>
<polygon fill="white" stroke="transparent" points="-4,4 -4,-46 372,-46 372,4 -4,4"/>
<!-- Node1 -->
<g id="node1" class="node">
<title>Node1</title>
<g id="a_node1"><a xlink:title=" ">
<polygon fill="#bfbfbf" stroke="black" points="192,-0.5 192,-41.5 368,-41.5 368,-0.5 192,-0.5"/>
<text text-anchor="start" x="200" y="-29.5" font-family="Helvetica,sans-Serif" font-size="10.00">Photon.Pun.UtilityScripts.</text>
<text text-anchor="start" x="200" y="-18.5" font-family="Helvetica,sans-Serif" font-size="10.00">PhotonLagSimulationGui.NetSimHas</text>
<text text-anchor="middle" x="280" y="-7.5" font-family="Helvetica,sans-Serif" font-size="10.00">NoPeerWindow</text>
</a>
</g>
</g>
<!-- Node2 -->
<g id="node2" class="node">
<title>Node2</title>
<g id="a_node2"><a xlink:href="class_photon_1_1_pun_1_1_utility_scripts_1_1_photon_lag_simulation_gui.xhtml#a6ce1b680bf443494a8a5e2a1714f41e6" target="_top" xlink:title=" ">
<polygon fill="white" stroke="black" points="0,-6 0,-36 156,-36 156,-6 0,-6"/>
<text text-anchor="start" x="8" y="-24" font-family="Helvetica,sans-Serif" font-size="10.00">Photon.Pun.UtilityScripts.</text>
<text text-anchor="middle" x="78" y="-13" font-family="Helvetica,sans-Serif" font-size="10.00">PhotonLagSimulationGui.OnGUI</text>
</a>
</g>
</g>
<!-- Node1&#45;&gt;Node2 -->
<g id="edge1" class="edge">
<title>Node1&#45;&gt;Node2</title>
<path fill="none" stroke="midnightblue" d="M181.78,-21C173.17,-21 164.53,-21 156.12,-21"/>
<polygon fill="midnightblue" stroke="midnightblue" points="181.86,-24.5 191.86,-21 181.86,-17.5 181.86,-24.5"/>
</g>
</g>
</svg>
