<?xml version="1.0" encoding="UTF-8" standalone="no"?>
<!DOCTYPE svg PUBLIC "-//W3C//DTD SVG 1.1//EN"
 "http://www.w3.org/Graphics/SVG/1.1/DTD/svg11.dtd">
<!-- Generated by graphviz version 2.50.0 (20211204.2007)
 -->
<!-- Title: EffectHUDController.UpdateEffects Pages: 1 -->
<svg width="507pt" height="312pt"
 viewBox="0.00 0.00 507.00 312.00" xmlns="http://www.w3.org/2000/svg" xmlns:xlink="http://www.w3.org/1999/xlink">
<g id="graph0" class="graph" transform="scale(1 1) rotate(0) translate(4 308)">
<title>EffectHUDController.UpdateEffects</title>
<polygon fill="white" stroke="transparent" points="-4,4 -4,-308 503,-308 503,4 -4,4"/>
<!-- Node1 -->
<g id="node1" class="node">
<title>Node1</title>
<g id="a_node1"><a xlink:title=" ">
<polygon fill="#bfbfbf" stroke="black" points="362,-161.5 362,-191.5 499,-191.5 499,-161.5 362,-161.5"/>
<text text-anchor="start" x="370" y="-179.5" font-family="Helvetica,sans-Serif" font-size="10.00">EffectHUDController.Update</text>
<text text-anchor="middle" x="430.5" y="-168.5" font-family="Helvetica,sans-Serif" font-size="10.00">Effects</text>
</a>
</g>
</g>
<!-- Node2 -->
<g id="node2" class="node">
<title>Node2</title>
<g id="a_node2"><a xlink:href="class_effect_manager.html#aabe536a972389473af36e685412eecd1" target="_top" xlink:title="This function needs to be called whenever a TimedEffect finishes">
<polygon fill="white" stroke="black" points="180,-230 180,-249 326,-249 326,-230 180,-230"/>
<text text-anchor="middle" x="253" y="-237" font-family="Helvetica,sans-Serif" font-size="10.00">EffectManager.OnFinishEffect</text>
</a>
</g>
</g>
<!-- Node1&#45;&gt;Node2 -->
<g id="edge1" class="edge">
<title>Node1&#45;&gt;Node2</title>
<path fill="none" stroke="midnightblue" d="M377.84,-195.04C345.97,-206.49 306.4,-220.69 280.69,-229.92"/>
<polygon fill="midnightblue" stroke="midnightblue" points="379.23,-198.26 387.46,-191.59 376.87,-191.67 379.23,-198.26"/>
</g>
<!-- Node5 -->
<g id="node5" class="node">
<title>Node5</title>
<g id="a_node5"><a xlink:href="class_effect_manager.html#a921aed9a2553637cdd387d3075150709" target="_top" xlink:title="/// Starts an Effect to the entity who has this EffectManager.">
<polygon fill="white" stroke="black" points="185,-126 185,-145 321,-145 321,-126 185,-126"/>
<text text-anchor="middle" x="253" y="-133" font-family="Helvetica,sans-Serif" font-size="10.00">EffectManager.TriggerEffect</text>
</a>
</g>
</g>
<!-- Node1&#45;&gt;Node5 -->
<g id="edge4" class="edge">
<title>Node1&#45;&gt;Node5</title>
<path fill="none" stroke="midnightblue" d="M355.4,-159.19C334.68,-154.35 312.92,-149.27 294.9,-145.05"/>
<polygon fill="midnightblue" stroke="midnightblue" points="354.61,-162.6 365.15,-161.47 356.21,-155.78 354.61,-162.6"/>
</g>
<!-- Node3 -->
<g id="node3" class="node">
<title>Node3</title>
<g id="a_node3"><a xlink:href="class_m_s_relative_effect.html#a52613a353fbd328f3bc41b476581c7bc" target="_top" xlink:title=" ">
<polygon fill="white" stroke="black" points="0,-273.5 0,-303.5 144,-303.5 144,-273.5 0,-273.5"/>
<text text-anchor="start" x="8" y="-291.5" font-family="Helvetica,sans-Serif" font-size="10.00">MSRelativeEffect.ApplyTimed</text>
<text text-anchor="middle" x="72" y="-280.5" font-family="Helvetica,sans-Serif" font-size="10.00">Effect</text>
</a>
</g>
</g>
<!-- Node2&#45;&gt;Node3 -->
<g id="edge2" class="edge">
<title>Node2&#45;&gt;Node3</title>
<path fill="none" stroke="midnightblue" d="M207.15,-251.78C183.13,-258.35 153.33,-266.51 127.93,-273.46"/>
<polygon fill="midnightblue" stroke="midnightblue" points="208.34,-255.08 217.06,-249.06 206.49,-248.33 208.34,-255.08"/>
</g>
<!-- Node4 -->
<g id="node4" class="node">
<title>Node4</title>
<g id="a_node4"><a xlink:href="class_statistic_change_effect.html#a18670b90afa4c33f7b5ec466af94c38d" target="_top" xlink:title=" ">
<polygon fill="white" stroke="black" points="3,-224.5 3,-254.5 141,-254.5 141,-224.5 3,-224.5"/>
<text text-anchor="start" x="11" y="-242.5" font-family="Helvetica,sans-Serif" font-size="10.00">StatisticChangeEffect.Apply</text>
<text text-anchor="middle" x="72" y="-231.5" font-family="Helvetica,sans-Serif" font-size="10.00">TimedEffect</text>
</a>
</g>
</g>
<!-- Node2&#45;&gt;Node4 -->
<g id="edge3" class="edge">
<title>Node2&#45;&gt;Node4</title>
<path fill="none" stroke="midnightblue" d="M169.66,-239.5C160.11,-239.5 150.45,-239.5 141.11,-239.5"/>
<polygon fill="midnightblue" stroke="midnightblue" points="169.97,-243 179.97,-239.5 169.97,-236 169.97,-243"/>
</g>
<!-- Node6 -->
<g id="node6" class="node">
<title>Node6</title>
<g id="a_node6"><a xlink:href="class_ability___lis1.html#afd1d7924ca79144a0e19a84705b7590e" target="_top" xlink:title=" ">
<polygon fill="white" stroke="black" points="4.5,-186 4.5,-205 139.5,-205 139.5,-186 4.5,-186"/>
<text text-anchor="middle" x="72" y="-193" font-family="Helvetica,sans-Serif" font-size="10.00">Ability_Lis1.OnTriggerEnter</text>
</a>
</g>
</g>
<!-- Node5&#45;&gt;Node6 -->
<g id="edge5" class="edge">
<title>Node5&#45;&gt;Node6</title>
<path fill="none" stroke="midnightblue" d="M219.13,-148.97C197.89,-157.43 169.54,-168.26 144,-176.5 133.56,-179.87 122.12,-183.12 111.53,-185.95"/>
<polygon fill="midnightblue" stroke="midnightblue" points="220.67,-152.13 228.65,-145.15 218.06,-145.63 220.67,-152.13"/>
</g>
<!-- Node7 -->
<g id="node7" class="node">
<title>Node7</title>
<g id="a_node7"><a xlink:href="class_ability___lis4.html#a4497c50ddbd3f508448a76a1eafdd203" target="_top" xlink:title=" ">
<polygon fill="white" stroke="black" points="4.5,-148 4.5,-167 139.5,-167 139.5,-148 4.5,-148"/>
<text text-anchor="middle" x="72" y="-155" font-family="Helvetica,sans-Serif" font-size="10.00">Ability_Lis4.OnTriggerEnter</text>
</a>
</g>
</g>
<!-- Node5&#45;&gt;Node7 -->
<g id="edge6" class="edge">
<title>Node5&#45;&gt;Node7</title>
<path fill="none" stroke="midnightblue" d="M174.68,-145C163.01,-146.44 151.06,-147.91 139.65,-149.31"/>
<polygon fill="midnightblue" stroke="midnightblue" points="175.34,-148.45 184.84,-143.75 174.49,-141.5 175.34,-148.45"/>
</g>
<!-- Node8 -->
<g id="node8" class="node">
<title>Node8</title>
<g id="a_node8"><a xlink:href="class_ability___instanciable.html#a2874cb997047ff431148d036aa06e163" target="_top" xlink:title=" ">
<polygon fill="white" stroke="black" points="5.5,-98.5 5.5,-128.5 138.5,-128.5 138.5,-98.5 5.5,-98.5"/>
<text text-anchor="start" x="13.5" y="-116.5" font-family="Helvetica,sans-Serif" font-size="10.00">Ability_Instanciable.Trigger</text>
<text text-anchor="middle" x="72" y="-105.5" font-family="Helvetica,sans-Serif" font-size="10.00">Ability</text>
</a>
</g>
</g>
<!-- Node5&#45;&gt;Node8 -->
<g id="edge7" class="edge">
<title>Node5&#45;&gt;Node8</title>
<path fill="none" stroke="midnightblue" d="M174.83,-126.02C162.81,-124.54 150.49,-123.02 138.76,-121.58"/>
<polygon fill="midnightblue" stroke="midnightblue" points="174.49,-129.5 184.84,-127.25 175.34,-122.55 174.49,-129.5"/>
</g>
<!-- Node9 -->
<g id="node9" class="node">
<title>Node9</title>
<g id="a_node9"><a xlink:href="class_ability___player_relative.html#a147af83cdc2b932f749d96e9974260fa" target="_top" xlink:title=" ">
<polygon fill="white" stroke="black" points="0.5,-49.5 0.5,-79.5 143.5,-79.5 143.5,-49.5 0.5,-49.5"/>
<text text-anchor="start" x="8.5" y="-67.5" font-family="Helvetica,sans-Serif" font-size="10.00">Ability_PlayerRelative.Trigger</text>
<text text-anchor="middle" x="72" y="-56.5" font-family="Helvetica,sans-Serif" font-size="10.00">Ability</text>
</a>
</g>
</g>
<!-- Node5&#45;&gt;Node9 -->
<g id="edge8" class="edge">
<title>Node5&#45;&gt;Node9</title>
<path fill="none" stroke="midnightblue" d="M221.37,-121.84C199.87,-112.39 170.36,-99.74 144,-89.5 135.35,-86.14 126.04,-82.72 117.1,-79.53"/>
<polygon fill="midnightblue" stroke="midnightblue" points="220.09,-125.09 230.65,-125.93 222.91,-118.69 220.09,-125.09"/>
</g>
<!-- Node10 -->
<g id="node10" class="node">
<title>Node10</title>
<g id="a_node10"><a xlink:href="class_ability___stats_changer.html#a9b5d2b57c9e1369ec89ff50b9818d1b6" target="_top" xlink:title=" ">
<polygon fill="white" stroke="black" points="2,-0.5 2,-30.5 142,-30.5 142,-0.5 2,-0.5"/>
<text text-anchor="start" x="10" y="-18.5" font-family="Helvetica,sans-Serif" font-size="10.00">Ability_StatsChanger.Trigger</text>
<text text-anchor="middle" x="72" y="-7.5" font-family="Helvetica,sans-Serif" font-size="10.00">Ability</text>
</a>
</g>
</g>
<!-- Node5&#45;&gt;Node10 -->
<g id="edge9" class="edge">
<title>Node5&#45;&gt;Node10</title>
<path fill="none" stroke="midnightblue" d="M236.85,-118.33C217.3,-97.12 181.34,-61.19 144,-39.5 138.26,-36.17 131.99,-33.21 125.63,-30.61"/>
<polygon fill="midnightblue" stroke="midnightblue" points="234.42,-120.87 243.73,-125.93 239.61,-116.17 234.42,-120.87"/>
</g>
</g>
</svg>
