<?xml version="1.0" encoding="UTF-8" standalone="no"?>
<!DOCTYPE svg PUBLIC "-//W3C//DTD SVG 1.1//EN"
 "http://www.w3.org/Graphics/SVG/1.1/DTD/svg11.dtd">
<!-- Generated by graphviz version 2.47.3 (20210619.1520)
 -->
<!-- Title: Photon.Pun.PhotonNetwork.RemoveRPCsInGroup Pages: 1 -->
<svg width="1640pt" height="149pt"
 viewBox="0.00 0.00 1640.00 148.50" xmlns="http://www.w3.org/2000/svg" xmlns:xlink="http://www.w3.org/1999/xlink">
<g id="graph0" class="graph" transform="scale(1 1) rotate(0) translate(4 144.5)">
<title>Photon.Pun.PhotonNetwork.RemoveRPCsInGroup</title>
<polygon fill="white" stroke="transparent" points="-4,4 -4,-144.5 1636,-144.5 1636,4 -4,4"/>
<!-- Node1 -->
<g id="node1" class="node">
<title>Node1</title>
<g id="a_node1"><a xlink:title="Remove all buffered RPCs from server that were sent in the targetGroup, if this is the Master Client ...">
<polygon fill="#bfbfbf" stroke="black" points="0,-24.5 0,-54.5 140,-54.5 140,-24.5 0,-24.5"/>
<text text-anchor="start" x="8" y="-42.5" font-family="Helvetica,sans-Serif" font-size="10.00">Photon.Pun.PhotonNetwork.</text>
<text text-anchor="middle" x="70" y="-31.5" font-family="Helvetica,sans-Serif" font-size="10.00">RemoveRPCsInGroup</text>
</a>
</g>
</g>
<!-- Node2 -->
<g id="node2" class="node">
<title>Node2</title>
<g id="a_node2"><a xlink:href="class_photon_1_1_pun_1_1_photon_network.xhtml#acf94c5d71fe4fc49213ff466d5613dce" target="_top" xlink:title=" ">
<polygon fill="white" stroke="black" points="176,-24.5 176,-54.5 316,-54.5 316,-24.5 176,-24.5"/>
<text text-anchor="start" x="184" y="-42.5" font-family="Helvetica,sans-Serif" font-size="10.00">Photon.Pun.PhotonNetwork.</text>
<text text-anchor="middle" x="246" y="-31.5" font-family="Helvetica,sans-Serif" font-size="10.00">CleanRpcBufferIfMine</text>
</a>
</g>
</g>
<!-- Node1&#45;&gt;Node2 -->
<g id="edge1" class="edge">
<title>Node1&#45;&gt;Node2</title>
<path fill="none" stroke="midnightblue" d="M140.02,-39.5C148.48,-39.5 157.17,-39.5 165.76,-39.5"/>
<polygon fill="midnightblue" stroke="midnightblue" points="165.78,-43 175.78,-39.5 165.78,-36 165.78,-43"/>
</g>
<!-- Node3 -->
<g id="node3" class="node">
<title>Node3</title>
<g id="a_node3"><a xlink:href="class_photon_1_1_pun_1_1_photon_network.xhtml#a9aad4dca8370d71a36a72d57a4fb3240" target="_top" xlink:title="Cleans server RPCs for PhotonView (without any further checks).">
<polygon fill="white" stroke="black" points="352,-24.5 352,-54.5 492,-54.5 492,-24.5 352,-24.5"/>
<text text-anchor="start" x="360" y="-42.5" font-family="Helvetica,sans-Serif" font-size="10.00">Photon.Pun.PhotonNetwork.</text>
<text text-anchor="middle" x="422" y="-31.5" font-family="Helvetica,sans-Serif" font-size="10.00">OpCleanRpcBuffer</text>
</a>
</g>
</g>
<!-- Node2&#45;&gt;Node3 -->
<g id="edge2" class="edge">
<title>Node2&#45;&gt;Node3</title>
<path fill="none" stroke="midnightblue" d="M316.02,-39.5C324.48,-39.5 333.17,-39.5 341.76,-39.5"/>
<polygon fill="midnightblue" stroke="midnightblue" points="341.78,-43 351.78,-39.5 341.78,-36 341.78,-43"/>
</g>
<!-- Node4 -->
<g id="node4" class="node">
<title>Node4</title>
<g id="a_node4"><a xlink:href="class_photon_1_1_pun_1_1_photon_network.xhtml#afbfe822d24b062457e37c533b8ff45be" target="_top" xlink:title="Sends PUN&#45;specific events to the server, unless in offlineMode.">
<polygon fill="white" stroke="black" points="528,-24.5 528,-54.5 668,-54.5 668,-24.5 528,-24.5"/>
<text text-anchor="start" x="536" y="-42.5" font-family="Helvetica,sans-Serif" font-size="10.00">Photon.Pun.PhotonNetwork.</text>
<text text-anchor="middle" x="598" y="-31.5" font-family="Helvetica,sans-Serif" font-size="10.00">RaiseEventInternal</text>
</a>
</g>
</g>
<!-- Node3&#45;&gt;Node4 -->
<g id="edge3" class="edge">
<title>Node3&#45;&gt;Node4</title>
<path fill="none" stroke="midnightblue" d="M492.02,-39.5C500.48,-39.5 509.17,-39.5 517.76,-39.5"/>
<polygon fill="midnightblue" stroke="midnightblue" points="517.78,-43 527.78,-39.5 517.78,-36 517.78,-43"/>
</g>
<!-- Node5 -->
<g id="node5" class="node">
<title>Node5</title>
<g id="a_node5"><a xlink:href="class_photon_1_1_realtime_1_1_load_balancing_client.xhtml#a620e340e8f78a51871d94d5868ffdb4c" target="_top" xlink:title="Send an event with custom code/type and any content to the other players in the same room.">
<polygon fill="white" stroke="black" points="704,-24.5 704,-54.5 859,-54.5 859,-24.5 704,-24.5"/>
<text text-anchor="start" x="712" y="-42.5" font-family="Helvetica,sans-Serif" font-size="10.00">Photon.Realtime.LoadBalancing</text>
<text text-anchor="middle" x="781.5" y="-31.5" font-family="Helvetica,sans-Serif" font-size="10.00">Client.OpRaiseEvent</text>
</a>
</g>
</g>
<!-- Node4&#45;&gt;Node5 -->
<g id="edge4" class="edge">
<title>Node4&#45;&gt;Node5</title>
<path fill="none" stroke="midnightblue" d="M668.14,-39.5C676.56,-39.5 685.25,-39.5 693.89,-39.5"/>
<polygon fill="midnightblue" stroke="midnightblue" points="693.98,-43 703.98,-39.5 693.98,-36 693.98,-43"/>
</g>
<!-- Node6 -->
<g id="node6" class="node">
<title>Node6</title>
<g id="a_node6"><a xlink:href="class_photon_1_1_realtime_1_1_load_balancing_client.xhtml#aa12ff3efc3aa91e5ceca9b3a40f7bd79" target="_top" xlink:title=" ">
<polygon fill="white" stroke="black" points="895,-49.5 895,-79.5 1050,-79.5 1050,-49.5 895,-49.5"/>
<text text-anchor="start" x="903" y="-67.5" font-family="Helvetica,sans-Serif" font-size="10.00">Photon.Realtime.LoadBalancing</text>
<text text-anchor="middle" x="972.5" y="-56.5" font-family="Helvetica,sans-Serif" font-size="10.00">Client.CheckIfOpCanBeSent</text>
</a>
</g>
</g>
<!-- Node5&#45;&gt;Node6 -->
<g id="edge5" class="edge">
<title>Node5&#45;&gt;Node6</title>
<path fill="none" stroke="midnightblue" d="M859.1,-49.63C867.56,-50.75 876.22,-51.9 884.79,-53.03"/>
<polygon fill="midnightblue" stroke="midnightblue" points="884.42,-56.51 894.79,-54.35 885.34,-49.57 884.42,-56.51"/>
</g>
<!-- Node12 -->
<g id="node12" class="node">
<title>Node12</title>
<g id="a_node12"><a xlink:href="class_photon_1_1_realtime_1_1_load_balancing_peer.xhtml#af6d68f09d3f683f8d709c3aa4dfe03cc" target="_top" xlink:title="Send an event with custom code/type and any content to the other players in the same room.">
<polygon fill="white" stroke="black" points="895,-0.5 895,-30.5 1050,-30.5 1050,-0.5 895,-0.5"/>
<text text-anchor="start" x="903" y="-18.5" font-family="Helvetica,sans-Serif" font-size="10.00">Photon.Realtime.LoadBalancing</text>
<text text-anchor="middle" x="972.5" y="-7.5" font-family="Helvetica,sans-Serif" font-size="10.00">Peer.OpRaiseEvent</text>
</a>
</g>
</g>
<!-- Node5&#45;&gt;Node12 -->
<g id="edge11" class="edge">
<title>Node5&#45;&gt;Node12</title>
<path fill="none" stroke="midnightblue" d="M859.1,-29.77C867.56,-28.7 876.22,-27.6 884.79,-26.51"/>
<polygon fill="midnightblue" stroke="midnightblue" points="885.31,-29.97 894.79,-25.24 884.43,-23.03 885.31,-29.97"/>
</g>
<!-- Node7 -->
<g id="node7" class="node">
<title>Node7</title>
<g id="a_node7"><a xlink:href="class_photon_1_1_realtime_1_1_load_balancing_client.xhtml#ae052ab450db16efdd31985d56f76f0ab" target="_top" xlink:title=" ">
<polygon fill="white" stroke="black" points="1086,-99 1086,-140 1250,-140 1250,-99 1086,-99"/>
<text text-anchor="start" x="1094" y="-128" font-family="Helvetica,sans-Serif" font-size="10.00">Photon.Realtime.LoadBalancing</text>
<text text-anchor="start" x="1094" y="-117" font-family="Helvetica,sans-Serif" font-size="10.00">Client.CheckIfClientIsReadyToCall</text>
<text text-anchor="middle" x="1168" y="-106" font-family="Helvetica,sans-Serif" font-size="10.00">Operation</text>
</a>
</g>
</g>
<!-- Node6&#45;&gt;Node7 -->
<g id="edge6" class="edge">
<title>Node6&#45;&gt;Node7</title>
<path fill="none" stroke="midnightblue" d="M1026.37,-79.53C1044.45,-84.67 1065.12,-90.54 1084.95,-96.18"/>
<polygon fill="midnightblue" stroke="midnightblue" points="1084.03,-99.55 1094.6,-98.92 1085.94,-92.82 1084.03,-99.55"/>
</g>
<!-- Node8 -->
<g id="node8" class="node">
<title>Node8</title>
<g id="a_node8"><a xlink:href="class_photon_1_1_realtime_1_1_load_balancing_client.xhtml#aa01a53cac6918dab3ecb99669b276f01" target="_top" xlink:title=" ">
<polygon fill="white" stroke="black" points="1086.5,-49.5 1086.5,-79.5 1249.5,-79.5 1249.5,-49.5 1086.5,-49.5"/>
<text text-anchor="start" x="1094.5" y="-67.5" font-family="Helvetica,sans-Serif" font-size="10.00">Photon.Realtime.LoadBalancing</text>
<text text-anchor="middle" x="1168" y="-56.5" font-family="Helvetica,sans-Serif" font-size="10.00">Client.CheckIfOpAllowedOnServer</text>
</a>
</g>
</g>
<!-- Node6&#45;&gt;Node8 -->
<g id="edge7" class="edge">
<title>Node6&#45;&gt;Node8</title>
<path fill="none" stroke="midnightblue" d="M1050.25,-64.5C1058.75,-64.5 1067.46,-64.5 1076.1,-64.5"/>
<polygon fill="midnightblue" stroke="midnightblue" points="1076.21,-68 1086.21,-64.5 1076.21,-61 1076.21,-68"/>
</g>
<!-- Node9 -->
<g id="node9" class="node">
<title>Node9</title>
<g id="a_node9"><a xlink:href="class_photon_1_1_realtime_1_1_load_balancing_client.xhtml#a69dd43d4c7211b5b83cd54d0ebcf79e7" target="_top" xlink:title="Debug output of low level api (and this client).">
<polygon fill="white" stroke="black" points="1090.5,-0.5 1090.5,-30.5 1245.5,-30.5 1245.5,-0.5 1090.5,-0.5"/>
<text text-anchor="start" x="1098.5" y="-18.5" font-family="Helvetica,sans-Serif" font-size="10.00">Photon.Realtime.LoadBalancing</text>
<text text-anchor="middle" x="1168" y="-7.5" font-family="Helvetica,sans-Serif" font-size="10.00">Client.DebugReturn</text>
</a>
</g>
</g>
<!-- Node6&#45;&gt;Node9 -->
<g id="edge8" class="edge">
<title>Node6&#45;&gt;Node9</title>
<path fill="none" stroke="midnightblue" d="M1032.87,-49.47C1053.4,-44.27 1076.57,-38.4 1097.81,-33.02"/>
<polygon fill="midnightblue" stroke="midnightblue" points="1098.91,-36.35 1107.74,-30.51 1097.19,-29.57 1098.91,-36.35"/>
</g>
<!-- Node10 -->
<g id="node10" class="node">
<title>Node10</title>
<g id="a_node10"><a xlink:href="class_photon_1_1_realtime_1_1_load_balancing_peer.xhtml#a7f48b5f0c44ef0c67ef32f147ff87246" target="_top" xlink:title="Creates a Peer with specified connection protocol.">
<polygon fill="white" stroke="black" points="1286,-0.5 1286,-30.5 1441,-30.5 1441,-0.5 1286,-0.5"/>
<text text-anchor="start" x="1294" y="-18.5" font-family="Helvetica,sans-Serif" font-size="10.00">Photon.Realtime.LoadBalancing</text>
<text text-anchor="middle" x="1363.5" y="-7.5" font-family="Helvetica,sans-Serif" font-size="10.00">Peer.LoadBalancingPeer</text>
</a>
</g>
</g>
<!-- Node9&#45;&gt;Node10 -->
<g id="edge9" class="edge">
<title>Node9&#45;&gt;Node10</title>
<path fill="none" stroke="midnightblue" d="M1245.75,-15.5C1255.54,-15.5 1265.62,-15.5 1275.55,-15.5"/>
<polygon fill="midnightblue" stroke="midnightblue" points="1275.84,-19 1285.84,-15.5 1275.84,-12 1275.84,-19"/>
</g>
<!-- Node11 -->
<g id="node11" class="node">
<title>Node11</title>
<g id="a_node11"><a xlink:href="class_photon_1_1_realtime_1_1_load_balancing_peer.xhtml#affaff7e1fdffe86b25156ffac5e738c9" target="_top" xlink:title=" ">
<polygon fill="white" stroke="black" points="1477,-0.5 1477,-30.5 1632,-30.5 1632,-0.5 1477,-0.5"/>
<text text-anchor="start" x="1485" y="-18.5" font-family="Helvetica,sans-Serif" font-size="10.00">Photon.Realtime.LoadBalancing</text>
<text text-anchor="middle" x="1554.5" y="-7.5" font-family="Helvetica,sans-Serif" font-size="10.00">Peer.ConfigUnitySockets</text>
</a>
</g>
</g>
<!-- Node10&#45;&gt;Node11 -->
<g id="edge10" class="edge">
<title>Node10&#45;&gt;Node11</title>
<path fill="none" stroke="midnightblue" d="M1441.1,-15.5C1449.56,-15.5 1458.22,-15.5 1466.79,-15.5"/>
<polygon fill="midnightblue" stroke="midnightblue" points="1466.79,-19 1476.79,-15.5 1466.79,-12 1466.79,-19"/>
</g>
</g>
</svg>
