<?xml version="1.0" encoding="UTF-8" standalone="no"?>
<!DOCTYPE svg PUBLIC "-//W3C//DTD SVG 1.1//EN"
 "http://www.w3.org/Graphics/SVG/1.1/DTD/svg11.dtd">
<!-- Generated by graphviz version 2.47.3 (20210619.1520)
 -->
<!-- Title: PlayerController Pages: 1 -->
<svg width="1067pt" height="518pt"
 viewBox="0.00 0.00 1067.00 518.00" xmlns="http://www.w3.org/2000/svg" xmlns:xlink="http://www.w3.org/1999/xlink">
<g id="graph0" class="graph" transform="scale(1 1) rotate(0) translate(4 514)">
<title>PlayerController</title>
<polygon fill="white" stroke="transparent" points="-4,4 -4,-514 1063,-514 1063,4 -4,4"/>
<!-- Node1 -->
<g id="node1" class="node">
<title>Node1</title>
<g id="a_node1"><a xlink:title="Player Controller is the main class that handles all the movement of the Player.">
<polygon fill="#bfbfbf" stroke="black" points="430,-210.5 430,-229.5 516,-229.5 516,-210.5 430,-210.5"/>
<text text-anchor="middle" x="473" y="-217.5" font-family="Helvetica,sans-Serif" font-size="10.00">PlayerController</text>
</a>
</g>
</g>
<!-- Node5 -->
<g id="node5" class="node">
<title>Node5</title>
<g id="a_node5"><a xlink:href="class_ability_cooldown.xhtml" target="_top" xlink:title=" ">
<polygon fill="white" stroke="black" points="674,-134.5 674,-153.5 760,-153.5 760,-134.5 674,-134.5"/>
<text text-anchor="middle" x="717" y="-141.5" font-family="Helvetica,sans-Serif" font-size="10.00">AbilityCooldown</text>
</a>
</g>
</g>
<!-- Node1&#45;&gt;Node5 -->
<g id="edge7" class="edge">
<title>Node1&#45;&gt;Node5</title>
<path fill="none" stroke="#9a32cd" stroke-dasharray="5,2" d="M526.15,-208.48C544.43,-204.2 564.86,-198.67 583,-192 601.66,-185.14 604.48,-179.22 623,-172 641.83,-164.66 663.46,-158.31 681.23,-153.62"/>
<polygon fill="#9a32cd" stroke="#9a32cd" points="525.21,-205.1 516.24,-210.72 526.76,-211.92 525.21,-205.1"/>
<text text-anchor="middle" x="658.5" y="-179.5" font-family="Helvetica,sans-Serif" font-size="10.00"> playerController</text>
</g>
<!-- Node11 -->
<g id="node11" class="node">
<title>Node11</title>
<g id="a_node11"><a xlink:href="class_player_stats.xhtml" target="_top" xlink:title="Player Stats is the main class that controls all the Player Statistics in all time in the game execut...">
<polygon fill="white" stroke="black" points="361,-67.5 361,-86.5 429,-86.5 429,-67.5 361,-67.5"/>
<text text-anchor="middle" x="395" y="-74.5" font-family="Helvetica,sans-Serif" font-size="10.00">PlayerStats</text>
</a>
</g>
</g>
<!-- Node1&#45;&gt;Node11 -->
<g id="edge26" class="edge">
<title>Node1&#45;&gt;Node11</title>
<path fill="none" stroke="#9a32cd" stroke-dasharray="5,2" d="M449.47,-204.46C444.89,-200.82 440.44,-196.62 437,-192 411.55,-157.83 400.11,-106.61 396.42,-86.52"/>
<polygon fill="#9a32cd" stroke="#9a32cd" points="447.53,-207.37 457.7,-210.37 451.62,-201.69 447.53,-207.37"/>
<text text-anchor="middle" x="451.5" y="-141.5" font-family="Helvetica,sans-Serif" font-size="10.00"> playerController</text>
</g>
<!-- Node18 -->
<g id="node18" class="node">
<title>Node18</title>
<g id="a_node18"><a xlink:href="class_basic_attack.xhtml" target="_top" xlink:title=" ">
<polygon fill="white" stroke="black" points="112,-0.5 112,-19.5 182,-19.5 182,-0.5 112,-0.5"/>
<text text-anchor="middle" x="147" y="-7.5" font-family="Helvetica,sans-Serif" font-size="10.00">BasicAttack</text>
</a>
</g>
</g>
<!-- Node1&#45;&gt;Node18 -->
<g id="edge36" class="edge">
<title>Node1&#45;&gt;Node18</title>
<path fill="none" stroke="#9a32cd" stroke-dasharray="5,2" d="M419.65,-215C335.11,-208.54 179.41,-196.14 175,-192 125.16,-145.21 139.29,-49.35 145.09,-19.84"/>
<polygon fill="#9a32cd" stroke="#9a32cd" points="419.6,-218.51 429.84,-215.77 420.13,-211.53 419.6,-218.51"/>
<text text-anchor="middle" x="162.5" y="-108" font-family="Helvetica,sans-Serif" font-size="10.00"> controller</text>
</g>
<!-- Node2 -->
<g id="node2" class="node">
<title>Node2</title>
<g id="a_node2"><a xlink:title=" ">
<polygon fill="white" stroke="#bfbfbf" points="315.5,-366.5 315.5,-385.5 398.5,-385.5 398.5,-366.5 315.5,-366.5"/>
<text text-anchor="middle" x="357" y="-373.5" font-family="Helvetica,sans-Serif" font-size="10.00">MonoBehaviour</text>
</a>
</g>
</g>
<!-- Node2&#45;&gt;Node1 -->
<g id="edge1" class="edge">
<title>Node2&#45;&gt;Node1</title>
<path fill="none" stroke="midnightblue" d="M366.44,-357.69C376.56,-339.66 393.55,-310.91 411,-288 428.1,-265.56 451.39,-241.93 464,-229.62"/>
<polygon fill="midnightblue" stroke="midnightblue" points="363.34,-356.05 361.56,-366.5 369.47,-359.44 363.34,-356.05"/>
</g>
<!-- Node3 -->
<g id="node3" class="node">
<title>Node3</title>
<g id="a_node3"><a xlink:href="class_photon_1_1_pun_1_1_photon_view.xhtml" target="_top" xlink:title="A PhotonView identifies an object across the network (viewID) and configures how the controlling clie...">
<polygon fill="white" stroke="black" points="420,-288.5 420,-307.5 542,-307.5 542,-288.5 420,-288.5"/>
<text text-anchor="middle" x="481" y="-295.5" font-family="Helvetica,sans-Serif" font-size="10.00">Photon.Pun.PhotonView</text>
</a>
</g>
</g>
<!-- Node2&#45;&gt;Node3 -->
<g id="edge3" class="edge">
<title>Node2&#45;&gt;Node3</title>
<path fill="none" stroke="midnightblue" d="M382.39,-361.48C390.04,-357.28 398.42,-352.55 406,-348 428.4,-334.54 453.7,-317.64 468.45,-307.62"/>
<polygon fill="midnightblue" stroke="midnightblue" points="380.63,-358.46 373.51,-366.3 383.97,-364.61 380.63,-358.46"/>
</g>
<!-- Node2&#45;&gt;Node5 -->
<g id="edge6" class="edge">
<title>Node2&#45;&gt;Node5</title>
<path fill="none" stroke="midnightblue" d="M408.65,-374.14C495.54,-370.33 673.31,-352.2 794,-270 830.74,-244.98 844.41,-204.42 814,-172 800.25,-157.34 779.28,-150.4 760.35,-147.21"/>
<polygon fill="midnightblue" stroke="midnightblue" points="408.36,-370.65 398.51,-374.53 408.64,-377.64 408.36,-370.65"/>
</g>
<!-- Node10 -->
<g id="node10" class="node">
<title>Node10</title>
<g id="a_node10"><a xlink:href="class_ability_indicator.xhtml" target="_top" xlink:title=" ">
<polygon fill="white" stroke="black" points="804,-67.5 804,-86.5 884,-86.5 884,-67.5 804,-67.5"/>
<text text-anchor="middle" x="844" y="-74.5" font-family="Helvetica,sans-Serif" font-size="10.00">AbilityIndicator</text>
</a>
</g>
</g>
<!-- Node2&#45;&gt;Node10 -->
<g id="edge15" class="edge">
<title>Node2&#45;&gt;Node10</title>
<path fill="none" stroke="midnightblue" d="M408.87,-375.43C498.18,-375.49 676.91,-372.41 734,-348 799.92,-319.81 817.53,-296.63 844,-230 864.92,-177.35 889.67,-157.75 869,-105 866.2,-97.86 860.54,-91.48 855.3,-86.72"/>
<polygon fill="midnightblue" stroke="midnightblue" points="408.71,-371.93 398.7,-375.41 408.69,-378.93 408.71,-371.93"/>
</g>
<!-- Node13 -->
<g id="node13" class="node">
<title>Node13</title>
<g id="a_node13"><a xlink:href="class_stats.xhtml" target="_top" xlink:title="Base class Stats of the entity.">
<polygon fill="white" stroke="black" points="303,-210.5 303,-229.5 343,-229.5 343,-210.5 303,-210.5"/>
<text text-anchor="middle" x="323" y="-217.5" font-family="Helvetica,sans-Serif" font-size="10.00">Stats</text>
</a>
</g>
</g>
<!-- Node2&#45;&gt;Node13 -->
<g id="edge21" class="edge">
<title>Node2&#45;&gt;Node13</title>
<path fill="none" stroke="midnightblue" d="M352.9,-356.42C345.51,-322.97 330.25,-253.86 324.9,-229.63"/>
<polygon fill="midnightblue" stroke="midnightblue" points="349.5,-357.27 355.07,-366.28 356.34,-355.76 349.5,-357.27"/>
</g>
<!-- Node15 -->
<g id="node15" class="node">
<title>Node15</title>
<g id="a_node15"><a xlink:href="class_u_i_controller.xhtml" target="_top" xlink:title=" ">
<polygon fill="white" stroke="black" points="154.5,-288.5 154.5,-307.5 221.5,-307.5 221.5,-288.5 154.5,-288.5"/>
<text text-anchor="middle" x="188" y="-295.5" font-family="Helvetica,sans-Serif" font-size="10.00">UIController</text>
</a>
</g>
</g>
<!-- Node2&#45;&gt;Node15 -->
<g id="edge25" class="edge">
<title>Node2&#45;&gt;Node15</title>
<path fill="none" stroke="midnightblue" d="M328.41,-362.14C293.82,-346.59 236.57,-320.84 206.99,-307.54"/>
<polygon fill="midnightblue" stroke="midnightblue" points="327.39,-365.52 337.94,-366.43 330.26,-359.14 327.39,-365.52"/>
</g>
<!-- Node16 -->
<g id="node16" class="node">
<title>Node16</title>
<g id="a_node16"><a xlink:href="class_inventory.xhtml" target="_top" xlink:title=" ">
<polygon fill="white" stroke="black" points="67.5,-249.5 67.5,-268.5 122.5,-268.5 122.5,-249.5 67.5,-249.5"/>
<text text-anchor="middle" x="95" y="-256.5" font-family="Helvetica,sans-Serif" font-size="10.00">Inventory</text>
</a>
</g>
</g>
<!-- Node2&#45;&gt;Node16 -->
<g id="edge29" class="edge">
<title>Node2&#45;&gt;Node16</title>
<path fill="none" stroke="midnightblue" d="M305.4,-366.48C260.38,-357.3 194.67,-339.56 145,-308 127.53,-296.9 110.97,-279.05 101.97,-268.53"/>
<polygon fill="midnightblue" stroke="midnightblue" points="304.75,-369.92 315.24,-368.41 306.11,-363.05 304.75,-369.92"/>
</g>
<!-- Node2&#45;&gt;Node18 -->
<g id="edge35" class="edge">
<title>Node2&#45;&gt;Node18</title>
<path fill="none" stroke="midnightblue" d="M305.26,-374.62C206.32,-372.49 0,-360.66 0,-299 0,-299 0,-299 0,-76 0,-27.31 68.3,-14.79 111.79,-11.76"/>
<polygon fill="midnightblue" stroke="midnightblue" points="305.28,-378.12 315.35,-374.81 305.42,-371.12 305.28,-378.12"/>
</g>
<!-- Node3&#45;&gt;Node1 -->
<g id="edge2" class="edge">
<title>Node3&#45;&gt;Node1</title>
<path fill="none" stroke="#9a32cd" stroke-dasharray="5,2" d="M479.02,-278.22C477.39,-262.7 475.14,-241.36 473.91,-229.62"/>
<polygon fill="#9a32cd" stroke="#9a32cd" points="475.55,-278.7 480.08,-288.28 482.52,-277.97 475.55,-278.7"/>
<text text-anchor="middle" x="489" y="-256.5" font-family="Helvetica,sans-Serif" font-size="10.00"> view</text>
</g>
<!-- Node3&#45;&gt;Node5 -->
<g id="edge13" class="edge">
<title>Node3&#45;&gt;Node5</title>
<path fill="none" stroke="#9a32cd" stroke-dasharray="5,2" d="M552.13,-294.46C632.75,-290.95 755.21,-283.48 772,-270 789.52,-255.93 810.11,-190.26 797,-172 788.45,-160.09 774.37,-153.37 760.39,-149.59"/>
<polygon fill="#9a32cd" stroke="#9a32cd" points="551.87,-290.97 542.03,-294.89 552.17,-297.96 551.87,-290.97"/>
<text text-anchor="middle" x="810" y="-217.5" font-family="Helvetica,sans-Serif" font-size="10.00"> view</text>
</g>
<!-- Node3&#45;&gt;Node13 -->
<g id="edge22" class="edge">
<title>Node3&#45;&gt;Node13</title>
<path fill="none" stroke="#9a32cd" stroke-dasharray="5,2" d="M453.88,-283.96C421.6,-268.43 368.6,-242.94 340.99,-229.66"/>
<polygon fill="#9a32cd" stroke="#9a32cd" points="452.65,-287.25 463.18,-288.43 455.69,-280.94 452.65,-287.25"/>
<text text-anchor="middle" x="432" y="-256.5" font-family="Helvetica,sans-Serif" font-size="10.00"> view</text>
</g>
<!-- Node3&#45;&gt;Node18 -->
<g id="edge37" class="edge">
<title>Node3&#45;&gt;Node18</title>
<path fill="none" stroke="#9a32cd" stroke-dasharray="5,2" d="M419.1,-286.67C310.45,-266.94 93.89,-219.92 62,-154 53.59,-136.62 55.77,-101.81 71,-67 81.12,-43.88 106.56,-28.31 125.24,-19.57"/>
<polygon fill="#9a32cd" stroke="#9a32cd" points="418.49,-290.11 428.95,-288.43 419.72,-283.22 418.49,-290.11"/>
<text text-anchor="middle" x="73" y="-141.5" font-family="Helvetica,sans-Serif" font-size="10.00"> view</text>
</g>
<!-- Node4 -->
<g id="node4" class="node">
<title>Node4</title>
<g id="a_node4"><a xlink:href="class_photon_1_1_realtime_1_1_player.xhtml" target="_top" xlink:title="Summarizes a &quot;player&quot; within a room, identified (in that room) by ID (or &quot;actorNumber&quot;).">
<polygon fill="white" stroke="black" points="753.5,-366.5 753.5,-385.5 872.5,-385.5 872.5,-366.5 753.5,-366.5"/>
<text text-anchor="middle" x="813" y="-373.5" font-family="Helvetica,sans-Serif" font-size="10.00">Photon.Realtime.Player</text>
</a>
</g>
</g>
<!-- Node4&#45;&gt;Node3 -->
<g id="edge4" class="edge">
<title>Node4&#45;&gt;Node3</title>
<path fill="none" stroke="#9a32cd" stroke-dasharray="5,2" d="M765.74,-364.18C699.14,-348.94 579.02,-321.44 518.3,-307.54"/>
<polygon fill="#9a32cd" stroke="#9a32cd" points="765.03,-367.61 775.56,-366.43 766.59,-360.79 765.03,-367.61"/>
<text text-anchor="middle" x="708.5" y="-340" font-family="Helvetica,sans-Serif" font-size="10.00"> controller</text>
<text text-anchor="middle" x="708.5" y="-329" font-family="Helvetica,sans-Serif" font-size="10.00">owner</text>
</g>
<!-- Node5&#45;&gt;Node1 -->
<g id="edge5" class="edge">
<title>Node5&#45;&gt;Node1</title>
<path fill="none" stroke="#9a32cd" stroke-dasharray="5,2" d="M663.76,-150.78C603.78,-157.45 513.7,-168.02 507,-172 491.94,-180.95 481.64,-199.45 476.59,-210.38"/>
<polygon fill="#9a32cd" stroke="#9a32cd" points="664.3,-154.24 673.85,-149.66 663.52,-147.29 664.3,-154.24"/>
<text text-anchor="middle" x="545" y="-179.5" font-family="Helvetica,sans-Serif" font-size="10.00"> abilityCooldowns</text>
</g>
<!-- Node5&#45;&gt;Node10 -->
<g id="edge17" class="edge">
<title>Node5&#45;&gt;Node10</title>
<path fill="none" stroke="#9a32cd" stroke-dasharray="5,2" d="M765.44,-131.54C777.81,-127.57 790.77,-122.45 802,-116 815.64,-108.16 828.64,-95.28 836.47,-86.72"/>
<polygon fill="#9a32cd" stroke="#9a32cd" points="764.26,-128.24 755.69,-134.48 766.28,-134.94 764.26,-128.24"/>
<text text-anchor="middle" x="841.5" y="-108" font-family="Helvetica,sans-Serif" font-size="10.00"> currentCD</text>
</g>
<!-- Node5&#45;&gt;Node11 -->
<g id="edge27" class="edge">
<title>Node5&#45;&gt;Node11</title>
<path fill="none" stroke="#9a32cd" stroke-dasharray="5,2" d="M663.78,-139.54C604.12,-135.21 511.36,-127.01 478,-116 468.73,-112.94 467.73,-109.35 459,-105 445.4,-98.23 429.68,-91.58 417.23,-86.58"/>
<polygon fill="#9a32cd" stroke="#9a32cd" points="663.56,-143.03 673.79,-140.25 664.06,-136.05 663.56,-143.03"/>
<text text-anchor="middle" x="516" y="-108" font-family="Helvetica,sans-Serif" font-size="10.00"> abilityCooldowns</text>
</g>
<!-- Node6 -->
<g id="node6" class="node">
<title>Node6</title>
<g id="a_node6"><a xlink:title=" ">
<polygon fill="white" stroke="#bfbfbf" points="681.5,-210.5 681.5,-229.5 716.5,-229.5 716.5,-210.5 681.5,-210.5"/>
<text text-anchor="middle" x="699" y="-217.5" font-family="Helvetica,sans-Serif" font-size="10.00">Text</text>
</a>
</g>
</g>
<!-- Node6&#45;&gt;Node5 -->
<g id="edge8" class="edge">
<title>Node6&#45;&gt;Node5</title>
<path fill="none" stroke="#9a32cd" stroke-dasharray="5,2" d="M697.12,-200.21C696.82,-191.46 697.29,-181.02 700,-172 701.97,-165.42 706.02,-158.88 709.68,-153.89"/>
<polygon fill="#9a32cd" stroke="#9a32cd" points="693.65,-200.74 697.84,-210.47 700.63,-200.25 693.65,-200.74"/>
<text text-anchor="middle" x="748.5" y="-179.5" font-family="Helvetica,sans-Serif" font-size="10.00"> coolDownTextDisplay</text>
</g>
<!-- Node7 -->
<g id="node7" class="node">
<title>Node7</title>
<g id="a_node7"><a xlink:href="class_ability.xhtml" target="_top" xlink:title=" ">
<polygon fill="white" stroke="black" points="965,-366.5 965,-385.5 1009,-385.5 1009,-366.5 965,-366.5"/>
<text text-anchor="middle" x="987" y="-373.5" font-family="Helvetica,sans-Serif" font-size="10.00">Ability</text>
</a>
</g>
</g>
<!-- Node7&#45;&gt;Node5 -->
<g id="edge9" class="edge">
<title>Node7&#45;&gt;Node5</title>
<path fill="none" stroke="#9a32cd" stroke-dasharray="5,2" d="M986.06,-356.23C984.44,-337.81 980.02,-309.44 968,-288 931.58,-223.01 912.92,-206.7 847,-172 820.08,-157.83 786.35,-151.09 760,-147.89"/>
<polygon fill="#9a32cd" stroke="#9a32cd" points="982.57,-356.53 986.75,-366.26 989.55,-356.04 982.57,-356.53"/>
<text text-anchor="middle" x="971.5" y="-256.5" font-family="Helvetica,sans-Serif" font-size="10.00"> ability</text>
</g>
<!-- Node7&#45;&gt;Node10 -->
<g id="edge16" class="edge">
<title>Node7&#45;&gt;Node10</title>
<path fill="none" stroke="#9a32cd" stroke-dasharray="5,2" d="M1000.99,-358.29C1011.83,-343.63 1025,-321.23 1025,-299 1025,-299 1025,-299 1025,-143 1025,-113.28 937.49,-93.47 884.17,-84.15"/>
<polygon fill="#9a32cd" stroke="#9a32cd" points="998.1,-356.32 994.69,-366.35 1003.61,-360.63 998.1,-356.32"/>
<text text-anchor="middle" x="1042" y="-217.5" font-family="Helvetica,sans-Serif" font-size="10.00"> current</text>
</g>
<!-- Node17 -->
<g id="node17" class="node">
<title>Node17</title>
<g id="a_node17"><a xlink:href="class_character.xhtml" target="_top" xlink:title=" ">
<polygon fill="white" stroke="black" points="899.5,-288.5 899.5,-307.5 958.5,-307.5 958.5,-288.5 899.5,-288.5"/>
<text text-anchor="middle" x="929" y="-295.5" font-family="Helvetica,sans-Serif" font-size="10.00">Character</text>
</a>
</g>
</g>
<!-- Node7&#45;&gt;Node17 -->
<g id="edge32" class="edge">
<title>Node7&#45;&gt;Node17</title>
<path fill="none" stroke="#9a32cd" stroke-dasharray="5,2" d="M955.52,-364.19C948.06,-360.2 940.86,-354.91 936,-348 927.6,-336.05 927.27,-318.36 927.99,-307.83"/>
<polygon fill="#9a32cd" stroke="#9a32cd" points="954.42,-367.54 964.97,-368.56 957.36,-361.18 954.42,-367.54"/>
<text text-anchor="middle" x="954.5" y="-334.5" font-family="Helvetica,sans-Serif" font-size="10.00"> abilities</text>
</g>
<!-- Node8 -->
<g id="node8" class="node">
<title>Node8</title>
<g id="a_node8"><a xlink:title=" ">
<polygon fill="white" stroke="#bfbfbf" points="906.5,-490.5 906.5,-509.5 995.5,-509.5 995.5,-490.5 906.5,-490.5"/>
<text text-anchor="middle" x="951" y="-497.5" font-family="Helvetica,sans-Serif" font-size="10.00">ScriptableObject</text>
</a>
</g>
</g>
<!-- Node8&#45;&gt;Node7 -->
<g id="edge10" class="edge">
<title>Node8&#45;&gt;Node7</title>
<path fill="none" stroke="midnightblue" d="M968.01,-483.12C983.39,-467.49 1004.97,-442.1 1014,-415 1015.55,-410.36 1015.87,-408.52 1014,-404 1010.96,-396.65 1004.83,-390.26 999.19,-385.54"/>
<polygon fill="midnightblue" stroke="midnightblue" points="965.32,-480.85 960.63,-490.36 970.22,-485.85 965.32,-480.85"/>
</g>
<!-- Node9 -->
<g id="node9" class="node">
<title>Node9</title>
<g id="a_node9"><a xlink:href="class_effect.xhtml" target="_top" xlink:title=" ">
<polygon fill="white" stroke="black" points="930.5,-433.5 930.5,-452.5 971.5,-452.5 971.5,-433.5 930.5,-433.5"/>
<text text-anchor="middle" x="951" y="-440.5" font-family="Helvetica,sans-Serif" font-size="10.00">Effect</text>
</a>
</g>
</g>
<!-- Node8&#45;&gt;Node9 -->
<g id="edge12" class="edge">
<title>Node8&#45;&gt;Node9</title>
<path fill="none" stroke="midnightblue" d="M951,-480.12C951,-470.82 951,-460.06 951,-452.71"/>
<polygon fill="midnightblue" stroke="midnightblue" points="947.5,-480.41 951,-490.41 954.5,-480.41 947.5,-480.41"/>
</g>
<!-- Node8&#45;&gt;Node17 -->
<g id="edge31" class="edge">
<title>Node8&#45;&gt;Node17</title>
<path fill="none" stroke="midnightblue" d="M936.73,-482.29C930.61,-474.05 924.15,-463.6 921,-453 905.13,-399.62 920.33,-331.32 926.59,-307.58"/>
<polygon fill="midnightblue" stroke="midnightblue" points="934.11,-484.62 943.06,-490.29 939.6,-480.28 934.11,-484.62"/>
</g>
<!-- Node9&#45;&gt;Node7 -->
<g id="edge11" class="edge">
<title>Node9&#45;&gt;Node7</title>
<path fill="none" stroke="#9a32cd" stroke-dasharray="5,2" d="M942.87,-423.86C941.13,-417.29 940.68,-410.01 944,-404 948.52,-395.82 956.67,-389.79 964.67,-385.52"/>
<polygon fill="#9a32cd" stroke="#9a32cd" points="939.61,-425.12 946.31,-433.33 946.19,-422.73 939.61,-425.12"/>
<text text-anchor="middle" x="979" y="-407" font-family="Helvetica,sans-Serif" font-size="10.00"> toAuthorEffects</text>
</g>
<!-- Node10&#45;&gt;Node5 -->
<g id="edge14" class="edge">
<title>Node10&#45;&gt;Node5</title>
<path fill="none" stroke="#9a32cd" stroke-dasharray="5,2" d="M793.85,-81.53C774.11,-85.07 752.3,-91.92 736,-105 726.68,-112.48 721.55,-125.71 719.03,-134.42"/>
<polygon fill="#9a32cd" stroke="#9a32cd" points="794.61,-84.95 803.95,-79.96 793.53,-78.04 794.61,-84.95"/>
<text text-anchor="middle" x="769" y="-108" font-family="Helvetica,sans-Serif" font-size="10.00"> abilityIndicator</text>
</g>
<!-- Node11&#45;&gt;Node1 -->
<g id="edge33" class="edge">
<title>Node11&#45;&gt;Node1</title>
<path fill="none" stroke="#9a32cd" stroke-dasharray="5,2" d="M419.09,-91.66C447.19,-107.65 489.97,-132.21 491,-134 495.43,-141.71 495.32,-146.23 491,-154 483.63,-167.26 469.37,-158.74 462,-172 455.24,-184.16 461.87,-200.31 467.37,-210.17"/>
<polygon fill="#9a32cd" stroke="#9a32cd" points="420.63,-88.51 410.2,-86.61 417.17,-94.6 420.63,-88.51"/>
<text text-anchor="middle" x="507.5" y="-141.5" font-family="Helvetica,sans-Serif" font-size="10.00"> stats</text>
</g>
<!-- Node11&#45;&gt;Node5 -->
<g id="edge18" class="edge">
<title>Node11&#45;&gt;Node5</title>
<path fill="none" stroke="#9a32cd" stroke-dasharray="5,2" d="M439.36,-81.93C472.59,-85.69 518.87,-92.68 558,-105 568.81,-108.4 570.25,-112.42 581,-116 611.27,-126.06 646.63,-132.94 673.72,-137.24"/>
<polygon fill="#9a32cd" stroke="#9a32cd" points="439.37,-78.41 429.05,-80.82 438.62,-85.37 439.37,-78.41"/>
<text text-anchor="middle" x="607.5" y="-108" font-family="Helvetica,sans-Serif" font-size="10.00"> playerStats</text>
</g>
<!-- Node11&#45;&gt;Node18 -->
<g id="edge40" class="edge">
<title>Node11&#45;&gt;Node18</title>
<path fill="none" stroke="#9a32cd" stroke-dasharray="5,2" d="M352.36,-64.82C303.39,-51.99 224.12,-31.21 179.75,-19.58"/>
<polygon fill="#9a32cd" stroke="#9a32cd" points="351.76,-68.29 362.32,-67.44 353.54,-61.51 351.76,-68.29"/>
<text text-anchor="middle" x="298.5" y="-41" font-family="Helvetica,sans-Serif" font-size="10.00"> stats</text>
</g>
<!-- Node12 -->
<g id="node12" class="node">
<title>Node12</title>
<g id="a_node12"><a xlink:href="class_ability_affected_stats.xhtml" target="_top" xlink:title="Base class Stats of the entity who is affected by Abilities.">
<polygon fill="white" stroke="black" points="285,-134.5 285,-153.5 387,-153.5 387,-134.5 285,-134.5"/>
<text text-anchor="middle" x="336" y="-141.5" font-family="Helvetica,sans-Serif" font-size="10.00">AbilityAffectedStats</text>
</a>
</g>
</g>
<!-- Node12&#45;&gt;Node11 -->
<g id="edge19" class="edge">
<title>Node12&#45;&gt;Node11</title>
<path fill="none" stroke="midnightblue" d="M350.85,-126.63C362.39,-113.92 377.94,-96.8 387.17,-86.63"/>
<polygon fill="midnightblue" stroke="midnightblue" points="348.09,-124.48 343.96,-134.23 353.27,-129.18 348.09,-124.48"/>
</g>
<!-- Node13&#45;&gt;Node12 -->
<g id="edge20" class="edge">
<title>Node13&#45;&gt;Node12</title>
<path fill="none" stroke="midnightblue" d="M326.33,-200.07C328.94,-185.18 332.47,-165.11 334.46,-153.77"/>
<polygon fill="midnightblue" stroke="midnightblue" points="322.83,-199.77 324.54,-210.22 329.72,-200.98 322.83,-199.77"/>
</g>
<!-- Node13&#45;&gt;Node18 -->
<g id="edge38" class="edge">
<title>Node13&#45;&gt;Node18</title>
<path fill="none" stroke="#9a32cd" stroke-dasharray="5,2" d="M292.46,-219.93C256.43,-219.79 195.65,-215.58 150,-192 129.06,-181.18 84.88,-137.84 76,-116 59.93,-76.45 108.99,-36.54 133.7,-19.53"/>
<polygon fill="#9a32cd" stroke="#9a32cd" points="292.83,-223.43 302.81,-219.86 292.79,-216.43 292.83,-223.43"/>
<text text-anchor="middle" x="100.5" y="-108" font-family="Helvetica,sans-Serif" font-size="10.00"> otherStats</text>
</g>
<!-- Node14 -->
<g id="node14" class="node">
<title>Node14</title>
<g id="a_node14"><a xlink:href="class_player_u_i_controller.xhtml" target="_top" xlink:title="UI Controller for the Player Stats">
<polygon fill="white" stroke="black" points="177.5,-172.5 177.5,-191.5 272.5,-191.5 272.5,-172.5 177.5,-172.5"/>
<text text-anchor="middle" x="225" y="-179.5" font-family="Helvetica,sans-Serif" font-size="10.00">PlayerUIController</text>
</a>
</g>
</g>
<!-- Node14&#45;&gt;Node11 -->
<g id="edge23" class="edge">
<title>Node14&#45;&gt;Node11</title>
<path fill="none" stroke="#9a32cd" stroke-dasharray="5,2" d="M224.37,-162.2C225.01,-152.74 227.36,-141.68 234,-134 266.02,-96.94 323.93,-84.39 360.87,-80.15"/>
<polygon fill="#9a32cd" stroke="#9a32cd" points="220.87,-162.23 224.24,-172.27 227.86,-162.31 220.87,-162.23"/>
<text text-anchor="middle" x="255" y="-141.5" font-family="Helvetica,sans-Serif" font-size="10.00"> uiControl</text>
</g>
<!-- Node15&#45;&gt;Node14 -->
<g id="edge24" class="edge">
<title>Node15&#45;&gt;Node14</title>
<path fill="none" stroke="midnightblue" d="M193.92,-278.74C202.01,-253.83 216.18,-210.16 222.19,-191.67"/>
<polygon fill="midnightblue" stroke="midnightblue" points="190.54,-277.84 190.78,-288.43 197.2,-280 190.54,-277.84"/>
</g>
<!-- Node16&#45;&gt;Node11 -->
<g id="edge28" class="edge">
<title>Node16&#45;&gt;Node11</title>
<path fill="none" stroke="#9a32cd" stroke-dasharray="5,2" d="M97.7,-239.38C101.28,-220.5 109.22,-191.36 126,-172 186.74,-101.9 302.81,-84.06 360.58,-79.53"/>
<polygon fill="#9a32cd" stroke="#9a32cd" points="94.22,-238.97 96.03,-249.4 101.12,-240.12 94.22,-238.97"/>
<text text-anchor="middle" x="147" y="-179.5" font-family="Helvetica,sans-Serif" font-size="10.00"> inventory</text>
</g>
<!-- Node17&#45;&gt;Node1 -->
<g id="edge30" class="edge">
<title>Node17&#45;&gt;Node1</title>
<path fill="none" stroke="#9a32cd" stroke-dasharray="5,2" d="M889.39,-290.4C804.2,-276.2 604.17,-242.86 516.02,-228.17"/>
<polygon fill="#9a32cd" stroke="#9a32cd" points="888.99,-293.88 899.43,-292.07 890.14,-286.98 888.99,-293.88"/>
<text text-anchor="middle" x="779" y="-262" font-family="Helvetica,sans-Serif" font-size="10.00"> character</text>
<text text-anchor="middle" x="779" y="-251" font-family="Helvetica,sans-Serif" font-size="10.00">characters</text>
</g>
<!-- Node17&#45;&gt;Node18 -->
<g id="edge39" class="edge">
<title>Node17&#45;&gt;Node18</title>
<path fill="none" stroke="#9a32cd" stroke-dasharray="5,2" d="M930.17,-277.84C931.02,-262.48 932,-240.36 932,-221 932,-221 932,-221 932,-76 932,-37.84 335,-16.8 182.25,-12.05"/>
<polygon fill="#9a32cd" stroke="#9a32cd" points="926.66,-277.93 929.58,-288.11 933.65,-278.33 926.66,-277.93"/>
<text text-anchor="middle" x="954" y="-141.5" font-family="Helvetica,sans-Serif" font-size="10.00"> character</text>
</g>
<!-- Node18&#45;&gt;Node1 -->
<g id="edge34" class="edge">
<title>Node18&#45;&gt;Node1</title>
<path fill="none" stroke="#9a32cd" stroke-dasharray="5,2" d="M192.39,-12.62C302.47,-17.62 578.66,-36.84 634,-105 656.63,-132.87 511.42,-145.69 487,-172 477.15,-182.61 474.21,-199.85 473.34,-210.24"/>
<polygon fill="#9a32cd" stroke="#9a32cd" points="192.41,-9.12 182.27,-12.18 192.11,-16.12 192.41,-9.12"/>
<text text-anchor="middle" x="664.5" y="-108" font-family="Helvetica,sans-Serif" font-size="10.00"> basicAttack</text>
</g>
</g>
</svg>
