<?xml version="1.0" encoding="UTF-8" standalone="no"?>
<!DOCTYPE svg PUBLIC "-//W3C//DTD SVG 1.1//EN"
 "http://www.w3.org/Graphics/SVG/1.1/DTD/svg11.dtd">
<!-- Generated by graphviz version 2.47.3 (20210619.1520)
 -->
<!-- Title: UIController.InitializeColors Pages: 1 -->
<svg width="458pt" height="66pt"
 viewBox="0.00 0.00 458.00 66.00" xmlns="http://www.w3.org/2000/svg" xmlns:xlink="http://www.w3.org/1999/xlink">
<g id="graph0" class="graph" transform="scale(1 1) rotate(0) translate(4 62)">
<title>UIController.InitializeColors</title>
<!-- Node1 -->
<g id="node1" class="node">
<title>Node1</title>
<g id="a_node1"><a xlink:title=" ">
<polygon fill="#bfbfbf" stroke="black" points="317,-19.5 317,-38.5 450,-38.5 450,-19.5 317,-19.5"/>
<text text-anchor="middle" x="383.5" y="-26.5" font-family="Helvetica,sans-Serif" font-size="10.00">UIController.InitializeColors</text>
</a>
</g>
</g>
<!-- Node2 -->
<g id="node2" class="node">
<title>Node2</title>
<g id="a_node2"><a xlink:href="class_structure_stats.html#a9288d34a28aecd99033a0f2998df3a21" target="_top" xlink:title=" ">
<polygon fill="none" stroke="black" points="164,-38.5 164,-57.5 281,-57.5 281,-38.5 164,-38.5"/>
<text text-anchor="middle" x="222.5" y="-45.5" font-family="Helvetica,sans-Serif" font-size="10.00">StructureStats.Activate</text>
</a>
</g>
</g>
<!-- Node1&#45;&gt;Node2 -->
<g id="edge1" class="edge">
<title>Node1&#45;&gt;Node2</title>
<path fill="none" stroke="midnightblue" d="M306.8,-38.05C298.14,-39.08 289.43,-40.12 281.06,-41.12"/>
<polygon fill="midnightblue" stroke="midnightblue" points="307.4,-41.5 316.91,-36.84 306.57,-34.55 307.4,-41.5"/>
</g>
<!-- Node4 -->
<g id="node4" class="node">
<title>Node4</title>
<g id="a_node4"><a xlink:href="class_minion_stats.html#aa5a0ca66d4dd72c3e70c7ae9ee8e6cb8" target="_top" xlink:title=" ">
<polygon fill="none" stroke="black" points="169,-0.5 169,-19.5 276,-19.5 276,-0.5 169,-0.5"/>
<text text-anchor="middle" x="222.5" y="-7.5" font-family="Helvetica,sans-Serif" font-size="10.00">MinionStats.Initialize</text>
</a>
</g>
</g>
<!-- Node1&#45;&gt;Node4 -->
<g id="edge3" class="edge">
<title>Node1&#45;&gt;Node4</title>
<path fill="none" stroke="midnightblue" d="M306.7,-19.94C296.43,-18.71 286.08,-17.48 276.33,-16.31"/>
<polygon fill="midnightblue" stroke="midnightblue" points="306.57,-23.45 316.91,-21.16 307.4,-16.5 306.57,-23.45"/>
</g>
<!-- Node3 -->
<g id="node3" class="node">
<title>Node3</title>
<g id="a_node3"><a xlink:href="class_structure_stats.html#a47d6bbbce7de8a935120066f849d8bd4" target="_top" xlink:title="Function that implements what is done when this entity dies.">
<polygon fill="none" stroke="black" points="15.5,-38.5 15.5,-57.5 112.5,-57.5 112.5,-38.5 15.5,-38.5"/>
<text text-anchor="middle" x="64" y="-45.5" font-family="Helvetica,sans-Serif" font-size="10.00">StructureStats.Die</text>
</a>
</g>
</g>
<!-- Node2&#45;&gt;Node3 -->
<g id="edge2" class="edge">
<title>Node2&#45;&gt;Node3</title>
<path fill="none" stroke="midnightblue" d="M153.34,-48C139.7,-48 125.64,-48 112.86,-48"/>
<polygon fill="midnightblue" stroke="midnightblue" points="153.67,-51.5 163.67,-48 153.67,-44.5 153.67,-51.5"/>
</g>
<!-- Node5 -->
<g id="node5" class="node">
<title>Node5</title>
<g id="a_node5"><a xlink:href="class_minion_stats.html#a6d9ddd98313b1be90a14a331602409bf" target="_top" xlink:title="When this entity dies, it gives to the killer this bounty">
<polygon fill="none" stroke="black" points="0,-0.5 0,-19.5 128,-19.5 128,-0.5 0,-0.5"/>
<text text-anchor="middle" x="64" y="-7.5" font-family="Helvetica,sans-Serif" font-size="10.00">MinionStats.GiveRewards</text>
</a>
</g>
</g>
<!-- Node4&#45;&gt;Node5 -->
<g id="edge4" class="edge">
<title>Node4&#45;&gt;Node5</title>
<path fill="none" stroke="midnightblue" d="M158.67,-10C148.66,-10 138.29,-10 128.26,-10"/>
<polygon fill="midnightblue" stroke="midnightblue" points="158.95,-13.5 168.95,-10 158.95,-6.5 158.95,-13.5"/>
</g>
</g>
</svg>
