<?xml version="1.0" encoding="UTF-8" standalone="no"?>
<!DOCTYPE svg PUBLIC "-//W3C//DTD SVG 1.1//EN"
 "http://www.w3.org/Graphics/SVG/1.1/DTD/svg11.dtd">
<!-- Generated by graphviz version 2.47.3 (20210619.1520)
 -->
<!-- Title: RespawnCanvas.Update Pages: 1 -->
<svg width="871pt" height="179pt"
 viewBox="0.00 0.00 871.00 178.50" xmlns="http://www.w3.org/2000/svg" xmlns:xlink="http://www.w3.org/1999/xlink">
<g id="graph0" class="graph" transform="scale(1 1) rotate(0) translate(4 174.5)">
<title>RespawnCanvas.Update</title>
<!-- Node1 -->
<g id="node1" class="node">
<title>Node1</title>
<g id="a_node1"><a xlink:title=" ">
<polygon fill="#bfbfbf" stroke="black" points="0,-101.5 0,-120.5 122,-120.5 122,-101.5 0,-101.5"/>
<text text-anchor="middle" x="61" y="-108.5" font-family="Helvetica,sans-Serif" font-size="10.00">RespawnCanvas.Update</text>
</a>
</g>
</g>
<!-- Node2 -->
<g id="node2" class="node">
<title>Node2</title>
<g id="a_node2"><a xlink:href="class_respawn_canvas.html#a5936d81c38156d99c5e38554d6bd7100" target="_top" xlink:title="Returns the instant respawn gold cost for a given count.">
<polygon fill="none" stroke="black" points="158,-140 158,-170 304,-170 304,-140 158,-140"/>
<text text-anchor="start" x="166" y="-158" font-family="Helvetica,sans-Serif" font-size="10.00">RespawnCanvas.GetRespawn</text>
<text text-anchor="middle" x="231" y="-147" font-family="Helvetica,sans-Serif" font-size="10.00">GoldCost</text>
</a>
</g>
</g>
<!-- Node1&#45;&gt;Node2 -->
<g id="edge1" class="edge">
<title>Node1&#45;&gt;Node2</title>
<path fill="none" stroke="midnightblue" d="M98.45,-120.55C117.2,-125.46 140.66,-131.6 162.55,-137.33"/>
<polygon fill="midnightblue" stroke="midnightblue" points="161.92,-140.79 172.48,-139.93 163.69,-134.02 161.92,-140.79"/>
</g>
<!-- Node3 -->
<g id="node3" class="node">
<title>Node3</title>
<g id="a_node3"><a xlink:href="class_inventory.html#a082ecfd863641ad40a7582834e3d786e" target="_top" xlink:title=" ">
<polygon fill="none" stroke="black" points="167,-101.5 167,-120.5 295,-120.5 295,-101.5 167,-101.5"/>
<text text-anchor="middle" x="231" y="-108.5" font-family="Helvetica,sans-Serif" font-size="10.00">Inventory.HasEnoughGold</text>
</a>
</g>
</g>
<!-- Node1&#45;&gt;Node3 -->
<g id="edge2" class="edge">
<title>Node1&#45;&gt;Node3</title>
<path fill="none" stroke="midnightblue" d="M122.18,-111C133.39,-111 145.22,-111 156.78,-111"/>
<polygon fill="midnightblue" stroke="midnightblue" points="156.84,-114.5 166.84,-111 156.84,-107.5 156.84,-114.5"/>
</g>
<!-- Node4 -->
<g id="node4" class="node">
<title>Node4</title>
<g id="a_node4"><a xlink:href="class_player_stats.html#a27fb46ca044608f34db45eb95ac16b4c" target="_top" xlink:title="This is triggered when the player respawns.">
<polygon fill="none" stroke="black" points="176,-63.5 176,-82.5 286,-82.5 286,-63.5 176,-63.5"/>
<text text-anchor="middle" x="231" y="-70.5" font-family="Helvetica,sans-Serif" font-size="10.00">PlayerStats.Respawn</text>
</a>
</g>
</g>
<!-- Node1&#45;&gt;Node4 -->
<g id="edge3" class="edge">
<title>Node1&#45;&gt;Node4</title>
<path fill="none" stroke="midnightblue" d="M104.39,-101.41C126.76,-96.35 154.4,-90.1 178.05,-84.75"/>
<polygon fill="midnightblue" stroke="midnightblue" points="178.93,-88.14 187.91,-82.52 177.39,-81.31 178.93,-88.14"/>
</g>
<!-- Node5 -->
<g id="node5" class="node">
<title>Node5</title>
<g id="a_node5"><a xlink:href="class_player_stats.html#ae2c6a9d91ac8ff99b7f0dc32079f1931" target="_top" xlink:title=" ">
<polygon fill="none" stroke="black" points="356.5,-85.5 356.5,-104.5 466.5,-104.5 466.5,-85.5 356.5,-85.5"/>
<text text-anchor="middle" x="411.5" y="-92.5" font-family="Helvetica,sans-Serif" font-size="10.00">PlayerStats.HealRPC</text>
</a>
</g>
</g>
<!-- Node4&#45;&gt;Node5 -->
<g id="edge4" class="edge">
<title>Node4&#45;&gt;Node5</title>
<path fill="none" stroke="midnightblue" d="M286.04,-79.66C305,-82 326.49,-84.65 346.21,-87.08"/>
<polygon fill="midnightblue" stroke="midnightblue" points="345.98,-90.57 356.34,-88.32 346.84,-83.63 345.98,-90.57"/>
</g>
<!-- Node9 -->
<g id="node9" class="node">
<title>Node9</title>
<g id="a_node9"><a xlink:href="class_player_stats.html#a0348bfd846a1fb5122239414e9ec558b" target="_top" xlink:title=" ">
<polygon fill="none" stroke="black" points="340,-44.5 340,-63.5 483,-63.5 483,-44.5 340,-44.5"/>
<text text-anchor="middle" x="411.5" y="-51.5" font-family="Helvetica,sans-Serif" font-size="10.00">PlayerStats.RegenManaRPC</text>
</a>
</g>
</g>
<!-- Node4&#45;&gt;Node9 -->
<g id="edge8" class="edge">
<title>Node4&#45;&gt;Node9</title>
<path fill="none" stroke="midnightblue" d="M286.04,-67.25C299.8,-65.78 314.88,-64.18 329.66,-62.61"/>
<polygon fill="midnightblue" stroke="midnightblue" points="330.24,-66.06 339.82,-61.52 329.5,-59.1 330.24,-66.06"/>
</g>
<!-- Node6 -->
<g id="node6" class="node">
<title>Node6</title>
<g id="a_node6"><a xlink:href="class_player_h_u_d_controller.html#ab2461120d3cfef6e83b38062b1373e04" target="_top" xlink:title=" ">
<polygon fill="none" stroke="black" points="520,-88.5 520,-107.5 673,-107.5 673,-88.5 520,-88.5"/>
<text text-anchor="middle" x="596.5" y="-95.5" font-family="Helvetica,sans-Serif" font-size="10.00">PlayerHUDController.UpdateHP</text>
</a>
</g>
</g>
<!-- Node5&#45;&gt;Node6 -->
<g id="edge5" class="edge">
<title>Node5&#45;&gt;Node6</title>
<path fill="none" stroke="midnightblue" d="M466.91,-95.89C480.44,-96.11 495.26,-96.36 509.89,-96.6"/>
<polygon fill="midnightblue" stroke="midnightblue" points="509.91,-100.1 519.96,-96.76 510.02,-93.1 509.91,-100.1"/>
</g>
<!-- Node7 -->
<g id="node7" class="node">
<title>Node7</title>
<g id="a_node7"><a xlink:href="class_utils.html#a459472171f68c903c975020cc5b02fee" target="_top" xlink:title="Calculates the actual normalized fill amount for the image.">
<polygon fill="none" stroke="black" points="723.5,-44.5 723.5,-63.5 849.5,-63.5 849.5,-44.5 723.5,-44.5"/>
<text text-anchor="middle" x="786.5" y="-51.5" font-family="Helvetica,sans-Serif" font-size="10.00">Utils.CalculateFillAmount</text>
</a>
</g>
</g>
<!-- Node6&#45;&gt;Node7 -->
<g id="edge6" class="edge">
<title>Node6&#45;&gt;Node7</title>
<path fill="none" stroke="midnightblue" d="M638.29,-88.45C666.62,-81.82 704.57,-72.94 734.84,-65.86"/>
<polygon fill="midnightblue" stroke="midnightblue" points="735.85,-69.22 744.79,-63.53 734.25,-62.4 735.85,-69.22"/>
</g>
<!-- Node8 -->
<g id="node8" class="node">
<title>Node8</title>
<g id="a_node8"><a xlink:href="class_player_h_u_d_controller.html#ad2c7c75671ae997600550e725a75e136" target="_top" xlink:title=" ">
<polygon fill="none" stroke="black" points="710,-88.5 710,-107.5 863,-107.5 863,-88.5 710,-88.5"/>
<text text-anchor="middle" x="786.5" y="-95.5" font-family="Helvetica,sans-Serif" font-size="10.00">PlayerHUDController.ResetLerp</text>
</a>
</g>
</g>
<!-- Node6&#45;&gt;Node8 -->
<g id="edge7" class="edge">
<title>Node6&#45;&gt;Node8</title>
<path fill="none" stroke="midnightblue" d="M673.15,-98C681.81,-98 690.68,-98 699.45,-98"/>
<polygon fill="midnightblue" stroke="midnightblue" points="699.69,-101.5 709.69,-98 699.69,-94.5 699.69,-101.5"/>
</g>
<!-- Node10 -->
<g id="node10" class="node">
<title>Node10</title>
<g id="a_node10"><a xlink:href="class_player_u_i_controller.html#ac7bf7455ce00b144f6a1678e524819b2" target="_top" xlink:title="Sets the current MP value to the Image.">
<polygon fill="none" stroke="black" points="532.5,-39 532.5,-69 660.5,-69 660.5,-39 532.5,-39"/>
<text text-anchor="start" x="540.5" y="-57" font-family="Helvetica,sans-Serif" font-size="10.00">PlayerUIController.Update</text>
<text text-anchor="middle" x="596.5" y="-46" font-family="Helvetica,sans-Serif" font-size="10.00">CurrentMana</text>
</a>
</g>
</g>
<!-- Node9&#45;&gt;Node10 -->
<g id="edge9" class="edge">
<title>Node9&#45;&gt;Node10</title>
<path fill="none" stroke="midnightblue" d="M483.25,-54C496.03,-54 509.38,-54 522.22,-54"/>
<polygon fill="midnightblue" stroke="midnightblue" points="522.4,-57.5 532.4,-54 522.4,-50.5 522.4,-57.5"/>
</g>
<!-- Node11 -->
<g id="node11" class="node">
<title>Node11</title>
<g id="a_node11"><a xlink:href="class_player_h_u_d_controller.html#a09d27238c0e659b8f98828367c7622ba" target="_top" xlink:title=" ">
<polygon fill="none" stroke="black" points="519,-0.5 519,-19.5 674,-19.5 674,-0.5 519,-0.5"/>
<text text-anchor="middle" x="596.5" y="-7.5" font-family="Helvetica,sans-Serif" font-size="10.00">PlayerHUDController.UpdateMP</text>
</a>
</g>
</g>
<!-- Node9&#45;&gt;Node11 -->
<g id="edge11" class="edge">
<title>Node9&#45;&gt;Node11</title>
<path fill="none" stroke="midnightblue" d="M452.21,-44.45C479.67,-37.85 516.4,-29.02 545.8,-21.95"/>
<polygon fill="midnightblue" stroke="midnightblue" points="546.96,-25.27 555.87,-19.53 545.33,-18.46 546.96,-25.27"/>
</g>
<!-- Node10&#45;&gt;Node7 -->
<g id="edge10" class="edge">
<title>Node10&#45;&gt;Node7</title>
<path fill="none" stroke="midnightblue" d="M660.62,-54C677.48,-54 695.82,-54 713.13,-54"/>
<polygon fill="midnightblue" stroke="midnightblue" points="713.18,-57.5 723.18,-54 713.18,-50.5 713.18,-57.5"/>
</g>
<!-- Node11&#45;&gt;Node7 -->
<g id="edge12" class="edge">
<title>Node11&#45;&gt;Node7</title>
<path fill="none" stroke="midnightblue" d="M638.29,-19.55C666.62,-26.18 704.57,-35.06 734.84,-42.14"/>
<polygon fill="midnightblue" stroke="midnightblue" points="734.25,-45.6 744.79,-44.47 735.85,-38.78 734.25,-45.6"/>
</g>
</g>
</svg>
