<?xml version="1.0" encoding="UTF-8" standalone="no"?>
<!DOCTYPE svg PUBLIC "-//W3C//DTD SVG 1.1//EN"
 "http://www.w3.org/Graphics/SVG/1.1/DTD/svg11.dtd">
<!-- Generated by graphviz version 2.47.3 (20210619.1520)
 -->
<!-- Title: Ability_Dash Pages: 1 -->
<svg width="1421pt" height="415pt"
 viewBox="0.00 0.00 1421.00 415.00" xmlns="http://www.w3.org/2000/svg" xmlns:xlink="http://www.w3.org/1999/xlink">
<g id="graph0" class="graph" transform="scale(1 1) rotate(0) translate(4 411)">
<title>Ability_Dash</title>
<polygon fill="white" stroke="transparent" points="-4,4 -4,-411 1417,-411 1417,4 -4,4"/>
<!-- Node1 -->
<g id="node1" class="node">
<title>Node1</title>
<g id="a_node1"><a xlink:title=" ">
<polygon fill="#bfbfbf" stroke="black" points="1173.5,-49.5 1173.5,-68.5 1244.5,-68.5 1244.5,-49.5 1173.5,-49.5"/>
<text text-anchor="middle" x="1209" y="-56.5" font-family="Helvetica,sans-Serif" font-size="10.00">Ability_Dash</text>
</a>
</g>
</g>
<!-- Node2 -->
<g id="node2" class="node">
<title>Node2</title>
<g id="a_node2"><a xlink:href="class_indicated_ability.xhtml" target="_top" xlink:title="Encapsulador de les Ability que han de mostrar l&#39;indicador">
<polygon fill="white" stroke="black" points="434,-140.5 434,-159.5 517,-159.5 517,-140.5 434,-140.5"/>
<text text-anchor="middle" x="475.5" y="-147.5" font-family="Helvetica,sans-Serif" font-size="10.00">IndicatedAbility</text>
</a>
</g>
</g>
<!-- Node2&#45;&gt;Node1 -->
<g id="edge1" class="edge">
<title>Node2&#45;&gt;Node1</title>
<path fill="none" stroke="midnightblue" d="M484.64,-130.82C503.23,-90.37 552.94,0 626,0 626,0 626,0 1022,0 1086.54,0 1158.02,-32.67 1190.38,-49.39"/>
<polygon fill="midnightblue" stroke="midnightblue" points="481.35,-129.6 480.49,-140.16 487.75,-132.44 481.35,-129.6"/>
</g>
<!-- Node14 -->
<g id="node14" class="node">
<title>Node14</title>
<g id="a_node14"><a xlink:href="class_ability_indicator.xhtml" target="_top" xlink:title=" ">
<polygon fill="white" stroke="black" points="587,-162.5 587,-181.5 667,-181.5 667,-162.5 587,-162.5"/>
<text text-anchor="middle" x="627" y="-169.5" font-family="Helvetica,sans-Serif" font-size="10.00">AbilityIndicator</text>
</a>
</g>
</g>
<!-- Node2&#45;&gt;Node14 -->
<g id="edge23" class="edge">
<title>Node2&#45;&gt;Node14</title>
<path fill="none" stroke="#9a32cd" stroke-dasharray="5,2" d="M527.26,-157.47C546.69,-160.33 568.55,-163.55 586.75,-166.22"/>
<polygon fill="#9a32cd" stroke="#9a32cd" points="527.75,-154 517.35,-156.01 526.74,-160.93 527.75,-154"/>
<text text-anchor="middle" x="552" y="-165" font-family="Helvetica,sans-Serif" font-size="10.00"> current</text>
</g>
<!-- Node3 -->
<g id="node3" class="node">
<title>Node3</title>
<g id="a_node3"><a xlink:href="class_ability.xhtml" target="_top" xlink:title=" ">
<polygon fill="white" stroke="black" points="299,-96.5 299,-115.5 343,-115.5 343,-96.5 299,-96.5"/>
<text text-anchor="middle" x="321" y="-103.5" font-family="Helvetica,sans-Serif" font-size="10.00">Ability</text>
</a>
</g>
</g>
<!-- Node3&#45;&gt;Node2 -->
<g id="edge2" class="edge">
<title>Node3&#45;&gt;Node2</title>
<path fill="none" stroke="midnightblue" d="M352.83,-114.89C378.55,-122.32 415.13,-132.87 441.45,-140.46"/>
<polygon fill="midnightblue" stroke="midnightblue" points="353.78,-111.53 343.2,-112.12 351.84,-118.25 353.78,-111.53"/>
</g>
<!-- Node13 -->
<g id="node13" class="node">
<title>Node13</title>
<g id="a_node13"><a xlink:href="class_ability_cooldown.xhtml" target="_top" xlink:title=" ">
<polygon fill="white" stroke="black" points="777,-165.5 777,-184.5 863,-184.5 863,-165.5 777,-165.5"/>
<text text-anchor="middle" x="820" y="-172.5" font-family="Helvetica,sans-Serif" font-size="10.00">AbilityCooldown</text>
</a>
</g>
</g>
<!-- Node3&#45;&gt;Node13 -->
<g id="edge19" class="edge">
<title>Node3&#45;&gt;Node13</title>
<path fill="none" stroke="#9a32cd" stroke-dasharray="5,2" d="M353.42,-106.55C424.93,-108.37 604.95,-116.23 751,-150 766.93,-153.68 784.22,-160.07 797.37,-165.47"/>
<polygon fill="#9a32cd" stroke="#9a32cd" points="353.37,-103.04 343.29,-106.31 353.2,-110.04 353.37,-103.04"/>
<text text-anchor="middle" x="552" y="-123" font-family="Helvetica,sans-Serif" font-size="10.00"> ability</text>
</g>
<!-- Node15 -->
<g id="node15" class="node">
<title>Node15</title>
<g id="a_node15"><a xlink:href="class_character.xhtml" target="_top" xlink:title=" ">
<polygon fill="white" stroke="black" points="446,-37.5 446,-56.5 505,-56.5 505,-37.5 446,-37.5"/>
<text text-anchor="middle" x="475.5" y="-44.5" font-family="Helvetica,sans-Serif" font-size="10.00">Character</text>
</a>
</g>
</g>
<!-- Node3&#45;&gt;Node15 -->
<g id="edge27" class="edge">
<title>Node3&#45;&gt;Node15</title>
<path fill="none" stroke="#9a32cd" stroke-dasharray="5,2" d="M352.03,-92.35C360.68,-88.55 370.17,-84.5 379,-81 401.25,-72.17 426.81,-63.13 445.89,-56.59"/>
<polygon fill="#9a32cd" stroke="#9a32cd" points="350.41,-89.24 342.7,-96.5 353.26,-95.64 350.41,-89.24"/>
<text text-anchor="middle" x="397.5" y="-84" font-family="Helvetica,sans-Serif" font-size="10.00"> abilities</text>
</g>
<!-- Node4 -->
<g id="node4" class="node">
<title>Node4</title>
<g id="a_node4"><a xlink:title=" ">
<polygon fill="white" stroke="#bfbfbf" points="0,-78.5 0,-97.5 89,-97.5 89,-78.5 0,-78.5"/>
<text text-anchor="middle" x="44.5" y="-85.5" font-family="Helvetica,sans-Serif" font-size="10.00">ScriptableObject</text>
</a>
</g>
</g>
<!-- Node4&#45;&gt;Node3 -->
<g id="edge3" class="edge">
<title>Node4&#45;&gt;Node3</title>
<path fill="none" stroke="midnightblue" d="M99.5,-91.54C160.38,-95.53 256.38,-101.83 298.73,-104.61"/>
<polygon fill="midnightblue" stroke="midnightblue" points="99.51,-88.03 89.3,-90.87 99.05,-95.02 99.51,-88.03"/>
</g>
<!-- Node5 -->
<g id="node5" class="node">
<title>Node5</title>
<g id="a_node5"><a xlink:href="class_effect.xhtml" target="_top" xlink:title="Abstract base info container class for an Effect.">
<polygon fill="white" stroke="black" points="126,-116.5 126,-135.5 167,-135.5 167,-116.5 126,-116.5"/>
<text text-anchor="middle" x="146.5" y="-123.5" font-family="Helvetica,sans-Serif" font-size="10.00">Effect</text>
</a>
</g>
</g>
<!-- Node4&#45;&gt;Node5 -->
<g id="edge5" class="edge">
<title>Node4&#45;&gt;Node5</title>
<path fill="none" stroke="midnightblue" d="M80.4,-101.26C95.67,-107.06 113.01,-113.65 125.95,-118.57"/>
<polygon fill="midnightblue" stroke="midnightblue" points="81.33,-97.87 70.73,-97.59 78.84,-104.41 81.33,-97.87"/>
</g>
<!-- Node4&#45;&gt;Node15 -->
<g id="edge26" class="edge">
<title>Node4&#45;&gt;Node15</title>
<path fill="none" stroke="midnightblue" d="M99.61,-82.83C191.6,-74.04 375.37,-56.47 445.97,-49.73"/>
<polygon fill="midnightblue" stroke="midnightblue" points="99.02,-79.37 89.39,-83.8 99.68,-86.34 99.02,-79.37"/>
</g>
<!-- Node5&#45;&gt;Node2 -->
<g id="edge6" class="edge">
<title>Node5&#45;&gt;Node2</title>
<path fill="none" stroke="#9a32cd" stroke-dasharray="5,2" d="M177.16,-134.53C179.8,-135.1 182.44,-135.6 185,-136 273,-149.7 377.71,-151.15 433.95,-150.74"/>
<polygon fill="#9a32cd" stroke="#9a32cd" points="177.73,-131.06 167.18,-132.09 176.07,-137.86 177.73,-131.06"/>
<text text-anchor="middle" x="321" y="-152" font-family="Helvetica,sans-Serif" font-size="10.00"> aToEnemyEffects</text>
</g>
<!-- Node5&#45;&gt;Node3 -->
<g id="edge4" class="edge">
<title>Node5&#45;&gt;Node3</title>
<path fill="none" stroke="#9a32cd" stroke-dasharray="5,2" d="M177.3,-122.54C211.97,-118.52 268.35,-111.99 298.83,-108.45"/>
<polygon fill="#9a32cd" stroke="#9a32cd" points="176.82,-119.08 167.29,-123.71 177.62,-126.03 176.82,-119.08"/>
<text text-anchor="middle" x="224" y="-124" font-family="Helvetica,sans-Serif" font-size="10.00"> aToAuthorEffects</text>
</g>
<!-- Node6 -->
<g id="node6" class="node">
<title>Node6</title>
<g id="a_node6"><a xlink:href="class_player_stats.xhtml" target="_top" xlink:title="Player Stats is the main class that controls all the Player Statistics in all time in the game execut...">
<polygon fill="white" stroke="black" points="987,-240.5 987,-259.5 1055,-259.5 1055,-240.5 987,-240.5"/>
<text text-anchor="middle" x="1021" y="-247.5" font-family="Helvetica,sans-Serif" font-size="10.00">PlayerStats</text>
</a>
</g>
</g>
<!-- Node6&#45;&gt;Node1 -->
<g id="edge7" class="edge">
<title>Node6&#45;&gt;Node1</title>
<path fill="none" stroke="#9a32cd" stroke-dasharray="5,2" d="M1036.72,-232.39C1047.6,-219.57 1062.9,-201.92 1077,-187 1120.25,-141.25 1174.96,-89.7 1197.53,-68.69"/>
<polygon fill="#9a32cd" stroke="#9a32cd" points="1033.74,-230.5 1029.97,-240.4 1039.09,-235.01 1033.74,-230.5"/>
<text text-anchor="middle" x="1112.5" y="-190" font-family="Helvetica,sans-Serif" font-size="10.00"> stats</text>
</g>
<!-- Node12 -->
<g id="node12" class="node">
<title>Node12</title>
<g id="a_node12"><a xlink:href="class_player_controller.xhtml" target="_top" xlink:title="Player Controller is the main class that handles all the movement of the Player.">
<polygon fill="white" stroke="black" points="1166,-189.5 1166,-208.5 1252,-208.5 1252,-189.5 1166,-189.5"/>
<text text-anchor="middle" x="1209" y="-196.5" font-family="Helvetica,sans-Serif" font-size="10.00">PlayerController</text>
</a>
</g>
</g>
<!-- Node6&#45;&gt;Node12 -->
<g id="edge28" class="edge">
<title>Node6&#45;&gt;Node12</title>
<path fill="none" stroke="#9a32cd" stroke-dasharray="5,2" d="M1065.36,-245.45C1090,-242.12 1121.18,-236.64 1148,-228 1163.31,-223.07 1179.68,-214.94 1191.45,-208.55"/>
<polygon fill="#9a32cd" stroke="#9a32cd" points="1064.71,-242 1055.24,-246.75 1065.6,-248.94 1064.71,-242"/>
<text text-anchor="middle" x="1112.5" y="-246" font-family="Helvetica,sans-Serif" font-size="10.00"> stats</text>
</g>
<!-- Node6&#45;&gt;Node13 -->
<g id="edge24" class="edge">
<title>Node6&#45;&gt;Node13</title>
<path fill="none" stroke="#9a32cd" stroke-dasharray="5,2" d="M1006.61,-232.29C996.53,-220.31 981.64,-205.23 965,-197 933.15,-181.25 892.88,-176.16 863.04,-174.78"/>
<polygon fill="#9a32cd" stroke="#9a32cd" points="1004.06,-234.71 1013.05,-240.32 1009.52,-230.33 1004.06,-234.71"/>
<text text-anchor="middle" x="927" y="-200" font-family="Helvetica,sans-Serif" font-size="10.00"> playerStats</text>
</g>
<!-- Node16 -->
<g id="node16" class="node">
<title>Node16</title>
<g id="a_node16"><a xlink:href="class_basic_attack.xhtml" target="_top" xlink:title=" ">
<polygon fill="white" stroke="black" points="1343,-266.5 1343,-285.5 1413,-285.5 1413,-266.5 1343,-266.5"/>
<text text-anchor="middle" x="1378" y="-273.5" font-family="Helvetica,sans-Serif" font-size="10.00">BasicAttack</text>
</a>
</g>
</g>
<!-- Node6&#45;&gt;Node16 -->
<g id="edge33" class="edge">
<title>Node6&#45;&gt;Node16</title>
<path fill="none" stroke="#9a32cd" stroke-dasharray="5,2" d="M1065.05,-256.62C1069.08,-257.13 1073.12,-257.6 1077,-258 1173.02,-267.85 1286.93,-272.86 1342.73,-274.89"/>
<polygon fill="#9a32cd" stroke="#9a32cd" points="1065.48,-253.14 1055.1,-255.28 1064.54,-260.08 1065.48,-253.14"/>
<text text-anchor="middle" x="1209" y="-273" font-family="Helvetica,sans-Serif" font-size="10.00"> stats</text>
</g>
<!-- Node7 -->
<g id="node7" class="node">
<title>Node7</title>
<g id="a_node7"><a xlink:href="class_ability_affected_stats.xhtml" target="_top" xlink:title="Base class Stats of the entity who is affected by Abilities.">
<polygon fill="white" stroke="black" points="769,-320.5 769,-339.5 871,-339.5 871,-320.5 769,-320.5"/>
<text text-anchor="middle" x="820" y="-327.5" font-family="Helvetica,sans-Serif" font-size="10.00">AbilityAffectedStats</text>
</a>
</g>
</g>
<!-- Node7&#45;&gt;Node6 -->
<g id="edge8" class="edge">
<title>Node7&#45;&gt;Node6</title>
<path fill="none" stroke="midnightblue" d="M881.07,-323.48C907.82,-318.89 939.06,-311.11 965,-298 984,-288.39 1001.75,-270.72 1011.71,-259.71"/>
<polygon fill="midnightblue" stroke="midnightblue" points="880.38,-320.05 871.06,-325.09 881.49,-326.96 880.38,-320.05"/>
</g>
<!-- Node8 -->
<g id="node8" class="node">
<title>Node8</title>
<g id="a_node8"><a xlink:href="class_stats.xhtml" target="_top" xlink:title="Base class Stats of the entity.">
<polygon fill="white" stroke="black" points="607,-320.5 607,-339.5 647,-339.5 647,-320.5 607,-320.5"/>
<text text-anchor="middle" x="627" y="-327.5" font-family="Helvetica,sans-Serif" font-size="10.00">Stats</text>
</a>
</g>
</g>
<!-- Node8&#45;&gt;Node7 -->
<g id="edge9" class="edge">
<title>Node8&#45;&gt;Node7</title>
<path fill="none" stroke="midnightblue" d="M657.1,-330C686.7,-330 733.15,-330 768.72,-330"/>
<polygon fill="midnightblue" stroke="midnightblue" points="657.01,-326.5 647.01,-330 657.01,-333.5 657.01,-326.5"/>
</g>
<!-- Node8&#45;&gt;Node16 -->
<g id="edge32" class="edge">
<title>Node8&#45;&gt;Node16</title>
<path fill="none" stroke="#9a32cd" stroke-dasharray="5,2" d="M656.92,-339.44C694.03,-350.69 760.59,-368 819,-368 819,-368 819,-368 1210,-368 1277.53,-368 1343.48,-309.58 1367.49,-285.85"/>
<polygon fill="#9a32cd" stroke="#9a32cd" points="657.86,-336.07 647.27,-336.45 655.78,-342.75 657.86,-336.07"/>
<text text-anchor="middle" x="1021" y="-371" font-family="Helvetica,sans-Serif" font-size="10.00"> otherStats</text>
</g>
<!-- Node9 -->
<g id="node9" class="node">
<title>Node9</title>
<g id="a_node9"><a xlink:title=" ">
<polygon fill="white" stroke="#bfbfbf" points="434,-244.5 434,-263.5 517,-263.5 517,-244.5 434,-244.5"/>
<text text-anchor="middle" x="475.5" y="-251.5" font-family="Helvetica,sans-Serif" font-size="10.00">MonoBehaviour</text>
</a>
</g>
</g>
<!-- Node9&#45;&gt;Node8 -->
<g id="edge10" class="edge">
<title>Node9&#45;&gt;Node8</title>
<path fill="none" stroke="midnightblue" d="M501.57,-268.67C511.84,-274.54 523.9,-281.26 535,-287 559.52,-299.69 588.44,-313.09 606.98,-321.5"/>
<polygon fill="midnightblue" stroke="midnightblue" points="503.13,-265.53 492.72,-263.57 499.63,-271.59 503.13,-265.53"/>
</g>
<!-- Node11 -->
<g id="node11" class="node">
<title>Node11</title>
<g id="a_node11"><a xlink:href="class_u_i_controller.xhtml" target="_top" xlink:title=" ">
<polygon fill="white" stroke="black" points="593.5,-282.5 593.5,-301.5 660.5,-301.5 660.5,-282.5 593.5,-282.5"/>
<text text-anchor="middle" x="627" y="-289.5" font-family="Helvetica,sans-Serif" font-size="10.00">UIController</text>
</a>
</g>
</g>
<!-- Node9&#45;&gt;Node11 -->
<g id="edge13" class="edge">
<title>Node9&#45;&gt;Node11</title>
<path fill="none" stroke="midnightblue" d="M523.98,-266.07C546.59,-271.81 573.05,-278.54 593.36,-283.7"/>
<polygon fill="midnightblue" stroke="midnightblue" points="524.78,-262.66 514.23,-263.59 523.05,-269.44 524.78,-262.66"/>
</g>
<!-- Node9&#45;&gt;Node12 -->
<g id="edge15" class="edge">
<title>Node9&#45;&gt;Node12</title>
<path fill="none" stroke="midnightblue" d="M483.34,-234.8C492.11,-212.71 509.33,-176.72 535,-155 601.17,-99.03 630.33,-85 717,-85 717,-85 717,-85 1022,-85 1079.27,-85 1100.38,-80.18 1148,-112 1177.44,-131.67 1196.59,-171.13 1204.24,-189.36"/>
<polygon fill="midnightblue" stroke="midnightblue" points="479.97,-233.81 479.71,-244.4 486.52,-236.28 479.97,-233.81"/>
</g>
<!-- Node9&#45;&gt;Node13 -->
<g id="edge17" class="edge">
<title>Node9&#45;&gt;Node13</title>
<path fill="none" stroke="midnightblue" d="M527.19,-242.31C595.21,-226.62 714.72,-199.05 777.62,-184.54"/>
<polygon fill="midnightblue" stroke="midnightblue" points="526.09,-238.97 517.13,-244.63 527.67,-245.79 526.09,-238.97"/>
</g>
<!-- Node9&#45;&gt;Node14 -->
<g id="edge21" class="edge">
<title>Node9&#45;&gt;Node14</title>
<path fill="none" stroke="midnightblue" d="M493.32,-237.16C504.41,-226.79 519.67,-213.83 535,-205 552.47,-194.93 573.56,-187.05 591.04,-181.52"/>
<polygon fill="midnightblue" stroke="midnightblue" points="490.82,-234.7 486.04,-244.16 495.67,-239.75 490.82,-234.7"/>
</g>
<!-- Node9&#45;&gt;Node16 -->
<g id="edge30" class="edge">
<title>Node9&#45;&gt;Node16</title>
<path fill="none" stroke="midnightblue" d="M484.27,-272.99C502.44,-313.97 551.86,-407 626,-407 626,-407 626,-407 1210,-407 1266.66,-407 1281.98,-388.86 1325,-352 1347.58,-332.65 1364.8,-301.3 1372.53,-285.6"/>
<polygon fill="midnightblue" stroke="midnightblue" points="487.39,-271.39 480.24,-263.57 480.96,-274.14 487.39,-271.39"/>
</g>
<!-- Node17 -->
<g id="node17" class="node">
<title>Node17</title>
<g id="a_node17"><a xlink:href="class_inventory.xhtml" target="_top" xlink:title=" ">
<polygon fill="white" stroke="black" points="690.5,-243.5 690.5,-262.5 745.5,-262.5 745.5,-243.5 690.5,-243.5"/>
<text text-anchor="middle" x="718" y="-250.5" font-family="Helvetica,sans-Serif" font-size="10.00">Inventory</text>
</a>
</g>
</g>
<!-- Node9&#45;&gt;Node17 -->
<g id="edge36" class="edge">
<title>Node9&#45;&gt;Node17</title>
<path fill="none" stroke="midnightblue" d="M527.28,-253.79C577.15,-253.58 651.28,-253.27 690.48,-253.11"/>
<polygon fill="midnightblue" stroke="midnightblue" points="527.01,-250.29 517.03,-253.83 527.04,-257.29 527.01,-250.29"/>
</g>
<!-- Node10 -->
<g id="node10" class="node">
<title>Node10</title>
<g id="a_node10"><a xlink:href="class_player_u_i_controller.xhtml" target="_top" xlink:title="UI Controller for the Player Stats">
<polygon fill="white" stroke="black" points="772.5,-282.5 772.5,-301.5 867.5,-301.5 867.5,-282.5 772.5,-282.5"/>
<text text-anchor="middle" x="820" y="-289.5" font-family="Helvetica,sans-Serif" font-size="10.00">PlayerUIController</text>
</a>
</g>
</g>
<!-- Node10&#45;&gt;Node6 -->
<g id="edge11" class="edge">
<title>Node10&#45;&gt;Node6</title>
<path fill="none" stroke="#9a32cd" stroke-dasharray="5,2" d="M877.73,-285.26C904.43,-281.5 936.58,-276.12 965,-269 975.09,-266.47 985.97,-262.9 995.36,-259.54"/>
<polygon fill="#9a32cd" stroke="#9a32cd" points="877.22,-281.8 867.78,-286.63 878.17,-288.74 877.22,-281.8"/>
<text text-anchor="middle" x="927" y="-286" font-family="Helvetica,sans-Serif" font-size="10.00"> uiControl</text>
</g>
<!-- Node11&#45;&gt;Node10 -->
<g id="edge12" class="edge">
<title>Node11&#45;&gt;Node10</title>
<path fill="none" stroke="midnightblue" d="M671.04,-292C701.17,-292 741.4,-292 772.31,-292"/>
<polygon fill="midnightblue" stroke="midnightblue" points="670.83,-288.5 660.83,-292 670.83,-295.5 670.83,-288.5"/>
</g>
<!-- Node12&#45;&gt;Node6 -->
<g id="edge14" class="edge">
<title>Node12&#45;&gt;Node6</title>
<path fill="none" stroke="#9a32cd" stroke-dasharray="5,2" d="M1155.81,-201.33C1131.34,-203.64 1102.11,-208.16 1077,-217 1061.45,-222.47 1045.5,-232.65 1034.81,-240.26"/>
<polygon fill="#9a32cd" stroke="#9a32cd" points="1156.31,-204.8 1165.99,-200.47 1155.73,-197.83 1156.31,-204.8"/>
<text text-anchor="middle" x="1112.5" y="-220" font-family="Helvetica,sans-Serif" font-size="10.00"> playerController</text>
</g>
<!-- Node12&#45;&gt;Node13 -->
<g id="edge18" class="edge">
<title>Node12&#45;&gt;Node13</title>
<path fill="none" stroke="#9a32cd" stroke-dasharray="5,2" d="M1168.5,-186.59C1161.69,-184.61 1154.66,-182.67 1148,-181 1108.85,-171.19 1099.16,-167.02 1059,-163 1025.39,-159.64 1016.75,-161.75 983,-163 942.28,-164.51 895.91,-168.14 863.25,-171.01"/>
<polygon fill="#9a32cd" stroke="#9a32cd" points="1167.66,-189.99 1178.24,-189.48 1169.65,-183.28 1167.66,-189.99"/>
<text text-anchor="middle" x="1021" y="-166" font-family="Helvetica,sans-Serif" font-size="10.00"> playerController</text>
</g>
<!-- Node12&#45;&gt;Node16 -->
<g id="edge31" class="edge">
<title>Node12&#45;&gt;Node16</title>
<path fill="none" stroke="#9a32cd" stroke-dasharray="5,2" d="M1262.41,-196C1283,-196.92 1306.16,-200.71 1325,-211 1348.34,-223.75 1364.99,-251.75 1372.51,-266.49"/>
<polygon fill="#9a32cd" stroke="#9a32cd" points="1262.3,-192.5 1252.22,-195.76 1262.14,-199.49 1262.3,-192.5"/>
<text text-anchor="middle" x="1297.5" y="-214" font-family="Helvetica,sans-Serif" font-size="10.00"> controller</text>
</g>
<!-- Node13&#45;&gt;Node6 -->
<g id="edge34" class="edge">
<title>Node13&#45;&gt;Node6</title>
<path fill="none" stroke="#9a32cd" stroke-dasharray="5,2" d="M848.08,-189.36C860.37,-195.56 875.21,-202.61 889,-208 921.87,-220.86 931.43,-220.13 965,-231 974.13,-233.96 984.06,-237.34 992.93,-240.42"/>
<polygon fill="#9a32cd" stroke="#9a32cd" points="849.33,-186.07 838.84,-184.62 846.14,-192.3 849.33,-186.07"/>
<text text-anchor="middle" x="927" y="-234" font-family="Helvetica,sans-Serif" font-size="10.00"> abilityCooldowns</text>
</g>
<!-- Node13&#45;&gt;Node12 -->
<g id="edge16" class="edge">
<title>Node13&#45;&gt;Node12</title>
<path fill="none" stroke="#9a32cd" stroke-dasharray="5,2" d="M873.37,-174.77C900.7,-174.89 934.67,-175.42 965,-177 1035.65,-180.68 1117.53,-188.92 1165.93,-194.21"/>
<polygon fill="#9a32cd" stroke="#9a32cd" points="873.25,-171.27 863.24,-174.74 873.23,-178.27 873.25,-171.27"/>
<text text-anchor="middle" x="1021" y="-186" font-family="Helvetica,sans-Serif" font-size="10.00"> abilityCooldowns</text>
</g>
<!-- Node13&#45;&gt;Node14 -->
<g id="edge22" class="edge">
<title>Node13&#45;&gt;Node14</title>
<path fill="none" stroke="#9a32cd" stroke-dasharray="5,2" d="M779.74,-162.76C770.41,-160.37 760.43,-158.23 751,-157 721.91,-153.22 714.09,-153.24 685,-157 676.27,-158.13 666.98,-160.19 658.48,-162.43"/>
<polygon fill="#9a32cd" stroke="#9a32cd" points="778.97,-166.18 789.54,-165.42 780.81,-159.43 778.97,-166.18"/>
<text text-anchor="middle" x="718" y="-160" font-family="Helvetica,sans-Serif" font-size="10.00"> currentCD</text>
</g>
<!-- Node14&#45;&gt;Node13 -->
<g id="edge20" class="edge">
<title>Node14&#45;&gt;Node13</title>
<path fill="none" stroke="#9a32cd" stroke-dasharray="5,2" d="M677.24,-172.77C708.13,-173.26 747.54,-173.88 776.96,-174.34"/>
<polygon fill="#9a32cd" stroke="#9a32cd" points="677.17,-169.27 667.11,-172.61 677.06,-176.27 677.17,-169.27"/>
<text text-anchor="middle" x="718" y="-176" font-family="Helvetica,sans-Serif" font-size="10.00"> abilityIndicator</text>
</g>
<!-- Node15&#45;&gt;Node12 -->
<g id="edge25" class="edge">
<title>Node15&#45;&gt;Node12</title>
<path fill="none" stroke="#9a32cd" stroke-dasharray="5,2" d="M515.27,-46.6C545.45,-46.32 588.39,-46 626,-46 626,-46 626,-46 1022,-46 1080.12,-46 1103.02,-44.2 1148,-81 1183.93,-110.4 1200.52,-166.87 1205.91,-189.39"/>
<polygon fill="#9a32cd" stroke="#9a32cd" points="515.13,-43.1 505.16,-46.69 515.19,-50.1 515.13,-43.1"/>
<text text-anchor="middle" x="820" y="-49" font-family="Helvetica,sans-Serif" font-size="10.00"> character</text>
</g>
<!-- Node16&#45;&gt;Node12 -->
<g id="edge29" class="edge">
<title>Node16&#45;&gt;Node12</title>
<path fill="none" stroke="#9a32cd" stroke-dasharray="5,2" d="M1348.17,-261.99C1340.64,-258.37 1332.53,-254.51 1325,-251 1292.63,-235.9 1254.86,-218.95 1231.69,-208.62"/>
<polygon fill="#9a32cd" stroke="#9a32cd" points="1346.77,-265.2 1357.3,-266.39 1349.81,-258.9 1346.77,-265.2"/>
<text text-anchor="middle" x="1297.5" y="-254" font-family="Helvetica,sans-Serif" font-size="10.00"> basicAttack</text>
</g>
<!-- Node17&#45;&gt;Node6 -->
<g id="edge35" class="edge">
<title>Node17&#45;&gt;Node6</title>
<path fill="none" stroke="#9a32cd" stroke-dasharray="5,2" d="M756.07,-252.63C815.17,-252.04 929.84,-250.9 986.56,-250.33"/>
<polygon fill="#9a32cd" stroke="#9a32cd" points="755.68,-249.13 745.71,-252.73 755.75,-256.13 755.68,-249.13"/>
<text text-anchor="middle" x="820" y="-255" font-family="Helvetica,sans-Serif" font-size="10.00"> inventory</text>
</g>
</g>
</svg>
