<?xml version="1.0" encoding="UTF-8" standalone="no"?>
<!DOCTYPE svg PUBLIC "-//W3C//DTD SVG 1.1//EN"
 "http://www.w3.org/Graphics/SVG/1.1/DTD/svg11.dtd">
<!-- Generated by graphviz version 2.47.3 (20210619.1520)
 -->
<!-- Title: Tayx.Graphy.CustomizationScene.CustomizeGraphy.ToggleMusic Pages: 1 -->
<svg width="631pt" height="39pt"
 viewBox="0.00 0.00 631.00 39.00" xmlns="http://www.w3.org/2000/svg" xmlns:xlink="http://www.w3.org/1999/xlink">
<g id="graph0" class="graph" transform="scale(1 1) rotate(0) translate(4 35)">
<title>Tayx.Graphy.CustomizationScene.CustomizeGraphy.ToggleMusic</title>
<polygon fill="white" stroke="transparent" points="-4,4 -4,-35 627,-35 627,4 -4,4"/>
<!-- Node1 -->
<g id="node1" class="node">
<title>Node1</title>
<g id="a_node1"><a xlink:title=" ">
<polygon fill="#bfbfbf" stroke="black" points="440,-0.5 440,-30.5 623,-30.5 623,-0.5 440,-0.5"/>
<text text-anchor="start" x="448" y="-18.5" font-family="Helvetica,sans-Serif" font-size="10.00">Tayx.Graphy.Customization</text>
<text text-anchor="middle" x="531.5" y="-7.5" font-family="Helvetica,sans-Serif" font-size="10.00">Scene.CustomizeGraphy.ToggleMusic</text>
</a>
</g>
</g>
<!-- Node2 -->
<g id="node2" class="node">
<title>Node2</title>
<g id="a_node2"><a xlink:href="class_tayx_1_1_graphy_1_1_customization_scene_1_1_customize_graphy.xhtml#af29a35881b3824077a7ee75906c8549e" target="_top" xlink:title=" ">
<polygon fill="white" stroke="black" points="207,-0.5 207,-30.5 404,-30.5 404,-0.5 207,-0.5"/>
<text text-anchor="start" x="215" y="-18.5" font-family="Helvetica,sans-Serif" font-size="10.00">Tayx.Graphy.Customization</text>
<text text-anchor="middle" x="305.5" y="-7.5" font-family="Helvetica,sans-Serif" font-size="10.00">Scene.CustomizeGraphy.SetupCallbacks</text>
</a>
</g>
</g>
<!-- Node1&#45;&gt;Node2 -->
<g id="edge1" class="edge">
<title>Node1&#45;&gt;Node2</title>
<path fill="none" stroke="midnightblue" d="M429.55,-15.5C421.17,-15.5 412.72,-15.5 404.36,-15.5"/>
<polygon fill="midnightblue" stroke="midnightblue" points="429.71,-19 439.71,-15.5 429.71,-12 429.71,-19"/>
</g>
<!-- Node3 -->
<g id="node3" class="node">
<title>Node3</title>
<g id="a_node3"><a xlink:href="class_tayx_1_1_graphy_1_1_customization_scene_1_1_customize_graphy.xhtml#a1f27ffe999a723b20353daa99311e00f" target="_top" xlink:title=" ">
<polygon fill="white" stroke="black" points="0,-0.5 0,-30.5 171,-30.5 171,-0.5 0,-0.5"/>
<text text-anchor="start" x="8" y="-18.5" font-family="Helvetica,sans-Serif" font-size="10.00">Tayx.Graphy.Customization</text>
<text text-anchor="middle" x="85.5" y="-7.5" font-family="Helvetica,sans-Serif" font-size="10.00">Scene.CustomizeGraphy.OnEnable</text>
</a>
</g>
</g>
<!-- Node2&#45;&gt;Node3 -->
<g id="edge2" class="edge">
<title>Node2&#45;&gt;Node3</title>
<path fill="none" stroke="midnightblue" d="M196.9,-15.5C188.31,-15.5 179.7,-15.5 171.29,-15.5"/>
<polygon fill="midnightblue" stroke="midnightblue" points="196.98,-19 206.98,-15.5 196.98,-12 196.98,-19"/>
</g>
</g>
</svg>
