<?xml version="1.0" encoding="UTF-8" standalone="no"?>
<!DOCTYPE svg PUBLIC "-//W3C//DTD SVG 1.1//EN"
 "http://www.w3.org/Graphics/SVG/1.1/DTD/svg11.dtd">
<!-- Generated by graphviz version 2.47.3 (20210619.1520)
 -->
<!-- Title: PlayerHUDController.UpdateHP Pages: 1 -->
<svg width="673pt" height="104pt"
 viewBox="0.00 0.00 673.00 104.00" xmlns="http://www.w3.org/2000/svg" xmlns:xlink="http://www.w3.org/1999/xlink">
<g id="graph0" class="graph" transform="scale(1 1) rotate(0) translate(4 100)">
<title>PlayerHUDController.UpdateHP</title>
<!-- Node1 -->
<g id="node1" class="node">
<title>Node1</title>
<g id="a_node1"><a xlink:title=" ">
<polygon fill="#bfbfbf" stroke="black" points="512,-57.5 512,-76.5 665,-76.5 665,-57.5 512,-57.5"/>
<text text-anchor="middle" x="588.5" y="-64.5" font-family="Helvetica,sans-Serif" font-size="10.00">PlayerHUDController.UpdateHP</text>
</a>
</g>
</g>
<!-- Node2 -->
<g id="node2" class="node">
<title>Node2</title>
<g id="a_node2"><a xlink:href="class_player_stats.html#a6542a649dfb0cccc9fe329c83024e3ed" target="_top" xlink:title=" ">
<polygon fill="none" stroke="black" points="184,-76.5 184,-95.5 330,-95.5 330,-76.5 184,-76.5"/>
<text text-anchor="middle" x="257" y="-83.5" font-family="Helvetica,sans-Serif" font-size="10.00">PlayerStats.DealDamageRPC</text>
</a>
</g>
</g>
<!-- Node1&#45;&gt;Node2 -->
<g id="edge1" class="edge">
<title>Node1&#45;&gt;Node2</title>
<path fill="none" stroke="midnightblue" d="M531.94,-78.36C514.15,-81.49 494.32,-84.45 476,-86 427.54,-90.1 372.8,-90.08 330.3,-89.05"/>
<polygon fill="midnightblue" stroke="midnightblue" points="532.94,-81.74 542.15,-76.51 531.69,-74.85 532.94,-81.74"/>
</g>
<!-- Node3 -->
<g id="node3" class="node">
<title>Node3</title>
<g id="a_node3"><a xlink:href="class_player_stats.html#a5caca2bd8f676341a2b269aea8a0f1ff" target="_top" xlink:title="Function that implements what is done when this entity dies.">
<polygon fill="none" stroke="black" points="378.5,-57.5 378.5,-76.5 463.5,-76.5 463.5,-57.5 378.5,-57.5"/>
<text text-anchor="middle" x="421" y="-64.5" font-family="Helvetica,sans-Serif" font-size="10.00">PlayerStats.Die</text>
</a>
</g>
</g>
<!-- Node1&#45;&gt;Node3 -->
<g id="edge2" class="edge">
<title>Node1&#45;&gt;Node3</title>
<path fill="none" stroke="midnightblue" d="M501.46,-67C488.3,-67 475.24,-67 463.63,-67"/>
<polygon fill="midnightblue" stroke="midnightblue" points="501.53,-70.5 511.53,-67 501.53,-63.5 501.53,-70.5"/>
</g>
<!-- Node4 -->
<g id="node4" class="node">
<title>Node4</title>
<g id="a_node4"><a xlink:href="class_player_stats.html#ae2c6a9d91ac8ff99b7f0dc32079f1931" target="_top" xlink:title=" ">
<polygon fill="none" stroke="black" points="366,-19.5 366,-38.5 476,-38.5 476,-19.5 366,-19.5"/>
<text text-anchor="middle" x="421" y="-26.5" font-family="Helvetica,sans-Serif" font-size="10.00">PlayerStats.HealRPC</text>
</a>
</g>
</g>
<!-- Node1&#45;&gt;Node4 -->
<g id="edge4" class="edge">
<title>Node1&#45;&gt;Node4</title>
<path fill="none" stroke="midnightblue" d="M535.69,-55.1C512.43,-49.76 485.35,-43.55 463.46,-38.52"/>
<polygon fill="midnightblue" stroke="midnightblue" points="535.21,-58.58 545.74,-57.41 536.77,-51.76 535.21,-58.58"/>
</g>
<!-- Node3&#45;&gt;Node2 -->
<g id="edge3" class="edge">
<title>Node3&#45;&gt;Node2</title>
<path fill="none" stroke="midnightblue" d="M368.32,-73.06C356.15,-74.49 342.95,-76.04 330.06,-77.55"/>
<polygon fill="midnightblue" stroke="midnightblue" points="368.76,-76.53 378.28,-71.89 367.94,-69.58 368.76,-76.53"/>
</g>
<!-- Node5 -->
<g id="node5" class="node">
<title>Node5</title>
<g id="a_node5"><a xlink:href="class_player_stats.html#a27fb46ca044608f34db45eb95ac16b4c" target="_top" xlink:title="This is triggered when the player respawns.">
<polygon fill="none" stroke="black" points="202,-19.5 202,-38.5 312,-38.5 312,-19.5 202,-19.5"/>
<text text-anchor="middle" x="257" y="-26.5" font-family="Helvetica,sans-Serif" font-size="10.00">PlayerStats.Respawn</text>
</a>
</g>
</g>
<!-- Node4&#45;&gt;Node5 -->
<g id="edge5" class="edge">
<title>Node4&#45;&gt;Node5</title>
<path fill="none" stroke="midnightblue" d="M355.36,-29C341.07,-29 326.07,-29 312.25,-29"/>
<polygon fill="midnightblue" stroke="midnightblue" points="355.61,-32.5 365.61,-29 355.61,-25.5 355.61,-32.5"/>
</g>
<!-- Node6 -->
<g id="node6" class="node">
<title>Node6</title>
<g id="a_node6"><a xlink:href="class_respawn_canvas.html#aeb8465a7dc3b9f4fe6a36afc1c8bcf9a" target="_top" xlink:title=" ">
<polygon fill="none" stroke="black" points="0,-38.5 0,-57.5 148,-57.5 148,-38.5 0,-38.5"/>
<text text-anchor="middle" x="74" y="-45.5" font-family="Helvetica,sans-Serif" font-size="10.00">RespawnCanvas.BuyRespawn</text>
</a>
</g>
</g>
<!-- Node5&#45;&gt;Node6 -->
<g id="edge6" class="edge">
<title>Node5&#45;&gt;Node6</title>
<path fill="none" stroke="midnightblue" d="M191.6,-35.76C177.49,-37.24 162.45,-38.82 148.02,-40.33"/>
<polygon fill="midnightblue" stroke="midnightblue" points="192.11,-39.23 201.69,-34.7 191.38,-32.26 192.11,-39.23"/>
</g>
<!-- Node7 -->
<g id="node7" class="node">
<title>Node7</title>
<g id="a_node7"><a xlink:href="class_respawn_canvas.html#a272c2f78c7bfbeb481fcb4b737fe446c" target="_top" xlink:title=" ">
<polygon fill="none" stroke="black" points="13,-0.5 13,-19.5 135,-19.5 135,-0.5 13,-0.5"/>
<text text-anchor="middle" x="74" y="-7.5" font-family="Helvetica,sans-Serif" font-size="10.00">RespawnCanvas.Update</text>
</a>
</g>
</g>
<!-- Node5&#45;&gt;Node7 -->
<g id="edge7" class="edge">
<title>Node5&#45;&gt;Node7</title>
<path fill="none" stroke="midnightblue" d="M191.68,-22.25C173.32,-20.32 153.39,-18.23 135.28,-16.33"/>
<polygon fill="midnightblue" stroke="midnightblue" points="191.38,-25.74 201.69,-23.3 192.11,-18.77 191.38,-25.74"/>
</g>
</g>
</svg>
