<?xml version="1.0" encoding="UTF-8" standalone="no"?>
<!DOCTYPE svg PUBLIC "-//W3C//DTD SVG 1.1//EN"
 "http://www.w3.org/Graphics/SVG/1.1/DTD/svg11.dtd">
<!-- Generated by graphviz version 2.47.3 (20210619.1520)
 -->
<!-- Title: Photon.Pun.PhotonTransformViewClassicEditor.DrawSynchronizePositionData Pages: 1 -->
<svg width="385pt" height="50pt"
 viewBox="0.00 0.00 385.00 50.00" xmlns="http://www.w3.org/2000/svg" xmlns:xlink="http://www.w3.org/1999/xlink">
<g id="graph0" class="graph" transform="scale(1 1) rotate(0) translate(4 46)">
<title>Photon.Pun.PhotonTransformViewClassicEditor.DrawSynchronizePositionData</title>
<polygon fill="white" stroke="transparent" points="-4,4 -4,-46 381,-46 381,4 -4,4"/>
<!-- Node1 -->
<g id="node1" class="node">
<title>Node1</title>
<g id="a_node1"><a xlink:title=" ">
<polygon fill="#bfbfbf" stroke="black" points="203,-0.5 203,-41.5 377,-41.5 377,-0.5 203,-0.5"/>
<text text-anchor="start" x="211" y="-29.5" font-family="Helvetica,sans-Serif" font-size="10.00">Photon.Pun.PhotonTransform</text>
<text text-anchor="start" x="211" y="-18.5" font-family="Helvetica,sans-Serif" font-size="10.00">ViewClassicEditor.DrawSynchronize</text>
<text text-anchor="middle" x="290" y="-7.5" font-family="Helvetica,sans-Serif" font-size="10.00">PositionData</text>
</a>
</g>
</g>
<!-- Node2 -->
<g id="node2" class="node">
<title>Node2</title>
<g id="a_node2"><a xlink:href="class_photon_1_1_pun_1_1_photon_transform_view_classic_editor.xhtml#a3c39c395b6e04811cb3a897cf02a5923" target="_top" xlink:title=" ">
<polygon fill="white" stroke="black" points="0,-6 0,-36 167,-36 167,-6 0,-6"/>
<text text-anchor="start" x="8" y="-24" font-family="Helvetica,sans-Serif" font-size="10.00">Photon.Pun.PhotonTransform</text>
<text text-anchor="middle" x="83.5" y="-13" font-family="Helvetica,sans-Serif" font-size="10.00">ViewClassicEditor.OnInspectorGUI</text>
</a>
</g>
</g>
<!-- Node1&#45;&gt;Node2 -->
<g id="edge1" class="edge">
<title>Node1&#45;&gt;Node2</title>
<path fill="none" stroke="midnightblue" d="M192.86,-21C184.31,-21 175.7,-21 167.27,-21"/>
<polygon fill="midnightblue" stroke="midnightblue" points="192.87,-24.5 202.87,-21 192.87,-17.5 192.87,-24.5"/>
</g>
</g>
</svg>
