<?xml version="1.0" encoding="UTF-8" standalone="no"?>
<!DOCTYPE svg PUBLIC "-//W3C//DTD SVG 1.1//EN"
 "http://www.w3.org/Graphics/SVG/1.1/DTD/svg11.dtd">
<!-- Generated by graphviz version 2.47.3 (20210619.1520)
 -->
<!-- Title: Photon.Pun.Demo.Procedural.WorldGenerator.CreateWorld Pages: 1 -->
<svg width="382pt" height="50pt"
 viewBox="0.00 0.00 382.00 50.00" xmlns="http://www.w3.org/2000/svg" xmlns:xlink="http://www.w3.org/1999/xlink">
<g id="graph0" class="graph" transform="scale(1 1) rotate(0) translate(4 46)">
<title>Photon.Pun.Demo.Procedural.WorldGenerator.CreateWorld</title>
<polygon fill="white" stroke="transparent" points="-4,4 -4,-46 378,-46 378,4 -4,4"/>
<!-- Node1 -->
<g id="node1" class="node">
<title>Node1</title>
<g id="a_node1"><a xlink:title="Called whenever a client receives a Custom Room Properties update containing all necessary informatio...">
<polygon fill="#bfbfbf" stroke="black" points="225,-6 225,-36 374,-36 374,-6 225,-6"/>
<text text-anchor="start" x="233" y="-24" font-family="Helvetica,sans-Serif" font-size="10.00">Photon.Pun.Demo.Procedural.</text>
<text text-anchor="middle" x="299.5" y="-13" font-family="Helvetica,sans-Serif" font-size="10.00">WorldGenerator.CreateWorld</text>
</a>
</g>
</g>
<!-- Node2 -->
<g id="node2" class="node">
<title>Node2</title>
<g id="a_node2"><a xlink:href="class_photon_1_1_pun_1_1_demo_1_1_procedural_1_1_ingame_control_panel.xhtml#a890762417042c4f6a8d93f483fdccff6" target="_top" xlink:title="Gets called whenever the Custom Room Properties are updated.">
<polygon fill="white" stroke="black" points="0,-0.5 0,-41.5 189,-41.5 189,-0.5 0,-0.5"/>
<text text-anchor="start" x="8" y="-29.5" font-family="Helvetica,sans-Serif" font-size="10.00">Photon.Pun.Demo.Procedural.</text>
<text text-anchor="start" x="8" y="-18.5" font-family="Helvetica,sans-Serif" font-size="10.00">IngameControlPanel.OnRoomProperties</text>
<text text-anchor="middle" x="94.5" y="-7.5" font-family="Helvetica,sans-Serif" font-size="10.00">Update</text>
</a>
</g>
</g>
<!-- Node1&#45;&gt;Node2 -->
<g id="edge1" class="edge">
<title>Node1&#45;&gt;Node2</title>
<path fill="none" stroke="midnightblue" d="M214.77,-21C206.37,-21 197.8,-21 189.3,-21"/>
<polygon fill="midnightblue" stroke="midnightblue" points="214.93,-24.5 224.93,-21 214.93,-17.5 214.93,-24.5"/>
</g>
</g>
</svg>
