<?xml version="1.0" encoding="UTF-8" standalone="no"?>
<!DOCTYPE svg PUBLIC "-//W3C//DTD SVG 1.1//EN"
 "http://www.w3.org/Graphics/SVG/1.1/DTD/svg11.dtd">
<!-- Generated by graphviz version 2.47.3 (20210619.1520)
 -->
<!-- Title: Photon.Pun.PhotonEditor.SaveSettings Pages: 1 -->
<svg width="845pt" height="110pt"
 viewBox="0.00 0.00 845.00 110.00" xmlns="http://www.w3.org/2000/svg" xmlns:xlink="http://www.w3.org/1999/xlink">
<g id="graph0" class="graph" transform="scale(1 1) rotate(0) translate(4 106)">
<title>Photon.Pun.PhotonEditor.SaveSettings</title>
<polygon fill="white" stroke="transparent" points="-4,4 -4,-106 841,-106 841,4 -4,4"/>
<!-- Node1 -->
<g id="node1" class="node">
<title>Node1</title>
<g id="a_node1"><a xlink:title=" ">
<polygon fill="#bfbfbf" stroke="black" points="707,-22.5 707,-52.5 837,-52.5 837,-22.5 707,-22.5"/>
<text text-anchor="start" x="715" y="-40.5" font-family="Helvetica,sans-Serif" font-size="10.00">Photon.Pun.PhotonEditor.</text>
<text text-anchor="middle" x="772" y="-29.5" font-family="Helvetica,sans-Serif" font-size="10.00">SaveSettings</text>
</a>
</g>
</g>
<!-- Node2 -->
<g id="node2" class="node">
<title>Node2</title>
<g id="a_node2"><a xlink:href="class_photon_1_1_pun_1_1_photon_editor.xhtml#a2ddfd526e3a1d31c6361b6f28ff0df73" target="_top" xlink:title=" ">
<polygon fill="white" stroke="black" points="519.5,-71.5 519.5,-101.5 649.5,-101.5 649.5,-71.5 519.5,-71.5"/>
<text text-anchor="start" x="527.5" y="-89.5" font-family="Helvetica,sans-Serif" font-size="10.00">Photon.Pun.PhotonEditor.</text>
<text text-anchor="middle" x="584.5" y="-78.5" font-family="Helvetica,sans-Serif" font-size="10.00">OnProjectChanged</text>
</a>
</g>
</g>
<!-- Node1&#45;&gt;Node2 -->
<g id="edge1" class="edge">
<title>Node1&#45;&gt;Node2</title>
<path fill="none" stroke="midnightblue" d="M704.28,-55.12C683.99,-60.48 661.89,-66.32 642.31,-71.49"/>
<polygon fill="midnightblue" stroke="midnightblue" points="705.31,-58.47 714.08,-52.53 703.52,-51.7 705.31,-58.47"/>
</g>
<!-- Node5 -->
<g id="node5" class="node">
<title>Node5</title>
<g id="a_node5"><a xlink:href="class_photon_1_1_pun_1_1_photon_editor.xhtml#ab0369cb6bade59d45e7f48a327d01998" target="_top" xlink:title=" ">
<polygon fill="white" stroke="black" points="498,-22.5 498,-52.5 671,-52.5 671,-22.5 498,-22.5"/>
<text text-anchor="start" x="506" y="-40.5" font-family="Helvetica,sans-Serif" font-size="10.00">Photon.Pun.PhotonEditor.</text>
<text text-anchor="middle" x="584.5" y="-29.5" font-family="Helvetica,sans-Serif" font-size="10.00">RegisterWithEmailSuccessCallback</text>
</a>
</g>
</g>
<!-- Node1&#45;&gt;Node5 -->
<g id="edge4" class="edge">
<title>Node1&#45;&gt;Node5</title>
<path fill="none" stroke="midnightblue" d="M696.77,-37.5C688.36,-37.5 679.74,-37.5 671.19,-37.5"/>
<polygon fill="midnightblue" stroke="midnightblue" points="696.9,-41 706.9,-37.5 696.9,-34 696.9,-41"/>
</g>
<!-- Node7 -->
<g id="node7" class="node">
<title>Node7</title>
<g id="a_node7"><a xlink:href="class_photon_1_1_pun_1_1_photon_editor.xhtml#a4ccbec55036af587ae405f134b92e89c" target="_top" xlink:title=" ">
<polygon fill="white" stroke="black" points="166,-0.5 166,-30.5 296,-30.5 296,-0.5 166,-0.5"/>
<text text-anchor="start" x="174" y="-18.5" font-family="Helvetica,sans-Serif" font-size="10.00">Photon.Pun.PhotonEditor.</text>
<text text-anchor="middle" x="231" y="-7.5" font-family="Helvetica,sans-Serif" font-size="10.00">UiSetupApp</text>
</a>
</g>
</g>
<!-- Node1&#45;&gt;Node7 -->
<g id="edge8" class="edge">
<title>Node1&#45;&gt;Node7</title>
<path fill="none" stroke="midnightblue" d="M711.22,-20.03C698.09,-16.9 684.16,-14.12 671,-12.5 538.62,3.8 382.08,-3.59 296.28,-9.89"/>
<polygon fill="midnightblue" stroke="midnightblue" points="710.54,-23.46 721.09,-22.47 712.23,-16.67 710.54,-23.46"/>
</g>
<!-- Node3 -->
<g id="node3" class="node">
<title>Node3</title>
<g id="a_node3"><a xlink:href="class_photon_1_1_pun_1_1_photon_editor.xhtml#af1f1cae280c6374bd45f8863ad1f30f8" target="_top" xlink:title=" ">
<polygon fill="white" stroke="black" points="332,-71.5 332,-101.5 462,-101.5 462,-71.5 332,-71.5"/>
<text text-anchor="start" x="340" y="-89.5" font-family="Helvetica,sans-Serif" font-size="10.00">Photon.Pun.PhotonEditor.</text>
<text text-anchor="middle" x="397" y="-78.5" font-family="Helvetica,sans-Serif" font-size="10.00">OnDelayCall</text>
</a>
</g>
</g>
<!-- Node2&#45;&gt;Node3 -->
<g id="edge2" class="edge">
<title>Node2&#45;&gt;Node3</title>
<path fill="none" stroke="midnightblue" d="M509.27,-86.5C493.65,-86.5 477.31,-86.5 462.1,-86.5"/>
<polygon fill="midnightblue" stroke="midnightblue" points="509.4,-90 519.4,-86.5 509.4,-83 509.4,-90"/>
</g>
<!-- Node4 -->
<g id="node4" class="node">
<title>Node4</title>
<g id="a_node4"><a xlink:href="class_photon_1_1_pun_1_1_photon_editor.xhtml#a6f2a81525fca83b7245f023595015253" target="_top" xlink:title=" ">
<polygon fill="white" stroke="black" points="166,-71.5 166,-101.5 296,-101.5 296,-71.5 166,-71.5"/>
<text text-anchor="start" x="174" y="-89.5" font-family="Helvetica,sans-Serif" font-size="10.00">Photon.Pun.PhotonEditor.</text>
<text text-anchor="middle" x="231" y="-78.5" font-family="Helvetica,sans-Serif" font-size="10.00">InitializeOnLoadMethod</text>
</a>
</g>
</g>
<!-- Node3&#45;&gt;Node4 -->
<g id="edge3" class="edge">
<title>Node3&#45;&gt;Node4</title>
<path fill="none" stroke="midnightblue" d="M321.44,-86.5C313,-86.5 304.45,-86.5 296.16,-86.5"/>
<polygon fill="midnightblue" stroke="midnightblue" points="321.65,-90 331.65,-86.5 321.65,-83 321.65,-90"/>
</g>
<!-- Node6 -->
<g id="node6" class="node">
<title>Node6</title>
<g id="a_node6"><a xlink:href="class_photon_1_1_pun_1_1_photon_editor.xhtml#a99bd344ea5aca58ba407c82fbbe7da62" target="_top" xlink:title=" ">
<polygon fill="white" stroke="black" points="332,-22.5 332,-52.5 462,-52.5 462,-22.5 332,-22.5"/>
<text text-anchor="start" x="340" y="-40.5" font-family="Helvetica,sans-Serif" font-size="10.00">Photon.Pun.PhotonEditor.</text>
<text text-anchor="middle" x="397" y="-29.5" font-family="Helvetica,sans-Serif" font-size="10.00">RegisterWithEmail</text>
</a>
</g>
</g>
<!-- Node5&#45;&gt;Node6 -->
<g id="edge5" class="edge">
<title>Node5&#45;&gt;Node6</title>
<path fill="none" stroke="midnightblue" d="M487.7,-37.5C479.08,-37.5 470.5,-37.5 462.25,-37.5"/>
<polygon fill="midnightblue" stroke="midnightblue" points="487.81,-41 497.81,-37.5 487.81,-34 487.81,-41"/>
</g>
<!-- Node6&#45;&gt;Node7 -->
<g id="edge6" class="edge">
<title>Node6&#45;&gt;Node7</title>
<path fill="none" stroke="midnightblue" d="M321.71,-27.53C313.18,-26.39 304.54,-25.23 296.16,-24.11"/>
<polygon fill="midnightblue" stroke="midnightblue" points="321.28,-31.01 331.65,-28.87 322.21,-24.07 321.28,-31.01"/>
</g>
<!-- Node8 -->
<g id="node8" class="node">
<title>Node8</title>
<g id="a_node8"><a xlink:href="class_photon_1_1_pun_1_1_photon_editor.xhtml#ab21f8a304ebf60d3732e3100f2417c8d" target="_top" xlink:title=" ">
<polygon fill="white" stroke="black" points="0,-0.5 0,-30.5 130,-30.5 130,-0.5 0,-0.5"/>
<text text-anchor="start" x="8" y="-18.5" font-family="Helvetica,sans-Serif" font-size="10.00">Photon.Pun.PhotonEditor.</text>
<text text-anchor="middle" x="65" y="-7.5" font-family="Helvetica,sans-Serif" font-size="10.00">OnGUI</text>
</a>
</g>
</g>
<!-- Node7&#45;&gt;Node8 -->
<g id="edge7" class="edge">
<title>Node7&#45;&gt;Node8</title>
<path fill="none" stroke="midnightblue" d="M155.44,-15.5C147,-15.5 138.45,-15.5 130.16,-15.5"/>
<polygon fill="midnightblue" stroke="midnightblue" points="155.65,-19 165.65,-15.5 155.65,-12 155.65,-19"/>
</g>
</g>
</svg>
