<?xml version="1.0" encoding="UTF-8" standalone="no"?>
<!DOCTYPE svg PUBLIC "-//W3C//DTD SVG 1.1//EN"
 "http://www.w3.org/Graphics/SVG/1.1/DTD/svg11.dtd">
<!-- Generated by graphviz version 2.47.3 (20210619.1520)
 -->
<!-- Title: Photon.Pun.PhotonNetwork.SetupLogging Pages: 1 -->
<svg width="521pt" height="182pt"
 viewBox="0.00 0.00 521.00 181.50" xmlns="http://www.w3.org/2000/svg" xmlns:xlink="http://www.w3.org/1999/xlink">
<g id="graph0" class="graph" transform="scale(1 1) rotate(0) translate(4 177.5)">
<title>Photon.Pun.PhotonNetwork.SetupLogging</title>
<polygon fill="white" stroke="transparent" points="-4,4 -4,-177.5 517,-177.5 517,4 -4,4"/>
<!-- Node1 -->
<g id="node1" class="node">
<title>Node1</title>
<g id="a_node1"><a xlink:title="Applies default log settings if they are not set up programmatically.">
<polygon fill="#bfbfbf" stroke="black" points="373,-71.5 373,-101.5 513,-101.5 513,-71.5 373,-71.5"/>
<text text-anchor="start" x="381" y="-89.5" font-family="Helvetica,sans-Serif" font-size="10.00">Photon.Pun.PhotonNetwork.</text>
<text text-anchor="middle" x="443" y="-78.5" font-family="Helvetica,sans-Serif" font-size="10.00">SetupLogging</text>
</a>
</g>
</g>
<!-- Node2 -->
<g id="node2" class="node">
<title>Node2</title>
<g id="a_node2"><a xlink:href="class_photon_1_1_pun_1_1_photon_network.xhtml#ad3c8b7c177d986ceea13dbfb858a4a79" target="_top" xlink:title="Connect to the Photon Cloud region with the lowest ping (on platforms that support Unity&#39;s Ping).">
<polygon fill="white" stroke="black" points="197,-137.5 197,-167.5 337,-167.5 337,-137.5 197,-137.5"/>
<text text-anchor="start" x="205" y="-155.5" font-family="Helvetica,sans-Serif" font-size="10.00">Photon.Pun.PhotonNetwork.</text>
<text text-anchor="middle" x="267" y="-144.5" font-family="Helvetica,sans-Serif" font-size="10.00">ConnectToBestCloudServer</text>
</a>
</g>
</g>
<!-- Node1&#45;&gt;Node2 -->
<g id="edge1" class="edge">
<title>Node1&#45;&gt;Node2</title>
<path fill="none" stroke="midnightblue" d="M392.48,-105.28C365.63,-115.47 332.9,-127.88 307.73,-137.43"/>
<polygon fill="midnightblue" stroke="midnightblue" points="393.97,-108.46 402.08,-101.64 391.49,-101.92 393.97,-108.46"/>
</g>
<!-- Node4 -->
<g id="node4" class="node">
<title>Node4</title>
<g id="a_node4"><a xlink:href="class_photon_1_1_pun_1_1_photon_network.xhtml#ae031208b657a2e01d80ddf4b02d0d23f" target="_top" xlink:title=" ">
<polygon fill="white" stroke="black" points="10.5,-66.5 10.5,-96.5 150.5,-96.5 150.5,-66.5 10.5,-66.5"/>
<text text-anchor="start" x="18.5" y="-84.5" font-family="Helvetica,sans-Serif" font-size="10.00">Photon.Pun.PhotonNetwork.</text>
<text text-anchor="middle" x="80.5" y="-73.5" font-family="Helvetica,sans-Serif" font-size="10.00">ConnectUsingSettings</text>
</a>
</g>
</g>
<!-- Node1&#45;&gt;Node4 -->
<g id="edge9" class="edge">
<title>Node1&#45;&gt;Node4</title>
<path fill="none" stroke="midnightblue" d="M362.68,-89.01C354.01,-89.21 345.32,-89.38 337,-89.5 274.78,-90.39 259.19,-91.65 197,-89.5 182.03,-88.98 166,-88.09 150.78,-87.08"/>
<polygon fill="midnightblue" stroke="midnightblue" points="362.91,-92.5 372.82,-88.76 362.73,-85.5 362.91,-92.5"/>
</g>
<!-- Node5 -->
<g id="node5" class="node">
<title>Node5</title>
<g id="a_node5"><a xlink:href="class_photon_1_1_pun_1_1_photon_network.xhtml#aec6b6dd3b56678c58175e5d2a4cb5661" target="_top" xlink:title="Connect to a Photon Master Server by address, port, appID.">
<polygon fill="white" stroke="black" points="197,-49.5 197,-79.5 337,-79.5 337,-49.5 197,-49.5"/>
<text text-anchor="start" x="205" y="-67.5" font-family="Helvetica,sans-Serif" font-size="10.00">Photon.Pun.PhotonNetwork.</text>
<text text-anchor="middle" x="267" y="-56.5" font-family="Helvetica,sans-Serif" font-size="10.00">ConnectToMaster</text>
</a>
</g>
</g>
<!-- Node1&#45;&gt;Node5 -->
<g id="edge4" class="edge">
<title>Node1&#45;&gt;Node5</title>
<path fill="none" stroke="midnightblue" d="M362.97,-76.51C354.38,-75.42 345.68,-74.32 337.22,-73.25"/>
<polygon fill="midnightblue" stroke="midnightblue" points="362.62,-79.99 372.98,-77.77 363.5,-73.05 362.62,-79.99"/>
</g>
<!-- Node6 -->
<g id="node6" class="node">
<title>Node6</title>
<g id="a_node6"><a xlink:href="class_photon_1_1_pun_1_1_photon_network.xhtml#a37971483afa605d0d1383970b11f8cec" target="_top" xlink:title="Connects to the Photon Cloud region of choice.">
<polygon fill="white" stroke="black" points="197,-0.5 197,-30.5 337,-30.5 337,-0.5 197,-0.5"/>
<text text-anchor="start" x="205" y="-18.5" font-family="Helvetica,sans-Serif" font-size="10.00">Photon.Pun.PhotonNetwork.</text>
<text text-anchor="middle" x="267" y="-7.5" font-family="Helvetica,sans-Serif" font-size="10.00">ConnectToRegion</text>
</a>
</g>
</g>
<!-- Node1&#45;&gt;Node6 -->
<g id="edge6" class="edge">
<title>Node1&#45;&gt;Node6</title>
<path fill="none" stroke="midnightblue" d="M401.04,-67.18C381.77,-58.35 358.38,-47.98 337,-39.5 329.34,-36.46 321.12,-33.41 313.12,-30.57"/>
<polygon fill="midnightblue" stroke="midnightblue" points="399.59,-70.37 410.14,-71.38 402.52,-64.01 399.59,-70.37"/>
</g>
<!-- Node3 -->
<g id="node3" class="node">
<title>Node3</title>
<g id="a_node3"><a xlink:href="class_photon_1_1_pun_1_1_demo_1_1_cockpit_1_1_pun_cockpit.xhtml#aa1e25a33ff6d9e679ebb0f1738c5f7fd" target="_top" xlink:title=" ">
<polygon fill="white" stroke="black" points="0,-132 0,-173 161,-173 161,-132 0,-132"/>
<text text-anchor="start" x="8" y="-161" font-family="Helvetica,sans-Serif" font-size="10.00">Photon.Pun.Demo.Cockpit.</text>
<text text-anchor="start" x="8" y="-150" font-family="Helvetica,sans-Serif" font-size="10.00">PunCockpit.ConnectToBestCloud</text>
<text text-anchor="middle" x="80.5" y="-139" font-family="Helvetica,sans-Serif" font-size="10.00">Server</text>
</a>
</g>
</g>
<!-- Node2&#45;&gt;Node3 -->
<g id="edge2" class="edge">
<title>Node2&#45;&gt;Node3</title>
<path fill="none" stroke="midnightblue" d="M186.55,-152.5C178.1,-152.5 169.5,-152.5 161.04,-152.5"/>
<polygon fill="midnightblue" stroke="midnightblue" points="186.77,-156 196.77,-152.5 186.77,-149 186.77,-156"/>
</g>
<!-- Node2&#45;&gt;Node4 -->
<g id="edge3" class="edge">
<title>Node2&#45;&gt;Node4</title>
<path fill="none" stroke="midnightblue" d="M217.37,-133.79C187.15,-122.16 148.81,-107.4 120.57,-96.54"/>
<polygon fill="midnightblue" stroke="midnightblue" points="216.28,-137.12 226.87,-137.44 218.8,-130.58 216.28,-137.12"/>
</g>
<!-- Node5&#45;&gt;Node4 -->
<g id="edge5" class="edge">
<title>Node5&#45;&gt;Node4</title>
<path fill="none" stroke="midnightblue" d="M186.73,-71.8C174.68,-72.91 162.32,-74.05 150.5,-75.14"/>
<polygon fill="midnightblue" stroke="midnightblue" points="187.14,-75.28 196.77,-70.88 186.5,-68.31 187.14,-75.28"/>
</g>
<!-- Node6&#45;&gt;Node4 -->
<g id="edge8" class="edge">
<title>Node6&#45;&gt;Node4</title>
<path fill="none" stroke="midnightblue" d="M212.9,-33.88C207.53,-35.77 202.15,-37.67 197,-39.5 172.17,-48.33 144.42,-58.42 122.34,-66.49"/>
<polygon fill="midnightblue" stroke="midnightblue" points="214.25,-37.12 222.53,-30.51 211.94,-30.51 214.25,-37.12"/>
</g>
<!-- Node7 -->
<g id="node7" class="node">
<title>Node7</title>
<g id="a_node7"><a xlink:href="class_photon_1_1_pun_1_1_demo_1_1_cockpit_1_1_pun_cockpit.xhtml#a5c90be793ca1f7501275a194cd9671ab" target="_top" xlink:title=" ">
<polygon fill="white" stroke="black" points="7.5,-0.5 7.5,-30.5 153.5,-30.5 153.5,-0.5 7.5,-0.5"/>
<text text-anchor="start" x="15.5" y="-18.5" font-family="Helvetica,sans-Serif" font-size="10.00">Photon.Pun.Demo.Cockpit.</text>
<text text-anchor="middle" x="80.5" y="-7.5" font-family="Helvetica,sans-Serif" font-size="10.00">PunCockpit.ConnectToRegion</text>
</a>
</g>
</g>
<!-- Node6&#45;&gt;Node7 -->
<g id="edge7" class="edge">
<title>Node6&#45;&gt;Node7</title>
<path fill="none" stroke="midnightblue" d="M186.74,-15.5C175.73,-15.5 164.46,-15.5 153.58,-15.5"/>
<polygon fill="midnightblue" stroke="midnightblue" points="186.77,-19 196.77,-15.5 186.77,-12 186.77,-19"/>
</g>
</g>
</svg>
