<?xml version="1.0" encoding="UTF-8" standalone="no"?>
<!DOCTYPE svg PUBLIC "-//W3C//DTD SVG 1.1//EN"
 "http://www.w3.org/Graphics/SVG/1.1/DTD/svg11.dtd">
<!-- Generated by graphviz version 2.47.3 (20210619.1520)
 -->
<!-- Title: Photon.Pun.UtilityScripts.PhotonTeamsManager.GetTeamMembersCount Pages: 1 -->
<svg width="731pt" height="88pt"
 viewBox="0.00 0.00 731.00 88.00" xmlns="http://www.w3.org/2000/svg" xmlns:xlink="http://www.w3.org/1999/xlink">
<g id="graph0" class="graph" transform="scale(1 1) rotate(0) translate(4 84)">
<title>Photon.Pun.UtilityScripts.PhotonTeamsManager.GetTeamMembersCount</title>
<polygon fill="white" stroke="transparent" points="-4,4 -4,-84 727,-84 727,4 -4,4"/>
<!-- Node1 -->
<g id="node1" class="node">
<title>Node1</title>
<g id="a_node1"><a xlink:title="Gets the number of players in a team by team name.">
<polygon fill="#bfbfbf" stroke="black" points="0,-24.5 0,-54.5 223,-54.5 223,-24.5 0,-24.5"/>
<text text-anchor="start" x="8" y="-42.5" font-family="Helvetica,sans-Serif" font-size="10.00">Photon.Pun.UtilityScripts.</text>
<text text-anchor="middle" x="111.5" y="-31.5" font-family="Helvetica,sans-Serif" font-size="10.00">PhotonTeamsManager.GetTeamMembersCount</text>
</a>
</g>
</g>
<!-- Node2 -->
<g id="node2" class="node">
<title>Node2</title>
<g id="a_node2"><a xlink:href="class_photon_1_1_pun_1_1_utility_scripts_1_1_photon_teams_manager.xhtml#a6a641528ca028cb8673f80efea15701d" target="_top" xlink:title="Gets the number of players in a team by team code.">
<polygon fill="white" stroke="black" points="259,-49.5 259,-79.5 482,-79.5 482,-49.5 259,-49.5"/>
<text text-anchor="start" x="267" y="-67.5" font-family="Helvetica,sans-Serif" font-size="10.00">Photon.Pun.UtilityScripts.</text>
<text text-anchor="middle" x="370.5" y="-56.5" font-family="Helvetica,sans-Serif" font-size="10.00">PhotonTeamsManager.GetTeamMembersCount</text>
</a>
</g>
</g>
<!-- Node1&#45;&gt;Node2 -->
<g id="edge1" class="edge">
<title>Node1&#45;&gt;Node2</title>
<path fill="none" stroke="midnightblue" d="M223.36,-50.28C231.66,-51.09 240.07,-51.91 248.43,-52.72"/>
<polygon fill="midnightblue" stroke="midnightblue" points="248.31,-56.23 258.6,-53.71 248.99,-49.26 248.31,-56.23"/>
</g>
<!-- Node4 -->
<g id="node4" class="node">
<title>Node4</title>
<g id="a_node4"><a xlink:href="class_photon_1_1_pun_1_1_utility_scripts_1_1_photon_teams_manager.xhtml#a54d069e7996c826dcdd23bc8eb9905d7" target="_top" xlink:title="Find a PhotonTeam using a team name.">
<polygon fill="white" stroke="black" points="266.5,-0.5 266.5,-30.5 474.5,-30.5 474.5,-0.5 266.5,-0.5"/>
<text text-anchor="start" x="274.5" y="-18.5" font-family="Helvetica,sans-Serif" font-size="10.00">Photon.Pun.UtilityScripts.</text>
<text text-anchor="middle" x="370.5" y="-7.5" font-family="Helvetica,sans-Serif" font-size="10.00">PhotonTeamsManager.TryGetTeamByName</text>
</a>
</g>
</g>
<!-- Node1&#45;&gt;Node4 -->
<g id="edge3" class="edge">
<title>Node1&#45;&gt;Node4</title>
<path fill="none" stroke="midnightblue" d="M223.36,-29.15C234.28,-28.13 245.37,-27.09 256.32,-26.07"/>
<polygon fill="midnightblue" stroke="midnightblue" points="256.68,-29.55 266.32,-25.14 256.03,-22.58 256.68,-29.55"/>
</g>
<!-- Node3 -->
<g id="node3" class="node">
<title>Node3</title>
<g id="a_node3"><a xlink:href="class_photon_1_1_pun_1_1_utility_scripts_1_1_photon_teams_manager.xhtml#a29ee09cb37349dd79f2d97cf2ca30ed8" target="_top" xlink:title="Find a PhotonTeam using a team code.">
<polygon fill="white" stroke="black" points="518,-49.5 518,-79.5 723,-79.5 723,-49.5 518,-49.5"/>
<text text-anchor="start" x="526" y="-67.5" font-family="Helvetica,sans-Serif" font-size="10.00">Photon.Pun.UtilityScripts.</text>
<text text-anchor="middle" x="620.5" y="-56.5" font-family="Helvetica,sans-Serif" font-size="10.00">PhotonTeamsManager.TryGetTeamByCode</text>
</a>
</g>
</g>
<!-- Node2&#45;&gt;Node3 -->
<g id="edge2" class="edge">
<title>Node2&#45;&gt;Node3</title>
<path fill="none" stroke="midnightblue" d="M482.08,-64.5C490.53,-64.5 499.06,-64.5 507.52,-64.5"/>
<polygon fill="midnightblue" stroke="midnightblue" points="507.79,-68 517.79,-64.5 507.79,-61 507.79,-68"/>
</g>
</g>
</svg>
