<?xml version="1.0" encoding="UTF-8" standalone="no"?>
<!DOCTYPE svg PUBLIC "-//W3C//DTD SVG 1.1//EN"
 "http://www.w3.org/Graphics/SVG/1.1/DTD/svg11.dtd">
<!-- Generated by graphviz version 2.50.0 (20211204.2007)
 -->
<!-- Title: MSRelativeEffect.ApplyTimedEffect Pages: 1 -->
<svg width="677pt" height="154pt"
 viewBox="0.00 0.00 677.00 154.00" xmlns="http://www.w3.org/2000/svg" xmlns:xlink="http://www.w3.org/1999/xlink">
<g id="graph0" class="graph" transform="scale(1 1) rotate(0) translate(4 150)">
<title>MSRelativeEffect.ApplyTimedEffect</title>
<polygon fill="white" stroke="transparent" points="-4,4 -4,-150 673,-150 673,4 -4,4"/>
<!-- Node1 -->
<g id="node1" class="node">
<title>Node1</title>
<g id="a_node1"><a xlink:title=" ">
<polygon fill="#bfbfbf" stroke="black" points="0,-55 0,-85 144,-85 144,-55 0,-55"/>
<text text-anchor="start" x="8" y="-73" font-family="Helvetica,sans-Serif" font-size="10.00">MSRelativeEffect.ApplyTimed</text>
<text text-anchor="middle" x="72" y="-62" font-family="Helvetica,sans-Serif" font-size="10.00">Effect</text>
</a>
</g>
</g>
<!-- Node2 -->
<g id="node2" class="node">
<title>Node2</title>
<g id="a_node2"><a xlink:href="class_movable_stats.html#acf1dcd4dda6a7737fd53e33c84d2f6e7" target="_top" xlink:title=" ">
<polygon fill="white" stroke="black" points="183.5,-126.5 183.5,-145.5 322.5,-145.5 322.5,-126.5 183.5,-126.5"/>
<text text-anchor="middle" x="253" y="-133.5" font-family="Helvetica,sans-Serif" font-size="10.00">MovableStats.ApplyStatistic</text>
</a>
</g>
</g>
<!-- Node1&#45;&gt;Node2 -->
<g id="edge1" class="edge">
<title>Node1&#45;&gt;Node2</title>
<path fill="none" stroke="midnightblue" d="M103.86,-85.09C124.96,-95.02 153.76,-107.84 180,-117 186.88,-119.4 194.22,-121.67 201.49,-123.74"/>
<polygon fill="midnightblue" stroke="midnightblue" points="200.73,-127.16 211.3,-126.44 202.59,-120.41 200.73,-127.16"/>
</g>
<!-- Node3 -->
<g id="node3" class="node">
<title>Node3</title>
<g id="a_node3"><a xlink:href="class_m_s_relative_effect.html#a448d408f4fd75e6dd848ec5e28e44bd4" target="_top" xlink:title=" ">
<polygon fill="white" stroke="black" points="186,-77 186,-107 320,-107 320,-77 186,-77"/>
<text text-anchor="start" x="194" y="-95" font-family="Helvetica,sans-Serif" font-size="10.00">MSRelativeEffect.Calculate</text>
<text text-anchor="middle" x="253" y="-84" font-family="Helvetica,sans-Serif" font-size="10.00">SlowAmount</text>
</a>
</g>
</g>
<!-- Node1&#45;&gt;Node3 -->
<g id="edge2" class="edge">
<title>Node1&#45;&gt;Node3</title>
<path fill="none" stroke="midnightblue" d="M144,-78.73C154.43,-80.01 165.21,-81.33 175.74,-82.63"/>
<polygon fill="midnightblue" stroke="midnightblue" points="175.39,-86.11 185.74,-83.86 176.24,-79.16 175.39,-86.11"/>
</g>
<!-- Node4 -->
<g id="node4" class="node">
<title>Node4</title>
<g id="a_node4"><a xlink:href="class_effect_manager.html#aabe536a972389473af36e685412eecd1" target="_top" xlink:title="This function needs to be called whenever a TimedEffect finishes">
<polygon fill="white" stroke="black" points="180,-38.5 180,-57.5 326,-57.5 326,-38.5 180,-38.5"/>
<text text-anchor="middle" x="253" y="-45.5" font-family="Helvetica,sans-Serif" font-size="10.00">EffectManager.OnFinishEffect</text>
</a>
</g>
</g>
<!-- Node1&#45;&gt;Node4 -->
<g id="edge3" class="edge">
<title>Node1&#45;&gt;Node4</title>
<path fill="none" stroke="midnightblue" d="M144,-61.27C152.49,-60.23 161.21,-59.16 169.84,-58.1"/>
<polygon fill="midnightblue" stroke="midnightblue" points="170.41,-61.55 179.91,-56.86 169.56,-54.61 170.41,-61.55"/>
</g>
<!-- Node7 -->
<g id="node7" class="node">
<title>Node7</title>
<g id="a_node7"><a xlink:href="class_movable_stats.html#ac0f262132c2c844d19a9e792eae815ee" target="_top" xlink:title=" ">
<polygon fill="white" stroke="black" points="182.5,-0.5 182.5,-19.5 323.5,-19.5 323.5,-0.5 182.5,-0.5"/>
<text text-anchor="middle" x="253" y="-7.5" font-family="Helvetica,sans-Serif" font-size="10.00">MovableStats.RevertStatistic</text>
</a>
</g>
</g>
<!-- Node1&#45;&gt;Node7 -->
<g id="edge6" class="edge">
<title>Node1&#45;&gt;Node7</title>
<path fill="none" stroke="midnightblue" d="M109.3,-54.97C129.85,-46.75 156.14,-36.69 180,-29 187.27,-26.65 195.02,-24.38 202.65,-22.27"/>
<polygon fill="midnightblue" stroke="midnightblue" points="203.8,-25.58 212.54,-19.59 201.97,-18.82 203.8,-25.58"/>
</g>
<!-- Node5 -->
<g id="node5" class="node">
<title>Node5</title>
<g id="a_node5"><a xlink:href="class_effect_h_u_d_controller.html#a5d2dd46778d538fb1474624fd083818b" target="_top" xlink:title=" ">
<polygon fill="white" stroke="black" points="362,-33 362,-63 499,-63 499,-33 362,-33"/>
<text text-anchor="start" x="370" y="-51" font-family="Helvetica,sans-Serif" font-size="10.00">EffectHUDController.Update</text>
<text text-anchor="middle" x="430.5" y="-40" font-family="Helvetica,sans-Serif" font-size="10.00">Effects</text>
</a>
</g>
</g>
<!-- Node4&#45;&gt;Node5 -->
<g id="edge4" class="edge">
<title>Node4&#45;&gt;Node5</title>
<path fill="none" stroke="midnightblue" d="M326.14,-48C334.54,-48 343.14,-48 351.62,-48"/>
<polygon fill="midnightblue" stroke="midnightblue" points="351.87,-51.5 361.87,-48 351.87,-44.5 351.87,-51.5"/>
</g>
<!-- Node6 -->
<g id="node6" class="node">
<title>Node6</title>
<g id="a_node6"><a xlink:href="class_tooltip_hoverable.html#aa032f3d5511f81d1991c779fba71d295" target="_top" xlink:title=" ">
<polygon fill="white" stroke="black" points="535,-38.5 535,-57.5 669,-57.5 669,-38.5 535,-38.5"/>
<text text-anchor="middle" x="602" y="-45.5" font-family="Helvetica,sans-Serif" font-size="10.00">TooltipHoverable.SetTooltip</text>
</a>
</g>
</g>
<!-- Node5&#45;&gt;Node6 -->
<g id="edge5" class="edge">
<title>Node5&#45;&gt;Node6</title>
<path fill="none" stroke="midnightblue" d="M499.47,-48C507.78,-48 516.32,-48 524.75,-48"/>
<polygon fill="midnightblue" stroke="midnightblue" points="524.95,-51.5 534.95,-48 524.95,-44.5 524.95,-51.5"/>
</g>
</g>
</svg>
