<?xml version="1.0" encoding="UTF-8" standalone="no"?>
<!DOCTYPE svg PUBLIC "-//W3C//DTD SVG 1.1//EN"
 "http://www.w3.org/Graphics/SVG/1.1/DTD/svg11.dtd">
<!-- Generated by graphviz version 2.47.3 (20210619.1520)
 -->
<!-- Title: PlayerUIController.UpdateMaxHP Pages: 1 -->
<svg width="1110pt" height="123pt"
 viewBox="0.00 0.00 1110.00 123.00" xmlns="http://www.w3.org/2000/svg" xmlns:xlink="http://www.w3.org/1999/xlink">
<g id="graph0" class="graph" transform="scale(1 1) rotate(0) translate(4 119)">
<title>PlayerUIController.UpdateMaxHP</title>
<!-- Node1 -->
<g id="node1" class="node">
<title>Node1</title>
<g id="a_node1"><a xlink:title=" ">
<polygon fill="#bfbfbf" stroke="black" points="974,-71 974,-101 1102,-101 1102,-71 974,-71"/>
<text text-anchor="start" x="982" y="-89" font-family="Helvetica,sans-Serif" font-size="10.00">PlayerUIController.Update</text>
<text text-anchor="middle" x="1038" y="-78" font-family="Helvetica,sans-Serif" font-size="10.00">MaxHP</text>
</a>
</g>
</g>
<!-- Node2 -->
<g id="node2" class="node">
<title>Node2</title>
<g id="a_node2"><a xlink:href="class_player_u_i_controller.html#aa5b61a93967fa5ce39bfd950a9e9d584" target="_top" xlink:title="Initializes all the values into the Image and Text.">
<polygon fill="none" stroke="black" points="805,-71 805,-101 938,-101 938,-71 805,-71"/>
<text text-anchor="start" x="813" y="-89" font-family="Helvetica,sans-Serif" font-size="10.00">PlayerUIController.Initialize</text>
<text text-anchor="middle" x="871.5" y="-78" font-family="Helvetica,sans-Serif" font-size="10.00">Values</text>
</a>
</g>
</g>
<!-- Node1&#45;&gt;Node2 -->
<g id="edge1" class="edge">
<title>Node1&#45;&gt;Node2</title>
<path fill="none" stroke="midnightblue" d="M963.62,-86C955.15,-86 946.55,-86 938.19,-86"/>
<polygon fill="midnightblue" stroke="midnightblue" points="963.87,-89.5 973.87,-86 963.87,-82.5 963.87,-89.5"/>
</g>
<!-- Node3 -->
<g id="node3" class="node">
<title>Node3</title>
<g id="a_node3"><a xlink:href="class_player_u_i_controller.html#ab6ed746dec17fdf763bc4ec1d713db7f" target="_top" xlink:title="Initializes all the values and colors for this Player.">
<polygon fill="none" stroke="black" points="638,-76.5 638,-95.5 769,-95.5 769,-76.5 638,-76.5"/>
<text text-anchor="middle" x="703.5" y="-83.5" font-family="Helvetica,sans-Serif" font-size="10.00">PlayerUIController.Initalize</text>
</a>
</g>
</g>
<!-- Node2&#45;&gt;Node3 -->
<g id="edge2" class="edge">
<title>Node2&#45;&gt;Node3</title>
<path fill="none" stroke="midnightblue" d="M794.86,-86C786.25,-86 777.54,-86 769.09,-86"/>
<polygon fill="midnightblue" stroke="midnightblue" points="794.89,-89.5 804.89,-86 794.89,-82.5 794.89,-89.5"/>
</g>
<!-- Node4 -->
<g id="node4" class="node">
<title>Node4</title>
<g id="a_node4"><a xlink:href="class_mannequin_stats.html#a37606eeeec31415945d8e152af0f7e15" target="_top" xlink:title=" ">
<polygon fill="none" stroke="black" points="477,-95.5 477,-114.5 602,-114.5 602,-95.5 477,-95.5"/>
<text text-anchor="middle" x="539.5" y="-102.5" font-family="Helvetica,sans-Serif" font-size="10.00">MannequinStats.Initialize</text>
</a>
</g>
</g>
<!-- Node3&#45;&gt;Node4 -->
<g id="edge3" class="edge">
<title>Node3&#45;&gt;Node4</title>
<path fill="none" stroke="midnightblue" d="M627.58,-94.79C619.03,-95.79 610.4,-96.8 602.05,-97.78"/>
<polygon fill="midnightblue" stroke="midnightblue" points="628.02,-98.26 637.54,-93.62 627.2,-91.31 628.02,-98.26"/>
</g>
<!-- Node6 -->
<g id="node6" class="node">
<title>Node6</title>
<g id="a_node6"><a xlink:href="class_player_stats.html#a5e274804959d13db76f140e8efcf9411" target="_top" xlink:title="Initialize the actual Stats of the Player.">
<polygon fill="none" stroke="black" points="486.5,-57.5 486.5,-76.5 592.5,-76.5 592.5,-57.5 486.5,-57.5"/>
<text text-anchor="middle" x="539.5" y="-64.5" font-family="Helvetica,sans-Serif" font-size="10.00">PlayerStats.Initialize</text>
</a>
</g>
</g>
<!-- Node3&#45;&gt;Node6 -->
<g id="edge5" class="edge">
<title>Node3&#45;&gt;Node6</title>
<path fill="none" stroke="midnightblue" d="M627.28,-77.18C615.52,-75.8 603.6,-74.4 592.52,-73.1"/>
<polygon fill="midnightblue" stroke="midnightblue" points="627.2,-80.69 637.54,-78.38 628.02,-73.74 627.2,-80.69"/>
</g>
<!-- Node5 -->
<g id="node5" class="node">
<title>Node5</title>
<g id="a_node5"><a xlink:href="class_mannequin.html#af638d1036ae3aee689fe03b43cea0df5" target="_top" xlink:title=" ">
<polygon fill="none" stroke="black" points="335,-95.5 335,-114.5 423,-114.5 423,-95.5 335,-95.5"/>
<text text-anchor="middle" x="379" y="-102.5" font-family="Helvetica,sans-Serif" font-size="10.00">Mannequin.Start</text>
</a>
</g>
</g>
<!-- Node4&#45;&gt;Node5 -->
<g id="edge4" class="edge">
<title>Node4&#45;&gt;Node5</title>
<path fill="none" stroke="midnightblue" d="M466.59,-105C451.77,-105 436.6,-105 423.19,-105"/>
<polygon fill="midnightblue" stroke="midnightblue" points="466.77,-108.5 476.77,-105 466.77,-101.5 466.77,-108.5"/>
</g>
<!-- Node7 -->
<g id="node7" class="node">
<title>Node7</title>
<g id="a_node7"><a xlink:href="class_player_stats.html#a5caca2bd8f676341a2b269aea8a0f1ff" target="_top" xlink:title="Function that implements what is done when this entity dies.">
<polygon fill="none" stroke="black" points="336.5,-57.5 336.5,-76.5 421.5,-76.5 421.5,-57.5 336.5,-57.5"/>
<text text-anchor="middle" x="379" y="-64.5" font-family="Helvetica,sans-Serif" font-size="10.00">PlayerStats.Die</text>
</a>
</g>
</g>
<!-- Node6&#45;&gt;Node7 -->
<g id="edge6" class="edge">
<title>Node6&#45;&gt;Node7</title>
<path fill="none" stroke="midnightblue" d="M475.92,-67C457.74,-67 438.32,-67 421.75,-67"/>
<polygon fill="midnightblue" stroke="midnightblue" points="476.16,-70.5 486.16,-67 476.16,-63.5 476.16,-70.5"/>
</g>
<!-- Node9 -->
<g id="node9" class="node">
<title>Node9</title>
<g id="a_node9"><a xlink:href="class_player_controller.html#a75e94e4fd555e57e55ab4b7e54024dcf" target="_top" xlink:title="Initialize the PlayerController.">
<polygon fill="none" stroke="black" points="317,-19.5 317,-38.5 441,-38.5 441,-19.5 317,-19.5"/>
<text text-anchor="middle" x="379" y="-26.5" font-family="Helvetica,sans-Serif" font-size="10.00">PlayerController.Initialize</text>
</a>
</g>
</g>
<!-- Node6&#45;&gt;Node9 -->
<g id="edge8" class="edge">
<title>Node6&#45;&gt;Node9</title>
<path fill="none" stroke="midnightblue" d="M488.58,-55.03C466.37,-49.71 440.58,-43.52 419.71,-38.52"/>
<polygon fill="midnightblue" stroke="midnightblue" points="487.96,-58.48 498.5,-57.41 489.6,-51.68 487.96,-58.48"/>
</g>
<!-- Node8 -->
<g id="node8" class="node">
<title>Node8</title>
<g id="a_node8"><a xlink:href="class_player_stats.html#a6542a649dfb0cccc9fe329c83024e3ed" target="_top" xlink:title=" ">
<polygon fill="none" stroke="black" points="135,-57.5 135,-76.5 281,-76.5 281,-57.5 135,-57.5"/>
<text text-anchor="middle" x="208" y="-64.5" font-family="Helvetica,sans-Serif" font-size="10.00">PlayerStats.DealDamageRPC</text>
</a>
</g>
</g>
<!-- Node7&#45;&gt;Node8 -->
<g id="edge7" class="edge">
<title>Node7&#45;&gt;Node8</title>
<path fill="none" stroke="midnightblue" d="M326.17,-67C311.98,-67 296.33,-67 281.22,-67"/>
<polygon fill="midnightblue" stroke="midnightblue" points="326.22,-70.5 336.22,-67 326.22,-63.5 326.22,-70.5"/>
</g>
<!-- Node10 -->
<g id="node10" class="node">
<title>Node10</title>
<g id="a_node10"><a xlink:href="class_model_sync.html#ab8359f73ae31a7f926c80ebcd7e9444a" target="_top" xlink:title="This starts all the initialization chain for the player.">
<polygon fill="none" stroke="black" points="153,-19.5 153,-38.5 263,-38.5 263,-19.5 153,-19.5"/>
<text text-anchor="middle" x="208" y="-26.5" font-family="Helvetica,sans-Serif" font-size="10.00">ModelSync.DoEnable</text>
</a>
</g>
</g>
<!-- Node9&#45;&gt;Node10 -->
<g id="edge9" class="edge">
<title>Node9&#45;&gt;Node10</title>
<path fill="none" stroke="midnightblue" d="M306.96,-29C292.32,-29 277.13,-29 263.2,-29"/>
<polygon fill="midnightblue" stroke="midnightblue" points="306.99,-32.5 316.99,-29 306.99,-25.5 306.99,-32.5"/>
</g>
<!-- Node11 -->
<g id="node11" class="node">
<title>Node11</title>
<g id="a_node11"><a xlink:href="class_model_sync.html#a47be08ee3bbd2a173514e74da3dd65cb" target="_top" xlink:title=" ">
<polygon fill="none" stroke="black" points="5,-38.5 5,-57.5 94,-57.5 94,-38.5 5,-38.5"/>
<text text-anchor="middle" x="49.5" y="-45.5" font-family="Helvetica,sans-Serif" font-size="10.00">ModelSync.Start</text>
</a>
</g>
</g>
<!-- Node10&#45;&gt;Node11 -->
<g id="edge10" class="edge">
<title>Node10&#45;&gt;Node11</title>
<path fill="none" stroke="midnightblue" d="M142.66,-36.81C126.32,-38.79 109.15,-40.88 94.11,-42.71"/>
<polygon fill="midnightblue" stroke="midnightblue" points="143.2,-40.27 152.7,-35.59 142.35,-33.32 143.2,-40.27"/>
</g>
<!-- Node12 -->
<g id="node12" class="node">
<title>Node12</title>
<g id="a_node12"><a xlink:href="class_model_sync.html#abf63af5a901636617cb742aab24c4d6f" target="_top" xlink:title=" ">
<polygon fill="none" stroke="black" points="0,-0.5 0,-19.5 99,-19.5 99,-0.5 0,-0.5"/>
<text text-anchor="middle" x="49.5" y="-7.5" font-family="Helvetica,sans-Serif" font-size="10.00">ModelSync.Update</text>
</a>
</g>
</g>
<!-- Node10&#45;&gt;Node12 -->
<g id="edge11" class="edge">
<title>Node10&#45;&gt;Node12</title>
<path fill="none" stroke="midnightblue" d="M142.76,-21.2C128.21,-19.43 112.99,-17.59 99.21,-15.91"/>
<polygon fill="midnightblue" stroke="midnightblue" points="142.35,-24.68 152.7,-22.41 143.2,-17.73 142.35,-24.68"/>
</g>
</g>
</svg>
