<?xml version="1.0" encoding="UTF-8" standalone="no"?>
<!DOCTYPE svg PUBLIC "-//W3C//DTD SVG 1.1//EN"
 "http://www.w3.org/Graphics/SVG/1.1/DTD/svg11.dtd">
<!-- Generated by graphviz version 2.47.3 (20210619.1520)
 -->
<!-- Title: ModelSync Pages: 1 -->
<svg width="892pt" height="525pt"
 viewBox="0.00 0.00 891.50 525.00" xmlns="http://www.w3.org/2000/svg" xmlns:xlink="http://www.w3.org/1999/xlink">
<g id="graph0" class="graph" transform="scale(1 1) rotate(0) translate(4 521)">
<title>ModelSync</title>
<polygon fill="white" stroke="transparent" points="-4,4 -4,-521 887.5,-521 887.5,4 -4,4"/>
<!-- Node1 -->
<g id="node1" class="node">
<title>Node1</title>
<g id="a_node1"><a xlink:title=" ">
<polygon fill="#bfbfbf" stroke="black" points="583.5,-134.5 583.5,-153.5 648.5,-153.5 648.5,-134.5 583.5,-134.5"/>
<text text-anchor="middle" x="616" y="-141.5" font-family="Helvetica,sans-Serif" font-size="10.00">ModelSync</text>
</a>
</g>
</g>
<!-- Node2 -->
<g id="node2" class="node">
<title>Node2</title>
<g id="a_node2"><a xlink:title=" ">
<polygon fill="white" stroke="#bfbfbf" points="408.5,-440.5 408.5,-459.5 491.5,-459.5 491.5,-440.5 408.5,-440.5"/>
<text text-anchor="middle" x="450" y="-447.5" font-family="Helvetica,sans-Serif" font-size="10.00">MonoBehaviour</text>
</a>
</g>
</g>
<!-- Node2&#45;&gt;Node1 -->
<g id="edge1" class="edge">
<title>Node2&#45;&gt;Node1</title>
<path fill="none" stroke="midnightblue" d="M501.77,-440.99C564.53,-429.79 662,-406.94 662,-373 662,-373 662,-373 662,-219 662,-197.07 659.05,-190.32 647,-172 642.3,-164.84 635.19,-158.46 628.97,-153.7"/>
<polygon fill="midnightblue" stroke="midnightblue" points="500.88,-437.59 491.63,-442.75 502.08,-444.49 500.88,-437.59"/>
</g>
<!-- Node3 -->
<g id="node3" class="node">
<title>Node3</title>
<g id="a_node3"><a xlink:href="class_model_player_mediator.xhtml" target="_top" xlink:title=" ">
<polygon fill="white" stroke="black" points="526,-210.5 526,-229.5 634,-229.5 634,-210.5 526,-210.5"/>
<text text-anchor="middle" x="580" y="-217.5" font-family="Helvetica,sans-Serif" font-size="10.00">ModelPlayerMediator</text>
</a>
</g>
</g>
<!-- Node2&#45;&gt;Node3 -->
<g id="edge3" class="edge">
<title>Node2&#45;&gt;Node3</title>
<path fill="none" stroke="midnightblue" d="M482.51,-436.44C518.33,-420.72 574.37,-390.13 601,-344 622.47,-306.81 630.1,-286.95 612,-248 608.45,-240.35 601.54,-234.09 595.06,-229.53"/>
<polygon fill="midnightblue" stroke="midnightblue" points="480.83,-433.36 472.99,-440.48 483.56,-439.8 480.83,-433.36"/>
</g>
<!-- Node4 -->
<g id="node4" class="node">
<title>Node4</title>
<g id="a_node4"><a xlink:href="class_basic_attack.xhtml" target="_top" xlink:title=" ">
<polygon fill="white" stroke="black" points="260,-286.5 260,-305.5 330,-305.5 330,-286.5 260,-286.5"/>
<text text-anchor="middle" x="295" y="-293.5" font-family="Helvetica,sans-Serif" font-size="10.00">BasicAttack</text>
</a>
</g>
</g>
<!-- Node2&#45;&gt;Node4 -->
<g id="edge5" class="edge">
<title>Node2&#45;&gt;Node4</title>
<path fill="none" stroke="midnightblue" d="M433.86,-433.17C401.3,-401.24 328.71,-330.06 303.68,-305.51"/>
<polygon fill="midnightblue" stroke="midnightblue" points="431.63,-435.89 441.22,-440.39 436.53,-430.89 431.63,-435.89"/>
</g>
<!-- Node5 -->
<g id="node5" class="node">
<title>Node5</title>
<g id="a_node5"><a xlink:href="class_player_controller.xhtml" target="_top" xlink:title="Player Controller is the main class that handles all the movement of the Player.">
<polygon fill="white" stroke="black" points="140,-210.5 140,-229.5 226,-229.5 226,-210.5 140,-210.5"/>
<text text-anchor="middle" x="183" y="-217.5" font-family="Helvetica,sans-Serif" font-size="10.00">PlayerController</text>
</a>
</g>
</g>
<!-- Node2&#45;&gt;Node5 -->
<g id="edge7" class="edge">
<title>Node2&#45;&gt;Node5</title>
<path fill="none" stroke="midnightblue" d="M406.99,-437.67C338.51,-417.02 206.96,-366.08 153,-268 148.72,-260.21 149.38,-256.12 153,-248 156.31,-240.57 162.78,-234.34 168.86,-229.73"/>
<polygon fill="midnightblue" stroke="midnightblue" points="406.03,-441.04 416.62,-440.5 408.01,-434.32 406.03,-441.04"/>
</g>
<!-- Node6 -->
<g id="node6" class="node">
<title>Node6</title>
<g id="a_node6"><a xlink:href="class_ability_cooldown.xhtml" target="_top" xlink:title=" ">
<polygon fill="white" stroke="black" points="257,-67.5 257,-86.5 343,-86.5 343,-67.5 257,-67.5"/>
<text text-anchor="middle" x="300" y="-74.5" font-family="Helvetica,sans-Serif" font-size="10.00">AbilityCooldown</text>
</a>
</g>
</g>
<!-- Node2&#45;&gt;Node6 -->
<g id="edge9" class="edge">
<title>Node2&#45;&gt;Node6</title>
<path fill="none" stroke="midnightblue" d="M502.05,-447.05C538.16,-444.27 586.79,-437.65 627,-422 663.41,-407.82 700,-412.08 700,-373 700,-373 700,-373 700,-143 700,-107.16 446.62,-87.2 343.19,-80.54"/>
<polygon fill="midnightblue" stroke="midnightblue" points="501.47,-443.58 491.74,-447.76 501.96,-450.56 501.47,-443.58"/>
</g>
<!-- Node10 -->
<g id="node10" class="node">
<title>Node10</title>
<g id="a_node10"><a xlink:href="class_ability_indicator.xhtml" target="_top" xlink:title=" ">
<polygon fill="white" stroke="black" points="260,-0.5 260,-19.5 340,-19.5 340,-0.5 260,-0.5"/>
<text text-anchor="middle" x="300" y="-7.5" font-family="Helvetica,sans-Serif" font-size="10.00">AbilityIndicator</text>
</a>
</g>
</g>
<!-- Node2&#45;&gt;Node10 -->
<g id="edge16" class="edge">
<title>Node2&#45;&gt;Node10</title>
<path fill="none" stroke="midnightblue" d="M398.23,-448.23C310.79,-446.43 137.74,-440.57 80,-422 40.31,-409.23 0,-414.69 0,-373 0,-373 0,-373 0,-76 0,-23.44 178.1,-13.29 259.85,-11.39"/>
<polygon fill="midnightblue" stroke="midnightblue" points="398.39,-451.73 408.46,-448.43 398.53,-444.74 398.39,-451.73"/>
</g>
<!-- Node14 -->
<g id="node14" class="node">
<title>Node14</title>
<g id="a_node14"><a xlink:href="class_stats.xhtml" target="_top" xlink:title="Base class Stats of the entity.">
<polygon fill="white" stroke="black" points="430,-362.5 430,-381.5 470,-381.5 470,-362.5 430,-362.5"/>
<text text-anchor="middle" x="450" y="-369.5" font-family="Helvetica,sans-Serif" font-size="10.00">Stats</text>
</a>
</g>
</g>
<!-- Node2&#45;&gt;Node14 -->
<g id="edge23" class="edge">
<title>Node2&#45;&gt;Node14</title>
<path fill="none" stroke="midnightblue" d="M450,-430.22C450,-414.7 450,-393.36 450,-381.62"/>
<polygon fill="midnightblue" stroke="midnightblue" points="446.5,-430.28 450,-440.28 453.5,-430.28 446.5,-430.28"/>
</g>
<!-- Node16 -->
<g id="node16" class="node">
<title>Node16</title>
<g id="a_node16"><a xlink:href="class_u_i_controller.xhtml" target="_top" xlink:title=" ">
<polygon fill="white" stroke="black" points="29.5,-362.5 29.5,-381.5 96.5,-381.5 96.5,-362.5 29.5,-362.5"/>
<text text-anchor="middle" x="63" y="-369.5" font-family="Helvetica,sans-Serif" font-size="10.00">UIController</text>
</a>
</g>
</g>
<!-- Node2&#45;&gt;Node16 -->
<g id="edge26" class="edge">
<title>Node2&#45;&gt;Node16</title>
<path fill="none" stroke="midnightblue" d="M398.26,-449.19C316.48,-448.78 161.52,-444.87 112,-422 92.78,-413.12 76.82,-393.29 68.73,-381.76"/>
<polygon fill="midnightblue" stroke="midnightblue" points="398.33,-452.69 408.34,-449.23 398.35,-445.69 398.33,-452.69"/>
</g>
<!-- Node17 -->
<g id="node17" class="node">
<title>Node17</title>
<g id="a_node17"><a xlink:href="class_inventory.xhtml" target="_top" xlink:title=" ">
<polygon fill="white" stroke="black" points="536.5,-324.5 536.5,-343.5 591.5,-343.5 591.5,-324.5 536.5,-324.5"/>
<text text-anchor="middle" x="564" y="-331.5" font-family="Helvetica,sans-Serif" font-size="10.00">Inventory</text>
</a>
</g>
</g>
<!-- Node2&#45;&gt;Node17 -->
<g id="edge30" class="edge">
<title>Node2&#45;&gt;Node17</title>
<path fill="none" stroke="midnightblue" d="M465.65,-433.35C490.01,-408.99 536.17,-362.83 555.33,-343.67"/>
<polygon fill="midnightblue" stroke="midnightblue" points="463.16,-430.89 458.57,-440.43 468.11,-435.84 463.16,-430.89"/>
</g>
<!-- Node3&#45;&gt;Node1 -->
<g id="edge2" class="edge">
<title>Node3&#45;&gt;Node1</title>
<path fill="none" stroke="#9a32cd" stroke-dasharray="5,2" d="M588.78,-200.94C596.07,-185.97 606.11,-165.33 611.73,-153.77"/>
<polygon fill="#9a32cd" stroke="#9a32cd" points="585.5,-199.7 584.27,-210.22 591.79,-202.76 585.5,-199.7"/>
<text text-anchor="middle" x="622.5" y="-179.5" font-family="Helvetica,sans-Serif" font-size="10.00"> mediator</text>
</g>
<!-- Node4&#45;&gt;Node3 -->
<g id="edge4" class="edge">
<title>Node4&#45;&gt;Node3</title>
<path fill="none" stroke="#9a32cd" stroke-dasharray="5,2" d="M340.12,-286.05C403.46,-277.33 425.17,-292.58 480,-268 492.36,-262.46 491.29,-254.81 503,-248 516.59,-240.1 532.88,-233.97 546.96,-229.57"/>
<polygon fill="#9a32cd" stroke="#9a32cd" points="339.38,-282.62 330.02,-287.59 340.43,-289.54 339.38,-282.62"/>
<text text-anchor="middle" x="530.5" y="-255.5" font-family="Helvetica,sans-Serif" font-size="10.00"> basicAttack</text>
</g>
<!-- Node4&#45;&gt;Node5 -->
<g id="edge35" class="edge">
<title>Node4&#45;&gt;Node5</title>
<path fill="none" stroke="#9a32cd" stroke-dasharray="5,2" d="M255.25,-283C245.24,-279.05 234.84,-274.07 226,-268 210.5,-257.36 196.62,-240.13 189.05,-229.75"/>
<polygon fill="#9a32cd" stroke="#9a32cd" points="254.06,-286.3 264.66,-286.48 256.49,-279.73 254.06,-286.3"/>
<text text-anchor="middle" x="253.5" y="-255.5" font-family="Helvetica,sans-Serif" font-size="10.00"> basicAttack</text>
</g>
<!-- Node5&#45;&gt;Node4 -->
<g id="edge6" class="edge">
<title>Node5&#45;&gt;Node4</title>
<path fill="none" stroke="#9a32cd" stroke-dasharray="5,2" d="M166.32,-237.33C158.56,-246.9 152.52,-258.87 160,-268 172.39,-283.11 224.02,-289.93 259.71,-292.89"/>
<polygon fill="#9a32cd" stroke="#9a32cd" points="169.15,-239.41 173.29,-229.66 163.97,-234.71 169.15,-239.41"/>
<text text-anchor="middle" x="181.5" y="-255.5" font-family="Helvetica,sans-Serif" font-size="10.00"> controller</text>
</g>
<!-- Node5&#45;&gt;Node6 -->
<g id="edge10" class="edge">
<title>Node5&#45;&gt;Node6</title>
<path fill="none" stroke="#9a32cd" stroke-dasharray="5,2" d="M153.09,-206.1C120.87,-190.37 76.9,-162.33 98,-134 116.91,-108.61 203.43,-91.86 256.92,-83.74"/>
<polygon fill="#9a32cd" stroke="#9a32cd" points="151.67,-209.3 162.21,-210.39 154.65,-202.97 151.67,-209.3"/>
<text text-anchor="middle" x="133.5" y="-141.5" font-family="Helvetica,sans-Serif" font-size="10.00"> playerController</text>
</g>
<!-- Node12 -->
<g id="node12" class="node">
<title>Node12</title>
<g id="a_node12"><a xlink:href="class_player_stats.xhtml" target="_top" xlink:title="Player Stats is the main class that controls all the Player Statistics in all time in the game execut...">
<polygon fill="white" stroke="black" points="266,-134.5 266,-153.5 334,-153.5 334,-134.5 266,-134.5"/>
<text text-anchor="middle" x="300" y="-141.5" font-family="Helvetica,sans-Serif" font-size="10.00">PlayerStats</text>
</a>
</g>
</g>
<!-- Node5&#45;&gt;Node12 -->
<g id="edge27" class="edge">
<title>Node5&#45;&gt;Node12</title>
<path fill="none" stroke="#9a32cd" stroke-dasharray="5,2" d="M179.32,-200.16C178.58,-190.69 179.56,-179.63 186,-172 191.23,-165.8 234.2,-156.85 265.85,-150.98"/>
<polygon fill="#9a32cd" stroke="#9a32cd" points="175.88,-200.84 180.75,-210.25 182.81,-199.85 175.88,-200.84"/>
<text text-anchor="middle" x="221.5" y="-179.5" font-family="Helvetica,sans-Serif" font-size="10.00"> playerController</text>
</g>
<!-- Node6&#45;&gt;Node5 -->
<g id="edge8" class="edge">
<title>Node6&#45;&gt;Node5</title>
<path fill="none" stroke="#9a32cd" stroke-dasharray="5,2" d="M249.72,-89.51C225.15,-97.77 197.41,-111.54 181,-134 164.2,-157 173.87,-193.63 179.64,-210.27"/>
<polygon fill="#9a32cd" stroke="#9a32cd" points="250.81,-92.84 259.31,-86.51 248.72,-86.16 250.81,-92.84"/>
<text text-anchor="middle" x="219" y="-141.5" font-family="Helvetica,sans-Serif" font-size="10.00"> abilityCooldowns</text>
</g>
<!-- Node6&#45;&gt;Node10 -->
<g id="edge17" class="edge">
<title>Node6&#45;&gt;Node10</title>
<path fill="none" stroke="#9a32cd" stroke-dasharray="5,2" d="M272.52,-61.46C268.28,-57.97 264.49,-53.82 262,-49 255.84,-37.06 268.63,-26.53 281.01,-19.6"/>
<polygon fill="#9a32cd" stroke="#9a32cd" points="270.8,-64.53 281,-67.39 274.81,-58.79 270.8,-64.53"/>
<text text-anchor="middle" x="285.5" y="-41" font-family="Helvetica,sans-Serif" font-size="10.00"> currentCD</text>
</g>
<!-- Node6&#45;&gt;Node12 -->
<g id="edge28" class="edge">
<title>Node6&#45;&gt;Node12</title>
<path fill="none" stroke="#9a32cd" stroke-dasharray="5,2" d="M312.49,-95.04C315.78,-101.48 317.93,-108.95 316,-116 314.21,-122.52 310.4,-129.05 306.95,-134.06"/>
<polygon fill="#9a32cd" stroke="#9a32cd" points="315.45,-93.17 307.2,-86.52 309.5,-96.87 315.45,-93.17"/>
<text text-anchor="middle" x="355" y="-108" font-family="Helvetica,sans-Serif" font-size="10.00"> abilityCooldowns</text>
</g>
<!-- Node7 -->
<g id="node7" class="node">
<title>Node7</title>
<g id="a_node7"><a xlink:href="class_ability.xhtml" target="_top" xlink:title=" ">
<polygon fill="white" stroke="black" points="763,-362.5 763,-381.5 807,-381.5 807,-362.5 763,-362.5"/>
<text text-anchor="middle" x="785" y="-369.5" font-family="Helvetica,sans-Serif" font-size="10.00">Ability</text>
</a>
</g>
</g>
<!-- Node7&#45;&gt;Node6 -->
<g id="edge11" class="edge">
<title>Node7&#45;&gt;Node6</title>
<path fill="none" stroke="#9a32cd" stroke-dasharray="5,2" d="M785,-352.33C785,-337.37 785,-315.84 785,-297 785,-297 785,-297 785,-143 785,-107.21 748.41,-114.83 714,-105 645.35,-85.39 434.74,-79.96 343.22,-78.51"/>
<polygon fill="#9a32cd" stroke="#9a32cd" points="781.5,-352.34 785,-362.34 788.5,-352.34 781.5,-352.34"/>
<text text-anchor="middle" x="799.5" y="-217.5" font-family="Helvetica,sans-Serif" font-size="10.00"> ability</text>
</g>
<!-- Node11 -->
<g id="node11" class="node">
<title>Node11</title>
<g id="a_node11"><a xlink:href="class_indicated_ability.xhtml" target="_top" xlink:title="Encapsulador de les Ability que han de mostrar l&#39;indicador">
<polygon fill="white" stroke="black" points="800.5,-172.5 800.5,-191.5 883.5,-191.5 883.5,-172.5 800.5,-172.5"/>
<text text-anchor="middle" x="842" y="-179.5" font-family="Helvetica,sans-Serif" font-size="10.00">IndicatedAbility</text>
</a>
</g>
</g>
<!-- Node7&#45;&gt;Node11 -->
<g id="edge19" class="edge">
<title>Node7&#45;&gt;Node11</title>
<path fill="none" stroke="midnightblue" d="M794.9,-353.24C796.39,-350.21 797.82,-347.05 799,-344 820.85,-287.62 835.68,-215.99 840.39,-191.59"/>
<polygon fill="midnightblue" stroke="midnightblue" points="791.73,-351.75 790.17,-362.23 797.92,-355.01 791.73,-351.75"/>
</g>
<!-- Node18 -->
<g id="node18" class="node">
<title>Node18</title>
<g id="a_node18"><a xlink:href="class_character.xhtml" target="_top" xlink:title=" ">
<polygon fill="white" stroke="black" points="348.5,-286.5 348.5,-305.5 407.5,-305.5 407.5,-286.5 348.5,-286.5"/>
<text text-anchor="middle" x="378" y="-293.5" font-family="Helvetica,sans-Serif" font-size="10.00">Character</text>
</a>
</g>
</g>
<!-- Node7&#45;&gt;Node18 -->
<g id="edge33" class="edge">
<title>Node7&#45;&gt;Node18</title>
<path fill="none" stroke="#9a32cd" stroke-dasharray="5,2" d="M752.78,-361.42C716.27,-350.87 654.83,-334.09 601,-324 532.39,-311.14 450.7,-303.06 407.77,-299.37"/>
<polygon fill="#9a32cd" stroke="#9a32cd" points="752.25,-364.91 762.83,-364.34 754.21,-358.19 752.25,-364.91"/>
<text text-anchor="middle" x="705.5" y="-331.5" font-family="Helvetica,sans-Serif" font-size="10.00"> abilities</text>
</g>
<!-- Node8 -->
<g id="node8" class="node">
<title>Node8</title>
<g id="a_node8"><a xlink:title=" ">
<polygon fill="white" stroke="#bfbfbf" points="688.5,-497.5 688.5,-516.5 777.5,-516.5 777.5,-497.5 688.5,-497.5"/>
<text text-anchor="middle" x="733" y="-504.5" font-family="Helvetica,sans-Serif" font-size="10.00">ScriptableObject</text>
</a>
</g>
</g>
<!-- Node8&#45;&gt;Node7 -->
<g id="edge12" class="edge">
<title>Node8&#45;&gt;Node7</title>
<path fill="none" stroke="midnightblue" d="M753.81,-491.37C773.04,-476.46 800.36,-451.37 812,-422 815.6,-412.91 815.74,-409.03 812,-400 808.96,-392.65 802.83,-386.26 797.19,-381.54"/>
<polygon fill="midnightblue" stroke="midnightblue" points="751.54,-488.7 745.62,-497.49 755.73,-494.31 751.54,-488.7"/>
</g>
<!-- Node9 -->
<g id="node9" class="node">
<title>Node9</title>
<g id="a_node9"><a xlink:href="class_effect.xhtml" target="_top" xlink:title=" ">
<polygon fill="white" stroke="black" points="712.5,-440.5 712.5,-459.5 753.5,-459.5 753.5,-440.5 712.5,-440.5"/>
<text text-anchor="middle" x="733" y="-447.5" font-family="Helvetica,sans-Serif" font-size="10.00">Effect</text>
</a>
</g>
</g>
<!-- Node8&#45;&gt;Node9 -->
<g id="edge14" class="edge">
<title>Node8&#45;&gt;Node9</title>
<path fill="none" stroke="midnightblue" d="M733,-487.12C733,-477.82 733,-467.06 733,-459.71"/>
<polygon fill="midnightblue" stroke="midnightblue" points="729.5,-487.41 733,-497.41 736.5,-487.41 729.5,-487.41"/>
</g>
<!-- Node8&#45;&gt;Node18 -->
<g id="edge32" class="edge">
<title>Node8&#45;&gt;Node18</title>
<path fill="none" stroke="midnightblue" d="M678.31,-505.72C594.46,-504.13 439.68,-496.21 400,-460 355.07,-419 369.68,-333.39 375.85,-305.78"/>
<polygon fill="midnightblue" stroke="midnightblue" points="678.36,-509.22 688.41,-505.89 678.47,-502.22 678.36,-509.22"/>
</g>
<!-- Node9&#45;&gt;Node7 -->
<g id="edge13" class="edge">
<title>Node9&#45;&gt;Node7</title>
<path fill="none" stroke="#9a32cd" stroke-dasharray="5,2" d="M729.1,-430.4C728.06,-420.67 728.49,-408.95 734,-400 740.41,-389.59 752.29,-382.97 762.98,-378.9"/>
<polygon fill="#9a32cd" stroke="#9a32cd" points="725.65,-430.98 730.69,-440.3 732.56,-429.87 725.65,-430.98"/>
<text text-anchor="middle" x="773" y="-414" font-family="Helvetica,sans-Serif" font-size="10.00"> aToAuthorEffects</text>
<text text-anchor="middle" x="773" y="-403" font-family="Helvetica,sans-Serif" font-size="10.00">aToEnemyEffects</text>
</g>
<!-- Node10&#45;&gt;Node6 -->
<g id="edge15" class="edge">
<title>Node10&#45;&gt;Node6</title>
<path fill="none" stroke="#9a32cd" stroke-dasharray="5,2" d="M309.85,-28.6C311.15,-31.65 312.28,-34.86 313,-38 315.36,-48.33 310.33,-59.79 305.86,-67.4"/>
<polygon fill="#9a32cd" stroke="#9a32cd" points="312.97,-27.03 305.39,-19.63 306.71,-30.14 312.97,-27.03"/>
<text text-anchor="middle" x="347" y="-41" font-family="Helvetica,sans-Serif" font-size="10.00"> abilityIndicator</text>
</g>
<!-- Node11&#45;&gt;Node10 -->
<g id="edge18" class="edge">
<title>Node11&#45;&gt;Node10</title>
<path fill="none" stroke="#9a32cd" stroke-dasharray="5,2" d="M836.6,-162.58C830.44,-144.95 818.6,-119.03 799,-105 724.89,-51.97 445.01,-23.29 340.07,-14.21"/>
<polygon fill="#9a32cd" stroke="#9a32cd" points="833.33,-163.85 839.72,-172.3 840,-161.71 833.33,-163.85"/>
<text text-anchor="middle" x="827" y="-108" font-family="Helvetica,sans-Serif" font-size="10.00"> current</text>
</g>
<!-- Node12&#45;&gt;Node4 -->
<g id="edge37" class="edge">
<title>Node12&#45;&gt;Node4</title>
<path fill="none" stroke="#9a32cd" stroke-dasharray="5,2" d="M303.94,-163.82C304.38,-166.55 304.76,-169.34 305,-172 308.94,-214.88 300.53,-266.25 296.73,-286.35"/>
<polygon fill="#9a32cd" stroke="#9a32cd" points="307.37,-163.12 302.08,-153.94 300.49,-164.42 307.37,-163.12"/>
<text text-anchor="middle" x="318.5" y="-217.5" font-family="Helvetica,sans-Serif" font-size="10.00"> stats</text>
</g>
<!-- Node12&#45;&gt;Node5 -->
<g id="edge34" class="edge">
<title>Node12&#45;&gt;Node5</title>
<path fill="none" stroke="#9a32cd" stroke-dasharray="5,2" d="M287.95,-161.8C280.1,-171.73 269.08,-183.91 257,-192 244.84,-200.14 229.92,-206.19 216.67,-210.48"/>
<polygon fill="#9a32cd" stroke="#9a32cd" points="290.76,-163.9 293.99,-153.81 285.17,-159.68 290.76,-163.9"/>
<text text-anchor="middle" x="291.5" y="-179.5" font-family="Helvetica,sans-Serif" font-size="10.00"> stats</text>
</g>
<!-- Node12&#45;&gt;Node6 -->
<g id="edge20" class="edge">
<title>Node12&#45;&gt;Node6</title>
<path fill="none" stroke="#9a32cd" stroke-dasharray="5,2" d="M273.23,-128.35C269.1,-124.87 265.41,-120.75 263,-116 256.95,-104.1 269.62,-93.49 281.75,-86.52"/>
<polygon fill="#9a32cd" stroke="#9a32cd" points="271.33,-131.29 281.49,-134.28 275.41,-125.61 271.33,-131.29"/>
<text text-anchor="middle" x="289.5" y="-108" font-family="Helvetica,sans-Serif" font-size="10.00"> playerStats</text>
</g>
<!-- Node13 -->
<g id="node13" class="node">
<title>Node13</title>
<g id="a_node13"><a xlink:href="class_ability_affected_stats.xhtml" target="_top" xlink:title="Base class Stats of the entity who is affected by Abilities.">
<polygon fill="white" stroke="black" points="377,-248.5 377,-267.5 479,-267.5 479,-248.5 377,-248.5"/>
<text text-anchor="middle" x="428" y="-255.5" font-family="Helvetica,sans-Serif" font-size="10.00">AbilityAffectedStats</text>
</a>
</g>
</g>
<!-- Node13&#45;&gt;Node12 -->
<g id="edge21" class="edge">
<title>Node13&#45;&gt;Node12</title>
<path fill="none" stroke="midnightblue" d="M411.21,-241.57C392.38,-224.37 360.83,-195.82 333,-172 325.69,-165.74 317.29,-158.88 310.8,-153.64"/>
<polygon fill="midnightblue" stroke="midnightblue" points="408.94,-244.24 418.68,-248.42 413.67,-239.08 408.94,-244.24"/>
</g>
<!-- Node14&#45;&gt;Node4 -->
<g id="edge36" class="edge">
<title>Node14&#45;&gt;Node4</title>
<path fill="none" stroke="#9a32cd" stroke-dasharray="5,2" d="M422.51,-358.01C413.14,-353.58 402.61,-348.58 393,-344 364.89,-330.6 332.31,-314.95 312.69,-305.52"/>
<polygon fill="#9a32cd" stroke="#9a32cd" points="421.23,-361.28 431.76,-362.39 424.22,-354.95 421.23,-361.28"/>
<text text-anchor="middle" x="417.5" y="-331.5" font-family="Helvetica,sans-Serif" font-size="10.00"> otherStats</text>
</g>
<!-- Node14&#45;&gt;Node13 -->
<g id="edge22" class="edge">
<title>Node14&#45;&gt;Node13</title>
<path fill="none" stroke="midnightblue" d="M447,-352.22C445.57,-343.6 443.79,-333.27 442,-324 438.11,-303.82 432.86,-280.28 430.02,-267.81"/>
<polygon fill="midnightblue" stroke="midnightblue" points="443.58,-353.01 448.64,-362.32 450.49,-351.88 443.58,-353.01"/>
</g>
<!-- Node15 -->
<g id="node15" class="node">
<title>Node15</title>
<g id="a_node15"><a xlink:href="class_player_u_i_controller.xhtml" target="_top" xlink:title="UI Controller for the Player Stats">
<polygon fill="white" stroke="black" points="15.5,-248.5 15.5,-267.5 110.5,-267.5 110.5,-248.5 15.5,-248.5"/>
<text text-anchor="middle" x="63" y="-255.5" font-family="Helvetica,sans-Serif" font-size="10.00">PlayerUIController</text>
</a>
</g>
</g>
<!-- Node15&#45;&gt;Node12 -->
<g id="edge24" class="edge">
<title>Node15&#45;&gt;Node12</title>
<path fill="none" stroke="#9a32cd" stroke-dasharray="5,2" d="M69.7,-238.8C74,-229.21 80.39,-217.84 89,-210 120.2,-181.59 135.86,-185 176,-172 205.76,-162.36 240.66,-155.11 265.84,-150.56"/>
<polygon fill="#9a32cd" stroke="#9a32cd" points="66.38,-237.68 65.86,-248.26 72.87,-240.32 66.38,-237.68"/>
<text text-anchor="middle" x="110" y="-217.5" font-family="Helvetica,sans-Serif" font-size="10.00"> uiControl</text>
</g>
<!-- Node16&#45;&gt;Node15 -->
<g id="edge25" class="edge">
<title>Node16&#45;&gt;Node15</title>
<path fill="none" stroke="midnightblue" d="M63,-352.01C63,-327.48 63,-285.79 63,-267.75"/>
<polygon fill="midnightblue" stroke="midnightblue" points="59.5,-352.21 63,-362.21 66.5,-352.21 59.5,-352.21"/>
</g>
<!-- Node17&#45;&gt;Node12 -->
<g id="edge29" class="edge">
<title>Node17&#45;&gt;Node12</title>
<path fill="none" stroke="#9a32cd" stroke-dasharray="5,2" d="M567.96,-314.37C570.8,-295.75 572.01,-267.19 558,-248 556.13,-245.44 383.72,-177.77 321.82,-153.53"/>
<polygon fill="#9a32cd" stroke="#9a32cd" points="564.5,-313.81 566.15,-324.28 571.39,-315.07 564.5,-313.81"/>
<text text-anchor="middle" x="587" y="-255.5" font-family="Helvetica,sans-Serif" font-size="10.00"> inventory</text>
</g>
<!-- Node18&#45;&gt;Node5 -->
<g id="edge31" class="edge">
<title>Node18&#45;&gt;Node5</title>
<path fill="none" stroke="#9a32cd" stroke-dasharray="5,2" d="M351.46,-281.8C342.71,-277.42 332.93,-272.52 324,-268 306.62,-259.2 303.19,-254.98 285,-248 265.16,-240.39 242.36,-234.13 223.35,-229.56"/>
<polygon fill="#9a32cd" stroke="#9a32cd" points="349.96,-284.96 360.47,-286.29 353.08,-278.69 349.96,-284.96"/>
<text text-anchor="middle" x="346" y="-255.5" font-family="Helvetica,sans-Serif" font-size="10.00"> character</text>
</g>
</g>
</svg>
