<?xml version="1.0" encoding="UTF-8" standalone="no"?>
<!DOCTYPE svg PUBLIC "-//W3C//DTD SVG 1.1//EN"
 "http://www.w3.org/Graphics/SVG/1.1/DTD/svg11.dtd">
<!-- Generated by graphviz version 2.47.3 (20210619.1520)
 -->
<!-- Title: PlayerHUDController.UpdateGoldTxt Pages: 1 -->
<svg width="915pt" height="306pt"
 viewBox="0.00 0.00 915.00 306.00" xmlns="http://www.w3.org/2000/svg" xmlns:xlink="http://www.w3.org/1999/xlink">
<g id="graph0" class="graph" transform="scale(1 1) rotate(0) translate(4 302)">
<title>PlayerHUDController.UpdateGoldTxt</title>
<!-- Node1 -->
<g id="node1" class="node">
<title>Node1</title>
<g id="a_node1"><a xlink:title=" ">
<polygon fill="#bfbfbf" stroke="black" points="767,-83 767,-113 907,-113 907,-83 767,-83"/>
<text text-anchor="start" x="775" y="-101" font-family="Helvetica,sans-Serif" font-size="10.00">PlayerHUDController.Update</text>
<text text-anchor="middle" x="837" y="-90" font-family="Helvetica,sans-Serif" font-size="10.00">GoldTxt</text>
</a>
</g>
</g>
<!-- Node2 -->
<g id="node2" class="node">
<title>Node2</title>
<g id="a_node2"><a xlink:href="class_inventory.html#a154fe342bac27ad9f38a79da5c770d39" target="_top" xlink:title=" ">
<polygon fill="none" stroke="black" points="630.5,-221.5 630.5,-240.5 725.5,-240.5 725.5,-221.5 630.5,-221.5"/>
<text text-anchor="middle" x="678" y="-228.5" font-family="Helvetica,sans-Serif" font-size="10.00">Inventory.AddGold</text>
</a>
</g>
</g>
<!-- Node1&#45;&gt;Node2 -->
<g id="edge1" class="edge">
<title>Node1&#45;&gt;Node2</title>
<path fill="none" stroke="midnightblue" d="M810.19,-119.86C775.62,-149.15 715.71,-199.9 690.6,-221.17"/>
<polygon fill="midnightblue" stroke="midnightblue" points="812.62,-122.39 817.99,-113.26 808.1,-117.05 812.62,-122.39"/>
</g>
<!-- Node6 -->
<g id="node6" class="node">
<title>Node6</title>
<g id="a_node6"><a xlink:href="class_inventory.html#a22aa6615c02eff40c88a48c96905e962" target="_top" xlink:title=" ">
<polygon fill="none" stroke="black" points="631,-126.5 631,-145.5 725,-145.5 725,-126.5 631,-126.5"/>
<text text-anchor="middle" x="678" y="-133.5" font-family="Helvetica,sans-Serif" font-size="10.00">Inventory.BuyItem</text>
</a>
</g>
</g>
<!-- Node1&#45;&gt;Node6 -->
<g id="edge5" class="edge">
<title>Node1&#45;&gt;Node6</title>
<path fill="none" stroke="midnightblue" d="M764.22,-115.37C748.49,-119.18 732.39,-123.08 718.48,-126.44"/>
<polygon fill="midnightblue" stroke="midnightblue" points="765.05,-118.77 773.95,-113.02 763.41,-111.97 765.05,-118.77"/>
</g>
<!-- Node9 -->
<g id="node9" class="node">
<title>Node9</title>
<g id="a_node9"><a xlink:href="class_inventory.html#af5cb79cb50692e3fb6c98df25812dcbc" target="_top" xlink:title=" ">
<polygon fill="none" stroke="black" points="631.5,-88.5 631.5,-107.5 724.5,-107.5 724.5,-88.5 631.5,-88.5"/>
<text text-anchor="middle" x="678" y="-95.5" font-family="Helvetica,sans-Serif" font-size="10.00">Inventory.Initialize</text>
</a>
</g>
</g>
<!-- Node1&#45;&gt;Node9 -->
<g id="edge8" class="edge">
<title>Node1&#45;&gt;Node9</title>
<path fill="none" stroke="midnightblue" d="M756.37,-98C745.6,-98 734.86,-98 724.95,-98"/>
<polygon fill="midnightblue" stroke="midnightblue" points="756.68,-101.5 766.68,-98 756.68,-94.5 756.68,-101.5"/>
</g>
<!-- Node15 -->
<g id="node15" class="node">
<title>Node15</title>
<g id="a_node15"><a xlink:href="class_inventory.html#af1e7ae193e520340f457705d73e27607" target="_top" xlink:title=" ">
<polygon fill="none" stroke="black" points="631.5,-47.5 631.5,-66.5 724.5,-66.5 724.5,-47.5 631.5,-47.5"/>
<text text-anchor="middle" x="678" y="-54.5" font-family="Helvetica,sans-Serif" font-size="10.00">Inventory.SellItem</text>
</a>
</g>
</g>
<!-- Node1&#45;&gt;Node15 -->
<g id="edge14" class="edge">
<title>Node1&#45;&gt;Node15</title>
<path fill="none" stroke="midnightblue" d="M768.7,-80.43C750.47,-75.67 731.42,-70.69 715.59,-66.55"/>
<polygon fill="midnightblue" stroke="midnightblue" points="767.87,-83.83 778.43,-82.97 769.64,-77.05 767.87,-83.83"/>
</g>
<!-- Node17 -->
<g id="node17" class="node">
<title>Node17</title>
<g id="a_node17"><a xlink:href="class_inventory.html#ac533e00e2603d169f9d4972f853e1447" target="_top" xlink:title=" ">
<polygon fill="none" stroke="black" points="625,-3.5 625,-22.5 731,-22.5 731,-3.5 625,-3.5"/>
<text text-anchor="middle" x="678" y="-10.5" font-family="Helvetica,sans-Serif" font-size="10.00">Inventory.SpendGold</text>
</a>
</g>
</g>
<!-- Node1&#45;&gt;Node17 -->
<g id="edge16" class="edge">
<title>Node1&#45;&gt;Node17</title>
<path fill="none" stroke="midnightblue" d="M802.19,-77.87C781.78,-65.92 755.13,-50.67 731,-38 720.8,-32.64 709.27,-27.05 699.67,-22.52"/>
<polygon fill="midnightblue" stroke="midnightblue" points="800.42,-80.89 810.82,-82.94 803.97,-74.86 800.42,-80.89"/>
</g>
<!-- Node3 -->
<g id="node3" class="node">
<title>Node3</title>
<g id="a_node3"><a xlink:href="class_mannequin_stats.html#a8bd8eed182eccafe2a9f3a2764e82dc3" target="_top" xlink:title="Function that implements what is done when this entity dies.">
<polygon fill="none" stroke="black" points="463,-278.5 463,-297.5 567,-297.5 567,-278.5 463,-278.5"/>
<text text-anchor="middle" x="515" y="-285.5" font-family="Helvetica,sans-Serif" font-size="10.00">MannequinStats.Die</text>
</a>
</g>
</g>
<!-- Node2&#45;&gt;Node3 -->
<g id="edge2" class="edge">
<title>Node2&#45;&gt;Node3</title>
<path fill="none" stroke="midnightblue" d="M647.73,-244.98C630.82,-252.71 609,-262.13 589,-269 578.84,-272.49 567.71,-275.7 557.25,-278.44"/>
<polygon fill="midnightblue" stroke="midnightblue" points="649.47,-248.03 657.07,-240.65 646.53,-241.68 649.47,-248.03"/>
</g>
<!-- Node4 -->
<g id="node4" class="node">
<title>Node4</title>
<g id="a_node4"><a xlink:href="class_player_stats.html#abecc5e0421296d745f700eee2a26adf3" target="_top" xlink:title="When this entity dies, it gives to the killer this bounty">
<polygon fill="none" stroke="black" points="451.5,-240.5 451.5,-259.5 578.5,-259.5 578.5,-240.5 451.5,-240.5"/>
<text text-anchor="middle" x="515" y="-247.5" font-family="Helvetica,sans-Serif" font-size="10.00">PlayerStats.GiveRewards</text>
</a>
</g>
</g>
<!-- Node2&#45;&gt;Node4 -->
<g id="edge3" class="edge">
<title>Node2&#45;&gt;Node4</title>
<path fill="none" stroke="midnightblue" d="M620.34,-237.69C606.85,-239.28 592.38,-240.99 578.64,-242.61"/>
<polygon fill="midnightblue" stroke="midnightblue" points="620.91,-241.14 630.43,-236.5 620.09,-234.19 620.91,-241.14"/>
</g>
<!-- Node5 -->
<g id="node5" class="node">
<title>Node5</title>
<g id="a_node5"><a xlink:href="class_coin.html#a38022b7f8466c95101067154d8b4de13" target="_top" xlink:title=" ">
<polygon fill="none" stroke="black" points="463,-202.5 463,-221.5 567,-221.5 567,-202.5 463,-202.5"/>
<text text-anchor="middle" x="515" y="-209.5" font-family="Helvetica,sans-Serif" font-size="10.00">Coin.OnTriggerEnter</text>
</a>
</g>
</g>
<!-- Node2&#45;&gt;Node5 -->
<g id="edge4" class="edge">
<title>Node2&#45;&gt;Node5</title>
<path fill="none" stroke="midnightblue" d="M620.45,-224.33C603.14,-222.28 584.2,-220.05 567.26,-218.05"/>
<polygon fill="midnightblue" stroke="midnightblue" points="620.09,-227.81 630.43,-225.5 620.91,-220.86 620.09,-227.81"/>
</g>
<!-- Node7 -->
<g id="node7" class="node">
<title>Node7</title>
<g id="a_node7"><a xlink:href="class_current_item_shop.html#ac931da08dc792088bbb913a1db71cf27" target="_top" xlink:title=" ">
<polygon fill="none" stroke="black" points="444.5,-164.5 444.5,-183.5 585.5,-183.5 585.5,-164.5 444.5,-164.5"/>
<text text-anchor="middle" x="515" y="-171.5" font-family="Helvetica,sans-Serif" font-size="10.00">CurrentItemShop.BuyCurrent</text>
</a>
</g>
</g>
<!-- Node6&#45;&gt;Node7 -->
<g id="edge6" class="edge">
<title>Node6&#45;&gt;Node7</title>
<path fill="none" stroke="midnightblue" d="M626.6,-147.9C603.97,-153.24 577.63,-159.45 556.33,-164.48"/>
<polygon fill="midnightblue" stroke="midnightblue" points="627.44,-151.29 636.37,-145.59 625.84,-144.48 627.44,-151.29"/>
</g>
<!-- Node8 -->
<g id="node8" class="node">
<title>Node8</title>
<g id="a_node8"><a xlink:href="class_item_u_i.html#a2b89b23e671541d302225044a9d9de6f" target="_top" xlink:title=" ">
<polygon fill="none" stroke="black" points="458.5,-126.5 458.5,-145.5 571.5,-145.5 571.5,-126.5 458.5,-126.5"/>
<text text-anchor="middle" x="515" y="-133.5" font-family="Helvetica,sans-Serif" font-size="10.00">ItemUI.OnPointerClick</text>
</a>
</g>
</g>
<!-- Node6&#45;&gt;Node8 -->
<g id="edge7" class="edge">
<title>Node6&#45;&gt;Node8</title>
<path fill="none" stroke="midnightblue" d="M620.64,-136C604.73,-136 587.43,-136 571.56,-136"/>
<polygon fill="midnightblue" stroke="midnightblue" points="620.86,-139.5 630.86,-136 620.86,-132.5 620.86,-139.5"/>
</g>
<!-- Node10 -->
<g id="node10" class="node">
<title>Node10</title>
<g id="a_node10"><a xlink:href="class_player_stats.html#ae874ab5cbb490cbdcf3f5613b8bc2240" target="_top" xlink:title="Initialize the actual Stats of the Player.">
<polygon fill="none" stroke="black" points="462,-88.5 462,-107.5 568,-107.5 568,-88.5 462,-88.5"/>
<text text-anchor="middle" x="515" y="-95.5" font-family="Helvetica,sans-Serif" font-size="10.00">PlayerStats.Initialize</text>
</a>
</g>
</g>
<!-- Node9&#45;&gt;Node10 -->
<g id="edge9" class="edge">
<title>Node9&#45;&gt;Node10</title>
<path fill="none" stroke="midnightblue" d="M620.86,-98C603.71,-98 584.93,-98 568.06,-98"/>
<polygon fill="midnightblue" stroke="midnightblue" points="621.29,-101.5 631.29,-98 621.29,-94.5 621.29,-101.5"/>
</g>
<!-- Node11 -->
<g id="node11" class="node">
<title>Node11</title>
<g id="a_node11"><a xlink:href="class_player_controller.html#a75e94e4fd555e57e55ab4b7e54024dcf" target="_top" xlink:title="Initialize the PlayerController.">
<polygon fill="none" stroke="black" points="281,-88.5 281,-107.5 405,-107.5 405,-88.5 281,-88.5"/>
<text text-anchor="middle" x="343" y="-95.5" font-family="Helvetica,sans-Serif" font-size="10.00">PlayerController.Initialize</text>
</a>
</g>
</g>
<!-- Node10&#45;&gt;Node11 -->
<g id="edge10" class="edge">
<title>Node10&#45;&gt;Node11</title>
<path fill="none" stroke="midnightblue" d="M451.35,-98C436.27,-98 420.17,-98 405.16,-98"/>
<polygon fill="midnightblue" stroke="midnightblue" points="451.61,-101.5 461.61,-98 451.61,-94.5 451.61,-101.5"/>
</g>
<!-- Node12 -->
<g id="node12" class="node">
<title>Node12</title>
<g id="a_node12"><a xlink:href="class_model_sync.html#ab8359f73ae31a7f926c80ebcd7e9444a" target="_top" xlink:title="This starts all the initialization chain for the player.">
<polygon fill="none" stroke="black" points="135,-88.5 135,-107.5 245,-107.5 245,-88.5 135,-88.5"/>
<text text-anchor="middle" x="190" y="-95.5" font-family="Helvetica,sans-Serif" font-size="10.00">ModelSync.DoEnable</text>
</a>
</g>
</g>
<!-- Node11&#45;&gt;Node12 -->
<g id="edge11" class="edge">
<title>Node11&#45;&gt;Node12</title>
<path fill="none" stroke="midnightblue" d="M270.58,-98C262,-98 253.36,-98 245.09,-98"/>
<polygon fill="midnightblue" stroke="midnightblue" points="270.58,-101.5 280.58,-98 270.58,-94.5 270.58,-101.5"/>
</g>
<!-- Node13 -->
<g id="node13" class="node">
<title>Node13</title>
<g id="a_node13"><a xlink:href="class_model_sync.html#a47be08ee3bbd2a173514e74da3dd65cb" target="_top" xlink:title=" ">
<polygon fill="none" stroke="black" points="5,-107.5 5,-126.5 94,-126.5 94,-107.5 5,-107.5"/>
<text text-anchor="middle" x="49.5" y="-114.5" font-family="Helvetica,sans-Serif" font-size="10.00">ModelSync.Start</text>
</a>
</g>
</g>
<!-- Node12&#45;&gt;Node13 -->
<g id="edge12" class="edge">
<title>Node12&#45;&gt;Node13</title>
<path fill="none" stroke="midnightblue" d="M124.54,-106.84C114.35,-108.24 104.01,-109.66 94.43,-110.97"/>
<polygon fill="midnightblue" stroke="midnightblue" points="125.23,-110.28 134.66,-105.45 124.28,-103.35 125.23,-110.28"/>
</g>
<!-- Node14 -->
<g id="node14" class="node">
<title>Node14</title>
<g id="a_node14"><a xlink:href="class_model_sync.html#abf63af5a901636617cb742aab24c4d6f" target="_top" xlink:title=" ">
<polygon fill="none" stroke="black" points="0,-69.5 0,-88.5 99,-88.5 99,-69.5 0,-69.5"/>
<text text-anchor="middle" x="49.5" y="-76.5" font-family="Helvetica,sans-Serif" font-size="10.00">ModelSync.Update</text>
</a>
</g>
</g>
<!-- Node12&#45;&gt;Node14 -->
<g id="edge13" class="edge">
<title>Node12&#45;&gt;Node14</title>
<path fill="none" stroke="midnightblue" d="M124.7,-89.18C116.15,-88.01 107.51,-86.82 99.28,-85.69"/>
<polygon fill="midnightblue" stroke="midnightblue" points="124.28,-92.65 134.66,-90.55 125.23,-85.72 124.28,-92.65"/>
</g>
<!-- Node16 -->
<g id="node16" class="node">
<title>Node16</title>
<g id="a_node16"><a xlink:href="class_sellable_item_u_i.html#acf95fddf5bd754193101c046807a195c" target="_top" xlink:title=" ">
<polygon fill="none" stroke="black" points="452.5,-39 452.5,-69 577.5,-69 577.5,-39 452.5,-39"/>
<text text-anchor="start" x="460.5" y="-57" font-family="Helvetica,sans-Serif" font-size="10.00">SellableItemUI.OnPointer</text>
<text text-anchor="middle" x="515" y="-46" font-family="Helvetica,sans-Serif" font-size="10.00">Click</text>
</a>
</g>
</g>
<!-- Node15&#45;&gt;Node16 -->
<g id="edge15" class="edge">
<title>Node15&#45;&gt;Node16</title>
<path fill="none" stroke="midnightblue" d="M621.29,-55.96C607.24,-55.7 592.08,-55.42 577.75,-55.15"/>
<polygon fill="midnightblue" stroke="midnightblue" points="621.23,-59.46 631.29,-56.15 621.36,-52.46 621.23,-59.46"/>
</g>
<!-- Node18 -->
<g id="node18" class="node">
<title>Node18</title>
<g id="a_node18"><a xlink:href="class_respawn_canvas.html#aeb8465a7dc3b9f4fe6a36afc1c8bcf9a" target="_top" xlink:title=" ">
<polygon fill="none" stroke="black" points="441,-0.5 441,-19.5 589,-19.5 589,-0.5 441,-0.5"/>
<text text-anchor="middle" x="515" y="-7.5" font-family="Helvetica,sans-Serif" font-size="10.00">RespawnCanvas.BuyRespawn</text>
</a>
</g>
</g>
<!-- Node17&#45;&gt;Node18 -->
<g id="edge17" class="edge">
<title>Node17&#45;&gt;Node18</title>
<path fill="none" stroke="midnightblue" d="M614.66,-11.84C606.28,-11.68 597.62,-11.52 589.07,-11.36"/>
<polygon fill="midnightblue" stroke="midnightblue" points="614.66,-15.34 624.73,-12.03 614.79,-8.34 614.66,-15.34"/>
</g>
</g>
</svg>
