<?xml version="1.0" encoding="UTF-8" standalone="no"?>
<!DOCTYPE svg PUBLIC "-//W3C//DTD SVG 1.1//EN"
 "http://www.w3.org/Graphics/SVG/1.1/DTD/svg11.dtd">
<!-- Generated by graphviz version 2.47.3 (20210619.1520)
 -->
<!-- Title: Photon.Pun.Demo.Cockpit.PlayerDetailsController.KickOutPlayer Pages: 1 -->
<svg width="1286pt" height="174pt"
 viewBox="0.00 0.00 1286.00 173.50" xmlns="http://www.w3.org/2000/svg" xmlns:xlink="http://www.w3.org/1999/xlink">
<g id="graph0" class="graph" transform="scale(1 1) rotate(0) translate(4 169.5)">
<title>Photon.Pun.Demo.Cockpit.PlayerDetailsController.KickOutPlayer</title>
<polygon fill="white" stroke="transparent" points="-4,4 -4,-169.5 1282,-169.5 1282,4 -4,4"/>
<!-- Node1 -->
<g id="node1" class="node">
<title>Node1</title>
<g id="a_node1"><a xlink:title=" ">
<polygon fill="#bfbfbf" stroke="black" points="0,-19 0,-60 138,-60 138,-19 0,-19"/>
<text text-anchor="start" x="8" y="-48" font-family="Helvetica,sans-Serif" font-size="10.00">Photon.Pun.Demo.Cockpit.</text>
<text text-anchor="start" x="8" y="-37" font-family="Helvetica,sans-Serif" font-size="10.00">PlayerDetailsController.Kick</text>
<text text-anchor="middle" x="69" y="-26" font-family="Helvetica,sans-Serif" font-size="10.00">OutPlayer</text>
</a>
</g>
</g>
<!-- Node2 -->
<g id="node2" class="node">
<title>Node2</title>
<g id="a_node2"><a xlink:href="class_photon_1_1_pun_1_1_photon_network.xhtml#a988b591a3d496808e1d7c79a5bfaa70e" target="_top" xlink:title="Request a client to disconnect (KICK).">
<polygon fill="white" stroke="black" points="174,-24.5 174,-54.5 314,-54.5 314,-24.5 174,-24.5"/>
<text text-anchor="start" x="182" y="-42.5" font-family="Helvetica,sans-Serif" font-size="10.00">Photon.Pun.PhotonNetwork.</text>
<text text-anchor="middle" x="244" y="-31.5" font-family="Helvetica,sans-Serif" font-size="10.00">CloseConnection</text>
</a>
</g>
</g>
<!-- Node1&#45;&gt;Node2 -->
<g id="edge1" class="edge">
<title>Node1&#45;&gt;Node2</title>
<path fill="none" stroke="midnightblue" d="M138.37,-39.5C146.7,-39.5 155.26,-39.5 163.73,-39.5"/>
<polygon fill="midnightblue" stroke="midnightblue" points="163.99,-43 173.99,-39.5 163.99,-36 163.99,-43"/>
</g>
<!-- Node3 -->
<g id="node3" class="node">
<title>Node3</title>
<g id="a_node3"><a xlink:href="class_photon_1_1_realtime_1_1_load_balancing_client.xhtml#a620e340e8f78a51871d94d5868ffdb4c" target="_top" xlink:title="Send an event with custom code/type and any content to the other players in the same room.">
<polygon fill="white" stroke="black" points="350,-49.5 350,-79.5 505,-79.5 505,-49.5 350,-49.5"/>
<text text-anchor="start" x="358" y="-67.5" font-family="Helvetica,sans-Serif" font-size="10.00">Photon.Realtime.LoadBalancing</text>
<text text-anchor="middle" x="427.5" y="-56.5" font-family="Helvetica,sans-Serif" font-size="10.00">Client.OpRaiseEvent</text>
</a>
</g>
</g>
<!-- Node2&#45;&gt;Node3 -->
<g id="edge2" class="edge">
<title>Node2&#45;&gt;Node3</title>
<path fill="none" stroke="midnightblue" d="M314.14,-49.02C322.56,-50.18 331.25,-51.38 339.89,-52.57"/>
<polygon fill="midnightblue" stroke="midnightblue" points="339.6,-56.06 349.98,-53.96 340.56,-49.13 339.6,-56.06"/>
</g>
<!-- Node11 -->
<g id="node11" class="node">
<title>Node11</title>
<g id="a_node11"><a xlink:href="class_photon_1_1_pun_1_1_photon_network.xhtml#a7de619407fd7ff3a1156e7ddc8c9d21c" target="_top" xlink:title="Helper function which is called inside this class to erify if certain functions can be used (e....">
<polygon fill="white" stroke="black" points="357.5,-0.5 357.5,-30.5 497.5,-30.5 497.5,-0.5 357.5,-0.5"/>
<text text-anchor="start" x="365.5" y="-18.5" font-family="Helvetica,sans-Serif" font-size="10.00">Photon.Pun.PhotonNetwork.</text>
<text text-anchor="middle" x="427.5" y="-7.5" font-family="Helvetica,sans-Serif" font-size="10.00">VerifyCanUseNetwork</text>
</a>
</g>
</g>
<!-- Node2&#45;&gt;Node11 -->
<g id="edge10" class="edge">
<title>Node2&#45;&gt;Node11</title>
<path fill="none" stroke="midnightblue" d="M314.14,-30.36C324.95,-28.93 336.2,-27.44 347.22,-25.98"/>
<polygon fill="midnightblue" stroke="midnightblue" points="347.8,-29.44 357.26,-24.66 346.88,-22.5 347.8,-29.44"/>
</g>
<!-- Node4 -->
<g id="node4" class="node">
<title>Node4</title>
<g id="a_node4"><a xlink:href="class_photon_1_1_realtime_1_1_load_balancing_client.xhtml#aa12ff3efc3aa91e5ceca9b3a40f7bd79" target="_top" xlink:title=" ">
<polygon fill="white" stroke="black" points="541,-74.5 541,-104.5 696,-104.5 696,-74.5 541,-74.5"/>
<text text-anchor="start" x="549" y="-92.5" font-family="Helvetica,sans-Serif" font-size="10.00">Photon.Realtime.LoadBalancing</text>
<text text-anchor="middle" x="618.5" y="-81.5" font-family="Helvetica,sans-Serif" font-size="10.00">Client.CheckIfOpCanBeSent</text>
</a>
</g>
</g>
<!-- Node3&#45;&gt;Node4 -->
<g id="edge3" class="edge">
<title>Node3&#45;&gt;Node4</title>
<path fill="none" stroke="midnightblue" d="M505.1,-74.63C513.56,-75.75 522.22,-76.9 530.79,-78.03"/>
<polygon fill="midnightblue" stroke="midnightblue" points="530.42,-81.51 540.79,-79.35 531.34,-74.57 530.42,-81.51"/>
</g>
<!-- Node10 -->
<g id="node10" class="node">
<title>Node10</title>
<g id="a_node10"><a xlink:href="class_photon_1_1_realtime_1_1_load_balancing_peer.xhtml#af6d68f09d3f683f8d709c3aa4dfe03cc" target="_top" xlink:title="Send an event with custom code/type and any content to the other players in the same room.">
<polygon fill="white" stroke="black" points="541,-25.5 541,-55.5 696,-55.5 696,-25.5 541,-25.5"/>
<text text-anchor="start" x="549" y="-43.5" font-family="Helvetica,sans-Serif" font-size="10.00">Photon.Realtime.LoadBalancing</text>
<text text-anchor="middle" x="618.5" y="-32.5" font-family="Helvetica,sans-Serif" font-size="10.00">Peer.OpRaiseEvent</text>
</a>
</g>
</g>
<!-- Node3&#45;&gt;Node10 -->
<g id="edge9" class="edge">
<title>Node3&#45;&gt;Node10</title>
<path fill="none" stroke="midnightblue" d="M505.1,-54.77C513.56,-53.7 522.22,-52.6 530.79,-51.51"/>
<polygon fill="midnightblue" stroke="midnightblue" points="531.31,-54.97 540.79,-50.24 530.43,-48.03 531.31,-54.97"/>
</g>
<!-- Node5 -->
<g id="node5" class="node">
<title>Node5</title>
<g id="a_node5"><a xlink:href="class_photon_1_1_realtime_1_1_load_balancing_client.xhtml#ae052ab450db16efdd31985d56f76f0ab" target="_top" xlink:title=" ">
<polygon fill="white" stroke="black" points="732,-124 732,-165 896,-165 896,-124 732,-124"/>
<text text-anchor="start" x="740" y="-153" font-family="Helvetica,sans-Serif" font-size="10.00">Photon.Realtime.LoadBalancing</text>
<text text-anchor="start" x="740" y="-142" font-family="Helvetica,sans-Serif" font-size="10.00">Client.CheckIfClientIsReadyToCall</text>
<text text-anchor="middle" x="814" y="-131" font-family="Helvetica,sans-Serif" font-size="10.00">Operation</text>
</a>
</g>
</g>
<!-- Node4&#45;&gt;Node5 -->
<g id="edge4" class="edge">
<title>Node4&#45;&gt;Node5</title>
<path fill="none" stroke="midnightblue" d="M672.37,-104.53C690.45,-109.67 711.12,-115.54 730.95,-121.18"/>
<polygon fill="midnightblue" stroke="midnightblue" points="730.03,-124.55 740.6,-123.92 731.94,-117.82 730.03,-124.55"/>
</g>
<!-- Node6 -->
<g id="node6" class="node">
<title>Node6</title>
<g id="a_node6"><a xlink:href="class_photon_1_1_realtime_1_1_load_balancing_client.xhtml#aa01a53cac6918dab3ecb99669b276f01" target="_top" xlink:title=" ">
<polygon fill="white" stroke="black" points="732.5,-74.5 732.5,-104.5 895.5,-104.5 895.5,-74.5 732.5,-74.5"/>
<text text-anchor="start" x="740.5" y="-92.5" font-family="Helvetica,sans-Serif" font-size="10.00">Photon.Realtime.LoadBalancing</text>
<text text-anchor="middle" x="814" y="-81.5" font-family="Helvetica,sans-Serif" font-size="10.00">Client.CheckIfOpAllowedOnServer</text>
</a>
</g>
</g>
<!-- Node4&#45;&gt;Node6 -->
<g id="edge5" class="edge">
<title>Node4&#45;&gt;Node6</title>
<path fill="none" stroke="midnightblue" d="M696.25,-89.5C704.75,-89.5 713.46,-89.5 722.1,-89.5"/>
<polygon fill="midnightblue" stroke="midnightblue" points="722.21,-93 732.21,-89.5 722.21,-86 722.21,-93"/>
</g>
<!-- Node7 -->
<g id="node7" class="node">
<title>Node7</title>
<g id="a_node7"><a xlink:href="class_photon_1_1_realtime_1_1_load_balancing_client.xhtml#a69dd43d4c7211b5b83cd54d0ebcf79e7" target="_top" xlink:title="Debug output of low level api (and this client).">
<polygon fill="white" stroke="black" points="736.5,-25.5 736.5,-55.5 891.5,-55.5 891.5,-25.5 736.5,-25.5"/>
<text text-anchor="start" x="744.5" y="-43.5" font-family="Helvetica,sans-Serif" font-size="10.00">Photon.Realtime.LoadBalancing</text>
<text text-anchor="middle" x="814" y="-32.5" font-family="Helvetica,sans-Serif" font-size="10.00">Client.DebugReturn</text>
</a>
</g>
</g>
<!-- Node4&#45;&gt;Node7 -->
<g id="edge6" class="edge">
<title>Node4&#45;&gt;Node7</title>
<path fill="none" stroke="midnightblue" d="M678.87,-74.47C699.4,-69.27 722.57,-63.4 743.81,-58.02"/>
<polygon fill="midnightblue" stroke="midnightblue" points="744.91,-61.35 753.74,-55.51 743.19,-54.57 744.91,-61.35"/>
</g>
<!-- Node8 -->
<g id="node8" class="node">
<title>Node8</title>
<g id="a_node8"><a xlink:href="class_photon_1_1_realtime_1_1_load_balancing_peer.xhtml#a7f48b5f0c44ef0c67ef32f147ff87246" target="_top" xlink:title="Creates a Peer with specified connection protocol.">
<polygon fill="white" stroke="black" points="932,-25.5 932,-55.5 1087,-55.5 1087,-25.5 932,-25.5"/>
<text text-anchor="start" x="940" y="-43.5" font-family="Helvetica,sans-Serif" font-size="10.00">Photon.Realtime.LoadBalancing</text>
<text text-anchor="middle" x="1009.5" y="-32.5" font-family="Helvetica,sans-Serif" font-size="10.00">Peer.LoadBalancingPeer</text>
</a>
</g>
</g>
<!-- Node7&#45;&gt;Node8 -->
<g id="edge7" class="edge">
<title>Node7&#45;&gt;Node8</title>
<path fill="none" stroke="midnightblue" d="M891.75,-40.5C901.54,-40.5 911.62,-40.5 921.55,-40.5"/>
<polygon fill="midnightblue" stroke="midnightblue" points="921.84,-44 931.84,-40.5 921.84,-37 921.84,-44"/>
</g>
<!-- Node9 -->
<g id="node9" class="node">
<title>Node9</title>
<g id="a_node9"><a xlink:href="class_photon_1_1_realtime_1_1_load_balancing_peer.xhtml#affaff7e1fdffe86b25156ffac5e738c9" target="_top" xlink:title=" ">
<polygon fill="white" stroke="black" points="1123,-25.5 1123,-55.5 1278,-55.5 1278,-25.5 1123,-25.5"/>
<text text-anchor="start" x="1131" y="-43.5" font-family="Helvetica,sans-Serif" font-size="10.00">Photon.Realtime.LoadBalancing</text>
<text text-anchor="middle" x="1200.5" y="-32.5" font-family="Helvetica,sans-Serif" font-size="10.00">Peer.ConfigUnitySockets</text>
</a>
</g>
</g>
<!-- Node8&#45;&gt;Node9 -->
<g id="edge8" class="edge">
<title>Node8&#45;&gt;Node9</title>
<path fill="none" stroke="midnightblue" d="M1087.1,-40.5C1095.56,-40.5 1104.22,-40.5 1112.79,-40.5"/>
<polygon fill="midnightblue" stroke="midnightblue" points="1112.79,-44 1122.79,-40.5 1112.79,-37 1112.79,-44"/>
</g>
</g>
</svg>
