<?xml version="1.0" encoding="UTF-8" standalone="no"?>
<!DOCTYPE svg PUBLIC "-//W3C//DTD SVG 1.1//EN"
 "http://www.w3.org/Graphics/SVG/1.1/DTD/svg11.dtd">
<!-- Generated by graphviz version 2.47.3 (20210619.1520)
 -->
<!-- Title: Photon.Pun.Demo.SlotRacer.Utils.SplinePosition.SetPositionOnSpline Pages: 1 -->
<svg width="933pt" height="50pt"
 viewBox="0.00 0.00 933.00 50.00" xmlns="http://www.w3.org/2000/svg" xmlns:xlink="http://www.w3.org/1999/xlink">
<g id="graph0" class="graph" transform="scale(1 1) rotate(0) translate(4 46)">
<title>Photon.Pun.Demo.SlotRacer.Utils.SplinePosition.SetPositionOnSpline</title>
<polygon fill="white" stroke="transparent" points="-4,4 -4,-46 929,-46 929,4 -4,4"/>
<!-- Node1 -->
<g id="node1" class="node">
<title>Node1</title>
<g id="a_node1"><a xlink:title=" ">
<polygon fill="#bfbfbf" stroke="black" points="0,-0.5 0,-41.5 155,-41.5 155,-0.5 0,-0.5"/>
<text text-anchor="start" x="8" y="-29.5" font-family="Helvetica,sans-Serif" font-size="10.00">Photon.Pun.Demo.SlotRacer.</text>
<text text-anchor="start" x="8" y="-18.5" font-family="Helvetica,sans-Serif" font-size="10.00">Utils.SplinePosition.SetPosition</text>
<text text-anchor="middle" x="77.5" y="-7.5" font-family="Helvetica,sans-Serif" font-size="10.00">OnSpline</text>
</a>
</g>
</g>
<!-- Node2 -->
<g id="node2" class="node">
<title>Node2</title>
<g id="a_node2"><a xlink:href="class_photon_1_1_pun_1_1_demo_1_1_slot_racer_1_1_utils_1_1_spline_position.xhtml#a743e6a949f59c3bc1140119d99c8f48d" target="_top" xlink:title=" ">
<polygon fill="white" stroke="black" points="191,-6 191,-36 379,-36 379,-6 191,-6"/>
<text text-anchor="start" x="199" y="-24" font-family="Helvetica,sans-Serif" font-size="10.00">Photon.Pun.Demo.SlotRacer.</text>
<text text-anchor="middle" x="285" y="-13" font-family="Helvetica,sans-Serif" font-size="10.00">Utils.SplinePosition.ExecutePositioning</text>
</a>
</g>
</g>
<!-- Node1&#45;&gt;Node2 -->
<g id="edge1" class="edge">
<title>Node1&#45;&gt;Node2</title>
<path fill="none" stroke="midnightblue" d="M155.02,-21C163.39,-21 172,-21 180.62,-21"/>
<polygon fill="midnightblue" stroke="midnightblue" points="180.73,-24.5 190.73,-21 180.73,-17.5 180.73,-24.5"/>
</g>
<!-- Node3 -->
<g id="node3" class="node">
<title>Node3</title>
<g id="a_node3"><a xlink:href="class_photon_1_1_pun_1_1_demo_1_1_slot_racer_1_1_utils_1_1_bezier_spline.xhtml#a882790bce850708c85428578c2eb1c2c" target="_top" xlink:title=" ">
<polygon fill="white" stroke="black" points="415,-0.5 415,-41.5 563,-41.5 563,-0.5 415,-0.5"/>
<text text-anchor="start" x="423" y="-29.5" font-family="Helvetica,sans-Serif" font-size="10.00">Photon.Pun.Demo.SlotRacer.</text>
<text text-anchor="start" x="423" y="-18.5" font-family="Helvetica,sans-Serif" font-size="10.00">Utils.BezierSpline.GetPosition</text>
<text text-anchor="middle" x="489" y="-7.5" font-family="Helvetica,sans-Serif" font-size="10.00">AtDistance</text>
</a>
</g>
</g>
<!-- Node2&#45;&gt;Node3 -->
<g id="edge2" class="edge">
<title>Node2&#45;&gt;Node3</title>
<path fill="none" stroke="midnightblue" d="M379.02,-21C387.56,-21 396.17,-21 404.62,-21"/>
<polygon fill="midnightblue" stroke="midnightblue" points="404.82,-24.5 414.82,-21 404.82,-17.5 404.82,-24.5"/>
</g>
<!-- Node4 -->
<g id="node4" class="node">
<title>Node4</title>
<g id="a_node4"><a xlink:href="class_photon_1_1_pun_1_1_demo_1_1_slot_racer_1_1_utils_1_1_bezier_spline.xhtml#a781ddf5344420bfeb2f5bf8413fcaa54" target="_top" xlink:title=" ">
<polygon fill="white" stroke="black" points="599,-6 599,-36 744,-36 744,-6 599,-6"/>
<text text-anchor="start" x="607" y="-24" font-family="Helvetica,sans-Serif" font-size="10.00">Photon.Pun.Demo.SlotRacer.</text>
<text text-anchor="middle" x="671.5" y="-13" font-family="Helvetica,sans-Serif" font-size="10.00">Utils.BezierSpline.GetPoint</text>
</a>
</g>
</g>
<!-- Node3&#45;&gt;Node4 -->
<g id="edge3" class="edge">
<title>Node3&#45;&gt;Node4</title>
<path fill="none" stroke="midnightblue" d="M563.16,-21C571.65,-21 580.36,-21 588.97,-21"/>
<polygon fill="midnightblue" stroke="midnightblue" points="589,-24.5 599,-21 589,-17.5 589,-24.5"/>
</g>
<!-- Node5 -->
<g id="node5" class="node">
<title>Node5</title>
<g id="a_node5"><a xlink:href="class_photon_1_1_pun_1_1_demo_1_1_slot_racer_1_1_utils_1_1_bezier.xhtml#a92b639bbe28e91ebf634d21804d19b50" target="_top" xlink:title=" ">
<polygon fill="white" stroke="black" points="780,-6 780,-36 925,-36 925,-6 780,-6"/>
<text text-anchor="start" x="788" y="-24" font-family="Helvetica,sans-Serif" font-size="10.00">Photon.Pun.Demo.SlotRacer.</text>
<text text-anchor="middle" x="852.5" y="-13" font-family="Helvetica,sans-Serif" font-size="10.00">Utils.Bezier.GetPoint</text>
</a>
</g>
</g>
<!-- Node4&#45;&gt;Node5 -->
<g id="edge4" class="edge">
<title>Node4&#45;&gt;Node5</title>
<path fill="none" stroke="midnightblue" d="M744.02,-21C752.49,-21 761.18,-21 769.78,-21"/>
<polygon fill="midnightblue" stroke="midnightblue" points="769.8,-24.5 779.8,-21 769.8,-17.5 769.8,-24.5"/>
</g>
</g>
</svg>
