<?xml version="1.0" encoding="UTF-8" standalone="no"?>
<!DOCTYPE svg PUBLIC "-//W3C//DTD SVG 1.1//EN"
 "http://www.w3.org/Graphics/SVG/1.1/DTD/svg11.dtd">
<!-- Generated by graphviz version 2.49.1 (20210923.0004)
 -->
<!-- Title: Discord.StorageManager.ReadAsyncPartial Pages: 1 -->
<svg width="527pt" height="39pt"
 viewBox="0.00 0.00 527.00 39.00" xmlns="http://www.w3.org/2000/svg" xmlns:xlink="http://www.w3.org/1999/xlink">
<g id="graph0" class="graph" transform="scale(1 1) rotate(0) translate(4 35)">
<title>Discord.StorageManager.ReadAsyncPartial</title>
<!-- Node1 -->
<g id="node1" class="node">
<title>Node1</title>
<g id="a_node1"><a xlink:title=" ">
<polygon fill="#bfbfbf" stroke="black" points="0,-0.5 0,-30.5 149,-30.5 149,-0.5 0,-0.5"/>
<text text-anchor="start" x="8" y="-18.5" font-family="Helvetica,sans-Serif" font-size="10.00">Discord.StorageManager.Read</text>
<text text-anchor="middle" x="74.5" y="-7.5" font-family="Helvetica,sans-Serif" font-size="10.00">AsyncPartial</text>
</a>
</g>
</g>
<!-- Node2 -->
<g id="node2" class="node">
<title>Node2</title>
<g id="a_node2"><a xlink:href="class_discord_1_1_storage_manager.html#a08cf0df67bec01169d979d1b3a6b102d" target="_top" xlink:title=" ">
<polygon fill="none" stroke="black" points="185,-0.5 185,-30.5 334,-30.5 334,-0.5 185,-0.5"/>
<text text-anchor="start" x="193" y="-18.5" font-family="Helvetica,sans-Serif" font-size="10.00">Discord.StorageManager.Read</text>
<text text-anchor="middle" x="259.5" y="-7.5" font-family="Helvetica,sans-Serif" font-size="10.00">AsyncPartialCallbackImpl</text>
</a>
</g>
</g>
<!-- Node1&#45;&gt;Node2 -->
<g id="edge1" class="edge">
<title>Node1&#45;&gt;Node2</title>
<path fill="none" stroke="midnightblue" d="M149.14,-15.5C157.47,-15.5 166.01,-15.5 174.46,-15.5"/>
<polygon fill="midnightblue" stroke="midnightblue" points="174.71,-19 184.71,-15.5 174.71,-12 174.71,-19"/>
</g>
<!-- Node3 -->
<g id="node3" class="node">
<title>Node3</title>
<g id="a_node3"><a xlink:href="class_discord_1_1_storage_manager.html#a8707af55a90eb66817438d9c60a15bea" target="_top" xlink:title=" ">
<polygon fill="none" stroke="black" points="370,-0.5 370,-30.5 519,-30.5 519,-0.5 370,-0.5"/>
<text text-anchor="start" x="378" y="-18.5" font-family="Helvetica,sans-Serif" font-size="10.00">Discord.StorageManager.Read</text>
<text text-anchor="middle" x="444.5" y="-7.5" font-family="Helvetica,sans-Serif" font-size="10.00">AsyncPartialHandler</text>
</a>
</g>
</g>
<!-- Node2&#45;&gt;Node3 -->
<g id="edge2" class="edge">
<title>Node2&#45;&gt;Node3</title>
<path fill="none" stroke="midnightblue" d="M334.14,-15.5C342.47,-15.5 351.01,-15.5 359.46,-15.5"/>
<polygon fill="midnightblue" stroke="midnightblue" points="359.71,-19 369.71,-15.5 359.71,-12 359.71,-19"/>
</g>
</g>
</svg>
