<?xml version="1.0" encoding="UTF-8" standalone="no"?>
<!DOCTYPE svg PUBLIC "-//W3C//DTD SVG 1.1//EN"
 "http://www.w3.org/Graphics/SVG/1.1/DTD/svg11.dtd">
<!-- Generated by graphviz version 2.47.3 (20210619.1520)
 -->
<!-- Title: MinionStats.Die Pages: 1 -->
<svg width="261pt" height="66pt"
 viewBox="0.00 0.00 261.00 66.00" xmlns="http://www.w3.org/2000/svg" xmlns:xlink="http://www.w3.org/1999/xlink">
<g id="graph0" class="graph" transform="scale(1 1) rotate(0) translate(4 62)">
<title>MinionStats.Die</title>
<!-- Node1 -->
<g id="node1" class="node">
<title>Node1</title>
<g id="a_node1"><a xlink:title="Function that implements what is done when this entity dies.">
<polygon fill="#bfbfbf" stroke="black" points="0,-19.5 0,-38.5 86,-38.5 86,-19.5 0,-19.5"/>
<text text-anchor="middle" x="43" y="-26.5" font-family="Helvetica,sans-Serif" font-size="10.00">MinionStats.Die</text>
</a>
</g>
</g>
<!-- Node2 -->
<g id="node2" class="node">
<title>Node2</title>
<g id="a_node2"><a xlink:href="class_game_controller.html#a3284abf9985021d4e4936f90d858a7dd" target="_top" xlink:title=" ">
<polygon fill="none" stroke="black" points="122,-38.5 122,-57.5 253,-57.5 253,-38.5 122,-38.5"/>
<text text-anchor="middle" x="187.5" y="-45.5" font-family="Helvetica,sans-Serif" font-size="10.00">GameController.GetPlayer</text>
</a>
</g>
</g>
<!-- Node1&#45;&gt;Node2 -->
<g id="edge1" class="edge">
<title>Node1&#45;&gt;Node2</title>
<path fill="none" stroke="midnightblue" d="M86.37,-34.65C94.39,-35.72 103,-36.87 111.67,-38.02"/>
<polygon fill="midnightblue" stroke="midnightblue" points="111.49,-41.53 121.86,-39.38 112.41,-34.59 111.49,-41.53"/>
</g>
<!-- Node3 -->
<g id="node3" class="node">
<title>Node3</title>
<g id="a_node3"><a xlink:href="class_game_controller.html#a7e7ba340d852830acb4d6f1f172c248c" target="_top" xlink:title="Get the current time in seconds from the game">
<polygon fill="none" stroke="black" points="125.5,-0.5 125.5,-19.5 249.5,-19.5 249.5,-0.5 125.5,-0.5"/>
<text text-anchor="middle" x="187.5" y="-7.5" font-family="Helvetica,sans-Serif" font-size="10.00">GameController.GetTime</text>
</a>
</g>
</g>
<!-- Node1&#45;&gt;Node3 -->
<g id="edge2" class="edge">
<title>Node1&#45;&gt;Node3</title>
<path fill="none" stroke="midnightblue" d="M86.37,-23.35C95.44,-22.14 105.27,-20.83 115.09,-19.52"/>
<polygon fill="midnightblue" stroke="midnightblue" points="115.86,-22.95 125.31,-18.16 114.93,-16.01 115.86,-22.95"/>
</g>
</g>
</svg>
