<?xml version="1.0" encoding="UTF-8" standalone="no"?>
<!DOCTYPE svg PUBLIC "-//W3C//DTD SVG 1.1//EN"
 "http://www.w3.org/Graphics/SVG/1.1/DTD/svg11.dtd">
<!-- Generated by graphviz version 2.47.3 (20210619.1520)
 -->
<!-- Title: PlayerStats.DealDamageRPC Pages: 1 -->
<!--zoomable 255 -->
<svg id="main" version="1.1" xmlns="http://www.w3.org/2000/svg" xmlns:xlink="http://www.w3.org/1999/xlink" xml:space="preserve" onload="init(evt)">
<style type="text/css"><![CDATA[
.edge:hover path { stroke: red; }
.edge:hover polygon { stroke: red; fill: red; }
]]></style>
<script type="text/javascript"><![CDATA[
var edges = document.getElementsByTagName('g');
if (edges && edges.length) {
  for (var i=0;i<edges.length;i++) {
    if (edges[i].id.substr(0,4)=='edge') {
      edges[i].setAttribute('class','edge');
    }
  }
}
]]></script>
        <defs>
                <circle id="rim" cx="0" cy="0" r="7"/>
                <circle id="rim2" cx="0" cy="0" r="3.5"/>
                <g id="zoomPlus">
                        <use xlink:href="#rim" fill="#404040">
                                <set attributeName="fill" to="#808080" begin="zoomplus.mouseover" end="zoomplus.mouseout"/>
                        </use>
                        <path d="M-4,0h8M0,-4v8" fill="none" stroke="white" stroke-width="1.5" pointer-events="none"/>
                </g>
                <g id="zoomMin">
                        <use xlink:href="#rim" fill="#404040">
                                <set attributeName="fill" to="#808080" begin="zoomminus.mouseover" end="zoomminus.mouseout"/>
                        </use>
                        <path d="M-4,0h8" fill="none" stroke="white" stroke-width="1.5" pointer-events="none"/>
                </g>
                <g id="dirArrow">
                        <path fill="none" stroke="white" stroke-width="1.5" d="M0,-3.0v7 M-2.5,-0.5L0,-3.0L2.5,-0.5"/>
                </g>
               <g id="resetDef">
                       <use xlink:href="#rim2" fill="#404040">
                               <set attributeName="fill" to="#808080" begin="reset.mouseover" end="reset.mouseout"/>
                       </use>
               </g>
        </defs>

<script type="text/javascript">
var viewWidth = 1204;
var viewHeight = 255;
var sectionId = 'dynsection-10';
</script>
<script xlink:href="svgpan.js"/>
<svg id="graph" class="graph">
<g id="viewport">
<title>PlayerStats.DealDamageRPC</title>
<!-- Node1 -->
<g id="node1" class="node">
<title>Node1</title>
<g id="a_node1"><a xlink:title=" ">
<polygon fill="#bfbfbf" stroke="black" points="0,-58.61 0,-77.61 146,-77.61 146,-58.61 0,-58.61"/>
<text text-anchor="middle" x="73" y="-65.61" font-family="Helvetica,sans-Serif" font-size="10.00">PlayerStats.DealDamageRPC</text>
</a>
</g>
</g>
<!-- Node2 -->
<g id="node2" class="node">
<title>Node2</title>
<g id="a_node2"><a xlink:href="class_player_stats.html#a5caca2bd8f676341a2b269aea8a0f1ff" target="_top" xlink:title="Function that implements what is done when this entity dies.">
<polygon fill="none" stroke="black" points="203.5,-140.61 203.5,-159.61 288.5,-159.61 288.5,-140.61 203.5,-140.61"/>
<text text-anchor="middle" x="246" y="-147.61" font-family="Helvetica,sans-Serif" font-size="10.00">PlayerStats.Die</text>
</a>
</g>
</g>
<!-- Node1&#45;&gt;Node2 -->
<g id="edge1" class="edge">
<title>Node1&#45;&gt;Node2</title>
<path fill="none" stroke="midnightblue" d="M93.95,-77.68C124.07,-92.12 181.31,-119.57 216.02,-136.22"/>
<polygon fill="midnightblue" stroke="midnightblue" points="214.65,-139.44 225.18,-140.61 217.67,-133.13 214.65,-139.44"/>
</g>
<!-- Node17 -->
<g id="node17" class="node">
<title>Node17</title>
<g id="a_node17"><a xlink:href="class_player_u_i_controller.html#aca577b724c1f3f2ed54ad1165a7842c2" target="_top" xlink:title="Sets the current HP value to the Image.">
<polygon fill="none" stroke="black" points="182,-53.11 182,-83.11 310,-83.11 310,-53.11 182,-53.11"/>
<text text-anchor="start" x="190" y="-71.11" font-family="Helvetica,sans-Serif" font-size="10.00">PlayerUIController.Update</text>
<text text-anchor="middle" x="246" y="-60.11" font-family="Helvetica,sans-Serif" font-size="10.00">CurrentHP</text>
</a>
</g>
</g>
<!-- Node1&#45;&gt;Node17 -->
<g id="edge17" class="edge">
<title>Node1&#45;&gt;Node17</title>
<path fill="none" stroke="midnightblue" d="M146.02,-68.11C154.46,-68.11 163.08,-68.11 171.53,-68.11"/>
<polygon fill="midnightblue" stroke="midnightblue" points="171.74,-71.61 181.74,-68.11 171.74,-64.61 171.74,-71.61"/>
</g>
<!-- Node18 -->
<g id="node18" class="node">
<title>Node18</title>
<g id="a_node18"><a xlink:href="class_player_h_u_d_controller.html#ab2461120d3cfef6e83b38062b1373e04" target="_top" xlink:title=" ">
<polygon fill="none" stroke="black" points="346,-14.61 346,-33.61 499,-33.61 499,-14.61 346,-14.61"/>
<text text-anchor="middle" x="422.5" y="-21.61" font-family="Helvetica,sans-Serif" font-size="10.00">PlayerHUDController.UpdateHP</text>
</a>
</g>
</g>
<!-- Node1&#45;&gt;Node18 -->
<g id="edge19" class="edge">
<title>Node1&#45;&gt;Node18</title>
<path fill="none" stroke="midnightblue" d="M109.25,-58.56C130.23,-53.22 157.46,-46.9 182,-43.11 232.68,-35.28 289.93,-30.59 335.74,-27.83"/>
<polygon fill="midnightblue" stroke="midnightblue" points="336.15,-31.31 345.93,-27.23 335.74,-24.32 336.15,-31.31"/>
</g>
<!-- Node3 -->
<g id="node3" class="node">
<title>Node3</title>
<g id="a_node3"><a xlink:href="class_player_stats.html#a2515cde362ce22291cde0073d23e2d9c" target="_top" xlink:title="Add some XP amount.">
<polygon fill="none" stroke="black" points="372.5,-178.61 372.5,-197.61 472.5,-197.61 472.5,-178.61 372.5,-178.61"/>
<text text-anchor="middle" x="422.5" y="-185.61" font-family="Helvetica,sans-Serif" font-size="10.00">PlayerStats.AddXP</text>
</a>
</g>
</g>
<!-- Node2&#45;&gt;Node3 -->
<g id="edge2" class="edge">
<title>Node2&#45;&gt;Node3</title>
<path fill="none" stroke="midnightblue" d="M288.8,-159.22C312.47,-164.37 342.35,-170.88 367.75,-176.41"/>
<polygon fill="midnightblue" stroke="midnightblue" points="367.09,-179.85 377.61,-178.56 368.58,-173.01 367.09,-179.85"/>
</g>
<!-- Node4 -->
<g id="node4" class="node">
<title>Node4</title>
<g id="a_node4"><a xlink:href="class_player_stats.html#ae874ab5cbb490cbdcf3f5613b8bc2240" target="_top" xlink:title="Initialize the actual Stats of the Player.">
<polygon fill="none" stroke="black" points="369.5,-140.61 369.5,-159.61 475.5,-159.61 475.5,-140.61 369.5,-140.61"/>
<text text-anchor="middle" x="422.5" y="-147.61" font-family="Helvetica,sans-Serif" font-size="10.00">PlayerStats.Initialize</text>
</a>
</g>
</g>
<!-- Node2&#45;&gt;Node4 -->
<g id="edge3" class="edge">
<title>Node2&#45;&gt;Node4</title>
<path fill="none" stroke="midnightblue" d="M288.8,-150.11C309.88,-150.11 335.87,-150.11 359.24,-150.11"/>
<polygon fill="midnightblue" stroke="midnightblue" points="359.42,-153.61 369.42,-150.11 359.42,-146.61 359.42,-153.61"/>
</g>
<!-- Node5 -->
<g id="node5" class="node">
<title>Node5</title>
<g id="a_node5"><a xlink:href="class_player_u_i_controller.html#ab6ed746dec17fdf763bc4ec1d713db7f" target="_top" xlink:title="Initializes all the values and colors for this Player.">
<polygon fill="none" stroke="black" points="541.5,-216.61 541.5,-235.61 672.5,-235.61 672.5,-216.61 541.5,-216.61"/>
<text text-anchor="middle" x="607" y="-223.61" font-family="Helvetica,sans-Serif" font-size="10.00">PlayerUIController.Initalize</text>
</a>
</g>
</g>
<!-- Node4&#45;&gt;Node5 -->
<g id="edge4" class="edge">
<title>Node4&#45;&gt;Node5</title>
<path fill="none" stroke="midnightblue" d="M475.8,-159.14C483.87,-161.69 491.88,-164.95 499,-169.11 519.08,-180.86 515.01,-195.21 535,-207.11 538.64,-209.28 542.53,-211.2 546.54,-212.91"/>
<polygon fill="midnightblue" stroke="midnightblue" points="545.48,-216.25 556.07,-216.52 547.95,-209.7 545.48,-216.25"/>
</g>
<!-- Node10 -->
<g id="node10" class="node">
<title>Node10</title>
<g id="a_node10"><a xlink:href="class_player_h_u_d_controller.html#a3717d3272b98e6e47c909bdb5af2a99f" target="_top" xlink:title=" ">
<polygon fill="none" stroke="black" points="535,-178.61 535,-197.61 679,-197.61 679,-178.61 535,-178.61"/>
<text text-anchor="middle" x="607" y="-185.61" font-family="Helvetica,sans-Serif" font-size="10.00">PlayerHUDController.Initialize</text>
</a>
</g>
</g>
<!-- Node4&#45;&gt;Node10 -->
<g id="edge10" class="edge">
<title>Node4&#45;&gt;Node10</title>
<path fill="none" stroke="midnightblue" d="M469.55,-159.7C494.07,-164.81 524.41,-171.12 550.25,-176.5"/>
<polygon fill="midnightblue" stroke="midnightblue" points="549.78,-179.98 560.28,-178.59 551.2,-173.13 549.78,-179.98"/>
</g>
<!-- Node11 -->
<g id="node11" class="node">
<title>Node11</title>
<g id="a_node11"><a xlink:href="class_inventory.html#af5cb79cb50692e3fb6c98df25812dcbc" target="_top" xlink:title=" ">
<polygon fill="none" stroke="black" points="560.5,-140.61 560.5,-159.61 653.5,-159.61 653.5,-140.61 560.5,-140.61"/>
<text text-anchor="middle" x="607" y="-147.61" font-family="Helvetica,sans-Serif" font-size="10.00">Inventory.Initialize</text>
</a>
</g>
</g>
<!-- Node4&#45;&gt;Node11 -->
<g id="edge11" class="edge">
<title>Node4&#45;&gt;Node11</title>
<path fill="none" stroke="midnightblue" d="M475.8,-150.11C499.01,-150.11 526.36,-150.11 549.99,-150.11"/>
<polygon fill="midnightblue" stroke="midnightblue" points="550.21,-153.61 560.21,-150.11 550.21,-146.61 550.21,-153.61"/>
</g>
<!-- Node13 -->
<g id="node13" class="node">
<title>Node13</title>
<g id="a_node13"><a xlink:href="class_player_h_u_d_controller.html#adf30ead91cd36140e32d0ad158fbbae4" target="_top" xlink:title=" ">
<polygon fill="none" stroke="black" points="535,-91.11 535,-121.11 679,-121.11 679,-91.11 535,-91.11"/>
<text text-anchor="start" x="543" y="-109.11" font-family="Helvetica,sans-Serif" font-size="10.00">PlayerHUDController.Initialize</text>
<text text-anchor="middle" x="607" y="-98.11" font-family="Helvetica,sans-Serif" font-size="10.00">Abilities</text>
</a>
</g>
</g>
<!-- Node4&#45;&gt;Node13 -->
<g id="edge13" class="edge">
<title>Node4&#45;&gt;Node13</title>
<path fill="none" stroke="midnightblue" d="M463.1,-140.57C483.74,-135.59 509.63,-129.35 533.69,-123.55"/>
<polygon fill="midnightblue" stroke="midnightblue" points="534.61,-126.92 543.51,-121.18 532.97,-120.12 534.61,-126.92"/>
</g>
<!-- Node6 -->
<g id="node6" class="node">
<title>Node6</title>
<g id="a_node6"><a xlink:href="class_player_u_i_controller.html#aa5b61a93967fa5ce39bfd950a9e9d584" target="_top" xlink:title="Initializes all the values into the Image and Text.">
<polygon fill="none" stroke="black" points="718.5,-211.11 718.5,-241.11 851.5,-241.11 851.5,-211.11 718.5,-211.11"/>
<text text-anchor="start" x="726.5" y="-229.11" font-family="Helvetica,sans-Serif" font-size="10.00">PlayerUIController.Initialize</text>
<text text-anchor="middle" x="785" y="-218.11" font-family="Helvetica,sans-Serif" font-size="10.00">Values</text>
</a>
</g>
</g>
<!-- Node5&#45;&gt;Node6 -->
<g id="edge5" class="edge">
<title>Node5&#45;&gt;Node6</title>
<path fill="none" stroke="midnightblue" d="M672.54,-226.11C684.07,-226.11 696.18,-226.11 708,-226.11"/>
<polygon fill="midnightblue" stroke="midnightblue" points="708.29,-229.61 718.29,-226.11 708.29,-222.61 708.29,-229.61"/>
</g>
<!-- Node7 -->
<g id="node7" class="node">
<title>Node7</title>
<g id="a_node7"><a xlink:href="class_player_u_i_controller.html#adadd54ec10a1236aa7c08022d27fa068" target="_top" xlink:title="Sets the current level and xp to the Image.">
<polygon fill="none" stroke="black" points="898.5,-216.11 898.5,-246.11 1026.5,-246.11 1026.5,-216.11 898.5,-216.11"/>
<text text-anchor="start" x="906.5" y="-234.11" font-family="Helvetica,sans-Serif" font-size="10.00">PlayerUIController.Update</text>
<text text-anchor="middle" x="962.5" y="-223.11" font-family="Helvetica,sans-Serif" font-size="10.00">CurrentLevel</text>
</a>
</g>
</g>
<!-- Node6&#45;&gt;Node7 -->
<g id="edge6" class="edge">
<title>Node6&#45;&gt;Node7</title>
<path fill="none" stroke="midnightblue" d="M851.85,-227.99C863.78,-228.33 876.29,-228.69 888.41,-229.03"/>
<polygon fill="midnightblue" stroke="midnightblue" points="888.38,-232.53 898.48,-229.32 888.58,-225.53 888.38,-232.53"/>
</g>
<!-- Node9 -->
<g id="node9" class="node">
<title>Node9</title>
<g id="a_node9"><a xlink:href="class_player_u_i_controller.html#aacc9f1b78d9e1adab16f8fc2ec246dfb" target="_top" xlink:title=" ">
<polygon fill="none" stroke="black" points="898.5,-167.11 898.5,-197.11 1026.5,-197.11 1026.5,-167.11 898.5,-167.11"/>
<text text-anchor="start" x="906.5" y="-185.11" font-family="Helvetica,sans-Serif" font-size="10.00">PlayerUIController.Update</text>
<text text-anchor="middle" x="962.5" y="-174.11" font-family="Helvetica,sans-Serif" font-size="10.00">MaxHP</text>
</a>
</g>
</g>
<!-- Node6&#45;&gt;Node9 -->
<g id="edge8" class="edge">
<title>Node6&#45;&gt;Node9</title>
<path fill="none" stroke="midnightblue" d="M845.91,-211.09C860.65,-207.4 876.56,-203.41 891.73,-199.61"/>
<polygon fill="midnightblue" stroke="midnightblue" points="892.72,-202.97 901.57,-197.14 891.01,-196.18 892.72,-202.97"/>
</g>
<!-- Node8 -->
<g id="node8" class="node">
<title>Node8</title>
<g id="a_node8"><a xlink:href="class_utils.html#a459472171f68c903c975020cc5b02fee" target="_top" xlink:title="Calculates the actual normalized fill amount for the image.">
<polygon fill="none" stroke="black" points="1070,-112.61 1070,-131.61 1196,-131.61 1196,-112.61 1070,-112.61"/>
<text text-anchor="middle" x="1133" y="-119.61" font-family="Helvetica,sans-Serif" font-size="10.00">Utils.CalculateFillAmount</text>
</a>
</g>
</g>
<!-- Node7&#45;&gt;Node8 -->
<g id="edge7" class="edge">
<title>Node7&#45;&gt;Node8</title>
<path fill="none" stroke="midnightblue" d="M1015.35,-216.06C1021.8,-213.44 1028.17,-210.46 1034,-207.11 1066.64,-188.37 1098.43,-157.87 1116.57,-138.96"/>
<polygon fill="midnightblue" stroke="midnightblue" points="1119.16,-141.31 1123.47,-131.63 1114.07,-136.51 1119.16,-141.31"/>
</g>
<!-- Node9&#45;&gt;Node8 -->
<g id="edge9" class="edge">
<title>Node9&#45;&gt;Node8</title>
<path fill="none" stroke="midnightblue" d="M1006.01,-167.06C1015.24,-163.78 1024.95,-160.34 1034,-157.11 1054.49,-149.82 1077.37,-141.65 1095.87,-135.04"/>
<polygon fill="midnightblue" stroke="midnightblue" points="1097.15,-138.3 1105.39,-131.64 1094.79,-131.71 1097.15,-138.3"/>
</g>
<!-- Node12 -->
<g id="node12" class="node">
<title>Node12</title>
<g id="a_node12"><a xlink:href="class_player_h_u_d_controller.html#aeef77dcdfaf1c9b719e4350c17c88fa5" target="_top" xlink:title=" ">
<polygon fill="none" stroke="black" points="715,-135.11 715,-165.11 855,-165.11 855,-135.11 715,-135.11"/>
<text text-anchor="start" x="723" y="-153.11" font-family="Helvetica,sans-Serif" font-size="10.00">PlayerHUDController.Update</text>
<text text-anchor="middle" x="785" y="-142.11" font-family="Helvetica,sans-Serif" font-size="10.00">GoldTxt</text>
</a>
</g>
</g>
<!-- Node11&#45;&gt;Node12 -->
<g id="edge12" class="edge">
<title>Node11&#45;&gt;Node12</title>
<path fill="none" stroke="midnightblue" d="M653.78,-150.11C669.36,-150.11 687.26,-150.11 704.69,-150.11"/>
<polygon fill="midnightblue" stroke="midnightblue" points="704.89,-153.61 714.89,-150.11 704.89,-146.61 704.89,-153.61"/>
</g>
<!-- Node14 -->
<g id="node14" class="node">
<title>Node14</title>
<g id="a_node14"><a xlink:href="class_ability_cooldown.html#aa01c150ac26f1694a1e174e152510094" target="_top" xlink:title="Initializes the current AbilityCooldown.">
<polygon fill="none" stroke="black" points="723,-96.61 723,-115.61 847,-115.61 847,-96.61 723,-96.61"/>
<text text-anchor="middle" x="785" y="-103.61" font-family="Helvetica,sans-Serif" font-size="10.00">AbilityCooldown.Initialize</text>
</a>
</g>
</g>
<!-- Node13&#45;&gt;Node14 -->
<g id="edge14" class="edge">
<title>Node13&#45;&gt;Node14</title>
<path fill="none" stroke="midnightblue" d="M679.08,-106.11C690.18,-106.11 701.66,-106.11 712.76,-106.11"/>
<polygon fill="midnightblue" stroke="midnightblue" points="712.84,-109.61 722.84,-106.11 712.84,-102.61 712.84,-109.61"/>
</g>
<!-- Node15 -->
<g id="node15" class="node">
<title>Node15</title>
<g id="a_node15"><a xlink:href="class_ability_cooldown.html#a2142f4ae1a75b2e88bd33d8553680a33" target="_top" xlink:title="This function is called whenever this ability is ready and you have enough mana.">
<polygon fill="none" stroke="black" points="891,-128.61 891,-147.61 1034,-147.61 1034,-128.61 891,-128.61"/>
<text text-anchor="middle" x="962.5" y="-135.61" font-family="Helvetica,sans-Serif" font-size="10.00">AbilityCooldown.AbilityReady</text>
</a>
</g>
</g>
<!-- Node14&#45;&gt;Node15 -->
<g id="edge15" class="edge">
<title>Node14&#45;&gt;Node15</title>
<path fill="none" stroke="midnightblue" d="M838.18,-115.63C857.37,-119.13 879.29,-123.12 899.28,-126.77"/>
<polygon fill="midnightblue" stroke="midnightblue" points="898.75,-130.23 909.22,-128.58 900.01,-123.34 898.75,-130.23"/>
</g>
<!-- Node16 -->
<g id="node16" class="node">
<title>Node16</title>
<g id="a_node16"><a xlink:href="class_ability.html#a680fce4c2981c462afc82d28fe3958ef" target="_top" xlink:title=" ">
<polygon fill="none" stroke="black" points="921.5,-90.61 921.5,-109.61 1003.5,-109.61 1003.5,-90.61 921.5,-90.61"/>
<text text-anchor="middle" x="962.5" y="-97.61" font-family="Helvetica,sans-Serif" font-size="10.00">Ability.Initialize</text>
</a>
</g>
</g>
<!-- Node14&#45;&gt;Node16 -->
<g id="edge16" class="edge">
<title>Node14&#45;&gt;Node16</title>
<path fill="none" stroke="midnightblue" d="M847.38,-104.01C868.26,-103.3 891.33,-102.51 911.23,-101.83"/>
<polygon fill="midnightblue" stroke="midnightblue" points="911.44,-105.33 921.32,-101.49 911.21,-98.33 911.44,-105.33"/>
</g>
<!-- Node17&#45;&gt;Node8 -->
<g id="edge18" class="edge">
<title>Node17&#45;&gt;Node8</title>
<path fill="none" stroke="midnightblue" d="M310.22,-66.42C381.93,-64.64 502.37,-62.11 606,-62.11 606,-62.11 606,-62.11 786,-62.11 896.55,-62.11 926.53,-55.23 1034,-81.11 1059,-87.13 1085.84,-98.76 1105.1,-108.1"/>
<polygon fill="midnightblue" stroke="midnightblue" points="1103.65,-111.29 1114.17,-112.6 1106.77,-105.02 1103.65,-111.29"/>
</g>
<!-- Node18&#45;&gt;Node8 -->
<g id="edge20" class="edge">
<title>Node18&#45;&gt;Node8</title>
<path fill="none" stroke="midnightblue" d="M486.47,-14.56C599.85,0.06 844.21,19.67 1034,-48.11 1067.08,-59.93 1098.17,-87.19 1116.14,-105.12"/>
<polygon fill="midnightblue" stroke="midnightblue" points="1113.94,-107.88 1123.42,-112.61 1118.96,-103 1113.94,-107.88"/>
</g>
</g>
</svg>
        <g id="navigator" transform="translate(0 0)" fill="#404254">
                <rect fill="#f2f5e9" fill-opacity="0.5" stroke="#606060" stroke-width=".5" x="0" y="0" width="60" height="60"/>
                <use id="zoomplus" xlink:href="#zoomPlus" x="17" y="9" onmousedown="handleZoom(evt,'in')"/>
                <use id="zoomminus" xlink:href="#zoomMin" x="42" y="9" onmousedown="handleZoom(evt,'out')"/>
                <use id="reset" xlink:href="#resetDef" x="30" y="36" onmousedown="handleReset()"/>
                <g id="arrowUp" xlink:href="#dirArrow" transform="translate(30 24)" onmousedown="handlePan(0,-1)">
                  <use xlink:href="#rim" fill="#404040">
                        <set attributeName="fill" to="#808080" begin="arrowUp.mouseover" end="arrowUp.mouseout"/>
                  </use>
                  <path fill="none" stroke="white" stroke-width="1.5" d="M0,-3.0v7 M-2.5,-0.5L0,-3.0L2.5,-0.5"/>
                </g>
                <g id="arrowRight" xlink:href="#dirArrow" transform="rotate(90) translate(36 -43)" onmousedown="handlePan(1,0)">
                  <use xlink:href="#rim" fill="#404040">
                        <set attributeName="fill" to="#808080" begin="arrowRight.mouseover" end="arrowRight.mouseout"/>
                  </use>
                  <path fill="none" stroke="white" stroke-width="1.5" d="M0,-3.0v7 M-2.5,-0.5L0,-3.0L2.5,-0.5"/>
                </g>
                <g id="arrowDown" xlink:href="#dirArrow" transform="rotate(180) translate(-30 -48)" onmousedown="handlePan(0,1)">
                  <use xlink:href="#rim" fill="#404040">
                        <set attributeName="fill" to="#808080" begin="arrowDown.mouseover" end="arrowDown.mouseout"/>
                  </use>
                  <path fill="none" stroke="white" stroke-width="1.5" d="M0,-3.0v7 M-2.5,-0.5L0,-3.0L2.5,-0.5"/>
                </g>
                <g id="arrowLeft" xlink:href="#dirArrow" transform="rotate(270) translate(-36 17)" onmousedown="handlePan(-1,0)">
                  <use xlink:href="#rim" fill="#404040">
                        <set attributeName="fill" to="#808080" begin="arrowLeft.mouseover" end="arrowLeft.mouseout"/>
                  </use>
                  <path fill="none" stroke="white" stroke-width="1.5" d="M0,-3.0v7 M-2.5,-0.5L0,-3.0L2.5,-0.5"/>
                </g>
        </g>
        <svg viewBox="0 0 15 15" width="100%" height="30px" preserveAspectRatio="xMaxYMin meet">
         <g id="arrow_out" transform="scale(0.3 0.3)">
          <a xlink:href="class_player_stats_a6542a649dfb0cccc9fe329c83024e3ed_cgraph_org.svg" target="_base">
           <rect id="button" ry="5" rx="5" y="6" x="6" height="38" width="38"
                fill="#f2f5e9" fill-opacity="0.5" stroke="#606060" stroke-width="1.0"/>
           <path id="arrow"
             d="M 11.500037,31.436501 C 11.940474,20.09759 22.043105,11.32322 32.158766,21.979434 L 37.068811,17.246167 C 37.068811,17.246167 37.088388,32 37.088388,32 L 22.160133,31.978069 C 22.160133,31.978069 26.997745,27.140456 26.997745,27.140456 C 18.528582,18.264221 13.291696,25.230495 11.500037,31.436501 z"
             style="fill:#404040;"/>
          </a>
         </g>
        </svg>
</svg>
