<?xml version="1.0" encoding="UTF-8" standalone="no"?>
<!DOCTYPE svg PUBLIC "-//W3C//DTD SVG 1.1//EN"
 "http://www.w3.org/Graphics/SVG/1.1/DTD/svg11.dtd">
<!-- Generated by graphviz version 2.47.3 (20210619.1520)
 -->
<!-- Title: Photon.Pun.Demo.Asteroids.LobbyMainPanel.OnBackButtonClicked Pages: 1 -->
<!--zoomable 174 -->
<svg id="main" version="1.1" xmlns="http://www.w3.org/2000/svg" xmlns:xlink="http://www.w3.org/1999/xlink" xml:space="preserve" onload="init(evt)">
<style type="text/css"><![CDATA[
.edge:hover path { stroke: red; }
.edge:hover polygon { stroke: red; fill: red; }
]]></style>
<script type="text/javascript"><![CDATA[
var edges = document.getElementsByTagName('g');
if (edges && edges.length) {
  for (var i=0;i<edges.length;i++) {
    if (edges[i].id.substr(0,4)=='edge') {
      edges[i].setAttribute('class','edge');
    }
  }
}
]]></script>
        <defs>
                <circle id="rim" cx="0" cy="0" r="7"/>
                <circle id="rim2" cx="0" cy="0" r="3.5"/>
                <g id="zoomPlus">
                        <use xlink:href="#rim" fill="#404040">
                                <set attributeName="fill" to="#808080" begin="zoomplus.mouseover" end="zoomplus.mouseout"/>
                        </use>
                        <path d="M-4,0h8M0,-4v8" fill="none" stroke="white" stroke-width="1.5" pointer-events="none"/>
                </g>
                <g id="zoomMin">
                        <use xlink:href="#rim" fill="#404040">
                                <set attributeName="fill" to="#808080" begin="zoomminus.mouseover" end="zoomminus.mouseout"/>
                        </use>
                        <path d="M-4,0h8" fill="none" stroke="white" stroke-width="1.5" pointer-events="none"/>
                </g>
                <g id="dirArrow">
                        <path fill="none" stroke="white" stroke-width="1.5" d="M0,-3.0v7 M-2.5,-0.5L0,-3.0L2.5,-0.5"/>
                </g>
               <g id="resetDef">
                       <use xlink:href="#rim2" fill="#404040">
                               <set attributeName="fill" to="#808080" begin="reset.mouseover" end="reset.mouseout"/>
                       </use>
               </g>
        </defs>

<script type="text/javascript">
var viewWidth = 1354;
var viewHeight = 174;
var sectionId = 'dynsection-5';
</script>
<script xlink:href="svgpan.js"/>
<svg id="graph" class="graph">
<g id="viewport">
<title>Photon.Pun.Demo.Asteroids.LobbyMainPanel.OnBackButtonClicked</title>
<polygon fill="white" stroke="transparent" points="-4,4 -4,-169.5 1350,-169.5 1350,4 -4,4"/>
<!-- Node1 -->
<g id="node1" class="node">
<title>Node1</title>
<g id="a_node1"><a xlink:title=" ">
<polygon fill="#bfbfbf" stroke="black" points="0,-24.5 0,-54.5 188,-54.5 188,-24.5 0,-24.5"/>
<text text-anchor="start" x="8" y="-42.5" font-family="Helvetica,sans-Serif" font-size="10.00">Photon.Pun.Demo.Asteroids.</text>
<text text-anchor="middle" x="94" y="-31.5" font-family="Helvetica,sans-Serif" font-size="10.00">LobbyMainPanel.OnBackButtonClicked</text>
</a>
</g>
</g>
<!-- Node2 -->
<g id="node2" class="node">
<title>Node2</title>
<g id="a_node2"><a xlink:href="class_photon_1_1_pun_1_1_photon_network.xhtml#a2fa56a022fa01dbbe46475d7d77f5e59" target="_top" xlink:title="Leave a lobby to stop getting updates about available rooms.">
<polygon fill="white" stroke="black" points="233,-49.5 233,-79.5 373,-79.5 373,-49.5 233,-49.5"/>
<text text-anchor="start" x="241" y="-67.5" font-family="Helvetica,sans-Serif" font-size="10.00">Photon.Pun.PhotonNetwork.</text>
<text text-anchor="middle" x="303" y="-56.5" font-family="Helvetica,sans-Serif" font-size="10.00">LeaveLobby</text>
</a>
</g>
</g>
<!-- Node1&#45;&gt;Node2 -->
<g id="edge1" class="edge">
<title>Node1&#45;&gt;Node2</title>
<path fill="none" stroke="midnightblue" d="M188.21,-50.76C199.71,-52.15 211.38,-53.56 222.65,-54.92"/>
<polygon fill="midnightblue" stroke="midnightblue" points="222.52,-58.43 232.87,-56.15 223.36,-51.48 222.52,-58.43"/>
</g>
<!-- Node11 -->
<g id="node11" class="node">
<title>Node11</title>
<g id="a_node11"><a xlink:href="class_photon_1_1_pun_1_1_demo_1_1_asteroids_1_1_lobby_main_panel.xhtml#ae0f058a2d1732456fd5c65f2ad8a99dc" target="_top" xlink:title=" ">
<polygon fill="white" stroke="black" points="224,-0.5 224,-30.5 382,-30.5 382,-0.5 224,-0.5"/>
<text text-anchor="start" x="232" y="-18.5" font-family="Helvetica,sans-Serif" font-size="10.00">Photon.Pun.Demo.Asteroids.</text>
<text text-anchor="middle" x="303" y="-7.5" font-family="Helvetica,sans-Serif" font-size="10.00">LobbyMainPanel.SetActivePanel</text>
</a>
</g>
</g>
<!-- Node1&#45;&gt;Node11 -->
<g id="edge10" class="edge">
<title>Node1&#45;&gt;Node11</title>
<path fill="none" stroke="midnightblue" d="M188.21,-28.69C196.67,-27.71 205.24,-26.72 213.66,-25.74"/>
<polygon fill="midnightblue" stroke="midnightblue" points="214.32,-29.19 223.85,-24.56 213.52,-22.24 214.32,-29.19"/>
</g>
<!-- Node3 -->
<g id="node3" class="node">
<title>Node3</title>
<g id="a_node3"><a xlink:href="class_photon_1_1_realtime_1_1_load_balancing_client.xhtml#a736a2b78bff4da4d80404e9f98963267" target="_top" xlink:title="Opposite of joining a lobby.">
<polygon fill="white" stroke="black" points="418,-49.5 418,-79.5 573,-79.5 573,-49.5 418,-49.5"/>
<text text-anchor="start" x="426" y="-67.5" font-family="Helvetica,sans-Serif" font-size="10.00">Photon.Realtime.LoadBalancing</text>
<text text-anchor="middle" x="495.5" y="-56.5" font-family="Helvetica,sans-Serif" font-size="10.00">Client.OpLeaveLobby</text>
</a>
</g>
</g>
<!-- Node2&#45;&gt;Node3 -->
<g id="edge2" class="edge">
<title>Node2&#45;&gt;Node3</title>
<path fill="none" stroke="midnightblue" d="M373.04,-64.5C384.33,-64.5 396.14,-64.5 407.78,-64.5"/>
<polygon fill="midnightblue" stroke="midnightblue" points="407.96,-68 417.95,-64.5 407.95,-61 407.96,-68"/>
</g>
<!-- Node4 -->
<g id="node4" class="node">
<title>Node4</title>
<g id="a_node4"><a xlink:href="class_photon_1_1_realtime_1_1_load_balancing_client.xhtml#aa12ff3efc3aa91e5ceca9b3a40f7bd79" target="_top" xlink:title=" ">
<polygon fill="white" stroke="black" points="609,-74.5 609,-104.5 764,-104.5 764,-74.5 609,-74.5"/>
<text text-anchor="start" x="617" y="-92.5" font-family="Helvetica,sans-Serif" font-size="10.00">Photon.Realtime.LoadBalancing</text>
<text text-anchor="middle" x="686.5" y="-81.5" font-family="Helvetica,sans-Serif" font-size="10.00">Client.CheckIfOpCanBeSent</text>
</a>
</g>
</g>
<!-- Node3&#45;&gt;Node4 -->
<g id="edge3" class="edge">
<title>Node3&#45;&gt;Node4</title>
<path fill="none" stroke="midnightblue" d="M573.1,-74.63C581.56,-75.75 590.22,-76.9 598.79,-78.03"/>
<polygon fill="midnightblue" stroke="midnightblue" points="598.42,-81.51 608.79,-79.35 599.34,-74.57 598.42,-81.51"/>
</g>
<!-- Node10 -->
<g id="node10" class="node">
<title>Node10</title>
<g id="a_node10"><a xlink:href="class_photon_1_1_realtime_1_1_load_balancing_peer.xhtml#af7132f864b88af2ff8bb3d6221702841" target="_top" xlink:title="Leaves the lobby on the Master Server.">
<polygon fill="white" stroke="black" points="609,-25.5 609,-55.5 764,-55.5 764,-25.5 609,-25.5"/>
<text text-anchor="start" x="617" y="-43.5" font-family="Helvetica,sans-Serif" font-size="10.00">Photon.Realtime.LoadBalancing</text>
<text text-anchor="middle" x="686.5" y="-32.5" font-family="Helvetica,sans-Serif" font-size="10.00">Peer.OpLeaveLobby</text>
</a>
</g>
</g>
<!-- Node3&#45;&gt;Node10 -->
<g id="edge9" class="edge">
<title>Node3&#45;&gt;Node10</title>
<path fill="none" stroke="midnightblue" d="M573.1,-54.77C581.56,-53.7 590.22,-52.6 598.79,-51.51"/>
<polygon fill="midnightblue" stroke="midnightblue" points="599.31,-54.97 608.79,-50.24 598.43,-48.03 599.31,-54.97"/>
</g>
<!-- Node5 -->
<g id="node5" class="node">
<title>Node5</title>
<g id="a_node5"><a xlink:href="class_photon_1_1_realtime_1_1_load_balancing_client.xhtml#ae052ab450db16efdd31985d56f76f0ab" target="_top" xlink:title=" ">
<polygon fill="white" stroke="black" points="800,-124 800,-165 964,-165 964,-124 800,-124"/>
<text text-anchor="start" x="808" y="-153" font-family="Helvetica,sans-Serif" font-size="10.00">Photon.Realtime.LoadBalancing</text>
<text text-anchor="start" x="808" y="-142" font-family="Helvetica,sans-Serif" font-size="10.00">Client.CheckIfClientIsReadyToCall</text>
<text text-anchor="middle" x="882" y="-131" font-family="Helvetica,sans-Serif" font-size="10.00">Operation</text>
</a>
</g>
</g>
<!-- Node4&#45;&gt;Node5 -->
<g id="edge4" class="edge">
<title>Node4&#45;&gt;Node5</title>
<path fill="none" stroke="midnightblue" d="M740.37,-104.53C758.45,-109.67 779.12,-115.54 798.95,-121.18"/>
<polygon fill="midnightblue" stroke="midnightblue" points="798.03,-124.55 808.6,-123.92 799.94,-117.82 798.03,-124.55"/>
</g>
<!-- Node6 -->
<g id="node6" class="node">
<title>Node6</title>
<g id="a_node6"><a xlink:href="class_photon_1_1_realtime_1_1_load_balancing_client.xhtml#aa01a53cac6918dab3ecb99669b276f01" target="_top" xlink:title=" ">
<polygon fill="white" stroke="black" points="800.5,-74.5 800.5,-104.5 963.5,-104.5 963.5,-74.5 800.5,-74.5"/>
<text text-anchor="start" x="808.5" y="-92.5" font-family="Helvetica,sans-Serif" font-size="10.00">Photon.Realtime.LoadBalancing</text>
<text text-anchor="middle" x="882" y="-81.5" font-family="Helvetica,sans-Serif" font-size="10.00">Client.CheckIfOpAllowedOnServer</text>
</a>
</g>
</g>
<!-- Node4&#45;&gt;Node6 -->
<g id="edge5" class="edge">
<title>Node4&#45;&gt;Node6</title>
<path fill="none" stroke="midnightblue" d="M764.25,-89.5C772.75,-89.5 781.46,-89.5 790.1,-89.5"/>
<polygon fill="midnightblue" stroke="midnightblue" points="790.21,-93 800.21,-89.5 790.21,-86 790.21,-93"/>
</g>
<!-- Node7 -->
<g id="node7" class="node">
<title>Node7</title>
<g id="a_node7"><a xlink:href="class_photon_1_1_realtime_1_1_load_balancing_client.xhtml#a69dd43d4c7211b5b83cd54d0ebcf79e7" target="_top" xlink:title="Debug output of low level api (and this client).">
<polygon fill="white" stroke="black" points="804.5,-25.5 804.5,-55.5 959.5,-55.5 959.5,-25.5 804.5,-25.5"/>
<text text-anchor="start" x="812.5" y="-43.5" font-family="Helvetica,sans-Serif" font-size="10.00">Photon.Realtime.LoadBalancing</text>
<text text-anchor="middle" x="882" y="-32.5" font-family="Helvetica,sans-Serif" font-size="10.00">Client.DebugReturn</text>
</a>
</g>
</g>
<!-- Node4&#45;&gt;Node7 -->
<g id="edge6" class="edge">
<title>Node4&#45;&gt;Node7</title>
<path fill="none" stroke="midnightblue" d="M746.87,-74.47C767.4,-69.27 790.57,-63.4 811.81,-58.02"/>
<polygon fill="midnightblue" stroke="midnightblue" points="812.91,-61.35 821.74,-55.51 811.19,-54.57 812.91,-61.35"/>
</g>
<!-- Node8 -->
<g id="node8" class="node">
<title>Node8</title>
<g id="a_node8"><a xlink:href="class_photon_1_1_realtime_1_1_load_balancing_peer.xhtml#a7f48b5f0c44ef0c67ef32f147ff87246" target="_top" xlink:title="Creates a Peer with specified connection protocol.">
<polygon fill="white" stroke="black" points="1000,-25.5 1000,-55.5 1155,-55.5 1155,-25.5 1000,-25.5"/>
<text text-anchor="start" x="1008" y="-43.5" font-family="Helvetica,sans-Serif" font-size="10.00">Photon.Realtime.LoadBalancing</text>
<text text-anchor="middle" x="1077.5" y="-32.5" font-family="Helvetica,sans-Serif" font-size="10.00">Peer.LoadBalancingPeer</text>
</a>
</g>
</g>
<!-- Node7&#45;&gt;Node8 -->
<g id="edge7" class="edge">
<title>Node7&#45;&gt;Node8</title>
<path fill="none" stroke="midnightblue" d="M959.75,-40.5C969.54,-40.5 979.62,-40.5 989.55,-40.5"/>
<polygon fill="midnightblue" stroke="midnightblue" points="989.84,-44 999.84,-40.5 989.84,-37 989.84,-44"/>
</g>
<!-- Node9 -->
<g id="node9" class="node">
<title>Node9</title>
<g id="a_node9"><a xlink:href="class_photon_1_1_realtime_1_1_load_balancing_peer.xhtml#affaff7e1fdffe86b25156ffac5e738c9" target="_top" xlink:title=" ">
<polygon fill="white" stroke="black" points="1191,-25.5 1191,-55.5 1346,-55.5 1346,-25.5 1191,-25.5"/>
<text text-anchor="start" x="1199" y="-43.5" font-family="Helvetica,sans-Serif" font-size="10.00">Photon.Realtime.LoadBalancing</text>
<text text-anchor="middle" x="1268.5" y="-32.5" font-family="Helvetica,sans-Serif" font-size="10.00">Peer.ConfigUnitySockets</text>
</a>
</g>
</g>
<!-- Node8&#45;&gt;Node9 -->
<g id="edge8" class="edge">
<title>Node8&#45;&gt;Node9</title>
<path fill="none" stroke="midnightblue" d="M1155.1,-40.5C1163.56,-40.5 1172.22,-40.5 1180.79,-40.5"/>
<polygon fill="midnightblue" stroke="midnightblue" points="1180.79,-44 1190.79,-40.5 1180.79,-37 1180.79,-44"/>
</g>
</g>
</svg>
        <g id="navigator" transform="translate(0 0)" fill="#404254">
                <rect fill="#f2f5e9" fill-opacity="0.5" stroke="#606060" stroke-width=".5" x="0" y="0" width="60" height="60"/>
                <use id="zoomplus" xlink:href="#zoomPlus" x="17" y="9" onmousedown="handleZoom(evt,'in')"/>
                <use id="zoomminus" xlink:href="#zoomMin" x="42" y="9" onmousedown="handleZoom(evt,'out')"/>
                <use id="reset" xlink:href="#resetDef" x="30" y="36" onmousedown="handleReset()"/>
                <g id="arrowUp" xlink:href="#dirArrow" transform="translate(30 24)" onmousedown="handlePan(0,-1)">
                  <use xlink:href="#rim" fill="#404040">
                        <set attributeName="fill" to="#808080" begin="arrowUp.mouseover" end="arrowUp.mouseout"/>
                  </use>
                  <path fill="none" stroke="white" stroke-width="1.5" d="M0,-3.0v7 M-2.5,-0.5L0,-3.0L2.5,-0.5"/>
                </g>
                <g id="arrowRight" xlink:href="#dirArrow" transform="rotate(90) translate(36 -43)" onmousedown="handlePan(1,0)">
                  <use xlink:href="#rim" fill="#404040">
                        <set attributeName="fill" to="#808080" begin="arrowRight.mouseover" end="arrowRight.mouseout"/>
                  </use>
                  <path fill="none" stroke="white" stroke-width="1.5" d="M0,-3.0v7 M-2.5,-0.5L0,-3.0L2.5,-0.5"/>
                </g>
                <g id="arrowDown" xlink:href="#dirArrow" transform="rotate(180) translate(-30 -48)" onmousedown="handlePan(0,1)">
                  <use xlink:href="#rim" fill="#404040">
                        <set attributeName="fill" to="#808080" begin="arrowDown.mouseover" end="arrowDown.mouseout"/>
                  </use>
                  <path fill="none" stroke="white" stroke-width="1.5" d="M0,-3.0v7 M-2.5,-0.5L0,-3.0L2.5,-0.5"/>
                </g>
                <g id="arrowLeft" xlink:href="#dirArrow" transform="rotate(270) translate(-36 17)" onmousedown="handlePan(-1,0)">
                  <use xlink:href="#rim" fill="#404040">
                        <set attributeName="fill" to="#808080" begin="arrowLeft.mouseover" end="arrowLeft.mouseout"/>
                  </use>
                  <path fill="none" stroke="white" stroke-width="1.5" d="M0,-3.0v7 M-2.5,-0.5L0,-3.0L2.5,-0.5"/>
                </g>
        </g>
        <svg viewBox="0 0 15 15" width="100%" height="30px" preserveAspectRatio="xMaxYMin meet">
         <g id="arrow_out" transform="scale(0.3 0.3)">
          <a xlink:href="class_photon_1_1_pun_1_1_demo_1_1_asteroids_1_1_lobby_main_panel_afb8a816635252a1a8a2def147909b48c_cgraph_org.svg" target="_base">
           <rect id="button" ry="5" rx="5" y="6" x="6" height="38" width="38"
                fill="#f2f5e9" fill-opacity="0.5" stroke="#606060" stroke-width="1.0"/>
           <path id="arrow"
             d="M 11.500037,31.436501 C 11.940474,20.09759 22.043105,11.32322 32.158766,21.979434 L 37.068811,17.246167 C 37.068811,17.246167 37.088388,32 37.088388,32 L 22.160133,31.978069 C 22.160133,31.978069 26.997745,27.140456 26.997745,27.140456 C 18.528582,18.264221 13.291696,25.230495 11.500037,31.436501 z"
             style="fill:#404040;"/>
          </a>
         </g>
        </svg>
</svg>
