<?xml version="1.0" encoding="UTF-8" standalone="no"?>
<!DOCTYPE svg PUBLIC "-//W3C//DTD SVG 1.1//EN"
 "http://www.w3.org/Graphics/SVG/1.1/DTD/svg11.dtd">
<!-- Generated by graphviz version 2.47.3 (20210619.1520)
 -->
<!-- Title: ModelPlayerMediator.DamageBasicAttack Pages: 1 -->
<svg width="487pt" height="39pt"
 viewBox="0.00 0.00 487.00 39.00" xmlns="http://www.w3.org/2000/svg" xmlns:xlink="http://www.w3.org/1999/xlink">
<g id="graph0" class="graph" transform="scale(1 1) rotate(0) translate(4 35)">
<title>ModelPlayerMediator.DamageBasicAttack</title>
<polygon fill="white" stroke="transparent" points="-4,4 -4,-35 483,-35 483,4 -4,4"/>
<!-- Node1 -->
<g id="node1" class="node">
<title>Node1</title>
<g id="a_node1"><a xlink:title=" ">
<polygon fill="#bfbfbf" stroke="black" points="0,-0.5 0,-30.5 147,-30.5 147,-0.5 0,-0.5"/>
<text text-anchor="start" x="8" y="-18.5" font-family="Helvetica,sans-Serif" font-size="10.00">ModelPlayerMediator.Damage</text>
<text text-anchor="middle" x="73.5" y="-7.5" font-family="Helvetica,sans-Serif" font-size="10.00">BasicAttack</text>
</a>
</g>
</g>
<!-- Node2 -->
<g id="node2" class="node">
<title>Node2</title>
<g id="a_node2"><a xlink:href="class_basic_attack.xhtml#ab41a7fd3006e5a8a3d2d8399d41e630f" target="_top" xlink:title=" ">
<polygon fill="white" stroke="black" points="183,-6 183,-25 345,-25 345,-6 183,-6"/>
<text text-anchor="middle" x="264" y="-13" font-family="Helvetica,sans-Serif" font-size="10.00">BasicAttack.DamageBasicAttack</text>
</a>
</g>
</g>
<!-- Node1&#45;&gt;Node2 -->
<g id="edge1" class="edge">
<title>Node1&#45;&gt;Node2</title>
<path fill="none" stroke="midnightblue" d="M147.11,-15.5C155.53,-15.5 164.2,-15.5 172.82,-15.5"/>
<polygon fill="midnightblue" stroke="midnightblue" points="172.9,-19 182.9,-15.5 172.9,-12 172.9,-19"/>
</g>
<!-- Node3 -->
<g id="node3" class="node">
<title>Node3</title>
<g id="a_node3"><a xlink:href="class_stats.xhtml#aa9240dd20efde8e97dc0a1917e432db7" target="_top" xlink:title=" ">
<polygon fill="white" stroke="black" points="381,-6 381,-25 479,-25 479,-6 381,-6"/>
<text text-anchor="middle" x="430" y="-13" font-family="Helvetica,sans-Serif" font-size="10.00">Stats.DealDamage</text>
</a>
</g>
</g>
<!-- Node2&#45;&gt;Node3 -->
<g id="edge2" class="edge">
<title>Node2&#45;&gt;Node3</title>
<path fill="none" stroke="midnightblue" d="M345.08,-15.5C353.65,-15.5 362.26,-15.5 370.51,-15.5"/>
<polygon fill="midnightblue" stroke="midnightblue" points="370.76,-19 380.76,-15.5 370.76,-12 370.76,-19"/>
</g>
</g>
</svg>
