<?xml version="1.0" encoding="UTF-8" standalone="no"?>
<!DOCTYPE svg PUBLIC "-//W3C//DTD SVG 1.1//EN"
 "http://www.w3.org/Graphics/SVG/1.1/DTD/svg11.dtd">
<!-- Generated by graphviz version 2.47.3 (20210619.1520)
 -->
<!-- Title: Photon.Pun.Demo.Cockpit.CurrentRoomAutoCleanupProperty.Update Pages: 1 -->
<svg width="551pt" height="50pt"
 viewBox="0.00 0.00 551.00 50.00" xmlns="http://www.w3.org/2000/svg" xmlns:xlink="http://www.w3.org/1999/xlink">
<g id="graph0" class="graph" transform="scale(1 1) rotate(0) translate(4 46)">
<title>Photon.Pun.Demo.Cockpit.CurrentRoomAutoCleanupProperty.Update</title>
<polygon fill="white" stroke="transparent" points="-4,4 -4,-46 547,-46 547,4 -4,4"/>
<!-- Node1 -->
<g id="node1" class="node">
<title>Node1</title>
<g id="a_node1"><a xlink:title=" ">
<polygon fill="#bfbfbf" stroke="black" points="0,-0.5 0,-41.5 169,-41.5 169,-0.5 0,-0.5"/>
<text text-anchor="start" x="8" y="-29.5" font-family="Helvetica,sans-Serif" font-size="10.00">Photon.Pun.Demo.Cockpit.</text>
<text text-anchor="start" x="8" y="-18.5" font-family="Helvetica,sans-Serif" font-size="10.00">CurrentRoomAutoCleanupProperty.</text>
<text text-anchor="middle" x="84.5" y="-7.5" font-family="Helvetica,sans-Serif" font-size="10.00">Update</text>
</a>
</g>
</g>
<!-- Node2 -->
<g id="node2" class="node">
<title>Node2</title>
<g id="a_node2"><a xlink:href="class_photon_1_1_pun_1_1_demo_1_1_cockpit_1_1_property_listener_base.xhtml#a77b753e8476c33ddd6d8261e9a374943" target="_top" xlink:title=" ">
<polygon fill="white" stroke="black" points="205,-0.5 205,-41.5 356,-41.5 356,-0.5 205,-0.5"/>
<text text-anchor="start" x="213" y="-29.5" font-family="Helvetica,sans-Serif" font-size="10.00">Photon.Pun.Demo.Cockpit.</text>
<text text-anchor="start" x="213" y="-18.5" font-family="Helvetica,sans-Serif" font-size="10.00">PropertyListenerBase.OnValue</text>
<text text-anchor="middle" x="280.5" y="-7.5" font-family="Helvetica,sans-Serif" font-size="10.00">Changed</text>
</a>
</g>
</g>
<!-- Node1&#45;&gt;Node2 -->
<g id="edge1" class="edge">
<title>Node1&#45;&gt;Node2</title>
<path fill="none" stroke="midnightblue" d="M169.18,-21C177.64,-21 186.23,-21 194.7,-21"/>
<polygon fill="midnightblue" stroke="midnightblue" points="194.95,-24.5 204.95,-21 194.95,-17.5 194.95,-24.5"/>
</g>
<!-- Node3 -->
<g id="node3" class="node">
<title>Node3</title>
<g id="a_node3"><a xlink:href="class_photon_1_1_pun_1_1_demo_1_1_cockpit_1_1_property_listener_base.xhtml#aadf02605f64218d6283f2d602eb4c879" target="_top" xlink:title=" ">
<polygon fill="white" stroke="black" points="392,-6 392,-36 543,-36 543,-6 392,-6"/>
<text text-anchor="start" x="400" y="-24" font-family="Helvetica,sans-Serif" font-size="10.00">Photon.Pun.Demo.Cockpit.</text>
<text text-anchor="middle" x="467.5" y="-13" font-family="Helvetica,sans-Serif" font-size="10.00">PropertyListenerBase.FadeOut</text>
</a>
</g>
</g>
<!-- Node2&#45;&gt;Node3 -->
<g id="edge2" class="edge">
<title>Node2&#45;&gt;Node3</title>
<path fill="none" stroke="midnightblue" d="M356.21,-21C364.55,-21 373.1,-21 381.55,-21"/>
<polygon fill="midnightblue" stroke="midnightblue" points="381.81,-24.5 391.81,-21 381.81,-17.5 381.81,-24.5"/>
</g>
</g>
</svg>
