<?xml version="1.0" encoding="UTF-8" standalone="no"?>
<!DOCTYPE svg PUBLIC "-//W3C//DTD SVG 1.1//EN"
 "http://www.w3.org/Graphics/SVG/1.1/DTD/svg11.dtd">
<!-- Generated by graphviz version 2.50.0 (20211204.2007)
 -->
<!-- Title: PlayerHUDController.UpdateItems Pages: 1 -->
<svg width="656pt" height="66pt"
 viewBox="0.00 0.00 656.00 66.00" xmlns="http://www.w3.org/2000/svg" xmlns:xlink="http://www.w3.org/1999/xlink">
<g id="graph0" class="graph" transform="scale(1 1) rotate(0) translate(4 62)">
<title>PlayerHUDController.UpdateItems</title>
<polygon fill="white" stroke="transparent" points="-4,4 -4,-62 652,-62 652,4 -4,4"/>
<!-- Node1 -->
<g id="node1" class="node">
<title>Node1</title>
<g id="a_node1"><a xlink:title=" ">
<polygon fill="#bfbfbf" stroke="black" points="0,-14 0,-44 140,-44 140,-14 0,-14"/>
<text text-anchor="start" x="8" y="-32" font-family="Helvetica,sans-Serif" font-size="10.00">PlayerHUDController.Update</text>
<text text-anchor="middle" x="70" y="-21" font-family="Helvetica,sans-Serif" font-size="10.00">Items</text>
</a>
</g>
</g>
<!-- Node2 -->
<g id="node2" class="node">
<title>Node2</title>
<g id="a_node2"><a xlink:href="class_sellable_item_u_i.html#a6af430a8024bce99b71d8e5867e1c496" target="_top" xlink:title=" ">
<polygon fill="white" stroke="black" points="176,-19.5 176,-38.5 292,-38.5 292,-19.5 176,-19.5"/>
<text text-anchor="middle" x="234" y="-26.5" font-family="Helvetica,sans-Serif" font-size="10.00">SellableItemUI.SetItem</text>
</a>
</g>
</g>
<!-- Node1&#45;&gt;Node2 -->
<g id="edge1" class="edge">
<title>Node1&#45;&gt;Node2</title>
<path fill="none" stroke="midnightblue" d="M140.17,-29C148.61,-29 157.22,-29 165.63,-29"/>
<polygon fill="midnightblue" stroke="midnightblue" points="165.77,-32.5 175.77,-29 165.77,-25.5 165.77,-32.5"/>
</g>
<!-- Node3 -->
<g id="node3" class="node">
<title>Node3</title>
<g id="a_node3"><a xlink:href="class_sellable_item_u_i.html#a4470cb453b79fb32e9d18d61389cb21d" target="_top" xlink:title=" ">
<polygon fill="white" stroke="black" points="328,-38.5 328,-57.5 477,-57.5 477,-38.5 328,-38.5"/>
<text text-anchor="middle" x="402.5" y="-45.5" font-family="Helvetica,sans-Serif" font-size="10.00">SellableItemUI.GetIDescription</text>
</a>
</g>
</g>
<!-- Node2&#45;&gt;Node3 -->
<g id="edge2" class="edge">
<title>Node2&#45;&gt;Node3</title>
<path fill="none" stroke="midnightblue" d="M292.3,-35.54C300.55,-36.48 309.17,-37.46 317.81,-38.45"/>
<polygon fill="midnightblue" stroke="midnightblue" points="317.59,-41.95 327.92,-39.6 318.38,-34.99 317.59,-41.95"/>
</g>
<!-- Node5 -->
<g id="node5" class="node">
<title>Node5</title>
<g id="a_node5"><a xlink:href="class_tooltip_hoverable.html#aa032f3d5511f81d1991c779fba71d295" target="_top" xlink:title=" ">
<polygon fill="white" stroke="black" points="335.5,-0.5 335.5,-19.5 469.5,-19.5 469.5,-0.5 335.5,-0.5"/>
<text text-anchor="middle" x="402.5" y="-7.5" font-family="Helvetica,sans-Serif" font-size="10.00">TooltipHoverable.SetTooltip</text>
</a>
</g>
</g>
<!-- Node2&#45;&gt;Node5 -->
<g id="edge4" class="edge">
<title>Node2&#45;&gt;Node5</title>
<path fill="none" stroke="midnightblue" d="M292.3,-22.46C302.89,-21.25 314.1,-19.97 325.14,-18.71"/>
<polygon fill="midnightblue" stroke="midnightblue" points="325.68,-22.17 335.22,-17.56 324.89,-15.22 325.68,-22.17"/>
</g>
<!-- Node4 -->
<g id="node4" class="node">
<title>Node4</title>
<g id="a_node4"><a xlink:href="class_item_statistic_effect.html#a37cc28041fcf0c1f5bd7eded463b2509" target="_top" xlink:title=" ">
<polygon fill="white" stroke="black" points="513,-38.5 513,-57.5 648,-57.5 648,-38.5 513,-38.5"/>
<text text-anchor="middle" x="580.5" y="-45.5" font-family="Helvetica,sans-Serif" font-size="10.00">ItemStatisticEffect.ToString</text>
</a>
</g>
</g>
<!-- Node3&#45;&gt;Node4 -->
<g id="edge3" class="edge">
<title>Node3&#45;&gt;Node4</title>
<path fill="none" stroke="midnightblue" d="M477.12,-48C485.56,-48 494.18,-48 502.66,-48"/>
<polygon fill="midnightblue" stroke="midnightblue" points="502.91,-51.5 512.91,-48 502.91,-44.5 502.91,-51.5"/>
</g>
</g>
</svg>
