<?xml version="1.0" encoding="UTF-8" standalone="no"?>
<!DOCTYPE svg PUBLIC "-//W3C//DTD SVG 1.1//EN"
 "http://www.w3.org/Graphics/SVG/1.1/DTD/svg11.dtd">
<!-- Generated by graphviz version 2.47.3 (20210619.1520)
 -->
<!-- Title: Tayx.Graphy.Audio.G_AudioManager.SetPosition Pages: 1 -->
<svg width="524pt" height="83pt"
 viewBox="0.00 0.00 524.00 83.00" xmlns="http://www.w3.org/2000/svg" xmlns:xlink="http://www.w3.org/1999/xlink">
<g id="graph0" class="graph" transform="scale(1 1) rotate(0) translate(4 79)">
<title>Tayx.Graphy.Audio.G_AudioManager.SetPosition</title>
<polygon fill="white" stroke="transparent" points="-4,4 -4,-79 520,-79 520,4 -4,4"/>
<!-- Node1 -->
<g id="node1" class="node">
<title>Node1</title>
<g id="a_node1"><a xlink:title="Sets the position of the module.">
<polygon fill="#bfbfbf" stroke="black" points="379,-22.5 379,-52.5 516,-52.5 516,-22.5 379,-22.5"/>
<text text-anchor="start" x="387" y="-40.5" font-family="Helvetica,sans-Serif" font-size="10.00">Tayx.Graphy.Audio.G</text>
<text text-anchor="middle" x="447.5" y="-29.5" font-family="Helvetica,sans-Serif" font-size="10.00">_AudioManager.SetPosition</text>
</a>
</g>
</g>
<!-- Node2 -->
<g id="node2" class="node">
<title>Node2</title>
<g id="a_node2"><a xlink:href="class_tayx_1_1_graphy_1_1_graphy_manager.xhtml#a0b4d55c65e436a19150af93e701f82b0" target="_top" xlink:title=" ">
<polygon fill="white" stroke="black" points="183,-50 183,-69 343,-69 343,-50 183,-50"/>
<text text-anchor="middle" x="263" y="-57" font-family="Helvetica,sans-Serif" font-size="10.00">Tayx.Graphy.GraphyManager.Init</text>
</a>
</g>
</g>
<!-- Node1&#45;&gt;Node2 -->
<g id="edge1" class="edge">
<title>Node1&#45;&gt;Node2</title>
<path fill="none" stroke="midnightblue" d="M368.85,-46.86C360.29,-47.89 351.56,-48.94 342.99,-49.98"/>
<polygon fill="midnightblue" stroke="midnightblue" points="369.29,-50.33 378.8,-45.66 368.46,-43.38 369.29,-50.33"/>
</g>
<!-- Node4 -->
<g id="node4" class="node">
<title>Node4</title>
<g id="a_node4"><a xlink:href="class_tayx_1_1_graphy_1_1_graphy_manager.xhtml#a08d5703826ad6b410409331c4d85bf09" target="_top" xlink:title=" ">
<polygon fill="white" stroke="black" points="189.5,-0.5 189.5,-30.5 336.5,-30.5 336.5,-0.5 189.5,-0.5"/>
<text text-anchor="start" x="197.5" y="-18.5" font-family="Helvetica,sans-Serif" font-size="10.00">Tayx.Graphy.GraphyManager.</text>
<text text-anchor="middle" x="263" y="-7.5" font-family="Helvetica,sans-Serif" font-size="10.00">SetModulePosition</text>
</a>
</g>
</g>
<!-- Node1&#45;&gt;Node4 -->
<g id="edge3" class="edge">
<title>Node1&#45;&gt;Node4</title>
<path fill="none" stroke="midnightblue" d="M368.74,-28.13C358.14,-26.85 347.3,-25.54 336.79,-24.28"/>
<polygon fill="midnightblue" stroke="midnightblue" points="368.46,-31.62 378.8,-29.34 369.29,-24.67 368.46,-31.62"/>
</g>
<!-- Node3 -->
<g id="node3" class="node">
<title>Node3</title>
<g id="a_node3"><a xlink:href="class_tayx_1_1_graphy_1_1_graphy_manager.xhtml#a6a186120c515fe48b10b2cf95caac917" target="_top" xlink:title=" ">
<polygon fill="white" stroke="black" points="0,-44.5 0,-74.5 147,-74.5 147,-44.5 0,-44.5"/>
<text text-anchor="start" x="8" y="-62.5" font-family="Helvetica,sans-Serif" font-size="10.00">Tayx.Graphy.GraphyManager.</text>
<text text-anchor="middle" x="73.5" y="-51.5" font-family="Helvetica,sans-Serif" font-size="10.00">Start</text>
</a>
</g>
</g>
<!-- Node2&#45;&gt;Node3 -->
<g id="edge2" class="edge">
<title>Node2&#45;&gt;Node3</title>
<path fill="none" stroke="midnightblue" d="M172.75,-59.5C164.19,-59.5 155.58,-59.5 147.2,-59.5"/>
<polygon fill="midnightblue" stroke="midnightblue" points="172.75,-63 182.75,-59.5 172.75,-56 172.75,-63"/>
</g>
</g>
</svg>
