<?xml version="1.0" encoding="UTF-8" standalone="no"?>
<!DOCTYPE svg PUBLIC "-//W3C//DTD SVG 1.1//EN"
 "http://www.w3.org/Graphics/SVG/1.1/DTD/svg11.dtd">
<!-- Generated by graphviz version 2.47.3 (20210619.1520)
 -->
<!-- Title: GameController Pages: 1 -->
<!--zoomable 860 -->
<svg id="main" version="1.1" xmlns="http://www.w3.org/2000/svg" xmlns:xlink="http://www.w3.org/1999/xlink" xml:space="preserve" onload="init(evt)">
<style type="text/css"><![CDATA[
.edge:hover path { stroke: red; }
.edge:hover polygon { stroke: red; fill: red; }
]]></style>
<script type="text/javascript"><![CDATA[
var edges = document.getElementsByTagName('g');
if (edges && edges.length) {
  for (var i=0;i<edges.length;i++) {
    if (edges[i].id.substr(0,4)=='edge') {
      edges[i].setAttribute('class','edge');
    }
  }
}
]]></script>
        <defs>
                <circle id="rim" cx="0" cy="0" r="7"/>
                <circle id="rim2" cx="0" cy="0" r="3.5"/>
                <g id="zoomPlus">
                        <use xlink:href="#rim" fill="#404040">
                                <set attributeName="fill" to="#808080" begin="zoomplus.mouseover" end="zoomplus.mouseout"/>
                        </use>
                        <path d="M-4,0h8M0,-4v8" fill="none" stroke="white" stroke-width="1.5" pointer-events="none"/>
                </g>
                <g id="zoomMin">
                        <use xlink:href="#rim" fill="#404040">
                                <set attributeName="fill" to="#808080" begin="zoomminus.mouseover" end="zoomminus.mouseout"/>
                        </use>
                        <path d="M-4,0h8" fill="none" stroke="white" stroke-width="1.5" pointer-events="none"/>
                </g>
                <g id="dirArrow">
                        <path fill="none" stroke="white" stroke-width="1.5" d="M0,-3.0v7 M-2.5,-0.5L0,-3.0L2.5,-0.5"/>
                </g>
               <g id="resetDef">
                       <use xlink:href="#rim2" fill="#404040">
                               <set attributeName="fill" to="#808080" begin="reset.mouseover" end="reset.mouseout"/>
                       </use>
               </g>
        </defs>

<script type="text/javascript">
var viewWidth = 1304;
var viewHeight = 860;
var sectionId = 'dynsection-1';
</script>
<script xlink:href="svgpan.js"/>
<svg id="graph" class="graph">
<g id="viewport">
<title>GameController</title>
<!-- Node1 -->
<g id="node1" class="node">
<title>Node1</title>
<g id="a_node1"><a xlink:title="The UNIQUE Game Controller in the Scene.">
<polygon fill="#bfbfbf" stroke="black" points="1212,-606.5 1212,-625.5 1296,-625.5 1296,-606.5 1212,-606.5"/>
<text text-anchor="middle" x="1254" y="-613.5" font-family="Helvetica,sans-Serif" font-size="10.00">GameController</text>
</a>
</g>
</g>
<!-- Node2 -->
<g id="node2" class="node">
<title>Node2</title>
<g id="a_node2"><a xlink:href="class_singleton.html" target="_top" xlink:title=" ">
<polygon fill="none" stroke="black" points="967,-720.5 967,-739.5 1110,-739.5 1110,-720.5 967,-720.5"/>
<text text-anchor="middle" x="1038.5" y="-727.5" font-family="Helvetica,sans-Serif" font-size="10.00">Singleton&lt; GameController &gt;</text>
</a>
</g>
</g>
<!-- Node2&#45;&gt;Node1 -->
<g id="edge1" class="edge">
<title>Node2&#45;&gt;Node1</title>
<path fill="none" stroke="midnightblue" d="M1120.64,-729.32C1145.73,-725.97 1172.43,-718.92 1194,-705 1224.22,-685.5 1242.52,-644.45 1249.61,-625.7"/>
<polygon fill="midnightblue" stroke="midnightblue" points="1119.9,-725.88 1110.37,-730.51 1120.71,-732.84 1119.9,-725.88"/>
</g>
<!-- Node3 -->
<g id="node3" class="node">
<title>Node3</title>
<g id="a_node3"><a xlink:href="class_character_group.html" target="_top" xlink:title=" ">
<polygon fill="none" stroke="black" points="766,-676.5 766,-695.5 851,-695.5 851,-676.5 766,-676.5"/>
<text text-anchor="middle" x="808.5" y="-683.5" font-family="Helvetica,sans-Serif" font-size="10.00">CharacterGroup</text>
</a>
</g>
</g>
<!-- Node3&#45;&gt;Node1 -->
<g id="edge2" class="edge">
<title>Node3&#45;&gt;Node1</title>
<path fill="none" stroke="#9a32cd" stroke-dasharray="5,2" d="M861.32,-686.24C921.65,-685.6 1024.02,-681.63 1110,-664 1153.61,-655.06 1202.36,-636.83 1230.19,-625.58"/>
<polygon fill="#9a32cd" stroke="#9a32cd" points="861.25,-682.74 851.28,-686.32 861.31,-689.74 861.25,-682.74"/>
<text text-anchor="middle" x="1038.5" y="-684" font-family="Helvetica,sans-Serif" font-size="10.00"> characterGroup</text>
</g>
<!-- Node8 -->
<g id="node8" class="node">
<title>Node8</title>
<g id="a_node8"><a xlink:href="class_loading_canvas.html" target="_top" xlink:title=" ">
<polygon fill="none" stroke="black" points="997.5,-606.5 997.5,-625.5 1079.5,-625.5 1079.5,-606.5 997.5,-606.5"/>
<text text-anchor="middle" x="1038.5" y="-613.5" font-family="Helvetica,sans-Serif" font-size="10.00">LoadingCanvas</text>
</a>
</g>
</g>
<!-- Node3&#45;&gt;Node8 -->
<g id="edge12" class="edge">
<title>Node3&#45;&gt;Node8</title>
<path fill="none" stroke="#9a32cd" stroke-dasharray="5,2" d="M849.25,-673.41C857.11,-670.94 865.31,-668.38 873,-666 919.05,-651.75 972.47,-635.58 1005.63,-625.58"/>
<polygon fill="#9a32cd" stroke="#9a32cd" points="848.01,-670.13 839.52,-676.48 850.11,-676.81 848.01,-670.13"/>
<text text-anchor="middle" x="911" y="-669" font-family="Helvetica,sans-Serif" font-size="10.00"> characterGroup</text>
</g>
<!-- Node4 -->
<g id="node4" class="node">
<title>Node4</title>
<g id="a_node4"><a xlink:title=" ">
<polygon fill="none" stroke="#bfbfbf" points="10.5,-681.5 10.5,-700.5 99.5,-700.5 99.5,-681.5 10.5,-681.5"/>
<text text-anchor="middle" x="55" y="-688.5" font-family="Helvetica,sans-Serif" font-size="10.00">ScriptableObject</text>
</a>
</g>
</g>
<!-- Node4&#45;&gt;Node3 -->
<g id="edge3" class="edge">
<title>Node4&#45;&gt;Node3</title>
<path fill="none" stroke="midnightblue" d="M109.92,-700.19C116.02,-701.17 122.14,-702.12 128,-703 356.97,-737.26 423.07,-788.84 648,-734 694.5,-722.66 747.54,-705.92 779.23,-695.5"/>
<polygon fill="midnightblue" stroke="midnightblue" points="110.18,-696.68 99.75,-698.53 109.06,-703.59 110.18,-696.68"/>
</g>
<!-- Node5 -->
<g id="node5" class="node">
<title>Node5</title>
<g id="a_node5"><a xlink:href="class_character.html" target="_top" xlink:title=" ">
<polygon fill="none" stroke="black" points="577,-671.5 577,-690.5 636,-690.5 636,-671.5 577,-671.5"/>
<text text-anchor="middle" x="606.5" y="-678.5" font-family="Helvetica,sans-Serif" font-size="10.00">Character</text>
</a>
</g>
</g>
<!-- Node4&#45;&gt;Node5 -->
<g id="edge5" class="edge">
<title>Node4&#45;&gt;Node5</title>
<path fill="none" stroke="midnightblue" d="M109.87,-690.02C224.56,-687.93 489.53,-683.11 576.94,-681.52"/>
<polygon fill="midnightblue" stroke="midnightblue" points="109.51,-686.53 99.58,-690.21 109.64,-693.52 109.51,-686.53"/>
</g>
<!-- Node6 -->
<g id="node6" class="node">
<title>Node6</title>
<g id="a_node6"><a xlink:href="class_ability.html" target="_top" xlink:title="Base abstract class for an Ability.">
<polygon fill="none" stroke="black" points="414,-623.5 414,-642.5 458,-642.5 458,-623.5 414,-623.5"/>
<text text-anchor="middle" x="436" y="-630.5" font-family="Helvetica,sans-Serif" font-size="10.00">Ability</text>
</a>
</g>
</g>
<!-- Node4&#45;&gt;Node6 -->
<g id="edge7" class="edge">
<title>Node4&#45;&gt;Node6</title>
<path fill="none" stroke="midnightblue" d="M109.9,-680.22C116,-679.09 122.13,-677.99 128,-677 234.98,-658.94 363.75,-642.05 413.73,-635.68"/>
<polygon fill="midnightblue" stroke="midnightblue" points="108.9,-676.84 99.72,-682.14 110.2,-683.72 108.9,-676.84"/>
</g>
<!-- Node7 -->
<g id="node7" class="node">
<title>Node7</title>
<g id="a_node7"><a xlink:href="class_effect.html" target="_top" xlink:title="Abstract base info container class for an Effect.">
<polygon fill="none" stroke="black" points="217,-605.5 217,-624.5 258,-624.5 258,-605.5 217,-605.5"/>
<text text-anchor="middle" x="237.5" y="-612.5" font-family="Helvetica,sans-Serif" font-size="10.00">Effect</text>
</a>
</g>
</g>
<!-- Node4&#45;&gt;Node7 -->
<g id="edge9" class="edge">
<title>Node4&#45;&gt;Node7</title>
<path fill="none" stroke="midnightblue" d="M74.1,-674.69C87.93,-663.07 107.96,-647.99 128,-639 157.4,-625.82 194.61,-619.62 216.94,-616.9"/>
<polygon fill="midnightblue" stroke="midnightblue" points="71.63,-672.2 66.35,-681.38 76.21,-677.49 71.63,-672.2"/>
</g>
<!-- Node22 -->
<g id="node22" class="node">
<title>Node22</title>
<g id="a_node22"><a xlink:href="class_item.html" target="_top" xlink:title="Base class for an Item">
<polygon fill="none" stroke="black" points="220,-767.5 220,-786.5 255,-786.5 255,-767.5 220,-767.5"/>
<text text-anchor="middle" x="237.5" y="-774.5" font-family="Helvetica,sans-Serif" font-size="10.00">Item</text>
</a>
</g>
</g>
<!-- Node4&#45;&gt;Node22 -->
<g id="edge47" class="edge">
<title>Node4&#45;&gt;Node22</title>
<path fill="none" stroke="midnightblue" d="M76.2,-706.92C90.15,-717.37 109.47,-730.75 128,-740 158.98,-755.47 197.97,-767 219.77,-772.8"/>
<polygon fill="midnightblue" stroke="midnightblue" points="77.94,-703.85 67.86,-700.56 73.69,-709.41 77.94,-703.85"/>
</g>
<!-- Node5&#45;&gt;Node3 -->
<g id="edge4" class="edge">
<title>Node5&#45;&gt;Node3</title>
<path fill="none" stroke="#9a32cd" stroke-dasharray="5,2" d="M646.26,-681.97C680.56,-682.83 730.47,-684.07 765.66,-684.95"/>
<polygon fill="#9a32cd" stroke="#9a32cd" points="646.24,-678.47 636.16,-681.72 646.06,-685.47 646.24,-678.47"/>
<text text-anchor="middle" x="705" y="-687" font-family="Helvetica,sans-Serif" font-size="10.00"> characters</text>
</g>
<!-- Node16 -->
<g id="node16" class="node">
<title>Node16</title>
<g id="a_node16"><a xlink:href="class_player_controller.html" target="_top" xlink:title="Player Controller is the main class that handles all the movement of the Player.">
<polygon fill="none" stroke="black" points="765.5,-163.5 765.5,-182.5 851.5,-182.5 851.5,-163.5 765.5,-163.5"/>
<text text-anchor="middle" x="808.5" y="-170.5" font-family="Helvetica,sans-Serif" font-size="10.00">PlayerController</text>
</a>
</g>
</g>
<!-- Node5&#45;&gt;Node16 -->
<g id="edge36" class="edge">
<title>Node5&#45;&gt;Node16</title>
<path fill="none" stroke="#9a32cd" stroke-dasharray="5,2" d="M620.75,-663.35C629.94,-650.17 641.62,-631.35 648,-613 668.01,-555.41 633.06,-528.31 666,-477 688.12,-442.55 722.82,-463.03 744,-428 770.64,-383.94 733.71,-240.02 762,-197 766.02,-190.88 772.14,-186.22 778.59,-182.71"/>
<polygon fill="#9a32cd" stroke="#9a32cd" points="617.89,-661.33 614.89,-671.49 623.57,-665.42 617.89,-661.33"/>
<text text-anchor="middle" x="705" y="-480" font-family="Helvetica,sans-Serif" font-size="10.00"> character</text>
</g>
<!-- Node6&#45;&gt;Node5 -->
<g id="edge6" class="edge">
<title>Node6&#45;&gt;Node5</title>
<path fill="none" stroke="#9a32cd" stroke-dasharray="5,2" d="M468.21,-641.89C499.27,-650.74 546.55,-664.21 576.73,-672.81"/>
<polygon fill="#9a32cd" stroke="#9a32cd" points="468.92,-638.45 458.34,-639.08 467,-645.19 468.92,-638.45"/>
<text text-anchor="middle" x="526" y="-667" font-family="Helvetica,sans-Serif" font-size="10.00"> abilities</text>
</g>
<!-- Node17 -->
<g id="node17" class="node">
<title>Node17</title>
<g id="a_node17"><a xlink:href="class_ability_cooldown.html" target="_top" xlink:title=" ">
<polygon fill="none" stroke="black" points="995.5,-255.5 995.5,-274.5 1081.5,-274.5 1081.5,-255.5 995.5,-255.5"/>
<text text-anchor="middle" x="1038.5" y="-262.5" font-family="Helvetica,sans-Serif" font-size="10.00">AbilityCooldown</text>
</a>
</g>
</g>
<!-- Node6&#45;&gt;Node17 -->
<g id="edge28" class="edge">
<title>Node6&#45;&gt;Node17</title>
<path fill="none" stroke="#9a32cd" stroke-dasharray="5,2" d="M468.41,-635.1C510.68,-636.8 587.55,-635.92 648,-613 840.48,-540.03 997.86,-322.85 1031.05,-274.58"/>
<polygon fill="#9a32cd" stroke="#9a32cd" points="468.35,-631.59 458.19,-634.61 468.01,-638.58 468.35,-631.59"/>
<text text-anchor="middle" x="705" y="-607" font-family="Helvetica,sans-Serif" font-size="10.00"> ability</text>
</g>
<!-- Node19 -->
<g id="node19" class="node">
<title>Node19</title>
<g id="a_node19"><a xlink:href="class_indicated_ability.html" target="_top" xlink:title="Encapsulador de les Ability que han de mostrar l&#39;indicador">
<polygon fill="none" stroke="black" points="565,-584.5 565,-603.5 648,-603.5 648,-584.5 565,-584.5"/>
<text text-anchor="middle" x="606.5" y="-591.5" font-family="Helvetica,sans-Serif" font-size="10.00">IndicatedAbility</text>
</a>
</g>
</g>
<!-- Node6&#45;&gt;Node19 -->
<g id="edge33" class="edge">
<title>Node6&#45;&gt;Node19</title>
<path fill="none" stroke="midnightblue" d="M468.1,-625.8C495.3,-619.51 534.97,-610.32 564.7,-603.44"/>
<polygon fill="midnightblue" stroke="midnightblue" points="467.29,-622.4 458.34,-628.06 468.87,-629.22 467.29,-622.4"/>
</g>
<!-- Node7&#45;&gt;Node6 -->
<g id="edge8" class="edge">
<title>Node7&#45;&gt;Node6</title>
<path fill="none" stroke="#9a32cd" stroke-dasharray="5,2" d="M268.27,-617.73C308.33,-621.4 378.61,-627.83 413.74,-631.05"/>
<polygon fill="#9a32cd" stroke="#9a32cd" points="268.34,-614.22 258.06,-616.79 267.7,-621.19 268.34,-614.22"/>
<text text-anchor="middle" x="328" y="-629" font-family="Helvetica,sans-Serif" font-size="10.00"> aToAuthorEffects</text>
</g>
<!-- Node7&#45;&gt;Node19 -->
<g id="edge34" class="edge">
<title>Node7&#45;&gt;Node19</title>
<path fill="none" stroke="#9a32cd" stroke-dasharray="5,2" d="M268.48,-612.18C298.07,-609.49 344.62,-605.48 385,-603 447.72,-599.15 520.57,-596.54 564.83,-595.16"/>
<polygon fill="#9a32cd" stroke="#9a32cd" points="268.02,-608.71 258.39,-613.11 268.66,-615.68 268.02,-608.71"/>
<text text-anchor="middle" x="436" y="-606" font-family="Helvetica,sans-Serif" font-size="10.00"> aToEnemyEffects</text>
</g>
<!-- Node8&#45;&gt;Node1 -->
<g id="edge10" class="edge">
<title>Node8&#45;&gt;Node1</title>
<path fill="none" stroke="#9a32cd" stroke-dasharray="5,2" d="M1089.79,-616C1127.02,-616 1177.1,-616 1211.93,-616"/>
<polygon fill="#9a32cd" stroke="#9a32cd" points="1089.66,-612.5 1079.66,-616 1089.66,-619.5 1089.66,-612.5"/>
<text text-anchor="middle" x="1161" y="-619" font-family="Helvetica,sans-Serif" font-size="10.00"> loadingCanvas</text>
</g>
<!-- Node8&#45;&gt;Node8 -->
<g id="edge13" class="edge">
<title>Node8&#45;&gt;Node8</title>
<path fill="none" stroke="#9a32cd" stroke-dasharray="5,2" d="M1015.81,-635.03C1017.04,-640.13 1024.61,-644 1038.5,-644 1060.18,-644 1066.45,-634.57 1057.3,-625.76"/>
<polygon fill="#9a32cd" stroke="#9a32cd" points="1019.06,-636.33 1019.7,-625.76 1012.6,-633.62 1019.06,-636.33"/>
<text text-anchor="middle" x="1038.5" y="-647" font-family="Helvetica,sans-Serif" font-size="10.00"> instance</text>
</g>
<!-- Node9 -->
<g id="node9" class="node">
<title>Node9</title>
<g id="a_node9"><a xlink:title=" ">
<polygon fill="none" stroke="#bfbfbf" points="13.5,-160.5 13.5,-179.5 96.5,-179.5 96.5,-160.5 13.5,-160.5"/>
<text text-anchor="middle" x="55" y="-167.5" font-family="Helvetica,sans-Serif" font-size="10.00">MonoBehaviour</text>
</a>
</g>
</g>
<!-- Node9&#45;&gt;Node8 -->
<g id="edge11" class="edge">
<title>Node9&#45;&gt;Node8</title>
<path fill="none" stroke="midnightblue" d="M58.12,-189.76C64.92,-249.3 88.06,-425.23 128,-464 297.58,-628.59 420,-512.87 648,-575 656.14,-577.22 657.75,-579.26 666,-581 784.85,-606.06 928.89,-613.19 997.47,-615.21"/>
<polygon fill="midnightblue" stroke="midnightblue" points="61.59,-189.32 57.01,-179.77 54.64,-190.09 61.59,-189.32"/>
</g>
<!-- Node10 -->
<g id="node10" class="node">
<title>Node10</title>
<g id="a_node10"><a xlink:href="class_game_u_i_controller.html" target="_top" xlink:title=" ">
<polygon fill="none" stroke="black" points="762,-433.5 762,-452.5 855,-452.5 855,-433.5 762,-433.5"/>
<text text-anchor="middle" x="808.5" y="-440.5" font-family="Helvetica,sans-Serif" font-size="10.00">GameUIController</text>
</a>
</g>
</g>
<!-- Node9&#45;&gt;Node10 -->
<g id="edge15" class="edge">
<title>Node9&#45;&gt;Node10</title>
<path fill="none" stroke="midnightblue" d="M55.14,-189.67C54.14,-238.31 58.71,-365.13 128,-432 196.94,-498.53 -57.84,-452.82 666,-463 700.66,-463.49 709.74,-468.27 744,-463 757.25,-460.96 771.53,-456.66 783.19,-452.57"/>
<polygon fill="midnightblue" stroke="midnightblue" points="58.64,-189.65 55.45,-179.55 51.64,-189.44 58.64,-189.65"/>
</g>
<!-- Node13 -->
<g id="node13" class="node">
<title>Node13</title>
<g id="a_node13"><a xlink:href="class_stats.html" target="_top" xlink:title="Base class Stats of the entity.">
<polygon fill="none" stroke="black" points="217.5,-160.5 217.5,-179.5 257.5,-179.5 257.5,-160.5 217.5,-160.5"/>
<text text-anchor="middle" x="237.5" y="-167.5" font-family="Helvetica,sans-Serif" font-size="10.00">Stats</text>
</a>
</g>
</g>
<!-- Node9&#45;&gt;Node13 -->
<g id="edge19" class="edge">
<title>Node9&#45;&gt;Node13</title>
<path fill="none" stroke="midnightblue" d="M106.55,-170C143.29,-170 191,-170 217.18,-170"/>
<polygon fill="midnightblue" stroke="midnightblue" points="106.51,-166.5 96.51,-170 106.51,-173.5 106.51,-166.5"/>
</g>
<!-- Node15 -->
<g id="node15" class="node">
<title>Node15</title>
<g id="a_node15"><a xlink:href="class_u_i_controller.html" target="_top" xlink:title=" ">
<polygon fill="none" stroke="black" points="204,-421.5 204,-440.5 271,-440.5 271,-421.5 204,-421.5"/>
<text text-anchor="middle" x="237.5" y="-428.5" font-family="Helvetica,sans-Serif" font-size="10.00">UIController</text>
</a>
</g>
</g>
<!-- Node9&#45;&gt;Node15 -->
<g id="edge22" class="edge">
<title>Node9&#45;&gt;Node15</title>
<path fill="none" stroke="midnightblue" d="M55.76,-190.01C56.36,-235.7 64.58,-348.3 128,-407 148.32,-425.81 179.95,-431.07 203.83,-432.06"/>
<polygon fill="midnightblue" stroke="midnightblue" points="59.26,-189.9 55.74,-179.91 52.26,-189.91 59.26,-189.9"/>
</g>
<!-- Node9&#45;&gt;Node16 -->
<g id="edge24" class="edge">
<title>Node9&#45;&gt;Node16</title>
<path fill="none" stroke="midnightblue" d="M62.33,-150.76C71.94,-125.12 92.88,-80.79 128,-62 150.73,-49.84 160.35,-59.49 186,-62 356.89,-78.75 395.68,-108.45 565,-137 644.21,-150.36 664.64,-149.59 744,-162 750.85,-163.07 758.11,-164.27 765.18,-165.47"/>
<polygon fill="midnightblue" stroke="midnightblue" points="58.93,-149.88 58.9,-160.48 65.53,-152.21 58.93,-149.88"/>
</g>
<!-- Node9&#45;&gt;Node17 -->
<g id="edge26" class="edge">
<title>Node9&#45;&gt;Node17</title>
<path fill="none" stroke="midnightblue" d="M106.88,-162.59C135.38,-158.66 171.61,-154.03 204,-151 241.68,-147.48 251.2,-147.73 289,-146 540.32,-134.51 606.09,-117.45 855,-154 897.26,-160.21 911.61,-153.35 949,-174 986.43,-194.67 1017.95,-236.27 1031.03,-255.21"/>
<polygon fill="midnightblue" stroke="midnightblue" points="106.17,-159.15 96.75,-164 107.14,-166.09 106.17,-159.15"/>
</g>
<!-- Node18 -->
<g id="node18" class="node">
<title>Node18</title>
<g id="a_node18"><a xlink:href="class_ability_indicator.html" target="_top" xlink:title=" ">
<polygon fill="none" stroke="black" points="1214,-255.5 1214,-274.5 1294,-274.5 1294,-255.5 1214,-255.5"/>
<text text-anchor="middle" x="1254" y="-262.5" font-family="Helvetica,sans-Serif" font-size="10.00">AbilityIndicator</text>
</a>
</g>
</g>
<!-- Node9&#45;&gt;Node18 -->
<g id="edge30" class="edge">
<title>Node9&#45;&gt;Node18</title>
<path fill="none" stroke="midnightblue" d="M63.4,-151.21C74.22,-125.81 96.55,-80.43 128,-52 167.67,-16.14 183.03,0 236.5,0 236.5,0 236.5,0 1039.5,0 1173.32,0 1237.47,-207.44 1250.48,-255.25"/>
<polygon fill="midnightblue" stroke="midnightblue" points="60.15,-149.9 59.59,-160.48 66.63,-152.56 60.15,-149.9"/>
</g>
<!-- Node20 -->
<g id="node20" class="node">
<title>Node20</title>
<g id="a_node20"><a xlink:href="class_basic_attack.html" target="_top" xlink:title=" ">
<polygon fill="none" stroke="black" points="1003.5,-90.5 1003.5,-109.5 1073.5,-109.5 1073.5,-90.5 1003.5,-90.5"/>
<text text-anchor="middle" x="1038.5" y="-97.5" font-family="Helvetica,sans-Serif" font-size="10.00">BasicAttack</text>
</a>
</g>
</g>
<!-- Node9&#45;&gt;Node20 -->
<g id="edge39" class="edge">
<title>Node9&#45;&gt;Node20</title>
<path fill="none" stroke="midnightblue" d="M68.89,-151.92C81.8,-135.36 103.27,-111.7 128,-100 231.91,-50.85 270.23,-77.45 385,-71 541.99,-62.17 774.01,-74.74 949,-89 966.9,-90.46 986.75,-92.85 1003.11,-95.04"/>
<polygon fill="midnightblue" stroke="midnightblue" points="65.83,-150.17 62.63,-160.27 71.43,-154.37 65.83,-150.17"/>
</g>
<!-- Node21 -->
<g id="node21" class="node">
<title>Node21</title>
<g id="a_node21"><a xlink:href="class_inventory.html" target="_top" xlink:title=" ">
<polygon fill="none" stroke="black" points="781,-372.5 781,-391.5 836,-391.5 836,-372.5 781,-372.5"/>
<text text-anchor="middle" x="808.5" y="-379.5" font-family="Helvetica,sans-Serif" font-size="10.00">Inventory</text>
</a>
</g>
</g>
<!-- Node9&#45;&gt;Node21 -->
<g id="edge45" class="edge">
<title>Node9&#45;&gt;Node21</title>
<path fill="none" stroke="midnightblue" d="M82.79,-184.42C166.14,-228.34 429.44,-360.18 666,-404 700.09,-410.31 709.81,-409.75 744,-404 758.27,-401.6 773.61,-396.36 785.64,-391.6"/>
<polygon fill="midnightblue" stroke="midnightblue" points="84.22,-181.22 73.75,-179.62 80.95,-187.4 84.22,-181.22"/>
</g>
<!-- Node10&#45;&gt;Node1 -->
<g id="edge14" class="edge">
<title>Node10&#45;&gt;Node1</title>
<path fill="none" stroke="#9a32cd" stroke-dasharray="5,2" d="M818.34,-461.7C828.58,-481.08 847.38,-510.51 873,-525 935.55,-560.38 1128.57,-534.29 1194,-564 1215.63,-573.82 1235.11,-594.32 1245.38,-606.44"/>
<polygon fill="#9a32cd" stroke="#9a32cd" points="821.4,-459.99 813.78,-452.62 815.14,-463.13 821.4,-459.99"/>
<text text-anchor="middle" x="1038.5" y="-552" font-family="Helvetica,sans-Serif" font-size="10.00"> gameUIController</text>
</g>
<!-- Node11 -->
<g id="node11" class="node">
<title>Node11</title>
<g id="a_node11"><a xlink:href="class_player_stats.html" target="_top" xlink:title="Player Stats is the main class that controls all the Player Statistics in all time in the game execut...">
<polygon fill="none" stroke="black" points="572.5,-270.5 572.5,-289.5 640.5,-289.5 640.5,-270.5 572.5,-270.5"/>
<text text-anchor="middle" x="606.5" y="-277.5" font-family="Helvetica,sans-Serif" font-size="10.00">PlayerStats</text>
</a>
</g>
</g>
<!-- Node11&#45;&gt;Node10 -->
<g id="edge16" class="edge">
<title>Node11&#45;&gt;Node10</title>
<path fill="none" stroke="#9a32cd" stroke-dasharray="5,2" d="M616.04,-298.75C625.81,-318.52 643.4,-349.56 666,-370 685.06,-387.25 751.12,-417.97 785.82,-433.48"/>
<polygon fill="#9a32cd" stroke="#9a32cd" points="619.13,-297.08 611.67,-289.56 612.81,-300.1 619.13,-297.08"/>
<text text-anchor="middle" x="705" y="-416" font-family="Helvetica,sans-Serif" font-size="10.00"> stats</text>
</g>
<!-- Node11&#45;&gt;Node16 -->
<g id="edge37" class="edge">
<title>Node11&#45;&gt;Node16</title>
<path fill="none" stroke="#9a32cd" stroke-dasharray="5,2" d="M612.64,-260.8C620.08,-237.18 636.33,-198.01 666,-180 695.65,-162.01 735.56,-161.71 765.44,-165.08"/>
<polygon fill="#9a32cd" stroke="#9a32cd" points="609.27,-259.84 609.82,-270.42 615.99,-261.81 609.27,-259.84"/>
<text text-anchor="middle" x="705" y="-183" font-family="Helvetica,sans-Serif" font-size="10.00"> stats</text>
</g>
<!-- Node11&#45;&gt;Node17 -->
<g id="edge35" class="edge">
<title>Node11&#45;&gt;Node17</title>
<path fill="none" stroke="#9a32cd" stroke-dasharray="5,2" d="M650.59,-278.5C733.3,-275.61 913.36,-269.33 995.33,-266.47"/>
<polygon fill="#9a32cd" stroke="#9a32cd" points="650.4,-275 640.53,-278.85 650.64,-282 650.4,-275"/>
<text text-anchor="middle" x="808.5" y="-278" font-family="Helvetica,sans-Serif" font-size="10.00"> playerStats</text>
</g>
<!-- Node11&#45;&gt;Node20 -->
<g id="edge42" class="edge">
<title>Node11&#45;&gt;Node20</title>
<path fill="none" stroke="#9a32cd" stroke-dasharray="5,2" d="M650.75,-274.04C730.92,-262.42 898.96,-235.22 949,-205 989.61,-180.47 1020.56,-130.63 1032.33,-109.65"/>
<polygon fill="#9a32cd" stroke="#9a32cd" points="649.91,-270.62 640.5,-275.51 650.9,-277.55 649.91,-270.62"/>
<text text-anchor="middle" x="808.5" y="-259" font-family="Helvetica,sans-Serif" font-size="10.00"> stats</text>
</g>
<!-- Node11&#45;&gt;Node21 -->
<g id="edge50" class="edge">
<title>Node11&#45;&gt;Node21</title>
<path fill="none" stroke="#9a32cd" stroke-dasharray="5,2" d="M640.83,-293.17C649.01,-296.22 657.78,-299.35 666,-302 700.17,-313 712.59,-305.6 744,-323 767.17,-335.83 788.49,-358.91 799.56,-372.08"/>
<polygon fill="#9a32cd" stroke="#9a32cd" points="641.82,-289.8 631.22,-289.52 639.33,-296.34 641.82,-289.8"/>
<text text-anchor="middle" x="705" y="-326" font-family="Helvetica,sans-Serif" font-size="10.00"> stats</text>
</g>
<!-- Node12 -->
<g id="node12" class="node">
<title>Node12</title>
<g id="a_node12"><a xlink:href="class_ability_affected_stats.html" target="_top" xlink:title=" ">
<polygon fill="none" stroke="black" points="385,-212.5 385,-231.5 487,-231.5 487,-212.5 385,-212.5"/>
<text text-anchor="middle" x="436" y="-219.5" font-family="Helvetica,sans-Serif" font-size="10.00">AbilityAffectedStats</text>
</a>
</g>
</g>
<!-- Node12&#45;&gt;Node11 -->
<g id="edge17" class="edge">
<title>Node12&#45;&gt;Node11</title>
<path fill="none" stroke="midnightblue" d="M474.48,-234.9C505.7,-245.65 549.45,-260.71 577.63,-270.41"/>
<polygon fill="midnightblue" stroke="midnightblue" points="475.42,-231.52 464.82,-231.58 473.14,-238.14 475.42,-231.52"/>
</g>
<!-- Node13&#45;&gt;Node12 -->
<g id="edge18" class="edge">
<title>Node13&#45;&gt;Node12</title>
<path fill="none" stroke="midnightblue" d="M267.73,-177.74C302.65,-186.98 361.06,-202.43 398.8,-212.42"/>
<polygon fill="midnightblue" stroke="midnightblue" points="268.26,-174.26 257.7,-175.08 266.47,-181.02 268.26,-174.26"/>
</g>
<!-- Node13&#45;&gt;Node20 -->
<g id="edge41" class="edge">
<title>Node13&#45;&gt;Node20</title>
<path fill="none" stroke="#9a32cd" stroke-dasharray="5,2" d="M267.61,-164.96C357.4,-149.74 638.17,-104.65 873,-94 906.74,-92.47 915.24,-92.86 949,-94 967.01,-94.61 987.04,-95.92 1003.49,-97.15"/>
<polygon fill="#9a32cd" stroke="#9a32cd" points="266.89,-161.53 257.62,-166.66 268.07,-168.43 266.89,-161.53"/>
<text text-anchor="middle" x="606.5" y="-125" font-family="Helvetica,sans-Serif" font-size="10.00"> otherStats</text>
</g>
<!-- Node14 -->
<g id="node14" class="node">
<title>Node14</title>
<g id="a_node14"><a xlink:href="class_player_u_i_controller.html" target="_top" xlink:title="UI Controller for the Player Stats">
<polygon fill="none" stroke="black" points="388.5,-421.5 388.5,-440.5 483.5,-440.5 483.5,-421.5 388.5,-421.5"/>
<text text-anchor="middle" x="436" y="-428.5" font-family="Helvetica,sans-Serif" font-size="10.00">PlayerUIController</text>
</a>
</g>
</g>
<!-- Node14&#45;&gt;Node11 -->
<g id="edge20" class="edge">
<title>Node14&#45;&gt;Node11</title>
<path fill="none" stroke="#9a32cd" stroke-dasharray="5,2" d="M455.43,-414.48C490.6,-382.96 566.32,-315.11 594.58,-289.79"/>
<polygon fill="#9a32cd" stroke="#9a32cd" points="452.91,-412.04 447.8,-421.32 457.58,-417.26 452.91,-412.04"/>
<text text-anchor="middle" x="526" y="-372" font-family="Helvetica,sans-Serif" font-size="10.00"> uiControl</text>
</g>
<!-- Node15&#45;&gt;Node1 -->
<g id="edge51" class="edge">
<title>Node15&#45;&gt;Node1</title>
<path fill="none" stroke="#9a32cd" stroke-dasharray="5,2" d="M281.12,-438.81C383.27,-457.52 650.13,-506.39 873,-547 996.35,-569.48 1142.26,-595.93 1211.95,-608.56"/>
<polygon fill="#9a32cd" stroke="#9a32cd" points="281.66,-435.35 271.19,-436.99 280.39,-442.24 281.66,-435.35"/>
<text text-anchor="middle" x="705" y="-525" font-family="Helvetica,sans-Serif" font-size="10.00"> mapElementsUis</text>
</g>
<!-- Node15&#45;&gt;Node14 -->
<g id="edge21" class="edge">
<title>Node15&#45;&gt;Node14</title>
<path fill="none" stroke="midnightblue" d="M281.64,-431C313.21,-431 356.01,-431 388.38,-431"/>
<polygon fill="midnightblue" stroke="midnightblue" points="281.39,-427.5 271.39,-431 281.39,-434.5 281.39,-427.5"/>
</g>
<!-- Node16&#45;&gt;Node11 -->
<g id="edge23" class="edge">
<title>Node16&#45;&gt;Node11</title>
<path fill="none" stroke="#9a32cd" stroke-dasharray="5,2" d="M767.77,-185.64C759.9,-188.1 751.7,-190.65 744,-193 709.43,-203.54 696.65,-196.85 666,-216 643.02,-230.36 623.43,-256.17 613.83,-270.22"/>
<polygon fill="#9a32cd" stroke="#9a32cd" points="769.01,-188.92 777.49,-182.57 766.9,-182.24 769.01,-188.92"/>
<text text-anchor="middle" x="705" y="-219" font-family="Helvetica,sans-Serif" font-size="10.00"> playerController</text>
</g>
<!-- Node16&#45;&gt;Node17 -->
<g id="edge27" class="edge">
<title>Node16&#45;&gt;Node17</title>
<path fill="none" stroke="#9a32cd" stroke-dasharray="5,2" d="M861.73,-173.87C888.73,-175.93 921.67,-181.04 949,-193 982.93,-207.86 1014.51,-239.43 1029.07,-255.37"/>
<polygon fill="#9a32cd" stroke="#9a32cd" points="861.9,-170.37 851.69,-173.22 861.44,-177.36 861.9,-170.37"/>
<text text-anchor="middle" x="911" y="-196" font-family="Helvetica,sans-Serif" font-size="10.00"> playerController</text>
</g>
<!-- Node16&#45;&gt;Node20 -->
<g id="edge40" class="edge">
<title>Node16&#45;&gt;Node20</title>
<path fill="none" stroke="#9a32cd" stroke-dasharray="5,2" d="M823.22,-155.34C834.86,-141.77 852.86,-123.88 873,-115 915.11,-96.42 969.08,-95.24 1003.48,-96.95"/>
<polygon fill="#9a32cd" stroke="#9a32cd" points="820.47,-153.17 816.82,-163.12 825.88,-157.62 820.47,-153.17"/>
<text text-anchor="middle" x="911" y="-118" font-family="Helvetica,sans-Serif" font-size="10.00"> controller</text>
</g>
<!-- Node17&#45;&gt;Node11 -->
<g id="edge43" class="edge">
<title>Node17&#45;&gt;Node11</title>
<path fill="none" stroke="#9a32cd" stroke-dasharray="5,2" d="M988.87,-276.79C975.98,-279.54 962.02,-282.2 949,-284 836.82,-299.54 701.94,-289.66 640.67,-283.65"/>
<polygon fill="#9a32cd" stroke="#9a32cd" points="989.93,-280.14 998.95,-274.57 988.43,-273.3 989.93,-280.14"/>
<text text-anchor="middle" x="808.5" y="-296" font-family="Helvetica,sans-Serif" font-size="10.00"> abilityCooldowns</text>
</g>
<!-- Node17&#45;&gt;Node16 -->
<g id="edge25" class="edge">
<title>Node17&#45;&gt;Node16</title>
<path fill="none" stroke="#9a32cd" stroke-dasharray="5,2" d="M993.26,-252.5C959.55,-242.31 912.38,-226.59 873,-208 864.52,-204 863.15,-201.63 855,-197 846.3,-192.06 836.51,-186.84 828.24,-182.55"/>
<polygon fill="#9a32cd" stroke="#9a32cd" points="992.68,-255.98 1003.26,-255.49 994.68,-249.28 992.68,-255.98"/>
<text text-anchor="middle" x="911" y="-241" font-family="Helvetica,sans-Serif" font-size="10.00"> abilityCooldowns</text>
</g>
<!-- Node17&#45;&gt;Node18 -->
<g id="edge31" class="edge">
<title>Node17&#45;&gt;Node18</title>
<path fill="none" stroke="#9a32cd" stroke-dasharray="5,2" d="M1091.95,-265C1129.61,-265 1179.56,-265 1213.79,-265"/>
<polygon fill="#9a32cd" stroke="#9a32cd" points="1091.68,-261.5 1081.68,-265 1091.68,-268.5 1091.68,-261.5"/>
<text text-anchor="middle" x="1161" y="-268" font-family="Helvetica,sans-Serif" font-size="10.00"> currentCD</text>
</g>
<!-- Node18&#45;&gt;Node17 -->
<g id="edge29" class="edge">
<title>Node18&#45;&gt;Node17</title>
<path fill="none" stroke="#9a32cd" stroke-dasharray="5,2" d="M1213.84,-252.83C1207.28,-251.24 1200.49,-249.86 1194,-249 1155.64,-243.89 1111.74,-249.54 1080.56,-255.49"/>
<polygon fill="#9a32cd" stroke="#9a32cd" points="1213.34,-256.32 1223.9,-255.47 1215.12,-249.55 1213.34,-256.32"/>
<text text-anchor="middle" x="1161" y="-252" font-family="Helvetica,sans-Serif" font-size="10.00"> abilityIndicator</text>
</g>
<!-- Node19&#45;&gt;Node18 -->
<g id="edge32" class="edge">
<title>Node19&#45;&gt;Node18</title>
<path fill="none" stroke="#9a32cd" stroke-dasharray="5,2" d="M657.68,-582.02C683.58,-575.61 715.61,-567.34 744,-559 836.1,-531.95 863.85,-535.31 949,-491 1075.6,-425.13 1206,-308.54 1242.8,-274.55"/>
<polygon fill="#9a32cd" stroke="#9a32cd" points="656.59,-578.68 647.72,-584.46 658.26,-585.48 656.59,-578.68"/>
<text text-anchor="middle" x="911" y="-527" font-family="Helvetica,sans-Serif" font-size="10.00"> current</text>
</g>
<!-- Node20&#45;&gt;Node16 -->
<g id="edge38" class="edge">
<title>Node20&#45;&gt;Node16</title>
<path fill="none" stroke="#9a32cd" stroke-dasharray="5,2" d="M997.94,-112.67C952.78,-127.12 879.93,-150.45 839.31,-163.46"/>
<polygon fill="#9a32cd" stroke="#9a32cd" points="999.23,-115.93 1007.69,-109.55 997.09,-109.26 999.23,-115.93"/>
<text text-anchor="middle" x="911" y="-155" font-family="Helvetica,sans-Serif" font-size="10.00"> basicAttack</text>
</g>
<!-- Node21&#45;&gt;Node11 -->
<g id="edge44" class="edge">
<title>Node21&#45;&gt;Node11</title>
<path fill="none" stroke="#9a32cd" stroke-dasharray="5,2" d="M772.6,-368.93C763.34,-365.58 753.33,-362.06 744,-359 709.66,-347.73 697.27,-354.12 666,-336 644.83,-323.74 625.41,-302.27 615.15,-289.78"/>
<polygon fill="#9a32cd" stroke="#9a32cd" points="771.69,-372.32 782.28,-372.47 774.09,-365.75 771.69,-372.32"/>
<text text-anchor="middle" x="705" y="-362" font-family="Helvetica,sans-Serif" font-size="10.00"> inventory</text>
</g>
<!-- Node22&#45;&gt;Node21 -->
<g id="edge46" class="edge">
<title>Node22&#45;&gt;Node21</title>
<path fill="none" stroke="#9a32cd" stroke-dasharray="5,2" d="M265.54,-778.77C335.2,-781.97 524,-782.01 648,-700 656.02,-694.7 740.6,-564.99 744,-556 764.96,-500.62 734.63,-476.51 762,-424 769.06,-410.46 782.28,-399.02 792.66,-391.52"/>
<polygon fill="#9a32cd" stroke="#9a32cd" points="265.58,-775.26 255.41,-778.24 265.21,-782.25 265.58,-775.26"/>
<text text-anchor="middle" x="526" y="-760" font-family="Helvetica,sans-Serif" font-size="10.00"> items</text>
</g>
<!-- Node23 -->
<g id="node23" class="node">
<title>Node23</title>
<g id="a_node23"><a xlink:href="class_generic_dictionary.html" target="_top" xlink:title=" ">
<polygon fill="none" stroke="black" points="5,-772 5,-802 105,-802 105,-772 5,-772"/>
<text text-anchor="start" x="13" y="-790" font-family="Helvetica,sans-Serif" font-size="10.00">GenericDictionary&lt;</text>
<text text-anchor="middle" x="55" y="-779" font-family="Helvetica,sans-Serif" font-size="10.00"> IntStatistic, int &gt;</text>
</a>
</g>
</g>
<!-- Node23&#45;&gt;Node22 -->
<g id="edge48" class="edge">
<title>Node23&#45;&gt;Node22</title>
<path fill="none" stroke="#9a32cd" stroke-dasharray="5,2" d="M115.42,-783.71C152.04,-781.68 196.36,-779.22 219.9,-777.92"/>
<polygon fill="#9a32cd" stroke="#9a32cd" points="115.11,-780.22 105.32,-784.27 115.5,-787.21 115.11,-780.22"/>
<text text-anchor="middle" x="157" y="-785" font-family="Helvetica,sans-Serif" font-size="10.00"> iEffectsInt</text>
</g>
<!-- Node24 -->
<g id="node24" class="node">
<title>Node24</title>
<g id="a_node24"><a xlink:href="class_generic_dictionary.html" target="_top" xlink:title=" ">
<polygon fill="none" stroke="black" points="0,-821 0,-851 110,-851 110,-821 0,-821"/>
<text text-anchor="start" x="8" y="-839" font-family="Helvetica,sans-Serif" font-size="10.00">GenericDictionary&lt;</text>
<text text-anchor="middle" x="55" y="-828" font-family="Helvetica,sans-Serif" font-size="10.00"> FloatStatistic, float &gt;</text>
</a>
</g>
</g>
<!-- Node24&#45;&gt;Node22 -->
<g id="edge49" class="edge">
<title>Node24&#45;&gt;Node22</title>
<path fill="none" stroke="#9a32cd" stroke-dasharray="5,2" d="M119.66,-818.09C140.88,-811.8 164.57,-804.44 186,-797 197.4,-793.04 210.03,-788.04 219.8,-784.03"/>
<polygon fill="#9a32cd" stroke="#9a32cd" points="118.38,-814.81 109.78,-820.99 120.36,-821.53 118.38,-814.81"/>
<text text-anchor="middle" x="157" y="-818" font-family="Helvetica,sans-Serif" font-size="10.00"> iEffectsFloat</text>
</g>
</g>
</svg>
        <g id="navigator" transform="translate(0 0)" fill="#404254">
                <rect fill="#f2f5e9" fill-opacity="0.5" stroke="#606060" stroke-width=".5" x="0" y="0" width="60" height="60"/>
                <use id="zoomplus" xlink:href="#zoomPlus" x="17" y="9" onmousedown="handleZoom(evt,'in')"/>
                <use id="zoomminus" xlink:href="#zoomMin" x="42" y="9" onmousedown="handleZoom(evt,'out')"/>
                <use id="reset" xlink:href="#resetDef" x="30" y="36" onmousedown="handleReset()"/>
                <g id="arrowUp" xlink:href="#dirArrow" transform="translate(30 24)" onmousedown="handlePan(0,-1)">
                  <use xlink:href="#rim" fill="#404040">
                        <set attributeName="fill" to="#808080" begin="arrowUp.mouseover" end="arrowUp.mouseout"/>
                  </use>
                  <path fill="none" stroke="white" stroke-width="1.5" d="M0,-3.0v7 M-2.5,-0.5L0,-3.0L2.5,-0.5"/>
                </g>
                <g id="arrowRight" xlink:href="#dirArrow" transform="rotate(90) translate(36 -43)" onmousedown="handlePan(1,0)">
                  <use xlink:href="#rim" fill="#404040">
                        <set attributeName="fill" to="#808080" begin="arrowRight.mouseover" end="arrowRight.mouseout"/>
                  </use>
                  <path fill="none" stroke="white" stroke-width="1.5" d="M0,-3.0v7 M-2.5,-0.5L0,-3.0L2.5,-0.5"/>
                </g>
                <g id="arrowDown" xlink:href="#dirArrow" transform="rotate(180) translate(-30 -48)" onmousedown="handlePan(0,1)">
                  <use xlink:href="#rim" fill="#404040">
                        <set attributeName="fill" to="#808080" begin="arrowDown.mouseover" end="arrowDown.mouseout"/>
                  </use>
                  <path fill="none" stroke="white" stroke-width="1.5" d="M0,-3.0v7 M-2.5,-0.5L0,-3.0L2.5,-0.5"/>
                </g>
                <g id="arrowLeft" xlink:href="#dirArrow" transform="rotate(270) translate(-36 17)" onmousedown="handlePan(-1,0)">
                  <use xlink:href="#rim" fill="#404040">
                        <set attributeName="fill" to="#808080" begin="arrowLeft.mouseover" end="arrowLeft.mouseout"/>
                  </use>
                  <path fill="none" stroke="white" stroke-width="1.5" d="M0,-3.0v7 M-2.5,-0.5L0,-3.0L2.5,-0.5"/>
                </g>
        </g>
        <svg viewBox="0 0 15 15" width="100%" height="30px" preserveAspectRatio="xMaxYMin meet">
         <g id="arrow_out" transform="scale(0.3 0.3)">
          <a xlink:href="class_game_controller__coll__graph_org.svg" target="_base">
           <rect id="button" ry="5" rx="5" y="6" x="6" height="38" width="38"
                fill="#f2f5e9" fill-opacity="0.5" stroke="#606060" stroke-width="1.0"/>
           <path id="arrow"
             d="M 11.500037,31.436501 C 11.940474,20.09759 22.043105,11.32322 32.158766,21.979434 L 37.068811,17.246167 C 37.068811,17.246167 37.088388,32 37.088388,32 L 22.160133,31.978069 C 22.160133,31.978069 26.997745,27.140456 26.997745,27.140456 C 18.528582,18.264221 13.291696,25.230495 11.500037,31.436501 z"
             style="fill:#404040;"/>
          </a>
         </g>
        </svg>
</svg>
