<?xml version="1.0" encoding="UTF-8" standalone="no"?>
<!DOCTYPE svg PUBLIC "-//W3C//DTD SVG 1.1//EN"
 "http://www.w3.org/Graphics/SVG/1.1/DTD/svg11.dtd">
<!-- Generated by graphviz version 2.49.1 (20210923.0004)
 -->
<!-- Title: PlayerStats.GetXPNeeded Pages: 1 -->
<svg width="434pt" height="47pt"
 viewBox="0.00 0.00 434.00 47.00" xmlns="http://www.w3.org/2000/svg" xmlns:xlink="http://www.w3.org/1999/xlink">
<g id="graph0" class="graph" transform="scale(1 1) rotate(0) translate(4 43)">
<title>PlayerStats.GetXPNeeded</title>
<!-- Node1 -->
<g id="node1" class="node">
<title>Node1</title>
<g id="a_node1"><a xlink:title=" ">
<polygon fill="#bfbfbf" stroke="black" points="295,-19.5 295,-38.5 426,-38.5 426,-19.5 295,-19.5"/>
<text text-anchor="middle" x="360.5" y="-26.5" font-family="Helvetica,sans-Serif" font-size="10.00">PlayerStats.GetXPNeeded</text>
</a>
</g>
</g>
<!-- Node2 -->
<g id="node2" class="node">
<title>Node2</title>
<g id="a_node2"><a xlink:href="class_player_stats.html#af74a866a9312c345f3cd03235be2f329" target="_top" xlink:title=" ">
<polygon fill="none" stroke="black" points="0,-19.5 0,-38.5 119,-38.5 119,-19.5 0,-19.5"/>
<text text-anchor="middle" x="59.5" y="-26.5" font-family="Helvetica,sans-Serif" font-size="10.00">PlayerStats.AddXpRPC</text>
</a>
</g>
</g>
<!-- Node1&#45;&gt;Node2 -->
<g id="edge1" class="edge">
<title>Node1&#45;&gt;Node2</title>
<path fill="none" stroke="midnightblue" d="M284.97,-29C233.78,-29 166.76,-29 119.32,-29"/>
<polygon fill="midnightblue" stroke="midnightblue" points="284.99,-32.5 294.99,-29 284.99,-25.5 284.99,-32.5"/>
</g>
<!-- Node3 -->
<g id="node3" class="node">
<title>Node3</title>
<g id="a_node3"><a xlink:href="class_player_stats.html#a75c908d1b8c5eb0b414db7ab99ceab9e" target="_top" xlink:title="Called whenever the player levels up.">
<polygon fill="none" stroke="black" points="155,-0.5 155,-19.5 259,-19.5 259,-0.5 155,-0.5"/>
<text text-anchor="middle" x="207" y="-7.5" font-family="Helvetica,sans-Serif" font-size="10.00">PlayerStats.LevelUp</text>
</a>
</g>
</g>
<!-- Node1&#45;&gt;Node3 -->
<g id="edge2" class="edge">
<title>Node1&#45;&gt;Node3</title>
<path fill="none" stroke="midnightblue" d="M284.71,-19.62C276.07,-18.54 267.42,-17.45 259.2,-16.42"/>
<polygon fill="midnightblue" stroke="midnightblue" points="284.45,-23.12 294.81,-20.89 285.32,-16.17 284.45,-23.12"/>
</g>
<!-- Node3&#45;&gt;Node2 -->
<g id="edge3" class="edge">
<title>Node3&#45;&gt;Node2</title>
<path fill="none" stroke="midnightblue" d="M144.53,-18.03C136.08,-19.13 127.43,-20.26 119.03,-21.36"/>
<polygon fill="midnightblue" stroke="midnightblue" points="145.24,-21.46 154.7,-16.7 144.33,-14.52 145.24,-21.46"/>
</g>
</g>
</svg>
