<?xml version="1.0" encoding="UTF-8" standalone="no"?>
<!DOCTYPE svg PUBLIC "-//W3C//DTD SVG 1.1//EN"
 "http://www.w3.org/Graphics/SVG/1.1/DTD/svg11.dtd">
<!-- Generated by graphviz version 2.47.3 (20210619.1520)
 -->
<!-- Title: Tayx.Graphy.Ram.G_RamGraph Pages: 1 -->
<svg width="2086pt" height="1328pt"
 viewBox="0.00 0.00 2086.00 1328.31" xmlns="http://www.w3.org/2000/svg" xmlns:xlink="http://www.w3.org/1999/xlink">
<g id="graph0" class="graph" transform="scale(1 1) rotate(0) translate(4 1324.31)">
<title>Tayx.Graphy.Ram.G_RamGraph</title>
<polygon fill="white" stroke="transparent" points="-4,4 -4,-1324.31 2082,-1324.31 2082,4 -4,4"/>
<!-- Node1 -->
<g id="node1" class="node">
<title>Node1</title>
<g id="a_node1"><a xlink:title=" ">
<polygon fill="#bfbfbf" stroke="black" points="433,-923.5 433,-942.5 591,-942.5 591,-923.5 433,-923.5"/>
<text text-anchor="middle" x="512" y="-930.5" font-family="Helvetica,sans-Serif" font-size="10.00">Tayx.Graphy.Ram.G_RamGraph</text>
</a>
</g>
</g>
<!-- Node17 -->
<g id="node17" class="node">
<title>Node17</title>
<g id="a_node17"><a xlink:href="class_tayx_1_1_graphy_1_1_ram_1_1_g___ram_manager.xhtml" target="_top" xlink:title=" ">
<polygon fill="white" stroke="black" points="693,-765.5 693,-784.5 862,-784.5 862,-765.5 693,-765.5"/>
<text text-anchor="middle" x="777.5" y="-772.5" font-family="Helvetica,sans-Serif" font-size="10.00">Tayx.Graphy.Ram.G_RamManager</text>
</a>
</g>
</g>
<!-- Node1&#45;&gt;Node17 -->
<g id="edge46" class="edge">
<title>Node1&#45;&gt;Node17</title>
<path fill="none" stroke="#9a32cd" stroke-dasharray="5,2" d="M531.39,-916.47C550.09,-900.15 580.31,-875.09 609,-857 657.89,-826.18 720.04,-798.47 753.18,-784.52"/>
<polygon fill="#9a32cd" stroke="#9a32cd" points="528.84,-914.05 523.66,-923.3 533.47,-919.3 528.84,-914.05"/>
<text text-anchor="middle" x="642" y="-860" font-family="Helvetica,sans-Serif" font-size="10.00"> m_ramGraph</text>
</g>
<!-- Node2 -->
<g id="node2" class="node">
<title>Node2</title>
<g id="a_node2"><a xlink:href="class_tayx_1_1_graphy_1_1_graph_1_1_g___graph.xhtml" target="_top" xlink:title=" ">
<polygon fill="white" stroke="black" points="174,-1087.5 174,-1106.5 230,-1106.5 230,-1087.5 174,-1087.5"/>
<text text-anchor="middle" x="202" y="-1094.5" font-family="Helvetica,sans-Serif" font-size="10.00">G_Graph</text>
</a>
</g>
</g>
<!-- Node2&#45;&gt;Node1 -->
<g id="edge1" class="edge">
<title>Node2&#45;&gt;Node1</title>
<path fill="none" stroke="midnightblue" d="M230,-1082.63C291.62,-1049.81 441.33,-970.1 493.06,-942.55"/>
<polygon fill="midnightblue" stroke="midnightblue" points="228.07,-1079.68 220.89,-1087.47 231.36,-1085.86 228.07,-1079.68"/>
</g>
<!-- Node14 -->
<g id="node14" class="node">
<title>Node14</title>
<g id="a_node14"><a xlink:href="class_tayx_1_1_graphy_1_1_audio_1_1_g___audio_graph.xhtml" target="_top" xlink:title=" ">
<polygon fill="white" stroke="black" points="1684,-766 1684,-796 1794,-796 1794,-766 1684,-766"/>
<text text-anchor="start" x="1692" y="-784" font-family="Helvetica,sans-Serif" font-size="10.00">Tayx.Graphy.Audio.G</text>
<text text-anchor="middle" x="1739" y="-773" font-family="Helvetica,sans-Serif" font-size="10.00">_AudioGraph</text>
</a>
</g>
</g>
<!-- Node2&#45;&gt;Node14 -->
<g id="edge23" class="edge">
<title>Node2&#45;&gt;Node14</title>
<path fill="none" stroke="midnightblue" d="M240.16,-1100.41C431.55,-1117.22 1305.43,-1184.98 1524,-1042 1536.38,-1033.9 1531.79,-1024.7 1542,-1014 1581.16,-972.95 1613.35,-986.39 1646,-940 1663.01,-915.84 1650.67,-902.37 1664,-876 1679.75,-844.84 1706.44,-813.91 1723.1,-796.16"/>
<polygon fill="midnightblue" stroke="midnightblue" points="240.32,-1096.91 230.05,-1099.51 239.7,-1103.88 240.32,-1096.91"/>
</g>
<!-- Node20 -->
<g id="node20" class="node">
<title>Node20</title>
<g id="a_node20"><a xlink:href="class_tayx_1_1_graphy_1_1_fps_1_1_g___fps_graph.xhtml" target="_top" xlink:title=" ">
<polygon fill="white" stroke="black" points="1664,-1033.5 1664,-1052.5 1814,-1052.5 1814,-1033.5 1664,-1033.5"/>
<text text-anchor="middle" x="1739" y="-1040.5" font-family="Helvetica,sans-Serif" font-size="10.00">Tayx.Graphy.Fps.G_FpsGraph</text>
</a>
</g>
</g>
<!-- Node2&#45;&gt;Node20 -->
<g id="edge55" class="edge">
<title>Node2&#45;&gt;Node20</title>
<path fill="none" stroke="midnightblue" d="M240.19,-1105.98C370.09,-1137.03 803.38,-1238 945.5,-1238 945.5,-1238 945.5,-1238 1447,-1238 1536.09,-1238 1572.41,-1264.2 1646,-1214 1705.04,-1173.73 1729.39,-1082.89 1736.01,-1052.85"/>
<polygon fill="midnightblue" stroke="midnightblue" points="240.86,-1102.54 230.32,-1103.61 239.23,-1109.35 240.86,-1102.54"/>
</g>
<!-- Node3 -->
<g id="node3" class="node">
<title>Node3</title>
<g id="a_node3"><a xlink:title=" ">
<polygon fill="white" stroke="#bfbfbf" points="0,-1049.5 0,-1068.5 83,-1068.5 83,-1049.5 0,-1049.5"/>
<text text-anchor="middle" x="41.5" y="-1056.5" font-family="Helvetica,sans-Serif" font-size="10.00">MonoBehaviour</text>
</a>
</g>
</g>
<!-- Node3&#45;&gt;Node2 -->
<g id="edge2" class="edge">
<title>Node3&#45;&gt;Node2</title>
<path fill="none" stroke="midnightblue" d="M92.54,-1071C119.5,-1077.46 151.7,-1085.18 173.98,-1090.52"/>
<polygon fill="midnightblue" stroke="midnightblue" points="93.04,-1067.52 82.5,-1068.59 91.4,-1074.32 93.04,-1067.52"/>
</g>
<!-- Node4 -->
<g id="node4" class="node">
<title>Node4</title>
<g id="a_node4"><a xlink:href="class_tayx_1_1_graphy_1_1_ram_1_1_g___ram_monitor.xhtml" target="_top" xlink:title=" ">
<polygon fill="white" stroke="black" points="120,-1005.5 120,-1024.5 284,-1024.5 284,-1005.5 120,-1005.5"/>
<text text-anchor="middle" x="202" y="-1012.5" font-family="Helvetica,sans-Serif" font-size="10.00">Tayx.Graphy.Ram.G_RamMonitor</text>
</a>
</g>
</g>
<!-- Node3&#45;&gt;Node4 -->
<g id="edge4" class="edge">
<title>Node3&#45;&gt;Node4</title>
<path fill="none" stroke="midnightblue" d="M86.62,-1046.75C111.92,-1039.73 143.22,-1031.04 166.67,-1024.53"/>
<polygon fill="midnightblue" stroke="midnightblue" points="85.59,-1043.41 76.89,-1049.45 87.46,-1050.15 85.59,-1043.41"/>
</g>
<!-- Node8 -->
<g id="node8" class="node">
<title>Node8</title>
<g id="a_node8"><a xlink:href="class_tayx_1_1_graphy_1_1_audio_1_1_g___audio_manager.xhtml" target="_top" xlink:title=" ">
<polygon fill="white" stroke="black" points="1942.5,-489 1942.5,-519 2052.5,-519 2052.5,-489 1942.5,-489"/>
<text text-anchor="start" x="1950.5" y="-507" font-family="Helvetica,sans-Serif" font-size="10.00">Tayx.Graphy.Audio.G</text>
<text text-anchor="middle" x="1997.5" y="-496" font-family="Helvetica,sans-Serif" font-size="10.00">_AudioManager</text>
</a>
</g>
</g>
<!-- Node3&#45;&gt;Node8 -->
<g id="edge10" class="edge">
<title>Node3&#45;&gt;Node8</title>
<path fill="none" stroke="midnightblue" d="M60.45,-1075.73C75.31,-1088.66 97.56,-1105.99 120,-1116 461.32,-1268.2 571.78,-1276 945.5,-1276 945.5,-1276 945.5,-1276 1740,-1276 1860.64,-1276 1857.29,-1169.2 1899,-1056 1933.53,-962.28 1901.19,-930.62 1917,-832 1936.62,-709.64 1978.08,-565.58 1991.91,-519.2"/>
<polygon fill="midnightblue" stroke="midnightblue" points="62.4,-1072.77 52.61,-1068.71 57.73,-1077.99 62.4,-1072.77"/>
</g>
<!-- Node12 -->
<g id="node12" class="node">
<title>Node12</title>
<g id="a_node12"><a xlink:href="class_tayx_1_1_graphy_1_1_audio_1_1_g___audio_text.xhtml" target="_top" xlink:title=" ">
<polygon fill="white" stroke="black" points="1684,-183 1684,-213 1794,-213 1794,-183 1684,-183"/>
<text text-anchor="start" x="1692" y="-201" font-family="Helvetica,sans-Serif" font-size="10.00">Tayx.Graphy.Audio.G</text>
<text text-anchor="middle" x="1739" y="-190" font-family="Helvetica,sans-Serif" font-size="10.00">_AudioText</text>
</a>
</g>
</g>
<!-- Node3&#45;&gt;Node12 -->
<g id="edge15" class="edge">
<title>Node3&#45;&gt;Node12</title>
<path fill="none" stroke="midnightblue" d="M43.66,-1039.14C51.88,-903.1 103.71,-114 201,-114 201,-114 201,-114 1272.5,-114 1426.07,-114 1603.67,-158.82 1688.25,-182.98"/>
<polygon fill="midnightblue" stroke="midnightblue" points="40.16,-1039.15 43.05,-1049.34 47.14,-1039.56 40.16,-1039.15"/>
</g>
<!-- Node13 -->
<g id="node13" class="node">
<title>Node13</title>
<g id="a_node13"><a xlink:href="class_tayx_1_1_graphy_1_1_audio_1_1_g___audio_monitor.xhtml" target="_top" xlink:title=" ">
<polygon fill="white" stroke="black" points="1391,-629 1391,-659 1501,-659 1501,-629 1391,-629"/>
<text text-anchor="start" x="1399" y="-647" font-family="Helvetica,sans-Serif" font-size="10.00">Tayx.Graphy.Audio.G</text>
<text text-anchor="middle" x="1446" y="-636" font-family="Helvetica,sans-Serif" font-size="10.00">_AudioMonitor</text>
</a>
</g>
</g>
<!-- Node3&#45;&gt;Node13 -->
<g id="edge19" class="edge">
<title>Node3&#45;&gt;Node13</title>
<path fill="none" stroke="midnightblue" d="M43.01,-1039.35C45.3,-996.52 57.42,-895.01 120,-850 200.59,-792.04 914.36,-833.21 1013,-822 1085.92,-813.71 1105.04,-812.19 1175,-790 1256.17,-764.25 1276.11,-754.33 1350,-712 1377.81,-696.07 1407.48,-673.9 1426.12,-659.26"/>
<polygon fill="midnightblue" stroke="midnightblue" points="39.51,-1039.21 42.6,-1049.34 46.51,-1039.49 39.51,-1039.21"/>
</g>
<!-- Node15 -->
<g id="node15" class="node">
<title>Node15</title>
<g id="a_node15"><a xlink:href="class_tayx_1_1_graphy_1_1_fps_1_1_g___fps_monitor.xhtml" target="_top" xlink:title=" ">
<polygon fill="white" stroke="black" points="1368,-950.5 1368,-969.5 1524,-969.5 1524,-950.5 1368,-950.5"/>
<text text-anchor="middle" x="1446" y="-957.5" font-family="Helvetica,sans-Serif" font-size="10.00">Tayx.Graphy.Fps.G_FpsMonitor</text>
</a>
</g>
</g>
<!-- Node3&#45;&gt;Node15 -->
<g id="edge29" class="edge">
<title>Node3&#45;&gt;Node15</title>
<path fill="none" stroke="midnightblue" d="M41.6,-1078.54C40.7,-1121.12 44.87,-1218.09 102,-1213 242.33,-1200.51 1216.3,-1033.4 1350,-989 1358.49,-986.18 1359.63,-983.14 1368,-980 1378.73,-975.97 1390.6,-972.46 1401.74,-969.54"/>
<polygon fill="midnightblue" stroke="midnightblue" points="45.1,-1078.65 41.93,-1068.54 38.1,-1078.42 45.1,-1078.65"/>
</g>
<!-- Node16 -->
<g id="node16" class="node">
<title>Node16</title>
<g id="a_node16"><a xlink:href="class_tayx_1_1_graphy_1_1_advanced_1_1_g___advanced_data.xhtml" target="_top" xlink:title=" ">
<polygon fill="white" stroke="black" points="1382,-348 1382,-378 1510,-378 1510,-348 1382,-348"/>
<text text-anchor="start" x="1390" y="-366" font-family="Helvetica,sans-Serif" font-size="10.00">Tayx.Graphy.Advanced.G</text>
<text text-anchor="middle" x="1446" y="-355" font-family="Helvetica,sans-Serif" font-size="10.00">_AdvancedData</text>
</a>
</g>
</g>
<!-- Node3&#45;&gt;Node16 -->
<g id="edge32" class="edge">
<title>Node3&#45;&gt;Node16</title>
<path fill="none" stroke="midnightblue" d="M42.54,-1039.22C43.26,-923.87 54.22,-343 201,-343 201,-343 201,-343 947.5,-343 1103.74,-343 1287.36,-352.97 1381.81,-358.83"/>
<polygon fill="midnightblue" stroke="midnightblue" points="39.04,-1039.4 42.49,-1049.42 46.04,-1039.44 39.04,-1039.4"/>
</g>
<!-- Node3&#45;&gt;Node17 -->
<g id="edge38" class="edge">
<title>Node3&#45;&gt;Node17</title>
<path fill="none" stroke="midnightblue" d="M44.04,-1039.25C48.72,-984.92 64.72,-835.21 101,-805 188.61,-732.04 532.19,-752.53 692.85,-766.66"/>
<polygon fill="midnightblue" stroke="midnightblue" points="40.54,-1039.07 43.21,-1049.32 47.52,-1039.64 40.54,-1039.07"/>
</g>
<!-- Node18 -->
<g id="node18" class="node">
<title>Node18</title>
<g id="a_node18"><a xlink:href="class_tayx_1_1_graphy_1_1_ram_1_1_g___ram_text.xhtml" target="_top" xlink:title=" ">
<polygon fill="white" stroke="black" points="1371,-989.5 1371,-1008.5 1521,-1008.5 1521,-989.5 1371,-989.5"/>
<text text-anchor="middle" x="1446" y="-996.5" font-family="Helvetica,sans-Serif" font-size="10.00">Tayx.Graphy.Ram.G_RamText</text>
</a>
</g>
</g>
<!-- Node3&#45;&gt;Node18 -->
<g id="edge42" class="edge">
<title>Node3&#45;&gt;Node18</title>
<path fill="none" stroke="midnightblue" d="M93.59,-1057.75C253.31,-1053.81 757.47,-1041.31 1175,-1030 1252.78,-1027.89 1273.04,-1036.46 1350,-1025 1373,-1021.57 1398.38,-1014.45 1417.11,-1008.52"/>
<polygon fill="midnightblue" stroke="midnightblue" points="93.04,-1054.26 83.13,-1058 93.21,-1061.26 93.04,-1054.26"/>
</g>
<!-- Node19 -->
<g id="node19" class="node">
<title>Node19</title>
<g id="a_node19"><a xlink:href="class_tayx_1_1_graphy_1_1_fps_1_1_g___fps_manager.xhtml" target="_top" xlink:title=" ">
<polygon fill="white" stroke="black" points="1917,-841.5 1917,-860.5 2078,-860.5 2078,-841.5 1917,-841.5"/>
<text text-anchor="middle" x="1997.5" y="-848.5" font-family="Helvetica,sans-Serif" font-size="10.00">Tayx.Graphy.Fps.G_FpsManager</text>
</a>
</g>
</g>
<!-- Node3&#45;&gt;Node19 -->
<g id="edge50" class="edge">
<title>Node3&#45;&gt;Node19</title>
<path fill="none" stroke="midnightblue" d="M45.1,-1078.74C54.21,-1138.6 90.33,-1314 201,-1314 201,-1314 201,-1314 1740,-1314 1811.47,-1314 1846.76,-1338.77 1899,-1290 1965.06,-1228.33 1991.37,-919.2 1995.81,-860.6"/>
<polygon fill="midnightblue" stroke="midnightblue" points="48.55,-1078.09 43.67,-1068.68 41.62,-1079.08 48.55,-1078.09"/>
</g>
<!-- Node21 -->
<g id="node21" class="node">
<title>Node21</title>
<g id="a_node21"><a xlink:href="class_tayx_1_1_graphy_1_1_fps_1_1_g___fps_text.xhtml" target="_top" xlink:title=" ">
<polygon fill="white" stroke="black" points="1667.5,-885.5 1667.5,-904.5 1810.5,-904.5 1810.5,-885.5 1667.5,-885.5"/>
<text text-anchor="middle" x="1739" y="-892.5" font-family="Helvetica,sans-Serif" font-size="10.00">Tayx.Graphy.Fps.G_FpsText</text>
</a>
</g>
</g>
<!-- Node3&#45;&gt;Node21 -->
<g id="edge61" class="edge">
<title>Node3&#45;&gt;Node21</title>
<path fill="none" stroke="midnightblue" d="M43.29,-1078.99C45.86,-1113.23 56.58,-1182.36 101,-1213 167.95,-1259.18 202.67,-1213.8 284,-1213 578.04,-1210.11 651.44,-1200 945.5,-1200 945.5,-1200 945.5,-1200 1447,-1200 1554.13,-1200 1590.36,-1155.54 1646,-1064 1680.42,-1007.38 1620.93,-966.35 1664,-916 1668.08,-911.23 1673.16,-907.5 1678.73,-904.6"/>
<polygon fill="midnightblue" stroke="midnightblue" points="46.78,-1078.6 42.7,-1068.83 39.79,-1079.01 46.78,-1078.6"/>
</g>
<!-- Node4&#45;&gt;Node1 -->
<g id="edge3" class="edge">
<title>Node4&#45;&gt;Node1</title>
<path fill="none" stroke="#9a32cd" stroke-dasharray="5,2" d="M224.33,-999.65C243.63,-986.59 273.35,-968.47 302,-959 344.01,-945.11 393,-938.55 432.98,-935.48"/>
<polygon fill="#9a32cd" stroke="#9a32cd" points="222.22,-996.86 215.98,-1005.43 226.2,-1002.61 222.22,-996.86"/>
<text text-anchor="middle" x="358.5" y="-962" font-family="Helvetica,sans-Serif" font-size="10.00"> m_ramMonitor</text>
</g>
<!-- Node6 -->
<g id="node6" class="node">
<title>Node6</title>
<g id="a_node6"><a xlink:href="class_tayx_1_1_graphy_1_1_graphy_manager.xhtml" target="_top" xlink:title=" ">
<polygon fill="white" stroke="black" points="1031,-761.5 1031,-780.5 1175,-780.5 1175,-761.5 1031,-761.5"/>
<text text-anchor="middle" x="1103" y="-768.5" font-family="Helvetica,sans-Serif" font-size="10.00">Tayx.Graphy.GraphyManager</text>
</a>
</g>
</g>
<!-- Node4&#45;&gt;Node6 -->
<g id="edge8" class="edge">
<title>Node4&#45;&gt;Node6</title>
<path fill="none" stroke="#9a32cd" stroke-dasharray="5,2" d="M294.35,-1005.44C422.65,-990.77 662.8,-958.72 862,-906 931.05,-887.73 951.77,-887.77 1013,-851 1046.49,-830.89 1078.79,-797.17 1093.59,-780.68"/>
<polygon fill="#9a32cd" stroke="#9a32cd" points="293.72,-1001.99 284.18,-1006.59 294.51,-1008.94 293.72,-1001.99"/>
<text text-anchor="middle" x="642" y="-962" font-family="Helvetica,sans-Serif" font-size="10.00"> m_ramMonitor</text>
</g>
<!-- Node4&#45;&gt;Node18 -->
<g id="edge43" class="edge">
<title>Node4&#45;&gt;Node18</title>
<path fill="none" stroke="#9a32cd" stroke-dasharray="5,2" d="M294.24,-1017.18C488.54,-1021.21 957.51,-1027.75 1350,-1008 1356.78,-1007.66 1363.83,-1007.2 1370.88,-1006.66"/>
<polygon fill="#9a32cd" stroke="#9a32cd" points="294.15,-1013.67 284.07,-1016.96 294,-1020.67 294.15,-1013.67"/>
<text text-anchor="middle" x="777.5" y="-1024" font-family="Helvetica,sans-Serif" font-size="10.00"> m_ramMonitor</text>
</g>
<!-- Node5 -->
<g id="node5" class="node">
<title>Node5</title>
<g id="a_node5"><a xlink:href="class_tayx_1_1_graphy_1_1_g___graph_shader.xhtml" target="_top" xlink:title="This class communicates directly with the shader to draw the graphs.">
<polygon fill="white" stroke="black" points="129.5,-859.5 129.5,-878.5 274.5,-878.5 274.5,-859.5 129.5,-859.5"/>
<text text-anchor="middle" x="202" y="-866.5" font-family="Helvetica,sans-Serif" font-size="10.00">Tayx.Graphy.G_GraphShader</text>
</a>
</g>
</g>
<!-- Node5&#45;&gt;Node1 -->
<g id="edge5" class="edge">
<title>Node5&#45;&gt;Node1</title>
<path fill="none" stroke="#9a32cd" stroke-dasharray="5,2" d="M284.87,-878.96C324.48,-884.58 372.54,-892.59 415,-903 423.19,-905.01 424.97,-906.43 433,-909 448.25,-913.89 465.23,-919.13 479.45,-923.47"/>
<polygon fill="#9a32cd" stroke="#9a32cd" points="285.12,-875.46 274.73,-877.55 284.15,-882.39 285.12,-875.46"/>
<text text-anchor="middle" x="358.5" y="-928" font-family="Helvetica,sans-Serif" font-size="10.00"> m_shaderGraphAllocated</text>
<text text-anchor="middle" x="358.5" y="-917" font-family="Helvetica,sans-Serif" font-size="10.00">m_shaderGraphMono</text>
<text text-anchor="middle" x="358.5" y="-906" font-family="Helvetica,sans-Serif" font-size="10.00">m_shaderGraphReserved</text>
</g>
<!-- Node5&#45;&gt;Node14 -->
<g id="edge24" class="edge">
<title>Node5&#45;&gt;Node14</title>
<path fill="none" stroke="#9a32cd" stroke-dasharray="5,2" d="M284.95,-859.18C290.72,-858.71 296.44,-858.31 302,-858 430.65,-850.87 464.58,-856.11 591,-881 637.01,-890.06 647.45,-896.86 693,-908 913.14,-961.84 968.01,-980.84 1193,-1008 1270.34,-1017.34 1290.13,-1015.78 1368,-1018 1437.31,-1019.98 1471.03,-1062.73 1524,-1018 1560.51,-987.17 1514.14,-950.82 1542,-912 1572.61,-869.35 1602.35,-885.16 1646,-856 1673.93,-837.34 1703.59,-812.04 1721.46,-796.12"/>
<polygon fill="#9a32cd" stroke="#9a32cd" points="284.22,-855.73 274.57,-860.1 284.84,-862.71 284.22,-855.73"/>
<text text-anchor="middle" x="946.5" y="-995" font-family="Helvetica,sans-Serif" font-size="10.00"> m_shaderGraph</text>
<text text-anchor="middle" x="946.5" y="-984" font-family="Helvetica,sans-Serif" font-size="10.00">m_shaderGraphHighestValues</text>
</g>
<!-- Node5&#45;&gt;Node20 -->
<g id="edge56" class="edge">
<title>Node5&#45;&gt;Node20</title>
<path fill="none" stroke="#9a32cd" stroke-dasharray="5,2" d="M284.91,-872.33C324.33,-874.47 372.22,-877.83 415,-883 493.85,-892.52 531.65,-861.22 591,-914 611.8,-932.5 592.98,-951.23 609,-974 635.7,-1011.95 649.94,-1018.7 693,-1036 973.68,-1148.76 1066.14,-1103.63 1368,-1123 1437.19,-1127.44 1455.77,-1135.34 1524,-1123 1599.53,-1109.34 1683.14,-1070.63 1719.47,-1052.54"/>
<polygon fill="#9a32cd" stroke="#9a32cd" points="284.98,-868.83 274.81,-871.8 284.62,-875.82 284.98,-868.83"/>
<text text-anchor="middle" x="946.5" y="-1116" font-family="Helvetica,sans-Serif" font-size="10.00"> m_shaderGraph</text>
</g>
<!-- Node6&#45;&gt;Node1 -->
<g id="edge6" class="edge">
<title>Node6&#45;&gt;Node1</title>
<path fill="none" stroke="#9a32cd" stroke-dasharray="5,2" d="M1079.81,-786.25C1062.35,-797.6 1037.04,-812.69 1013,-822 991.49,-830.33 676.36,-898.08 557.72,-923.45"/>
<polygon fill="#9a32cd" stroke="#9a32cd" points="1081.78,-789.14 1088.17,-780.7 1077.91,-783.31 1081.78,-789.14"/>
<text text-anchor="middle" x="777.5" y="-896" font-family="Helvetica,sans-Serif" font-size="10.00"> m_graphyManager</text>
</g>
<!-- Node6&#45;&gt;Node8 -->
<g id="edge21" class="edge">
<title>Node6&#45;&gt;Node8</title>
<path fill="none" stroke="#9a32cd" stroke-dasharray="5,2" d="M1109.64,-751.62C1120.2,-718.96 1146.26,-653.38 1193,-621 1254.42,-578.45 1468.33,-611.83 1524,-562 1545.06,-543.15 1519.36,-517.92 1542,-501 1666.82,-407.69 1869.56,-460.14 1955.7,-488.98"/>
<polygon fill="#9a32cd" stroke="#9a32cd" points="1106.24,-750.75 1106.64,-761.33 1112.93,-752.81 1106.24,-750.75"/>
<text text-anchor="middle" x="1594" y="-526" font-family="Helvetica,sans-Serif" font-size="10.00"> m_currentModuleState</text>
<text text-anchor="middle" x="1594" y="-515" font-family="Helvetica,sans-Serif" font-size="10.00">m_graphyManager</text>
<text text-anchor="middle" x="1594" y="-504" font-family="Helvetica,sans-Serif" font-size="10.00">m_previousModuleState</text>
</g>
<!-- Node6&#45;&gt;Node12 -->
<g id="edge17" class="edge">
<title>Node6&#45;&gt;Node12</title>
<path fill="none" stroke="#9a32cd" stroke-dasharray="5,2" d="M1108.04,-751.04C1116.63,-714.04 1140.41,-635.02 1193,-596 1249.92,-553.76 1286.78,-600.04 1350,-568 1350.73,-567.63 1648.57,-283.36 1721.86,-213.41"/>
<polygon fill="#9a32cd" stroke="#9a32cd" points="1104.56,-750.57 1105.84,-761.08 1111.4,-752.06 1104.56,-750.57"/>
<text text-anchor="middle" x="1446" y="-553" font-family="Helvetica,sans-Serif" font-size="10.00"> m_graphyManager</text>
</g>
<!-- Node6&#45;&gt;Node13 -->
<g id="edge20" class="edge">
<title>Node6&#45;&gt;Node13</title>
<path fill="none" stroke="#9a32cd" stroke-dasharray="5,2" d="M1110.53,-751.68C1121.88,-721.58 1148.4,-664.52 1193,-641 1254.73,-608.45 1337.36,-617.63 1390.89,-629.17"/>
<polygon fill="#9a32cd" stroke="#9a32cd" points="1107.11,-750.84 1107.03,-761.44 1113.7,-753.21 1107.11,-750.84"/>
<text text-anchor="start" x="1205" y="-666" font-family="Helvetica,sans-Serif" font-size="10.00"> m_findAudioListenerInCamera</text>
<text text-anchor="middle" x="1271.5" y="-655" font-family="Helvetica,sans-Serif" font-size="10.00">IfNull</text>
<text text-anchor="middle" x="1271.5" y="-644" font-family="Helvetica,sans-Serif" font-size="10.00">m_graphyManager</text>
</g>
<!-- Node6&#45;&gt;Node14 -->
<g id="edge25" class="edge">
<title>Node6&#45;&gt;Node14</title>
<path fill="none" stroke="#9a32cd" stroke-dasharray="5,2" d="M1185.2,-772.28C1316.54,-774.35 1572.14,-778.38 1683.72,-780.14"/>
<polygon fill="#9a32cd" stroke="#9a32cd" points="1185.24,-768.78 1175.19,-772.12 1185.13,-775.78 1185.24,-768.78"/>
<text text-anchor="middle" x="1446" y="-780" font-family="Helvetica,sans-Serif" font-size="10.00"> m_graphyManager</text>
</g>
<!-- Node6&#45;&gt;Node15 -->
<g id="edge30" class="edge">
<title>Node6&#45;&gt;Node15</title>
<path fill="none" stroke="#9a32cd" stroke-dasharray="5,2" d="M1113.19,-790.33C1130.67,-826.27 1169.11,-901.2 1193,-917 1251.82,-955.91 1280.57,-927.62 1350,-940 1367.26,-943.08 1386.17,-946.96 1402.55,-950.48"/>
<polygon fill="#9a32cd" stroke="#9a32cd" points="1116.15,-788.41 1108.66,-780.92 1109.84,-791.45 1116.15,-788.41"/>
<text text-anchor="middle" x="1271.5" y="-943" font-family="Helvetica,sans-Serif" font-size="10.00"> m_graphyManager</text>
</g>
<!-- Node6&#45;&gt;Node16 -->
<g id="edge36" class="edge">
<title>Node6&#45;&gt;Node16</title>
<path fill="none" stroke="#9a32cd" stroke-dasharray="5,2" d="M1105.02,-751.26C1108.54,-705.21 1124.14,-590.44 1193,-535 1247.93,-490.78 1295.81,-557.13 1350,-512 1369.12,-496.08 1356.04,-480.81 1368,-459 1385.26,-427.53 1413.03,-396.02 1430.08,-378.08"/>
<polygon fill="#9a32cd" stroke="#9a32cd" points="1101.51,-751.2 1104.36,-761.4 1108.5,-751.65 1101.51,-751.2"/>
<text text-anchor="middle" x="1271.5" y="-560" font-family="Helvetica,sans-Serif" font-size="10.00"> m_currentModuleState</text>
<text text-anchor="middle" x="1271.5" y="-549" font-family="Helvetica,sans-Serif" font-size="10.00">m_graphyManager</text>
<text text-anchor="middle" x="1271.5" y="-538" font-family="Helvetica,sans-Serif" font-size="10.00">m_previousModuleState</text>
</g>
<!-- Node6&#45;&gt;Node17 -->
<g id="edge47" class="edge">
<title>Node6&#45;&gt;Node17</title>
<path fill="none" stroke="#9a32cd" stroke-dasharray="5,2" d="M1029.41,-781.6C1023.86,-782.16 1018.35,-782.64 1013,-783 954.02,-786.96 939.07,-785.32 880,-783 874.17,-782.77 868.16,-782.47 862.11,-782.11"/>
<polygon fill="#9a32cd" stroke="#9a32cd" points="1029.82,-785.08 1039.38,-780.51 1029.06,-778.12 1029.82,-785.08"/>
<text text-anchor="middle" x="946.5" y="-810" font-family="Helvetica,sans-Serif" font-size="10.00"> m_currentModuleState</text>
<text text-anchor="middle" x="946.5" y="-799" font-family="Helvetica,sans-Serif" font-size="10.00">m_graphyManager</text>
<text text-anchor="middle" x="946.5" y="-788" font-family="Helvetica,sans-Serif" font-size="10.00">m_previousModuleState</text>
</g>
<!-- Node6&#45;&gt;Node18 -->
<g id="edge45" class="edge">
<title>Node6&#45;&gt;Node18</title>
<path fill="none" stroke="#9a32cd" stroke-dasharray="5,2" d="M1115.06,-789.36C1129.82,-814.32 1156.29,-860.58 1175,-902 1184.55,-923.14 1174.99,-936.37 1193,-951 1220.37,-973.23 1315.5,-966.71 1350,-974 1358.12,-975.72 1359.98,-976.85 1368,-979 1380.94,-982.48 1395.13,-986.19 1407.76,-989.46"/>
<polygon fill="#9a32cd" stroke="#9a32cd" points="1117.97,-787.41 1109.84,-780.61 1111.95,-791 1117.97,-787.41"/>
<text text-anchor="middle" x="1271.5" y="-977" font-family="Helvetica,sans-Serif" font-size="10.00"> m_graphyManager</text>
</g>
<!-- Node6&#45;&gt;Node19 -->
<g id="edge59" class="edge">
<title>Node6&#45;&gt;Node19</title>
<path fill="none" stroke="#9a32cd" stroke-dasharray="5,2" d="M1162.04,-782.28C1172.33,-784.04 1182.96,-785.7 1193,-787 1457.03,-821.16 1772.39,-839.9 1916.97,-847.26"/>
<polygon fill="#9a32cd" stroke="#9a32cd" points="1162.36,-778.79 1151.9,-780.5 1161.15,-785.68 1162.36,-778.79"/>
<text text-anchor="middle" x="1594" y="-855" font-family="Helvetica,sans-Serif" font-size="10.00"> m_currentModuleState</text>
<text text-anchor="middle" x="1594" y="-844" font-family="Helvetica,sans-Serif" font-size="10.00">m_graphyManager</text>
<text text-anchor="middle" x="1594" y="-833" font-family="Helvetica,sans-Serif" font-size="10.00">m_previousModuleState</text>
</g>
<!-- Node6&#45;&gt;Node20 -->
<g id="edge58" class="edge">
<title>Node6&#45;&gt;Node20</title>
<path fill="none" stroke="#9a32cd" stroke-dasharray="5,2" d="M1116.84,-788.84C1132.44,-809.07 1160.7,-841.38 1193,-858 1256.02,-890.43 1280.71,-871.08 1350,-886 1359.75,-888.1 1515.59,-924.65 1524,-930 1534.66,-936.78 1532.02,-944.26 1542,-952 1593.72,-992.13 1666,-1019.83 1706.78,-1033.41"/>
<polygon fill="#9a32cd" stroke="#9a32cd" points="1119.58,-786.65 1110.78,-780.75 1113.97,-790.85 1119.58,-786.65"/>
<text text-anchor="middle" x="1446" y="-933" font-family="Helvetica,sans-Serif" font-size="10.00"> m_graphyManager</text>
</g>
<!-- Node6&#45;&gt;Node21 -->
<g id="edge64" class="edge">
<title>Node6&#45;&gt;Node21</title>
<path fill="none" stroke="#9a32cd" stroke-dasharray="5,2" d="M1121.88,-787.53C1138.83,-802.14 1165.69,-822.7 1193,-833 1236.43,-849.39 1529.92,-876.78 1667.31,-888.91"/>
<polygon fill="#9a32cd" stroke="#9a32cd" points="1123.78,-784.53 1113.97,-780.51 1119.13,-789.77 1123.78,-784.53"/>
<text text-anchor="middle" x="1446" y="-878" font-family="Helvetica,sans-Serif" font-size="10.00"> m_graphyManager</text>
</g>
<!-- Node7 -->
<g id="node7" class="node">
<title>Node7</title>
<g id="a_node7"><a xlink:href="class_tayx_1_1_graphy_1_1_utils_1_1_g___singleton.xhtml" target="_top" xlink:title=" ">
<polygon fill="white" stroke="black" points="699,-727.5 699,-746.5 856,-746.5 856,-727.5 699,-727.5"/>
<text text-anchor="middle" x="777.5" y="-734.5" font-family="Helvetica,sans-Serif" font-size="10.00">G_Singleton&lt; GraphyManager &gt;</text>
</a>
</g>
</g>
<!-- Node7&#45;&gt;Node6 -->
<g id="edge7" class="edge">
<title>Node7&#45;&gt;Node6</title>
<path fill="none" stroke="midnightblue" d="M866.54,-746.25C918.14,-751.68 982.48,-758.44 1030.85,-763.52"/>
<polygon fill="midnightblue" stroke="midnightblue" points="866.71,-742.75 856.4,-745.19 865.98,-749.71 866.71,-742.75"/>
</g>
<!-- Node8&#45;&gt;Node6 -->
<g id="edge9" class="edge">
<title>Node8&#45;&gt;Node6</title>
<path fill="none" stroke="#9a32cd" stroke-dasharray="5,2" d="M1966.45,-524.71C1931.37,-547.98 1870.88,-585.32 1814,-607 1789.35,-616.39 1375.88,-702.88 1350,-708 1280.47,-721.76 1261.2,-716.71 1193,-736 1169.03,-742.78 1142.6,-753.63 1124.81,-761.45"/>
<polygon fill="#9a32cd" stroke="#9a32cd" points="1968.44,-527.59 1974.81,-519.12 1964.55,-521.77 1968.44,-527.59"/>
<text text-anchor="middle" x="1594" y="-671" font-family="Helvetica,sans-Serif" font-size="10.00"> m_audioManager</text>
</g>
<!-- Node9 -->
<g id="node9" class="node">
<title>Node9</title>
<g id="a_node9"><a xlink:href="interface_tayx_1_1_graphy_1_1_u_i_1_1_i_movable.xhtml" target="_top" xlink:title=" ">
<polygon fill="white" stroke="black" points="485,-396.5 485,-415.5 539,-415.5 539,-396.5 485,-396.5"/>
<text text-anchor="middle" x="512" y="-403.5" font-family="Helvetica,sans-Serif" font-size="10.00">IMovable</text>
</a>
</g>
</g>
<!-- Node9&#45;&gt;Node8 -->
<g id="edge11" class="edge">
<title>Node9&#45;&gt;Node8</title>
<path fill="none" stroke="midnightblue" d="M531.39,-389.11C612.01,-316.94 944.63,-38 1270.5,-38 1270.5,-38 1270.5,-38 1740,-38 1950.79,-38 1989.6,-408.45 1995.54,-488.76"/>
<polygon fill="midnightblue" stroke="midnightblue" points="528.67,-386.86 523.6,-396.16 533.37,-392.05 528.67,-386.86"/>
</g>
<!-- Node9&#45;&gt;Node16 -->
<g id="edge33" class="edge">
<title>Node9&#45;&gt;Node16</title>
<path fill="none" stroke="midnightblue" d="M549.68,-404.31C691.1,-397.78 1201.97,-374.21 1381.82,-365.91"/>
<polygon fill="midnightblue" stroke="midnightblue" points="549.22,-400.83 539.39,-404.78 549.54,-407.82 549.22,-400.83"/>
</g>
<!-- Node9&#45;&gt;Node17 -->
<g id="edge39" class="edge">
<title>Node9&#45;&gt;Node17</title>
<path fill="none" stroke="midnightblue" d="M517.01,-425.73C530.28,-485.72 578.63,-667.28 693,-756 697.93,-759.83 703.5,-762.91 709.35,-765.39"/>
<polygon fill="midnightblue" stroke="midnightblue" points="520.38,-424.75 514.87,-415.7 513.53,-426.21 520.38,-424.75"/>
</g>
<!-- Node9&#45;&gt;Node19 -->
<g id="edge51" class="edge">
<title>Node9&#45;&gt;Node19</title>
<path fill="none" stroke="midnightblue" d="M549.43,-406.04C709.43,-406.23 1342.26,-407.42 1350,-414 1385.74,-444.38 1339.67,-480.61 1368,-518 1387.55,-543.8 1872.06,-740.04 1899,-758 1936.56,-783.05 1972.91,-823.19 1988.52,-841.43"/>
<polygon fill="midnightblue" stroke="midnightblue" points="549.17,-402.54 539.16,-406.02 549.16,-409.54 549.17,-402.54"/>
</g>
<!-- Node10 -->
<g id="node10" class="node">
<title>Node10</title>
<g id="a_node10"><a xlink:href="interface_tayx_1_1_graphy_1_1_u_i_1_1_i_modifiable_state.xhtml" target="_top" xlink:title=" ">
<polygon fill="white" stroke="black" points="469,-215.5 469,-234.5 555,-234.5 555,-215.5 469,-215.5"/>
<text text-anchor="middle" x="512" y="-222.5" font-family="Helvetica,sans-Serif" font-size="10.00">IModifiableState</text>
</a>
</g>
</g>
<!-- Node10&#45;&gt;Node8 -->
<g id="edge12" class="edge">
<title>Node10&#45;&gt;Node8</title>
<path fill="none" stroke="midnightblue" d="M519.41,-205.8C531.6,-172.05 561.26,-101.93 609,-62 669.89,-11.07 697.12,0 776.5,0 776.5,0 776.5,0 1740,0 1816.51,0 1851.76,-5.81 1899,-66 1952.99,-134.79 1987.27,-419.77 1994.89,-488.86"/>
<polygon fill="midnightblue" stroke="midnightblue" points="516.05,-204.79 516.06,-215.39 522.66,-207.1 516.05,-204.79"/>
</g>
<!-- Node10&#45;&gt;Node16 -->
<g id="edge34" class="edge">
<title>Node10&#45;&gt;Node16</title>
<path fill="none" stroke="midnightblue" d="M565.32,-230.06C697.56,-243.31 1055.62,-281.95 1350,-339 1363.03,-341.52 1376.93,-344.74 1389.98,-347.99"/>
<polygon fill="midnightblue" stroke="midnightblue" points="565.37,-226.55 555.08,-229.04 564.68,-233.52 565.37,-226.55"/>
</g>
<!-- Node10&#45;&gt;Node17 -->
<g id="edge40" class="edge">
<title>Node10&#45;&gt;Node17</title>
<path fill="none" stroke="midnightblue" d="M523,-243.47C538.81,-273.13 569.93,-333.51 591,-387 637.05,-503.93 645.04,-534.95 675,-657 685.66,-700.43 662.08,-723.69 693,-756 696.6,-759.76 700.77,-762.85 705.3,-765.37"/>
<polygon fill="midnightblue" stroke="midnightblue" points="526.07,-241.79 518.26,-234.64 519.91,-245.1 526.07,-241.79"/>
</g>
<!-- Node10&#45;&gt;Node19 -->
<g id="edge52" class="edge">
<title>Node10&#45;&gt;Node19</title>
<path fill="none" stroke="midnightblue" d="M529.25,-207.71C568,-168.45 670.52,-76 776.5,-76 776.5,-76 776.5,-76 1272.5,-76 1517,-76 1651.94,10.08 1814,-173 1837.99,-200.1 1974.54,-760.46 1994.15,-841.31"/>
<polygon fill="midnightblue" stroke="midnightblue" points="526.42,-205.61 521.97,-215.22 531.45,-210.48 526.42,-205.61"/>
</g>
<!-- Node11 -->
<g id="node11" class="node">
<title>Node11</title>
<g id="a_node11"><a xlink:title=" ">
<polygon fill="white" stroke="#bfbfbf" points="1085.5,-179.5 1085.5,-198.5 1120.5,-198.5 1120.5,-179.5 1085.5,-179.5"/>
<text text-anchor="middle" x="1103" y="-186.5" font-family="Helvetica,sans-Serif" font-size="10.00">Text</text>
</a>
</g>
</g>
<!-- Node11&#45;&gt;Node8 -->
<g id="edge13" class="edge">
<title>Node11&#45;&gt;Node8</title>
<path fill="none" stroke="#9a32cd" stroke-dasharray="5,2" d="M1130.4,-179.47C1228.64,-145.77 1579.41,-41.06 1814,-173 1938.69,-243.13 1983.36,-433.85 1993.87,-488.92"/>
<polygon fill="#9a32cd" stroke="#9a32cd" points="1128.98,-176.26 1120.69,-182.86 1131.28,-182.87 1128.98,-176.26"/>
<text text-anchor="middle" x="1594" y="-120" font-family="Helvetica,sans-Serif" font-size="10.00"> m_audioDbText</text>
</g>
<!-- Node11&#45;&gt;Node12 -->
<g id="edge16" class="edge">
<title>Node11&#45;&gt;Node12</title>
<path fill="none" stroke="#9a32cd" stroke-dasharray="5,2" d="M1130.8,-184.82C1148.42,-182.28 1172.02,-179.29 1193,-178 1262.65,-173.71 1280.25,-176.2 1350,-178 1469.18,-181.07 1608.75,-189.43 1683.74,-194.32"/>
<polygon fill="#9a32cd" stroke="#9a32cd" points="1130.05,-181.39 1120.67,-186.32 1131.08,-188.31 1130.05,-181.39"/>
<text text-anchor="middle" x="1446" y="-188" font-family="Helvetica,sans-Serif" font-size="10.00"> m_DBText</text>
</g>
<!-- Node11&#45;&gt;Node16 -->
<g id="edge35" class="edge">
<title>Node11&#45;&gt;Node16</title>
<path fill="none" stroke="#9a32cd" stroke-dasharray="5,2" d="M1130.53,-192.26C1193.31,-200.01 1346.04,-219.22 1350,-223 1381.42,-252.95 1342.83,-283.63 1368,-319 1376.93,-331.54 1390.63,-341 1404.01,-347.87"/>
<polygon fill="#9a32cd" stroke="#9a32cd" points="1130.94,-188.78 1120.59,-191.03 1130.08,-195.73 1130.94,-188.78"/>
<text text-anchor="middle" x="1271.5" y="-303" font-family="Helvetica,sans-Serif" font-size="10.00"> m_gameWindowResolutionText</text>
<text text-anchor="middle" x="1271.5" y="-292" font-family="Helvetica,sans-Serif" font-size="10.00">m_graphicsDeviceNameText</text>
<text text-anchor="middle" x="1271.5" y="-281" font-family="Helvetica,sans-Serif" font-size="10.00">m_graphicsDeviceVersionText</text>
<text text-anchor="middle" x="1271.5" y="-270" font-family="Helvetica,sans-Serif" font-size="10.00">m_graphicsMemorySizeText</text>
<text text-anchor="middle" x="1271.5" y="-259" font-family="Helvetica,sans-Serif" font-size="10.00">m_operatingSystemText</text>
<text text-anchor="middle" x="1271.5" y="-248" font-family="Helvetica,sans-Serif" font-size="10.00">m_processorTypeText</text>
<text text-anchor="middle" x="1271.5" y="-237" font-family="Helvetica,sans-Serif" font-size="10.00">m_screenResolutionText</text>
<text text-anchor="middle" x="1271.5" y="-226" font-family="Helvetica,sans-Serif" font-size="10.00">m_systemMemoryText</text>
</g>
<!-- Node11&#45;&gt;Node18 -->
<g id="edge44" class="edge">
<title>Node11&#45;&gt;Node18</title>
<path fill="none" stroke="#9a32cd" stroke-dasharray="5,2" d="M1104.27,-208.84C1106.1,-257.8 1118.21,-384.73 1193,-445 1247.73,-489.1 1302.47,-412.22 1350,-464 1388.72,-506.18 1332.18,-934.33 1368,-979 1371.37,-983.2 1375.5,-986.59 1380.08,-989.31"/>
<polygon fill="#9a32cd" stroke="#9a32cd" points="1107.76,-208.55 1104,-198.65 1100.77,-208.74 1107.76,-208.55"/>
<text text-anchor="start" x="1193" y="-500" font-family="Helvetica,sans-Serif" font-size="10.00"> m_allocatedSystemMemorySize</text>
<text text-anchor="middle" x="1271.5" y="-489" font-family="Helvetica,sans-Serif" font-size="10.00">Text</text>
<text text-anchor="middle" x="1271.5" y="-478" font-family="Helvetica,sans-Serif" font-size="10.00">m_monoSystemMemorySizeText</text>
<text text-anchor="middle" x="1271.5" y="-467" font-family="Helvetica,sans-Serif" font-size="10.00">m_reservedSystemMemorySizeText</text>
</g>
<!-- Node11&#45;&gt;Node21 -->
<g id="edge63" class="edge">
<title>Node11&#45;&gt;Node21</title>
<path fill="none" stroke="#9a32cd" stroke-dasharray="5,2" d="M1130.72,-187.31C1176.41,-185.12 1272.18,-183.63 1350,-203 1432.6,-223.55 1475.87,-212.8 1524,-283 1560.39,-336.07 1510.92,-515.66 1542,-572 1569.53,-621.9 1617.22,-597.81 1646,-647 1681.91,-708.38 1636.1,-740.58 1664,-806 1678.35,-839.64 1709.7,-870.43 1726.62,-885.42"/>
<polygon fill="#9a32cd" stroke="#9a32cd" points="1130.53,-183.81 1120.73,-187.84 1130.9,-190.8 1130.53,-183.81"/>
<text text-anchor="middle" x="1446" y="-330" font-family="Helvetica,sans-Serif" font-size="10.00"> m_avgFpsText</text>
<text text-anchor="middle" x="1446" y="-319" font-family="Helvetica,sans-Serif" font-size="10.00">m_fpsText</text>
<text text-anchor="middle" x="1446" y="-308" font-family="Helvetica,sans-Serif" font-size="10.00">m_maxFpsText</text>
<text text-anchor="middle" x="1446" y="-297" font-family="Helvetica,sans-Serif" font-size="10.00">m_minFpsText</text>
<text text-anchor="middle" x="1446" y="-286" font-family="Helvetica,sans-Serif" font-size="10.00">m_msText</text>
</g>
<!-- Node12&#45;&gt;Node8 -->
<g id="edge14" class="edge">
<title>Node12&#45;&gt;Node8</title>
<path fill="none" stroke="#9a32cd" stroke-dasharray="5,2" d="M1759.19,-220.9C1809.08,-280.41 1941.88,-438.84 1983.7,-488.73"/>
<polygon fill="#9a32cd" stroke="#9a32cd" points="1761.83,-218.59 1752.72,-213.17 1756.46,-223.09 1761.83,-218.59"/>
<text text-anchor="middle" x="1865.5" y="-391" font-family="Helvetica,sans-Serif" font-size="10.00"> m_audioText</text>
</g>
<!-- Node13&#45;&gt;Node6 -->
<g id="edge48" class="edge">
<title>Node13&#45;&gt;Node6</title>
<path fill="none" stroke="#9a32cd" stroke-dasharray="5,2" d="M1392.59,-662.2C1378.85,-666.52 1363.97,-670.79 1350,-674 1281.27,-689.78 1257.41,-668.27 1193,-697 1158.5,-712.39 1126.67,-745.08 1112.2,-761.37"/>
<polygon fill="#9a32cd" stroke="#9a32cd" points="1393.91,-665.45 1402.37,-659.07 1391.78,-658.79 1393.91,-665.45"/>
<text text-anchor="middle" x="1271.5" y="-700" font-family="Helvetica,sans-Serif" font-size="10.00"> m_audioMonitor</text>
</g>
<!-- Node13&#45;&gt;Node8 -->
<g id="edge27" class="edge">
<title>Node13&#45;&gt;Node8</title>
<path fill="none" stroke="#9a32cd" stroke-dasharray="5,2" d="M1511.32,-629.28C1550.35,-620.23 1601.12,-608.25 1646,-597 1751.19,-570.63 1873.51,-537.64 1942.28,-518.88"/>
<polygon fill="#9a32cd" stroke="#9a32cd" points="1510.11,-625.97 1501.15,-631.63 1511.68,-632.79 1510.11,-625.97"/>
<text text-anchor="middle" x="1739" y="-595" font-family="Helvetica,sans-Serif" font-size="10.00"> m_audioMonitor</text>
</g>
<!-- Node13&#45;&gt;Node12 -->
<g id="edge18" class="edge">
<title>Node13&#45;&gt;Node12</title>
<path fill="none" stroke="#9a32cd" stroke-dasharray="5,2" d="M1478.48,-623.51C1496.73,-611.96 1520.32,-597.57 1542,-586 1586.91,-562.03 1613.15,-576.89 1646,-538 1731.03,-437.32 1738.1,-265.21 1738.21,-213.28"/>
<polygon fill="#9a32cd" stroke="#9a32cd" points="1476.54,-620.6 1469.99,-628.93 1480.3,-626.51 1476.54,-620.6"/>
<text text-anchor="middle" x="1594" y="-589" font-family="Helvetica,sans-Serif" font-size="10.00"> m_audioMonitor</text>
</g>
<!-- Node13&#45;&gt;Node14 -->
<g id="edge26" class="edge">
<title>Node13&#45;&gt;Node14</title>
<path fill="none" stroke="#9a32cd" stroke-dasharray="5,2" d="M1491.27,-662.87C1507.09,-669.18 1525.17,-675.89 1542,-681 1587.3,-694.74 1603.52,-683.1 1646,-704 1677.58,-719.54 1707.56,-748.12 1724.29,-765.75"/>
<polygon fill="#9a32cd" stroke="#9a32cd" points="1492.32,-659.52 1481.74,-659.01 1489.69,-666.01 1492.32,-659.52"/>
<text text-anchor="middle" x="1594" y="-707" font-family="Helvetica,sans-Serif" font-size="10.00"> m_audioMonitor</text>
</g>
<!-- Node14&#45;&gt;Node8 -->
<g id="edge22" class="edge">
<title>Node14&#45;&gt;Node8</title>
<path fill="none" stroke="#9a32cd" stroke-dasharray="5,2" d="M1771.85,-760.15C1805.87,-736.9 1860.11,-696.88 1899,-654 1939.06,-609.83 1973.87,-547.54 1988.78,-519.15"/>
<polygon fill="#9a32cd" stroke="#9a32cd" points="1769.57,-757.47 1763.25,-765.97 1773.49,-763.27 1769.57,-757.47"/>
<text text-anchor="middle" x="1865.5" y="-718" font-family="Helvetica,sans-Serif" font-size="10.00"> m_audioGraph</text>
</g>
<!-- Node15&#45;&gt;Node6 -->
<g id="edge28" class="edge">
<title>Node15&#45;&gt;Node6</title>
<path fill="none" stroke="#9a32cd" stroke-dasharray="5,2" d="M1388.61,-946.88C1381.25,-943.72 1374.15,-939.82 1368,-935 1356.06,-925.64 1362.69,-914.32 1350,-906 1291.03,-867.33 1254.12,-918.19 1193,-883 1149.52,-857.97 1119.24,-802.71 1108.41,-780.51"/>
<polygon fill="#9a32cd" stroke="#9a32cd" points="1387.42,-950.17 1398.01,-950.49 1389.93,-943.64 1387.42,-950.17"/>
<text text-anchor="middle" x="1271.5" y="-909" font-family="Helvetica,sans-Serif" font-size="10.00"> m_fpsMonitor</text>
</g>
<!-- Node15&#45;&gt;Node19 -->
<g id="edge53" class="edge">
<title>Node15&#45;&gt;Node19</title>
<path fill="none" stroke="#9a32cd" stroke-dasharray="5,2" d="M1534.44,-959.92C1569.28,-959 1609.65,-956.8 1646,-952 1760.47,-936.88 1789.56,-929.81 1899,-893 1926.6,-883.72 1957.27,-869.89 1976.71,-860.67"/>
<polygon fill="#9a32cd" stroke="#9a32cd" points="1534.21,-956.43 1524.3,-960.16 1534.38,-963.42 1534.21,-956.43"/>
<text text-anchor="middle" x="1739" y="-952" font-family="Helvetica,sans-Serif" font-size="10.00"> m_fpsMonitor</text>
</g>
<!-- Node15&#45;&gt;Node20 -->
<g id="edge57" class="edge">
<title>Node15&#45;&gt;Node20</title>
<path fill="none" stroke="#9a32cd" stroke-dasharray="5,2" d="M1515.62,-974.19C1518.58,-975.92 1521.39,-977.84 1524,-980 1538.4,-991.91 1526.87,-1007.03 1542,-1018 1576.71,-1043.18 1624.25,-1049.73 1663.82,-1049.84"/>
<polygon fill="#9a32cd" stroke="#9a32cd" points="1516.9,-970.92 1506.39,-969.62 1513.8,-977.19 1516.9,-970.92"/>
<text text-anchor="middle" x="1594" y="-1052" font-family="Helvetica,sans-Serif" font-size="10.00"> m_fpsMonitor</text>
</g>
<!-- Node15&#45;&gt;Node21 -->
<g id="edge62" class="edge">
<title>Node15&#45;&gt;Node21</title>
<path fill="none" stroke="#9a32cd" stroke-dasharray="5,2" d="M1499.71,-948.23C1555.76,-935.71 1643.34,-916.14 1695.26,-904.55"/>
<polygon fill="#9a32cd" stroke="#9a32cd" points="1498.62,-944.88 1489.63,-950.48 1500.15,-951.71 1498.62,-944.88"/>
<text text-anchor="middle" x="1594" y="-940" font-family="Helvetica,sans-Serif" font-size="10.00"> m_fpsMonitor</text>
</g>
<!-- Node16&#45;&gt;Node6 -->
<g id="edge31" class="edge">
<title>Node16&#45;&gt;Node6</title>
<path fill="none" stroke="#9a32cd" stroke-dasharray="5,2" d="M1380.45,-380.77C1306.35,-401.23 1194.7,-432.27 1193,-434 1144.73,-483.07 1111.97,-711.07 1105.27,-761.22"/>
<polygon fill="#9a32cd" stroke="#9a32cd" points="1381.48,-384.12 1390.19,-378.08 1379.62,-377.37 1381.48,-384.12"/>
<text text-anchor="middle" x="1271.5" y="-437" font-family="Helvetica,sans-Serif" font-size="10.00"> m_advancedData</text>
</g>
<!-- Node17&#45;&gt;Node6 -->
<g id="edge37" class="edge">
<title>Node17&#45;&gt;Node6</title>
<path fill="none" stroke="#9a32cd" stroke-dasharray="5,2" d="M872.27,-772.14C874.87,-772.09 877.46,-772.04 880,-772 930.29,-771.14 987,-770.9 1030.51,-770.87"/>
<polygon fill="#9a32cd" stroke="#9a32cd" points="872.06,-768.65 862.13,-772.36 872.21,-775.65 872.06,-768.65"/>
<text text-anchor="middle" x="946.5" y="-775" font-family="Helvetica,sans-Serif" font-size="10.00"> m_ramManager</text>
</g>
<!-- Node18&#45;&gt;Node17 -->
<g id="edge41" class="edge">
<title>Node18&#45;&gt;Node17</title>
<path fill="none" stroke="#9a32cd" stroke-dasharray="5,2" d="M1360.56,-1003.34C1298.15,-1004.9 1219.61,-1002.89 1193,-985 1177.49,-974.57 1188.49,-959.94 1175,-947 1072.24,-848.43 1010.18,-879.7 880,-822 851.59,-809.41 819.05,-794.2 798.63,-784.56"/>
<polygon fill="#9a32cd" stroke="#9a32cd" points="1360.92,-1006.83 1370.82,-1003.05 1360.72,-999.84 1360.92,-1006.83"/>
<text text-anchor="middle" x="1103" y="-950" font-family="Helvetica,sans-Serif" font-size="10.00"> m_ramText</text>
</g>
<!-- Node19&#45;&gt;Node6 -->
<g id="edge49" class="edge">
<title>Node19&#45;&gt;Node6</title>
<path fill="none" stroke="#9a32cd" stroke-dasharray="5,2" d="M1974.82,-835.43C1941.95,-812.89 1876.69,-772.2 1814,-757 1572.27,-698.4 1270.58,-740.86 1153.57,-761.49"/>
<polygon fill="#9a32cd" stroke="#9a32cd" points="1973,-838.43 1983.2,-841.27 1977,-832.68 1973,-838.43"/>
<text text-anchor="middle" x="1594" y="-735" font-family="Helvetica,sans-Serif" font-size="10.00"> m_fpsManager</text>
</g>
<!-- Node20&#45;&gt;Node19 -->
<g id="edge54" class="edge">
<title>Node20&#45;&gt;Node19</title>
<path fill="none" stroke="#9a32cd" stroke-dasharray="5,2" d="M1824.36,-1043.43C1850.1,-1040.12 1877.3,-1032.82 1899,-1018 1957.78,-977.86 1986.07,-889.68 1994.06,-860.55"/>
<polygon fill="#9a32cd" stroke="#9a32cd" points="1823.76,-1039.98 1814.2,-1044.55 1824.52,-1046.94 1823.76,-1039.98"/>
<text text-anchor="middle" x="1865.5" y="-1044" font-family="Helvetica,sans-Serif" font-size="10.00"> m_fpsGraph</text>
</g>
<!-- Node21&#45;&gt;Node19 -->
<g id="edge60" class="edge">
<title>Node21&#45;&gt;Node19</title>
<path fill="none" stroke="#9a32cd" stroke-dasharray="5,2" d="M1805.76,-883.72C1847.62,-876.54 1901.23,-867.34 1940.95,-860.53"/>
<polygon fill="#9a32cd" stroke="#9a32cd" points="1804.92,-880.31 1795.66,-885.45 1806.1,-887.21 1804.92,-880.31"/>
<text text-anchor="middle" x="1865.5" y="-881" font-family="Helvetica,sans-Serif" font-size="10.00"> m_fpsText</text>
</g>
</g>
</svg>
