<?xml version="1.0" encoding="UTF-8" standalone="no"?>
<!DOCTYPE svg PUBLIC "-//W3C//DTD SVG 1.1//EN"
 "http://www.w3.org/Graphics/SVG/1.1/DTD/svg11.dtd">
<!-- Generated by graphviz version 2.47.3 (20210619.1520)
 -->
<!-- Title: AbilityIndicator.GetDirection Pages: 1 -->
<svg width="509pt" height="66pt"
 viewBox="0.00 0.00 509.00 66.00" xmlns="http://www.w3.org/2000/svg" xmlns:xlink="http://www.w3.org/1999/xlink">
<g id="graph0" class="graph" transform="scale(1 1) rotate(0) translate(4 62)">
<title>AbilityIndicator.GetDirection</title>
<polygon fill="white" stroke="transparent" points="-4,4 -4,-62 505,-62 505,4 -4,4"/>
<!-- Node1 -->
<g id="node1" class="node">
<title>Node1</title>
<g id="a_node1"><a xlink:title=" ">
<polygon fill="#bfbfbf" stroke="black" points="364,-19.5 364,-38.5 501,-38.5 501,-19.5 364,-19.5"/>
<text text-anchor="middle" x="432.5" y="-26.5" font-family="Helvetica,sans-Serif" font-size="10.00">AbilityIndicator.GetDirection</text>
</a>
</g>
</g>
<!-- Node2 -->
<g id="node2" class="node">
<title>Node2</title>
<g id="a_node2"><a xlink:href="class_ability_cooldown.xhtml#a24d10146f84157eecd34133535f98c0b" target="_top" xlink:title=" ">
<polygon fill="white" stroke="black" points="171,-19.5 171,-38.5 328,-38.5 328,-19.5 171,-19.5"/>
<text text-anchor="middle" x="249.5" y="-26.5" font-family="Helvetica,sans-Serif" font-size="10.00">AbilityCooldown.ButtonTriggered</text>
</a>
</g>
</g>
<!-- Node1&#45;&gt;Node2 -->
<g id="edge1" class="edge">
<title>Node1&#45;&gt;Node2</title>
<path fill="none" stroke="midnightblue" d="M353.63,-29C345.18,-29 336.57,-29 328.12,-29"/>
<polygon fill="midnightblue" stroke="midnightblue" points="353.84,-32.5 363.84,-29 353.84,-25.5 353.84,-32.5"/>
</g>
<!-- Node3 -->
<g id="node3" class="node">
<title>Node3</title>
<g id="a_node3"><a xlink:href="class_ability_indicator.xhtml#a4bf84483d8c8507ea690e7c814d8431a" target="_top" xlink:title=" ">
<polygon fill="white" stroke="black" points="0,-38.5 0,-57.5 135,-57.5 135,-38.5 0,-38.5"/>
<text text-anchor="middle" x="67.5" y="-45.5" font-family="Helvetica,sans-Serif" font-size="10.00">AbilityIndicator.SetIndicator</text>
</a>
</g>
</g>
<!-- Node2&#45;&gt;Node3 -->
<g id="edge2" class="edge">
<title>Node2&#45;&gt;Node3</title>
<path fill="none" stroke="midnightblue" d="M160.77,-38.26C152.15,-39.17 143.51,-40.08 135.15,-40.96"/>
<polygon fill="midnightblue" stroke="midnightblue" points="161.28,-41.73 170.86,-37.2 160.55,-34.76 161.28,-41.73"/>
</g>
<!-- Node4 -->
<g id="node4" class="node">
<title>Node4</title>
<g id="a_node4"><a xlink:href="class_ability_cooldown.xhtml#a0a1223f783a3c342413172a5797fa597" target="_top" xlink:title=" ">
<polygon fill="white" stroke="black" points="8,-0.5 8,-19.5 127,-19.5 127,-0.5 8,-0.5"/>
<text text-anchor="middle" x="67.5" y="-7.5" font-family="Helvetica,sans-Serif" font-size="10.00">AbilityCooldown.Update</text>
</a>
</g>
</g>
<!-- Node2&#45;&gt;Node4 -->
<g id="edge3" class="edge">
<title>Node2&#45;&gt;Node4</title>
<path fill="none" stroke="midnightblue" d="M160.85,-19.75C149.42,-18.54 137.95,-17.33 127.16,-16.19"/>
<polygon fill="midnightblue" stroke="midnightblue" points="160.55,-23.24 170.86,-20.8 161.28,-16.27 160.55,-23.24"/>
</g>
</g>
</svg>
