<?xml version="1.0" encoding="UTF-8" standalone="no"?>
<!DOCTYPE svg PUBLIC "-//W3C//DTD SVG 1.1//EN"
 "http://www.w3.org/Graphics/SVG/1.1/DTD/svg11.dtd">
<!-- Generated by graphviz version 2.47.3 (20210619.1520)
 -->
<!-- Title: PlayerUIController.ResetLerp Pages: 1 -->
<svg width="1311pt" height="170pt"
 viewBox="0.00 0.00 1311.00 170.00" xmlns="http://www.w3.org/2000/svg" xmlns:xlink="http://www.w3.org/1999/xlink">
<g id="graph0" class="graph" transform="scale(1 1) rotate(0) translate(4 166)">
<title>PlayerUIController.ResetLerp</title>
<!-- Node1 -->
<g id="node1" class="node">
<title>Node1</title>
<g id="a_node1"><a xlink:title="When you heal HP, we will reset the lerped bar">
<polygon fill="#bfbfbf" stroke="black" points="1161,-72.5 1161,-91.5 1303,-91.5 1303,-72.5 1161,-72.5"/>
<text text-anchor="middle" x="1232" y="-79.5" font-family="Helvetica,sans-Serif" font-size="10.00">PlayerUIController.ResetLerp</text>
</a>
</g>
</g>
<!-- Node2 -->
<g id="node2" class="node">
<title>Node2</title>
<g id="a_node2"><a xlink:href="class_player_u_i_controller.html#aca577b724c1f3f2ed54ad1165a7842c2" target="_top" xlink:title="Sets the current HP value to the Image.">
<polygon fill="none" stroke="black" points="997,-100 997,-130 1125,-130 1125,-100 997,-100"/>
<text text-anchor="start" x="1005" y="-118" font-family="Helvetica,sans-Serif" font-size="10.00">PlayerUIController.Update</text>
<text text-anchor="middle" x="1061" y="-107" font-family="Helvetica,sans-Serif" font-size="10.00">CurrentHP</text>
</a>
</g>
</g>
<!-- Node1&#45;&gt;Node2 -->
<g id="edge1" class="edge">
<title>Node1&#45;&gt;Node2</title>
<path fill="none" stroke="midnightblue" d="M1171.89,-93.54C1156.81,-96.49 1140.54,-99.66 1125.26,-102.65"/>
<polygon fill="midnightblue" stroke="midnightblue" points="1172.97,-96.9 1182.12,-91.54 1171.63,-90.03 1172.97,-96.9"/>
</g>
<!-- Node10 -->
<g id="node10" class="node">
<title>Node10</title>
<g id="a_node10"><a xlink:href="class_player_u_i_controller.html#aacc9f1b78d9e1adab16f8fc2ec246dfb" target="_top" xlink:title=" ">
<polygon fill="none" stroke="black" points="997,-43 997,-73 1125,-73 1125,-43 997,-43"/>
<text text-anchor="start" x="1005" y="-61" font-family="Helvetica,sans-Serif" font-size="10.00">PlayerUIController.Update</text>
<text text-anchor="middle" x="1061" y="-50" font-family="Helvetica,sans-Serif" font-size="10.00">MaxHP</text>
</a>
</g>
</g>
<!-- Node1&#45;&gt;Node10 -->
<g id="edge9" class="edge">
<title>Node1&#45;&gt;Node10</title>
<path fill="none" stroke="midnightblue" d="M1153.81,-71.04C1144.23,-69.68 1134.53,-68.3 1125.2,-66.98"/>
<polygon fill="midnightblue" stroke="midnightblue" points="1153.33,-74.5 1163.72,-72.45 1154.31,-67.57 1153.33,-74.5"/>
</g>
<!-- Node3 -->
<g id="node3" class="node">
<title>Node3</title>
<g id="a_node3"><a xlink:href="class_player_stats.html#a6542a649dfb0cccc9fe329c83024e3ed" target="_top" xlink:title=" ">
<polygon fill="none" stroke="black" points="135,-95.5 135,-114.5 281,-114.5 281,-95.5 135,-95.5"/>
<text text-anchor="middle" x="208" y="-102.5" font-family="Helvetica,sans-Serif" font-size="10.00">PlayerStats.DealDamageRPC</text>
</a>
</g>
</g>
<!-- Node2&#45;&gt;Node3 -->
<g id="edge2" class="edge">
<title>Node2&#45;&gt;Node3</title>
<path fill="none" stroke="midnightblue" d="M1003.73,-132.96C989.88,-136.81 975,-140.47 961,-143 858.53,-161.48 831.62,-162 727.5,-162 727.5,-162 727.5,-162 550,-162 436.26,-162 304.06,-130.77 243.05,-114.54"/>
<polygon fill="midnightblue" stroke="midnightblue" points="1004.95,-136.25 1013.6,-130.14 1003.02,-129.52 1004.95,-136.25"/>
</g>
<!-- Node4 -->
<g id="node4" class="node">
<title>Node4</title>
<g id="a_node4"><a xlink:href="class_player_stats.html#ae2c6a9d91ac8ff99b7f0dc32079f1931" target="_top" xlink:title=" ">
<polygon fill="none" stroke="black" points="839.5,-114.5 839.5,-133.5 949.5,-133.5 949.5,-114.5 839.5,-114.5"/>
<text text-anchor="middle" x="894.5" y="-121.5" font-family="Helvetica,sans-Serif" font-size="10.00">PlayerStats.HealRPC</text>
</a>
</g>
</g>
<!-- Node2&#45;&gt;Node4 -->
<g id="edge3" class="edge">
<title>Node2&#45;&gt;Node4</title>
<path fill="none" stroke="midnightblue" d="M986.53,-119.02C974.11,-119.7 961.43,-120.39 949.62,-121.04"/>
<polygon fill="midnightblue" stroke="midnightblue" points="987.08,-122.5 996.87,-118.45 986.69,-115.51 987.08,-122.5"/>
</g>
<!-- Node8 -->
<g id="node8" class="node">
<title>Node8</title>
<g id="a_node8"><a xlink:href="class_player_stats.html#a75c908d1b8c5eb0b414db7ab99ceab9e" target="_top" xlink:title="Called whenever the player levels up.">
<polygon fill="none" stroke="black" points="842.5,-76.5 842.5,-95.5 946.5,-95.5 946.5,-76.5 842.5,-76.5"/>
<text text-anchor="middle" x="894.5" y="-83.5" font-family="Helvetica,sans-Serif" font-size="10.00">PlayerStats.LevelUp</text>
</a>
</g>
</g>
<!-- Node2&#45;&gt;Node8 -->
<g id="edge7" class="edge">
<title>Node2&#45;&gt;Node8</title>
<path fill="none" stroke="midnightblue" d="M986.66,-102.07C973.18,-99.69 959.39,-97.26 946.74,-95.03"/>
<polygon fill="midnightblue" stroke="midnightblue" points="986.41,-105.58 996.87,-103.87 987.63,-98.69 986.41,-105.58"/>
</g>
<!-- Node5 -->
<g id="node5" class="node">
<title>Node5</title>
<g id="a_node5"><a xlink:href="class_player_stats.html#a27fb46ca044608f34db45eb95ac16b4c" target="_top" xlink:title="This is triggered when the player respawns.">
<polygon fill="none" stroke="black" points="671.5,-114.5 671.5,-133.5 781.5,-133.5 781.5,-114.5 671.5,-114.5"/>
<text text-anchor="middle" x="726.5" y="-121.5" font-family="Helvetica,sans-Serif" font-size="10.00">PlayerStats.Respawn</text>
</a>
</g>
</g>
<!-- Node4&#45;&gt;Node5 -->
<g id="edge4" class="edge">
<title>Node4&#45;&gt;Node5</title>
<path fill="none" stroke="midnightblue" d="M829.02,-124C813.38,-124 796.81,-124 781.69,-124"/>
<polygon fill="midnightblue" stroke="midnightblue" points="829.15,-127.5 839.15,-124 829.15,-120.5 829.15,-127.5"/>
</g>
<!-- Node6 -->
<g id="node6" class="node">
<title>Node6</title>
<g id="a_node6"><a xlink:href="class_respawn_canvas.html#aeb8465a7dc3b9f4fe6a36afc1c8bcf9a" target="_top" xlink:title=" ">
<polygon fill="none" stroke="black" points="477,-114.5 477,-133.5 625,-133.5 625,-114.5 477,-114.5"/>
<text text-anchor="middle" x="551" y="-121.5" font-family="Helvetica,sans-Serif" font-size="10.00">RespawnCanvas.BuyRespawn</text>
</a>
</g>
</g>
<!-- Node5&#45;&gt;Node6 -->
<g id="edge5" class="edge">
<title>Node5&#45;&gt;Node6</title>
<path fill="none" stroke="midnightblue" d="M661.02,-124C649.39,-124 637.18,-124 625.31,-124"/>
<polygon fill="midnightblue" stroke="midnightblue" points="661.08,-127.5 671.08,-124 661.08,-120.5 661.08,-127.5"/>
</g>
<!-- Node7 -->
<g id="node7" class="node">
<title>Node7</title>
<g id="a_node7"><a xlink:href="class_respawn_canvas.html#a272c2f78c7bfbeb481fcb4b737fe446c" target="_top" xlink:title=" ">
<polygon fill="none" stroke="black" points="490,-76.5 490,-95.5 612,-95.5 612,-76.5 490,-76.5"/>
<text text-anchor="middle" x="551" y="-83.5" font-family="Helvetica,sans-Serif" font-size="10.00">RespawnCanvas.Update</text>
</a>
</g>
</g>
<!-- Node5&#45;&gt;Node7 -->
<g id="edge6" class="edge">
<title>Node5&#45;&gt;Node7</title>
<path fill="none" stroke="midnightblue" d="M671.84,-112.25C647.31,-106.87 618.62,-100.59 595.47,-95.52"/>
<polygon fill="midnightblue" stroke="midnightblue" points="671.2,-115.69 681.72,-114.41 672.7,-108.85 671.2,-115.69"/>
</g>
<!-- Node9 -->
<g id="node9" class="node">
<title>Node9</title>
<g id="a_node9"><a xlink:href="class_player_stats.html#af74a866a9312c345f3cd03235be2f329" target="_top" xlink:title=" ">
<polygon fill="none" stroke="black" points="667,-76.5 667,-95.5 786,-95.5 786,-76.5 667,-76.5"/>
<text text-anchor="middle" x="726.5" y="-83.5" font-family="Helvetica,sans-Serif" font-size="10.00">PlayerStats.AddXpRPC</text>
</a>
</g>
</g>
<!-- Node8&#45;&gt;Node9 -->
<g id="edge8" class="edge">
<title>Node8&#45;&gt;Node9</title>
<path fill="none" stroke="midnightblue" d="M832.1,-86C817.04,-86 800.96,-86 786.04,-86"/>
<polygon fill="midnightblue" stroke="midnightblue" points="832.34,-89.5 842.34,-86 832.34,-82.5 832.34,-89.5"/>
</g>
<!-- Node11 -->
<g id="node11" class="node">
<title>Node11</title>
<g id="a_node11"><a xlink:href="class_player_u_i_controller.html#aa5b61a93967fa5ce39bfd950a9e9d584" target="_top" xlink:title="Initializes all the values into the Image and Text.">
<polygon fill="none" stroke="black" points="828,-27 828,-57 961,-57 961,-27 828,-27"/>
<text text-anchor="start" x="836" y="-45" font-family="Helvetica,sans-Serif" font-size="10.00">PlayerUIController.Initialize</text>
<text text-anchor="middle" x="894.5" y="-34" font-family="Helvetica,sans-Serif" font-size="10.00">Values</text>
</a>
</g>
</g>
<!-- Node10&#45;&gt;Node11 -->
<g id="edge10" class="edge">
<title>Node10&#45;&gt;Node11</title>
<path fill="none" stroke="midnightblue" d="M986.9,-50.89C978.34,-50.06 969.64,-49.21 961.19,-48.39"/>
<polygon fill="midnightblue" stroke="midnightblue" points="986.58,-54.38 996.87,-51.86 987.26,-47.41 986.58,-54.38"/>
</g>
<!-- Node12 -->
<g id="node12" class="node">
<title>Node12</title>
<g id="a_node12"><a xlink:href="class_player_u_i_controller.html#ab6ed746dec17fdf763bc4ec1d713db7f" target="_top" xlink:title="Initializes all the values and colors for this Player.">
<polygon fill="none" stroke="black" points="661,-32.5 661,-51.5 792,-51.5 792,-32.5 661,-32.5"/>
<text text-anchor="middle" x="726.5" y="-39.5" font-family="Helvetica,sans-Serif" font-size="10.00">PlayerUIController.Initalize</text>
</a>
</g>
</g>
<!-- Node11&#45;&gt;Node12 -->
<g id="edge11" class="edge">
<title>Node11&#45;&gt;Node12</title>
<path fill="none" stroke="midnightblue" d="M817.86,-42C809.25,-42 800.54,-42 792.09,-42"/>
<polygon fill="midnightblue" stroke="midnightblue" points="817.89,-45.5 827.89,-42 817.89,-38.5 817.89,-45.5"/>
</g>
<!-- Node13 -->
<g id="node13" class="node">
<title>Node13</title>
<g id="a_node13"><a xlink:href="class_player_stats.html#ae874ab5cbb490cbdcf3f5613b8bc2240" target="_top" xlink:title="Initialize the actual Stats of the Player.">
<polygon fill="none" stroke="black" points="498,-38.5 498,-57.5 604,-57.5 604,-38.5 498,-38.5"/>
<text text-anchor="middle" x="551" y="-45.5" font-family="Helvetica,sans-Serif" font-size="10.00">PlayerStats.Initialize</text>
</a>
</g>
</g>
<!-- Node12&#45;&gt;Node13 -->
<g id="edge12" class="edge">
<title>Node12&#45;&gt;Node13</title>
<path fill="none" stroke="midnightblue" d="M650.7,-44.59C635.03,-45.13 618.84,-45.69 604.21,-46.19"/>
<polygon fill="midnightblue" stroke="midnightblue" points="651.02,-48.08 660.9,-44.23 650.78,-41.08 651.02,-48.08"/>
</g>
<!-- Node19 -->
<g id="node19" class="node">
<title>Node19</title>
<g id="a_node19"><a xlink:href="class_mannequin_stats.html#a0cecf416149ad28539cb696fad4ae175" target="_top" xlink:title=" ">
<polygon fill="none" stroke="black" points="488.5,-0.5 488.5,-19.5 613.5,-19.5 613.5,-0.5 488.5,-0.5"/>
<text text-anchor="middle" x="551" y="-7.5" font-family="Helvetica,sans-Serif" font-size="10.00">MannequinStats.Initialize</text>
</a>
</g>
</g>
<!-- Node12&#45;&gt;Node19 -->
<g id="edge19" class="edge">
<title>Node12&#45;&gt;Node19</title>
<path fill="none" stroke="midnightblue" d="M663.82,-30.62C644.14,-26.99 622.58,-23.02 603.69,-19.53"/>
<polygon fill="midnightblue" stroke="midnightblue" points="663.45,-34.11 673.91,-32.49 664.71,-27.23 663.45,-34.11"/>
</g>
<!-- Node14 -->
<g id="node14" class="node">
<title>Node14</title>
<g id="a_node14"><a xlink:href="class_player_stats.html#a5caca2bd8f676341a2b269aea8a0f1ff" target="_top" xlink:title="Function that implements what is done when this entity dies.">
<polygon fill="none" stroke="black" points="336.5,-86.5 336.5,-105.5 421.5,-105.5 421.5,-86.5 336.5,-86.5"/>
<text text-anchor="middle" x="379" y="-93.5" font-family="Helvetica,sans-Serif" font-size="10.00">PlayerStats.Die</text>
</a>
</g>
</g>
<!-- Node13&#45;&gt;Node14 -->
<g id="edge13" class="edge">
<title>Node13&#45;&gt;Node14</title>
<path fill="none" stroke="midnightblue" d="M502.58,-60.08C494.05,-62.33 485.25,-64.69 477,-67 454.82,-73.2 429.94,-80.65 410.93,-86.44"/>
<polygon fill="midnightblue" stroke="midnightblue" points="503.63,-63.42 512.42,-57.51 501.86,-56.65 503.63,-63.42"/>
</g>
<!-- Node15 -->
<g id="node15" class="node">
<title>Node15</title>
<g id="a_node15"><a xlink:href="class_player_controller.html#a75e94e4fd555e57e55ab4b7e54024dcf" target="_top" xlink:title="Initialize the PlayerController.">
<polygon fill="none" stroke="black" points="317,-38.5 317,-57.5 441,-57.5 441,-38.5 317,-38.5"/>
<text text-anchor="middle" x="379" y="-45.5" font-family="Helvetica,sans-Serif" font-size="10.00">PlayerController.Initialize</text>
</a>
</g>
</g>
<!-- Node13&#45;&gt;Node15 -->
<g id="edge15" class="edge">
<title>Node13&#45;&gt;Node15</title>
<path fill="none" stroke="midnightblue" d="M487.35,-48C472.27,-48 456.17,-48 441.16,-48"/>
<polygon fill="midnightblue" stroke="midnightblue" points="487.61,-51.5 497.61,-48 487.61,-44.5 487.61,-51.5"/>
</g>
<!-- Node14&#45;&gt;Node3 -->
<g id="edge14" class="edge">
<title>Node14&#45;&gt;Node3</title>
<path fill="none" stroke="midnightblue" d="M326.17,-98.76C311.98,-99.52 296.33,-100.35 281.22,-101.15"/>
<polygon fill="midnightblue" stroke="midnightblue" points="326.43,-102.25 336.22,-98.22 326.05,-95.26 326.43,-102.25"/>
</g>
<!-- Node16 -->
<g id="node16" class="node">
<title>Node16</title>
<g id="a_node16"><a xlink:href="class_model_sync.html#ab8359f73ae31a7f926c80ebcd7e9444a" target="_top" xlink:title="This starts all the initialization chain for the player.">
<polygon fill="none" stroke="black" points="153,-38.5 153,-57.5 263,-57.5 263,-38.5 153,-38.5"/>
<text text-anchor="middle" x="208" y="-45.5" font-family="Helvetica,sans-Serif" font-size="10.00">ModelSync.DoEnable</text>
</a>
</g>
</g>
<!-- Node15&#45;&gt;Node16 -->
<g id="edge16" class="edge">
<title>Node15&#45;&gt;Node16</title>
<path fill="none" stroke="midnightblue" d="M306.96,-48C292.32,-48 277.13,-48 263.2,-48"/>
<polygon fill="midnightblue" stroke="midnightblue" points="306.99,-51.5 316.99,-48 306.99,-44.5 306.99,-51.5"/>
</g>
<!-- Node17 -->
<g id="node17" class="node">
<title>Node17</title>
<g id="a_node17"><a xlink:href="class_model_sync.html#a47be08ee3bbd2a173514e74da3dd65cb" target="_top" xlink:title=" ">
<polygon fill="none" stroke="black" points="5,-57.5 5,-76.5 94,-76.5 94,-57.5 5,-57.5"/>
<text text-anchor="middle" x="49.5" y="-64.5" font-family="Helvetica,sans-Serif" font-size="10.00">ModelSync.Start</text>
</a>
</g>
</g>
<!-- Node16&#45;&gt;Node17 -->
<g id="edge17" class="edge">
<title>Node16&#45;&gt;Node17</title>
<path fill="none" stroke="midnightblue" d="M142.66,-55.81C126.32,-57.79 109.15,-59.88 94.11,-61.71"/>
<polygon fill="midnightblue" stroke="midnightblue" points="143.2,-59.27 152.7,-54.59 142.35,-52.32 143.2,-59.27"/>
</g>
<!-- Node18 -->
<g id="node18" class="node">
<title>Node18</title>
<g id="a_node18"><a xlink:href="class_model_sync.html#abf63af5a901636617cb742aab24c4d6f" target="_top" xlink:title=" ">
<polygon fill="none" stroke="black" points="0,-19.5 0,-38.5 99,-38.5 99,-19.5 0,-19.5"/>
<text text-anchor="middle" x="49.5" y="-26.5" font-family="Helvetica,sans-Serif" font-size="10.00">ModelSync.Update</text>
</a>
</g>
</g>
<!-- Node16&#45;&gt;Node18 -->
<g id="edge18" class="edge">
<title>Node16&#45;&gt;Node18</title>
<path fill="none" stroke="midnightblue" d="M142.76,-40.2C128.21,-38.43 112.99,-36.59 99.21,-34.91"/>
<polygon fill="midnightblue" stroke="midnightblue" points="142.35,-43.68 152.7,-41.41 143.2,-36.73 142.35,-43.68"/>
</g>
<!-- Node20 -->
<g id="node20" class="node">
<title>Node20</title>
<g id="a_node20"><a xlink:href="class_mannequin.html#af638d1036ae3aee689fe03b43cea0df5" target="_top" xlink:title=" ">
<polygon fill="none" stroke="black" points="335,-0.5 335,-19.5 423,-19.5 423,-0.5 335,-0.5"/>
<text text-anchor="middle" x="379" y="-7.5" font-family="Helvetica,sans-Serif" font-size="10.00">Mannequin.Start</text>
</a>
</g>
</g>
<!-- Node19&#45;&gt;Node20 -->
<g id="edge20" class="edge">
<title>Node19&#45;&gt;Node20</title>
<path fill="none" stroke="midnightblue" d="M477.91,-10C459.29,-10 439.82,-10 423.19,-10"/>
<polygon fill="midnightblue" stroke="midnightblue" points="478.15,-13.5 488.15,-10 478.15,-6.5 478.15,-13.5"/>
</g>
</g>
</svg>
