<?xml version="1.0" encoding="UTF-8" standalone="no"?>
<!DOCTYPE svg PUBLIC "-//W3C//DTD SVG 1.1//EN"
 "http://www.w3.org/Graphics/SVG/1.1/DTD/svg11.dtd">
<!-- Generated by graphviz version 2.47.3 (20210619.1520)
 -->
<!-- Title: PlayerController.SetLookAtTarget Pages: 1 -->
<!--zoomable 214 -->
<svg id="main" version="1.1" xmlns="http://www.w3.org/2000/svg" xmlns:xlink="http://www.w3.org/1999/xlink" xml:space="preserve" onload="init(evt)">
<style type="text/css"><![CDATA[
.edge:hover path { stroke: red; }
.edge:hover polygon { stroke: red; fill: red; }
]]></style>
<script type="text/javascript"><![CDATA[
var edges = document.getElementsByTagName('g');
if (edges && edges.length) {
  for (var i=0;i<edges.length;i++) {
    if (edges[i].id.substr(0,4)=='edge') {
      edges[i].setAttribute('class','edge');
    }
  }
}
]]></script>
        <defs>
                <circle id="rim" cx="0" cy="0" r="7"/>
                <circle id="rim2" cx="0" cy="0" r="3.5"/>
                <g id="zoomPlus">
                        <use xlink:href="#rim" fill="#404040">
                                <set attributeName="fill" to="#808080" begin="zoomplus.mouseover" end="zoomplus.mouseout"/>
                        </use>
                        <path d="M-4,0h8M0,-4v8" fill="none" stroke="white" stroke-width="1.5" pointer-events="none"/>
                </g>
                <g id="zoomMin">
                        <use xlink:href="#rim" fill="#404040">
                                <set attributeName="fill" to="#808080" begin="zoomminus.mouseover" end="zoomminus.mouseout"/>
                        </use>
                        <path d="M-4,0h8" fill="none" stroke="white" stroke-width="1.5" pointer-events="none"/>
                </g>
                <g id="dirArrow">
                        <path fill="none" stroke="white" stroke-width="1.5" d="M0,-3.0v7 M-2.5,-0.5L0,-3.0L2.5,-0.5"/>
                </g>
               <g id="resetDef">
                       <use xlink:href="#rim2" fill="#404040">
                               <set attributeName="fill" to="#808080" begin="reset.mouseover" end="reset.mouseout"/>
                       </use>
               </g>
        </defs>

<script type="text/javascript">
var viewWidth = 1048;
var viewHeight = 214;
var sectionId = 'dynsection-6';
</script>
<script xlink:href="svgpan.js"/>
<svg id="graph" class="graph">
<g id="viewport">
<title>PlayerController.SetLookAtTarget</title>
<!-- Node1 -->
<g id="node1" class="node">
<title>Node1</title>
<g id="a_node1"><a xlink:title="The player will look at the position of this Transform.">
<polygon fill="#bfbfbf" stroke="black" points="915,-79 915,-109 1040,-109 1040,-79 915,-79"/>
<text text-anchor="start" x="923" y="-97" font-family="Helvetica,sans-Serif" font-size="10.00">PlayerController.SetLook</text>
<text text-anchor="middle" x="977.5" y="-86" font-family="Helvetica,sans-Serif" font-size="10.00">AtTarget</text>
</a>
</g>
</g>
<!-- Node2 -->
<g id="node2" class="node">
<title>Node2</title>
<g id="a_node2"><a xlink:href="class_ability_cooldown.html#a24d10146f84157eecd34133535f98c0b" target="_top" xlink:title=" ">
<polygon fill="none" stroke="black" points="171,-157.5 171,-176.5 328,-176.5 328,-157.5 171,-157.5"/>
<text text-anchor="middle" x="249.5" y="-164.5" font-family="Helvetica,sans-Serif" font-size="10.00">AbilityCooldown.ButtonTriggered</text>
</a>
</g>
</g>
<!-- Node1&#45;&gt;Node2 -->
<g id="edge1" class="edge">
<title>Node1&#45;&gt;Node2</title>
<path fill="none" stroke="midnightblue" d="M955.14,-116.13C936.81,-133.43 908.71,-156.14 879,-166 671.1,-235 402.78,-196.4 296.64,-176.52"/>
<polygon fill="midnightblue" stroke="midnightblue" points="957.64,-118.58 962.38,-109.1 952.77,-113.56 957.64,-118.58"/>
</g>
<!-- Node5 -->
<g id="node5" class="node">
<title>Node5</title>
<g id="a_node5"><a xlink:href="class_ability_cooldown.html#abe17348393bdde47c5aef87b5311593c" target="_top" xlink:title=" ">
<polygon fill="none" stroke="black" points="730.5,-126 730.5,-156 858.5,-156 858.5,-126 730.5,-126"/>
<text text-anchor="start" x="738.5" y="-144" font-family="Helvetica,sans-Serif" font-size="10.00">AbilityCooldown.OnFinish</text>
<text text-anchor="middle" x="794.5" y="-133" font-family="Helvetica,sans-Serif" font-size="10.00">Ability</text>
</a>
</g>
</g>
<!-- Node1&#45;&gt;Node5 -->
<g id="edge4" class="edge">
<title>Node1&#45;&gt;Node5</title>
<path fill="none" stroke="midnightblue" d="M909.01,-111.52C890.71,-116.28 871.06,-121.38 853.34,-125.98"/>
<polygon fill="midnightblue" stroke="midnightblue" points="909.93,-114.9 918.73,-109 908.17,-108.13 909.93,-114.9"/>
</g>
<!-- Node8 -->
<g id="node8" class="node">
<title>Node8</title>
<g id="a_node8"><a xlink:href="class_basic_attack.html#a965a4cbb50653a0b2ed02e8bf1f88433" target="_top" xlink:title=" ">
<polygon fill="none" stroke="black" points="733.5,-84.5 733.5,-103.5 855.5,-103.5 855.5,-84.5 733.5,-84.5"/>
<text text-anchor="middle" x="794.5" y="-91.5" font-family="Helvetica,sans-Serif" font-size="10.00">BasicAttack.ResetState</text>
</a>
</g>
</g>
<!-- Node1&#45;&gt;Node8 -->
<g id="edge8" class="edge">
<title>Node1&#45;&gt;Node8</title>
<path fill="none" stroke="midnightblue" d="M904.94,-94C888.61,-94 871.42,-94 855.63,-94"/>
<polygon fill="midnightblue" stroke="midnightblue" points="904.97,-97.5 914.97,-94 904.97,-90.5 904.97,-97.5"/>
</g>
<!-- Node12 -->
<g id="node12" class="node">
<title>Node12</title>
<g id="a_node12"><a xlink:href="class_basic_attack.html#a87f3e84f484126aa3caa2cffb0760566" target="_top" xlink:title=" ">
<polygon fill="none" stroke="black" points="710,-46.5 710,-65.5 879,-65.5 879,-46.5 710,-46.5"/>
<text text-anchor="middle" x="794.5" y="-53.5" font-family="Helvetica,sans-Serif" font-size="10.00">BasicAttack.ResetStateAbilityRPC</text>
</a>
</g>
</g>
<!-- Node1&#45;&gt;Node12 -->
<g id="edge13" class="edge">
<title>Node1&#45;&gt;Node12</title>
<path fill="none" stroke="midnightblue" d="M905.15,-79.02C883.49,-74.47 860.3,-69.6 840.85,-65.52"/>
<polygon fill="midnightblue" stroke="midnightblue" points="904.46,-82.45 914.97,-81.08 905.9,-75.6 904.46,-82.45"/>
</g>
<!-- Node13 -->
<g id="node13" class="node">
<title>Node13</title>
<g id="a_node13"><a xlink:href="class_basic_attack.html#a6700fa1b84e430381504535f20c2e3d8" target="_top" xlink:title=" ">
<polygon fill="none" stroke="black" points="721,-2.5 721,-21.5 868,-21.5 868,-2.5 721,-2.5"/>
<text text-anchor="middle" x="794.5" y="-9.5" font-family="Helvetica,sans-Serif" font-size="10.00">BasicAttack.StartBasicAttack</text>
</a>
</g>
</g>
<!-- Node1&#45;&gt;Node13 -->
<g id="edge14" class="edge">
<title>Node1&#45;&gt;Node13</title>
<path fill="none" stroke="midnightblue" d="M945.41,-73.25C926.74,-61.46 902.18,-47.07 879,-37 864.84,-30.85 848.71,-25.63 834.43,-21.58"/>
<polygon fill="midnightblue" stroke="midnightblue" points="943.76,-76.35 954.07,-78.8 947.54,-70.46 943.76,-76.35"/>
</g>
<!-- Node3 -->
<g id="node3" class="node">
<title>Node3</title>
<g id="a_node3"><a xlink:href="class_ability_indicator.html#a334fb70612241c8c1067bb596a4e2a26" target="_top" xlink:title=" ">
<polygon fill="none" stroke="black" points="0,-176.5 0,-195.5 135,-195.5 135,-176.5 0,-176.5"/>
<text text-anchor="middle" x="67.5" y="-183.5" font-family="Helvetica,sans-Serif" font-size="10.00">AbilityIndicator.SetIndicator</text>
</a>
</g>
</g>
<!-- Node2&#45;&gt;Node3 -->
<g id="edge2" class="edge">
<title>Node2&#45;&gt;Node3</title>
<path fill="none" stroke="midnightblue" d="M160.77,-176.26C152.15,-177.17 143.51,-178.08 135.15,-178.96"/>
<polygon fill="midnightblue" stroke="midnightblue" points="161.28,-179.73 170.86,-175.2 160.55,-172.76 161.28,-179.73"/>
</g>
<!-- Node4 -->
<g id="node4" class="node">
<title>Node4</title>
<g id="a_node4"><a xlink:href="class_ability_cooldown.html#a0a1223f783a3c342413172a5797fa597" target="_top" xlink:title=" ">
<polygon fill="none" stroke="black" points="8,-138.5 8,-157.5 127,-157.5 127,-138.5 8,-138.5"/>
<text text-anchor="middle" x="67.5" y="-145.5" font-family="Helvetica,sans-Serif" font-size="10.00">AbilityCooldown.Update</text>
</a>
</g>
</g>
<!-- Node2&#45;&gt;Node4 -->
<g id="edge3" class="edge">
<title>Node2&#45;&gt;Node4</title>
<path fill="none" stroke="midnightblue" d="M160.85,-157.75C149.42,-156.54 137.95,-155.33 127.16,-154.19"/>
<polygon fill="midnightblue" stroke="midnightblue" points="160.55,-161.24 170.86,-158.8 161.28,-154.27 160.55,-161.24"/>
</g>
<!-- Node6 -->
<g id="node6" class="node">
<title>Node6</title>
<g id="a_node6"><a xlink:href="class_player_stats.html#a4df625156bb2ae99262e81b28346ccb4" target="_top" xlink:title=" ">
<polygon fill="none" stroke="black" points="544.5,-127 544.5,-157 666.5,-157 666.5,-127 544.5,-127"/>
<text text-anchor="start" x="552.5" y="-145" font-family="Helvetica,sans-Serif" font-size="10.00">PlayerStats.BlockAbility</text>
<text text-anchor="middle" x="605.5" y="-134" font-family="Helvetica,sans-Serif" font-size="10.00">ForSeconds</text>
</a>
</g>
</g>
<!-- Node5&#45;&gt;Node6 -->
<g id="edge5" class="edge">
<title>Node5&#45;&gt;Node6</title>
<path fill="none" stroke="midnightblue" d="M720.17,-141.39C702.47,-141.49 683.76,-141.59 666.74,-141.68"/>
<polygon fill="midnightblue" stroke="midnightblue" points="720.47,-144.89 730.45,-141.34 720.43,-137.89 720.47,-144.89"/>
</g>
<!-- Node7 -->
<g id="node7" class="node">
<title>Node7</title>
<g id="a_node7"><a xlink:href="class_player_stats.html#af942d9a5150c2d4c47800335ec062ee1" target="_top" xlink:title=" ">
<polygon fill="none" stroke="black" points="364,-135.5 364,-154.5 501,-154.5 501,-135.5 364,-135.5"/>
<text text-anchor="middle" x="432.5" y="-142.5" font-family="Helvetica,sans-Serif" font-size="10.00">PlayerStats.BlockAbilityFor</text>
</a>
</g>
</g>
<!-- Node6&#45;&gt;Node7 -->
<g id="edge6" class="edge">
<title>Node6&#45;&gt;Node7</title>
<path fill="none" stroke="midnightblue" d="M533.93,-143.24C523.08,-143.43 511.9,-143.62 501.11,-143.81"/>
<polygon fill="midnightblue" stroke="midnightblue" points="534.27,-146.73 544.21,-143.06 534.15,-139.73 534.27,-146.73"/>
</g>
<!-- Node7&#45;&gt;Node2 -->
<g id="edge7" class="edge">
<title>Node7&#45;&gt;Node2</title>
<path fill="none" stroke="midnightblue" d="M353.91,-154.43C345.37,-155.47 336.67,-156.53 328.12,-157.57"/>
<polygon fill="midnightblue" stroke="midnightblue" points="354.34,-157.9 363.84,-153.22 353.5,-150.96 354.34,-157.9"/>
</g>
<!-- Node9 -->
<g id="node9" class="node">
<title>Node9</title>
<g id="a_node9"><a xlink:href="class_basic_attack.html#a5d09a3ef54dfac2ab6130195c188492e" target="_top" xlink:title=" ">
<polygon fill="none" stroke="black" points="550.5,-0.5 550.5,-19.5 660.5,-19.5 660.5,-0.5 550.5,-0.5"/>
<text text-anchor="middle" x="605.5" y="-7.5" font-family="Helvetica,sans-Serif" font-size="10.00">BasicAttack.CastRay</text>
</a>
</g>
</g>
<!-- Node8&#45;&gt;Node9 -->
<g id="edge9" class="edge">
<title>Node8&#45;&gt;Node9</title>
<path fill="none" stroke="midnightblue" d="M723.71,-82.05C718.91,-80.05 714.28,-77.72 710,-75 688.08,-61.09 695.56,-43.46 674,-29 668.24,-25.14 661.69,-22.05 655,-19.59"/>
<polygon fill="midnightblue" stroke="midnightblue" points="722.52,-85.34 733.11,-85.5 724.93,-78.77 722.52,-85.34"/>
</g>
<!-- Node10 -->
<g id="node10" class="node">
<title>Node10</title>
<g id="a_node10"><a xlink:href="class_basic_attack.html#abfcbbc50cfd92e9ca75bd41a5ad17990" target="_top" xlink:title=" ">
<polygon fill="none" stroke="black" points="380.5,-44.5 380.5,-63.5 484.5,-63.5 484.5,-44.5 380.5,-44.5"/>
<text text-anchor="middle" x="432.5" y="-51.5" font-family="Helvetica,sans-Serif" font-size="10.00">BasicAttack.Update</text>
</a>
</g>
</g>
<!-- Node8&#45;&gt;Node10 -->
<g id="edge12" class="edge">
<title>Node8&#45;&gt;Node10</title>
<path fill="none" stroke="midnightblue" d="M723.26,-93.27C671.51,-91.91 599.56,-88.31 537,-79 513.05,-75.44 486.51,-68.97 466.3,-63.51"/>
<polygon fill="midnightblue" stroke="midnightblue" points="723.25,-96.77 733.33,-93.51 723.42,-89.77 723.25,-96.77"/>
</g>
<!-- Node11 -->
<g id="node11" class="node">
<title>Node11</title>
<g id="a_node11"><a xlink:href="class_model_player_mediator.html#a67b1c82b4127b7d14e66c628fce73fb2" target="_top" xlink:title=" ">
<polygon fill="none" stroke="black" points="537,-39 537,-69 674,-69 674,-39 537,-39"/>
<text text-anchor="start" x="545" y="-57" font-family="Helvetica,sans-Serif" font-size="10.00">ModelPlayerMediator.Reset</text>
<text text-anchor="middle" x="605.5" y="-46" font-family="Helvetica,sans-Serif" font-size="10.00">BasicAttack</text>
</a>
</g>
</g>
<!-- Node8&#45;&gt;Node11 -->
<g id="edge11" class="edge">
<title>Node8&#45;&gt;Node11</title>
<path fill="none" stroke="midnightblue" d="M738.76,-82.29C718.59,-77.98 695.5,-73.04 674.32,-68.51"/>
<polygon fill="midnightblue" stroke="midnightblue" points="738.2,-85.75 748.71,-84.42 739.66,-78.9 738.2,-85.75"/>
</g>
<!-- Node9&#45;&gt;Node10 -->
<g id="edge10" class="edge">
<title>Node9&#45;&gt;Node10</title>
<path fill="none" stroke="midnightblue" d="M557.62,-22.06C530.2,-29.12 496.06,-37.9 470.53,-44.47"/>
<polygon fill="midnightblue" stroke="midnightblue" points="558.58,-25.43 567.4,-19.55 556.84,-18.65 558.58,-25.43"/>
</g>
<!-- Node13&#45;&gt;Node9 -->
<g id="edge15" class="edge">
<title>Node13&#45;&gt;Node9</title>
<path fill="none" stroke="midnightblue" d="M710.51,-11.11C693.64,-10.93 676.32,-10.75 660.76,-10.58"/>
<polygon fill="midnightblue" stroke="midnightblue" points="710.9,-14.62 720.93,-11.22 710.97,-7.62 710.9,-14.62"/>
</g>
</g>
</svg>
        <g id="navigator" transform="translate(0 0)" fill="#404254">
                <rect fill="#f2f5e9" fill-opacity="0.5" stroke="#606060" stroke-width=".5" x="0" y="0" width="60" height="60"/>
                <use id="zoomplus" xlink:href="#zoomPlus" x="17" y="9" onmousedown="handleZoom(evt,'in')"/>
                <use id="zoomminus" xlink:href="#zoomMin" x="42" y="9" onmousedown="handleZoom(evt,'out')"/>
                <use id="reset" xlink:href="#resetDef" x="30" y="36" onmousedown="handleReset()"/>
                <g id="arrowUp" xlink:href="#dirArrow" transform="translate(30 24)" onmousedown="handlePan(0,-1)">
                  <use xlink:href="#rim" fill="#404040">
                        <set attributeName="fill" to="#808080" begin="arrowUp.mouseover" end="arrowUp.mouseout"/>
                  </use>
                  <path fill="none" stroke="white" stroke-width="1.5" d="M0,-3.0v7 M-2.5,-0.5L0,-3.0L2.5,-0.5"/>
                </g>
                <g id="arrowRight" xlink:href="#dirArrow" transform="rotate(90) translate(36 -43)" onmousedown="handlePan(1,0)">
                  <use xlink:href="#rim" fill="#404040">
                        <set attributeName="fill" to="#808080" begin="arrowRight.mouseover" end="arrowRight.mouseout"/>
                  </use>
                  <path fill="none" stroke="white" stroke-width="1.5" d="M0,-3.0v7 M-2.5,-0.5L0,-3.0L2.5,-0.5"/>
                </g>
                <g id="arrowDown" xlink:href="#dirArrow" transform="rotate(180) translate(-30 -48)" onmousedown="handlePan(0,1)">
                  <use xlink:href="#rim" fill="#404040">
                        <set attributeName="fill" to="#808080" begin="arrowDown.mouseover" end="arrowDown.mouseout"/>
                  </use>
                  <path fill="none" stroke="white" stroke-width="1.5" d="M0,-3.0v7 M-2.5,-0.5L0,-3.0L2.5,-0.5"/>
                </g>
                <g id="arrowLeft" xlink:href="#dirArrow" transform="rotate(270) translate(-36 17)" onmousedown="handlePan(-1,0)">
                  <use xlink:href="#rim" fill="#404040">
                        <set attributeName="fill" to="#808080" begin="arrowLeft.mouseover" end="arrowLeft.mouseout"/>
                  </use>
                  <path fill="none" stroke="white" stroke-width="1.5" d="M0,-3.0v7 M-2.5,-0.5L0,-3.0L2.5,-0.5"/>
                </g>
        </g>
        <svg viewBox="0 0 15 15" width="100%" height="30px" preserveAspectRatio="xMaxYMin meet">
         <g id="arrow_out" transform="scale(0.3 0.3)">
          <a xlink:href="class_player_controller_a36323c07b7cd9e0ccab9c8016611827c_icgraph_org.svg" target="_base">
           <rect id="button" ry="5" rx="5" y="6" x="6" height="38" width="38"
                fill="#f2f5e9" fill-opacity="0.5" stroke="#606060" stroke-width="1.0"/>
           <path id="arrow"
             d="M 11.500037,31.436501 C 11.940474,20.09759 22.043105,11.32322 32.158766,21.979434 L 37.068811,17.246167 C 37.068811,17.246167 37.088388,32 37.088388,32 L 22.160133,31.978069 C 22.160133,31.978069 26.997745,27.140456 26.997745,27.140456 C 18.528582,18.264221 13.291696,25.230495 11.500037,31.436501 z"
             style="fill:#404040;"/>
          </a>
         </g>
        </svg>
</svg>
