<?xml version="1.0" encoding="UTF-8" standalone="no"?>
<!DOCTYPE svg PUBLIC "-//W3C//DTD SVG 1.1//EN"
 "http://www.w3.org/Graphics/SVG/1.1/DTD/svg11.dtd">
<!-- Generated by graphviz version 2.47.3 (20210619.1520)
 -->
<!-- Title: Photon.Pun.Demo.PunBasics.GameManager.LoadArena Pages: 1 -->
<svg width="376pt" height="88pt"
 viewBox="0.00 0.00 376.00 88.00" xmlns="http://www.w3.org/2000/svg" xmlns:xlink="http://www.w3.org/1999/xlink">
<g id="graph0" class="graph" transform="scale(1 1) rotate(0) translate(4 84)">
<title>Photon.Pun.Demo.PunBasics.GameManager.LoadArena</title>
<polygon fill="white" stroke="transparent" points="-4,4 -4,-84 372,-84 372,4 -4,4"/>
<!-- Node1 -->
<g id="node1" class="node">
<title>Node1</title>
<g id="a_node1"><a xlink:title=" ">
<polygon fill="#bfbfbf" stroke="black" points="219,-24.5 219,-54.5 368,-54.5 368,-24.5 219,-24.5"/>
<text text-anchor="start" x="227" y="-42.5" font-family="Helvetica,sans-Serif" font-size="10.00">Photon.Pun.Demo.PunBasics.</text>
<text text-anchor="middle" x="293.5" y="-31.5" font-family="Helvetica,sans-Serif" font-size="10.00">GameManager.LoadArena</text>
</a>
</g>
</g>
<!-- Node2 -->
<g id="node2" class="node">
<title>Node2</title>
<g id="a_node2"><a xlink:href="class_photon_1_1_pun_1_1_demo_1_1_pun_basics_1_1_game_manager.xhtml#a58f4541ff0c375456befed0bcc22c077" target="_top" xlink:title="Called when a Photon Player got connected.">
<polygon fill="white" stroke="black" points="0,-49.5 0,-79.5 183,-79.5 183,-49.5 0,-49.5"/>
<text text-anchor="start" x="8" y="-67.5" font-family="Helvetica,sans-Serif" font-size="10.00">Photon.Pun.Demo.PunBasics.</text>
<text text-anchor="middle" x="91.5" y="-56.5" font-family="Helvetica,sans-Serif" font-size="10.00">GameManager.OnPlayerEnteredRoom</text>
</a>
</g>
</g>
<!-- Node1&#45;&gt;Node2 -->
<g id="edge1" class="edge">
<title>Node1&#45;&gt;Node2</title>
<path fill="none" stroke="midnightblue" d="M208.72,-49.97C200.32,-51.02 191.76,-52.09 183.29,-53.15"/>
<polygon fill="midnightblue" stroke="midnightblue" points="209.39,-53.42 218.88,-48.7 208.52,-46.47 209.39,-53.42"/>
</g>
<!-- Node3 -->
<g id="node3" class="node">
<title>Node3</title>
<g id="a_node3"><a xlink:href="class_photon_1_1_pun_1_1_demo_1_1_pun_basics_1_1_game_manager.xhtml#ae91743eaa60cf4d562e292aea3350192" target="_top" xlink:title="Called when a Photon Player got disconnected.">
<polygon fill="white" stroke="black" points="9,-0.5 9,-30.5 174,-30.5 174,-0.5 9,-0.5"/>
<text text-anchor="start" x="17" y="-18.5" font-family="Helvetica,sans-Serif" font-size="10.00">Photon.Pun.Demo.PunBasics.</text>
<text text-anchor="middle" x="91.5" y="-7.5" font-family="Helvetica,sans-Serif" font-size="10.00">GameManager.OnPlayerLeftRoom</text>
</a>
</g>
</g>
<!-- Node1&#45;&gt;Node3 -->
<g id="edge2" class="edge">
<title>Node1&#45;&gt;Node3</title>
<path fill="none" stroke="midnightblue" d="M208.85,-29.46C197.34,-28.08 185.53,-26.66 174.05,-25.29"/>
<polygon fill="midnightblue" stroke="midnightblue" points="208.53,-32.95 218.88,-30.67 209.37,-26 208.53,-32.95"/>
</g>
</g>
</svg>
