<?xml version="1.0" encoding="UTF-8" standalone="no"?>
<!DOCTYPE svg PUBLIC "-//W3C//DTD SVG 1.1//EN"
 "http://www.w3.org/Graphics/SVG/1.1/DTD/svg11.dtd">
<!-- Generated by graphviz version 2.47.3 (20210619.1520)
 -->
<!-- Title: AbilityBase Pages: 1 -->
<svg width="1179pt" height="622pt"
 viewBox="0.00 0.00 1179.00 621.98" xmlns="http://www.w3.org/2000/svg" xmlns:xlink="http://www.w3.org/1999/xlink">
<g id="graph0" class="graph" transform="scale(1 1) rotate(0) translate(4 617.98)">
<title>AbilityBase</title>
<polygon fill="white" stroke="transparent" points="-4,4 -4,-617.98 1175,-617.98 1175,4 -4,4"/>
<!-- Node1 -->
<g id="node1" class="node">
<title>Node1</title>
<g id="a_node1"><a xlink:title=" ">
<polygon fill="#bfbfbf" stroke="black" points="715,-165.48 715,-184.48 781,-184.48 781,-165.48 715,-165.48"/>
<text text-anchor="middle" x="748" y="-172.48" font-family="Helvetica,sans-Serif" font-size="10.00">AbilityBase</text>
</a>
</g>
</g>
<!-- Node2 -->
<g id="node2" class="node">
<title>Node2</title>
<g id="a_node2"><a xlink:title=" ">
<polygon fill="white" stroke="#bfbfbf" points="3,-462.48 3,-481.48 86,-481.48 86,-462.48 3,-462.48"/>
<text text-anchor="middle" x="44.5" y="-469.48" font-family="Helvetica,sans-Serif" font-size="10.00">MonoBehaviour</text>
</a>
</g>
</g>
<!-- Node2&#45;&gt;Node1 -->
<g id="edge1" class="edge">
<title>Node2&#45;&gt;Node1</title>
<path fill="none" stroke="midnightblue" d="M45.33,-452.02C45.96,-392.28 56.58,-218.98 158.5,-218.98 158.5,-218.98 158.5,-218.98 553,-218.98 614.82,-218.98 685.04,-197.47 721.68,-184.53"/>
<polygon fill="midnightblue" stroke="midnightblue" points="41.83,-452.36 45.31,-462.37 48.83,-452.38 41.83,-452.36"/>
</g>
<!-- Node8 -->
<g id="node8" class="node">
<title>Node8</title>
<g id="a_node8"><a xlink:href="class_stats.xhtml" target="_top" xlink:title="Base class Stats of the entity.">
<polygon fill="white" stroke="black" points="139.5,-515.48 139.5,-534.48 179.5,-534.48 179.5,-515.48 139.5,-515.48"/>
<text text-anchor="middle" x="159.5" y="-522.48" font-family="Helvetica,sans-Serif" font-size="10.00">Stats</text>
</a>
</g>
</g>
<!-- Node2&#45;&gt;Node8 -->
<g id="edge9" class="edge">
<title>Node2&#45;&gt;Node8</title>
<path fill="none" stroke="midnightblue" d="M74.97,-485.91C85.11,-490.7 96.55,-496.08 107,-500.98 117.72,-506 129.7,-511.59 139.41,-516.11"/>
<polygon fill="midnightblue" stroke="midnightblue" points="76.25,-482.64 65.71,-481.54 73.26,-488.97 76.25,-482.64"/>
</g>
<!-- Node10 -->
<g id="node10" class="node">
<title>Node10</title>
<g id="a_node10"><a xlink:href="class_u_i_controller.xhtml" target="_top" xlink:title=" ">
<polygon fill="white" stroke="black" points="126,-435.48 126,-454.48 193,-454.48 193,-435.48 126,-435.48"/>
<text text-anchor="middle" x="159.5" y="-442.48" font-family="Helvetica,sans-Serif" font-size="10.00">UIController</text>
</a>
</g>
</g>
<!-- Node2&#45;&gt;Node10 -->
<g id="edge12" class="edge">
<title>Node2&#45;&gt;Node10</title>
<path fill="none" stroke="midnightblue" d="M95.13,-460.12C105.49,-457.65 116.17,-455.1 125.73,-452.81"/>
<polygon fill="midnightblue" stroke="midnightblue" points="94.25,-456.73 85.34,-462.46 95.88,-463.54 94.25,-456.73"/>
</g>
<!-- Node11 -->
<g id="node11" class="node">
<title>Node11</title>
<g id="a_node11"><a xlink:href="class_player_controller.xhtml" target="_top" xlink:title="Player Controller is the main class that handles all the movement of the Player.">
<polygon fill="white" stroke="black" points="705,-417.48 705,-436.48 791,-436.48 791,-417.48 705,-417.48"/>
<text text-anchor="middle" x="748" y="-424.48" font-family="Helvetica,sans-Serif" font-size="10.00">PlayerController</text>
</a>
</g>
</g>
<!-- Node2&#45;&gt;Node11 -->
<g id="edge14" class="edge">
<title>Node2&#45;&gt;Node11</title>
<path fill="none" stroke="midnightblue" d="M96.51,-473.82C166.88,-475.94 297.68,-478.37 409,-471.98 533.17,-464.86 564.3,-460.28 687,-439.98 692.99,-438.99 699.29,-437.79 705.46,-436.54"/>
<polygon fill="midnightblue" stroke="midnightblue" points="96.26,-470.31 86.16,-473.5 96.04,-477.31 96.26,-470.31"/>
</g>
<!-- Node12 -->
<g id="node12" class="node">
<title>Node12</title>
<g id="a_node12"><a xlink:href="class_ability_cooldown.xhtml" target="_top" xlink:title=" ">
<polygon fill="white" stroke="black" points="903,-328.48 903,-347.48 989,-347.48 989,-328.48 903,-328.48"/>
<text text-anchor="middle" x="946" y="-335.48" font-family="Helvetica,sans-Serif" font-size="10.00">AbilityCooldown</text>
</a>
</g>
</g>
<!-- Node2&#45;&gt;Node12 -->
<g id="edge16" class="edge">
<title>Node2&#45;&gt;Node12</title>
<path fill="none" stroke="midnightblue" d="M46.66,-452.31C50.97,-399.22 70.7,-256.98 158.5,-256.98 158.5,-256.98 158.5,-256.98 464.5,-256.98 563.39,-256.98 589.26,-242.95 687,-257.98 776.69,-271.77 878.19,-310.42 922.41,-328.47"/>
<polygon fill="midnightblue" stroke="midnightblue" points="43.16,-452.24 45.94,-462.46 50.14,-452.74 43.16,-452.24"/>
</g>
<!-- Node13 -->
<g id="node13" class="node">
<title>Node13</title>
<g id="a_node13"><a xlink:href="class_ability_indicator.xhtml" target="_top" xlink:title=" ">
<polygon fill="white" stroke="black" points="1091,-328.48 1091,-347.48 1171,-347.48 1171,-328.48 1091,-328.48"/>
<text text-anchor="middle" x="1131" y="-335.48" font-family="Helvetica,sans-Serif" font-size="10.00">AbilityIndicator</text>
</a>
</g>
</g>
<!-- Node2&#45;&gt;Node13 -->
<g id="edge20" class="edge">
<title>Node2&#45;&gt;Node13</title>
<path fill="none" stroke="midnightblue" d="M50.94,-491.41C63.14,-530.3 96.58,-613.98 158.5,-613.98 158.5,-613.98 158.5,-613.98 947,-613.98 1077.8,-613.98 1120.64,-396.01 1128.56,-347.48"/>
<polygon fill="midnightblue" stroke="midnightblue" points="54.27,-490.32 48.05,-481.74 47.56,-492.32 54.27,-490.32"/>
</g>
<!-- Node16 -->
<g id="node16" class="node">
<title>Node16</title>
<g id="a_node16"><a xlink:href="class_basic_attack.xhtml" target="_top" xlink:title=" ">
<polygon fill="white" stroke="black" points="911,-502.48 911,-521.48 981,-521.48 981,-502.48 911,-502.48"/>
<text text-anchor="middle" x="946" y="-509.48" font-family="Helvetica,sans-Serif" font-size="10.00">BasicAttack</text>
</a>
</g>
</g>
<!-- Node2&#45;&gt;Node16 -->
<g id="edge30" class="edge">
<title>Node2&#45;&gt;Node16</title>
<path fill="none" stroke="midnightblue" d="M54.87,-490.63C71.38,-520.56 108.68,-575.98 158.5,-575.98 158.5,-575.98 158.5,-575.98 749,-575.98 818.27,-575.98 894.8,-539.42 928.04,-521.56"/>
<polygon fill="midnightblue" stroke="midnightblue" points="57.85,-488.78 50.08,-481.58 51.66,-492.05 57.85,-488.78"/>
</g>
<!-- Node17 -->
<g id="node17" class="node">
<title>Node17</title>
<g id="a_node17"><a xlink:href="class_inventory.xhtml" target="_top" xlink:title=" ">
<polygon fill="white" stroke="black" points="222.5,-375.48 222.5,-394.48 277.5,-394.48 277.5,-375.48 222.5,-375.48"/>
<text text-anchor="middle" x="250" y="-382.48" font-family="Helvetica,sans-Serif" font-size="10.00">Inventory</text>
</a>
</g>
</g>
<!-- Node2&#45;&gt;Node17 -->
<g id="edge36" class="edge">
<title>Node2&#45;&gt;Node17</title>
<path fill="none" stroke="midnightblue" d="M68.72,-457.08C84.46,-447.39 105.98,-434.93 126,-425.98 158.06,-411.65 196.72,-399.56 222.03,-392.3"/>
<polygon fill="midnightblue" stroke="midnightblue" points="66.8,-454.15 60.17,-462.42 70.51,-460.09 66.8,-454.15"/>
</g>
<!-- Node3 -->
<g id="node3" class="node">
<title>Node3</title>
<g id="a_node3"><a xlink:href="class_ability.xhtml" target="_top" xlink:title=" ">
<polygon fill="white" stroke="black" points="336,-64.48 336,-83.48 380,-83.48 380,-64.48 336,-64.48"/>
<text text-anchor="middle" x="358" y="-71.48" font-family="Helvetica,sans-Serif" font-size="10.00">Ability</text>
</a>
</g>
</g>
<!-- Node3&#45;&gt;Node1 -->
<g id="edge2" class="edge">
<title>Node3&#45;&gt;Node1</title>
<path fill="none" stroke="#9a32cd" stroke-dasharray="5,2" d="M390.42,-73.9C450.73,-74.86 585.71,-82.54 687,-128.98 706.81,-138.06 726.15,-154.71 737.31,-165.29"/>
<polygon fill="#9a32cd" stroke="#9a32cd" points="390.09,-70.39 380.06,-73.79 390.02,-77.39 390.09,-70.39"/>
<text text-anchor="middle" x="552" y="-97.98" font-family="Helvetica,sans-Serif" font-size="10.00"> ability</text>
</g>
<!-- Node3&#45;&gt;Node12 -->
<g id="edge18" class="edge">
<title>Node3&#45;&gt;Node12</title>
<path fill="none" stroke="#9a32cd" stroke-dasharray="5,2" d="M390.38,-69.2C450.1,-61.38 583.35,-50.06 687,-85.98 789.81,-121.61 814.45,-147.14 885,-229.98 912.26,-261.98 932.95,-308.29 941.15,-328.24"/>
<polygon fill="#9a32cd" stroke="#9a32cd" points="389.55,-65.78 380.11,-70.61 390.5,-72.72 389.55,-65.78"/>
<text text-anchor="middle" x="645.5" y="-88.98" font-family="Helvetica,sans-Serif" font-size="10.00"> ability</text>
</g>
<!-- Node14 -->
<g id="node14" class="node">
<title>Node14</title>
<g id="a_node14"><a xlink:href="class_indicated_ability.xhtml" target="_top" xlink:title="Encapsulador de les Ability que han de mostrar l&#39;indicador">
<polygon fill="white" stroke="black" points="604,-3.48 604,-22.48 687,-22.48 687,-3.48 604,-3.48"/>
<text text-anchor="middle" x="645.5" y="-10.48" font-family="Helvetica,sans-Serif" font-size="10.00">IndicatedAbility</text>
</a>
</g>
</g>
<!-- Node3&#45;&gt;Node14 -->
<g id="edge23" class="edge">
<title>Node3&#45;&gt;Node14</title>
<path fill="none" stroke="midnightblue" d="M381.44,-58.88C394.24,-51.03 410.9,-42.03 427,-36.98 486.63,-18.27 559.43,-13.69 603.86,-12.81"/>
<polygon fill="midnightblue" stroke="midnightblue" points="379.43,-56.01 372.86,-64.33 383.18,-61.92 379.43,-56.01"/>
</g>
<!-- Node15 -->
<g id="node15" class="node">
<title>Node15</title>
<g id="a_node15"><a xlink:href="class_character.xhtml" target="_top" xlink:title=" ">
<polygon fill="white" stroke="black" points="522.5,-171.48 522.5,-190.48 581.5,-190.48 581.5,-171.48 522.5,-171.48"/>
<text text-anchor="middle" x="552" y="-178.48" font-family="Helvetica,sans-Serif" font-size="10.00">Character</text>
</a>
</g>
</g>
<!-- Node3&#45;&gt;Node15 -->
<g id="edge27" class="edge">
<title>Node3&#45;&gt;Node15</title>
<path fill="none" stroke="#9a32cd" stroke-dasharray="5,2" d="M390.25,-80.77C428.95,-89.36 490.92,-103.78 500,-109.98 523.06,-125.72 539.32,-155.51 546.64,-171.03"/>
<polygon fill="#9a32cd" stroke="#9a32cd" points="390.54,-77.25 380.02,-78.51 389.03,-84.08 390.54,-77.25"/>
<text text-anchor="middle" x="463.5" y="-112.98" font-family="Helvetica,sans-Serif" font-size="10.00"> abilities</text>
</g>
<!-- Node4 -->
<g id="node4" class="node">
<title>Node4</title>
<g id="a_node4"><a xlink:title=" ">
<polygon fill="white" stroke="#bfbfbf" points="0,-117.48 0,-136.48 89,-136.48 89,-117.48 0,-117.48"/>
<text text-anchor="middle" x="44.5" y="-124.48" font-family="Helvetica,sans-Serif" font-size="10.00">ScriptableObject</text>
</a>
</g>
</g>
<!-- Node4&#45;&gt;Node3 -->
<g id="edge3" class="edge">
<title>Node4&#45;&gt;Node3</title>
<path fill="none" stroke="midnightblue" d="M88.32,-114.78C121.52,-105.77 168.84,-93.91 211,-86.98 254.94,-79.75 307.03,-76.33 335.6,-74.89"/>
<polygon fill="midnightblue" stroke="midnightblue" points="87.21,-111.45 78.49,-117.47 89.06,-118.21 87.21,-111.45"/>
</g>
<!-- Node5 -->
<g id="node5" class="node">
<title>Node5</title>
<g id="a_node5"><a xlink:href="class_effect.xhtml" target="_top" xlink:title=" ">
<polygon fill="white" stroke="black" points="139,-117.48 139,-136.48 180,-136.48 180,-117.48 139,-117.48"/>
<text text-anchor="middle" x="159.5" y="-124.48" font-family="Helvetica,sans-Serif" font-size="10.00">Effect</text>
</a>
</g>
</g>
<!-- Node4&#45;&gt;Node5 -->
<g id="edge5" class="edge">
<title>Node4&#45;&gt;Node5</title>
<path fill="none" stroke="midnightblue" d="M99.37,-126.98C113.48,-126.98 127.81,-126.98 138.82,-126.98"/>
<polygon fill="midnightblue" stroke="midnightblue" points="99.19,-123.48 89.19,-126.98 99.19,-130.48 99.19,-123.48"/>
</g>
<!-- Node4&#45;&gt;Node15 -->
<g id="edge26" class="edge">
<title>Node4&#45;&gt;Node15</title>
<path fill="none" stroke="midnightblue" d="M90.73,-138.91C102.17,-141.58 114.48,-144.16 126,-145.98 274.08,-169.42 453.82,-177.68 522.47,-180.1"/>
<polygon fill="midnightblue" stroke="midnightblue" points="91.48,-135.49 80.94,-136.55 89.84,-142.29 91.48,-135.49"/>
</g>
<!-- Node5&#45;&gt;Node1 -->
<g id="edge37" class="edge">
<title>Node5&#45;&gt;Node1</title>
<path fill="none" stroke="#9a32cd" stroke-dasharray="5,2" d="M190.27,-129.42C290.03,-137.58 611.96,-163.93 714.98,-172.36"/>
<polygon fill="#9a32cd" stroke="#9a32cd" points="190.27,-125.9 180.01,-128.58 189.7,-132.88 190.27,-125.9"/>
<text text-anchor="middle" x="463.5" y="-157.98" font-family="Helvetica,sans-Serif" font-size="10.00"> toEnemyEffects</text>
</g>
<!-- Node5&#45;&gt;Node3 -->
<g id="edge4" class="edge">
<title>Node5&#45;&gt;Node3</title>
<path fill="none" stroke="#9a32cd" stroke-dasharray="5,2" d="M189.98,-114.42C196.81,-111.76 204.1,-109.11 211,-106.98 254.7,-93.48 307.32,-82.94 335.94,-77.68"/>
<polygon fill="#9a32cd" stroke="#9a32cd" points="188.37,-111.3 180.4,-118.28 190.98,-117.79 188.37,-111.3"/>
<text text-anchor="middle" x="250" y="-120.98" font-family="Helvetica,sans-Serif" font-size="10.00"> aToAuthorEffects</text>
<text text-anchor="middle" x="250" y="-109.98" font-family="Helvetica,sans-Serif" font-size="10.00">aToEnemyEffects</text>
</g>
<!-- Node6 -->
<g id="node6" class="node">
<title>Node6</title>
<g id="a_node6"><a xlink:href="class_player_stats.xhtml" target="_top" xlink:title="Player Stats is the main class that controls all the Player Statistics in all time in the game execut...">
<polygon fill="white" stroke="black" points="518,-396.48 518,-415.48 586,-415.48 586,-396.48 518,-396.48"/>
<text text-anchor="middle" x="552" y="-403.48" font-family="Helvetica,sans-Serif" font-size="10.00">PlayerStats</text>
</a>
</g>
</g>
<!-- Node6&#45;&gt;Node1 -->
<g id="edge6" class="edge">
<title>Node6&#45;&gt;Node1</title>
<path fill="none" stroke="#9a32cd" stroke-dasharray="5,2" d="M559.85,-386.99C567.65,-368.01 582.22,-339.37 604,-322.98 634.59,-299.96 657.64,-324.55 687,-299.98 724.48,-268.62 740.25,-208.39 745.17,-184.8"/>
<polygon fill="#9a32cd" stroke="#9a32cd" points="556.55,-385.81 556.2,-396.4 563.08,-388.34 556.55,-385.81"/>
<text text-anchor="middle" x="645.5" y="-325.98" font-family="Helvetica,sans-Serif" font-size="10.00"> stats</text>
</g>
<!-- Node6&#45;&gt;Node11 -->
<g id="edge28" class="edge">
<title>Node6&#45;&gt;Node11</title>
<path fill="none" stroke="#9a32cd" stroke-dasharray="5,2" d="M596.12,-401.69C622.56,-400.04 656.97,-399.65 687,-404.98 700.55,-407.38 715.05,-412.62 726.4,-417.38"/>
<polygon fill="#9a32cd" stroke="#9a32cd" points="595.78,-398.21 586.05,-402.4 596.27,-405.19 595.78,-398.21"/>
<text text-anchor="middle" x="645.5" y="-407.98" font-family="Helvetica,sans-Serif" font-size="10.00"> stats</text>
</g>
<!-- Node6&#45;&gt;Node12 -->
<g id="edge24" class="edge">
<title>Node6&#45;&gt;Node12</title>
<path fill="none" stroke="#9a32cd" stroke-dasharray="5,2" d="M568.43,-389.02C577.83,-379.69 590.6,-368.67 604,-361.98 701.96,-313.06 835.84,-322.19 902.98,-331.1"/>
<polygon fill="#9a32cd" stroke="#9a32cd" points="565.8,-386.71 561.38,-396.34 570.84,-391.57 565.8,-386.71"/>
<text text-anchor="middle" x="748" y="-332.98" font-family="Helvetica,sans-Serif" font-size="10.00"> playerStats</text>
</g>
<!-- Node6&#45;&gt;Node16 -->
<g id="edge33" class="edge">
<title>Node6&#45;&gt;Node16</title>
<path fill="none" stroke="#9a32cd" stroke-dasharray="5,2" d="M573.23,-421.59C582.26,-427.99 593.27,-435.04 604,-439.98 689.99,-479.61 716,-480.18 809,-497.98 843.39,-504.56 883.3,-508.21 910.95,-510.11"/>
<polygon fill="#9a32cd" stroke="#9a32cd" points="575.07,-418.6 564.94,-415.51 570.93,-424.24 575.07,-418.6"/>
<text text-anchor="middle" x="748" y="-496.98" font-family="Helvetica,sans-Serif" font-size="10.00"> stats</text>
</g>
<!-- Node7 -->
<g id="node7" class="node">
<title>Node7</title>
<g id="a_node7"><a xlink:href="class_ability_affected_stats.xhtml" target="_top" xlink:title="Base class Stats of the entity who is affected by Abilities.">
<polygon fill="white" stroke="black" points="307,-443.48 307,-462.48 409,-462.48 409,-443.48 307,-443.48"/>
<text text-anchor="middle" x="358" y="-450.48" font-family="Helvetica,sans-Serif" font-size="10.00">AbilityAffectedStats</text>
</a>
</g>
</g>
<!-- Node7&#45;&gt;Node6 -->
<g id="edge7" class="edge">
<title>Node7&#45;&gt;Node6</title>
<path fill="none" stroke="midnightblue" d="M419.28,-443.96C444.47,-439.54 473.91,-433.52 500,-425.98 509.78,-423.15 520.29,-419.2 529.22,-415.55"/>
<polygon fill="midnightblue" stroke="midnightblue" points="418.39,-440.56 409.12,-445.69 419.57,-447.46 418.39,-440.56"/>
</g>
<!-- Node8&#45;&gt;Node7 -->
<g id="edge8" class="edge">
<title>Node8&#45;&gt;Node7</title>
<path fill="none" stroke="midnightblue" d="M189.19,-514.47C227.32,-500.49 294.16,-476.01 330.92,-462.54"/>
<polygon fill="midnightblue" stroke="midnightblue" points="187.88,-511.22 179.7,-517.94 190.29,-517.79 187.88,-511.22"/>
</g>
<!-- Node8&#45;&gt;Node16 -->
<g id="edge32" class="edge">
<title>Node8&#45;&gt;Node16</title>
<path fill="none" stroke="#9a32cd" stroke-dasharray="5,2" d="M189.68,-527.88C228.02,-531.43 297.49,-536.98 357,-536.98 357,-536.98 357,-536.98 749,-536.98 806.12,-536.98 871.85,-526.4 910.82,-519.01"/>
<polygon fill="#9a32cd" stroke="#9a32cd" points="190.01,-524.39 179.72,-526.93 189.35,-531.36 190.01,-524.39"/>
<text text-anchor="middle" x="552" y="-539.98" font-family="Helvetica,sans-Serif" font-size="10.00"> otherStats</text>
</g>
<!-- Node9 -->
<g id="node9" class="node">
<title>Node9</title>
<g id="a_node9"><a xlink:href="class_player_u_i_controller.xhtml" target="_top" xlink:title="UI Controller for the Player Stats">
<polygon fill="white" stroke="black" points="310.5,-405.48 310.5,-424.48 405.5,-424.48 405.5,-405.48 310.5,-405.48"/>
<text text-anchor="middle" x="358" y="-412.48" font-family="Helvetica,sans-Serif" font-size="10.00">PlayerUIController</text>
</a>
</g>
</g>
<!-- Node9&#45;&gt;Node6 -->
<g id="edge10" class="edge">
<title>Node9&#45;&gt;Node6</title>
<path fill="none" stroke="#9a32cd" stroke-dasharray="5,2" d="M415.99,-412.31C449.15,-410.75 489.78,-408.85 517.75,-407.54"/>
<polygon fill="#9a32cd" stroke="#9a32cd" points="415.79,-408.81 405.97,-412.78 416.12,-415.81 415.79,-408.81"/>
<text text-anchor="middle" x="463.5" y="-413.98" font-family="Helvetica,sans-Serif" font-size="10.00"> uiControl</text>
</g>
<!-- Node10&#45;&gt;Node9 -->
<g id="edge11" class="edge">
<title>Node10&#45;&gt;Node9</title>
<path fill="none" stroke="midnightblue" d="M203.64,-438.39C235.21,-433.57 278.01,-427.04 310.38,-422.1"/>
<polygon fill="midnightblue" stroke="midnightblue" points="202.75,-434.99 193.39,-439.96 203.8,-441.91 202.75,-434.99"/>
</g>
<!-- Node11&#45;&gt;Node6 -->
<g id="edge13" class="edge">
<title>Node11&#45;&gt;Node6</title>
<path fill="none" stroke="#9a32cd" stroke-dasharray="5,2" d="M694.8,-425.8C667.62,-424.66 633.89,-422.41 604,-417.98 598.15,-417.11 591.98,-415.91 586.04,-414.61"/>
<polygon fill="#9a32cd" stroke="#9a32cd" points="694.76,-429.3 704.88,-426.19 695.02,-422.31 694.76,-429.3"/>
<text text-anchor="middle" x="645.5" y="-427.98" font-family="Helvetica,sans-Serif" font-size="10.00"> playerController</text>
</g>
<!-- Node11&#45;&gt;Node12 -->
<g id="edge17" class="edge">
<title>Node11&#45;&gt;Node12</title>
<path fill="none" stroke="#9a32cd" stroke-dasharray="5,2" d="M801.23,-418.07C833.15,-412.06 870.54,-403.81 885,-395.98 907.42,-383.84 927.37,-360.98 937.65,-347.87"/>
<polygon fill="#9a32cd" stroke="#9a32cd" points="800.29,-414.69 791.09,-419.95 801.56,-421.57 800.29,-414.69"/>
<text text-anchor="middle" x="847" y="-418.98" font-family="Helvetica,sans-Serif" font-size="10.00"> playerController</text>
</g>
<!-- Node11&#45;&gt;Node16 -->
<g id="edge31" class="edge">
<title>Node11&#45;&gt;Node16</title>
<path fill="none" stroke="#9a32cd" stroke-dasharray="5,2" d="M770.82,-442.33C781.88,-449.62 795.75,-458.01 809,-463.98 841.18,-478.47 851.78,-475.07 885,-486.98 897.96,-491.63 912.19,-497.52 923.54,-502.42"/>
<polygon fill="#9a32cd" stroke="#9a32cd" points="772.51,-439.25 762.26,-436.55 768.59,-445.05 772.51,-439.25"/>
<text text-anchor="middle" x="847" y="-489.98" font-family="Helvetica,sans-Serif" font-size="10.00"> controller</text>
</g>
<!-- Node12&#45;&gt;Node6 -->
<g id="edge34" class="edge">
<title>Node12&#45;&gt;Node6</title>
<path fill="none" stroke="#9a32cd" stroke-dasharray="5,2" d="M893.07,-346.4C826.15,-357.34 706.26,-377.26 604,-395.98 598.23,-397.04 592.1,-398.2 586.17,-399.35"/>
<polygon fill="#9a32cd" stroke="#9a32cd" points="893.64,-349.85 902.94,-344.78 892.51,-342.94 893.64,-349.85"/>
<text text-anchor="middle" x="748" y="-379.98" font-family="Helvetica,sans-Serif" font-size="10.00"> abilityCooldowns</text>
</g>
<!-- Node12&#45;&gt;Node11 -->
<g id="edge15" class="edge">
<title>Node12&#45;&gt;Node11</title>
<path fill="none" stroke="#9a32cd" stroke-dasharray="5,2" d="M913.01,-351.37C904.01,-354.97 894.17,-358.76 885,-361.98 851.7,-373.66 840.74,-369.56 809,-384.98 790.7,-393.87 771.84,-408.05 760.26,-417.44"/>
<polygon fill="#9a32cd" stroke="#9a32cd" points="914.43,-354.57 922.38,-347.57 911.8,-348.08 914.43,-354.57"/>
<text text-anchor="middle" x="847" y="-387.98" font-family="Helvetica,sans-Serif" font-size="10.00"> abilityCooldowns</text>
</g>
<!-- Node12&#45;&gt;Node13 -->
<g id="edge21" class="edge">
<title>Node12&#45;&gt;Node13</title>
<path fill="none" stroke="#9a32cd" stroke-dasharray="5,2" d="M989.01,-326.1C995.01,-324.81 1001.13,-323.7 1007,-322.98 1036.11,-319.4 1043.91,-319.22 1073,-322.98 1081.73,-324.11 1091.02,-326.17 1099.52,-328.41"/>
<polygon fill="#9a32cd" stroke="#9a32cd" points="988.05,-322.73 979.11,-328.41 989.65,-329.55 988.05,-322.73"/>
<text text-anchor="middle" x="1040" y="-325.98" font-family="Helvetica,sans-Serif" font-size="10.00"> currentCD</text>
</g>
<!-- Node13&#45;&gt;Node12 -->
<g id="edge19" class="edge">
<title>Node13&#45;&gt;Node12</title>
<path fill="none" stroke="#9a32cd" stroke-dasharray="5,2" d="M1080.75,-337.98C1052.24,-337.98 1016.71,-337.98 989.44,-337.98"/>
<polygon fill="#9a32cd" stroke="#9a32cd" points="1080.91,-341.48 1090.91,-337.98 1080.91,-334.48 1080.91,-341.48"/>
<text text-anchor="middle" x="1040" y="-340.98" font-family="Helvetica,sans-Serif" font-size="10.00"> abilityIndicator</text>
</g>
<!-- Node14&#45;&gt;Node13 -->
<g id="edge22" class="edge">
<title>Node14&#45;&gt;Node13</title>
<path fill="none" stroke="#9a32cd" stroke-dasharray="5,2" d="M697.15,-4.17C747.71,2.07 826.15,4.64 885,-25.98 1022.16,-97.35 1107.17,-283.49 1126.01,-328.21"/>
<polygon fill="#9a32cd" stroke="#9a32cd" points="696.57,-0.72 687.12,-5.5 697.49,-7.66 696.57,-0.72"/>
<text text-anchor="middle" x="847" y="-28.98" font-family="Helvetica,sans-Serif" font-size="10.00"> current</text>
</g>
<!-- Node15&#45;&gt;Node11 -->
<g id="edge25" class="edge">
<title>Node15&#45;&gt;Node11</title>
<path fill="none" stroke="#9a32cd" stroke-dasharray="5,2" d="M586.34,-194.73C617.67,-209.49 663.2,-236.05 687,-273.98 714.26,-317.43 680.88,-342.71 705,-387.98 711.36,-399.92 722.82,-410.18 732.16,-417.18"/>
<polygon fill="#9a32cd" stroke="#9a32cd" points="587.66,-191.49 577.11,-190.53 584.76,-197.86 587.66,-191.49"/>
<text text-anchor="middle" x="645.5" y="-287.98" font-family="Helvetica,sans-Serif" font-size="10.00"> character</text>
<text text-anchor="middle" x="645.5" y="-276.98" font-family="Helvetica,sans-Serif" font-size="10.00">characters</text>
</g>
<!-- Node16&#45;&gt;Node11 -->
<g id="edge29" class="edge">
<title>Node16&#45;&gt;Node11</title>
<path fill="none" stroke="#9a32cd" stroke-dasharray="5,2" d="M931.75,-494.15C920.75,-480.69 903.89,-462.89 885,-452.98 855.94,-437.74 819.2,-431.36 791.24,-428.73"/>
<polygon fill="#9a32cd" stroke="#9a32cd" points="929.17,-496.54 938.1,-502.25 934.68,-492.22 929.17,-496.54"/>
<text text-anchor="middle" x="847" y="-455.98" font-family="Helvetica,sans-Serif" font-size="10.00"> basicAttack</text>
</g>
<!-- Node17&#45;&gt;Node6 -->
<g id="edge35" class="edge">
<title>Node17&#45;&gt;Node6</title>
<path fill="none" stroke="#9a32cd" stroke-dasharray="5,2" d="M287.84,-383.45C319.9,-382.49 367.59,-381.93 409,-384.98 446.53,-387.74 489.19,-394.55 517.87,-399.67"/>
<polygon fill="#9a32cd" stroke="#9a32cd" points="287.48,-379.96 277.6,-383.79 287.71,-386.96 287.48,-379.96"/>
<text text-anchor="middle" x="358" y="-387.98" font-family="Helvetica,sans-Serif" font-size="10.00"> inventory</text>
</g>
</g>
</svg>
