<?xml version="1.0" encoding="UTF-8" standalone="no"?>
<!DOCTYPE svg PUBLIC "-//W3C//DTD SVG 1.1//EN"
 "http://www.w3.org/Graphics/SVG/1.1/DTD/svg11.dtd">
<!-- Generated by graphviz version 2.47.3 (20210619.1520)
 -->
<!-- Title: GameController Pages: 1 -->
<svg width="509pt" height="353pt"
 viewBox="0.00 0.00 508.50 353.00" xmlns="http://www.w3.org/2000/svg" xmlns:xlink="http://www.w3.org/1999/xlink">
<g id="graph0" class="graph" transform="scale(1 1) rotate(0) translate(4 349)">
<title>GameController</title>
<polygon fill="white" stroke="transparent" points="-4,4 -4,-349 504.5,-349 504.5,4 -4,4"/>
<!-- Node1 -->
<g id="node1" class="node">
<title>Node1</title>
<g id="a_node1"><a xlink:title="The UNIQUE Game Controller in the Scene.">
<polygon fill="#bfbfbf" stroke="black" points="198.5,-0.5 198.5,-19.5 282.5,-19.5 282.5,-0.5 198.5,-0.5"/>
<text text-anchor="middle" x="240.5" y="-7.5" font-family="Helvetica,sans-Serif" font-size="10.00">GameController</text>
</a>
</g>
</g>
<!-- Node2 -->
<g id="node2" class="node">
<title>Node2</title>
<g id="a_node2"><a xlink:href="class_singleton.xhtml" target="_top" xlink:title=" ">
<polygon fill="white" stroke="black" points="0,-67.5 0,-86.5 143,-86.5 143,-67.5 0,-67.5"/>
<text text-anchor="middle" x="71.5" y="-74.5" font-family="Helvetica,sans-Serif" font-size="10.00">Singleton&lt; GameController &gt;</text>
</a>
</g>
</g>
<!-- Node2&#45;&gt;Node1 -->
<g id="edge1" class="edge">
<title>Node2&#45;&gt;Node1</title>
<path fill="none" stroke="midnightblue" d="M103.3,-63.77C136.84,-50.87 188.82,-30.88 218.23,-19.56"/>
<polygon fill="midnightblue" stroke="midnightblue" points="102.02,-60.51 93.94,-67.37 104.53,-67.05 102.02,-60.51"/>
</g>
<!-- Node3 -->
<g id="node3" class="node">
<title>Node3</title>
<g id="a_node3"><a xlink:href="class_loading_canvas.xhtml" target="_top" xlink:title=" ">
<polygon fill="white" stroke="black" points="246.5,-67.5 246.5,-86.5 328.5,-86.5 328.5,-67.5 246.5,-67.5"/>
<text text-anchor="middle" x="287.5" y="-74.5" font-family="Helvetica,sans-Serif" font-size="10.00">LoadingCanvas</text>
</a>
</g>
</g>
<!-- Node3&#45;&gt;Node1 -->
<g id="edge2" class="edge">
<title>Node3&#45;&gt;Node1</title>
<path fill="none" stroke="#9a32cd" stroke-dasharray="5,2" d="M280.6,-57.89C277.68,-51.32 273.91,-44.03 269.5,-38 264.46,-31.12 257.5,-24.57 251.66,-19.64"/>
<polygon fill="#9a32cd" stroke="#9a32cd" points="277.45,-59.42 284.48,-67.34 283.92,-56.76 277.45,-59.42"/>
<text text-anchor="middle" x="309.5" y="-41" font-family="Helvetica,sans-Serif" font-size="10.00"> loadingCanvas</text>
</g>
<!-- Node3&#45;&gt;Node3 -->
<g id="edge4" class="edge">
<title>Node3&#45;&gt;Node3</title>
<path fill="none" stroke="#9a32cd" stroke-dasharray="5,2" d="M338.76,-81.79C343.51,-80.81 346.5,-79.21 346.5,-77 346.5,-73.47 338.84,-71.5 328.58,-71.08"/>
<polygon fill="#9a32cd" stroke="#9a32cd" points="338.14,-78.34 328.58,-82.92 338.91,-85.3 338.14,-78.34"/>
<text text-anchor="middle" x="366.5" y="-74.5" font-family="Helvetica,sans-Serif" font-size="10.00"> instance</text>
</g>
<!-- Node4 -->
<g id="node4" class="node">
<title>Node4</title>
<g id="a_node4"><a xlink:title=" ">
<polygon fill="white" stroke="#bfbfbf" points="195,-134.5 195,-153.5 278,-153.5 278,-134.5 195,-134.5"/>
<text text-anchor="middle" x="236.5" y="-141.5" font-family="Helvetica,sans-Serif" font-size="10.00">MonoBehaviour</text>
</a>
</g>
</g>
<!-- Node4&#45;&gt;Node3 -->
<g id="edge3" class="edge">
<title>Node4&#45;&gt;Node3</title>
<path fill="none" stroke="midnightblue" d="M249.63,-126.27C259.57,-113.6 272.83,-96.7 280.73,-86.63"/>
<polygon fill="midnightblue" stroke="midnightblue" points="246.8,-124.21 243.38,-134.23 252.3,-128.53 246.8,-124.21"/>
</g>
<!-- Node9 -->
<g id="node9" class="node">
<title>Node9</title>
<g id="a_node9"><a xlink:href="class_u_i_controller.xhtml" target="_top" xlink:title=" ">
<polygon fill="white" stroke="black" points="161,-67.5 161,-86.5 228,-86.5 228,-67.5 161,-67.5"/>
<text text-anchor="middle" x="194.5" y="-74.5" font-family="Helvetica,sans-Serif" font-size="10.00">UIController</text>
</a>
</g>
</g>
<!-- Node4&#45;&gt;Node9 -->
<g id="edge12" class="edge">
<title>Node4&#45;&gt;Node9</title>
<path fill="none" stroke="midnightblue" d="M225.21,-125.53C217.08,-112.95 206.46,-96.51 200.07,-86.63"/>
<polygon fill="midnightblue" stroke="midnightblue" points="222.47,-127.73 230.84,-134.23 228.35,-123.94 222.47,-127.73"/>
</g>
<!-- Node5 -->
<g id="node5" class="node">
<title>Node5</title>
<g id="a_node5"><a xlink:href="class_character.xhtml" target="_top" xlink:title=" ">
<polygon fill="white" stroke="black" points="342,-134.5 342,-153.5 401,-153.5 401,-134.5 342,-134.5"/>
<text text-anchor="middle" x="371.5" y="-141.5" font-family="Helvetica,sans-Serif" font-size="10.00">Character</text>
</a>
</g>
</g>
<!-- Node5&#45;&gt;Node1 -->
<g id="edge13" class="edge">
<title>Node5&#45;&gt;Node1</title>
<path fill="none" stroke="#9a32cd" stroke-dasharray="5,2" d="M384.62,-125.69C395.01,-109.71 406.16,-85.69 395.5,-67 373.39,-28.23 320.67,-15.91 282.86,-12.21"/>
<polygon fill="#9a32cd" stroke="#9a32cd" points="381.62,-123.87 378.76,-134.08 387.36,-127.89 381.62,-123.87"/>
<text text-anchor="middle" x="425" y="-74.5" font-family="Helvetica,sans-Serif" font-size="10.00"> characters</text>
</g>
<!-- Node5&#45;&gt;Node3 -->
<g id="edge5" class="edge">
<title>Node5&#45;&gt;Node3</title>
<path fill="none" stroke="#9a32cd" stroke-dasharray="5,2" d="M352.2,-128.07C335.62,-115.24 312.29,-97.19 298.65,-86.63"/>
<polygon fill="#9a32cd" stroke="#9a32cd" points="350.12,-130.88 360.17,-134.23 354.4,-125.35 350.12,-130.88"/>
<text text-anchor="middle" x="360" y="-108" font-family="Helvetica,sans-Serif" font-size="10.00"> characters</text>
</g>
<!-- Node6 -->
<g id="node6" class="node">
<title>Node6</title>
<g id="a_node6"><a xlink:title=" ">
<polygon fill="white" stroke="#bfbfbf" points="345,-325.5 345,-344.5 434,-344.5 434,-325.5 345,-325.5"/>
<text text-anchor="middle" x="389.5" y="-332.5" font-family="Helvetica,sans-Serif" font-size="10.00">ScriptableObject</text>
</a>
</g>
</g>
<!-- Node6&#45;&gt;Node5 -->
<g id="edge6" class="edge">
<title>Node6&#45;&gt;Node5</title>
<path fill="none" stroke="midnightblue" d="M385.41,-315.48C380.71,-293.19 373.3,-254.58 370.5,-221 369.76,-212.14 370.42,-209.89 370.5,-201 370.65,-184.28 371.05,-164.75 371.3,-153.73"/>
<polygon fill="midnightblue" stroke="midnightblue" points="381.99,-316.23 387.52,-325.27 388.83,-314.76 381.99,-316.23"/>
</g>
<!-- Node7 -->
<g id="node7" class="node">
<title>Node7</title>
<g id="a_node7"><a xlink:href="class_ability.xhtml" target="_top" xlink:title="Base abstract class for an Ability.">
<polygon fill="white" stroke="black" points="379.5,-201.5 379.5,-220.5 423.5,-220.5 423.5,-201.5 379.5,-201.5"/>
<text text-anchor="middle" x="401.5" y="-208.5" font-family="Helvetica,sans-Serif" font-size="10.00">Ability</text>
</a>
</g>
</g>
<!-- Node6&#45;&gt;Node7 -->
<g id="edge8" class="edge">
<title>Node6&#45;&gt;Node7</title>
<path fill="none" stroke="midnightblue" d="M391.35,-315.19C393.99,-288.4 398.72,-240.31 400.64,-220.69"/>
<polygon fill="midnightblue" stroke="midnightblue" points="387.86,-314.93 390.36,-325.23 394.83,-315.62 387.86,-314.93"/>
</g>
<!-- Node8 -->
<g id="node8" class="node">
<title>Node8</title>
<g id="a_node8"><a xlink:href="class_effect.xhtml" target="_top" xlink:title="Abstract base info container class for an Effect.">
<polygon fill="white" stroke="black" points="418,-268.5 418,-287.5 459,-287.5 459,-268.5 418,-268.5"/>
<text text-anchor="middle" x="438.5" y="-275.5" font-family="Helvetica,sans-Serif" font-size="10.00">Effect</text>
</a>
</g>
</g>
<!-- Node6&#45;&gt;Node8 -->
<g id="edge10" class="edge">
<title>Node6&#45;&gt;Node8</title>
<path fill="none" stroke="midnightblue" d="M403.91,-317.83C412.68,-307.98 423.55,-295.78 430.74,-287.71"/>
<polygon fill="midnightblue" stroke="midnightblue" points="401.2,-315.61 397.16,-325.41 406.42,-320.27 401.2,-315.61"/>
</g>
<!-- Node7&#45;&gt;Node5 -->
<g id="edge7" class="edge">
<title>Node7&#45;&gt;Node5</title>
<path fill="none" stroke="#9a32cd" stroke-dasharray="5,2" d="M393.1,-191.79C387.33,-179.31 379.95,-163.31 375.48,-153.63"/>
<polygon fill="#9a32cd" stroke="#9a32cd" points="390.09,-193.62 397.45,-201.23 396.44,-190.69 390.09,-193.62"/>
<text text-anchor="middle" x="407" y="-175" font-family="Helvetica,sans-Serif" font-size="10.00"> abilities</text>
</g>
<!-- Node8&#45;&gt;Node7 -->
<g id="edge9" class="edge">
<title>Node8&#45;&gt;Node7</title>
<path fill="none" stroke="#9a32cd" stroke-dasharray="5,2" d="M428.56,-259.53C421.39,-246.95 412.03,-230.51 406.41,-220.63"/>
<polygon fill="#9a32cd" stroke="#9a32cd" points="425.52,-261.27 433.51,-268.23 431.6,-257.81 425.52,-261.27"/>
<text text-anchor="middle" x="461.5" y="-242" font-family="Helvetica,sans-Serif" font-size="10.00"> aToAuthorEffects</text>
</g>
<!-- Node9&#45;&gt;Node1 -->
<g id="edge11" class="edge">
<title>Node9&#45;&gt;Node1</title>
<path fill="none" stroke="#9a32cd" stroke-dasharray="5,2" d="M188.76,-57.2C187.86,-50.73 188.14,-43.69 191.5,-38 196.44,-29.64 205,-23.69 213.59,-19.54"/>
<polygon fill="#9a32cd" stroke="#9a32cd" points="185.41,-58.25 191.08,-67.2 192.23,-56.67 185.41,-58.25"/>
<text text-anchor="middle" x="230.5" y="-41" font-family="Helvetica,sans-Serif" font-size="10.00"> mapElementsUis</text>
</g>
</g>
</svg>
