<?xml version="1.0" encoding="UTF-8" standalone="no"?>
<!DOCTYPE svg PUBLIC "-//W3C//DTD SVG 1.1//EN"
 "http://www.w3.org/Graphics/SVG/1.1/DTD/svg11.dtd">
<!-- Generated by graphviz version 2.47.3 (20210619.1520)
 -->
<!-- Title: BasicAttack Pages: 1 -->
<!--zoomable 527 -->
<svg id="main" version="1.1" xmlns="http://www.w3.org/2000/svg" xmlns:xlink="http://www.w3.org/1999/xlink" xml:space="preserve" onload="init(evt)">
<style type="text/css"><![CDATA[
.edge:hover path { stroke: red; }
.edge:hover polygon { stroke: red; fill: red; }
]]></style>
<script type="text/javascript"><![CDATA[
var edges = document.getElementsByTagName('g');
if (edges && edges.length) {
  for (var i=0;i<edges.length;i++) {
    if (edges[i].id.substr(0,4)=='edge') {
      edges[i].setAttribute('class','edge');
    }
  }
}
]]></script>
        <defs>
                <circle id="rim" cx="0" cy="0" r="7"/>
                <circle id="rim2" cx="0" cy="0" r="3.5"/>
                <g id="zoomPlus">
                        <use xlink:href="#rim" fill="#404040">
                                <set attributeName="fill" to="#808080" begin="zoomplus.mouseover" end="zoomplus.mouseout"/>
                        </use>
                        <path d="M-4,0h8M0,-4v8" fill="none" stroke="white" stroke-width="1.5" pointer-events="none"/>
                </g>
                <g id="zoomMin">
                        <use xlink:href="#rim" fill="#404040">
                                <set attributeName="fill" to="#808080" begin="zoomminus.mouseover" end="zoomminus.mouseout"/>
                        </use>
                        <path d="M-4,0h8" fill="none" stroke="white" stroke-width="1.5" pointer-events="none"/>
                </g>
                <g id="dirArrow">
                        <path fill="none" stroke="white" stroke-width="1.5" d="M0,-3.0v7 M-2.5,-0.5L0,-3.0L2.5,-0.5"/>
                </g>
               <g id="resetDef">
                       <use xlink:href="#rim2" fill="#404040">
                               <set attributeName="fill" to="#808080" begin="reset.mouseover" end="reset.mouseout"/>
                       </use>
               </g>
        </defs>

<script type="text/javascript">
var viewWidth = 715;
var viewHeight = 527;
var sectionId = 'dynsection-1';
</script>
<script xlink:href="svgpan.js"/>
<svg id="graph" class="graph">
<g id="viewport">
<title>BasicAttack</title>
<polygon fill="white" stroke="transparent" points="-4,4 -4,-523 710.5,-523 710.5,4 -4,4"/>
<!-- Node1 -->
<g id="node1" class="node">
<title>Node1</title>
<g id="a_node1"><a xlink:title=" ">
<polygon fill="#bfbfbf" stroke="black" points="325,-288.5 325,-307.5 395,-307.5 395,-288.5 325,-288.5"/>
<text text-anchor="middle" x="360" y="-295.5" font-family="Helvetica,sans-Serif" font-size="10.00">BasicAttack</text>
</a>
</g>
</g>
<!-- Node3 -->
<g id="node3" class="node">
<title>Node3</title>
<g id="a_node3"><a xlink:href="class_player_controller.xhtml" target="_top" xlink:title="Player Controller is the main class that handles all the movement of the Player.">
<polygon fill="white" stroke="black" points="368,-210.5 368,-229.5 454,-229.5 454,-210.5 368,-210.5"/>
<text text-anchor="middle" x="411" y="-217.5" font-family="Helvetica,sans-Serif" font-size="10.00">PlayerController</text>
</a>
</g>
</g>
<!-- Node1&#45;&gt;Node3 -->
<g id="edge31" class="edge">
<title>Node1&#45;&gt;Node3</title>
<path fill="none" stroke="#9a32cd" stroke-dasharray="5,2" d="M381.66,-282.1C385.82,-278.5 389.86,-274.41 393,-270 401.93,-257.45 406.94,-239.96 409.3,-229.62"/>
<polygon fill="#9a32cd" stroke="#9a32cd" points="379.39,-279.43 373.68,-288.36 383.71,-284.94 379.39,-279.43"/>
<text text-anchor="middle" x="430.5" y="-256.5" font-family="Helvetica,sans-Serif" font-size="10.00"> basicAttack</text>
</g>
<!-- Node2 -->
<g id="node2" class="node">
<title>Node2</title>
<g id="a_node2"><a xlink:title=" ">
<polygon fill="white" stroke="#bfbfbf" points="129.5,-442.5 129.5,-461.5 212.5,-461.5 212.5,-442.5 129.5,-442.5"/>
<text text-anchor="middle" x="171" y="-449.5" font-family="Helvetica,sans-Serif" font-size="10.00">MonoBehaviour</text>
</a>
</g>
</g>
<!-- Node2&#45;&gt;Node1 -->
<g id="edge1" class="edge">
<title>Node2&#45;&gt;Node1</title>
<path fill="none" stroke="midnightblue" d="M207.74,-438.98C248.05,-423.83 311.6,-393.83 346,-346 354.35,-334.39 357.77,-317.78 359.14,-307.73"/>
<polygon fill="midnightblue" stroke="midnightblue" points="206.47,-435.71 198.27,-442.42 208.86,-442.29 206.47,-435.71"/>
</g>
<!-- Node2&#45;&gt;Node3 -->
<g id="edge3" class="edge">
<title>Node2&#45;&gt;Node3</title>
<path fill="none" stroke="midnightblue" d="M222.54,-441.56C239.97,-437.38 259.25,-431.64 276,-424 373.66,-379.48 418.08,-367.93 462,-270 466,-261.08 467.04,-256.38 462,-248 456.94,-239.59 448.28,-233.66 439.51,-229.55"/>
<polygon fill="midnightblue" stroke="midnightblue" points="221.5,-438.21 212.53,-443.84 223.06,-445.03 221.5,-438.21"/>
</g>
<!-- Node4 -->
<g id="node4" class="node">
<title>Node4</title>
<g id="a_node4"><a xlink:href="class_ability_cooldown.xhtml" target="_top" xlink:title=" ">
<polygon fill="white" stroke="black" points="309,-67.5 309,-86.5 395,-86.5 395,-67.5 309,-67.5"/>
<text text-anchor="middle" x="352" y="-74.5" font-family="Helvetica,sans-Serif" font-size="10.00">AbilityCooldown</text>
</a>
</g>
</g>
<!-- Node2&#45;&gt;Node4 -->
<g id="edge5" class="edge">
<title>Node2&#45;&gt;Node4</title>
<path fill="none" stroke="midnightblue" d="M119.45,-442.72C82.05,-433.44 38,-414.18 38,-375 38,-375 38,-375 38,-143 38,-88.3 223,-79.28 309,-78.04"/>
<polygon fill="midnightblue" stroke="midnightblue" points="118.75,-446.15 129.28,-444.98 120.32,-439.33 118.75,-446.15"/>
</g>
<!-- Node8 -->
<g id="node8" class="node">
<title>Node8</title>
<g id="a_node8"><a xlink:href="class_ability_indicator.xhtml" target="_top" xlink:title=" ">
<polygon fill="white" stroke="black" points="312,-0.5 312,-19.5 392,-19.5 392,-0.5 312,-0.5"/>
<text text-anchor="middle" x="352" y="-7.5" font-family="Helvetica,sans-Serif" font-size="10.00">AbilityIndicator</text>
</a>
</g>
</g>
<!-- Node2&#45;&gt;Node8 -->
<g id="edge12" class="edge">
<title>Node2&#45;&gt;Node8</title>
<path fill="none" stroke="midnightblue" d="M119.06,-449.1C68.75,-444.15 0,-427.73 0,-375 0,-375 0,-375 0,-76 0,-44.58 219.7,-22.23 311.96,-14.24"/>
<polygon fill="midnightblue" stroke="midnightblue" points="118.91,-452.6 129.17,-449.97 119.51,-445.63 118.91,-452.6"/>
</g>
<!-- Node12 -->
<g id="node12" class="node">
<title>Node12</title>
<g id="a_node12"><a xlink:href="class_stats.xhtml" target="_top" xlink:title="Base class Stats of the entity.">
<polygon fill="white" stroke="black" points="243,-364.5 243,-383.5 283,-383.5 283,-364.5 243,-364.5"/>
<text text-anchor="middle" x="263" y="-371.5" font-family="Helvetica,sans-Serif" font-size="10.00">Stats</text>
</a>
</g>
</g>
<!-- Node2&#45;&gt;Node12 -->
<g id="edge19" class="edge">
<title>Node2&#45;&gt;Node12</title>
<path fill="none" stroke="midnightblue" d="M189.49,-435.73C208.44,-420.07 237.25,-396.27 252.57,-383.62"/>
<polygon fill="midnightblue" stroke="midnightblue" points="187.03,-433.21 181.55,-442.28 191.49,-438.61 187.03,-433.21"/>
</g>
<!-- Node14 -->
<g id="node14" class="node">
<title>Node14</title>
<g id="a_node14"><a xlink:href="class_u_i_controller.xhtml" target="_top" xlink:title=" ">
<polygon fill="white" stroke="black" points="137.5,-364.5 137.5,-383.5 204.5,-383.5 204.5,-364.5 137.5,-364.5"/>
<text text-anchor="middle" x="171" y="-371.5" font-family="Helvetica,sans-Serif" font-size="10.00">UIController</text>
</a>
</g>
</g>
<!-- Node2&#45;&gt;Node14 -->
<g id="edge22" class="edge">
<title>Node2&#45;&gt;Node14</title>
<path fill="none" stroke="midnightblue" d="M171,-432.22C171,-416.7 171,-395.36 171,-383.62"/>
<polygon fill="midnightblue" stroke="midnightblue" points="167.5,-432.28 171,-442.28 174.5,-432.28 167.5,-432.28"/>
</g>
<!-- Node15 -->
<g id="node15" class="node">
<title>Node15</title>
<g id="a_node15"><a xlink:href="class_inventory.xhtml" target="_top" xlink:title=" ">
<polygon fill="white" stroke="black" points="67.5,-326.5 67.5,-345.5 122.5,-345.5 122.5,-326.5 67.5,-326.5"/>
<text text-anchor="middle" x="95" y="-333.5" font-family="Helvetica,sans-Serif" font-size="10.00">Inventory</text>
</a>
</g>
</g>
<!-- Node2&#45;&gt;Node15 -->
<g id="edge26" class="edge">
<title>Node2&#45;&gt;Node15</title>
<path fill="none" stroke="midnightblue" d="M159.71,-434.07C143.27,-409.4 113.33,-364.49 100.78,-345.67"/>
<polygon fill="midnightblue" stroke="midnightblue" points="156.83,-436.05 165.29,-442.43 162.65,-432.17 156.83,-436.05"/>
</g>
<!-- Node3&#45;&gt;Node1 -->
<g id="edge2" class="edge">
<title>Node3&#45;&gt;Node1</title>
<path fill="none" stroke="#9a32cd" stroke-dasharray="5,2" d="M364.89,-234.16C359,-237.73 353.74,-242.26 350,-248 341.95,-260.37 349,-277.92 354.65,-288.31"/>
<polygon fill="#9a32cd" stroke="#9a32cd" points="366.54,-237.25 373.85,-229.59 363.35,-231.02 366.54,-237.25"/>
<text text-anchor="middle" x="371.5" y="-256.5" font-family="Helvetica,sans-Serif" font-size="10.00"> controller</text>
</g>
<!-- Node3&#45;&gt;Node4 -->
<g id="edge6" class="edge">
<title>Node3&#45;&gt;Node4</title>
<path fill="none" stroke="#9a32cd" stroke-dasharray="5,2" d="M432.33,-204.35C454.1,-187.52 482.63,-159 467,-134 451.05,-108.49 419.76,-94.29 393.85,-86.58"/>
<polygon fill="#9a32cd" stroke="#9a32cd" points="430.1,-201.64 424.14,-210.4 434.26,-207.28 430.1,-201.64"/>
<text text-anchor="middle" x="506.5" y="-141.5" font-family="Helvetica,sans-Serif" font-size="10.00"> playerController</text>
</g>
<!-- Node10 -->
<g id="node10" class="node">
<title>Node10</title>
<g id="a_node10"><a xlink:href="class_player_stats.xhtml" target="_top" xlink:title="Player Stats is the main class that controls all the Player Statistics in all time in the game execut...">
<polygon fill="white" stroke="black" points="224,-134.5 224,-153.5 292,-153.5 292,-134.5 224,-134.5"/>
<text text-anchor="middle" x="258" y="-141.5" font-family="Helvetica,sans-Serif" font-size="10.00">PlayerStats</text>
</a>
</g>
</g>
<!-- Node3&#45;&gt;Node10 -->
<g id="edge23" class="edge">
<title>Node3&#45;&gt;Node10</title>
<path fill="none" stroke="#9a32cd" stroke-dasharray="5,2" d="M357.41,-213.78C324.91,-209.6 287.4,-202.65 275,-192 263.68,-182.27 259.9,-164.4 258.63,-153.72"/>
<polygon fill="#9a32cd" stroke="#9a32cd" points="357.39,-217.3 367.74,-215.04 358.24,-210.35 357.39,-217.3"/>
<text text-anchor="middle" x="310.5" y="-179.5" font-family="Helvetica,sans-Serif" font-size="10.00"> playerController</text>
</g>
<!-- Node4&#45;&gt;Node3 -->
<g id="edge4" class="edge">
<title>Node4&#45;&gt;Node3</title>
<path fill="none" stroke="#9a32cd" stroke-dasharray="5,2" d="M362.32,-95.85C363.95,-98.87 365.57,-102 367,-105 385.18,-143.1 401.68,-190.85 408.13,-210.23"/>
<polygon fill="#9a32cd" stroke="#9a32cd" points="365.22,-93.87 357.28,-86.85 359.12,-97.29 365.22,-93.87"/>
<text text-anchor="middle" x="425" y="-141.5" font-family="Helvetica,sans-Serif" font-size="10.00"> abilityCooldowns</text>
</g>
<!-- Node4&#45;&gt;Node8 -->
<g id="edge13" class="edge">
<title>Node4&#45;&gt;Node8</title>
<path fill="none" stroke="#9a32cd" stroke-dasharray="5,2" d="M324.49,-61.96C315.68,-55.46 309.28,-47.14 314,-38 318.08,-30.09 325.67,-23.99 333,-19.61"/>
<polygon fill="#9a32cd" stroke="#9a32cd" points="322.69,-64.97 333.01,-67.4 326.46,-59.07 322.69,-64.97"/>
<text text-anchor="middle" x="337.5" y="-41" font-family="Helvetica,sans-Serif" font-size="10.00"> currentCD</text>
</g>
<!-- Node4&#45;&gt;Node10 -->
<g id="edge24" class="edge">
<title>Node4&#45;&gt;Node10</title>
<path fill="none" stroke="#9a32cd" stroke-dasharray="5,2" d="M298.59,-82.04C266.18,-85.72 229.16,-92.57 219,-105 210.03,-115.98 224.96,-127.14 238.86,-134.5"/>
<polygon fill="#9a32cd" stroke="#9a32cd" points="299.34,-85.48 308.91,-80.95 298.6,-78.52 299.34,-85.48"/>
<text text-anchor="middle" x="257" y="-108" font-family="Helvetica,sans-Serif" font-size="10.00"> abilityCooldowns</text>
</g>
<!-- Node5 -->
<g id="node5" class="node">
<title>Node5</title>
<g id="a_node5"><a xlink:href="class_ability.xhtml" target="_top" xlink:title=" ">
<polygon fill="white" stroke="black" points="586,-364.5 586,-383.5 630,-383.5 630,-364.5 586,-364.5"/>
<text text-anchor="middle" x="608" y="-371.5" font-family="Helvetica,sans-Serif" font-size="10.00">Ability</text>
</a>
</g>
</g>
<!-- Node5&#45;&gt;Node4 -->
<g id="edge7" class="edge">
<title>Node5&#45;&gt;Node4</title>
<path fill="none" stroke="#9a32cd" stroke-dasharray="5,2" d="M608,-354.33C608,-339.37 608,-317.84 608,-299 608,-299 608,-299 608,-143 608,-99.61 468.1,-84.85 395.14,-80.1"/>
<polygon fill="#9a32cd" stroke="#9a32cd" points="604.5,-354.34 608,-364.34 611.5,-354.34 604.5,-354.34"/>
<text text-anchor="middle" x="622.5" y="-217.5" font-family="Helvetica,sans-Serif" font-size="10.00"> ability</text>
</g>
<!-- Node9 -->
<g id="node9" class="node">
<title>Node9</title>
<g id="a_node9"><a xlink:href="class_indicated_ability.xhtml" target="_top" xlink:title="Encapsulador de les Ability que han de mostrar l&#39;indicador">
<polygon fill="white" stroke="black" points="623.5,-172.5 623.5,-191.5 706.5,-191.5 706.5,-172.5 623.5,-172.5"/>
<text text-anchor="middle" x="665" y="-179.5" font-family="Helvetica,sans-Serif" font-size="10.00">IndicatedAbility</text>
</a>
</g>
</g>
<!-- Node5&#45;&gt;Node9 -->
<g id="edge15" class="edge">
<title>Node5&#45;&gt;Node9</title>
<path fill="none" stroke="midnightblue" d="M617.9,-355.25C619.39,-352.21 620.82,-349.05 622,-346 644.01,-288.93 658.74,-216.4 663.41,-191.69"/>
<polygon fill="midnightblue" stroke="midnightblue" points="614.74,-353.75 613.18,-364.23 620.93,-357.01 614.74,-353.75"/>
</g>
<!-- Node16 -->
<g id="node16" class="node">
<title>Node16</title>
<g id="a_node16"><a xlink:href="class_character.xhtml" target="_top" xlink:title=" ">
<polygon fill="white" stroke="black" points="515.5,-288.5 515.5,-307.5 574.5,-307.5 574.5,-288.5 515.5,-288.5"/>
<text text-anchor="middle" x="545" y="-295.5" font-family="Helvetica,sans-Serif" font-size="10.00">Character</text>
</a>
</g>
</g>
<!-- Node5&#45;&gt;Node16 -->
<g id="edge29" class="edge">
<title>Node5&#45;&gt;Node16</title>
<path fill="none" stroke="#9a32cd" stroke-dasharray="5,2" d="M576.65,-361.62C569.31,-357.66 562.14,-352.53 557,-346 548.14,-334.75 545.76,-317.72 545.15,-307.54"/>
<polygon fill="#9a32cd" stroke="#9a32cd" points="575.36,-364.88 585.89,-366.02 578.37,-358.56 575.36,-364.88"/>
<text text-anchor="middle" x="575.5" y="-333.5" font-family="Helvetica,sans-Serif" font-size="10.00"> abilities</text>
</g>
<!-- Node6 -->
<g id="node6" class="node">
<title>Node6</title>
<g id="a_node6"><a xlink:title=" ">
<polygon fill="white" stroke="#bfbfbf" points="516.5,-499.5 516.5,-518.5 605.5,-518.5 605.5,-499.5 516.5,-499.5"/>
<text text-anchor="middle" x="561" y="-506.5" font-family="Helvetica,sans-Serif" font-size="10.00">ScriptableObject</text>
</a>
</g>
</g>
<!-- Node6&#45;&gt;Node5 -->
<g id="edge8" class="edge">
<title>Node6&#45;&gt;Node5</title>
<path fill="none" stroke="midnightblue" d="M566.12,-489.54C569.92,-476.23 575.41,-457.88 581,-442 588.5,-420.71 598.8,-396.23 604.26,-383.58"/>
<polygon fill="midnightblue" stroke="midnightblue" points="562.69,-488.8 563.35,-499.38 569.43,-490.7 562.69,-488.8"/>
</g>
<!-- Node7 -->
<g id="node7" class="node">
<title>Node7</title>
<g id="a_node7"><a xlink:href="class_effect.xhtml" target="_top" xlink:title=" ">
<polygon fill="white" stroke="black" points="589.5,-442.5 589.5,-461.5 630.5,-461.5 630.5,-442.5 589.5,-442.5"/>
<text text-anchor="middle" x="610" y="-449.5" font-family="Helvetica,sans-Serif" font-size="10.00">Effect</text>
</a>
</g>
</g>
<!-- Node6&#45;&gt;Node7 -->
<g id="edge10" class="edge">
<title>Node6&#45;&gt;Node7</title>
<path fill="none" stroke="midnightblue" d="M575.41,-491.83C584.18,-481.98 595.05,-469.78 602.24,-461.71"/>
<polygon fill="midnightblue" stroke="midnightblue" points="572.7,-489.61 568.66,-499.41 577.92,-494.27 572.7,-489.61"/>
</g>
<!-- Node6&#45;&gt;Node16 -->
<g id="edge28" class="edge">
<title>Node6&#45;&gt;Node16</title>
<path fill="none" stroke="midnightblue" d="M558.4,-489.31C554.35,-459.21 546.73,-398.09 544,-346 543.3,-332.63 543.91,-317.1 544.43,-307.67"/>
<polygon fill="midnightblue" stroke="midnightblue" points="554.93,-489.81 559.76,-499.25 561.87,-488.86 554.93,-489.81"/>
</g>
<!-- Node7&#45;&gt;Node5 -->
<g id="edge9" class="edge">
<title>Node7&#45;&gt;Node5</title>
<path fill="none" stroke="#9a32cd" stroke-dasharray="5,2" d="M609.51,-432.22C609.1,-416.7 608.54,-395.36 608.23,-383.62"/>
<polygon fill="#9a32cd" stroke="#9a32cd" points="606.01,-432.38 609.77,-442.28 613.01,-432.19 606.01,-432.38"/>
<text text-anchor="middle" x="648" y="-416" font-family="Helvetica,sans-Serif" font-size="10.00"> aToAuthorEffects</text>
<text text-anchor="middle" x="648" y="-405" font-family="Helvetica,sans-Serif" font-size="10.00">aToEnemyEffects</text>
</g>
<!-- Node8&#45;&gt;Node4 -->
<g id="edge11" class="edge">
<title>Node8&#45;&gt;Node4</title>
<path fill="none" stroke="#9a32cd" stroke-dasharray="5,2" d="M362.35,-28.61C364.92,-34.95 366.55,-42.22 365,-49 363.52,-55.49 360.27,-62.24 357.39,-67.37"/>
<polygon fill="#9a32cd" stroke="#9a32cd" points="365.45,-26.99 357.86,-19.6 359.19,-30.11 365.45,-26.99"/>
<text text-anchor="middle" x="398" y="-41" font-family="Helvetica,sans-Serif" font-size="10.00"> abilityIndicator</text>
</g>
<!-- Node9&#45;&gt;Node8 -->
<g id="edge14" class="edge">
<title>Node9&#45;&gt;Node8</title>
<path fill="none" stroke="#9a32cd" stroke-dasharray="5,2" d="M659,-162.95C652.43,-145.82 640.34,-120.45 622,-105 554.05,-47.77 449.12,-24.61 392.14,-15.86"/>
<polygon fill="#9a32cd" stroke="#9a32cd" points="655.71,-164.16 662.37,-172.4 662.3,-161.8 655.71,-164.16"/>
<text text-anchor="middle" x="649" y="-108" font-family="Helvetica,sans-Serif" font-size="10.00"> current</text>
</g>
<!-- Node10&#45;&gt;Node1 -->
<g id="edge33" class="edge">
<title>Node10&#45;&gt;Node1</title>
<path fill="none" stroke="#9a32cd" stroke-dasharray="5,2" d="M302.19,-149.63C330.27,-153.51 367.05,-160.36 398,-172 429.32,-183.78 446.35,-180.97 463,-210 476.27,-233.13 478.53,-249.07 462,-270 453.65,-280.57 421.26,-287.9 395.19,-292.23"/>
<polygon fill="#9a32cd" stroke="#9a32cd" points="302.63,-146.16 292.26,-148.33 301.72,-153.1 302.63,-146.16"/>
<text text-anchor="middle" x="483.5" y="-217.5" font-family="Helvetica,sans-Serif" font-size="10.00"> stats</text>
</g>
<!-- Node10&#45;&gt;Node3 -->
<g id="edge30" class="edge">
<title>Node10&#45;&gt;Node3</title>
<path fill="none" stroke="#9a32cd" stroke-dasharray="5,2" d="M302.13,-154.64C316.63,-158.82 332.49,-164.5 346,-172 357.84,-178.57 358.16,-183.87 369,-192 377.88,-198.66 388.38,-205.41 396.66,-210.49"/>
<polygon fill="#9a32cd" stroke="#9a32cd" points="302.91,-151.23 292.35,-151.99 301.08,-157.99 302.91,-151.23"/>
<text text-anchor="middle" x="381.5" y="-179.5" font-family="Helvetica,sans-Serif" font-size="10.00"> stats</text>
</g>
<!-- Node10&#45;&gt;Node4 -->
<g id="edge16" class="edge">
<title>Node10&#45;&gt;Node4</title>
<path fill="none" stroke="#9a32cd" stroke-dasharray="5,2" d="M279.09,-128.42C297.67,-115.57 324.12,-97.28 339.52,-86.63"/>
<polygon fill="#9a32cd" stroke="#9a32cd" points="276.91,-125.67 270.68,-134.23 280.89,-131.43 276.91,-125.67"/>
<text text-anchor="middle" x="336.5" y="-108" font-family="Helvetica,sans-Serif" font-size="10.00"> playerStats</text>
</g>
<!-- Node11 -->
<g id="node11" class="node">
<title>Node11</title>
<g id="a_node11"><a xlink:href="class_ability_affected_stats.xhtml" target="_top" xlink:title="Base class Stats of the entity who is affected by Abilities.">
<polygon fill="white" stroke="black" points="224,-249.5 224,-268.5 326,-268.5 326,-249.5 224,-249.5"/>
<text text-anchor="middle" x="275" y="-256.5" font-family="Helvetica,sans-Serif" font-size="10.00">AbilityAffectedStats</text>
</a>
</g>
</g>
<!-- Node11&#45;&gt;Node10 -->
<g id="edge17" class="edge">
<title>Node11&#45;&gt;Node10</title>
<path fill="none" stroke="midnightblue" d="M268.89,-239.49C264.91,-226.39 260.07,-208.32 258,-192 256.32,-178.72 256.79,-163.17 257.35,-153.7"/>
<polygon fill="midnightblue" stroke="midnightblue" points="265.61,-240.7 271.96,-249.17 272.28,-238.58 265.61,-240.7"/>
</g>
<!-- Node12&#45;&gt;Node1 -->
<g id="edge32" class="edge">
<title>Node12&#45;&gt;Node1</title>
<path fill="none" stroke="#9a32cd" stroke-dasharray="5,2" d="M272.52,-355.43C278.5,-345.71 286.97,-334.02 297,-326 307.04,-317.97 319.82,-311.91 331.24,-307.59"/>
<polygon fill="#9a32cd" stroke="#9a32cd" points="269.38,-353.86 267.41,-364.27 275.44,-357.37 269.38,-353.86"/>
<text text-anchor="middle" x="321.5" y="-333.5" font-family="Helvetica,sans-Serif" font-size="10.00"> otherStats</text>
</g>
<!-- Node12&#45;&gt;Node11 -->
<g id="edge18" class="edge">
<title>Node12&#45;&gt;Node11</title>
<path fill="none" stroke="midnightblue" d="M265.01,-354.12C267.64,-329.26 272.17,-286.61 274.1,-268.52"/>
<polygon fill="midnightblue" stroke="midnightblue" points="261.52,-353.82 263.94,-364.13 268.48,-354.56 261.52,-353.82"/>
</g>
<!-- Node13 -->
<g id="node13" class="node">
<title>Node13</title>
<g id="a_node13"><a xlink:href="class_player_u_i_controller.xhtml" target="_top" xlink:title="UI Controller for the Player Stats">
<polygon fill="white" stroke="black" points="123.5,-249.5 123.5,-268.5 218.5,-268.5 218.5,-249.5 123.5,-249.5"/>
<text text-anchor="middle" x="171" y="-256.5" font-family="Helvetica,sans-Serif" font-size="10.00">PlayerUIController</text>
</a>
</g>
</g>
<!-- Node13&#45;&gt;Node10 -->
<g id="edge20" class="edge">
<title>Node13&#45;&gt;Node10</title>
<path fill="none" stroke="#9a32cd" stroke-dasharray="5,2" d="M184.02,-241.09C202.88,-216.59 237.13,-172.1 251.44,-153.52"/>
<polygon fill="#9a32cd" stroke="#9a32cd" points="181.15,-239.07 177.83,-249.13 186.7,-243.34 181.15,-239.07"/>
<text text-anchor="middle" x="229" y="-217.5" font-family="Helvetica,sans-Serif" font-size="10.00"> uiControl</text>
</g>
<!-- Node14&#45;&gt;Node13 -->
<g id="edge21" class="edge">
<title>Node14&#45;&gt;Node13</title>
<path fill="none" stroke="midnightblue" d="M171,-354.12C171,-329.26 171,-286.61 171,-268.52"/>
<polygon fill="midnightblue" stroke="midnightblue" points="167.5,-354.13 171,-364.13 174.5,-354.13 167.5,-354.13"/>
</g>
<!-- Node15&#45;&gt;Node10 -->
<g id="edge25" class="edge">
<title>Node15&#45;&gt;Node10</title>
<path fill="none" stroke="#9a32cd" stroke-dasharray="5,2" d="M83.08,-317.75C72.01,-299.39 59.03,-270.01 72,-248 104.8,-192.35 179.67,-164.65 223.77,-152.7"/>
<polygon fill="#9a32cd" stroke="#9a32cd" points="80.2,-319.74 88.55,-326.25 86.08,-315.95 80.2,-319.74"/>
<text text-anchor="middle" x="93" y="-256.5" font-family="Helvetica,sans-Serif" font-size="10.00"> inventory</text>
</g>
<!-- Node16&#45;&gt;Node3 -->
<g id="edge27" class="edge">
<title>Node16&#45;&gt;Node3</title>
<path fill="none" stroke="#9a32cd" stroke-dasharray="5,2" d="M533.02,-280.31C524.6,-269.69 512.46,-256.39 499,-248 485.44,-239.55 469.04,-233.58 454.1,-229.44"/>
<polygon fill="#9a32cd" stroke="#9a32cd" points="530.34,-282.58 539.17,-288.44 535.93,-278.36 530.34,-282.58"/>
<text text-anchor="middle" x="546" y="-262" font-family="Helvetica,sans-Serif" font-size="10.00"> character</text>
<text text-anchor="middle" x="546" y="-251" font-family="Helvetica,sans-Serif" font-size="10.00">characters</text>
</g>
</g>
</svg>
        <g id="navigator" transform="translate(0 0)" fill="#404254">
                <rect fill="#f2f5e9" fill-opacity="0.5" stroke="#606060" stroke-width=".5" x="0" y="0" width="60" height="60"/>
                <use id="zoomplus" xlink:href="#zoomPlus" x="17" y="9" onmousedown="handleZoom(evt,'in')"/>
                <use id="zoomminus" xlink:href="#zoomMin" x="42" y="9" onmousedown="handleZoom(evt,'out')"/>
                <use id="reset" xlink:href="#resetDef" x="30" y="36" onmousedown="handleReset()"/>
                <g id="arrowUp" xlink:href="#dirArrow" transform="translate(30 24)" onmousedown="handlePan(0,-1)">
                  <use xlink:href="#rim" fill="#404040">
                        <set attributeName="fill" to="#808080" begin="arrowUp.mouseover" end="arrowUp.mouseout"/>
                  </use>
                  <path fill="none" stroke="white" stroke-width="1.5" d="M0,-3.0v7 M-2.5,-0.5L0,-3.0L2.5,-0.5"/>
                </g>
                <g id="arrowRight" xlink:href="#dirArrow" transform="rotate(90) translate(36 -43)" onmousedown="handlePan(1,0)">
                  <use xlink:href="#rim" fill="#404040">
                        <set attributeName="fill" to="#808080" begin="arrowRight.mouseover" end="arrowRight.mouseout"/>
                  </use>
                  <path fill="none" stroke="white" stroke-width="1.5" d="M0,-3.0v7 M-2.5,-0.5L0,-3.0L2.5,-0.5"/>
                </g>
                <g id="arrowDown" xlink:href="#dirArrow" transform="rotate(180) translate(-30 -48)" onmousedown="handlePan(0,1)">
                  <use xlink:href="#rim" fill="#404040">
                        <set attributeName="fill" to="#808080" begin="arrowDown.mouseover" end="arrowDown.mouseout"/>
                  </use>
                  <path fill="none" stroke="white" stroke-width="1.5" d="M0,-3.0v7 M-2.5,-0.5L0,-3.0L2.5,-0.5"/>
                </g>
                <g id="arrowLeft" xlink:href="#dirArrow" transform="rotate(270) translate(-36 17)" onmousedown="handlePan(-1,0)">
                  <use xlink:href="#rim" fill="#404040">
                        <set attributeName="fill" to="#808080" begin="arrowLeft.mouseover" end="arrowLeft.mouseout"/>
                  </use>
                  <path fill="none" stroke="white" stroke-width="1.5" d="M0,-3.0v7 M-2.5,-0.5L0,-3.0L2.5,-0.5"/>
                </g>
        </g>
        <svg viewBox="0 0 15 15" width="100%" height="30px" preserveAspectRatio="xMaxYMin meet">
         <g id="arrow_out" transform="scale(0.3 0.3)">
          <a xlink:href="class_basic_attack__coll__graph_org.svg" target="_base">
           <rect id="button" ry="5" rx="5" y="6" x="6" height="38" width="38"
                fill="#f2f5e9" fill-opacity="0.5" stroke="#606060" stroke-width="1.0"/>
           <path id="arrow"
             d="M 11.500037,31.436501 C 11.940474,20.09759 22.043105,11.32322 32.158766,21.979434 L 37.068811,17.246167 C 37.068811,17.246167 37.088388,32 37.088388,32 L 22.160133,31.978069 C 22.160133,31.978069 26.997745,27.140456 26.997745,27.140456 C 18.528582,18.264221 13.291696,25.230495 11.500037,31.436501 z"
             style="fill:#404040;"/>
          </a>
         </g>
        </svg>
</svg>
