<?xml version="1.0" encoding="UTF-8" standalone="no"?>
<!DOCTYPE svg PUBLIC "-//W3C//DTD SVG 1.1//EN"
 "http://www.w3.org/Graphics/SVG/1.1/DTD/svg11.dtd">
<!-- Generated by graphviz version 2.47.3 (20210619.1520)
 -->
<!-- Title: BasicAttack.ResetState Pages: 1 -->
<svg width="312pt" height="78pt"
 viewBox="0.00 0.00 312.00 77.50" xmlns="http://www.w3.org/2000/svg" xmlns:xlink="http://www.w3.org/1999/xlink">
<g id="graph0" class="graph" transform="scale(1 1) rotate(0) translate(4 73.5)">
<title>BasicAttack.ResetState</title>
<polygon fill="white" stroke="transparent" points="-4,4 -4,-73.5 308,-73.5 308,4 -4,4"/>
<!-- Node1 -->
<g id="node1" class="node">
<title>Node1</title>
<g id="a_node1"><a xlink:title=" ">
<polygon fill="#bfbfbf" stroke="black" points="0,-28 0,-47 122,-47 122,-28 0,-28"/>
<text text-anchor="middle" x="61" y="-35" font-family="Helvetica,sans-Serif" font-size="10.00">BasicAttack.ResetState</text>
</a>
</g>
</g>
<!-- Node2 -->
<g id="node2" class="node">
<title>Node2</title>
<g id="a_node2"><a xlink:href="class_photon_1_1_pun_1_1_photon_view.xhtml#a92bc79e36a53f2137e4b45e5162bdd7b" target="_top" xlink:title="Call a RPC method of this GameObject on remote clients of this room (or on all, including this client...">
<polygon fill="white" stroke="black" points="158,-50 158,-69 304,-69 304,-50 158,-50"/>
<text text-anchor="middle" x="231" y="-57" font-family="Helvetica,sans-Serif" font-size="10.00">Photon.Pun.PhotonView.RPC</text>
</a>
</g>
</g>
<!-- Node1&#45;&gt;Node2 -->
<g id="edge1" class="edge">
<title>Node1&#45;&gt;Node2</title>
<path fill="none" stroke="midnightblue" d="M122.18,-45.38C130.5,-46.47 139.16,-47.6 147.8,-48.74"/>
<polygon fill="midnightblue" stroke="midnightblue" points="147.54,-52.23 157.91,-50.06 148.45,-45.29 147.54,-52.23"/>
</g>
<!-- Node3 -->
<g id="node3" class="node">
<title>Node3</title>
<g id="a_node3"><a xlink:href="class_player_controller.xhtml#a36323c07b7cd9e0ccab9c8016611827c" target="_top" xlink:title="The player will look at the position of this Transform.">
<polygon fill="white" stroke="black" points="168.5,-0.5 168.5,-30.5 293.5,-30.5 293.5,-0.5 168.5,-0.5"/>
<text text-anchor="start" x="176.5" y="-18.5" font-family="Helvetica,sans-Serif" font-size="10.00">PlayerController.SetLook</text>
<text text-anchor="middle" x="231" y="-7.5" font-family="Helvetica,sans-Serif" font-size="10.00">AtTarget</text>
</a>
</g>
</g>
<!-- Node1&#45;&gt;Node3 -->
<g id="edge2" class="edge">
<title>Node1&#45;&gt;Node3</title>
<path fill="none" stroke="midnightblue" d="M122.18,-29.62C133.87,-28.09 146.24,-26.47 158.26,-24.89"/>
<polygon fill="midnightblue" stroke="midnightblue" points="158.8,-28.35 168.26,-23.58 157.89,-21.41 158.8,-28.35"/>
</g>
</g>
</svg>
