<?xml version="1.0" encoding="UTF-8" standalone="no"?>
<!DOCTYPE svg PUBLIC "-//W3C//DTD SVG 1.1//EN"
 "http://www.w3.org/Graphics/SVG/1.1/DTD/svg11.dtd">
<!-- Generated by graphviz version 2.47.3 (20210619.1520)
 -->
<!-- Title: PlayerStats.Respawn Pages: 1 -->
<!--zoomable 165 -->
<svg id="main" version="1.1" xmlns="http://www.w3.org/2000/svg" xmlns:xlink="http://www.w3.org/1999/xlink" xml:space="preserve" onload="init(evt)">
<style type="text/css"><![CDATA[
.edge:hover path { stroke: red; }
.edge:hover polygon { stroke: red; fill: red; }
]]></style>
<script type="text/javascript"><![CDATA[
var edges = document.getElementsByTagName('g');
if (edges && edges.length) {
  for (var i=0;i<edges.length;i++) {
    if (edges[i].id.substr(0,4)=='edge') {
      edges[i].setAttribute('class','edge');
    }
  }
}
]]></script>
        <defs>
                <circle id="rim" cx="0" cy="0" r="7"/>
                <circle id="rim2" cx="0" cy="0" r="3.5"/>
                <g id="zoomPlus">
                        <use xlink:href="#rim" fill="#404040">
                                <set attributeName="fill" to="#808080" begin="zoomplus.mouseover" end="zoomplus.mouseout"/>
                        </use>
                        <path d="M-4,0h8M0,-4v8" fill="none" stroke="white" stroke-width="1.5" pointer-events="none"/>
                </g>
                <g id="zoomMin">
                        <use xlink:href="#rim" fill="#404040">
                                <set attributeName="fill" to="#808080" begin="zoomminus.mouseover" end="zoomminus.mouseout"/>
                        </use>
                        <path d="M-4,0h8" fill="none" stroke="white" stroke-width="1.5" pointer-events="none"/>
                </g>
                <g id="dirArrow">
                        <path fill="none" stroke="white" stroke-width="1.5" d="M0,-3.0v7 M-2.5,-0.5L0,-3.0L2.5,-0.5"/>
                </g>
               <g id="resetDef">
                       <use xlink:href="#rim2" fill="#404040">
                               <set attributeName="fill" to="#808080" begin="reset.mouseover" end="reset.mouseout"/>
                       </use>
               </g>
        </defs>

<script type="text/javascript">
var viewWidth = 677;
var viewHeight = 165;
var sectionId = 'dynsection-29';
</script>
<script xlink:href="svgpan.js"/>
<svg id="graph" class="graph">
<g id="viewport">
<title>PlayerStats.Respawn</title>
<!-- Node1 -->
<g id="node1" class="node">
<title>Node1</title>
<g id="a_node1"><a xlink:title="This is triggered when the player respawns.">
<polygon fill="#bfbfbf" stroke="black" points="0,-68.5 0,-87.5 110,-87.5 110,-68.5 0,-68.5"/>
<text text-anchor="middle" x="55" y="-75.5" font-family="Helvetica,sans-Serif" font-size="10.00">PlayerStats.Respawn</text>
</a>
</g>
</g>
<!-- Node2 -->
<g id="node2" class="node">
<title>Node2</title>
<g id="a_node2"><a xlink:href="class_player_stats.html#ae2c6a9d91ac8ff99b7f0dc32079f1931" target="_top" xlink:title=" ">
<polygon fill="none" stroke="black" points="162.5,-93.5 162.5,-112.5 272.5,-112.5 272.5,-93.5 162.5,-93.5"/>
<text text-anchor="middle" x="217.5" y="-100.5" font-family="Helvetica,sans-Serif" font-size="10.00">PlayerStats.HealRPC</text>
</a>
</g>
</g>
<!-- Node1&#45;&gt;Node2 -->
<g id="edge1" class="edge">
<title>Node1&#45;&gt;Node2</title>
<path fill="none" stroke="midnightblue" d="M110.34,-86.46C123.88,-88.57 138.52,-90.85 152.47,-93.03"/>
<polygon fill="midnightblue" stroke="midnightblue" points="152.07,-96.51 162.49,-94.59 153.15,-89.59 152.07,-96.51"/>
</g>
<!-- Node8 -->
<g id="node8" class="node">
<title>Node8</title>
<g id="a_node8"><a xlink:href="class_player_stats.html#a0348bfd846a1fb5122239414e9ec558b" target="_top" xlink:title=" ">
<polygon fill="none" stroke="black" points="146,-44.5 146,-63.5 289,-63.5 289,-44.5 146,-44.5"/>
<text text-anchor="middle" x="217.5" y="-51.5" font-family="Helvetica,sans-Serif" font-size="10.00">PlayerStats.RegenManaRPC</text>
</a>
</g>
</g>
<!-- Node1&#45;&gt;Node8 -->
<g id="edge8" class="edge">
<title>Node1&#45;&gt;Node8</title>
<path fill="none" stroke="midnightblue" d="M110.34,-69.87C120.78,-68.31 131.88,-66.65 142.82,-65.02"/>
<polygon fill="midnightblue" stroke="midnightblue" points="143.42,-68.47 152.79,-63.53 142.38,-61.54 143.42,-68.47"/>
</g>
<!-- Node3 -->
<g id="node3" class="node">
<title>Node3</title>
<g id="a_node3"><a xlink:href="class_player_u_i_controller.html#aca577b724c1f3f2ed54ad1165a7842c2" target="_top" xlink:title="Sets the current HP value to the Image.">
<polygon fill="none" stroke="black" points="338.5,-88 338.5,-118 466.5,-118 466.5,-88 338.5,-88"/>
<text text-anchor="start" x="346.5" y="-106" font-family="Helvetica,sans-Serif" font-size="10.00">PlayerUIController.Update</text>
<text text-anchor="middle" x="402.5" y="-95" font-family="Helvetica,sans-Serif" font-size="10.00">CurrentHP</text>
</a>
</g>
</g>
<!-- Node2&#45;&gt;Node3 -->
<g id="edge2" class="edge">
<title>Node2&#45;&gt;Node3</title>
<path fill="none" stroke="midnightblue" d="M272.91,-103C290.25,-103 309.72,-103 328.16,-103"/>
<polygon fill="midnightblue" stroke="midnightblue" points="328.29,-106.5 338.29,-103 328.29,-99.5 328.29,-106.5"/>
</g>
<!-- Node6 -->
<g id="node6" class="node">
<title>Node6</title>
<g id="a_node6"><a xlink:href="class_player_h_u_d_controller.html#ab2461120d3cfef6e83b38062b1373e04" target="_top" xlink:title=" ">
<polygon fill="none" stroke="black" points="326,-137.5 326,-156.5 479,-156.5 479,-137.5 326,-137.5"/>
<text text-anchor="middle" x="402.5" y="-144.5" font-family="Helvetica,sans-Serif" font-size="10.00">PlayerHUDController.UpdateHP</text>
</a>
</g>
</g>
<!-- Node2&#45;&gt;Node6 -->
<g id="edge5" class="edge">
<title>Node2&#45;&gt;Node6</title>
<path fill="none" stroke="midnightblue" d="M258.21,-112.55C285.67,-119.15 322.4,-127.98 351.8,-135.05"/>
<polygon fill="midnightblue" stroke="midnightblue" points="351.33,-138.54 361.87,-137.47 352.96,-131.73 351.33,-138.54"/>
</g>
<!-- Node4 -->
<g id="node4" class="node">
<title>Node4</title>
<g id="a_node4"><a xlink:href="class_utils.html#a459472171f68c903c975020cc5b02fee" target="_top" xlink:title="Calculates the actual normalized fill amount for the image.">
<polygon fill="none" stroke="black" points="529.5,-50.5 529.5,-69.5 655.5,-69.5 655.5,-50.5 529.5,-50.5"/>
<text text-anchor="middle" x="592.5" y="-57.5" font-family="Helvetica,sans-Serif" font-size="10.00">Utils.CalculateFillAmount</text>
</a>
</g>
</g>
<!-- Node3&#45;&gt;Node4 -->
<g id="edge3" class="edge">
<title>Node3&#45;&gt;Node4</title>
<path fill="none" stroke="midnightblue" d="M466.62,-88.56C490.51,-83.1 517.38,-76.95 540.06,-71.77"/>
<polygon fill="midnightblue" stroke="midnightblue" points="540.86,-75.17 549.83,-69.53 539.3,-68.35 540.86,-75.17"/>
</g>
<!-- Node5 -->
<g id="node5" class="node">
<title>Node5</title>
<g id="a_node5"><a xlink:href="class_player_u_i_controller.html#aaa62b1e4dc1ee6689adbc72b8dcb73d3" target="_top" xlink:title="When you heal HP, we will reset the lerped bar">
<polygon fill="none" stroke="black" points="521.5,-93.5 521.5,-112.5 663.5,-112.5 663.5,-93.5 521.5,-93.5"/>
<text text-anchor="middle" x="592.5" y="-100.5" font-family="Helvetica,sans-Serif" font-size="10.00">PlayerUIController.ResetLerp</text>
</a>
</g>
</g>
<!-- Node3&#45;&gt;Node5 -->
<g id="edge4" class="edge">
<title>Node3&#45;&gt;Node5</title>
<path fill="none" stroke="midnightblue" d="M466.62,-103C480.92,-103 496.3,-103 511.2,-103"/>
<polygon fill="midnightblue" stroke="midnightblue" points="511.43,-106.5 521.43,-103 511.43,-99.5 511.43,-106.5"/>
</g>
<!-- Node6&#45;&gt;Node4 -->
<g id="edge6" class="edge">
<title>Node6&#45;&gt;Node4</title>
<path fill="none" stroke="midnightblue" d="M459.96,-137.42C467,-134.97 473.87,-131.88 480,-128 501.35,-114.49 495.1,-98.19 516,-84 522.48,-79.6 529.81,-75.97 537.3,-72.99"/>
<polygon fill="midnightblue" stroke="midnightblue" points="538.6,-76.24 546.81,-69.54 536.22,-69.65 538.6,-76.24"/>
</g>
<!-- Node7 -->
<g id="node7" class="node">
<title>Node7</title>
<g id="a_node7"><a xlink:href="class_player_h_u_d_controller.html#ad2c7c75671ae997600550e725a75e136" target="_top" xlink:title=" ">
<polygon fill="none" stroke="black" points="516,-137.5 516,-156.5 669,-156.5 669,-137.5 516,-137.5"/>
<text text-anchor="middle" x="592.5" y="-144.5" font-family="Helvetica,sans-Serif" font-size="10.00">PlayerHUDController.ResetLerp</text>
</a>
</g>
</g>
<!-- Node6&#45;&gt;Node7 -->
<g id="edge7" class="edge">
<title>Node6&#45;&gt;Node7</title>
<path fill="none" stroke="midnightblue" d="M479.15,-147C487.81,-147 496.68,-147 505.45,-147"/>
<polygon fill="midnightblue" stroke="midnightblue" points="505.69,-150.5 515.69,-147 505.69,-143.5 505.69,-150.5"/>
</g>
<!-- Node9 -->
<g id="node9" class="node">
<title>Node9</title>
<g id="a_node9"><a xlink:href="class_player_u_i_controller.html#ac7bf7455ce00b144f6a1678e524819b2" target="_top" xlink:title="Sets the current MP value to the Image.">
<polygon fill="none" stroke="black" points="338.5,-39 338.5,-69 466.5,-69 466.5,-39 338.5,-39"/>
<text text-anchor="start" x="346.5" y="-57" font-family="Helvetica,sans-Serif" font-size="10.00">PlayerUIController.Update</text>
<text text-anchor="middle" x="402.5" y="-46" font-family="Helvetica,sans-Serif" font-size="10.00">CurrentMana</text>
</a>
</g>
</g>
<!-- Node8&#45;&gt;Node9 -->
<g id="edge9" class="edge">
<title>Node8&#45;&gt;Node9</title>
<path fill="none" stroke="midnightblue" d="M289.25,-54C302.03,-54 315.38,-54 328.22,-54"/>
<polygon fill="midnightblue" stroke="midnightblue" points="328.4,-57.5 338.4,-54 328.4,-50.5 328.4,-57.5"/>
</g>
<!-- Node10 -->
<g id="node10" class="node">
<title>Node10</title>
<g id="a_node10"><a xlink:href="class_player_h_u_d_controller.html#a09d27238c0e659b8f98828367c7622ba" target="_top" xlink:title=" ">
<polygon fill="none" stroke="black" points="325,-0.5 325,-19.5 480,-19.5 480,-0.5 325,-0.5"/>
<text text-anchor="middle" x="402.5" y="-7.5" font-family="Helvetica,sans-Serif" font-size="10.00">PlayerHUDController.UpdateMP</text>
</a>
</g>
</g>
<!-- Node8&#45;&gt;Node10 -->
<g id="edge11" class="edge">
<title>Node8&#45;&gt;Node10</title>
<path fill="none" stroke="midnightblue" d="M258.21,-44.45C285.67,-37.85 322.4,-29.02 351.8,-21.95"/>
<polygon fill="midnightblue" stroke="midnightblue" points="352.96,-25.27 361.87,-19.53 351.33,-18.46 352.96,-25.27"/>
</g>
<!-- Node9&#45;&gt;Node4 -->
<g id="edge10" class="edge">
<title>Node9&#45;&gt;Node4</title>
<path fill="none" stroke="midnightblue" d="M466.62,-56.01C483.48,-56.55 501.82,-57.14 519.13,-57.69"/>
<polygon fill="midnightblue" stroke="midnightblue" points="519.07,-61.19 529.18,-58.01 519.3,-54.19 519.07,-61.19"/>
</g>
<!-- Node10&#45;&gt;Node4 -->
<g id="edge12" class="edge">
<title>Node10&#45;&gt;Node4</title>
<path fill="none" stroke="midnightblue" d="M442.86,-19.55C454.81,-22.51 467.96,-25.83 480,-29 502.54,-34.93 527.55,-41.85 548.16,-47.65"/>
<polygon fill="midnightblue" stroke="midnightblue" points="547.32,-51.05 557.9,-50.4 549.22,-44.31 547.32,-51.05"/>
</g>
</g>
</svg>
        <g id="navigator" transform="translate(0 0)" fill="#404254">
                <rect fill="#f2f5e9" fill-opacity="0.5" stroke="#606060" stroke-width=".5" x="0" y="0" width="60" height="60"/>
                <use id="zoomplus" xlink:href="#zoomPlus" x="17" y="9" onmousedown="handleZoom(evt,'in')"/>
                <use id="zoomminus" xlink:href="#zoomMin" x="42" y="9" onmousedown="handleZoom(evt,'out')"/>
                <use id="reset" xlink:href="#resetDef" x="30" y="36" onmousedown="handleReset()"/>
                <g id="arrowUp" xlink:href="#dirArrow" transform="translate(30 24)" onmousedown="handlePan(0,-1)">
                  <use xlink:href="#rim" fill="#404040">
                        <set attributeName="fill" to="#808080" begin="arrowUp.mouseover" end="arrowUp.mouseout"/>
                  </use>
                  <path fill="none" stroke="white" stroke-width="1.5" d="M0,-3.0v7 M-2.5,-0.5L0,-3.0L2.5,-0.5"/>
                </g>
                <g id="arrowRight" xlink:href="#dirArrow" transform="rotate(90) translate(36 -43)" onmousedown="handlePan(1,0)">
                  <use xlink:href="#rim" fill="#404040">
                        <set attributeName="fill" to="#808080" begin="arrowRight.mouseover" end="arrowRight.mouseout"/>
                  </use>
                  <path fill="none" stroke="white" stroke-width="1.5" d="M0,-3.0v7 M-2.5,-0.5L0,-3.0L2.5,-0.5"/>
                </g>
                <g id="arrowDown" xlink:href="#dirArrow" transform="rotate(180) translate(-30 -48)" onmousedown="handlePan(0,1)">
                  <use xlink:href="#rim" fill="#404040">
                        <set attributeName="fill" to="#808080" begin="arrowDown.mouseover" end="arrowDown.mouseout"/>
                  </use>
                  <path fill="none" stroke="white" stroke-width="1.5" d="M0,-3.0v7 M-2.5,-0.5L0,-3.0L2.5,-0.5"/>
                </g>
                <g id="arrowLeft" xlink:href="#dirArrow" transform="rotate(270) translate(-36 17)" onmousedown="handlePan(-1,0)">
                  <use xlink:href="#rim" fill="#404040">
                        <set attributeName="fill" to="#808080" begin="arrowLeft.mouseover" end="arrowLeft.mouseout"/>
                  </use>
                  <path fill="none" stroke="white" stroke-width="1.5" d="M0,-3.0v7 M-2.5,-0.5L0,-3.0L2.5,-0.5"/>
                </g>
        </g>
        <svg viewBox="0 0 15 15" width="100%" height="30px" preserveAspectRatio="xMaxYMin meet">
         <g id="arrow_out" transform="scale(0.3 0.3)">
          <a xlink:href="class_player_stats_a27fb46ca044608f34db45eb95ac16b4c_cgraph_org.svg" target="_base">
           <rect id="button" ry="5" rx="5" y="6" x="6" height="38" width="38"
                fill="#f2f5e9" fill-opacity="0.5" stroke="#606060" stroke-width="1.0"/>
           <path id="arrow"
             d="M 11.500037,31.436501 C 11.940474,20.09759 22.043105,11.32322 32.158766,21.979434 L 37.068811,17.246167 C 37.068811,17.246167 37.088388,32 37.088388,32 L 22.160133,31.978069 C 22.160133,31.978069 26.997745,27.140456 26.997745,27.140456 C 18.528582,18.264221 13.291696,25.230495 11.500037,31.436501 z"
             style="fill:#404040;"/>
          </a>
         </g>
        </svg>
</svg>
