<?xml version="1.0" encoding="UTF-8" standalone="no"?>
<!DOCTYPE svg PUBLIC "-//W3C//DTD SVG 1.1//EN"
 "http://www.w3.org/Graphics/SVG/1.1/DTD/svg11.dtd">
<!-- Generated by graphviz version 2.47.3 (20210619.1520)
 -->
<!-- Title: PlayerUIController.UpdateCurrentHP Pages: 1 -->
<svg width="731pt" height="85pt"
 viewBox="0.00 0.00 731.00 85.00" xmlns="http://www.w3.org/2000/svg" xmlns:xlink="http://www.w3.org/1999/xlink">
<g id="graph0" class="graph" transform="scale(1 1) rotate(0) translate(4 81)">
<title>PlayerUIController.UpdateCurrentHP</title>
<!-- Node1 -->
<g id="node1" class="node">
<title>Node1</title>
<g id="a_node1"><a xlink:title="Sets the current HP value to the Image.">
<polygon fill="#bfbfbf" stroke="black" points="595,-33 595,-63 723,-63 723,-33 595,-33"/>
<text text-anchor="start" x="603" y="-51" font-family="Helvetica,sans-Serif" font-size="10.00">PlayerUIController.Update</text>
<text text-anchor="middle" x="659" y="-40" font-family="Helvetica,sans-Serif" font-size="10.00">CurrentHP</text>
</a>
</g>
</g>
<!-- Node2 -->
<g id="node2" class="node">
<title>Node2</title>
<g id="a_node2"><a xlink:href="class_player_stats.html#a6542a649dfb0cccc9fe329c83024e3ed" target="_top" xlink:title=" ">
<polygon fill="none" stroke="black" points="0,-57.5 0,-76.5 146,-76.5 146,-57.5 0,-57.5"/>
<text text-anchor="middle" x="73" y="-64.5" font-family="Helvetica,sans-Serif" font-size="10.00">PlayerStats.DealDamageRPC</text>
</a>
</g>
</g>
<!-- Node1&#45;&gt;Node2 -->
<g id="edge1" class="edge">
<title>Node1&#45;&gt;Node2</title>
<path fill="none" stroke="midnightblue" d="M584.78,-63.66C576.13,-65.03 567.39,-66.2 559,-67 412.94,-80.89 241.01,-75.87 146.1,-71.25"/>
<polygon fill="midnightblue" stroke="midnightblue" points="585.6,-67.07 594.88,-61.96 584.44,-60.17 585.6,-67.07"/>
</g>
<!-- Node3 -->
<g id="node3" class="node">
<title>Node3</title>
<g id="a_node3"><a xlink:href="class_player_stats.html#a07cb6a60391d769fea03f1bc3b6927c6" target="_top" xlink:title=" ">
<polygon fill="none" stroke="black" points="449,-38.5 449,-57.5 559,-57.5 559,-38.5 449,-38.5"/>
<text text-anchor="middle" x="504" y="-45.5" font-family="Helvetica,sans-Serif" font-size="10.00">PlayerStats.HealRPC</text>
</a>
</g>
</g>
<!-- Node1&#45;&gt;Node3 -->
<g id="edge2" class="edge">
<title>Node1&#45;&gt;Node3</title>
<path fill="none" stroke="midnightblue" d="M584.81,-48C576.17,-48 567.49,-48 559.18,-48"/>
<polygon fill="midnightblue" stroke="midnightblue" points="584.89,-51.5 594.89,-48 584.89,-44.5 584.89,-51.5"/>
</g>
<!-- Node6 -->
<g id="node6" class="node">
<title>Node6</title>
<g id="a_node6"><a xlink:href="class_player_stats.html#a75c908d1b8c5eb0b414db7ab99ceab9e" target="_top" xlink:title="Called whenever the player levels up.">
<polygon fill="none" stroke="black" points="452,-0.5 452,-19.5 556,-19.5 556,-0.5 452,-0.5"/>
<text text-anchor="middle" x="504" y="-7.5" font-family="Helvetica,sans-Serif" font-size="10.00">PlayerStats.LevelUp</text>
</a>
</g>
</g>
<!-- Node1&#45;&gt;Node6 -->
<g id="edge6" class="edge">
<title>Node1&#45;&gt;Node6</title>
<path fill="none" stroke="midnightblue" d="M587.62,-30.52C572.42,-26.75 556.9,-22.89 543.48,-19.56"/>
<polygon fill="midnightblue" stroke="midnightblue" points="586.98,-33.97 597.53,-32.98 588.67,-27.17 586.98,-33.97"/>
</g>
<!-- Node4 -->
<g id="node4" class="node">
<title>Node4</title>
<g id="a_node4"><a xlink:href="class_player_stats.html#a27fb46ca044608f34db45eb95ac16b4c" target="_top" xlink:title=" ">
<polygon fill="none" stroke="black" points="303,-38.5 303,-57.5 413,-57.5 413,-38.5 303,-38.5"/>
<text text-anchor="middle" x="358" y="-45.5" font-family="Helvetica,sans-Serif" font-size="10.00">PlayerStats.Respawn</text>
</a>
</g>
</g>
<!-- Node3&#45;&gt;Node4 -->
<g id="edge3" class="edge">
<title>Node3&#45;&gt;Node4</title>
<path fill="none" stroke="midnightblue" d="M438.73,-48C430.25,-48 421.62,-48 413.33,-48"/>
<polygon fill="midnightblue" stroke="midnightblue" points="438.97,-51.5 448.97,-48 438.97,-44.5 438.97,-51.5"/>
</g>
<!-- Node5 -->
<g id="node5" class="node">
<title>Node5</title>
<g id="a_node5"><a xlink:href="class_player_stats.html#a5caca2bd8f676341a2b269aea8a0f1ff" target="_top" xlink:title="Function that implements what is done when this entity dies.">
<polygon fill="none" stroke="black" points="182,-38.5 182,-57.5 267,-57.5 267,-38.5 182,-38.5"/>
<text text-anchor="middle" x="224.5" y="-45.5" font-family="Helvetica,sans-Serif" font-size="10.00">PlayerStats.Die</text>
</a>
</g>
</g>
<!-- Node4&#45;&gt;Node5 -->
<g id="edge4" class="edge">
<title>Node4&#45;&gt;Node5</title>
<path fill="none" stroke="midnightblue" d="M292.64,-48C283.98,-48 275.29,-48 267.16,-48"/>
<polygon fill="midnightblue" stroke="midnightblue" points="292.75,-51.5 302.75,-48 292.75,-44.5 292.75,-51.5"/>
</g>
<!-- Node5&#45;&gt;Node2 -->
<g id="edge5" class="edge">
<title>Node5&#45;&gt;Node2</title>
<path fill="none" stroke="midnightblue" d="M171.91,-54.56C163.56,-55.62 154.79,-56.73 146.06,-57.84"/>
<polygon fill="midnightblue" stroke="midnightblue" points="172.38,-58.03 181.86,-53.29 171.49,-51.08 172.38,-58.03"/>
</g>
<!-- Node7 -->
<g id="node7" class="node">
<title>Node7</title>
<g id="a_node7"><a xlink:href="class_player_stats.html#a2515cde362ce22291cde0073d23e2d9c" target="_top" xlink:title="Add some XP amount.">
<polygon fill="none" stroke="black" points="308,-0.5 308,-19.5 408,-19.5 408,-0.5 308,-0.5"/>
<text text-anchor="middle" x="358" y="-7.5" font-family="Helvetica,sans-Serif" font-size="10.00">PlayerStats.AddXP</text>
</a>
</g>
</g>
<!-- Node6&#45;&gt;Node7 -->
<g id="edge7" class="edge">
<title>Node6&#45;&gt;Node7</title>
<path fill="none" stroke="midnightblue" d="M441.66,-10C430.44,-10 418.88,-10 408.08,-10"/>
<polygon fill="midnightblue" stroke="midnightblue" points="441.83,-13.5 451.83,-10 441.83,-6.5 441.83,-13.5"/>
</g>
</g>
</svg>
