<?xml version="1.0" encoding="UTF-8" standalone="no"?>
<!DOCTYPE svg PUBLIC "-//W3C//DTD SVG 1.1//EN"
 "http://www.w3.org/Graphics/SVG/1.1/DTD/svg11.dtd">
<!-- Generated by graphviz version 2.47.3 (20210619.1520)
 -->
<!-- Title: EffectManager Pages: 1 -->
<svg width="968pt" height="442pt"
 viewBox="0.00 0.00 967.50 442.00" xmlns="http://www.w3.org/2000/svg" xmlns:xlink="http://www.w3.org/1999/xlink">
<g id="graph0" class="graph" transform="scale(1 1) rotate(0) translate(4 438)">
<title>EffectManager</title>
<polygon fill="white" stroke="transparent" points="-4,4 -4,-438 963.5,-438 963.5,4 -4,4"/>
<!-- Node1 -->
<g id="node1" class="node">
<title>Node1</title>
<g id="a_node1"><a xlink:title=" ">
<polygon fill="#bfbfbf" stroke="black" points="112.5,-134.5 112.5,-153.5 191.5,-153.5 191.5,-134.5 112.5,-134.5"/>
<text text-anchor="middle" x="152" y="-141.5" font-family="Helvetica,sans-Serif" font-size="10.00">EffectManager</text>
</a>
</g>
</g>
<!-- Node2 -->
<g id="node2" class="node">
<title>Node2</title>
<g id="a_node2"><a xlink:title=" ">
<polygon fill="white" stroke="#bfbfbf" points="218.5,-414.5 218.5,-433.5 301.5,-433.5 301.5,-414.5 218.5,-414.5"/>
<text text-anchor="middle" x="260" y="-421.5" font-family="Helvetica,sans-Serif" font-size="10.00">MonoBehaviour</text>
</a>
</g>
</g>
<!-- Node2&#45;&gt;Node1 -->
<g id="edge1" class="edge">
<title>Node2&#45;&gt;Node1</title>
<path fill="none" stroke="midnightblue" d="M208.04,-417.68C153.63,-410.63 76,-395.72 76,-368 76,-368 76,-368 76,-254.5 76,-209.84 119.2,-170.28 140.46,-153.52"/>
<polygon fill="midnightblue" stroke="midnightblue" points="207.89,-421.19 218.25,-418.95 208.75,-414.24 207.89,-421.19"/>
</g>
<!-- Node5 -->
<g id="node5" class="node">
<title>Node5</title>
<g id="a_node5"><a xlink:href="class_stats.xhtml" target="_top" xlink:title="Base class Stats of the entity.">
<polygon fill="white" stroke="black" points="173,-357.5 173,-376.5 213,-376.5 213,-357.5 173,-357.5"/>
<text text-anchor="middle" x="193" y="-364.5" font-family="Helvetica,sans-Serif" font-size="10.00">Stats</text>
</a>
</g>
</g>
<!-- Node2&#45;&gt;Node5 -->
<g id="edge5" class="edge">
<title>Node2&#45;&gt;Node5</title>
<path fill="none" stroke="midnightblue" d="M241.73,-408C229.5,-397.96 213.84,-385.1 203.62,-376.71"/>
<polygon fill="midnightblue" stroke="midnightblue" points="239.58,-410.77 249.53,-414.41 244.02,-405.36 239.58,-410.77"/>
</g>
<!-- Node7 -->
<g id="node7" class="node">
<title>Node7</title>
<g id="a_node7"><a xlink:href="class_u_i_controller.xhtml" target="_top" xlink:title=" ">
<polygon fill="white" stroke="black" points="358.5,-357.5 358.5,-376.5 425.5,-376.5 425.5,-357.5 358.5,-357.5"/>
<text text-anchor="middle" x="392" y="-364.5" font-family="Helvetica,sans-Serif" font-size="10.00">UIController</text>
</a>
</g>
</g>
<!-- Node2&#45;&gt;Node7 -->
<g id="edge8" class="edge">
<title>Node2&#45;&gt;Node7</title>
<path fill="none" stroke="midnightblue" d="M291.73,-410.66C303.19,-406.14 316.21,-400.92 328,-396 343.22,-389.65 360.33,-382.14 373.03,-376.5"/>
<polygon fill="midnightblue" stroke="midnightblue" points="290.15,-407.52 282.13,-414.44 292.71,-414.04 290.15,-407.52"/>
</g>
<!-- Node8 -->
<g id="node8" class="node">
<title>Node8</title>
<g id="a_node8"><a xlink:href="class_player_controller.xhtml" target="_top" xlink:title="Player Controller is the main class that handles all the movement of the Player.">
<polygon fill="white" stroke="black" points="327,-134.5 327,-153.5 413,-153.5 413,-134.5 327,-134.5"/>
<text text-anchor="middle" x="370" y="-141.5" font-family="Helvetica,sans-Serif" font-size="10.00">PlayerController</text>
</a>
</g>
</g>
<!-- Node2&#45;&gt;Node8 -->
<g id="edge10" class="edge">
<title>Node2&#45;&gt;Node8</title>
<path fill="none" stroke="midnightblue" d="M259.25,-404.12C257.22,-348.83 252.7,-190.01 267,-172 274.65,-162.37 302.15,-155.46 326.81,-151.04"/>
<polygon fill="midnightblue" stroke="midnightblue" points="255.76,-404.4 259.63,-414.26 262.75,-404.14 255.76,-404.4"/>
</g>
<!-- Node9 -->
<g id="node9" class="node">
<title>Node9</title>
<g id="a_node9"><a xlink:href="class_ability_cooldown.xhtml" target="_top" xlink:title=" ">
<polygon fill="white" stroke="black" points="562,-67.5 562,-86.5 648,-86.5 648,-67.5 562,-67.5"/>
<text text-anchor="middle" x="605" y="-74.5" font-family="Helvetica,sans-Serif" font-size="10.00">AbilityCooldown</text>
</a>
</g>
</g>
<!-- Node2&#45;&gt;Node9 -->
<g id="edge12" class="edge">
<title>Node2&#45;&gt;Node9</title>
<path fill="none" stroke="midnightblue" d="M311.55,-422.13C419.57,-417.15 668.16,-388.39 771,-232 787.09,-207.53 786.92,-174.31 751,-134 724.63,-104.41 680.85,-90.35 648.1,-83.74"/>
<polygon fill="midnightblue" stroke="midnightblue" points="311.39,-418.63 301.55,-422.54 311.68,-425.63 311.39,-418.63"/>
</g>
<!-- Node13 -->
<g id="node13" class="node">
<title>Node13</title>
<g id="a_node13"><a xlink:href="class_ability_indicator.xhtml" target="_top" xlink:title=" ">
<polygon fill="white" stroke="black" points="565,-0.5 565,-19.5 645,-19.5 645,-0.5 565,-0.5"/>
<text text-anchor="middle" x="605" y="-7.5" font-family="Helvetica,sans-Serif" font-size="10.00">AbilityIndicator</text>
</a>
</g>
</g>
<!-- Node2&#45;&gt;Node13 -->
<g id="edge19" class="edge">
<title>Node2&#45;&gt;Node13</title>
<path fill="none" stroke="midnightblue" d="M207.91,-422.41C132.02,-420.12 0,-410.08 0,-368 0,-368 0,-368 0,-76 0,-19.02 429.71,-11.92 564.84,-11.09"/>
<polygon fill="midnightblue" stroke="midnightblue" points="208.14,-425.92 218.23,-422.69 208.32,-418.92 208.14,-425.92"/>
</g>
<!-- Node16 -->
<g id="node16" class="node">
<title>Node16</title>
<g id="a_node16"><a xlink:href="class_basic_attack.xhtml" target="_top" xlink:title=" ">
<polygon fill="white" stroke="black" points="209,-67.5 209,-86.5 279,-86.5 279,-67.5 209,-67.5"/>
<text text-anchor="middle" x="244" y="-74.5" font-family="Helvetica,sans-Serif" font-size="10.00">BasicAttack</text>
</a>
</g>
</g>
<!-- Node2&#45;&gt;Node16 -->
<g id="edge29" class="edge">
<title>Node2&#45;&gt;Node16</title>
<path fill="none" stroke="midnightblue" d="M208.07,-420.45C142.46,-415.78 38,-402.86 38,-368 38,-368 38,-368 38,-143 38,-107.65 149.69,-89.12 208.59,-81.8"/>
<polygon fill="midnightblue" stroke="midnightblue" points="208.03,-423.95 218.24,-421.13 208.5,-416.97 208.03,-423.95"/>
</g>
<!-- Node17 -->
<g id="node17" class="node">
<title>Node17</title>
<g id="a_node17"><a xlink:href="class_inventory.xhtml" target="_top" xlink:title=" ">
<polygon fill="white" stroke="black" points="289.5,-318.5 289.5,-337.5 344.5,-337.5 344.5,-318.5 289.5,-318.5"/>
<text text-anchor="middle" x="317" y="-325.5" font-family="Helvetica,sans-Serif" font-size="10.00">Inventory</text>
</a>
</g>
</g>
<!-- Node2&#45;&gt;Node17 -->
<g id="edge36" class="edge">
<title>Node2&#45;&gt;Node17</title>
<path fill="none" stroke="midnightblue" d="M276.77,-407.32C280.07,-403.78 283.32,-399.91 286,-396 299.17,-376.75 309.28,-351.01 314.03,-337.73"/>
<polygon fill="midnightblue" stroke="midnightblue" points="274.29,-404.86 269.72,-414.42 279.25,-409.79 274.29,-404.86"/>
</g>
<!-- Node3 -->
<g id="node3" class="node">
<title>Node3</title>
<g id="a_node3"><a xlink:href="class_player_stats.xhtml" target="_top" xlink:title="Player Stats is the main class that controls all the Player Statistics in all time in the game execut...">
<polygon fill="white" stroke="black" points="300,-212.5 300,-231.5 368,-231.5 368,-212.5 300,-212.5"/>
<text text-anchor="middle" x="334" y="-219.5" font-family="Helvetica,sans-Serif" font-size="10.00">PlayerStats</text>
</a>
</g>
</g>
<!-- Node3&#45;&gt;Node1 -->
<g id="edge2" class="edge">
<title>Node3&#45;&gt;Node1</title>
<path fill="none" stroke="#9a32cd" stroke-dasharray="5,2" d="M304.17,-208.54C267.03,-193.03 204.57,-166.95 172.45,-153.54"/>
<polygon fill="#9a32cd" stroke="#9a32cd" points="302.9,-211.81 313.48,-212.43 305.6,-205.35 302.9,-211.81"/>
<text text-anchor="middle" x="277.5" y="-180.5" font-family="Helvetica,sans-Serif" font-size="10.00"> stats</text>
</g>
<!-- Node3&#45;&gt;Node8 -->
<g id="edge27" class="edge">
<title>Node3&#45;&gt;Node8</title>
<path fill="none" stroke="#9a32cd" stroke-dasharray="5,2" d="M377.91,-213.77C388.85,-209.78 399.35,-203.59 406,-194 411.57,-185.96 410.37,-180.75 406,-172 402.09,-164.17 394.71,-158.03 387.64,-153.59"/>
<polygon fill="#9a32cd" stroke="#9a32cd" points="376.78,-210.46 368.26,-216.74 378.84,-217.14 376.78,-210.46"/>
<text text-anchor="middle" x="421.5" y="-180.5" font-family="Helvetica,sans-Serif" font-size="10.00"> stats</text>
</g>
<!-- Node3&#45;&gt;Node9 -->
<g id="edge23" class="edge">
<title>Node3&#45;&gt;Node9</title>
<path fill="none" stroke="#9a32cd" stroke-dasharray="5,2" d="M378.65,-219.8C427.41,-217.62 501.46,-211.44 523,-194 545.07,-176.13 526.74,-155.76 545,-134 555.24,-121.79 564.05,-126.54 576,-116 585.84,-107.33 594.58,-94.89 599.83,-86.63"/>
<polygon fill="#9a32cd" stroke="#9a32cd" points="378.2,-216.32 368.35,-220.22 378.49,-223.31 378.2,-216.32"/>
<text text-anchor="middle" x="571.5" y="-141.5" font-family="Helvetica,sans-Serif" font-size="10.00"> playerStats</text>
</g>
<!-- Node3&#45;&gt;Node16 -->
<g id="edge33" class="edge">
<title>Node3&#45;&gt;Node16</title>
<path fill="none" stroke="#9a32cd" stroke-dasharray="5,2" d="M289.63,-219.08C271.9,-215.85 253.09,-208.81 242,-194 217.49,-161.27 233.11,-107.51 240.63,-86.65"/>
<polygon fill="#9a32cd" stroke="#9a32cd" points="289.48,-222.59 299.88,-220.56 290.49,-215.66 289.48,-222.59"/>
<text text-anchor="middle" x="242.5" y="-141.5" font-family="Helvetica,sans-Serif" font-size="10.00"> stats</text>
</g>
<!-- Node4 -->
<g id="node4" class="node">
<title>Node4</title>
<g id="a_node4"><a xlink:href="class_ability_affected_stats.xhtml" target="_top" xlink:title="Base class Stats of the entity who is affected by Abilities.">
<polygon fill="white" stroke="black" points="142,-279.5 142,-298.5 244,-298.5 244,-279.5 142,-279.5"/>
<text text-anchor="middle" x="193" y="-286.5" font-family="Helvetica,sans-Serif" font-size="10.00">AbilityAffectedStats</text>
</a>
</g>
</g>
<!-- Node4&#45;&gt;Node3 -->
<g id="edge3" class="edge">
<title>Node4&#45;&gt;Node3</title>
<path fill="none" stroke="midnightblue" d="M220.96,-275.11C248.88,-262.24 291.04,-242.81 315.2,-231.67"/>
<polygon fill="midnightblue" stroke="midnightblue" points="219.34,-272 211.72,-279.37 222.27,-278.36 219.34,-272"/>
</g>
<!-- Node5&#45;&gt;Node4 -->
<g id="edge4" class="edge">
<title>Node5&#45;&gt;Node4</title>
<path fill="none" stroke="midnightblue" d="M193,-347.22C193,-331.7 193,-310.36 193,-298.62"/>
<polygon fill="midnightblue" stroke="midnightblue" points="189.5,-347.28 193,-357.28 196.5,-347.28 189.5,-347.28"/>
</g>
<!-- Node5&#45;&gt;Node16 -->
<g id="edge31" class="edge">
<title>Node5&#45;&gt;Node16</title>
<path fill="none" stroke="#9a32cd" stroke-dasharray="5,2" d="M174.44,-350.3C160.87,-337.79 143.13,-319.09 133,-299 99.43,-232.45 61.14,-195.67 103,-134 126.52,-99.35 175.22,-86.14 208.74,-81.1"/>
<polygon fill="#9a32cd" stroke="#9a32cd" points="172.45,-353.21 182.24,-357.25 177.1,-347.98 172.45,-353.21"/>
<text text-anchor="middle" x="121.5" y="-219.5" font-family="Helvetica,sans-Serif" font-size="10.00"> otherStats</text>
</g>
<!-- Node6 -->
<g id="node6" class="node">
<title>Node6</title>
<g id="a_node6"><a xlink:href="class_player_u_i_controller.xhtml" target="_top" xlink:title="UI Controller for the Player Stats">
<polygon fill="white" stroke="black" points="378.5,-279.5 378.5,-298.5 473.5,-298.5 473.5,-279.5 378.5,-279.5"/>
<text text-anchor="middle" x="426" y="-286.5" font-family="Helvetica,sans-Serif" font-size="10.00">PlayerUIController</text>
</a>
</g>
</g>
<!-- Node6&#45;&gt;Node3 -->
<g id="edge6" class="edge">
<title>Node6&#45;&gt;Node3</title>
<path fill="none" stroke="#9a32cd" stroke-dasharray="5,2" d="M405.36,-273.42C387.18,-260.57 361.29,-242.28 346.21,-231.63"/>
<polygon fill="#9a32cd" stroke="#9a32cd" points="403.41,-276.32 413.59,-279.23 407.44,-270.6 403.41,-276.32"/>
<text text-anchor="middle" x="406" y="-253" font-family="Helvetica,sans-Serif" font-size="10.00"> uiControl</text>
</g>
<!-- Node7&#45;&gt;Node6 -->
<g id="edge7" class="edge">
<title>Node7&#45;&gt;Node6</title>
<path fill="none" stroke="midnightblue" d="M400,-348.12C406.97,-332.53 416.79,-310.59 422.15,-298.62"/>
<polygon fill="midnightblue" stroke="midnightblue" points="396.79,-346.72 395.9,-357.28 403.18,-349.58 396.79,-346.72"/>
</g>
<!-- Node8&#45;&gt;Node3 -->
<g id="edge9" class="edge">
<title>Node8&#45;&gt;Node3</title>
<path fill="none" stroke="#9a32cd" stroke-dasharray="5,2" d="M344.64,-159.99C340.76,-163.43 337.3,-167.44 335,-172 328.49,-184.92 330.18,-202.29 332.06,-212.5"/>
<polygon fill="#9a32cd" stroke="#9a32cd" points="347.04,-162.56 352.91,-153.73 342.82,-156.97 347.04,-162.56"/>
<text text-anchor="middle" x="370.5" y="-180.5" font-family="Helvetica,sans-Serif" font-size="10.00"> playerController</text>
</g>
<!-- Node8&#45;&gt;Node9 -->
<g id="edge13" class="edge">
<title>Node8&#45;&gt;Node9</title>
<path fill="none" stroke="#9a32cd" stroke-dasharray="5,2" d="M380.11,-126.02C385.6,-118.33 393.09,-109.89 402,-105 428.73,-90.34 510.75,-83.21 561.99,-80.09"/>
<polygon fill="#9a32cd" stroke="#9a32cd" points="377.15,-124.15 374.62,-134.44 383.01,-127.97 377.15,-124.15"/>
<text text-anchor="middle" x="437.5" y="-108" font-family="Helvetica,sans-Serif" font-size="10.00"> playerController</text>
</g>
<!-- Node8&#45;&gt;Node16 -->
<g id="edge30" class="edge">
<title>Node8&#45;&gt;Node16</title>
<path fill="none" stroke="#9a32cd" stroke-dasharray="5,2" d="M316.8,-140.7C296.33,-137.33 274.04,-130.28 258,-116 249.49,-108.43 246.15,-95.22 244.83,-86.55"/>
<polygon fill="#9a32cd" stroke="#9a32cd" points="316.59,-144.21 326.98,-142.11 317.55,-137.27 316.59,-144.21"/>
<text text-anchor="middle" x="279.5" y="-108" font-family="Helvetica,sans-Serif" font-size="10.00"> controller</text>
</g>
<!-- Node9&#45;&gt;Node3 -->
<g id="edge34" class="edge">
<title>Node9&#45;&gt;Node3</title>
<path fill="none" stroke="#9a32cd" stroke-dasharray="5,2" d="M607.45,-97.02C608.61,-113.24 607.98,-136.62 598,-154 582.77,-180.52 570.46,-182.81 542,-194 483.88,-216.85 410.28,-221.2 368.03,-221.59"/>
<polygon fill="#9a32cd" stroke="#9a32cd" points="610.9,-96.26 606.41,-86.67 603.93,-96.97 610.9,-96.26"/>
<text text-anchor="middle" x="643" y="-141.5" font-family="Helvetica,sans-Serif" font-size="10.00"> abilityCooldowns</text>
</g>
<!-- Node9&#45;&gt;Node8 -->
<g id="edge11" class="edge">
<title>Node9&#45;&gt;Node8</title>
<path fill="none" stroke="#9a32cd" stroke-dasharray="5,2" d="M554.31,-88.92C536.87,-93.23 517.37,-98.68 500,-105 489.35,-108.87 487.66,-112.15 477,-116 455.92,-123.62 431.76,-129.91 411.73,-134.5"/>
<polygon fill="#9a32cd" stroke="#9a32cd" points="555.4,-92.26 564.3,-86.52 553.76,-85.46 555.4,-92.26"/>
<text text-anchor="middle" x="538" y="-108" font-family="Helvetica,sans-Serif" font-size="10.00"> abilityCooldowns</text>
</g>
<!-- Node9&#45;&gt;Node13 -->
<g id="edge20" class="edge">
<title>Node9&#45;&gt;Node13</title>
<path fill="none" stroke="#9a32cd" stroke-dasharray="5,2" d="M577.49,-61.96C568.68,-55.46 562.28,-47.14 567,-38 571.08,-30.09 578.67,-23.99 586,-19.61"/>
<polygon fill="#9a32cd" stroke="#9a32cd" points="575.69,-64.97 586.01,-67.4 579.46,-59.07 575.69,-64.97"/>
<text text-anchor="middle" x="590.5" y="-41" font-family="Helvetica,sans-Serif" font-size="10.00"> currentCD</text>
</g>
<!-- Node10 -->
<g id="node10" class="node">
<title>Node10</title>
<g id="a_node10"><a xlink:href="class_ability.xhtml" target="_top" xlink:title=" ">
<polygon fill="white" stroke="black" points="814,-279.5 814,-298.5 858,-298.5 858,-279.5 814,-279.5"/>
<text text-anchor="middle" x="836" y="-286.5" font-family="Helvetica,sans-Serif" font-size="10.00">Ability</text>
</a>
</g>
</g>
<!-- Node10&#45;&gt;Node9 -->
<g id="edge14" class="edge">
<title>Node10&#45;&gt;Node9</title>
<path fill="none" stroke="#9a32cd" stroke-dasharray="5,2" d="M836.98,-268.96C838.72,-226.89 840.28,-127.91 818,-105 795.2,-81.55 703.56,-77.56 648.17,-77.37"/>
<polygon fill="#9a32cd" stroke="#9a32cd" points="833.47,-269.06 836.51,-279.21 840.47,-269.38 833.47,-269.06"/>
<text text-anchor="middle" x="851.5" y="-180.5" font-family="Helvetica,sans-Serif" font-size="10.00"> ability</text>
</g>
<!-- Node14 -->
<g id="node14" class="node">
<title>Node14</title>
<g id="a_node14"><a xlink:href="class_indicated_ability.xhtml" target="_top" xlink:title="Encapsulador de les Ability que han de mostrar l&#39;indicador">
<polygon fill="white" stroke="black" points="876.5,-173.5 876.5,-192.5 959.5,-192.5 959.5,-173.5 876.5,-173.5"/>
<text text-anchor="middle" x="918" y="-180.5" font-family="Helvetica,sans-Serif" font-size="10.00">IndicatedAbility</text>
</a>
</g>
</g>
<!-- Node10&#45;&gt;Node14 -->
<g id="edge22" class="edge">
<title>Node10&#45;&gt;Node14</title>
<path fill="none" stroke="midnightblue" d="M848.96,-271.56C866.61,-249.18 897.54,-209.94 911.2,-192.63"/>
<polygon fill="midnightblue" stroke="midnightblue" points="846.15,-269.47 842.71,-279.49 851.65,-273.8 846.15,-269.47"/>
</g>
<!-- Node15 -->
<g id="node15" class="node">
<title>Node15</title>
<g id="a_node15"><a xlink:href="class_character.xhtml" target="_top" xlink:title=" ">
<polygon fill="white" stroke="black" points="702.5,-212.5 702.5,-231.5 761.5,-231.5 761.5,-212.5 702.5,-212.5"/>
<text text-anchor="middle" x="732" y="-219.5" font-family="Helvetica,sans-Serif" font-size="10.00">Character</text>
</a>
</g>
</g>
<!-- Node10&#45;&gt;Node15 -->
<g id="edge26" class="edge">
<title>Node10&#45;&gt;Node15</title>
<path fill="none" stroke="#9a32cd" stroke-dasharray="5,2" d="M812.41,-274.04C805.49,-269.89 797.91,-265.3 791,-261 775.07,-251.09 756.95,-239.35 745.05,-231.57"/>
<polygon fill="#9a32cd" stroke="#9a32cd" points="810.96,-277.25 821.34,-279.36 814.54,-271.23 810.96,-277.25"/>
<text text-anchor="middle" x="809.5" y="-253" font-family="Helvetica,sans-Serif" font-size="10.00"> abilities</text>
</g>
<!-- Node11 -->
<g id="node11" class="node">
<title>Node11</title>
<g id="a_node11"><a xlink:title=" ">
<polygon fill="white" stroke="#bfbfbf" points="742.5,-414.5 742.5,-433.5 831.5,-433.5 831.5,-414.5 742.5,-414.5"/>
<text text-anchor="middle" x="787" y="-421.5" font-family="Helvetica,sans-Serif" font-size="10.00">ScriptableObject</text>
</a>
</g>
</g>
<!-- Node11&#45;&gt;Node10 -->
<g id="edge15" class="edge">
<title>Node11&#45;&gt;Node10</title>
<path fill="none" stroke="midnightblue" d="M791.99,-404.5C795.74,-391.16 801.21,-372.81 807,-357 814.85,-335.58 826,-311.16 831.93,-298.55"/>
<polygon fill="midnightblue" stroke="midnightblue" points="788.56,-403.78 789.28,-414.35 795.31,-405.64 788.56,-403.78"/>
</g>
<!-- Node12 -->
<g id="node12" class="node">
<title>Node12</title>
<g id="a_node12"><a xlink:href="class_effect.xhtml" target="_top" xlink:title=" ">
<polygon fill="white" stroke="black" points="815.5,-357.5 815.5,-376.5 856.5,-376.5 856.5,-357.5 815.5,-357.5"/>
<text text-anchor="middle" x="836" y="-364.5" font-family="Helvetica,sans-Serif" font-size="10.00">Effect</text>
</a>
</g>
</g>
<!-- Node11&#45;&gt;Node12 -->
<g id="edge17" class="edge">
<title>Node11&#45;&gt;Node12</title>
<path fill="none" stroke="midnightblue" d="M801.41,-406.83C810.18,-396.98 821.05,-384.78 828.24,-376.71"/>
<polygon fill="midnightblue" stroke="midnightblue" points="798.7,-404.61 794.66,-414.41 803.92,-409.27 798.7,-404.61"/>
</g>
<!-- Node11&#45;&gt;Node15 -->
<g id="edge25" class="edge">
<title>Node11&#45;&gt;Node15</title>
<path fill="none" stroke="midnightblue" d="M781.98,-404.74C770.52,-363.06 742.77,-262.15 734.42,-231.79"/>
<polygon fill="midnightblue" stroke="midnightblue" points="778.61,-405.69 784.64,-414.41 785.36,-403.84 778.61,-405.69"/>
</g>
<!-- Node12&#45;&gt;Node10 -->
<g id="edge16" class="edge">
<title>Node12&#45;&gt;Node10</title>
<path fill="none" stroke="#9a32cd" stroke-dasharray="5,2" d="M836,-347.22C836,-331.7 836,-310.36 836,-298.62"/>
<polygon fill="#9a32cd" stroke="#9a32cd" points="832.5,-347.28 836,-357.28 839.5,-347.28 832.5,-347.28"/>
<text text-anchor="middle" x="875" y="-331" font-family="Helvetica,sans-Serif" font-size="10.00"> aToAuthorEffects</text>
<text text-anchor="middle" x="875" y="-320" font-family="Helvetica,sans-Serif" font-size="10.00">aToEnemyEffects</text>
</g>
<!-- Node13&#45;&gt;Node9 -->
<g id="edge18" class="edge">
<title>Node13&#45;&gt;Node9</title>
<path fill="none" stroke="#9a32cd" stroke-dasharray="5,2" d="M615.35,-28.61C617.92,-34.95 619.55,-42.22 618,-49 616.52,-55.49 613.27,-62.24 610.39,-67.37"/>
<polygon fill="#9a32cd" stroke="#9a32cd" points="618.45,-26.99 610.86,-19.6 612.19,-30.11 618.45,-26.99"/>
<text text-anchor="middle" x="651" y="-41" font-family="Helvetica,sans-Serif" font-size="10.00"> abilityIndicator</text>
</g>
<!-- Node14&#45;&gt;Node13 -->
<g id="edge21" class="edge">
<title>Node14&#45;&gt;Node13</title>
<path fill="none" stroke="#9a32cd" stroke-dasharray="5,2" d="M907.63,-164.41C896.71,-147.21 878.04,-121.28 856,-105 790.69,-56.76 697.79,-30.61 645.26,-18.85"/>
<polygon fill="#9a32cd" stroke="#9a32cd" points="904.93,-166.7 913.14,-173.4 910.9,-163.04 904.93,-166.7"/>
<text text-anchor="middle" x="885" y="-108" font-family="Helvetica,sans-Serif" font-size="10.00"> current</text>
</g>
<!-- Node15&#45;&gt;Node8 -->
<g id="edge24" class="edge">
<title>Node15&#45;&gt;Node8</title>
<path fill="none" stroke="#9a32cd" stroke-dasharray="5,2" d="M692.3,-212.66C622.98,-198.11 480.61,-168.22 410.64,-153.53"/>
<polygon fill="#9a32cd" stroke="#9a32cd" points="691.87,-216.15 702.38,-214.78 693.31,-209.3 691.87,-216.15"/>
<text text-anchor="middle" x="617" y="-186" font-family="Helvetica,sans-Serif" font-size="10.00"> character</text>
<text text-anchor="middle" x="617" y="-175" font-family="Helvetica,sans-Serif" font-size="10.00">characters</text>
</g>
<!-- Node15&#45;&gt;Node16 -->
<g id="edge32" class="edge">
<title>Node15&#45;&gt;Node16</title>
<path fill="none" stroke="#9a32cd" stroke-dasharray="5,2" d="M726.85,-202.66C720.34,-182.83 707.21,-151.69 685,-134 622.44,-84.18 372.14,-78.32 279.08,-77.9"/>
<polygon fill="#9a32cd" stroke="#9a32cd" points="723.54,-203.81 729.8,-212.36 730.24,-201.77 723.54,-203.81"/>
<text text-anchor="middle" x="725" y="-141.5" font-family="Helvetica,sans-Serif" font-size="10.00"> character</text>
</g>
<!-- Node16&#45;&gt;Node8 -->
<g id="edge28" class="edge">
<title>Node16&#45;&gt;Node8</title>
<path fill="none" stroke="#9a32cd" stroke-dasharray="5,2" d="M274.33,-90.63C284.22,-94.95 295.18,-99.98 305,-105 323.15,-114.29 343.32,-126.37 356.3,-134.39"/>
<polygon fill="#9a32cd" stroke="#9a32cd" points="275.45,-87.3 264.88,-86.56 272.68,-93.73 275.45,-87.3"/>
<text text-anchor="middle" x="353.5" y="-108" font-family="Helvetica,sans-Serif" font-size="10.00"> basicAttack</text>
</g>
<!-- Node17&#45;&gt;Node3 -->
<g id="edge35" class="edge">
<title>Node17&#45;&gt;Node3</title>
<path fill="none" stroke="#9a32cd" stroke-dasharray="5,2" d="M320.03,-308.43C323.74,-285.77 329.85,-248.41 332.59,-231.63"/>
<polygon fill="#9a32cd" stroke="#9a32cd" points="316.55,-308.06 318.39,-318.49 323.46,-309.18 316.55,-308.06"/>
<text text-anchor="middle" x="346" y="-286.5" font-family="Helvetica,sans-Serif" font-size="10.00"> inventory</text>
</g>
</g>
</svg>
