<?xml version="1.0" encoding="UTF-8" standalone="no"?>
<!DOCTYPE svg PUBLIC "-//W3C//DTD SVG 1.1//EN"
 "http://www.w3.org/Graphics/SVG/1.1/DTD/svg11.dtd">
<!-- Generated by graphviz version 2.49.1 (20210923.0004)
 -->
<!-- Title: PlayerUIController.UpdateCurrentHP Pages: 1 -->
<svg width="431pt" height="39pt"
 viewBox="0.00 0.00 431.00 39.00" xmlns="http://www.w3.org/2000/svg" xmlns:xlink="http://www.w3.org/1999/xlink">
<g id="graph0" class="graph" transform="scale(1 1) rotate(0) translate(4 35)">
<title>PlayerUIController.UpdateCurrentHP</title>
<!-- Node1 -->
<g id="node1" class="node">
<title>Node1</title>
<g id="a_node1"><a xlink:title="Sets the current HP value to the Image.">
<polygon fill="#bfbfbf" stroke="black" points="295,-0.5 295,-30.5 423,-30.5 423,-0.5 295,-0.5"/>
<text text-anchor="start" x="303" y="-18.5" font-family="Helvetica,sans-Serif" font-size="10.00">PlayerUIController.Update</text>
<text text-anchor="middle" x="359" y="-7.5" font-family="Helvetica,sans-Serif" font-size="10.00">CurrentHP</text>
</a>
</g>
</g>
<!-- Node2 -->
<g id="node2" class="node">
<title>Node2</title>
<g id="a_node2"><a xlink:href="class_player_stats.html#a75c908d1b8c5eb0b414db7ab99ceab9e" target="_top" xlink:title="Called whenever the player levels up.">
<polygon fill="none" stroke="black" points="155,-6 155,-25 259,-25 259,-6 155,-6"/>
<text text-anchor="middle" x="207" y="-13" font-family="Helvetica,sans-Serif" font-size="10.00">PlayerStats.LevelUp</text>
</a>
</g>
</g>
<!-- Node1&#45;&gt;Node2 -->
<g id="edge1" class="edge">
<title>Node1&#45;&gt;Node2</title>
<path fill="none" stroke="midnightblue" d="M284.75,-15.5C276.14,-15.5 267.5,-15.5 259.28,-15.5"/>
<polygon fill="midnightblue" stroke="midnightblue" points="284.82,-19 294.82,-15.5 284.82,-12 284.82,-19"/>
</g>
<!-- Node3 -->
<g id="node3" class="node">
<title>Node3</title>
<g id="a_node3"><a xlink:href="class_player_stats.html#af74a866a9312c345f3cd03235be2f329" target="_top" xlink:title=" ">
<polygon fill="none" stroke="black" points="0,-6 0,-25 119,-25 119,-6 0,-6"/>
<text text-anchor="middle" x="59.5" y="-13" font-family="Helvetica,sans-Serif" font-size="10.00">PlayerStats.AddXpRPC</text>
</a>
</g>
</g>
<!-- Node2&#45;&gt;Node3 -->
<g id="edge2" class="edge">
<title>Node2&#45;&gt;Node3</title>
<path fill="none" stroke="midnightblue" d="M144.53,-15.5C136.08,-15.5 127.43,-15.5 119.03,-15.5"/>
<polygon fill="midnightblue" stroke="midnightblue" points="144.7,-19 154.7,-15.5 144.7,-12 144.7,-19"/>
</g>
</g>
</svg>
