<?xml version="1.0" encoding="UTF-8" standalone="no"?>
<!DOCTYPE svg PUBLIC "-//W3C//DTD SVG 1.1//EN"
 "http://www.w3.org/Graphics/SVG/1.1/DTD/svg11.dtd">
<!-- Generated by graphviz version 2.47.3 (20210619.1520)
 -->
<!-- Title: MinionStats.DealDamageRPC Pages: 1 -->
<svg width="487pt" height="116pt"
 viewBox="0.00 0.00 487.00 115.50" xmlns="http://www.w3.org/2000/svg" xmlns:xlink="http://www.w3.org/1999/xlink">
<g id="graph0" class="graph" transform="scale(1 1) rotate(0) translate(4 111.5)">
<title>MinionStats.DealDamageRPC</title>
<!-- Node1 -->
<g id="node1" class="node">
<title>Node1</title>
<g id="a_node1"><a xlink:title=" ">
<polygon fill="#bfbfbf" stroke="black" points="0,-28 0,-47 147,-47 147,-28 0,-28"/>
<text text-anchor="middle" x="73.5" y="-35" font-family="Helvetica,sans-Serif" font-size="10.00">MinionStats.DealDamageRPC</text>
</a>
</g>
</g>
<!-- Node2 -->
<g id="node2" class="node">
<title>Node2</title>
<g id="a_node2"><a xlink:href="class_minion_stats.html#a5366cb256edc6dc42f01c2907ee14e7a" target="_top" xlink:title="Function that implements what is done when this entity dies.">
<polygon fill="none" stroke="black" points="204.5,-50 204.5,-69 290.5,-69 290.5,-50 204.5,-50"/>
<text text-anchor="middle" x="247.5" y="-57" font-family="Helvetica,sans-Serif" font-size="10.00">MinionStats.Die</text>
</a>
</g>
</g>
<!-- Node1&#45;&gt;Node2 -->
<g id="edge1" class="edge">
<title>Node1&#45;&gt;Node2</title>
<path fill="none" stroke="midnightblue" d="M147.44,-46.83C163.21,-48.85 179.59,-50.94 194.37,-52.83"/>
<polygon fill="midnightblue" stroke="midnightblue" points="193.96,-56.31 204.32,-54.1 194.85,-49.36 193.96,-56.31"/>
</g>
<!-- Node5 -->
<g id="node5" class="node">
<title>Node5</title>
<g id="a_node5"><a xlink:href="class_minion_u_i_controller.html#a9042cfa3430e60cf37cf0e0797692742" target="_top" xlink:title="Updates the current HP of the entity.">
<polygon fill="none" stroke="black" points="183,-0.5 183,-30.5 312,-30.5 312,-0.5 183,-0.5"/>
<text text-anchor="start" x="191" y="-18.5" font-family="Helvetica,sans-Serif" font-size="10.00">MinionUIController.Update</text>
<text text-anchor="middle" x="247.5" y="-7.5" font-family="Helvetica,sans-Serif" font-size="10.00">CurrentHP</text>
</a>
</g>
</g>
<!-- Node1&#45;&gt;Node5 -->
<g id="edge4" class="edge">
<title>Node1&#45;&gt;Node5</title>
<path fill="none" stroke="midnightblue" d="M147.44,-28.17C155.84,-27.1 164.41,-26 172.81,-24.92"/>
<polygon fill="midnightblue" stroke="midnightblue" points="173.49,-28.37 182.97,-23.63 172.6,-21.42 173.49,-28.37"/>
</g>
<!-- Node3 -->
<g id="node3" class="node">
<title>Node3</title>
<g id="a_node3"><a xlink:href="class_game_controller.html#a3284abf9985021d4e4936f90d858a7dd" target="_top" xlink:title=" ">
<polygon fill="none" stroke="black" points="348,-88 348,-107 479,-107 479,-88 348,-88"/>
<text text-anchor="middle" x="413.5" y="-95" font-family="Helvetica,sans-Serif" font-size="10.00">GameController.GetPlayer</text>
</a>
</g>
</g>
<!-- Node2&#45;&gt;Node3 -->
<g id="edge2" class="edge">
<title>Node2&#45;&gt;Node3</title>
<path fill="none" stroke="midnightblue" d="M289.88,-69.09C311.62,-74.13 338.46,-80.34 361.47,-85.68"/>
<polygon fill="midnightblue" stroke="midnightblue" points="360.88,-89.13 371.41,-87.98 362.46,-82.31 360.88,-89.13"/>
</g>
<!-- Node4 -->
<g id="node4" class="node">
<title>Node4</title>
<g id="a_node4"><a xlink:href="class_game_controller.html#a7e7ba340d852830acb4d6f1f172c248c" target="_top" xlink:title="Get the current time in seconds from the start of the game">
<polygon fill="none" stroke="black" points="351.5,-50 351.5,-69 475.5,-69 475.5,-50 351.5,-50"/>
<text text-anchor="middle" x="413.5" y="-57" font-family="Helvetica,sans-Serif" font-size="10.00">GameController.GetTime</text>
</a>
</g>
</g>
<!-- Node2&#45;&gt;Node4 -->
<g id="edge3" class="edge">
<title>Node2&#45;&gt;Node4</title>
<path fill="none" stroke="midnightblue" d="M290.73,-59.5C306.13,-59.5 323.98,-59.5 341.2,-59.5"/>
<polygon fill="midnightblue" stroke="midnightblue" points="341.24,-63 351.24,-59.5 341.24,-56 341.24,-63"/>
</g>
<!-- Node6 -->
<g id="node6" class="node">
<title>Node6</title>
<g id="a_node6"><a xlink:href="class_u_i_controller.html#a7d7833a7840917741dbc8c4a83dbe918" target="_top" xlink:title="Calculates the actual normalized fill amount for the image.">
<polygon fill="none" stroke="black" points="352,-0.5 352,-30.5 475,-30.5 475,-0.5 352,-0.5"/>
<text text-anchor="start" x="360" y="-18.5" font-family="Helvetica,sans-Serif" font-size="10.00">UIController.CalculateFill</text>
<text text-anchor="middle" x="413.5" y="-7.5" font-family="Helvetica,sans-Serif" font-size="10.00">Amount</text>
</a>
</g>
</g>
<!-- Node5&#45;&gt;Node6 -->
<g id="edge5" class="edge">
<title>Node5&#45;&gt;Node6</title>
<path fill="none" stroke="midnightblue" d="M312.38,-15.5C321.99,-15.5 331.95,-15.5 341.7,-15.5"/>
<polygon fill="midnightblue" stroke="midnightblue" points="341.75,-19 351.75,-15.5 341.75,-12 341.75,-19"/>
</g>
</g>
</svg>
