<?xml version="1.0" encoding="UTF-8" standalone="no"?>
<!DOCTYPE svg PUBLIC "-//W3C//DTD SVG 1.1//EN"
 "http://www.w3.org/Graphics/SVG/1.1/DTD/svg11.dtd">
<!-- Generated by graphviz version 2.47.3 (20210619.1520)
 -->
<!-- Title: Photon.Realtime.LoadBalancingClient.OpCreateRoom Pages: 1 -->
<!--zoomable 346 -->
<svg id="main" version="1.1" xmlns="http://www.w3.org/2000/svg" xmlns:xlink="http://www.w3.org/1999/xlink" xml:space="preserve" onload="init(evt)">
<style type="text/css"><![CDATA[
.edge:hover path { stroke: red; }
.edge:hover polygon { stroke: red; fill: red; }
]]></style>
<script type="text/javascript"><![CDATA[
var edges = document.getElementsByTagName('g');
if (edges && edges.length) {
  for (var i=0;i<edges.length;i++) {
    if (edges[i].id.substr(0,4)=='edge') {
      edges[i].setAttribute('class','edge');
    }
  }
}
]]></script>
        <defs>
                <circle id="rim" cx="0" cy="0" r="7"/>
                <circle id="rim2" cx="0" cy="0" r="3.5"/>
                <g id="zoomPlus">
                        <use xlink:href="#rim" fill="#404040">
                                <set attributeName="fill" to="#808080" begin="zoomplus.mouseover" end="zoomplus.mouseout"/>
                        </use>
                        <path d="M-4,0h8M0,-4v8" fill="none" stroke="white" stroke-width="1.5" pointer-events="none"/>
                </g>
                <g id="zoomMin">
                        <use xlink:href="#rim" fill="#404040">
                                <set attributeName="fill" to="#808080" begin="zoomminus.mouseover" end="zoomminus.mouseout"/>
                        </use>
                        <path d="M-4,0h8" fill="none" stroke="white" stroke-width="1.5" pointer-events="none"/>
                </g>
                <g id="dirArrow">
                        <path fill="none" stroke="white" stroke-width="1.5" d="M0,-3.0v7 M-2.5,-0.5L0,-3.0L2.5,-0.5"/>
                </g>
               <g id="resetDef">
                       <use xlink:href="#rim2" fill="#404040">
                               <set attributeName="fill" to="#808080" begin="reset.mouseover" end="reset.mouseout"/>
                       </use>
               </g>
        </defs>

<script type="text/javascript">
var viewWidth = 620;
var viewHeight = 346;
var sectionId = 'dynsection-50';
</script>
<script xlink:href="svgpan.js"/>
<svg id="graph" class="graph">
<g id="viewport">
<title>Photon.Realtime.LoadBalancingClient.OpCreateRoom</title>
<polygon fill="white" stroke="transparent" points="-4,4 -4,-342 616,-342 616,4 -4,4"/>
<!-- Node1 -->
<g id="node1" class="node">
<title>Node1</title>
<g id="a_node1"><a xlink:title="Creates a new room.">
<polygon fill="#bfbfbf" stroke="black" points="457,-134 457,-164 612,-164 612,-134 457,-134"/>
<text text-anchor="start" x="465" y="-152" font-family="Helvetica,sans-Serif" font-size="10.00">Photon.Realtime.LoadBalancing</text>
<text text-anchor="middle" x="534.5" y="-141" font-family="Helvetica,sans-Serif" font-size="10.00">Client.OpCreateRoom</text>
</a>
</g>
</g>
<!-- Node2 -->
<g id="node2" class="node">
<title>Node2</title>
<g id="a_node2"><a xlink:href="class_photon_1_1_pun_1_1_photon_network.xhtml#a755417a54b55bdb92361dc74b4a09953" target="_top" xlink:title="Creates a new room.">
<polygon fill="white" stroke="black" points="254.5,-159 254.5,-189 394.5,-189 394.5,-159 254.5,-159"/>
<text text-anchor="start" x="262.5" y="-177" font-family="Helvetica,sans-Serif" font-size="10.00">Photon.Pun.PhotonNetwork.</text>
<text text-anchor="middle" x="324.5" y="-166" font-family="Helvetica,sans-Serif" font-size="10.00">CreateRoom</text>
</a>
</g>
</g>
<!-- Node1&#45;&gt;Node2 -->
<g id="edge1" class="edge">
<title>Node1&#45;&gt;Node2</title>
<path fill="none" stroke="midnightblue" d="M446.79,-159.42C429.41,-161.51 411.37,-163.68 394.68,-165.69"/>
<polygon fill="midnightblue" stroke="midnightblue" points="447.42,-162.87 456.93,-158.2 446.59,-155.92 447.42,-162.87"/>
</g>
<!-- Node10 -->
<g id="node10" class="node">
<title>Node10</title>
<g id="a_node10"><a xlink:href="class_photon_1_1_realtime_1_1_demo_1_1_connect_and_join_random_lb.xhtml#a87c1e195c79cdfbf18644f0c1fbd360b" target="_top" xlink:title="Called when a previous OpJoinRandom call failed on the server.">
<polygon fill="white" stroke="black" points="228,-110 228,-140 421,-140 421,-110 228,-110"/>
<text text-anchor="start" x="236" y="-128" font-family="Helvetica,sans-Serif" font-size="10.00">Photon.Realtime.Demo.Connect</text>
<text text-anchor="middle" x="324.5" y="-117" font-family="Helvetica,sans-Serif" font-size="10.00">AndJoinRandomLb.OnJoinRandomFailed</text>
</a>
</g>
</g>
<!-- Node1&#45;&gt;Node10 -->
<g id="edge9" class="edge">
<title>Node1&#45;&gt;Node10</title>
<path fill="none" stroke="midnightblue" d="M446.78,-138.99C438.38,-138.03 429.83,-137.04 421.35,-136.06"/>
<polygon fill="midnightblue" stroke="midnightblue" points="446.6,-142.5 456.93,-140.17 447.4,-135.54 446.6,-142.5"/>
</g>
<!-- Node3 -->
<g id="node3" class="node">
<title>Node3</title>
<g id="a_node3"><a xlink:href="class_main_menu.xhtml#ad1ecd6c8eea2c5f5531906486e1f0040" target="_top" xlink:title=" ">
<polygon fill="white" stroke="black" points="36.5,-318.5 36.5,-337.5 155.5,-337.5 155.5,-318.5 36.5,-318.5"/>
<text text-anchor="middle" x="96" y="-325.5" font-family="Helvetica,sans-Serif" font-size="10.00">MainMenu.CreateRoom</text>
</a>
</g>
</g>
<!-- Node2&#45;&gt;Node3 -->
<g id="edge2" class="edge">
<title>Node2&#45;&gt;Node3</title>
<path fill="none" stroke="midnightblue" d="M307.69,-197.43C285.61,-228.21 242.49,-281.55 192,-309 180.92,-315.03 168.17,-319.15 155.7,-321.97"/>
<polygon fill="midnightblue" stroke="midnightblue" points="310.72,-199.22 313.61,-189.02 304.99,-195.19 310.72,-199.22"/>
</g>
<!-- Node4 -->
<g id="node4" class="node">
<title>Node4</title>
<g id="a_node4"><a xlink:href="class_photon_1_1_pun_1_1_demo_1_1_cockpit_1_1_pun_cockpit.xhtml#af748530e9da9ad5a1d411191b5930df9" target="_top" xlink:title=" ">
<polygon fill="white" stroke="black" points="28.5,-269 28.5,-299 163.5,-299 163.5,-269 28.5,-269"/>
<text text-anchor="start" x="36.5" y="-287" font-family="Helvetica,sans-Serif" font-size="10.00">Photon.Pun.Demo.Cockpit.</text>
<text text-anchor="middle" x="96" y="-276" font-family="Helvetica,sans-Serif" font-size="10.00">PunCockpit.CreateRoom</text>
</a>
</g>
</g>
<!-- Node2&#45;&gt;Node4 -->
<g id="edge3" class="edge">
<title>Node2&#45;&gt;Node4</title>
<path fill="none" stroke="midnightblue" d="M296.46,-195.15C270.85,-214.26 230.66,-241.94 192,-259 183.03,-262.96 173.29,-266.4 163.59,-269.36"/>
<polygon fill="midnightblue" stroke="midnightblue" points="298.7,-197.85 304.56,-189.02 294.47,-192.26 298.7,-197.85"/>
</g>
<!-- Node5 -->
<g id="node5" class="node">
<title>Node5</title>
<g id="a_node5"><a xlink:href="class_photon_1_1_pun_1_1_demo_1_1_asteroids_1_1_lobby_main_panel.xhtml#add3669bfe4f0772f5a98655b4be816d6" target="_top" xlink:title=" ">
<polygon fill="white" stroke="black" points="2.5,-208.5 2.5,-249.5 189.5,-249.5 189.5,-208.5 2.5,-208.5"/>
<text text-anchor="start" x="10.5" y="-237.5" font-family="Helvetica,sans-Serif" font-size="10.00">Photon.Pun.Demo.Asteroids.</text>
<text text-anchor="start" x="10.5" y="-226.5" font-family="Helvetica,sans-Serif" font-size="10.00">LobbyMainPanel.OnCreateRoomButton</text>
<text text-anchor="middle" x="96" y="-215.5" font-family="Helvetica,sans-Serif" font-size="10.00">Clicked</text>
</a>
</g>
</g>
<!-- Node2&#45;&gt;Node5 -->
<g id="edge4" class="edge">
<title>Node2&#45;&gt;Node5</title>
<path fill="none" stroke="midnightblue" d="M251.59,-191.46C229.39,-196.85 204.73,-202.84 181.74,-208.42"/>
<polygon fill="midnightblue" stroke="midnightblue" points="252.72,-194.79 261.61,-189.03 251.06,-187.99 252.72,-194.79"/>
</g>
<!-- Node6 -->
<g id="node6" class="node">
<title>Node6</title>
<g id="a_node6"><a xlink:href="class_photon_1_1_pun_1_1_utility_scripts_1_1_states_gui.xhtml#a414fd2160f0bd79c9a6826cb31f8006a" target="_top" xlink:title=" ">
<polygon fill="white" stroke="black" points="31.5,-159 31.5,-189 160.5,-189 160.5,-159 31.5,-159"/>
<text text-anchor="start" x="39.5" y="-177" font-family="Helvetica,sans-Serif" font-size="10.00">Photon.Pun.UtilityScripts.</text>
<text text-anchor="middle" x="96" y="-166" font-family="Helvetica,sans-Serif" font-size="10.00">StatesGui.OnGUI</text>
</a>
</g>
</g>
<!-- Node2&#45;&gt;Node6 -->
<g id="edge5" class="edge">
<title>Node2&#45;&gt;Node6</title>
<path fill="none" stroke="midnightblue" d="M244.02,-174C216.75,-174 186.6,-174 160.75,-174"/>
<polygon fill="midnightblue" stroke="midnightblue" points="244.31,-177.5 254.31,-174 244.31,-170.5 244.31,-177.5"/>
</g>
<!-- Node7 -->
<g id="node7" class="node">
<title>Node7</title>
<g id="a_node7"><a xlink:href="class_photon_1_1_pun_1_1_demo_1_1_asteroids_1_1_lobby_main_panel.xhtml#a7a3bee5bbe6b6089b3356fddcc01843b" target="_top" xlink:title="Called when a previous OpJoinRandom call failed on the server.">
<polygon fill="white" stroke="black" points="4,-110 4,-140 188,-140 188,-110 4,-110"/>
<text text-anchor="start" x="12" y="-128" font-family="Helvetica,sans-Serif" font-size="10.00">Photon.Pun.Demo.Asteroids.</text>
<text text-anchor="middle" x="96" y="-117" font-family="Helvetica,sans-Serif" font-size="10.00">LobbyMainPanel.OnJoinRandomFailed</text>
</a>
</g>
</g>
<!-- Node2&#45;&gt;Node7 -->
<g id="edge6" class="edge">
<title>Node2&#45;&gt;Node7</title>
<path fill="none" stroke="midnightblue" d="M244.36,-156.88C219.02,-151.4 191.15,-145.37 166.54,-140.05"/>
<polygon fill="midnightblue" stroke="midnightblue" points="243.8,-160.34 254.31,-159.03 245.28,-153.5 243.8,-160.34"/>
</g>
<!-- Node8 -->
<g id="node8" class="node">
<title>Node8</title>
<g id="a_node8"><a xlink:href="class_photon_1_1_pun_1_1_demo_1_1_pun_basics_1_1_launcher.xhtml#a89c3b0ab473f7be7c1240230a8a70ec7" target="_top" xlink:title="Called when a JoinRandom() call failed.">
<polygon fill="white" stroke="black" points="20,-61 20,-91 172,-91 172,-61 20,-61"/>
<text text-anchor="start" x="28" y="-79" font-family="Helvetica,sans-Serif" font-size="10.00">Photon.Pun.Demo.PunBasics.</text>
<text text-anchor="middle" x="96" y="-68" font-family="Helvetica,sans-Serif" font-size="10.00">Launcher.OnJoinRandomFailed</text>
</a>
</g>
</g>
<!-- Node2&#45;&gt;Node8 -->
<g id="edge7" class="edge">
<title>Node2&#45;&gt;Node8</title>
<path fill="none" stroke="midnightblue" d="M244.81,-159.05C238.9,-156.5 233.21,-153.5 228,-150 205.57,-134.93 214.35,-116.2 192,-101 185.94,-96.88 179.23,-93.43 172.27,-90.56"/>
<polygon fill="midnightblue" stroke="midnightblue" points="243.67,-162.36 254.26,-162.72 246.2,-155.84 243.67,-162.36"/>
</g>
<!-- Node9 -->
<g id="node9" class="node">
<title>Node9</title>
<g id="a_node9"><a xlink:href="class_photon_1_1_pun_1_1_utility_scripts_1_1_connect_and_join_random.xhtml#ad46a9fab53a0b38efbb4f5963bc902fe" target="_top" xlink:title="Called when a previous OpJoinRandom call failed on the server.">
<polygon fill="white" stroke="black" points="0,-0.5 0,-41.5 192,-41.5 192,-0.5 0,-0.5"/>
<text text-anchor="start" x="8" y="-29.5" font-family="Helvetica,sans-Serif" font-size="10.00">Photon.Pun.UtilityScripts.</text>
<text text-anchor="start" x="8" y="-18.5" font-family="Helvetica,sans-Serif" font-size="10.00">ConnectAndJoinRandom.OnJoinRandom</text>
<text text-anchor="middle" x="96" y="-7.5" font-family="Helvetica,sans-Serif" font-size="10.00">Failed</text>
</a>
</g>
</g>
<!-- Node2&#45;&gt;Node9 -->
<g id="edge8" class="edge">
<title>Node2&#45;&gt;Node9</title>
<path fill="none" stroke="midnightblue" d="M244.96,-161.26C238.81,-158.24 233.04,-154.53 228,-150 193.5,-118.97 225.41,-84.2 192,-52 187.88,-48.03 183.24,-44.56 178.29,-41.54"/>
<polygon fill="midnightblue" stroke="midnightblue" points="243.63,-164.5 254.2,-165.22 246.39,-158.06 243.63,-164.5"/>
</g>
</g>
</svg>
        <g id="navigator" transform="translate(0 0)" fill="#404254">
                <rect fill="#f2f5e9" fill-opacity="0.5" stroke="#606060" stroke-width=".5" x="0" y="0" width="60" height="60"/>
                <use id="zoomplus" xlink:href="#zoomPlus" x="17" y="9" onmousedown="handleZoom(evt,'in')"/>
                <use id="zoomminus" xlink:href="#zoomMin" x="42" y="9" onmousedown="handleZoom(evt,'out')"/>
                <use id="reset" xlink:href="#resetDef" x="30" y="36" onmousedown="handleReset()"/>
                <g id="arrowUp" xlink:href="#dirArrow" transform="translate(30 24)" onmousedown="handlePan(0,-1)">
                  <use xlink:href="#rim" fill="#404040">
                        <set attributeName="fill" to="#808080" begin="arrowUp.mouseover" end="arrowUp.mouseout"/>
                  </use>
                  <path fill="none" stroke="white" stroke-width="1.5" d="M0,-3.0v7 M-2.5,-0.5L0,-3.0L2.5,-0.5"/>
                </g>
                <g id="arrowRight" xlink:href="#dirArrow" transform="rotate(90) translate(36 -43)" onmousedown="handlePan(1,0)">
                  <use xlink:href="#rim" fill="#404040">
                        <set attributeName="fill" to="#808080" begin="arrowRight.mouseover" end="arrowRight.mouseout"/>
                  </use>
                  <path fill="none" stroke="white" stroke-width="1.5" d="M0,-3.0v7 M-2.5,-0.5L0,-3.0L2.5,-0.5"/>
                </g>
                <g id="arrowDown" xlink:href="#dirArrow" transform="rotate(180) translate(-30 -48)" onmousedown="handlePan(0,1)">
                  <use xlink:href="#rim" fill="#404040">
                        <set attributeName="fill" to="#808080" begin="arrowDown.mouseover" end="arrowDown.mouseout"/>
                  </use>
                  <path fill="none" stroke="white" stroke-width="1.5" d="M0,-3.0v7 M-2.5,-0.5L0,-3.0L2.5,-0.5"/>
                </g>
                <g id="arrowLeft" xlink:href="#dirArrow" transform="rotate(270) translate(-36 17)" onmousedown="handlePan(-1,0)">
                  <use xlink:href="#rim" fill="#404040">
                        <set attributeName="fill" to="#808080" begin="arrowLeft.mouseover" end="arrowLeft.mouseout"/>
                  </use>
                  <path fill="none" stroke="white" stroke-width="1.5" d="M0,-3.0v7 M-2.5,-0.5L0,-3.0L2.5,-0.5"/>
                </g>
        </g>
        <svg viewBox="0 0 15 15" width="100%" height="30px" preserveAspectRatio="xMaxYMin meet">
         <g id="arrow_out" transform="scale(0.3 0.3)">
          <a xlink:href="class_photon_1_1_realtime_1_1_load_balancing_client_ac5360b52a4284e623f41b0f870843342_icgraph_org.svg" target="_base">
           <rect id="button" ry="5" rx="5" y="6" x="6" height="38" width="38"
                fill="#f2f5e9" fill-opacity="0.5" stroke="#606060" stroke-width="1.0"/>
           <path id="arrow"
             d="M 11.500037,31.436501 C 11.940474,20.09759 22.043105,11.32322 32.158766,21.979434 L 37.068811,17.246167 C 37.068811,17.246167 37.088388,32 37.088388,32 L 22.160133,31.978069 C 22.160133,31.978069 26.997745,27.140456 26.997745,27.140456 C 18.528582,18.264221 13.291696,25.230495 11.500037,31.436501 z"
             style="fill:#404040;"/>
          </a>
         </g>
        </svg>
</svg>
