<?xml version="1.0" encoding="UTF-8" standalone="no"?>
<!DOCTYPE svg PUBLIC "-//W3C//DTD SVG 1.1//EN"
 "http://www.w3.org/Graphics/SVG/1.1/DTD/svg11.dtd">
<!-- Generated by graphviz version 2.47.3 (20210619.1520)
 -->
<!-- Title: Photon.Pun.UtilityScripts.OnJoinedInstantiate.OnEnable Pages: 1 -->
<svg width="534pt" height="137pt"
 viewBox="0.00 0.00 534.00 137.00" xmlns="http://www.w3.org/2000/svg" xmlns:xlink="http://www.w3.org/1999/xlink">
<g id="graph0" class="graph" transform="scale(1 1) rotate(0) translate(4 133)">
<title>Photon.Pun.UtilityScripts.OnJoinedInstantiate.OnEnable</title>
<polygon fill="white" stroke="transparent" points="-4,4 -4,-133 530,-133 530,4 -4,4"/>
<!-- Node1 -->
<g id="node1" class="node">
<title>Node1</title>
<g id="a_node1"><a xlink:title=" ">
<polygon fill="#bfbfbf" stroke="black" points="0,-49.5 0,-79.5 148,-79.5 148,-49.5 0,-49.5"/>
<text text-anchor="start" x="8" y="-67.5" font-family="Helvetica,sans-Serif" font-size="10.00">Photon.Pun.UtilityScripts.</text>
<text text-anchor="middle" x="74" y="-56.5" font-family="Helvetica,sans-Serif" font-size="10.00">OnJoinedInstantiate.OnEnable</text>
</a>
</g>
</g>
<!-- Node2 -->
<g id="node2" class="node">
<title>Node2</title>
<g id="a_node2"><a xlink:href="class_photon_1_1_pun_1_1_photon_network.xhtml#ab6df1ed60be8a3f494683b8faa28ee4a" target="_top" xlink:title="Registers an object for callbacks for the implemented callback&#45;interfaces.">
<polygon fill="white" stroke="black" points="184,-49.5 184,-79.5 324,-79.5 324,-49.5 184,-49.5"/>
<text text-anchor="start" x="192" y="-67.5" font-family="Helvetica,sans-Serif" font-size="10.00">Photon.Pun.PhotonNetwork.</text>
<text text-anchor="middle" x="254" y="-56.5" font-family="Helvetica,sans-Serif" font-size="10.00">AddCallbackTarget</text>
</a>
</g>
</g>
<!-- Node1&#45;&gt;Node2 -->
<g id="edge1" class="edge">
<title>Node1&#45;&gt;Node2</title>
<path fill="none" stroke="midnightblue" d="M148.17,-64.5C156.55,-64.5 165.13,-64.5 173.6,-64.5"/>
<polygon fill="midnightblue" stroke="midnightblue" points="173.84,-68 183.84,-64.5 173.84,-61 173.84,-68"/>
</g>
<!-- Node3 -->
<g id="node3" class="node">
<title>Node3</title>
<g id="a_node3"><a xlink:href="class_photon_1_1_realtime_1_1_load_balancing_client.xhtml#a7eccc149073296a316965f2ce96d08d3" target="_top" xlink:title="Registers an object for callbacks for the implemented callback&#45;interfaces.">
<polygon fill="white" stroke="black" points="365.5,-98.5 365.5,-128.5 520.5,-128.5 520.5,-98.5 365.5,-98.5"/>
<text text-anchor="start" x="373.5" y="-116.5" font-family="Helvetica,sans-Serif" font-size="10.00">Photon.Realtime.LoadBalancing</text>
<text text-anchor="middle" x="443" y="-105.5" font-family="Helvetica,sans-Serif" font-size="10.00">Client.AddCallbackTarget</text>
</a>
</g>
</g>
<!-- Node2&#45;&gt;Node3 -->
<g id="edge2" class="edge">
<title>Node2&#45;&gt;Node3</title>
<path fill="none" stroke="midnightblue" d="M312.38,-79.53C332.12,-84.71 354.41,-90.55 374.86,-95.91"/>
<polygon fill="midnightblue" stroke="midnightblue" points="374.17,-99.34 384.73,-98.49 375.95,-92.57 374.17,-99.34"/>
</g>
<!-- Node4 -->
<g id="node4" class="node">
<title>Node4</title>
<g id="a_node4"><a xlink:href="interface_photon_1_1_pun_1_1_i_pun_ownership_callbacks.xhtml#a20d83cdb1516ef38cf1506181b067477" target="_top" xlink:title="Called when another player requests ownership of a PhotonView.">
<polygon fill="white" stroke="black" points="364.5,-49.5 364.5,-79.5 521.5,-79.5 521.5,-49.5 364.5,-49.5"/>
<text text-anchor="start" x="372.5" y="-67.5" font-family="Helvetica,sans-Serif" font-size="10.00">Photon.Pun.IPunOwnership</text>
<text text-anchor="middle" x="443" y="-56.5" font-family="Helvetica,sans-Serif" font-size="10.00">Callbacks.OnOwnershipRequest</text>
</a>
</g>
</g>
<!-- Node2&#45;&gt;Node4 -->
<g id="edge3" class="edge">
<title>Node2&#45;&gt;Node4</title>
<path fill="none" stroke="midnightblue" d="M324.1,-64.5C333.93,-64.5 344.15,-64.5 354.28,-64.5"/>
<polygon fill="midnightblue" stroke="midnightblue" points="354.36,-68 364.36,-64.5 354.36,-61 354.36,-68"/>
</g>
<!-- Node5 -->
<g id="node5" class="node">
<title>Node5</title>
<g id="a_node5"><a xlink:href="interface_photon_1_1_pun_1_1_i_pun_ownership_callbacks.xhtml#ac538522c1aba77f1cc6475ca05787b0e" target="_top" xlink:title="Called when ownership of a PhotonView is transfered to another player.">
<polygon fill="white" stroke="black" points="360,-0.5 360,-30.5 526,-30.5 526,-0.5 360,-0.5"/>
<text text-anchor="start" x="368" y="-18.5" font-family="Helvetica,sans-Serif" font-size="10.00">Photon.Pun.IPunOwnership</text>
<text text-anchor="middle" x="443" y="-7.5" font-family="Helvetica,sans-Serif" font-size="10.00">Callbacks.OnOwnershipTransfered</text>
</a>
</g>
</g>
<!-- Node2&#45;&gt;Node5 -->
<g id="edge4" class="edge">
<title>Node2&#45;&gt;Node5</title>
<path fill="none" stroke="midnightblue" d="M312.38,-49.47C332.12,-44.29 354.41,-38.45 374.86,-33.09"/>
<polygon fill="midnightblue" stroke="midnightblue" points="375.95,-36.43 384.73,-30.51 374.17,-29.66 375.95,-36.43"/>
</g>
</g>
</svg>
