<?xml version="1.0" encoding="UTF-8" standalone="no"?>
<!DOCTYPE svg PUBLIC "-//W3C//DTD SVG 1.1//EN"
 "http://www.w3.org/Graphics/SVG/1.1/DTD/svg11.dtd">
<!-- Generated by graphviz version 2.47.3 (20210619.1520)
 -->
<!-- Title: ModelSync.DoEnable Pages: 1 -->
<svg width="1170pt" height="239pt"
 viewBox="0.00 0.00 1170.00 238.50" xmlns="http://www.w3.org/2000/svg" xmlns:xlink="http://www.w3.org/1999/xlink">
<g id="graph0" class="graph" transform="scale(1 1) rotate(0) translate(4 234.5)">
<title>ModelSync.DoEnable</title>
<!-- Node1 -->
<g id="node1" class="node">
<title>Node1</title>
<g id="a_node1"><a xlink:title="This starts all the initialization chain for the player.">
<polygon fill="#bfbfbf" stroke="black" points="0,-101.5 0,-120.5 110,-120.5 110,-101.5 0,-101.5"/>
<text text-anchor="middle" x="55" y="-108.5" font-family="Helvetica,sans-Serif" font-size="10.00">ModelSync.DoEnable</text>
</a>
</g>
</g>
<!-- Node2 -->
<g id="node2" class="node">
<title>Node2</title>
<g id="a_node2"><a xlink:href="class_player_controller.html#a75e94e4fd555e57e55ab4b7e54024dcf" target="_top" xlink:title="Initialize the PlayerController.">
<polygon fill="none" stroke="black" points="157,-139.5 157,-158.5 281,-158.5 281,-139.5 157,-139.5"/>
<text text-anchor="middle" x="219" y="-146.5" font-family="Helvetica,sans-Serif" font-size="10.00">PlayerController.Initialize</text>
</a>
</g>
</g>
<!-- Node1&#45;&gt;Node2 -->
<g id="edge1" class="edge">
<title>Node1&#45;&gt;Node2</title>
<path fill="none" stroke="midnightblue" d="M96.88,-120.59C118.35,-125.63 144.86,-131.84 167.6,-137.18"/>
<polygon fill="midnightblue" stroke="midnightblue" points="166.88,-140.6 177.41,-139.48 168.48,-133.79 166.88,-140.6"/>
</g>
<!-- Node21 -->
<g id="node21" class="node">
<title>Node21</title>
<g id="a_node21"><a xlink:href="class_model_player_mediator.html#abb544efe7192b8e934f60f770d5ac334" target="_top" xlink:title=" ">
<polygon fill="none" stroke="black" points="146,-101.5 146,-120.5 292,-120.5 292,-101.5 146,-101.5"/>
<text text-anchor="middle" x="219" y="-108.5" font-family="Helvetica,sans-Serif" font-size="10.00">ModelPlayerMediator.Initialize</text>
</a>
</g>
</g>
<!-- Node1&#45;&gt;Node21 -->
<g id="edge21" class="edge">
<title>Node1&#45;&gt;Node21</title>
<path fill="none" stroke="midnightblue" d="M110.39,-111C118.59,-111 127.19,-111 135.81,-111"/>
<polygon fill="midnightblue" stroke="midnightblue" points="135.91,-114.5 145.91,-111 135.91,-107.5 135.91,-114.5"/>
</g>
<!-- Node22 -->
<g id="node22" class="node">
<title>Node22</title>
<g id="a_node22"><a xlink:href="class_player_controller.html#a6be7bc2319b024c6bf66f1b1c96f7ba5" target="_top" xlink:title="Player Model will call this function to parent and sync itself to this GameObject">
<polygon fill="none" stroke="black" points="153,-63.5 153,-82.5 285,-82.5 285,-63.5 153,-63.5"/>
<text text-anchor="middle" x="219" y="-70.5" font-family="Helvetica,sans-Serif" font-size="10.00">PlayerController.SetParent</text>
</a>
</g>
</g>
<!-- Node1&#45;&gt;Node22 -->
<g id="edge22" class="edge">
<title>Node1&#45;&gt;Node22</title>
<path fill="none" stroke="midnightblue" d="M96.88,-101.41C118.35,-96.37 144.86,-90.16 167.6,-84.82"/>
<polygon fill="midnightblue" stroke="midnightblue" points="168.48,-88.21 177.41,-82.52 166.88,-81.4 168.48,-88.21"/>
</g>
<!-- Node3 -->
<g id="node3" class="node">
<title>Node3</title>
<g id="a_node3"><a xlink:href="class_player_stats.html#afcace3e680c4d2f0d8ae4a3d963b0d53" target="_top" xlink:title="Returns the AbilityCooldowns of the abilities">
<polygon fill="none" stroke="black" points="328,-177.5 328,-196.5 449,-196.5 449,-177.5 328,-177.5"/>
<text text-anchor="middle" x="388.5" y="-184.5" font-family="Helvetica,sans-Serif" font-size="10.00">PlayerStats.GetAbilities</text>
</a>
</g>
</g>
<!-- Node2&#45;&gt;Node3 -->
<g id="edge2" class="edge">
<title>Node2&#45;&gt;Node3</title>
<path fill="none" stroke="midnightblue" d="M262.27,-158.59C284.57,-163.65 312.12,-169.9 335.7,-175.25"/>
<polygon fill="midnightblue" stroke="midnightblue" points="335.01,-178.68 345.54,-177.48 336.56,-171.85 335.01,-178.68"/>
</g>
<!-- Node4 -->
<g id="node4" class="node">
<title>Node4</title>
<g id="a_node4"><a xlink:href="class_basic_attack.html#ac85eb061d597f5879d31fb8e7a0316d5" target="_top" xlink:title=" ">
<polygon fill="none" stroke="black" points="334.5,-139.5 334.5,-158.5 442.5,-158.5 442.5,-139.5 334.5,-139.5"/>
<text text-anchor="middle" x="388.5" y="-146.5" font-family="Helvetica,sans-Serif" font-size="10.00">BasicAttack.Initialize</text>
</a>
</g>
</g>
<!-- Node2&#45;&gt;Node4 -->
<g id="edge3" class="edge">
<title>Node2&#45;&gt;Node4</title>
<path fill="none" stroke="midnightblue" d="M281.42,-149C295.39,-149 310.26,-149 324.31,-149"/>
<polygon fill="midnightblue" stroke="midnightblue" points="324.37,-152.5 334.37,-149 324.37,-145.5 324.37,-152.5"/>
</g>
<!-- Node5 -->
<g id="node5" class="node">
<title>Node5</title>
<g id="a_node5"><a xlink:href="class_player_stats.html#ae874ab5cbb490cbdcf3f5613b8bc2240" target="_top" xlink:title="Initialize the actual Stats of the Player.">
<polygon fill="none" stroke="black" points="335.5,-101.5 335.5,-120.5 441.5,-120.5 441.5,-101.5 335.5,-101.5"/>
<text text-anchor="middle" x="388.5" y="-108.5" font-family="Helvetica,sans-Serif" font-size="10.00">PlayerStats.Initialize</text>
</a>
</g>
</g>
<!-- Node2&#45;&gt;Node5 -->
<g id="edge4" class="edge">
<title>Node2&#45;&gt;Node5</title>
<path fill="none" stroke="midnightblue" d="M262.27,-139.41C284.57,-134.35 312.12,-128.1 335.7,-122.75"/>
<polygon fill="midnightblue" stroke="midnightblue" points="336.56,-126.15 345.54,-120.52 335.01,-119.32 336.56,-126.15"/>
</g>
<!-- Node6 -->
<g id="node6" class="node">
<title>Node6</title>
<g id="a_node6"><a xlink:href="class_player_u_i_controller.html#ab6ed746dec17fdf763bc4ec1d713db7f" target="_top" xlink:title="Initializes all the values and colors for this Player.">
<polygon fill="none" stroke="black" points="491.5,-180.5 491.5,-199.5 622.5,-199.5 622.5,-180.5 491.5,-180.5"/>
<text text-anchor="middle" x="557" y="-187.5" font-family="Helvetica,sans-Serif" font-size="10.00">PlayerUIController.Initalize</text>
</a>
</g>
</g>
<!-- Node5&#45;&gt;Node6 -->
<g id="edge5" class="edge">
<title>Node5&#45;&gt;Node6</title>
<path fill="none" stroke="midnightblue" d="M429.16,-120.57C436.05,-123.09 442.94,-126.19 449,-130 468.7,-142.37 465.25,-155.71 485,-168 490.67,-171.53 496.95,-174.53 503.35,-177.07"/>
<polygon fill="midnightblue" stroke="midnightblue" points="502.19,-180.37 512.78,-180.47 504.56,-173.78 502.19,-180.37"/>
</g>
<!-- Node12 -->
<g id="node12" class="node">
<title>Node12</title>
<g id="a_node12"><a xlink:href="class_player_h_u_d_controller.html#af18de1b3d5444d69cc35c9390692ab72" target="_top" xlink:title=" ">
<polygon fill="none" stroke="black" points="485,-139.5 485,-158.5 629,-158.5 629,-139.5 485,-139.5"/>
<text text-anchor="middle" x="557" y="-146.5" font-family="Helvetica,sans-Serif" font-size="10.00">PlayerHUDController.Initialize</text>
</a>
</g>
</g>
<!-- Node5&#45;&gt;Node12 -->
<g id="edge12" class="edge">
<title>Node5&#45;&gt;Node12</title>
<path fill="none" stroke="midnightblue" d="M431.51,-120.59C453.68,-125.65 481.07,-131.9 504.51,-137.25"/>
<polygon fill="midnightblue" stroke="midnightblue" points="503.76,-140.67 514.29,-139.48 505.32,-133.84 503.76,-140.67"/>
</g>
<!-- Node14 -->
<g id="node14" class="node">
<title>Node14</title>
<g id="a_node14"><a xlink:href="class_effect_manager.html#a5b9a498227bc61493b5246eb1303fc6e" target="_top" xlink:title="This method initializes the EffectManager with the proper HUD Controller to start showing the effects...">
<polygon fill="none" stroke="black" points="498.5,-101.5 498.5,-120.5 615.5,-120.5 615.5,-101.5 498.5,-101.5"/>
<text text-anchor="middle" x="557" y="-108.5" font-family="Helvetica,sans-Serif" font-size="10.00">EffectManager.Initialize</text>
</a>
</g>
</g>
<!-- Node5&#45;&gt;Node14 -->
<g id="edge14" class="edge">
<title>Node5&#45;&gt;Node14</title>
<path fill="none" stroke="midnightblue" d="M441.72,-111C456.51,-111 472.82,-111 488.38,-111"/>
<polygon fill="midnightblue" stroke="midnightblue" points="488.46,-114.5 498.46,-111 488.46,-107.5 488.46,-114.5"/>
</g>
<!-- Node15 -->
<g id="node15" class="node">
<title>Node15</title>
<g id="a_node15"><a xlink:href="class_inventory.html#af5cb79cb50692e3fb6c98df25812dcbc" target="_top" xlink:title=" ">
<polygon fill="none" stroke="black" points="510.5,-63.5 510.5,-82.5 603.5,-82.5 603.5,-63.5 510.5,-63.5"/>
<text text-anchor="middle" x="557" y="-70.5" font-family="Helvetica,sans-Serif" font-size="10.00">Inventory.Initialize</text>
</a>
</g>
</g>
<!-- Node5&#45;&gt;Node15 -->
<g id="edge15" class="edge">
<title>Node5&#45;&gt;Node15</title>
<path fill="none" stroke="midnightblue" d="M431.51,-101.41C453.68,-96.35 481.07,-90.1 504.51,-84.75"/>
<polygon fill="midnightblue" stroke="midnightblue" points="505.32,-88.16 514.29,-82.52 503.76,-81.33 505.32,-88.16"/>
</g>
<!-- Node17 -->
<g id="node17" class="node">
<title>Node17</title>
<g id="a_node17"><a xlink:href="class_player_h_u_d_controller.html#adf30ead91cd36140e32d0ad158fbbae4" target="_top" xlink:title=" ">
<polygon fill="none" stroke="black" points="485,-14 485,-44 629,-44 629,-14 485,-14"/>
<text text-anchor="start" x="493" y="-32" font-family="Helvetica,sans-Serif" font-size="10.00">PlayerHUDController.Initialize</text>
<text text-anchor="middle" x="557" y="-21" font-family="Helvetica,sans-Serif" font-size="10.00">Abilities</text>
</a>
</g>
</g>
<!-- Node5&#45;&gt;Node17 -->
<g id="edge17" class="edge">
<title>Node5&#45;&gt;Node17</title>
<path fill="none" stroke="midnightblue" d="M403.57,-101.38C421.77,-89.22 454.75,-68.18 485,-54 489.61,-51.84 494.47,-49.75 499.39,-47.77"/>
<polygon fill="midnightblue" stroke="midnightblue" points="500.81,-50.98 508.87,-44.1 498.28,-44.45 500.81,-50.98"/>
</g>
<!-- Node7 -->
<g id="node7" class="node">
<title>Node7</title>
<g id="a_node7"><a xlink:href="class_player_u_i_controller.html#aa5b61a93967fa5ce39bfd950a9e9d584" target="_top" xlink:title="Initializes all the values into the Image and Text.">
<polygon fill="none" stroke="black" points="668.5,-176 668.5,-206 801.5,-206 801.5,-176 668.5,-176"/>
<text text-anchor="start" x="676.5" y="-194" font-family="Helvetica,sans-Serif" font-size="10.00">PlayerUIController.Initialize</text>
<text text-anchor="middle" x="735" y="-183" font-family="Helvetica,sans-Serif" font-size="10.00">Values</text>
</a>
</g>
</g>
<!-- Node6&#45;&gt;Node7 -->
<g id="edge6" class="edge">
<title>Node6&#45;&gt;Node7</title>
<path fill="none" stroke="midnightblue" d="M622.54,-190.37C634.07,-190.43 646.18,-190.5 658,-190.57"/>
<polygon fill="midnightblue" stroke="midnightblue" points="658.27,-194.07 668.29,-190.63 658.31,-187.07 658.27,-194.07"/>
</g>
<!-- Node8 -->
<g id="node8" class="node">
<title>Node8</title>
<g id="a_node8"><a xlink:href="class_player_u_i_controller.html#adadd54ec10a1236aa7c08022d27fa068" target="_top" xlink:title="Sets the current level and xp to the Image.">
<polygon fill="none" stroke="black" points="848.5,-200 848.5,-230 976.5,-230 976.5,-200 848.5,-200"/>
<text text-anchor="start" x="856.5" y="-218" font-family="Helvetica,sans-Serif" font-size="10.00">PlayerUIController.Update</text>
<text text-anchor="middle" x="912.5" y="-207" font-family="Helvetica,sans-Serif" font-size="10.00">CurrentLevel</text>
</a>
</g>
</g>
<!-- Node7&#45;&gt;Node8 -->
<g id="edge7" class="edge">
<title>Node7&#45;&gt;Node8</title>
<path fill="none" stroke="midnightblue" d="M801.85,-200C813.78,-201.64 826.29,-203.35 838.41,-205"/>
<polygon fill="midnightblue" stroke="midnightblue" points="838.1,-208.49 848.48,-206.38 839.05,-201.56 838.1,-208.49"/>
</g>
<!-- Node10 -->
<g id="node10" class="node">
<title>Node10</title>
<g id="a_node10"><a xlink:href="class_player_u_i_controller.html#aacc9f1b78d9e1adab16f8fc2ec246dfb" target="_top" xlink:title=" ">
<polygon fill="none" stroke="black" points="848.5,-151 848.5,-181 976.5,-181 976.5,-151 848.5,-151"/>
<text text-anchor="start" x="856.5" y="-169" font-family="Helvetica,sans-Serif" font-size="10.00">PlayerUIController.Update</text>
<text text-anchor="middle" x="912.5" y="-158" font-family="Helvetica,sans-Serif" font-size="10.00">MaxHP</text>
</a>
</g>
</g>
<!-- Node7&#45;&gt;Node10 -->
<g id="edge9" class="edge">
<title>Node7&#45;&gt;Node10</title>
<path fill="none" stroke="midnightblue" d="M801.85,-181.62C813.78,-179.92 826.29,-178.14 838.41,-176.41"/>
<polygon fill="midnightblue" stroke="midnightblue" points="839.07,-179.85 848.48,-174.98 838.09,-172.92 839.07,-179.85"/>
</g>
<!-- Node9 -->
<g id="node9" class="node">
<title>Node9</title>
<g id="a_node9"><a xlink:href="class_utils.html#a459472171f68c903c975020cc5b02fee" target="_top" xlink:title="Calculates the actual normalized fill amount for the image.">
<polygon fill="none" stroke="black" points="1028,-199.5 1028,-218.5 1154,-218.5 1154,-199.5 1028,-199.5"/>
<text text-anchor="middle" x="1091" y="-206.5" font-family="Helvetica,sans-Serif" font-size="10.00">Utils.CalculateFillAmount</text>
</a>
</g>
</g>
<!-- Node8&#45;&gt;Node9 -->
<g id="edge8" class="edge">
<title>Node8&#45;&gt;Node9</title>
<path fill="none" stroke="midnightblue" d="M976.72,-212.85C989.96,-212.4 1004.03,-211.92 1017.57,-211.46"/>
<polygon fill="midnightblue" stroke="midnightblue" points="1017.94,-214.95 1027.81,-211.11 1017.7,-207.96 1017.94,-214.95"/>
</g>
<!-- Node10&#45;&gt;Node9 -->
<g id="edge10" class="edge">
<title>Node10&#45;&gt;Node9</title>
<path fill="none" stroke="midnightblue" d="M975.23,-181.04C996.75,-186.28 1020.58,-192.09 1040.93,-197.04"/>
<polygon fill="midnightblue" stroke="midnightblue" points="1040.37,-200.51 1050.91,-199.48 1042.03,-193.71 1040.37,-200.51"/>
</g>
<!-- Node11 -->
<g id="node11" class="node">
<title>Node11</title>
<g id="a_node11"><a xlink:href="class_player_u_i_controller.html#aaa62b1e4dc1ee6689adbc72b8dcb73d3" target="_top" xlink:title="When you heal HP, we will reset the lerped bar">
<polygon fill="none" stroke="black" points="1020,-156.5 1020,-175.5 1162,-175.5 1162,-156.5 1020,-156.5"/>
<text text-anchor="middle" x="1091" y="-163.5" font-family="Helvetica,sans-Serif" font-size="10.00">PlayerUIController.ResetLerp</text>
</a>
</g>
</g>
<!-- Node10&#45;&gt;Node11 -->
<g id="edge11" class="edge">
<title>Node10&#45;&gt;Node11</title>
<path fill="none" stroke="midnightblue" d="M976.72,-166C987.4,-166 998.61,-166 1009.66,-166"/>
<polygon fill="midnightblue" stroke="midnightblue" points="1009.73,-169.5 1019.73,-166 1009.73,-162.5 1009.73,-169.5"/>
</g>
<!-- Node13 -->
<g id="node13" class="node">
<title>Node13</title>
<g id="a_node13"><a xlink:href="class_sellable_item_u_i.html#a10394a2c7d2d0a72d9c8b05fbf3e8696" target="_top" xlink:title=" ">
<polygon fill="none" stroke="black" points="676.5,-137.5 676.5,-156.5 793.5,-156.5 793.5,-137.5 676.5,-137.5"/>
<text text-anchor="middle" x="735" y="-144.5" font-family="Helvetica,sans-Serif" font-size="10.00">SellableItemUI.Initialize</text>
</a>
</g>
</g>
<!-- Node12&#45;&gt;Node13 -->
<g id="edge13" class="edge">
<title>Node12&#45;&gt;Node13</title>
<path fill="none" stroke="midnightblue" d="M629.08,-148.19C641.38,-148.05 654.13,-147.91 666.34,-147.77"/>
<polygon fill="midnightblue" stroke="midnightblue" points="666.48,-151.27 676.44,-147.65 666.4,-144.27 666.48,-151.27"/>
</g>
<!-- Node16 -->
<g id="node16" class="node">
<title>Node16</title>
<g id="a_node16"><a xlink:href="class_player_h_u_d_controller.html#aeef77dcdfaf1c9b719e4350c17c88fa5" target="_top" xlink:title=" ">
<polygon fill="none" stroke="black" points="665,-58 665,-88 805,-88 805,-58 665,-58"/>
<text text-anchor="start" x="673" y="-76" font-family="Helvetica,sans-Serif" font-size="10.00">PlayerHUDController.Update</text>
<text text-anchor="middle" x="735" y="-65" font-family="Helvetica,sans-Serif" font-size="10.00">GoldTxt</text>
</a>
</g>
</g>
<!-- Node15&#45;&gt;Node16 -->
<g id="edge16" class="edge">
<title>Node15&#45;&gt;Node16</title>
<path fill="none" stroke="midnightblue" d="M603.78,-73C619.36,-73 637.26,-73 654.69,-73"/>
<polygon fill="midnightblue" stroke="midnightblue" points="654.89,-76.5 664.89,-73 654.89,-69.5 654.89,-76.5"/>
</g>
<!-- Node18 -->
<g id="node18" class="node">
<title>Node18</title>
<g id="a_node18"><a xlink:href="class_ability_cooldown.html#aa01c150ac26f1694a1e174e152510094" target="_top" xlink:title="Initializes the current AbilityCooldown.">
<polygon fill="none" stroke="black" points="673,-19.5 673,-38.5 797,-38.5 797,-19.5 673,-19.5"/>
<text text-anchor="middle" x="735" y="-26.5" font-family="Helvetica,sans-Serif" font-size="10.00">AbilityCooldown.Initialize</text>
</a>
</g>
</g>
<!-- Node17&#45;&gt;Node18 -->
<g id="edge18" class="edge">
<title>Node17&#45;&gt;Node18</title>
<path fill="none" stroke="midnightblue" d="M629.08,-29C640.18,-29 651.66,-29 662.76,-29"/>
<polygon fill="midnightblue" stroke="midnightblue" points="662.84,-32.5 672.84,-29 662.84,-25.5 662.84,-32.5"/>
</g>
<!-- Node19 -->
<g id="node19" class="node">
<title>Node19</title>
<g id="a_node19"><a xlink:href="class_ability_cooldown.html#a2142f4ae1a75b2e88bd33d8553680a33" target="_top" xlink:title="This function is called whenever this ability is ready and you have enough mana.">
<polygon fill="none" stroke="black" points="841,-38.5 841,-57.5 984,-57.5 984,-38.5 841,-38.5"/>
<text text-anchor="middle" x="912.5" y="-45.5" font-family="Helvetica,sans-Serif" font-size="10.00">AbilityCooldown.AbilityReady</text>
</a>
</g>
</g>
<!-- Node18&#45;&gt;Node19 -->
<g id="edge19" class="edge">
<title>Node18&#45;&gt;Node19</title>
<path fill="none" stroke="midnightblue" d="M797.38,-35.65C808.13,-36.81 819.46,-38.04 830.63,-39.25"/>
<polygon fill="midnightblue" stroke="midnightblue" points="830.52,-42.75 840.84,-40.35 831.27,-35.79 830.52,-42.75"/>
</g>
<!-- Node20 -->
<g id="node20" class="node">
<title>Node20</title>
<g id="a_node20"><a xlink:href="class_ability.html#a680fce4c2981c462afc82d28fe3958ef" target="_top" xlink:title=" ">
<polygon fill="none" stroke="black" points="871.5,-0.5 871.5,-19.5 953.5,-19.5 953.5,-0.5 871.5,-0.5"/>
<text text-anchor="middle" x="912.5" y="-7.5" font-family="Helvetica,sans-Serif" font-size="10.00">Ability.Initialize</text>
</a>
</g>
</g>
<!-- Node18&#45;&gt;Node20 -->
<g id="edge20" class="edge">
<title>Node18&#45;&gt;Node20</title>
<path fill="none" stroke="midnightblue" d="M797.38,-22.35C818.26,-20.09 841.33,-17.6 861.23,-15.44"/>
<polygon fill="midnightblue" stroke="midnightblue" points="861.75,-18.91 871.32,-14.35 861,-11.95 861.75,-18.91"/>
</g>
</g>
</svg>
