<?xml version="1.0" encoding="UTF-8" standalone="no"?>
<!DOCTYPE svg PUBLIC "-//W3C//DTD SVG 1.1//EN"
 "http://www.w3.org/Graphics/SVG/1.1/DTD/svg11.dtd">
<!-- Generated by graphviz version 2.49.1 (20210923.0004)
 -->
<!-- Title: AbilityBase.GetStats Pages: 1 -->
<svg width="287pt" height="104pt"
 viewBox="0.00 0.00 287.00 104.00" xmlns="http://www.w3.org/2000/svg" xmlns:xlink="http://www.w3.org/1999/xlink">
<g id="graph0" class="graph" transform="scale(1 1) rotate(0) translate(4 100)">
<title>AbilityBase.GetStats</title>
<!-- Node1 -->
<g id="node1" class="node">
<title>Node1</title>
<g id="a_node1"><a xlink:title="Funció generica que retorna null si no és un objectiu valid o el component concret de Stats de l&#39;obje...">
<polygon fill="#bfbfbf" stroke="black" points="171,-38.5 171,-57.5 279,-57.5 279,-38.5 171,-38.5"/>
<text text-anchor="middle" x="225" y="-45.5" font-family="Helvetica,sans-Serif" font-size="10.00">AbilityBase.GetStats</text>
</a>
</g>
</g>
<!-- Node2 -->
<g id="node2" class="node">
<title>Node2</title>
<g id="a_node2"><a xlink:href="class_ability___lis1.html#afd1d7924ca79144a0e19a84705b7590e" target="_top" xlink:title=" ">
<polygon fill="none" stroke="black" points="0,-76.5 0,-95.5 135,-95.5 135,-76.5 0,-76.5"/>
<text text-anchor="middle" x="67.5" y="-83.5" font-family="Helvetica,sans-Serif" font-size="10.00">Ability_Lis1.OnTriggerEnter</text>
</a>
</g>
</g>
<!-- Node1&#45;&gt;Node2 -->
<g id="edge1" class="edge">
<title>Node1&#45;&gt;Node2</title>
<path fill="none" stroke="midnightblue" d="M175.03,-59.97C153.23,-65.29 127.93,-71.48 107.46,-76.48"/>
<polygon fill="midnightblue" stroke="midnightblue" points="175.88,-63.36 184.76,-57.59 174.22,-56.56 175.88,-63.36"/>
</g>
<!-- Node3 -->
<g id="node3" class="node">
<title>Node3</title>
<g id="a_node3"><a xlink:href="class_ability___lis4.html#a4497c50ddbd3f508448a76a1eafdd203" target="_top" xlink:title=" ">
<polygon fill="none" stroke="black" points="0,-38.5 0,-57.5 135,-57.5 135,-38.5 0,-38.5"/>
<text text-anchor="middle" x="67.5" y="-45.5" font-family="Helvetica,sans-Serif" font-size="10.00">Ability_Lis4.OnTriggerEnter</text>
</a>
</g>
</g>
<!-- Node1&#45;&gt;Node3 -->
<g id="edge2" class="edge">
<title>Node1&#45;&gt;Node3</title>
<path fill="none" stroke="midnightblue" d="M160.75,-48C152.3,-48 143.6,-48 135.09,-48"/>
<polygon fill="midnightblue" stroke="midnightblue" points="160.92,-51.5 170.92,-48 160.92,-44.5 160.92,-51.5"/>
</g>
<!-- Node4 -->
<g id="node4" class="node">
<title>Node4</title>
<g id="a_node4"><a xlink:href="class_ability___lis4.html#af8adb18b50c5fc887b48765ff50e5075" target="_top" xlink:title=" ">
<polygon fill="none" stroke="black" points="3,-0.5 3,-19.5 132,-19.5 132,-0.5 3,-0.5"/>
<text text-anchor="middle" x="67.5" y="-7.5" font-family="Helvetica,sans-Serif" font-size="10.00">Ability_Lis4.OnTriggerExit</text>
</a>
</g>
</g>
<!-- Node1&#45;&gt;Node4 -->
<g id="edge3" class="edge">
<title>Node1&#45;&gt;Node4</title>
<path fill="none" stroke="midnightblue" d="M175.03,-36.03C153.23,-30.71 127.93,-24.52 107.46,-19.52"/>
<polygon fill="midnightblue" stroke="midnightblue" points="174.22,-39.44 184.76,-38.41 175.88,-32.64 174.22,-39.44"/>
</g>
</g>
</svg>
