<?xml version="1.0" encoding="UTF-8" standalone="no"?>
<!DOCTYPE svg PUBLIC "-//W3C//DTD SVG 1.1//EN"
 "http://www.w3.org/Graphics/SVG/1.1/DTD/svg11.dtd">
<!-- Generated by graphviz version 2.47.3 (20210619.1520)
 -->
<!-- Title: Photon.Pun.Demo.Cockpit.PunCockpit.Start Pages: 1 -->
<!--zoomable 540 -->
<svg id="main" version="1.1" xmlns="http://www.w3.org/2000/svg" xmlns:xlink="http://www.w3.org/1999/xlink" xml:space="preserve" onload="init(evt)">
<style type="text/css"><![CDATA[
.edge:hover path { stroke: red; }
.edge:hover polygon { stroke: red; fill: red; }
]]></style>
<script type="text/javascript"><![CDATA[
var edges = document.getElementsByTagName('g');
if (edges && edges.length) {
  for (var i=0;i<edges.length;i++) {
    if (edges[i].id.substr(0,4)=='edge') {
      edges[i].setAttribute('class','edge');
    }
  }
}
]]></script>
        <defs>
                <circle id="rim" cx="0" cy="0" r="7"/>
                <circle id="rim2" cx="0" cy="0" r="3.5"/>
                <g id="zoomPlus">
                        <use xlink:href="#rim" fill="#404040">
                                <set attributeName="fill" to="#808080" begin="zoomplus.mouseover" end="zoomplus.mouseout"/>
                        </use>
                        <path d="M-4,0h8M0,-4v8" fill="none" stroke="white" stroke-width="1.5" pointer-events="none"/>
                </g>
                <g id="zoomMin">
                        <use xlink:href="#rim" fill="#404040">
                                <set attributeName="fill" to="#808080" begin="zoomminus.mouseover" end="zoomminus.mouseout"/>
                        </use>
                        <path d="M-4,0h8" fill="none" stroke="white" stroke-width="1.5" pointer-events="none"/>
                </g>
                <g id="dirArrow">
                        <path fill="none" stroke="white" stroke-width="1.5" d="M0,-3.0v7 M-2.5,-0.5L0,-3.0L2.5,-0.5"/>
                </g>
               <g id="resetDef">
                       <use xlink:href="#rim2" fill="#404040">
                               <set attributeName="fill" to="#808080" begin="reset.mouseover" end="reset.mouseout"/>
                       </use>
               </g>
        </defs>

<script type="text/javascript">
var viewWidth = 2104;
var viewHeight = 540;
var sectionId = 'dynsection-37';
</script>
<script xlink:href="svgpan.js"/>
<svg id="graph" class="graph">
<g id="viewport">
<title>Photon.Pun.Demo.Cockpit.PunCockpit.Start</title>
<polygon fill="white" stroke="transparent" points="-4,4 -4,-535.5 2100,-535.5 2100,4 -4,4"/>
<!-- Node1 -->
<g id="node1" class="node">
<title>Node1</title>
<g id="a_node1"><a xlink:title=" ">
<polygon fill="#bfbfbf" stroke="black" points="0,-196.5 0,-226.5 135,-226.5 135,-196.5 0,-196.5"/>
<text text-anchor="start" x="8" y="-214.5" font-family="Helvetica,sans-Serif" font-size="10.00">Photon.Pun.Demo.Cockpit.</text>
<text text-anchor="middle" x="67.5" y="-203.5" font-family="Helvetica,sans-Serif" font-size="10.00">PunCockpit.Start</text>
</a>
</g>
</g>
<!-- Node2 -->
<g id="node2" class="node">
<title>Node2</title>
<g id="a_node2"><a xlink:href="class_photon_1_1_pun_1_1_demo_1_1_cockpit_1_1_pun_cockpit.xhtml#a322ad513352aed28e2d4b66e5b7605b2" target="_top" xlink:title="Called when the client is connected to the Master Server and ready for matchmaking and other tasks.">
<polygon fill="white" stroke="black" points="180,-392.5 180,-422.5 350,-422.5 350,-392.5 180,-392.5"/>
<text text-anchor="start" x="188" y="-410.5" font-family="Helvetica,sans-Serif" font-size="10.00">Photon.Pun.Demo.Cockpit.</text>
<text text-anchor="middle" x="265" y="-399.5" font-family="Helvetica,sans-Serif" font-size="10.00">PunCockpit.OnConnectedToMaster</text>
</a>
</g>
</g>
<!-- Node1&#45;&gt;Node2 -->
<g id="edge1" class="edge">
<title>Node1&#45;&gt;Node2</title>
<path fill="none" stroke="midnightblue" d="M73.08,-226.61C84.1,-260.28 115.36,-341.82 171,-383.5 172.84,-384.88 174.76,-386.18 176.73,-387.41"/>
<polygon fill="midnightblue" stroke="midnightblue" points="175.27,-390.6 185.72,-392.33 178.63,-384.46 175.27,-390.6"/>
</g>
<!-- Node17 -->
<g id="node17" class="node">
<title>Node17</title>
<g id="a_node17"><a xlink:href="class_photon_1_1_pun_1_1_demo_1_1_cockpit_1_1_pun_cockpit.xhtml#a8a84aefe02e52f4abfacc83f0b7e21bc" target="_top" xlink:title="Called on entering a lobby on the Master Server.">
<polygon fill="white" stroke="black" points="196.5,-343.5 196.5,-373.5 333.5,-373.5 333.5,-343.5 196.5,-343.5"/>
<text text-anchor="start" x="204.5" y="-361.5" font-family="Helvetica,sans-Serif" font-size="10.00">Photon.Pun.Demo.Cockpit.</text>
<text text-anchor="middle" x="265" y="-350.5" font-family="Helvetica,sans-Serif" font-size="10.00">PunCockpit.OnJoinedLobby</text>
</a>
</g>
</g>
<!-- Node1&#45;&gt;Node17 -->
<g id="edge17" class="edge">
<title>Node1&#45;&gt;Node17</title>
<path fill="none" stroke="midnightblue" d="M76.77,-226.59C91.9,-252.75 126.61,-306.4 171,-334.5 175.96,-337.64 181.32,-340.37 186.88,-342.75"/>
<polygon fill="midnightblue" stroke="midnightblue" points="185.78,-346.08 196.37,-346.42 188.3,-339.55 185.78,-346.08"/>
</g>
<!-- Node18 -->
<g id="node18" class="node">
<title>Node18</title>
<g id="a_node18"><a xlink:href="class_photon_1_1_pun_1_1_demo_1_1_cockpit_1_1_pun_cockpit.xhtml#a9dd2f362c48c02ed49c82785d5cc35ad" target="_top" xlink:title="Called when the LoadBalancingClient entered a room, no matter if this client created it or simply joi...">
<polygon fill="white" stroke="black" points="197,-294.5 197,-324.5 333,-324.5 333,-294.5 197,-294.5"/>
<text text-anchor="start" x="205" y="-312.5" font-family="Helvetica,sans-Serif" font-size="10.00">Photon.Pun.Demo.Cockpit.</text>
<text text-anchor="middle" x="265" y="-301.5" font-family="Helvetica,sans-Serif" font-size="10.00">PunCockpit.OnJoinedRoom</text>
</a>
</g>
</g>
<!-- Node1&#45;&gt;Node18 -->
<g id="edge19" class="edge">
<title>Node1&#45;&gt;Node18</title>
<path fill="none" stroke="midnightblue" d="M85.37,-226.77C104.71,-243.5 138.02,-270.02 171,-285.5 176.22,-287.95 181.73,-290.18 187.35,-292.2"/>
<polygon fill="midnightblue" stroke="midnightblue" points="186.3,-295.54 196.89,-295.4 188.53,-288.9 186.3,-295.54"/>
</g>
<!-- Node28 -->
<g id="node28" class="node">
<title>Node28</title>
<g id="a_node28"><a xlink:href="class_photon_1_1_pun_1_1_demo_1_1_cockpit_1_1_bool_input_field.xhtml#ac257fcfc0490ec32223c3311fcc63641" target="_top" xlink:title=" ">
<polygon fill="white" stroke="black" points="197.5,-245.5 197.5,-275.5 332.5,-275.5 332.5,-245.5 197.5,-245.5"/>
<text text-anchor="start" x="205.5" y="-263.5" font-family="Helvetica,sans-Serif" font-size="10.00">Photon.Pun.Demo.Cockpit.</text>
<text text-anchor="middle" x="265" y="-252.5" font-family="Helvetica,sans-Serif" font-size="10.00">BoolInputField.SetValue</text>
</a>
</g>
</g>
<!-- Node1&#45;&gt;Node28 -->
<g id="edge29" class="edge">
<title>Node1&#45;&gt;Node28</title>
<path fill="none" stroke="midnightblue" d="M128.49,-226.53C149.31,-231.76 172.85,-237.65 194.39,-243.05"/>
<polygon fill="midnightblue" stroke="midnightblue" points="193.58,-246.46 204.13,-245.49 195.28,-239.67 193.58,-246.46"/>
</g>
<!-- Node29 -->
<g id="node29" class="node">
<title>Node29</title>
<g id="a_node29"><a xlink:href="class_photon_1_1_pun_1_1_demo_1_1_cockpit_1_1_int_input_field.xhtml#a357a0c6533be1b18f80390fe5b55a11d" target="_top" xlink:title=" ">
<polygon fill="white" stroke="black" points="197.5,-196.5 197.5,-226.5 332.5,-226.5 332.5,-196.5 197.5,-196.5"/>
<text text-anchor="start" x="205.5" y="-214.5" font-family="Helvetica,sans-Serif" font-size="10.00">Photon.Pun.Demo.Cockpit.</text>
<text text-anchor="middle" x="265" y="-203.5" font-family="Helvetica,sans-Serif" font-size="10.00">IntInputField.SetValue</text>
</a>
</g>
</g>
<!-- Node1&#45;&gt;Node29 -->
<g id="edge30" class="edge">
<title>Node1&#45;&gt;Node29</title>
<path fill="none" stroke="midnightblue" d="M135.23,-211.5C151.81,-211.5 169.72,-211.5 186.76,-211.5"/>
<polygon fill="midnightblue" stroke="midnightblue" points="187.24,-215 197.24,-211.5 187.24,-208 187.24,-215"/>
</g>
<!-- Node30 -->
<g id="node30" class="node">
<title>Node30</title>
<g id="a_node30"><a xlink:href="class_photon_1_1_pun_1_1_demo_1_1_cockpit_1_1_string_input_field.xhtml#aade23666cb734b42fb7b7e1f7300290c" target="_top" xlink:title=" ">
<polygon fill="white" stroke="black" points="197.5,-147.5 197.5,-177.5 332.5,-177.5 332.5,-147.5 197.5,-147.5"/>
<text text-anchor="start" x="205.5" y="-165.5" font-family="Helvetica,sans-Serif" font-size="10.00">Photon.Pun.Demo.Cockpit.</text>
<text text-anchor="middle" x="265" y="-154.5" font-family="Helvetica,sans-Serif" font-size="10.00">StringInputField.SetValue</text>
</a>
</g>
</g>
<!-- Node1&#45;&gt;Node30 -->
<g id="edge31" class="edge">
<title>Node1&#45;&gt;Node30</title>
<path fill="none" stroke="midnightblue" d="M128.49,-196.47C149.31,-191.24 172.85,-185.35 194.39,-179.95"/>
<polygon fill="midnightblue" stroke="midnightblue" points="195.28,-183.33 204.13,-177.51 193.58,-176.54 195.28,-183.33"/>
</g>
<!-- Node31 -->
<g id="node31" class="node">
<title>Node31</title>
<g id="a_node31"><a xlink:href="class_photon_1_1_pun_1_1_demo_1_1_cockpit_1_1_pun_cockpit.xhtml#aeb01bc367e3f4e12a3d8f7446d44b68e" target="_top" xlink:title=" ">
<polygon fill="white" stroke="black" points="180.5,-98.5 180.5,-128.5 349.5,-128.5 349.5,-98.5 180.5,-98.5"/>
<text text-anchor="start" x="188.5" y="-116.5" font-family="Helvetica,sans-Serif" font-size="10.00">Photon.Pun.Demo.Cockpit.</text>
<text text-anchor="middle" x="265" y="-105.5" font-family="Helvetica,sans-Serif" font-size="10.00">PunCockpit.SwitchtoMaximalPanel</text>
</a>
</g>
</g>
<!-- Node1&#45;&gt;Node31 -->
<g id="edge32" class="edge">
<title>Node1&#45;&gt;Node31</title>
<path fill="none" stroke="midnightblue" d="M85.37,-196.23C104.71,-179.5 138.02,-152.98 171,-137.5 175.3,-135.48 179.8,-133.61 184.39,-131.89"/>
<polygon fill="midnightblue" stroke="midnightblue" points="185.65,-135.16 193.93,-128.55 183.34,-128.55 185.65,-135.16"/>
</g>
<!-- Node32 -->
<g id="node32" class="node">
<title>Node32</title>
<g id="a_node32"><a xlink:href="class_photon_1_1_pun_1_1_demo_1_1_cockpit_1_1_pun_cockpit.xhtml#a9fb0ef9b7cccca07bc04fa5b9c339b4c" target="_top" xlink:title=" ">
<polygon fill="white" stroke="black" points="182,-49.5 182,-79.5 348,-79.5 348,-49.5 182,-49.5"/>
<text text-anchor="start" x="190" y="-67.5" font-family="Helvetica,sans-Serif" font-size="10.00">Photon.Pun.Demo.Cockpit.</text>
<text text-anchor="middle" x="265" y="-56.5" font-family="Helvetica,sans-Serif" font-size="10.00">PunCockpit.SwitchtoMinimalPanel</text>
</a>
</g>
</g>
<!-- Node1&#45;&gt;Node32 -->
<g id="edge33" class="edge">
<title>Node1&#45;&gt;Node32</title>
<path fill="none" stroke="midnightblue" d="M76.77,-196.41C91.9,-170.25 126.61,-116.6 171,-88.5 173.66,-86.82 176.44,-85.25 179.29,-83.79"/>
<polygon fill="midnightblue" stroke="midnightblue" points="181.03,-86.85 188.66,-79.5 178.11,-80.48 181.03,-86.85"/>
</g>
<!-- Node33 -->
<g id="node33" class="node">
<title>Node33</title>
<g id="a_node33"><a xlink:href="class_photon_1_1_pun_1_1_demo_1_1_cockpit_1_1_pun_cockpit.xhtml#a800e9d66678ec8f47b4f4211eff90ac1" target="_top" xlink:title=" ">
<polygon fill="white" stroke="black" points="171,-0.5 171,-30.5 359,-30.5 359,-0.5 171,-0.5"/>
<text text-anchor="start" x="179" y="-18.5" font-family="Helvetica,sans-Serif" font-size="10.00">Photon.Pun.Demo.Cockpit.</text>
<text text-anchor="middle" x="265" y="-7.5" font-family="Helvetica,sans-Serif" font-size="10.00">PunCockpit.SwitchToSimpleConnection</text>
</a>
</g>
</g>
<!-- Node1&#45;&gt;Node33 -->
<g id="edge34" class="edge">
<title>Node1&#45;&gt;Node33</title>
<path fill="none" stroke="midnightblue" d="M73.08,-196.39C84.1,-162.72 115.36,-81.18 171,-39.5 172.84,-38.12 174.76,-36.82 176.73,-35.59"/>
<polygon fill="midnightblue" stroke="midnightblue" points="178.63,-38.54 185.72,-30.67 175.27,-32.4 178.63,-38.54"/>
</g>
<!-- Node3 -->
<g id="node3" class="node">
<title>Node3</title>
<g id="a_node3"><a xlink:href="class_photon_1_1_pun_1_1_demo_1_1_cockpit_1_1_pun_cockpit.xhtml#adfb141a92ec187041fa91caf9959c7df" target="_top" xlink:title=" ">
<polygon fill="white" stroke="black" points="395,-368.5 395,-398.5 561,-398.5 561,-368.5 395,-368.5"/>
<text text-anchor="start" x="403" y="-386.5" font-family="Helvetica,sans-Serif" font-size="10.00">Photon.Pun.Demo.Cockpit.</text>
<text text-anchor="middle" x="478" y="-375.5" font-family="Helvetica,sans-Serif" font-size="10.00">PunCockpit.SetUpLobbyGenericUI</text>
</a>
</g>
</g>
<!-- Node2&#45;&gt;Node3 -->
<g id="edge2" class="edge">
<title>Node2&#45;&gt;Node3</title>
<path fill="none" stroke="midnightblue" d="M350.3,-397.91C361.67,-396.62 373.37,-395.29 384.86,-393.98"/>
<polygon fill="midnightblue" stroke="midnightblue" points="385.35,-397.45 394.89,-392.84 384.56,-390.49 385.35,-397.45"/>
</g>
<!-- Node4 -->
<g id="node4" class="node">
<title>Node4</title>
<g id="a_node4"><a xlink:href="class_photon_1_1_pun_1_1_demo_1_1_cockpit_1_1_room_list_view.xhtml#a03363ae3ca1d0ff519a876516dc98982" target="_top" xlink:title=" ">
<polygon fill="white" stroke="black" points="597,-417.5 597,-447.5 785,-447.5 785,-417.5 597,-417.5"/>
<text text-anchor="start" x="605" y="-435.5" font-family="Helvetica,sans-Serif" font-size="10.00">Photon.Pun.Demo.Cockpit.</text>
<text text-anchor="middle" x="691" y="-424.5" font-family="Helvetica,sans-Serif" font-size="10.00">RoomListView.OnJoinedLobbyCallBack</text>
</a>
</g>
</g>
<!-- Node3&#45;&gt;Node4 -->
<g id="edge3" class="edge">
<title>Node3&#45;&gt;Node4</title>
<path fill="none" stroke="midnightblue" d="M543.74,-398.53C566.42,-403.8 592.08,-409.76 615.5,-415.2"/>
<polygon fill="midnightblue" stroke="midnightblue" points="614.85,-418.64 625.38,-417.49 616.43,-411.82 614.85,-418.64"/>
</g>
<!-- Node5 -->
<g id="node5" class="node">
<title>Node5</title>
<g id="a_node5"><a xlink:href="class_photon_1_1_pun_1_1_demo_1_1_cockpit_1_1_friend_list_view.xhtml#aa8196984d03a944e9dc367dbd8bddb1f" target="_top" xlink:title=" ">
<polygon fill="white" stroke="black" points="613.5,-368.5 613.5,-398.5 768.5,-398.5 768.5,-368.5 613.5,-368.5"/>
<text text-anchor="start" x="621.5" y="-386.5" font-family="Helvetica,sans-Serif" font-size="10.00">Photon.Pun.Demo.Cockpit.</text>
<text text-anchor="middle" x="691" y="-375.5" font-family="Helvetica,sans-Serif" font-size="10.00">FriendListView.SetFriendDetails</text>
</a>
</g>
</g>
<!-- Node3&#45;&gt;Node5 -->
<g id="edge4" class="edge">
<title>Node3&#45;&gt;Node5</title>
<path fill="none" stroke="midnightblue" d="M561.18,-383.5C574.96,-383.5 589.3,-383.5 603.2,-383.5"/>
<polygon fill="midnightblue" stroke="midnightblue" points="603.22,-387 613.22,-383.5 603.22,-380 603.22,-387"/>
</g>
<!-- Node6 -->
<g id="node6" class="node">
<title>Node6</title>
<g id="a_node6"><a xlink:href="class_photon_1_1_pun_1_1_demo_1_1_cockpit_1_1_friend_list_view.xhtml#a8016fdd83893b643c8ed12885ba1a073" target="_top" xlink:title=" ">
<polygon fill="white" stroke="black" points="821,-392.5 821,-422.5 956,-422.5 956,-392.5 821,-392.5"/>
<text text-anchor="start" x="829" y="-410.5" font-family="Helvetica,sans-Serif" font-size="10.00">Photon.Pun.Demo.Cockpit.</text>
<text text-anchor="middle" x="888.5" y="-399.5" font-family="Helvetica,sans-Serif" font-size="10.00">FriendListView.FindFriends</text>
</a>
</g>
</g>
<!-- Node5&#45;&gt;Node6 -->
<g id="edge5" class="edge">
<title>Node5&#45;&gt;Node6</title>
<path fill="none" stroke="midnightblue" d="M768.71,-392.92C782.56,-394.62 797.02,-396.39 810.87,-398.09"/>
<polygon fill="midnightblue" stroke="midnightblue" points="810.49,-401.57 820.84,-399.32 811.34,-394.62 810.49,-401.57"/>
</g>
<!-- Node16 -->
<g id="node16" class="node">
<title>Node16</title>
<g id="a_node16"><a xlink:href="class_photon_1_1_pun_1_1_demo_1_1_cockpit_1_1_friend_list_view.xhtml#a1ac4a26d41c8c147cc635a8fba96af7b" target="_top" xlink:title=" ">
<polygon fill="white" stroke="black" points="821,-343.5 821,-373.5 956,-373.5 956,-343.5 821,-343.5"/>
<text text-anchor="start" x="829" y="-361.5" font-family="Helvetica,sans-Serif" font-size="10.00">Photon.Pun.Demo.Cockpit.</text>
<text text-anchor="middle" x="888.5" y="-350.5" font-family="Helvetica,sans-Serif" font-size="10.00">FriendListView.ResetList</text>
</a>
</g>
</g>
<!-- Node5&#45;&gt;Node16 -->
<g id="edge16" class="edge">
<title>Node5&#45;&gt;Node16</title>
<path fill="none" stroke="midnightblue" d="M768.71,-373.69C782.56,-371.92 797.02,-370.07 810.87,-368.3"/>
<polygon fill="midnightblue" stroke="midnightblue" points="811.37,-371.76 820.84,-367.02 810.48,-364.82 811.37,-371.76"/>
</g>
<!-- Node7 -->
<g id="node7" class="node">
<title>Node7</title>
<g id="a_node7"><a xlink:href="class_photon_1_1_pun_1_1_photon_network.xhtml#ac3ef7244ebae82c562a55b93895046f7" target="_top" xlink:title="Requests the rooms and online status for a list of friends and saves the result in PhotonNetwork....">
<polygon fill="white" stroke="black" points="992,-392.5 992,-422.5 1132,-422.5 1132,-392.5 992,-392.5"/>
<text text-anchor="start" x="1000" y="-410.5" font-family="Helvetica,sans-Serif" font-size="10.00">Photon.Pun.PhotonNetwork.</text>
<text text-anchor="middle" x="1062" y="-399.5" font-family="Helvetica,sans-Serif" font-size="10.00">FindFriends</text>
</a>
</g>
</g>
<!-- Node6&#45;&gt;Node7 -->
<g id="edge6" class="edge">
<title>Node6&#45;&gt;Node7</title>
<path fill="none" stroke="midnightblue" d="M956.3,-407.5C964.59,-407.5 973.13,-407.5 981.59,-407.5"/>
<polygon fill="midnightblue" stroke="midnightblue" points="981.84,-411 991.84,-407.5 981.84,-404 981.84,-411"/>
</g>
<!-- Node8 -->
<g id="node8" class="node">
<title>Node8</title>
<g id="a_node8"><a xlink:href="class_photon_1_1_realtime_1_1_load_balancing_client.xhtml#a6c6f4af01b0f593aba272d66772c6edf" target="_top" xlink:title="Request the rooms and online status for a list of friends.">
<polygon fill="white" stroke="black" points="1168,-392.5 1168,-422.5 1323,-422.5 1323,-392.5 1168,-392.5"/>
<text text-anchor="start" x="1176" y="-410.5" font-family="Helvetica,sans-Serif" font-size="10.00">Photon.Realtime.LoadBalancing</text>
<text text-anchor="middle" x="1245.5" y="-399.5" font-family="Helvetica,sans-Serif" font-size="10.00">Client.OpFindFriends</text>
</a>
</g>
</g>
<!-- Node7&#45;&gt;Node8 -->
<g id="edge7" class="edge">
<title>Node7&#45;&gt;Node8</title>
<path fill="none" stroke="midnightblue" d="M1132.14,-407.5C1140.56,-407.5 1149.25,-407.5 1157.89,-407.5"/>
<polygon fill="midnightblue" stroke="midnightblue" points="1157.98,-411 1167.98,-407.5 1157.98,-404 1157.98,-411"/>
</g>
<!-- Node9 -->
<g id="node9" class="node">
<title>Node9</title>
<g id="a_node9"><a xlink:href="class_photon_1_1_realtime_1_1_load_balancing_client.xhtml#aa12ff3efc3aa91e5ceca9b3a40f7bd79" target="_top" xlink:title=" ">
<polygon fill="white" stroke="black" points="1359,-438.5 1359,-468.5 1514,-468.5 1514,-438.5 1359,-438.5"/>
<text text-anchor="start" x="1367" y="-456.5" font-family="Helvetica,sans-Serif" font-size="10.00">Photon.Realtime.LoadBalancing</text>
<text text-anchor="middle" x="1436.5" y="-445.5" font-family="Helvetica,sans-Serif" font-size="10.00">Client.CheckIfOpCanBeSent</text>
</a>
</g>
</g>
<!-- Node8&#45;&gt;Node9 -->
<g id="edge8" class="edge">
<title>Node8&#45;&gt;Node9</title>
<path fill="none" stroke="midnightblue" d="M1308.39,-422.56C1326.18,-426.89 1345.73,-431.65 1364.06,-436.11"/>
<polygon fill="midnightblue" stroke="midnightblue" points="1363.25,-439.52 1373.8,-438.48 1364.91,-432.72 1363.25,-439.52"/>
</g>
<!-- Node12 -->
<g id="node12" class="node">
<title>Node12</title>
<g id="a_node12"><a xlink:href="class_photon_1_1_realtime_1_1_load_balancing_client.xhtml#a69dd43d4c7211b5b83cd54d0ebcf79e7" target="_top" xlink:title="Debug output of low level api (and this client).">
<polygon fill="white" stroke="black" points="1554.5,-391.5 1554.5,-421.5 1709.5,-421.5 1709.5,-391.5 1554.5,-391.5"/>
<text text-anchor="start" x="1562.5" y="-409.5" font-family="Helvetica,sans-Serif" font-size="10.00">Photon.Realtime.LoadBalancing</text>
<text text-anchor="middle" x="1632" y="-398.5" font-family="Helvetica,sans-Serif" font-size="10.00">Client.DebugReturn</text>
</a>
</g>
</g>
<!-- Node8&#45;&gt;Node12 -->
<g id="edge14" class="edge">
<title>Node8&#45;&gt;Node12</title>
<path fill="none" stroke="midnightblue" d="M1323.39,-407.3C1387.17,-407.13 1477.85,-406.9 1544.22,-406.73"/>
<polygon fill="midnightblue" stroke="midnightblue" points="1544.26,-410.23 1554.25,-406.7 1544.24,-403.23 1544.26,-410.23"/>
</g>
<!-- Node15 -->
<g id="node15" class="node">
<title>Node15</title>
<g id="a_node15"><a xlink:href="class_photon_1_1_realtime_1_1_load_balancing_peer.xhtml#a2b9aebfa506dd7a930d1f0b6d71ba26e" target="_top" xlink:title="Request the rooms and online status for a list of friends (each client must set a unique username via...">
<polygon fill="white" stroke="black" points="1359,-348.5 1359,-378.5 1514,-378.5 1514,-348.5 1359,-348.5"/>
<text text-anchor="start" x="1367" y="-366.5" font-family="Helvetica,sans-Serif" font-size="10.00">Photon.Realtime.LoadBalancing</text>
<text text-anchor="middle" x="1436.5" y="-355.5" font-family="Helvetica,sans-Serif" font-size="10.00">Peer.OpFindFriends</text>
</a>
</g>
</g>
<!-- Node8&#45;&gt;Node15 -->
<g id="edge15" class="edge">
<title>Node8&#45;&gt;Node15</title>
<path fill="none" stroke="midnightblue" d="M1311.01,-392.48C1327.04,-388.75 1344.36,-384.72 1360.83,-380.88"/>
<polygon fill="midnightblue" stroke="midnightblue" points="1362.01,-384.2 1370.96,-378.53 1360.42,-377.38 1362.01,-384.2"/>
</g>
<!-- Node10 -->
<g id="node10" class="node">
<title>Node10</title>
<g id="a_node10"><a xlink:href="class_photon_1_1_realtime_1_1_load_balancing_client.xhtml#ae052ab450db16efdd31985d56f76f0ab" target="_top" xlink:title=" ">
<polygon fill="white" stroke="black" points="1550,-490 1550,-531 1714,-531 1714,-490 1550,-490"/>
<text text-anchor="start" x="1558" y="-519" font-family="Helvetica,sans-Serif" font-size="10.00">Photon.Realtime.LoadBalancing</text>
<text text-anchor="start" x="1558" y="-508" font-family="Helvetica,sans-Serif" font-size="10.00">Client.CheckIfClientIsReadyToCall</text>
<text text-anchor="middle" x="1632" y="-497" font-family="Helvetica,sans-Serif" font-size="10.00">Operation</text>
</a>
</g>
</g>
<!-- Node9&#45;&gt;Node10 -->
<g id="edge9" class="edge">
<title>Node9&#45;&gt;Node10</title>
<path fill="none" stroke="midnightblue" d="M1488.59,-468.55C1507.92,-474.24 1530.39,-480.86 1551.7,-487.14"/>
<polygon fill="midnightblue" stroke="midnightblue" points="1550.81,-490.53 1561.39,-489.99 1552.79,-483.81 1550.81,-490.53"/>
</g>
<!-- Node11 -->
<g id="node11" class="node">
<title>Node11</title>
<g id="a_node11"><a xlink:href="class_photon_1_1_realtime_1_1_load_balancing_client.xhtml#aa01a53cac6918dab3ecb99669b276f01" target="_top" xlink:title=" ">
<polygon fill="white" stroke="black" points="1550.5,-440.5 1550.5,-470.5 1713.5,-470.5 1713.5,-440.5 1550.5,-440.5"/>
<text text-anchor="start" x="1558.5" y="-458.5" font-family="Helvetica,sans-Serif" font-size="10.00">Photon.Realtime.LoadBalancing</text>
<text text-anchor="middle" x="1632" y="-447.5" font-family="Helvetica,sans-Serif" font-size="10.00">Client.CheckIfOpAllowedOnServer</text>
</a>
</g>
</g>
<!-- Node9&#45;&gt;Node11 -->
<g id="edge10" class="edge">
<title>Node9&#45;&gt;Node11</title>
<path fill="none" stroke="midnightblue" d="M1514.25,-454.29C1522.75,-454.38 1531.46,-454.47 1540.1,-454.56"/>
<polygon fill="midnightblue" stroke="midnightblue" points="1540.17,-458.06 1550.21,-454.66 1540.25,-451.06 1540.17,-458.06"/>
</g>
<!-- Node9&#45;&gt;Node12 -->
<g id="edge11" class="edge">
<title>Node9&#45;&gt;Node12</title>
<path fill="none" stroke="midnightblue" d="M1499.26,-438.5C1518.37,-433.86 1539.59,-428.7 1559.31,-423.91"/>
<polygon fill="midnightblue" stroke="midnightblue" points="1560.28,-427.28 1569.17,-421.52 1558.62,-420.48 1560.28,-427.28"/>
</g>
<!-- Node13 -->
<g id="node13" class="node">
<title>Node13</title>
<g id="a_node13"><a xlink:href="class_photon_1_1_realtime_1_1_load_balancing_peer.xhtml#a7f48b5f0c44ef0c67ef32f147ff87246" target="_top" xlink:title="Creates a Peer with specified connection protocol.">
<polygon fill="white" stroke="black" points="1750,-391.5 1750,-421.5 1905,-421.5 1905,-391.5 1750,-391.5"/>
<text text-anchor="start" x="1758" y="-409.5" font-family="Helvetica,sans-Serif" font-size="10.00">Photon.Realtime.LoadBalancing</text>
<text text-anchor="middle" x="1827.5" y="-398.5" font-family="Helvetica,sans-Serif" font-size="10.00">Peer.LoadBalancingPeer</text>
</a>
</g>
</g>
<!-- Node12&#45;&gt;Node13 -->
<g id="edge12" class="edge">
<title>Node12&#45;&gt;Node13</title>
<path fill="none" stroke="midnightblue" d="M1709.75,-406.5C1719.54,-406.5 1729.62,-406.5 1739.55,-406.5"/>
<polygon fill="midnightblue" stroke="midnightblue" points="1739.84,-410 1749.84,-406.5 1739.84,-403 1739.84,-410"/>
</g>
<!-- Node14 -->
<g id="node14" class="node">
<title>Node14</title>
<g id="a_node14"><a xlink:href="class_photon_1_1_realtime_1_1_load_balancing_peer.xhtml#affaff7e1fdffe86b25156ffac5e738c9" target="_top" xlink:title=" ">
<polygon fill="white" stroke="black" points="1941,-391.5 1941,-421.5 2096,-421.5 2096,-391.5 1941,-391.5"/>
<text text-anchor="start" x="1949" y="-409.5" font-family="Helvetica,sans-Serif" font-size="10.00">Photon.Realtime.LoadBalancing</text>
<text text-anchor="middle" x="2018.5" y="-398.5" font-family="Helvetica,sans-Serif" font-size="10.00">Peer.ConfigUnitySockets</text>
</a>
</g>
</g>
<!-- Node13&#45;&gt;Node14 -->
<g id="edge13" class="edge">
<title>Node13&#45;&gt;Node14</title>
<path fill="none" stroke="midnightblue" d="M1905.1,-406.5C1913.56,-406.5 1922.22,-406.5 1930.79,-406.5"/>
<polygon fill="midnightblue" stroke="midnightblue" points="1930.79,-410 1940.79,-406.5 1930.79,-403 1930.79,-410"/>
</g>
<!-- Node17&#45;&gt;Node3 -->
<g id="edge18" class="edge">
<title>Node17&#45;&gt;Node3</title>
<path fill="none" stroke="midnightblue" d="M333.63,-366.51C349.96,-368.45 367.67,-370.55 384.91,-372.59"/>
<polygon fill="midnightblue" stroke="midnightblue" points="384.64,-376.08 394.98,-373.78 385.47,-369.13 384.64,-376.08"/>
</g>
<!-- Node19 -->
<g id="node19" class="node">
<title>Node19</title>
<g id="a_node19"><a xlink:href="class_photon_1_1_pun_1_1_demo_1_1_cockpit_1_1_player_list_view.xhtml#a9162bf1ba43e0a5f2f3af71048d00d35" target="_top" xlink:title=" ">
<polygon fill="white" stroke="black" points="410.5,-294.5 410.5,-324.5 545.5,-324.5 545.5,-294.5 410.5,-294.5"/>
<text text-anchor="start" x="418.5" y="-312.5" font-family="Helvetica,sans-Serif" font-size="10.00">Photon.Pun.Demo.Cockpit.</text>
<text text-anchor="middle" x="478" y="-301.5" font-family="Helvetica,sans-Serif" font-size="10.00">PlayerListView.ResetList</text>
</a>
</g>
</g>
<!-- Node18&#45;&gt;Node19 -->
<g id="edge20" class="edge">
<title>Node18&#45;&gt;Node19</title>
<path fill="none" stroke="midnightblue" d="M333.05,-309.5C354.41,-309.5 378.2,-309.5 400.19,-309.5"/>
<polygon fill="midnightblue" stroke="midnightblue" points="400.48,-313 410.48,-309.5 400.48,-306 400.48,-313"/>
</g>
<!-- Node20 -->
<g id="node20" class="node">
<title>Node20</title>
<g id="a_node20"><a xlink:href="class_photon_1_1_pun_1_1_demo_1_1_cockpit_1_1_player_details_controller.xhtml#a776c1d2fe05ed563cfe017dd89070a46" target="_top" xlink:title=" ">
<polygon fill="white" stroke="black" points="397.5,-234 397.5,-275 558.5,-275 558.5,-234 397.5,-234"/>
<text text-anchor="start" x="405.5" y="-263" font-family="Helvetica,sans-Serif" font-size="10.00">Photon.Pun.Demo.Cockpit.</text>
<text text-anchor="start" x="405.5" y="-252" font-family="Helvetica,sans-Serif" font-size="10.00">PlayerDetailsController.SetPlayer</text>
<text text-anchor="middle" x="478" y="-241" font-family="Helvetica,sans-Serif" font-size="10.00">Target</text>
</a>
</g>
</g>
<!-- Node18&#45;&gt;Node20 -->
<g id="edge21" class="edge">
<title>Node18&#45;&gt;Node20</title>
<path fill="none" stroke="midnightblue" d="M324.55,-294.43C335.98,-291.48 347.87,-288.4 359,-285.5 368.79,-282.95 379.03,-280.28 389.21,-277.61"/>
<polygon fill="midnightblue" stroke="midnightblue" points="390.16,-280.98 398.94,-275.06 388.38,-274.21 390.16,-280.98"/>
</g>
<!-- Node21 -->
<g id="node21" class="node">
<title>Node21</title>
<g id="a_node21"><a xlink:href="class_photon_1_1_pun_1_1_demo_1_1_cockpit_1_1_player_details_controller.xhtml#abae22d4d627b12989c84e6bda1543ec4" target="_top" xlink:title=" ">
<polygon fill="white" stroke="black" points="604.5,-294.5 604.5,-324.5 777.5,-324.5 777.5,-294.5 604.5,-294.5"/>
<text text-anchor="start" x="612.5" y="-312.5" font-family="Helvetica,sans-Serif" font-size="10.00">Photon.Pun.Demo.Cockpit.</text>
<text text-anchor="middle" x="691" y="-301.5" font-family="Helvetica,sans-Serif" font-size="10.00">PlayerDetailsController.AddProperty</text>
</a>
</g>
</g>
<!-- Node20&#45;&gt;Node21 -->
<g id="edge22" class="edge">
<title>Node20&#45;&gt;Node21</title>
<path fill="none" stroke="midnightblue" d="M557.87,-275.06C579.09,-280.59 601.86,-286.52 622.41,-291.88"/>
<polygon fill="midnightblue" stroke="midnightblue" points="621.74,-295.32 632.3,-294.46 623.51,-288.55 621.74,-295.32"/>
</g>
<!-- Node25 -->
<g id="node25" class="node">
<title>Node25</title>
<g id="a_node25"><a xlink:href="class_photon_1_1_pun_1_1_demo_1_1_cockpit_1_1_player_details_controller.xhtml#a7f7ce880e8abd641554e67f86e56caa5" target="_top" xlink:title=" ">
<polygon fill="white" stroke="black" points="618,-234 618,-275 764,-275 764,-234 618,-234"/>
<text text-anchor="start" x="626" y="-263" font-family="Helvetica,sans-Serif" font-size="10.00">Photon.Pun.Demo.Cockpit.</text>
<text text-anchor="start" x="626" y="-252" font-family="Helvetica,sans-Serif" font-size="10.00">PlayerDetailsController.GetAll</text>
<text text-anchor="middle" x="691" y="-241" font-family="Helvetica,sans-Serif" font-size="10.00">PlayerBuiltIntProperties</text>
</a>
</g>
</g>
<!-- Node20&#45;&gt;Node25 -->
<g id="edge26" class="edge">
<title>Node20&#45;&gt;Node25</title>
<path fill="none" stroke="midnightblue" d="M558.77,-254.5C574.66,-254.5 591.38,-254.5 607.37,-254.5"/>
<polygon fill="midnightblue" stroke="midnightblue" points="607.75,-258 617.75,-254.5 607.75,-251 607.75,-258"/>
</g>
<!-- Node26 -->
<g id="node26" class="node">
<title>Node26</title>
<g id="a_node26"><a xlink:href="class_photon_1_1_pun_1_1_demo_1_1_cockpit_1_1_player_details_controller.xhtml#a2129f42f02c12000d9f2764184dccb3b" target="_top" xlink:title=" ">
<polygon fill="white" stroke="black" points="610.5,-184.5 610.5,-214.5 771.5,-214.5 771.5,-184.5 610.5,-184.5"/>
<text text-anchor="start" x="618.5" y="-202.5" font-family="Helvetica,sans-Serif" font-size="10.00">Photon.Pun.Demo.Cockpit.</text>
<text text-anchor="middle" x="691" y="-191.5" font-family="Helvetica,sans-Serif" font-size="10.00">PlayerDetailsController.ParseKey</text>
</a>
</g>
</g>
<!-- Node20&#45;&gt;Node26 -->
<g id="edge27" class="edge">
<title>Node20&#45;&gt;Node26</title>
<path fill="none" stroke="midnightblue" d="M557.87,-233.94C579.09,-228.41 601.86,-222.48 622.41,-217.12"/>
<polygon fill="midnightblue" stroke="midnightblue" points="623.51,-220.45 632.3,-214.54 621.74,-213.68 623.51,-220.45"/>
</g>
<!-- Node27 -->
<g id="node27" class="node">
<title>Node27</title>
<g id="a_node27"><a xlink:href="class_photon_1_1_pun_1_1_demo_1_1_cockpit_1_1_player_details_controller.xhtml#aed690ef755a9aea053c7644e04a30972" target="_top" xlink:title=" ">
<polygon fill="white" stroke="black" points="611,-135.5 611,-165.5 771,-165.5 771,-135.5 611,-135.5"/>
<text text-anchor="start" x="619" y="-153.5" font-family="Helvetica,sans-Serif" font-size="10.00">Photon.Pun.Demo.Cockpit.</text>
<text text-anchor="middle" x="691" y="-142.5" font-family="Helvetica,sans-Serif" font-size="10.00">PlayerDetailsController.ResetList</text>
</a>
</g>
</g>
<!-- Node20&#45;&gt;Node27 -->
<g id="edge28" class="edge">
<title>Node20&#45;&gt;Node27</title>
<path fill="none" stroke="midnightblue" d="M503.73,-233.99C526.62,-215.95 562.26,-190.19 597,-174.5 601.42,-172.5 606.04,-170.65 610.75,-168.93"/>
<polygon fill="midnightblue" stroke="midnightblue" points="612.19,-172.14 620.52,-165.6 609.93,-165.52 612.19,-172.14"/>
</g>
<!-- Node22 -->
<g id="node22" class="node">
<title>Node22</title>
<g id="a_node22"><a xlink:href="class_photon_1_1_pun_1_1_demo_1_1_cockpit_1_1_property_cell.xhtml#a08df30821595f55e1e081a0cd0299c99" target="_top" xlink:title=" ">
<polygon fill="white" stroke="black" points="821,-294.5 821,-324.5 956,-324.5 956,-294.5 821,-294.5"/>
<text text-anchor="start" x="829" y="-312.5" font-family="Helvetica,sans-Serif" font-size="10.00">Photon.Pun.Demo.Cockpit.</text>
<text text-anchor="middle" x="888.5" y="-301.5" font-family="Helvetica,sans-Serif" font-size="10.00">PropertyCell.AddToList</text>
</a>
</g>
</g>
<!-- Node21&#45;&gt;Node22 -->
<g id="edge23" class="edge">
<title>Node21&#45;&gt;Node22</title>
<path fill="none" stroke="midnightblue" d="M777.75,-309.5C788.71,-309.5 799.88,-309.5 810.69,-309.5"/>
<polygon fill="midnightblue" stroke="midnightblue" points="810.92,-313 820.92,-309.5 810.92,-306 810.92,-313"/>
</g>
<!-- Node23 -->
<g id="node23" class="node">
<title>Node23</title>
<g id="a_node23"><a xlink:href="class_photon_1_1_pun_1_1_demo_1_1_cockpit_1_1_property_cell.xhtml#a931845bc2e9c633224558d2abd8b3a6f" target="_top" xlink:title=" ">
<polygon fill="white" stroke="black" points="994.5,-294.5 994.5,-324.5 1129.5,-324.5 1129.5,-294.5 994.5,-294.5"/>
<text text-anchor="start" x="1002.5" y="-312.5" font-family="Helvetica,sans-Serif" font-size="10.00">Photon.Pun.Demo.Cockpit.</text>
<text text-anchor="middle" x="1062" y="-301.5" font-family="Helvetica,sans-Serif" font-size="10.00">PropertyCell.UpdateInfo</text>
</a>
</g>
</g>
<!-- Node22&#45;&gt;Node23 -->
<g id="edge24" class="edge">
<title>Node22&#45;&gt;Node23</title>
<path fill="none" stroke="midnightblue" d="M956.3,-309.5C965.48,-309.5 974.98,-309.5 984.32,-309.5"/>
<polygon fill="midnightblue" stroke="midnightblue" points="984.38,-313 994.38,-309.5 984.38,-306 984.38,-313"/>
</g>
<!-- Node24 -->
<g id="node24" class="node">
<title>Node24</title>
<g id="a_node24"><a xlink:href="class_photon_1_1_pun_1_1_demo_1_1_cockpit_1_1_property_cell.xhtml#a31fdb17d6a31c5f85468e815f4451c64" target="_top" xlink:title=" ">
<polygon fill="white" stroke="black" points="1178,-294.5 1178,-324.5 1313,-324.5 1313,-294.5 1178,-294.5"/>
<text text-anchor="start" x="1186" y="-312.5" font-family="Helvetica,sans-Serif" font-size="10.00">Photon.Pun.Demo.Cockpit.</text>
<text text-anchor="middle" x="1245.5" y="-301.5" font-family="Helvetica,sans-Serif" font-size="10.00">PropertyCell.UpdateUIPing</text>
</a>
</g>
</g>
<!-- Node23&#45;&gt;Node24 -->
<g id="edge25" class="edge">
<title>Node23&#45;&gt;Node24</title>
<path fill="none" stroke="midnightblue" d="M1129.55,-309.5C1142.01,-309.5 1155.12,-309.5 1167.85,-309.5"/>
<polygon fill="midnightblue" stroke="midnightblue" points="1167.95,-313 1177.95,-309.5 1167.95,-306 1167.95,-313"/>
</g>
</g>
</svg>
        <g id="navigator" transform="translate(0 0)" fill="#404254">
                <rect fill="#f2f5e9" fill-opacity="0.5" stroke="#606060" stroke-width=".5" x="0" y="0" width="60" height="60"/>
                <use id="zoomplus" xlink:href="#zoomPlus" x="17" y="9" onmousedown="handleZoom(evt,'in')"/>
                <use id="zoomminus" xlink:href="#zoomMin" x="42" y="9" onmousedown="handleZoom(evt,'out')"/>
                <use id="reset" xlink:href="#resetDef" x="30" y="36" onmousedown="handleReset()"/>
                <g id="arrowUp" xlink:href="#dirArrow" transform="translate(30 24)" onmousedown="handlePan(0,-1)">
                  <use xlink:href="#rim" fill="#404040">
                        <set attributeName="fill" to="#808080" begin="arrowUp.mouseover" end="arrowUp.mouseout"/>
                  </use>
                  <path fill="none" stroke="white" stroke-width="1.5" d="M0,-3.0v7 M-2.5,-0.5L0,-3.0L2.5,-0.5"/>
                </g>
                <g id="arrowRight" xlink:href="#dirArrow" transform="rotate(90) translate(36 -43)" onmousedown="handlePan(1,0)">
                  <use xlink:href="#rim" fill="#404040">
                        <set attributeName="fill" to="#808080" begin="arrowRight.mouseover" end="arrowRight.mouseout"/>
                  </use>
                  <path fill="none" stroke="white" stroke-width="1.5" d="M0,-3.0v7 M-2.5,-0.5L0,-3.0L2.5,-0.5"/>
                </g>
                <g id="arrowDown" xlink:href="#dirArrow" transform="rotate(180) translate(-30 -48)" onmousedown="handlePan(0,1)">
                  <use xlink:href="#rim" fill="#404040">
                        <set attributeName="fill" to="#808080" begin="arrowDown.mouseover" end="arrowDown.mouseout"/>
                  </use>
                  <path fill="none" stroke="white" stroke-width="1.5" d="M0,-3.0v7 M-2.5,-0.5L0,-3.0L2.5,-0.5"/>
                </g>
                <g id="arrowLeft" xlink:href="#dirArrow" transform="rotate(270) translate(-36 17)" onmousedown="handlePan(-1,0)">
                  <use xlink:href="#rim" fill="#404040">
                        <set attributeName="fill" to="#808080" begin="arrowLeft.mouseover" end="arrowLeft.mouseout"/>
                  </use>
                  <path fill="none" stroke="white" stroke-width="1.5" d="M0,-3.0v7 M-2.5,-0.5L0,-3.0L2.5,-0.5"/>
                </g>
        </g>
        <svg viewBox="0 0 15 15" width="100%" height="30px" preserveAspectRatio="xMaxYMin meet">
         <g id="arrow_out" transform="scale(0.3 0.3)">
          <a xlink:href="class_photon_1_1_pun_1_1_demo_1_1_cockpit_1_1_pun_cockpit_a96d91c8a4398280fb582bd516bf147f6_cgraph_org.svg" target="_base">
           <rect id="button" ry="5" rx="5" y="6" x="6" height="38" width="38"
                fill="#f2f5e9" fill-opacity="0.5" stroke="#606060" stroke-width="1.0"/>
           <path id="arrow"
             d="M 11.500037,31.436501 C 11.940474,20.09759 22.043105,11.32322 32.158766,21.979434 L 37.068811,17.246167 C 37.068811,17.246167 37.088388,32 37.088388,32 L 22.160133,31.978069 C 22.160133,31.978069 26.997745,27.140456 26.997745,27.140456 C 18.528582,18.264221 13.291696,25.230495 11.500037,31.436501 z"
             style="fill:#404040;"/>
          </a>
         </g>
        </svg>
</svg>
