<?xml version="1.0" encoding="UTF-8" standalone="no"?>
<!DOCTYPE svg PUBLIC "-//W3C//DTD SVG 1.1//EN"
 "http://www.w3.org/Graphics/SVG/1.1/DTD/svg11.dtd">
<!-- Generated by graphviz version 2.47.3 (20210619.1520)
 -->
<!-- Title: UnityStandardAssets.Characters.ThirdPerson.PunDemos.ThirdPersonCharacter.HandleAirborneMovement Pages: 1 -->
<svg width="735pt" height="50pt"
 viewBox="0.00 0.00 735.00 50.00" xmlns="http://www.w3.org/2000/svg" xmlns:xlink="http://www.w3.org/1999/xlink">
<g id="graph0" class="graph" transform="scale(1 1) rotate(0) translate(4 46)">
<title>UnityStandardAssets.Characters.ThirdPerson.PunDemos.ThirdPersonCharacter.HandleAirborneMovement</title>
<polygon fill="white" stroke="transparent" points="-4,4 -4,-46 731,-46 731,4 -4,4"/>
<!-- Node1 -->
<g id="node1" class="node">
<title>Node1</title>
<g id="a_node1"><a xlink:title=" ">
<polygon fill="#bfbfbf" stroke="black" points="508,-0.5 508,-41.5 727,-41.5 727,-0.5 508,-0.5"/>
<text text-anchor="start" x="516" y="-29.5" font-family="Helvetica,sans-Serif" font-size="10.00">UnityStandardAssets.Characters.</text>
<text text-anchor="start" x="516" y="-18.5" font-family="Helvetica,sans-Serif" font-size="10.00">ThirdPerson.PunDemos.ThirdPersonCharacter.</text>
<text text-anchor="middle" x="617.5" y="-7.5" font-family="Helvetica,sans-Serif" font-size="10.00">HandleAirborneMovement</text>
</a>
</g>
</g>
<!-- Node2 -->
<g id="node2" class="node">
<title>Node2</title>
<g id="a_node2"><a xlink:href="class_unity_standard_assets_1_1_characters_1_1_third_person_1_1_pun_demos_1_1_third_person_character.xhtml#aa79d38e14b9c64856678263f09b2ea5a" target="_top" xlink:title=" ">
<polygon fill="white" stroke="black" points="230,-6 230,-36 472,-36 472,-6 230,-6"/>
<text text-anchor="start" x="238" y="-24" font-family="Helvetica,sans-Serif" font-size="10.00">UnityStandardAssets.Characters.</text>
<text text-anchor="middle" x="351" y="-13" font-family="Helvetica,sans-Serif" font-size="10.00">ThirdPerson.PunDemos.ThirdPersonCharacter.Move</text>
</a>
</g>
</g>
<!-- Node1&#45;&gt;Node2 -->
<g id="edge1" class="edge">
<title>Node1&#45;&gt;Node2</title>
<path fill="none" stroke="midnightblue" d="M497.59,-21C489.2,-21 480.74,-21 472.34,-21"/>
<polygon fill="midnightblue" stroke="midnightblue" points="497.77,-24.5 507.77,-21 497.77,-17.5 497.77,-24.5"/>
</g>
<!-- Node3 -->
<g id="node3" class="node">
<title>Node3</title>
<g id="a_node3"><a xlink:href="class_unity_standard_assets_1_1_characters_1_1_third_person_1_1_pun_demos_1_1_third_person_user_control.xhtml#aca122482e006491a5ec787ff9602e678" target="_top" xlink:title=" ">
<polygon fill="white" stroke="black" points="0,-0.5 0,-41.5 194,-41.5 194,-0.5 0,-0.5"/>
<text text-anchor="start" x="8" y="-29.5" font-family="Helvetica,sans-Serif" font-size="10.00">UnityStandardAssets.Characters.</text>
<text text-anchor="start" x="8" y="-18.5" font-family="Helvetica,sans-Serif" font-size="10.00">ThirdPerson.PunDemos.ThirdPersonUser</text>
<text text-anchor="middle" x="97" y="-7.5" font-family="Helvetica,sans-Serif" font-size="10.00">Control.FixedUpdate</text>
</a>
</g>
</g>
<!-- Node2&#45;&gt;Node3 -->
<g id="edge2" class="edge">
<title>Node2&#45;&gt;Node3</title>
<path fill="none" stroke="midnightblue" d="M219.74,-21C211.08,-21 202.44,-21 194,-21"/>
<polygon fill="midnightblue" stroke="midnightblue" points="219.9,-24.5 229.9,-21 219.9,-17.5 219.9,-24.5"/>
</g>
</g>
</svg>
