<?xml version="1.0" encoding="UTF-8" standalone="no"?>
<!DOCTYPE svg PUBLIC "-//W3C//DTD SVG 1.1//EN"
 "http://www.w3.org/Graphics/SVG/1.1/DTD/svg11.dtd">
<!-- Generated by graphviz version 2.49.1 (20210923.0004)
 -->
<!-- Title: Shop.Update Pages: 1 -->
<svg width="575pt" height="142pt"
 viewBox="0.00 0.00 575.00 142.00" xmlns="http://www.w3.org/2000/svg" xmlns:xlink="http://www.w3.org/1999/xlink">
<g id="graph0" class="graph" transform="scale(1 1) rotate(0) translate(4 138)">
<title>Shop.Update</title>
<!-- Node1 -->
<g id="node1" class="node">
<title>Node1</title>
<g id="a_node1"><a xlink:title=" ">
<polygon fill="#bfbfbf" stroke="black" points="0,-57.5 0,-76.5 73,-76.5 73,-57.5 0,-57.5"/>
<text text-anchor="middle" x="36.5" y="-64.5" font-family="Helvetica,sans-Serif" font-size="10.00">Shop.Update</text>
</a>
</g>
</g>
<!-- Node2 -->
<g id="node2" class="node">
<title>Node2</title>
<g id="a_node2"><a xlink:href="class_current_item_shop.html#a96327722769d2770bdf5cebc78efbb03" target="_top" xlink:title=" ">
<polygon fill="none" stroke="black" points="109,-76.5 109,-95.5 264,-95.5 264,-76.5 109,-76.5"/>
<text text-anchor="middle" x="186.5" y="-83.5" font-family="Helvetica,sans-Serif" font-size="10.00">CurrentItemShop.CheckBuyable</text>
</a>
</g>
</g>
<!-- Node1&#45;&gt;Node2 -->
<g id="edge1" class="edge">
<title>Node1&#45;&gt;Node2</title>
<path fill="none" stroke="midnightblue" d="M73.33,-71.6C81.99,-72.71 91.61,-73.95 101.48,-75.21"/>
<polygon fill="midnightblue" stroke="midnightblue" points="101.03,-78.68 111.39,-76.49 101.92,-71.74 101.03,-78.68"/>
</g>
<!-- Node6 -->
<g id="node6" class="node">
<title>Node6</title>
<g id="a_node6"><a xlink:href="class_item_u_i.html#aea5d8c789ccc8a8f0b2df526321f7b5e" target="_top" xlink:title=" ">
<polygon fill="none" stroke="black" points="131.5,-114.5 131.5,-133.5 241.5,-133.5 241.5,-114.5 131.5,-114.5"/>
<text text-anchor="middle" x="186.5" y="-121.5" font-family="Helvetica,sans-Serif" font-size="10.00">ItemUI.CheckBuyable</text>
</a>
</g>
</g>
<!-- Node1&#45;&gt;Node6 -->
<g id="edge5" class="edge">
<title>Node1&#45;&gt;Node6</title>
<path fill="none" stroke="midnightblue" d="M52.88,-76.6C67.02,-85.08 88.79,-97.25 109,-105 115.44,-107.47 122.31,-109.7 129.19,-111.69"/>
<polygon fill="midnightblue" stroke="midnightblue" points="128.65,-115.18 139.22,-114.44 130.5,-108.43 128.65,-115.18"/>
</g>
<!-- Node7 -->
<g id="node7" class="node">
<title>Node7</title>
<g id="a_node7"><a xlink:href="class_shop.html#a7639e9d56c97c2cc97103f938e239ee5" target="_top" xlink:title=" ">
<polygon fill="none" stroke="black" points="142,-38.5 142,-57.5 231,-57.5 231,-38.5 142,-38.5"/>
<text text-anchor="middle" x="186.5" y="-45.5" font-family="Helvetica,sans-Serif" font-size="10.00">Shop.CloseShop</text>
</a>
</g>
</g>
<!-- Node1&#45;&gt;Node7 -->
<g id="edge7" class="edge">
<title>Node1&#45;&gt;Node7</title>
<path fill="none" stroke="midnightblue" d="M73.33,-62.4C90.88,-60.15 112.39,-57.39 131.86,-54.89"/>
<polygon fill="midnightblue" stroke="midnightblue" points="132.34,-58.35 141.82,-53.61 131.45,-51.41 132.34,-58.35"/>
</g>
<!-- Node8 -->
<g id="node8" class="node">
<title>Node8</title>
<g id="a_node8"><a xlink:href="class_shop.html#aee9936a17da965eef9cbe1d03cd82399" target="_top" xlink:title=" ">
<polygon fill="none" stroke="black" points="142.5,-0.5 142.5,-19.5 230.5,-19.5 230.5,-0.5 142.5,-0.5"/>
<text text-anchor="middle" x="186.5" y="-7.5" font-family="Helvetica,sans-Serif" font-size="10.00">Shop.OpenShop</text>
</a>
</g>
</g>
<!-- Node1&#45;&gt;Node8 -->
<g id="edge8" class="edge">
<title>Node1&#45;&gt;Node8</title>
<path fill="none" stroke="midnightblue" d="M52.88,-57.4C67.02,-48.92 88.79,-36.75 109,-29 116.54,-26.11 124.67,-23.54 132.71,-21.3"/>
<polygon fill="midnightblue" stroke="midnightblue" points="133.67,-24.67 142.44,-18.73 131.88,-17.9 133.67,-24.67"/>
</g>
<!-- Node3 -->
<g id="node3" class="node">
<title>Node3</title>
<g id="a_node3"><a xlink:href="class_inventory.html#a4eba5ec568d6e06c754b71057888fcdd" target="_top" xlink:title=" ">
<polygon fill="none" stroke="black" points="300,-114.5 300,-133.5 392,-133.5 392,-114.5 300,-114.5"/>
<text text-anchor="middle" x="346" y="-121.5" font-family="Helvetica,sans-Serif" font-size="10.00">Inventory.CanBuy</text>
</a>
</g>
</g>
<!-- Node2&#45;&gt;Node3 -->
<g id="edge2" class="edge">
<title>Node2&#45;&gt;Node3</title>
<path fill="none" stroke="midnightblue" d="M227.24,-95.59C248.03,-100.6 273.66,-106.79 295.7,-112.11"/>
<polygon fill="midnightblue" stroke="midnightblue" points="295,-115.54 305.54,-114.48 296.64,-108.73 295,-115.54"/>
</g>
<!-- Node5 -->
<g id="node5" class="node">
<title>Node5</title>
<g id="a_node5"><a xlink:href="class_item_u_i.html#a3621f37c3d29275407a00265d7823825" target="_top" xlink:title=" ">
<polygon fill="none" stroke="black" points="305,-76.5 305,-95.5 387,-95.5 387,-76.5 305,-76.5"/>
<text text-anchor="middle" x="346" y="-83.5" font-family="Helvetica,sans-Serif" font-size="10.00">ItemUI.GetItem</text>
</a>
</g>
</g>
<!-- Node2&#45;&gt;Node5 -->
<g id="edge4" class="edge">
<title>Node2&#45;&gt;Node5</title>
<path fill="none" stroke="midnightblue" d="M264.4,-86C274.61,-86 284.86,-86 294.46,-86"/>
<polygon fill="midnightblue" stroke="midnightblue" points="294.6,-89.5 304.6,-86 294.6,-82.5 294.6,-89.5"/>
</g>
<!-- Node4 -->
<g id="node4" class="node">
<title>Node4</title>
<g id="a_node4"><a xlink:href="class_inventory.html#a78bab4c24d6da82bdef1a27f5c33934e" target="_top" xlink:title=" ">
<polygon fill="none" stroke="black" points="428,-114.5 428,-133.5 567,-133.5 567,-114.5 428,-114.5"/>
<text text-anchor="middle" x="497.5" y="-121.5" font-family="Helvetica,sans-Serif" font-size="10.00">Inventory.HadAlreadyBought</text>
</a>
</g>
</g>
<!-- Node3&#45;&gt;Node4 -->
<g id="edge3" class="edge">
<title>Node3&#45;&gt;Node4</title>
<path fill="none" stroke="midnightblue" d="M392.26,-124C400.35,-124 408.99,-124 417.71,-124"/>
<polygon fill="midnightblue" stroke="midnightblue" points="417.94,-127.5 427.94,-124 417.94,-120.5 417.94,-127.5"/>
</g>
<!-- Node6&#45;&gt;Node3 -->
<g id="edge6" class="edge">
<title>Node6&#45;&gt;Node3</title>
<path fill="none" stroke="midnightblue" d="M241.7,-124C257.25,-124 274.22,-124 289.82,-124"/>
<polygon fill="midnightblue" stroke="midnightblue" points="289.85,-127.5 299.85,-124 289.85,-120.5 289.85,-127.5"/>
</g>
</g>
</svg>
