<?xml version="1.0" encoding="UTF-8" standalone="no"?>
<!DOCTYPE svg PUBLIC "-//W3C//DTD SVG 1.1//EN"
 "http://www.w3.org/Graphics/SVG/1.1/DTD/svg11.dtd">
<!-- Generated by graphviz version 2.47.3 (20210619.1520)
 -->
<!-- Title: ItemUI.GetItem Pages: 1 -->
<svg width="430pt" height="104pt"
 viewBox="0.00 0.00 430.00 104.00" xmlns="http://www.w3.org/2000/svg" xmlns:xlink="http://www.w3.org/1999/xlink">
<g id="graph0" class="graph" transform="scale(1 1) rotate(0) translate(4 100)">
<title>ItemUI.GetItem</title>
<!-- Node1 -->
<g id="node1" class="node">
<title>Node1</title>
<g id="a_node1"><a xlink:title=" ">
<polygon fill="#bfbfbf" stroke="black" points="340,-38.5 340,-57.5 422,-57.5 422,-38.5 340,-38.5"/>
<text text-anchor="middle" x="381" y="-45.5" font-family="Helvetica,sans-Serif" font-size="10.00">ItemUI.GetItem</text>
</a>
</g>
</g>
<!-- Node2 -->
<g id="node2" class="node">
<title>Node2</title>
<g id="a_node2"><a xlink:href="class_current_item_shop.html#ac931da08dc792088bbb913a1db71cf27" target="_top" xlink:title=" ">
<polygon fill="none" stroke="black" points="156,-76.5 156,-95.5 297,-95.5 297,-76.5 156,-76.5"/>
<text text-anchor="middle" x="226.5" y="-83.5" font-family="Helvetica,sans-Serif" font-size="10.00">CurrentItemShop.BuyCurrent</text>
</a>
</g>
</g>
<!-- Node1&#45;&gt;Node2 -->
<g id="edge1" class="edge">
<title>Node1&#45;&gt;Node2</title>
<path fill="none" stroke="midnightblue" d="M331.88,-60.04C322.63,-62.35 313.01,-64.75 304,-67 291.65,-70.08 278.18,-73.43 266.03,-76.44"/>
<polygon fill="midnightblue" stroke="midnightblue" points="332.88,-63.4 341.73,-57.58 331.18,-56.61 332.88,-63.4"/>
</g>
<!-- Node3 -->
<g id="node3" class="node">
<title>Node3</title>
<g id="a_node3"><a xlink:href="class_current_item_shop.html#a96327722769d2770bdf5cebc78efbb03" target="_top" xlink:title=" ">
<polygon fill="none" stroke="black" points="149,-38.5 149,-57.5 304,-57.5 304,-38.5 149,-38.5"/>
<text text-anchor="middle" x="226.5" y="-45.5" font-family="Helvetica,sans-Serif" font-size="10.00">CurrentItemShop.CheckBuyable</text>
</a>
</g>
</g>
<!-- Node1&#45;&gt;Node3 -->
<g id="edge2" class="edge">
<title>Node1&#45;&gt;Node3</title>
<path fill="none" stroke="midnightblue" d="M329.79,-48C321.57,-48 312.89,-48 304.19,-48"/>
<polygon fill="midnightblue" stroke="midnightblue" points="329.93,-51.5 339.93,-48 329.93,-44.5 329.93,-51.5"/>
</g>
<!-- Node5 -->
<g id="node5" class="node">
<title>Node5</title>
<g id="a_node5"><a xlink:href="class_current_item_shop.html#a7df6c42491987972d6d04a06c803525a" target="_top" xlink:title=" ">
<polygon fill="none" stroke="black" points="157,-0.5 157,-19.5 296,-19.5 296,-0.5 157,-0.5"/>
<text text-anchor="middle" x="226.5" y="-7.5" font-family="Helvetica,sans-Serif" font-size="10.00">CurrentItemShop.SetCurrent</text>
</a>
</g>
</g>
<!-- Node1&#45;&gt;Node5 -->
<g id="edge4" class="edge">
<title>Node1&#45;&gt;Node5</title>
<path fill="none" stroke="midnightblue" d="M331.88,-35.96C322.63,-33.65 313.01,-31.25 304,-29 291.65,-25.92 278.18,-22.57 266.03,-19.56"/>
<polygon fill="midnightblue" stroke="midnightblue" points="331.18,-39.39 341.73,-38.42 332.88,-32.6 331.18,-39.39"/>
</g>
<!-- Node4 -->
<g id="node4" class="node">
<title>Node4</title>
<g id="a_node4"><a xlink:href="class_shop.html#a41ec87cc228509d14232052a67281eb7" target="_top" xlink:title=" ">
<polygon fill="none" stroke="black" points="20,-38.5 20,-57.5 93,-57.5 93,-38.5 20,-38.5"/>
<text text-anchor="middle" x="56.5" y="-45.5" font-family="Helvetica,sans-Serif" font-size="10.00">Shop.Update</text>
</a>
</g>
</g>
<!-- Node3&#45;&gt;Node4 -->
<g id="edge3" class="edge">
<title>Node3&#45;&gt;Node4</title>
<path fill="none" stroke="midnightblue" d="M138.85,-48C122.75,-48 106.78,-48 93.31,-48"/>
<polygon fill="midnightblue" stroke="midnightblue" points="138.87,-51.5 148.87,-48 138.87,-44.5 138.87,-51.5"/>
</g>
<!-- Node6 -->
<g id="node6" class="node">
<title>Node6</title>
<g id="a_node6"><a xlink:href="class_item_u_i.html#a2b89b23e671541d302225044a9d9de6f" target="_top" xlink:title=" ">
<polygon fill="none" stroke="black" points="0,-0.5 0,-19.5 113,-19.5 113,-0.5 0,-0.5"/>
<text text-anchor="middle" x="56.5" y="-7.5" font-family="Helvetica,sans-Serif" font-size="10.00">ItemUI.OnPointerClick</text>
</a>
</g>
</g>
<!-- Node5&#45;&gt;Node6 -->
<g id="edge5" class="edge">
<title>Node5&#45;&gt;Node6</title>
<path fill="none" stroke="midnightblue" d="M146.41,-10C135.16,-10 123.79,-10 113.12,-10"/>
<polygon fill="midnightblue" stroke="midnightblue" points="146.68,-13.5 156.68,-10 146.68,-6.5 146.68,-13.5"/>
</g>
</g>
</svg>
