<?xml version="1.0" encoding="UTF-8" standalone="no"?>
<!DOCTYPE svg PUBLIC "-//W3C//DTD SVG 1.1//EN"
 "http://www.w3.org/Graphics/SVG/1.1/DTD/svg11.dtd">
<!-- Generated by graphviz version 2.50.0 (20211204.2007)
 -->
<!-- Title: MinionAI.DamageTarget Pages: 1 -->
<svg width="262pt" height="104pt"
 viewBox="0.00 0.00 262.00 104.00" xmlns="http://www.w3.org/2000/svg" xmlns:xlink="http://www.w3.org/1999/xlink">
<g id="graph0" class="graph" transform="scale(1 1) rotate(0) translate(4 100)">
<title>MinionAI.DamageTarget</title>
<polygon fill="white" stroke="transparent" points="-4,4 -4,-100 258,-100 258,4 -4,4"/>
<!-- Node1 -->
<g id="node1" class="node">
<title>Node1</title>
<g id="a_node1"><a xlink:title=" ">
<polygon fill="#bfbfbf" stroke="black" points="0,-38.5 0,-57.5 120,-57.5 120,-38.5 0,-38.5"/>
<text text-anchor="middle" x="60" y="-45.5" font-family="Helvetica,sans-Serif" font-size="10.00">MinionAI.DamageTarget</text>
</a>
</g>
</g>
<!-- Node2 -->
<g id="node2" class="node">
<title>Node2</title>
<g id="a_node2"><a xlink:href="class_minion_a_i.html#adbc82c5f1b764d7b0e0fe202079eb84b" target="_top" xlink:title=" ">
<polygon fill="white" stroke="black" points="162,-76.5 162,-95.5 248,-95.5 248,-76.5 162,-76.5"/>
<text text-anchor="middle" x="205" y="-83.5" font-family="Helvetica,sans-Serif" font-size="10.00">MinionAI.Attack</text>
</a>
</g>
</g>
<!-- Node1&#45;&gt;Node2 -->
<g id="edge1" class="edge">
<title>Node1&#45;&gt;Node2</title>
<path fill="none" stroke="midnightblue" d="M97.08,-57.59C115.63,-62.52 138.43,-68.57 158.2,-73.83"/>
<polygon fill="midnightblue" stroke="midnightblue" points="157.36,-77.23 167.93,-76.41 159.16,-70.46 157.36,-77.23"/>
</g>
<!-- Node3 -->
<g id="node3" class="node">
<title>Node3</title>
<g id="a_node3"><a xlink:href="class_stats.html#acebcf18ce39553a9c811f368a56a5583" target="_top" xlink:title="Specify the amount of damage and the Inventory that the amount of Gold will go in if it is hit for th...">
<polygon fill="white" stroke="black" points="156,-38.5 156,-57.5 254,-57.5 254,-38.5 156,-38.5"/>
<text text-anchor="middle" x="205" y="-45.5" font-family="Helvetica,sans-Serif" font-size="10.00">Stats.DealDamage</text>
</a>
</g>
</g>
<!-- Node1&#45;&gt;Node3 -->
<g id="edge2" class="edge">
<title>Node1&#45;&gt;Node3</title>
<path fill="none" stroke="midnightblue" d="M120.4,-48C128.8,-48 137.43,-48 145.81,-48"/>
<polygon fill="midnightblue" stroke="midnightblue" points="145.87,-51.5 155.87,-48 145.87,-44.5 145.87,-51.5"/>
</g>
<!-- Node4 -->
<g id="node4" class="node">
<title>Node4</title>
<g id="a_node4"><a xlink:href="class_minion_a_i.html#a867b6f918c8e4441ea49d9d926e7eec0" target="_top" xlink:title=" ">
<polygon fill="white" stroke="black" points="165,-0.5 165,-19.5 245,-19.5 245,-0.5 165,-0.5"/>
<text text-anchor="middle" x="205" y="-7.5" font-family="Helvetica,sans-Serif" font-size="10.00">MinionAI.Walk</text>
</a>
</g>
</g>
<!-- Node1&#45;&gt;Node4 -->
<g id="edge3" class="edge">
<title>Node1&#45;&gt;Node4</title>
<path fill="none" stroke="midnightblue" d="M97.08,-38.41C115.63,-33.48 138.43,-27.43 158.2,-22.17"/>
<polygon fill="midnightblue" stroke="midnightblue" points="159.16,-25.54 167.93,-19.59 157.36,-18.77 159.16,-25.54"/>
</g>
</g>
</svg>
