<?xml version="1.0" encoding="UTF-8" standalone="no"?>
<!DOCTYPE svg PUBLIC "-//W3C//DTD SVG 1.1//EN"
 "http://www.w3.org/Graphics/SVG/1.1/DTD/svg11.dtd">
<!-- Generated by graphviz version 2.47.3 (20210619.1520)
 -->
<!-- Title: PressAnyKey Pages: 1 -->
<svg width="1043pt" height="341pt"
 viewBox="0.00 0.00 1043.00 341.00" xmlns="http://www.w3.org/2000/svg" xmlns:xlink="http://www.w3.org/1999/xlink">
<g id="graph0" class="graph" transform="scale(1 1) rotate(0) translate(4 337)">
<title>PressAnyKey</title>
<polygon fill="white" stroke="transparent" points="-4,4 -4,-337 1039,-337 1039,4 -4,4"/>
<!-- Node1 -->
<g id="node1" class="node">
<title>Node1</title>
<g id="a_node1"><a xlink:title=" ">
<polygon fill="#bfbfbf" stroke="black" points="958,-266.5 958,-285.5 1035,-285.5 1035,-266.5 958,-266.5"/>
<text text-anchor="middle" x="996.5" y="-273.5" font-family="Helvetica,sans-Serif" font-size="10.00">PressAnyKey</text>
</a>
</g>
</g>
<!-- Node2 -->
<g id="node2" class="node">
<title>Node2</title>
<g id="a_node2"><a xlink:title=" ">
<polygon fill="white" stroke="#bfbfbf" points="18,-247.5 18,-266.5 101,-266.5 101,-247.5 18,-247.5"/>
<text text-anchor="middle" x="59.5" y="-254.5" font-family="Helvetica,sans-Serif" font-size="10.00">MonoBehaviour</text>
</a>
</g>
</g>
<!-- Node2&#45;&gt;Node1 -->
<g id="edge1" class="edge">
<title>Node2&#45;&gt;Node1</title>
<path fill="none" stroke="midnightblue" d="M111.24,-264.58C151.05,-269.88 207.93,-276 258,-276 258,-276 258,-276 840,-276 880.22,-276 926.3,-276 957.79,-276"/>
<polygon fill="midnightblue" stroke="midnightblue" points="111.62,-261.1 101.24,-263.22 110.68,-268.04 111.62,-261.1"/>
</g>
<!-- Node5 -->
<g id="node5" class="node">
<title>Node5</title>
<g id="a_node5"><a xlink:href="class_photon_1_1_pun_1_1_mono_behaviour_pun.xhtml" target="_top" xlink:title="This class adds the property photonView, while logging a warning when your game still uses the networ...">
<polygon fill="white" stroke="black" points="467,-228.5 467,-247.5 567,-247.5 567,-228.5 467,-228.5"/>
<text text-anchor="middle" x="517" y="-235.5" font-family="Helvetica,sans-Serif" font-size="10.00">MonoBehaviourPun</text>
</a>
</g>
</g>
<!-- Node2&#45;&gt;Node5 -->
<g id="edge5" class="edge">
<title>Node2&#45;&gt;Node5</title>
<path fill="none" stroke="midnightblue" d="M111.36,-254.88C199.6,-251.2 379.95,-243.68 466.93,-240.05"/>
<polygon fill="midnightblue" stroke="midnightblue" points="111.17,-251.38 101.32,-255.3 111.46,-258.38 111.17,-251.38"/>
</g>
<!-- Node6 -->
<g id="node6" class="node">
<title>Node6</title>
<g id="a_node6"><a xlink:href="class_photon_1_1_pun_1_1_photon_view.xhtml" target="_top" xlink:title="A PhotonView identifies an object across the network (viewID) and configures how the controlling clie...">
<polygon fill="white" stroke="black" points="198,-190.5 198,-209.5 320,-209.5 320,-190.5 198,-190.5"/>
<text text-anchor="middle" x="259" y="-197.5" font-family="Helvetica,sans-Serif" font-size="10.00">Photon.Pun.PhotonView</text>
</a>
</g>
</g>
<!-- Node2&#45;&gt;Node6 -->
<g id="edge7" class="edge">
<title>Node2&#45;&gt;Node6</title>
<path fill="none" stroke="midnightblue" d="M91.73,-243.49C105.45,-237.89 121.85,-231.63 137,-227 159.74,-220.05 185.4,-214.07 207.21,-209.51"/>
<polygon fill="midnightblue" stroke="midnightblue" points="90.17,-240.35 82.28,-247.42 92.85,-246.82 90.17,-240.35"/>
</g>
<!-- Node14 -->
<g id="node14" class="node">
<title>Node14</title>
<g id="a_node14"><a xlink:href="class_background_scaling.xhtml" target="_top" xlink:title=" ">
<polygon fill="white" stroke="black" points="338,-310.5 338,-329.5 439,-329.5 439,-310.5 338,-310.5"/>
<text text-anchor="middle" x="388.5" y="-317.5" font-family="Helvetica,sans-Serif" font-size="10.00">BackgroundScaling</text>
</a>
</g>
</g>
<!-- Node2&#45;&gt;Node14 -->
<g id="edge16" class="edge">
<title>Node2&#45;&gt;Node14</title>
<path fill="none" stroke="midnightblue" d="M87.76,-271.04C102.07,-277.82 120.09,-285.44 137,-290 205.09,-308.35 286.61,-315.48 337.74,-318.25"/>
<polygon fill="midnightblue" stroke="midnightblue" points="89.04,-267.77 78.52,-266.54 85.97,-274.06 89.04,-267.77"/>
</g>
<!-- Node3 -->
<g id="node3" class="node">
<title>Node3</title>
<g id="a_node3"><a xlink:href="class_connect_to_server.xhtml" target="_top" xlink:title=" ">
<polygon fill="white" stroke="black" points="794,-209.5 794,-228.5 884,-228.5 884,-209.5 794,-209.5"/>
<text text-anchor="middle" x="839" y="-216.5" font-family="Helvetica,sans-Serif" font-size="10.00">ConnectToServer</text>
</a>
</g>
</g>
<!-- Node3&#45;&gt;Node1 -->
<g id="edge2" class="edge">
<title>Node3&#45;&gt;Node1</title>
<path fill="none" stroke="#9a32cd" stroke-dasharray="5,2" d="M882.78,-231.52C900.63,-237.04 921.48,-243.89 940,-251 952.04,-255.62 965.21,-261.51 975.69,-266.42"/>
<polygon fill="#9a32cd" stroke="#9a32cd" points="883.79,-228.17 873.21,-228.59 881.75,-234.86 883.79,-228.17"/>
<text text-anchor="middle" x="921" y="-254" font-family="Helvetica,sans-Serif" font-size="10.00"> connect</text>
</g>
<!-- Node4 -->
<g id="node4" class="node">
<title>Node4</title>
<g id="a_node4"><a xlink:href="class_photon_1_1_pun_1_1_mono_behaviour_pun_callbacks.xhtml" target="_top" xlink:title="This class provides a .photonView and all callbacks/events that PUN can call.">
<polygon fill="white" stroke="black" points="614,-133.5 614,-152.5 757,-152.5 757,-133.5 614,-133.5"/>
<text text-anchor="middle" x="685.5" y="-140.5" font-family="Helvetica,sans-Serif" font-size="10.00">MonoBehaviourPunCallbacks</text>
</a>
</g>
</g>
<!-- Node4&#45;&gt;Node3 -->
<g id="edge3" class="edge">
<title>Node4&#45;&gt;Node3</title>
<path fill="none" stroke="midnightblue" d="M714.92,-157.26C745.34,-172.52 792.76,-196.3 818.97,-209.45"/>
<polygon fill="midnightblue" stroke="midnightblue" points="716.2,-153.98 705.69,-152.63 713.06,-160.24 716.2,-153.98"/>
</g>
<!-- Node5&#45;&gt;Node4 -->
<g id="edge4" class="edge">
<title>Node5&#45;&gt;Node4</title>
<path fill="none" stroke="midnightblue" d="M563.3,-224.98C568.01,-223.17 572.66,-221.17 577,-219 615.03,-199.99 654.54,-168.49 673.31,-152.68"/>
<polygon fill="midnightblue" stroke="midnightblue" points="561.87,-221.78 553.64,-228.45 564.23,-228.37 561.87,-221.78"/>
</g>
<!-- Node6&#45;&gt;Node5 -->
<g id="edge6" class="edge">
<title>Node6&#45;&gt;Node5</title>
<path fill="none" stroke="#9a32cd" stroke-dasharray="5,2" d="M330.25,-201.06C363.48,-202.59 403.56,-205.92 439,-213 447.27,-214.65 448.99,-216.37 457,-219 466.51,-222.12 476.9,-225.48 486.27,-228.49"/>
<polygon fill="#9a32cd" stroke="#9a32cd" points="330.3,-197.56 320.17,-200.64 330.01,-204.55 330.3,-197.56"/>
<text text-anchor="middle" x="388.5" y="-216" font-family="Helvetica,sans-Serif" font-size="10.00"> pvCache</text>
</g>
<!-- Node7 -->
<g id="node7" class="node">
<title>Node7</title>
<g id="a_node7"><a xlink:href="class_photon_1_1_realtime_1_1_player.xhtml" target="_top" xlink:title="Summarizes a &quot;player&quot; within a room, identified (in that room) by ID (or &quot;actorNumber&quot;).">
<polygon fill="white" stroke="black" points="0,-166.5 0,-185.5 119,-185.5 119,-166.5 0,-166.5"/>
<text text-anchor="middle" x="59.5" y="-173.5" font-family="Helvetica,sans-Serif" font-size="10.00">Photon.Realtime.Player</text>
</a>
</g>
</g>
<!-- Node7&#45;&gt;Node6 -->
<g id="edge8" class="edge">
<title>Node7&#45;&gt;Node6</title>
<path fill="none" stroke="#9a32cd" stroke-dasharray="5,2" d="M129.32,-173.31C145.98,-173.56 163.69,-174.58 180,-177 197.87,-179.66 217.37,-185.41 232.41,-190.49"/>
<polygon fill="#9a32cd" stroke="#9a32cd" points="129.12,-169.81 119.1,-173.25 129.08,-176.81 129.12,-169.81"/>
<text text-anchor="middle" x="158.5" y="-191" font-family="Helvetica,sans-Serif" font-size="10.00"> controller</text>
<text text-anchor="middle" x="158.5" y="-180" font-family="Helvetica,sans-Serif" font-size="10.00">owner</text>
</g>
<!-- Node8 -->
<g id="node8" class="node">
<title>Node8</title>
<g id="a_node8"><a xlink:href="interface_photon_1_1_realtime_1_1_i_connection_callbacks.xhtml" target="_top" xlink:title="Collection of &quot;organizational&quot; callbacks for the Realtime Api to cover: Connection and Regions.">
<polygon fill="white" stroke="black" points="462,-190.5 462,-209.5 572,-209.5 572,-190.5 462,-190.5"/>
<text text-anchor="middle" x="517" y="-197.5" font-family="Helvetica,sans-Serif" font-size="10.00">IConnectionCallbacks</text>
</a>
</g>
</g>
<!-- Node8&#45;&gt;Node4 -->
<g id="edge9" class="edge">
<title>Node8&#45;&gt;Node4</title>
<path fill="none" stroke="midnightblue" d="M557.92,-187.31C564.31,-185.23 570.84,-183.08 577,-181 604.76,-171.63 636.35,-160.39 658.07,-152.58"/>
<polygon fill="midnightblue" stroke="midnightblue" points="556.51,-184.09 548.07,-190.5 558.66,-190.75 556.51,-184.09"/>
</g>
<!-- Node9 -->
<g id="node9" class="node">
<title>Node9</title>
<g id="a_node9"><a xlink:href="interface_photon_1_1_realtime_1_1_i_matchmaking_callbacks.xhtml" target="_top" xlink:title="Collection of &quot;organizational&quot; callbacks for the Realtime Api to cover Matchmaking.">
<polygon fill="white" stroke="black" points="457,-152.5 457,-171.5 577,-171.5 577,-152.5 457,-152.5"/>
<text text-anchor="middle" x="517" y="-159.5" font-family="Helvetica,sans-Serif" font-size="10.00">IMatchmakingCallbacks</text>
</a>
</g>
</g>
<!-- Node9&#45;&gt;Node4 -->
<g id="edge10" class="edge">
<title>Node9&#45;&gt;Node4</title>
<path fill="none" stroke="midnightblue" d="M587.33,-154.09C596.09,-153.09 605.06,-152.06 613.84,-151.06"/>
<polygon fill="midnightblue" stroke="midnightblue" points="586.71,-150.64 577.17,-155.25 587.5,-157.59 586.71,-150.64"/>
</g>
<!-- Node10 -->
<g id="node10" class="node">
<title>Node10</title>
<g id="a_node10"><a xlink:href="interface_photon_1_1_realtime_1_1_i_in_room_callbacks.xhtml" target="_top" xlink:title="Collection of &quot;in room&quot; callbacks for the Realtime Api to cover: Players entering or leaving,...">
<polygon fill="white" stroke="black" points="469.5,-114.5 469.5,-133.5 564.5,-133.5 564.5,-114.5 469.5,-114.5"/>
<text text-anchor="middle" x="517" y="-121.5" font-family="Helvetica,sans-Serif" font-size="10.00">IInRoomCallbacks</text>
</a>
</g>
</g>
<!-- Node10&#45;&gt;Node4 -->
<g id="edge11" class="edge">
<title>Node10&#45;&gt;Node4</title>
<path fill="none" stroke="midnightblue" d="M575.06,-130.51C587.52,-131.93 600.85,-133.45 613.77,-134.93"/>
<polygon fill="midnightblue" stroke="midnightblue" points="575.15,-127 564.82,-129.34 574.36,-133.95 575.15,-127"/>
</g>
<!-- Node11 -->
<g id="node11" class="node">
<title>Node11</title>
<g id="a_node11"><a xlink:href="interface_photon_1_1_realtime_1_1_i_lobby_callbacks.xhtml" target="_top" xlink:title="Collection of &quot;organizational&quot; callbacks for the Realtime Api to cover the Lobby.">
<polygon fill="white" stroke="black" points="473,-76.5 473,-95.5 561,-95.5 561,-76.5 473,-76.5"/>
<text text-anchor="middle" x="517" y="-83.5" font-family="Helvetica,sans-Serif" font-size="10.00">ILobbyCallbacks</text>
</a>
</g>
</g>
<!-- Node11&#45;&gt;Node4 -->
<g id="edge12" class="edge">
<title>Node11&#45;&gt;Node4</title>
<path fill="none" stroke="midnightblue" d="M557.92,-98.69C564.31,-100.77 570.84,-102.92 577,-105 604.76,-114.37 636.35,-125.61 658.07,-133.42"/>
<polygon fill="midnightblue" stroke="midnightblue" points="558.66,-95.25 548.07,-95.5 556.51,-101.91 558.66,-95.25"/>
</g>
<!-- Node12 -->
<g id="node12" class="node">
<title>Node12</title>
<g id="a_node12"><a xlink:href="interface_photon_1_1_realtime_1_1_i_web_rpc_callback.xhtml" target="_top" xlink:title="Interface for &quot;WebRpc&quot; callbacks for the Realtime Api.">
<polygon fill="white" stroke="black" points="470,-38.5 470,-57.5 564,-57.5 564,-38.5 470,-38.5"/>
<text text-anchor="middle" x="517" y="-45.5" font-family="Helvetica,sans-Serif" font-size="10.00">IWebRpcCallback</text>
</a>
</g>
</g>
<!-- Node12&#45;&gt;Node4 -->
<g id="edge13" class="edge">
<title>Node12&#45;&gt;Node4</title>
<path fill="none" stroke="midnightblue" d="M563.3,-61.02C568.01,-62.83 572.66,-64.83 577,-67 615.03,-86.01 654.54,-117.51 673.31,-133.32"/>
<polygon fill="midnightblue" stroke="midnightblue" points="564.23,-57.63 553.64,-57.55 561.87,-64.22 564.23,-57.63"/>
</g>
<!-- Node13 -->
<g id="node13" class="node">
<title>Node13</title>
<g id="a_node13"><a xlink:href="interface_photon_1_1_realtime_1_1_i_error_info_callback.xhtml" target="_top" xlink:title="Interface for EventCode.ErrorInfo event callback for the Realtime Api.">
<polygon fill="white" stroke="black" points="471,-0.5 471,-19.5 563,-19.5 563,-0.5 471,-0.5"/>
<text text-anchor="middle" x="517" y="-7.5" font-family="Helvetica,sans-Serif" font-size="10.00">IErrorInfoCallback</text>
</a>
</g>
</g>
<!-- Node13&#45;&gt;Node4 -->
<g id="edge14" class="edge">
<title>Node13&#45;&gt;Node4</title>
<path fill="none" stroke="midnightblue" d="M566.85,-23.53C570.39,-25.17 573.81,-26.99 577,-29 623.01,-58.04 662.74,-111.29 677.92,-133.19"/>
<polygon fill="midnightblue" stroke="midnightblue" points="567.91,-20.18 557.33,-19.6 565.24,-26.65 567.91,-20.18"/>
</g>
<!-- Node14&#45;&gt;Node1 -->
<g id="edge15" class="edge">
<title>Node14&#45;&gt;Node1</title>
<path fill="none" stroke="#9a32cd" stroke-dasharray="5,2" d="M449.42,-320.89C490.41,-321.42 545.99,-322 595,-322 595,-322 595,-322 840,-322 890.96,-322 947.59,-299 976.4,-285.53"/>
<polygon fill="#9a32cd" stroke="#9a32cd" points="449.37,-317.39 439.33,-320.76 449.28,-324.39 449.37,-317.39"/>
<text text-anchor="middle" x="685.5" y="-325" font-family="Helvetica,sans-Serif" font-size="10.00"> bgScale</text>
</g>
</g>
</svg>
