<?xml version="1.0" encoding="UTF-8" standalone="no"?>
<!DOCTYPE svg PUBLIC "-//W3C//DTD SVG 1.1//EN"
 "http://www.w3.org/Graphics/SVG/1.1/DTD/svg11.dtd">
<!-- Generated by graphviz version 2.47.3 (20210619.1520)
 -->
<!-- Title: Photon.Pun.Demo.Procedural.IngameControlPanel.Awake Pages: 1 -->
<svg width="533pt" height="50pt"
 viewBox="0.00 0.00 533.00 50.00" xmlns="http://www.w3.org/2000/svg" xmlns:xlink="http://www.w3.org/1999/xlink">
<g id="graph0" class="graph" transform="scale(1 1) rotate(0) translate(4 46)">
<title>Photon.Pun.Demo.Procedural.IngameControlPanel.Awake</title>
<polygon fill="white" stroke="transparent" points="-4,4 -4,-46 529,-46 529,4 -4,4"/>
<!-- Node1 -->
<g id="node1" class="node">
<title>Node1</title>
<g id="a_node1"><a xlink:title="When the object gets created, all necessary references are set up.">
<polygon fill="#bfbfbf" stroke="black" points="0,-6 0,-36 149,-36 149,-6 0,-6"/>
<text text-anchor="start" x="8" y="-24" font-family="Helvetica,sans-Serif" font-size="10.00">Photon.Pun.Demo.Procedural.</text>
<text text-anchor="middle" x="74.5" y="-13" font-family="Helvetica,sans-Serif" font-size="10.00">IngameControlPanel.Awake</text>
</a>
</g>
</g>
<!-- Node2 -->
<g id="node2" class="node">
<title>Node2</title>
<g id="a_node2"><a xlink:href="class_photon_1_1_pun_1_1_demo_1_1_procedural_1_1_world_generator.xhtml#aa5343596dc4fafa50e5bbb233b6bdab5" target="_top" xlink:title="Whenever the &#39;Confirm&#39; button on the Control Panel is clicked by the MasterClient,...">
<polygon fill="white" stroke="black" points="185,-0.5 185,-41.5 354,-41.5 354,-0.5 185,-0.5"/>
<text text-anchor="start" x="193" y="-29.5" font-family="Helvetica,sans-Serif" font-size="10.00">Photon.Pun.Demo.Procedural.</text>
<text text-anchor="start" x="193" y="-18.5" font-family="Helvetica,sans-Serif" font-size="10.00">WorldGenerator.ConfirmAndUpdate</text>
<text text-anchor="middle" x="269.5" y="-7.5" font-family="Helvetica,sans-Serif" font-size="10.00">Properties</text>
</a>
</g>
</g>
<!-- Node1&#45;&gt;Node2 -->
<g id="edge1" class="edge">
<title>Node1&#45;&gt;Node2</title>
<path fill="none" stroke="midnightblue" d="M149.02,-21C157.44,-21 166.11,-21 174.75,-21"/>
<polygon fill="midnightblue" stroke="midnightblue" points="174.86,-24.5 184.86,-21 174.86,-17.5 174.86,-24.5"/>
</g>
<!-- Node3 -->
<g id="node3" class="node">
<title>Node3</title>
<g id="a_node3"><a xlink:href="class_photon_1_1_realtime_1_1_room.xhtml#aff6e067d041db92e4fbde6a3277926ad" target="_top" xlink:title="Updates and synchronizes this Room&#39;s Custom Properties.">
<polygon fill="white" stroke="black" points="390,-6 390,-36 525,-36 525,-6 390,-6"/>
<text text-anchor="start" x="398" y="-24" font-family="Helvetica,sans-Serif" font-size="10.00">Photon.Realtime.Room.Set</text>
<text text-anchor="middle" x="457.5" y="-13" font-family="Helvetica,sans-Serif" font-size="10.00">CustomProperties</text>
</a>
</g>
</g>
<!-- Node2&#45;&gt;Node3 -->
<g id="edge2" class="edge">
<title>Node2&#45;&gt;Node3</title>
<path fill="none" stroke="midnightblue" d="M354.25,-21C362.75,-21 371.35,-21 379.78,-21"/>
<polygon fill="midnightblue" stroke="midnightblue" points="379.94,-24.5 389.94,-21 379.94,-17.5 379.94,-24.5"/>
</g>
</g>
</svg>
