<?xml version="1.0" encoding="UTF-8" standalone="no"?>
<!DOCTYPE svg PUBLIC "-//W3C//DTD SVG 1.1//EN"
 "http://www.w3.org/Graphics/SVG/1.1/DTD/svg11.dtd">
<!-- Generated by graphviz version 2.47.3 (20210619.1520)
 -->
<!-- Title: MinionStats.HealRPC Pages: 1 -->
<svg width="446pt" height="39pt"
 viewBox="0.00 0.00 446.00 39.00" xmlns="http://www.w3.org/2000/svg" xmlns:xlink="http://www.w3.org/1999/xlink">
<g id="graph0" class="graph" transform="scale(1 1) rotate(0) translate(4 35)">
<title>MinionStats.HealRPC</title>
<!-- Node1 -->
<g id="node1" class="node">
<title>Node1</title>
<g id="a_node1"><a xlink:title=" ">
<polygon fill="#bfbfbf" stroke="black" points="0,-6 0,-25 111,-25 111,-6 0,-6"/>
<text text-anchor="middle" x="55.5" y="-13" font-family="Helvetica,sans-Serif" font-size="10.00">MinionStats.HealRPC</text>
</a>
</g>
</g>
<!-- Node2 -->
<g id="node2" class="node">
<title>Node2</title>
<g id="a_node2"><a xlink:href="class_minion_u_i_controller.html#a9042cfa3430e60cf37cf0e0797692742" target="_top" xlink:title="Updates the current HP of the entity.">
<polygon fill="none" stroke="black" points="147,-0.5 147,-30.5 276,-30.5 276,-0.5 147,-0.5"/>
<text text-anchor="start" x="155" y="-18.5" font-family="Helvetica,sans-Serif" font-size="10.00">MinionUIController.Update</text>
<text text-anchor="middle" x="211.5" y="-7.5" font-family="Helvetica,sans-Serif" font-size="10.00">CurrentHP</text>
</a>
</g>
</g>
<!-- Node1&#45;&gt;Node2 -->
<g id="edge1" class="edge">
<title>Node1&#45;&gt;Node2</title>
<path fill="none" stroke="midnightblue" d="M111.23,-15.5C119.49,-15.5 128.13,-15.5 136.72,-15.5"/>
<polygon fill="midnightblue" stroke="midnightblue" points="136.75,-19 146.75,-15.5 136.75,-12 136.75,-19"/>
</g>
<!-- Node3 -->
<g id="node3" class="node">
<title>Node3</title>
<g id="a_node3"><a xlink:href="class_utils.html#a459472171f68c903c975020cc5b02fee" target="_top" xlink:title="Calculates the actual normalized fill amount for the image.">
<polygon fill="none" stroke="black" points="312,-6 312,-25 438,-25 438,-6 312,-6"/>
<text text-anchor="middle" x="375" y="-13" font-family="Helvetica,sans-Serif" font-size="10.00">Utils.CalculateFillAmount</text>
</a>
</g>
</g>
<!-- Node2&#45;&gt;Node3 -->
<g id="edge2" class="edge">
<title>Node2&#45;&gt;Node3</title>
<path fill="none" stroke="midnightblue" d="M276.33,-15.5C284.67,-15.5 293.25,-15.5 301.72,-15.5"/>
<polygon fill="midnightblue" stroke="midnightblue" points="301.95,-19 311.95,-15.5 301.95,-12 301.95,-19"/>
</g>
</g>
</svg>
