<?xml version="1.0" encoding="UTF-8" standalone="no"?>
<!DOCTYPE svg PUBLIC "-//W3C//DTD SVG 1.1//EN"
 "http://www.w3.org/Graphics/SVG/1.1/DTD/svg11.dtd">
<!-- Generated by graphviz version 2.47.3 (20210619.1520)
 -->
<!-- Title: Photon.Pun.UtilityScripts.PlayerNumbering Pages: 1 -->
<svg width="870pt" height="289pt"
 viewBox="0.00 0.00 870.00 288.50" xmlns="http://www.w3.org/2000/svg" xmlns:xlink="http://www.w3.org/1999/xlink">
<g id="graph0" class="graph" transform="scale(1 1) rotate(0) translate(4 284.5)">
<title>Photon.Pun.UtilityScripts.PlayerNumbering</title>
<polygon fill="white" stroke="transparent" points="-4,4 -4,-284.5 866,-284.5 866,4 -4,4"/>
<!-- Node1 -->
<g id="node1" class="node">
<title>Node1</title>
<g id="a_node1"><a xlink:title="Implements consistent numbering in a room/game with help of room properties.">
<polygon fill="#bfbfbf" stroke="black" points="733,-0.5 733,-30.5 862,-30.5 862,-0.5 733,-0.5"/>
<text text-anchor="start" x="741" y="-18.5" font-family="Helvetica,sans-Serif" font-size="10.00">Photon.Pun.UtilityScripts.</text>
<text text-anchor="middle" x="797.5" y="-7.5" font-family="Helvetica,sans-Serif" font-size="10.00">PlayerNumbering</text>
</a>
</g>
</g>
<!-- Node1&#45;&gt;Node1 -->
<g id="edge13" class="edge">
<title>Node1&#45;&gt;Node1</title>
<path fill="none" stroke="#9a32cd" stroke-dasharray="5,2" d="M782.93,-40.96C784.74,-45.68 789.59,-49 797.5,-49 810.47,-49 815.24,-40.06 811.79,-30.66"/>
<polygon fill="#9a32cd" stroke="#9a32cd" points="786.44,-40.75 783.21,-30.66 779.44,-40.56 786.44,-40.75"/>
<text text-anchor="middle" x="797.5" y="-52" font-family="Helvetica,sans-Serif" font-size="10.00"> instance</text>
</g>
<!-- Node2 -->
<g id="node2" class="node">
<title>Node2</title>
<g id="a_node2"><a xlink:href="class_photon_1_1_pun_1_1_mono_behaviour_pun_callbacks.xhtml" target="_top" xlink:title="This class provides a .photonView and all callbacks/events that PUN can call.">
<polygon fill="white" stroke="black" points="553,-128 553,-147 696,-147 696,-128 553,-128"/>
<text text-anchor="middle" x="624.5" y="-135" font-family="Helvetica,sans-Serif" font-size="10.00">MonoBehaviourPunCallbacks</text>
</a>
</g>
</g>
<!-- Node2&#45;&gt;Node1 -->
<g id="edge1" class="edge">
<title>Node2&#45;&gt;Node1</title>
<path fill="none" stroke="midnightblue" d="M647.42,-121.86C680.48,-98.27 742.7,-53.89 775.32,-30.61"/>
<polygon fill="midnightblue" stroke="midnightblue" points="645.03,-119.27 638.92,-127.93 649.09,-124.97 645.03,-119.27"/>
</g>
<!-- Node3 -->
<g id="node3" class="node">
<title>Node3</title>
<g id="a_node3"><a xlink:href="class_photon_1_1_pun_1_1_mono_behaviour_pun.xhtml" target="_top" xlink:title="This class adds the property photonView, while logging a warning when your game still uses the networ...">
<polygon fill="white" stroke="black" points="406,-261 406,-280 506,-280 506,-261 406,-261"/>
<text text-anchor="middle" x="456" y="-268" font-family="Helvetica,sans-Serif" font-size="10.00">MonoBehaviourPun</text>
</a>
</g>
</g>
<!-- Node3&#45;&gt;Node2 -->
<g id="edge2" class="edge">
<title>Node3&#45;&gt;Node2</title>
<path fill="none" stroke="midnightblue" d="M505.85,-256.97C509.39,-255.33 512.81,-253.51 516,-251.5 562.01,-222.46 601.74,-169.21 616.92,-147.31"/>
<polygon fill="midnightblue" stroke="midnightblue" points="504.24,-253.85 496.33,-260.9 506.91,-260.32 504.24,-253.85"/>
</g>
<!-- Node4 -->
<g id="node4" class="node">
<title>Node4</title>
<g id="a_node4"><a xlink:title=" ">
<polygon fill="white" stroke="#bfbfbf" points="18,-242 18,-261 101,-261 101,-242 18,-242"/>
<text text-anchor="middle" x="59.5" y="-249" font-family="Helvetica,sans-Serif" font-size="10.00">MonoBehaviour</text>
</a>
</g>
</g>
<!-- Node4&#45;&gt;Node3 -->
<g id="edge3" class="edge">
<title>Node4&#45;&gt;Node3</title>
<path fill="none" stroke="midnightblue" d="M111.58,-254.21C120.07,-254.65 128.78,-255.09 137,-255.5 232.22,-260.24 343.5,-265.4 405.97,-268.26"/>
<polygon fill="midnightblue" stroke="midnightblue" points="111.56,-250.7 101.39,-253.68 111.2,-257.69 111.56,-250.7"/>
</g>
<!-- Node5 -->
<g id="node5" class="node">
<title>Node5</title>
<g id="a_node5"><a xlink:href="class_photon_1_1_pun_1_1_photon_view.xhtml" target="_top" xlink:title="A PhotonView identifies an object across the network (viewID) and configures how the controlling clie...">
<polygon fill="white" stroke="black" points="198,-223 198,-242 320,-242 320,-223 198,-223"/>
<text text-anchor="middle" x="259" y="-230" font-family="Helvetica,sans-Serif" font-size="10.00">Photon.Pun.PhotonView</text>
</a>
</g>
</g>
<!-- Node4&#45;&gt;Node5 -->
<g id="edge5" class="edge">
<title>Node4&#45;&gt;Node5</title>
<path fill="none" stroke="midnightblue" d="M111.56,-246.59C137.86,-244.06 170.1,-240.96 197.63,-238.31"/>
<polygon fill="midnightblue" stroke="midnightblue" points="111.04,-243.12 101.42,-247.56 111.71,-250.09 111.04,-243.12"/>
</g>
<!-- Node5&#45;&gt;Node3 -->
<g id="edge4" class="edge">
<title>Node5&#45;&gt;Node3</title>
<path fill="none" stroke="#9a32cd" stroke-dasharray="5,2" d="M330.36,-237.78C346.14,-239.65 362.72,-242.15 378,-245.5 386.24,-247.31 387.99,-248.87 396,-251.5 405.51,-254.62 415.9,-257.98 425.27,-260.99"/>
<polygon fill="#9a32cd" stroke="#9a32cd" points="330.45,-234.27 320.13,-236.64 329.68,-241.22 330.45,-234.27"/>
<text text-anchor="middle" x="358" y="-248.5" font-family="Helvetica,sans-Serif" font-size="10.00"> pvCache</text>
</g>
<!-- Node6 -->
<g id="node6" class="node">
<title>Node6</title>
<g id="a_node6"><a xlink:href="class_photon_1_1_realtime_1_1_player.xhtml" target="_top" xlink:title="Summarizes a &quot;player&quot; within a room, identified (in that room) by ID (or &quot;actorNumber&quot;).">
<polygon fill="white" stroke="black" points="0,-102 0,-121 119,-121 119,-102 0,-102"/>
<text text-anchor="middle" x="59.5" y="-109" font-family="Helvetica,sans-Serif" font-size="10.00">Photon.Realtime.Player</text>
</a>
</g>
</g>
<!-- Node6&#45;&gt;Node1 -->
<g id="edge14" class="edge">
<title>Node6&#45;&gt;Node1</title>
<path fill="none" stroke="#9a32cd" stroke-dasharray="5,2" d="M76.96,-94.94C108.87,-64.68 182.7,-3.5 258,-3.5 258,-3.5 258,-3.5 625.5,-3.5 661.06,-3.5 700.69,-6.11 732.83,-8.9"/>
<polygon fill="#9a32cd" stroke="#9a32cd" points="74.51,-92.44 69.77,-101.92 79.38,-97.46 74.51,-92.44"/>
<text text-anchor="middle" x="456" y="-6.5" font-family="Helvetica,sans-Serif" font-size="10.00"> SortedPlayers</text>
</g>
<!-- Node6&#45;&gt;Node5 -->
<g id="edge6" class="edge">
<title>Node6&#45;&gt;Node5</title>
<path fill="none" stroke="#9a32cd" stroke-dasharray="5,2" d="M84.93,-126.46C126.08,-151.68 208.09,-201.92 242.37,-222.92"/>
<polygon fill="#9a32cd" stroke="#9a32cd" points="86.68,-123.44 76.33,-121.2 83.03,-129.41 86.68,-123.44"/>
<text text-anchor="middle" x="158.5" y="-196.5" font-family="Helvetica,sans-Serif" font-size="10.00"> controller</text>
<text text-anchor="middle" x="158.5" y="-185.5" font-family="Helvetica,sans-Serif" font-size="10.00">owner</text>
</g>
<!-- Node7 -->
<g id="node7" class="node">
<title>Node7</title>
<g id="a_node7"><a xlink:href="interface_photon_1_1_realtime_1_1_i_connection_callbacks.xhtml" target="_top" xlink:title="Collection of &quot;organizational&quot; callbacks for the Realtime Api to cover: Connection and Regions.">
<polygon fill="white" stroke="black" points="401,-223 401,-242 511,-242 511,-223 401,-223"/>
<text text-anchor="middle" x="456" y="-230" font-family="Helvetica,sans-Serif" font-size="10.00">IConnectionCallbacks</text>
</a>
</g>
</g>
<!-- Node7&#45;&gt;Node2 -->
<g id="edge7" class="edge">
<title>Node7&#45;&gt;Node2</title>
<path fill="none" stroke="midnightblue" d="M502.3,-219.48C507.01,-217.67 511.66,-215.67 516,-213.5 554.03,-194.49 593.54,-162.99 612.31,-147.18"/>
<polygon fill="midnightblue" stroke="midnightblue" points="500.87,-216.28 492.64,-222.95 503.23,-222.87 500.87,-216.28"/>
</g>
<!-- Node8 -->
<g id="node8" class="node">
<title>Node8</title>
<g id="a_node8"><a xlink:href="interface_photon_1_1_realtime_1_1_i_matchmaking_callbacks.xhtml" target="_top" xlink:title="Collection of &quot;organizational&quot; callbacks for the Realtime Api to cover Matchmaking.">
<polygon fill="white" stroke="black" points="396,-185 396,-204 516,-204 516,-185 396,-185"/>
<text text-anchor="middle" x="456" y="-192" font-family="Helvetica,sans-Serif" font-size="10.00">IMatchmakingCallbacks</text>
</a>
</g>
</g>
<!-- Node8&#45;&gt;Node2 -->
<g id="edge8" class="edge">
<title>Node8&#45;&gt;Node2</title>
<path fill="none" stroke="midnightblue" d="M496.92,-181.81C503.31,-179.73 509.84,-177.58 516,-175.5 543.76,-166.13 575.35,-154.89 597.07,-147.08"/>
<polygon fill="midnightblue" stroke="midnightblue" points="495.51,-178.59 487.07,-185 497.66,-185.25 495.51,-178.59"/>
</g>
<!-- Node9 -->
<g id="node9" class="node">
<title>Node9</title>
<g id="a_node9"><a xlink:href="interface_photon_1_1_realtime_1_1_i_in_room_callbacks.xhtml" target="_top" xlink:title="Collection of &quot;in room&quot; callbacks for the Realtime Api to cover: Players entering or leaving,...">
<polygon fill="white" stroke="black" points="408.5,-147 408.5,-166 503.5,-166 503.5,-147 408.5,-147"/>
<text text-anchor="middle" x="456" y="-154" font-family="Helvetica,sans-Serif" font-size="10.00">IInRoomCallbacks</text>
</a>
</g>
</g>
<!-- Node9&#45;&gt;Node2 -->
<g id="edge9" class="edge">
<title>Node9&#45;&gt;Node2</title>
<path fill="none" stroke="midnightblue" d="M514.06,-149.99C526.52,-148.57 539.85,-147.05 552.77,-145.57"/>
<polygon fill="midnightblue" stroke="midnightblue" points="513.36,-146.55 503.82,-151.16 514.15,-153.5 513.36,-146.55"/>
</g>
<!-- Node10 -->
<g id="node10" class="node">
<title>Node10</title>
<g id="a_node10"><a xlink:href="interface_photon_1_1_realtime_1_1_i_lobby_callbacks.xhtml" target="_top" xlink:title="Collection of &quot;organizational&quot; callbacks for the Realtime Api to cover the Lobby.">
<polygon fill="white" stroke="black" points="412,-109 412,-128 500,-128 500,-109 412,-109"/>
<text text-anchor="middle" x="456" y="-116" font-family="Helvetica,sans-Serif" font-size="10.00">ILobbyCallbacks</text>
</a>
</g>
</g>
<!-- Node10&#45;&gt;Node2 -->
<g id="edge10" class="edge">
<title>Node10&#45;&gt;Node2</title>
<path fill="none" stroke="midnightblue" d="M510.41,-124.59C523.97,-126.14 538.74,-127.83 553,-129.45"/>
<polygon fill="midnightblue" stroke="midnightblue" points="510.64,-121.1 500.31,-123.44 509.85,-128.05 510.64,-121.1"/>
</g>
<!-- Node11 -->
<g id="node11" class="node">
<title>Node11</title>
<g id="a_node11"><a xlink:href="interface_photon_1_1_realtime_1_1_i_web_rpc_callback.xhtml" target="_top" xlink:title="Interface for &quot;WebRpc&quot; callbacks for the Realtime Api.">
<polygon fill="white" stroke="black" points="409,-71 409,-90 503,-90 503,-71 409,-71"/>
<text text-anchor="middle" x="456" y="-78" font-family="Helvetica,sans-Serif" font-size="10.00">IWebRpcCallback</text>
</a>
</g>
</g>
<!-- Node11&#45;&gt;Node2 -->
<g id="edge11" class="edge">
<title>Node11&#45;&gt;Node2</title>
<path fill="none" stroke="midnightblue" d="M496.92,-93.19C503.31,-95.27 509.84,-97.42 516,-99.5 543.76,-108.87 575.35,-120.11 597.07,-127.92"/>
<polygon fill="midnightblue" stroke="midnightblue" points="497.66,-89.75 487.07,-90 495.51,-96.41 497.66,-89.75"/>
</g>
<!-- Node12 -->
<g id="node12" class="node">
<title>Node12</title>
<g id="a_node12"><a xlink:href="interface_photon_1_1_realtime_1_1_i_error_info_callback.xhtml" target="_top" xlink:title="Interface for EventCode.ErrorInfo event callback for the Realtime Api.">
<polygon fill="white" stroke="black" points="410,-33 410,-52 502,-52 502,-33 410,-33"/>
<text text-anchor="middle" x="456" y="-40" font-family="Helvetica,sans-Serif" font-size="10.00">IErrorInfoCallback</text>
</a>
</g>
</g>
<!-- Node12&#45;&gt;Node2 -->
<g id="edge12" class="edge">
<title>Node12&#45;&gt;Node2</title>
<path fill="none" stroke="midnightblue" d="M502.3,-55.52C507.01,-57.33 511.66,-59.33 516,-61.5 554.03,-80.51 593.54,-112.01 612.31,-127.82"/>
<polygon fill="midnightblue" stroke="midnightblue" points="503.23,-52.13 492.64,-52.05 500.87,-58.72 503.23,-52.13"/>
</g>
</g>
</svg>
