<?xml version="1.0" encoding="UTF-8" standalone="no"?>
<!DOCTYPE svg PUBLIC "-//W3C//DTD SVG 1.1//EN"
 "http://www.w3.org/Graphics/SVG/1.1/DTD/svg11.dtd">
<!-- Generated by graphviz version 2.47.3 (20210619.1520)
 -->
<!-- Title: Photon.Realtime.MatchMakingCallbacksContainer Pages: 1 -->
<!--zoomable 625 -->
<svg id="main" version="1.1" xmlns="http://www.w3.org/2000/svg" xmlns:xlink="http://www.w3.org/1999/xlink" xml:space="preserve" onload="init(evt)">
<style type="text/css"><![CDATA[
.edge:hover path { stroke: red; }
.edge:hover polygon { stroke: red; fill: red; }
]]></style>
<script type="text/javascript"><![CDATA[
var edges = document.getElementsByTagName('g');
if (edges && edges.length) {
  for (var i=0;i<edges.length;i++) {
    if (edges[i].id.substr(0,4)=='edge') {
      edges[i].setAttribute('class','edge');
    }
  }
}
]]></script>
        <defs>
                <circle id="rim" cx="0" cy="0" r="7"/>
                <circle id="rim2" cx="0" cy="0" r="3.5"/>
                <g id="zoomPlus">
                        <use xlink:href="#rim" fill="#404040">
                                <set attributeName="fill" to="#808080" begin="zoomplus.mouseover" end="zoomplus.mouseout"/>
                        </use>
                        <path d="M-4,0h8M0,-4v8" fill="none" stroke="white" stroke-width="1.5" pointer-events="none"/>
                </g>
                <g id="zoomMin">
                        <use xlink:href="#rim" fill="#404040">
                                <set attributeName="fill" to="#808080" begin="zoomminus.mouseover" end="zoomminus.mouseout"/>
                        </use>
                        <path d="M-4,0h8" fill="none" stroke="white" stroke-width="1.5" pointer-events="none"/>
                </g>
                <g id="dirArrow">
                        <path fill="none" stroke="white" stroke-width="1.5" d="M0,-3.0v7 M-2.5,-0.5L0,-3.0L2.5,-0.5"/>
                </g>
               <g id="resetDef">
                       <use xlink:href="#rim2" fill="#404040">
                               <set attributeName="fill" to="#808080" begin="reset.mouseover" end="reset.mouseout"/>
                       </use>
               </g>
        </defs>

<script type="text/javascript">
var viewWidth = 1276;
var viewHeight = 625;
var sectionId = 'dynsection-1';
</script>
<script xlink:href="svgpan.js"/>
<svg id="graph" class="graph">
<g id="viewport">
<title>Photon.Realtime.MatchMakingCallbacksContainer</title>
<polygon fill="white" stroke="transparent" points="-4,4 -4,-621 1272,-621 1272,4 -4,4"/>
<!-- Node1 -->
<g id="node1" class="node">
<title>Node1</title>
<g id="a_node1"><a xlink:title="Container type for callbacks defined by IMatchmakingCallbacks.">
<polygon fill="#bfbfbf" stroke="black" points="462.5,-411 462.5,-441 612.5,-441 612.5,-411 462.5,-411"/>
<text text-anchor="start" x="470.5" y="-429" font-family="Helvetica,sans-Serif" font-size="10.00">Photon.Realtime.MatchMaking</text>
<text text-anchor="middle" x="537.5" y="-418" font-family="Helvetica,sans-Serif" font-size="10.00">CallbacksContainer</text>
</a>
</g>
</g>
<!-- Node4 -->
<g id="node4" class="node">
<title>Node4</title>
<g id="a_node4"><a xlink:href="class_photon_1_1_realtime_1_1_load_balancing_client.xhtml" target="_top" xlink:title="This class implements the Photon LoadBalancing workflow by using a LoadBalancingPeer.">
<polygon fill="white" stroke="black" points="783,-319 783,-349 938,-349 938,-319 783,-319"/>
<text text-anchor="start" x="791" y="-337" font-family="Helvetica,sans-Serif" font-size="10.00">Photon.Realtime.LoadBalancing</text>
<text text-anchor="middle" x="860.5" y="-326" font-family="Helvetica,sans-Serif" font-size="10.00">Client</text>
</a>
</g>
</g>
<!-- Node1&#45;&gt;Node4 -->
<g id="edge35" class="edge">
<title>Node1&#45;&gt;Node4</title>
<path fill="none" stroke="#9a32cd" stroke-dasharray="5,2" d="M622.73,-428.45C666.47,-427.11 720.01,-421.3 765,-404 796.82,-391.76 827.34,-365.7 844.72,-349.06"/>
<polygon fill="#9a32cd" stroke="#9a32cd" points="622.62,-424.95 612.7,-428.68 622.78,-431.95 622.62,-424.95"/>
<text text-anchor="middle" x="699" y="-430" font-family="Helvetica,sans-Serif" font-size="10.00"> MatchMakingCallbackTargets</text>
</g>
<!-- Node2 -->
<g id="node2" class="node">
<title>Node2</title>
<g id="a_node2"><a xlink:title=" ">
<polygon fill="white" stroke="#bfbfbf" points="190,-435.5 190,-454.5 344,-454.5 344,-435.5 190,-435.5"/>
<text text-anchor="middle" x="267" y="-442.5" font-family="Helvetica,sans-Serif" font-size="10.00">List&lt; IMatchmakingCallbacks &gt;</text>
</a>
</g>
</g>
<!-- Node2&#45;&gt;Node1 -->
<g id="edge1" class="edge">
<title>Node2&#45;&gt;Node1</title>
<path fill="none" stroke="midnightblue" d="M354.38,-438.89C389.19,-436.42 428.94,-433.61 462.4,-431.24"/>
<polygon fill="midnightblue" stroke="midnightblue" points="353.95,-435.41 344.22,-439.61 354.45,-442.39 353.95,-435.41"/>
</g>
<!-- Node3 -->
<g id="node3" class="node">
<title>Node3</title>
<g id="a_node3"><a xlink:href="interface_photon_1_1_realtime_1_1_i_matchmaking_callbacks.xhtml" target="_top" xlink:title="Collection of &quot;organizational&quot; callbacks for the Realtime Api to cover Matchmaking.">
<polygon fill="white" stroke="black" points="207,-397.5 207,-416.5 327,-416.5 327,-397.5 207,-397.5"/>
<text text-anchor="middle" x="267" y="-404.5" font-family="Helvetica,sans-Serif" font-size="10.00">IMatchmakingCallbacks</text>
</a>
</g>
</g>
<!-- Node3&#45;&gt;Node1 -->
<g id="edge2" class="edge">
<title>Node3&#45;&gt;Node1</title>
<path fill="none" stroke="midnightblue" d="M337.27,-411.9C375.5,-414.61 423,-417.97 462.03,-420.73"/>
<polygon fill="midnightblue" stroke="midnightblue" points="337.48,-408.41 327.26,-411.19 336.98,-415.39 337.48,-408.41"/>
</g>
<!-- Node4&#45;&gt;Node1 -->
<g id="edge3" class="edge">
<title>Node4&#45;&gt;Node1</title>
<path fill="none" stroke="#9a32cd" stroke-dasharray="5,2" d="M815.16,-352.9C799.52,-359.02 781.68,-365.41 765,-370 707.58,-385.78 689.97,-375.67 633,-393 624.62,-395.55 623.17,-397.86 615,-401 606.13,-404.41 596.58,-407.77 587.33,-410.87"/>
<polygon fill="#9a32cd" stroke="#9a32cd" points="816.59,-356.1 824.58,-349.14 814,-349.6 816.59,-356.1"/>
<text text-anchor="middle" x="699" y="-396" font-family="Helvetica,sans-Serif" font-size="10.00"> client</text>
</g>
<!-- Node6 -->
<g id="node6" class="node">
<title>Node6</title>
<g id="a_node6"><a xlink:title=" ">
<polygon fill="white" stroke="#bfbfbf" points="1098.5,-417 1098.5,-447 1265.5,-447 1265.5,-417 1098.5,-417"/>
<text text-anchor="start" x="1106.5" y="-435" font-family="Helvetica,sans-Serif" font-size="10.00">Photon.Realtime.InRoomCallbacks</text>
<text text-anchor="middle" x="1182" y="-424" font-family="Helvetica,sans-Serif" font-size="10.00">Container</text>
</a>
</g>
</g>
<!-- Node4&#45;&gt;Node6 -->
<g id="edge8" class="edge">
<title>Node4&#45;&gt;Node6</title>
<path fill="none" stroke="#9a32cd" stroke-dasharray="5,2" d="M887.26,-355.68C905.35,-369.72 930.73,-387.17 956,-397 981.51,-406.93 1045.28,-416.36 1098.44,-422.92"/>
<polygon fill="#9a32cd" stroke="#9a32cd" points="889,-352.59 879,-349.11 884.64,-358.07 889,-352.59"/>
<text text-anchor="middle" x="1017" y="-422" font-family="Helvetica,sans-Serif" font-size="10.00"> client</text>
</g>
<!-- Node10 -->
<g id="node10" class="node">
<title>Node10</title>
<g id="a_node10"><a xlink:title=" ">
<polygon fill="white" stroke="#bfbfbf" points="1118,-525 1118,-555 1246,-555 1246,-525 1118,-525"/>
<text text-anchor="start" x="1126" y="-543" font-family="Helvetica,sans-Serif" font-size="10.00">Photon.Realtime.ErrorInfo</text>
<text text-anchor="middle" x="1182" y="-532" font-family="Helvetica,sans-Serif" font-size="10.00">CallbacksContainer</text>
</a>
</g>
</g>
<!-- Node4&#45;&gt;Node10 -->
<g id="edge14" class="edge">
<title>Node4&#45;&gt;Node10</title>
<path fill="none" stroke="#9a32cd" stroke-dasharray="5,2" d="M884.95,-356.55C901.9,-374.05 924.17,-399.69 938,-426 951.75,-452.16 934.53,-469.69 956,-490 979.04,-511.79 1059.8,-525.77 1117.97,-533.25"/>
<polygon fill="#9a32cd" stroke="#9a32cd" points="887.1,-353.75 877.58,-349.11 882.13,-358.68 887.1,-353.75"/>
<text text-anchor="middle" x="1017" y="-530" font-family="Helvetica,sans-Serif" font-size="10.00"> client</text>
</g>
<!-- Node13 -->
<g id="node13" class="node">
<title>Node13</title>
<g id="a_node13"><a xlink:href="class_photon_1_1_realtime_1_1_connection_callbacks_container.xhtml" target="_top" xlink:title="Container type for callbacks defined by IConnectionCallbacks.">
<polygon fill="white" stroke="black" points="1112,-150 1112,-180 1252,-180 1252,-150 1112,-150"/>
<text text-anchor="start" x="1120" y="-168" font-family="Helvetica,sans-Serif" font-size="10.00">Photon.Realtime.Connection</text>
<text text-anchor="middle" x="1182" y="-157" font-family="Helvetica,sans-Serif" font-size="10.00">CallbacksContainer</text>
</a>
</g>
</g>
<!-- Node4&#45;&gt;Node13 -->
<g id="edge18" class="edge">
<title>Node4&#45;&gt;Node13</title>
<path fill="none" stroke="#9a32cd" stroke-dasharray="5,2" d="M894.67,-313.84C912.34,-303.87 934.76,-292.43 956,-285 1008.17,-266.76 1028.79,-286.14 1078,-261 1117.18,-240.99 1152.19,-201.66 1169.52,-180.07"/>
<polygon fill="#9a32cd" stroke="#9a32cd" points="892.82,-310.86 885.9,-318.88 896.31,-316.93 892.82,-310.86"/>
<text text-anchor="middle" x="1017" y="-288" font-family="Helvetica,sans-Serif" font-size="10.00"> client</text>
</g>
<!-- Node16 -->
<g id="node16" class="node">
<title>Node16</title>
<g id="a_node16"><a xlink:title=" ">
<polygon fill="white" stroke="#bfbfbf" points="1101.5,-50 1101.5,-80 1262.5,-80 1262.5,-50 1101.5,-50"/>
<text text-anchor="start" x="1109.5" y="-68" font-family="Helvetica,sans-Serif" font-size="10.00">Photon.Realtime.LobbyCallbacks</text>
<text text-anchor="middle" x="1182" y="-57" font-family="Helvetica,sans-Serif" font-size="10.00">Container</text>
</a>
</g>
</g>
<!-- Node4&#45;&gt;Node16 -->
<g id="edge22" class="edge">
<title>Node4&#45;&gt;Node16</title>
<path fill="none" stroke="#9a32cd" stroke-dasharray="5,2" d="M899.01,-313.29C913.36,-303.51 928.54,-290.54 938,-275 961.25,-236.8 925.74,-208.93 956,-176 994.01,-134.64 1027.57,-167.74 1078,-143 1112.03,-126.3 1146.02,-97.66 1165.19,-80.12"/>
<polygon fill="#9a32cd" stroke="#9a32cd" points="896.73,-310.59 890.23,-318.96 900.53,-316.47 896.73,-310.59"/>
<text text-anchor="middle" x="1017" y="-179" font-family="Helvetica,sans-Serif" font-size="10.00"> client</text>
</g>
<!-- Node25 -->
<g id="node25" class="node">
<title>Node25</title>
<g id="a_node25"><a xlink:title=" ">
<polygon fill="white" stroke="#bfbfbf" points="1096,-268 1096,-298 1268,-298 1268,-268 1096,-268"/>
<text text-anchor="start" x="1104" y="-286" font-family="Helvetica,sans-Serif" font-size="10.00">Photon.Realtime.WebRpcCallbacks</text>
<text text-anchor="middle" x="1182" y="-275" font-family="Helvetica,sans-Serif" font-size="10.00">Container</text>
</a>
</g>
</g>
<!-- Node4&#45;&gt;Node25 -->
<g id="edge34" class="edge">
<title>Node4&#45;&gt;Node25</title>
<path fill="none" stroke="#9a32cd" stroke-dasharray="5,2" d="M948.29,-339.78C988.24,-340.46 1035.99,-338.46 1078,-329 1105.51,-322.8 1134.66,-309.02 1154.9,-298.15"/>
<polygon fill="#9a32cd" stroke="#9a32cd" points="948.12,-336.27 938.04,-339.54 947.96,-343.27 948.12,-336.27"/>
<text text-anchor="middle" x="1017" y="-343" font-family="Helvetica,sans-Serif" font-size="10.00"> client</text>
</g>
<!-- Node5 -->
<g id="node5" class="node">
<title>Node5</title>
<g id="a_node5"><a xlink:title=" ">
<polygon fill="white" stroke="#bfbfbf" points="485.5,-372.5 485.5,-391.5 589.5,-391.5 589.5,-372.5 485.5,-372.5"/>
<text text-anchor="middle" x="537.5" y="-379.5" font-family="Helvetica,sans-Serif" font-size="10.00">IPhotonPeerListener</text>
</a>
</g>
</g>
<!-- Node5&#45;&gt;Node4 -->
<g id="edge4" class="edge">
<title>Node5&#45;&gt;Node4</title>
<path fill="none" stroke="midnightblue" d="M599.81,-372.83C651.83,-365.05 726.72,-353.85 782.73,-345.48"/>
<polygon fill="midnightblue" stroke="midnightblue" points="599.09,-369.4 589.72,-374.34 600.13,-376.32 599.09,-369.4"/>
</g>
<!-- Node6&#45;&gt;Node4 -->
<g id="edge5" class="edge">
<title>Node6&#45;&gt;Node4</title>
<path fill="none" stroke="#9a32cd" stroke-dasharray="5,2" d="M1141.74,-412.42C1122.81,-403.51 1099.57,-393.34 1078,-386 1063.61,-381.11 985.21,-362.6 926.87,-349.06"/>
<polygon fill="#9a32cd" stroke="#9a32cd" points="1140.41,-415.66 1150.94,-416.81 1143.43,-409.34 1140.41,-415.66"/>
<text text-anchor="middle" x="1017" y="-389" font-family="Helvetica,sans-Serif" font-size="10.00"> InRoomCallbackTargets</text>
</g>
<!-- Node7 -->
<g id="node7" class="node">
<title>Node7</title>
<g id="a_node7"><a xlink:title=" ">
<polygon fill="white" stroke="#bfbfbf" points="796.5,-521.5 796.5,-540.5 924.5,-540.5 924.5,-521.5 796.5,-521.5"/>
<text text-anchor="middle" x="860.5" y="-528.5" font-family="Helvetica,sans-Serif" font-size="10.00">List&lt; IInRoomCallbacks &gt;</text>
</a>
</g>
</g>
<!-- Node7&#45;&gt;Node6 -->
<g id="edge6" class="edge">
<title>Node7&#45;&gt;Node6</title>
<path fill="none" stroke="midnightblue" d="M935.08,-540.84C978.21,-543.67 1032.91,-542.05 1078,-524 1118.07,-507.96 1152.71,-469 1169.75,-447.27"/>
<polygon fill="midnightblue" stroke="midnightblue" points="935.17,-537.34 924.94,-540.08 934.65,-544.32 935.17,-537.34"/>
</g>
<!-- Node8 -->
<g id="node8" class="node">
<title>Node8</title>
<g id="a_node8"><a xlink:href="interface_photon_1_1_realtime_1_1_i_in_room_callbacks.xhtml" target="_top" xlink:title="Collection of &quot;in room&quot; callbacks for the Realtime Api to cover: Players entering or leaving,...">
<polygon fill="white" stroke="black" points="813,-435.5 813,-454.5 908,-454.5 908,-435.5 813,-435.5"/>
<text text-anchor="middle" x="860.5" y="-442.5" font-family="Helvetica,sans-Serif" font-size="10.00">IInRoomCallbacks</text>
</a>
</g>
</g>
<!-- Node8&#45;&gt;Node6 -->
<g id="edge7" class="edge">
<title>Node8&#45;&gt;Node6</title>
<path fill="none" stroke="midnightblue" d="M918.3,-442.69C968.35,-440.65 1041.88,-437.66 1098.43,-435.36"/>
<polygon fill="midnightblue" stroke="midnightblue" points="918.15,-439.19 908.3,-443.1 918.43,-446.19 918.15,-439.19"/>
</g>
<!-- Node9 -->
<g id="node9" class="node">
<title>Node9</title>
<g id="a_node9"><a xlink:href="struct_photon_1_1_realtime_1_1_photon_port_definition.xhtml" target="_top" xlink:title="Container for port definitions.">
<polygon fill="white" stroke="black" points="467.5,-294 467.5,-324 607.5,-324 607.5,-294 467.5,-294"/>
<text text-anchor="start" x="475.5" y="-312" font-family="Helvetica,sans-Serif" font-size="10.00">Photon.Realtime.PhotonPort</text>
<text text-anchor="middle" x="537.5" y="-301" font-family="Helvetica,sans-Serif" font-size="10.00">Definition</text>
</a>
</g>
</g>
<!-- Node9&#45;&gt;Node4 -->
<g id="edge9" class="edge">
<title>Node9&#45;&gt;Node4</title>
<path fill="none" stroke="#9a32cd" stroke-dasharray="5,2" d="M617.94,-315.19C668.26,-319.11 732.99,-324.15 782.78,-328.02"/>
<polygon fill="#9a32cd" stroke="#9a32cd" points="618,-311.68 607.76,-314.39 617.46,-318.66 618,-311.68"/>
<text text-anchor="middle" x="699" y="-330" font-family="Helvetica,sans-Serif" font-size="10.00"> ServerPortOverrides</text>
</g>
<!-- Node9&#45;&gt;Node9 -->
<g id="edge10" class="edge">
<title>Node9&#45;&gt;Node9</title>
<path fill="none" stroke="#9a32cd" stroke-dasharray="5,2" d="M513.69,-334.46C516.64,-339.18 524.58,-342.5 537.5,-342.5 558.7,-342.5 566.48,-333.56 560.85,-324.16"/>
<polygon fill="#9a32cd" stroke="#9a32cd" points="517.2,-334.3 514.15,-324.16 510.21,-333.99 517.2,-334.3"/>
<text text-anchor="middle" x="537.5" y="-345.5" font-family="Helvetica,sans-Serif" font-size="10.00"> AlternativeUdpPorts</text>
</g>
<!-- Node10&#45;&gt;Node4 -->
<g id="edge11" class="edge">
<title>Node10&#45;&gt;Node4</title>
<path fill="none" stroke="#9a32cd" stroke-dasharray="5,2" d="M1149.66,-519.42C1129.66,-506.8 1102.9,-490.85 1078,-479 1025.81,-454.17 1004.23,-465.84 956,-434 920.32,-410.44 888.33,-370.94 872.32,-349.3"/>
<polygon fill="#9a32cd" stroke="#9a32cd" points="1148.03,-522.53 1158.34,-524.96 1151.79,-516.63 1148.03,-522.53"/>
<text text-anchor="middle" x="1017" y="-482" font-family="Helvetica,sans-Serif" font-size="10.00"> ErrorInfoCallbackTargets</text>
</g>
<!-- Node11 -->
<g id="node11" class="node">
<title>Node11</title>
<g id="a_node11"><a xlink:title=" ">
<polygon fill="white" stroke="#bfbfbf" points="797.5,-597.5 797.5,-616.5 923.5,-616.5 923.5,-597.5 797.5,-597.5"/>
<text text-anchor="middle" x="860.5" y="-604.5" font-family="Helvetica,sans-Serif" font-size="10.00">List&lt; IErrorInfoCallback &gt;</text>
</a>
</g>
</g>
<!-- Node11&#45;&gt;Node10 -->
<g id="edge12" class="edge">
<title>Node11&#45;&gt;Node10</title>
<path fill="none" stroke="midnightblue" d="M933.45,-597.39C975.79,-591.15 1030.24,-582.11 1078,-571 1097.01,-566.58 1117.66,-560.6 1135.45,-555.08"/>
<polygon fill="midnightblue" stroke="midnightblue" points="932.9,-593.93 923.51,-598.83 933.9,-600.86 932.9,-593.93"/>
</g>
<!-- Node12 -->
<g id="node12" class="node">
<title>Node12</title>
<g id="a_node12"><a xlink:href="interface_photon_1_1_realtime_1_1_i_error_info_callback.xhtml" target="_top" xlink:title="Interface for EventCode.ErrorInfo event callback for the Realtime Api.">
<polygon fill="white" stroke="black" points="814.5,-559.5 814.5,-578.5 906.5,-578.5 906.5,-559.5 814.5,-559.5"/>
<text text-anchor="middle" x="860.5" y="-566.5" font-family="Helvetica,sans-Serif" font-size="10.00">IErrorInfoCallback</text>
</a>
</g>
</g>
<!-- Node12&#45;&gt;Node10 -->
<g id="edge13" class="edge">
<title>Node12&#45;&gt;Node10</title>
<path fill="none" stroke="midnightblue" d="M916.89,-565.23C960.66,-562.11 1023.29,-557.33 1078,-552 1090.9,-550.74 1104.69,-549.24 1117.85,-547.74"/>
<polygon fill="midnightblue" stroke="midnightblue" points="916.47,-561.75 906.74,-565.95 916.96,-568.73 916.47,-561.75"/>
</g>
<!-- Node13&#45;&gt;Node4 -->
<g id="edge15" class="edge">
<title>Node13&#45;&gt;Node4</title>
<path fill="none" stroke="#9a32cd" stroke-dasharray="5,2" d="M1101.91,-182.66C1055.99,-195.74 998.92,-217.1 956,-250 945.13,-258.33 947.52,-265.16 938,-275 921.79,-291.75 900.63,-307.71 884.67,-318.79"/>
<polygon fill="#9a32cd" stroke="#9a32cd" points="1103.13,-185.95 1111.83,-179.91 1101.26,-179.2 1103.13,-185.95"/>
<text text-anchor="middle" x="1017" y="-253" font-family="Helvetica,sans-Serif" font-size="10.00"> ConnectionCallbackTargets</text>
</g>
<!-- Node14 -->
<g id="node14" class="node">
<title>Node14</title>
<g id="a_node14"><a xlink:title=" ">
<polygon fill="white" stroke="#bfbfbf" points="788.5,-129.5 788.5,-148.5 932.5,-148.5 932.5,-129.5 788.5,-129.5"/>
<text text-anchor="middle" x="860.5" y="-136.5" font-family="Helvetica,sans-Serif" font-size="10.00">List&lt; IConnectionCallbacks &gt;</text>
</a>
</g>
</g>
<!-- Node14&#45;&gt;Node13 -->
<g id="edge16" class="edge">
<title>Node14&#45;&gt;Node13</title>
<path fill="none" stroke="midnightblue" d="M943,-138.75C983.66,-139.36 1033.54,-141.21 1078,-146 1089.03,-147.19 1100.65,-148.89 1111.95,-150.79"/>
<polygon fill="midnightblue" stroke="midnightblue" points="942.91,-135.25 932.87,-138.62 942.82,-142.25 942.91,-135.25"/>
</g>
<!-- Node15 -->
<g id="node15" class="node">
<title>Node15</title>
<g id="a_node15"><a xlink:href="interface_photon_1_1_realtime_1_1_i_connection_callbacks.xhtml" target="_top" xlink:title="Collection of &quot;organizational&quot; callbacks for the Realtime Api to cover: Connection and Regions.">
<polygon fill="white" stroke="black" points="805.5,-91.5 805.5,-110.5 915.5,-110.5 915.5,-91.5 805.5,-91.5"/>
<text text-anchor="middle" x="860.5" y="-98.5" font-family="Helvetica,sans-Serif" font-size="10.00">IConnectionCallbacks</text>
</a>
</g>
</g>
<!-- Node15&#45;&gt;Node13 -->
<g id="edge17" class="edge">
<title>Node15&#45;&gt;Node13</title>
<path fill="none" stroke="midnightblue" d="M925.76,-109.43C969.02,-115.58 1027.23,-124.79 1078,-136 1095.78,-139.93 1115.04,-145.1 1132.04,-149.98"/>
<polygon fill="midnightblue" stroke="midnightblue" points="926.04,-105.93 915.65,-108.01 925.07,-112.86 926.04,-105.93"/>
</g>
<!-- Node16&#45;&gt;Node4 -->
<g id="edge19" class="edge">
<title>Node16&#45;&gt;Node4</title>
<path fill="none" stroke="#9a32cd" stroke-dasharray="5,2" d="M1091.33,-69.02C1044.06,-76.04 989.16,-92.89 956,-132 914.57,-180.86 969.8,-219.39 938,-275 927.17,-293.93 907.62,-308.85 890.99,-318.95"/>
<polygon fill="#9a32cd" stroke="#9a32cd" points="1091.86,-72.48 1101.29,-67.66 1090.91,-65.54 1091.86,-72.48"/>
<text text-anchor="middle" x="1017" y="-135" font-family="Helvetica,sans-Serif" font-size="10.00"> LobbyCallbackTargets</text>
</g>
<!-- Node17 -->
<g id="node17" class="node">
<title>Node17</title>
<g id="a_node17"><a xlink:title=" ">
<polygon fill="white" stroke="#bfbfbf" points="799.5,-38.5 799.5,-57.5 921.5,-57.5 921.5,-38.5 799.5,-38.5"/>
<text text-anchor="middle" x="860.5" y="-45.5" font-family="Helvetica,sans-Serif" font-size="10.00">List&lt; ILobbyCallbacks &gt;</text>
</a>
</g>
</g>
<!-- Node17&#45;&gt;Node16 -->
<g id="edge20" class="edge">
<title>Node17&#45;&gt;Node16</title>
<path fill="none" stroke="midnightblue" d="M931.69,-51.73C981.75,-54.4 1049.16,-57.98 1101.26,-60.76"/>
<polygon fill="midnightblue" stroke="midnightblue" points="931.77,-48.23 921.6,-51.2 931.4,-55.22 931.77,-48.23"/>
</g>
<!-- Node18 -->
<g id="node18" class="node">
<title>Node18</title>
<g id="a_node18"><a xlink:href="interface_photon_1_1_realtime_1_1_i_lobby_callbacks.xhtml" target="_top" xlink:title="Collection of &quot;organizational&quot; callbacks for the Realtime Api to cover the Lobby.">
<polygon fill="white" stroke="black" points="816.5,-0.5 816.5,-19.5 904.5,-19.5 904.5,-0.5 816.5,-0.5"/>
<text text-anchor="middle" x="860.5" y="-7.5" font-family="Helvetica,sans-Serif" font-size="10.00">ILobbyCallbacks</text>
</a>
</g>
</g>
<!-- Node18&#45;&gt;Node16 -->
<g id="edge21" class="edge">
<title>Node18&#45;&gt;Node16</title>
<path fill="none" stroke="midnightblue" d="M914.71,-19.16C965.59,-27.92 1042.96,-41.24 1101.21,-51.26"/>
<polygon fill="midnightblue" stroke="midnightblue" points="915.04,-15.66 904.59,-17.42 913.85,-22.56 915.04,-15.66"/>
</g>
<!-- Node19 -->
<g id="node19" class="node">
<title>Node19</title>
<g id="a_node19"><a xlink:href="class_photon_1_1_realtime_1_1_region_handler.xhtml" target="_top" xlink:title="Provides methods to work with Photon&#39;s regions (Photon Cloud) and can be use to find the one with bes...">
<polygon fill="white" stroke="black" points="460,-255.5 460,-274.5 615,-274.5 615,-255.5 460,-255.5"/>
<text text-anchor="middle" x="537.5" y="-262.5" font-family="Helvetica,sans-Serif" font-size="10.00">Photon.Realtime.RegionHandler</text>
</a>
</g>
</g>
<!-- Node19&#45;&gt;Node4 -->
<g id="edge23" class="edge">
<title>Node19&#45;&gt;Node4</title>
<path fill="none" stroke="#9a32cd" stroke-dasharray="5,2" d="M625.18,-275.75C667.66,-281.88 719.36,-290.63 765,-302 783.32,-306.57 803.17,-313.04 819.93,-318.98"/>
<polygon fill="#9a32cd" stroke="#9a32cd" points="625.55,-272.26 615.15,-274.32 624.56,-279.19 625.55,-272.26"/>
<text text-anchor="middle" x="699" y="-305" font-family="Helvetica,sans-Serif" font-size="10.00"> RegionHandler</text>
</g>
<!-- Node20 -->
<g id="node20" class="node">
<title>Node20</title>
<g id="a_node20"><a xlink:href="class_photon_1_1_realtime_1_1_region.xhtml" target="_top" xlink:title=" ">
<polygon fill="white" stroke="black" points="206,-264.5 206,-283.5 328,-283.5 328,-264.5 206,-264.5"/>
<text text-anchor="middle" x="267" y="-271.5" font-family="Helvetica,sans-Serif" font-size="10.00">Photon.Realtime.Region</text>
</a>
</g>
</g>
<!-- Node20&#45;&gt;Node19 -->
<g id="edge24" class="edge">
<title>Node20&#45;&gt;Node19</title>
<path fill="none" stroke="#9a32cd" stroke-dasharray="5,2" d="M338.51,-271.64C375.73,-270.39 421.45,-268.86 459.58,-267.58"/>
<polygon fill="#9a32cd" stroke="#9a32cd" points="338.13,-268.15 328.26,-271.98 338.37,-275.14 338.13,-268.15"/>
<text text-anchor="middle" x="402" y="-274" font-family="Helvetica,sans-Serif" font-size="10.00"> bestRegionCache</text>
</g>
<!-- Node21 -->
<g id="node21" class="node">
<title>Node21</title>
<g id="a_node21"><a xlink:href="class_photon_1_1_realtime_1_1_enter_room_params.xhtml" target="_top" xlink:title="Parameters for creating rooms.">
<polygon fill="white" stroke="black" points="467.5,-198 467.5,-228 607.5,-228 607.5,-198 467.5,-198"/>
<text text-anchor="start" x="475.5" y="-216" font-family="Helvetica,sans-Serif" font-size="10.00">Photon.Realtime.EnterRoom</text>
<text text-anchor="middle" x="537.5" y="-205" font-family="Helvetica,sans-Serif" font-size="10.00">Params</text>
</a>
</g>
</g>
<!-- Node21&#45;&gt;Node4 -->
<g id="edge25" class="edge">
<title>Node21&#45;&gt;Node4</title>
<path fill="none" stroke="#9a32cd" stroke-dasharray="5,2" d="M617.54,-222C662.3,-229.14 718.48,-241.62 765,-263 773.25,-266.79 815.27,-299.28 840.41,-318.97"/>
<polygon fill="#9a32cd" stroke="#9a32cd" points="618,-218.53 607.58,-220.47 616.93,-225.45 618,-218.53"/>
<text text-anchor="middle" x="699" y="-266" font-family="Helvetica,sans-Serif" font-size="10.00"> enterRoomParamsCache</text>
</g>
<!-- Node22 -->
<g id="node22" class="node">
<title>Node22</title>
<g id="a_node22"><a xlink:href="class_photon_1_1_realtime_1_1_room_options.xhtml" target="_top" xlink:title="Wraps up common room properties needed when you create rooms.">
<polygon fill="white" stroke="black" points="191.5,-226.5 191.5,-245.5 342.5,-245.5 342.5,-226.5 191.5,-226.5"/>
<text text-anchor="middle" x="267" y="-233.5" font-family="Helvetica,sans-Serif" font-size="10.00">Photon.Realtime.RoomOptions</text>
</a>
</g>
</g>
<!-- Node22&#45;&gt;Node21 -->
<g id="edge26" class="edge">
<title>Node22&#45;&gt;Node21</title>
<path fill="none" stroke="#9a32cd" stroke-dasharray="5,2" d="M353.01,-228.72C389.8,-225.57 432.33,-221.92 467.17,-218.94"/>
<polygon fill="#9a32cd" stroke="#9a32cd" points="352.46,-225.25 342.79,-229.59 353.05,-232.23 352.46,-225.25"/>
<text text-anchor="middle" x="402" y="-231" font-family="Helvetica,sans-Serif" font-size="10.00"> RoomOptions</text>
</g>
<!-- Node23 -->
<g id="node23" class="node">
<title>Node23</title>
<g id="a_node23"><a xlink:title=" ">
<polygon fill="white" stroke="#bfbfbf" points="0,-203.5 0,-222.5 47,-222.5 47,-203.5 0,-203.5"/>
<text text-anchor="middle" x="23.5" y="-210.5" font-family="Helvetica,sans-Serif" font-size="10.00">Photon</text>
</a>
</g>
</g>
<!-- Node23&#45;&gt;Node21 -->
<g id="edge30" class="edge">
<title>Node23&#45;&gt;Node21</title>
<path fill="none" stroke="#9a32cd" stroke-dasharray="5,2" d="M57.35,-211.2C90.74,-209.47 143.95,-206.97 190,-206 258.43,-204.55 275.57,-204.76 344,-206 384.96,-206.74 430.8,-208.38 467.47,-209.88"/>
<polygon fill="#9a32cd" stroke="#9a32cd" points="57.05,-207.71 47.25,-211.73 57.42,-214.7 57.05,-207.71"/>
<text text-anchor="middle" x="267" y="-209" font-family="Helvetica,sans-Serif" font-size="10.00"> PlayerProperties</text>
</g>
<!-- Node23&#45;&gt;Node22 -->
<g id="edge27" class="edge">
<title>Node23&#45;&gt;Node22</title>
<path fill="none" stroke="#9a32cd" stroke-dasharray="5,2" d="M57.6,-216.15C91.89,-219.42 146.62,-224.63 191.4,-228.9"/>
<polygon fill="#9a32cd" stroke="#9a32cd" points="57.51,-212.63 47.22,-215.16 56.84,-219.6 57.51,-212.63"/>
<text text-anchor="middle" x="118.5" y="-230" font-family="Helvetica,sans-Serif" font-size="10.00"> CustomRoomProperties</text>
</g>
<!-- Node24 -->
<g id="node24" class="node">
<title>Node24</title>
<g id="a_node24"><a xlink:href="class_photon_1_1_realtime_1_1_typed_lobby.xhtml" target="_top" xlink:title="Refers to a specific lobby on the server.">
<polygon fill="white" stroke="black" points="195,-112.5 195,-131.5 339,-131.5 339,-112.5 195,-112.5"/>
<text text-anchor="middle" x="267" y="-119.5" font-family="Helvetica,sans-Serif" font-size="10.00">Photon.Realtime.TypedLobby</text>
</a>
</g>
</g>
<!-- Node24&#45;&gt;Node21 -->
<g id="edge28" class="edge">
<title>Node24&#45;&gt;Node21</title>
<path fill="none" stroke="#9a32cd" stroke-dasharray="5,2" d="M316.48,-134.13C351.69,-143.37 400.27,-157.02 442,-172 463.21,-179.61 486.43,-189.66 504.55,-197.91"/>
<polygon fill="#9a32cd" stroke="#9a32cd" points="317.03,-130.65 306.47,-131.52 315.27,-137.43 317.03,-130.65"/>
<text text-anchor="middle" x="402" y="-175" font-family="Helvetica,sans-Serif" font-size="10.00"> Lobby</text>
</g>
<!-- Node24&#45;&gt;Node24 -->
<g id="edge29" class="edge">
<title>Node24&#45;&gt;Node24</title>
<path fill="none" stroke="#9a32cd" stroke-dasharray="5,2" d="M242.07,-141.03C243.43,-146.13 251.74,-150 267,-150 290.82,-150 297.7,-140.57 287.65,-131.76"/>
<polygon fill="#9a32cd" stroke="#9a32cd" points="245.34,-142.3 246.35,-131.76 238.98,-139.37 245.34,-142.3"/>
<text text-anchor="middle" x="267" y="-153" font-family="Helvetica,sans-Serif" font-size="10.00"> Default</text>
</g>
<!-- Node25&#45;&gt;Node4 -->
<g id="edge31" class="edge">
<title>Node25&#45;&gt;Node4</title>
<path fill="none" stroke="#9a32cd" stroke-dasharray="5,2" d="M1085.72,-297.53C1045.65,-303.72 998.54,-311.09 956,-318 950.17,-318.95 944.14,-319.94 938.08,-320.95"/>
<polygon fill="#9a32cd" stroke="#9a32cd" points="1086.4,-300.97 1095.75,-295.99 1085.33,-294.05 1086.4,-300.97"/>
<text text-anchor="middle" x="1017" y="-321" font-family="Helvetica,sans-Serif" font-size="10.00"> WebRpcCallbackTargets</text>
</g>
<!-- Node26 -->
<g id="node26" class="node">
<title>Node26</title>
<g id="a_node26"><a xlink:title=" ">
<polygon fill="white" stroke="#bfbfbf" points="796.5,-246.5 796.5,-265.5 924.5,-265.5 924.5,-246.5 796.5,-246.5"/>
<text text-anchor="middle" x="860.5" y="-253.5" font-family="Helvetica,sans-Serif" font-size="10.00">List&lt; IWebRpcCallback &gt;</text>
</a>
</g>
</g>
<!-- Node26&#45;&gt;Node25 -->
<g id="edge32" class="edge">
<title>Node26&#45;&gt;Node25</title>
<path fill="none" stroke="midnightblue" d="M934.82,-256.06C976.84,-256.76 1030.51,-258.77 1078,-264 1087.31,-265.03 1097.04,-266.41 1106.65,-267.96"/>
<polygon fill="midnightblue" stroke="midnightblue" points="934.73,-252.56 924.68,-255.92 934.62,-259.56 934.73,-252.56"/>
</g>
<!-- Node27 -->
<g id="node27" class="node">
<title>Node27</title>
<g id="a_node27"><a xlink:href="interface_photon_1_1_realtime_1_1_i_web_rpc_callback.xhtml" target="_top" xlink:title="Interface for &quot;WebRpc&quot; callbacks for the Realtime Api.">
<polygon fill="white" stroke="black" points="813.5,-208.5 813.5,-227.5 907.5,-227.5 907.5,-208.5 813.5,-208.5"/>
<text text-anchor="middle" x="860.5" y="-215.5" font-family="Helvetica,sans-Serif" font-size="10.00">IWebRpcCallback</text>
</a>
</g>
</g>
<!-- Node27&#45;&gt;Node25 -->
<g id="edge33" class="edge">
<title>Node27&#45;&gt;Node25</title>
<path fill="none" stroke="midnightblue" d="M917.76,-225.16C961.68,-231.21 1024.07,-240.84 1078,-253 1096.44,-257.16 1116.45,-262.74 1133.89,-267.95"/>
<polygon fill="midnightblue" stroke="midnightblue" points="918.23,-221.69 907.85,-223.81 917.29,-228.63 918.23,-221.69"/>
</g>
</g>
</svg>
        <g id="navigator" transform="translate(0 0)" fill="#404254">
                <rect fill="#f2f5e9" fill-opacity="0.5" stroke="#606060" stroke-width=".5" x="0" y="0" width="60" height="60"/>
                <use id="zoomplus" xlink:href="#zoomPlus" x="17" y="9" onmousedown="handleZoom(evt,'in')"/>
                <use id="zoomminus" xlink:href="#zoomMin" x="42" y="9" onmousedown="handleZoom(evt,'out')"/>
                <use id="reset" xlink:href="#resetDef" x="30" y="36" onmousedown="handleReset()"/>
                <g id="arrowUp" xlink:href="#dirArrow" transform="translate(30 24)" onmousedown="handlePan(0,-1)">
                  <use xlink:href="#rim" fill="#404040">
                        <set attributeName="fill" to="#808080" begin="arrowUp.mouseover" end="arrowUp.mouseout"/>
                  </use>
                  <path fill="none" stroke="white" stroke-width="1.5" d="M0,-3.0v7 M-2.5,-0.5L0,-3.0L2.5,-0.5"/>
                </g>
                <g id="arrowRight" xlink:href="#dirArrow" transform="rotate(90) translate(36 -43)" onmousedown="handlePan(1,0)">
                  <use xlink:href="#rim" fill="#404040">
                        <set attributeName="fill" to="#808080" begin="arrowRight.mouseover" end="arrowRight.mouseout"/>
                  </use>
                  <path fill="none" stroke="white" stroke-width="1.5" d="M0,-3.0v7 M-2.5,-0.5L0,-3.0L2.5,-0.5"/>
                </g>
                <g id="arrowDown" xlink:href="#dirArrow" transform="rotate(180) translate(-30 -48)" onmousedown="handlePan(0,1)">
                  <use xlink:href="#rim" fill="#404040">
                        <set attributeName="fill" to="#808080" begin="arrowDown.mouseover" end="arrowDown.mouseout"/>
                  </use>
                  <path fill="none" stroke="white" stroke-width="1.5" d="M0,-3.0v7 M-2.5,-0.5L0,-3.0L2.5,-0.5"/>
                </g>
                <g id="arrowLeft" xlink:href="#dirArrow" transform="rotate(270) translate(-36 17)" onmousedown="handlePan(-1,0)">
                  <use xlink:href="#rim" fill="#404040">
                        <set attributeName="fill" to="#808080" begin="arrowLeft.mouseover" end="arrowLeft.mouseout"/>
                  </use>
                  <path fill="none" stroke="white" stroke-width="1.5" d="M0,-3.0v7 M-2.5,-0.5L0,-3.0L2.5,-0.5"/>
                </g>
        </g>
        <svg viewBox="0 0 15 15" width="100%" height="30px" preserveAspectRatio="xMaxYMin meet">
         <g id="arrow_out" transform="scale(0.3 0.3)">
          <a xlink:href="class_photon_1_1_realtime_1_1_match_making_callbacks_container__coll__graph_org.svg" target="_base">
           <rect id="button" ry="5" rx="5" y="6" x="6" height="38" width="38"
                fill="#f2f5e9" fill-opacity="0.5" stroke="#606060" stroke-width="1.0"/>
           <path id="arrow"
             d="M 11.500037,31.436501 C 11.940474,20.09759 22.043105,11.32322 32.158766,21.979434 L 37.068811,17.246167 C 37.068811,17.246167 37.088388,32 37.088388,32 L 22.160133,31.978069 C 22.160133,31.978069 26.997745,27.140456 26.997745,27.140456 C 18.528582,18.264221 13.291696,25.230495 11.500037,31.436501 z"
             style="fill:#404040;"/>
          </a>
         </g>
        </svg>
</svg>
