<?xml version="1.0" encoding="UTF-8" standalone="no"?>
<!DOCTYPE svg PUBLIC "-//W3C//DTD SVG 1.1//EN"
 "http://www.w3.org/Graphics/SVG/1.1/DTD/svg11.dtd">
<!-- Generated by graphviz version 2.47.3 (20210619.1520)
 -->
<!-- Title: Photon.Realtime.LoadBalancingClient.ReadoutProperties Pages: 1 -->
<svg width="371pt" height="137pt"
 viewBox="0.00 0.00 371.00 137.00" xmlns="http://www.w3.org/2000/svg" xmlns:xlink="http://www.w3.org/1999/xlink">
<g id="graph0" class="graph" transform="scale(1 1) rotate(0) translate(4 133)">
<title>Photon.Realtime.LoadBalancingClient.ReadoutProperties</title>
<polygon fill="white" stroke="transparent" points="-4,4 -4,-133 367,-133 367,4 -4,4"/>
<!-- Node1 -->
<g id="node1" class="node">
<title>Node1</title>
<g id="a_node1"><a xlink:title="Privately used to read&#45;out properties coming from the server in events and operation responses (which...">
<polygon fill="#bfbfbf" stroke="black" points="0,-49.5 0,-79.5 155,-79.5 155,-49.5 0,-49.5"/>
<text text-anchor="start" x="8" y="-67.5" font-family="Helvetica,sans-Serif" font-size="10.00">Photon.Realtime.LoadBalancing</text>
<text text-anchor="middle" x="77.5" y="-56.5" font-family="Helvetica,sans-Serif" font-size="10.00">Client.ReadoutProperties</text>
</a>
</g>
</g>
<!-- Node2 -->
<g id="node2" class="node">
<title>Node2</title>
<g id="a_node2"><a xlink:href="class_photon_1_1_realtime_1_1_room.xhtml#ab41f8e8ab3cf7c212007684a9410e4b0" target="_top" xlink:title="Tries to find the player with given actorNumber (a.k.a.">
<polygon fill="white" stroke="black" points="209,-98.5 209,-128.5 345,-128.5 345,-98.5 209,-98.5"/>
<text text-anchor="start" x="217" y="-116.5" font-family="Helvetica,sans-Serif" font-size="10.00">Photon.Realtime.Room.Get</text>
<text text-anchor="middle" x="277" y="-105.5" font-family="Helvetica,sans-Serif" font-size="10.00">Player</text>
</a>
</g>
</g>
<!-- Node1&#45;&gt;Node2 -->
<g id="edge1" class="edge">
<title>Node1&#45;&gt;Node2</title>
<path fill="none" stroke="midnightblue" d="M139.1,-79.53C160.14,-84.76 183.92,-90.65 205.68,-96.05"/>
<polygon fill="midnightblue" stroke="midnightblue" points="204.97,-99.48 215.52,-98.49 206.65,-92.69 204.97,-99.48"/>
</g>
<!-- Node3 -->
<g id="node3" class="node">
<title>Node3</title>
<g id="a_node3"><a xlink:href="class_photon_1_1_realtime_1_1_load_balancing_client.xhtml#ae888bd1a45b4de8289f9df88d072d8c8" target="_top" xlink:title="Privately used only to read properties for a distinct actor (which might be the hashtable OR a key&#45;pa...">
<polygon fill="white" stroke="black" points="191,-49.5 191,-79.5 363,-79.5 363,-49.5 191,-49.5"/>
<text text-anchor="start" x="199" y="-67.5" font-family="Helvetica,sans-Serif" font-size="10.00">Photon.Realtime.LoadBalancing</text>
<text text-anchor="middle" x="277" y="-56.5" font-family="Helvetica,sans-Serif" font-size="10.00">Client.ReadoutPropertiesForActorNr</text>
</a>
</g>
</g>
<!-- Node1&#45;&gt;Node3 -->
<g id="edge2" class="edge">
<title>Node1&#45;&gt;Node3</title>
<path fill="none" stroke="midnightblue" d="M155.14,-64.5C163.56,-64.5 172.2,-64.5 180.81,-64.5"/>
<polygon fill="midnightblue" stroke="midnightblue" points="180.88,-68 190.88,-64.5 180.88,-61 180.88,-68"/>
</g>
<!-- Node4 -->
<g id="node4" class="node">
<title>Node4</title>
<g id="a_node4"><a xlink:href="class_photon_1_1_realtime_1_1_room.xhtml#a5e614a00e26aae5f35f0805c4e4bb7a9" target="_top" xlink:title="Updates a player reference in the Players dictionary (no matter if it existed before or not).">
<polygon fill="white" stroke="black" points="205.5,-0.5 205.5,-30.5 348.5,-30.5 348.5,-0.5 205.5,-0.5"/>
<text text-anchor="start" x="213.5" y="-18.5" font-family="Helvetica,sans-Serif" font-size="10.00">Photon.Realtime.Room.Store</text>
<text text-anchor="middle" x="277" y="-7.5" font-family="Helvetica,sans-Serif" font-size="10.00">Player</text>
</a>
</g>
</g>
<!-- Node1&#45;&gt;Node4 -->
<g id="edge3" class="edge">
<title>Node1&#45;&gt;Node4</title>
<path fill="none" stroke="midnightblue" d="M139.1,-49.47C160.14,-44.24 183.92,-38.35 205.68,-32.95"/>
<polygon fill="midnightblue" stroke="midnightblue" points="206.65,-36.31 215.52,-30.51 204.97,-29.52 206.65,-36.31"/>
</g>
</g>
</svg>
