<?xml version="1.0" encoding="UTF-8" standalone="no"?>
<!DOCTYPE svg PUBLIC "-//W3C//DTD SVG 1.1//EN"
 "http://www.w3.org/Graphics/SVG/1.1/DTD/svg11.dtd">
<!-- Generated by graphviz version 2.50.0 (20211204.2007)
 -->
<!-- Title: ModelSync.DoEnable Pages: 1 -->
<!--zoomable 312 -->
<svg id="main" version="1.1" xmlns="http://www.w3.org/2000/svg" xmlns:xlink="http://www.w3.org/1999/xlink" xml:space="preserve" onload="init(evt)">
<style type="text/css"><![CDATA[
.edge:hover path { stroke: red; }
.edge:hover polygon { stroke: red; fill: red; }
]]></style>
<script type="text/javascript"><![CDATA[
var edges = document.getElementsByTagName('g');
if (edges && edges.length) {
  for (var i=0;i<edges.length;i++) {
    if (edges[i].id.substr(0,4)=='edge') {
      edges[i].setAttribute('class','edge');
    }
  }
}
]]></script>
        <defs>
                <circle id="rim" cx="0" cy="0" r="7"/>
                <circle id="rim2" cx="0" cy="0" r="3.5"/>
                <g id="zoomPlus">
                        <use xlink:href="#rim" fill="#404040">
                                <set attributeName="fill" to="#808080" begin="zoomplus.mouseover" end="zoomplus.mouseout"/>
                        </use>
                        <path d="M-4,0h8M0,-4v8" fill="none" stroke="white" stroke-width="1.5" pointer-events="none"/>
                </g>
                <g id="zoomMin">
                        <use xlink:href="#rim" fill="#404040">
                                <set attributeName="fill" to="#808080" begin="zoomminus.mouseover" end="zoomminus.mouseout"/>
                        </use>
                        <path d="M-4,0h8" fill="none" stroke="white" stroke-width="1.5" pointer-events="none"/>
                </g>
                <g id="dirArrow">
                        <path fill="none" stroke="white" stroke-width="1.5" d="M0,-3.0v7 M-2.5,-0.5L0,-3.0L2.5,-0.5"/>
                </g>
               <g id="resetDef">
                       <use xlink:href="#rim2" fill="#404040">
                               <set attributeName="fill" to="#808080" begin="reset.mouseover" end="reset.mouseout"/>
                       </use>
               </g>
        </defs>

<script type="text/javascript">
var viewWidth = 1170;
var viewHeight = 312;
var sectionId = 'dynsection-1';
</script>
<script xlink:href="svgpan.js"/>
<svg id="graph" class="graph">
<g id="viewport">
<title>ModelSync.DoEnable</title>
<polygon fill="white" stroke="transparent" points="-4,4 -4,-307.5 1166,-307.5 1166,4 -4,4"/>
<!-- Node1 -->
<g id="node1" class="node">
<title>Node1</title>
<g id="a_node1"><a xlink:title="This starts all the initialization chain for the player.">
<polygon fill="#bfbfbf" stroke="black" points="0,-199.5 0,-218.5 110,-218.5 110,-199.5 0,-199.5"/>
<text text-anchor="middle" x="55" y="-206.5" font-family="Helvetica,sans-Serif" font-size="10.00">ModelSync.DoEnable</text>
</a>
</g>
</g>
<!-- Node2 -->
<g id="node2" class="node">
<title>Node2</title>
<g id="a_node2"><a xlink:href="class_player_controller.html#a75e94e4fd555e57e55ab4b7e54024dcf" target="_top" xlink:title="Initialize the PlayerController.">
<polygon fill="white" stroke="black" points="157,-237.5 157,-256.5 281,-256.5 281,-237.5 157,-237.5"/>
<text text-anchor="middle" x="219" y="-244.5" font-family="Helvetica,sans-Serif" font-size="10.00">PlayerController.Initialize</text>
</a>
</g>
</g>
<!-- Node1&#45;&gt;Node2 -->
<g id="edge1" class="edge">
<title>Node1&#45;&gt;Node2</title>
<path fill="none" stroke="midnightblue" d="M96.88,-218.59C118.35,-223.63 144.86,-229.84 167.6,-235.18"/>
<polygon fill="midnightblue" stroke="midnightblue" points="166.88,-238.6 177.41,-237.48 168.48,-231.79 166.88,-238.6"/>
</g>
<!-- Node26 -->
<g id="node26" class="node">
<title>Node26</title>
<g id="a_node26"><a xlink:href="class_model_player_mediator.html#abb544efe7192b8e934f60f770d5ac334" target="_top" xlink:title=" ">
<polygon fill="white" stroke="black" points="146,-199.5 146,-218.5 292,-218.5 292,-199.5 146,-199.5"/>
<text text-anchor="middle" x="219" y="-206.5" font-family="Helvetica,sans-Serif" font-size="10.00">ModelPlayerMediator.Initialize</text>
</a>
</g>
</g>
<!-- Node1&#45;&gt;Node26 -->
<g id="edge26" class="edge">
<title>Node1&#45;&gt;Node26</title>
<path fill="none" stroke="midnightblue" d="M110.39,-209C118.59,-209 127.19,-209 135.81,-209"/>
<polygon fill="midnightblue" stroke="midnightblue" points="135.91,-212.5 145.91,-209 135.91,-205.5 135.91,-212.5"/>
</g>
<!-- Node27 -->
<g id="node27" class="node">
<title>Node27</title>
<g id="a_node27"><a xlink:href="class_player_controller.html#a6be7bc2319b024c6bf66f1b1c96f7ba5" target="_top" xlink:title="Player Model will call this function to parent and sync itself to this GameObject">
<polygon fill="white" stroke="black" points="153,-161.5 153,-180.5 285,-180.5 285,-161.5 153,-161.5"/>
<text text-anchor="middle" x="219" y="-168.5" font-family="Helvetica,sans-Serif" font-size="10.00">PlayerController.SetParent</text>
</a>
</g>
</g>
<!-- Node1&#45;&gt;Node27 -->
<g id="edge27" class="edge">
<title>Node1&#45;&gt;Node27</title>
<path fill="none" stroke="midnightblue" d="M96.88,-199.41C118.35,-194.37 144.86,-188.16 167.6,-182.82"/>
<polygon fill="midnightblue" stroke="midnightblue" points="168.48,-186.21 177.41,-180.52 166.88,-179.4 168.48,-186.21"/>
</g>
<!-- Node3 -->
<g id="node3" class="node">
<title>Node3</title>
<g id="a_node3"><a xlink:href="class_player_stats.html#aa38dc976db5d7536e94655676cb19e1d" target="_top" xlink:title="Returns the AbilityCooldowns of the abilities">
<polygon fill="white" stroke="black" points="328,-275.5 328,-294.5 449,-294.5 449,-275.5 328,-275.5"/>
<text text-anchor="middle" x="388.5" y="-282.5" font-family="Helvetica,sans-Serif" font-size="10.00">PlayerStats.GetAbilities</text>
</a>
</g>
</g>
<!-- Node2&#45;&gt;Node3 -->
<g id="edge2" class="edge">
<title>Node2&#45;&gt;Node3</title>
<path fill="none" stroke="midnightblue" d="M262.27,-256.59C284.57,-261.65 312.12,-267.9 335.7,-273.25"/>
<polygon fill="midnightblue" stroke="midnightblue" points="335.01,-276.68 345.54,-275.48 336.56,-269.85 335.01,-276.68"/>
</g>
<!-- Node4 -->
<g id="node4" class="node">
<title>Node4</title>
<g id="a_node4"><a xlink:href="class_basic_attack.html#ac85eb061d597f5879d31fb8e7a0316d5" target="_top" xlink:title=" ">
<polygon fill="white" stroke="black" points="334.5,-237.5 334.5,-256.5 442.5,-256.5 442.5,-237.5 334.5,-237.5"/>
<text text-anchor="middle" x="388.5" y="-244.5" font-family="Helvetica,sans-Serif" font-size="10.00">BasicAttack.Initialize</text>
</a>
</g>
</g>
<!-- Node2&#45;&gt;Node4 -->
<g id="edge3" class="edge">
<title>Node2&#45;&gt;Node4</title>
<path fill="none" stroke="midnightblue" d="M281.42,-247C295.39,-247 310.26,-247 324.31,-247"/>
<polygon fill="midnightblue" stroke="midnightblue" points="324.37,-250.5 334.37,-247 324.37,-243.5 324.37,-250.5"/>
</g>
<!-- Node6 -->
<g id="node6" class="node">
<title>Node6</title>
<g id="a_node6"><a xlink:href="class_player_stats.html#ae874ab5cbb490cbdcf3f5613b8bc2240" target="_top" xlink:title="Initialize the actual Stats of the Player.">
<polygon fill="white" stroke="black" points="335.5,-158.5 335.5,-177.5 441.5,-177.5 441.5,-158.5 335.5,-158.5"/>
<text text-anchor="middle" x="388.5" y="-165.5" font-family="Helvetica,sans-Serif" font-size="10.00">PlayerStats.Initialize</text>
</a>
</g>
</g>
<!-- Node2&#45;&gt;Node6 -->
<g id="edge5" class="edge">
<title>Node2&#45;&gt;Node6</title>
<path fill="none" stroke="midnightblue" d="M264.88,-237.41C274.03,-234.83 283.46,-231.71 292,-228 319.45,-216.09 348.15,-197.02 366.83,-183.58"/>
<polygon fill="midnightblue" stroke="midnightblue" points="368.91,-186.4 374.91,-177.67 364.78,-180.75 368.91,-186.4"/>
</g>
<!-- Node5 -->
<g id="node5" class="node">
<title>Node5</title>
<g id="a_node5"><a xlink:href="class_target_attack_indicator.html#af2d860ed1933fd56dee2e01a1af9f626" target="_top" xlink:title="Sets the scale of the indicator">
<polygon fill="white" stroke="black" points="493.5,-273 493.5,-303 620.5,-303 620.5,-273 493.5,-273"/>
<text text-anchor="start" x="501.5" y="-291" font-family="Helvetica,sans-Serif" font-size="10.00">TargetAttackIndicator.Set</text>
<text text-anchor="middle" x="557" y="-280" font-family="Helvetica,sans-Serif" font-size="10.00">Scale</text>
</a>
</g>
</g>
<!-- Node4&#45;&gt;Node5 -->
<g id="edge4" class="edge">
<title>Node4&#45;&gt;Node5</title>
<path fill="none" stroke="midnightblue" d="M428.12,-256.51C445.05,-260.68 465.47,-265.71 484.98,-270.51"/>
<polygon fill="midnightblue" stroke="midnightblue" points="484.22,-273.93 494.77,-272.92 485.9,-267.13 484.22,-273.93"/>
</g>
<!-- Node7 -->
<g id="node7" class="node">
<title>Node7</title>
<g id="a_node7"><a xlink:href="class_player_u_i_controller.html#ab6ed746dec17fdf763bc4ec1d713db7f" target="_top" xlink:title="Initializes all the values and colors for this Player.">
<polygon fill="white" stroke="black" points="491.5,-234.5 491.5,-253.5 622.5,-253.5 622.5,-234.5 491.5,-234.5"/>
<text text-anchor="middle" x="557" y="-241.5" font-family="Helvetica,sans-Serif" font-size="10.00">PlayerUIController.Initalize</text>
</a>
</g>
</g>
<!-- Node6&#45;&gt;Node7 -->
<g id="edge6" class="edge">
<title>Node6&#45;&gt;Node7</title>
<path fill="none" stroke="midnightblue" d="M402.78,-177.56C420.68,-190.04 453.87,-211.85 485,-225 490.71,-227.41 496.81,-229.59 502.94,-231.54"/>
<polygon fill="midnightblue" stroke="midnightblue" points="501.97,-234.91 512.56,-234.42 503.98,-228.2 501.97,-234.91"/>
</g>
<!-- Node13 -->
<g id="node13" class="node">
<title>Node13</title>
<g id="a_node13"><a xlink:href="class_player_h_u_d_controller.html#af18de1b3d5444d69cc35c9390692ab72" target="_top" xlink:title=" ">
<polygon fill="white" stroke="black" points="485,-196.5 485,-215.5 629,-215.5 629,-196.5 485,-196.5"/>
<text text-anchor="middle" x="557" y="-203.5" font-family="Helvetica,sans-Serif" font-size="10.00">PlayerHUDController.Initialize</text>
</a>
</g>
</g>
<!-- Node6&#45;&gt;Node13 -->
<g id="edge13" class="edge">
<title>Node6&#45;&gt;Node13</title>
<path fill="none" stroke="midnightblue" d="M431.51,-177.59C453.68,-182.65 481.07,-188.9 504.51,-194.25"/>
<polygon fill="midnightblue" stroke="midnightblue" points="503.76,-197.67 514.29,-196.48 505.32,-190.84 503.76,-197.67"/>
</g>
<!-- Node15 -->
<g id="node15" class="node">
<title>Node15</title>
<g id="a_node15"><a xlink:href="class_effect_manager.html#a5b9a498227bc61493b5246eb1303fc6e" target="_top" xlink:title="This method initializes the EffectManager with the proper HUD Controller to start showing the effects...">
<polygon fill="white" stroke="black" points="498.5,-158.5 498.5,-177.5 615.5,-177.5 615.5,-158.5 498.5,-158.5"/>
<text text-anchor="middle" x="557" y="-165.5" font-family="Helvetica,sans-Serif" font-size="10.00">EffectManager.Initialize</text>
</a>
</g>
</g>
<!-- Node6&#45;&gt;Node15 -->
<g id="edge15" class="edge">
<title>Node6&#45;&gt;Node15</title>
<path fill="none" stroke="midnightblue" d="M441.72,-168C456.51,-168 472.82,-168 488.38,-168"/>
<polygon fill="midnightblue" stroke="midnightblue" points="488.46,-171.5 498.46,-168 488.46,-164.5 488.46,-171.5"/>
</g>
<!-- Node16 -->
<g id="node16" class="node">
<title>Node16</title>
<g id="a_node16"><a xlink:href="class_inventory.html#af5cb79cb50692e3fb6c98df25812dcbc" target="_top" xlink:title=" ">
<polygon fill="white" stroke="black" points="510.5,-120.5 510.5,-139.5 603.5,-139.5 603.5,-120.5 510.5,-120.5"/>
<text text-anchor="middle" x="557" y="-127.5" font-family="Helvetica,sans-Serif" font-size="10.00">Inventory.Initialize</text>
</a>
</g>
</g>
<!-- Node6&#45;&gt;Node16 -->
<g id="edge16" class="edge">
<title>Node6&#45;&gt;Node16</title>
<path fill="none" stroke="midnightblue" d="M431.51,-158.41C453.68,-153.35 481.07,-147.1 504.51,-141.75"/>
<polygon fill="midnightblue" stroke="midnightblue" points="505.32,-145.16 514.29,-139.52 503.76,-138.33 505.32,-145.16"/>
</g>
<!-- Node18 -->
<g id="node18" class="node">
<title>Node18</title>
<g id="a_node18"><a xlink:href="class_player_h_u_d_controller.html#adf30ead91cd36140e32d0ad158fbbae4" target="_top" xlink:title=" ">
<polygon fill="white" stroke="black" points="485,-71 485,-101 629,-101 629,-71 485,-71"/>
<text text-anchor="start" x="493" y="-89" font-family="Helvetica,sans-Serif" font-size="10.00">PlayerHUDController.Initialize</text>
<text text-anchor="middle" x="557" y="-78" font-family="Helvetica,sans-Serif" font-size="10.00">Abilities</text>
</a>
</g>
</g>
<!-- Node6&#45;&gt;Node18 -->
<g id="edge18" class="edge">
<title>Node6&#45;&gt;Node18</title>
<path fill="none" stroke="midnightblue" d="M403.57,-158.38C421.77,-146.22 454.75,-125.18 485,-111 489.61,-108.84 494.47,-106.75 499.39,-104.77"/>
<polygon fill="midnightblue" stroke="midnightblue" points="500.81,-107.98 508.87,-101.1 498.28,-101.45 500.81,-107.98"/>
</g>
<!-- Node25 -->
<g id="node25" class="node">
<title>Node25</title>
<g id="a_node25"><a xlink:href="class_player_stats.html#a856d6147e020365c88ea7b01cb4961a6" target="_top" xlink:title="Copies the Character initial values to the actual Stats script">
<polygon fill="white" stroke="black" points="500.5,-32.5 500.5,-51.5 613.5,-51.5 613.5,-32.5 500.5,-32.5"/>
<text text-anchor="middle" x="557" y="-39.5" font-family="Helvetica,sans-Serif" font-size="10.00">PlayerStats.InitValues</text>
</a>
</g>
</g>
<!-- Node6&#45;&gt;Node25 -->
<g id="edge25" class="edge">
<title>Node6&#45;&gt;Node25</title>
<path fill="none" stroke="midnightblue" d="M395.32,-158.31C408.5,-137.22 442.8,-86.98 485,-61 488.55,-58.82 492.34,-56.88 496.26,-55.17"/>
<polygon fill="midnightblue" stroke="midnightblue" points="497.53,-58.43 505.59,-51.55 495,-51.9 497.53,-58.43"/>
</g>
<!-- Node8 -->
<g id="node8" class="node">
<title>Node8</title>
<g id="a_node8"><a xlink:href="class_player_u_i_controller.html#aa5b61a93967fa5ce39bfd950a9e9d584" target="_top" xlink:title="Initializes all the values into the Image and Text.">
<polygon fill="white" stroke="black" points="668.5,-232 668.5,-262 801.5,-262 801.5,-232 668.5,-232"/>
<text text-anchor="start" x="676.5" y="-250" font-family="Helvetica,sans-Serif" font-size="10.00">PlayerUIController.Initialize</text>
<text text-anchor="middle" x="735" y="-239" font-family="Helvetica,sans-Serif" font-size="10.00">Values</text>
</a>
</g>
</g>
<!-- Node7&#45;&gt;Node8 -->
<g id="edge7" class="edge">
<title>Node7&#45;&gt;Node8</title>
<path fill="none" stroke="midnightblue" d="M622.54,-245.1C634.07,-245.3 646.18,-245.5 658,-245.7"/>
<polygon fill="midnightblue" stroke="midnightblue" points="658.23,-249.21 668.29,-245.88 658.35,-242.21 658.23,-249.21"/>
</g>
<!-- Node9 -->
<g id="node9" class="node">
<title>Node9</title>
<g id="a_node9"><a xlink:href="class_player_u_i_controller.html#adadd54ec10a1236aa7c08022d27fa068" target="_top" xlink:title="Sets the current level and xp to the Image.">
<polygon fill="white" stroke="black" points="848.5,-261 848.5,-291 976.5,-291 976.5,-261 848.5,-261"/>
<text text-anchor="start" x="856.5" y="-279" font-family="Helvetica,sans-Serif" font-size="10.00">PlayerUIController.Update</text>
<text text-anchor="middle" x="912.5" y="-268" font-family="Helvetica,sans-Serif" font-size="10.00">CurrentLevel</text>
</a>
</g>
</g>
<!-- Node8&#45;&gt;Node9 -->
<g id="edge8" class="edge">
<title>Node8&#45;&gt;Node9</title>
<path fill="none" stroke="midnightblue" d="M801.85,-257.88C813.78,-259.85 826.29,-261.92 838.41,-263.92"/>
<polygon fill="midnightblue" stroke="midnightblue" points="838.04,-267.41 848.48,-265.59 839.18,-260.5 838.04,-267.41"/>
</g>
<!-- Node11 -->
<g id="node11" class="node">
<title>Node11</title>
<g id="a_node11"><a xlink:href="class_player_u_i_controller.html#aacc9f1b78d9e1adab16f8fc2ec246dfb" target="_top" xlink:title=" ">
<polygon fill="white" stroke="black" points="848.5,-212 848.5,-242 976.5,-242 976.5,-212 848.5,-212"/>
<text text-anchor="start" x="856.5" y="-230" font-family="Helvetica,sans-Serif" font-size="10.00">PlayerUIController.Update</text>
<text text-anchor="middle" x="912.5" y="-219" font-family="Helvetica,sans-Serif" font-size="10.00">MaxHP</text>
</a>
</g>
</g>
<!-- Node8&#45;&gt;Node11 -->
<g id="edge10" class="edge">
<title>Node8&#45;&gt;Node11</title>
<path fill="none" stroke="midnightblue" d="M801.85,-239.5C813.78,-238.14 826.29,-236.71 838.41,-235.33"/>
<polygon fill="midnightblue" stroke="midnightblue" points="838.94,-238.79 848.48,-234.18 838.15,-231.84 838.94,-238.79"/>
</g>
<!-- Node10 -->
<g id="node10" class="node">
<title>Node10</title>
<g id="a_node10"><a xlink:href="class_utils.html#a459472171f68c903c975020cc5b02fee" target="_top" xlink:title="Calculates the actual normalized fill amount for the image.">
<polygon fill="white" stroke="black" points="1028,-260.5 1028,-279.5 1154,-279.5 1154,-260.5 1028,-260.5"/>
<text text-anchor="middle" x="1091" y="-267.5" font-family="Helvetica,sans-Serif" font-size="10.00">Utils.CalculateFillAmount</text>
</a>
</g>
</g>
<!-- Node9&#45;&gt;Node10 -->
<g id="edge9" class="edge">
<title>Node9&#45;&gt;Node10</title>
<path fill="none" stroke="midnightblue" d="M976.72,-273.85C989.96,-273.4 1004.03,-272.92 1017.57,-272.46"/>
<polygon fill="midnightblue" stroke="midnightblue" points="1017.94,-275.95 1027.81,-272.11 1017.7,-268.96 1017.94,-275.95"/>
</g>
<!-- Node11&#45;&gt;Node10 -->
<g id="edge11" class="edge">
<title>Node11&#45;&gt;Node10</title>
<path fill="none" stroke="midnightblue" d="M975.23,-242.04C996.75,-247.28 1020.58,-253.09 1040.93,-258.04"/>
<polygon fill="midnightblue" stroke="midnightblue" points="1040.37,-261.51 1050.91,-260.48 1042.03,-254.71 1040.37,-261.51"/>
</g>
<!-- Node12 -->
<g id="node12" class="node">
<title>Node12</title>
<g id="a_node12"><a xlink:href="class_player_u_i_controller.html#aaa62b1e4dc1ee6689adbc72b8dcb73d3" target="_top" xlink:title="When you heal HP, we will reset the lerped bar">
<polygon fill="white" stroke="black" points="1020,-217.5 1020,-236.5 1162,-236.5 1162,-217.5 1020,-217.5"/>
<text text-anchor="middle" x="1091" y="-224.5" font-family="Helvetica,sans-Serif" font-size="10.00">PlayerUIController.ResetLerp</text>
</a>
</g>
</g>
<!-- Node11&#45;&gt;Node12 -->
<g id="edge12" class="edge">
<title>Node11&#45;&gt;Node12</title>
<path fill="none" stroke="midnightblue" d="M976.72,-227C987.4,-227 998.61,-227 1009.66,-227"/>
<polygon fill="midnightblue" stroke="midnightblue" points="1009.73,-230.5 1019.73,-227 1009.73,-223.5 1009.73,-230.5"/>
</g>
<!-- Node14 -->
<g id="node14" class="node">
<title>Node14</title>
<g id="a_node14"><a xlink:href="class_sellable_item_u_i.html#a10394a2c7d2d0a72d9c8b05fbf3e8696" target="_top" xlink:title=" ">
<polygon fill="white" stroke="black" points="676.5,-193.5 676.5,-212.5 793.5,-212.5 793.5,-193.5 676.5,-193.5"/>
<text text-anchor="middle" x="735" y="-200.5" font-family="Helvetica,sans-Serif" font-size="10.00">SellableItemUI.Initialize</text>
</a>
</g>
</g>
<!-- Node13&#45;&gt;Node14 -->
<g id="edge14" class="edge">
<title>Node13&#45;&gt;Node14</title>
<path fill="none" stroke="midnightblue" d="M629.08,-204.79C641.38,-204.58 654.13,-204.36 666.34,-204.15"/>
<polygon fill="midnightblue" stroke="midnightblue" points="666.5,-207.65 676.44,-203.98 666.38,-200.65 666.5,-207.65"/>
</g>
<!-- Node17 -->
<g id="node17" class="node">
<title>Node17</title>
<g id="a_node17"><a xlink:href="class_player_h_u_d_controller.html#aeef77dcdfaf1c9b719e4350c17c88fa5" target="_top" xlink:title=" ">
<polygon fill="white" stroke="black" points="665,-115 665,-145 805,-145 805,-115 665,-115"/>
<text text-anchor="start" x="673" y="-133" font-family="Helvetica,sans-Serif" font-size="10.00">PlayerHUDController.Update</text>
<text text-anchor="middle" x="735" y="-122" font-family="Helvetica,sans-Serif" font-size="10.00">GoldTxt</text>
</a>
</g>
</g>
<!-- Node16&#45;&gt;Node17 -->
<g id="edge17" class="edge">
<title>Node16&#45;&gt;Node17</title>
<path fill="none" stroke="midnightblue" d="M603.78,-130C619.36,-130 637.26,-130 654.69,-130"/>
<polygon fill="midnightblue" stroke="midnightblue" points="654.89,-133.5 664.89,-130 654.89,-126.5 654.89,-133.5"/>
</g>
<!-- Node19 -->
<g id="node19" class="node">
<title>Node19</title>
<g id="a_node19"><a xlink:href="class_ability_cooldown.html#aa01c150ac26f1694a1e174e152510094" target="_top" xlink:title="Initializes the current AbilityCooldown.">
<polygon fill="white" stroke="black" points="673,-76.5 673,-95.5 797,-95.5 797,-76.5 673,-76.5"/>
<text text-anchor="middle" x="735" y="-83.5" font-family="Helvetica,sans-Serif" font-size="10.00">AbilityCooldown.Initialize</text>
</a>
</g>
</g>
<!-- Node18&#45;&gt;Node19 -->
<g id="edge19" class="edge">
<title>Node18&#45;&gt;Node19</title>
<path fill="none" stroke="midnightblue" d="M629.08,-86C640.18,-86 651.66,-86 662.76,-86"/>
<polygon fill="midnightblue" stroke="midnightblue" points="662.84,-89.5 672.84,-86 662.84,-82.5 662.84,-89.5"/>
</g>
<!-- Node20 -->
<g id="node20" class="node">
<title>Node20</title>
<g id="a_node20"><a xlink:href="class_ability_cooldown.html#a2142f4ae1a75b2e88bd33d8553680a33" target="_top" xlink:title="This function is called whenever this ability is ready and you have enough mana.">
<polygon fill="white" stroke="black" points="841,-152.5 841,-171.5 984,-171.5 984,-152.5 841,-152.5"/>
<text text-anchor="middle" x="912.5" y="-159.5" font-family="Helvetica,sans-Serif" font-size="10.00">AbilityCooldown.AbilityReady</text>
</a>
</g>
</g>
<!-- Node19&#45;&gt;Node20 -->
<g id="edge20" class="edge">
<title>Node19&#45;&gt;Node20</title>
<path fill="none" stroke="midnightblue" d="M784.17,-95.61C791.42,-98.08 798.61,-101.16 805,-105 824.95,-116.97 821.02,-131.08 841,-143 844.67,-145.19 848.61,-147.14 852.66,-148.86"/>
<polygon fill="midnightblue" stroke="midnightblue" points="851.7,-152.24 862.29,-152.49 854.17,-145.69 851.7,-152.24"/>
</g>
<!-- Node21 -->
<g id="node21" class="node">
<title>Node21</title>
<g id="a_node21"><a xlink:href="class_ability.html#a004d2ead9a2f144fe5a181fceed114a5" target="_top" xlink:title=" ">
<polygon fill="white" stroke="black" points="863.5,-114.5 863.5,-133.5 961.5,-133.5 961.5,-114.5 863.5,-114.5"/>
<text text-anchor="middle" x="912.5" y="-121.5" font-family="Helvetica,sans-Serif" font-size="10.00">Ability.GetDamage</text>
</a>
</g>
</g>
<!-- Node19&#45;&gt;Node21 -->
<g id="edge21" class="edge">
<title>Node19&#45;&gt;Node21</title>
<path fill="none" stroke="midnightblue" d="M780.29,-95.59C803.76,-100.67 832.78,-106.96 857.56,-112.32"/>
<polygon fill="midnightblue" stroke="midnightblue" points="857.02,-115.78 867.53,-114.48 858.5,-108.94 857.02,-115.78"/>
</g>
<!-- Node22 -->
<g id="node22" class="node">
<title>Node22</title>
<g id="a_node22"><a xlink:href="class_ability.html#a0c1233ee3cfecfed5c899ed29d0ec4b9" target="_top" xlink:title=" ">
<polygon fill="white" stroke="black" points="854.5,-76.5 854.5,-95.5 970.5,-95.5 970.5,-76.5 854.5,-76.5"/>
<text text-anchor="middle" x="912.5" y="-83.5" font-family="Helvetica,sans-Serif" font-size="10.00">Ability.GetTickDamage</text>
</a>
</g>
</g>
<!-- Node19&#45;&gt;Node22 -->
<g id="edge22" class="edge">
<title>Node19&#45;&gt;Node22</title>
<path fill="none" stroke="midnightblue" d="M797.38,-86C812.4,-86 828.55,-86 843.85,-86"/>
<polygon fill="midnightblue" stroke="midnightblue" points="844.27,-89.5 854.27,-86 844.27,-82.5 844.27,-89.5"/>
</g>
<!-- Node23 -->
<g id="node23" class="node">
<title>Node23</title>
<g id="a_node23"><a xlink:href="class_ability.html#a680fce4c2981c462afc82d28fe3958ef" target="_top" xlink:title=" ">
<polygon fill="white" stroke="black" points="871.5,-38.5 871.5,-57.5 953.5,-57.5 953.5,-38.5 871.5,-38.5"/>
<text text-anchor="middle" x="912.5" y="-45.5" font-family="Helvetica,sans-Serif" font-size="10.00">Ability.Initialize</text>
</a>
</g>
</g>
<!-- Node19&#45;&gt;Node23 -->
<g id="edge23" class="edge">
<title>Node19&#45;&gt;Node23</title>
<path fill="none" stroke="midnightblue" d="M780.29,-76.41C805.03,-71.05 835.94,-64.36 861.54,-58.82"/>
<polygon fill="midnightblue" stroke="midnightblue" points="862.4,-62.21 871.43,-56.68 860.92,-55.37 862.4,-62.21"/>
</g>
<!-- Node24 -->
<g id="node24" class="node">
<title>Node24</title>
<g id="a_node24"><a xlink:href="class_tooltip_hoverable.html#aa032f3d5511f81d1991c779fba71d295" target="_top" xlink:title=" ">
<polygon fill="white" stroke="black" points="845.5,-0.5 845.5,-19.5 979.5,-19.5 979.5,-0.5 845.5,-0.5"/>
<text text-anchor="middle" x="912.5" y="-7.5" font-family="Helvetica,sans-Serif" font-size="10.00">TooltipHoverable.SetTooltip</text>
</a>
</g>
</g>
<!-- Node19&#45;&gt;Node24 -->
<g id="edge24" class="edge">
<title>Node19&#45;&gt;Node24</title>
<path fill="none" stroke="midnightblue" d="M751.1,-76.33C771.02,-63.91 807.49,-42.4 841,-29 846.95,-26.62 853.29,-24.44 859.65,-22.48"/>
<polygon fill="midnightblue" stroke="midnightblue" points="860.98,-25.73 869.59,-19.56 859.01,-19.02 860.98,-25.73"/>
</g>
</g>
</svg>
        <g id="navigator" transform="translate(0 0)" fill="#404254">
                <rect fill="#f2f5e9" fill-opacity="0.5" stroke="#606060" stroke-width=".5" x="0" y="0" width="60" height="60"/>
                <use id="zoomplus" xlink:href="#zoomPlus" x="17" y="9" onmousedown="handleZoom(evt,'in')"/>
                <use id="zoomminus" xlink:href="#zoomMin" x="42" y="9" onmousedown="handleZoom(evt,'out')"/>
                <use id="reset" xlink:href="#resetDef" x="30" y="36" onmousedown="handleReset()"/>
                <g id="arrowUp" xlink:href="#dirArrow" transform="translate(30 24)" onmousedown="handlePan(0,-1)">
                  <use xlink:href="#rim" fill="#404040">
                        <set attributeName="fill" to="#808080" begin="arrowUp.mouseover" end="arrowUp.mouseout"/>
                  </use>
                  <path fill="none" stroke="white" stroke-width="1.5" d="M0,-3.0v7 M-2.5,-0.5L0,-3.0L2.5,-0.5"/>
                </g>
                <g id="arrowRight" xlink:href="#dirArrow" transform="rotate(90) translate(36 -43)" onmousedown="handlePan(1,0)">
                  <use xlink:href="#rim" fill="#404040">
                        <set attributeName="fill" to="#808080" begin="arrowRight.mouseover" end="arrowRight.mouseout"/>
                  </use>
                  <path fill="none" stroke="white" stroke-width="1.5" d="M0,-3.0v7 M-2.5,-0.5L0,-3.0L2.5,-0.5"/>
                </g>
                <g id="arrowDown" xlink:href="#dirArrow" transform="rotate(180) translate(-30 -48)" onmousedown="handlePan(0,1)">
                  <use xlink:href="#rim" fill="#404040">
                        <set attributeName="fill" to="#808080" begin="arrowDown.mouseover" end="arrowDown.mouseout"/>
                  </use>
                  <path fill="none" stroke="white" stroke-width="1.5" d="M0,-3.0v7 M-2.5,-0.5L0,-3.0L2.5,-0.5"/>
                </g>
                <g id="arrowLeft" xlink:href="#dirArrow" transform="rotate(270) translate(-36 17)" onmousedown="handlePan(-1,0)">
                  <use xlink:href="#rim" fill="#404040">
                        <set attributeName="fill" to="#808080" begin="arrowLeft.mouseover" end="arrowLeft.mouseout"/>
                  </use>
                  <path fill="none" stroke="white" stroke-width="1.5" d="M0,-3.0v7 M-2.5,-0.5L0,-3.0L2.5,-0.5"/>
                </g>
        </g>
        <svg viewBox="0 0 15 15" width="100%" height="30px" preserveAspectRatio="xMaxYMin meet">
         <g id="arrow_out" transform="scale(0.3 0.3)">
          <a xlink:href="class_model_sync_ab8359f73ae31a7f926c80ebcd7e9444a_cgraph_org.svg" target="_base">
           <rect id="button" ry="5" rx="5" y="6" x="6" height="38" width="38"
                fill="#f2f5e9" fill-opacity="0.5" stroke="#606060" stroke-width="1.0"/>
           <path id="arrow"
             d="M 11.500037,31.436501 C 11.940474,20.09759 22.043105,11.32322 32.158766,21.979434 L 37.068811,17.246167 C 37.068811,17.246167 37.088388,32 37.088388,32 L 22.160133,31.978069 C 22.160133,31.978069 26.997745,27.140456 26.997745,27.140456 C 18.528582,18.264221 13.291696,25.230495 11.500037,31.436501 z"
             style="fill:#404040;"/>
          </a>
         </g>
        </svg>
</svg>
