<?xml version="1.0" encoding="UTF-8" standalone="no"?>
<!DOCTYPE svg PUBLIC "-//W3C//DTD SVG 1.1//EN"
 "http://www.w3.org/Graphics/SVG/1.1/DTD/svg11.dtd">
<!-- Generated by graphviz version 2.47.3 (20210619.1520)
 -->
<!-- Title: PlayerUIController.InitializeValues Pages: 1 -->
<svg width="910pt" height="85pt"
 viewBox="0.00 0.00 910.00 85.00" xmlns="http://www.w3.org/2000/svg" xmlns:xlink="http://www.w3.org/1999/xlink">
<g id="graph0" class="graph" transform="scale(1 1) rotate(0) translate(4 81)">
<title>PlayerUIController.InitializeValues</title>
<!-- Node1 -->
<g id="node1" class="node">
<title>Node1</title>
<g id="a_node1"><a xlink:title="Initializes all the values into the Image and Text.">
<polygon fill="#bfbfbf" stroke="black" points="769,-14 769,-44 902,-44 902,-14 769,-14"/>
<text text-anchor="start" x="777" y="-32" font-family="Helvetica,sans-Serif" font-size="10.00">PlayerUIController.Initialize</text>
<text text-anchor="middle" x="835.5" y="-21" font-family="Helvetica,sans-Serif" font-size="10.00">Values</text>
</a>
</g>
</g>
<!-- Node2 -->
<g id="node2" class="node">
<title>Node2</title>
<g id="a_node2"><a xlink:href="class_player_u_i_controller.html#ab6ed746dec17fdf763bc4ec1d713db7f" target="_top" xlink:title="Initializes all the values and colors for this Player.">
<polygon fill="none" stroke="black" points="602,-19.5 602,-38.5 733,-38.5 733,-19.5 602,-19.5"/>
<text text-anchor="middle" x="667.5" y="-26.5" font-family="Helvetica,sans-Serif" font-size="10.00">PlayerUIController.Initalize</text>
</a>
</g>
</g>
<!-- Node1&#45;&gt;Node2 -->
<g id="edge1" class="edge">
<title>Node1&#45;&gt;Node2</title>
<path fill="none" stroke="midnightblue" d="M758.86,-29C750.25,-29 741.54,-29 733.09,-29"/>
<polygon fill="midnightblue" stroke="midnightblue" points="758.89,-32.5 768.89,-29 758.89,-25.5 758.89,-32.5"/>
</g>
<!-- Node3 -->
<g id="node3" class="node">
<title>Node3</title>
<g id="a_node3"><a xlink:href="class_player_stats.html#ae874ab5cbb490cbdcf3f5613b8bc2240" target="_top" xlink:title="Initialize the actual Stats of the Player.">
<polygon fill="none" stroke="black" points="450.5,-38.5 450.5,-57.5 556.5,-57.5 556.5,-38.5 450.5,-38.5"/>
<text text-anchor="middle" x="503.5" y="-45.5" font-family="Helvetica,sans-Serif" font-size="10.00">PlayerStats.Initialize</text>
</a>
</g>
</g>
<!-- Node2&#45;&gt;Node3 -->
<g id="edge2" class="edge">
<title>Node2&#45;&gt;Node3</title>
<path fill="none" stroke="midnightblue" d="M591.28,-37.82C579.52,-39.2 567.6,-40.6 556.52,-41.9"/>
<polygon fill="midnightblue" stroke="midnightblue" points="592.02,-41.26 601.54,-36.62 591.2,-34.31 592.02,-41.26"/>
</g>
<!-- Node8 -->
<g id="node8" class="node">
<title>Node8</title>
<g id="a_node8"><a xlink:href="class_mannequin_stats.html#a0cecf416149ad28539cb696fad4ae175" target="_top" xlink:title=" ">
<polygon fill="none" stroke="black" points="441,-0.5 441,-19.5 566,-19.5 566,-0.5 441,-0.5"/>
<text text-anchor="middle" x="503.5" y="-7.5" font-family="Helvetica,sans-Serif" font-size="10.00">MannequinStats.Initialize</text>
</a>
</g>
</g>
<!-- Node2&#45;&gt;Node8 -->
<g id="edge7" class="edge">
<title>Node2&#45;&gt;Node8</title>
<path fill="none" stroke="midnightblue" d="M591.58,-20.21C583.03,-19.21 574.4,-18.2 566.05,-17.22"/>
<polygon fill="midnightblue" stroke="midnightblue" points="591.2,-23.69 601.54,-21.38 592.02,-16.74 591.2,-23.69"/>
</g>
<!-- Node4 -->
<g id="node4" class="node">
<title>Node4</title>
<g id="a_node4"><a xlink:href="class_player_controller.html#a75e94e4fd555e57e55ab4b7e54024dcf" target="_top" xlink:title="Initialize the PlayerController.">
<polygon fill="none" stroke="black" points="281,-38.5 281,-57.5 405,-57.5 405,-38.5 281,-38.5"/>
<text text-anchor="middle" x="343" y="-45.5" font-family="Helvetica,sans-Serif" font-size="10.00">PlayerController.Initialize</text>
</a>
</g>
</g>
<!-- Node3&#45;&gt;Node4 -->
<g id="edge3" class="edge">
<title>Node3&#45;&gt;Node4</title>
<path fill="none" stroke="midnightblue" d="M439.82,-48C428.39,-48 416.47,-48 405.08,-48"/>
<polygon fill="midnightblue" stroke="midnightblue" points="440.16,-51.5 450.16,-48 440.16,-44.5 440.16,-51.5"/>
</g>
<!-- Node5 -->
<g id="node5" class="node">
<title>Node5</title>
<g id="a_node5"><a xlink:href="class_model_sync.html#ab8359f73ae31a7f926c80ebcd7e9444a" target="_top" xlink:title="This starts all the initialization chain for the player.">
<polygon fill="none" stroke="black" points="135,-38.5 135,-57.5 245,-57.5 245,-38.5 135,-38.5"/>
<text text-anchor="middle" x="190" y="-45.5" font-family="Helvetica,sans-Serif" font-size="10.00">ModelSync.DoEnable</text>
</a>
</g>
</g>
<!-- Node4&#45;&gt;Node5 -->
<g id="edge4" class="edge">
<title>Node4&#45;&gt;Node5</title>
<path fill="none" stroke="midnightblue" d="M270.58,-48C262,-48 253.36,-48 245.09,-48"/>
<polygon fill="midnightblue" stroke="midnightblue" points="270.58,-51.5 280.58,-48 270.58,-44.5 270.58,-51.5"/>
</g>
<!-- Node6 -->
<g id="node6" class="node">
<title>Node6</title>
<g id="a_node6"><a xlink:href="class_model_sync.html#a47be08ee3bbd2a173514e74da3dd65cb" target="_top" xlink:title=" ">
<polygon fill="none" stroke="black" points="5,-57.5 5,-76.5 94,-76.5 94,-57.5 5,-57.5"/>
<text text-anchor="middle" x="49.5" y="-64.5" font-family="Helvetica,sans-Serif" font-size="10.00">ModelSync.Start</text>
</a>
</g>
</g>
<!-- Node5&#45;&gt;Node6 -->
<g id="edge5" class="edge">
<title>Node5&#45;&gt;Node6</title>
<path fill="none" stroke="midnightblue" d="M124.54,-56.84C114.35,-58.24 104.01,-59.66 94.43,-60.97"/>
<polygon fill="midnightblue" stroke="midnightblue" points="125.23,-60.28 134.66,-55.45 124.28,-53.35 125.23,-60.28"/>
</g>
<!-- Node7 -->
<g id="node7" class="node">
<title>Node7</title>
<g id="a_node7"><a xlink:href="class_model_sync.html#abf63af5a901636617cb742aab24c4d6f" target="_top" xlink:title=" ">
<polygon fill="none" stroke="black" points="0,-19.5 0,-38.5 99,-38.5 99,-19.5 0,-19.5"/>
<text text-anchor="middle" x="49.5" y="-26.5" font-family="Helvetica,sans-Serif" font-size="10.00">ModelSync.Update</text>
</a>
</g>
</g>
<!-- Node5&#45;&gt;Node7 -->
<g id="edge6" class="edge">
<title>Node5&#45;&gt;Node7</title>
<path fill="none" stroke="midnightblue" d="M124.7,-39.18C116.15,-38.01 107.51,-36.82 99.28,-35.69"/>
<polygon fill="midnightblue" stroke="midnightblue" points="124.28,-42.65 134.66,-40.55 125.23,-35.72 124.28,-42.65"/>
</g>
<!-- Node9 -->
<g id="node9" class="node">
<title>Node9</title>
<g id="a_node9"><a xlink:href="class_mannequin.html#af638d1036ae3aee689fe03b43cea0df5" target="_top" xlink:title=" ">
<polygon fill="none" stroke="black" points="299,-0.5 299,-19.5 387,-19.5 387,-0.5 299,-0.5"/>
<text text-anchor="middle" x="343" y="-7.5" font-family="Helvetica,sans-Serif" font-size="10.00">Mannequin.Start</text>
</a>
</g>
</g>
<!-- Node8&#45;&gt;Node9 -->
<g id="edge8" class="edge">
<title>Node8&#45;&gt;Node9</title>
<path fill="none" stroke="midnightblue" d="M430.59,-10C415.77,-10 400.6,-10 387.19,-10"/>
<polygon fill="midnightblue" stroke="midnightblue" points="430.77,-13.5 440.77,-10 430.77,-6.5 430.77,-13.5"/>
</g>
</g>
</svg>
