<?xml version="1.0" encoding="UTF-8" standalone="no"?>
<!DOCTYPE svg PUBLIC "-//W3C//DTD SVG 1.1//EN"
 "http://www.w3.org/Graphics/SVG/1.1/DTD/svg11.dtd">
<!-- Generated by graphviz version 2.47.3 (20210619.1520)
 -->
<!-- Title: TurretShooter.OnTriggerEnter Pages: 1 -->
<!--zoomable 132 -->
<svg id="main" version="1.1" xmlns="http://www.w3.org/2000/svg" xmlns:xlink="http://www.w3.org/1999/xlink" xml:space="preserve" onload="init(evt)">
<style type="text/css"><![CDATA[
.edge:hover path { stroke: red; }
.edge:hover polygon { stroke: red; fill: red; }
]]></style>
<script type="text/javascript"><![CDATA[
var edges = document.getElementsByTagName('g');
if (edges && edges.length) {
  for (var i=0;i<edges.length;i++) {
    if (edges[i].id.substr(0,4)=='edge') {
      edges[i].setAttribute('class','edge');
    }
  }
}
]]></script>
        <defs>
                <circle id="rim" cx="0" cy="0" r="7"/>
                <circle id="rim2" cx="0" cy="0" r="3.5"/>
                <g id="zoomPlus">
                        <use xlink:href="#rim" fill="#404040">
                                <set attributeName="fill" to="#808080" begin="zoomplus.mouseover" end="zoomplus.mouseout"/>
                        </use>
                        <path d="M-4,0h8M0,-4v8" fill="none" stroke="white" stroke-width="1.5" pointer-events="none"/>
                </g>
                <g id="zoomMin">
                        <use xlink:href="#rim" fill="#404040">
                                <set attributeName="fill" to="#808080" begin="zoomminus.mouseover" end="zoomminus.mouseout"/>
                        </use>
                        <path d="M-4,0h8" fill="none" stroke="white" stroke-width="1.5" pointer-events="none"/>
                </g>
                <g id="dirArrow">
                        <path fill="none" stroke="white" stroke-width="1.5" d="M0,-3.0v7 M-2.5,-0.5L0,-3.0L2.5,-0.5"/>
                </g>
               <g id="resetDef">
                       <use xlink:href="#rim2" fill="#404040">
                               <set attributeName="fill" to="#808080" begin="reset.mouseover" end="reset.mouseout"/>
                       </use>
               </g>
        </defs>

<script type="text/javascript">
var viewWidth = 822;
var viewHeight = 132;
var sectionId = 'dynsection-8';
</script>
<script xlink:href="svgpan.js"/>
<svg id="graph" class="graph">
<g id="viewport">
<title>TurretShooter.OnTriggerEnter</title>
<!-- Node1 -->
<g id="node1" class="node">
<title>Node1</title>
<g id="a_node1"><a xlink:title=" ">
<polygon fill="#bfbfbf" stroke="black" points="0,-66 0,-85 143,-85 143,-66 0,-66"/>
<text text-anchor="middle" x="71.5" y="-73" font-family="Helvetica,sans-Serif" font-size="10.00">TurretShooter.OnTriggerEnter</text>
</a>
</g>
</g>
<!-- Node2 -->
<g id="node2" class="node">
<title>Node2</title>
<g id="a_node2"><a xlink:href="class_turret_shooter.html#a94f71f9418731d9f066ea45766fef5ae" target="_top" xlink:title="When an Attackable entity enters the range trigger, it gets added to the corresponding list depending...">
<polygon fill="none" stroke="black" points="179,-104 179,-123 305,-123 305,-104 179,-104"/>
<text text-anchor="middle" x="242" y="-111" font-family="Helvetica,sans-Serif" font-size="10.00">TurretShooter.AddEnemy</text>
</a>
</g>
</g>
<!-- Node1&#45;&gt;Node2 -->
<g id="edge1" class="edge">
<title>Node1&#45;&gt;Node2</title>
<path fill="none" stroke="midnightblue" d="M115.02,-85.09C137.46,-90.15 165.17,-96.4 188.89,-101.75"/>
<polygon fill="midnightblue" stroke="midnightblue" points="188.26,-105.19 198.79,-103.98 189.8,-98.37 188.26,-105.19"/>
</g>
<!-- Node3 -->
<g id="node3" class="node">
<title>Node3</title>
<g id="a_node3"><a xlink:href="class_turret_indicator.html#a135ea87f05f39602a8f8ffca67b60dcd" target="_top" xlink:title=" ">
<polygon fill="none" stroke="black" points="190,-66 190,-85 294,-85 294,-66 190,-66"/>
<text text-anchor="middle" x="242" y="-73" font-family="Helvetica,sans-Serif" font-size="10.00">TurretIndicator.isIdle</text>
</a>
</g>
</g>
<!-- Node1&#45;&gt;Node3 -->
<g id="edge2" class="edge">
<title>Node1&#45;&gt;Node3</title>
<path fill="none" stroke="midnightblue" d="M143.47,-75.5C155.51,-75.5 167.91,-75.5 179.67,-75.5"/>
<polygon fill="midnightblue" stroke="midnightblue" points="179.81,-79 189.81,-75.5 179.81,-72 179.81,-79"/>
</g>
<!-- Node4 -->
<g id="node4" class="node">
<title>Node4</title>
<g id="a_node4"><a xlink:href="class_turret_shooter.html#abdbfe8d7746ee1e665f8da7e1a423bf7" target="_top" xlink:title=" ">
<polygon fill="none" stroke="black" points="190,-28 190,-47 294,-47 294,-28 190,-28"/>
<text text-anchor="middle" x="242" y="-35" font-family="Helvetica,sans-Serif" font-size="10.00">TurretShooter.Shoot</text>
</a>
</g>
</g>
<!-- Node1&#45;&gt;Node4 -->
<g id="edge3" class="edge">
<title>Node1&#45;&gt;Node4</title>
<path fill="none" stroke="midnightblue" d="M115.02,-65.91C137.46,-60.85 165.17,-54.6 188.89,-49.25"/>
<polygon fill="midnightblue" stroke="midnightblue" points="189.8,-52.63 198.79,-47.02 188.26,-45.81 189.8,-52.63"/>
</g>
<!-- Node5 -->
<g id="node5" class="node">
<title>Node5</title>
<g id="a_node5"><a xlink:href="class_turret_shooter.html#a8be25a5629564093b66ab8d2b42692cc" target="_top" xlink:title=" ">
<polygon fill="none" stroke="black" points="341,-0.5 341,-30.5 468,-30.5 468,-0.5 341,-0.5"/>
<text text-anchor="start" x="349" y="-18.5" font-family="Helvetica,sans-Serif" font-size="10.00">TurretShooter.AttackWith</text>
<text text-anchor="middle" x="404.5" y="-7.5" font-family="Helvetica,sans-Serif" font-size="10.00">Priority</text>
</a>
</g>
</g>
<!-- Node4&#45;&gt;Node5 -->
<g id="edge4" class="edge">
<title>Node4&#45;&gt;Node5</title>
<path fill="none" stroke="midnightblue" d="M294.22,-30.48C305.84,-28.89 318.38,-27.17 330.7,-25.48"/>
<polygon fill="midnightblue" stroke="midnightblue" points="331.52,-28.9 340.96,-24.07 330.57,-21.96 331.52,-28.9"/>
</g>
<!-- Node6 -->
<g id="node6" class="node">
<title>Node6</title>
<g id="a_node6"><a xlink:href="class_turret_indicator.html#a18c506cc6d384bb9ca9789b8e27d1684" target="_top" xlink:title="This function gets calls whenever the Turret changes the intern state.">
<polygon fill="none" stroke="black" points="504,-47 504,-66 659,-66 659,-47 504,-47"/>
<text text-anchor="middle" x="581.5" y="-54" font-family="Helvetica,sans-Serif" font-size="10.00">TurretIndicator.OnStateChanged</text>
</a>
</g>
</g>
<!-- Node4&#45;&gt;Node6 -->
<g id="edge8" class="edge">
<title>Node4&#45;&gt;Node6</title>
<path fill="none" stroke="midnightblue" d="M294.26,-40.39C347.1,-43.36 430.45,-48.05 493.61,-51.61"/>
<polygon fill="midnightblue" stroke="midnightblue" points="493.78,-55.12 503.96,-52.19 494.18,-48.13 493.78,-55.12"/>
</g>
<!-- Node5&#45;&gt;Node6 -->
<g id="edge5" class="edge">
<title>Node5&#45;&gt;Node6</title>
<path fill="none" stroke="midnightblue" d="M468.18,-30.19C488.48,-34.94 510.72,-40.15 530.01,-44.67"/>
<polygon fill="midnightblue" stroke="midnightblue" points="529.27,-48.09 539.8,-46.97 530.87,-41.28 529.27,-48.09"/>
</g>
<!-- Node8 -->
<g id="node8" class="node">
<title>Node8</title>
<g id="a_node8"><a xlink:href="class_ranged_attack_follow.html#ab3769cf75d3db66abcd5cb2174a8dd57" target="_top" xlink:title=" ">
<polygon fill="none" stroke="black" points="506,-6 506,-25 657,-25 657,-6 506,-6"/>
<text text-anchor="middle" x="581.5" y="-13" font-family="Helvetica,sans-Serif" font-size="10.00">RangedAttackFollow.SetTarget</text>
</a>
</g>
</g>
<!-- Node5&#45;&gt;Node8 -->
<g id="edge7" class="edge">
<title>Node5&#45;&gt;Node8</title>
<path fill="none" stroke="midnightblue" d="M468.18,-15.5C477.12,-15.5 486.42,-15.5 495.69,-15.5"/>
<polygon fill="midnightblue" stroke="midnightblue" points="495.71,-19 505.71,-15.5 495.71,-12 495.71,-19"/>
</g>
<!-- Node7 -->
<g id="node7" class="node">
<title>Node7</title>
<g id="a_node7"><a xlink:href="class_turret_indicator.html#a4ce9f7929435b6d9ba46c4fd34d67f50" target="_top" xlink:title="Returns the color corresponing to the current TurretState of the indicator">
<polygon fill="none" stroke="black" points="695,-41.5 695,-71.5 814,-71.5 814,-41.5 695,-41.5"/>
<text text-anchor="start" x="703" y="-59.5" font-family="Helvetica,sans-Serif" font-size="10.00">TurretIndicator.GetColor</text>
<text text-anchor="middle" x="754.5" y="-48.5" font-family="Helvetica,sans-Serif" font-size="10.00">FromState</text>
</a>
</g>
</g>
<!-- Node6&#45;&gt;Node7 -->
<g id="edge6" class="edge">
<title>Node6&#45;&gt;Node7</title>
<path fill="none" stroke="midnightblue" d="M659.5,-56.5C667.94,-56.5 676.5,-56.5 684.83,-56.5"/>
<polygon fill="midnightblue" stroke="midnightblue" points="684.87,-60 694.87,-56.5 684.87,-53 684.87,-60"/>
</g>
</g>
</svg>
        <g id="navigator" transform="translate(0 0)" fill="#404254">
                <rect fill="#f2f5e9" fill-opacity="0.5" stroke="#606060" stroke-width=".5" x="0" y="0" width="60" height="60"/>
                <use id="zoomplus" xlink:href="#zoomPlus" x="17" y="9" onmousedown="handleZoom(evt,'in')"/>
                <use id="zoomminus" xlink:href="#zoomMin" x="42" y="9" onmousedown="handleZoom(evt,'out')"/>
                <use id="reset" xlink:href="#resetDef" x="30" y="36" onmousedown="handleReset()"/>
                <g id="arrowUp" xlink:href="#dirArrow" transform="translate(30 24)" onmousedown="handlePan(0,-1)">
                  <use xlink:href="#rim" fill="#404040">
                        <set attributeName="fill" to="#808080" begin="arrowUp.mouseover" end="arrowUp.mouseout"/>
                  </use>
                  <path fill="none" stroke="white" stroke-width="1.5" d="M0,-3.0v7 M-2.5,-0.5L0,-3.0L2.5,-0.5"/>
                </g>
                <g id="arrowRight" xlink:href="#dirArrow" transform="rotate(90) translate(36 -43)" onmousedown="handlePan(1,0)">
                  <use xlink:href="#rim" fill="#404040">
                        <set attributeName="fill" to="#808080" begin="arrowRight.mouseover" end="arrowRight.mouseout"/>
                  </use>
                  <path fill="none" stroke="white" stroke-width="1.5" d="M0,-3.0v7 M-2.5,-0.5L0,-3.0L2.5,-0.5"/>
                </g>
                <g id="arrowDown" xlink:href="#dirArrow" transform="rotate(180) translate(-30 -48)" onmousedown="handlePan(0,1)">
                  <use xlink:href="#rim" fill="#404040">
                        <set attributeName="fill" to="#808080" begin="arrowDown.mouseover" end="arrowDown.mouseout"/>
                  </use>
                  <path fill="none" stroke="white" stroke-width="1.5" d="M0,-3.0v7 M-2.5,-0.5L0,-3.0L2.5,-0.5"/>
                </g>
                <g id="arrowLeft" xlink:href="#dirArrow" transform="rotate(270) translate(-36 17)" onmousedown="handlePan(-1,0)">
                  <use xlink:href="#rim" fill="#404040">
                        <set attributeName="fill" to="#808080" begin="arrowLeft.mouseover" end="arrowLeft.mouseout"/>
                  </use>
                  <path fill="none" stroke="white" stroke-width="1.5" d="M0,-3.0v7 M-2.5,-0.5L0,-3.0L2.5,-0.5"/>
                </g>
        </g>
        <svg viewBox="0 0 15 15" width="100%" height="30px" preserveAspectRatio="xMaxYMin meet">
         <g id="arrow_out" transform="scale(0.3 0.3)">
          <a xlink:href="class_turret_shooter_ac92c11affc1a61877bda45f9cedf9fe2_cgraph_org.svg" target="_base">
           <rect id="button" ry="5" rx="5" y="6" x="6" height="38" width="38"
                fill="#f2f5e9" fill-opacity="0.5" stroke="#606060" stroke-width="1.0"/>
           <path id="arrow"
             d="M 11.500037,31.436501 C 11.940474,20.09759 22.043105,11.32322 32.158766,21.979434 L 37.068811,17.246167 C 37.068811,17.246167 37.088388,32 37.088388,32 L 22.160133,31.978069 C 22.160133,31.978069 26.997745,27.140456 26.997745,27.140456 C 18.528582,18.264221 13.291696,25.230495 11.500037,31.436501 z"
             style="fill:#404040;"/>
          </a>
         </g>
        </svg>
</svg>
