<?xml version="1.0" encoding="UTF-8" standalone="no"?>
<!DOCTYPE svg PUBLIC "-//W3C//DTD SVG 1.1//EN"
 "http://www.w3.org/Graphics/SVG/1.1/DTD/svg11.dtd">
<!-- Generated by graphviz version 2.47.3 (20210619.1520)
 -->
<!-- Title: Tayx.Graphy.Audio.G_AudioManager.UpdateParameters Pages: 1 -->
<svg width="359pt" height="88pt"
 viewBox="0.00 0.00 359.00 88.00" xmlns="http://www.w3.org/2000/svg" xmlns:xlink="http://www.w3.org/1999/xlink">
<g id="graph0" class="graph" transform="scale(1 1) rotate(0) translate(4 84)">
<title>Tayx.Graphy.Audio.G_AudioManager.UpdateParameters</title>
<polygon fill="white" stroke="transparent" points="-4,4 -4,-84 355,-84 355,4 -4,4"/>
<!-- Node1 -->
<g id="node1" class="node">
<title>Node1</title>
<g id="a_node1"><a xlink:title=" ">
<polygon fill="#bfbfbf" stroke="black" points="183,-24.5 183,-54.5 351,-54.5 351,-24.5 183,-24.5"/>
<text text-anchor="start" x="191" y="-42.5" font-family="Helvetica,sans-Serif" font-size="10.00">Tayx.Graphy.Audio.G</text>
<text text-anchor="middle" x="267" y="-31.5" font-family="Helvetica,sans-Serif" font-size="10.00">_AudioManager.UpdateParameters</text>
</a>
</g>
</g>
<!-- Node2 -->
<g id="node2" class="node">
<title>Node2</title>
<g id="a_node2"><a xlink:href="class_tayx_1_1_graphy_1_1_audio_1_1_g___audio_manager.xhtml#a91f18a0a306a2fe70d61c62180010ca8" target="_top" xlink:title=" ">
<polygon fill="white" stroke="black" points="18.5,-49.5 18.5,-79.5 128.5,-79.5 128.5,-49.5 18.5,-49.5"/>
<text text-anchor="start" x="26.5" y="-67.5" font-family="Helvetica,sans-Serif" font-size="10.00">Tayx.Graphy.Audio.G</text>
<text text-anchor="middle" x="73.5" y="-56.5" font-family="Helvetica,sans-Serif" font-size="10.00">_AudioManager.Start</text>
</a>
</g>
</g>
<!-- Node1&#45;&gt;Node2 -->
<g id="edge1" class="edge">
<title>Node1&#45;&gt;Node2</title>
<path fill="none" stroke="midnightblue" d="M172.89,-51.65C157.71,-53.64 142.44,-55.63 128.61,-57.44"/>
<polygon fill="midnightblue" stroke="midnightblue" points="173.38,-55.12 182.84,-50.36 172.47,-48.18 173.38,-55.12"/>
</g>
<!-- Node3 -->
<g id="node3" class="node">
<title>Node3</title>
<g id="a_node3"><a xlink:href="class_tayx_1_1_graphy_1_1_graphy_manager.xhtml#a09cf85e2115057a8a96471d52b9c4cd2" target="_top" xlink:title=" ">
<polygon fill="white" stroke="black" points="0,-0.5 0,-30.5 147,-30.5 147,-0.5 0,-0.5"/>
<text text-anchor="start" x="8" y="-18.5" font-family="Helvetica,sans-Serif" font-size="10.00">Tayx.Graphy.GraphyManager.</text>
<text text-anchor="middle" x="73.5" y="-7.5" font-family="Helvetica,sans-Serif" font-size="10.00">UpdateAllParameters</text>
</a>
</g>
</g>
<!-- Node1&#45;&gt;Node3 -->
<g id="edge2" class="edge">
<title>Node1&#45;&gt;Node3</title>
<path fill="none" stroke="midnightblue" d="M172.75,-27.81C164.12,-26.73 155.47,-25.65 147.07,-24.59"/>
<polygon fill="midnightblue" stroke="midnightblue" points="172.48,-31.31 182.84,-29.08 173.35,-24.36 172.48,-31.31"/>
</g>
</g>
</svg>
