<?xml version="1.0" encoding="UTF-8" standalone="no"?>
<!DOCTYPE svg PUBLIC "-//W3C//DTD SVG 1.1//EN"
 "http://www.w3.org/Graphics/SVG/1.1/DTD/svg11.dtd">
<!-- Generated by graphviz version 2.47.3 (20210619.1520)
 -->
<!-- Title: PlayerStats Pages: 1 -->
<svg width="784pt" height="429pt"
 viewBox="0.00 0.00 784.00 429.00" xmlns="http://www.w3.org/2000/svg" xmlns:xlink="http://www.w3.org/1999/xlink">
<g id="graph0" class="graph" transform="scale(1 1) rotate(0) translate(4 425)">
<title>PlayerStats</title>
<polygon fill="white" stroke="transparent" points="-4,4 -4,-425 780,-425 780,4 -4,4"/>
<!-- Node1 -->
<g id="node1" class="node">
<title>Node1</title>
<g id="a_node1"><a xlink:title="Player Stats is the main class that controls all the Player Statistics in all time in the game execut...">
<polygon fill="#bfbfbf" stroke="black" points="291,-201.5 291,-220.5 359,-220.5 359,-201.5 291,-201.5"/>
<text text-anchor="middle" x="325" y="-208.5" font-family="Helvetica,sans-Serif" font-size="10.00">PlayerStats</text>
</a>
</g>
</g>
<!-- Node7 -->
<g id="node7" class="node">
<title>Node7</title>
<g id="a_node7"><a xlink:href="class_player_controller.xhtml" target="_top" xlink:title="Player Controller is the main class that handles all the movement of the Player.">
<polygon fill="white" stroke="black" points="200,-134.5 200,-153.5 286,-153.5 286,-134.5 200,-134.5"/>
<text text-anchor="middle" x="243" y="-141.5" font-family="Helvetica,sans-Serif" font-size="10.00">PlayerController</text>
</a>
</g>
</g>
<!-- Node1&#45;&gt;Node7 -->
<g id="edge26" class="edge">
<title>Node1&#45;&gt;Node7</title>
<path fill="none" stroke="#9a32cd" stroke-dasharray="5,2" d="M319.91,-191.46C317.27,-184.64 313.44,-177.29 308,-172 299.42,-163.65 287.88,-157.73 276.91,-153.61"/>
<polygon fill="#9a32cd" stroke="#9a32cd" points="316.71,-192.94 323.12,-201.38 323.37,-190.79 316.71,-192.94"/>
<text text-anchor="middle" x="327.5" y="-175" font-family="Helvetica,sans-Serif" font-size="10.00"> stats</text>
</g>
<!-- Node8 -->
<g id="node8" class="node">
<title>Node8</title>
<g id="a_node8"><a xlink:href="class_ability_cooldown.xhtml" target="_top" xlink:title=" ">
<polygon fill="white" stroke="black" points="432,-67.5 432,-86.5 518,-86.5 518,-67.5 432,-67.5"/>
<text text-anchor="middle" x="475" y="-74.5" font-family="Helvetica,sans-Serif" font-size="10.00">AbilityCooldown</text>
</a>
</g>
</g>
<!-- Node1&#45;&gt;Node8 -->
<g id="edge22" class="edge">
<title>Node1&#45;&gt;Node8</title>
<path fill="none" stroke="#9a32cd" stroke-dasharray="5,2" d="M369.13,-199.88C396.97,-191.56 432.07,-177.26 456,-154 469.4,-140.97 469.66,-134.18 474,-116 476.36,-106.11 476.24,-94.37 475.77,-86.58"/>
<polygon fill="#9a32cd" stroke="#9a32cd" points="367.9,-196.59 359.23,-202.68 369.81,-203.32 367.9,-196.59"/>
<text text-anchor="middle" x="495.5" y="-141.5" font-family="Helvetica,sans-Serif" font-size="10.00"> playerStats</text>
</g>
<!-- Node15 -->
<g id="node15" class="node">
<title>Node15</title>
<g id="a_node15"><a xlink:href="class_basic_attack.xhtml" target="_top" xlink:title=" ">
<polygon fill="white" stroke="black" points="66,-67.5 66,-86.5 136,-86.5 136,-67.5 66,-67.5"/>
<text text-anchor="middle" x="101" y="-74.5" font-family="Helvetica,sans-Serif" font-size="10.00">BasicAttack</text>
</a>
</g>
</g>
<!-- Node1&#45;&gt;Node15 -->
<g id="edge31" class="edge">
<title>Node1&#45;&gt;Node15</title>
<path fill="none" stroke="#9a32cd" stroke-dasharray="5,2" d="M280.87,-199.55C247.75,-190.53 202.11,-175.53 166,-154 142.03,-139.71 132.86,-138.25 116,-116 109.23,-107.07 105.1,-94.69 102.94,-86.52"/>
<polygon fill="#9a32cd" stroke="#9a32cd" points="280.15,-202.98 290.72,-202.16 281.94,-196.21 280.15,-202.98"/>
<text text-anchor="middle" x="178.5" y="-141.5" font-family="Helvetica,sans-Serif" font-size="10.00"> stats</text>
</g>
<!-- Node2 -->
<g id="node2" class="node">
<title>Node2</title>
<g id="a_node2"><a xlink:href="class_ability_affected_stats.xhtml" target="_top" xlink:title="Base class Stats of the entity who is affected by Abilities.">
<polygon fill="white" stroke="black" points="166,-268.5 166,-287.5 268,-287.5 268,-268.5 166,-268.5"/>
<text text-anchor="middle" x="217" y="-275.5" font-family="Helvetica,sans-Serif" font-size="10.00">AbilityAffectedStats</text>
</a>
</g>
</g>
<!-- Node2&#45;&gt;Node1 -->
<g id="edge1" class="edge">
<title>Node2&#45;&gt;Node1</title>
<path fill="none" stroke="midnightblue" d="M240.36,-262.94C261.75,-250.07 292.72,-231.43 310.67,-220.63"/>
<polygon fill="midnightblue" stroke="midnightblue" points="238.33,-260.08 231.57,-268.23 241.94,-266.08 238.33,-260.08"/>
</g>
<!-- Node3 -->
<g id="node3" class="node">
<title>Node3</title>
<g id="a_node3"><a xlink:href="class_stats.xhtml" target="_top" xlink:title="Base class Stats of the entity.">
<polygon fill="white" stroke="black" points="158,-344.5 158,-363.5 198,-363.5 198,-344.5 158,-344.5"/>
<text text-anchor="middle" x="178" y="-351.5" font-family="Helvetica,sans-Serif" font-size="10.00">Stats</text>
</a>
</g>
</g>
<!-- Node3&#45;&gt;Node2 -->
<g id="edge2" class="edge">
<title>Node3&#45;&gt;Node2</title>
<path fill="none" stroke="midnightblue" d="M187.29,-335.37C195.2,-320.37 206.23,-299.44 212.38,-287.77"/>
<polygon fill="midnightblue" stroke="midnightblue" points="184.19,-333.74 182.63,-344.22 190.39,-337.01 184.19,-333.74"/>
</g>
<!-- Node3&#45;&gt;Node15 -->
<g id="edge30" class="edge">
<title>Node3&#45;&gt;Node15</title>
<path fill="none" stroke="#9a32cd" stroke-dasharray="5,2" d="M171.91,-334.56C167.65,-321.57 161.88,-303.75 157,-288 133.41,-211.84 122.59,-193.99 106,-116 103.87,-105.98 102.49,-94.26 101.73,-86.52"/>
<polygon fill="#9a32cd" stroke="#9a32cd" points="168.63,-335.78 175.08,-344.19 175.28,-333.6 168.63,-335.78"/>
<text text-anchor="middle" x="159.5" y="-208.5" font-family="Helvetica,sans-Serif" font-size="10.00"> otherStats</text>
</g>
<!-- Node4 -->
<g id="node4" class="node">
<title>Node4</title>
<g id="a_node4"><a xlink:title=" ">
<polygon fill="white" stroke="#bfbfbf" points="136.5,-401.5 136.5,-420.5 219.5,-420.5 219.5,-401.5 136.5,-401.5"/>
<text text-anchor="middle" x="178" y="-408.5" font-family="Helvetica,sans-Serif" font-size="10.00">MonoBehaviour</text>
</a>
</g>
</g>
<!-- Node4&#45;&gt;Node3 -->
<g id="edge3" class="edge">
<title>Node4&#45;&gt;Node3</title>
<path fill="none" stroke="midnightblue" d="M178,-391.12C178,-381.82 178,-371.06 178,-363.71"/>
<polygon fill="midnightblue" stroke="midnightblue" points="174.5,-391.41 178,-401.41 181.5,-391.41 174.5,-391.41"/>
</g>
<!-- Node6 -->
<g id="node6" class="node">
<title>Node6</title>
<g id="a_node6"><a xlink:href="class_u_i_controller.xhtml" target="_top" xlink:title=" ">
<polygon fill="white" stroke="black" points="355.5,-344.5 355.5,-363.5 422.5,-363.5 422.5,-344.5 355.5,-344.5"/>
<text text-anchor="middle" x="389" y="-351.5" font-family="Helvetica,sans-Serif" font-size="10.00">UIController</text>
</a>
</g>
</g>
<!-- Node4&#45;&gt;Node6 -->
<g id="edge6" class="edge">
<title>Node4&#45;&gt;Node6</title>
<path fill="none" stroke="midnightblue" d="M220.72,-398.86C260.78,-388.42 319.82,-373.03 356.26,-363.53"/>
<polygon fill="midnightblue" stroke="midnightblue" points="219.76,-395.5 210.97,-401.41 221.53,-402.27 219.76,-395.5"/>
</g>
<!-- Node4&#45;&gt;Node7 -->
<g id="edge8" class="edge">
<title>Node4&#45;&gt;Node7</title>
<path fill="none" stroke="midnightblue" d="M130.97,-397.93C110.9,-389.68 92,-376.27 92,-355 92,-355 92,-355 92,-243.5 92,-191.39 155.87,-165.39 200.54,-153.59"/>
<polygon fill="midnightblue" stroke="midnightblue" points="129.94,-401.28 140.53,-401.47 132.37,-394.72 129.94,-401.28"/>
</g>
<!-- Node4&#45;&gt;Node8 -->
<g id="edge10" class="edge">
<title>Node4&#45;&gt;Node8</title>
<path fill="none" stroke="midnightblue" d="M229.87,-406.22C319.53,-398.98 494,-381.48 494,-355 494,-355 494,-355 494,-243.5 494,-192.8 544.3,-181.28 526,-134 518.21,-113.89 499.47,-96.56 487.01,-86.71"/>
<polygon fill="midnightblue" stroke="midnightblue" points="229.33,-402.75 219.64,-407.03 229.88,-409.73 229.33,-402.75"/>
</g>
<!-- Node12 -->
<g id="node12" class="node">
<title>Node12</title>
<g id="a_node12"><a xlink:href="class_ability_indicator.xhtml" target="_top" xlink:title=" ">
<polygon fill="white" stroke="black" points="435,-0.5 435,-19.5 515,-19.5 515,-0.5 435,-0.5"/>
<text text-anchor="middle" x="475" y="-7.5" font-family="Helvetica,sans-Serif" font-size="10.00">AbilityIndicator</text>
</a>
</g>
</g>
<!-- Node4&#45;&gt;Node12 -->
<g id="edge17" class="edge">
<title>Node4&#45;&gt;Node12</title>
<path fill="none" stroke="midnightblue" d="M126.07,-404.14C73.53,-396.73 0,-381.61 0,-355 0,-355 0,-355 0,-76 0,-32.25 320.39,-16.52 434.91,-12.29"/>
<polygon fill="midnightblue" stroke="midnightblue" points="125.89,-407.65 136.27,-405.52 126.83,-400.71 125.89,-407.65"/>
</g>
<!-- Node4&#45;&gt;Node15 -->
<g id="edge28" class="edge">
<title>Node4&#45;&gt;Node15</title>
<path fill="none" stroke="midnightblue" d="M126.19,-409.69C86.33,-406.39 38,-394.28 38,-355 38,-355 38,-355 38,-143 38,-116.76 64.81,-97.09 83.45,-86.59"/>
<polygon fill="midnightblue" stroke="midnightblue" points="126.16,-413.2 136.37,-410.37 126.63,-406.22 126.16,-413.2"/>
</g>
<!-- Node16 -->
<g id="node16" class="node">
<title>Node16</title>
<g id="a_node16"><a xlink:href="class_inventory.xhtml" target="_top" xlink:title=" ">
<polygon fill="white" stroke="black" points="253.5,-306.5 253.5,-325.5 308.5,-325.5 308.5,-306.5 253.5,-306.5"/>
<text text-anchor="middle" x="281" y="-313.5" font-family="Helvetica,sans-Serif" font-size="10.00">Inventory</text>
</a>
</g>
</g>
<!-- Node4&#45;&gt;Node16 -->
<g id="edge34" class="edge">
<title>Node4&#45;&gt;Node16</title>
<path fill="none" stroke="midnightblue" d="M195.07,-394.59C216.95,-374.83 254.14,-341.26 271.52,-325.56"/>
<polygon fill="midnightblue" stroke="midnightblue" points="192.58,-392.12 187.51,-401.42 197.27,-397.31 192.58,-392.12"/>
</g>
<!-- Node5 -->
<g id="node5" class="node">
<title>Node5</title>
<g id="a_node5"><a xlink:href="class_player_u_i_controller.xhtml" target="_top" xlink:title="UI Controller for the Player Stats">
<polygon fill="white" stroke="black" points="364.5,-268.5 364.5,-287.5 459.5,-287.5 459.5,-268.5 364.5,-268.5"/>
<text text-anchor="middle" x="412" y="-275.5" font-family="Helvetica,sans-Serif" font-size="10.00">PlayerUIController</text>
</a>
</g>
</g>
<!-- Node5&#45;&gt;Node1 -->
<g id="edge4" class="edge">
<title>Node5&#45;&gt;Node1</title>
<path fill="none" stroke="#9a32cd" stroke-dasharray="5,2" d="M392.01,-262.07C374.84,-249.24 350.68,-231.19 336.55,-220.63"/>
<polygon fill="#9a32cd" stroke="#9a32cd" points="390.16,-265.05 400.27,-268.23 394.35,-259.44 390.16,-265.05"/>
<text text-anchor="middle" x="394" y="-242" font-family="Helvetica,sans-Serif" font-size="10.00"> uiControl</text>
</g>
<!-- Node6&#45;&gt;Node5 -->
<g id="edge5" class="edge">
<title>Node6&#45;&gt;Node5</title>
<path fill="none" stroke="midnightblue" d="M394.75,-334.51C399.39,-319.57 405.71,-299.22 409.27,-287.77"/>
<polygon fill="midnightblue" stroke="midnightblue" points="391.35,-333.63 391.73,-344.22 398.04,-335.71 391.35,-333.63"/>
</g>
<!-- Node7&#45;&gt;Node1 -->
<g id="edge7" class="edge">
<title>Node7&#45;&gt;Node1</title>
<path fill="none" stroke="#9a32cd" stroke-dasharray="5,2" d="M234.78,-163.43C233.09,-170.14 232.88,-177.43 237,-183 249.25,-199.58 271.5,-206.3 290.56,-208.9"/>
<polygon fill="#9a32cd" stroke="#9a32cd" points="238.19,-164.31 238.28,-153.71 231.6,-161.94 238.19,-164.31"/>
<text text-anchor="middle" x="272.5" y="-175" font-family="Helvetica,sans-Serif" font-size="10.00"> playerController</text>
</g>
<!-- Node7&#45;&gt;Node8 -->
<g id="edge11" class="edge">
<title>Node7&#45;&gt;Node8</title>
<path fill="none" stroke="#9a32cd" stroke-dasharray="5,2" d="M296.07,-132.6C314.93,-128.28 336.15,-122.7 355,-116 365.68,-112.21 367.39,-108.98 378,-105 397.64,-97.63 420.18,-91.24 438.59,-86.53"/>
<polygon fill="#9a32cd" stroke="#9a32cd" points="295.16,-129.22 286.16,-134.81 296.68,-136.05 295.16,-129.22"/>
<text text-anchor="middle" x="413.5" y="-108" font-family="Helvetica,sans-Serif" font-size="10.00"> playerController</text>
</g>
<!-- Node7&#45;&gt;Node15 -->
<g id="edge29" class="edge">
<title>Node7&#45;&gt;Node15</title>
<path fill="none" stroke="#9a32cd" stroke-dasharray="5,2" d="M189.9,-137.6C170.24,-133.76 148.5,-127.21 131,-116 119.53,-108.66 110.57,-95.39 105.53,-86.64"/>
<polygon fill="#9a32cd" stroke="#9a32cd" points="189.5,-141.08 199.96,-139.37 190.71,-134.19 189.5,-141.08"/>
<text text-anchor="middle" x="152.5" y="-108" font-family="Helvetica,sans-Serif" font-size="10.00"> controller</text>
</g>
<!-- Node8&#45;&gt;Node1 -->
<g id="edge32" class="edge">
<title>Node8&#45;&gt;Node1</title>
<path fill="none" stroke="#9a32cd" stroke-dasharray="5,2" d="M466.49,-95.82C462.19,-103.08 456.32,-110.93 449,-116 421.54,-135.04 403.25,-114.67 376,-134 354.79,-149.05 358.6,-161.47 344,-183 339.88,-189.07 335.13,-195.82 331.41,-201.05"/>
<polygon fill="#9a32cd" stroke="#9a32cd" points="469.77,-97.1 471.36,-86.62 463.59,-93.82 469.77,-97.1"/>
<text text-anchor="middle" x="414" y="-141.5" font-family="Helvetica,sans-Serif" font-size="10.00"> abilityCooldowns</text>
</g>
<!-- Node8&#45;&gt;Node7 -->
<g id="edge9" class="edge">
<title>Node8&#45;&gt;Node7</title>
<path fill="none" stroke="#9a32cd" stroke-dasharray="5,2" d="M421.66,-81.37C372.35,-85.2 303.17,-92.58 279,-105 265.74,-111.81 254.7,-125.49 248.47,-134.44"/>
<polygon fill="#9a32cd" stroke="#9a32cd" points="422.15,-84.84 431.86,-80.61 421.63,-77.86 422.15,-84.84"/>
<text text-anchor="middle" x="317" y="-108" font-family="Helvetica,sans-Serif" font-size="10.00"> abilityCooldowns</text>
</g>
<!-- Node8&#45;&gt;Node12 -->
<g id="edge18" class="edge">
<title>Node8&#45;&gt;Node12</title>
<path fill="none" stroke="#9a32cd" stroke-dasharray="5,2" d="M447.49,-61.96C438.68,-55.46 432.28,-47.14 437,-38 441.08,-30.09 448.67,-23.99 456,-19.61"/>
<polygon fill="#9a32cd" stroke="#9a32cd" points="445.69,-64.97 456.01,-67.4 449.46,-59.07 445.69,-64.97"/>
<text text-anchor="middle" x="460.5" y="-41" font-family="Helvetica,sans-Serif" font-size="10.00"> currentCD</text>
</g>
<!-- Node9 -->
<g id="node9" class="node">
<title>Node9</title>
<g id="a_node9"><a xlink:href="class_ability.xhtml" target="_top" xlink:title=" ">
<polygon fill="white" stroke="black" points="581,-268.5 581,-287.5 625,-287.5 625,-268.5 581,-268.5"/>
<text text-anchor="middle" x="603" y="-275.5" font-family="Helvetica,sans-Serif" font-size="10.00">Ability</text>
</a>
</g>
</g>
<!-- Node9&#45;&gt;Node8 -->
<g id="edge12" class="edge">
<title>Node9&#45;&gt;Node8</title>
<path fill="none" stroke="#9a32cd" stroke-dasharray="5,2" d="M607.12,-258.28C613.62,-223.33 621.84,-147.8 583,-105 574.17,-95.27 544.24,-88.26 518.12,-83.82"/>
<polygon fill="#9a32cd" stroke="#9a32cd" points="603.61,-257.98 605.05,-268.48 610.47,-259.37 603.61,-257.98"/>
<text text-anchor="middle" x="625.5" y="-175" font-family="Helvetica,sans-Serif" font-size="10.00"> ability</text>
</g>
<!-- Node13 -->
<g id="node13" class="node">
<title>Node13</title>
<g id="a_node13"><a xlink:href="class_indicated_ability.xhtml" target="_top" xlink:title="Encapsulador de les Ability que han de mostrar l&#39;indicador">
<polygon fill="white" stroke="black" points="645.5,-201.5 645.5,-220.5 728.5,-220.5 728.5,-201.5 645.5,-201.5"/>
<text text-anchor="middle" x="687" y="-208.5" font-family="Helvetica,sans-Serif" font-size="10.00">IndicatedAbility</text>
</a>
</g>
</g>
<!-- Node9&#45;&gt;Node13 -->
<g id="edge20" class="edge">
<title>Node9&#45;&gt;Node13</title>
<path fill="none" stroke="midnightblue" d="M622.3,-262.07C638.88,-249.24 662.21,-231.19 675.85,-220.63"/>
<polygon fill="midnightblue" stroke="midnightblue" points="620.1,-259.35 614.33,-268.23 624.38,-264.88 620.1,-259.35"/>
</g>
<!-- Node14 -->
<g id="node14" class="node">
<title>Node14</title>
<g id="a_node14"><a xlink:href="class_character.xhtml" target="_top" xlink:title=" ">
<polygon fill="white" stroke="black" points="522.5,-201.5 522.5,-220.5 581.5,-220.5 581.5,-201.5 522.5,-201.5"/>
<text text-anchor="middle" x="552" y="-208.5" font-family="Helvetica,sans-Serif" font-size="10.00">Character</text>
</a>
</g>
</g>
<!-- Node9&#45;&gt;Node14 -->
<g id="edge25" class="edge">
<title>Node9&#45;&gt;Node14</title>
<path fill="none" stroke="#9a32cd" stroke-dasharray="5,2" d="M578.82,-262.55C574.1,-258.91 569.53,-254.68 566,-250 559.31,-241.13 555.54,-228.74 553.64,-220.55"/>
<polygon fill="#9a32cd" stroke="#9a32cd" points="577.06,-265.59 587.27,-268.45 581.07,-259.85 577.06,-265.59"/>
<text text-anchor="middle" x="584.5" y="-242" font-family="Helvetica,sans-Serif" font-size="10.00"> abilities</text>
</g>
<!-- Node10 -->
<g id="node10" class="node">
<title>Node10</title>
<g id="a_node10"><a xlink:title=" ">
<polygon fill="white" stroke="#bfbfbf" points="525.5,-401.5 525.5,-420.5 614.5,-420.5 614.5,-401.5 525.5,-401.5"/>
<text text-anchor="middle" x="570" y="-408.5" font-family="Helvetica,sans-Serif" font-size="10.00">ScriptableObject</text>
</a>
</g>
</g>
<!-- Node10&#45;&gt;Node9 -->
<g id="edge13" class="edge">
<title>Node10&#45;&gt;Node9</title>
<path fill="none" stroke="midnightblue" d="M574.67,-391.47C581.88,-362.83 595.46,-308.92 600.78,-287.8"/>
<polygon fill="midnightblue" stroke="midnightblue" points="571.21,-390.85 572.17,-401.4 578,-392.56 571.21,-390.85"/>
</g>
<!-- Node11 -->
<g id="node11" class="node">
<title>Node11</title>
<g id="a_node11"><a xlink:href="class_effect.xhtml" target="_top" xlink:title="Abstract base info container class for an Effect.">
<polygon fill="white" stroke="black" points="598.5,-344.5 598.5,-363.5 639.5,-363.5 639.5,-344.5 598.5,-344.5"/>
<text text-anchor="middle" x="619" y="-351.5" font-family="Helvetica,sans-Serif" font-size="10.00">Effect</text>
</a>
</g>
</g>
<!-- Node10&#45;&gt;Node11 -->
<g id="edge15" class="edge">
<title>Node10&#45;&gt;Node11</title>
<path fill="none" stroke="midnightblue" d="M584.41,-393.83C593.18,-383.98 604.05,-371.78 611.24,-363.71"/>
<polygon fill="midnightblue" stroke="midnightblue" points="581.7,-391.61 577.66,-401.41 586.92,-396.27 581.7,-391.61"/>
</g>
<!-- Node10&#45;&gt;Node14 -->
<g id="edge24" class="edge">
<title>Node10&#45;&gt;Node14</title>
<path fill="none" stroke="midnightblue" d="M568.14,-391.1C565.21,-361.18 559.41,-301.04 555,-250 554.13,-239.98 553.24,-228.46 552.65,-220.76"/>
<polygon fill="midnightblue" stroke="midnightblue" points="564.68,-391.72 569.14,-401.33 571.65,-391.04 564.68,-391.72"/>
</g>
<!-- Node11&#45;&gt;Node9 -->
<g id="edge14" class="edge">
<title>Node11&#45;&gt;Node9</title>
<path fill="none" stroke="#9a32cd" stroke-dasharray="5,2" d="M607.71,-335.51C606.2,-332.45 604.87,-329.21 604,-326 600.5,-313.08 601.08,-297.42 601.94,-287.84"/>
<polygon fill="#9a32cd" stroke="#9a32cd" points="604.83,-337.54 612.84,-344.47 610.91,-334.05 604.83,-337.54"/>
<text text-anchor="middle" x="643" y="-313.5" font-family="Helvetica,sans-Serif" font-size="10.00"> aToAuthorEffects</text>
</g>
<!-- Node11&#45;&gt;Node13 -->
<g id="edge21" class="edge">
<title>Node11&#45;&gt;Node13</title>
<path fill="none" stroke="#9a32cd" stroke-dasharray="5,2" d="M649.53,-347.28C661.66,-343.38 674.49,-336.86 682,-326 704.76,-293.08 694.71,-241.13 689.46,-220.68"/>
<polygon fill="#9a32cd" stroke="#9a32cd" points="648.36,-343.97 639.64,-349.97 650.2,-350.72 648.36,-343.97"/>
<text text-anchor="middle" x="736" y="-275.5" font-family="Helvetica,sans-Serif" font-size="10.00"> aToEnemyEffects</text>
</g>
<!-- Node12&#45;&gt;Node8 -->
<g id="edge16" class="edge">
<title>Node12&#45;&gt;Node8</title>
<path fill="none" stroke="#9a32cd" stroke-dasharray="5,2" d="M485.35,-28.61C487.92,-34.95 489.55,-42.22 488,-49 486.52,-55.49 483.27,-62.24 480.39,-67.37"/>
<polygon fill="#9a32cd" stroke="#9a32cd" points="488.45,-26.99 480.86,-19.6 482.19,-30.11 488.45,-26.99"/>
<text text-anchor="middle" x="521" y="-41" font-family="Helvetica,sans-Serif" font-size="10.00"> abilityIndicator</text>
</g>
<!-- Node13&#45;&gt;Node12 -->
<g id="edge19" class="edge">
<title>Node13&#45;&gt;Node12</title>
<path fill="none" stroke="#9a32cd" stroke-dasharray="5,2" d="M678.31,-192C660.58,-157.13 616.88,-80.11 558,-38 545.43,-29.01 529.7,-22.9 515.32,-18.79"/>
<polygon fill="#9a32cd" stroke="#9a32cd" points="675.39,-193.98 682.97,-201.38 681.66,-190.87 675.39,-193.98"/>
<text text-anchor="middle" x="649" y="-108" font-family="Helvetica,sans-Serif" font-size="10.00"> current</text>
</g>
<!-- Node14&#45;&gt;Node7 -->
<g id="edge23" class="edge">
<title>Node14&#45;&gt;Node7</title>
<path fill="none" stroke="#9a32cd" stroke-dasharray="5,2" d="M512.31,-201.65C453.27,-189.23 342.88,-166.01 283.42,-153.5"/>
<polygon fill="#9a32cd" stroke="#9a32cd" points="511.87,-205.13 522.37,-203.77 513.31,-198.28 511.87,-205.13"/>
<text text-anchor="middle" x="438" y="-175" font-family="Helvetica,sans-Serif" font-size="10.00"> character</text>
</g>
<!-- Node15&#45;&gt;Node7 -->
<g id="edge27" class="edge">
<title>Node15&#45;&gt;Node7</title>
<path fill="none" stroke="#9a32cd" stroke-dasharray="5,2" d="M139.38,-89.84C151.89,-94.13 165.72,-99.32 178,-105 196.75,-113.67 217.11,-126.11 229.96,-134.37"/>
<polygon fill="#9a32cd" stroke="#9a32cd" points="140.27,-86.45 129.68,-86.6 138.06,-93.09 140.27,-86.45"/>
<text text-anchor="middle" x="226.5" y="-108" font-family="Helvetica,sans-Serif" font-size="10.00"> basicAttack</text>
</g>
<!-- Node16&#45;&gt;Node1 -->
<g id="edge33" class="edge">
<title>Node16&#45;&gt;Node1</title>
<path fill="none" stroke="#9a32cd" stroke-dasharray="5,2" d="M288.75,-296.86C298.29,-274.53 314.09,-237.54 321.26,-220.76"/>
<polygon fill="#9a32cd" stroke="#9a32cd" points="285.46,-295.65 284.75,-306.22 291.9,-298.4 285.46,-295.65"/>
<text text-anchor="middle" x="321" y="-275.5" font-family="Helvetica,sans-Serif" font-size="10.00"> inventory</text>
</g>
</g>
</svg>
