<?xml version="1.0" encoding="UTF-8" standalone="no"?>
<!DOCTYPE svg PUBLIC "-//W3C//DTD SVG 1.1//EN"
 "http://www.w3.org/Graphics/SVG/1.1/DTD/svg11.dtd">
<!-- Generated by graphviz version 2.47.3 (20210619.1520)
 -->
<!-- Title: AbilityCooldown.AbilityReady Pages: 1 -->
<svg width="1074pt" height="85pt"
 viewBox="0.00 0.00 1074.00 85.00" xmlns="http://www.w3.org/2000/svg" xmlns:xlink="http://www.w3.org/1999/xlink">
<g id="graph0" class="graph" transform="scale(1 1) rotate(0) translate(4 81)">
<title>AbilityCooldown.AbilityReady</title>
<!-- Node1 -->
<g id="node1" class="node">
<title>Node1</title>
<g id="a_node1"><a xlink:title="This function is called whenever this ability is ready and you have enough mana.">
<polygon fill="#bfbfbf" stroke="black" points="923,-19.5 923,-38.5 1066,-38.5 1066,-19.5 923,-19.5"/>
<text text-anchor="middle" x="994.5" y="-26.5" font-family="Helvetica,sans-Serif" font-size="10.00">AbilityCooldown.AbilityReady</text>
</a>
</g>
</g>
<!-- Node2 -->
<g id="node2" class="node">
<title>Node2</title>
<g id="a_node2"><a xlink:href="class_ability_cooldown.html#aa01c150ac26f1694a1e174e152510094" target="_top" xlink:title="Initializes the current AbilityCooldown.">
<polygon fill="none" stroke="black" points="763,-38.5 763,-57.5 887,-57.5 887,-38.5 763,-38.5"/>
<text text-anchor="middle" x="825" y="-45.5" font-family="Helvetica,sans-Serif" font-size="10.00">AbilityCooldown.Initialize</text>
</a>
</g>
</g>
<!-- Node1&#45;&gt;Node2 -->
<g id="edge1" class="edge">
<title>Node1&#45;&gt;Node2</title>
<path fill="none" stroke="midnightblue" d="M912.85,-38.15C904.22,-39.13 895.53,-40.11 887.18,-41.06"/>
<polygon fill="midnightblue" stroke="midnightblue" points="913.41,-41.61 922.95,-37 912.62,-34.65 913.41,-41.61"/>
</g>
<!-- Node9 -->
<g id="node9" class="node">
<title>Node9</title>
<g id="a_node9"><a xlink:href="class_ability_cooldown.html#a0a1223f783a3c342413172a5797fa597" target="_top" xlink:title=" ">
<polygon fill="none" stroke="black" points="765.5,-0.5 765.5,-19.5 884.5,-19.5 884.5,-0.5 765.5,-0.5"/>
<text text-anchor="middle" x="825" y="-7.5" font-family="Helvetica,sans-Serif" font-size="10.00">AbilityCooldown.Update</text>
</a>
</g>
</g>
<!-- Node1&#45;&gt;Node9 -->
<g id="edge8" class="edge">
<title>Node1&#45;&gt;Node9</title>
<path fill="none" stroke="midnightblue" d="M913,-19.87C903.41,-18.78 893.76,-17.69 884.56,-16.64"/>
<polygon fill="midnightblue" stroke="midnightblue" points="912.62,-23.35 922.95,-21 913.41,-16.39 912.62,-23.35"/>
</g>
<!-- Node3 -->
<g id="node3" class="node">
<title>Node3</title>
<g id="a_node3"><a xlink:href="class_player_h_u_d_controller.html#adf30ead91cd36140e32d0ad158fbbae4" target="_top" xlink:title=" ">
<polygon fill="none" stroke="black" points="583,-33 583,-63 727,-63 727,-33 583,-33"/>
<text text-anchor="start" x="591" y="-51" font-family="Helvetica,sans-Serif" font-size="10.00">PlayerHUDController.Initialize</text>
<text text-anchor="middle" x="655" y="-40" font-family="Helvetica,sans-Serif" font-size="10.00">Abilities</text>
</a>
</g>
</g>
<!-- Node2&#45;&gt;Node3 -->
<g id="edge2" class="edge">
<title>Node2&#45;&gt;Node3</title>
<path fill="none" stroke="midnightblue" d="M752.65,-48C744.18,-48 735.53,-48 727.06,-48"/>
<polygon fill="midnightblue" stroke="midnightblue" points="752.87,-51.5 762.87,-48 752.87,-44.5 752.87,-51.5"/>
</g>
<!-- Node4 -->
<g id="node4" class="node">
<title>Node4</title>
<g id="a_node4"><a xlink:href="class_player_stats.html#ae874ab5cbb490cbdcf3f5613b8bc2240" target="_top" xlink:title="Initialize the actual Stats of the Player.">
<polygon fill="none" stroke="black" points="441,-38.5 441,-57.5 547,-57.5 547,-38.5 441,-38.5"/>
<text text-anchor="middle" x="494" y="-45.5" font-family="Helvetica,sans-Serif" font-size="10.00">PlayerStats.Initialize</text>
</a>
</g>
</g>
<!-- Node3&#45;&gt;Node4 -->
<g id="edge3" class="edge">
<title>Node3&#45;&gt;Node4</title>
<path fill="none" stroke="midnightblue" d="M572.65,-48C563.93,-48 555.24,-48 547,-48"/>
<polygon fill="midnightblue" stroke="midnightblue" points="572.87,-51.5 582.87,-48 572.87,-44.5 572.87,-51.5"/>
</g>
<!-- Node5 -->
<g id="node5" class="node">
<title>Node5</title>
<g id="a_node5"><a xlink:href="class_player_controller.html#a75e94e4fd555e57e55ab4b7e54024dcf" target="_top" xlink:title="Initialize the PlayerController.">
<polygon fill="none" stroke="black" points="281,-38.5 281,-57.5 405,-57.5 405,-38.5 281,-38.5"/>
<text text-anchor="middle" x="343" y="-45.5" font-family="Helvetica,sans-Serif" font-size="10.00">PlayerController.Initialize</text>
</a>
</g>
</g>
<!-- Node4&#45;&gt;Node5 -->
<g id="edge4" class="edge">
<title>Node4&#45;&gt;Node5</title>
<path fill="none" stroke="midnightblue" d="M430.68,-48C422.19,-48 413.49,-48 405.03,-48"/>
<polygon fill="midnightblue" stroke="midnightblue" points="430.89,-51.5 440.89,-48 430.89,-44.5 430.89,-51.5"/>
</g>
<!-- Node6 -->
<g id="node6" class="node">
<title>Node6</title>
<g id="a_node6"><a xlink:href="class_model_sync.html#ab8359f73ae31a7f926c80ebcd7e9444a" target="_top" xlink:title="This starts all the initialization chain for the player.">
<polygon fill="none" stroke="black" points="135,-38.5 135,-57.5 245,-57.5 245,-38.5 135,-38.5"/>
<text text-anchor="middle" x="190" y="-45.5" font-family="Helvetica,sans-Serif" font-size="10.00">ModelSync.DoEnable</text>
</a>
</g>
</g>
<!-- Node5&#45;&gt;Node6 -->
<g id="edge5" class="edge">
<title>Node5&#45;&gt;Node6</title>
<path fill="none" stroke="midnightblue" d="M270.58,-48C262,-48 253.36,-48 245.09,-48"/>
<polygon fill="midnightblue" stroke="midnightblue" points="270.58,-51.5 280.58,-48 270.58,-44.5 270.58,-51.5"/>
</g>
<!-- Node7 -->
<g id="node7" class="node">
<title>Node7</title>
<g id="a_node7"><a xlink:href="class_model_sync.html#a47be08ee3bbd2a173514e74da3dd65cb" target="_top" xlink:title=" ">
<polygon fill="none" stroke="black" points="5,-57.5 5,-76.5 94,-76.5 94,-57.5 5,-57.5"/>
<text text-anchor="middle" x="49.5" y="-64.5" font-family="Helvetica,sans-Serif" font-size="10.00">ModelSync.Start</text>
</a>
</g>
</g>
<!-- Node6&#45;&gt;Node7 -->
<g id="edge6" class="edge">
<title>Node6&#45;&gt;Node7</title>
<path fill="none" stroke="midnightblue" d="M124.54,-56.84C114.35,-58.24 104.01,-59.66 94.43,-60.97"/>
<polygon fill="midnightblue" stroke="midnightblue" points="125.23,-60.28 134.66,-55.45 124.28,-53.35 125.23,-60.28"/>
</g>
<!-- Node8 -->
<g id="node8" class="node">
<title>Node8</title>
<g id="a_node8"><a xlink:href="class_model_sync.html#abf63af5a901636617cb742aab24c4d6f" target="_top" xlink:title=" ">
<polygon fill="none" stroke="black" points="0,-19.5 0,-38.5 99,-38.5 99,-19.5 0,-19.5"/>
<text text-anchor="middle" x="49.5" y="-26.5" font-family="Helvetica,sans-Serif" font-size="10.00">ModelSync.Update</text>
</a>
</g>
</g>
<!-- Node6&#45;&gt;Node8 -->
<g id="edge7" class="edge">
<title>Node6&#45;&gt;Node8</title>
<path fill="none" stroke="midnightblue" d="M124.7,-39.18C116.15,-38.01 107.51,-36.82 99.28,-35.69"/>
<polygon fill="midnightblue" stroke="midnightblue" points="124.28,-42.65 134.66,-40.55 125.23,-35.72 124.28,-42.65"/>
</g>
</g>
</svg>
