<?xml version="1.0" encoding="UTF-8" standalone="no"?>
<!DOCTYPE svg PUBLIC "-//W3C//DTD SVG 1.1//EN"
 "http://www.w3.org/Graphics/SVG/1.1/DTD/svg11.dtd">
<!-- Generated by graphviz version 2.47.3 (20210619.1520)
 -->
<!-- Title: Photon.Pun.PhotonEditor.ShowRegistrationWizard Pages: 1 -->
<svg width="304pt" height="39pt"
 viewBox="0.00 0.00 304.00 39.00" xmlns="http://www.w3.org/2000/svg" xmlns:xlink="http://www.w3.org/1999/xlink">
<g id="graph0" class="graph" transform="scale(1 1) rotate(0) translate(4 35)">
<title>Photon.Pun.PhotonEditor.ShowRegistrationWizard</title>
<polygon fill="white" stroke="transparent" points="-4,4 -4,-35 300,-35 300,4 -4,4"/>
<!-- Node1 -->
<g id="node1" class="node">
<title>Node1</title>
<g id="a_node1"><a xlink:title="Creates an Editor window, showing the cloud&#45;registration wizard for Photon (entry point to setup PUN)...">
<polygon fill="#bfbfbf" stroke="black" points="0,-0.5 0,-30.5 130,-30.5 130,-0.5 0,-0.5"/>
<text text-anchor="start" x="8" y="-18.5" font-family="Helvetica,sans-Serif" font-size="10.00">Photon.Pun.PhotonEditor.</text>
<text text-anchor="middle" x="65" y="-7.5" font-family="Helvetica,sans-Serif" font-size="10.00">ShowRegistrationWizard</text>
</a>
</g>
</g>
<!-- Node2 -->
<g id="node2" class="node">
<title>Node2</title>
<g id="a_node2"><a xlink:href="class_photon_1_1_pun_1_1_photon_editor.xhtml#af5392967445d7a3fac22f7ea39a5d812" target="_top" xlink:title=" ">
<polygon fill="white" stroke="black" points="166,-0.5 166,-30.5 296,-30.5 296,-0.5 166,-0.5"/>
<text text-anchor="start" x="174" y="-18.5" font-family="Helvetica,sans-Serif" font-size="10.00">Photon.Pun.PhotonEditor.</text>
<text text-anchor="middle" x="231" y="-7.5" font-family="Helvetica,sans-Serif" font-size="10.00">PhotonEditor</text>
</a>
</g>
</g>
<!-- Node1&#45;&gt;Node2 -->
<g id="edge1" class="edge">
<title>Node1&#45;&gt;Node2</title>
<path fill="none" stroke="midnightblue" d="M130.35,-15.5C138.64,-15.5 147.19,-15.5 155.62,-15.5"/>
<polygon fill="midnightblue" stroke="midnightblue" points="155.84,-19 165.84,-15.5 155.84,-12 155.84,-19"/>
</g>
</g>
</svg>
