<?xml version="1.0" encoding="UTF-8" standalone="no"?>
<!DOCTYPE svg PUBLIC "-//W3C//DTD SVG 1.1//EN"
 "http://www.w3.org/Graphics/SVG/1.1/DTD/svg11.dtd">
<!-- Generated by graphviz version 2.47.3 (20210619.1520)
 -->
<!-- Title: Photon.Pun.Demo.Cockpit.PlayerListView.SelectPlayer Pages: 1 -->
<svg width="1067pt" height="198pt"
 viewBox="0.00 0.00 1067.00 198.00" xmlns="http://www.w3.org/2000/svg" xmlns:xlink="http://www.w3.org/1999/xlink">
<g id="graph0" class="graph" transform="scale(1 1) rotate(0) translate(4 194)">
<title>Photon.Pun.Demo.Cockpit.PlayerListView.SelectPlayer</title>
<polygon fill="white" stroke="transparent" points="-4,4 -4,-194 1063,-194 1063,4 -4,4"/>
<!-- Node1 -->
<g id="node1" class="node">
<title>Node1</title>
<g id="a_node1"><a xlink:title=" ">
<polygon fill="#bfbfbf" stroke="black" points="0,-76.5 0,-106.5 140,-106.5 140,-76.5 0,-76.5"/>
<text text-anchor="start" x="8" y="-94.5" font-family="Helvetica,sans-Serif" font-size="10.00">Photon.Pun.Demo.Cockpit.</text>
<text text-anchor="middle" x="70" y="-83.5" font-family="Helvetica,sans-Serif" font-size="10.00">PlayerListView.SelectPlayer</text>
</a>
</g>
</g>
<!-- Node2 -->
<g id="node2" class="node">
<title>Node2</title>
<g id="a_node2"><a xlink:href="class_photon_1_1_pun_1_1_demo_1_1_cockpit_1_1_player_details_controller.xhtml#a776c1d2fe05ed563cfe017dd89070a46" target="_top" xlink:title=" ">
<polygon fill="white" stroke="black" points="176,-71 176,-112 337,-112 337,-71 176,-71"/>
<text text-anchor="start" x="184" y="-100" font-family="Helvetica,sans-Serif" font-size="10.00">Photon.Pun.Demo.Cockpit.</text>
<text text-anchor="start" x="184" y="-89" font-family="Helvetica,sans-Serif" font-size="10.00">PlayerDetailsController.SetPlayer</text>
<text text-anchor="middle" x="256.5" y="-78" font-family="Helvetica,sans-Serif" font-size="10.00">Target</text>
</a>
</g>
</g>
<!-- Node1&#45;&gt;Node2 -->
<g id="edge1" class="edge">
<title>Node1&#45;&gt;Node2</title>
<path fill="none" stroke="midnightblue" d="M140.23,-91.5C148.6,-91.5 157.25,-91.5 165.87,-91.5"/>
<polygon fill="midnightblue" stroke="midnightblue" points="165.96,-95 175.96,-91.5 165.96,-88 165.96,-95"/>
</g>
<!-- Node3 -->
<g id="node3" class="node">
<title>Node3</title>
<g id="a_node3"><a xlink:href="class_photon_1_1_pun_1_1_demo_1_1_cockpit_1_1_player_details_controller.xhtml#abae22d4d627b12989c84e6bda1543ec4" target="_top" xlink:title=" ">
<polygon fill="white" stroke="black" points="373,-159.5 373,-189.5 546,-189.5 546,-159.5 373,-159.5"/>
<text text-anchor="start" x="381" y="-177.5" font-family="Helvetica,sans-Serif" font-size="10.00">Photon.Pun.Demo.Cockpit.</text>
<text text-anchor="middle" x="459.5" y="-166.5" font-family="Helvetica,sans-Serif" font-size="10.00">PlayerDetailsController.AddProperty</text>
</a>
</g>
</g>
<!-- Node2&#45;&gt;Node3 -->
<g id="edge2" class="edge">
<title>Node2&#45;&gt;Node3</title>
<path fill="none" stroke="midnightblue" d="M294.17,-112.06C316.5,-124.03 345.86,-138.82 373,-149.5 378.95,-151.84 385.21,-154.08 391.52,-156.18"/>
<polygon fill="midnightblue" stroke="midnightblue" points="390.85,-159.65 401.44,-159.38 393,-152.98 390.85,-159.65"/>
</g>
<!-- Node7 -->
<g id="node7" class="node">
<title>Node7</title>
<g id="a_node7"><a xlink:href="class_photon_1_1_pun_1_1_demo_1_1_cockpit_1_1_player_details_controller.xhtml#a7f7ce880e8abd641554e67f86e56caa5" target="_top" xlink:title=" ">
<polygon fill="white" stroke="black" points="386.5,-99 386.5,-140 532.5,-140 532.5,-99 386.5,-99"/>
<text text-anchor="start" x="394.5" y="-128" font-family="Helvetica,sans-Serif" font-size="10.00">Photon.Pun.Demo.Cockpit.</text>
<text text-anchor="start" x="394.5" y="-117" font-family="Helvetica,sans-Serif" font-size="10.00">PlayerDetailsController.GetAll</text>
<text text-anchor="middle" x="459.5" y="-106" font-family="Helvetica,sans-Serif" font-size="10.00">PlayerBuiltIntProperties</text>
</a>
</g>
</g>
<!-- Node2&#45;&gt;Node7 -->
<g id="edge6" class="edge">
<title>Node2&#45;&gt;Node7</title>
<path fill="none" stroke="midnightblue" d="M337.23,-102.61C350.03,-104.39 363.3,-106.24 376.16,-108.03"/>
<polygon fill="midnightblue" stroke="midnightblue" points="375.98,-111.54 386.37,-109.45 376.95,-104.61 375.98,-111.54"/>
</g>
<!-- Node8 -->
<g id="node8" class="node">
<title>Node8</title>
<g id="a_node8"><a xlink:href="class_photon_1_1_pun_1_1_demo_1_1_cockpit_1_1_player_details_controller.xhtml#a2129f42f02c12000d9f2764184dccb3b" target="_top" xlink:title=" ">
<polygon fill="white" stroke="black" points="379,-49.5 379,-79.5 540,-79.5 540,-49.5 379,-49.5"/>
<text text-anchor="start" x="387" y="-67.5" font-family="Helvetica,sans-Serif" font-size="10.00">Photon.Pun.Demo.Cockpit.</text>
<text text-anchor="middle" x="459.5" y="-56.5" font-family="Helvetica,sans-Serif" font-size="10.00">PlayerDetailsController.ParseKey</text>
</a>
</g>
</g>
<!-- Node2&#45;&gt;Node8 -->
<g id="edge7" class="edge">
<title>Node2&#45;&gt;Node8</title>
<path fill="none" stroke="midnightblue" d="M337.23,-80.79C347.61,-79.4 358.3,-77.96 368.83,-76.54"/>
<polygon fill="midnightblue" stroke="midnightblue" points="369.42,-80 378.87,-75.2 368.49,-73.06 369.42,-80"/>
</g>
<!-- Node9 -->
<g id="node9" class="node">
<title>Node9</title>
<g id="a_node9"><a xlink:href="class_photon_1_1_pun_1_1_demo_1_1_cockpit_1_1_player_details_controller.xhtml#aed690ef755a9aea053c7644e04a30972" target="_top" xlink:title=" ">
<polygon fill="white" stroke="black" points="379.5,-0.5 379.5,-30.5 539.5,-30.5 539.5,-0.5 379.5,-0.5"/>
<text text-anchor="start" x="387.5" y="-18.5" font-family="Helvetica,sans-Serif" font-size="10.00">Photon.Pun.Demo.Cockpit.</text>
<text text-anchor="middle" x="459.5" y="-7.5" font-family="Helvetica,sans-Serif" font-size="10.00">PlayerDetailsController.ResetList</text>
</a>
</g>
</g>
<!-- Node2&#45;&gt;Node9 -->
<g id="edge8" class="edge">
<title>Node2&#45;&gt;Node9</title>
<path fill="none" stroke="midnightblue" d="M300.55,-70.88C322.04,-61 348.6,-49.41 373,-40.5 379.44,-38.15 386.22,-35.86 393.02,-33.69"/>
<polygon fill="midnightblue" stroke="midnightblue" points="394.46,-36.9 402.96,-30.59 392.37,-30.22 394.46,-36.9"/>
</g>
<!-- Node4 -->
<g id="node4" class="node">
<title>Node4</title>
<g id="a_node4"><a xlink:href="class_photon_1_1_pun_1_1_demo_1_1_cockpit_1_1_property_cell.xhtml#a08df30821595f55e1e081a0cd0299c99" target="_top" xlink:title=" ">
<polygon fill="white" stroke="black" points="582,-159.5 582,-189.5 717,-189.5 717,-159.5 582,-159.5"/>
<text text-anchor="start" x="590" y="-177.5" font-family="Helvetica,sans-Serif" font-size="10.00">Photon.Pun.Demo.Cockpit.</text>
<text text-anchor="middle" x="649.5" y="-166.5" font-family="Helvetica,sans-Serif" font-size="10.00">PropertyCell.AddToList</text>
</a>
</g>
</g>
<!-- Node3&#45;&gt;Node4 -->
<g id="edge3" class="edge">
<title>Node3&#45;&gt;Node4</title>
<path fill="none" stroke="midnightblue" d="M546.25,-174.5C554.72,-174.5 563.27,-174.5 571.65,-174.5"/>
<polygon fill="midnightblue" stroke="midnightblue" points="571.74,-178 581.74,-174.5 571.74,-171 571.74,-178"/>
</g>
<!-- Node5 -->
<g id="node5" class="node">
<title>Node5</title>
<g id="a_node5"><a xlink:href="class_photon_1_1_pun_1_1_demo_1_1_cockpit_1_1_property_cell.xhtml#a931845bc2e9c633224558d2abd8b3a6f" target="_top" xlink:title=" ">
<polygon fill="white" stroke="black" points="753,-159.5 753,-189.5 888,-189.5 888,-159.5 753,-159.5"/>
<text text-anchor="start" x="761" y="-177.5" font-family="Helvetica,sans-Serif" font-size="10.00">Photon.Pun.Demo.Cockpit.</text>
<text text-anchor="middle" x="820.5" y="-166.5" font-family="Helvetica,sans-Serif" font-size="10.00">PropertyCell.UpdateInfo</text>
</a>
</g>
</g>
<!-- Node4&#45;&gt;Node5 -->
<g id="edge4" class="edge">
<title>Node4&#45;&gt;Node5</title>
<path fill="none" stroke="midnightblue" d="M717.29,-174.5C725.62,-174.5 734.19,-174.5 742.66,-174.5"/>
<polygon fill="midnightblue" stroke="midnightblue" points="742.92,-178 752.92,-174.5 742.92,-171 742.92,-178"/>
</g>
<!-- Node6 -->
<g id="node6" class="node">
<title>Node6</title>
<g id="a_node6"><a xlink:href="class_photon_1_1_pun_1_1_demo_1_1_cockpit_1_1_property_cell.xhtml#a31fdb17d6a31c5f85468e815f4451c64" target="_top" xlink:title=" ">
<polygon fill="white" stroke="black" points="924,-159.5 924,-189.5 1059,-189.5 1059,-159.5 924,-159.5"/>
<text text-anchor="start" x="932" y="-177.5" font-family="Helvetica,sans-Serif" font-size="10.00">Photon.Pun.Demo.Cockpit.</text>
<text text-anchor="middle" x="991.5" y="-166.5" font-family="Helvetica,sans-Serif" font-size="10.00">PropertyCell.UpdateUIPing</text>
</a>
</g>
</g>
<!-- Node5&#45;&gt;Node6 -->
<g id="edge5" class="edge">
<title>Node5&#45;&gt;Node6</title>
<path fill="none" stroke="midnightblue" d="M888.29,-174.5C896.62,-174.5 905.19,-174.5 913.66,-174.5"/>
<polygon fill="midnightblue" stroke="midnightblue" points="913.92,-178 923.92,-174.5 913.92,-171 913.92,-178"/>
</g>
</g>
</svg>
