<?xml version="1.0" encoding="UTF-8" standalone="no"?>
<!DOCTYPE svg PUBLIC "-//W3C//DTD SVG 1.1//EN"
 "http://www.w3.org/Graphics/SVG/1.1/DTD/svg11.dtd">
<!-- Generated by graphviz version 2.47.3 (20210619.1520)
 -->
<!-- Title: Tayx.Graphy.Fps.G_FpsGraph.OnEnable Pages: 1 -->
<svg width="925pt" height="112pt"
 viewBox="0.00 0.00 925.00 112.00" xmlns="http://www.w3.org/2000/svg" xmlns:xlink="http://www.w3.org/1999/xlink">
<g id="graph0" class="graph" transform="scale(1 1) rotate(0) translate(4 108)">
<title>Tayx.Graphy.Fps.G_FpsGraph.OnEnable</title>
<polygon fill="white" stroke="transparent" points="-4,4 -4,-108 921,-108 921,4 -4,4"/>
<!-- Node1 -->
<g id="node1" class="node">
<title>Node1</title>
<g id="a_node1"><a xlink:title=" ">
<polygon fill="#bfbfbf" stroke="black" points="0,-24.5 0,-54.5 153,-54.5 153,-24.5 0,-24.5"/>
<text text-anchor="start" x="8" y="-42.5" font-family="Helvetica,sans-Serif" font-size="10.00">Tayx.Graphy.Fps.G_FpsGraph.</text>
<text text-anchor="middle" x="76.5" y="-31.5" font-family="Helvetica,sans-Serif" font-size="10.00">OnEnable</text>
</a>
</g>
</g>
<!-- Node2 -->
<g id="node2" class="node">
<title>Node2</title>
<g id="a_node2"><a xlink:href="class_tayx_1_1_graphy_1_1_fps_1_1_g___fps_graph.xhtml#ae642ded773ad3d174363a36139ce82ef" target="_top" xlink:title=" ">
<polygon fill="white" stroke="black" points="189,-30 189,-49 355,-49 355,-30 189,-30"/>
<text text-anchor="middle" x="272" y="-37" font-family="Helvetica,sans-Serif" font-size="10.00">Tayx.Graphy.Fps.G_FpsGraph.Init</text>
</a>
</g>
</g>
<!-- Node1&#45;&gt;Node2 -->
<g id="edge1" class="edge">
<title>Node1&#45;&gt;Node2</title>
<path fill="none" stroke="midnightblue" d="M153.14,-39.5C161.52,-39.5 170.13,-39.5 178.68,-39.5"/>
<polygon fill="midnightblue" stroke="midnightblue" points="178.69,-43 188.69,-39.5 178.69,-36 178.69,-43"/>
</g>
<!-- Node3 -->
<g id="node3" class="node">
<title>Node3</title>
<g id="a_node3"><a xlink:href="class_tayx_1_1_graphy_1_1_fps_1_1_g___fps_graph.xhtml#a3e2ae8087be00c2a8bcfcda9d1c3c50c" target="_top" xlink:title=" ">
<polygon fill="white" stroke="black" points="391,-24.5 391,-54.5 544,-54.5 544,-24.5 391,-24.5"/>
<text text-anchor="start" x="399" y="-42.5" font-family="Helvetica,sans-Serif" font-size="10.00">Tayx.Graphy.Fps.G_FpsGraph.</text>
<text text-anchor="middle" x="467.5" y="-31.5" font-family="Helvetica,sans-Serif" font-size="10.00">UpdateParameters</text>
</a>
</g>
</g>
<!-- Node2&#45;&gt;Node3 -->
<g id="edge2" class="edge">
<title>Node2&#45;&gt;Node3</title>
<path fill="none" stroke="midnightblue" d="M355.06,-39.5C363.48,-39.5 372.06,-39.5 380.52,-39.5"/>
<polygon fill="midnightblue" stroke="midnightblue" points="380.77,-43 390.77,-39.5 380.77,-36 380.77,-43"/>
</g>
<!-- Node4 -->
<g id="node4" class="node">
<title>Node4</title>
<g id="a_node4"><a xlink:href="class_tayx_1_1_graphy_1_1_fps_1_1_g___fps_graph.xhtml#ac85a9f98faa49d17ab7bac84c18785b1" target="_top" xlink:title="Creates the points for the graph/s.">
<polygon fill="white" stroke="black" points="580,-49.5 580,-79.5 733,-79.5 733,-49.5 580,-49.5"/>
<text text-anchor="start" x="588" y="-67.5" font-family="Helvetica,sans-Serif" font-size="10.00">Tayx.Graphy.Fps.G_FpsGraph.</text>
<text text-anchor="middle" x="656.5" y="-56.5" font-family="Helvetica,sans-Serif" font-size="10.00">CreatePoints</text>
</a>
</g>
</g>
<!-- Node3&#45;&gt;Node4 -->
<g id="edge3" class="edge">
<title>Node3&#45;&gt;Node4</title>
<path fill="none" stroke="midnightblue" d="M544.02,-49.6C552.47,-50.73 561.13,-51.88 569.7,-53.03"/>
<polygon fill="midnightblue" stroke="midnightblue" points="569.32,-56.51 579.7,-54.37 570.25,-49.57 569.32,-56.51"/>
</g>
<!-- Node7 -->
<g id="node7" class="node">
<title>Node7</title>
<g id="a_node7"><a xlink:href="class_tayx_1_1_graphy_1_1_g___graph_shader.xhtml#a531ef44ced25f9686183cc7c46ca3920" target="_top" xlink:title="This is done to avoid a design problem that arrays in shaders have, and should be called before initi...">
<polygon fill="white" stroke="black" points="582.5,-0.5 582.5,-30.5 730.5,-30.5 730.5,-0.5 582.5,-0.5"/>
<text text-anchor="start" x="590.5" y="-18.5" font-family="Helvetica,sans-Serif" font-size="10.00">Tayx.Graphy.G_GraphShader.</text>
<text text-anchor="middle" x="656.5" y="-7.5" font-family="Helvetica,sans-Serif" font-size="10.00">InitializeShader</text>
</a>
</g>
</g>
<!-- Node3&#45;&gt;Node7 -->
<g id="edge6" class="edge">
<title>Node3&#45;&gt;Node7</title>
<path fill="none" stroke="midnightblue" d="M544.02,-29.81C553.33,-28.61 562.88,-27.39 572.29,-26.18"/>
<polygon fill="midnightblue" stroke="midnightblue" points="572.95,-29.62 582.43,-24.88 572.06,-22.68 572.95,-29.62"/>
</g>
<!-- Node5 -->
<g id="node5" class="node">
<title>Node5</title>
<g id="a_node5"><a xlink:href="class_tayx_1_1_graphy_1_1_g___graph_shader.xhtml#ac039f519ec84d521e44bf8f9b90ff7e8" target="_top" xlink:title="Updates the material linked with this shader graph with the values in the float[] array.">
<polygon fill="white" stroke="black" points="769,-73.5 769,-103.5 917,-103.5 917,-73.5 769,-73.5"/>
<text text-anchor="start" x="777" y="-91.5" font-family="Helvetica,sans-Serif" font-size="10.00">Tayx.Graphy.G_GraphShader.</text>
<text text-anchor="middle" x="843" y="-80.5" font-family="Helvetica,sans-Serif" font-size="10.00">UpdateArray</text>
</a>
</g>
</g>
<!-- Node4&#45;&gt;Node5 -->
<g id="edge4" class="edge">
<title>Node4&#45;&gt;Node5</title>
<path fill="none" stroke="midnightblue" d="M733.08,-74.33C741.59,-75.44 750.29,-76.57 758.9,-77.69"/>
<polygon fill="midnightblue" stroke="midnightblue" points="758.56,-81.17 768.92,-78.99 759.46,-74.23 758.56,-81.17"/>
</g>
<!-- Node6 -->
<g id="node6" class="node">
<title>Node6</title>
<g id="a_node6"><a xlink:href="class_tayx_1_1_graphy_1_1_g___graph_shader.xhtml#ac4ec72181f804fc7e8516292bd3a5995" target="_top" xlink:title="Updates the colors in the material.">
<polygon fill="white" stroke="black" points="769,-24.5 769,-54.5 917,-54.5 917,-24.5 769,-24.5"/>
<text text-anchor="start" x="777" y="-42.5" font-family="Helvetica,sans-Serif" font-size="10.00">Tayx.Graphy.G_GraphShader.</text>
<text text-anchor="middle" x="843" y="-31.5" font-family="Helvetica,sans-Serif" font-size="10.00">UpdateColors</text>
</a>
</g>
</g>
<!-- Node4&#45;&gt;Node6 -->
<g id="edge5" class="edge">
<title>Node4&#45;&gt;Node6</title>
<path fill="none" stroke="midnightblue" d="M733.08,-54.26C741.59,-53.11 750.29,-51.93 758.9,-50.76"/>
<polygon fill="midnightblue" stroke="midnightblue" points="759.48,-54.21 768.92,-49.4 758.54,-47.28 759.48,-54.21"/>
</g>
</g>
</svg>
