<?xml version="1.0" encoding="UTF-8" standalone="no"?>
<!DOCTYPE svg PUBLIC "-//W3C//DTD SVG 1.1//EN"
 "http://www.w3.org/Graphics/SVG/1.1/DTD/svg11.dtd">
<!-- Generated by graphviz version 2.47.3 (20210619.1520)
 -->
<!-- Title: Photon.Realtime.Demo.ConnectAndJoinRandomLb.Start Pages: 1 -->
<svg width="1163pt" height="137pt"
 viewBox="0.00 0.00 1163.00 137.00" xmlns="http://www.w3.org/2000/svg" xmlns:xlink="http://www.w3.org/1999/xlink">
<g id="graph0" class="graph" transform="scale(1 1) rotate(0) translate(4 133)">
<title>Photon.Realtime.Demo.ConnectAndJoinRandomLb.Start</title>
<polygon fill="white" stroke="transparent" points="-4,4 -4,-133 1159,-133 1159,4 -4,4"/>
<!-- Node1 -->
<g id="node1" class="node">
<title>Node1</title>
<g id="a_node1"><a xlink:title=" ">
<polygon fill="#bfbfbf" stroke="black" points="0,-49.5 0,-79.5 156,-79.5 156,-49.5 0,-49.5"/>
<text text-anchor="start" x="8" y="-67.5" font-family="Helvetica,sans-Serif" font-size="10.00">Photon.Realtime.Demo.Connect</text>
<text text-anchor="middle" x="78" y="-56.5" font-family="Helvetica,sans-Serif" font-size="10.00">AndJoinRandomLb.Start</text>
</a>
</g>
</g>
<!-- Node2 -->
<g id="node2" class="node">
<title>Node2</title>
<g id="a_node2"><a xlink:href="class_photon_1_1_realtime_1_1_load_balancing_client.xhtml#a7eccc149073296a316965f2ce96d08d3" target="_top" xlink:title="Registers an object for callbacks for the implemented callback&#45;interfaces.">
<polygon fill="white" stroke="black" points="204,-98.5 204,-128.5 359,-128.5 359,-98.5 204,-98.5"/>
<text text-anchor="start" x="212" y="-116.5" font-family="Helvetica,sans-Serif" font-size="10.00">Photon.Realtime.LoadBalancing</text>
<text text-anchor="middle" x="281.5" y="-105.5" font-family="Helvetica,sans-Serif" font-size="10.00">Client.AddCallbackTarget</text>
</a>
</g>
</g>
<!-- Node1&#45;&gt;Node2 -->
<g id="edge1" class="edge">
<title>Node1&#45;&gt;Node2</title>
<path fill="none" stroke="midnightblue" d="M140.83,-79.53C162.39,-84.78 186.77,-90.71 209.05,-96.13"/>
<polygon fill="midnightblue" stroke="midnightblue" points="208.25,-99.53 218.79,-98.49 209.9,-92.73 208.25,-99.53"/>
</g>
<!-- Node3 -->
<g id="node3" class="node">
<title>Node3</title>
<g id="a_node3"><a xlink:href="class_photon_1_1_realtime_1_1_load_balancing_client.xhtml#af6bb8135f9b32d1b6ffa2956d19b943b" target="_top" xlink:title=" ">
<polygon fill="white" stroke="black" points="204,-49.5 204,-79.5 359,-79.5 359,-49.5 204,-49.5"/>
<text text-anchor="start" x="212" y="-67.5" font-family="Helvetica,sans-Serif" font-size="10.00">Photon.Realtime.LoadBalancing</text>
<text text-anchor="middle" x="281.5" y="-56.5" font-family="Helvetica,sans-Serif" font-size="10.00">Client.ConnectUsingSettings</text>
</a>
</g>
</g>
<!-- Node1&#45;&gt;Node3 -->
<g id="edge2" class="edge">
<title>Node1&#45;&gt;Node3</title>
<path fill="none" stroke="midnightblue" d="M156.04,-64.5C168.28,-64.5 181.01,-64.5 193.46,-64.5"/>
<polygon fill="midnightblue" stroke="midnightblue" points="193.83,-68 203.83,-64.5 193.83,-61 193.83,-68"/>
</g>
<!-- Node8 -->
<g id="node8" class="node">
<title>Node8</title>
<g id="a_node8"><a xlink:href="class_photon_1_1_realtime_1_1_connection_handler.xhtml#ad814fc7b6a0761684e69ef3a24a11dce" target="_top" xlink:title=" ">
<polygon fill="white" stroke="black" points="192,-0.5 192,-30.5 371,-30.5 371,-0.5 192,-0.5"/>
<text text-anchor="start" x="200" y="-18.5" font-family="Helvetica,sans-Serif" font-size="10.00">Photon.Realtime.Connection</text>
<text text-anchor="middle" x="281.5" y="-7.5" font-family="Helvetica,sans-Serif" font-size="10.00">Handler.StartFallbackSendAckThread</text>
</a>
</g>
</g>
<!-- Node1&#45;&gt;Node8 -->
<g id="edge8" class="edge">
<title>Node1&#45;&gt;Node8</title>
<path fill="none" stroke="midnightblue" d="M140.83,-49.47C162.39,-44.22 186.77,-38.29 209.05,-32.87"/>
<polygon fill="midnightblue" stroke="midnightblue" points="209.9,-36.27 218.79,-30.51 208.25,-29.47 209.9,-36.27"/>
</g>
<!-- Node4 -->
<g id="node4" class="node">
<title>Node4</title>
<g id="a_node4"><a xlink:href="class_photon_1_1_realtime_1_1_load_balancing_client.xhtml#a43a3b987e52c0e028ce1d5803b7b9507" target="_top" xlink:title=" ">
<polygon fill="white" stroke="black" points="407,-87.5 407,-117.5 580,-117.5 580,-87.5 407,-87.5"/>
<text text-anchor="start" x="415" y="-105.5" font-family="Helvetica,sans-Serif" font-size="10.00">Photon.Realtime.LoadBalancing</text>
<text text-anchor="middle" x="493.5" y="-94.5" font-family="Helvetica,sans-Serif" font-size="10.00">Client.CheckConnectSetupXboxOne</text>
</a>
</g>
</g>
<!-- Node3&#45;&gt;Node4 -->
<g id="edge3" class="edge">
<title>Node3&#45;&gt;Node4</title>
<path fill="none" stroke="midnightblue" d="M359.21,-78.38C372.18,-80.73 385.79,-83.19 399.13,-85.6"/>
<polygon fill="midnightblue" stroke="midnightblue" points="398.81,-89.1 409.28,-87.44 400.06,-82.22 398.81,-89.1"/>
</g>
<!-- Node5 -->
<g id="node5" class="node">
<title>Node5</title>
<g id="a_node5"><a xlink:href="class_photon_1_1_realtime_1_1_load_balancing_client.xhtml#a69dd43d4c7211b5b83cd54d0ebcf79e7" target="_top" xlink:title="Debug output of low level api (and this client).">
<polygon fill="white" stroke="black" points="617,-49.5 617,-79.5 772,-79.5 772,-49.5 617,-49.5"/>
<text text-anchor="start" x="625" y="-67.5" font-family="Helvetica,sans-Serif" font-size="10.00">Photon.Realtime.LoadBalancing</text>
<text text-anchor="middle" x="694.5" y="-56.5" font-family="Helvetica,sans-Serif" font-size="10.00">Client.DebugReturn</text>
</a>
</g>
</g>
<!-- Node3&#45;&gt;Node5 -->
<g id="edge7" class="edge">
<title>Node3&#45;&gt;Node5</title>
<path fill="none" stroke="midnightblue" d="M359.32,-64.5C429.56,-64.5 533.34,-64.5 606.58,-64.5"/>
<polygon fill="midnightblue" stroke="midnightblue" points="606.7,-68 616.7,-64.5 606.7,-61 606.7,-68"/>
</g>
<!-- Node4&#45;&gt;Node5 -->
<g id="edge4" class="edge">
<title>Node4&#45;&gt;Node5</title>
<path fill="none" stroke="midnightblue" d="M573.15,-87.48C584.13,-85.38 595.46,-83.22 606.58,-81.1"/>
<polygon fill="midnightblue" stroke="midnightblue" points="607.56,-84.47 616.72,-79.16 606.24,-77.6 607.56,-84.47"/>
</g>
<!-- Node6 -->
<g id="node6" class="node">
<title>Node6</title>
<g id="a_node6"><a xlink:href="class_photon_1_1_realtime_1_1_load_balancing_peer.xhtml#a7f48b5f0c44ef0c67ef32f147ff87246" target="_top" xlink:title="Creates a Peer with specified connection protocol.">
<polygon fill="white" stroke="black" points="809,-24.5 809,-54.5 964,-54.5 964,-24.5 809,-24.5"/>
<text text-anchor="start" x="817" y="-42.5" font-family="Helvetica,sans-Serif" font-size="10.00">Photon.Realtime.LoadBalancing</text>
<text text-anchor="middle" x="886.5" y="-31.5" font-family="Helvetica,sans-Serif" font-size="10.00">Peer.LoadBalancingPeer</text>
</a>
</g>
</g>
<!-- Node5&#45;&gt;Node6 -->
<g id="edge5" class="edge">
<title>Node5&#45;&gt;Node6</title>
<path fill="none" stroke="midnightblue" d="M772.23,-54.4C780.99,-53.25 789.96,-52.07 798.83,-50.9"/>
<polygon fill="midnightblue" stroke="midnightblue" points="799.33,-54.37 808.79,-49.59 798.42,-47.43 799.33,-54.37"/>
</g>
<!-- Node7 -->
<g id="node7" class="node">
<title>Node7</title>
<g id="a_node7"><a xlink:href="class_photon_1_1_realtime_1_1_load_balancing_peer.xhtml#affaff7e1fdffe86b25156ffac5e738c9" target="_top" xlink:title=" ">
<polygon fill="white" stroke="black" points="1000,-24.5 1000,-54.5 1155,-54.5 1155,-24.5 1000,-24.5"/>
<text text-anchor="start" x="1008" y="-42.5" font-family="Helvetica,sans-Serif" font-size="10.00">Photon.Realtime.LoadBalancing</text>
<text text-anchor="middle" x="1077.5" y="-31.5" font-family="Helvetica,sans-Serif" font-size="10.00">Peer.ConfigUnitySockets</text>
</a>
</g>
</g>
<!-- Node6&#45;&gt;Node7 -->
<g id="edge6" class="edge">
<title>Node6&#45;&gt;Node7</title>
<path fill="none" stroke="midnightblue" d="M964.1,-39.5C972.56,-39.5 981.22,-39.5 989.79,-39.5"/>
<polygon fill="midnightblue" stroke="midnightblue" points="989.79,-43 999.79,-39.5 989.79,-36 989.79,-43"/>
</g>
<!-- Node9 -->
<g id="node9" class="node">
<title>Node9</title>
<g id="a_node9"><a xlink:href="class_photon_1_1_realtime_1_1_connection_handler.xhtml#a780f42f9b50ecf72fba4ec2313679497" target="_top" xlink:title="A thread which runs independent from the Update() calls. Keeps connections online while loading or in...">
<polygon fill="white" stroke="black" points="616,-0.5 616,-30.5 773,-30.5 773,-0.5 616,-0.5"/>
<text text-anchor="start" x="624" y="-18.5" font-family="Helvetica,sans-Serif" font-size="10.00">Photon.Realtime.Connection</text>
<text text-anchor="middle" x="694.5" y="-7.5" font-family="Helvetica,sans-Serif" font-size="10.00">Handler.RealtimeFallbackThread</text>
</a>
</g>
</g>
<!-- Node8&#45;&gt;Node9 -->
<g id="edge9" class="edge">
<title>Node8&#45;&gt;Node9</title>
<path fill="none" stroke="midnightblue" d="M371.17,-15.5C440.56,-15.5 536.56,-15.5 605.72,-15.5"/>
<polygon fill="midnightblue" stroke="midnightblue" points="605.72,-19 615.72,-15.5 605.72,-12 605.72,-19"/>
</g>
<!-- Node9&#45;&gt;Node6 -->
<g id="edge10" class="edge">
<title>Node9&#45;&gt;Node6</title>
<path fill="none" stroke="midnightblue" d="M773.05,-25.3C781.54,-26.37 790.21,-27.46 798.79,-28.55"/>
<polygon fill="midnightblue" stroke="midnightblue" points="798.45,-32.03 808.81,-29.81 799.33,-25.09 798.45,-32.03"/>
</g>
</g>
</svg>
