<?xml version="1.0" encoding="UTF-8" standalone="no"?>
<!DOCTYPE svg PUBLIC "-//W3C//DTD SVG 1.1//EN"
 "http://www.w3.org/Graphics/SVG/1.1/DTD/svg11.dtd">
<!-- Generated by graphviz version 2.47.3 (20210619.1520)
 -->
<!-- Title: Photon.Pun.Demo.SlotRacer.Utils.BezierSplineInspector.ShowPoint Pages: 1 -->
<svg width="607pt" height="137pt"
 viewBox="0.00 0.00 607.00 137.00" xmlns="http://www.w3.org/2000/svg" xmlns:xlink="http://www.w3.org/1999/xlink">
<g id="graph0" class="graph" transform="scale(1 1) rotate(0) translate(4 133)">
<title>Photon.Pun.Demo.SlotRacer.Utils.BezierSplineInspector.ShowPoint</title>
<polygon fill="white" stroke="transparent" points="-4,4 -4,-133 603,-133 603,4 -4,4"/>
<!-- Node1 -->
<g id="node1" class="node">
<title>Node1</title>
<g id="a_node1"><a xlink:title=" ">
<polygon fill="#bfbfbf" stroke="black" points="0,-49.5 0,-79.5 183,-79.5 183,-49.5 0,-49.5"/>
<text text-anchor="start" x="8" y="-67.5" font-family="Helvetica,sans-Serif" font-size="10.00">Photon.Pun.Demo.SlotRacer.</text>
<text text-anchor="middle" x="91.5" y="-56.5" font-family="Helvetica,sans-Serif" font-size="10.00">Utils.BezierSplineInspector.ShowPoint</text>
</a>
</g>
</g>
<!-- Node2 -->
<g id="node2" class="node">
<title>Node2</title>
<g id="a_node2"><a xlink:href="class_photon_1_1_pun_1_1_demo_1_1_slot_racer_1_1_utils_1_1_bezier_spline.xhtml#a82b7b22d343a6ab62d76d9562c59beaf" target="_top" xlink:title=" ">
<polygon fill="white" stroke="black" points="231,-98.5 231,-128.5 397,-128.5 397,-98.5 231,-98.5"/>
<text text-anchor="start" x="239" y="-116.5" font-family="Helvetica,sans-Serif" font-size="10.00">Photon.Pun.Demo.SlotRacer.</text>
<text text-anchor="middle" x="314" y="-105.5" font-family="Helvetica,sans-Serif" font-size="10.00">Utils.BezierSpline.GetControlPoint</text>
</a>
</g>
</g>
<!-- Node1&#45;&gt;Node2 -->
<g id="edge1" class="edge">
<title>Node1&#45;&gt;Node2</title>
<path fill="none" stroke="midnightblue" d="M160.16,-79.53C183.97,-84.83 210.91,-90.81 235.47,-96.27"/>
<polygon fill="midnightblue" stroke="midnightblue" points="234.95,-99.74 245.47,-98.49 236.47,-92.91 234.95,-99.74"/>
</g>
<!-- Node3 -->
<g id="node3" class="node">
<title>Node3</title>
<g id="a_node3"><a xlink:href="class_photon_1_1_pun_1_1_demo_1_1_slot_racer_1_1_utils_1_1_bezier_spline.xhtml#a3b7d3dbe4bb98d09407bba590bffb9dd" target="_top" xlink:title=" ">
<polygon fill="white" stroke="black" points="219,-49.5 219,-79.5 409,-79.5 409,-49.5 219,-49.5"/>
<text text-anchor="start" x="227" y="-67.5" font-family="Helvetica,sans-Serif" font-size="10.00">Photon.Pun.Demo.SlotRacer.</text>
<text text-anchor="middle" x="314" y="-56.5" font-family="Helvetica,sans-Serif" font-size="10.00">Utils.BezierSpline.GetControlPointMode</text>
</a>
</g>
</g>
<!-- Node1&#45;&gt;Node3 -->
<g id="edge2" class="edge">
<title>Node1&#45;&gt;Node3</title>
<path fill="none" stroke="midnightblue" d="M183.14,-64.5C191.59,-64.5 200.2,-64.5 208.77,-64.5"/>
<polygon fill="midnightblue" stroke="midnightblue" points="208.78,-68 218.78,-64.5 208.78,-61 208.78,-68"/>
</g>
<!-- Node4 -->
<g id="node4" class="node">
<title>Node4</title>
<g id="a_node4"><a xlink:href="class_photon_1_1_pun_1_1_demo_1_1_slot_racer_1_1_utils_1_1_bezier_spline.xhtml#aa32483d6a9ccf491be4d29fafa2b1d1d" target="_top" xlink:title=" ">
<polygon fill="white" stroke="black" points="231.5,-0.5 231.5,-30.5 396.5,-30.5 396.5,-0.5 231.5,-0.5"/>
<text text-anchor="start" x="239.5" y="-18.5" font-family="Helvetica,sans-Serif" font-size="10.00">Photon.Pun.Demo.SlotRacer.</text>
<text text-anchor="middle" x="314" y="-7.5" font-family="Helvetica,sans-Serif" font-size="10.00">Utils.BezierSpline.SetControlPoint</text>
</a>
</g>
</g>
<!-- Node1&#45;&gt;Node4 -->
<g id="edge3" class="edge">
<title>Node1&#45;&gt;Node4</title>
<path fill="none" stroke="midnightblue" d="M160.16,-49.47C183.97,-44.17 210.91,-38.19 235.47,-32.73"/>
<polygon fill="midnightblue" stroke="midnightblue" points="236.47,-36.09 245.47,-30.51 234.95,-29.26 236.47,-36.09"/>
</g>
<!-- Node5 -->
<g id="node5" class="node">
<title>Node5</title>
<g id="a_node5"><a xlink:href="class_photon_1_1_pun_1_1_demo_1_1_slot_racer_1_1_utils_1_1_bezier_spline.xhtml#a0bde4c9556d81c9fad24badb65749797" target="_top" xlink:title=" ">
<polygon fill="white" stroke="black" points="445,-0.5 445,-30.5 599,-30.5 599,-0.5 445,-0.5"/>
<text text-anchor="start" x="453" y="-18.5" font-family="Helvetica,sans-Serif" font-size="10.00">Photon.Pun.Demo.SlotRacer.</text>
<text text-anchor="middle" x="522" y="-7.5" font-family="Helvetica,sans-Serif" font-size="10.00">Utils.BezierSpline.EnforceMode</text>
</a>
</g>
</g>
<!-- Node4&#45;&gt;Node5 -->
<g id="edge4" class="edge">
<title>Node4&#45;&gt;Node5</title>
<path fill="none" stroke="midnightblue" d="M396.71,-15.5C409.21,-15.5 422.15,-15.5 434.74,-15.5"/>
<polygon fill="midnightblue" stroke="midnightblue" points="434.75,-19 444.75,-15.5 434.75,-12 434.75,-19"/>
</g>
</g>
</svg>
