<?xml version="1.0" encoding="UTF-8" standalone="no"?>
<!DOCTYPE svg PUBLIC "-//W3C//DTD SVG 1.1//EN"
 "http://www.w3.org/Graphics/SVG/1.1/DTD/svg11.dtd">
<!-- Generated by graphviz version 2.47.3 (20210619.1520)
 -->
<!-- Title: BasicAttack Pages: 1 -->
<!--zoomable 574 -->
<svg id="main" version="1.1" xmlns="http://www.w3.org/2000/svg" xmlns:xlink="http://www.w3.org/1999/xlink" xml:space="preserve" onload="init(evt)">
<style type="text/css"><![CDATA[
.edge:hover path { stroke: red; }
.edge:hover polygon { stroke: red; fill: red; }
]]></style>
<script type="text/javascript"><![CDATA[
var edges = document.getElementsByTagName('g');
if (edges && edges.length) {
  for (var i=0;i<edges.length;i++) {
    if (edges[i].id.substr(0,4)=='edge') {
      edges[i].setAttribute('class','edge');
    }
  }
}
]]></script>
        <defs>
                <circle id="rim" cx="0" cy="0" r="7"/>
                <circle id="rim2" cx="0" cy="0" r="3.5"/>
                <g id="zoomPlus">
                        <use xlink:href="#rim" fill="#404040">
                                <set attributeName="fill" to="#808080" begin="zoomplus.mouseover" end="zoomplus.mouseout"/>
                        </use>
                        <path d="M-4,0h8M0,-4v8" fill="none" stroke="white" stroke-width="1.5" pointer-events="none"/>
                </g>
                <g id="zoomMin">
                        <use xlink:href="#rim" fill="#404040">
                                <set attributeName="fill" to="#808080" begin="zoomminus.mouseover" end="zoomminus.mouseout"/>
                        </use>
                        <path d="M-4,0h8" fill="none" stroke="white" stroke-width="1.5" pointer-events="none"/>
                </g>
                <g id="dirArrow">
                        <path fill="none" stroke="white" stroke-width="1.5" d="M0,-3.0v7 M-2.5,-0.5L0,-3.0L2.5,-0.5"/>
                </g>
               <g id="resetDef">
                       <use xlink:href="#rim2" fill="#404040">
                               <set attributeName="fill" to="#808080" begin="reset.mouseover" end="reset.mouseout"/>
                       </use>
               </g>
        </defs>

<script type="text/javascript">
var viewWidth = 764;
var viewHeight = 574;
var sectionId = 'dynsection-1';
</script>
<script xlink:href="svgpan.js"/>
<svg id="graph" class="graph">
<g id="viewport">
<title>BasicAttack</title>
<polygon fill="white" stroke="transparent" points="-4,4 -4,-570 760,-570 760,4 -4,4"/>
<!-- Node1 -->
<g id="node1" class="node">
<title>Node1</title>
<g id="a_node1"><a xlink:title=" ">
<polygon fill="#bfbfbf" stroke="black" points="301,-278.5 301,-297.5 371,-297.5 371,-278.5 301,-278.5"/>
<text text-anchor="middle" x="336" y="-285.5" font-family="Helvetica,sans-Serif" font-size="10.00">BasicAttack</text>
</a>
</g>
</g>
<!-- Node3 -->
<g id="node3" class="node">
<title>Node3</title>
<g id="a_node3"><a xlink:href="class_player_controller.xhtml" target="_top" xlink:title="Player Controller is the main class that handles all the movement of the Player.">
<polygon fill="white" stroke="black" points="372,-201.5 372,-220.5 458,-220.5 458,-201.5 372,-201.5"/>
<text text-anchor="middle" x="415" y="-208.5" font-family="Helvetica,sans-Serif" font-size="10.00">PlayerController</text>
</a>
</g>
</g>
<!-- Node1&#45;&gt;Node3 -->
<g id="edge30" class="edge">
<title>Node1&#45;&gt;Node3</title>
<path fill="none" stroke="#9a32cd" stroke-dasharray="5,2" d="M361.06,-273.26C367.58,-269.11 374.35,-264.25 380,-259 392.52,-247.37 403.68,-230.76 409.87,-220.72"/>
<polygon fill="#9a32cd" stroke="#9a32cd" points="359.23,-270.28 352.47,-278.44 362.84,-276.28 359.23,-270.28"/>
<text text-anchor="middle" x="423.5" y="-246.5" font-family="Helvetica,sans-Serif" font-size="10.00"> basicAttack</text>
</g>
<!-- Node2 -->
<g id="node2" class="node">
<title>Node2</title>
<g id="a_node2"><a xlink:title=" ">
<polygon fill="white" stroke="#bfbfbf" points="223.5,-422.5 223.5,-441.5 306.5,-441.5 306.5,-422.5 223.5,-422.5"/>
<text text-anchor="middle" x="265" y="-429.5" font-family="Helvetica,sans-Serif" font-size="10.00">MonoBehaviour</text>
</a>
</g>
</g>
<!-- Node2&#45;&gt;Node1 -->
<g id="edge1" class="edge">
<title>Node2&#45;&gt;Node1</title>
<path fill="none" stroke="midnightblue" d="M276.88,-413.87C289.2,-395.52 308.4,-365.21 321,-337 326.91,-323.77 331.46,-307.51 333.93,-297.72"/>
<polygon fill="midnightblue" stroke="midnightblue" points="273.87,-412.07 271.14,-422.3 279.66,-416.01 273.87,-412.07"/>
</g>
<!-- Node2&#45;&gt;Node3 -->
<g id="edge3" class="edge">
<title>Node2&#45;&gt;Node3</title>
<path fill="none" stroke="midnightblue" d="M290.64,-417.56C334.37,-392.98 421.84,-336.11 455,-259 458.51,-250.83 459.17,-246.85 455,-239 450.75,-231.01 442.97,-224.96 435.39,-220.63"/>
<polygon fill="midnightblue" stroke="midnightblue" points="288.84,-414.56 281.76,-422.45 292.21,-420.7 288.84,-414.56"/>
</g>
<!-- Node4 -->
<g id="node4" class="node">
<title>Node4</title>
<g id="a_node4"><a xlink:href="class_ability_cooldown.xhtml" target="_top" xlink:title=" ">
<polygon fill="white" stroke="black" points="437,-67.5 437,-86.5 523,-86.5 523,-67.5 437,-67.5"/>
<text text-anchor="middle" x="480" y="-74.5" font-family="Helvetica,sans-Serif" font-size="10.00">AbilityCooldown</text>
</a>
</g>
</g>
<!-- Node2&#45;&gt;Node4 -->
<g id="edge5" class="edge">
<title>Node2&#45;&gt;Node4</title>
<path fill="none" stroke="midnightblue" d="M316.65,-429.13C400.88,-425.02 562.62,-412.37 604,-375 646.73,-336.41 638,-307.57 638,-250 638,-250 638,-250 638,-143 638,-93.17 569.96,-80.75 523.17,-78.1"/>
<polygon fill="midnightblue" stroke="midnightblue" points="316.35,-425.64 306.53,-429.6 316.68,-432.63 316.35,-425.64"/>
</g>
<!-- Node8 -->
<g id="node8" class="node">
<title>Node8</title>
<g id="a_node8"><a xlink:href="class_ability_indicator.xhtml" target="_top" xlink:title=" ">
<polygon fill="white" stroke="black" points="440,-0.5 440,-19.5 520,-19.5 520,-0.5 440,-0.5"/>
<text text-anchor="middle" x="480" y="-7.5" font-family="Helvetica,sans-Serif" font-size="10.00">AbilityIndicator</text>
</a>
</g>
</g>
<!-- Node2&#45;&gt;Node8 -->
<g id="edge12" class="edge">
<title>Node2&#45;&gt;Node8</title>
<path fill="none" stroke="midnightblue" d="M213.29,-428.77C136.17,-424.02 0,-409.47 0,-366 0,-366 0,-366 0,-76 0,-31.75 324.54,-16.32 439.9,-12.24"/>
<polygon fill="midnightblue" stroke="midnightblue" points="213.12,-432.27 223.3,-429.35 213.52,-425.28 213.12,-432.27"/>
</g>
<!-- Node11 -->
<g id="node11" class="node">
<title>Node11</title>
<g id="a_node11"><a xlink:href="class_stats.xhtml" target="_top" xlink:title="Base class Stats of the entity.">
<polygon fill="white" stroke="black" points="245,-355.5 245,-374.5 285,-374.5 285,-355.5 245,-355.5"/>
<text text-anchor="middle" x="265" y="-362.5" font-family="Helvetica,sans-Serif" font-size="10.00">Stats</text>
</a>
</g>
</g>
<!-- Node2&#45;&gt;Node11 -->
<g id="edge18" class="edge">
<title>Node2&#45;&gt;Node11</title>
<path fill="none" stroke="midnightblue" d="M265,-412.04C265,-399.67 265,-384.12 265,-374.63"/>
<polygon fill="midnightblue" stroke="midnightblue" points="261.5,-412.23 265,-422.23 268.5,-412.23 261.5,-412.23"/>
</g>
<!-- Node13 -->
<g id="node13" class="node">
<title>Node13</title>
<g id="a_node13"><a xlink:href="class_u_i_controller.xhtml" target="_top" xlink:title=" ">
<polygon fill="white" stroke="black" points="148.5,-355.5 148.5,-374.5 215.5,-374.5 215.5,-355.5 148.5,-355.5"/>
<text text-anchor="middle" x="182" y="-362.5" font-family="Helvetica,sans-Serif" font-size="10.00">UIController</text>
</a>
</g>
</g>
<!-- Node2&#45;&gt;Node13 -->
<g id="edge21" class="edge">
<title>Node2&#45;&gt;Node13</title>
<path fill="none" stroke="midnightblue" d="M245.93,-416.07C229.55,-403.24 206.5,-385.19 193.02,-374.63"/>
<polygon fill="midnightblue" stroke="midnightblue" points="243.78,-418.82 253.81,-422.23 248.09,-413.31 243.78,-418.82"/>
</g>
<!-- Node14 -->
<g id="node14" class="node">
<title>Node14</title>
<g id="a_node14"><a xlink:href="class_inventory.xhtml" target="_top" xlink:title=" ">
<polygon fill="white" stroke="black" points="55.5,-317.5 55.5,-336.5 110.5,-336.5 110.5,-317.5 55.5,-317.5"/>
<text text-anchor="middle" x="83" y="-324.5" font-family="Helvetica,sans-Serif" font-size="10.00">Inventory</text>
</a>
</g>
</g>
<!-- Node2&#45;&gt;Node14 -->
<g id="edge25" class="edge">
<title>Node2&#45;&gt;Node14</title>
<path fill="none" stroke="midnightblue" d="M230.83,-418.82C204.72,-408.81 168.35,-393.33 139,-375 120.91,-363.71 102.45,-346.99 91.89,-336.84"/>
<polygon fill="midnightblue" stroke="midnightblue" points="229.71,-422.14 240.3,-422.38 232.17,-415.58 229.71,-422.14"/>
</g>
<!-- Node3&#45;&gt;Node1 -->
<g id="edge2" class="edge">
<title>Node3&#45;&gt;Node1</title>
<path fill="none" stroke="#9a32cd" stroke-dasharray="5,2" d="M362.35,-220.49C352.46,-224.51 343.26,-230.4 337,-239 328.66,-250.46 330.96,-267.86 333.44,-278.27"/>
<polygon fill="#9a32cd" stroke="#9a32cd" points="363.66,-223.74 371.98,-217.18 361.39,-217.12 363.66,-223.74"/>
<text text-anchor="middle" x="358.5" y="-246.5" font-family="Helvetica,sans-Serif" font-size="10.00"> controller</text>
</g>
<!-- Node3&#45;&gt;Node4 -->
<g id="edge6" class="edge">
<title>Node3&#45;&gt;Node4</title>
<path fill="none" stroke="#9a32cd" stroke-dasharray="5,2" d="M414.92,-190.84C415.57,-174.88 418.17,-151.94 427,-134 436.81,-114.06 456.18,-96.43 468.59,-86.5"/>
<polygon fill="#9a32cd" stroke="#9a32cd" points="411.42,-191 414.74,-201.06 418.42,-191.12 411.42,-191"/>
<text text-anchor="middle" x="462.5" y="-141.5" font-family="Helvetica,sans-Serif" font-size="10.00"> playerController</text>
</g>
<!-- Node9 -->
<g id="node9" class="node">
<title>Node9</title>
<g id="a_node9"><a xlink:href="class_player_stats.xhtml" target="_top" xlink:title="Player Stats is the main class that controls all the Player Statistics in all time in the game execut...">
<polygon fill="white" stroke="black" points="227,-134.5 227,-153.5 295,-153.5 295,-134.5 227,-134.5"/>
<text text-anchor="middle" x="261" y="-141.5" font-family="Helvetica,sans-Serif" font-size="10.00">PlayerStats</text>
</a>
</g>
</g>
<!-- Node3&#45;&gt;Node9 -->
<g id="edge22" class="edge">
<title>Node3&#45;&gt;Node9</title>
<path fill="none" stroke="#9a32cd" stroke-dasharray="5,2" d="M380.78,-197.86C368.74,-193.41 355.19,-188.19 343,-183 332.57,-178.56 330.26,-176.8 320,-172 306.63,-165.75 291.5,-158.82 279.9,-153.55"/>
<polygon fill="#9a32cd" stroke="#9a32cd" points="379.87,-201.26 390.46,-201.4 382.27,-194.68 379.87,-201.26"/>
<text text-anchor="middle" x="378.5" y="-175" font-family="Helvetica,sans-Serif" font-size="10.00"> playerController</text>
</g>
<!-- Node4&#45;&gt;Node3 -->
<g id="edge4" class="edge">
<title>Node4&#45;&gt;Node3</title>
<path fill="none" stroke="#9a32cd" stroke-dasharray="5,2" d="M492.51,-95.73C502.11,-111.69 512.13,-135.43 502,-154 489.01,-177.81 461.08,-193.02 440.35,-201.48"/>
<polygon fill="#9a32cd" stroke="#9a32cd" points="495.17,-93.38 486.78,-86.91 489.3,-97.2 495.17,-93.38"/>
<text text-anchor="middle" x="544" y="-141.5" font-family="Helvetica,sans-Serif" font-size="10.00"> abilityCooldowns</text>
</g>
<!-- Node4&#45;&gt;Node8 -->
<g id="edge14" class="edge">
<title>Node4&#45;&gt;Node8</title>
<path fill="none" stroke="#9a32cd" stroke-dasharray="5,2" d="M452.49,-61.96C443.68,-55.46 437.28,-47.14 442,-38 446.08,-30.09 453.67,-23.99 461,-19.61"/>
<polygon fill="#9a32cd" stroke="#9a32cd" points="450.69,-64.97 461.01,-67.4 454.46,-59.07 450.69,-64.97"/>
<text text-anchor="middle" x="465.5" y="-41" font-family="Helvetica,sans-Serif" font-size="10.00"> currentCD</text>
</g>
<!-- Node4&#45;&gt;Node9 -->
<g id="edge23" class="edge">
<title>Node4&#45;&gt;Node9</title>
<path fill="none" stroke="#9a32cd" stroke-dasharray="5,2" d="M426.73,-80.8C364.35,-84.63 268.09,-92.49 257,-105 249.96,-112.94 253.28,-125.8 256.76,-134.33"/>
<polygon fill="#9a32cd" stroke="#9a32cd" points="427.03,-84.28 436.81,-80.19 426.62,-77.3 427.03,-84.28"/>
<text text-anchor="middle" x="295" y="-108" font-family="Helvetica,sans-Serif" font-size="10.00"> abilityCooldowns</text>
</g>
<!-- Node5 -->
<g id="node5" class="node">
<title>Node5</title>
<g id="a_node5"><a xlink:href="class_ability.xhtml" target="_top" xlink:title=" ">
<polygon fill="white" stroke="black" points="642,-422.5 642,-441.5 686,-441.5 686,-422.5 642,-422.5"/>
<text text-anchor="middle" x="664" y="-429.5" font-family="Helvetica,sans-Serif" font-size="10.00">Ability</text>
</a>
</g>
</g>
<!-- Node5&#45;&gt;Node4 -->
<g id="edge7" class="edge">
<title>Node5&#45;&gt;Node4</title>
<path fill="none" stroke="#9a32cd" stroke-dasharray="5,2" d="M669.32,-412.3C672.53,-399.4 676,-381.8 676,-366 676,-366 676,-366 676,-143 676,-123.02 668.69,-115.97 652,-105 631.35,-91.43 566.92,-84.18 523.05,-80.71"/>
<polygon fill="#9a32cd" stroke="#9a32cd" points="665.86,-411.7 666.66,-422.26 672.62,-413.5 665.86,-411.7"/>
<text text-anchor="middle" x="690.5" y="-246.5" font-family="Helvetica,sans-Serif" font-size="10.00"> ability</text>
</g>
<!-- Node5&#45;&gt;Node8 -->
<g id="edge13" class="edge">
<title>Node5&#45;&gt;Node8</title>
<path fill="none" stroke="#9a32cd" stroke-dasharray="5,2" d="M688.06,-416.73C704.01,-405.27 722,-387.57 722,-366 722,-366 722,-366 722,-76 722,-34.73 589.05,-18.93 520.23,-13.51"/>
<polygon fill="#9a32cd" stroke="#9a32cd" points="685.9,-413.96 679.54,-422.44 689.8,-419.78 685.9,-413.96"/>
<text text-anchor="middle" x="739" y="-208.5" font-family="Helvetica,sans-Serif" font-size="10.00"> current</text>
</g>
<!-- Node15 -->
<g id="node15" class="node">
<title>Node15</title>
<g id="a_node15"><a xlink:href="class_character.xhtml" target="_top" xlink:title=" ">
<polygon fill="white" stroke="black" points="535.5,-355.5 535.5,-374.5 594.5,-374.5 594.5,-355.5 535.5,-355.5"/>
<text text-anchor="middle" x="565" y="-362.5" font-family="Helvetica,sans-Serif" font-size="10.00">Character</text>
</a>
</g>
</g>
<!-- Node5&#45;&gt;Node15 -->
<g id="edge28" class="edge">
<title>Node5&#45;&gt;Node15</title>
<path fill="none" stroke="#9a32cd" stroke-dasharray="5,2" d="M642.06,-416.59C622.47,-403.74 594.44,-385.33 578.14,-374.63"/>
<polygon fill="#9a32cd" stroke="#9a32cd" points="640.37,-419.67 650.65,-422.23 644.21,-413.82 640.37,-419.67"/>
<text text-anchor="middle" x="638.5" y="-396" font-family="Helvetica,sans-Serif" font-size="10.00"> abilities</text>
</g>
<!-- Node6 -->
<g id="node6" class="node">
<title>Node6</title>
<g id="a_node6"><a xlink:title=" ">
<polygon fill="white" stroke="#bfbfbf" points="570.5,-546.5 570.5,-565.5 659.5,-565.5 659.5,-546.5 570.5,-546.5"/>
<text text-anchor="middle" x="615" y="-553.5" font-family="Helvetica,sans-Serif" font-size="10.00">ScriptableObject</text>
</a>
</g>
</g>
<!-- Node6&#45;&gt;Node5 -->
<g id="edge8" class="edge">
<title>Node6&#45;&gt;Node5</title>
<path fill="none" stroke="midnightblue" d="M619.66,-536.37C623.25,-522.97 628.66,-504.6 635,-489 642.01,-471.76 652.5,-452.72 658.75,-441.88"/>
<polygon fill="midnightblue" stroke="midnightblue" points="616.21,-535.72 617.1,-546.28 622.99,-537.48 616.21,-535.72"/>
</g>
<!-- Node7 -->
<g id="node7" class="node">
<title>Node7</title>
<g id="a_node7"><a xlink:href="class_effect.xhtml" target="_top" xlink:title=" ">
<polygon fill="white" stroke="black" points="643.5,-489.5 643.5,-508.5 684.5,-508.5 684.5,-489.5 643.5,-489.5"/>
<text text-anchor="middle" x="664" y="-496.5" font-family="Helvetica,sans-Serif" font-size="10.00">Effect</text>
</a>
</g>
</g>
<!-- Node6&#45;&gt;Node7 -->
<g id="edge10" class="edge">
<title>Node6&#45;&gt;Node7</title>
<path fill="none" stroke="midnightblue" d="M629.41,-538.83C638.18,-528.98 649.05,-516.78 656.24,-508.71"/>
<polygon fill="midnightblue" stroke="midnightblue" points="626.7,-536.61 622.66,-546.41 631.92,-541.27 626.7,-536.61"/>
</g>
<!-- Node6&#45;&gt;Node15 -->
<g id="edge27" class="edge">
<title>Node6&#45;&gt;Node15</title>
<path fill="none" stroke="midnightblue" d="M610.15,-536.66C599.6,-496.79 574.93,-403.52 567.29,-374.66"/>
<polygon fill="midnightblue" stroke="midnightblue" points="606.78,-537.62 612.72,-546.39 613.55,-535.83 606.78,-537.62"/>
</g>
<!-- Node7&#45;&gt;Node5 -->
<g id="edge9" class="edge">
<title>Node7&#45;&gt;Node5</title>
<path fill="none" stroke="#9a32cd" stroke-dasharray="5,2" d="M664,-479.04C664,-466.67 664,-451.12 664,-441.63"/>
<polygon fill="#9a32cd" stroke="#9a32cd" points="660.5,-479.23 664,-489.23 667.5,-479.23 660.5,-479.23"/>
<text text-anchor="middle" x="699" y="-463" font-family="Helvetica,sans-Serif" font-size="10.00"> toAuthorEffects</text>
</g>
<!-- Node8&#45;&gt;Node4 -->
<g id="edge11" class="edge">
<title>Node8&#45;&gt;Node4</title>
<path fill="none" stroke="#9a32cd" stroke-dasharray="5,2" d="M490.35,-28.61C492.92,-34.95 494.55,-42.22 493,-49 491.52,-55.49 488.27,-62.24 485.39,-67.37"/>
<polygon fill="#9a32cd" stroke="#9a32cd" points="493.45,-26.99 485.86,-19.6 487.19,-30.11 493.45,-26.99"/>
<text text-anchor="middle" x="526" y="-41" font-family="Helvetica,sans-Serif" font-size="10.00"> abilityIndicator</text>
</g>
<!-- Node9&#45;&gt;Node1 -->
<g id="edge33" class="edge">
<title>Node9&#45;&gt;Node1</title>
<path fill="none" stroke="#9a32cd" stroke-dasharray="5,2" d="M267.59,-163.28C270.03,-169.61 272.96,-176.7 276,-183 293.67,-219.61 319.23,-260.79 330.41,-278.33"/>
<polygon fill="#9a32cd" stroke="#9a32cd" points="270.76,-161.76 263.99,-153.61 264.2,-164.2 270.76,-161.76"/>
<text text-anchor="middle" x="307.5" y="-208.5" font-family="Helvetica,sans-Serif" font-size="10.00"> stats</text>
</g>
<!-- Node9&#45;&gt;Node3 -->
<g id="edge29" class="edge">
<title>Node9&#45;&gt;Node3</title>
<path fill="none" stroke="#9a32cd" stroke-dasharray="5,2" d="M270.96,-162.44C276.05,-169.85 282.88,-177.93 291,-183 315.2,-198.12 346.64,-204.85 371.81,-207.81"/>
<polygon fill="#9a32cd" stroke="#9a32cd" points="273.76,-160.31 265.49,-153.69 267.83,-164.02 273.76,-160.31"/>
<text text-anchor="middle" x="303.5" y="-175" font-family="Helvetica,sans-Serif" font-size="10.00"> stats</text>
</g>
<!-- Node9&#45;&gt;Node4 -->
<g id="edge15" class="edge">
<title>Node9&#45;&gt;Node4</title>
<path fill="none" stroke="#9a32cd" stroke-dasharray="5,2" d="M297.09,-131.05C309.81,-126.61 324.14,-121.34 337,-116 347.46,-111.65 349.29,-108.71 360,-105 384.92,-96.36 413.72,-89.77 436.86,-85.27"/>
<polygon fill="#9a32cd" stroke="#9a32cd" points="295.6,-127.86 287.29,-134.42 297.88,-134.48 295.6,-127.86"/>
<text text-anchor="middle" x="386.5" y="-108" font-family="Helvetica,sans-Serif" font-size="10.00"> playerStats</text>
</g>
<!-- Node10 -->
<g id="node10" class="node">
<title>Node10</title>
<g id="a_node10"><a xlink:href="class_ability_affected_stats.xhtml" target="_top" xlink:title="Base class Stats of the entity who is affected by Abilities.">
<polygon fill="white" stroke="black" points="186,-239.5 186,-258.5 288,-258.5 288,-239.5 186,-239.5"/>
<text text-anchor="middle" x="237" y="-246.5" font-family="Helvetica,sans-Serif" font-size="10.00">AbilityAffectedStats</text>
</a>
</g>
</g>
<!-- Node10&#45;&gt;Node9 -->
<g id="edge16" class="edge">
<title>Node10&#45;&gt;Node9</title>
<path fill="none" stroke="midnightblue" d="M239.08,-229.07C241.05,-213.54 244.55,-191.08 250,-172 251.78,-165.77 254.53,-159.02 256.83,-153.83"/>
<polygon fill="midnightblue" stroke="midnightblue" points="235.55,-229.09 237.85,-239.43 242.5,-229.91 235.55,-229.09"/>
</g>
<!-- Node11&#45;&gt;Node1 -->
<g id="edge31" class="edge">
<title>Node11&#45;&gt;Node1</title>
<path fill="none" stroke="#9a32cd" stroke-dasharray="5,2" d="M263.73,-345.16C264.04,-335.84 265.94,-324.92 272,-317 279.15,-307.66 290.07,-301.37 300.88,-297.17"/>
<polygon fill="#9a32cd" stroke="#9a32cd" points="260.23,-345.5 263.95,-355.42 267.23,-345.35 260.23,-345.5"/>
<text text-anchor="middle" x="296.5" y="-324.5" font-family="Helvetica,sans-Serif" font-size="10.00"> otherStats</text>
</g>
<!-- Node11&#45;&gt;Node10 -->
<g id="edge17" class="edge">
<title>Node11&#45;&gt;Node10</title>
<path fill="none" stroke="midnightblue" d="M260.43,-345.41C254.3,-320.44 243.65,-277.08 239.13,-258.67"/>
<polygon fill="midnightblue" stroke="midnightblue" points="257.11,-346.55 262.9,-355.43 263.91,-344.89 257.11,-346.55"/>
</g>
<!-- Node12 -->
<g id="node12" class="node">
<title>Node12</title>
<g id="a_node12"><a xlink:href="class_player_u_i_controller.xhtml" target="_top" xlink:title="UI Controller for the Player Stats">
<polygon fill="white" stroke="black" points="85.5,-239.5 85.5,-258.5 180.5,-258.5 180.5,-239.5 85.5,-239.5"/>
<text text-anchor="middle" x="133" y="-246.5" font-family="Helvetica,sans-Serif" font-size="10.00">PlayerUIController</text>
</a>
</g>
</g>
<!-- Node12&#45;&gt;Node9 -->
<g id="edge19" class="edge">
<title>Node12&#45;&gt;Node9</title>
<path fill="none" stroke="#9a32cd" stroke-dasharray="5,2" d="M151.9,-232.79C179.08,-210.92 228.32,-171.3 250.11,-153.76"/>
<polygon fill="#9a32cd" stroke="#9a32cd" points="149.51,-230.22 143.91,-239.22 153.9,-235.68 149.51,-230.22"/>
<text text-anchor="middle" x="210" y="-208.5" font-family="Helvetica,sans-Serif" font-size="10.00"> uiControl</text>
</g>
<!-- Node13&#45;&gt;Node12 -->
<g id="edge20" class="edge">
<title>Node13&#45;&gt;Node12</title>
<path fill="none" stroke="midnightblue" d="M174.3,-346.08C163.61,-321.22 144.71,-277.24 136.73,-258.67"/>
<polygon fill="midnightblue" stroke="midnightblue" points="171.15,-347.63 178.32,-355.43 177.58,-344.86 171.15,-347.63"/>
</g>
<!-- Node14&#45;&gt;Node9 -->
<g id="edge24" class="edge">
<title>Node14&#45;&gt;Node9</title>
<path fill="none" stroke="#9a32cd" stroke-dasharray="5,2" d="M63.83,-310.77C43.94,-293.07 17.83,-263.2 34,-239 77.37,-174.1 174.73,-153.95 226.73,-147.74"/>
<polygon fill="#9a32cd" stroke="#9a32cd" points="61.68,-313.54 71.57,-317.35 66.21,-308.2 61.68,-313.54"/>
<text text-anchor="middle" x="55" y="-246.5" font-family="Helvetica,sans-Serif" font-size="10.00"> inventory</text>
</g>
<!-- Node15&#45;&gt;Node1 -->
<g id="edge32" class="edge">
<title>Node15&#45;&gt;Node1</title>
<path fill="none" stroke="#9a32cd" stroke-dasharray="5,2" d="M529.08,-352.23C482.65,-337.03 402.92,-310.92 361.96,-297.5"/>
<polygon fill="#9a32cd" stroke="#9a32cd" points="528.14,-355.61 538.73,-355.4 530.32,-348.96 528.14,-355.61"/>
<text text-anchor="middle" x="499" y="-324.5" font-family="Helvetica,sans-Serif" font-size="10.00"> character</text>
</g>
<!-- Node15&#45;&gt;Node3 -->
<g id="edge26" class="edge">
<title>Node15&#45;&gt;Node3</title>
<path fill="none" stroke="#9a32cd" stroke-dasharray="5,2" d="M558.06,-346.05C546.8,-319.2 522.15,-268.55 486,-239 475.79,-230.65 462.72,-224.71 450.59,-220.56"/>
<polygon fill="#9a32cd" stroke="#9a32cd" points="554.83,-347.42 561.82,-355.39 561.32,-344.8 554.83,-347.42"/>
<text text-anchor="middle" x="556" y="-291" font-family="Helvetica,sans-Serif" font-size="10.00"> character</text>
<text text-anchor="middle" x="556" y="-280" font-family="Helvetica,sans-Serif" font-size="10.00">characters</text>
</g>
</g>
</svg>
        <g id="navigator" transform="translate(0 0)" fill="#404254">
                <rect fill="#f2f5e9" fill-opacity="0.5" stroke="#606060" stroke-width=".5" x="0" y="0" width="60" height="60"/>
                <use id="zoomplus" xlink:href="#zoomPlus" x="17" y="9" onmousedown="handleZoom(evt,'in')"/>
                <use id="zoomminus" xlink:href="#zoomMin" x="42" y="9" onmousedown="handleZoom(evt,'out')"/>
                <use id="reset" xlink:href="#resetDef" x="30" y="36" onmousedown="handleReset()"/>
                <g id="arrowUp" xlink:href="#dirArrow" transform="translate(30 24)" onmousedown="handlePan(0,-1)">
                  <use xlink:href="#rim" fill="#404040">
                        <set attributeName="fill" to="#808080" begin="arrowUp.mouseover" end="arrowUp.mouseout"/>
                  </use>
                  <path fill="none" stroke="white" stroke-width="1.5" d="M0,-3.0v7 M-2.5,-0.5L0,-3.0L2.5,-0.5"/>
                </g>
                <g id="arrowRight" xlink:href="#dirArrow" transform="rotate(90) translate(36 -43)" onmousedown="handlePan(1,0)">
                  <use xlink:href="#rim" fill="#404040">
                        <set attributeName="fill" to="#808080" begin="arrowRight.mouseover" end="arrowRight.mouseout"/>
                  </use>
                  <path fill="none" stroke="white" stroke-width="1.5" d="M0,-3.0v7 M-2.5,-0.5L0,-3.0L2.5,-0.5"/>
                </g>
                <g id="arrowDown" xlink:href="#dirArrow" transform="rotate(180) translate(-30 -48)" onmousedown="handlePan(0,1)">
                  <use xlink:href="#rim" fill="#404040">
                        <set attributeName="fill" to="#808080" begin="arrowDown.mouseover" end="arrowDown.mouseout"/>
                  </use>
                  <path fill="none" stroke="white" stroke-width="1.5" d="M0,-3.0v7 M-2.5,-0.5L0,-3.0L2.5,-0.5"/>
                </g>
                <g id="arrowLeft" xlink:href="#dirArrow" transform="rotate(270) translate(-36 17)" onmousedown="handlePan(-1,0)">
                  <use xlink:href="#rim" fill="#404040">
                        <set attributeName="fill" to="#808080" begin="arrowLeft.mouseover" end="arrowLeft.mouseout"/>
                  </use>
                  <path fill="none" stroke="white" stroke-width="1.5" d="M0,-3.0v7 M-2.5,-0.5L0,-3.0L2.5,-0.5"/>
                </g>
        </g>
        <svg viewBox="0 0 15 15" width="100%" height="30px" preserveAspectRatio="xMaxYMin meet">
         <g id="arrow_out" transform="scale(0.3 0.3)">
          <a xlink:href="class_basic_attack__coll__graph_org.svg" target="_base">
           <rect id="button" ry="5" rx="5" y="6" x="6" height="38" width="38"
                fill="#f2f5e9" fill-opacity="0.5" stroke="#606060" stroke-width="1.0"/>
           <path id="arrow"
             d="M 11.500037,31.436501 C 11.940474,20.09759 22.043105,11.32322 32.158766,21.979434 L 37.068811,17.246167 C 37.068811,17.246167 37.088388,32 37.088388,32 L 22.160133,31.978069 C 22.160133,31.978069 26.997745,27.140456 26.997745,27.140456 C 18.528582,18.264221 13.291696,25.230495 11.500037,31.436501 z"
             style="fill:#404040;"/>
          </a>
         </g>
        </svg>
</svg>
