<?xml version="1.0" encoding="UTF-8" standalone="no"?>
<!DOCTYPE svg PUBLIC "-//W3C//DTD SVG 1.1//EN"
 "http://www.w3.org/Graphics/SVG/1.1/DTD/svg11.dtd">
<!-- Generated by graphviz version 2.47.3 (20210619.1520)
 -->
<!-- Title: Character Pages: 1 -->
<svg width="173pt" height="230pt"
 viewBox="0.00 0.00 172.50 230.00" xmlns="http://www.w3.org/2000/svg" xmlns:xlink="http://www.w3.org/1999/xlink">
<g id="graph0" class="graph" transform="scale(1 1) rotate(0) translate(4 226)">
<title>Character</title>
<polygon fill="white" stroke="transparent" points="-4,4 -4,-226 168.5,-226 168.5,4 -4,4"/>
<!-- Node1 -->
<g id="node1" class="node">
<title>Node1</title>
<g id="a_node1"><a xlink:title=" ">
<polygon fill="#bfbfbf" stroke="black" points="0,-0.5 0,-19.5 59,-19.5 59,-0.5 0,-0.5"/>
<text text-anchor="middle" x="29.5" y="-7.5" font-family="Helvetica,sans-Serif" font-size="10.00">Character</text>
</a>
</g>
</g>
<!-- Node2 -->
<g id="node2" class="node">
<title>Node2</title>
<g id="a_node2"><a xlink:title=" ">
<polygon fill="white" stroke="#bfbfbf" points="7,-202.5 7,-221.5 96,-221.5 96,-202.5 7,-202.5"/>
<text text-anchor="middle" x="51.5" y="-209.5" font-family="Helvetica,sans-Serif" font-size="10.00">ScriptableObject</text>
</a>
</g>
</g>
<!-- Node2&#45;&gt;Node1 -->
<g id="edge1" class="edge">
<title>Node2&#45;&gt;Node1</title>
<path fill="none" stroke="midnightblue" d="M47.98,-192.39C43.56,-168.21 36.11,-124.62 32.5,-87 30.18,-62.81 29.64,-34.13 29.53,-19.91"/>
<polygon fill="midnightblue" stroke="midnightblue" points="44.56,-193.13 49.83,-202.32 51.44,-191.85 44.56,-193.13"/>
</g>
<!-- Node3 -->
<g id="node3" class="node">
<title>Node3</title>
<g id="a_node3"><a xlink:href="class_ability.xhtml" target="_top" xlink:title=" ">
<polygon fill="white" stroke="black" points="41.5,-67.5 41.5,-86.5 85.5,-86.5 85.5,-67.5 41.5,-67.5"/>
<text text-anchor="middle" x="63.5" y="-74.5" font-family="Helvetica,sans-Serif" font-size="10.00">Ability</text>
</a>
</g>
</g>
<!-- Node2&#45;&gt;Node3 -->
<g id="edge3" class="edge">
<title>Node2&#45;&gt;Node3</title>
<path fill="none" stroke="midnightblue" d="M53.2,-192.13C55.84,-162.88 60.81,-107.76 62.73,-86.59"/>
<polygon fill="midnightblue" stroke="midnightblue" points="49.7,-192 52.29,-202.27 56.67,-192.63 49.7,-192"/>
</g>
<!-- Node4 -->
<g id="node4" class="node">
<title>Node4</title>
<g id="a_node4"><a xlink:href="class_effect.xhtml" target="_top" xlink:title=" ">
<polygon fill="white" stroke="black" points="80,-145.5 80,-164.5 121,-164.5 121,-145.5 80,-145.5"/>
<text text-anchor="middle" x="100.5" y="-152.5" font-family="Helvetica,sans-Serif" font-size="10.00">Effect</text>
</a>
</g>
</g>
<!-- Node2&#45;&gt;Node4 -->
<g id="edge5" class="edge">
<title>Node2&#45;&gt;Node4</title>
<path fill="none" stroke="midnightblue" d="M65.91,-194.83C74.68,-184.98 85.55,-172.78 92.74,-164.71"/>
<polygon fill="midnightblue" stroke="midnightblue" points="63.2,-192.61 59.16,-202.41 68.42,-197.27 63.2,-192.61"/>
</g>
<!-- Node3&#45;&gt;Node1 -->
<g id="edge2" class="edge">
<title>Node3&#45;&gt;Node1</title>
<path fill="none" stroke="#9a32cd" stroke-dasharray="5,2" d="M54.17,-58.16C47.61,-45.63 39.13,-29.41 34.01,-19.63"/>
<polygon fill="#9a32cd" stroke="#9a32cd" points="51.18,-60 58.91,-67.23 57.38,-56.75 51.18,-60"/>
<text text-anchor="middle" x="68" y="-41" font-family="Helvetica,sans-Serif" font-size="10.00"> abilities</text>
</g>
<!-- Node4&#45;&gt;Node3 -->
<g id="edge4" class="edge">
<title>Node4&#45;&gt;Node3</title>
<path fill="none" stroke="#9a32cd" stroke-dasharray="5,2" d="M91.8,-136.12C84.21,-120.53 73.52,-98.59 67.69,-86.62"/>
<polygon fill="#9a32cd" stroke="#9a32cd" points="88.73,-137.82 96.26,-145.28 95.03,-134.76 88.73,-137.82"/>
<text text-anchor="middle" x="125.5" y="-119" font-family="Helvetica,sans-Serif" font-size="10.00"> aToAuthorEffects</text>
<text text-anchor="middle" x="125.5" y="-108" font-family="Helvetica,sans-Serif" font-size="10.00">aToEnemyEffects</text>
</g>
</g>
</svg>
