<?xml version="1.0" encoding="UTF-8" standalone="no"?>
<!DOCTYPE svg PUBLIC "-//W3C//DTD SVG 1.1//EN"
 "http://www.w3.org/Graphics/SVG/1.1/DTD/svg11.dtd">
<!-- Generated by graphviz version 2.47.3 (20210619.1520)
 -->
<!-- Title: GameUIController.UpdateTurrets Pages: 1 -->
<svg width="627pt" height="28pt"
 viewBox="0.00 0.00 627.00 28.00" xmlns="http://www.w3.org/2000/svg" xmlns:xlink="http://www.w3.org/1999/xlink">
<g id="graph0" class="graph" transform="scale(1 1) rotate(0) translate(4 24)">
<title>GameUIController.UpdateTurrets</title>
<!-- Node1 -->
<g id="node1" class="node">
<title>Node1</title>
<g id="a_node1"><a xlink:title=" ">
<polygon fill="#bfbfbf" stroke="black" points="462,-0.5 462,-19.5 619,-19.5 619,-0.5 462,-0.5"/>
<text text-anchor="middle" x="540.5" y="-7.5" font-family="Helvetica,sans-Serif" font-size="10.00">GameUIController.UpdateTurrets</text>
</a>
</g>
</g>
<!-- Node2 -->
<g id="node2" class="node">
<title>Node2</title>
<g id="a_node2"><a xlink:href="class_game_controller.html#a3c12aa66ebe2fd74624cff72301a5903" target="_top" xlink:title="One of the players killed a turret.">
<polygon fill="none" stroke="black" points="297,-0.5 297,-19.5 426,-19.5 426,-0.5 297,-0.5"/>
<text text-anchor="middle" x="361.5" y="-7.5" font-family="Helvetica,sans-Serif" font-size="10.00">GameController.AddTurret</text>
</a>
</g>
</g>
<!-- Node1&#45;&gt;Node2 -->
<g id="edge1" class="edge">
<title>Node1&#45;&gt;Node2</title>
<path fill="none" stroke="midnightblue" d="M451.71,-10C443.04,-10 434.36,-10 426.01,-10"/>
<polygon fill="midnightblue" stroke="midnightblue" points="451.87,-13.5 461.87,-10 451.87,-6.5 451.87,-13.5"/>
</g>
<!-- Node3 -->
<g id="node3" class="node">
<title>Node3</title>
<g id="a_node3"><a xlink:href="class_turret_stats.html#afba2a2bb8d56fba966bb1c8ff069b63a" target="_top" xlink:title="Function that implements what is done when this entity dies.">
<polygon fill="none" stroke="black" points="179,-0.5 179,-19.5 261,-19.5 261,-0.5 179,-0.5"/>
<text text-anchor="middle" x="220" y="-7.5" font-family="Helvetica,sans-Serif" font-size="10.00">TurretStats.Die</text>
</a>
</g>
</g>
<!-- Node2&#45;&gt;Node3 -->
<g id="edge2" class="edge">
<title>Node2&#45;&gt;Node3</title>
<path fill="none" stroke="midnightblue" d="M286.66,-10C277.97,-10 269.36,-10 261.38,-10"/>
<polygon fill="midnightblue" stroke="midnightblue" points="286.87,-13.5 296.87,-10 286.87,-6.5 286.87,-13.5"/>
</g>
<!-- Node4 -->
<g id="node4" class="node">
<title>Node4</title>
<g id="a_node4"><a xlink:href="class_turret_stats.html#a2033725304e14040f7e2a92e1a32fc5c" target="_top" xlink:title=" ">
<polygon fill="none" stroke="black" points="0,-0.5 0,-19.5 143,-19.5 143,-0.5 0,-0.5"/>
<text text-anchor="middle" x="71.5" y="-7.5" font-family="Helvetica,sans-Serif" font-size="10.00">TurretStats.DealDamageRPC</text>
</a>
</g>
</g>
<!-- Node3&#45;&gt;Node4 -->
<g id="edge3" class="edge">
<title>Node3&#45;&gt;Node4</title>
<path fill="none" stroke="midnightblue" d="M168.78,-10C160.52,-10 151.83,-10 143.19,-10"/>
<polygon fill="midnightblue" stroke="midnightblue" points="168.97,-13.5 178.97,-10 168.97,-6.5 168.97,-13.5"/>
</g>
</g>
</svg>
