<?xml version="1.0" encoding="UTF-8" standalone="no"?>
<!DOCTYPE svg PUBLIC "-//W3C//DTD SVG 1.1//EN"
 "http://www.w3.org/Graphics/SVG/1.1/DTD/svg11.dtd">
<!-- Generated by graphviz version 2.47.3 (20210619.1520)
 -->
<!-- Title: Photon.Chat.ChatPeer.Connect Pages: 1 -->
<!--zoomable 147 -->
<svg id="main" version="1.1" xmlns="http://www.w3.org/2000/svg" xmlns:xlink="http://www.w3.org/1999/xlink" xml:space="preserve" onload="init(evt)">
<style type="text/css"><![CDATA[
.edge:hover path { stroke: red; }
.edge:hover polygon { stroke: red; fill: red; }
]]></style>
<script type="text/javascript"><![CDATA[
var edges = document.getElementsByTagName('g');
if (edges && edges.length) {
  for (var i=0;i<edges.length;i++) {
    if (edges[i].id.substr(0,4)=='edge') {
      edges[i].setAttribute('class','edge');
    }
  }
}
]]></script>
        <defs>
                <circle id="rim" cx="0" cy="0" r="7"/>
                <circle id="rim2" cx="0" cy="0" r="3.5"/>
                <g id="zoomPlus">
                        <use xlink:href="#rim" fill="#404040">
                                <set attributeName="fill" to="#808080" begin="zoomplus.mouseover" end="zoomplus.mouseout"/>
                        </use>
                        <path d="M-4,0h8M0,-4v8" fill="none" stroke="white" stroke-width="1.5" pointer-events="none"/>
                </g>
                <g id="zoomMin">
                        <use xlink:href="#rim" fill="#404040">
                                <set attributeName="fill" to="#808080" begin="zoomminus.mouseover" end="zoomminus.mouseout"/>
                        </use>
                        <path d="M-4,0h8" fill="none" stroke="white" stroke-width="1.5" pointer-events="none"/>
                </g>
                <g id="dirArrow">
                        <path fill="none" stroke="white" stroke-width="1.5" d="M0,-3.0v7 M-2.5,-0.5L0,-3.0L2.5,-0.5"/>
                </g>
               <g id="resetDef">
                       <use xlink:href="#rim2" fill="#404040">
                               <set attributeName="fill" to="#808080" begin="reset.mouseover" end="reset.mouseout"/>
                       </use>
               </g>
        </defs>

<script type="text/javascript">
var viewWidth = 1019;
var viewHeight = 147;
var sectionId = 'dynsection-5';
</script>
<script xlink:href="svgpan.js"/>
<svg id="graph" class="graph">
<g id="viewport">
<title>Photon.Chat.ChatPeer.Connect</title>
<polygon fill="white" stroke="transparent" points="-4,4 -4,-143 1015,-143 1015,4 -4,4"/>
<!-- Node1 -->
<g id="node1" class="node">
<title>Node1</title>
<g id="a_node1"><a xlink:title="Connects to NameServer.">
<polygon fill="#bfbfbf" stroke="black" points="858,-31 858,-50 1011,-50 1011,-31 858,-31"/>
<text text-anchor="middle" x="934.5" y="-38" font-family="Helvetica,sans-Serif" font-size="10.00">Photon.Chat.ChatPeer.Connect</text>
</a>
</g>
</g>
<!-- Node2 -->
<g id="node2" class="node">
<title>Node2</title>
<g id="a_node2"><a xlink:href="class_photon_1_1_chat_1_1_chat_client.xhtml#a26295d698e9cea35b3e6411623c54ded" target="_top" xlink:title="Connects this client to the Photon Chat Cloud service, which will also authenticate the user (and set...">
<polygon fill="white" stroke="black" points="664,-75 664,-94 822,-94 822,-75 664,-75"/>
<text text-anchor="middle" x="743" y="-82" font-family="Helvetica,sans-Serif" font-size="10.00">Photon.Chat.ChatClient.Connect</text>
</a>
</g>
</g>
<!-- Node1&#45;&gt;Node2 -->
<g id="edge1" class="edge">
<title>Node1&#45;&gt;Node2</title>
<path fill="none" stroke="midnightblue" d="M882.35,-52.38C851.82,-59.46 813.58,-68.34 785.04,-74.97"/>
<polygon fill="midnightblue" stroke="midnightblue" points="883.43,-55.72 892.38,-50.05 881.85,-48.9 883.43,-55.72"/>
</g>
<!-- Node8 -->
<g id="node8" class="node">
<title>Node8</title>
<g id="a_node8"><a xlink:href="class_photon_1_1_chat_1_1_chat_client.xhtml#aa8b24c8d99ef4691becf5e7d7e2bf0b8" target="_top" xlink:title=" ">
<polygon fill="white" stroke="black" points="664,-25.5 664,-55.5 822,-55.5 822,-25.5 664,-25.5"/>
<text text-anchor="start" x="672" y="-43.5" font-family="Helvetica,sans-Serif" font-size="10.00">Photon.Chat.ChatClient.Connect</text>
<text text-anchor="middle" x="743" y="-32.5" font-family="Helvetica,sans-Serif" font-size="10.00">ToFrontEnd</text>
</a>
</g>
</g>
<!-- Node1&#45;&gt;Node8 -->
<g id="edge7" class="edge">
<title>Node1&#45;&gt;Node8</title>
<path fill="none" stroke="midnightblue" d="M847.51,-40.5C839.03,-40.5 830.46,-40.5 822.07,-40.5"/>
<polygon fill="midnightblue" stroke="midnightblue" points="847.79,-44 857.79,-40.5 847.79,-37 847.79,-44"/>
</g>
<!-- Node9 -->
<g id="node9" class="node">
<title>Node9</title>
<g id="a_node9"><a xlink:href="class_photon_1_1_chat_1_1_chat_client.xhtml#af4a59688bc7fd4ced31ef2d68f552c40" target="_top" xlink:title=" ">
<polygon fill="white" stroke="black" points="482,-0.5 482,-30.5 616,-30.5 616,-0.5 482,-0.5"/>
<text text-anchor="start" x="490" y="-18.5" font-family="Helvetica,sans-Serif" font-size="10.00">Photon.Chat.ChatClient.On</text>
<text text-anchor="middle" x="549" y="-7.5" font-family="Helvetica,sans-Serif" font-size="10.00">StatusChanged</text>
</a>
</g>
</g>
<!-- Node1&#45;&gt;Node9 -->
<g id="edge9" class="edge">
<title>Node1&#45;&gt;Node9</title>
<path fill="none" stroke="midnightblue" d="M890.46,-28.52C869.92,-23.4 844.88,-18.03 822,-15.5 752.07,-7.76 671.4,-9.03 616.18,-11.44"/>
<polygon fill="midnightblue" stroke="midnightblue" points="889.6,-31.91 900.16,-31 891.34,-25.13 889.6,-31.91"/>
</g>
<!-- Node3 -->
<g id="node3" class="node">
<title>Node3</title>
<g id="a_node3"><a xlink:href="class_photon_1_1_chat_1_1_chat_client.xhtml#ae8f7f17505875382395e1cc898c6ca61" target="_top" xlink:title="Connects this client to the Photon Chat Cloud service, which will also authenticate the user (and set...">
<polygon fill="white" stroke="black" points="470,-108.5 470,-138.5 628,-138.5 628,-108.5 470,-108.5"/>
<text text-anchor="start" x="478" y="-126.5" font-family="Helvetica,sans-Serif" font-size="10.00">Photon.Chat.ChatClient.Connect</text>
<text text-anchor="middle" x="549" y="-115.5" font-family="Helvetica,sans-Serif" font-size="10.00">AndSetStatus</text>
</a>
</g>
</g>
<!-- Node2&#45;&gt;Node3 -->
<g id="edge2" class="edge">
<title>Node2&#45;&gt;Node3</title>
<path fill="none" stroke="midnightblue" d="M685.01,-96.08C665.92,-99.95 644.36,-104.33 624.16,-108.44"/>
<polygon fill="midnightblue" stroke="midnightblue" points="685.93,-99.46 695.03,-94.04 684.53,-92.6 685.93,-99.46"/>
</g>
<!-- Node4 -->
<g id="node4" class="node">
<title>Node4</title>
<g id="a_node4"><a xlink:href="class_photon_1_1_chat_1_1_chat_client.xhtml#a55a715b3029d0f17c1eb537960c7aa5b" target="_top" xlink:title=" ">
<polygon fill="white" stroke="black" points="470,-59.5 470,-89.5 628,-89.5 628,-59.5 470,-59.5"/>
<text text-anchor="start" x="478" y="-77.5" font-family="Helvetica,sans-Serif" font-size="10.00">Photon.Chat.ChatClient.Connect</text>
<text text-anchor="middle" x="549" y="-66.5" font-family="Helvetica,sans-Serif" font-size="10.00">UsingSettings</text>
</a>
</g>
</g>
<!-- Node2&#45;&gt;Node4 -->
<g id="edge3" class="edge">
<title>Node2&#45;&gt;Node4</title>
<path fill="none" stroke="midnightblue" d="M653.85,-79.91C645.23,-79.46 636.53,-79.01 628.02,-78.56"/>
<polygon fill="midnightblue" stroke="midnightblue" points="653.74,-83.41 663.91,-80.43 654.1,-76.42 653.74,-83.41"/>
</g>
<!-- Node5 -->
<g id="node5" class="node">
<title>Node5</title>
<g id="a_node5"><a xlink:href="class_chat_gui.xhtml#a38aee16a08666994a992c08d1791ab28" target="_top" xlink:title=" ">
<polygon fill="white" stroke="black" points="343,-65 343,-84 434,-84 434,-65 343,-65"/>
<text text-anchor="middle" x="388.5" y="-72" font-family="Helvetica,sans-Serif" font-size="10.00">ChatGui.Connect</text>
</a>
</g>
</g>
<!-- Node4&#45;&gt;Node5 -->
<g id="edge4" class="edge">
<title>Node4&#45;&gt;Node5</title>
<path fill="none" stroke="midnightblue" d="M459.43,-74.5C450.74,-74.5 442.2,-74.5 434.24,-74.5"/>
<polygon fill="midnightblue" stroke="midnightblue" points="459.68,-78 469.68,-74.5 459.68,-71 459.68,-78"/>
</g>
<!-- Node6 -->
<g id="node6" class="node">
<title>Node6</title>
<g id="a_node6"><a xlink:href="class_name_pick_gui.xhtml#a80522a94260e00e26aead18a527b0677" target="_top" xlink:title=" ">
<polygon fill="white" stroke="black" points="186,-65 186,-84 307,-84 307,-65 186,-65"/>
<text text-anchor="middle" x="246.5" y="-72" font-family="Helvetica,sans-Serif" font-size="10.00">NamePickGui.StartChat</text>
</a>
</g>
</g>
<!-- Node5&#45;&gt;Node6 -->
<g id="edge5" class="edge">
<title>Node5&#45;&gt;Node6</title>
<path fill="none" stroke="midnightblue" d="M332.74,-74.5C324.33,-74.5 315.6,-74.5 307.09,-74.5"/>
<polygon fill="midnightblue" stroke="midnightblue" points="332.82,-78 342.82,-74.5 332.82,-71 332.82,-78"/>
</g>
<!-- Node7 -->
<g id="node7" class="node">
<title>Node7</title>
<g id="a_node7"><a xlink:href="class_name_pick_gui.xhtml#ace759e332a6b2356baf247ed7bba5fc9" target="_top" xlink:title=" ">
<polygon fill="white" stroke="black" points="0,-65 0,-84 150,-84 150,-65 0,-65"/>
<text text-anchor="middle" x="75" y="-72" font-family="Helvetica,sans-Serif" font-size="10.00">NamePickGui.EndEditOnEnter</text>
</a>
</g>
</g>
<!-- Node6&#45;&gt;Node7 -->
<g id="edge6" class="edge">
<title>Node6&#45;&gt;Node7</title>
<path fill="none" stroke="midnightblue" d="M175.59,-74.5C167.17,-74.5 158.55,-74.5 150.07,-74.5"/>
<polygon fill="midnightblue" stroke="midnightblue" points="175.74,-78 185.74,-74.5 175.74,-71 175.74,-78"/>
</g>
<!-- Node8&#45;&gt;Node9 -->
<g id="edge8" class="edge">
<title>Node8&#45;&gt;Node9</title>
<path fill="none" stroke="midnightblue" d="M653.78,-29.01C641.09,-27.36 628.21,-25.68 616.04,-24.1"/>
<polygon fill="midnightblue" stroke="midnightblue" points="653.54,-32.51 663.91,-30.33 654.44,-25.57 653.54,-32.51"/>
</g>
</g>
</svg>
        <g id="navigator" transform="translate(0 0)" fill="#404254">
                <rect fill="#f2f5e9" fill-opacity="0.5" stroke="#606060" stroke-width=".5" x="0" y="0" width="60" height="60"/>
                <use id="zoomplus" xlink:href="#zoomPlus" x="17" y="9" onmousedown="handleZoom(evt,'in')"/>
                <use id="zoomminus" xlink:href="#zoomMin" x="42" y="9" onmousedown="handleZoom(evt,'out')"/>
                <use id="reset" xlink:href="#resetDef" x="30" y="36" onmousedown="handleReset()"/>
                <g id="arrowUp" xlink:href="#dirArrow" transform="translate(30 24)" onmousedown="handlePan(0,-1)">
                  <use xlink:href="#rim" fill="#404040">
                        <set attributeName="fill" to="#808080" begin="arrowUp.mouseover" end="arrowUp.mouseout"/>
                  </use>
                  <path fill="none" stroke="white" stroke-width="1.5" d="M0,-3.0v7 M-2.5,-0.5L0,-3.0L2.5,-0.5"/>
                </g>
                <g id="arrowRight" xlink:href="#dirArrow" transform="rotate(90) translate(36 -43)" onmousedown="handlePan(1,0)">
                  <use xlink:href="#rim" fill="#404040">
                        <set attributeName="fill" to="#808080" begin="arrowRight.mouseover" end="arrowRight.mouseout"/>
                  </use>
                  <path fill="none" stroke="white" stroke-width="1.5" d="M0,-3.0v7 M-2.5,-0.5L0,-3.0L2.5,-0.5"/>
                </g>
                <g id="arrowDown" xlink:href="#dirArrow" transform="rotate(180) translate(-30 -48)" onmousedown="handlePan(0,1)">
                  <use xlink:href="#rim" fill="#404040">
                        <set attributeName="fill" to="#808080" begin="arrowDown.mouseover" end="arrowDown.mouseout"/>
                  </use>
                  <path fill="none" stroke="white" stroke-width="1.5" d="M0,-3.0v7 M-2.5,-0.5L0,-3.0L2.5,-0.5"/>
                </g>
                <g id="arrowLeft" xlink:href="#dirArrow" transform="rotate(270) translate(-36 17)" onmousedown="handlePan(-1,0)">
                  <use xlink:href="#rim" fill="#404040">
                        <set attributeName="fill" to="#808080" begin="arrowLeft.mouseover" end="arrowLeft.mouseout"/>
                  </use>
                  <path fill="none" stroke="white" stroke-width="1.5" d="M0,-3.0v7 M-2.5,-0.5L0,-3.0L2.5,-0.5"/>
                </g>
        </g>
        <svg viewBox="0 0 15 15" width="100%" height="30px" preserveAspectRatio="xMaxYMin meet">
         <g id="arrow_out" transform="scale(0.3 0.3)">
          <a xlink:href="class_photon_1_1_chat_1_1_chat_peer_afc6fce926fbdd0512c2940c1a914f4e7_icgraph_org.svg" target="_base">
           <rect id="button" ry="5" rx="5" y="6" x="6" height="38" width="38"
                fill="#f2f5e9" fill-opacity="0.5" stroke="#606060" stroke-width="1.0"/>
           <path id="arrow"
             d="M 11.500037,31.436501 C 11.940474,20.09759 22.043105,11.32322 32.158766,21.979434 L 37.068811,17.246167 C 37.068811,17.246167 37.088388,32 37.088388,32 L 22.160133,31.978069 C 22.160133,31.978069 26.997745,27.140456 26.997745,27.140456 C 18.528582,18.264221 13.291696,25.230495 11.500037,31.436501 z"
             style="fill:#404040;"/>
          </a>
         </g>
        </svg>
</svg>
