<?xml version="1.0" encoding="UTF-8" standalone="no"?>
<!DOCTYPE svg PUBLIC "-//W3C//DTD SVG 1.1//EN"
 "http://www.w3.org/Graphics/SVG/1.1/DTD/svg11.dtd">
<!-- Generated by graphviz version 2.50.0 (20211204.2007)
 -->
<!-- Title: PlayerHUDController.UpdateHP Pages: 1 -->
<svg width="673pt" height="161pt"
 viewBox="0.00 0.00 673.00 161.00" xmlns="http://www.w3.org/2000/svg" xmlns:xlink="http://www.w3.org/1999/xlink">
<g id="graph0" class="graph" transform="scale(1 1) rotate(0) translate(4 157)">
<title>PlayerHUDController.UpdateHP</title>
<polygon fill="white" stroke="transparent" points="-4,4 -4,-157 669,-157 669,4 -4,4"/>
<!-- Node1 -->
<g id="node1" class="node">
<title>Node1</title>
<g id="a_node1"><a xlink:title=" ">
<polygon fill="#bfbfbf" stroke="black" points="512,-76.5 512,-95.5 665,-95.5 665,-76.5 512,-76.5"/>
<text text-anchor="middle" x="588.5" y="-83.5" font-family="Helvetica,sans-Serif" font-size="10.00">PlayerHUDController.UpdateHP</text>
</a>
</g>
</g>
<!-- Node2 -->
<g id="node2" class="node">
<title>Node2</title>
<g id="a_node2"><a xlink:href="class_player_stats.html#af74a866a9312c345f3cd03235be2f329" target="_top" xlink:title=" ">
<polygon fill="white" stroke="black" points="343.5,-133.5 343.5,-152.5 462.5,-152.5 462.5,-133.5 343.5,-133.5"/>
<text text-anchor="middle" x="403" y="-140.5" font-family="Helvetica,sans-Serif" font-size="10.00">PlayerStats.AddXpRPC</text>
</a>
</g>
</g>
<!-- Node1&#45;&gt;Node2 -->
<g id="edge1" class="edge">
<title>Node1&#45;&gt;Node2</title>
<path fill="none" stroke="midnightblue" d="M551.59,-98.96C529.84,-106.62 501.47,-116.31 476,-124 465.11,-127.29 453.2,-130.56 442.25,-133.44"/>
<polygon fill="midnightblue" stroke="midnightblue" points="552.83,-102.23 561.09,-95.59 550.49,-95.63 552.83,-102.23"/>
</g>
<!-- Node3 -->
<g id="node3" class="node">
<title>Node3</title>
<g id="a_node3"><a xlink:href="class_player_stats.html#a72df1a303afe102b8b4ac7a1e594cd75" target="_top" xlink:title=" ">
<polygon fill="white" stroke="black" points="330,-95.5 330,-114.5 476,-114.5 476,-95.5 330,-95.5"/>
<text text-anchor="middle" x="403" y="-102.5" font-family="Helvetica,sans-Serif" font-size="10.00">PlayerStats.DealDamageRPC</text>
</a>
</g>
</g>
<!-- Node1&#45;&gt;Node3 -->
<g id="edge2" class="edge">
<title>Node1&#45;&gt;Node3</title>
<path fill="none" stroke="midnightblue" d="M501.82,-94.87C493.28,-95.76 484.66,-96.65 476.28,-97.52"/>
<polygon fill="midnightblue" stroke="midnightblue" points="502.22,-98.35 511.8,-93.84 501.5,-91.39 502.22,-98.35"/>
</g>
<!-- Node4 -->
<g id="node4" class="node">
<title>Node4</title>
<g id="a_node4"><a xlink:href="class_player_stats.html#a5caca2bd8f676341a2b269aea8a0f1ff" target="_top" xlink:title="Function that implements what is done when this entity dies.">
<polygon fill="white" stroke="black" points="360.5,-57.5 360.5,-76.5 445.5,-76.5 445.5,-57.5 360.5,-57.5"/>
<text text-anchor="middle" x="403" y="-64.5" font-family="Helvetica,sans-Serif" font-size="10.00">PlayerStats.Die</text>
</a>
</g>
</g>
<!-- Node1&#45;&gt;Node4 -->
<g id="edge3" class="edge">
<title>Node1&#45;&gt;Node4</title>
<path fill="none" stroke="midnightblue" d="M501.67,-77.11C482.18,-75.1 462.34,-73.04 445.68,-71.32"/>
<polygon fill="midnightblue" stroke="midnightblue" points="501.5,-80.61 511.8,-78.16 502.22,-73.65 501.5,-80.61"/>
</g>
<!-- Node5 -->
<g id="node5" class="node">
<title>Node5</title>
<g id="a_node5"><a xlink:href="class_player_stats.html#ae2c6a9d91ac8ff99b7f0dc32079f1931" target="_top" xlink:title=" ">
<polygon fill="white" stroke="black" points="348,-19.5 348,-38.5 458,-38.5 458,-19.5 348,-19.5"/>
<text text-anchor="middle" x="403" y="-26.5" font-family="Helvetica,sans-Serif" font-size="10.00">PlayerStats.HealRPC</text>
</a>
</g>
</g>
<!-- Node1&#45;&gt;Node5 -->
<g id="edge4" class="edge">
<title>Node1&#45;&gt;Node5</title>
<path fill="none" stroke="midnightblue" d="M551.59,-73.04C529.84,-65.38 501.47,-55.69 476,-48 465.11,-44.71 453.2,-41.44 442.25,-38.56"/>
<polygon fill="midnightblue" stroke="midnightblue" points="550.49,-76.37 561.09,-76.41 552.83,-69.77 550.49,-76.37"/>
</g>
<!-- Node6 -->
<g id="node6" class="node">
<title>Node6</title>
<g id="a_node6"><a xlink:href="class_player_stats.html#a27fb46ca044608f34db45eb95ac16b4c" target="_top" xlink:title="This is triggered when the player respawns.">
<polygon fill="white" stroke="black" points="184,-19.5 184,-38.5 294,-38.5 294,-19.5 184,-19.5"/>
<text text-anchor="middle" x="239" y="-26.5" font-family="Helvetica,sans-Serif" font-size="10.00">PlayerStats.Respawn</text>
</a>
</g>
</g>
<!-- Node5&#45;&gt;Node6 -->
<g id="edge5" class="edge">
<title>Node5&#45;&gt;Node6</title>
<path fill="none" stroke="midnightblue" d="M337.36,-29C323.07,-29 308.07,-29 294.25,-29"/>
<polygon fill="midnightblue" stroke="midnightblue" points="337.61,-32.5 347.61,-29 337.61,-25.5 337.61,-32.5"/>
</g>
<!-- Node7 -->
<g id="node7" class="node">
<title>Node7</title>
<g id="a_node7"><a xlink:href="class_respawn_canvas.html#aeb8465a7dc3b9f4fe6a36afc1c8bcf9a" target="_top" xlink:title=" ">
<polygon fill="white" stroke="black" points="0,-38.5 0,-57.5 148,-57.5 148,-38.5 0,-38.5"/>
<text text-anchor="middle" x="74" y="-45.5" font-family="Helvetica,sans-Serif" font-size="10.00">RespawnCanvas.BuyRespawn</text>
</a>
</g>
</g>
<!-- Node6&#45;&gt;Node7 -->
<g id="edge6" class="edge">
<title>Node6&#45;&gt;Node7</title>
<path fill="none" stroke="midnightblue" d="M173.67,-36.5C165.3,-37.47 156.68,-38.48 148.19,-39.47"/>
<polygon fill="midnightblue" stroke="midnightblue" points="174.2,-39.96 183.72,-35.33 173.39,-33.01 174.2,-39.96"/>
</g>
<!-- Node8 -->
<g id="node8" class="node">
<title>Node8</title>
<g id="a_node8"><a xlink:href="class_respawn_canvas.html#a272c2f78c7bfbeb481fcb4b737fe446c" target="_top" xlink:title=" ">
<polygon fill="white" stroke="black" points="13,-0.5 13,-19.5 135,-19.5 135,-0.5 13,-0.5"/>
<text text-anchor="middle" x="74" y="-7.5" font-family="Helvetica,sans-Serif" font-size="10.00">RespawnCanvas.Update</text>
</a>
</g>
</g>
<!-- Node6&#45;&gt;Node8 -->
<g id="edge7" class="edge">
<title>Node6&#45;&gt;Node8</title>
<path fill="none" stroke="midnightblue" d="M173.7,-21.51C161.02,-20.03 147.76,-18.48 135.22,-17.02"/>
<polygon fill="midnightblue" stroke="midnightblue" points="173.39,-24.99 183.72,-22.67 174.2,-18.04 173.39,-24.99"/>
</g>
</g>
</svg>
