<?xml version="1.0" encoding="UTF-8" standalone="no"?>
<!DOCTYPE svg PUBLIC "-//W3C//DTD SVG 1.1//EN"
 "http://www.w3.org/Graphics/SVG/1.1/DTD/svg11.dtd">
<!-- Generated by graphviz version 2.47.3 (20210619.1520)
 -->
<!-- Title: StructureUIController.InitializeColors Pages: 1 -->
<svg width="314pt" height="78pt"
 viewBox="0.00 0.00 314.00 77.50" xmlns="http://www.w3.org/2000/svg" xmlns:xlink="http://www.w3.org/1999/xlink">
<g id="graph0" class="graph" transform="scale(1 1) rotate(0) translate(4 73.5)">
<title>StructureUIController.InitializeColors</title>
<!-- Node1 -->
<g id="node1" class="node">
<title>Node1</title>
<g id="a_node1"><a xlink:title=" ">
<polygon fill="#bfbfbf" stroke="black" points="161,-22.5 161,-52.5 306,-52.5 306,-22.5 161,-22.5"/>
<text text-anchor="start" x="169" y="-40.5" font-family="Helvetica,sans-Serif" font-size="10.00">StructureUIController.Initialize</text>
<text text-anchor="middle" x="233.5" y="-29.5" font-family="Helvetica,sans-Serif" font-size="10.00">Colors</text>
</a>
</g>
</g>
<!-- Node2 -->
<g id="node2" class="node">
<title>Node2</title>
<g id="a_node2"><a xlink:href="class_nexus_stats.html#ab75e21d9dab118cc45f49f6d3e8bc090" target="_top" xlink:title=" ">
<polygon fill="none" stroke="black" points="10,-50 10,-69 115,-69 115,-50 10,-50"/>
<text text-anchor="middle" x="62.5" y="-57" font-family="Helvetica,sans-Serif" font-size="10.00">NexusStats.Activate</text>
</a>
</g>
</g>
<!-- Node1&#45;&gt;Node2 -->
<g id="edge1" class="edge">
<title>Node1&#45;&gt;Node2</title>
<path fill="none" stroke="midnightblue" d="M150.67,-48.15C138.53,-49.73 126.32,-51.32 115.04,-52.79"/>
<polygon fill="midnightblue" stroke="midnightblue" points="151.36,-51.59 160.83,-46.83 150.46,-44.65 151.36,-51.59"/>
</g>
<!-- Node3 -->
<g id="node3" class="node">
<title>Node3</title>
<g id="a_node3"><a xlink:href="class_structure_u_i_controller.html#a908b4e1272b87043c5ba601517f0c1d9" target="_top" xlink:title=" ">
<polygon fill="none" stroke="black" points="0,-0.5 0,-30.5 125,-30.5 125,-0.5 0,-0.5"/>
<text text-anchor="start" x="8" y="-18.5" font-family="Helvetica,sans-Serif" font-size="10.00">StructureUIController.Pre</text>
<text text-anchor="middle" x="62.5" y="-7.5" font-family="Helvetica,sans-Serif" font-size="10.00">InitializeColors</text>
</a>
</g>
</g>
<!-- Node1&#45;&gt;Node3 -->
<g id="edge2" class="edge">
<title>Node1&#45;&gt;Node3</title>
<path fill="none" stroke="midnightblue" d="M150.75,-26.86C142.13,-25.74 133.47,-24.61 125.13,-23.52"/>
<polygon fill="midnightblue" stroke="midnightblue" points="150.46,-30.35 160.83,-28.17 151.36,-23.41 150.46,-30.35"/>
</g>
</g>
</svg>
