<?xml version="1.0" encoding="UTF-8" standalone="no"?>
<!DOCTYPE svg PUBLIC "-//W3C//DTD SVG 1.1//EN"
 "http://www.w3.org/Graphics/SVG/1.1/DTD/svg11.dtd">
<!-- Generated by graphviz version 2.47.3 (20210619.1520)
 -->
<!-- Title: Photon.Pun.Demo.Cockpit.FriendListView.SetFriendDetails Pages: 1 -->
<svg width="1474pt" height="197pt"
 viewBox="0.00 0.00 1474.00 196.50" xmlns="http://www.w3.org/2000/svg" xmlns:xlink="http://www.w3.org/1999/xlink">
<g id="graph0" class="graph" transform="scale(1 1) rotate(0) translate(4 192.5)">
<title>Photon.Pun.Demo.Cockpit.FriendListView.SetFriendDetails</title>
<polygon fill="white" stroke="transparent" points="-4,4 -4,-192.5 1470,-192.5 1470,4 -4,4"/>
<!-- Node1 -->
<g id="node1" class="node">
<title>Node1</title>
<g id="a_node1"><a xlink:title=" ">
<polygon fill="#bfbfbf" stroke="black" points="0,-24.5 0,-54.5 155,-54.5 155,-24.5 0,-24.5"/>
<text text-anchor="start" x="8" y="-42.5" font-family="Helvetica,sans-Serif" font-size="10.00">Photon.Pun.Demo.Cockpit.</text>
<text text-anchor="middle" x="77.5" y="-31.5" font-family="Helvetica,sans-Serif" font-size="10.00">FriendListView.SetFriendDetails</text>
</a>
</g>
</g>
<!-- Node2 -->
<g id="node2" class="node">
<title>Node2</title>
<g id="a_node2"><a xlink:href="class_photon_1_1_pun_1_1_demo_1_1_cockpit_1_1_friend_list_view.xhtml#a8016fdd83893b643c8ed12885ba1a073" target="_top" xlink:title=" ">
<polygon fill="white" stroke="black" points="191,-49.5 191,-79.5 326,-79.5 326,-49.5 191,-49.5"/>
<text text-anchor="start" x="199" y="-67.5" font-family="Helvetica,sans-Serif" font-size="10.00">Photon.Pun.Demo.Cockpit.</text>
<text text-anchor="middle" x="258.5" y="-56.5" font-family="Helvetica,sans-Serif" font-size="10.00">FriendListView.FindFriends</text>
</a>
</g>
</g>
<!-- Node1&#45;&gt;Node2 -->
<g id="edge1" class="edge">
<title>Node1&#45;&gt;Node2</title>
<path fill="none" stroke="midnightblue" d="M155.19,-50.21C163.72,-51.4 172.4,-52.61 180.92,-53.8"/>
<polygon fill="midnightblue" stroke="midnightblue" points="180.45,-57.27 190.84,-55.19 181.42,-50.34 180.45,-57.27"/>
</g>
<!-- Node12 -->
<g id="node12" class="node">
<title>Node12</title>
<g id="a_node12"><a xlink:href="class_photon_1_1_pun_1_1_demo_1_1_cockpit_1_1_friend_list_view.xhtml#a1ac4a26d41c8c147cc635a8fba96af7b" target="_top" xlink:title=" ">
<polygon fill="white" stroke="black" points="191,-0.5 191,-30.5 326,-30.5 326,-0.5 191,-0.5"/>
<text text-anchor="start" x="199" y="-18.5" font-family="Helvetica,sans-Serif" font-size="10.00">Photon.Pun.Demo.Cockpit.</text>
<text text-anchor="middle" x="258.5" y="-7.5" font-family="Helvetica,sans-Serif" font-size="10.00">FriendListView.ResetList</text>
</a>
</g>
</g>
<!-- Node1&#45;&gt;Node12 -->
<g id="edge12" class="edge">
<title>Node1&#45;&gt;Node12</title>
<path fill="none" stroke="midnightblue" d="M155.19,-29.22C163.72,-28.07 172.4,-26.91 180.92,-25.77"/>
<polygon fill="midnightblue" stroke="midnightblue" points="181.39,-29.24 190.84,-24.44 180.46,-22.3 181.39,-29.24"/>
</g>
<!-- Node3 -->
<g id="node3" class="node">
<title>Node3</title>
<g id="a_node3"><a xlink:href="class_photon_1_1_pun_1_1_photon_network.xhtml#ac3ef7244ebae82c562a55b93895046f7" target="_top" xlink:title="Requests the rooms and online status for a list of friends and saves the result in PhotonNetwork....">
<polygon fill="white" stroke="black" points="362,-49.5 362,-79.5 502,-79.5 502,-49.5 362,-49.5"/>
<text text-anchor="start" x="370" y="-67.5" font-family="Helvetica,sans-Serif" font-size="10.00">Photon.Pun.PhotonNetwork.</text>
<text text-anchor="middle" x="432" y="-56.5" font-family="Helvetica,sans-Serif" font-size="10.00">FindFriends</text>
</a>
</g>
</g>
<!-- Node2&#45;&gt;Node3 -->
<g id="edge2" class="edge">
<title>Node2&#45;&gt;Node3</title>
<path fill="none" stroke="midnightblue" d="M326.3,-64.5C334.59,-64.5 343.13,-64.5 351.59,-64.5"/>
<polygon fill="midnightblue" stroke="midnightblue" points="351.84,-68 361.84,-64.5 351.84,-61 351.84,-68"/>
</g>
<!-- Node4 -->
<g id="node4" class="node">
<title>Node4</title>
<g id="a_node4"><a xlink:href="class_photon_1_1_realtime_1_1_load_balancing_client.xhtml#a6c6f4af01b0f593aba272d66772c6edf" target="_top" xlink:title="Request the rooms and online status for a list of friends.">
<polygon fill="white" stroke="black" points="538,-49.5 538,-79.5 693,-79.5 693,-49.5 538,-49.5"/>
<text text-anchor="start" x="546" y="-67.5" font-family="Helvetica,sans-Serif" font-size="10.00">Photon.Realtime.LoadBalancing</text>
<text text-anchor="middle" x="615.5" y="-56.5" font-family="Helvetica,sans-Serif" font-size="10.00">Client.OpFindFriends</text>
</a>
</g>
</g>
<!-- Node3&#45;&gt;Node4 -->
<g id="edge3" class="edge">
<title>Node3&#45;&gt;Node4</title>
<path fill="none" stroke="midnightblue" d="M502.14,-64.5C510.56,-64.5 519.25,-64.5 527.89,-64.5"/>
<polygon fill="midnightblue" stroke="midnightblue" points="527.98,-68 537.98,-64.5 527.98,-61 527.98,-68"/>
</g>
<!-- Node5 -->
<g id="node5" class="node">
<title>Node5</title>
<g id="a_node5"><a xlink:href="class_photon_1_1_realtime_1_1_load_balancing_client.xhtml#aa12ff3efc3aa91e5ceca9b3a40f7bd79" target="_top" xlink:title=" ">
<polygon fill="white" stroke="black" points="729,-95.5 729,-125.5 884,-125.5 884,-95.5 729,-95.5"/>
<text text-anchor="start" x="737" y="-113.5" font-family="Helvetica,sans-Serif" font-size="10.00">Photon.Realtime.LoadBalancing</text>
<text text-anchor="middle" x="806.5" y="-102.5" font-family="Helvetica,sans-Serif" font-size="10.00">Client.CheckIfOpCanBeSent</text>
</a>
</g>
</g>
<!-- Node4&#45;&gt;Node5 -->
<g id="edge4" class="edge">
<title>Node4&#45;&gt;Node5</title>
<path fill="none" stroke="midnightblue" d="M678.39,-79.56C696.18,-83.89 715.73,-88.65 734.06,-93.11"/>
<polygon fill="midnightblue" stroke="midnightblue" points="733.25,-96.52 743.8,-95.48 734.91,-89.72 733.25,-96.52"/>
</g>
<!-- Node8 -->
<g id="node8" class="node">
<title>Node8</title>
<g id="a_node8"><a xlink:href="class_photon_1_1_realtime_1_1_load_balancing_client.xhtml#a69dd43d4c7211b5b83cd54d0ebcf79e7" target="_top" xlink:title="Debug output of low level api (and this client).">
<polygon fill="white" stroke="black" points="924.5,-48.5 924.5,-78.5 1079.5,-78.5 1079.5,-48.5 924.5,-48.5"/>
<text text-anchor="start" x="932.5" y="-66.5" font-family="Helvetica,sans-Serif" font-size="10.00">Photon.Realtime.LoadBalancing</text>
<text text-anchor="middle" x="1002" y="-55.5" font-family="Helvetica,sans-Serif" font-size="10.00">Client.DebugReturn</text>
</a>
</g>
</g>
<!-- Node4&#45;&gt;Node8 -->
<g id="edge10" class="edge">
<title>Node4&#45;&gt;Node8</title>
<path fill="none" stroke="midnightblue" d="M693.39,-64.3C757.17,-64.13 847.85,-63.9 914.22,-63.73"/>
<polygon fill="midnightblue" stroke="midnightblue" points="914.26,-67.23 924.25,-63.7 914.24,-60.23 914.26,-67.23"/>
</g>
<!-- Node11 -->
<g id="node11" class="node">
<title>Node11</title>
<g id="a_node11"><a xlink:href="class_photon_1_1_realtime_1_1_load_balancing_peer.xhtml#a2b9aebfa506dd7a930d1f0b6d71ba26e" target="_top" xlink:title="Request the rooms and online status for a list of friends (each client must set a unique username via...">
<polygon fill="white" stroke="black" points="729,-5.5 729,-35.5 884,-35.5 884,-5.5 729,-5.5"/>
<text text-anchor="start" x="737" y="-23.5" font-family="Helvetica,sans-Serif" font-size="10.00">Photon.Realtime.LoadBalancing</text>
<text text-anchor="middle" x="806.5" y="-12.5" font-family="Helvetica,sans-Serif" font-size="10.00">Peer.OpFindFriends</text>
</a>
</g>
</g>
<!-- Node4&#45;&gt;Node11 -->
<g id="edge11" class="edge">
<title>Node4&#45;&gt;Node11</title>
<path fill="none" stroke="midnightblue" d="M681.01,-49.48C697.04,-45.75 714.36,-41.72 730.83,-37.88"/>
<polygon fill="midnightblue" stroke="midnightblue" points="732.01,-41.2 740.96,-35.53 730.42,-34.38 732.01,-41.2"/>
</g>
<!-- Node6 -->
<g id="node6" class="node">
<title>Node6</title>
<g id="a_node6"><a xlink:href="class_photon_1_1_realtime_1_1_load_balancing_client.xhtml#ae052ab450db16efdd31985d56f76f0ab" target="_top" xlink:title=" ">
<polygon fill="white" stroke="black" points="920,-147 920,-188 1084,-188 1084,-147 920,-147"/>
<text text-anchor="start" x="928" y="-176" font-family="Helvetica,sans-Serif" font-size="10.00">Photon.Realtime.LoadBalancing</text>
<text text-anchor="start" x="928" y="-165" font-family="Helvetica,sans-Serif" font-size="10.00">Client.CheckIfClientIsReadyToCall</text>
<text text-anchor="middle" x="1002" y="-154" font-family="Helvetica,sans-Serif" font-size="10.00">Operation</text>
</a>
</g>
</g>
<!-- Node5&#45;&gt;Node6 -->
<g id="edge5" class="edge">
<title>Node5&#45;&gt;Node6</title>
<path fill="none" stroke="midnightblue" d="M858.59,-125.55C877.92,-131.24 900.39,-137.86 921.7,-144.14"/>
<polygon fill="midnightblue" stroke="midnightblue" points="920.81,-147.53 931.39,-146.99 922.79,-140.81 920.81,-147.53"/>
</g>
<!-- Node7 -->
<g id="node7" class="node">
<title>Node7</title>
<g id="a_node7"><a xlink:href="class_photon_1_1_realtime_1_1_load_balancing_client.xhtml#aa01a53cac6918dab3ecb99669b276f01" target="_top" xlink:title=" ">
<polygon fill="white" stroke="black" points="920.5,-97.5 920.5,-127.5 1083.5,-127.5 1083.5,-97.5 920.5,-97.5"/>
<text text-anchor="start" x="928.5" y="-115.5" font-family="Helvetica,sans-Serif" font-size="10.00">Photon.Realtime.LoadBalancing</text>
<text text-anchor="middle" x="1002" y="-104.5" font-family="Helvetica,sans-Serif" font-size="10.00">Client.CheckIfOpAllowedOnServer</text>
</a>
</g>
</g>
<!-- Node5&#45;&gt;Node7 -->
<g id="edge6" class="edge">
<title>Node5&#45;&gt;Node7</title>
<path fill="none" stroke="midnightblue" d="M884.25,-111.29C892.75,-111.38 901.46,-111.47 910.1,-111.56"/>
<polygon fill="midnightblue" stroke="midnightblue" points="910.17,-115.06 920.21,-111.66 910.25,-108.06 910.17,-115.06"/>
</g>
<!-- Node5&#45;&gt;Node8 -->
<g id="edge7" class="edge">
<title>Node5&#45;&gt;Node8</title>
<path fill="none" stroke="midnightblue" d="M869.26,-95.5C888.37,-90.86 909.59,-85.7 929.31,-80.91"/>
<polygon fill="midnightblue" stroke="midnightblue" points="930.28,-84.28 939.17,-78.52 928.62,-77.48 930.28,-84.28"/>
</g>
<!-- Node9 -->
<g id="node9" class="node">
<title>Node9</title>
<g id="a_node9"><a xlink:href="class_photon_1_1_realtime_1_1_load_balancing_peer.xhtml#a7f48b5f0c44ef0c67ef32f147ff87246" target="_top" xlink:title="Creates a Peer with specified connection protocol.">
<polygon fill="white" stroke="black" points="1120,-48.5 1120,-78.5 1275,-78.5 1275,-48.5 1120,-48.5"/>
<text text-anchor="start" x="1128" y="-66.5" font-family="Helvetica,sans-Serif" font-size="10.00">Photon.Realtime.LoadBalancing</text>
<text text-anchor="middle" x="1197.5" y="-55.5" font-family="Helvetica,sans-Serif" font-size="10.00">Peer.LoadBalancingPeer</text>
</a>
</g>
</g>
<!-- Node8&#45;&gt;Node9 -->
<g id="edge8" class="edge">
<title>Node8&#45;&gt;Node9</title>
<path fill="none" stroke="midnightblue" d="M1079.75,-63.5C1089.54,-63.5 1099.62,-63.5 1109.55,-63.5"/>
<polygon fill="midnightblue" stroke="midnightblue" points="1109.84,-67 1119.84,-63.5 1109.84,-60 1109.84,-67"/>
</g>
<!-- Node10 -->
<g id="node10" class="node">
<title>Node10</title>
<g id="a_node10"><a xlink:href="class_photon_1_1_realtime_1_1_load_balancing_peer.xhtml#affaff7e1fdffe86b25156ffac5e738c9" target="_top" xlink:title=" ">
<polygon fill="white" stroke="black" points="1311,-48.5 1311,-78.5 1466,-78.5 1466,-48.5 1311,-48.5"/>
<text text-anchor="start" x="1319" y="-66.5" font-family="Helvetica,sans-Serif" font-size="10.00">Photon.Realtime.LoadBalancing</text>
<text text-anchor="middle" x="1388.5" y="-55.5" font-family="Helvetica,sans-Serif" font-size="10.00">Peer.ConfigUnitySockets</text>
</a>
</g>
</g>
<!-- Node9&#45;&gt;Node10 -->
<g id="edge9" class="edge">
<title>Node9&#45;&gt;Node10</title>
<path fill="none" stroke="midnightblue" d="M1275.1,-63.5C1283.56,-63.5 1292.22,-63.5 1300.79,-63.5"/>
<polygon fill="midnightblue" stroke="midnightblue" points="1300.79,-67 1310.79,-63.5 1300.79,-60 1300.79,-67"/>
</g>
</g>
</svg>
