<?xml version="1.0" encoding="UTF-8" standalone="no"?>
<!DOCTYPE svg PUBLIC "-//W3C//DTD SVG 1.1//EN"
 "http://www.w3.org/Graphics/SVG/1.1/DTD/svg11.dtd">
<!-- Generated by graphviz version 2.47.3 (20210619.1520)
 -->
<!-- Title: CurrentItemShop.BuyCurrent Pages: 1 -->
<svg width="630pt" height="165pt"
 viewBox="0.00 0.00 630.00 164.50" xmlns="http://www.w3.org/2000/svg" xmlns:xlink="http://www.w3.org/1999/xlink">
<g id="graph0" class="graph" transform="scale(1 1) rotate(0) translate(4 160.5)">
<title>CurrentItemShop.BuyCurrent</title>
<!-- Node1 -->
<g id="node1" class="node">
<title>Node1</title>
<g id="a_node1"><a xlink:title=" ">
<polygon fill="#bfbfbf" stroke="black" points="0,-99 0,-118 141,-118 141,-99 0,-99"/>
<text text-anchor="middle" x="70.5" y="-106" font-family="Helvetica,sans-Serif" font-size="10.00">CurrentItemShop.BuyCurrent</text>
</a>
</g>
</g>
<!-- Node2 -->
<g id="node2" class="node">
<title>Node2</title>
<g id="a_node2"><a xlink:href="class_inventory.html#a22aa6615c02eff40c88a48c96905e962" target="_top" xlink:title=" ">
<polygon fill="none" stroke="black" points="177,-99 177,-118 271,-118 271,-99 177,-99"/>
<text text-anchor="middle" x="224" y="-106" font-family="Helvetica,sans-Serif" font-size="10.00">Inventory.BuyItem</text>
</a>
</g>
</g>
<!-- Node1&#45;&gt;Node2 -->
<g id="edge1" class="edge">
<title>Node1&#45;&gt;Node2</title>
<path fill="none" stroke="midnightblue" d="M141.04,-108.5C149.67,-108.5 158.4,-108.5 166.8,-108.5"/>
<polygon fill="midnightblue" stroke="midnightblue" points="166.83,-112 176.83,-108.5 166.83,-105 166.83,-112"/>
</g>
<!-- Node5 -->
<g id="node5" class="node">
<title>Node5</title>
<g id="a_node5"><a xlink:href="class_inventory.html#a4eba5ec568d6e06c754b71057888fcdd" target="_top" xlink:title=" ">
<polygon fill="none" stroke="black" points="331,-137 331,-156 423,-156 423,-137 331,-137"/>
<text text-anchor="middle" x="377" y="-144" font-family="Helvetica,sans-Serif" font-size="10.00">Inventory.CanBuy</text>
</a>
</g>
</g>
<!-- Node1&#45;&gt;Node5 -->
<g id="edge9" class="edge">
<title>Node1&#45;&gt;Node5</title>
<path fill="none" stroke="midnightblue" d="M119.69,-118.05C137.63,-121.37 158.19,-124.91 177,-127.5 225.39,-134.16 280.73,-139.24 320.74,-142.46"/>
<polygon fill="midnightblue" stroke="midnightblue" points="320.58,-145.96 330.83,-143.26 321.13,-138.98 320.58,-145.96"/>
</g>
<!-- Node10 -->
<g id="node10" class="node">
<title>Node10</title>
<g id="a_node10"><a xlink:href="class_item_u_i.html#a3621f37c3d29275407a00265d7823825" target="_top" xlink:title=" ">
<polygon fill="none" stroke="black" points="183,-61 183,-80 265,-80 265,-61 183,-61"/>
<text text-anchor="middle" x="224" y="-68" font-family="Helvetica,sans-Serif" font-size="10.00">ItemUI.GetItem</text>
</a>
</g>
</g>
<!-- Node1&#45;&gt;Node10 -->
<g id="edge10" class="edge">
<title>Node1&#45;&gt;Node10</title>
<path fill="none" stroke="midnightblue" d="M109.73,-98.91C129.63,-93.92 154.16,-87.77 175.29,-82.47"/>
<polygon fill="midnightblue" stroke="midnightblue" points="176.2,-85.85 185.05,-80.02 174.49,-79.06 176.2,-85.85"/>
</g>
<!-- Node3 -->
<g id="node3" class="node">
<title>Node3</title>
<g id="a_node3"><a xlink:href="class_item_statistic_effect.html#abbdbb3e54a3aeeb784c5aadaec695753" target="_top" xlink:title=" ">
<polygon fill="none" stroke="black" points="310,-99 310,-118 444,-118 444,-99 310,-99"/>
<text text-anchor="middle" x="377" y="-106" font-family="Helvetica,sans-Serif" font-size="10.00">ItemStatisticEffect.Activate</text>
</a>
</g>
</g>
<!-- Node2&#45;&gt;Node3 -->
<g id="edge2" class="edge">
<title>Node2&#45;&gt;Node3</title>
<path fill="none" stroke="midnightblue" d="M271.13,-108.5C280.2,-108.5 289.95,-108.5 299.71,-108.5"/>
<polygon fill="midnightblue" stroke="midnightblue" points="299.87,-112 309.87,-108.5 299.87,-105 299.87,-112"/>
</g>
<!-- Node2&#45;&gt;Node5 -->
<g id="edge4" class="edge">
<title>Node2&#45;&gt;Node5</title>
<path fill="none" stroke="midnightblue" d="M263.1,-118.09C282.94,-123.08 307.38,-129.23 328.45,-134.53"/>
<polygon fill="midnightblue" stroke="midnightblue" points="327.62,-137.93 338.17,-136.98 329.33,-131.15 327.62,-137.93"/>
</g>
<!-- Node7 -->
<g id="node7" class="node">
<title>Node7</title>
<g id="a_node7"><a xlink:href="class_player_h_u_d_controller.html#aeef77dcdfaf1c9b719e4350c17c88fa5" target="_top" xlink:title=" ">
<polygon fill="none" stroke="black" points="307,-0.5 307,-30.5 447,-30.5 447,-0.5 307,-0.5"/>
<text text-anchor="start" x="315" y="-18.5" font-family="Helvetica,sans-Serif" font-size="10.00">PlayerHUDController.Update</text>
<text text-anchor="middle" x="377" y="-7.5" font-family="Helvetica,sans-Serif" font-size="10.00">GoldTxt</text>
</a>
</g>
</g>
<!-- Node2&#45;&gt;Node7 -->
<g id="edge6" class="edge">
<title>Node2&#45;&gt;Node7</title>
<path fill="none" stroke="midnightblue" d="M255.05,-98.93C260.67,-96.37 266.26,-93.25 271,-89.5 292.48,-72.51 285.05,-55.87 307,-39.5 308.86,-38.11 310.8,-36.8 312.81,-35.56"/>
<polygon fill="midnightblue" stroke="midnightblue" points="314.86,-38.44 321.97,-30.58 311.51,-32.29 314.86,-38.44"/>
</g>
<!-- Node8 -->
<g id="node8" class="node">
<title>Node8</title>
<g id="a_node8"><a xlink:href="class_player_h_u_d_controller.html#ac39302aee1420d6afbc3a73805929143" target="_top" xlink:title=" ">
<polygon fill="none" stroke="black" points="307,-49.5 307,-79.5 447,-79.5 447,-49.5 307,-49.5"/>
<text text-anchor="start" x="315" y="-67.5" font-family="Helvetica,sans-Serif" font-size="10.00">PlayerHUDController.Update</text>
<text text-anchor="middle" x="377" y="-56.5" font-family="Helvetica,sans-Serif" font-size="10.00">Items</text>
</a>
</g>
</g>
<!-- Node2&#45;&gt;Node8 -->
<g id="edge7" class="edge">
<title>Node2&#45;&gt;Node8</title>
<path fill="none" stroke="midnightblue" d="M257.76,-98.95C274.39,-94.11 295.13,-88.07 314.58,-82.4"/>
<polygon fill="midnightblue" stroke="midnightblue" points="315.68,-85.72 324.3,-79.57 313.72,-79 315.68,-85.72"/>
</g>
<!-- Node4 -->
<g id="node4" class="node">
<title>Node4</title>
<g id="a_node4"><a xlink:href="class_movable_stats.html#a496f0de472c44aa2c5aa86bb5625eecd" target="_top" xlink:title=" ">
<polygon fill="none" stroke="black" points="483,-99 483,-118 622,-118 622,-99 483,-99"/>
<text text-anchor="middle" x="552.5" y="-106" font-family="Helvetica,sans-Serif" font-size="10.00">MovableStats.ApplyStatistic</text>
</a>
</g>
</g>
<!-- Node3&#45;&gt;Node4 -->
<g id="edge3" class="edge">
<title>Node3&#45;&gt;Node4</title>
<path fill="none" stroke="midnightblue" d="M444.09,-108.5C453.37,-108.5 462.99,-108.5 472.48,-108.5"/>
<polygon fill="midnightblue" stroke="midnightblue" points="472.71,-112 482.71,-108.5 472.71,-105 472.71,-112"/>
</g>
<!-- Node6 -->
<g id="node6" class="node">
<title>Node6</title>
<g id="a_node6"><a xlink:href="class_inventory.html#a78bab4c24d6da82bdef1a27f5c33934e" target="_top" xlink:title=" ">
<polygon fill="none" stroke="black" points="483,-137 483,-156 622,-156 622,-137 483,-137"/>
<text text-anchor="middle" x="552.5" y="-144" font-family="Helvetica,sans-Serif" font-size="10.00">Inventory.HadAlreadyBought</text>
</a>
</g>
</g>
<!-- Node5&#45;&gt;Node6 -->
<g id="edge5" class="edge">
<title>Node5&#45;&gt;Node6</title>
<path fill="none" stroke="midnightblue" d="M423.13,-146.5C438.18,-146.5 455.42,-146.5 472.28,-146.5"/>
<polygon fill="midnightblue" stroke="midnightblue" points="472.7,-150 482.7,-146.5 472.7,-143 472.7,-150"/>
</g>
<!-- Node9 -->
<g id="node9" class="node">
<title>Node9</title>
<g id="a_node9"><a xlink:href="class_sellable_item_u_i.html#a6af430a8024bce99b71d8e5867e1c496" target="_top" xlink:title=" ">
<polygon fill="none" stroke="black" points="494.5,-55 494.5,-74 610.5,-74 610.5,-55 494.5,-55"/>
<text text-anchor="middle" x="552.5" y="-62" font-family="Helvetica,sans-Serif" font-size="10.00">SellableItemUI.SetItem</text>
</a>
</g>
</g>
<!-- Node8&#45;&gt;Node9 -->
<g id="edge8" class="edge">
<title>Node8&#45;&gt;Node9</title>
<path fill="none" stroke="midnightblue" d="M447.07,-64.5C459.33,-64.5 472.07,-64.5 484.28,-64.5"/>
<polygon fill="midnightblue" stroke="midnightblue" points="484.38,-68 494.38,-64.5 484.38,-61 484.38,-68"/>
</g>
</g>
</svg>
