<?xml version="1.0" encoding="UTF-8" standalone="no"?>
<!DOCTYPE svg PUBLIC "-//W3C//DTD SVG 1.1//EN"
 "http://www.w3.org/Graphics/SVG/1.1/DTD/svg11.dtd">
<!-- Generated by graphviz version 2.47.3 (20210619.1520)
 -->
<!-- Title: Tayx.Graphy.Audio.G_AudioManager.RefreshParameters Pages: 1 -->
<svg width="757pt" height="246pt"
 viewBox="0.00 0.00 757.00 246.00" xmlns="http://www.w3.org/2000/svg" xmlns:xlink="http://www.w3.org/1999/xlink">
<g id="graph0" class="graph" transform="scale(1 1) rotate(0) translate(4 242)">
<title>Tayx.Graphy.Audio.G_AudioManager.RefreshParameters</title>
<polygon fill="white" stroke="transparent" points="-4,4 -4,-242 753,-242 753,4 -4,4"/>
<!-- Node1 -->
<g id="node1" class="node">
<title>Node1</title>
<g id="a_node1"><a xlink:title=" ">
<polygon fill="#bfbfbf" stroke="black" points="0,-73.5 0,-103.5 170,-103.5 170,-73.5 0,-73.5"/>
<text text-anchor="start" x="8" y="-91.5" font-family="Helvetica,sans-Serif" font-size="10.00">Tayx.Graphy.Audio.G</text>
<text text-anchor="middle" x="85" y="-80.5" font-family="Helvetica,sans-Serif" font-size="10.00">_AudioManager.RefreshParameters</text>
</a>
</g>
</g>
<!-- Node2 -->
<g id="node2" class="node">
<title>Node2</title>
<g id="a_node2"><a xlink:href="class_tayx_1_1_graphy_1_1_audio_1_1_g___audio_manager.xhtml#adc6cbaec95f86a1f896a089a03bf8ef9" target="_top" xlink:title="Set the module state.">
<polygon fill="white" stroke="black" points="225,-171.5 225,-201.5 350,-201.5 350,-171.5 225,-171.5"/>
<text text-anchor="start" x="233" y="-189.5" font-family="Helvetica,sans-Serif" font-size="10.00">Tayx.Graphy.Audio.G</text>
<text text-anchor="middle" x="287.5" y="-178.5" font-family="Helvetica,sans-Serif" font-size="10.00">_AudioManager.SetState</text>
</a>
</g>
</g>
<!-- Node1&#45;&gt;Node2 -->
<g id="edge1" class="edge">
<title>Node1&#45;&gt;Node2</title>
<path fill="none" stroke="midnightblue" d="M116.89,-103.6C151.62,-120.57 208.15,-148.2 246.3,-166.85"/>
<polygon fill="midnightblue" stroke="midnightblue" points="245.05,-170.14 255.58,-171.39 248.13,-163.85 245.05,-170.14"/>
</g>
<!-- Node4 -->
<g id="node4" class="node">
<title>Node4</title>
<g id="a_node4"><a xlink:href="class_tayx_1_1_graphy_1_1_audio_1_1_g___audio_graph.xhtml#a6522e25a1da553924df60f3405495d78" target="_top" xlink:title=" ">
<polygon fill="white" stroke="black" points="209,-98.5 209,-128.5 366,-128.5 366,-98.5 209,-98.5"/>
<text text-anchor="start" x="217" y="-116.5" font-family="Helvetica,sans-Serif" font-size="10.00">Tayx.Graphy.Audio.G</text>
<text text-anchor="middle" x="287.5" y="-105.5" font-family="Helvetica,sans-Serif" font-size="10.00">_AudioGraph.UpdateParameters</text>
</a>
</g>
</g>
<!-- Node1&#45;&gt;Node4 -->
<g id="edge3" class="edge">
<title>Node1&#45;&gt;Node4</title>
<path fill="none" stroke="midnightblue" d="M170.16,-98.99C179.6,-100.17 189.24,-101.37 198.73,-102.56"/>
<polygon fill="midnightblue" stroke="midnightblue" points="198.59,-106.07 208.95,-103.83 199.46,-99.12 198.59,-106.07"/>
</g>
<!-- Node11 -->
<g id="node11" class="node">
<title>Node11</title>
<g id="a_node11"><a xlink:href="class_tayx_1_1_graphy_1_1_audio_1_1_g___audio_monitor.xhtml#ab99d3ec55c039eb4c3cdfe46a094bccd" target="_top" xlink:title=" ">
<polygon fill="white" stroke="black" points="206,-49.5 206,-79.5 369,-79.5 369,-49.5 206,-49.5"/>
<text text-anchor="start" x="214" y="-67.5" font-family="Helvetica,sans-Serif" font-size="10.00">Tayx.Graphy.Audio.G</text>
<text text-anchor="middle" x="287.5" y="-56.5" font-family="Helvetica,sans-Serif" font-size="10.00">_AudioMonitor.UpdateParameters</text>
</a>
</g>
</g>
<!-- Node1&#45;&gt;Node11 -->
<g id="edge10" class="edge">
<title>Node1&#45;&gt;Node11</title>
<path fill="none" stroke="midnightblue" d="M170.16,-78.43C178.63,-77.41 187.26,-76.38 195.8,-75.36"/>
<polygon fill="midnightblue" stroke="midnightblue" points="196.25,-78.83 205.76,-74.16 195.42,-71.88 196.25,-78.83"/>
</g>
<!-- Node13 -->
<g id="node13" class="node">
<title>Node13</title>
<g id="a_node13"><a xlink:href="class_tayx_1_1_graphy_1_1_audio_1_1_g___audio_text.xhtml#a9c062e67d48e6ae37b36a157deda281e" target="_top" xlink:title=" ">
<polygon fill="white" stroke="black" points="213,-0.5 213,-30.5 362,-30.5 362,-0.5 213,-0.5"/>
<text text-anchor="start" x="221" y="-18.5" font-family="Helvetica,sans-Serif" font-size="10.00">Tayx.Graphy.Audio.G</text>
<text text-anchor="middle" x="287.5" y="-7.5" font-family="Helvetica,sans-Serif" font-size="10.00">_AudioText.UpdateParameters</text>
</a>
</g>
</g>
<!-- Node1&#45;&gt;Node13 -->
<g id="edge12" class="edge">
<title>Node1&#45;&gt;Node13</title>
<path fill="none" stroke="midnightblue" d="M120.31,-73.44C144.13,-63.25 176.71,-49.82 206,-39.5 211.64,-37.51 217.54,-35.55 223.47,-33.65"/>
<polygon fill="midnightblue" stroke="midnightblue" points="224.94,-36.85 233.43,-30.52 222.84,-30.17 224.94,-36.85"/>
</g>
<!-- Node3 -->
<g id="node3" class="node">
<title>Node3</title>
<g id="a_node3"><a xlink:href="class_tayx_1_1_graphy_1_1_audio_1_1_g___audio_manager.xhtml#a67d33c59a742691d9a9c3c6843bbc131" target="_top" xlink:title=" ">
<polygon fill="white" stroke="black" points="407.5,-183.5 407.5,-213.5 562.5,-213.5 562.5,-183.5 407.5,-183.5"/>
<text text-anchor="start" x="415.5" y="-201.5" font-family="Helvetica,sans-Serif" font-size="10.00">Tayx.Graphy.Audio.G</text>
<text text-anchor="middle" x="485" y="-190.5" font-family="Helvetica,sans-Serif" font-size="10.00">_AudioManager.SetGraphActive</text>
</a>
</g>
</g>
<!-- Node2&#45;&gt;Node3 -->
<g id="edge2" class="edge">
<title>Node2&#45;&gt;Node3</title>
<path fill="none" stroke="midnightblue" d="M350.09,-190.28C364.96,-191.19 381.14,-192.19 396.93,-193.16"/>
<polygon fill="midnightblue" stroke="midnightblue" points="397.05,-196.67 407.24,-193.79 397.48,-189.68 397.05,-196.67"/>
</g>
<!-- Node5 -->
<g id="node5" class="node">
<title>Node5</title>
<g id="a_node5"><a xlink:href="class_tayx_1_1_graphy_1_1_audio_1_1_g___audio_graph.xhtml#a8402c6f4decc0ed051e2a3afd42c4cc8" target="_top" xlink:title="Creates the points for the graph/s.">
<polygon fill="white" stroke="black" points="419,-134.5 419,-164.5 551,-164.5 551,-134.5 419,-134.5"/>
<text text-anchor="start" x="427" y="-152.5" font-family="Helvetica,sans-Serif" font-size="10.00">Tayx.Graphy.Audio.G</text>
<text text-anchor="middle" x="485" y="-141.5" font-family="Helvetica,sans-Serif" font-size="10.00">_AudioGraph.CreatePoints</text>
</a>
</g>
</g>
<!-- Node4&#45;&gt;Node5 -->
<g id="edge4" class="edge">
<title>Node4&#45;&gt;Node5</title>
<path fill="none" stroke="midnightblue" d="M366.05,-127.78C380.12,-130.37 394.77,-133.07 408.77,-135.65"/>
<polygon fill="midnightblue" stroke="midnightblue" points="408.36,-139.13 418.83,-137.5 409.63,-132.25 408.36,-139.13"/>
</g>
<!-- Node10 -->
<g id="node10" class="node">
<title>Node10</title>
<g id="a_node10"><a xlink:href="class_tayx_1_1_graphy_1_1_g___graph_shader.xhtml#a531ef44ced25f9686183cc7c46ca3920" target="_top" xlink:title="This is done to avoid a design problem that arrays in shaders have, and should be called before initi...">
<polygon fill="white" stroke="black" points="411,-85.5 411,-115.5 559,-115.5 559,-85.5 411,-85.5"/>
<text text-anchor="start" x="419" y="-103.5" font-family="Helvetica,sans-Serif" font-size="10.00">Tayx.Graphy.G_GraphShader.</text>
<text text-anchor="middle" x="485" y="-92.5" font-family="Helvetica,sans-Serif" font-size="10.00">InitializeShader</text>
</a>
</g>
</g>
<!-- Node4&#45;&gt;Node10 -->
<g id="edge9" class="edge">
<title>Node4&#45;&gt;Node10</title>
<path fill="none" stroke="midnightblue" d="M366.05,-108.34C377.43,-107.59 389.19,-106.8 400.68,-106.04"/>
<polygon fill="midnightblue" stroke="midnightblue" points="400.94,-109.53 410.68,-105.38 400.47,-102.55 400.94,-109.53"/>
</g>
<!-- Node6 -->
<g id="node6" class="node">
<title>Node6</title>
<g id="a_node6"><a xlink:href="class_tayx_1_1_graphy_1_1_g___graph_shader.xhtml#ac039f519ec84d521e44bf8f9b90ff7e8" target="_top" xlink:title="Updates the material linked with this shader graph with the values in the float[] array.">
<polygon fill="white" stroke="black" points="601,-207.5 601,-237.5 749,-237.5 749,-207.5 601,-207.5"/>
<text text-anchor="start" x="609" y="-225.5" font-family="Helvetica,sans-Serif" font-size="10.00">Tayx.Graphy.G_GraphShader.</text>
<text text-anchor="middle" x="675" y="-214.5" font-family="Helvetica,sans-Serif" font-size="10.00">UpdateArray</text>
</a>
</g>
</g>
<!-- Node5&#45;&gt;Node6 -->
<g id="edge5" class="edge">
<title>Node5&#45;&gt;Node6</title>
<path fill="none" stroke="midnightblue" d="M540.75,-164.61C549.03,-167.52 557.35,-170.83 565,-174.5 582.34,-182.82 583.71,-190.09 601,-198.5 604.78,-200.34 608.73,-202.09 612.76,-203.74"/>
<polygon fill="midnightblue" stroke="midnightblue" points="611.66,-207.07 622.25,-207.43 614.2,-200.55 611.66,-207.07"/>
</g>
<!-- Node7 -->
<g id="node7" class="node">
<title>Node7</title>
<g id="a_node7"><a xlink:href="class_tayx_1_1_graphy_1_1_g___graph_shader.xhtml#a67831882b060d17c9d7a754546ef2e6b" target="_top" xlink:title="Updates the average parameter in the material.">
<polygon fill="white" stroke="black" points="601,-158.5 601,-188.5 749,-188.5 749,-158.5 601,-158.5"/>
<text text-anchor="start" x="609" y="-176.5" font-family="Helvetica,sans-Serif" font-size="10.00">Tayx.Graphy.G_GraphShader.</text>
<text text-anchor="middle" x="675" y="-165.5" font-family="Helvetica,sans-Serif" font-size="10.00">UpdateAverage</text>
</a>
</g>
</g>
<!-- Node5&#45;&gt;Node7 -->
<g id="edge6" class="edge">
<title>Node5&#45;&gt;Node7</title>
<path fill="none" stroke="midnightblue" d="M551.23,-157.83C563.99,-159.46 577.53,-161.18 590.79,-162.88"/>
<polygon fill="midnightblue" stroke="midnightblue" points="590.48,-166.37 600.85,-164.16 591.37,-159.42 590.48,-166.37"/>
</g>
<!-- Node8 -->
<g id="node8" class="node">
<title>Node8</title>
<g id="a_node8"><a xlink:href="class_tayx_1_1_graphy_1_1_g___graph_shader.xhtml#ac4ec72181f804fc7e8516292bd3a5995" target="_top" xlink:title="Updates the colors in the material.">
<polygon fill="white" stroke="black" points="601,-109.5 601,-139.5 749,-139.5 749,-109.5 601,-109.5"/>
<text text-anchor="start" x="609" y="-127.5" font-family="Helvetica,sans-Serif" font-size="10.00">Tayx.Graphy.G_GraphShader.</text>
<text text-anchor="middle" x="675" y="-116.5" font-family="Helvetica,sans-Serif" font-size="10.00">UpdateColors</text>
</a>
</g>
</g>
<!-- Node5&#45;&gt;Node8 -->
<g id="edge7" class="edge">
<title>Node5&#45;&gt;Node8</title>
<path fill="none" stroke="midnightblue" d="M551.23,-140.83C563.99,-139.13 577.53,-137.33 590.79,-135.57"/>
<polygon fill="midnightblue" stroke="midnightblue" points="591.4,-139.02 600.85,-134.23 590.47,-132.08 591.4,-139.02"/>
</g>
<!-- Node9 -->
<g id="node9" class="node">
<title>Node9</title>
<g id="a_node9"><a xlink:href="class_tayx_1_1_graphy_1_1_g___graph_shader.xhtml#af57c3227f9ad5e7a55f17532749cbf18" target="_top" xlink:title="Updates the thresholds in the material.">
<polygon fill="white" stroke="black" points="601,-60.5 601,-90.5 749,-90.5 749,-60.5 601,-60.5"/>
<text text-anchor="start" x="609" y="-78.5" font-family="Helvetica,sans-Serif" font-size="10.00">Tayx.Graphy.G_GraphShader.</text>
<text text-anchor="middle" x="675" y="-67.5" font-family="Helvetica,sans-Serif" font-size="10.00">UpdateThresholds</text>
</a>
</g>
</g>
<!-- Node5&#45;&gt;Node9 -->
<g id="edge8" class="edge">
<title>Node5&#45;&gt;Node9</title>
<path fill="none" stroke="midnightblue" d="M543.35,-134.41C550.77,-131.78 558.16,-128.81 565,-125.5 582.53,-117.01 583.62,-109.3 601,-100.5 605.26,-98.35 609.74,-96.31 614.31,-94.39"/>
<polygon fill="midnightblue" stroke="midnightblue" points="615.76,-97.58 623.76,-90.64 613.18,-91.08 615.76,-97.58"/>
</g>
<!-- Node12 -->
<g id="node12" class="node">
<title>Node12</title>
<g id="a_node12"><a xlink:href="class_tayx_1_1_graphy_1_1_audio_1_1_g___audio_monitor.xhtml#a3ecfbab2cd037e4c289d57969854292f" target="_top" xlink:title="Tries to find an audio listener in the main camera.">
<polygon fill="white" stroke="black" points="405,-36.5 405,-66.5 565,-66.5 565,-36.5 405,-36.5"/>
<text text-anchor="start" x="413" y="-54.5" font-family="Helvetica,sans-Serif" font-size="10.00">Tayx.Graphy.Audio.G</text>
<text text-anchor="middle" x="485" y="-43.5" font-family="Helvetica,sans-Serif" font-size="10.00">_AudioMonitor.FindAudioListener</text>
</a>
</g>
</g>
<!-- Node11&#45;&gt;Node12 -->
<g id="edge11" class="edge">
<title>Node11&#45;&gt;Node12</title>
<path fill="none" stroke="midnightblue" d="M369.15,-59.14C377.61,-58.57 386.26,-58 394.81,-57.43"/>
<polygon fill="midnightblue" stroke="midnightblue" points="395.05,-60.92 404.8,-56.77 394.59,-53.94 395.05,-60.92"/>
</g>
</g>
</svg>
