<?xml version="1.0" encoding="UTF-8" standalone="no"?>
<!DOCTYPE svg PUBLIC "-//W3C//DTD SVG 1.1//EN"
 "http://www.w3.org/Graphics/SVG/1.1/DTD/svg11.dtd">
<!-- Generated by graphviz version 2.47.3 (20210619.1520)
 -->
<!-- Title: Photon.Pun.Demo.Cockpit.PunCockpit.JoinRoom Pages: 1 -->
<!--zoomable 345 -->
<svg id="main" version="1.1" xmlns="http://www.w3.org/2000/svg" xmlns:xlink="http://www.w3.org/1999/xlink" xml:space="preserve" onload="init(evt)">
<style type="text/css"><![CDATA[
.edge:hover path { stroke: red; }
.edge:hover polygon { stroke: red; fill: red; }
]]></style>
<script type="text/javascript"><![CDATA[
var edges = document.getElementsByTagName('g');
if (edges && edges.length) {
  for (var i=0;i<edges.length;i++) {
    if (edges[i].id.substr(0,4)=='edge') {
      edges[i].setAttribute('class','edge');
    }
  }
}
]]></script>
        <defs>
                <circle id="rim" cx="0" cy="0" r="7"/>
                <circle id="rim2" cx="0" cy="0" r="3.5"/>
                <g id="zoomPlus">
                        <use xlink:href="#rim" fill="#404040">
                                <set attributeName="fill" to="#808080" begin="zoomplus.mouseover" end="zoomplus.mouseout"/>
                        </use>
                        <path d="M-4,0h8M0,-4v8" fill="none" stroke="white" stroke-width="1.5" pointer-events="none"/>
                </g>
                <g id="zoomMin">
                        <use xlink:href="#rim" fill="#404040">
                                <set attributeName="fill" to="#808080" begin="zoomminus.mouseover" end="zoomminus.mouseout"/>
                        </use>
                        <path d="M-4,0h8" fill="none" stroke="white" stroke-width="1.5" pointer-events="none"/>
                </g>
                <g id="dirArrow">
                        <path fill="none" stroke="white" stroke-width="1.5" d="M0,-3.0v7 M-2.5,-0.5L0,-3.0L2.5,-0.5"/>
                </g>
               <g id="resetDef">
                       <use xlink:href="#rim2" fill="#404040">
                               <set attributeName="fill" to="#808080" begin="reset.mouseover" end="reset.mouseout"/>
                       </use>
               </g>
        </defs>

<script type="text/javascript">
var viewWidth = 1313;
var viewHeight = 345;
var sectionId = 'dynsection-12';
</script>
<script xlink:href="svgpan.js"/>
<svg id="graph" class="graph">
<g id="viewport">
<title>Photon.Pun.Demo.Cockpit.PunCockpit.JoinRoom</title>
<polygon fill="white" stroke="transparent" points="-4,4 -4,-341 1309,-341 1309,4 -4,4"/>
<!-- Node1 -->
<g id="node1" class="node">
<title>Node1</title>
<g id="a_node1"><a xlink:title=" ">
<polygon fill="#bfbfbf" stroke="black" points="0,-134.5 0,-164.5 135,-164.5 135,-134.5 0,-134.5"/>
<text text-anchor="start" x="8" y="-152.5" font-family="Helvetica,sans-Serif" font-size="10.00">Photon.Pun.Demo.Cockpit.</text>
<text text-anchor="middle" x="67.5" y="-141.5" font-family="Helvetica,sans-Serif" font-size="10.00">PunCockpit.JoinRoom</text>
</a>
</g>
</g>
<!-- Node2 -->
<g id="node2" class="node">
<title>Node2</title>
<g id="a_node2"><a xlink:href="class_photon_1_1_pun_1_1_photon_network.xhtml#ae4640a50e5a883807370aaa4a4d6102d" target="_top" xlink:title="Joins a room by name.">
<polygon fill="white" stroke="black" points="171,-159.5 171,-189.5 311,-189.5 311,-159.5 171,-159.5"/>
<text text-anchor="start" x="179" y="-177.5" font-family="Helvetica,sans-Serif" font-size="10.00">Photon.Pun.PhotonNetwork.</text>
<text text-anchor="middle" x="241" y="-166.5" font-family="Helvetica,sans-Serif" font-size="10.00">JoinRoom</text>
</a>
</g>
</g>
<!-- Node1&#45;&gt;Node2 -->
<g id="edge1" class="edge">
<title>Node1&#45;&gt;Node2</title>
<path fill="none" stroke="midnightblue" d="M135.3,-159.24C143.68,-160.46 152.32,-161.72 160.86,-162.96"/>
<polygon fill="midnightblue" stroke="midnightblue" points="160.44,-166.44 170.84,-164.42 161.45,-159.51 160.44,-166.44"/>
</g>
<!-- Node20 -->
<g id="node20" class="node">
<title>Node20</title>
<g id="a_node20"><a xlink:href="class_photon_1_1_pun_1_1_demo_1_1_cockpit_1_1_room_list_view.xhtml#a7895abb54fec1f34ff4b344294adc0ce" target="_top" xlink:title=" ">
<polygon fill="white" stroke="black" points="173.5,-110.5 173.5,-140.5 308.5,-140.5 308.5,-110.5 173.5,-110.5"/>
<text text-anchor="start" x="181.5" y="-128.5" font-family="Helvetica,sans-Serif" font-size="10.00">Photon.Pun.Demo.Cockpit.</text>
<text text-anchor="middle" x="241" y="-117.5" font-family="Helvetica,sans-Serif" font-size="10.00">RoomListView.ResetList</text>
</a>
</g>
</g>
<!-- Node1&#45;&gt;Node20 -->
<g id="edge21" class="edge">
<title>Node1&#45;&gt;Node20</title>
<path fill="none" stroke="midnightblue" d="M135.3,-140.15C144.48,-138.87 153.98,-137.54 163.32,-136.23"/>
<polygon fill="midnightblue" stroke="midnightblue" points="163.97,-139.67 173.38,-134.82 163,-132.74 163.97,-139.67"/>
</g>
<!-- Node3 -->
<g id="node3" class="node">
<title>Node3</title>
<g id="a_node3"><a xlink:href="class_photon_1_1_pun_1_1_photon_network.xhtml#a82287a4a3bbfd5125fc858ae3805481c" target="_top" xlink:title="Internally used helper&#45;method to setup an offline room, the numbers for actor and master&#45;client and t...">
<polygon fill="white" stroke="black" points="354.5,-208.5 354.5,-238.5 494.5,-238.5 494.5,-208.5 354.5,-208.5"/>
<text text-anchor="start" x="362.5" y="-226.5" font-family="Helvetica,sans-Serif" font-size="10.00">Photon.Pun.PhotonNetwork.</text>
<text text-anchor="middle" x="424.5" y="-215.5" font-family="Helvetica,sans-Serif" font-size="10.00">EnterOfflineRoom</text>
</a>
</g>
</g>
<!-- Node2&#45;&gt;Node3 -->
<g id="edge2" class="edge">
<title>Node2&#45;&gt;Node3</title>
<path fill="none" stroke="midnightblue" d="M297.94,-189.6C316.92,-194.73 338.29,-200.5 357.95,-205.8"/>
<polygon fill="midnightblue" stroke="midnightblue" points="357.18,-209.22 367.75,-208.45 359.01,-202.46 357.18,-209.22"/>
</g>
<!-- Node14 -->
<g id="node14" class="node">
<title>Node14</title>
<g id="a_node14"><a xlink:href="class_photon_1_1_realtime_1_1_load_balancing_client.xhtml#a0dc81af9d3bde45838728c93f906c2ca" target="_top" xlink:title="Joins a room by name.">
<polygon fill="white" stroke="black" points="347,-110.5 347,-140.5 502,-140.5 502,-110.5 347,-110.5"/>
<text text-anchor="start" x="355" y="-128.5" font-family="Helvetica,sans-Serif" font-size="10.00">Photon.Realtime.LoadBalancing</text>
<text text-anchor="middle" x="424.5" y="-117.5" font-family="Helvetica,sans-Serif" font-size="10.00">Client.OpJoinRoom</text>
</a>
</g>
</g>
<!-- Node2&#45;&gt;Node14 -->
<g id="edge14" class="edge">
<title>Node2&#45;&gt;Node14</title>
<path fill="none" stroke="midnightblue" d="M297.94,-159.4C316.92,-154.27 338.29,-148.5 357.95,-143.2"/>
<polygon fill="midnightblue" stroke="midnightblue" points="359.01,-146.54 367.75,-140.55 357.18,-139.78 359.01,-146.54"/>
</g>
<!-- Node4 -->
<g id="node4" class="node">
<title>Node4</title>
<g id="a_node4"><a xlink:href="class_photon_1_1_realtime_1_1_room.xhtml#a56e911de4cd47b4fd2dba63830c35ed3" target="_top" xlink:title="Checks if the player is in the room&#39;s list already and calls StorePlayer() if not.">
<polygon fill="white" stroke="black" points="557.5,-208.5 557.5,-238.5 694.5,-238.5 694.5,-208.5 557.5,-208.5"/>
<text text-anchor="start" x="565.5" y="-226.5" font-family="Helvetica,sans-Serif" font-size="10.00">Photon.Realtime.Room.Add</text>
<text text-anchor="middle" x="626" y="-215.5" font-family="Helvetica,sans-Serif" font-size="10.00">Player</text>
</a>
</g>
</g>
<!-- Node3&#45;&gt;Node4 -->
<g id="edge3" class="edge">
<title>Node3&#45;&gt;Node4</title>
<path fill="none" stroke="midnightblue" d="M494.72,-223.5C511.65,-223.5 529.88,-223.5 547.19,-223.5"/>
<polygon fill="midnightblue" stroke="midnightblue" points="547.25,-227 557.25,-223.5 547.25,-220 547.25,-227"/>
</g>
<!-- Node6 -->
<g id="node6" class="node">
<title>Node6</title>
<g id="a_node6"><a xlink:href="class_photon_1_1_realtime_1_1_load_balancing_client.xhtml#a32adb95af4cb836a29fc53aa66000caf" target="_top" xlink:title="Internally used to set the LocalPlayer&#39;s ID (from &#45;1 to the actual in&#45;room ID).">
<polygon fill="white" stroke="black" points="548.5,-159.5 548.5,-189.5 703.5,-189.5 703.5,-159.5 548.5,-159.5"/>
<text text-anchor="start" x="556.5" y="-177.5" font-family="Helvetica,sans-Serif" font-size="10.00">Photon.Realtime.LoadBalancing</text>
<text text-anchor="middle" x="626" y="-166.5" font-family="Helvetica,sans-Serif" font-size="10.00">Client.ChangeLocalID</text>
</a>
</g>
</g>
<!-- Node3&#45;&gt;Node6 -->
<g id="edge5" class="edge">
<title>Node3&#45;&gt;Node6</title>
<path fill="none" stroke="midnightblue" d="M486.71,-208.47C507.97,-203.24 531.98,-197.35 553.96,-191.95"/>
<polygon fill="midnightblue" stroke="midnightblue" points="555.03,-195.29 563.9,-189.51 553.36,-188.49 555.03,-195.29"/>
</g>
<!-- Node10 -->
<g id="node10" class="node">
<title>Node10</title>
<g id="a_node10"><a xlink:href="class_photon_1_1_realtime_1_1_match_making_callbacks_container.xhtml#a0cbb3230022bdffebc1191f80f9bfc2a" target="_top" xlink:title="Called when this client created a room and entered it.">
<polygon fill="white" stroke="black" points="538,-306.5 538,-336.5 714,-336.5 714,-306.5 538,-306.5"/>
<text text-anchor="start" x="546" y="-324.5" font-family="Helvetica,sans-Serif" font-size="10.00">Photon.Realtime.MatchMaking</text>
<text text-anchor="middle" x="626" y="-313.5" font-family="Helvetica,sans-Serif" font-size="10.00">CallbacksContainer.OnCreatedRoom</text>
</a>
</g>
</g>
<!-- Node3&#45;&gt;Node10 -->
<g id="edge10" class="edge">
<title>Node3&#45;&gt;Node10</title>
<path fill="none" stroke="midnightblue" d="M444.79,-238.57C466.41,-254.85 503.04,-280.57 538,-296.5 543.22,-298.88 548.72,-301.09 554.32,-303.13"/>
<polygon fill="midnightblue" stroke="midnightblue" points="553.2,-306.45 563.79,-306.4 555.48,-299.83 553.2,-306.45"/>
</g>
<!-- Node12 -->
<g id="node12" class="node">
<title>Node12</title>
<g id="a_node12"><a xlink:href="class_photon_1_1_realtime_1_1_match_making_callbacks_container.xhtml#a5f91efa8551b2be7524bb4c6fb6da57a" target="_top" xlink:title="Called when the LoadBalancingClient entered a room, no matter if this client created it or simply joi...">
<polygon fill="white" stroke="black" points="541,-257.5 541,-287.5 711,-287.5 711,-257.5 541,-257.5"/>
<text text-anchor="start" x="549" y="-275.5" font-family="Helvetica,sans-Serif" font-size="10.00">Photon.Realtime.MatchMaking</text>
<text text-anchor="middle" x="626" y="-264.5" font-family="Helvetica,sans-Serif" font-size="10.00">CallbacksContainer.OnJoinedRoom</text>
</a>
</g>
</g>
<!-- Node3&#45;&gt;Node12 -->
<g id="edge12" class="edge">
<title>Node3&#45;&gt;Node12</title>
<path fill="none" stroke="midnightblue" d="M486.71,-238.53C507.97,-243.76 531.98,-249.65 553.96,-255.05"/>
<polygon fill="midnightblue" stroke="midnightblue" points="553.36,-258.51 563.9,-257.49 555.03,-251.71 553.36,-258.51"/>
</g>
<!-- Node5 -->
<g id="node5" class="node">
<title>Node5</title>
<g id="a_node5"><a xlink:href="class_photon_1_1_realtime_1_1_room.xhtml#a5e614a00e26aae5f35f0805c4e4bb7a9" target="_top" xlink:title="Updates a player reference in the Players dictionary (no matter if it existed before or not).">
<polygon fill="white" stroke="black" points="765,-208.5 765,-238.5 908,-238.5 908,-208.5 765,-208.5"/>
<text text-anchor="start" x="773" y="-226.5" font-family="Helvetica,sans-Serif" font-size="10.00">Photon.Realtime.Room.Store</text>
<text text-anchor="middle" x="836.5" y="-215.5" font-family="Helvetica,sans-Serif" font-size="10.00">Player</text>
</a>
</g>
</g>
<!-- Node4&#45;&gt;Node5 -->
<g id="edge4" class="edge">
<title>Node4&#45;&gt;Node5</title>
<path fill="none" stroke="midnightblue" d="M694.69,-223.5C713.83,-223.5 734.85,-223.5 754.68,-223.5"/>
<polygon fill="midnightblue" stroke="midnightblue" points="754.92,-227 764.92,-223.5 754.92,-220 754.92,-227"/>
</g>
<!-- Node6&#45;&gt;Node5 -->
<g id="edge9" class="edge">
<title>Node6&#45;&gt;Node5</title>
<path fill="none" stroke="midnightblue" d="M690.97,-189.53C713.39,-194.8 738.74,-200.76 761.88,-206.2"/>
<polygon fill="midnightblue" stroke="midnightblue" points="761.11,-209.61 771.65,-208.49 762.71,-202.8 761.11,-209.61"/>
</g>
<!-- Node7 -->
<g id="node7" class="node">
<title>Node7</title>
<g id="a_node7"><a xlink:href="class_photon_1_1_realtime_1_1_load_balancing_client.xhtml#a69dd43d4c7211b5b83cd54d0ebcf79e7" target="_top" xlink:title="Debug output of low level api (and this client).">
<polygon fill="white" stroke="black" points="759,-159.5 759,-189.5 914,-189.5 914,-159.5 759,-159.5"/>
<text text-anchor="start" x="767" y="-177.5" font-family="Helvetica,sans-Serif" font-size="10.00">Photon.Realtime.LoadBalancing</text>
<text text-anchor="middle" x="836.5" y="-166.5" font-family="Helvetica,sans-Serif" font-size="10.00">Client.DebugReturn</text>
</a>
</g>
</g>
<!-- Node6&#45;&gt;Node7 -->
<g id="edge6" class="edge">
<title>Node6&#45;&gt;Node7</title>
<path fill="none" stroke="midnightblue" d="M703.75,-174.5C718.37,-174.5 733.77,-174.5 748.68,-174.5"/>
<polygon fill="midnightblue" stroke="midnightblue" points="748.91,-178 758.91,-174.5 748.91,-171 748.91,-178"/>
</g>
<!-- Node8 -->
<g id="node8" class="node">
<title>Node8</title>
<g id="a_node8"><a xlink:href="class_photon_1_1_realtime_1_1_load_balancing_peer.xhtml#a7f48b5f0c44ef0c67ef32f147ff87246" target="_top" xlink:title="Creates a Peer with specified connection protocol.">
<polygon fill="white" stroke="black" points="959,-159.5 959,-189.5 1114,-189.5 1114,-159.5 959,-159.5"/>
<text text-anchor="start" x="967" y="-177.5" font-family="Helvetica,sans-Serif" font-size="10.00">Photon.Realtime.LoadBalancing</text>
<text text-anchor="middle" x="1036.5" y="-166.5" font-family="Helvetica,sans-Serif" font-size="10.00">Peer.LoadBalancingPeer</text>
</a>
</g>
</g>
<!-- Node7&#45;&gt;Node8 -->
<g id="edge7" class="edge">
<title>Node7&#45;&gt;Node8</title>
<path fill="none" stroke="midnightblue" d="M914.05,-174.5C925.41,-174.5 937.19,-174.5 948.75,-174.5"/>
<polygon fill="midnightblue" stroke="midnightblue" points="948.83,-178 958.83,-174.5 948.83,-171 948.83,-178"/>
</g>
<!-- Node9 -->
<g id="node9" class="node">
<title>Node9</title>
<g id="a_node9"><a xlink:href="class_photon_1_1_realtime_1_1_load_balancing_peer.xhtml#affaff7e1fdffe86b25156ffac5e738c9" target="_top" xlink:title=" ">
<polygon fill="white" stroke="black" points="1150,-159.5 1150,-189.5 1305,-189.5 1305,-159.5 1150,-159.5"/>
<text text-anchor="start" x="1158" y="-177.5" font-family="Helvetica,sans-Serif" font-size="10.00">Photon.Realtime.LoadBalancing</text>
<text text-anchor="middle" x="1227.5" y="-166.5" font-family="Helvetica,sans-Serif" font-size="10.00">Peer.ConfigUnitySockets</text>
</a>
</g>
</g>
<!-- Node8&#45;&gt;Node9 -->
<g id="edge8" class="edge">
<title>Node8&#45;&gt;Node9</title>
<path fill="none" stroke="midnightblue" d="M1114.1,-174.5C1122.56,-174.5 1131.22,-174.5 1139.79,-174.5"/>
<polygon fill="midnightblue" stroke="midnightblue" points="1139.79,-178 1149.79,-174.5 1139.79,-171 1139.79,-178"/>
</g>
<!-- Node11 -->
<g id="node11" class="node">
<title>Node11</title>
<g id="a_node11"><a xlink:href="interface_photon_1_1_realtime_1_1_i_matchmaking_callbacks.xhtml#a3d084f0aa95b2e8f48514695af73b31d" target="_top" xlink:title="Called when this client created a room and entered it.">
<polygon fill="white" stroke="black" points="760.5,-306.5 760.5,-336.5 912.5,-336.5 912.5,-306.5 760.5,-306.5"/>
<text text-anchor="start" x="768.5" y="-324.5" font-family="Helvetica,sans-Serif" font-size="10.00">Photon.Realtime.IMatchmaking</text>
<text text-anchor="middle" x="836.5" y="-313.5" font-family="Helvetica,sans-Serif" font-size="10.00">Callbacks.OnCreatedRoom</text>
</a>
</g>
</g>
<!-- Node10&#45;&gt;Node11 -->
<g id="edge11" class="edge">
<title>Node10&#45;&gt;Node11</title>
<path fill="none" stroke="midnightblue" d="M714.21,-321.5C726.04,-321.5 738.16,-321.5 749.96,-321.5"/>
<polygon fill="midnightblue" stroke="midnightblue" points="750.22,-325 760.22,-321.5 750.22,-318 750.22,-325"/>
</g>
<!-- Node13 -->
<g id="node13" class="node">
<title>Node13</title>
<g id="a_node13"><a xlink:href="interface_photon_1_1_realtime_1_1_i_matchmaking_callbacks.xhtml#a8add9e72c38d241a448f4b539acd684b" target="_top" xlink:title="Called when the LoadBalancingClient entered a room, no matter if this client created it or simply joi...">
<polygon fill="white" stroke="black" points="760.5,-257.5 760.5,-287.5 912.5,-287.5 912.5,-257.5 760.5,-257.5"/>
<text text-anchor="start" x="768.5" y="-275.5" font-family="Helvetica,sans-Serif" font-size="10.00">Photon.Realtime.IMatchmaking</text>
<text text-anchor="middle" x="836.5" y="-264.5" font-family="Helvetica,sans-Serif" font-size="10.00">Callbacks.OnJoinedRoom</text>
</a>
</g>
</g>
<!-- Node12&#45;&gt;Node13 -->
<g id="edge13" class="edge">
<title>Node12&#45;&gt;Node13</title>
<path fill="none" stroke="midnightblue" d="M711.2,-272.5C724.05,-272.5 737.31,-272.5 750.18,-272.5"/>
<polygon fill="midnightblue" stroke="midnightblue" points="750.39,-276 760.39,-272.5 750.39,-269 750.39,-276"/>
</g>
<!-- Node15 -->
<g id="node15" class="node">
<title>Node15</title>
<g id="a_node15"><a xlink:href="class_photon_1_1_realtime_1_1_load_balancing_client.xhtml#aa12ff3efc3aa91e5ceca9b3a40f7bd79" target="_top" xlink:title=" ">
<polygon fill="white" stroke="black" points="548.5,-110.5 548.5,-140.5 703.5,-140.5 703.5,-110.5 548.5,-110.5"/>
<text text-anchor="start" x="556.5" y="-128.5" font-family="Helvetica,sans-Serif" font-size="10.00">Photon.Realtime.LoadBalancing</text>
<text text-anchor="middle" x="626" y="-117.5" font-family="Helvetica,sans-Serif" font-size="10.00">Client.CheckIfOpCanBeSent</text>
</a>
</g>
</g>
<!-- Node14&#45;&gt;Node15 -->
<g id="edge15" class="edge">
<title>Node14&#45;&gt;Node15</title>
<path fill="none" stroke="midnightblue" d="M502.06,-125.5C513.91,-125.5 526.22,-125.5 538.27,-125.5"/>
<polygon fill="midnightblue" stroke="midnightblue" points="538.31,-129 548.31,-125.5 538.31,-122 538.31,-129"/>
</g>
<!-- Node18 -->
<g id="node18" class="node">
<title>Node18</title>
<g id="a_node18"><a xlink:href="class_photon_1_1_realtime_1_1_load_balancing_peer.xhtml#a1dc6be1075f64edd0b746f2e61c114f5" target="_top" xlink:title="Joins a room by name or creates new room if room with given name not exists.">
<polygon fill="white" stroke="black" points="548.5,-31.5 548.5,-61.5 703.5,-61.5 703.5,-31.5 548.5,-31.5"/>
<text text-anchor="start" x="556.5" y="-49.5" font-family="Helvetica,sans-Serif" font-size="10.00">Photon.Realtime.LoadBalancing</text>
<text text-anchor="middle" x="626" y="-38.5" font-family="Helvetica,sans-Serif" font-size="10.00">Peer.OpJoinRoom</text>
</a>
</g>
</g>
<!-- Node14&#45;&gt;Node18 -->
<g id="edge19" class="edge">
<title>Node14&#45;&gt;Node18</title>
<path fill="none" stroke="midnightblue" d="M463.49,-110.45C495.84,-97.65 542.47,-79.18 577.31,-65.38"/>
<polygon fill="midnightblue" stroke="midnightblue" points="578.8,-68.56 586.81,-61.62 576.22,-62.05 578.8,-68.56"/>
</g>
<!-- Node15&#45;&gt;Node7 -->
<g id="edge18" class="edge">
<title>Node15&#45;&gt;Node7</title>
<path fill="none" stroke="midnightblue" d="M690.97,-140.53C713.39,-145.8 738.74,-151.76 761.88,-157.2"/>
<polygon fill="midnightblue" stroke="midnightblue" points="761.11,-160.61 771.65,-159.49 762.71,-153.8 761.11,-160.61"/>
</g>
<!-- Node16 -->
<g id="node16" class="node">
<title>Node16</title>
<g id="a_node16"><a xlink:href="class_photon_1_1_realtime_1_1_load_balancing_client.xhtml#ae052ab450db16efdd31985d56f76f0ab" target="_top" xlink:title=" ">
<polygon fill="white" stroke="black" points="754.5,-50 754.5,-91 918.5,-91 918.5,-50 754.5,-50"/>
<text text-anchor="start" x="762.5" y="-79" font-family="Helvetica,sans-Serif" font-size="10.00">Photon.Realtime.LoadBalancing</text>
<text text-anchor="start" x="762.5" y="-68" font-family="Helvetica,sans-Serif" font-size="10.00">Client.CheckIfClientIsReadyToCall</text>
<text text-anchor="middle" x="836.5" y="-57" font-family="Helvetica,sans-Serif" font-size="10.00">Operation</text>
</a>
</g>
</g>
<!-- Node15&#45;&gt;Node16 -->
<g id="edge16" class="edge">
<title>Node15&#45;&gt;Node16</title>
<path fill="none" stroke="midnightblue" d="M683.97,-110.47C703.63,-105.29 726.13,-99.35 747.68,-93.67"/>
<polygon fill="midnightblue" stroke="midnightblue" points="748.72,-97.01 757.49,-91.08 746.93,-90.24 748.72,-97.01"/>
</g>
<!-- Node17 -->
<g id="node17" class="node">
<title>Node17</title>
<g id="a_node17"><a xlink:href="class_photon_1_1_realtime_1_1_load_balancing_client.xhtml#aa01a53cac6918dab3ecb99669b276f01" target="_top" xlink:title=" ">
<polygon fill="white" stroke="black" points="755,-110.5 755,-140.5 918,-140.5 918,-110.5 755,-110.5"/>
<text text-anchor="start" x="763" y="-128.5" font-family="Helvetica,sans-Serif" font-size="10.00">Photon.Realtime.LoadBalancing</text>
<text text-anchor="middle" x="836.5" y="-117.5" font-family="Helvetica,sans-Serif" font-size="10.00">Client.CheckIfOpAllowedOnServer</text>
</a>
</g>
</g>
<!-- Node15&#45;&gt;Node17 -->
<g id="edge17" class="edge">
<title>Node15&#45;&gt;Node17</title>
<path fill="none" stroke="midnightblue" d="M703.75,-125.5C716.98,-125.5 730.85,-125.5 744.41,-125.5"/>
<polygon fill="midnightblue" stroke="midnightblue" points="744.71,-129 754.71,-125.5 744.71,-122 744.71,-129"/>
</g>
<!-- Node19 -->
<g id="node19" class="node">
<title>Node19</title>
<g id="a_node19"><a xlink:href="class_photon_1_1_realtime_1_1_load_balancing_peer.xhtml#a7ba1675f94fad7ace3f931c73179b117" target="_top" xlink:title="Used by OpJoinRoom and by OpCreateRoom alike.">
<polygon fill="white" stroke="black" points="750,-0.5 750,-30.5 923,-30.5 923,-0.5 750,-0.5"/>
<text text-anchor="start" x="758" y="-18.5" font-family="Helvetica,sans-Serif" font-size="10.00">Photon.Realtime.LoadBalancing</text>
<text text-anchor="middle" x="836.5" y="-7.5" font-family="Helvetica,sans-Serif" font-size="10.00">Peer.RoomOptionsToOpParameters</text>
</a>
</g>
</g>
<!-- Node18&#45;&gt;Node19 -->
<g id="edge20" class="edge">
<title>Node18&#45;&gt;Node19</title>
<path fill="none" stroke="midnightblue" d="M703.75,-35.09C715.45,-33.35 727.65,-31.54 739.7,-29.74"/>
<polygon fill="midnightblue" stroke="midnightblue" points="740.39,-33.18 749.77,-28.25 739.36,-26.26 740.39,-33.18"/>
</g>
</g>
</svg>
        <g id="navigator" transform="translate(0 0)" fill="#404254">
                <rect fill="#f2f5e9" fill-opacity="0.5" stroke="#606060" stroke-width=".5" x="0" y="0" width="60" height="60"/>
                <use id="zoomplus" xlink:href="#zoomPlus" x="17" y="9" onmousedown="handleZoom(evt,'in')"/>
                <use id="zoomminus" xlink:href="#zoomMin" x="42" y="9" onmousedown="handleZoom(evt,'out')"/>
                <use id="reset" xlink:href="#resetDef" x="30" y="36" onmousedown="handleReset()"/>
                <g id="arrowUp" xlink:href="#dirArrow" transform="translate(30 24)" onmousedown="handlePan(0,-1)">
                  <use xlink:href="#rim" fill="#404040">
                        <set attributeName="fill" to="#808080" begin="arrowUp.mouseover" end="arrowUp.mouseout"/>
                  </use>
                  <path fill="none" stroke="white" stroke-width="1.5" d="M0,-3.0v7 M-2.5,-0.5L0,-3.0L2.5,-0.5"/>
                </g>
                <g id="arrowRight" xlink:href="#dirArrow" transform="rotate(90) translate(36 -43)" onmousedown="handlePan(1,0)">
                  <use xlink:href="#rim" fill="#404040">
                        <set attributeName="fill" to="#808080" begin="arrowRight.mouseover" end="arrowRight.mouseout"/>
                  </use>
                  <path fill="none" stroke="white" stroke-width="1.5" d="M0,-3.0v7 M-2.5,-0.5L0,-3.0L2.5,-0.5"/>
                </g>
                <g id="arrowDown" xlink:href="#dirArrow" transform="rotate(180) translate(-30 -48)" onmousedown="handlePan(0,1)">
                  <use xlink:href="#rim" fill="#404040">
                        <set attributeName="fill" to="#808080" begin="arrowDown.mouseover" end="arrowDown.mouseout"/>
                  </use>
                  <path fill="none" stroke="white" stroke-width="1.5" d="M0,-3.0v7 M-2.5,-0.5L0,-3.0L2.5,-0.5"/>
                </g>
                <g id="arrowLeft" xlink:href="#dirArrow" transform="rotate(270) translate(-36 17)" onmousedown="handlePan(-1,0)">
                  <use xlink:href="#rim" fill="#404040">
                        <set attributeName="fill" to="#808080" begin="arrowLeft.mouseover" end="arrowLeft.mouseout"/>
                  </use>
                  <path fill="none" stroke="white" stroke-width="1.5" d="M0,-3.0v7 M-2.5,-0.5L0,-3.0L2.5,-0.5"/>
                </g>
        </g>
        <svg viewBox="0 0 15 15" width="100%" height="30px" preserveAspectRatio="xMaxYMin meet">
         <g id="arrow_out" transform="scale(0.3 0.3)">
          <a xlink:href="class_photon_1_1_pun_1_1_demo_1_1_cockpit_1_1_pun_cockpit_ae9bd6f6fe9ea586ea81e0d8e6deaa126_cgraph_org.svg" target="_base">
           <rect id="button" ry="5" rx="5" y="6" x="6" height="38" width="38"
                fill="#f2f5e9" fill-opacity="0.5" stroke="#606060" stroke-width="1.0"/>
           <path id="arrow"
             d="M 11.500037,31.436501 C 11.940474,20.09759 22.043105,11.32322 32.158766,21.979434 L 37.068811,17.246167 C 37.068811,17.246167 37.088388,32 37.088388,32 L 22.160133,31.978069 C 22.160133,31.978069 26.997745,27.140456 26.997745,27.140456 C 18.528582,18.264221 13.291696,25.230495 11.500037,31.436501 z"
             style="fill:#404040;"/>
          </a>
         </g>
        </svg>
</svg>
