<?xml version="1.0" encoding="UTF-8" standalone="no"?>
<!DOCTYPE svg PUBLIC "-//W3C//DTD SVG 1.1//EN"
 "http://www.w3.org/Graphics/SVG/1.1/DTD/svg11.dtd">
<!-- Generated by graphviz version 2.47.3 (20210619.1520)
 -->
<!-- Title: Photon.Pun.Demo.Cockpit.PunCockpit.ReConnect Pages: 1 -->
<svg width="1674pt" height="113pt"
 viewBox="0.00 0.00 1674.00 112.61" xmlns="http://www.w3.org/2000/svg" xmlns:xlink="http://www.w3.org/1999/xlink">
<g id="graph0" class="graph" transform="scale(1 1) rotate(0) translate(4 108.61)">
<title>Photon.Pun.Demo.Cockpit.PunCockpit.ReConnect</title>
<polygon fill="white" stroke="transparent" points="-4,4 -4,-108.61 1670,-108.61 1670,4 -4,4"/>
<!-- Node1 -->
<g id="node1" class="node">
<title>Node1</title>
<g id="a_node1"><a xlink:title=" ">
<polygon fill="#bfbfbf" stroke="black" points="0,-3.11 0,-33.11 135,-33.11 135,-3.11 0,-3.11"/>
<text text-anchor="start" x="8" y="-21.11" font-family="Helvetica,sans-Serif" font-size="10.00">Photon.Pun.Demo.Cockpit.</text>
<text text-anchor="middle" x="67.5" y="-10.11" font-family="Helvetica,sans-Serif" font-size="10.00">PunCockpit.ReConnect</text>
</a>
</g>
</g>
<!-- Node2 -->
<g id="node2" class="node">
<title>Node2</title>
<g id="a_node2"><a xlink:href="class_photon_1_1_pun_1_1_photon_network.xhtml#afd132f2621f17054934ed5f1296997ed" target="_top" xlink:title="Can be used to reconnect to the master server after a disconnect.">
<polygon fill="white" stroke="black" points="171,-3.11 171,-33.11 311,-33.11 311,-3.11 171,-3.11"/>
<text text-anchor="start" x="179" y="-21.11" font-family="Helvetica,sans-Serif" font-size="10.00">Photon.Pun.PhotonNetwork.</text>
<text text-anchor="middle" x="241" y="-10.11" font-family="Helvetica,sans-Serif" font-size="10.00">Reconnect</text>
</a>
</g>
</g>
<!-- Node1&#45;&gt;Node2 -->
<g id="edge1" class="edge">
<title>Node1&#45;&gt;Node2</title>
<path fill="none" stroke="midnightblue" d="M135.3,-18.11C143.59,-18.11 152.13,-18.11 160.59,-18.11"/>
<polygon fill="midnightblue" stroke="midnightblue" points="160.84,-21.61 170.84,-18.11 160.84,-14.61 160.84,-21.61"/>
</g>
<!-- Node3 -->
<g id="node3" class="node">
<title>Node3</title>
<g id="a_node3"><a xlink:href="class_photon_1_1_realtime_1_1_load_balancing_client.xhtml#abab1abad952ecfcbb9cc91af7aa2e568" target="_top" xlink:title="Can be used to reconnect to the master server after a disconnect.">
<polygon fill="white" stroke="black" points="347,-3.11 347,-33.11 502,-33.11 502,-3.11 347,-3.11"/>
<text text-anchor="start" x="355" y="-21.11" font-family="Helvetica,sans-Serif" font-size="10.00">Photon.Realtime.LoadBalancing</text>
<text text-anchor="middle" x="424.5" y="-10.11" font-family="Helvetica,sans-Serif" font-size="10.00">Client.ReconnectToMaster</text>
</a>
</g>
</g>
<!-- Node2&#45;&gt;Node3 -->
<g id="edge2" class="edge">
<title>Node2&#45;&gt;Node3</title>
<path fill="none" stroke="midnightblue" d="M311.14,-18.11C319.56,-18.11 328.25,-18.11 336.89,-18.11"/>
<polygon fill="midnightblue" stroke="midnightblue" points="336.98,-21.61 346.98,-18.11 336.98,-14.61 336.98,-21.61"/>
</g>
<!-- Node4 -->
<g id="node4" class="node">
<title>Node4</title>
<g id="a_node4"><a xlink:href="class_photon_1_1_realtime_1_1_load_balancing_client.xhtml#a84e280b4685509d7fa65bedebb0828a2" target="_top" xlink:title=" ">
<polygon fill="white" stroke="black" points="538,-25.11 538,-55.11 693,-55.11 693,-25.11 538,-25.11"/>
<text text-anchor="start" x="546" y="-43.11" font-family="Helvetica,sans-Serif" font-size="10.00">Photon.Realtime.LoadBalancing</text>
<text text-anchor="middle" x="615.5" y="-32.11" font-family="Helvetica,sans-Serif" font-size="10.00">Client.Connect</text>
</a>
</g>
</g>
<!-- Node3&#45;&gt;Node4 -->
<g id="edge3" class="edge">
<title>Node3&#45;&gt;Node4</title>
<path fill="none" stroke="midnightblue" d="M502.1,-27.02C510.56,-28.01 519.22,-29.02 527.79,-30.01"/>
<polygon fill="midnightblue" stroke="midnightblue" points="527.45,-33.5 537.79,-31.18 528.26,-26.55 527.45,-33.5"/>
</g>
<!-- Node7 -->
<g id="node7" class="node">
<title>Node7</title>
<g id="a_node7"><a xlink:href="class_photon_1_1_realtime_1_1_load_balancing_client.xhtml#a69dd43d4c7211b5b83cd54d0ebcf79e7" target="_top" xlink:title="Debug output of low level api (and this client).">
<polygon fill="white" stroke="black" points="1129,-27.11 1129,-57.11 1284,-57.11 1284,-27.11 1129,-27.11"/>
<text text-anchor="start" x="1137" y="-45.11" font-family="Helvetica,sans-Serif" font-size="10.00">Photon.Realtime.LoadBalancing</text>
<text text-anchor="middle" x="1206.5" y="-34.11" font-family="Helvetica,sans-Serif" font-size="10.00">Client.DebugReturn</text>
</a>
</g>
</g>
<!-- Node3&#45;&gt;Node7 -->
<g id="edge12" class="edge">
<title>Node3&#45;&gt;Node7</title>
<path fill="none" stroke="midnightblue" d="M502.17,-11.71C626.66,-2.68 880.24,10.07 1093,-15.11 1109.77,-17.09 1127.65,-20.68 1144.11,-24.61"/>
<polygon fill="midnightblue" stroke="midnightblue" points="1143.61,-28.09 1154.15,-27.09 1145.28,-21.3 1143.61,-28.09"/>
</g>
<!-- Node5 -->
<g id="node5" class="node">
<title>Node5</title>
<g id="a_node5"><a xlink:href="class_photon_1_1_realtime_1_1_load_balancing_client.xhtml#ad1d932ea902a1b1df7769e9a852077c6" target="_top" xlink:title="Starts the &quot;process&quot; to connect to a Master Server, using MasterServerAddress and AppId properties.">
<polygon fill="white" stroke="black" points="729,-25.11 729,-55.11 884,-55.11 884,-25.11 729,-25.11"/>
<text text-anchor="start" x="737" y="-43.11" font-family="Helvetica,sans-Serif" font-size="10.00">Photon.Realtime.LoadBalancing</text>
<text text-anchor="middle" x="806.5" y="-32.11" font-family="Helvetica,sans-Serif" font-size="10.00">Client.ConnectToMasterServer</text>
</a>
</g>
</g>
<!-- Node4&#45;&gt;Node5 -->
<g id="edge4" class="edge">
<title>Node4&#45;&gt;Node5</title>
<path fill="none" stroke="midnightblue" d="M693.1,-40.11C701.56,-40.11 710.22,-40.11 718.79,-40.11"/>
<polygon fill="midnightblue" stroke="midnightblue" points="718.79,-43.61 728.79,-40.11 718.79,-36.61 718.79,-43.61"/>
</g>
<!-- Node6 -->
<g id="node6" class="node">
<title>Node6</title>
<g id="a_node6"><a xlink:href="class_photon_1_1_realtime_1_1_load_balancing_client.xhtml#a29aacea6df375e301f67cb40ea90849e" target="_top" xlink:title=" ">
<polygon fill="white" stroke="black" points="924.5,-74.11 924.5,-104.11 1088.5,-104.11 1088.5,-74.11 924.5,-74.11"/>
<text text-anchor="start" x="932.5" y="-92.11" font-family="Helvetica,sans-Serif" font-size="10.00">Photon.Realtime.LoadBalancing</text>
<text text-anchor="middle" x="1006.5" y="-81.11" font-family="Helvetica,sans-Serif" font-size="10.00">Client.CheckConnectSetupWebGl</text>
</a>
</g>
</g>
<!-- Node5&#45;&gt;Node6 -->
<g id="edge5" class="edge">
<title>Node5&#45;&gt;Node6</title>
<path fill="none" stroke="midnightblue" d="M868.25,-55.14C889.35,-60.36 913.18,-66.26 935,-71.66"/>
<polygon fill="midnightblue" stroke="midnightblue" points="934.31,-75.1 944.86,-74.1 936,-68.3 934.31,-75.1"/>
</g>
<!-- Node10 -->
<g id="node10" class="node">
<title>Node10</title>
<g id="a_node10"><a xlink:href="class_photon_1_1_realtime_1_1_load_balancing_client.xhtml#a43a3b987e52c0e028ce1d5803b7b9507" target="_top" xlink:title=" ">
<polygon fill="white" stroke="black" points="920,-25.11 920,-55.11 1093,-55.11 1093,-25.11 920,-25.11"/>
<text text-anchor="start" x="928" y="-43.11" font-family="Helvetica,sans-Serif" font-size="10.00">Photon.Realtime.LoadBalancing</text>
<text text-anchor="middle" x="1006.5" y="-32.11" font-family="Helvetica,sans-Serif" font-size="10.00">Client.CheckConnectSetupXboxOne</text>
</a>
</g>
</g>
<!-- Node5&#45;&gt;Node10 -->
<g id="edge10" class="edge">
<title>Node5&#45;&gt;Node10</title>
<path fill="none" stroke="midnightblue" d="M884.05,-40.11C892.5,-40.11 901.18,-40.11 909.82,-40.11"/>
<polygon fill="midnightblue" stroke="midnightblue" points="909.94,-43.61 919.94,-40.11 909.94,-36.61 909.94,-43.61"/>
</g>
<!-- Node6&#45;&gt;Node7 -->
<g id="edge6" class="edge">
<title>Node6&#45;&gt;Node7</title>
<path fill="none" stroke="midnightblue" d="M1070.69,-74.11C1090.34,-69.44 1112.16,-64.26 1132.42,-59.45"/>
<polygon fill="midnightblue" stroke="midnightblue" points="1133.31,-62.84 1142.23,-57.13 1131.69,-56.03 1133.31,-62.84"/>
</g>
<!-- Node8 -->
<g id="node8" class="node">
<title>Node8</title>
<g id="a_node8"><a xlink:href="class_photon_1_1_realtime_1_1_load_balancing_peer.xhtml#a7f48b5f0c44ef0c67ef32f147ff87246" target="_top" xlink:title="Creates a Peer with specified connection protocol.">
<polygon fill="white" stroke="black" points="1320,-49.11 1320,-79.11 1475,-79.11 1475,-49.11 1320,-49.11"/>
<text text-anchor="start" x="1328" y="-67.11" font-family="Helvetica,sans-Serif" font-size="10.00">Photon.Realtime.LoadBalancing</text>
<text text-anchor="middle" x="1397.5" y="-56.11" font-family="Helvetica,sans-Serif" font-size="10.00">Peer.LoadBalancingPeer</text>
</a>
</g>
</g>
<!-- Node6&#45;&gt;Node8 -->
<g id="edge9" class="edge">
<title>Node6&#45;&gt;Node8</title>
<path fill="none" stroke="midnightblue" d="M1088.57,-83.9C1153.28,-79.74 1243.72,-73.93 1309.85,-69.68"/>
<polygon fill="midnightblue" stroke="midnightblue" points="1310.08,-73.17 1319.83,-69.04 1309.63,-66.18 1310.08,-73.17"/>
</g>
<!-- Node7&#45;&gt;Node8 -->
<g id="edge7" class="edge">
<title>Node7&#45;&gt;Node8</title>
<path fill="none" stroke="midnightblue" d="M1284.1,-51.02C1292.56,-52.01 1301.22,-53.02 1309.79,-54.01"/>
<polygon fill="midnightblue" stroke="midnightblue" points="1309.45,-57.5 1319.79,-55.18 1310.26,-50.55 1309.45,-57.5"/>
</g>
<!-- Node9 -->
<g id="node9" class="node">
<title>Node9</title>
<g id="a_node9"><a xlink:href="class_photon_1_1_realtime_1_1_load_balancing_peer.xhtml#affaff7e1fdffe86b25156ffac5e738c9" target="_top" xlink:title=" ">
<polygon fill="white" stroke="black" points="1511,-49.11 1511,-79.11 1666,-79.11 1666,-49.11 1511,-49.11"/>
<text text-anchor="start" x="1519" y="-67.11" font-family="Helvetica,sans-Serif" font-size="10.00">Photon.Realtime.LoadBalancing</text>
<text text-anchor="middle" x="1588.5" y="-56.11" font-family="Helvetica,sans-Serif" font-size="10.00">Peer.ConfigUnitySockets</text>
</a>
</g>
</g>
<!-- Node8&#45;&gt;Node9 -->
<g id="edge8" class="edge">
<title>Node8&#45;&gt;Node9</title>
<path fill="none" stroke="midnightblue" d="M1475.1,-64.11C1483.56,-64.11 1492.22,-64.11 1500.79,-64.11"/>
<polygon fill="midnightblue" stroke="midnightblue" points="1500.79,-67.61 1510.79,-64.11 1500.79,-60.61 1500.79,-67.61"/>
</g>
<!-- Node10&#45;&gt;Node7 -->
<g id="edge11" class="edge">
<title>Node10&#45;&gt;Node7</title>
<path fill="none" stroke="midnightblue" d="M1093.19,-40.97C1101.59,-41.06 1110.12,-41.14 1118.53,-41.23"/>
<polygon fill="midnightblue" stroke="midnightblue" points="1118.67,-44.73 1128.71,-41.33 1118.74,-37.73 1118.67,-44.73"/>
</g>
</g>
</svg>
