<?xml version="1.0" encoding="UTF-8" standalone="no"?>
<!DOCTYPE svg PUBLIC "-//W3C//DTD SVG 1.1//EN"
 "http://www.w3.org/Graphics/SVG/1.1/DTD/svg11.dtd">
<!-- Generated by graphviz version 2.47.3 (20210619.1520)
 -->
<!-- Title: Tayx.Graphy.Fps.G_FpsManager.RefreshParameters Pages: 1 -->
<svg width="538pt" height="39pt"
 viewBox="0.00 0.00 538.00 39.00" xmlns="http://www.w3.org/2000/svg" xmlns:xlink="http://www.w3.org/1999/xlink">
<g id="graph0" class="graph" transform="scale(1 1) rotate(0) translate(4 35)">
<title>Tayx.Graphy.Fps.G_FpsManager.RefreshParameters</title>
<polygon fill="white" stroke="transparent" points="-4,4 -4,-35 534,-35 534,4 -4,4"/>
<!-- Node1 -->
<g id="node1" class="node">
<title>Node1</title>
<g id="a_node1"><a xlink:title=" ">
<polygon fill="#bfbfbf" stroke="black" points="366,-0.5 366,-30.5 530,-30.5 530,-0.5 366,-0.5"/>
<text text-anchor="start" x="374" y="-18.5" font-family="Helvetica,sans-Serif" font-size="10.00">Tayx.Graphy.Fps.G_FpsManager.</text>
<text text-anchor="middle" x="448" y="-7.5" font-family="Helvetica,sans-Serif" font-size="10.00">RefreshParameters</text>
</a>
</g>
</g>
<!-- Node2 -->
<g id="node2" class="node">
<title>Node2</title>
<g id="a_node2"><a xlink:href="class_tayx_1_1_graphy_1_1_graphy_manager.xhtml#acee2ed06f19bb2ca4dd2c08cd6ea6663" target="_top" xlink:title=" ">
<polygon fill="white" stroke="black" points="183,-0.5 183,-30.5 330,-30.5 330,-0.5 183,-0.5"/>
<text text-anchor="start" x="191" y="-18.5" font-family="Helvetica,sans-Serif" font-size="10.00">Tayx.Graphy.GraphyManager.</text>
<text text-anchor="middle" x="256.5" y="-7.5" font-family="Helvetica,sans-Serif" font-size="10.00">RefreshAllParameters</text>
</a>
</g>
</g>
<!-- Node1&#45;&gt;Node2 -->
<g id="edge1" class="edge">
<title>Node1&#45;&gt;Node2</title>
<path fill="none" stroke="midnightblue" d="M355.76,-15.5C347.16,-15.5 338.53,-15.5 330.14,-15.5"/>
<polygon fill="midnightblue" stroke="midnightblue" points="355.81,-19 365.81,-15.5 355.81,-12 355.81,-19"/>
</g>
<!-- Node3 -->
<g id="node3" class="node">
<title>Node3</title>
<g id="a_node3"><a xlink:href="class_tayx_1_1_graphy_1_1_graphy_manager.xhtml#a348506f37eebf68d2530f2c57845459e" target="_top" xlink:title=" ">
<polygon fill="white" stroke="black" points="0,-0.5 0,-30.5 147,-30.5 147,-0.5 0,-0.5"/>
<text text-anchor="start" x="8" y="-18.5" font-family="Helvetica,sans-Serif" font-size="10.00">Tayx.Graphy.GraphyManager.</text>
<text text-anchor="middle" x="73.5" y="-7.5" font-family="Helvetica,sans-Serif" font-size="10.00">OnApplicationFocus</text>
</a>
</g>
</g>
<!-- Node2&#45;&gt;Node3 -->
<g id="edge2" class="edge">
<title>Node2&#45;&gt;Node3</title>
<path fill="none" stroke="midnightblue" d="M172.88,-15.5C164.28,-15.5 155.58,-15.5 147.09,-15.5"/>
<polygon fill="midnightblue" stroke="midnightblue" points="172.92,-19 182.92,-15.5 172.92,-12 172.92,-19"/>
</g>
</g>
</svg>
