<?xml version="1.0" encoding="UTF-8" standalone="no"?>
<!DOCTYPE svg PUBLIC "-//W3C//DTD SVG 1.1//EN"
 "http://www.w3.org/Graphics/SVG/1.1/DTD/svg11.dtd">
<!-- Generated by graphviz version 2.47.3 (20210619.1520)
 -->
<!-- Title: GameController Pages: 1 -->
<svg width="432pt" height="286pt"
 viewBox="0.00 0.00 431.50 286.00" xmlns="http://www.w3.org/2000/svg" xmlns:xlink="http://www.w3.org/1999/xlink">
<g id="graph0" class="graph" transform="scale(1 1) rotate(0) translate(4 282)">
<title>GameController</title>
<polygon fill="white" stroke="transparent" points="-4,4 -4,-282 427.5,-282 427.5,4 -4,4"/>
<!-- Node1 -->
<g id="node1" class="node">
<title>Node1</title>
<g id="a_node1"><a xlink:title="The UNIQUE Game Controller in the Scene.">
<polygon fill="#bfbfbf" stroke="black" points="142.5,-0.5 142.5,-19.5 226.5,-19.5 226.5,-0.5 142.5,-0.5"/>
<text text-anchor="middle" x="184.5" y="-7.5" font-family="Helvetica,sans-Serif" font-size="10.00">GameController</text>
</a>
</g>
</g>
<!-- Node2 -->
<g id="node2" class="node">
<title>Node2</title>
<g id="a_node2"><a xlink:href="class_singleton.xhtml" target="_top" xlink:title=" ">
<polygon fill="white" stroke="black" points="0,-67.5 0,-86.5 143,-86.5 143,-67.5 0,-67.5"/>
<text text-anchor="middle" x="71.5" y="-74.5" font-family="Helvetica,sans-Serif" font-size="10.00">Singleton&lt; GameController &gt;</text>
</a>
</g>
</g>
<!-- Node2&#45;&gt;Node1 -->
<g id="edge1" class="edge">
<title>Node2&#45;&gt;Node1</title>
<path fill="none" stroke="midnightblue" d="M95.64,-62.12C118.03,-49.24 150.64,-30.48 169.5,-19.63"/>
<polygon fill="midnightblue" stroke="midnightblue" points="93.66,-59.21 86.74,-67.23 97.15,-65.28 93.66,-59.21"/>
</g>
<!-- Node3 -->
<g id="node3" class="node">
<title>Node3</title>
<g id="a_node3"><a xlink:href="class_u_i_controller.xhtml" target="_top" xlink:title=" ">
<polygon fill="white" stroke="black" points="161,-67.5 161,-86.5 228,-86.5 228,-67.5 161,-67.5"/>
<text text-anchor="middle" x="194.5" y="-74.5" font-family="Helvetica,sans-Serif" font-size="10.00">UIController</text>
</a>
</g>
</g>
<!-- Node3&#45;&gt;Node1 -->
<g id="edge2" class="edge">
<title>Node3&#45;&gt;Node1</title>
<path fill="none" stroke="#9a32cd" stroke-dasharray="5,2" d="M187.57,-57.6C186.73,-54.75 186,-51.82 185.5,-49 183.74,-38.99 183.74,-27.27 184.01,-19.52"/>
<polygon fill="#9a32cd" stroke="#9a32cd" points="184.29,-58.83 190.82,-67.17 190.92,-56.58 184.29,-58.83"/>
<text text-anchor="middle" x="224.5" y="-41" font-family="Helvetica,sans-Serif" font-size="10.00"> mapElementsUis</text>
</g>
<!-- Node4 -->
<g id="node4" class="node">
<title>Node4</title>
<g id="a_node4"><a xlink:title=" ">
<polygon fill="white" stroke="#bfbfbf" points="153,-134.5 153,-153.5 236,-153.5 236,-134.5 153,-134.5"/>
<text text-anchor="middle" x="194.5" y="-141.5" font-family="Helvetica,sans-Serif" font-size="10.00">MonoBehaviour</text>
</a>
</g>
</g>
<!-- Node4&#45;&gt;Node3 -->
<g id="edge3" class="edge">
<title>Node4&#45;&gt;Node3</title>
<path fill="none" stroke="midnightblue" d="M194.5,-124.04C194.5,-111.67 194.5,-96.12 194.5,-86.63"/>
<polygon fill="midnightblue" stroke="midnightblue" points="191,-124.23 194.5,-134.23 198,-124.23 191,-124.23"/>
</g>
<!-- Node5 -->
<g id="node5" class="node">
<title>Node5</title>
<g id="a_node5"><a xlink:href="class_character.xhtml" target="_top" xlink:title=" ">
<polygon fill="white" stroke="black" points="256,-67.5 256,-86.5 315,-86.5 315,-67.5 256,-67.5"/>
<text text-anchor="middle" x="285.5" y="-74.5" font-family="Helvetica,sans-Serif" font-size="10.00">Character</text>
</a>
</g>
</g>
<!-- Node5&#45;&gt;Node1 -->
<g id="edge4" class="edge">
<title>Node5&#45;&gt;Node1</title>
<path fill="none" stroke="#9a32cd" stroke-dasharray="5,2" d="M278.27,-57.73C274.73,-50.74 269.83,-43.2 263.5,-38 252.97,-29.35 239.52,-23.41 226.72,-19.36"/>
<polygon fill="#9a32cd" stroke="#9a32cd" points="275.25,-59.53 282.52,-67.24 281.64,-56.68 275.25,-59.53"/>
<text text-anchor="middle" x="298" y="-41" font-family="Helvetica,sans-Serif" font-size="10.00"> characters</text>
</g>
<!-- Node6 -->
<g id="node6" class="node">
<title>Node6</title>
<g id="a_node6"><a xlink:title=" ">
<polygon fill="white" stroke="#bfbfbf" points="268,-258.5 268,-277.5 357,-277.5 357,-258.5 268,-258.5"/>
<text text-anchor="middle" x="312.5" y="-265.5" font-family="Helvetica,sans-Serif" font-size="10.00">ScriptableObject</text>
</a>
</g>
</g>
<!-- Node6&#45;&gt;Node5 -->
<g id="edge5" class="edge">
<title>Node6&#45;&gt;Node5</title>
<path fill="none" stroke="midnightblue" d="M308.96,-248.1C304.84,-225.71 298.04,-187.23 293.5,-154 290.2,-129.81 287.51,-101.13 286.26,-86.91"/>
<polygon fill="midnightblue" stroke="midnightblue" points="305.57,-249.04 310.84,-258.24 312.45,-247.77 305.57,-249.04"/>
</g>
<!-- Node7 -->
<g id="node7" class="node">
<title>Node7</title>
<g id="a_node7"><a xlink:href="class_ability.xhtml" target="_top" xlink:title=" ">
<polygon fill="white" stroke="black" points="302.5,-134.5 302.5,-153.5 346.5,-153.5 346.5,-134.5 302.5,-134.5"/>
<text text-anchor="middle" x="324.5" y="-141.5" font-family="Helvetica,sans-Serif" font-size="10.00">Ability</text>
</a>
</g>
</g>
<!-- Node6&#45;&gt;Node7 -->
<g id="edge7" class="edge">
<title>Node6&#45;&gt;Node7</title>
<path fill="none" stroke="midnightblue" d="M314.35,-248.19C316.99,-221.4 321.72,-173.31 323.64,-153.69"/>
<polygon fill="midnightblue" stroke="midnightblue" points="310.86,-247.93 313.36,-258.23 317.83,-248.62 310.86,-247.93"/>
</g>
<!-- Node8 -->
<g id="node8" class="node">
<title>Node8</title>
<g id="a_node8"><a xlink:href="class_effect.xhtml" target="_top" xlink:title="Abstract base info container class for an Effect.">
<polygon fill="white" stroke="black" points="341,-201.5 341,-220.5 382,-220.5 382,-201.5 341,-201.5"/>
<text text-anchor="middle" x="361.5" y="-208.5" font-family="Helvetica,sans-Serif" font-size="10.00">Effect</text>
</a>
</g>
</g>
<!-- Node6&#45;&gt;Node8 -->
<g id="edge9" class="edge">
<title>Node6&#45;&gt;Node8</title>
<path fill="none" stroke="midnightblue" d="M326.91,-250.83C335.68,-240.98 346.55,-228.78 353.74,-220.71"/>
<polygon fill="midnightblue" stroke="midnightblue" points="324.2,-248.61 320.16,-258.41 329.42,-253.27 324.2,-248.61"/>
</g>
<!-- Node7&#45;&gt;Node5 -->
<g id="edge6" class="edge">
<title>Node7&#45;&gt;Node5</title>
<path fill="none" stroke="#9a32cd" stroke-dasharray="5,2" d="M314.02,-125.53C306.47,-112.95 296.6,-96.51 290.68,-86.63"/>
<polygon fill="#9a32cd" stroke="#9a32cd" points="311.09,-127.46 319.24,-134.23 317.1,-123.86 311.09,-127.46"/>
<text text-anchor="middle" x="326" y="-108" font-family="Helvetica,sans-Serif" font-size="10.00"> abilities</text>
</g>
<!-- Node8&#45;&gt;Node7 -->
<g id="edge8" class="edge">
<title>Node8&#45;&gt;Node7</title>
<path fill="none" stroke="#9a32cd" stroke-dasharray="5,2" d="M351.56,-192.53C344.39,-179.95 335.03,-163.51 329.41,-153.63"/>
<polygon fill="#9a32cd" stroke="#9a32cd" points="348.52,-194.27 356.51,-201.23 354.6,-190.81 348.52,-194.27"/>
<text text-anchor="middle" x="384.5" y="-175" font-family="Helvetica,sans-Serif" font-size="10.00"> aToAuthorEffects</text>
</g>
</g>
</svg>
