<?xml version="1.0" encoding="UTF-8" standalone="no"?>
<!DOCTYPE svg PUBLIC "-//W3C//DTD SVG 1.1//EN"
 "http://www.w3.org/Graphics/SVG/1.1/DTD/svg11.dtd">
<!-- Generated by graphviz version 2.47.3 (20210619.1520)
 -->
<!-- Title: ModelPlayerMediator Pages: 1 -->
<svg width="918pt" height="505pt"
 viewBox="0.00 0.00 918.00 505.00" xmlns="http://www.w3.org/2000/svg" xmlns:xlink="http://www.w3.org/1999/xlink">
<g id="graph0" class="graph" transform="scale(1 1) rotate(0) translate(4 501)">
<title>ModelPlayerMediator</title>
<polygon fill="white" stroke="transparent" points="-4,4 -4,-501 914,-501 914,4 -4,4"/>
<!-- Node1 -->
<g id="node1" class="node">
<title>Node1</title>
<g id="a_node1"><a xlink:title=" ">
<polygon fill="#bfbfbf" stroke="black" points="262,-201.5 262,-220.5 370,-220.5 370,-201.5 262,-201.5"/>
<text text-anchor="middle" x="316" y="-208.5" font-family="Helvetica,sans-Serif" font-size="10.00">ModelPlayerMediator</text>
</a>
</g>
</g>
<!-- Node2 -->
<g id="node2" class="node">
<title>Node2</title>
<g id="a_node2"><a xlink:title=" ">
<polygon fill="white" stroke="#bfbfbf" points="274.5,-420.5 274.5,-439.5 357.5,-439.5 357.5,-420.5 274.5,-420.5"/>
<text text-anchor="middle" x="316" y="-427.5" font-family="Helvetica,sans-Serif" font-size="10.00">MonoBehaviour</text>
</a>
</g>
</g>
<!-- Node2&#45;&gt;Node1 -->
<g id="edge1" class="edge">
<title>Node2&#45;&gt;Node1</title>
<path fill="none" stroke="midnightblue" d="M316,-410.43C316,-365.61 316,-252.84 316,-220.68"/>
<polygon fill="midnightblue" stroke="midnightblue" points="312.5,-410.49 316,-420.49 319.5,-410.49 312.5,-410.49"/>
</g>
<!-- Node3 -->
<g id="node3" class="node">
<title>Node3</title>
<g id="a_node3"><a xlink:href="class_basic_attack.xhtml" target="_top" xlink:title=" ">
<polygon fill="white" stroke="black" points="374,-277.5 374,-296.5 444,-296.5 444,-277.5 374,-277.5"/>
<text text-anchor="middle" x="409" y="-284.5" font-family="Helvetica,sans-Serif" font-size="10.00">BasicAttack</text>
</a>
</g>
</g>
<!-- Node2&#45;&gt;Node3 -->
<g id="edge3" class="edge">
<title>Node2&#45;&gt;Node3</title>
<path fill="none" stroke="midnightblue" d="M336.63,-414.33C350.19,-403.93 367.65,-389.02 380,-373 398.28,-349.29 405.45,-313.33 407.9,-296.84"/>
<polygon fill="midnightblue" stroke="midnightblue" points="334.3,-411.7 328.37,-420.48 338.48,-417.32 334.3,-411.7"/>
</g>
<!-- Node4 -->
<g id="node4" class="node">
<title>Node4</title>
<g id="a_node4"><a xlink:href="class_player_controller.xhtml" target="_top" xlink:title="Player Controller is the main class that handles all the movement of the Player.">
<polygon fill="white" stroke="black" points="461,-201.5 461,-220.5 547,-220.5 547,-201.5 461,-201.5"/>
<text text-anchor="middle" x="504" y="-208.5" font-family="Helvetica,sans-Serif" font-size="10.00">PlayerController</text>
</a>
</g>
</g>
<!-- Node2&#45;&gt;Node4 -->
<g id="edge5" class="edge">
<title>Node2&#45;&gt;Node4</title>
<path fill="none" stroke="midnightblue" d="M350.64,-416.85C406.25,-395.18 513.41,-344 555,-259 558.91,-251.02 559.58,-246.62 555,-239 549.94,-230.59 541.28,-224.66 532.51,-220.55"/>
<polygon fill="midnightblue" stroke="midnightblue" points="349.31,-413.61 341.21,-420.43 351.8,-420.15 349.31,-413.61"/>
</g>
<!-- Node5 -->
<g id="node5" class="node">
<title>Node5</title>
<g id="a_node5"><a xlink:href="class_ability_cooldown.xhtml" target="_top" xlink:title=" ">
<polygon fill="white" stroke="black" points="509,-67.5 509,-86.5 595,-86.5 595,-67.5 509,-67.5"/>
<text text-anchor="middle" x="552" y="-74.5" font-family="Helvetica,sans-Serif" font-size="10.00">AbilityCooldown</text>
</a>
</g>
</g>
<!-- Node2&#45;&gt;Node5 -->
<g id="edge7" class="edge">
<title>Node2&#45;&gt;Node5</title>
<path fill="none" stroke="midnightblue" d="M368.01,-428.58C441.53,-425.24 576,-408.61 658,-335 710.44,-287.92 664.99,-145.77 657,-134 640.3,-109.38 609.16,-94.74 585.12,-86.64"/>
<polygon fill="midnightblue" stroke="midnightblue" points="367.48,-425.1 357.62,-428.99 367.75,-432.1 367.48,-425.1"/>
</g>
<!-- Node9 -->
<g id="node9" class="node">
<title>Node9</title>
<g id="a_node9"><a xlink:href="class_ability_indicator.xhtml" target="_top" xlink:title=" ">
<polygon fill="white" stroke="black" points="512,-0.5 512,-19.5 592,-19.5 592,-0.5 512,-0.5"/>
<text text-anchor="middle" x="552" y="-7.5" font-family="Helvetica,sans-Serif" font-size="10.00">AbilityIndicator</text>
</a>
</g>
</g>
<!-- Node2&#45;&gt;Node9 -->
<g id="edge14" class="edge">
<title>Node2&#45;&gt;Node9</title>
<path fill="none" stroke="midnightblue" d="M264.13,-428.88C174.47,-427.26 0,-417.27 0,-364 0,-364 0,-364 0,-76 0,-24.44 384.83,-13.66 511.86,-11.51"/>
<polygon fill="midnightblue" stroke="midnightblue" points="264.31,-432.39 274.36,-429.04 264.42,-425.39 264.31,-432.39"/>
</g>
<!-- Node13 -->
<g id="node13" class="node">
<title>Node13</title>
<g id="a_node13"><a xlink:href="class_stats.xhtml" target="_top" xlink:title="Base class Stats of the entity.">
<polygon fill="white" stroke="black" points="331,-353.5 331,-372.5 371,-372.5 371,-353.5 331,-353.5"/>
<text text-anchor="middle" x="351" y="-360.5" font-family="Helvetica,sans-Serif" font-size="10.00">Stats</text>
</a>
</g>
</g>
<!-- Node2&#45;&gt;Node13 -->
<g id="edge22" class="edge">
<title>Node2&#45;&gt;Node13</title>
<path fill="none" stroke="midnightblue" d="M325.6,-411.16C332.35,-398.63 341.09,-382.41 346.35,-372.63"/>
<polygon fill="midnightblue" stroke="midnightblue" points="322.38,-409.77 320.72,-420.23 328.54,-413.09 322.38,-409.77"/>
</g>
<!-- Node15 -->
<g id="node15" class="node">
<title>Node15</title>
<g id="a_node15"><a xlink:href="class_u_i_controller.xhtml" target="_top" xlink:title=" ">
<polygon fill="white" stroke="black" points="185.5,-353.5 185.5,-372.5 252.5,-372.5 252.5,-353.5 185.5,-353.5"/>
<text text-anchor="middle" x="219" y="-360.5" font-family="Helvetica,sans-Serif" font-size="10.00">UIController</text>
</a>
</g>
</g>
<!-- Node2&#45;&gt;Node15 -->
<g id="edge25" class="edge">
<title>Node2&#45;&gt;Node15</title>
<path fill="none" stroke="midnightblue" d="M294.5,-414.59C275.31,-401.74 247.85,-383.33 231.87,-372.63"/>
<polygon fill="midnightblue" stroke="midnightblue" points="292.66,-417.57 302.92,-420.23 296.56,-411.76 292.66,-417.57"/>
</g>
<!-- Node16 -->
<g id="node16" class="node">
<title>Node16</title>
<g id="a_node16"><a xlink:href="class_inventory.xhtml" target="_top" xlink:title=" ">
<polygon fill="white" stroke="black" points="61.5,-315.5 61.5,-334.5 116.5,-334.5 116.5,-315.5 61.5,-315.5"/>
<text text-anchor="middle" x="89" y="-322.5" font-family="Helvetica,sans-Serif" font-size="10.00">Inventory</text>
</a>
</g>
</g>
<!-- Node2&#45;&gt;Node16 -->
<g id="edge29" class="edge">
<title>Node2&#45;&gt;Node16</title>
<path fill="none" stroke="midnightblue" d="M283.1,-416.89C254.66,-406.15 212.64,-389.64 177,-373 150.79,-360.76 121.33,-344.49 104.01,-334.66"/>
<polygon fill="midnightblue" stroke="midnightblue" points="281.96,-420.2 292.55,-420.44 284.42,-413.65 281.96,-420.2"/>
</g>
<!-- Node3&#45;&gt;Node1 -->
<g id="edge2" class="edge">
<title>Node3&#45;&gt;Node1</title>
<path fill="none" stroke="#9a32cd" stroke-dasharray="5,2" d="M363.98,-275.34C354.23,-271.43 344.59,-266.13 337,-259 325.93,-248.59 320.3,-231.28 317.77,-220.82"/>
<polygon fill="#9a32cd" stroke="#9a32cd" points="363.1,-278.74 373.69,-278.81 365.45,-272.15 363.1,-278.74"/>
<text text-anchor="middle" x="364.5" y="-246.5" font-family="Helvetica,sans-Serif" font-size="10.00"> basicAttack</text>
</g>
<!-- Node3&#45;&gt;Node4 -->
<g id="edge34" class="edge">
<title>Node3&#45;&gt;Node4</title>
<path fill="none" stroke="#9a32cd" stroke-dasharray="5,2" d="M453.75,-276.12C464.28,-272.15 474.8,-266.64 483,-259 494.11,-248.64 499.73,-231.31 502.25,-220.84"/>
<polygon fill="#9a32cd" stroke="#9a32cd" points="452.51,-272.84 444.14,-279.35 454.74,-279.48 452.51,-272.84"/>
<text text-anchor="middle" x="523.5" y="-246.5" font-family="Helvetica,sans-Serif" font-size="10.00"> basicAttack</text>
</g>
<!-- Node4&#45;&gt;Node3 -->
<g id="edge4" class="edge">
<title>Node4&#45;&gt;Node3</title>
<path fill="none" stroke="#9a32cd" stroke-dasharray="5,2" d="M464.64,-224.31C455.97,-228.15 447.22,-233 440,-239 427.22,-249.62 417.74,-266.86 412.82,-277.25"/>
<polygon fill="#9a32cd" stroke="#9a32cd" points="466.01,-227.53 473.96,-220.53 463.37,-221.05 466.01,-227.53"/>
<text text-anchor="middle" x="461.5" y="-246.5" font-family="Helvetica,sans-Serif" font-size="10.00"> controller</text>
</g>
<!-- Node4&#45;&gt;Node5 -->
<g id="edge8" class="edge">
<title>Node4&#45;&gt;Node5</title>
<path fill="none" stroke="#9a32cd" stroke-dasharray="5,2" d="M498.34,-191.07C494.63,-175.25 491.68,-152.39 499,-134 507.12,-113.6 526.59,-96.36 539.53,-86.6"/>
<polygon fill="#9a32cd" stroke="#9a32cd" points="495.08,-192.43 501.04,-201.19 501.84,-190.62 495.08,-192.43"/>
<text text-anchor="middle" x="534.5" y="-141.5" font-family="Helvetica,sans-Serif" font-size="10.00"> playerController</text>
</g>
<!-- Node11 -->
<g id="node11" class="node">
<title>Node11</title>
<g id="a_node11"><a xlink:href="class_player_stats.xhtml" target="_top" xlink:title="Player Stats is the main class that controls all the Player Statistics in all time in the game execut...">
<polygon fill="white" stroke="black" points="301,-134.5 301,-153.5 369,-153.5 369,-134.5 301,-134.5"/>
<text text-anchor="middle" x="335" y="-141.5" font-family="Helvetica,sans-Serif" font-size="10.00">PlayerStats</text>
</a>
</g>
</g>
<!-- Node4&#45;&gt;Node11 -->
<g id="edge26" class="edge">
<title>Node4&#45;&gt;Node11</title>
<path fill="none" stroke="#9a32cd" stroke-dasharray="5,2" d="M450.83,-202.71C419.68,-197.78 383.81,-190.77 370,-183 357.34,-175.87 346.69,-162.55 340.57,-153.73"/>
<polygon fill="#9a32cd" stroke="#9a32cd" points="450.33,-206.18 460.75,-204.24 451.4,-199.26 450.33,-206.18"/>
<text text-anchor="middle" x="405.5" y="-175" font-family="Helvetica,sans-Serif" font-size="10.00"> playerController</text>
</g>
<!-- Node5&#45;&gt;Node4 -->
<g id="edge6" class="edge">
<title>Node5&#45;&gt;Node4</title>
<path fill="none" stroke="#9a32cd" stroke-dasharray="5,2" d="M564.05,-95.49C573.34,-111.29 583.17,-134.93 574,-154 563.35,-176.16 539.18,-192.3 522.24,-201.41"/>
<polygon fill="#9a32cd" stroke="#9a32cd" points="566.83,-93.34 558.52,-86.77 560.92,-97.09 566.83,-93.34"/>
<text text-anchor="middle" x="615" y="-141.5" font-family="Helvetica,sans-Serif" font-size="10.00"> abilityCooldowns</text>
</g>
<!-- Node5&#45;&gt;Node9 -->
<g id="edge15" class="edge">
<title>Node5&#45;&gt;Node9</title>
<path fill="none" stroke="#9a32cd" stroke-dasharray="5,2" d="M524.49,-61.96C515.68,-55.46 509.28,-47.14 514,-38 518.08,-30.09 525.67,-23.99 533,-19.61"/>
<polygon fill="#9a32cd" stroke="#9a32cd" points="522.69,-64.97 533.01,-67.4 526.46,-59.07 522.69,-64.97"/>
<text text-anchor="middle" x="537.5" y="-41" font-family="Helvetica,sans-Serif" font-size="10.00"> currentCD</text>
</g>
<!-- Node5&#45;&gt;Node11 -->
<g id="edge27" class="edge">
<title>Node5&#45;&gt;Node11</title>
<path fill="none" stroke="#9a32cd" stroke-dasharray="5,2" d="M498.79,-84.33C471.46,-88.5 437.93,-95.08 409,-105 403.06,-107.04 371.01,-123.86 351.08,-134.43"/>
<polygon fill="#9a32cd" stroke="#9a32cd" points="499.55,-87.75 508.94,-82.84 498.53,-80.83 499.55,-87.75"/>
<text text-anchor="middle" x="447" y="-108" font-family="Helvetica,sans-Serif" font-size="10.00"> abilityCooldowns</text>
</g>
<!-- Node6 -->
<g id="node6" class="node">
<title>Node6</title>
<g id="a_node6"><a xlink:href="class_ability.xhtml" target="_top" xlink:title=" ">
<polygon fill="white" stroke="black" points="712,-353.5 712,-372.5 756,-372.5 756,-353.5 712,-353.5"/>
<text text-anchor="middle" x="734" y="-360.5" font-family="Helvetica,sans-Serif" font-size="10.00">Ability</text>
</a>
</g>
</g>
<!-- Node6&#45;&gt;Node5 -->
<g id="edge9" class="edge">
<title>Node6&#45;&gt;Node5</title>
<path fill="none" stroke="#9a32cd" stroke-dasharray="5,2" d="M743.03,-343.77C749.47,-329.08 757,-307.7 757,-288 757,-288 757,-288 757,-143 757,-120.63 743.57,-115.84 724,-105 702.45,-93.07 638.61,-85.38 595.07,-81.38"/>
<polygon fill="#9a32cd" stroke="#9a32cd" points="739.7,-342.62 738.65,-353.16 746.05,-345.58 739.7,-342.62"/>
<text text-anchor="middle" x="771.5" y="-208.5" font-family="Helvetica,sans-Serif" font-size="10.00"> ability</text>
</g>
<!-- Node10 -->
<g id="node10" class="node">
<title>Node10</title>
<g id="a_node10"><a xlink:href="class_indicated_ability.xhtml" target="_top" xlink:title="Encapsulador de les Ability que han de mostrar l&#39;indicador">
<polygon fill="white" stroke="black" points="785.5,-277.5 785.5,-296.5 868.5,-296.5 868.5,-277.5 785.5,-277.5"/>
<text text-anchor="middle" x="827" y="-284.5" font-family="Helvetica,sans-Serif" font-size="10.00">IndicatedAbility</text>
</a>
</g>
</g>
<!-- Node6&#45;&gt;Node10 -->
<g id="edge17" class="edge">
<title>Node6&#45;&gt;Node10</title>
<path fill="none" stroke="midnightblue" d="M754.29,-347.58C759.77,-343.58 765.66,-339.18 771,-335 787.59,-322.01 806.21,-306.1 817.25,-296.53"/>
<polygon fill="midnightblue" stroke="midnightblue" points="752.21,-344.76 746.15,-353.45 756.31,-350.43 752.21,-344.76"/>
</g>
<!-- Node17 -->
<g id="node17" class="node">
<title>Node17</title>
<g id="a_node17"><a xlink:href="class_character.xhtml" target="_top" xlink:title=" ">
<polygon fill="white" stroke="black" points="604.5,-277.5 604.5,-296.5 663.5,-296.5 663.5,-277.5 604.5,-277.5"/>
<text text-anchor="middle" x="634" y="-284.5" font-family="Helvetica,sans-Serif" font-size="10.00">Character</text>
</a>
</g>
</g>
<!-- Node6&#45;&gt;Node17 -->
<g id="edge32" class="edge">
<title>Node6&#45;&gt;Node17</title>
<path fill="none" stroke="#9a32cd" stroke-dasharray="5,2" d="M714.07,-347.25C693.56,-332.07 662.29,-308.93 645.54,-296.54"/>
<polygon fill="#9a32cd" stroke="#9a32cd" points="712.02,-350.09 722.14,-353.22 716.18,-344.46 712.02,-350.09"/>
<text text-anchor="middle" x="713.5" y="-322.5" font-family="Helvetica,sans-Serif" font-size="10.00"> abilities</text>
</g>
<!-- Node7 -->
<g id="node7" class="node">
<title>Node7</title>
<g id="a_node7"><a xlink:title=" ">
<polygon fill="white" stroke="#bfbfbf" points="654.5,-477.5 654.5,-496.5 743.5,-496.5 743.5,-477.5 654.5,-477.5"/>
<text text-anchor="middle" x="699" y="-484.5" font-family="Helvetica,sans-Serif" font-size="10.00">ScriptableObject</text>
</a>
</g>
</g>
<!-- Node7&#45;&gt;Node6 -->
<g id="edge10" class="edge">
<title>Node7&#45;&gt;Node6</title>
<path fill="none" stroke="midnightblue" d="M704.29,-467.55C711.96,-440.83 725.85,-392.4 731.51,-372.69"/>
<polygon fill="midnightblue" stroke="midnightblue" points="700.91,-466.65 701.52,-477.23 707.64,-468.58 700.91,-466.65"/>
</g>
<!-- Node8 -->
<g id="node8" class="node">
<title>Node8</title>
<g id="a_node8"><a xlink:href="class_effect.xhtml" target="_top" xlink:title="Abstract base info container class for an Effect.">
<polygon fill="white" stroke="black" points="727.5,-420.5 727.5,-439.5 768.5,-439.5 768.5,-420.5 727.5,-420.5"/>
<text text-anchor="middle" x="748" y="-427.5" font-family="Helvetica,sans-Serif" font-size="10.00">Effect</text>
</a>
</g>
</g>
<!-- Node7&#45;&gt;Node8 -->
<g id="edge12" class="edge">
<title>Node7&#45;&gt;Node8</title>
<path fill="none" stroke="midnightblue" d="M713.41,-469.83C722.18,-459.98 733.05,-447.78 740.24,-439.71"/>
<polygon fill="midnightblue" stroke="midnightblue" points="710.7,-467.61 706.66,-477.41 715.92,-472.27 710.7,-467.61"/>
</g>
<!-- Node7&#45;&gt;Node17 -->
<g id="edge31" class="edge">
<title>Node7&#45;&gt;Node17</title>
<path fill="none" stroke="midnightblue" d="M693.07,-467.93C679.52,-426.66 646.72,-326.76 636.86,-296.7"/>
<polygon fill="midnightblue" stroke="midnightblue" points="689.76,-469.08 696.21,-477.49 696.41,-466.9 689.76,-469.08"/>
</g>
<!-- Node8&#45;&gt;Node6 -->
<g id="edge11" class="edge">
<title>Node8&#45;&gt;Node6</title>
<path fill="none" stroke="#9a32cd" stroke-dasharray="5,2" d="M738.23,-411.39C736.91,-408.34 735.76,-405.14 735,-402 732.61,-392.12 732.73,-380.38 733.21,-372.59"/>
<polygon fill="#9a32cd" stroke="#9a32cd" points="735.1,-412.95 742.68,-420.35 741.37,-409.84 735.1,-412.95"/>
<text text-anchor="middle" x="774" y="-394" font-family="Helvetica,sans-Serif" font-size="10.00"> aToAuthorEffects</text>
</g>
<!-- Node8&#45;&gt;Node10 -->
<g id="edge18" class="edge">
<title>Node8&#45;&gt;Node10</title>
<path fill="none" stroke="#9a32cd" stroke-dasharray="5,2" d="M778.42,-423.41C791.04,-419.53 804.66,-412.98 813,-402 837.37,-369.93 832,-317.49 828.65,-296.8"/>
<polygon fill="#9a32cd" stroke="#9a32cd" points="777.41,-420.06 768.63,-426 779.2,-426.83 777.41,-420.06"/>
<text text-anchor="middle" x="870" y="-360.5" font-family="Helvetica,sans-Serif" font-size="10.00"> aToEnemyEffects</text>
</g>
<!-- Node9&#45;&gt;Node5 -->
<g id="edge13" class="edge">
<title>Node9&#45;&gt;Node5</title>
<path fill="none" stroke="#9a32cd" stroke-dasharray="5,2" d="M562.35,-28.61C564.92,-34.95 566.55,-42.22 565,-49 563.52,-55.49 560.27,-62.24 557.39,-67.37"/>
<polygon fill="#9a32cd" stroke="#9a32cd" points="565.45,-26.99 557.86,-19.6 559.19,-30.11 565.45,-26.99"/>
<text text-anchor="middle" x="598" y="-41" font-family="Helvetica,sans-Serif" font-size="10.00"> abilityIndicator</text>
</g>
<!-- Node10&#45;&gt;Node9 -->
<g id="edge16" class="edge">
<title>Node10&#45;&gt;Node9</title>
<path fill="none" stroke="#9a32cd" stroke-dasharray="5,2" d="M824.26,-267.38C822.3,-252.44 820,-230.92 820,-212 820,-212 820,-212 820,-76 820,-29.68 666.89,-16.25 592.12,-12.45"/>
<polygon fill="#9a32cd" stroke="#9a32cd" points="820.8,-267.95 825.65,-277.37 827.74,-266.98 820.8,-267.95"/>
<text text-anchor="middle" x="837" y="-141.5" font-family="Helvetica,sans-Serif" font-size="10.00"> current</text>
</g>
<!-- Node11&#45;&gt;Node3 -->
<g id="edge36" class="edge">
<title>Node11&#45;&gt;Node3</title>
<path fill="none" stroke="#9a32cd" stroke-dasharray="5,2" d="M340.76,-163.27C343.45,-169.96 347.16,-177.28 352,-183 361.31,-194.01 370.15,-189.62 379,-201 397.45,-224.72 405.1,-260.67 407.77,-277.17"/>
<polygon fill="#9a32cd" stroke="#9a32cd" points="343.97,-161.86 337.33,-153.61 337.37,-164.2 343.97,-161.86"/>
<text text-anchor="middle" x="402.5" y="-208.5" font-family="Helvetica,sans-Serif" font-size="10.00"> stats</text>
</g>
<!-- Node11&#45;&gt;Node4 -->
<g id="edge33" class="edge">
<title>Node11&#45;&gt;Node4</title>
<path fill="none" stroke="#9a32cd" stroke-dasharray="5,2" d="M379.05,-153.18C398.47,-157.56 421.31,-163.76 441,-172 459.85,-179.88 479.75,-192.76 492.02,-201.3"/>
<polygon fill="#9a32cd" stroke="#9a32cd" points="379.75,-149.75 369.24,-151.06 378.27,-156.59 379.75,-149.75"/>
<text text-anchor="middle" x="474.5" y="-175" font-family="Helvetica,sans-Serif" font-size="10.00"> stats</text>
</g>
<!-- Node11&#45;&gt;Node5 -->
<g id="edge19" class="edge">
<title>Node11&#45;&gt;Node5</title>
<path fill="none" stroke="#9a32cd" stroke-dasharray="5,2" d="M328.94,-124.36C327.92,-117.52 328.4,-110.2 333,-105 344.44,-92.07 448.34,-83.96 508.83,-80.3"/>
<polygon fill="#9a32cd" stroke="#9a32cd" points="325.6,-125.46 331.41,-134.32 332.4,-123.77 325.6,-125.46"/>
<text text-anchor="middle" x="359.5" y="-108" font-family="Helvetica,sans-Serif" font-size="10.00"> playerStats</text>
</g>
<!-- Node12 -->
<g id="node12" class="node">
<title>Node12</title>
<g id="a_node12"><a xlink:href="class_ability_affected_stats.xhtml" target="_top" xlink:title="Base class Stats of the entity who is affected by Abilities.">
<polygon fill="white" stroke="black" points="186,-239.5 186,-258.5 288,-258.5 288,-239.5 186,-239.5"/>
<text text-anchor="middle" x="237" y="-246.5" font-family="Helvetica,sans-Serif" font-size="10.00">AbilityAffectedStats</text>
</a>
</g>
</g>
<!-- Node12&#45;&gt;Node11 -->
<g id="edge20" class="edge">
<title>Node12&#45;&gt;Node11</title>
<path fill="none" stroke="midnightblue" d="M240.41,-229.44C242.79,-220.21 246.7,-209.29 253,-201 269.59,-179.18 297.2,-162.86 315.75,-153.63"/>
<polygon fill="midnightblue" stroke="midnightblue" points="236.98,-228.73 238.27,-239.24 243.82,-230.22 236.98,-228.73"/>
</g>
<!-- Node13&#45;&gt;Node3 -->
<g id="edge35" class="edge">
<title>Node13&#45;&gt;Node3</title>
<path fill="none" stroke="#9a32cd" stroke-dasharray="5,2" d="M346,-343.45C344.6,-334.22 344.68,-323.29 350,-315 355.54,-306.37 364.59,-300.47 373.97,-296.44"/>
<polygon fill="#9a32cd" stroke="#9a32cd" points="342.58,-344.2 348.1,-353.25 349.43,-342.74 342.58,-344.2"/>
<text text-anchor="middle" x="374.5" y="-322.5" font-family="Helvetica,sans-Serif" font-size="10.00"> otherStats</text>
</g>
<!-- Node13&#45;&gt;Node12 -->
<g id="edge21" class="edge">
<title>Node13&#45;&gt;Node12</title>
<path fill="none" stroke="midnightblue" d="M334.63,-345.92C310.2,-321.91 265.01,-277.52 245.9,-258.75"/>
<polygon fill="midnightblue" stroke="midnightblue" points="332.47,-348.7 342.05,-353.21 337.37,-343.71 332.47,-348.7"/>
</g>
<!-- Node14 -->
<g id="node14" class="node">
<title>Node14</title>
<g id="a_node14"><a xlink:href="class_player_u_i_controller.xhtml" target="_top" xlink:title="UI Controller for the Player Stats">
<polygon fill="white" stroke="black" points="85.5,-239.5 85.5,-258.5 180.5,-258.5 180.5,-239.5 85.5,-239.5"/>
<text text-anchor="middle" x="133" y="-246.5" font-family="Helvetica,sans-Serif" font-size="10.00">PlayerUIController</text>
</a>
</g>
</g>
<!-- Node14&#45;&gt;Node11 -->
<g id="edge23" class="edge">
<title>Node14&#45;&gt;Node11</title>
<path fill="none" stroke="#9a32cd" stroke-dasharray="5,2" d="M151.12,-232.9C163.52,-223.02 180.63,-210.28 197,-201 233.66,-180.22 279.59,-163.2 308.11,-153.57"/>
<polygon fill="#9a32cd" stroke="#9a32cd" points="148.91,-230.19 143.35,-239.21 153.32,-235.62 148.91,-230.19"/>
<text text-anchor="middle" x="218" y="-208.5" font-family="Helvetica,sans-Serif" font-size="10.00"> uiControl</text>
</g>
<!-- Node15&#45;&gt;Node14 -->
<g id="edge24" class="edge">
<title>Node15&#45;&gt;Node14</title>
<path fill="none" stroke="midnightblue" d="M205.92,-344.97C187.33,-320.76 153.94,-277.28 139.72,-258.75"/>
<polygon fill="midnightblue" stroke="midnightblue" points="203.39,-347.41 212.25,-353.21 208.94,-343.15 203.39,-347.41"/>
</g>
<!-- Node16&#45;&gt;Node11 -->
<g id="edge28" class="edge">
<title>Node16&#45;&gt;Node11</title>
<path fill="none" stroke="#9a32cd" stroke-dasharray="5,2" d="M67.79,-309.21C45.8,-292.04 16.87,-263 34,-239 65.53,-194.83 228.74,-162.7 300.77,-150.45"/>
<polygon fill="#9a32cd" stroke="#9a32cd" points="65.94,-312.2 76.05,-315.38 70.13,-306.6 65.94,-312.2"/>
<text text-anchor="middle" x="55" y="-246.5" font-family="Helvetica,sans-Serif" font-size="10.00"> inventory</text>
</g>
<!-- Node17&#45;&gt;Node4 -->
<g id="edge30" class="edge">
<title>Node17&#45;&gt;Node4</title>
<path fill="none" stroke="#9a32cd" stroke-dasharray="5,2" d="M621.65,-269.39C613.4,-259.33 601.75,-246.95 589,-239 575.73,-230.73 559.7,-224.78 545.15,-220.61"/>
<polygon fill="#9a32cd" stroke="#9a32cd" points="619.05,-271.74 627.97,-277.46 624.56,-267.43 619.05,-271.74"/>
<text text-anchor="middle" x="633" y="-246.5" font-family="Helvetica,sans-Serif" font-size="10.00"> character</text>
</g>
</g>
</svg>
