<?xml version="1.0" encoding="UTF-8" standalone="no"?>
<!DOCTYPE svg PUBLIC "-//W3C//DTD SVG 1.1//EN"
 "http://www.w3.org/Graphics/SVG/1.1/DTD/svg11.dtd">
<!-- Generated by graphviz version 2.49.1 (20210923.0004)
 -->
<!-- Title: StructureStats.Activate Pages: 1 -->
<svg width="595pt" height="66pt"
 viewBox="0.00 0.00 595.00 66.00" xmlns="http://www.w3.org/2000/svg" xmlns:xlink="http://www.w3.org/1999/xlink">
<g id="graph0" class="graph" transform="scale(1 1) rotate(0) translate(4 62)">
<title>StructureStats.Activate</title>
<!-- Node1 -->
<g id="node1" class="node">
<title>Node1</title>
<g id="a_node1"><a xlink:title=" ">
<polygon fill="#bfbfbf" stroke="black" points="0,-19.5 0,-38.5 117,-38.5 117,-19.5 0,-19.5"/>
<text text-anchor="middle" x="58.5" y="-26.5" font-family="Helvetica,sans-Serif" font-size="10.00">StructureStats.Activate</text>
</a>
</g>
</g>
<!-- Node2 -->
<g id="node2" class="node">
<title>Node2</title>
<g id="a_node2"><a xlink:href="class_stats.html#a0a3ad8a03e844abd233531fd9874a91b" target="_top" xlink:title="This method retuns the UIController of the entity.">
<polygon fill="none" stroke="black" points="185.5,-38.5 185.5,-57.5 253.5,-57.5 253.5,-38.5 185.5,-38.5"/>
<text text-anchor="middle" x="219.5" y="-45.5" font-family="Helvetica,sans-Serif" font-size="10.00">Stats.GetUI</text>
</a>
</g>
</g>
<!-- Node1&#45;&gt;Node2 -->
<g id="edge1" class="edge">
<title>Node1&#45;&gt;Node2</title>
<path fill="none" stroke="midnightblue" d="M117.35,-35.91C136.5,-38.2 157.47,-40.71 175.32,-42.84"/>
<polygon fill="midnightblue" stroke="midnightblue" points="175.09,-46.34 185.43,-44.05 175.92,-39.39 175.09,-46.34"/>
</g>
<!-- Node3 -->
<g id="node3" class="node">
<title>Node3</title>
<g id="a_node3"><a xlink:href="class_u_i_controller.html#a5f4c8564677f50adca215a4c91020c5c" target="_top" xlink:title=" ">
<polygon fill="none" stroke="black" points="153,-0.5 153,-19.5 286,-19.5 286,-0.5 153,-0.5"/>
<text text-anchor="middle" x="219.5" y="-7.5" font-family="Helvetica,sans-Serif" font-size="10.00">UIController.InitializeColors</text>
</a>
</g>
</g>
<!-- Node1&#45;&gt;Node3 -->
<g id="edge2" class="edge">
<title>Node1&#45;&gt;Node3</title>
<path fill="none" stroke="midnightblue" d="M117.35,-22.09C125.65,-21.1 134.29,-20.06 142.86,-19.04"/>
<polygon fill="midnightblue" stroke="midnightblue" points="143.37,-22.5 152.88,-17.84 142.54,-15.55 143.37,-22.5"/>
</g>
<!-- Node4 -->
<g id="node4" class="node">
<title>Node4</title>
<g id="a_node4"><a xlink:href="class_u_i_controller.html#a25efcf4c19f58682359f159ebe68cd61" target="_top" xlink:title="Loads all the necessary colors for all the dynamic UIs in the game">
<polygon fill="none" stroke="black" points="322,-0.5 322,-19.5 441,-19.5 441,-0.5 322,-0.5"/>
<text text-anchor="middle" x="381.5" y="-7.5" font-family="Helvetica,sans-Serif" font-size="10.00">UIController.LoadColors</text>
</a>
</g>
</g>
<!-- Node3&#45;&gt;Node4 -->
<g id="edge3" class="edge">
<title>Node3&#45;&gt;Node4</title>
<path fill="none" stroke="midnightblue" d="M286.04,-10C294.51,-10 303.2,-10 311.71,-10"/>
<polygon fill="midnightblue" stroke="midnightblue" points="311.99,-13.5 321.99,-10 311.99,-6.5 311.99,-13.5"/>
</g>
<!-- Node5 -->
<g id="node5" class="node">
<title>Node5</title>
<g id="a_node5"><a xlink:href="class_utils.html#ab9e5182f0bed89c77ffe578768c9c8c2" target="_top" xlink:title="Pass a hex string and you get the Color.">
<polygon fill="none" stroke="black" points="477,-0.5 477,-19.5 587,-19.5 587,-0.5 477,-0.5"/>
<text text-anchor="middle" x="532" y="-7.5" font-family="Helvetica,sans-Serif" font-size="10.00">Utils.ColorFromString</text>
</a>
</g>
</g>
<!-- Node4&#45;&gt;Node5 -->
<g id="edge4" class="edge">
<title>Node4&#45;&gt;Node5</title>
<path fill="none" stroke="midnightblue" d="M441.19,-10C449.49,-10 458.06,-10 466.46,-10"/>
<polygon fill="midnightblue" stroke="midnightblue" points="466.6,-13.5 476.6,-10 466.6,-6.5 466.6,-13.5"/>
</g>
</g>
</svg>
