<?xml version="1.0" encoding="UTF-8" standalone="no"?>
<!DOCTYPE svg PUBLIC "-//W3C//DTD SVG 1.1//EN"
 "http://www.w3.org/Graphics/SVG/1.1/DTD/svg11.dtd">
<!-- Generated by graphviz version 2.47.3 (20210619.1520)
 -->
<!-- Title: Photon.Pun.PhotonNetwork.Instantiate Pages: 1 -->
<!--zoomable 410 -->
<svg id="main" version="1.1" xmlns="http://www.w3.org/2000/svg" xmlns:xlink="http://www.w3.org/1999/xlink" xml:space="preserve" onload="init(evt)">
<style type="text/css"><![CDATA[
.edge:hover path { stroke: red; }
.edge:hover polygon { stroke: red; fill: red; }
]]></style>
<script type="text/javascript"><![CDATA[
var edges = document.getElementsByTagName('g');
if (edges && edges.length) {
  for (var i=0;i<edges.length;i++) {
    if (edges[i].id.substr(0,4)=='edge') {
      edges[i].setAttribute('class','edge');
    }
  }
}
]]></script>
        <defs>
                <circle id="rim" cx="0" cy="0" r="7"/>
                <circle id="rim2" cx="0" cy="0" r="3.5"/>
                <g id="zoomPlus">
                        <use xlink:href="#rim" fill="#404040">
                                <set attributeName="fill" to="#808080" begin="zoomplus.mouseover" end="zoomplus.mouseout"/>
                        </use>
                        <path d="M-4,0h8M0,-4v8" fill="none" stroke="white" stroke-width="1.5" pointer-events="none"/>
                </g>
                <g id="zoomMin">
                        <use xlink:href="#rim" fill="#404040">
                                <set attributeName="fill" to="#808080" begin="zoomminus.mouseover" end="zoomminus.mouseout"/>
                        </use>
                        <path d="M-4,0h8" fill="none" stroke="white" stroke-width="1.5" pointer-events="none"/>
                </g>
                <g id="dirArrow">
                        <path fill="none" stroke="white" stroke-width="1.5" d="M0,-3.0v7 M-2.5,-0.5L0,-3.0L2.5,-0.5"/>
                </g>
               <g id="resetDef">
                       <use xlink:href="#rim2" fill="#404040">
                               <set attributeName="fill" to="#808080" begin="reset.mouseover" end="reset.mouseout"/>
                       </use>
               </g>
        </defs>

<script type="text/javascript">
var viewWidth = 783;
var viewHeight = 410;
var sectionId = 'dynsection-45';
</script>
<script xlink:href="svgpan.js"/>
<svg id="graph" class="graph">
<g id="viewport">
<title>Photon.Pun.PhotonNetwork.Instantiate</title>
<polygon fill="white" stroke="transparent" points="-4,4 -4,-406 779,-406 779,4 -4,4"/>
<!-- Node1 -->
<g id="node1" class="node">
<title>Node1</title>
<g id="a_node1"><a xlink:title=" ">
<polygon fill="#bfbfbf" stroke="black" points="635,-180.5 635,-210.5 775,-210.5 775,-180.5 635,-180.5"/>
<text text-anchor="start" x="643" y="-198.5" font-family="Helvetica,sans-Serif" font-size="10.00">Photon.Pun.PhotonNetwork.</text>
<text text-anchor="middle" x="705" y="-187.5" font-family="Helvetica,sans-Serif" font-size="10.00">Instantiate</text>
</a>
</g>
</g>
<!-- Node2 -->
<g id="node2" class="node">
<title>Node2</title>
<g id="a_node2"><a xlink:href="class_basic_attack.xhtml#ad8c0baca6db1fe663aebf592bcc6c2f2" target="_top" xlink:title=" ">
<polygon fill="white" stroke="black" points="437.5,-371.5 437.5,-401.5 588.5,-401.5 588.5,-371.5 437.5,-371.5"/>
<text text-anchor="start" x="445.5" y="-389.5" font-family="Helvetica,sans-Serif" font-size="10.00">BasicAttack.InstantiateRanged</text>
<text text-anchor="middle" x="513" y="-378.5" font-family="Helvetica,sans-Serif" font-size="10.00">Attack</text>
</a>
</g>
</g>
<!-- Node1&#45;&gt;Node2 -->
<g id="edge1" class="edge">
<title>Node1&#45;&gt;Node2</title>
<path fill="none" stroke="midnightblue" d="M695.24,-220C680.89,-256.58 648.88,-325.18 599,-362.5 594.46,-365.9 589.45,-368.82 584.21,-371.32"/>
<polygon fill="midnightblue" stroke="midnightblue" points="698.54,-221.17 698.82,-210.58 691.99,-218.68 698.54,-221.17"/>
</g>
<!-- Node4 -->
<g id="node4" class="node">
<title>Node4</title>
<g id="a_node4"><a xlink:href="class_photon_1_1_pun_1_1_utility_scripts_1_1_on_click_instantiate.xhtml#ac8ffc0e518ea6ef18d62039fdbf9de08" target="_top" xlink:title=" ">
<polygon fill="white" stroke="black" points="431,-322.5 431,-352.5 595,-352.5 595,-322.5 431,-322.5"/>
<text text-anchor="start" x="439" y="-340.5" font-family="Helvetica,sans-Serif" font-size="10.00">Photon.Pun.UtilityScripts.</text>
<text text-anchor="middle" x="513" y="-329.5" font-family="Helvetica,sans-Serif" font-size="10.00">OnClickInstantiate.OnPointerClick</text>
</a>
</g>
</g>
<!-- Node1&#45;&gt;Node4 -->
<g id="edge3" class="edge">
<title>Node1&#45;&gt;Node4</title>
<path fill="none" stroke="midnightblue" d="M689.15,-219.07C671.07,-245.87 638.05,-289.05 599,-313.5 593.54,-316.92 587.59,-319.86 581.44,-322.39"/>
<polygon fill="midnightblue" stroke="midnightblue" points="692.11,-220.94 694.7,-210.67 686.27,-217.08 692.11,-220.94"/>
</g>
<!-- Node5 -->
<g id="node5" class="node">
<title>Node5</title>
<g id="a_node5"><a xlink:href="class_photon_1_1_pun_1_1_utility_scripts_1_1_on_joined_instantiate.xhtml#a9773f06a13ab245f2fa071ec38dbb849" target="_top" xlink:title=" ">
<polygon fill="white" stroke="black" points="429,-273.5 429,-303.5 597,-303.5 597,-273.5 429,-273.5"/>
<text text-anchor="start" x="437" y="-291.5" font-family="Helvetica,sans-Serif" font-size="10.00">Photon.Pun.UtilityScripts.</text>
<text text-anchor="middle" x="513" y="-280.5" font-family="Helvetica,sans-Serif" font-size="10.00">OnJoinedInstantiate.SpawnObjects</text>
</a>
</g>
</g>
<!-- Node1&#45;&gt;Node5 -->
<g id="edge4" class="edge">
<title>Node1&#45;&gt;Node5</title>
<path fill="none" stroke="midnightblue" d="M676.73,-216.79C656.3,-231.88 627.13,-251.66 599,-264.5 591.75,-267.81 583.93,-270.77 576.09,-273.38"/>
<polygon fill="midnightblue" stroke="midnightblue" points="679.03,-219.44 684.93,-210.64 674.83,-213.84 679.03,-219.44"/>
</g>
<!-- Node7 -->
<g id="node7" class="node">
<title>Node7</title>
<g id="a_node7"><a xlink:href="class_photon_1_1_pun_1_1_demo_1_1_pun_basics_1_1_game_manager.xhtml#a973aa2181aa1e1369b45353a5a636654" target="_top" xlink:title="MonoBehaviour method called on GameObject by Unity during initialization phase.">
<polygon fill="white" stroke="black" points="438.5,-224.5 438.5,-254.5 587.5,-254.5 587.5,-224.5 438.5,-224.5"/>
<text text-anchor="start" x="446.5" y="-242.5" font-family="Helvetica,sans-Serif" font-size="10.00">Photon.Pun.Demo.PunBasics.</text>
<text text-anchor="middle" x="513" y="-231.5" font-family="Helvetica,sans-Serif" font-size="10.00">GameManager.Start</text>
</a>
</g>
</g>
<!-- Node1&#45;&gt;Node7 -->
<g id="edge6" class="edge">
<title>Node1&#45;&gt;Node7</title>
<path fill="none" stroke="midnightblue" d="M628.96,-212.88C612.41,-216.71 595,-220.74 578.89,-224.47"/>
<polygon fill="midnightblue" stroke="midnightblue" points="630.19,-216.19 639.14,-210.52 628.61,-209.37 630.19,-216.19"/>
</g>
<!-- Node8 -->
<g id="node8" class="node">
<title>Node8</title>
<g id="a_node8"><a xlink:href="class_game_controller.xhtml#a97788a7aa0f09c8d748781683e5f045b" target="_top" xlink:title=" ">
<polygon fill="white" stroke="black" points="459,-186 459,-205 567,-205 567,-186 459,-186"/>
<text text-anchor="middle" x="513" y="-193" font-family="Helvetica,sans-Serif" font-size="10.00">GameController.Start</text>
</a>
</g>
</g>
<!-- Node1&#45;&gt;Node8 -->
<g id="edge7" class="edge">
<title>Node1&#45;&gt;Node8</title>
<path fill="none" stroke="midnightblue" d="M624.83,-195.5C605.44,-195.5 585.14,-195.5 567.29,-195.5"/>
<polygon fill="midnightblue" stroke="midnightblue" points="624.87,-199 634.87,-195.5 624.87,-192 624.87,-199"/>
</g>
<!-- Node9 -->
<g id="node9" class="node">
<title>Node9</title>
<g id="a_node9"><a xlink:href="class_player_controller.xhtml#ae1117d9c4da3193181cddad2c814e467" target="_top" xlink:title=" ">
<polygon fill="white" stroke="black" points="458,-148 458,-167 568,-167 568,-148 458,-148"/>
<text text-anchor="middle" x="513" y="-155" font-family="Helvetica,sans-Serif" font-size="10.00">PlayerController.Start</text>
</a>
</g>
</g>
<!-- Node1&#45;&gt;Node9 -->
<g id="edge8" class="edge">
<title>Node1&#45;&gt;Node9</title>
<path fill="none" stroke="midnightblue" d="M624.78,-179.66C603.34,-175.37 580.8,-170.86 561.69,-167.04"/>
<polygon fill="midnightblue" stroke="midnightblue" points="624.38,-183.14 634.87,-181.67 625.75,-176.28 624.38,-183.14"/>
</g>
<!-- Node10 -->
<g id="node10" class="node">
<title>Node10</title>
<g id="a_node10"><a xlink:href="class_photon_1_1_pun_1_1_demo_1_1_asteroids_1_1_asteroids_game_manager.xhtml#a8f0cbc452ca5141a8e777bef5794c0f1" target="_top" xlink:title=" ">
<polygon fill="white" stroke="black" points="427,-98.5 427,-128.5 599,-128.5 599,-98.5 427,-98.5"/>
<text text-anchor="start" x="435" y="-116.5" font-family="Helvetica,sans-Serif" font-size="10.00">Photon.Pun.Demo.Asteroids.</text>
<text text-anchor="middle" x="513" y="-105.5" font-family="Helvetica,sans-Serif" font-size="10.00">AsteroidsGameManager.StartGame</text>
</a>
</g>
</g>
<!-- Node1&#45;&gt;Node10 -->
<g id="edge9" class="edge">
<title>Node1&#45;&gt;Node10</title>
<path fill="none" stroke="midnightblue" d="M670.88,-175.17C650.64,-163.35 623.94,-148.8 599,-138.5 590.19,-134.86 580.65,-131.52 571.27,-128.54"/>
<polygon fill="midnightblue" stroke="midnightblue" points="669.3,-178.3 679.69,-180.38 672.87,-172.28 669.3,-178.3"/>
</g>
<!-- Node14 -->
<g id="node14" class="node">
<title>Node14</title>
<g id="a_node14"><a xlink:href="class_ability___instanciable.xhtml#acd9b521d5e3e7b9d8b9e6d46c5e43f3e" target="_top" xlink:title=" ">
<polygon fill="white" stroke="black" points="446.5,-49.5 446.5,-79.5 579.5,-79.5 579.5,-49.5 446.5,-49.5"/>
<text text-anchor="start" x="454.5" y="-67.5" font-family="Helvetica,sans-Serif" font-size="10.00">Ability_Instanciable.Trigger</text>
<text text-anchor="middle" x="513" y="-56.5" font-family="Helvetica,sans-Serif" font-size="10.00">Ability</text>
</a>
</g>
</g>
<!-- Node1&#45;&gt;Node14 -->
<g id="edge13" class="edge">
<title>Node1&#45;&gt;Node14</title>
<path fill="none" stroke="midnightblue" d="M687.19,-172.27C668.36,-147.92 635.65,-110.22 599,-88.5 592.93,-84.9 586.3,-81.82 579.5,-79.19"/>
<polygon fill="midnightblue" stroke="midnightblue" points="684.42,-174.42 693.25,-180.28 690.01,-170.2 684.42,-174.42"/>
</g>
<!-- Node15 -->
<g id="node15" class="node">
<title>Node15</title>
<g id="a_node15"><a xlink:href="class_ability___player_relative.xhtml#a74129ed38e185f90a00ec9924a3ecdbb" target="_top" xlink:title=" ">
<polygon fill="white" stroke="black" points="441.5,-0.5 441.5,-30.5 584.5,-30.5 584.5,-0.5 441.5,-0.5"/>
<text text-anchor="start" x="449.5" y="-18.5" font-family="Helvetica,sans-Serif" font-size="10.00">Ability_PlayerRelative.Trigger</text>
<text text-anchor="middle" x="513" y="-7.5" font-family="Helvetica,sans-Serif" font-size="10.00">Ability</text>
</a>
</g>
</g>
<!-- Node1&#45;&gt;Node15 -->
<g id="edge14" class="edge">
<title>Node1&#45;&gt;Node15</title>
<path fill="none" stroke="midnightblue" d="M694.14,-171.13C678.92,-136.6 646.41,-73.83 599,-39.5 594.28,-36.08 589.09,-33.15 583.67,-30.64"/>
<polygon fill="midnightblue" stroke="midnightblue" points="690.99,-172.66 698.14,-180.47 697.42,-169.9 690.99,-172.66"/>
</g>
<!-- Node3 -->
<g id="node3" class="node">
<title>Node3</title>
<g id="a_node3"><a xlink:href="class_model_player_mediator.xhtml#a3ed3668391fbccbd3a0f19394333baa6" target="_top" xlink:title=" ">
<polygon fill="white" stroke="black" points="220.5,-371.5 220.5,-401.5 376.5,-401.5 376.5,-371.5 220.5,-371.5"/>
<text text-anchor="start" x="228.5" y="-389.5" font-family="Helvetica,sans-Serif" font-size="10.00">ModelPlayerMediator.Instantiate</text>
<text text-anchor="middle" x="298.5" y="-378.5" font-family="Helvetica,sans-Serif" font-size="10.00">RangedAttack</text>
</a>
</g>
</g>
<!-- Node2&#45;&gt;Node3 -->
<g id="edge2" class="edge">
<title>Node2&#45;&gt;Node3</title>
<path fill="none" stroke="midnightblue" d="M427.14,-386.5C410.52,-386.5 393.18,-386.5 376.82,-386.5"/>
<polygon fill="midnightblue" stroke="midnightblue" points="427.38,-390 437.38,-386.5 427.38,-383 427.38,-390"/>
</g>
<!-- Node6 -->
<g id="node6" class="node">
<title>Node6</title>
<g id="a_node6"><a xlink:href="class_photon_1_1_pun_1_1_utility_scripts_1_1_on_joined_instantiate.xhtml#a107f60bb378b3d63f76cf333319f749d" target="_top" xlink:title="Called when the LoadBalancingClient entered a room, no matter if this client created it or simply joi...">
<polygon fill="white" stroke="black" points="213,-273.5 213,-303.5 384,-303.5 384,-273.5 213,-273.5"/>
<text text-anchor="start" x="221" y="-291.5" font-family="Helvetica,sans-Serif" font-size="10.00">Photon.Pun.UtilityScripts.</text>
<text text-anchor="middle" x="298.5" y="-280.5" font-family="Helvetica,sans-Serif" font-size="10.00">OnJoinedInstantiate.OnJoinedRoom</text>
</a>
</g>
</g>
<!-- Node5&#45;&gt;Node6 -->
<g id="edge5" class="edge">
<title>Node5&#45;&gt;Node6</title>
<path fill="none" stroke="midnightblue" d="M418.88,-288.5C407.36,-288.5 395.64,-288.5 384.26,-288.5"/>
<polygon fill="midnightblue" stroke="midnightblue" points="418.93,-292 428.93,-288.5 418.93,-285 418.93,-292"/>
</g>
<!-- Node11 -->
<g id="node11" class="node">
<title>Node11</title>
<g id="a_node11"><a xlink:href="class_photon_1_1_pun_1_1_demo_1_1_asteroids_1_1_asteroids_game_manager.xhtml#a3651fb672cdb24b35a534135ad9c607d" target="_top" xlink:title=" ">
<polygon fill="white" stroke="black" points="206,-93 206,-134 391,-134 391,-93 206,-93"/>
<text text-anchor="start" x="214" y="-122" font-family="Helvetica,sans-Serif" font-size="10.00">Photon.Pun.Demo.Asteroids.</text>
<text text-anchor="start" x="214" y="-111" font-family="Helvetica,sans-Serif" font-size="10.00">AsteroidsGameManager.OnCountdown</text>
<text text-anchor="middle" x="298.5" y="-100" font-family="Helvetica,sans-Serif" font-size="10.00">TimerIsExpired</text>
</a>
</g>
</g>
<!-- Node10&#45;&gt;Node11 -->
<g id="edge10" class="edge">
<title>Node10&#45;&gt;Node11</title>
<path fill="none" stroke="midnightblue" d="M416.61,-113.5C408.2,-113.5 399.71,-113.5 391.34,-113.5"/>
<polygon fill="midnightblue" stroke="midnightblue" points="416.79,-117 426.79,-113.5 416.79,-110 416.79,-117"/>
</g>
<!-- Node12 -->
<g id="node12" class="node">
<title>Node12</title>
<g id="a_node12"><a xlink:href="class_photon_1_1_pun_1_1_demo_1_1_asteroids_1_1_asteroids_game_manager.xhtml#aaabb84195392790ecfa4c21c5028aaf0" target="_top" xlink:title=" ">
<polygon fill="white" stroke="black" points="0,-123.5 0,-153.5 170,-153.5 170,-123.5 0,-123.5"/>
<text text-anchor="start" x="8" y="-141.5" font-family="Helvetica,sans-Serif" font-size="10.00">Photon.Pun.Demo.Asteroids.</text>
<text text-anchor="middle" x="85" y="-130.5" font-family="Helvetica,sans-Serif" font-size="10.00">AsteroidsGameManager.OnDisable</text>
</a>
</g>
</g>
<!-- Node11&#45;&gt;Node12 -->
<g id="edge11" class="edge">
<title>Node11&#45;&gt;Node12</title>
<path fill="none" stroke="midnightblue" d="M195.84,-125.52C187.19,-126.54 178.5,-127.57 170.01,-128.57"/>
<polygon fill="midnightblue" stroke="midnightblue" points="196.44,-128.97 205.96,-124.32 195.62,-122.02 196.44,-128.97"/>
</g>
<!-- Node13 -->
<g id="node13" class="node">
<title>Node13</title>
<g id="a_node13"><a xlink:href="class_photon_1_1_pun_1_1_demo_1_1_asteroids_1_1_asteroids_game_manager.xhtml#ab79592fe0c9dd5e839c1dab28ab68a9a" target="_top" xlink:title=" ">
<polygon fill="white" stroke="black" points="1.5,-74.5 1.5,-104.5 168.5,-104.5 168.5,-74.5 1.5,-74.5"/>
<text text-anchor="start" x="9.5" y="-92.5" font-family="Helvetica,sans-Serif" font-size="10.00">Photon.Pun.Demo.Asteroids.</text>
<text text-anchor="middle" x="85" y="-81.5" font-family="Helvetica,sans-Serif" font-size="10.00">AsteroidsGameManager.OnEnable</text>
</a>
</g>
</g>
<!-- Node11&#45;&gt;Node13 -->
<g id="edge12" class="edge">
<title>Node11&#45;&gt;Node13</title>
<path fill="none" stroke="midnightblue" d="M195.75,-101.95C186.68,-100.92 177.57,-99.89 168.69,-98.88"/>
<polygon fill="midnightblue" stroke="midnightblue" points="195.63,-105.46 205.96,-103.11 196.42,-98.51 195.63,-105.46"/>
</g>
</g>
</svg>
        <g id="navigator" transform="translate(0 0)" fill="#404254">
                <rect fill="#f2f5e9" fill-opacity="0.5" stroke="#606060" stroke-width=".5" x="0" y="0" width="60" height="60"/>
                <use id="zoomplus" xlink:href="#zoomPlus" x="17" y="9" onmousedown="handleZoom(evt,'in')"/>
                <use id="zoomminus" xlink:href="#zoomMin" x="42" y="9" onmousedown="handleZoom(evt,'out')"/>
                <use id="reset" xlink:href="#resetDef" x="30" y="36" onmousedown="handleReset()"/>
                <g id="arrowUp" xlink:href="#dirArrow" transform="translate(30 24)" onmousedown="handlePan(0,-1)">
                  <use xlink:href="#rim" fill="#404040">
                        <set attributeName="fill" to="#808080" begin="arrowUp.mouseover" end="arrowUp.mouseout"/>
                  </use>
                  <path fill="none" stroke="white" stroke-width="1.5" d="M0,-3.0v7 M-2.5,-0.5L0,-3.0L2.5,-0.5"/>
                </g>
                <g id="arrowRight" xlink:href="#dirArrow" transform="rotate(90) translate(36 -43)" onmousedown="handlePan(1,0)">
                  <use xlink:href="#rim" fill="#404040">
                        <set attributeName="fill" to="#808080" begin="arrowRight.mouseover" end="arrowRight.mouseout"/>
                  </use>
                  <path fill="none" stroke="white" stroke-width="1.5" d="M0,-3.0v7 M-2.5,-0.5L0,-3.0L2.5,-0.5"/>
                </g>
                <g id="arrowDown" xlink:href="#dirArrow" transform="rotate(180) translate(-30 -48)" onmousedown="handlePan(0,1)">
                  <use xlink:href="#rim" fill="#404040">
                        <set attributeName="fill" to="#808080" begin="arrowDown.mouseover" end="arrowDown.mouseout"/>
                  </use>
                  <path fill="none" stroke="white" stroke-width="1.5" d="M0,-3.0v7 M-2.5,-0.5L0,-3.0L2.5,-0.5"/>
                </g>
                <g id="arrowLeft" xlink:href="#dirArrow" transform="rotate(270) translate(-36 17)" onmousedown="handlePan(-1,0)">
                  <use xlink:href="#rim" fill="#404040">
                        <set attributeName="fill" to="#808080" begin="arrowLeft.mouseover" end="arrowLeft.mouseout"/>
                  </use>
                  <path fill="none" stroke="white" stroke-width="1.5" d="M0,-3.0v7 M-2.5,-0.5L0,-3.0L2.5,-0.5"/>
                </g>
        </g>
        <svg viewBox="0 0 15 15" width="100%" height="30px" preserveAspectRatio="xMaxYMin meet">
         <g id="arrow_out" transform="scale(0.3 0.3)">
          <a xlink:href="class_photon_1_1_pun_1_1_photon_network_a3c3998fe3bc09a7de8d09378d7a3e2d0_icgraph_org.svg" target="_base">
           <rect id="button" ry="5" rx="5" y="6" x="6" height="38" width="38"
                fill="#f2f5e9" fill-opacity="0.5" stroke="#606060" stroke-width="1.0"/>
           <path id="arrow"
             d="M 11.500037,31.436501 C 11.940474,20.09759 22.043105,11.32322 32.158766,21.979434 L 37.068811,17.246167 C 37.068811,17.246167 37.088388,32 37.088388,32 L 22.160133,31.978069 C 22.160133,31.978069 26.997745,27.140456 26.997745,27.140456 C 18.528582,18.264221 13.291696,25.230495 11.500037,31.436501 z"
             style="fill:#404040;"/>
          </a>
         </g>
        </svg>
</svg>
