<?xml version="1.0" encoding="UTF-8" standalone="no"?>
<!DOCTYPE svg PUBLIC "-//W3C//DTD SVG 1.1//EN"
 "http://www.w3.org/Graphics/SVG/1.1/DTD/svg11.dtd">
<!-- Generated by graphviz version 2.47.3 (20210619.1520)
 -->
<!-- Title: AbilityIndicator Pages: 1 -->
<svg width="883pt" height="518pt"
 viewBox="0.00 0.00 883.00 518.00" xmlns="http://www.w3.org/2000/svg" xmlns:xlink="http://www.w3.org/1999/xlink">
<g id="graph0" class="graph" transform="scale(1 1) rotate(0) translate(4 514)">
<title>AbilityIndicator</title>
<polygon fill="white" stroke="transparent" points="-4,4 -4,-514 879,-514 879,4 -4,4"/>
<!-- Node1 -->
<g id="node1" class="node">
<title>Node1</title>
<g id="a_node1"><a xlink:title=" ">
<polygon fill="#bfbfbf" stroke="black" points="344,-279.5 344,-298.5 424,-298.5 424,-279.5 344,-279.5"/>
<text text-anchor="middle" x="384" y="-286.5" font-family="Helvetica,sans-Serif" font-size="10.00">AbilityIndicator</text>
</a>
</g>
</g>
<!-- Node6 -->
<g id="node6" class="node">
<title>Node6</title>
<g id="a_node6"><a xlink:href="class_ability_cooldown.xhtml" target="_top" xlink:title=" ">
<polygon fill="white" stroke="black" points="311,-203.5 311,-222.5 397,-222.5 397,-203.5 311,-203.5"/>
<text text-anchor="middle" x="354" y="-210.5" font-family="Helvetica,sans-Serif" font-size="10.00">AbilityCooldown</text>
</a>
</g>
</g>
<!-- Node1&#45;&gt;Node6 -->
<g id="edge39" class="edge">
<title>Node1&#45;&gt;Node6</title>
<path fill="none" stroke="#9a32cd" stroke-dasharray="5,2" d="M395.07,-270.26C399.28,-261.12 401.99,-250.03 397,-241 392.48,-232.82 384.33,-226.79 376.33,-222.52"/>
<polygon fill="#9a32cd" stroke="#9a32cd" points="391.91,-268.76 390.21,-279.22 398.06,-272.1 391.91,-268.76"/>
<text text-anchor="middle" x="432" y="-248.5" font-family="Helvetica,sans-Serif" font-size="10.00"> abilityIndicator</text>
</g>
<!-- Node2 -->
<g id="node2" class="node">
<title>Node2</title>
<g id="a_node2"><a xlink:title=" ">
<polygon fill="white" stroke="#bfbfbf" points="287.5,-433.5 287.5,-452.5 370.5,-452.5 370.5,-433.5 287.5,-433.5"/>
<text text-anchor="middle" x="329" y="-440.5" font-family="Helvetica,sans-Serif" font-size="10.00">MonoBehaviour</text>
</a>
</g>
</g>
<!-- Node2&#45;&gt;Node1 -->
<g id="edge1" class="edge">
<title>Node2&#45;&gt;Node1</title>
<path fill="none" stroke="midnightblue" d="M335.64,-423.66C347.58,-390.65 372.26,-322.43 380.92,-298.51"/>
<polygon fill="midnightblue" stroke="midnightblue" points="332.23,-422.8 332.11,-433.39 338.81,-425.18 332.23,-422.8"/>
</g>
<!-- Node2&#45;&gt;Node6 -->
<g id="edge7" class="edge">
<title>Node2&#45;&gt;Node6</title>
<path fill="none" stroke="midnightblue" d="M328.81,-423.11C328.69,-392.68 329.29,-330.94 335,-279 336.88,-261.93 336.92,-257.41 342,-241 343.94,-234.73 346.94,-227.98 349.46,-222.8"/>
<polygon fill="midnightblue" stroke="midnightblue" points="325.31,-423.51 328.88,-433.48 332.31,-423.46 325.31,-423.51"/>
</g>
<!-- Node7 -->
<g id="node7" class="node">
<title>Node7</title>
<g id="a_node7"><a xlink:href="class_player_controller.xhtml" target="_top" xlink:title="Player Controller is the main class that handles all the movement of the Player.">
<polygon fill="white" stroke="black" points="428,-0.5 428,-19.5 514,-19.5 514,-0.5 428,-0.5"/>
<text text-anchor="middle" x="471" y="-7.5" font-family="Helvetica,sans-Serif" font-size="10.00">PlayerController</text>
</a>
</g>
</g>
<!-- Node2&#45;&gt;Node7 -->
<g id="edge9" class="edge">
<title>Node2&#45;&gt;Node7</title>
<path fill="none" stroke="midnightblue" d="M277.32,-440.67C184.7,-436.86 0,-422.22 0,-366 0,-366 0,-366 0,-76 0,-33.02 311.68,-16.95 427.95,-12.46"/>
<polygon fill="midnightblue" stroke="midnightblue" points="277.21,-444.16 287.33,-441.05 277.47,-437.17 277.21,-444.16"/>
</g>
<!-- Node8 -->
<g id="node8" class="node">
<title>Node8</title>
<g id="a_node8"><a xlink:href="class_photon_1_1_pun_1_1_photon_view.xhtml" target="_top" xlink:title="A PhotonView identifies an object across the network (viewID) and configures how the controlling clie...">
<polygon fill="white" stroke="black" points="651,-355.5 651,-374.5 773,-374.5 773,-355.5 651,-355.5"/>
<text text-anchor="middle" x="712" y="-362.5" font-family="Helvetica,sans-Serif" font-size="10.00">Photon.Pun.PhotonView</text>
</a>
</g>
</g>
<!-- Node2&#45;&gt;Node8 -->
<g id="edge11" class="edge">
<title>Node2&#45;&gt;Node8</title>
<path fill="none" stroke="midnightblue" d="M380.93,-439.66C427.19,-436.66 496.44,-429.93 555,-415 580.51,-408.49 585.01,-401.27 610,-393 631.39,-385.92 655.77,-379.41 675.33,-374.56"/>
<polygon fill="midnightblue" stroke="midnightblue" points="380.6,-436.17 370.84,-440.27 381.03,-443.16 380.6,-436.17"/>
</g>
<!-- Node13 -->
<g id="node13" class="node">
<title>Node13</title>
<g id="a_node13"><a xlink:href="class_stats.xhtml" target="_top" xlink:title="Base class Stats of the entity.">
<polygon fill="white" stroke="black" points="603,-279.5 603,-298.5 643,-298.5 643,-279.5 603,-279.5"/>
<text text-anchor="middle" x="623" y="-286.5" font-family="Helvetica,sans-Serif" font-size="10.00">Stats</text>
</a>
</g>
</g>
<!-- Node2&#45;&gt;Node13 -->
<g id="edge20" class="edge">
<title>Node2&#45;&gt;Node13</title>
<path fill="none" stroke="midnightblue" d="M381.06,-439.61C432.06,-436.45 505.57,-429.5 530,-415 558.43,-398.12 554.41,-381.64 574,-355 586.43,-338.1 589.34,-333.73 602,-317 606.59,-310.94 611.84,-304.19 615.94,-298.95"/>
<polygon fill="midnightblue" stroke="midnightblue" points="380.65,-436.12 370.87,-440.2 381.06,-443.11 380.65,-436.12"/>
</g>
<!-- Node15 -->
<g id="node15" class="node">
<title>Node15</title>
<g id="a_node15"><a xlink:href="class_u_i_controller.xhtml" target="_top" xlink:title=" ">
<polygon fill="white" stroke="black" points="195.5,-355.5 195.5,-374.5 262.5,-374.5 262.5,-355.5 195.5,-355.5"/>
<text text-anchor="middle" x="229" y="-362.5" font-family="Helvetica,sans-Serif" font-size="10.00">UIController</text>
</a>
</g>
</g>
<!-- Node2&#45;&gt;Node15 -->
<g id="edge24" class="edge">
<title>Node2&#45;&gt;Node15</title>
<path fill="none" stroke="midnightblue" d="M309.46,-427.15C288.87,-411.5 257.14,-387.38 240.34,-374.62"/>
<polygon fill="midnightblue" stroke="midnightblue" points="307.45,-430.02 317.53,-433.28 311.68,-424.44 307.45,-430.02"/>
</g>
<!-- Node16 -->
<g id="node16" class="node">
<title>Node16</title>
<g id="a_node16"><a xlink:href="class_inventory.xhtml" target="_top" xlink:title=" ">
<polygon fill="white" stroke="black" points="51.5,-317.5 51.5,-336.5 106.5,-336.5 106.5,-317.5 51.5,-317.5"/>
<text text-anchor="middle" x="79" y="-324.5" font-family="Helvetica,sans-Serif" font-size="10.00">Inventory</text>
</a>
</g>
</g>
<!-- Node2&#45;&gt;Node16 -->
<g id="edge28" class="edge">
<title>Node2&#45;&gt;Node16</title>
<path fill="none" stroke="midnightblue" d="M298.3,-429.59C287.42,-425.1 275.12,-419.92 264,-415 201.85,-387.49 129.16,-352.46 96.48,-336.55"/>
<polygon fill="midnightblue" stroke="midnightblue" points="297.24,-432.93 307.82,-433.49 299.89,-426.46 297.24,-432.93"/>
</g>
<!-- Node17 -->
<g id="node17" class="node">
<title>Node17</title>
<g id="a_node17"><a xlink:href="class_basic_attack.xhtml" target="_top" xlink:title=" ">
<polygon fill="white" stroke="black" points="535,-67.5 535,-86.5 605,-86.5 605,-67.5 535,-67.5"/>
<text text-anchor="middle" x="570" y="-74.5" font-family="Helvetica,sans-Serif" font-size="10.00">BasicAttack</text>
</a>
</g>
</g>
<!-- Node2&#45;&gt;Node17 -->
<g id="edge30" class="edge">
<title>Node2&#45;&gt;Node17</title>
<path fill="none" stroke="midnightblue" d="M352.47,-428.14C389.17,-405.41 460.34,-356.89 503,-299 554.85,-228.64 566.98,-117.85 569.44,-86.51"/>
<polygon fill="midnightblue" stroke="midnightblue" points="350.64,-425.16 343.92,-433.35 354.28,-431.14 350.64,-425.16"/>
</g>
<!-- Node3 -->
<g id="node3" class="node">
<title>Node3</title>
<g id="a_node3"><a xlink:href="class_ability.xhtml" target="_top" xlink:title=" ">
<polygon fill="white" stroke="black" points="583,-355.5 583,-374.5 627,-374.5 627,-355.5 583,-355.5"/>
<text text-anchor="middle" x="605" y="-362.5" font-family="Helvetica,sans-Serif" font-size="10.00">Ability</text>
</a>
</g>
</g>
<!-- Node3&#45;&gt;Node1 -->
<g id="edge2" class="edge">
<title>Node3&#45;&gt;Node1</title>
<path fill="none" stroke="#9a32cd" stroke-dasharray="5,2" d="M572.55,-362.81C524.58,-360.51 437.68,-354.05 412,-337 398.23,-327.86 390.25,-309.43 386.54,-298.56"/>
<polygon fill="#9a32cd" stroke="#9a32cd" points="572.57,-366.32 582.72,-363.27 572.88,-359.33 572.57,-366.32"/>
<text text-anchor="middle" x="429" y="-324.5" font-family="Helvetica,sans-Serif" font-size="10.00"> current</text>
</g>
<!-- Node3&#45;&gt;Node6 -->
<g id="edge37" class="edge">
<title>Node3&#45;&gt;Node6</title>
<path fill="none" stroke="#9a32cd" stroke-dasharray="5,2" d="M573.44,-352.43C564.16,-348.28 554.28,-343.1 546,-337 527.76,-323.56 526.32,-316.57 512,-299 491.72,-274.13 495.81,-258.63 469,-241 457.18,-233.22 424.68,-225.99 397.24,-220.97"/>
<polygon fill="#9a32cd" stroke="#9a32cd" points="572.23,-355.72 582.8,-356.36 574.94,-349.26 572.23,-355.72"/>
<text text-anchor="middle" x="526.5" y="-286.5" font-family="Helvetica,sans-Serif" font-size="10.00"> ability</text>
</g>
<!-- Node10 -->
<g id="node10" class="node">
<title>Node10</title>
<g id="a_node10"><a xlink:href="class_character.xhtml" target="_top" xlink:title=" ">
<polygon fill="white" stroke="black" points="721.5,-241.5 721.5,-260.5 780.5,-260.5 780.5,-241.5 721.5,-241.5"/>
<text text-anchor="middle" x="751" y="-248.5" font-family="Helvetica,sans-Serif" font-size="10.00">Character</text>
</a>
</g>
</g>
<!-- Node3&#45;&gt;Node10 -->
<g id="edge16" class="edge">
<title>Node3&#45;&gt;Node10</title>
<path fill="none" stroke="#9a32cd" stroke-dasharray="5,2" d="M605.2,-345.16C606.18,-335.84 608.76,-324.92 615,-317 615.5,-316.37 696.17,-278.02 733.02,-260.53"/>
<polygon fill="#9a32cd" stroke="#9a32cd" points="601.69,-345.25 604.66,-355.42 608.68,-345.62 601.69,-345.25"/>
<text text-anchor="middle" x="633.5" y="-324.5" font-family="Helvetica,sans-Serif" font-size="10.00"> abilities</text>
</g>
<!-- Node4 -->
<g id="node4" class="node">
<title>Node4</title>
<g id="a_node4"><a xlink:title=" ">
<polygon fill="white" stroke="#bfbfbf" points="584.5,-490.5 584.5,-509.5 673.5,-509.5 673.5,-490.5 584.5,-490.5"/>
<text text-anchor="middle" x="629" y="-497.5" font-family="Helvetica,sans-Serif" font-size="10.00">ScriptableObject</text>
</a>
</g>
</g>
<!-- Node4&#45;&gt;Node3 -->
<g id="edge3" class="edge">
<title>Node4&#45;&gt;Node3</title>
<path fill="none" stroke="midnightblue" d="M615.2,-482.22C609.28,-473.96 603.04,-463.52 600,-453 591.98,-425.24 598.71,-390.47 602.65,-374.61"/>
<polygon fill="midnightblue" stroke="midnightblue" points="612.47,-484.42 621.32,-490.24 618.03,-480.17 612.47,-484.42"/>
</g>
<!-- Node5 -->
<g id="node5" class="node">
<title>Node5</title>
<g id="a_node5"><a xlink:href="class_effect.xhtml" target="_top" xlink:title=" ">
<polygon fill="white" stroke="black" points="608.5,-433.5 608.5,-452.5 649.5,-452.5 649.5,-433.5 608.5,-433.5"/>
<text text-anchor="middle" x="629" y="-440.5" font-family="Helvetica,sans-Serif" font-size="10.00">Effect</text>
</a>
</g>
</g>
<!-- Node4&#45;&gt;Node5 -->
<g id="edge5" class="edge">
<title>Node4&#45;&gt;Node5</title>
<path fill="none" stroke="midnightblue" d="M629,-480.12C629,-470.82 629,-460.06 629,-452.71"/>
<polygon fill="midnightblue" stroke="midnightblue" points="625.5,-480.41 629,-490.41 632.5,-480.41 625.5,-480.41"/>
</g>
<!-- Node4&#45;&gt;Node10 -->
<g id="edge15" class="edge">
<title>Node4&#45;&gt;Node10</title>
<path fill="none" stroke="midnightblue" d="M683.52,-493.53C738.41,-486.47 815,-471.66 815,-444 815,-444 815,-444 815,-326 815,-296.28 785.09,-272.61 766.17,-260.61"/>
<polygon fill="midnightblue" stroke="midnightblue" points="683.05,-490.06 673.55,-494.76 683.9,-497.01 683.05,-490.06"/>
</g>
<!-- Node5&#45;&gt;Node3 -->
<g id="edge4" class="edge">
<title>Node5&#45;&gt;Node3</title>
<path fill="none" stroke="#9a32cd" stroke-dasharray="5,2" d="M623.21,-423.67C618.3,-408.11 611.46,-386.47 607.72,-374.62"/>
<polygon fill="#9a32cd" stroke="#9a32cd" points="619.9,-424.8 626.25,-433.28 626.57,-422.69 619.9,-424.8"/>
<text text-anchor="middle" x="654" y="-401.5" font-family="Helvetica,sans-Serif" font-size="10.00"> toAuthorEffects</text>
</g>
<!-- Node6&#45;&gt;Node1 -->
<g id="edge6" class="edge">
<title>Node6&#45;&gt;Node1</title>
<path fill="none" stroke="#9a32cd" stroke-dasharray="5,2" d="M348.1,-232.66C346.32,-241.63 345.8,-252.3 350,-261 353.74,-268.74 360.89,-274.94 367.67,-279.44"/>
<polygon fill="#9a32cd" stroke="#9a32cd" points="351.54,-233.36 350.67,-222.8 344.76,-231.6 351.54,-233.36"/>
<text text-anchor="middle" x="373.5" y="-248.5" font-family="Helvetica,sans-Serif" font-size="10.00"> currentCD</text>
</g>
<!-- Node6&#45;&gt;Node7 -->
<g id="edge13" class="edge">
<title>Node6&#45;&gt;Node7</title>
<path fill="none" stroke="#9a32cd" stroke-dasharray="5,2" d="M356.79,-193.38C357.2,-190.57 357.61,-187.71 358,-185 363.07,-149.47 352.38,-136.81 369,-105 389.63,-65.51 433.71,-34.01 456.57,-19.57"/>
<polygon fill="#9a32cd" stroke="#9a32cd" points="353.29,-193.09 355.28,-203.49 360.21,-194.11 353.29,-193.09"/>
<text text-anchor="middle" x="407" y="-108" font-family="Helvetica,sans-Serif" font-size="10.00"> abilityCooldowns</text>
</g>
<!-- Node11 -->
<g id="node11" class="node">
<title>Node11</title>
<g id="a_node11"><a xlink:href="class_player_stats.xhtml" target="_top" xlink:title="Player Stats is the main class that controls all the Player Statistics in all time in the game execut...">
<polygon fill="white" stroke="black" points="209,-135.5 209,-154.5 277,-154.5 277,-135.5 209,-135.5"/>
<text text-anchor="middle" x="243" y="-142.5" font-family="Helvetica,sans-Serif" font-size="10.00">PlayerStats</text>
</a>
</g>
</g>
<!-- Node6&#45;&gt;Node11 -->
<g id="edge26" class="edge">
<title>Node6&#45;&gt;Node11</title>
<path fill="none" stroke="#9a32cd" stroke-dasharray="5,2" d="M313.02,-200.07C302.48,-196.09 291.45,-191.09 282,-185 268.96,-176.6 256.8,-163.22 249.64,-154.52"/>
<polygon fill="#9a32cd" stroke="#9a32cd" points="311.91,-203.39 322.5,-203.43 314.25,-196.79 311.91,-203.39"/>
<text text-anchor="middle" x="320" y="-177" font-family="Helvetica,sans-Serif" font-size="10.00"> abilityCooldowns</text>
</g>
<!-- Node7&#45;&gt;Node6 -->
<g id="edge8" class="edge">
<title>Node7&#45;&gt;Node6</title>
<path fill="none" stroke="#9a32cd" stroke-dasharray="5,2" d="M470.04,-29.88C468.27,-51.7 463.25,-88.18 449,-116 429.01,-155.03 387.54,-188.26 366.63,-203.34"/>
<polygon fill="#9a32cd" stroke="#9a32cd" points="473.55,-29.88 470.71,-19.67 466.56,-29.42 473.55,-29.88"/>
<text text-anchor="middle" x="488.5" y="-108" font-family="Helvetica,sans-Serif" font-size="10.00"> playerController</text>
</g>
<!-- Node7&#45;&gt;Node11 -->
<g id="edge25" class="edge">
<title>Node7&#45;&gt;Node11</title>
<path fill="none" stroke="#9a32cd" stroke-dasharray="5,2" d="M417.59,-15.08C351.02,-21.41 243.02,-36.24 219,-67 202.63,-87.97 223.78,-120.23 235.77,-135.47"/>
<polygon fill="#9a32cd" stroke="#9a32cd" points="418.26,-18.53 427.9,-14.13 417.62,-11.56 418.26,-18.53"/>
<text text-anchor="middle" x="254.5" y="-74.5" font-family="Helvetica,sans-Serif" font-size="10.00"> playerController</text>
</g>
<!-- Node7&#45;&gt;Node17 -->
<g id="edge31" class="edge">
<title>Node7&#45;&gt;Node17</title>
<path fill="none" stroke="#9a32cd" stroke-dasharray="5,2" d="M481.55,-28.13C486.69,-35.35 493.4,-43.37 501,-49 511.96,-57.12 525.67,-63.14 537.98,-67.42"/>
<polygon fill="#9a32cd" stroke="#9a32cd" points="484.37,-26.05 475.93,-19.65 478.54,-29.92 484.37,-26.05"/>
<text text-anchor="middle" x="522.5" y="-41" font-family="Helvetica,sans-Serif" font-size="10.00"> controller</text>
</g>
<!-- Node8&#45;&gt;Node6 -->
<g id="edge38" class="edge">
<title>Node8&#45;&gt;Node6</title>
<path fill="none" stroke="#9a32cd" stroke-dasharray="5,2" d="M643.35,-352.98C629.16,-349.12 614.69,-343.94 602,-337 545.36,-306.03 551.66,-267.95 493,-241 484.29,-237 434.58,-227.85 397.07,-221.31"/>
<polygon fill="#9a32cd" stroke="#9a32cd" points="642.55,-356.38 653.1,-355.44 644.26,-349.6 642.55,-356.38"/>
<text text-anchor="middle" x="567" y="-286.5" font-family="Helvetica,sans-Serif" font-size="10.00"> view</text>
</g>
<!-- Node8&#45;&gt;Node7 -->
<g id="edge10" class="edge">
<title>Node8&#45;&gt;Node7</title>
<path fill="none" stroke="#9a32cd" stroke-dasharray="5,2" d="M782.9,-353.43C818.02,-343.75 853,-325.25 853,-290 853,-290 853,-290 853,-76 853,-32.58 805.11,-48.57 763,-38 676.59,-16.32 571.86,-11.66 514.25,-10.89"/>
<polygon fill="#9a32cd" stroke="#9a32cd" points="781.86,-350.08 773.02,-355.93 783.58,-356.87 781.86,-350.08"/>
<text text-anchor="middle" x="864" y="-177" font-family="Helvetica,sans-Serif" font-size="10.00"> view</text>
</g>
<!-- Node8&#45;&gt;Node13 -->
<g id="edge21" class="edge">
<title>Node8&#45;&gt;Node13</title>
<path fill="none" stroke="#9a32cd" stroke-dasharray="5,2" d="M693.29,-348.85C688.6,-345.01 683.6,-340.88 679,-337 668.65,-328.27 666.35,-325.73 656,-317 648.64,-310.8 640.25,-303.93 633.77,-298.67"/>
<polygon fill="#9a32cd" stroke="#9a32cd" points="691.27,-351.72 701.23,-355.33 695.69,-346.3 691.27,-351.72"/>
<text text-anchor="middle" x="690" y="-324.5" font-family="Helvetica,sans-Serif" font-size="10.00"> view</text>
</g>
<!-- Node8&#45;&gt;Node17 -->
<g id="edge32" class="edge">
<title>Node8&#45;&gt;Node17</title>
<path fill="none" stroke="#9a32cd" stroke-dasharray="5,2" d="M708.53,-345.3C706.69,-336.58 704.14,-326.14 701,-317 690.66,-286.91 671,-283.82 671,-252 671,-252 671,-252 671,-144 671,-111.64 634.21,-94.3 605.04,-85.64"/>
<polygon fill="#9a32cd" stroke="#9a32cd" points="705.11,-346.06 710.49,-355.19 711.98,-344.7 705.11,-346.06"/>
<text text-anchor="middle" x="682" y="-210.5" font-family="Helvetica,sans-Serif" font-size="10.00"> view</text>
</g>
<!-- Node9 -->
<g id="node9" class="node">
<title>Node9</title>
<g id="a_node9"><a xlink:href="class_photon_1_1_realtime_1_1_player.xhtml" target="_top" xlink:title="Summarizes a &quot;player&quot; within a room, identified (in that room) by ID (or &quot;actorNumber&quot;).">
<polygon fill="white" stroke="black" points="667.5,-433.5 667.5,-452.5 786.5,-452.5 786.5,-433.5 667.5,-433.5"/>
<text text-anchor="middle" x="727" y="-440.5" font-family="Helvetica,sans-Serif" font-size="10.00">Photon.Realtime.Player</text>
</a>
</g>
</g>
<!-- Node9&#45;&gt;Node8 -->
<g id="edge12" class="edge">
<title>Node9&#45;&gt;Node8</title>
<path fill="none" stroke="#9a32cd" stroke-dasharray="5,2" d="M723.29,-423.22C720.23,-407.7 716.02,-386.36 713.7,-374.62"/>
<polygon fill="#9a32cd" stroke="#9a32cd" points="719.91,-424.15 725.28,-433.28 726.78,-422.79 719.91,-424.15"/>
<text text-anchor="middle" x="742.5" y="-407" font-family="Helvetica,sans-Serif" font-size="10.00"> controller</text>
<text text-anchor="middle" x="742.5" y="-396" font-family="Helvetica,sans-Serif" font-size="10.00">owner</text>
</g>
<!-- Node10&#45;&gt;Node7 -->
<g id="edge14" class="edge">
<title>Node10&#45;&gt;Node7</title>
<path fill="none" stroke="#9a32cd" stroke-dasharray="5,2" d="M762.25,-232.73C770.04,-219.11 779,-199.34 779,-180.5 779,-180.5 779,-180.5 779,-76 779,-22.51 598.92,-12.82 514.15,-11.22"/>
<polygon fill="#9a32cd" stroke="#9a32cd" points="759.15,-231.09 756.94,-241.45 765.13,-234.73 759.15,-231.09"/>
<text text-anchor="middle" x="802" y="-148" font-family="Helvetica,sans-Serif" font-size="10.00"> character</text>
<text text-anchor="middle" x="802" y="-137" font-family="Helvetica,sans-Serif" font-size="10.00">characters</text>
</g>
<!-- Node10&#45;&gt;Node17 -->
<g id="edge34" class="edge">
<title>Node10&#45;&gt;Node17</title>
<path fill="none" stroke="#9a32cd" stroke-dasharray="5,2" d="M742.61,-231.94C736.57,-218.9 728.24,-200.88 721,-185 704.83,-149.52 715.09,-129.8 685,-105 662.68,-86.61 630.06,-80.29 605.26,-78.32"/>
<polygon fill="#9a32cd" stroke="#9a32cd" points="739.51,-233.58 746.9,-241.18 745.86,-230.64 739.51,-233.58"/>
<text text-anchor="middle" x="743" y="-177" font-family="Helvetica,sans-Serif" font-size="10.00"> character</text>
</g>
<!-- Node11&#45;&gt;Node6 -->
<g id="edge40" class="edge">
<title>Node11&#45;&gt;Node6</title>
<path fill="none" stroke="#9a32cd" stroke-dasharray="5,2" d="M219.63,-160.64C210.81,-167.97 204.34,-176.97 211,-185 223.54,-200.12 273.6,-206.84 310.98,-209.78"/>
<polygon fill="#9a32cd" stroke="#9a32cd" points="221.73,-163.44 227.71,-154.69 217.58,-157.8 221.73,-163.44"/>
<text text-anchor="middle" x="237.5" y="-177" font-family="Helvetica,sans-Serif" font-size="10.00"> playerStats</text>
</g>
<!-- Node11&#45;&gt;Node7 -->
<g id="edge17" class="edge">
<title>Node11&#45;&gt;Node7</title>
<path fill="none" stroke="#9a32cd" stroke-dasharray="5,2" d="M256.27,-127.25C275.92,-103.63 315.08,-60.87 358,-38 379.54,-26.52 405.96,-19.86 427.84,-16.03"/>
<polygon fill="#9a32cd" stroke="#9a32cd" points="253.33,-125.32 249.73,-135.28 258.76,-129.74 253.33,-125.32"/>
<text text-anchor="middle" x="327.5" y="-74.5" font-family="Helvetica,sans-Serif" font-size="10.00"> stats</text>
</g>
<!-- Node11&#45;&gt;Node17 -->
<g id="edge35" class="edge">
<title>Node11&#45;&gt;Node17</title>
<path fill="none" stroke="#9a32cd" stroke-dasharray="5,2" d="M270.16,-131.13C280.17,-126.38 291.61,-120.95 302,-116 312.23,-111.13 314.1,-108.11 325,-105 397.63,-84.28 486.57,-79.29 534.81,-78.2"/>
<polygon fill="#9a32cd" stroke="#9a32cd" points="268.62,-127.99 261.08,-135.44 271.62,-134.31 268.62,-127.99"/>
<text text-anchor="middle" x="337.5" y="-108" font-family="Helvetica,sans-Serif" font-size="10.00"> stats</text>
</g>
<!-- Node12 -->
<g id="node12" class="node">
<title>Node12</title>
<g id="a_node12"><a xlink:href="class_ability_affected_stats.xhtml" target="_top" xlink:title="Base class Stats of the entity who is affected by Abilities.">
<polygon fill="white" stroke="black" points="423,-203.5 423,-222.5 525,-222.5 525,-203.5 423,-203.5"/>
<text text-anchor="middle" x="474" y="-210.5" font-family="Helvetica,sans-Serif" font-size="10.00">AbilityAffectedStats</text>
</a>
</g>
</g>
<!-- Node12&#45;&gt;Node11 -->
<g id="edge18" class="edge">
<title>Node12&#45;&gt;Node11</title>
<path fill="none" stroke="midnightblue" d="M441.43,-200.03C419.22,-192.09 389.04,-181.75 362,-174 333.64,-165.87 300.99,-158.32 277.08,-153.11"/>
<polygon fill="midnightblue" stroke="midnightblue" points="440.44,-203.39 451.04,-203.49 442.82,-196.8 440.44,-203.39"/>
</g>
<!-- Node13&#45;&gt;Node12 -->
<g id="edge19" class="edge">
<title>Node13&#45;&gt;Node12</title>
<path fill="none" stroke="midnightblue" d="M602.02,-273.7C586.88,-263.75 565.7,-250.6 546,-241 531.36,-233.87 514.32,-227.4 500.49,-222.58"/>
<polygon fill="midnightblue" stroke="midnightblue" points="600.35,-276.79 610.61,-279.42 604.23,-270.96 600.35,-276.79"/>
</g>
<!-- Node13&#45;&gt;Node17 -->
<g id="edge33" class="edge">
<title>Node13&#45;&gt;Node17</title>
<path fill="none" stroke="#9a32cd" stroke-dasharray="5,2" d="M618.31,-269.4C607.3,-225.79 580.16,-118.27 572.22,-86.79"/>
<polygon fill="#9a32cd" stroke="#9a32cd" points="614.95,-270.4 620.79,-279.24 621.74,-268.69 614.95,-270.4"/>
<text text-anchor="middle" x="620.5" y="-177" font-family="Helvetica,sans-Serif" font-size="10.00"> otherStats</text>
</g>
<!-- Node14 -->
<g id="node14" class="node">
<title>Node14</title>
<g id="a_node14"><a xlink:href="class_player_u_i_controller.xhtml" target="_top" xlink:title="UI Controller for the Player Stats">
<polygon fill="white" stroke="black" points="85.5,-241.5 85.5,-260.5 180.5,-260.5 180.5,-241.5 85.5,-241.5"/>
<text text-anchor="middle" x="133" y="-248.5" font-family="Helvetica,sans-Serif" font-size="10.00">PlayerUIController</text>
</a>
</g>
</g>
<!-- Node14&#45;&gt;Node11 -->
<g id="edge22" class="edge">
<title>Node14&#45;&gt;Node11</title>
<path fill="none" stroke="#9a32cd" stroke-dasharray="5,2" d="M147.4,-233.15C161.4,-217.18 183.63,-192.89 205,-174 212.98,-166.95 222.66,-159.84 230.25,-154.55"/>
<polygon fill="#9a32cd" stroke="#9a32cd" points="144.43,-231.23 140.52,-241.08 149.72,-235.82 144.43,-231.23"/>
<text text-anchor="middle" x="196" y="-210.5" font-family="Helvetica,sans-Serif" font-size="10.00"> uiControl</text>
</g>
<!-- Node15&#45;&gt;Node14 -->
<g id="edge23" class="edge">
<title>Node15&#45;&gt;Node14</title>
<path fill="none" stroke="midnightblue" d="M214.95,-347.6C194.31,-323.53 156.52,-279.44 140.5,-260.75"/>
<polygon fill="midnightblue" stroke="midnightblue" points="212.3,-349.9 221.47,-355.21 217.62,-345.34 212.3,-349.9"/>
</g>
<!-- Node16&#45;&gt;Node11 -->
<g id="edge27" class="edge">
<title>Node16&#45;&gt;Node11</title>
<path fill="none" stroke="#9a32cd" stroke-dasharray="5,2" d="M60.25,-310.12C42.02,-292.7 19.11,-264.13 34,-241 72.84,-180.68 160.39,-158.22 208.95,-150.2"/>
<polygon fill="#9a32cd" stroke="#9a32cd" points="58.39,-313.15 68.14,-317.28 63.09,-307.97 58.39,-313.15"/>
<text text-anchor="middle" x="55" y="-248.5" font-family="Helvetica,sans-Serif" font-size="10.00"> inventory</text>
</g>
<!-- Node17&#45;&gt;Node7 -->
<g id="edge29" class="edge">
<title>Node17&#45;&gt;Node7</title>
<path fill="none" stroke="#9a32cd" stroke-dasharray="5,2" d="M562.75,-57.75C559.2,-50.76 554.31,-43.23 548,-38 537.74,-29.51 524.64,-23.61 512.16,-19.55"/>
<polygon fill="#9a32cd" stroke="#9a32cd" points="559.73,-59.56 567,-67.26 566.12,-56.7 559.73,-59.56"/>
<text text-anchor="middle" x="584.5" y="-41" font-family="Helvetica,sans-Serif" font-size="10.00"> basicAttack</text>
</g>
<!-- Node18 -->
<g id="node18" class="node">
<title>Node18</title>
<g id="a_node18"><a xlink:title=" ">
<polygon fill="white" stroke="#bfbfbf" points="186.5,-279.5 186.5,-298.5 221.5,-298.5 221.5,-279.5 186.5,-279.5"/>
<text text-anchor="middle" x="204" y="-286.5" font-family="Helvetica,sans-Serif" font-size="10.00">Text</text>
</a>
</g>
</g>
<!-- Node18&#45;&gt;Node6 -->
<g id="edge36" class="edge">
<title>Node18&#45;&gt;Node6</title>
<path fill="none" stroke="#9a32cd" stroke-dasharray="5,2" d="M199.23,-269.12C198.01,-259.64 198.53,-248.59 205,-241 218.44,-225.25 271.74,-218.66 310.77,-215.92"/>
<polygon fill="#9a32cd" stroke="#9a32cd" points="195.85,-270.09 201.21,-279.22 202.72,-268.74 195.85,-270.09"/>
<text text-anchor="middle" x="253.5" y="-248.5" font-family="Helvetica,sans-Serif" font-size="10.00"> coolDownTextDisplay</text>
</g>
</g>
</svg>
