<?xml version="1.0" encoding="UTF-8" standalone="no"?>
<!DOCTYPE svg PUBLIC "-//W3C//DTD SVG 1.1//EN"
 "http://www.w3.org/Graphics/SVG/1.1/DTD/svg11.dtd">
<!-- Generated by graphviz version 2.47.3 (20210619.1520)
 -->
<!-- Title: Photon.Pun.UtilityScripts.CellTreeNode.GetActiveCells Pages: 1 -->
<svg width="334pt" height="88pt"
 viewBox="0.00 0.00 334.00 88.00" xmlns="http://www.w3.org/2000/svg" xmlns:xlink="http://www.w3.org/1999/xlink">
<g id="graph0" class="graph" transform="scale(1 1) rotate(0) translate(4 84)">
<title>Photon.Pun.UtilityScripts.CellTreeNode.GetActiveCells</title>
<polygon fill="white" stroke="transparent" points="-4,4 -4,-84 330,-84 330,4 -4,4"/>
<!-- Node1 -->
<g id="node1" class="node">
<title>Node1</title>
<g id="a_node1"><a xlink:title="Gathers all cell IDs the player is currently inside or nearby.">
<polygon fill="#bfbfbf" stroke="black" points="0,-24.5 0,-54.5 141,-54.5 141,-24.5 0,-24.5"/>
<text text-anchor="start" x="8" y="-42.5" font-family="Helvetica,sans-Serif" font-size="10.00">Photon.Pun.UtilityScripts.</text>
<text text-anchor="middle" x="70.5" y="-31.5" font-family="Helvetica,sans-Serif" font-size="10.00">CellTreeNode.GetActiveCells</text>
</a>
</g>
</g>
<!-- Node1&#45;&gt;Node1 -->
<g id="edge1" class="edge">
<title>Node1&#45;&gt;Node1</title>
<path fill="none" stroke="midnightblue" d="M39.13,-54.66C31.57,-64.06 42.02,-73 70.5,-73 87.85,-73 98.51,-69.68 102.48,-64.96"/>
<polygon fill="midnightblue" stroke="midnightblue" points="105.96,-64.43 101.87,-54.66 98.97,-64.85 105.96,-64.43"/>
</g>
<!-- Node2 -->
<g id="node2" class="node">
<title>Node2</title>
<g id="a_node2"><a xlink:href="class_photon_1_1_pun_1_1_utility_scripts_1_1_cell_tree_node.xhtml#a2c550fbbf2ed973dc8c2f093721b2ccd" target="_top" xlink:title="Checks if the given point is inside the cell.">
<polygon fill="white" stroke="black" points="177,-49.5 177,-79.5 326,-79.5 326,-49.5 177,-49.5"/>
<text text-anchor="start" x="185" y="-67.5" font-family="Helvetica,sans-Serif" font-size="10.00">Photon.Pun.UtilityScripts.</text>
<text text-anchor="middle" x="251.5" y="-56.5" font-family="Helvetica,sans-Serif" font-size="10.00">CellTreeNode.IsPointInsideCell</text>
</a>
</g>
</g>
<!-- Node1&#45;&gt;Node2 -->
<g id="edge2" class="edge">
<title>Node1&#45;&gt;Node2</title>
<path fill="none" stroke="midnightblue" d="M141.22,-49.24C149.61,-50.41 158.26,-51.62 166.82,-52.81"/>
<polygon fill="midnightblue" stroke="midnightblue" points="166.44,-56.29 176.83,-54.21 167.41,-49.36 166.44,-56.29"/>
</g>
<!-- Node3 -->
<g id="node3" class="node">
<title>Node3</title>
<g id="a_node3"><a xlink:href="class_photon_1_1_pun_1_1_utility_scripts_1_1_cell_tree_node.xhtml#a68c3fb47028b8f0a5a34e22053e860b8" target="_top" xlink:title="Checks if the given point is near the cell.">
<polygon fill="white" stroke="black" points="179.5,-0.5 179.5,-30.5 323.5,-30.5 323.5,-0.5 179.5,-0.5"/>
<text text-anchor="start" x="187.5" y="-18.5" font-family="Helvetica,sans-Serif" font-size="10.00">Photon.Pun.UtilityScripts.</text>
<text text-anchor="middle" x="251.5" y="-7.5" font-family="Helvetica,sans-Serif" font-size="10.00">CellTreeNode.IsPointNearCell</text>
</a>
</g>
</g>
<!-- Node1&#45;&gt;Node3 -->
<g id="edge3" class="edge">
<title>Node1&#45;&gt;Node3</title>
<path fill="none" stroke="midnightblue" d="M141.22,-30.15C150.45,-28.92 159.97,-27.64 169.37,-26.38"/>
<polygon fill="midnightblue" stroke="midnightblue" points="170.05,-29.82 179.5,-25.02 169.12,-22.88 170.05,-29.82"/>
</g>
</g>
</svg>
