<?xml version="1.0" encoding="UTF-8" standalone="no"?>
<!DOCTYPE svg PUBLIC "-//W3C//DTD SVG 1.1//EN"
 "http://www.w3.org/Graphics/SVG/1.1/DTD/svg11.dtd">
<!-- Generated by graphviz version 2.49.1 (20210923.0004)
 -->
<!-- Title: Stats.GetUI Pages: 1 -->
<svg width="385pt" height="142pt"
 viewBox="0.00 0.00 385.00 142.00" xmlns="http://www.w3.org/2000/svg" xmlns:xlink="http://www.w3.org/1999/xlink">
<g id="graph0" class="graph" transform="scale(1 1) rotate(0) translate(4 138)">
<title>Stats.GetUI</title>
<!-- Node1 -->
<g id="node1" class="node">
<title>Node1</title>
<g id="a_node1"><a xlink:title="This method retuns the UIController of the entity.">
<polygon fill="#bfbfbf" stroke="black" points="309,-57.5 309,-76.5 377,-76.5 377,-57.5 309,-57.5"/>
<text text-anchor="middle" x="343" y="-64.5" font-family="Helvetica,sans-Serif" font-size="10.00">Stats.GetUI</text>
</a>
</g>
</g>
<!-- Node2 -->
<g id="node2" class="node">
<title>Node2</title>
<g id="a_node2"><a xlink:href="class_structure_stats.html#a9288d34a28aecd99033a0f2998df3a21" target="_top" xlink:title=" ">
<polygon fill="none" stroke="black" points="155.5,-114.5 155.5,-133.5 272.5,-133.5 272.5,-114.5 155.5,-114.5"/>
<text text-anchor="middle" x="214" y="-121.5" font-family="Helvetica,sans-Serif" font-size="10.00">StructureStats.Activate</text>
</a>
</g>
</g>
<!-- Node1&#45;&gt;Node2 -->
<g id="edge1" class="edge">
<title>Node1&#45;&gt;Node2</title>
<path fill="none" stroke="midnightblue" d="M313.45,-81.08C301.08,-87.07 286.4,-94.03 273,-100 261.85,-104.97 249.36,-110.18 238.83,-114.48"/>
<polygon fill="midnightblue" stroke="midnightblue" points="315.34,-84.05 322.8,-76.53 312.27,-77.76 315.34,-84.05"/>
</g>
<!-- Node4 -->
<g id="node4" class="node">
<title>Node4</title>
<g id="a_node4"><a xlink:href="class_stats.html#aa42ab5ae9f21d5c9b7670548e07495de" target="_top" xlink:title=" ">
<polygon fill="none" stroke="black" points="0,-57.5 0,-76.5 119,-76.5 119,-57.5 0,-57.5"/>
<text text-anchor="middle" x="59.5" y="-64.5" font-family="Helvetica,sans-Serif" font-size="10.00">Stats.DealDamageRPC</text>
</a>
</g>
</g>
<!-- Node1&#45;&gt;Node4 -->
<g id="edge3" class="edge">
<title>Node1&#45;&gt;Node4</title>
<path fill="none" stroke="midnightblue" d="M298.8,-67C250.73,-67 172.78,-67 119.2,-67"/>
<polygon fill="midnightblue" stroke="midnightblue" points="298.88,-70.5 308.88,-67 298.88,-63.5 298.88,-70.5"/>
</g>
<!-- Node5 -->
<g id="node5" class="node">
<title>Node5</title>
<g id="a_node5"><a xlink:href="class_stats.html#a151dcb8877a7a73e5d2688e55c810896" target="_top" xlink:title="Function that implements what is done when this entity dies.">
<polygon fill="none" stroke="black" points="185.5,-38.5 185.5,-57.5 242.5,-57.5 242.5,-38.5 185.5,-38.5"/>
<text text-anchor="middle" x="214" y="-45.5" font-family="Helvetica,sans-Serif" font-size="10.00">Stats.Die</text>
</a>
</g>
</g>
<!-- Node1&#45;&gt;Node5 -->
<g id="edge4" class="edge">
<title>Node1&#45;&gt;Node5</title>
<path fill="none" stroke="midnightblue" d="M298.95,-60.56C280.37,-57.78 259.17,-54.61 242.72,-52.15"/>
<polygon fill="midnightblue" stroke="midnightblue" points="298.56,-64.04 308.96,-62.06 299.59,-57.12 298.56,-64.04"/>
</g>
<!-- Node6 -->
<g id="node6" class="node">
<title>Node6</title>
<g id="a_node6"><a xlink:href="class_movable_stats.html#aaa1da792e42f2fc4176ef6eaf41aaf9e" target="_top" xlink:title=" ">
<polygon fill="none" stroke="black" points="155,-0.5 155,-19.5 273,-19.5 273,-0.5 155,-0.5"/>
<text text-anchor="middle" x="214" y="-7.5" font-family="Helvetica,sans-Serif" font-size="10.00">MovableStats.HealRPC</text>
</a>
</g>
</g>
<!-- Node1&#45;&gt;Node6 -->
<g id="edge6" class="edge">
<title>Node1&#45;&gt;Node6</title>
<path fill="none" stroke="midnightblue" d="M317.75,-52.19C304.77,-44.64 288.34,-35.67 273,-29 264.93,-25.49 256,-22.26 247.61,-19.5"/>
<polygon fill="midnightblue" stroke="midnightblue" points="316.14,-55.3 326.53,-57.38 319.71,-49.28 316.14,-55.3"/>
</g>
<!-- Node3 -->
<g id="node3" class="node">
<title>Node3</title>
<g id="a_node3"><a xlink:href="class_structure_stats.html#a47d6bbbce7de8a935120066f849d8bd4" target="_top" xlink:title="Function that implements what is done when this entity dies.">
<polygon fill="none" stroke="black" points="11,-114.5 11,-133.5 108,-133.5 108,-114.5 11,-114.5"/>
<text text-anchor="middle" x="59.5" y="-121.5" font-family="Helvetica,sans-Serif" font-size="10.00">StructureStats.Die</text>
</a>
</g>
</g>
<!-- Node2&#45;&gt;Node3 -->
<g id="edge2" class="edge">
<title>Node2&#45;&gt;Node3</title>
<path fill="none" stroke="midnightblue" d="M145.03,-124C132.64,-124 119.95,-124 108.29,-124"/>
<polygon fill="midnightblue" stroke="midnightblue" points="145.35,-127.5 155.35,-124 145.35,-120.5 145.35,-127.5"/>
</g>
<!-- Node5&#45;&gt;Node4 -->
<g id="edge5" class="edge">
<title>Node5&#45;&gt;Node4</title>
<path fill="none" stroke="midnightblue" d="M175.33,-52.69C158.41,-54.8 138.04,-57.34 119.19,-59.69"/>
<polygon fill="midnightblue" stroke="midnightblue" points="175.89,-56.15 185.38,-51.44 175.03,-49.2 175.89,-56.15"/>
</g>
</g>
</svg>
