<?xml version="1.0" encoding="UTF-8" standalone="no"?>
<!DOCTYPE svg PUBLIC "-//W3C//DTD SVG 1.1//EN"
 "http://www.w3.org/Graphics/SVG/1.1/DTD/svg11.dtd">
<!-- Generated by graphviz version 2.47.3 (20210619.1520)
 -->
<!-- Title: Ability_Dash Pages: 1 -->
<!--zoomable 463 -->
<svg id="main" version="1.1" xmlns="http://www.w3.org/2000/svg" xmlns:xlink="http://www.w3.org/1999/xlink" xml:space="preserve" onload="init(evt)">
<style type="text/css"><![CDATA[
.edge:hover path { stroke: red; }
.edge:hover polygon { stroke: red; fill: red; }
]]></style>
<script type="text/javascript"><![CDATA[
var edges = document.getElementsByTagName('g');
if (edges && edges.length) {
  for (var i=0;i<edges.length;i++) {
    if (edges[i].id.substr(0,4)=='edge') {
      edges[i].setAttribute('class','edge');
    }
  }
}
]]></script>
        <defs>
                <circle id="rim" cx="0" cy="0" r="7"/>
                <circle id="rim2" cx="0" cy="0" r="3.5"/>
                <g id="zoomPlus">
                        <use xlink:href="#rim" fill="#404040">
                                <set attributeName="fill" to="#808080" begin="zoomplus.mouseover" end="zoomplus.mouseout"/>
                        </use>
                        <path d="M-4,0h8M0,-4v8" fill="none" stroke="white" stroke-width="1.5" pointer-events="none"/>
                </g>
                <g id="zoomMin">
                        <use xlink:href="#rim" fill="#404040">
                                <set attributeName="fill" to="#808080" begin="zoomminus.mouseover" end="zoomminus.mouseout"/>
                        </use>
                        <path d="M-4,0h8" fill="none" stroke="white" stroke-width="1.5" pointer-events="none"/>
                </g>
                <g id="dirArrow">
                        <path fill="none" stroke="white" stroke-width="1.5" d="M0,-3.0v7 M-2.5,-0.5L0,-3.0L2.5,-0.5"/>
                </g>
               <g id="resetDef">
                       <use xlink:href="#rim2" fill="#404040">
                               <set attributeName="fill" to="#808080" begin="reset.mouseover" end="reset.mouseout"/>
                       </use>
               </g>
        </defs>

<script type="text/javascript">
var viewWidth = 1410;
var viewHeight = 463;
var sectionId = 'dynsection-1';
</script>
<script xlink:href="svgpan.js"/>
<svg id="graph" class="graph">
<g id="viewport">
<title>Ability_Dash</title>
<polygon fill="white" stroke="transparent" points="-4,4 -4,-459 1406,-459 1406,4 -4,4"/>
<!-- Node1 -->
<g id="node1" class="node">
<title>Node1</title>
<g id="a_node1"><a xlink:title=" ">
<polygon fill="#bfbfbf" stroke="black" points="1162.5,-296.5 1162.5,-315.5 1233.5,-315.5 1233.5,-296.5 1162.5,-296.5"/>
<text text-anchor="middle" x="1198" y="-303.5" font-family="Helvetica,sans-Serif" font-size="10.00">Ability_Dash</text>
</a>
</g>
</g>
<!-- Node2 -->
<g id="node2" class="node">
<title>Node2</title>
<g id="a_node2"><a xlink:href="class_indicated_ability.xhtml" target="_top" xlink:title="Encapsulador de les Ability que han de mostrar l&#39;indicador">
<polygon fill="white" stroke="black" points="398,-118.5 398,-137.5 481,-137.5 481,-118.5 398,-118.5"/>
<text text-anchor="middle" x="439.5" y="-125.5" font-family="Helvetica,sans-Serif" font-size="10.00">IndicatedAbility</text>
</a>
</g>
</g>
<!-- Node2&#45;&gt;Node1 -->
<g id="edge1" class="edge">
<title>Node2&#45;&gt;Node1</title>
<path fill="none" stroke="midnightblue" d="M475.83,-141.11C570.07,-175.34 835.89,-267.18 1066,-302 1098.4,-306.9 1135.8,-307.56 1162.32,-307.19"/>
<polygon fill="midnightblue" stroke="midnightblue" points="476.82,-137.74 466.23,-137.6 474.42,-144.32 476.82,-137.74"/>
</g>
<!-- Node14 -->
<g id="node14" class="node">
<title>Node14</title>
<g id="a_node14"><a xlink:href="class_ability_indicator.xhtml" target="_top" xlink:title=" ">
<polygon fill="white" stroke="black" points="576,-125.5 576,-144.5 656,-144.5 656,-125.5 576,-125.5"/>
<text text-anchor="middle" x="616" y="-132.5" font-family="Helvetica,sans-Serif" font-size="10.00">AbilityIndicator</text>
</a>
</g>
</g>
<!-- Node2&#45;&gt;Node14 -->
<g id="edge22" class="edge">
<title>Node2&#45;&gt;Node14</title>
<path fill="none" stroke="#9a32cd" stroke-dasharray="5,2" d="M491.22,-127.36C511.94,-127.38 536.13,-127.76 558,-129 563.76,-129.33 569.84,-129.81 575.79,-130.37"/>
<polygon fill="#9a32cd" stroke="#9a32cd" points="491.04,-123.86 481.04,-127.38 491.05,-130.86 491.04,-123.86"/>
<text text-anchor="middle" x="528.5" y="-132" font-family="Helvetica,sans-Serif" font-size="10.00"> current</text>
</g>
<!-- Node3 -->
<g id="node3" class="node">
<title>Node3</title>
<g id="a_node3"><a xlink:href="class_ability.xhtml" target="_top" xlink:title=" ">
<polygon fill="white" stroke="black" points="281,-76.5 281,-95.5 325,-95.5 325,-76.5 281,-76.5"/>
<text text-anchor="middle" x="303" y="-83.5" font-family="Helvetica,sans-Serif" font-size="10.00">Ability</text>
</a>
</g>
</g>
<!-- Node3&#45;&gt;Node2 -->
<g id="edge2" class="edge">
<title>Node3&#45;&gt;Node2</title>
<path fill="none" stroke="midnightblue" d="M335.01,-97.32C337.71,-98.25 340.4,-99.15 343,-100 363.04,-106.53 385.67,-113.19 403.87,-118.38"/>
<polygon fill="midnightblue" stroke="midnightblue" points="335.97,-93.95 325.38,-93.93 333.65,-100.55 335.97,-93.95"/>
</g>
<!-- Node13 -->
<g id="node13" class="node">
<title>Node13</title>
<g id="a_node13"><a xlink:href="class_ability_cooldown.xhtml" target="_top" xlink:title=" ">
<polygon fill="white" stroke="black" points="766,-135.5 766,-154.5 852,-154.5 852,-135.5 766,-135.5"/>
<text text-anchor="middle" x="809" y="-142.5" font-family="Helvetica,sans-Serif" font-size="10.00">AbilityCooldown</text>
</a>
</g>
</g>
<!-- Node3&#45;&gt;Node13 -->
<g id="edge18" class="edge">
<title>Node3&#45;&gt;Node13</title>
<path fill="none" stroke="#9a32cd" stroke-dasharray="5,2" d="M335.52,-84.61C408.06,-82.18 591.94,-80.41 740,-116 757.72,-120.26 776.7,-128.72 790.1,-135.4"/>
<polygon fill="#9a32cd" stroke="#9a32cd" points="335.12,-81.12 325.25,-84.99 335.37,-88.12 335.12,-81.12"/>
<text text-anchor="middle" x="528.5" y="-91" font-family="Helvetica,sans-Serif" font-size="10.00"> ability</text>
</g>
<!-- Node15 -->
<g id="node15" class="node">
<title>Node15</title>
<g id="a_node15"><a xlink:href="class_character.xhtml" target="_top" xlink:title=" ">
<polygon fill="white" stroke="black" points="499,-19.5 499,-38.5 558,-38.5 558,-19.5 499,-19.5"/>
<text text-anchor="middle" x="528.5" y="-26.5" font-family="Helvetica,sans-Serif" font-size="10.00">Character</text>
</a>
</g>
</g>
<!-- Node3&#45;&gt;Node15 -->
<g id="edge26" class="edge">
<title>Node3&#45;&gt;Node15</title>
<path fill="none" stroke="#9a32cd" stroke-dasharray="5,2" d="M324.63,-70.62C330.34,-66.98 336.7,-63.45 343,-61 395.57,-40.56 461.63,-33.13 498.74,-30.46"/>
<polygon fill="#9a32cd" stroke="#9a32cd" points="322.6,-67.78 316.3,-76.3 326.54,-73.56 322.6,-67.78"/>
<text text-anchor="middle" x="361.5" y="-64" font-family="Helvetica,sans-Serif" font-size="10.00"> abilities</text>
</g>
<!-- Node4 -->
<g id="node4" class="node">
<title>Node4</title>
<g id="a_node4"><a xlink:title=" ">
<polygon fill="white" stroke="#bfbfbf" points="0,-38.5 0,-57.5 89,-57.5 89,-38.5 0,-38.5"/>
<text text-anchor="middle" x="44.5" y="-45.5" font-family="Helvetica,sans-Serif" font-size="10.00">ScriptableObject</text>
</a>
</g>
</g>
<!-- Node4&#45;&gt;Node3 -->
<g id="edge3" class="edge">
<title>Node4&#45;&gt;Node3</title>
<path fill="none" stroke="midnightblue" d="M91.76,-59.96C102.91,-62.55 114.84,-65.09 126,-67 181.43,-76.5 247.55,-82.12 280.75,-84.56"/>
<polygon fill="midnightblue" stroke="midnightblue" points="92.31,-56.49 81.77,-57.57 90.68,-63.3 92.31,-56.49"/>
</g>
<!-- Node5 -->
<g id="node5" class="node">
<title>Node5</title>
<g id="a_node5"><a xlink:href="class_effect.xhtml" target="_top" xlink:title=" ">
<polygon fill="white" stroke="black" points="126,-38.5 126,-57.5 167,-57.5 167,-38.5 126,-38.5"/>
<text text-anchor="middle" x="146.5" y="-45.5" font-family="Helvetica,sans-Serif" font-size="10.00">Effect</text>
</a>
</g>
</g>
<!-- Node4&#45;&gt;Node5 -->
<g id="edge5" class="edge">
<title>Node4&#45;&gt;Node5</title>
<path fill="none" stroke="midnightblue" d="M99.36,-48C108.84,-48 118.13,-48 125.86,-48"/>
<polygon fill="midnightblue" stroke="midnightblue" points="99.07,-44.5 89.07,-48 99.07,-51.5 99.07,-44.5"/>
</g>
<!-- Node4&#45;&gt;Node15 -->
<g id="edge25" class="edge">
<title>Node4&#45;&gt;Node15</title>
<path fill="none" stroke="midnightblue" d="M69.28,-33.38C88.96,-22.67 118.05,-10 145.5,-10 145.5,-10 145.5,-10 362.5,-10 410.65,-10 466.2,-18.09 499,-23.71"/>
<polygon fill="midnightblue" stroke="midnightblue" points="67.38,-30.43 60.42,-38.41 70.84,-36.51 67.38,-30.43"/>
</g>
<!-- Node5&#45;&gt;Node3 -->
<g id="edge4" class="edge">
<title>Node5&#45;&gt;Node3</title>
<path fill="none" stroke="#9a32cd" stroke-dasharray="5,2" d="M177.07,-42.87C201.11,-40.01 235.43,-38.95 263,-50 276.34,-55.35 287.91,-67.55 294.9,-76.26"/>
<polygon fill="#9a32cd" stroke="#9a32cd" points="176.57,-39.41 167.13,-44.23 177.51,-46.35 176.57,-39.41"/>
<text text-anchor="middle" x="224" y="-64" font-family="Helvetica,sans-Serif" font-size="10.00"> aToAuthorEffects</text>
<text text-anchor="middle" x="224" y="-53" font-family="Helvetica,sans-Serif" font-size="10.00">aToEnemyEffects</text>
</g>
<!-- Node6 -->
<g id="node6" class="node">
<title>Node6</title>
<g id="a_node6"><a xlink:href="class_player_stats.xhtml" target="_top" xlink:title="Player Stats is the main class that controls all the Player Statistics in all time in the game execut...">
<polygon fill="white" stroke="black" points="976,-247.5 976,-266.5 1044,-266.5 1044,-247.5 976,-247.5"/>
<text text-anchor="middle" x="1010" y="-254.5" font-family="Helvetica,sans-Serif" font-size="10.00">PlayerStats</text>
</a>
</g>
</g>
<!-- Node6&#45;&gt;Node1 -->
<g id="edge6" class="edge">
<title>Node6&#45;&gt;Node1</title>
<path fill="none" stroke="#9a32cd" stroke-dasharray="5,2" d="M1054.07,-268.35C1087.01,-277.03 1131.84,-288.84 1162.46,-296.9"/>
<polygon fill="#9a32cd" stroke="#9a32cd" points="1054.81,-264.92 1044.25,-265.76 1053.03,-271.69 1054.81,-264.92"/>
<text text-anchor="middle" x="1101.5" y="-293" font-family="Helvetica,sans-Serif" font-size="10.00"> stats</text>
</g>
<!-- Node12 -->
<g id="node12" class="node">
<title>Node12</title>
<g id="a_node12"><a xlink:href="class_player_controller.xhtml" target="_top" xlink:title="Player Controller is the main class that handles all the movement of the Player.">
<polygon fill="white" stroke="black" points="1155,-158.5 1155,-177.5 1241,-177.5 1241,-158.5 1155,-158.5"/>
<text text-anchor="middle" x="1198" y="-165.5" font-family="Helvetica,sans-Serif" font-size="10.00">PlayerController</text>
</a>
</g>
</g>
<!-- Node6&#45;&gt;Node12 -->
<g id="edge27" class="edge">
<title>Node6&#45;&gt;Node12</title>
<path fill="none" stroke="#9a32cd" stroke-dasharray="5,2" d="M1025.66,-239.67C1040.19,-222.67 1060.99,-198.9 1066,-196 1080.9,-187.39 1122.36,-179.38 1154.68,-174.15"/>
<polygon fill="#9a32cd" stroke="#9a32cd" points="1022.95,-237.46 1019.13,-247.34 1028.28,-242 1022.95,-237.46"/>
<text text-anchor="middle" x="1101.5" y="-199" font-family="Helvetica,sans-Serif" font-size="10.00"> stats</text>
</g>
<!-- Node6&#45;&gt;Node13 -->
<g id="edge23" class="edge">
<title>Node6&#45;&gt;Node13</title>
<path fill="none" stroke="#9a32cd" stroke-dasharray="5,2" d="M1002.2,-238.06C994,-218.05 978.2,-187.21 954,-171 937.7,-160.08 888.62,-152.87 852.27,-148.87"/>
<polygon fill="#9a32cd" stroke="#9a32cd" points="998.94,-239.33 1005.81,-247.4 1005.47,-236.81 998.94,-239.33"/>
<text text-anchor="middle" x="916" y="-174" font-family="Helvetica,sans-Serif" font-size="10.00"> playerStats</text>
</g>
<!-- Node16 -->
<g id="node16" class="node">
<title>Node16</title>
<g id="a_node16"><a xlink:href="class_basic_attack.xhtml" target="_top" xlink:title=" ">
<polygon fill="white" stroke="black" points="1332,-243.5 1332,-262.5 1402,-262.5 1402,-243.5 1332,-243.5"/>
<text text-anchor="middle" x="1367" y="-250.5" font-family="Helvetica,sans-Serif" font-size="10.00">BasicAttack</text>
</a>
</g>
</g>
<!-- Node6&#45;&gt;Node16 -->
<g id="edge33" class="edge">
<title>Node6&#45;&gt;Node16</title>
<path fill="none" stroke="#9a32cd" stroke-dasharray="5,2" d="M1054.09,-256.51C1125.47,-255.71 1266.83,-254.12 1331.84,-253.38"/>
<polygon fill="#9a32cd" stroke="#9a32cd" points="1054.04,-253.01 1044.08,-256.63 1054.12,-260.01 1054.04,-253.01"/>
<text text-anchor="middle" x="1198" y="-258" font-family="Helvetica,sans-Serif" font-size="10.00"> stats</text>
</g>
<!-- Node7 -->
<g id="node7" class="node">
<title>Node7</title>
<g id="a_node7"><a xlink:href="class_ability_affected_stats.xhtml" target="_top" xlink:title="Base class Stats of the entity who is affected by Abilities.">
<polygon fill="white" stroke="black" points="758,-330.5 758,-349.5 860,-349.5 860,-330.5 758,-330.5"/>
<text text-anchor="middle" x="809" y="-337.5" font-family="Helvetica,sans-Serif" font-size="10.00">AbilityAffectedStats</text>
</a>
</g>
</g>
<!-- Node7&#45;&gt;Node6 -->
<g id="edge7" class="edge">
<title>Node7&#45;&gt;Node6</title>
<path fill="none" stroke="midnightblue" d="M870.27,-338.06C897.19,-335.11 928.52,-328.66 954,-315 975.77,-303.33 993.86,-279.85 1002.86,-266.62"/>
<polygon fill="midnightblue" stroke="midnightblue" points="869.81,-334.59 860.19,-339.03 870.48,-341.56 869.81,-334.59"/>
</g>
<!-- Node8 -->
<g id="node8" class="node">
<title>Node8</title>
<g id="a_node8"><a xlink:href="class_stats.xhtml" target="_top" xlink:title="Base class Stats of the entity.">
<polygon fill="white" stroke="black" points="596,-330.5 596,-349.5 636,-349.5 636,-330.5 596,-330.5"/>
<text text-anchor="middle" x="616" y="-337.5" font-family="Helvetica,sans-Serif" font-size="10.00">Stats</text>
</a>
</g>
</g>
<!-- Node8&#45;&gt;Node7 -->
<g id="edge8" class="edge">
<title>Node8&#45;&gt;Node7</title>
<path fill="none" stroke="midnightblue" d="M646.1,-340C675.7,-340 722.15,-340 757.72,-340"/>
<polygon fill="midnightblue" stroke="midnightblue" points="646.01,-336.5 636.01,-340 646.01,-343.5 646.01,-336.5"/>
</g>
<!-- Node8&#45;&gt;Node16 -->
<g id="edge31" class="edge">
<title>Node8&#45;&gt;Node16</title>
<path fill="none" stroke="#9a32cd" stroke-dasharray="5,2" d="M645.59,-352.74C694.61,-374.38 791.1,-416 808,-416 808,-416 808,-416 1199,-416 1287.32,-416 1346.32,-297.8 1361.89,-262.71"/>
<polygon fill="#9a32cd" stroke="#9a32cd" points="646.73,-349.42 636.17,-348.57 643.9,-355.82 646.73,-349.42"/>
<text text-anchor="middle" x="1010" y="-419" font-family="Helvetica,sans-Serif" font-size="10.00"> otherStats</text>
</g>
<!-- Node9 -->
<g id="node9" class="node">
<title>Node9</title>
<g id="a_node9"><a xlink:title=" ">
<polygon fill="white" stroke="#bfbfbf" points="398,-291.5 398,-310.5 481,-310.5 481,-291.5 398,-291.5"/>
<text text-anchor="middle" x="439.5" y="-298.5" font-family="Helvetica,sans-Serif" font-size="10.00">MonoBehaviour</text>
</a>
</g>
</g>
<!-- Node9&#45;&gt;Node8 -->
<g id="edge9" class="edge">
<title>Node9&#45;&gt;Node8</title>
<path fill="none" stroke="midnightblue" d="M489.78,-312.88C492.9,-313.6 495.99,-314.32 499,-315 532.95,-322.72 572.63,-331.14 595.68,-335.98"/>
<polygon fill="midnightblue" stroke="midnightblue" points="490.34,-309.41 479.81,-310.54 488.74,-316.23 490.34,-309.41"/>
</g>
<!-- Node11 -->
<g id="node11" class="node">
<title>Node11</title>
<g id="a_node11"><a xlink:href="class_u_i_controller.xhtml" target="_top" xlink:title=" ">
<polygon fill="white" stroke="black" points="582.5,-368.5 582.5,-387.5 649.5,-387.5 649.5,-368.5 582.5,-368.5"/>
<text text-anchor="middle" x="616" y="-375.5" font-family="Helvetica,sans-Serif" font-size="10.00">UIController</text>
</a>
</g>
</g>
<!-- Node9&#45;&gt;Node11 -->
<g id="edge12" class="edge">
<title>Node9&#45;&gt;Node11</title>
<path fill="none" stroke="midnightblue" d="M464.09,-315.95C474.56,-322.26 487.17,-329.42 499,-335 527.36,-348.38 561.1,-360.48 584.86,-368.41"/>
<polygon fill="midnightblue" stroke="midnightblue" points="465.86,-312.93 455.51,-310.69 462.2,-318.9 465.86,-312.93"/>
</g>
<!-- Node9&#45;&gt;Node12 -->
<g id="edge14" class="edge">
<title>Node9&#45;&gt;Node12</title>
<path fill="none" stroke="midnightblue" d="M490.99,-296.46C583.84,-287.35 787.44,-263.88 954,-220 1005.41,-206.46 1014.09,-189.47 1066,-178 1095.29,-171.53 1129.05,-169.07 1154.97,-168.2"/>
<polygon fill="midnightblue" stroke="midnightblue" points="490.64,-292.98 481.02,-297.42 491.31,-299.94 490.64,-292.98"/>
</g>
<!-- Node9&#45;&gt;Node13 -->
<g id="edge16" class="edge">
<title>Node9&#45;&gt;Node13</title>
<path fill="none" stroke="midnightblue" d="M453.59,-283.44C464.4,-270.05 480.89,-252.1 499,-241 585.46,-188.03 703.61,-162.03 765.78,-151.3"/>
<polygon fill="midnightblue" stroke="midnightblue" points="450.72,-281.41 447.33,-291.45 456.24,-285.72 450.72,-281.41"/>
</g>
<!-- Node9&#45;&gt;Node14 -->
<g id="edge20" class="edge">
<title>Node9&#45;&gt;Node14</title>
<path fill="none" stroke="midnightblue" d="M443.76,-281.15C449.59,-252.05 464.58,-197.99 499,-168 520.23,-149.5 551.17,-141.33 575.76,-137.74"/>
<polygon fill="midnightblue" stroke="midnightblue" points="440.26,-280.85 441.9,-291.31 447.14,-282.11 440.26,-280.85"/>
</g>
<!-- Node9&#45;&gt;Node16 -->
<g id="edge29" class="edge">
<title>Node9&#45;&gt;Node16</title>
<path fill="none" stroke="midnightblue" d="M450.14,-319.59C472.85,-360.56 534,-455 615,-455 615,-455 615,-455 1199,-455 1210.41,-455 1295.42,-408.04 1314,-386 1346.44,-347.52 1360.13,-286.44 1364.41,-262.79"/>
<polygon fill="midnightblue" stroke="midnightblue" points="453.13,-317.78 445.31,-310.63 446.97,-321.1 453.13,-317.78"/>
</g>
<!-- Node17 -->
<g id="node17" class="node">
<title>Node17</title>
<g id="a_node17"><a xlink:href="class_inventory.xhtml" target="_top" xlink:title=" ">
<polygon fill="white" stroke="black" points="679.5,-291.5 679.5,-310.5 734.5,-310.5 734.5,-291.5 679.5,-291.5"/>
<text text-anchor="middle" x="707" y="-298.5" font-family="Helvetica,sans-Serif" font-size="10.00">Inventory</text>
</a>
</g>
</g>
<!-- Node9&#45;&gt;Node17 -->
<g id="edge36" class="edge">
<title>Node9&#45;&gt;Node17</title>
<path fill="none" stroke="midnightblue" d="M491.17,-301C547.15,-301 635.17,-301 679.13,-301"/>
<polygon fill="midnightblue" stroke="midnightblue" points="491.11,-297.5 481.11,-301 491.11,-304.5 491.11,-297.5"/>
</g>
<!-- Node10 -->
<g id="node10" class="node">
<title>Node10</title>
<g id="a_node10"><a xlink:href="class_player_u_i_controller.xhtml" target="_top" xlink:title="UI Controller for the Player Stats">
<polygon fill="white" stroke="black" points="761.5,-368.5 761.5,-387.5 856.5,-387.5 856.5,-368.5 761.5,-368.5"/>
<text text-anchor="middle" x="809" y="-375.5" font-family="Helvetica,sans-Serif" font-size="10.00">PlayerUIController</text>
</a>
</g>
</g>
<!-- Node10&#45;&gt;Node6 -->
<g id="edge10" class="edge">
<title>Node10&#45;&gt;Node6</title>
<path fill="none" stroke="#9a32cd" stroke-dasharray="5,2" d="M866.91,-372.61C895.19,-367.66 928.64,-358.18 954,-340 980.84,-320.77 998.24,-284.03 1005.35,-266.62"/>
<polygon fill="#9a32cd" stroke="#9a32cd" points="866.07,-369.2 856.75,-374.23 867.18,-376.11 866.07,-369.2"/>
<text text-anchor="middle" x="916" y="-373" font-family="Helvetica,sans-Serif" font-size="10.00"> uiControl</text>
</g>
<!-- Node11&#45;&gt;Node10 -->
<g id="edge11" class="edge">
<title>Node11&#45;&gt;Node10</title>
<path fill="none" stroke="midnightblue" d="M660.04,-378C690.17,-378 730.4,-378 761.31,-378"/>
<polygon fill="midnightblue" stroke="midnightblue" points="659.83,-374.5 649.83,-378 659.83,-381.5 659.83,-374.5"/>
</g>
<!-- Node12&#45;&gt;Node6 -->
<g id="edge13" class="edge">
<title>Node12&#45;&gt;Node6</title>
<path fill="none" stroke="#9a32cd" stroke-dasharray="5,2" d="M1176.98,-183.83C1165.72,-192.16 1151.12,-202.07 1137,-209 1107.22,-223.62 1096.93,-220.01 1066,-232 1054.07,-236.63 1041.02,-242.52 1030.63,-247.42"/>
<polygon fill="#9a32cd" stroke="#9a32cd" points="1179.38,-186.4 1185.22,-177.56 1175.14,-180.83 1179.38,-186.4"/>
<text text-anchor="middle" x="1101.5" y="-235" font-family="Helvetica,sans-Serif" font-size="10.00"> playerController</text>
</g>
<!-- Node12&#45;&gt;Node13 -->
<g id="edge17" class="edge">
<title>Node12&#45;&gt;Node13</title>
<path fill="none" stroke="#9a32cd" stroke-dasharray="5,2" d="M1154.12,-156.07C1148.4,-154.83 1142.59,-153.76 1137,-153 1035.43,-139.23 914.52,-140.9 852.05,-143.08"/>
<polygon fill="#9a32cd" stroke="#9a32cd" points="1153.71,-159.57 1164.24,-158.43 1155.3,-152.75 1153.71,-159.57"/>
<text text-anchor="middle" x="1010" y="-147" font-family="Helvetica,sans-Serif" font-size="10.00"> playerController</text>
</g>
<!-- Node12&#45;&gt;Node16 -->
<g id="edge30" class="edge">
<title>Node12&#45;&gt;Node16</title>
<path fill="none" stroke="#9a32cd" stroke-dasharray="5,2" d="M1223.94,-182.65C1234.64,-188.81 1247.34,-195.93 1259,-202 1288.38,-217.3 1323.13,-233.53 1344.87,-243.47"/>
<polygon fill="#9a32cd" stroke="#9a32cd" points="1225.53,-179.53 1215.13,-177.55 1222.03,-185.59 1225.53,-179.53"/>
<text text-anchor="middle" x="1286.5" y="-230" font-family="Helvetica,sans-Serif" font-size="10.00"> controller</text>
</g>
<!-- Node13&#45;&gt;Node6 -->
<g id="edge34" class="edge">
<title>Node13&#45;&gt;Node6</title>
<path fill="none" stroke="#9a32cd" stroke-dasharray="5,2" d="M834.11,-159.69C846.85,-167.04 862.93,-175.7 878,-182 910.56,-195.62 923.47,-187.29 954,-205 973.32,-216.21 991.24,-235.46 1001.09,-247.13"/>
<polygon fill="#9a32cd" stroke="#9a32cd" points="835.88,-156.67 825.49,-154.62 832.33,-162.7 835.88,-156.67"/>
<text text-anchor="middle" x="916" y="-208" font-family="Helvetica,sans-Serif" font-size="10.00"> abilityCooldowns</text>
</g>
<!-- Node13&#45;&gt;Node12 -->
<g id="edge15" class="edge">
<title>Node13&#45;&gt;Node12</title>
<path fill="none" stroke="#9a32cd" stroke-dasharray="5,2" d="M846.35,-132.25C856.52,-128.95 867.62,-125.61 878,-123 951.65,-104.52 972.49,-98.03 1048,-106 1088.22,-110.25 1100,-108.65 1137,-125 1155.99,-133.39 1174.97,-148.38 1186.35,-158.26"/>
<polygon fill="#9a32cd" stroke="#9a32cd" points="844.96,-129.02 836.57,-135.49 847.16,-135.67 844.96,-129.02"/>
<text text-anchor="middle" x="1010" y="-109" font-family="Helvetica,sans-Serif" font-size="10.00"> abilityCooldowns</text>
</g>
<!-- Node13&#45;&gt;Node14 -->
<g id="edge21" class="edge">
<title>Node13&#45;&gt;Node14</title>
<path fill="none" stroke="#9a32cd" stroke-dasharray="5,2" d="M774.94,-132.01C763.99,-128.34 751.64,-124.84 740,-123 711.02,-118.43 703.18,-119.96 674,-123 668.17,-123.61 662.05,-124.56 656.08,-125.66"/>
<polygon fill="#9a32cd" stroke="#9a32cd" points="773.93,-135.37 784.53,-135.4 776.26,-128.77 773.93,-135.37"/>
<text text-anchor="middle" x="707" y="-126" font-family="Helvetica,sans-Serif" font-size="10.00"> currentCD</text>
</g>
<!-- Node14&#45;&gt;Node13 -->
<g id="edge19" class="edge">
<title>Node14&#45;&gt;Node13</title>
<path fill="none" stroke="#9a32cd" stroke-dasharray="5,2" d="M666.24,-137.58C697.13,-139.2 736.54,-141.26 765.96,-142.8"/>
<polygon fill="#9a32cd" stroke="#9a32cd" points="666.28,-134.08 656.11,-137.05 665.92,-141.07 666.28,-134.08"/>
<text text-anchor="middle" x="707" y="-144" font-family="Helvetica,sans-Serif" font-size="10.00"> abilityIndicator</text>
</g>
<!-- Node15&#45;&gt;Node12 -->
<g id="edge24" class="edge">
<title>Node15&#45;&gt;Node12</title>
<path fill="none" stroke="#9a32cd" stroke-dasharray="5,2" d="M568.15,-34.88C603.84,-39.79 658.37,-46 706,-46 706,-46 706,-46 1011,-46 1072.46,-46 1087.16,-67.03 1137,-103 1159.42,-119.18 1179.97,-144.74 1190.2,-158.49"/>
<polygon fill="#9a32cd" stroke="#9a32cd" points="568.55,-31.4 558.16,-33.47 567.57,-38.33 568.55,-31.4"/>
<text text-anchor="middle" x="809" y="-60" font-family="Helvetica,sans-Serif" font-size="10.00"> character</text>
<text text-anchor="middle" x="809" y="-49" font-family="Helvetica,sans-Serif" font-size="10.00">characters</text>
</g>
<!-- Node15&#45;&gt;Node16 -->
<g id="edge32" class="edge">
<title>Node15&#45;&gt;Node16</title>
<path fill="none" stroke="#9a32cd" stroke-dasharray="5,2" d="M567.95,-18.98C603.51,-10.59 657.95,0 706,0 706,0 706,0 1199,0 1317.94,0 1357.03,-197.18 1364.56,-243.39"/>
<polygon fill="#9a32cd" stroke="#9a32cd" points="566.9,-15.63 558,-21.38 568.54,-22.43 566.9,-15.63"/>
<text text-anchor="middle" x="916" y="-3" font-family="Helvetica,sans-Serif" font-size="10.00"> character</text>
</g>
<!-- Node16&#45;&gt;Node12 -->
<g id="edge28" class="edge">
<title>Node16&#45;&gt;Node12</title>
<path fill="none" stroke="#9a32cd" stroke-dasharray="5,2" d="M1355.27,-234.36C1346.13,-220.22 1331.67,-201.48 1314,-191 1292.02,-177.97 1263.95,-172.19 1241.05,-169.68"/>
<polygon fill="#9a32cd" stroke="#9a32cd" points="1352.51,-236.57 1360.72,-243.26 1358.48,-232.91 1352.51,-236.57"/>
<text text-anchor="middle" x="1286.5" y="-194" font-family="Helvetica,sans-Serif" font-size="10.00"> basicAttack</text>
</g>
<!-- Node17&#45;&gt;Node6 -->
<g id="edge35" class="edge">
<title>Node17&#45;&gt;Node6</title>
<path fill="none" stroke="#9a32cd" stroke-dasharray="5,2" d="M744.64,-297.22C792.84,-292.03 880.08,-281.85 954,-269 961.13,-267.76 968.73,-266.24 975.93,-264.69"/>
<polygon fill="#9a32cd" stroke="#9a32cd" points="744.26,-293.74 734.69,-298.28 745,-300.7 744.26,-293.74"/>
<text text-anchor="middle" x="809" y="-298" font-family="Helvetica,sans-Serif" font-size="10.00"> inventory</text>
</g>
</g>
</svg>
        <g id="navigator" transform="translate(0 0)" fill="#404254">
                <rect fill="#f2f5e9" fill-opacity="0.5" stroke="#606060" stroke-width=".5" x="0" y="0" width="60" height="60"/>
                <use id="zoomplus" xlink:href="#zoomPlus" x="17" y="9" onmousedown="handleZoom(evt,'in')"/>
                <use id="zoomminus" xlink:href="#zoomMin" x="42" y="9" onmousedown="handleZoom(evt,'out')"/>
                <use id="reset" xlink:href="#resetDef" x="30" y="36" onmousedown="handleReset()"/>
                <g id="arrowUp" xlink:href="#dirArrow" transform="translate(30 24)" onmousedown="handlePan(0,-1)">
                  <use xlink:href="#rim" fill="#404040">
                        <set attributeName="fill" to="#808080" begin="arrowUp.mouseover" end="arrowUp.mouseout"/>
                  </use>
                  <path fill="none" stroke="white" stroke-width="1.5" d="M0,-3.0v7 M-2.5,-0.5L0,-3.0L2.5,-0.5"/>
                </g>
                <g id="arrowRight" xlink:href="#dirArrow" transform="rotate(90) translate(36 -43)" onmousedown="handlePan(1,0)">
                  <use xlink:href="#rim" fill="#404040">
                        <set attributeName="fill" to="#808080" begin="arrowRight.mouseover" end="arrowRight.mouseout"/>
                  </use>
                  <path fill="none" stroke="white" stroke-width="1.5" d="M0,-3.0v7 M-2.5,-0.5L0,-3.0L2.5,-0.5"/>
                </g>
                <g id="arrowDown" xlink:href="#dirArrow" transform="rotate(180) translate(-30 -48)" onmousedown="handlePan(0,1)">
                  <use xlink:href="#rim" fill="#404040">
                        <set attributeName="fill" to="#808080" begin="arrowDown.mouseover" end="arrowDown.mouseout"/>
                  </use>
                  <path fill="none" stroke="white" stroke-width="1.5" d="M0,-3.0v7 M-2.5,-0.5L0,-3.0L2.5,-0.5"/>
                </g>
                <g id="arrowLeft" xlink:href="#dirArrow" transform="rotate(270) translate(-36 17)" onmousedown="handlePan(-1,0)">
                  <use xlink:href="#rim" fill="#404040">
                        <set attributeName="fill" to="#808080" begin="arrowLeft.mouseover" end="arrowLeft.mouseout"/>
                  </use>
                  <path fill="none" stroke="white" stroke-width="1.5" d="M0,-3.0v7 M-2.5,-0.5L0,-3.0L2.5,-0.5"/>
                </g>
        </g>
        <svg viewBox="0 0 15 15" width="100%" height="30px" preserveAspectRatio="xMaxYMin meet">
         <g id="arrow_out" transform="scale(0.3 0.3)">
          <a xlink:href="class_ability___dash__coll__graph_org.svg" target="_base">
           <rect id="button" ry="5" rx="5" y="6" x="6" height="38" width="38"
                fill="#f2f5e9" fill-opacity="0.5" stroke="#606060" stroke-width="1.0"/>
           <path id="arrow"
             d="M 11.500037,31.436501 C 11.940474,20.09759 22.043105,11.32322 32.158766,21.979434 L 37.068811,17.246167 C 37.068811,17.246167 37.088388,32 37.088388,32 L 22.160133,31.978069 C 22.160133,31.978069 26.997745,27.140456 26.997745,27.140456 C 18.528582,18.264221 13.291696,25.230495 11.500037,31.436501 z"
             style="fill:#404040;"/>
          </a>
         </g>
        </svg>
</svg>
