<?xml version="1.0" encoding="UTF-8" standalone="no"?>
<!DOCTYPE svg PUBLIC "-//W3C//DTD SVG 1.1//EN"
 "http://www.w3.org/Graphics/SVG/1.1/DTD/svg11.dtd">
<!-- Generated by graphviz version 2.50.0 (20211204.2007)
 -->
<!-- Title: C:/Users/Usuario/Desktop/Unity Projects/TFG/Assets/Scripts Pages: 1 -->
<svg width="1114pt" height="111pt"
 viewBox="0.00 0.00 1114.00 111.00" xmlns="http://www.w3.org/2000/svg" xmlns:xlink="http://www.w3.org/1999/xlink">
<g id="graph0" class="graph" transform="scale(1 1) rotate(0) translate(4 107)">
<title>C:/Users/Usuario/Desktop/Unity Projects/TFG/Assets/Scripts</title>
<polygon fill="white" stroke="transparent" points="-4,4 -4,-107 1110,-107 1110,4 -4,4"/>
<g id="clust1" class="cluster">
<title>clusterdir_84bbf7b3c7f28a5a18725745e1505219</title>
<g id="a_clust1"><a xlink:href="dir_84bbf7b3c7f28a5a18725745e1505219.html" target="_top" xlink:title="Assets">
<polygon fill="#edf0f7" stroke="#404040" stroke-dasharray="5,2" points="8,-8 8,-95 1098,-95 1098,-8 8,-8"/>
<text text-anchor="middle" x="553" y="-83" font-family="Helvetica,sans-Serif" font-size="10.00">Assets</text>
</a>
</g>
</g>
<g id="clust2" class="cluster">
<title>clusterdir_f13b41af88cf68434578284aaf699e39</title>
<g id="a_clust2"><a xlink:href="dir_f13b41af88cf68434578284aaf699e39.html" target="_top">
<polygon fill="#edf0f7" stroke="#404040" stroke-width="2" points="16,-16 16,-68 1090,-68 1090,-16 16,-16"/>
</a>
</g>
</g>
<!-- dir_f13b41af88cf68434578284aaf699e39 -->
<g id="node1" class="node">
<title>dir_f13b41af88cf68434578284aaf699e39</title>
<text text-anchor="middle" x="1055" y="-39.5" font-family="Helvetica,sans-Serif" font-size="10.00">Scripts</text>
</g>
<!-- dir_ebe48340aecbad4981a51369f14ec615 -->
<g id="node2" class="node">
<title>dir_ebe48340aecbad4981a51369f14ec615</title>
<g id="a_node2"><a xlink:href="dir_ebe48340aecbad4981a51369f14ec615.html" target="_top" xlink:title="Abilities">
<polygon fill="#a2b4d6" stroke="#404040" points="1010,-60 956,-60 956,-24 1010,-24 1010,-60"/>
<text text-anchor="middle" x="983" y="-39.5" font-family="Helvetica,sans-Serif" font-size="10.00">Abilities</text>
</a>
</g>
</g>
<!-- dir_31eb0429c53f72c1252e8dc0de2d74c7 -->
<g id="node3" class="node">
<title>dir_31eb0429c53f72c1252e8dc0de2d74c7</title>
<g id="a_node3"><a xlink:href="dir_31eb0429c53f72c1252e8dc0de2d74c7.html" target="_top" xlink:title="Connection">
<polygon fill="#a2b4d6" stroke="#404040" points="937.5,-60 872.5,-60 872.5,-24 937.5,-24 937.5,-60"/>
<text text-anchor="middle" x="905" y="-39.5" font-family="Helvetica,sans-Serif" font-size="10.00">Connection</text>
</a>
</g>
</g>
<!-- dir_b0419ff4421d5d52aa1529dceb4005d6 -->
<g id="node4" class="node">
<title>dir_b0419ff4421d5d52aa1529dceb4005d6</title>
<g id="a_node4"><a xlink:href="dir_b0419ff4421d5d52aa1529dceb4005d6.html" target="_top" xlink:title="Discord">
<polygon fill="#a2b4d6" stroke="#404040" points="854,-60 800,-60 800,-24 854,-24 854,-60"/>
<text text-anchor="middle" x="827" y="-39.5" font-family="Helvetica,sans-Serif" font-size="10.00">Discord</text>
</a>
</g>
</g>
<!-- dir_9f45bf971eaf409d85982825e7dcaf7d -->
<g id="node5" class="node">
<title>dir_9f45bf971eaf409d85982825e7dcaf7d</title>
<g id="a_node5"><a xlink:href="dir_9f45bf971eaf409d85982825e7dcaf7d.html" target="_top" xlink:title="Docs">
<polygon fill="#a2b4d6" stroke="#404040" points="782,-60 728,-60 728,-24 782,-24 782,-60"/>
<text text-anchor="middle" x="755" y="-39.5" font-family="Helvetica,sans-Serif" font-size="10.00">Docs</text>
</a>
</g>
</g>
<!-- dir_bec3eaa93b84c22b3f40929abb951364 -->
<g id="node6" class="node">
<title>dir_bec3eaa93b84c22b3f40929abb951364</title>
<g id="a_node6"><a xlink:href="dir_bec3eaa93b84c22b3f40929abb951364.html" target="_top" xlink:title="Effects">
<polygon fill="#a2b4d6" stroke="#404040" points="710,-60 656,-60 656,-24 710,-24 710,-60"/>
<text text-anchor="middle" x="683" y="-39.5" font-family="Helvetica,sans-Serif" font-size="10.00">Effects</text>
</a>
</g>
</g>
<!-- dir_b7496194a4578d98d0695316e294b4c8 -->
<g id="node7" class="node">
<title>dir_b7496194a4578d98d0695316e294b4c8</title>
<g id="a_node7"><a xlink:href="dir_b7496194a4578d98d0695316e294b4c8.html" target="_top" xlink:title="Game">
<polygon fill="#a2b4d6" stroke="#404040" points="638,-60 584,-60 584,-24 638,-24 638,-60"/>
<text text-anchor="middle" x="611" y="-39.5" font-family="Helvetica,sans-Serif" font-size="10.00">Game</text>
</a>
</g>
</g>
<!-- dir_41186e81b000ed823c21e72945b01f5d -->
<g id="node8" class="node">
<title>dir_41186e81b000ed823c21e72945b01f5d</title>
<g id="a_node8"><a xlink:href="dir_41186e81b000ed823c21e72945b01f5d.html" target="_top" xlink:title="Menus">
<polygon fill="#a2b4d6" stroke="#404040" points="566,-60 512,-60 512,-24 566,-24 566,-60"/>
<text text-anchor="middle" x="539" y="-39.5" font-family="Helvetica,sans-Serif" font-size="10.00">Menus</text>
</a>
</g>
</g>
<!-- dir_c7fafc839a0585736011c21bdabf2a37 -->
<g id="node9" class="node">
<title>dir_c7fafc839a0585736011c21bdabf2a37</title>
<g id="a_node9"><a xlink:href="dir_c7fafc839a0585736011c21bdabf2a37.html" target="_top" xlink:title="Player">
<polygon fill="#a2b4d6" stroke="#404040" points="494,-60 440,-60 440,-24 494,-24 494,-60"/>
<text text-anchor="middle" x="467" y="-39.5" font-family="Helvetica,sans-Serif" font-size="10.00">Player</text>
</a>
</g>
</g>
<!-- dir_bdc3daee6d8290b2517e5b3c4e97fe05 -->
<g id="node10" class="node">
<title>dir_bdc3daee6d8290b2517e5b3c4e97fe05</title>
<g id="a_node10"><a xlink:href="dir_bdc3daee6d8290b2517e5b3c4e97fe05.html" target="_top" xlink:title="Scenes">
<polygon fill="#a2b4d6" stroke="#404040" points="422,-60 368,-60 368,-24 422,-24 422,-60"/>
<text text-anchor="middle" x="395" y="-39.5" font-family="Helvetica,sans-Serif" font-size="10.00">Scenes</text>
</a>
</g>
</g>
<!-- dir_120869d834648ba2350ce8503a8a7de1 -->
<g id="node11" class="node">
<title>dir_120869d834648ba2350ce8503a8a7de1</title>
<g id="a_node11"><a xlink:href="dir_120869d834648ba2350ce8503a8a7de1.html" target="_top" xlink:title="ScriptableObjects">
<polygon fill="#a2b4d6" stroke="#404040" points="350,-60 256,-60 256,-24 350,-24 350,-60"/>
<text text-anchor="middle" x="303" y="-39.5" font-family="Helvetica,sans-Serif" font-size="10.00">ScriptableObjects</text>
</a>
</g>
</g>
<!-- dir_c660b576967a483dc898adb5072c73e3 -->
<g id="node12" class="node">
<title>dir_c660b576967a483dc898adb5072c73e3</title>
<g id="a_node12"><a xlink:href="dir_c660b576967a483dc898adb5072c73e3.html" target="_top" xlink:title="Static">
<polygon fill="#a2b4d6" stroke="#404040" points="238,-60 184,-60 184,-24 238,-24 238,-60"/>
<text text-anchor="middle" x="211" y="-39.5" font-family="Helvetica,sans-Serif" font-size="10.00">Static</text>
</a>
</g>
</g>
<!-- dir_9e925bd80af65c50f90e1d9593b843a8 -->
<g id="node13" class="node">
<title>dir_9e925bd80af65c50f90e1d9593b843a8</title>
<g id="a_node13"><a xlink:href="dir_9e925bd80af65c50f90e1d9593b843a8.html" target="_top" xlink:title="StyleEffects">
<polygon fill="#a2b4d6" stroke="#404040" points="165.5,-60 96.5,-60 96.5,-24 165.5,-24 165.5,-60"/>
<text text-anchor="middle" x="131" y="-39.5" font-family="Helvetica,sans-Serif" font-size="10.00">StyleEffects</text>
</a>
</g>
</g>
<!-- dir_d59928a8991e409486b76da4b2a9995a -->
<g id="node14" class="node">
<title>dir_d59928a8991e409486b76da4b2a9995a</title>
<g id="a_node14"><a xlink:href="dir_d59928a8991e409486b76da4b2a9995a.html" target="_top" xlink:title="Utils">
<polygon fill="#a2b4d6" stroke="#404040" points="78,-60 24,-60 24,-24 78,-24 78,-60"/>
<text text-anchor="middle" x="51" y="-39.5" font-family="Helvetica,sans-Serif" font-size="10.00">Utils</text>
</a>
</g>
</g>
</g>
</svg>
