<?xml version="1.0" encoding="UTF-8" standalone="no"?>
<!DOCTYPE svg PUBLIC "-//W3C//DTD SVG 1.1//EN"
 "http://www.w3.org/Graphics/SVG/1.1/DTD/svg11.dtd">
<!-- Generated by graphviz version 2.50.0 (20211204.2007)
 -->
<!-- Title: C:/Users/Usuario/Desktop/Unity Projects/TFG/Assets/Scripts/Game Pages: 1 -->
<svg width="720pt" height="111pt"
 viewBox="0.00 0.00 720.00 111.00" xmlns="http://www.w3.org/2000/svg" xmlns:xlink="http://www.w3.org/1999/xlink">
<g id="graph0" class="graph" transform="scale(1 1) rotate(0) translate(4 107)">
<title>C:/Users/Usuario/Desktop/Unity Projects/TFG/Assets/Scripts/Game</title>
<polygon fill="white" stroke="transparent" points="-4,4 -4,-107 716,-107 716,4 -4,4"/>
<g id="clust1" class="cluster">
<title>clusterdir_f13b41af88cf68434578284aaf699e39</title>
<g id="a_clust1"><a xlink:href="dir_f13b41af88cf68434578284aaf699e39.html" target="_top" xlink:title="Scripts">
<polygon fill="#edf0f7" stroke="#7f7f7f" stroke-dasharray="5,2" points="8,-8 8,-95 704,-95 704,-8 8,-8"/>
<text text-anchor="middle" x="356" y="-83" font-family="Helvetica,sans-Serif" font-size="10.00">Scripts</text>
</a>
</g>
</g>
<g id="clust2" class="cluster">
<title>clusterdir_b7496194a4578d98d0695316e294b4c8</title>
<g id="a_clust2"><a xlink:href="dir_b7496194a4578d98d0695316e294b4c8.html" target="_top">
<polygon fill="#edf0f7" stroke="#404040" stroke-width="2" points="16,-16 16,-68 696,-68 696,-16 16,-16"/>
</a>
</g>
</g>
<!-- dir_b7496194a4578d98d0695316e294b4c8 -->
<g id="node1" class="node">
<title>dir_b7496194a4578d98d0695316e294b4c8</title>
<text text-anchor="middle" x="661" y="-39.5" font-family="Helvetica,sans-Serif" font-size="10.00">Game</text>
</g>
<!-- dir_a3707b6e14a70c47334d1470d38037c9 -->
<g id="node2" class="node">
<title>dir_a3707b6e14a70c47334d1470d38037c9</title>
<g id="a_node2"><a xlink:href="dir_a3707b6e14a70c47334d1470d38037c9.html" target="_top" xlink:title="Base">
<polygon fill="#a2b4d6" stroke="#404040" points="616,-60 562,-60 562,-24 616,-24 616,-60"/>
<text text-anchor="middle" x="589" y="-39.5" font-family="Helvetica,sans-Serif" font-size="10.00">Base</text>
</a>
</g>
</g>
<!-- dir_b0c0fcdd74fbb19563daf708171500c3 -->
<g id="node3" class="node">
<title>dir_b0c0fcdd74fbb19563daf708171500c3</title>
<g id="a_node3"><a xlink:href="dir_b0c0fcdd74fbb19563daf708171500c3.html" target="_top" xlink:title="Game Control">
<polygon fill="#a2b4d6" stroke="#404040" points="543.5,-60 466.5,-60 466.5,-24 543.5,-24 543.5,-60"/>
<text text-anchor="middle" x="505" y="-39.5" font-family="Helvetica,sans-Serif" font-size="10.00">Game Control</text>
</a>
</g>
</g>
<!-- dir_dc6edc4aa105efeca1a511545e8c984d -->
<g id="node4" class="node">
<title>dir_dc6edc4aa105efeca1a511545e8c984d</title>
<g id="a_node4"><a xlink:href="dir_dc6edc4aa105efeca1a511545e8c984d.html" target="_top" xlink:title="Mannequin">
<polygon fill="#a2b4d6" stroke="#404040" points="448,-60 384,-60 384,-24 448,-24 448,-60"/>
<text text-anchor="middle" x="416" y="-39.5" font-family="Helvetica,sans-Serif" font-size="10.00">Mannequin</text>
</a>
</g>
</g>
<!-- dir_88a426e54272566848ad4c1f16de8ad1 -->
<g id="node5" class="node">
<title>dir_88a426e54272566848ad4c1f16de8ad1</title>
<g id="a_node5"><a xlink:href="dir_88a426e54272566848ad4c1f16de8ad1.html" target="_top" xlink:title="Minion">
<polygon fill="#a2b4d6" stroke="#404040" points="366,-60 312,-60 312,-24 366,-24 366,-60"/>
<text text-anchor="middle" x="339" y="-39.5" font-family="Helvetica,sans-Serif" font-size="10.00">Minion</text>
</a>
</g>
</g>
<!-- dir_bd5069f52274bfe6f42c3cbf7432c759 -->
<g id="node6" class="node">
<title>dir_bd5069f52274bfe6f42c3cbf7432c759</title>
<g id="a_node6"><a xlink:href="dir_bd5069f52274bfe6f42c3cbf7432c759.html" target="_top" xlink:title="Nexus">
<polygon fill="#a2b4d6" stroke="#404040" points="294,-60 240,-60 240,-24 294,-24 294,-60"/>
<text text-anchor="middle" x="267" y="-39.5" font-family="Helvetica,sans-Serif" font-size="10.00">Nexus</text>
</a>
</g>
</g>
<!-- dir_394c84ab84fba245ffab580f679523ed -->
<g id="node7" class="node">
<title>dir_394c84ab84fba245ffab580f679523ed</title>
<g id="a_node7"><a xlink:href="dir_394c84ab84fba245ffab580f679523ed.html" target="_top" xlink:title="Shop">
<polygon fill="#a2b4d6" stroke="#404040" points="222,-60 168,-60 168,-24 222,-24 222,-60"/>
<text text-anchor="middle" x="195" y="-39.5" font-family="Helvetica,sans-Serif" font-size="10.00">Shop</text>
</a>
</g>
</g>
<!-- dir_f10f0684075434f3100102e2b1f21916 -->
<g id="node8" class="node">
<title>dir_f10f0684075434f3100102e2b1f21916</title>
<g id="a_node8"><a xlink:href="dir_f10f0684075434f3100102e2b1f21916.html" target="_top" xlink:title="Tooltips">
<polygon fill="#a2b4d6" stroke="#404040" points="150,-60 96,-60 96,-24 150,-24 150,-60"/>
<text text-anchor="middle" x="123" y="-39.5" font-family="Helvetica,sans-Serif" font-size="10.00">Tooltips</text>
</a>
</g>
</g>
<!-- dir_65087a429cc8f41a45051ab39cd4bb05 -->
<g id="node9" class="node">
<title>dir_65087a429cc8f41a45051ab39cd4bb05</title>
<g id="a_node9"><a xlink:href="dir_65087a429cc8f41a45051ab39cd4bb05.html" target="_top" xlink:title="Turret">
<polygon fill="#a2b4d6" stroke="#404040" points="78,-60 24,-60 24,-24 78,-24 78,-60"/>
<text text-anchor="middle" x="51" y="-39.5" font-family="Helvetica,sans-Serif" font-size="10.00">Turret</text>
</a>
</g>
</g>
</g>
</svg>
