<?xml version="1.0" encoding="UTF-8" standalone="no"?>
<!DOCTYPE svg PUBLIC "-//W3C//DTD SVG 1.1//EN"
 "http://www.w3.org/Graphics/SVG/1.1/DTD/svg11.dtd">
<!-- Generated by graphviz version 2.50.0 (20211204.2007)
 -->
<!-- Title: C:/Users/Usuario/Desktop/Unity Projects/TFG/Assets/Scripts/ScriptableObjects Pages: 1 -->
<svg width="448pt" height="111pt"
 viewBox="0.00 0.00 448.00 111.00" xmlns="http://www.w3.org/2000/svg" xmlns:xlink="http://www.w3.org/1999/xlink">
<g id="graph0" class="graph" transform="scale(1 1) rotate(0) translate(4 107)">
<title>C:/Users/Usuario/Desktop/Unity Projects/TFG/Assets/Scripts/ScriptableObjects</title>
<polygon fill="white" stroke="transparent" points="-4,4 -4,-107 444,-107 444,4 -4,4"/>
<g id="clust1" class="cluster">
<title>clusterdir_f13b41af88cf68434578284aaf699e39</title>
<g id="a_clust1"><a xlink:href="dir_f13b41af88cf68434578284aaf699e39.html" target="_top" xlink:title="Scripts">
<polygon fill="#edf0f7" stroke="#7f7f7f" stroke-dasharray="5,2" points="8,-8 8,-95 432,-95 432,-8 8,-8"/>
<text text-anchor="middle" x="220" y="-83" font-family="Helvetica,sans-Serif" font-size="10.00">Scripts</text>
</a>
</g>
</g>
<g id="clust2" class="cluster">
<title>clusterdir_120869d834648ba2350ce8503a8a7de1</title>
<g id="a_clust2"><a xlink:href="dir_120869d834648ba2350ce8503a8a7de1.html" target="_top">
<polygon fill="#edf0f7" stroke="#404040" stroke-width="2" points="16,-16 16,-68 424,-68 424,-16 16,-16"/>
</a>
</g>
</g>
<!-- dir_120869d834648ba2350ce8503a8a7de1 -->
<g id="node1" class="node">
<title>dir_120869d834648ba2350ce8503a8a7de1</title>
<text text-anchor="middle" x="369" y="-39.5" font-family="Helvetica,sans-Serif" font-size="10.00">ScriptableObjects</text>
</g>
<!-- dir_22ad7e7452722a68395badabb134d579 -->
<g id="node2" class="node">
<title>dir_22ad7e7452722a68395badabb134d579</title>
<g id="a_node2"><a xlink:href="dir_22ad7e7452722a68395badabb134d579.html" target="_top" xlink:title="Abilities">
<polygon fill="#a2b4d6" stroke="#404040" points="304,-60 250,-60 250,-24 304,-24 304,-60"/>
<text text-anchor="middle" x="277" y="-39.5" font-family="Helvetica,sans-Serif" font-size="10.00">Abilities</text>
</a>
</g>
</g>
<!-- dir_f66f4de8698762ca528d41a6831a101d -->
<g id="node3" class="node">
<title>dir_f66f4de8698762ca528d41a6831a101d</title>
<g id="a_node3"><a xlink:href="dir_f66f4de8698762ca528d41a6831a101d.html" target="_top" xlink:title="Characters">
<polygon fill="#a2b4d6" stroke="#404040" points="232,-60 168,-60 168,-24 232,-24 232,-60"/>
<text text-anchor="middle" x="200" y="-39.5" font-family="Helvetica,sans-Serif" font-size="10.00">Characters</text>
</a>
</g>
</g>
<!-- dir_ead1dfc166d1cd7247305f5a86b0cee9 -->
<g id="node4" class="node">
<title>dir_ead1dfc166d1cd7247305f5a86b0cee9</title>
<g id="a_node4"><a xlink:href="dir_ead1dfc166d1cd7247305f5a86b0cee9.html" target="_top" xlink:title="Groups">
<polygon fill="#a2b4d6" stroke="#404040" points="150,-60 96,-60 96,-24 150,-24 150,-60"/>
<text text-anchor="middle" x="123" y="-39.5" font-family="Helvetica,sans-Serif" font-size="10.00">Groups</text>
</a>
</g>
</g>
<!-- dir_764cb3b3a5fee5142657cfb452676c4e -->
<g id="node5" class="node">
<title>dir_764cb3b3a5fee5142657cfb452676c4e</title>
<g id="a_node5"><a xlink:href="dir_764cb3b3a5fee5142657cfb452676c4e.html" target="_top" xlink:title="Items">
<polygon fill="#a2b4d6" stroke="#404040" points="78,-60 24,-60 24,-24 78,-24 78,-60"/>
<text text-anchor="middle" x="51" y="-39.5" font-family="Helvetica,sans-Serif" font-size="10.00">Items</text>
</a>
</g>
</g>
</g>
</svg>
