<?xml version="1.0" encoding="UTF-8" standalone="no"?>
<!DOCTYPE svg PUBLIC "-//W3C//DTD SVG 1.1//EN"
 "http://www.w3.org/Graphics/SVG/1.1/DTD/svg11.dtd">
<!-- Generated by graphviz version 2.47.3 (20210619.1520)
 -->
<!-- Title: Jerarquia Gràfica de la Classe Pages: 1 -->
<svg width="634pt" height="1396pt"
 viewBox="0.00 0.00 634.00 1396.00" xmlns="http://www.w3.org/2000/svg" xmlns:xlink="http://www.w3.org/1999/xlink">
<g id="graph0" class="graph" transform="scale(1 1) rotate(0) translate(4 1392)">
<title>Jerarquia Gràfica de la Classe</title>
<!-- Node7 -->
<g id="node1" class="node">
<title>Node7</title>
<g id="a_node1"><a xlink:title=" ">
<polygon fill="none" stroke="#bfbfbf" points="0,-703.5 0,-722.5 83,-722.5 83,-703.5 0,-703.5"/>
<text text-anchor="middle" x="41.5" y="-710.5" font-family="Helvetica,sans-Serif" font-size="10.00">MonoBehaviour</text>
</a>
</g>
</g>
<!-- Node0 -->
<g id="node2" class="node">
<title>Node0</title>
<g id="a_node2"><a xlink:href="class_ability_base.html" target="_top" xlink:title="Base class for all the Ability_Instanciable prefab scripts.">
<polygon fill="none" stroke="black" points="141,-1349.5 141,-1368.5 207,-1368.5 207,-1349.5 141,-1349.5"/>
<text text-anchor="middle" x="174" y="-1356.5" font-family="Helvetica,sans-Serif" font-size="10.00">AbilityBase</text>
</a>
</g>
</g>
<!-- Node7&#45;&gt;Node0 -->
<g id="edge1" class="edge">
<title>Node7&#45;&gt;Node0</title>
<path fill="none" stroke="midnightblue" d="M42.21,-733.06C41.19,-829.36 41.44,-1243.48 119,-1340 124.48,-1346.82 132.57,-1351.19 140.83,-1354"/>
<polygon fill="midnightblue" stroke="midnightblue" points="45.71,-732.98 42.33,-722.94 38.71,-732.89 45.71,-732.98"/>
</g>
<!-- Node11 -->
<g id="node5" class="node">
<title>Node11</title>
<g id="a_node5"><a xlink:href="class_ability_cooldown.html" target="_top" xlink:title=" ">
<polygon fill="none" stroke="black" points="131,-1311.5 131,-1330.5 217,-1330.5 217,-1311.5 131,-1311.5"/>
<text text-anchor="middle" x="174" y="-1318.5" font-family="Helvetica,sans-Serif" font-size="10.00">AbilityCooldown</text>
</a>
</g>
</g>
<!-- Node7&#45;&gt;Node11 -->
<g id="edge4" class="edge">
<title>Node7&#45;&gt;Node11</title>
<path fill="none" stroke="midnightblue" d="M42.38,-733C42.23,-825.59 46.02,-1211.9 119,-1302 122.25,-1306.02 126.41,-1309.18 130.98,-1311.68"/>
<polygon fill="midnightblue" stroke="midnightblue" points="45.88,-732.79 42.42,-722.78 38.88,-732.76 45.88,-732.79"/>
</g>
<!-- Node12 -->
<g id="node6" class="node">
<title>Node12</title>
<g id="a_node6"><a xlink:href="class_ability_display.html" target="_top" xlink:title=" ">
<polygon fill="none" stroke="black" points="136,-1273.5 136,-1292.5 212,-1292.5 212,-1273.5 136,-1273.5"/>
<text text-anchor="middle" x="174" y="-1280.5" font-family="Helvetica,sans-Serif" font-size="10.00">AbilityDisplay</text>
</a>
</g>
</g>
<!-- Node7&#45;&gt;Node12 -->
<g id="edge5" class="edge">
<title>Node7&#45;&gt;Node12</title>
<path fill="none" stroke="midnightblue" d="M42.58,-732.81C43.32,-821.38 50.56,-1180.27 119,-1264 123.4,-1269.39 129.43,-1273.25 135.88,-1276.02"/>
<polygon fill="midnightblue" stroke="midnightblue" points="46.08,-732.55 42.51,-722.57 39.08,-732.59 46.08,-732.55"/>
</g>
<!-- Node13 -->
<g id="node7" class="node">
<title>Node13</title>
<g id="a_node7"><a xlink:href="class_ability_indicator.html" target="_top" xlink:title=" ">
<polygon fill="none" stroke="black" points="134,-1235.5 134,-1254.5 214,-1254.5 214,-1235.5 134,-1235.5"/>
<text text-anchor="middle" x="174" y="-1242.5" font-family="Helvetica,sans-Serif" font-size="10.00">AbilityIndicator</text>
</a>
</g>
</g>
<!-- Node7&#45;&gt;Node13 -->
<g id="edge6" class="edge">
<title>Node7&#45;&gt;Node13</title>
<path fill="none" stroke="midnightblue" d="M42.8,-732.79C44.49,-817.49 55.14,-1148.66 119,-1226 122.99,-1230.83 128.28,-1234.43 134,-1237.12"/>
<polygon fill="midnightblue" stroke="midnightblue" points="46.3,-732.66 42.62,-722.72 39.3,-732.78 46.3,-732.66"/>
</g>
<!-- Node14 -->
<g id="node8" class="node">
<title>Node14</title>
<g id="a_node8"><a xlink:href="class_arrow_animation.html" target="_top" xlink:title=" ">
<polygon fill="none" stroke="black" points="131.5,-1197.5 131.5,-1216.5 216.5,-1216.5 216.5,-1197.5 131.5,-1197.5"/>
<text text-anchor="middle" x="174" y="-1204.5" font-family="Helvetica,sans-Serif" font-size="10.00">ArrowAnimation</text>
</a>
</g>
</g>
<!-- Node7&#45;&gt;Node14 -->
<g id="edge7" class="edge">
<title>Node7&#45;&gt;Node14</title>
<path fill="none" stroke="midnightblue" d="M43.08,-733.1C45.79,-814.3 59.78,-1117.13 119,-1188 122.38,-1192.04 126.67,-1195.22 131.36,-1197.73"/>
<polygon fill="midnightblue" stroke="midnightblue" points="46.56,-732.67 42.75,-722.78 39.57,-732.89 46.56,-732.67"/>
</g>
<!-- Node15 -->
<g id="node9" class="node">
<title>Node15</title>
<g id="a_node9"><a xlink:href="class_async_loader.html" target="_top" xlink:title=" ">
<polygon fill="none" stroke="black" points="137,-1159.5 137,-1178.5 211,-1178.5 211,-1159.5 137,-1159.5"/>
<text text-anchor="middle" x="174" y="-1166.5" font-family="Helvetica,sans-Serif" font-size="10.00">AsyncLoader</text>
</a>
</g>
</g>
<!-- Node7&#45;&gt;Node15 -->
<g id="edge8" class="edge">
<title>Node7&#45;&gt;Node15</title>
<path fill="none" stroke="midnightblue" d="M43.38,-732.95C47.14,-809.78 64.3,-1085.44 119,-1150 123.69,-1155.54 130.1,-1159.46 136.86,-1162.24"/>
<polygon fill="midnightblue" stroke="midnightblue" points="46.86,-732.57 42.9,-722.75 39.87,-732.9 46.86,-732.57"/>
</g>
<!-- Node16 -->
<g id="node10" class="node">
<title>Node16</title>
<g id="a_node10"><a xlink:href="class_attack_range_indicator.html" target="_top" xlink:title="Script that shows and hides the Range Indicator of the basic attack.">
<polygon fill="none" stroke="black" points="119,-1121.5 119,-1140.5 229,-1140.5 229,-1121.5 119,-1121.5"/>
<text text-anchor="middle" x="174" y="-1128.5" font-family="Helvetica,sans-Serif" font-size="10.00">AttackRangeIndicator</text>
</a>
</g>
</g>
<!-- Node7&#45;&gt;Node16 -->
<g id="edge9" class="edge">
<title>Node7&#45;&gt;Node16</title>
<path fill="none" stroke="midnightblue" d="M43.72,-732.6C48.57,-804.64 68.76,-1053.66 119,-1112 122.37,-1115.92 126.6,-1119.03 131.2,-1121.49"/>
<polygon fill="midnightblue" stroke="midnightblue" points="47.21,-732.36 43.07,-722.61 40.23,-732.82 47.21,-732.36"/>
</g>
<!-- Node17 -->
<g id="node11" class="node">
<title>Node17</title>
<g id="a_node11"><a xlink:href="class_background_scaling.html" target="_top" xlink:title="Image Scaling effect driven by a simple Sin equation.">
<polygon fill="none" stroke="black" points="123.5,-1083.5 123.5,-1102.5 224.5,-1102.5 224.5,-1083.5 123.5,-1083.5"/>
<text text-anchor="middle" x="174" y="-1090.5" font-family="Helvetica,sans-Serif" font-size="10.00">BackgroundScaling</text>
</a>
</g>
</g>
<!-- Node7&#45;&gt;Node17 -->
<g id="edge10" class="edge">
<title>Node7&#45;&gt;Node17</title>
<path fill="none" stroke="midnightblue" d="M44.18,-732.87C50.27,-800.74 73.34,-1022.01 119,-1074 122.41,-1077.88 126.66,-1080.97 131.28,-1083.43"/>
<polygon fill="midnightblue" stroke="midnightblue" points="47.64,-732.36 43.29,-722.7 40.67,-732.96 47.64,-732.36"/>
</g>
<!-- Node18 -->
<g id="node12" class="node">
<title>Node18</title>
<g id="a_node12"><a xlink:href="class_basic_attack.html" target="_top" xlink:title=" ">
<polygon fill="none" stroke="black" points="139,-1045.5 139,-1064.5 209,-1064.5 209,-1045.5 139,-1045.5"/>
<text text-anchor="middle" x="174" y="-1052.5" font-family="Helvetica,sans-Serif" font-size="10.00">BasicAttack</text>
</a>
</g>
</g>
<!-- Node7&#45;&gt;Node18 -->
<g id="edge11" class="edge">
<title>Node7&#45;&gt;Node18</title>
<path fill="none" stroke="midnightblue" d="M44.7,-732.79C52.08,-795.8 77.82,-990.22 119,-1036 124.25,-1041.84 131.4,-1045.88 138.78,-1048.68"/>
<polygon fill="midnightblue" stroke="midnightblue" points="48.15,-732.16 43.54,-722.62 41.2,-732.96 48.15,-732.16"/>
</g>
<!-- Node19 -->
<g id="node13" class="node">
<title>Node19</title>
<g id="a_node13"><a xlink:href="class_billboard.html" target="_top" xlink:title=" ">
<polygon fill="none" stroke="black" points="147,-1007.5 147,-1026.5 201,-1026.5 201,-1007.5 147,-1007.5"/>
<text text-anchor="middle" x="174" y="-1014.5" font-family="Helvetica,sans-Serif" font-size="10.00">Billboard</text>
</a>
</g>
</g>
<!-- Node7&#45;&gt;Node19 -->
<g id="edge12" class="edge">
<title>Node7&#45;&gt;Node19</title>
<path fill="none" stroke="midnightblue" d="M41.9,-732.89C41.47,-783.89 47.44,-920.78 119,-998 126.23,-1005.8 136.85,-1010.4 146.76,-1013.11"/>
<polygon fill="midnightblue" stroke="midnightblue" points="45.41,-732.66 42.09,-722.6 38.41,-732.53 45.41,-732.66"/>
</g>
<!-- Node20 -->
<g id="node14" class="node">
<title>Node20</title>
<g id="a_node14"><a xlink:href="class_connection_manager.html" target="_top" xlink:title=" ">
<polygon fill="none" stroke="black" points="122.5,-969.5 122.5,-988.5 225.5,-988.5 225.5,-969.5 122.5,-969.5"/>
<text text-anchor="middle" x="174" y="-976.5" font-family="Helvetica,sans-Serif" font-size="10.00">ConnectionManager</text>
</a>
</g>
</g>
<!-- Node7&#45;&gt;Node20 -->
<g id="edge13" class="edge">
<title>Node7&#45;&gt;Node20</title>
<path fill="none" stroke="midnightblue" d="M42.88,-732.69C44.85,-778.78 56.14,-894.71 119,-960 122.72,-963.87 127.28,-966.95 132.15,-969.4"/>
<polygon fill="midnightblue" stroke="midnightblue" points="46.38,-732.43 42.56,-722.55 39.38,-732.66 46.38,-732.43"/>
</g>
<!-- Node21 -->
<g id="node15" class="node">
<title>Node21</title>
<g id="a_node15"><a xlink:href="class_drop.html" target="_top" xlink:title=" ">
<polygon fill="none" stroke="black" points="155.5,-931.5 155.5,-950.5 192.5,-950.5 192.5,-931.5 155.5,-931.5"/>
<text text-anchor="middle" x="174" y="-938.5" font-family="Helvetica,sans-Serif" font-size="10.00">Drop</text>
</a>
</g>
</g>
<!-- Node7&#45;&gt;Node21 -->
<g id="edge14" class="edge">
<title>Node7&#45;&gt;Node21</title>
<path fill="none" stroke="midnightblue" d="M44.22,-732.96C48.81,-774.04 64.97,-868.64 119,-922 128.76,-931.64 143.69,-936.41 155.38,-938.75"/>
<polygon fill="midnightblue" stroke="midnightblue" points="47.69,-732.48 43.21,-722.87 40.72,-733.17 47.69,-732.48"/>
</g>
<!-- Node25 -->
<g id="node19" class="node">
<title>Node25</title>
<g id="a_node19"><a xlink:href="class_effect_manager.html" target="_top" xlink:title=" ">
<polygon fill="none" stroke="black" points="134.5,-893.5 134.5,-912.5 213.5,-912.5 213.5,-893.5 134.5,-893.5"/>
<text text-anchor="middle" x="174" y="-900.5" font-family="Helvetica,sans-Serif" font-size="10.00">EffectManager</text>
</a>
</g>
</g>
<!-- Node7&#45;&gt;Node25 -->
<g id="edge18" class="edge">
<title>Node7&#45;&gt;Node25</title>
<path fill="none" stroke="midnightblue" d="M46.02,-732.67C53.34,-767.92 73.45,-842.05 119,-884 123.46,-888.11 128.86,-891.34 134.5,-893.87"/>
<polygon fill="midnightblue" stroke="midnightblue" points="49.43,-731.83 44.08,-722.68 42.55,-733.17 49.43,-731.83"/>
</g>
<!-- Node26 -->
<g id="node20" class="node">
<title>Node26</title>
<g id="a_node20"><a xlink:href="class_game_u_i_controller.html" target="_top" xlink:title=" ">
<polygon fill="none" stroke="black" points="127.5,-855.5 127.5,-874.5 220.5,-874.5 220.5,-855.5 127.5,-855.5"/>
<text text-anchor="middle" x="174" y="-862.5" font-family="Helvetica,sans-Serif" font-size="10.00">GameUIController</text>
</a>
</g>
</g>
<!-- Node7&#45;&gt;Node26 -->
<g id="edge19" class="edge">
<title>Node7&#45;&gt;Node26</title>
<path fill="none" stroke="midnightblue" d="M48.67,-732.25C58.84,-760.99 81.77,-815.05 119,-846 123.66,-849.88 129.17,-852.98 134.85,-855.47"/>
<polygon fill="midnightblue" stroke="midnightblue" points="51.92,-730.93 45.4,-722.58 45.29,-733.17 51.92,-730.93"/>
</g>
<!-- Node27 -->
<g id="node21" class="node">
<title>Node27</title>
<g id="a_node21"><a xlink:href="class_inventory.html" target="_top" xlink:title=" ">
<polygon fill="none" stroke="black" points="146.5,-817.5 146.5,-836.5 201.5,-836.5 201.5,-817.5 146.5,-817.5"/>
<text text-anchor="middle" x="174" y="-824.5" font-family="Helvetica,sans-Serif" font-size="10.00">Inventory</text>
</a>
</g>
</g>
<!-- Node7&#45;&gt;Node27 -->
<g id="edge20" class="edge">
<title>Node7&#45;&gt;Node27</title>
<path fill="none" stroke="midnightblue" d="M52.85,-731.26C65.77,-752.51 89.76,-787.32 119,-808 127.11,-813.74 137.13,-817.89 146.32,-820.83"/>
<polygon fill="midnightblue" stroke="midnightblue" points="55.81,-729.39 47.72,-722.55 49.78,-732.94 55.81,-729.39"/>
</g>
<!-- Node28 -->
<g id="node22" class="node">
<title>Node28</title>
<g id="a_node22"><a xlink:href="class_loading_canvas.html" target="_top" xlink:title=" ">
<polygon fill="none" stroke="black" points="133,-779.5 133,-798.5 215,-798.5 215,-779.5 133,-779.5"/>
<text text-anchor="middle" x="174" y="-786.5" font-family="Helvetica,sans-Serif" font-size="10.00">LoadingCanvas</text>
</a>
</g>
</g>
<!-- Node7&#45;&gt;Node28 -->
<g id="edge21" class="edge">
<title>Node7&#45;&gt;Node28</title>
<path fill="none" stroke="midnightblue" d="M61.08,-729.37C75.94,-741.82 97.74,-758.68 119,-770 125.75,-773.6 133.33,-776.75 140.62,-779.4"/>
<polygon fill="midnightblue" stroke="midnightblue" points="63.07,-726.46 53.19,-722.63 58.52,-731.79 63.07,-726.46"/>
</g>
<!-- Node29 -->
<g id="node23" class="node">
<title>Node29</title>
<g id="a_node23"><a xlink:href="class_mannequin.html" target="_top" xlink:title=" ">
<polygon fill="none" stroke="black" points="142,-741.5 142,-760.5 206,-760.5 206,-741.5 142,-741.5"/>
<text text-anchor="middle" x="174" y="-748.5" font-family="Helvetica,sans-Serif" font-size="10.00">Mannequin</text>
</a>
</g>
</g>
<!-- Node7&#45;&gt;Node29 -->
<g id="edge22" class="edge">
<title>Node7&#45;&gt;Node29</title>
<path fill="none" stroke="midnightblue" d="M85.1,-725.4C103.61,-730.79 124.89,-736.99 141.88,-741.94"/>
<polygon fill="midnightblue" stroke="midnightblue" points="86.01,-722.02 75.43,-722.59 84.05,-728.75 86.01,-722.02"/>
</g>
<!-- Node30 -->
<g id="node24" class="node">
<title>Node30</title>
<g id="a_node24"><a xlink:href="class_model_player_mediator.html" target="_top" xlink:title=" ">
<polygon fill="none" stroke="black" points="120,-703.5 120,-722.5 228,-722.5 228,-703.5 120,-703.5"/>
<text text-anchor="middle" x="174" y="-710.5" font-family="Helvetica,sans-Serif" font-size="10.00">ModelPlayerMediator</text>
</a>
</g>
</g>
<!-- Node7&#45;&gt;Node30 -->
<g id="edge23" class="edge">
<title>Node7&#45;&gt;Node30</title>
<path fill="none" stroke="midnightblue" d="M93.18,-713C101.96,-713 111.12,-713 119.96,-713"/>
<polygon fill="midnightblue" stroke="midnightblue" points="93.08,-709.5 83.08,-713 93.08,-716.5 93.08,-709.5"/>
</g>
<!-- Node31 -->
<g id="node25" class="node">
<title>Node31</title>
<g id="a_node25"><a xlink:href="class_model_sync.html" target="_top" xlink:title=" ">
<polygon fill="none" stroke="black" points="141.5,-665.5 141.5,-684.5 206.5,-684.5 206.5,-665.5 141.5,-665.5"/>
<text text-anchor="middle" x="174" y="-672.5" font-family="Helvetica,sans-Serif" font-size="10.00">ModelSync</text>
</a>
</g>
</g>
<!-- Node7&#45;&gt;Node31 -->
<g id="edge24" class="edge">
<title>Node7&#45;&gt;Node31</title>
<path fill="none" stroke="midnightblue" d="M85.28,-700.54C103.58,-695.21 124.57,-689.1 141.43,-684.19"/>
<polygon fill="midnightblue" stroke="midnightblue" points="84.05,-697.25 75.43,-703.41 86.01,-703.98 84.05,-697.25"/>
</g>
<!-- Node32 -->
<g id="node26" class="node">
<title>Node32</title>
<g id="a_node26"><a xlink:href="class_options_menu.html" target="_top" xlink:title=" ">
<polygon fill="none" stroke="black" points="137,-627.5 137,-646.5 211,-646.5 211,-627.5 137,-627.5"/>
<text text-anchor="middle" x="174" y="-634.5" font-family="Helvetica,sans-Serif" font-size="10.00">OptionsMenu</text>
</a>
</g>
</g>
<!-- Node7&#45;&gt;Node32 -->
<g id="edge25" class="edge">
<title>Node7&#45;&gt;Node32</title>
<path fill="none" stroke="midnightblue" d="M61.08,-696.63C75.94,-684.18 97.74,-667.32 119,-656 125.75,-652.4 133.33,-649.25 140.62,-646.6"/>
<polygon fill="midnightblue" stroke="midnightblue" points="58.52,-694.21 53.19,-703.37 63.07,-699.54 58.52,-694.21"/>
</g>
<!-- Node33 -->
<g id="node27" class="node">
<title>Node33</title>
<g id="a_node27"><a xlink:href="class_pause_menu.html" target="_top" xlink:title=" ">
<polygon fill="none" stroke="black" points="140,-589.5 140,-608.5 208,-608.5 208,-589.5 140,-589.5"/>
<text text-anchor="middle" x="174" y="-596.5" font-family="Helvetica,sans-Serif" font-size="10.00">PauseMenu</text>
</a>
</g>
</g>
<!-- Node7&#45;&gt;Node33 -->
<g id="edge26" class="edge">
<title>Node7&#45;&gt;Node33</title>
<path fill="none" stroke="midnightblue" d="M52.85,-694.74C65.77,-673.49 89.76,-638.68 119,-618 125.25,-613.58 132.62,-610.1 139.88,-607.4"/>
<polygon fill="midnightblue" stroke="midnightblue" points="49.78,-693.06 47.72,-703.45 55.81,-696.61 49.78,-693.06"/>
</g>
<!-- Node34 -->
<g id="node28" class="node">
<title>Node34</title>
<g id="a_node28"><a xlink:href="class_player_controller.html" target="_top" xlink:title="Player Controller is the main class that handles all the movement of the Player.">
<polygon fill="none" stroke="black" points="131,-551.5 131,-570.5 217,-570.5 217,-551.5 131,-551.5"/>
<text text-anchor="middle" x="174" y="-558.5" font-family="Helvetica,sans-Serif" font-size="10.00">PlayerController</text>
</a>
</g>
</g>
<!-- Node7&#45;&gt;Node34 -->
<g id="edge27" class="edge">
<title>Node7&#45;&gt;Node34</title>
<path fill="none" stroke="midnightblue" d="M48.67,-693.75C58.84,-665.01 81.77,-610.95 119,-580 123.66,-576.12 129.17,-573.02 134.85,-570.53"/>
<polygon fill="midnightblue" stroke="midnightblue" points="45.29,-692.83 45.4,-703.42 51.92,-695.07 45.29,-692.83"/>
</g>
<!-- Node35 -->
<g id="node29" class="node">
<title>Node35</title>
<g id="a_node29"><a xlink:href="class_player_h_u_d_controller.html" target="_top" xlink:title=" ">
<polygon fill="none" stroke="black" points="121,-513.5 121,-532.5 227,-532.5 227,-513.5 121,-513.5"/>
<text text-anchor="middle" x="174" y="-520.5" font-family="Helvetica,sans-Serif" font-size="10.00">PlayerHUDController</text>
</a>
</g>
</g>
<!-- Node7&#45;&gt;Node35 -->
<g id="edge28" class="edge">
<title>Node7&#45;&gt;Node35</title>
<path fill="none" stroke="midnightblue" d="M46.02,-693.33C53.34,-658.08 73.45,-583.95 119,-542 123.24,-538.1 128.33,-534.98 133.67,-532.51"/>
<polygon fill="midnightblue" stroke="midnightblue" points="42.55,-692.83 44.08,-703.32 49.43,-694.17 42.55,-692.83"/>
</g>
<!-- Node36 -->
<g id="node30" class="node">
<title>Node36</title>
<g id="a_node30"><a xlink:href="class_post_game_menu.html" target="_top" xlink:title=" ">
<polygon fill="none" stroke="black" points="130.5,-475.5 130.5,-494.5 217.5,-494.5 217.5,-475.5 130.5,-475.5"/>
<text text-anchor="middle" x="174" y="-482.5" font-family="Helvetica,sans-Serif" font-size="10.00">PostGameMenu</text>
</a>
</g>
</g>
<!-- Node7&#45;&gt;Node36 -->
<g id="edge29" class="edge">
<title>Node7&#45;&gt;Node36</title>
<path fill="none" stroke="midnightblue" d="M44.22,-693.04C48.81,-651.96 64.97,-557.36 119,-504 122.96,-500.09 127.77,-496.98 132.87,-494.51"/>
<polygon fill="midnightblue" stroke="midnightblue" points="40.72,-692.83 43.21,-703.13 47.69,-693.52 40.72,-692.83"/>
</g>
<!-- Node37 -->
<g id="node31" class="node">
<title>Node37</title>
<g id="a_node31"><a xlink:href="class_press_any_key.html" target="_top" xlink:title="Detects when the player pressed any key and connects to the server accordingly.">
<polygon fill="none" stroke="black" points="135.5,-437.5 135.5,-456.5 212.5,-456.5 212.5,-437.5 135.5,-437.5"/>
<text text-anchor="middle" x="174" y="-444.5" font-family="Helvetica,sans-Serif" font-size="10.00">PressAnyKey</text>
</a>
</g>
</g>
<!-- Node7&#45;&gt;Node37 -->
<g id="edge30" class="edge">
<title>Node7&#45;&gt;Node37</title>
<path fill="none" stroke="midnightblue" d="M42.88,-693.31C44.85,-647.22 56.14,-531.29 119,-466 123.55,-461.27 129.34,-457.72 135.43,-455.05"/>
<polygon fill="midnightblue" stroke="midnightblue" points="39.38,-693.34 42.56,-703.45 46.38,-693.57 39.38,-693.34"/>
</g>
<!-- Node38 -->
<g id="node32" class="node">
<title>Node38</title>
<g id="a_node32"><a xlink:href="class_profile_panel.html" target="_top" xlink:title=" ">
<polygon fill="none" stroke="black" points="140,-399.5 140,-418.5 208,-418.5 208,-399.5 140,-399.5"/>
<text text-anchor="middle" x="174" y="-406.5" font-family="Helvetica,sans-Serif" font-size="10.00">ProfilePanel</text>
</a>
</g>
</g>
<!-- Node7&#45;&gt;Node38 -->
<g id="edge31" class="edge">
<title>Node7&#45;&gt;Node38</title>
<path fill="none" stroke="midnightblue" d="M41.9,-693.11C41.47,-642.11 47.44,-505.22 119,-428 124.54,-422.02 132.07,-417.92 139.75,-415.12"/>
<polygon fill="midnightblue" stroke="midnightblue" points="38.41,-693.47 42.09,-703.4 45.41,-693.34 38.41,-693.47"/>
</g>
<!-- Node39 -->
<g id="node33" class="node">
<title>Node39</title>
<g id="a_node33"><a xlink:href="class_ranged_attack_follow.html" target="_top" xlink:title=" ">
<polygon fill="none" stroke="black" points="121,-361.5 121,-380.5 227,-380.5 227,-361.5 121,-361.5"/>
<text text-anchor="middle" x="174" y="-368.5" font-family="Helvetica,sans-Serif" font-size="10.00">RangedAttackFollow</text>
</a>
</g>
</g>
<!-- Node7&#45;&gt;Node39 -->
<g id="edge32" class="edge">
<title>Node7&#45;&gt;Node39</title>
<path fill="none" stroke="midnightblue" d="M44.7,-693.21C52.08,-630.2 77.82,-435.78 119,-390 122.52,-386.08 126.9,-382.97 131.63,-380.51"/>
<polygon fill="midnightblue" stroke="midnightblue" points="41.2,-693.04 43.54,-703.38 48.15,-693.84 41.2,-693.04"/>
</g>
<!-- Node40 -->
<g id="node34" class="node">
<title>Node40</title>
<g id="a_node34"><a xlink:href="class_respawn_canvas.html" target="_top" xlink:title=" ">
<polygon fill="none" stroke="black" points="130,-323.5 130,-342.5 218,-342.5 218,-323.5 130,-323.5"/>
<text text-anchor="middle" x="174" y="-330.5" font-family="Helvetica,sans-Serif" font-size="10.00">RespawnCanvas</text>
</a>
</g>
</g>
<!-- Node7&#45;&gt;Node40 -->
<g id="edge33" class="edge">
<title>Node7&#45;&gt;Node40</title>
<path fill="none" stroke="midnightblue" d="M44.18,-693.13C50.27,-625.26 73.34,-403.99 119,-352 122.41,-348.12 126.66,-345.03 131.28,-342.57"/>
<polygon fill="midnightblue" stroke="midnightblue" points="40.67,-693.04 43.29,-703.3 47.64,-693.64 40.67,-693.04"/>
</g>
<!-- Node41 -->
<g id="node35" class="node">
<title>Node41</title>
<g id="a_node35"><a xlink:href="class_show_ping.html" target="_top" xlink:title=" ">
<polygon fill="none" stroke="black" points="144,-285.5 144,-304.5 204,-304.5 204,-285.5 144,-285.5"/>
<text text-anchor="middle" x="174" y="-292.5" font-family="Helvetica,sans-Serif" font-size="10.00">ShowPing</text>
</a>
</g>
</g>
<!-- Node7&#45;&gt;Node41 -->
<g id="edge34" class="edge">
<title>Node7&#45;&gt;Node41</title>
<path fill="none" stroke="midnightblue" d="M43.72,-693.4C48.57,-621.36 68.76,-372.34 119,-314 125.36,-306.62 134.76,-302.11 143.94,-299.34"/>
<polygon fill="midnightblue" stroke="midnightblue" points="40.23,-693.18 43.07,-703.39 47.21,-693.64 40.23,-693.18"/>
</g>
<!-- Node42 -->
<g id="node36" class="node">
<title>Node42</title>
<g id="a_node36"><a xlink:href="class_singleton.html" target="_top" xlink:title="Singleton Base class.">
<polygon fill="none" stroke="black" points="134,-247.5 134,-266.5 214,-266.5 214,-247.5 134,-247.5"/>
<text text-anchor="middle" x="174" y="-254.5" font-family="Helvetica,sans-Serif" font-size="10.00">Singleton&lt; T &gt;</text>
</a>
</g>
</g>
<!-- Node7&#45;&gt;Node42 -->
<g id="edge35" class="edge">
<title>Node7&#45;&gt;Node42</title>
<path fill="none" stroke="midnightblue" d="M43.38,-693.05C47.14,-616.22 64.3,-340.56 119,-276 122.98,-271.3 128.2,-267.76 133.83,-265.1"/>
<polygon fill="midnightblue" stroke="midnightblue" points="39.87,-693.1 42.9,-703.25 46.86,-693.43 39.87,-693.1"/>
</g>
<!-- Node43 -->
<g id="node37" class="node">
<title>Node43</title>
<g id="a_node37"><a xlink:href="class_stats.html" target="_top" xlink:title="Base class Stats of the entity.">
<polygon fill="none" stroke="black" points="154,-209.5 154,-228.5 194,-228.5 194,-209.5 154,-209.5"/>
<text text-anchor="middle" x="174" y="-216.5" font-family="Helvetica,sans-Serif" font-size="10.00">Stats</text>
</a>
</g>
</g>
<!-- Node7&#45;&gt;Node43 -->
<g id="edge36" class="edge">
<title>Node7&#45;&gt;Node43</title>
<path fill="none" stroke="midnightblue" d="M43.08,-692.9C45.79,-611.7 59.78,-308.87 119,-238 127.6,-227.7 142.15,-222.98 153.98,-220.82"/>
<polygon fill="midnightblue" stroke="midnightblue" points="39.57,-693.11 42.75,-703.22 46.56,-693.33 39.57,-693.11"/>
</g>
<!-- Node51 -->
<g id="node45" class="node">
<title>Node51</title>
<g id="a_node45"><a xlink:href="class_turret_indicator.html" target="_top" xlink:title=" ">
<polygon fill="none" stroke="black" points="135,-171.5 135,-190.5 213,-190.5 213,-171.5 135,-171.5"/>
<text text-anchor="middle" x="174" y="-178.5" font-family="Helvetica,sans-Serif" font-size="10.00">TurretIndicator</text>
</a>
</g>
</g>
<!-- Node7&#45;&gt;Node51 -->
<g id="edge44" class="edge">
<title>Node7&#45;&gt;Node51</title>
<path fill="none" stroke="midnightblue" d="M42.8,-693.21C44.49,-608.51 55.14,-277.34 119,-200 123.18,-194.94 128.79,-191.23 134.82,-188.5"/>
<polygon fill="midnightblue" stroke="midnightblue" points="39.3,-693.22 42.62,-703.28 46.3,-693.34 39.3,-693.22"/>
</g>
<!-- Node52 -->
<g id="node46" class="node">
<title>Node52</title>
<g id="a_node46"><a xlink:href="class_turret_ray.html" target="_top" xlink:title=" ">
<polygon fill="none" stroke="black" points="144.5,-133.5 144.5,-152.5 203.5,-152.5 203.5,-133.5 144.5,-133.5"/>
<text text-anchor="middle" x="174" y="-140.5" font-family="Helvetica,sans-Serif" font-size="10.00">TurretRay</text>
</a>
</g>
</g>
<!-- Node7&#45;&gt;Node52 -->
<g id="edge45" class="edge">
<title>Node7&#45;&gt;Node52</title>
<path fill="none" stroke="midnightblue" d="M42.58,-693.19C43.32,-604.62 50.56,-245.73 119,-162 125.29,-154.3 134.9,-149.72 144.29,-146.99"/>
<polygon fill="midnightblue" stroke="midnightblue" points="39.08,-693.41 42.51,-703.43 46.08,-693.45 39.08,-693.41"/>
</g>
<!-- Node53 -->
<g id="node47" class="node">
<title>Node53</title>
<g id="a_node47"><a xlink:href="class_turret_shooter.html" target="_top" xlink:title="This detects all the nearby attackable entities and shoots them if they are from the enemy team.">
<polygon fill="none" stroke="black" points="136.5,-95.5 136.5,-114.5 211.5,-114.5 211.5,-95.5 136.5,-95.5"/>
<text text-anchor="middle" x="174" y="-102.5" font-family="Helvetica,sans-Serif" font-size="10.00">TurretShooter</text>
</a>
</g>
</g>
<!-- Node7&#45;&gt;Node53 -->
<g id="edge46" class="edge">
<title>Node7&#45;&gt;Node53</title>
<path fill="none" stroke="midnightblue" d="M42.38,-693C42.23,-600.41 46.02,-214.1 119,-124 123.5,-118.44 129.75,-114.5 136.39,-111.72"/>
<polygon fill="midnightblue" stroke="midnightblue" points="38.88,-693.24 42.42,-703.22 45.88,-693.21 38.88,-693.24"/>
</g>
<!-- Node54 -->
<g id="node48" class="node">
<title>Node54</title>
<g id="a_node48"><a xlink:href="class_u_i_controller.html" target="_top" xlink:title="Base abstract class for all the entities that have UI and Stats in the game.">
<polygon fill="none" stroke="black" points="140.5,-57.5 140.5,-76.5 207.5,-76.5 207.5,-57.5 140.5,-57.5"/>
<text text-anchor="middle" x="174" y="-64.5" font-family="Helvetica,sans-Serif" font-size="10.00">UIController</text>
</a>
</g>
</g>
<!-- Node7&#45;&gt;Node54 -->
<g id="edge47" class="edge">
<title>Node7&#45;&gt;Node54</title>
<path fill="none" stroke="midnightblue" d="M42.21,-692.94C41.19,-596.64 41.44,-182.52 119,-86 124.35,-79.34 132.2,-75.01 140.27,-72.19"/>
<polygon fill="midnightblue" stroke="midnightblue" points="38.71,-693.11 42.33,-703.06 45.71,-693.02 38.71,-693.11"/>
</g>
<!-- Node1 -->
<g id="node3" class="node">
<title>Node1</title>
<g id="a_node3"><a xlink:href="class_ability___lis1.html" target="_top" xlink:title=" ">
<polygon fill="none" stroke="black" points="285,-1368.5 285,-1387.5 352,-1387.5 352,-1368.5 285,-1368.5"/>
<text text-anchor="middle" x="318.5" y="-1375.5" font-family="Helvetica,sans-Serif" font-size="10.00">Ability_Lis1</text>
</a>
</g>
</g>
<!-- Node0&#45;&gt;Node1 -->
<g id="edge2" class="edge">
<title>Node0&#45;&gt;Node1</title>
<path fill="none" stroke="midnightblue" d="M217.53,-1364.67C239.08,-1367.54 264.83,-1370.98 284.8,-1373.64"/>
<polygon fill="midnightblue" stroke="midnightblue" points="217.71,-1361.16 207.34,-1363.31 216.79,-1368.1 217.71,-1361.16"/>
</g>
<!-- Node2 -->
<g id="node4" class="node">
<title>Node2</title>
<g id="a_node4"><a xlink:href="class_ability___lis4.html" target="_top" xlink:title=" ">
<polygon fill="none" stroke="black" points="285,-1330.5 285,-1349.5 352,-1349.5 352,-1330.5 285,-1330.5"/>
<text text-anchor="middle" x="318.5" y="-1337.5" font-family="Helvetica,sans-Serif" font-size="10.00">Ability_Lis4</text>
</a>
</g>
</g>
<!-- Node0&#45;&gt;Node2 -->
<g id="edge3" class="edge">
<title>Node0&#45;&gt;Node2</title>
<path fill="none" stroke="midnightblue" d="M217.53,-1353.33C239.08,-1350.46 264.83,-1347.02 284.8,-1344.36"/>
<polygon fill="midnightblue" stroke="midnightblue" points="216.79,-1349.9 207.34,-1354.69 217.71,-1356.84 216.79,-1349.9"/>
</g>
<!-- Node22 -->
<g id="node16" class="node">
<title>Node22</title>
<g id="a_node16"><a xlink:href="class_coin.html" target="_top" xlink:title=" ">
<polygon fill="none" stroke="black" points="300.5,-969.5 300.5,-988.5 336.5,-988.5 336.5,-969.5 300.5,-969.5"/>
<text text-anchor="middle" x="318.5" y="-976.5" font-family="Helvetica,sans-Serif" font-size="10.00">Coin</text>
</a>
</g>
</g>
<!-- Node21&#45;&gt;Node22 -->
<g id="edge15" class="edge">
<title>Node21&#45;&gt;Node22</title>
<path fill="none" stroke="midnightblue" d="M202.66,-948.38C231.62,-956.1 276.19,-967.98 300.41,-974.44"/>
<polygon fill="midnightblue" stroke="midnightblue" points="203.32,-944.93 192.76,-945.74 201.52,-951.69 203.32,-944.93"/>
</g>
<!-- Node23 -->
<g id="node17" class="node">
<title>Node23</title>
<g id="a_node17"><a xlink:href="class_diamond.html" target="_top" xlink:title=" ">
<polygon fill="none" stroke="black" points="291,-931.5 291,-950.5 346,-950.5 346,-931.5 291,-931.5"/>
<text text-anchor="middle" x="318.5" y="-938.5" font-family="Helvetica,sans-Serif" font-size="10.00">Diamond</text>
</a>
</g>
</g>
<!-- Node21&#45;&gt;Node23 -->
<g id="edge16" class="edge">
<title>Node21&#45;&gt;Node23</title>
<path fill="none" stroke="midnightblue" d="M202.86,-941C228.31,-941 265.67,-941 290.75,-941"/>
<polygon fill="midnightblue" stroke="midnightblue" points="202.76,-937.5 192.76,-941 202.76,-944.5 202.76,-937.5"/>
</g>
<!-- Node24 -->
<g id="node18" class="node">
<title>Node24</title>
<g id="a_node18"><a xlink:href="class_heart.html" target="_top" xlink:title=" ">
<polygon fill="none" stroke="black" points="298.5,-893.5 298.5,-912.5 338.5,-912.5 338.5,-893.5 298.5,-893.5"/>
<text text-anchor="middle" x="318.5" y="-900.5" font-family="Helvetica,sans-Serif" font-size="10.00">Heart</text>
</a>
</g>
</g>
<!-- Node21&#45;&gt;Node24 -->
<g id="edge17" class="edge">
<title>Node21&#45;&gt;Node24</title>
<path fill="none" stroke="midnightblue" d="M202.74,-933.6C230.82,-926.11 273.52,-914.73 298.15,-908.16"/>
<polygon fill="midnightblue" stroke="midnightblue" points="201.52,-930.31 192.76,-936.26 203.32,-937.07 201.52,-930.31"/>
</g>
<!-- Node44 -->
<g id="node38" class="node">
<title>Node44</title>
<g id="a_node38"><a xlink:href="class_ability_affected_stats.html" target="_top" xlink:title=" ">
<polygon fill="none" stroke="black" points="267.5,-228.5 267.5,-247.5 369.5,-247.5 369.5,-228.5 267.5,-228.5"/>
<text text-anchor="middle" x="318.5" y="-235.5" font-family="Helvetica,sans-Serif" font-size="10.00">AbilityAffectedStats</text>
</a>
</g>
</g>
<!-- Node43&#45;&gt;Node44 -->
<g id="edge37" class="edge">
<title>Node43&#45;&gt;Node44</title>
<path fill="none" stroke="midnightblue" d="M204.2,-222.89C222.38,-225.32 246.24,-228.5 267.38,-231.32"/>
<polygon fill="midnightblue" stroke="midnightblue" points="204.59,-219.41 194.22,-221.56 203.67,-226.35 204.59,-219.41"/>
</g>
<!-- Node48 -->
<g id="node42" class="node">
<title>Node48</title>
<g id="a_node42"><a xlink:href="class_structure_stats.html" target="_top" xlink:title=" ">
<polygon fill="none" stroke="black" points="278.5,-190.5 278.5,-209.5 358.5,-209.5 358.5,-190.5 278.5,-190.5"/>
<text text-anchor="middle" x="318.5" y="-197.5" font-family="Helvetica,sans-Serif" font-size="10.00">StructureStats</text>
</a>
</g>
</g>
<!-- Node43&#45;&gt;Node48 -->
<g id="edge41" class="edge">
<title>Node43&#45;&gt;Node48</title>
<path fill="none" stroke="midnightblue" d="M204.34,-215.09C225.78,-212.23 255.07,-208.32 278.48,-205.2"/>
<polygon fill="midnightblue" stroke="midnightblue" points="203.67,-211.65 194.22,-216.44 204.59,-218.59 203.67,-211.65"/>
</g>
<!-- Node45 -->
<g id="node39" class="node">
<title>Node45</title>
<g id="a_node39"><a xlink:href="class_minion_stats.html" target="_top" xlink:title="Minion Stats is the main class that controls all the Minion Statistics for every Minion entity within...">
<polygon fill="none" stroke="black" points="421.5,-266.5 421.5,-285.5 489.5,-285.5 489.5,-266.5 421.5,-266.5"/>
<text text-anchor="middle" x="455.5" y="-273.5" font-family="Helvetica,sans-Serif" font-size="10.00">MinionStats</text>
</a>
</g>
</g>
<!-- Node44&#45;&gt;Node45 -->
<g id="edge38" class="edge">
<title>Node44&#45;&gt;Node45</title>
<path fill="none" stroke="midnightblue" d="M363.42,-250.36C382.26,-255.67 403.91,-261.76 421.38,-266.68"/>
<polygon fill="midnightblue" stroke="midnightblue" points="364.14,-246.93 353.57,-247.59 362.24,-253.67 364.14,-246.93"/>
</g>
<!-- Node46 -->
<g id="node40" class="node">
<title>Node46</title>
<g id="a_node40"><a xlink:href="class_player_stats.html" target="_top" xlink:title="Player Stats is the main class that controls all the Player Statistics in all time in the game execut...">
<polygon fill="none" stroke="black" points="421.5,-228.5 421.5,-247.5 489.5,-247.5 489.5,-228.5 421.5,-228.5"/>
<text text-anchor="middle" x="455.5" y="-235.5" font-family="Helvetica,sans-Serif" font-size="10.00">PlayerStats</text>
</a>
</g>
</g>
<!-- Node44&#45;&gt;Node46 -->
<g id="edge39" class="edge">
<title>Node44&#45;&gt;Node46</title>
<path fill="none" stroke="midnightblue" d="M380.02,-238C394.25,-238 408.89,-238 421.39,-238"/>
<polygon fill="midnightblue" stroke="midnightblue" points="379.77,-234.5 369.77,-238 379.77,-241.5 379.77,-234.5"/>
</g>
<!-- Node47 -->
<g id="node41" class="node">
<title>Node47</title>
<g id="a_node41"><a xlink:href="class_mannequin_stats.html" target="_top" xlink:title=" ">
<polygon fill="none" stroke="black" points="539,-228.5 539,-247.5 626,-247.5 626,-228.5 539,-228.5"/>
<text text-anchor="middle" x="582.5" y="-235.5" font-family="Helvetica,sans-Serif" font-size="10.00">MannequinStats</text>
</a>
</g>
</g>
<!-- Node46&#45;&gt;Node47 -->
<g id="edge40" class="edge">
<title>Node46&#45;&gt;Node47</title>
<path fill="none" stroke="midnightblue" d="M499.91,-238C512.49,-238 526.2,-238 538.73,-238"/>
<polygon fill="midnightblue" stroke="midnightblue" points="499.67,-234.5 489.67,-238 499.67,-241.5 499.67,-234.5"/>
</g>
<!-- Node49 -->
<g id="node43" class="node">
<title>Node49</title>
<g id="a_node43"><a xlink:href="class_nexus_stats.html" target="_top" xlink:title=" ">
<polygon fill="none" stroke="black" points="421.5,-190.5 421.5,-209.5 489.5,-209.5 489.5,-190.5 421.5,-190.5"/>
<text text-anchor="middle" x="455.5" y="-197.5" font-family="Helvetica,sans-Serif" font-size="10.00">NexusStats</text>
</a>
</g>
</g>
<!-- Node48&#45;&gt;Node49 -->
<g id="edge42" class="edge">
<title>Node48&#45;&gt;Node49</title>
<path fill="none" stroke="midnightblue" d="M368.65,-200C386.22,-200 405.59,-200 421.48,-200"/>
<polygon fill="midnightblue" stroke="midnightblue" points="368.55,-196.5 358.55,-200 368.55,-203.5 368.55,-196.5"/>
</g>
<!-- Node50 -->
<g id="node44" class="node">
<title>Node50</title>
<g id="a_node44"><a xlink:href="class_turret_stats.html" target="_top" xlink:title=" ">
<polygon fill="none" stroke="black" points="423,-152.5 423,-171.5 488,-171.5 488,-152.5 423,-152.5"/>
<text text-anchor="middle" x="455.5" y="-159.5" font-family="Helvetica,sans-Serif" font-size="10.00">TurretStats</text>
</a>
</g>
</g>
<!-- Node48&#45;&gt;Node50 -->
<g id="edge43" class="edge">
<title>Node48&#45;&gt;Node50</title>
<path fill="none" stroke="midnightblue" d="M363.38,-187.65C382.73,-182.2 405.06,-175.92 422.76,-170.93"/>
<polygon fill="midnightblue" stroke="midnightblue" points="362.24,-184.33 353.57,-190.41 364.14,-191.07 362.24,-184.33"/>
</g>
<!-- Node55 -->
<g id="node49" class="node">
<title>Node55</title>
<g id="a_node49"><a xlink:href="class_minion_u_i_controller.html" target="_top" xlink:title="UIController for all the Minion entities of the game.">
<polygon fill="none" stroke="black" points="271,-95.5 271,-114.5 366,-114.5 366,-95.5 271,-95.5"/>
<text text-anchor="middle" x="318.5" y="-102.5" font-family="Helvetica,sans-Serif" font-size="10.00">MinionUIController</text>
</a>
</g>
</g>
<!-- Node54&#45;&gt;Node55 -->
<g id="edge48" class="edge">
<title>Node54&#45;&gt;Node55</title>
<path fill="none" stroke="midnightblue" d="M217.4,-78.31C237.88,-83.77 262.18,-90.25 281.71,-95.46"/>
<polygon fill="midnightblue" stroke="midnightblue" points="218.26,-74.91 207.69,-75.72 216.45,-81.68 218.26,-74.91"/>
</g>
<!-- Node56 -->
<g id="node50" class="node">
<title>Node56</title>
<g id="a_node50"><a xlink:href="class_player_u_i_controller.html" target="_top" xlink:title="UI Controller for the Player Stats">
<polygon fill="none" stroke="black" points="271,-57.5 271,-76.5 366,-76.5 366,-57.5 271,-57.5"/>
<text text-anchor="middle" x="318.5" y="-64.5" font-family="Helvetica,sans-Serif" font-size="10.00">PlayerUIController</text>
</a>
</g>
</g>
<!-- Node54&#45;&gt;Node56 -->
<g id="edge49" class="edge">
<title>Node54&#45;&gt;Node56</title>
<path fill="none" stroke="midnightblue" d="M217.76,-67C234.52,-67 253.8,-67 270.92,-67"/>
<polygon fill="midnightblue" stroke="midnightblue" points="217.69,-63.5 207.69,-67 217.69,-70.5 217.69,-63.5"/>
</g>
<!-- Node57 -->
<g id="node51" class="node">
<title>Node57</title>
<g id="a_node51"><a xlink:href="class_structure_u_i_controller.html" target="_top" xlink:title=" ">
<polygon fill="none" stroke="black" points="265,-19.5 265,-38.5 372,-38.5 372,-19.5 265,-19.5"/>
<text text-anchor="middle" x="318.5" y="-26.5" font-family="Helvetica,sans-Serif" font-size="10.00">StructureUIController</text>
</a>
</g>
</g>
<!-- Node54&#45;&gt;Node57 -->
<g id="edge50" class="edge">
<title>Node54&#45;&gt;Node57</title>
<path fill="none" stroke="midnightblue" d="M217.4,-55.69C237.88,-50.23 262.18,-43.75 281.71,-38.54"/>
<polygon fill="midnightblue" stroke="midnightblue" points="216.45,-52.32 207.69,-58.28 218.26,-59.09 216.45,-52.32"/>
</g>
<!-- Node58 -->
<g id="node52" class="node">
<title>Node58</title>
<g id="a_node52"><a xlink:href="class_nexus_u_i_controller.html" target="_top" xlink:title=" ">
<polygon fill="none" stroke="black" points="408,-38.5 408,-57.5 503,-57.5 503,-38.5 408,-38.5"/>
<text text-anchor="middle" x="455.5" y="-45.5" font-family="Helvetica,sans-Serif" font-size="10.00">NexusUIController</text>
</a>
</g>
</g>
<!-- Node57&#45;&gt;Node58 -->
<g id="edge51" class="edge">
<title>Node57&#45;&gt;Node58</title>
<path fill="none" stroke="midnightblue" d="M382.19,-37.82C390.88,-39.05 399.67,-40.28 407.99,-41.45"/>
<polygon fill="midnightblue" stroke="midnightblue" points="382.47,-34.33 372.08,-36.4 381.5,-41.26 382.47,-34.33"/>
</g>
<!-- Node59 -->
<g id="node53" class="node">
<title>Node59</title>
<g id="a_node53"><a xlink:href="class_turret_u_i_controller.html" target="_top" xlink:title=" ">
<polygon fill="none" stroke="black" points="409.5,-0.5 409.5,-19.5 501.5,-19.5 501.5,-0.5 409.5,-0.5"/>
<text text-anchor="middle" x="455.5" y="-7.5" font-family="Helvetica,sans-Serif" font-size="10.00">TurretUIController</text>
</a>
</g>
</g>
<!-- Node57&#45;&gt;Node59 -->
<g id="edge52" class="edge">
<title>Node57&#45;&gt;Node59</title>
<path fill="none" stroke="midnightblue" d="M381.99,-20.21C391.19,-18.91 400.53,-17.6 409.29,-16.36"/>
<polygon fill="midnightblue" stroke="midnightblue" points="381.5,-16.74 372.08,-21.6 382.47,-23.67 381.5,-16.74"/>
</g>
</g>
</svg>
