<?xml version="1.0" encoding="UTF-8" standalone="no"?>
<!DOCTYPE svg PUBLIC "-//W3C//DTD SVG 1.1//EN"
 "http://www.w3.org/Graphics/SVG/1.1/DTD/svg11.dtd">
<!-- Generated by graphviz version 2.47.3 (20210619.1520)
 -->
<!-- Title: Jerarquia Gràfica de la Classe Pages: 1 -->
<svg width="655pt" height="1586pt"
 viewBox="0.00 0.00 655.00 1586.00" xmlns="http://www.w3.org/2000/svg" xmlns:xlink="http://www.w3.org/1999/xlink">
<g id="graph0" class="graph" transform="scale(1 1) rotate(0) translate(4 1582)">
<title>Jerarquia Gràfica de la Classe</title>
<!-- Node3 -->
<g id="node1" class="node">
<title>Node3</title>
<g id="a_node1"><a xlink:title=" ">
<polygon fill="none" stroke="#bfbfbf" points="0,-1539.5 0,-1558.5 104,-1558.5 104,-1539.5 0,-1539.5"/>
<text text-anchor="middle" x="52" y="-1546.5" font-family="Helvetica,sans-Serif" font-size="10.00">IPointerClickHandler</text>
</a>
</g>
</g>
<!-- Node0 -->
<g id="node2" class="node">
<title>Node0</title>
<g id="a_node2"><a xlink:href="class_item_u_i.html" target="_top" xlink:title=" ">
<polygon fill="none" stroke="black" points="173,-1558.5 173,-1577.5 217,-1577.5 217,-1558.5 173,-1558.5"/>
<text text-anchor="middle" x="195" y="-1565.5" font-family="Helvetica,sans-Serif" font-size="10.00">ItemUI</text>
</a>
</g>
</g>
<!-- Node3&#45;&gt;Node0 -->
<g id="edge1" class="edge">
<title>Node3&#45;&gt;Node0</title>
<path fill="none" stroke="midnightblue" d="M114.42,-1557.28C135.27,-1560.09 157.2,-1563.04 172.75,-1565.14"/>
<polygon fill="midnightblue" stroke="midnightblue" points="114.68,-1553.78 104.3,-1555.91 113.75,-1560.72 114.68,-1553.78"/>
</g>
<!-- Node5 -->
<g id="node3" class="node">
<title>Node5</title>
<g id="a_node3"><a xlink:href="class_sellable_item_u_i.html" target="_top" xlink:title=" ">
<polygon fill="none" stroke="black" points="155.5,-1520.5 155.5,-1539.5 234.5,-1539.5 234.5,-1520.5 155.5,-1520.5"/>
<text text-anchor="middle" x="195" y="-1527.5" font-family="Helvetica,sans-Serif" font-size="10.00">SellableItemUI</text>
</a>
</g>
</g>
<!-- Node3&#45;&gt;Node5 -->
<g id="edge2" class="edge">
<title>Node3&#45;&gt;Node5</title>
<path fill="none" stroke="midnightblue" d="M114.33,-1540.74C128.25,-1538.86 142.66,-1536.92 155.34,-1535.21"/>
<polygon fill="midnightblue" stroke="midnightblue" points="113.75,-1537.28 104.3,-1542.09 114.68,-1544.22 113.75,-1537.28"/>
</g>
<!-- Node8 -->
<g id="node4" class="node">
<title>Node8</title>
<g id="a_node4"><a xlink:title=" ">
<polygon fill="none" stroke="#bfbfbf" points="10.5,-779.5 10.5,-798.5 93.5,-798.5 93.5,-779.5 10.5,-779.5"/>
<text text-anchor="middle" x="52" y="-786.5" font-family="Helvetica,sans-Serif" font-size="10.00">MonoBehaviour</text>
</a>
</g>
</g>
<!-- Node8&#45;&gt;Node0 -->
<g id="edge26" class="edge">
<title>Node8&#45;&gt;Node0</title>
<path fill="none" stroke="midnightblue" d="M54.01,-808.58C60.01,-921.74 92.32,-1489.21 140,-1549 147.93,-1558.95 161.43,-1563.7 172.95,-1565.96"/>
<polygon fill="midnightblue" stroke="midnightblue" points="57.5,-808.37 53.49,-798.56 50.51,-808.73 57.5,-808.37"/>
</g>
<!-- Node8&#45;&gt;Node5 -->
<g id="edge40" class="edge">
<title>Node8&#45;&gt;Node5</title>
<path fill="none" stroke="midnightblue" d="M52.66,-809.06C51.29,-913.94 49.94,-1398.76 140,-1511 144.04,-1516.04 149.51,-1519.74 155.43,-1522.47"/>
<polygon fill="midnightblue" stroke="midnightblue" points="56.16,-808.95 52.81,-798.9 49.16,-808.85 56.16,-808.95"/>
</g>
<!-- Node9 -->
<g id="node5" class="node">
<title>Node9</title>
<g id="a_node5"><a xlink:href="class_ability_base.html" target="_top" xlink:title="Base class for all the Ability_Instanciable prefab scripts.">
<polygon fill="none" stroke="black" points="162,-1254.5 162,-1273.5 228,-1273.5 228,-1254.5 162,-1254.5"/>
<text text-anchor="middle" x="195" y="-1261.5" font-family="Helvetica,sans-Serif" font-size="10.00">AbilityBase</text>
</a>
</g>
</g>
<!-- Node8&#45;&gt;Node9 -->
<g id="edge3" class="edge">
<title>Node8&#45;&gt;Node9</title>
<path fill="none" stroke="midnightblue" d="M54.2,-808.83C59.35,-887.63 82.01,-1177.6 140,-1245 145.64,-1251.55 153.68,-1255.85 161.84,-1258.66"/>
<polygon fill="midnightblue" stroke="midnightblue" points="57.69,-808.55 53.57,-798.79 50.7,-808.99 57.69,-808.55"/>
</g>
<!-- Node12 -->
<g id="node8" class="node">
<title>Node12</title>
<g id="a_node8"><a xlink:href="class_ability_cooldown.html" target="_top" xlink:title=" ">
<polygon fill="none" stroke="black" points="152,-1216.5 152,-1235.5 238,-1235.5 238,-1216.5 152,-1216.5"/>
<text text-anchor="middle" x="195" y="-1223.5" font-family="Helvetica,sans-Serif" font-size="10.00">AbilityCooldown</text>
</a>
</g>
</g>
<!-- Node8&#45;&gt;Node12 -->
<g id="edge6" class="edge">
<title>Node8&#45;&gt;Node12</title>
<path fill="none" stroke="midnightblue" d="M54.59,-809.05C60.93,-883.93 86.6,-1145.97 140,-1207 143.4,-1210.89 147.65,-1213.98 152.26,-1216.44"/>
<polygon fill="midnightblue" stroke="midnightblue" points="58.05,-808.38 53.74,-798.7 51.08,-808.96 58.05,-808.38"/>
</g>
<!-- Node13 -->
<g id="node9" class="node">
<title>Node13</title>
<g id="a_node9"><a xlink:href="class_ability_display.html" target="_top" xlink:title=" ">
<polygon fill="none" stroke="black" points="157,-1178.5 157,-1197.5 233,-1197.5 233,-1178.5 157,-1178.5"/>
<text text-anchor="middle" x="195" y="-1185.5" font-family="Helvetica,sans-Serif" font-size="10.00">AbilityDisplay</text>
</a>
</g>
</g>
<!-- Node8&#45;&gt;Node13 -->
<g id="edge7" class="edge">
<title>Node8&#45;&gt;Node13</title>
<path fill="none" stroke="midnightblue" d="M55,-808.57C62.48,-878.41 91.01,-1114.12 140,-1169 144.57,-1174.12 150.59,-1177.85 156.96,-1180.59"/>
<polygon fill="midnightblue" stroke="midnightblue" points="58.46,-808.09 53.94,-798.51 51.5,-808.82 58.46,-808.09"/>
</g>
<!-- Node14 -->
<g id="node10" class="node">
<title>Node14</title>
<g id="a_node10"><a xlink:href="class_ability_indicator.html" target="_top" xlink:title=" ">
<polygon fill="none" stroke="black" points="155,-1140.5 155,-1159.5 235,-1159.5 235,-1140.5 155,-1140.5"/>
<text text-anchor="middle" x="195" y="-1147.5" font-family="Helvetica,sans-Serif" font-size="10.00">AbilityIndicator</text>
</a>
</g>
</g>
<!-- Node8&#45;&gt;Node14 -->
<g id="edge8" class="edge">
<title>Node8&#45;&gt;Node14</title>
<path fill="none" stroke="midnightblue" d="M55.55,-808.69C64.37,-874.04 95.53,-1082.38 140,-1131 144.09,-1135.47 149.3,-1138.89 154.86,-1141.51"/>
<polygon fill="midnightblue" stroke="midnightblue" points="58.99,-807.98 54.2,-798.53 52.05,-808.9 58.99,-807.98"/>
</g>
<!-- Node15 -->
<g id="node11" class="node">
<title>Node15</title>
<g id="a_node11"><a xlink:href="class_arrow_animation.html" target="_top" xlink:title=" ">
<polygon fill="none" stroke="black" points="152.5,-1102.5 152.5,-1121.5 237.5,-1121.5 237.5,-1102.5 152.5,-1102.5"/>
<text text-anchor="middle" x="195" y="-1109.5" font-family="Helvetica,sans-Serif" font-size="10.00">ArrowAnimation</text>
</a>
</g>
</g>
<!-- Node8&#45;&gt;Node15 -->
<g id="edge9" class="edge">
<title>Node8&#45;&gt;Node15</title>
<path fill="none" stroke="midnightblue" d="M52.78,-808.83C53.26,-862.16 61.97,-1010.17 140,-1093 143.68,-1096.91 148.21,-1100.01 153.07,-1102.48"/>
<polygon fill="midnightblue" stroke="midnightblue" points="56.28,-808.69 52.78,-798.69 49.28,-808.69 56.28,-808.69"/>
</g>
<!-- Node16 -->
<g id="node12" class="node">
<title>Node16</title>
<g id="a_node12"><a xlink:href="class_async_loader.html" target="_top" xlink:title=" ">
<polygon fill="none" stroke="black" points="158,-1064.5 158,-1083.5 232,-1083.5 232,-1064.5 158,-1064.5"/>
<text text-anchor="middle" x="195" y="-1071.5" font-family="Helvetica,sans-Serif" font-size="10.00">AsyncLoader</text>
</a>
</g>
</g>
<!-- Node8&#45;&gt;Node16 -->
<g id="edge10" class="edge">
<title>Node8&#45;&gt;Node16</title>
<path fill="none" stroke="midnightblue" d="M53.73,-808.6C56.58,-857.13 70.65,-984.09 140,-1055 144.93,-1060.04 151.28,-1063.75 157.89,-1066.48"/>
<polygon fill="midnightblue" stroke="midnightblue" points="57.22,-808.33 53.23,-798.51 50.23,-808.67 57.22,-808.33"/>
</g>
<!-- Node17 -->
<g id="node13" class="node">
<title>Node17</title>
<g id="a_node13"><a xlink:href="class_attack_range_indicator.html" target="_top" xlink:title="Script that shows and hides the Range Indicator of the basic attack.">
<polygon fill="none" stroke="black" points="140,-1026.5 140,-1045.5 250,-1045.5 250,-1026.5 140,-1026.5"/>
<text text-anchor="middle" x="195" y="-1033.5" font-family="Helvetica,sans-Serif" font-size="10.00">AttackRangeIndicator</text>
</a>
</g>
</g>
<!-- Node8&#45;&gt;Node17 -->
<g id="edge11" class="edge">
<title>Node8&#45;&gt;Node17</title>
<path fill="none" stroke="midnightblue" d="M55.02,-808.99C60.5,-852.82 79.55,-958.11 140,-1017 143.99,-1020.88 148.81,-1023.98 153.92,-1026.44"/>
<polygon fill="midnightblue" stroke="midnightblue" points="58.47,-808.33 53.86,-798.8 51.51,-809.13 58.47,-808.33"/>
</g>
<!-- Node18 -->
<g id="node14" class="node">
<title>Node18</title>
<g id="a_node14"><a xlink:href="class_background_scaling.html" target="_top" xlink:title="Image Scaling effect driven by a simple Sin equation.">
<polygon fill="none" stroke="black" points="144.5,-988.5 144.5,-1007.5 245.5,-1007.5 245.5,-988.5 144.5,-988.5"/>
<text text-anchor="middle" x="195" y="-995.5" font-family="Helvetica,sans-Serif" font-size="10.00">BackgroundScaling</text>
</a>
</g>
</g>
<!-- Node8&#45;&gt;Node18 -->
<g id="edge12" class="edge">
<title>Node8&#45;&gt;Node18</title>
<path fill="none" stroke="midnightblue" d="M56.71,-808.77C64.89,-847.02 88.05,-931.58 140,-979 144.26,-982.89 149.36,-985.99 154.7,-988.46"/>
<polygon fill="midnightblue" stroke="midnightblue" points="60.12,-807.98 54.71,-798.87 53.26,-809.37 60.12,-807.98"/>
</g>
<!-- Node19 -->
<g id="node15" class="node">
<title>Node19</title>
<g id="a_node15"><a xlink:href="class_base_regenerator.html" target="_top" xlink:title=" ">
<polygon fill="none" stroke="black" points="149,-950.5 149,-969.5 241,-969.5 241,-950.5 149,-950.5"/>
<text text-anchor="middle" x="195" y="-957.5" font-family="Helvetica,sans-Serif" font-size="10.00">BaseRegenerator</text>
</a>
</g>
</g>
<!-- Node8&#45;&gt;Node19 -->
<g id="edge13" class="edge">
<title>Node8&#45;&gt;Node19</title>
<path fill="none" stroke="midnightblue" d="M59.06,-808.31C70.06,-840.36 96.35,-904.63 140,-941 144.66,-944.88 150.16,-947.99 155.84,-950.48"/>
<polygon fill="midnightblue" stroke="midnightblue" points="62.36,-807.16 55.9,-798.76 55.71,-809.35 62.36,-807.16"/>
</g>
<!-- Node20 -->
<g id="node16" class="node">
<title>Node20</title>
<g id="a_node16"><a xlink:href="class_basic_attack.html" target="_top" xlink:title=" ">
<polygon fill="none" stroke="black" points="160,-912.5 160,-931.5 230,-931.5 230,-912.5 160,-912.5"/>
<text text-anchor="middle" x="195" y="-919.5" font-family="Helvetica,sans-Serif" font-size="10.00">BasicAttack</text>
</a>
</g>
</g>
<!-- Node8&#45;&gt;Node20 -->
<g id="edge14" class="edge">
<title>Node8&#45;&gt;Node20</title>
<path fill="none" stroke="midnightblue" d="M62.66,-807.65C76.55,-832.73 104.44,-877.15 140,-903 145.95,-907.32 152.97,-910.74 159.95,-913.4"/>
<polygon fill="midnightblue" stroke="midnightblue" points="65.71,-805.92 57.89,-798.78 59.54,-809.24 65.71,-805.92"/>
</g>
<!-- Node21 -->
<g id="node17" class="node">
<title>Node21</title>
<g id="a_node17"><a xlink:href="class_billboard.html" target="_top" xlink:title=" ">
<polygon fill="none" stroke="black" points="168,-874.5 168,-893.5 222,-893.5 222,-874.5 168,-874.5"/>
<text text-anchor="middle" x="195" y="-881.5" font-family="Helvetica,sans-Serif" font-size="10.00">Billboard</text>
</a>
</g>
</g>
<!-- Node8&#45;&gt;Node21 -->
<g id="edge15" class="edge">
<title>Node8&#45;&gt;Node21</title>
<path fill="none" stroke="midnightblue" d="M68.88,-806.27C85.28,-823.23 112.31,-848.84 140,-865 148.58,-870.01 158.7,-874 167.84,-877.01"/>
<polygon fill="midnightblue" stroke="midnightblue" points="71.15,-803.58 61.73,-798.72 66.07,-808.39 71.15,-803.58"/>
</g>
<!-- Node22 -->
<g id="node18" class="node">
<title>Node22</title>
<g id="a_node18"><a xlink:href="class_connection_manager.html" target="_top" xlink:title=" ">
<polygon fill="none" stroke="black" points="143.5,-836.5 143.5,-855.5 246.5,-855.5 246.5,-836.5 143.5,-836.5"/>
<text text-anchor="middle" x="195" y="-843.5" font-family="Helvetica,sans-Serif" font-size="10.00">ConnectionManager</text>
</a>
</g>
</g>
<!-- Node8&#45;&gt;Node22 -->
<g id="edge16" class="edge">
<title>Node8&#45;&gt;Node22</title>
<path fill="none" stroke="midnightblue" d="M83.15,-802.82C99.79,-810.28 120.9,-819.48 140,-827 148.23,-830.24 157.26,-833.52 165.55,-836.43"/>
<polygon fill="midnightblue" stroke="midnightblue" points="84.47,-799.58 73.91,-798.65 81.59,-805.96 84.47,-799.58"/>
</g>
<!-- Node23 -->
<g id="node19" class="node">
<title>Node23</title>
<g id="a_node19"><a xlink:href="class_current_item_shop.html" target="_top" xlink:title=" ">
<polygon fill="none" stroke="black" points="150.5,-798.5 150.5,-817.5 239.5,-817.5 239.5,-798.5 150.5,-798.5"/>
<text text-anchor="middle" x="195" y="-805.5" font-family="Helvetica,sans-Serif" font-size="10.00">CurrentItemShop</text>
</a>
</g>
</g>
<!-- Node8&#45;&gt;Node23 -->
<g id="edge17" class="edge">
<title>Node8&#45;&gt;Node23</title>
<path fill="none" stroke="midnightblue" d="M104.04,-795.88C119.22,-797.92 135.7,-800.14 150.36,-802.12"/>
<polygon fill="midnightblue" stroke="midnightblue" points="104.16,-792.36 93.78,-794.5 103.23,-799.3 104.16,-792.36"/>
</g>
<!-- Node24 -->
<g id="node20" class="node">
<title>Node24</title>
<g id="a_node20"><a xlink:href="class_drop.html" target="_top" xlink:title=" ">
<polygon fill="none" stroke="black" points="176.5,-760.5 176.5,-779.5 213.5,-779.5 213.5,-760.5 176.5,-760.5"/>
<text text-anchor="middle" x="195" y="-767.5" font-family="Helvetica,sans-Serif" font-size="10.00">Drop</text>
</a>
</g>
</g>
<!-- Node8&#45;&gt;Node24 -->
<g id="edge18" class="edge">
<title>Node8&#45;&gt;Node24</title>
<path fill="none" stroke="midnightblue" d="M103.99,-782.13C129.29,-778.72 158.22,-774.82 176.3,-772.38"/>
<polygon fill="midnightblue" stroke="midnightblue" points="103.23,-778.7 93.78,-783.5 104.16,-785.64 103.23,-778.7"/>
</g>
<!-- Node28 -->
<g id="node24" class="node">
<title>Node28</title>
<g id="a_node24"><a xlink:href="class_effect_h_u_d_controller.html" target="_top" xlink:title=" ">
<polygon fill="none" stroke="black" points="143.5,-722.5 143.5,-741.5 246.5,-741.5 246.5,-722.5 143.5,-722.5"/>
<text text-anchor="middle" x="195" y="-729.5" font-family="Helvetica,sans-Serif" font-size="10.00">EffectHUDController</text>
</a>
</g>
</g>
<!-- Node8&#45;&gt;Node28 -->
<g id="edge22" class="edge">
<title>Node8&#45;&gt;Node28</title>
<path fill="none" stroke="midnightblue" d="M83.15,-775.18C99.79,-767.72 120.9,-758.52 140,-751 148.23,-747.76 157.26,-744.48 165.55,-741.57"/>
<polygon fill="midnightblue" stroke="midnightblue" points="81.59,-772.04 73.91,-779.35 84.47,-778.42 81.59,-772.04"/>
</g>
<!-- Node29 -->
<g id="node25" class="node">
<title>Node29</title>
<g id="a_node25"><a xlink:href="class_effect_manager.html" target="_top" xlink:title=" ">
<polygon fill="none" stroke="black" points="155.5,-684.5 155.5,-703.5 234.5,-703.5 234.5,-684.5 155.5,-684.5"/>
<text text-anchor="middle" x="195" y="-691.5" font-family="Helvetica,sans-Serif" font-size="10.00">EffectManager</text>
</a>
</g>
</g>
<!-- Node8&#45;&gt;Node29 -->
<g id="edge23" class="edge">
<title>Node8&#45;&gt;Node29</title>
<path fill="none" stroke="midnightblue" d="M68.88,-771.73C85.28,-754.77 112.31,-729.16 140,-713 146.35,-709.29 153.54,-706.14 160.56,-703.54"/>
<polygon fill="midnightblue" stroke="midnightblue" points="66.07,-769.61 61.73,-779.28 71.15,-774.42 66.07,-769.61"/>
</g>
<!-- Node30 -->
<g id="node26" class="node">
<title>Node30</title>
<g id="a_node26"><a xlink:href="class_game_u_i_controller.html" target="_top" xlink:title=" ">
<polygon fill="none" stroke="black" points="148.5,-646.5 148.5,-665.5 241.5,-665.5 241.5,-646.5 148.5,-646.5"/>
<text text-anchor="middle" x="195" y="-653.5" font-family="Helvetica,sans-Serif" font-size="10.00">GameUIController</text>
</a>
</g>
</g>
<!-- Node8&#45;&gt;Node30 -->
<g id="edge24" class="edge">
<title>Node8&#45;&gt;Node30</title>
<path fill="none" stroke="midnightblue" d="M62.66,-770.35C76.55,-745.27 104.44,-700.85 140,-675 145.23,-671.2 151.28,-668.11 157.4,-665.6"/>
<polygon fill="midnightblue" stroke="midnightblue" points="59.54,-768.76 57.89,-779.22 65.71,-772.08 59.54,-768.76"/>
</g>
<!-- Node31 -->
<g id="node27" class="node">
<title>Node31</title>
<g id="a_node27"><a xlink:href="class_inventory.html" target="_top" xlink:title=" ">
<polygon fill="none" stroke="black" points="167.5,-608.5 167.5,-627.5 222.5,-627.5 222.5,-608.5 167.5,-608.5"/>
<text text-anchor="middle" x="195" y="-615.5" font-family="Helvetica,sans-Serif" font-size="10.00">Inventory</text>
</a>
</g>
</g>
<!-- Node8&#45;&gt;Node31 -->
<g id="edge25" class="edge">
<title>Node8&#45;&gt;Node31</title>
<path fill="none" stroke="midnightblue" d="M59.06,-769.69C70.06,-737.64 96.35,-673.37 140,-637 147.79,-630.51 157.94,-626.18 167.34,-623.31"/>
<polygon fill="midnightblue" stroke="midnightblue" points="55.71,-768.65 55.9,-779.24 62.36,-770.84 55.71,-768.65"/>
</g>
<!-- Node32 -->
<g id="node28" class="node">
<title>Node32</title>
<g id="a_node28"><a xlink:href="class_loading_canvas.html" target="_top" xlink:title=" ">
<polygon fill="none" stroke="black" points="154,-570.5 154,-589.5 236,-589.5 236,-570.5 154,-570.5"/>
<text text-anchor="middle" x="195" y="-577.5" font-family="Helvetica,sans-Serif" font-size="10.00">LoadingCanvas</text>
</a>
</g>
</g>
<!-- Node8&#45;&gt;Node32 -->
<g id="edge27" class="edge">
<title>Node8&#45;&gt;Node32</title>
<path fill="none" stroke="midnightblue" d="M56.71,-769.23C64.89,-730.98 88.05,-646.42 140,-599 144.26,-595.11 149.36,-592.01 154.7,-589.54"/>
<polygon fill="midnightblue" stroke="midnightblue" points="53.26,-768.63 54.71,-779.13 60.12,-770.02 53.26,-768.63"/>
</g>
<!-- Node33 -->
<g id="node29" class="node">
<title>Node33</title>
<g id="a_node29"><a xlink:href="class_mannequin.html" target="_top" xlink:title=" ">
<polygon fill="none" stroke="black" points="163,-532.5 163,-551.5 227,-551.5 227,-532.5 163,-532.5"/>
<text text-anchor="middle" x="195" y="-539.5" font-family="Helvetica,sans-Serif" font-size="10.00">Mannequin</text>
</a>
</g>
</g>
<!-- Node8&#45;&gt;Node33 -->
<g id="edge28" class="edge">
<title>Node8&#45;&gt;Node33</title>
<path fill="none" stroke="midnightblue" d="M55.02,-769.01C60.5,-725.18 79.55,-619.89 140,-561 146.26,-554.9 154.6,-550.75 162.85,-547.92"/>
<polygon fill="midnightblue" stroke="midnightblue" points="51.51,-768.87 53.86,-779.2 58.47,-769.67 51.51,-768.87"/>
</g>
<!-- Node34 -->
<g id="node30" class="node">
<title>Node34</title>
<g id="a_node30"><a xlink:href="class_model_player_mediator.html" target="_top" xlink:title=" ">
<polygon fill="none" stroke="black" points="141,-494.5 141,-513.5 249,-513.5 249,-494.5 141,-494.5"/>
<text text-anchor="middle" x="195" y="-501.5" font-family="Helvetica,sans-Serif" font-size="10.00">ModelPlayerMediator</text>
</a>
</g>
</g>
<!-- Node8&#45;&gt;Node34 -->
<g id="edge29" class="edge">
<title>Node8&#45;&gt;Node34</title>
<path fill="none" stroke="midnightblue" d="M53.73,-769.4C56.58,-720.87 70.65,-593.91 140,-523 143.82,-519.09 148.49,-515.99 153.47,-513.52"/>
<polygon fill="midnightblue" stroke="midnightblue" points="50.23,-769.33 53.23,-779.49 57.22,-769.67 50.23,-769.33"/>
</g>
<!-- Node35 -->
<g id="node31" class="node">
<title>Node35</title>
<g id="a_node31"><a xlink:href="class_model_sync.html" target="_top" xlink:title=" ">
<polygon fill="none" stroke="black" points="162.5,-456.5 162.5,-475.5 227.5,-475.5 227.5,-456.5 162.5,-456.5"/>
<text text-anchor="middle" x="195" y="-463.5" font-family="Helvetica,sans-Serif" font-size="10.00">ModelSync</text>
</a>
</g>
</g>
<!-- Node8&#45;&gt;Node35 -->
<g id="edge30" class="edge">
<title>Node8&#45;&gt;Node35</title>
<path fill="none" stroke="midnightblue" d="M52.78,-769.17C53.26,-715.84 61.97,-567.83 140,-485 145.93,-478.71 154.06,-474.5 162.22,-471.68"/>
<polygon fill="midnightblue" stroke="midnightblue" points="49.28,-769.31 52.78,-779.31 56.28,-769.31 49.28,-769.31"/>
</g>
<!-- Node36 -->
<g id="node32" class="node">
<title>Node36</title>
<g id="a_node32"><a xlink:href="class_options_menu.html" target="_top" xlink:title=" ">
<polygon fill="none" stroke="black" points="158,-418.5 158,-437.5 232,-437.5 232,-418.5 158,-418.5"/>
<text text-anchor="middle" x="195" y="-425.5" font-family="Helvetica,sans-Serif" font-size="10.00">OptionsMenu</text>
</a>
</g>
</g>
<!-- Node8&#45;&gt;Node36 -->
<g id="edge31" class="edge">
<title>Node8&#45;&gt;Node36</title>
<path fill="none" stroke="midnightblue" d="M55.55,-769.31C64.37,-703.96 95.53,-495.62 140,-447 144.83,-441.72 151.21,-437.91 157.9,-435.15"/>
<polygon fill="midnightblue" stroke="midnightblue" points="52.05,-769.1 54.2,-779.47 58.99,-770.02 52.05,-769.1"/>
</g>
<!-- Node37 -->
<g id="node33" class="node">
<title>Node37</title>
<g id="a_node33"><a xlink:href="class_pause_menu.html" target="_top" xlink:title=" ">
<polygon fill="none" stroke="black" points="161,-380.5 161,-399.5 229,-399.5 229,-380.5 161,-380.5"/>
<text text-anchor="middle" x="195" y="-387.5" font-family="Helvetica,sans-Serif" font-size="10.00">PauseMenu</text>
</a>
</g>
</g>
<!-- Node8&#45;&gt;Node37 -->
<g id="edge32" class="edge">
<title>Node8&#45;&gt;Node37</title>
<path fill="none" stroke="midnightblue" d="M55,-769.43C62.48,-699.59 91.01,-463.88 140,-409 145.49,-402.85 153.1,-398.69 160.87,-395.87"/>
<polygon fill="midnightblue" stroke="midnightblue" points="51.5,-769.18 53.94,-779.49 58.46,-769.91 51.5,-769.18"/>
</g>
<!-- Node38 -->
<g id="node34" class="node">
<title>Node38</title>
<g id="a_node34"><a xlink:href="class_player_controller.html" target="_top" xlink:title="Player Controller is the main class that handles all the movement of the Player.">
<polygon fill="none" stroke="black" points="152,-342.5 152,-361.5 238,-361.5 238,-342.5 152,-342.5"/>
<text text-anchor="middle" x="195" y="-349.5" font-family="Helvetica,sans-Serif" font-size="10.00">PlayerController</text>
</a>
</g>
</g>
<!-- Node8&#45;&gt;Node38 -->
<g id="edge33" class="edge">
<title>Node8&#45;&gt;Node38</title>
<path fill="none" stroke="midnightblue" d="M54.59,-768.95C60.93,-694.07 86.6,-432.03 140,-371 143.4,-367.11 147.65,-364.02 152.26,-361.56"/>
<polygon fill="midnightblue" stroke="midnightblue" points="51.08,-769.04 53.74,-779.3 58.05,-769.62 51.08,-769.04"/>
</g>
<!-- Node39 -->
<g id="node35" class="node">
<title>Node39</title>
<g id="a_node35"><a xlink:href="class_player_h_u_d_controller.html" target="_top" xlink:title=" ">
<polygon fill="none" stroke="black" points="142,-304.5 142,-323.5 248,-323.5 248,-304.5 142,-304.5"/>
<text text-anchor="middle" x="195" y="-311.5" font-family="Helvetica,sans-Serif" font-size="10.00">PlayerHUDController</text>
</a>
</g>
</g>
<!-- Node8&#45;&gt;Node39 -->
<g id="edge34" class="edge">
<title>Node8&#45;&gt;Node39</title>
<path fill="none" stroke="midnightblue" d="M54.2,-769.17C59.35,-690.37 82.01,-400.4 140,-333 143.37,-329.08 147.6,-325.97 152.2,-323.5"/>
<polygon fill="midnightblue" stroke="midnightblue" points="50.7,-769.01 53.57,-779.21 57.69,-769.45 50.7,-769.01"/>
</g>
<!-- Node40 -->
<g id="node36" class="node">
<title>Node40</title>
<g id="a_node36"><a xlink:href="class_post_game_menu.html" target="_top" xlink:title=" ">
<polygon fill="none" stroke="black" points="151.5,-266.5 151.5,-285.5 238.5,-285.5 238.5,-266.5 151.5,-266.5"/>
<text text-anchor="middle" x="195" y="-273.5" font-family="Helvetica,sans-Serif" font-size="10.00">PostGameMenu</text>
</a>
</g>
</g>
<!-- Node8&#45;&gt;Node40 -->
<g id="edge35" class="edge">
<title>Node8&#45;&gt;Node40</title>
<path fill="none" stroke="midnightblue" d="M53.88,-769.14C57.96,-686.24 77.46,-368.74 140,-295 143.28,-291.13 147.39,-288.06 151.88,-285.6"/>
<polygon fill="midnightblue" stroke="midnightblue" points="50.38,-769.07 53.41,-779.23 57.38,-769.4 50.38,-769.07"/>
</g>
<!-- Node41 -->
<g id="node37" class="node">
<title>Node41</title>
<g id="a_node37"><a xlink:href="class_press_any_key.html" target="_top" xlink:title="Detects when the player pressed any key and connects to the server accordingly.">
<polygon fill="none" stroke="black" points="156.5,-228.5 156.5,-247.5 233.5,-247.5 233.5,-228.5 156.5,-228.5"/>
<text text-anchor="middle" x="195" y="-235.5" font-family="Helvetica,sans-Serif" font-size="10.00">PressAnyKey</text>
</a>
</g>
</g>
<!-- Node8&#45;&gt;Node41 -->
<g id="edge36" class="edge">
<title>Node8&#45;&gt;Node41</title>
<path fill="none" stroke="midnightblue" d="M53.6,-769.29C56.64,-682.75 72.85,-337.16 140,-257 144.34,-251.82 150.18,-248.05 156.43,-245.31"/>
<polygon fill="midnightblue" stroke="midnightblue" points="50.11,-769.22 53.27,-779.33 57.1,-769.46 50.11,-769.22"/>
</g>
<!-- Node42 -->
<g id="node38" class="node">
<title>Node42</title>
<g id="a_node38"><a xlink:href="class_profile_panel.html" target="_top" xlink:title=" ">
<polygon fill="none" stroke="black" points="161,-190.5 161,-209.5 229,-209.5 229,-190.5 161,-190.5"/>
<text text-anchor="middle" x="195" y="-197.5" font-family="Helvetica,sans-Serif" font-size="10.00">ProfilePanel</text>
</a>
</g>
</g>
<!-- Node8&#45;&gt;Node42 -->
<g id="edge37" class="edge">
<title>Node8&#45;&gt;Node42</title>
<path fill="none" stroke="midnightblue" d="M53.37,-769.05C55.46,-678.32 68.33,-305.48 140,-219 145.33,-212.57 152.97,-208.32 160.84,-205.5"/>
<polygon fill="midnightblue" stroke="midnightblue" points="49.87,-769.02 53.16,-779.09 56.87,-769.17 49.87,-769.02"/>
</g>
<!-- Node43 -->
<g id="node39" class="node">
<title>Node43</title>
<g id="a_node39"><a xlink:href="class_ranged_attack_follow.html" target="_top" xlink:title=" ">
<polygon fill="none" stroke="black" points="142,-152.5 142,-171.5 248,-171.5 248,-152.5 142,-152.5"/>
<text text-anchor="middle" x="195" y="-159.5" font-family="Helvetica,sans-Serif" font-size="10.00">RangedAttackFollow</text>
</a>
</g>
</g>
<!-- Node8&#45;&gt;Node43 -->
<g id="edge38" class="edge">
<title>Node8&#45;&gt;Node43</title>
<path fill="none" stroke="midnightblue" d="M53.16,-769.24C54.31,-675.22 63.69,-273.97 140,-181 143.22,-177.08 147.29,-173.97 151.76,-171.5"/>
<polygon fill="midnightblue" stroke="midnightblue" points="49.66,-769.32 53.06,-779.35 56.66,-769.39 49.66,-769.32"/>
</g>
<!-- Node44 -->
<g id="node40" class="node">
<title>Node44</title>
<g id="a_node40"><a xlink:href="class_respawn_canvas.html" target="_top" xlink:title=" ">
<polygon fill="none" stroke="black" points="151,-114.5 151,-133.5 239,-133.5 239,-114.5 151,-114.5"/>
<text text-anchor="middle" x="195" y="-121.5" font-family="Helvetica,sans-Serif" font-size="10.00">RespawnCanvas</text>
</a>
</g>
</g>
<!-- Node8&#45;&gt;Node44 -->
<g id="edge39" class="edge">
<title>Node8&#45;&gt;Node44</title>
<path fill="none" stroke="midnightblue" d="M52.98,-768.94C53.26,-670.85 59.17,-242.31 140,-143 143.14,-139.15 147.11,-136.07 151.47,-133.62"/>
<polygon fill="midnightblue" stroke="midnightblue" points="49.48,-769.22 52.97,-779.22 56.48,-769.23 49.48,-769.22"/>
</g>
<!-- Node45 -->
<g id="node41" class="node">
<title>Node45</title>
<g id="a_node41"><a xlink:href="class_shop.html" target="_top" xlink:title=" ">
<polygon fill="none" stroke="black" points="175.5,-76.5 175.5,-95.5 214.5,-95.5 214.5,-76.5 175.5,-76.5"/>
<text text-anchor="middle" x="195" y="-83.5" font-family="Helvetica,sans-Serif" font-size="10.00">Shop</text>
</a>
</g>
</g>
<!-- Node8&#45;&gt;Node45 -->
<g id="edge41" class="edge">
<title>Node8&#45;&gt;Node45</title>
<path fill="none" stroke="midnightblue" d="M52.81,-769.05C52.25,-667.73 54.53,-210.8 140,-105 148.56,-94.41 163.42,-89.71 175.39,-87.63"/>
<polygon fill="midnightblue" stroke="midnightblue" points="49.31,-769.17 52.88,-779.14 56.31,-769.11 49.31,-769.17"/>
</g>
<!-- Node46 -->
<g id="node42" class="node">
<title>Node46</title>
<g id="a_node42"><a xlink:href="class_show_ping.html" target="_top" xlink:title=" ">
<polygon fill="none" stroke="black" points="165,-38.5 165,-57.5 225,-57.5 225,-38.5 165,-38.5"/>
<text text-anchor="middle" x="195" y="-45.5" font-family="Helvetica,sans-Serif" font-size="10.00">ShowPing</text>
</a>
</g>
</g>
<!-- Node8&#45;&gt;Node46 -->
<g id="edge42" class="edge">
<title>Node8&#45;&gt;Node46</title>
<path fill="none" stroke="midnightblue" d="M52.66,-768.94C51.29,-664.06 49.94,-179.24 140,-67 146.16,-59.33 155.63,-54.75 164.93,-52.01"/>
<polygon fill="midnightblue" stroke="midnightblue" points="49.16,-769.15 52.81,-779.1 56.16,-769.05 49.16,-769.15"/>
</g>
<!-- Node47 -->
<g id="node43" class="node">
<title>Node47</title>
<g id="a_node43"><a xlink:href="class_singleton.html" target="_top" xlink:title="Singleton Base class.">
<polygon fill="none" stroke="black" points="155,-0.5 155,-19.5 235,-19.5 235,-0.5 155,-0.5"/>
<text text-anchor="middle" x="195" y="-7.5" font-family="Helvetica,sans-Serif" font-size="10.00">Singleton&lt; T &gt;</text>
</a>
</g>
</g>
<!-- Node8&#45;&gt;Node47 -->
<g id="edge43" class="edge">
<title>Node8&#45;&gt;Node47</title>
<path fill="none" stroke="midnightblue" d="M54.01,-769.42C60.01,-656.26 92.32,-88.79 140,-29 143.9,-24.1 149.16,-20.47 154.86,-17.77"/>
<polygon fill="midnightblue" stroke="midnightblue" points="50.51,-769.27 53.49,-779.44 57.5,-769.63 50.51,-769.27"/>
</g>
<!-- Node48 -->
<g id="node44" class="node">
<title>Node48</title>
<g id="a_node44"><a xlink:href="class_stats.html" target="_top" xlink:title=" ">
<polygon fill="none" stroke="black" points="175,-1482.5 175,-1501.5 215,-1501.5 215,-1482.5 175,-1482.5"/>
<text text-anchor="middle" x="195" y="-1489.5" font-family="Helvetica,sans-Serif" font-size="10.00">Stats</text>
</a>
</g>
</g>
<!-- Node8&#45;&gt;Node48 -->
<g id="edge44" class="edge">
<title>Node8&#45;&gt;Node48</title>
<path fill="none" stroke="midnightblue" d="M52.81,-808.95C52.25,-910.27 54.53,-1367.2 140,-1473 148.43,-1483.44 162.99,-1488.15 174.86,-1490.27"/>
<polygon fill="midnightblue" stroke="midnightblue" points="56.31,-808.89 52.88,-798.86 49.31,-808.83 56.31,-808.89"/>
</g>
<!-- Node56 -->
<g id="node52" class="node">
<title>Node56</title>
<g id="a_node52"><a xlink:href="class_target_attack_indicator.html" target="_top" xlink:title=" ">
<polygon fill="none" stroke="black" points="140.5,-1444.5 140.5,-1463.5 249.5,-1463.5 249.5,-1444.5 140.5,-1444.5"/>
<text text-anchor="middle" x="195" y="-1451.5" font-family="Helvetica,sans-Serif" font-size="10.00">TargetAttackIndicator</text>
</a>
</g>
</g>
<!-- Node8&#45;&gt;Node56 -->
<g id="edge52" class="edge">
<title>Node8&#45;&gt;Node56</title>
<path fill="none" stroke="midnightblue" d="M52.98,-809.06C53.26,-907.15 59.17,-1335.69 140,-1435 143.14,-1438.85 147.11,-1441.93 151.47,-1444.38"/>
<polygon fill="midnightblue" stroke="midnightblue" points="56.48,-808.77 52.97,-798.78 49.48,-808.78 56.48,-808.77"/>
</g>
<!-- Node57 -->
<g id="node53" class="node">
<title>Node57</title>
<g id="a_node53"><a xlink:href="class_turret_indicator.html" target="_top" xlink:title=" ">
<polygon fill="none" stroke="black" points="156,-1406.5 156,-1425.5 234,-1425.5 234,-1406.5 156,-1406.5"/>
<text text-anchor="middle" x="195" y="-1413.5" font-family="Helvetica,sans-Serif" font-size="10.00">TurretIndicator</text>
</a>
</g>
</g>
<!-- Node8&#45;&gt;Node57 -->
<g id="edge53" class="edge">
<title>Node8&#45;&gt;Node57</title>
<path fill="none" stroke="midnightblue" d="M53.16,-808.76C54.31,-902.78 63.69,-1304.03 140,-1397 144.16,-1402.07 149.77,-1405.79 155.79,-1408.52"/>
<polygon fill="midnightblue" stroke="midnightblue" points="56.66,-808.61 53.06,-798.65 49.66,-808.68 56.66,-808.61"/>
</g>
<!-- Node58 -->
<g id="node54" class="node">
<title>Node58</title>
<g id="a_node54"><a xlink:href="class_turret_ray.html" target="_top" xlink:title=" ">
<polygon fill="none" stroke="black" points="165.5,-1368.5 165.5,-1387.5 224.5,-1387.5 224.5,-1368.5 165.5,-1368.5"/>
<text text-anchor="middle" x="195" y="-1375.5" font-family="Helvetica,sans-Serif" font-size="10.00">TurretRay</text>
</a>
</g>
</g>
<!-- Node8&#45;&gt;Node58 -->
<g id="edge54" class="edge">
<title>Node8&#45;&gt;Node58</title>
<path fill="none" stroke="midnightblue" d="M53.37,-808.95C55.46,-899.68 68.33,-1272.52 140,-1359 146.34,-1366.65 155.97,-1371.23 165.35,-1373.96"/>
<polygon fill="midnightblue" stroke="midnightblue" points="56.87,-808.83 53.16,-798.91 49.87,-808.98 56.87,-808.83"/>
</g>
<!-- Node59 -->
<g id="node55" class="node">
<title>Node59</title>
<g id="a_node55"><a xlink:href="class_turret_shooter.html" target="_top" xlink:title="This detects all the nearby attackable entities and shoots them if they are from the enemy team.">
<polygon fill="none" stroke="black" points="157.5,-1330.5 157.5,-1349.5 232.5,-1349.5 232.5,-1330.5 157.5,-1330.5"/>
<text text-anchor="middle" x="195" y="-1337.5" font-family="Helvetica,sans-Serif" font-size="10.00">TurretShooter</text>
</a>
</g>
</g>
<!-- Node8&#45;&gt;Node59 -->
<g id="edge55" class="edge">
<title>Node8&#45;&gt;Node59</title>
<path fill="none" stroke="midnightblue" d="M53.6,-808.71C56.64,-895.25 72.85,-1240.84 140,-1321 144.53,-1326.41 150.7,-1330.28 157.26,-1333.05"/>
<polygon fill="midnightblue" stroke="midnightblue" points="57.1,-808.54 53.27,-798.67 50.11,-808.78 57.1,-808.54"/>
</g>
<!-- Node60 -->
<g id="node56" class="node">
<title>Node60</title>
<g id="a_node56"><a xlink:href="class_u_i_controller.html" target="_top" xlink:title="Base abstract class for all the entities that have UI and Stats in the game.">
<polygon fill="none" stroke="black" points="161.5,-1292.5 161.5,-1311.5 228.5,-1311.5 228.5,-1292.5 161.5,-1292.5"/>
<text text-anchor="middle" x="195" y="-1299.5" font-family="Helvetica,sans-Serif" font-size="10.00">UIController</text>
</a>
</g>
</g>
<!-- Node8&#45;&gt;Node60 -->
<g id="edge56" class="edge">
<title>Node8&#45;&gt;Node60</title>
<path fill="none" stroke="midnightblue" d="M53.88,-808.86C57.96,-891.76 77.46,-1209.26 140,-1283 145.46,-1289.44 153.25,-1293.7 161.22,-1296.52"/>
<polygon fill="midnightblue" stroke="midnightblue" points="57.38,-808.6 53.41,-798.77 50.38,-808.93 57.38,-808.6"/>
</g>
<!-- Node10 -->
<g id="node6" class="node">
<title>Node10</title>
<g id="a_node6"><a xlink:href="class_ability___lis1.html" target="_top" xlink:title=" ">
<polygon fill="none" stroke="black" points="306,-1216.5 306,-1235.5 373,-1235.5 373,-1216.5 306,-1216.5"/>
<text text-anchor="middle" x="339.5" y="-1223.5" font-family="Helvetica,sans-Serif" font-size="10.00">Ability_Lis1</text>
</a>
</g>
</g>
<!-- Node9&#45;&gt;Node10 -->
<g id="edge4" class="edge">
<title>Node9&#45;&gt;Node10</title>
<path fill="none" stroke="midnightblue" d="M238.24,-1252.74C259.84,-1246.98 285.74,-1240.07 305.8,-1234.72"/>
<polygon fill="midnightblue" stroke="midnightblue" points="237.1,-1249.42 228.34,-1255.38 238.9,-1256.18 237.1,-1249.42"/>
</g>
<!-- Node11 -->
<g id="node7" class="node">
<title>Node11</title>
<g id="a_node7"><a xlink:href="class_ability___lis4.html" target="_top" xlink:title=" ">
<polygon fill="none" stroke="black" points="306,-1254.5 306,-1273.5 373,-1273.5 373,-1254.5 306,-1254.5"/>
<text text-anchor="middle" x="339.5" y="-1261.5" font-family="Helvetica,sans-Serif" font-size="10.00">Ability_Lis4</text>
</a>
</g>
</g>
<!-- Node9&#45;&gt;Node11 -->
<g id="edge5" class="edge">
<title>Node9&#45;&gt;Node11</title>
<path fill="none" stroke="midnightblue" d="M238.53,-1264C260.08,-1264 285.83,-1264 305.8,-1264"/>
<polygon fill="midnightblue" stroke="midnightblue" points="238.34,-1260.5 228.34,-1264 238.34,-1267.5 238.34,-1260.5"/>
</g>
<!-- Node25 -->
<g id="node21" class="node">
<title>Node25</title>
<g id="a_node21"><a xlink:href="class_coin.html" target="_top" xlink:title=" ">
<polygon fill="none" stroke="black" points="321.5,-760.5 321.5,-779.5 357.5,-779.5 357.5,-760.5 321.5,-760.5"/>
<text text-anchor="middle" x="339.5" y="-767.5" font-family="Helvetica,sans-Serif" font-size="10.00">Coin</text>
</a>
</g>
</g>
<!-- Node24&#45;&gt;Node25 -->
<g id="edge19" class="edge">
<title>Node24&#45;&gt;Node25</title>
<path fill="none" stroke="midnightblue" d="M224.04,-770C253.01,-770 297.3,-770 321.41,-770"/>
<polygon fill="midnightblue" stroke="midnightblue" points="223.76,-766.5 213.76,-770 223.76,-773.5 223.76,-766.5"/>
</g>
<!-- Node26 -->
<g id="node22" class="node">
<title>Node26</title>
<g id="a_node22"><a xlink:href="class_diamond.html" target="_top" xlink:title=" ">
<polygon fill="none" stroke="black" points="312,-722.5 312,-741.5 367,-741.5 367,-722.5 312,-722.5"/>
<text text-anchor="middle" x="339.5" y="-729.5" font-family="Helvetica,sans-Serif" font-size="10.00">Diamond</text>
</a>
</g>
</g>
<!-- Node24&#45;&gt;Node26 -->
<g id="edge20" class="edge">
<title>Node24&#45;&gt;Node26</title>
<path fill="none" stroke="midnightblue" d="M223.52,-762.66C248.97,-755.87 286.55,-745.85 311.75,-739.13"/>
<polygon fill="midnightblue" stroke="midnightblue" points="222.52,-759.31 213.76,-765.26 224.32,-766.07 222.52,-759.31"/>
</g>
<!-- Node27 -->
<g id="node23" class="node">
<title>Node27</title>
<g id="a_node23"><a xlink:href="class_heart.html" target="_top" xlink:title=" ">
<polygon fill="none" stroke="black" points="319.5,-798.5 319.5,-817.5 359.5,-817.5 359.5,-798.5 319.5,-798.5"/>
<text text-anchor="middle" x="339.5" y="-805.5" font-family="Helvetica,sans-Serif" font-size="10.00">Heart</text>
</a>
</g>
</g>
<!-- Node24&#45;&gt;Node27 -->
<g id="edge21" class="edge">
<title>Node24&#45;&gt;Node27</title>
<path fill="none" stroke="midnightblue" d="M223.74,-777.4C251.82,-784.89 294.52,-796.27 319.15,-802.84"/>
<polygon fill="midnightblue" stroke="midnightblue" points="224.32,-773.93 213.76,-774.74 222.52,-780.69 224.32,-773.93"/>
</g>
<!-- Node49 -->
<g id="node45" class="node">
<title>Node49</title>
<g id="a_node45"><a xlink:href="class_movable_stats.html" target="_top" xlink:title=" ">
<polygon fill="none" stroke="black" points="302,-1463.5 302,-1482.5 377,-1482.5 377,-1463.5 302,-1463.5"/>
<text text-anchor="middle" x="339.5" y="-1470.5" font-family="Helvetica,sans-Serif" font-size="10.00">MovableStats</text>
</a>
</g>
</g>
<!-- Node48&#45;&gt;Node49 -->
<g id="edge45" class="edge">
<title>Node48&#45;&gt;Node49</title>
<path fill="none" stroke="midnightblue" d="M225.35,-1488.09C247.49,-1485.13 278.02,-1481.06 301.78,-1477.9"/>
<polygon fill="midnightblue" stroke="midnightblue" points="224.67,-1484.65 215.22,-1489.44 225.59,-1491.59 224.67,-1484.65"/>
</g>
<!-- Node53 -->
<g id="node49" class="node">
<title>Node53</title>
<g id="a_node49"><a xlink:href="class_structure_stats.html" target="_top" xlink:title=" ">
<polygon fill="none" stroke="black" points="299.5,-1501.5 299.5,-1520.5 379.5,-1520.5 379.5,-1501.5 299.5,-1501.5"/>
<text text-anchor="middle" x="339.5" y="-1508.5" font-family="Helvetica,sans-Serif" font-size="10.00">StructureStats</text>
</a>
</g>
</g>
<!-- Node48&#45;&gt;Node53 -->
<g id="edge49" class="edge">
<title>Node48&#45;&gt;Node53</title>
<path fill="none" stroke="midnightblue" d="M225.34,-1495.91C246.78,-1498.77 276.07,-1502.68 299.48,-1505.8"/>
<polygon fill="midnightblue" stroke="midnightblue" points="225.59,-1492.41 215.22,-1494.56 224.67,-1499.35 225.59,-1492.41"/>
</g>
<!-- Node50 -->
<g id="node46" class="node">
<title>Node50</title>
<g id="a_node46"><a xlink:href="class_minion_stats.html" target="_top" xlink:title="Minion Stats is the main class that controls all the Minion Statistics for every Minion entity within...">
<polygon fill="none" stroke="black" points="442.5,-1463.5 442.5,-1482.5 510.5,-1482.5 510.5,-1463.5 442.5,-1463.5"/>
<text text-anchor="middle" x="476.5" y="-1470.5" font-family="Helvetica,sans-Serif" font-size="10.00">MinionStats</text>
</a>
</g>
</g>
<!-- Node49&#45;&gt;Node50 -->
<g id="edge46" class="edge">
<title>Node49&#45;&gt;Node50</title>
<path fill="none" stroke="midnightblue" d="M387.11,-1473C405.23,-1473 425.58,-1473 442.18,-1473"/>
<polygon fill="midnightblue" stroke="midnightblue" points="387.03,-1469.5 377.03,-1473 387.03,-1476.5 387.03,-1469.5"/>
</g>
<!-- Node51 -->
<g id="node47" class="node">
<title>Node51</title>
<g id="a_node47"><a xlink:href="class_player_stats.html" target="_top" xlink:title="Player Stats is the main class that controls all the Player Statistics in all time in the game execut...">
<polygon fill="none" stroke="black" points="442.5,-1425.5 442.5,-1444.5 510.5,-1444.5 510.5,-1425.5 442.5,-1425.5"/>
<text text-anchor="middle" x="476.5" y="-1432.5" font-family="Helvetica,sans-Serif" font-size="10.00">PlayerStats</text>
</a>
</g>
</g>
<!-- Node49&#45;&gt;Node51 -->
<g id="edge47" class="edge">
<title>Node49&#45;&gt;Node51</title>
<path fill="none" stroke="midnightblue" d="M384.42,-1460.64C403.26,-1455.33 424.91,-1449.24 442.38,-1444.32"/>
<polygon fill="midnightblue" stroke="midnightblue" points="383.24,-1457.33 374.57,-1463.41 385.14,-1464.07 383.24,-1457.33"/>
</g>
<!-- Node52 -->
<g id="node48" class="node">
<title>Node52</title>
<g id="a_node48"><a xlink:href="class_mannequin_stats.html" target="_top" xlink:title=" ">
<polygon fill="none" stroke="black" points="560,-1425.5 560,-1444.5 647,-1444.5 647,-1425.5 560,-1425.5"/>
<text text-anchor="middle" x="603.5" y="-1432.5" font-family="Helvetica,sans-Serif" font-size="10.00">MannequinStats</text>
</a>
</g>
</g>
<!-- Node51&#45;&gt;Node52 -->
<g id="edge48" class="edge">
<title>Node51&#45;&gt;Node52</title>
<path fill="none" stroke="midnightblue" d="M520.91,-1435C533.49,-1435 547.2,-1435 559.73,-1435"/>
<polygon fill="midnightblue" stroke="midnightblue" points="520.67,-1431.5 510.67,-1435 520.67,-1438.5 520.67,-1431.5"/>
</g>
<!-- Node54 -->
<g id="node50" class="node">
<title>Node54</title>
<g id="a_node50"><a xlink:href="class_nexus_stats.html" target="_top" xlink:title=" ">
<polygon fill="none" stroke="black" points="442.5,-1539.5 442.5,-1558.5 510.5,-1558.5 510.5,-1539.5 442.5,-1539.5"/>
<text text-anchor="middle" x="476.5" y="-1546.5" font-family="Helvetica,sans-Serif" font-size="10.00">NexusStats</text>
</a>
</g>
</g>
<!-- Node53&#45;&gt;Node54 -->
<g id="edge50" class="edge">
<title>Node53&#45;&gt;Node54</title>
<path fill="none" stroke="midnightblue" d="M384.42,-1523.36C403.26,-1528.67 424.91,-1534.76 442.38,-1539.68"/>
<polygon fill="midnightblue" stroke="midnightblue" points="385.14,-1519.93 374.57,-1520.59 383.24,-1526.67 385.14,-1519.93"/>
</g>
<!-- Node55 -->
<g id="node51" class="node">
<title>Node55</title>
<g id="a_node51"><a xlink:href="class_turret_stats.html" target="_top" xlink:title=" ">
<polygon fill="none" stroke="black" points="444,-1501.5 444,-1520.5 509,-1520.5 509,-1501.5 444,-1501.5"/>
<text text-anchor="middle" x="476.5" y="-1508.5" font-family="Helvetica,sans-Serif" font-size="10.00">TurretStats</text>
</a>
</g>
</g>
<!-- Node53&#45;&gt;Node55 -->
<g id="edge51" class="edge">
<title>Node53&#45;&gt;Node55</title>
<path fill="none" stroke="midnightblue" d="M389.64,-1511C407.71,-1511 427.67,-1511 443.8,-1511"/>
<polygon fill="midnightblue" stroke="midnightblue" points="389.55,-1507.5 379.55,-1511 389.55,-1514.5 389.55,-1507.5"/>
</g>
<!-- Node61 -->
<g id="node57" class="node">
<title>Node61</title>
<g id="a_node57"><a xlink:href="class_minion_u_i_controller.html" target="_top" xlink:title="UIController for all the Minion entities of the game.">
<polygon fill="none" stroke="black" points="292,-1330.5 292,-1349.5 387,-1349.5 387,-1330.5 292,-1330.5"/>
<text text-anchor="middle" x="339.5" y="-1337.5" font-family="Helvetica,sans-Serif" font-size="10.00">MinionUIController</text>
</a>
</g>
</g>
<!-- Node60&#45;&gt;Node61 -->
<g id="edge57" class="edge">
<title>Node60&#45;&gt;Node61</title>
<path fill="none" stroke="midnightblue" d="M238.4,-1313.31C258.88,-1318.77 283.18,-1325.25 302.71,-1330.46"/>
<polygon fill="midnightblue" stroke="midnightblue" points="239.26,-1309.91 228.69,-1310.72 237.45,-1316.68 239.26,-1309.91"/>
</g>
<!-- Node62 -->
<g id="node58" class="node">
<title>Node62</title>
<g id="a_node58"><a xlink:href="class_player_u_i_controller.html" target="_top" xlink:title="UI Controller for the Player Stats">
<polygon fill="none" stroke="black" points="292,-1292.5 292,-1311.5 387,-1311.5 387,-1292.5 292,-1292.5"/>
<text text-anchor="middle" x="339.5" y="-1299.5" font-family="Helvetica,sans-Serif" font-size="10.00">PlayerUIController</text>
</a>
</g>
</g>
<!-- Node60&#45;&gt;Node62 -->
<g id="edge58" class="edge">
<title>Node60&#45;&gt;Node62</title>
<path fill="none" stroke="midnightblue" d="M238.76,-1302C255.52,-1302 274.8,-1302 291.92,-1302"/>
<polygon fill="midnightblue" stroke="midnightblue" points="238.69,-1298.5 228.69,-1302 238.69,-1305.5 238.69,-1298.5"/>
</g>
<!-- Node63 -->
<g id="node59" class="node">
<title>Node63</title>
<g id="a_node59"><a xlink:href="class_structure_u_i_controller.html" target="_top" xlink:title=" ">
<polygon fill="none" stroke="black" points="286,-1368.5 286,-1387.5 393,-1387.5 393,-1368.5 286,-1368.5"/>
<text text-anchor="middle" x="339.5" y="-1375.5" font-family="Helvetica,sans-Serif" font-size="10.00">StructureUIController</text>
</a>
</g>
</g>
<!-- Node60&#45;&gt;Node63 -->
<g id="edge59" class="edge">
<title>Node60&#45;&gt;Node63</title>
<path fill="none" stroke="midnightblue" d="M237.91,-1314.47C242.13,-1316.39 246.24,-1318.56 250,-1321 269.52,-1333.66 266.54,-1346.25 286,-1359 291.76,-1362.77 298.36,-1365.91 304.89,-1368.48"/>
<polygon fill="midnightblue" stroke="midnightblue" points="239.16,-1311.21 228.58,-1310.67 236.52,-1317.69 239.16,-1311.21"/>
</g>
<!-- Node64 -->
<g id="node60" class="node">
<title>Node64</title>
<g id="a_node60"><a xlink:href="class_nexus_u_i_controller.html" target="_top" xlink:title=" ">
<polygon fill="none" stroke="black" points="429,-1387.5 429,-1406.5 524,-1406.5 524,-1387.5 429,-1387.5"/>
<text text-anchor="middle" x="476.5" y="-1394.5" font-family="Helvetica,sans-Serif" font-size="10.00">NexusUIController</text>
</a>
</g>
</g>
<!-- Node63&#45;&gt;Node64 -->
<g id="edge60" class="edge">
<title>Node63&#45;&gt;Node64</title>
<path fill="none" stroke="midnightblue" d="M403.19,-1386.82C411.88,-1388.05 420.67,-1389.28 428.99,-1390.45"/>
<polygon fill="midnightblue" stroke="midnightblue" points="403.47,-1383.33 393.08,-1385.4 402.5,-1390.26 403.47,-1383.33"/>
</g>
<!-- Node65 -->
<g id="node61" class="node">
<title>Node65</title>
<g id="a_node61"><a xlink:href="class_turret_u_i_controller.html" target="_top" xlink:title=" ">
<polygon fill="none" stroke="black" points="430.5,-1349.5 430.5,-1368.5 522.5,-1368.5 522.5,-1349.5 430.5,-1349.5"/>
<text text-anchor="middle" x="476.5" y="-1356.5" font-family="Helvetica,sans-Serif" font-size="10.00">TurretUIController</text>
</a>
</g>
</g>
<!-- Node63&#45;&gt;Node65 -->
<g id="edge61" class="edge">
<title>Node63&#45;&gt;Node65</title>
<path fill="none" stroke="midnightblue" d="M402.99,-1369.21C412.19,-1367.91 421.53,-1366.6 430.29,-1365.36"/>
<polygon fill="midnightblue" stroke="midnightblue" points="402.5,-1365.74 393.08,-1370.6 403.47,-1372.67 402.5,-1365.74"/>
</g>
</g>
</svg>
