<?xml version="1.0" encoding="UTF-8" standalone="no"?>
<!DOCTYPE svg PUBLIC "-//W3C//DTD SVG 1.1//EN"
 "http://www.w3.org/Graphics/SVG/1.1/DTD/svg11.dtd">
<!-- Generated by graphviz version 2.47.3 (20210619.1520)
 -->
<!-- Title: Jerarquia Gràfica de la Classe Pages: 1 -->
<svg width="632pt" height="1282pt"
 viewBox="0.00 0.00 632.00 1282.00" xmlns="http://www.w3.org/2000/svg" xmlns:xlink="http://www.w3.org/1999/xlink">
<g id="graph0" class="graph" transform="scale(1 1) rotate(0) translate(4 1278)">
<title>Jerarquia Gràfica de la Classe</title>
<!-- Node7 -->
<g id="node1" class="node">
<title>Node7</title>
<g id="a_node1"><a xlink:title=" ">
<polygon fill="none" stroke="#bfbfbf" points="0,-646.5 0,-665.5 83,-665.5 83,-646.5 0,-646.5"/>
<text text-anchor="middle" x="41.5" y="-653.5" font-family="Helvetica,sans-Serif" font-size="10.00">MonoBehaviour</text>
</a>
</g>
</g>
<!-- Node0 -->
<g id="node2" class="node">
<title>Node0</title>
<g id="a_node2"><a xlink:href="class_ability_base.html" target="_top" xlink:title="Base class for all the Ability_Instanciable prefab scripts.">
<polygon fill="none" stroke="black" points="140,-1235.5 140,-1254.5 206,-1254.5 206,-1235.5 140,-1235.5"/>
<text text-anchor="middle" x="173" y="-1242.5" font-family="Helvetica,sans-Serif" font-size="10.00">AbilityBase</text>
</a>
</g>
</g>
<!-- Node7&#45;&gt;Node0 -->
<g id="edge1" class="edge">
<title>Node7&#45;&gt;Node0</title>
<path fill="none" stroke="midnightblue" d="M42.49,-675.93C42.83,-766.52 48.56,-1138.89 119,-1226 124.29,-1232.54 132,-1236.83 139.92,-1239.64"/>
<polygon fill="midnightblue" stroke="midnightblue" points="45.99,-675.89 42.47,-665.89 38.99,-675.9 45.99,-675.89"/>
</g>
<!-- Node11 -->
<g id="node5" class="node">
<title>Node11</title>
<g id="a_node5"><a xlink:href="class_ability_cooldown.html" target="_top" xlink:title=" ">
<polygon fill="none" stroke="black" points="130,-1197.5 130,-1216.5 216,-1216.5 216,-1197.5 130,-1197.5"/>
<text text-anchor="middle" x="173" y="-1204.5" font-family="Helvetica,sans-Serif" font-size="10.00">AbilityCooldown</text>
</a>
</g>
</g>
<!-- Node7&#45;&gt;Node11 -->
<g id="edge4" class="edge">
<title>Node7&#45;&gt;Node11</title>
<path fill="none" stroke="midnightblue" d="M42.7,-675.68C43.95,-762.1 53.06,-1107.24 119,-1188 122.15,-1191.86 126.15,-1194.94 130.54,-1197.39"/>
<polygon fill="midnightblue" stroke="midnightblue" points="46.2,-675.61 42.57,-665.65 39.2,-675.69 46.2,-675.61"/>
</g>
<!-- Node12 -->
<g id="node6" class="node">
<title>Node12</title>
<g id="a_node6"><a xlink:href="class_ability_display.html" target="_top" xlink:title=" ">
<polygon fill="none" stroke="black" points="135,-1159.5 135,-1178.5 211,-1178.5 211,-1159.5 135,-1159.5"/>
<text text-anchor="middle" x="173" y="-1166.5" font-family="Helvetica,sans-Serif" font-size="10.00">AbilityDisplay</text>
</a>
</g>
</g>
<!-- Node7&#45;&gt;Node12 -->
<g id="edge5" class="edge">
<title>Node7&#45;&gt;Node12</title>
<path fill="none" stroke="midnightblue" d="M42.94,-675.83C45.17,-758.61 57.66,-1075.69 119,-1150 123.17,-1155.05 128.79,-1158.76 134.81,-1161.48"/>
<polygon fill="midnightblue" stroke="midnightblue" points="46.44,-675.67 42.69,-665.76 39.44,-675.84 46.44,-675.67"/>
</g>
<!-- Node13 -->
<g id="node7" class="node">
<title>Node13</title>
<g id="a_node7"><a xlink:href="class_ability_indicator.html" target="_top" xlink:title=" ">
<polygon fill="none" stroke="black" points="133,-1121.5 133,-1140.5 213,-1140.5 213,-1121.5 133,-1121.5"/>
<text text-anchor="middle" x="173" y="-1128.5" font-family="Helvetica,sans-Serif" font-size="10.00">AbilityIndicator</text>
</a>
</g>
</g>
<!-- Node7&#45;&gt;Node13 -->
<g id="edge6" class="edge">
<title>Node7&#45;&gt;Node13</title>
<path fill="none" stroke="midnightblue" d="M43.22,-675.8C46.48,-754.48 62.19,-1044.06 119,-1112 122.76,-1116.5 127.67,-1119.93 132.99,-1122.55"/>
<polygon fill="midnightblue" stroke="midnightblue" points="46.72,-675.63 42.83,-665.77 39.73,-675.9 46.72,-675.63"/>
</g>
<!-- Node14 -->
<g id="node8" class="node">
<title>Node14</title>
<g id="a_node8"><a xlink:href="class_arrow_animation.html" target="_top" xlink:title=" ">
<polygon fill="none" stroke="black" points="130.5,-1083.5 130.5,-1102.5 215.5,-1102.5 215.5,-1083.5 130.5,-1083.5"/>
<text text-anchor="middle" x="173" y="-1090.5" font-family="Helvetica,sans-Serif" font-size="10.00">ArrowAnimation</text>
</a>
</g>
</g>
<!-- Node7&#45;&gt;Node14 -->
<g id="edge7" class="edge">
<title>Node7&#45;&gt;Node14</title>
<path fill="none" stroke="midnightblue" d="M43.57,-676.02C47.94,-750.78 66.77,-1012.47 119,-1074 122.29,-1077.88 126.43,-1080.96 130.94,-1083.42"/>
<polygon fill="midnightblue" stroke="midnightblue" points="47.04,-675.47 42.99,-665.69 40.05,-675.87 47.04,-675.47"/>
</g>
<!-- Node15 -->
<g id="node9" class="node">
<title>Node15</title>
<g id="a_node9"><a xlink:href="class_background_scaling.html" target="_top" xlink:title="Image Scaling effect driven by a simple Sin equation.">
<polygon fill="none" stroke="black" points="122.5,-1045.5 122.5,-1064.5 223.5,-1064.5 223.5,-1045.5 122.5,-1045.5"/>
<text text-anchor="middle" x="173" y="-1052.5" font-family="Helvetica,sans-Serif" font-size="10.00">BackgroundScaling</text>
</a>
</g>
</g>
<!-- Node7&#45;&gt;Node15 -->
<g id="edge8" class="edge">
<title>Node7&#45;&gt;Node15</title>
<path fill="none" stroke="midnightblue" d="M43.97,-676C49.5,-746.29 71.28,-980.77 119,-1036 122.32,-1039.85 126.48,-1042.91 131,-1045.36"/>
<polygon fill="midnightblue" stroke="midnightblue" points="47.44,-675.55 43.19,-665.84 40.46,-676.08 47.44,-675.55"/>
</g>
<!-- Node16 -->
<g id="node10" class="node">
<title>Node16</title>
<g id="a_node10"><a xlink:href="class_basic_attack.html" target="_top" xlink:title=" ">
<polygon fill="none" stroke="black" points="138,-1007.5 138,-1026.5 208,-1026.5 208,-1007.5 138,-1007.5"/>
<text text-anchor="middle" x="173" y="-1014.5" font-family="Helvetica,sans-Serif" font-size="10.00">BasicAttack</text>
</a>
</g>
</g>
<!-- Node7&#45;&gt;Node16 -->
<g id="edge9" class="edge">
<title>Node7&#45;&gt;Node16</title>
<path fill="none" stroke="midnightblue" d="M44.42,-675.66C51.16,-740.9 75.69,-948.95 119,-998 123.98,-1003.64 130.76,-1007.61 137.81,-1010.4"/>
<polygon fill="midnightblue" stroke="midnightblue" points="47.88,-675.11 43.4,-665.51 40.92,-675.81 47.88,-675.11"/>
</g>
<!-- Node17 -->
<g id="node11" class="node">
<title>Node17</title>
<g id="a_node11"><a xlink:href="class_billboard.html" target="_top" xlink:title=" ">
<polygon fill="none" stroke="black" points="146,-969.5 146,-988.5 200,-988.5 200,-969.5 146,-969.5"/>
<text text-anchor="middle" x="173" y="-976.5" font-family="Helvetica,sans-Serif" font-size="10.00">Billboard</text>
</a>
</g>
</g>
<!-- Node7&#45;&gt;Node17 -->
<g id="edge10" class="edge">
<title>Node7&#45;&gt;Node17</title>
<path fill="none" stroke="midnightblue" d="M45.03,-675.8C53.14,-736.29 80.19,-917.2 119,-960 125.96,-967.68 136.24,-972.25 145.9,-974.98"/>
<polygon fill="midnightblue" stroke="midnightblue" points="48.47,-675.13 43.7,-665.67 41.53,-676.04 48.47,-675.13"/>
</g>
<!-- Node18 -->
<g id="node12" class="node">
<title>Node18</title>
<g id="a_node12"><a xlink:href="class_connection_manager.html" target="_top" xlink:title=" ">
<polygon fill="none" stroke="black" points="121.5,-931.5 121.5,-950.5 224.5,-950.5 224.5,-931.5 121.5,-931.5"/>
<text text-anchor="middle" x="173" y="-938.5" font-family="Helvetica,sans-Serif" font-size="10.00">ConnectionManager</text>
</a>
</g>
</g>
<!-- Node7&#45;&gt;Node18 -->
<g id="edge11" class="edge">
<title>Node7&#45;&gt;Node18</title>
<path fill="none" stroke="midnightblue" d="M42.39,-675.85C43.21,-724.45 52.05,-850.61 119,-922 122.61,-925.85 127.06,-928.92 131.82,-931.37"/>
<polygon fill="midnightblue" stroke="midnightblue" points="45.89,-675.7 42.32,-665.73 38.89,-675.75 45.89,-675.7"/>
</g>
<!-- Node19 -->
<g id="node13" class="node">
<title>Node19</title>
<g id="a_node13"><a xlink:href="class_drop.html" target="_top" xlink:title=" ">
<polygon fill="none" stroke="black" points="154.5,-893.5 154.5,-912.5 191.5,-912.5 191.5,-893.5 154.5,-893.5"/>
<text text-anchor="middle" x="173" y="-900.5" font-family="Helvetica,sans-Serif" font-size="10.00">Drop</text>
</a>
</g>
</g>
<!-- Node7&#45;&gt;Node19 -->
<g id="edge12" class="edge">
<title>Node7&#45;&gt;Node19</title>
<path fill="none" stroke="midnightblue" d="M43.53,-675.92C46.85,-719.59 60.8,-824.59 119,-884 128.3,-893.5 142.68,-898.26 154.11,-900.65"/>
<polygon fill="midnightblue" stroke="midnightblue" points="47.01,-675.51 42.87,-665.76 40.03,-675.96 47.01,-675.51"/>
</g>
<!-- Node23 -->
<g id="node17" class="node">
<title>Node23</title>
<g id="a_node17"><a xlink:href="class_effect_manager.html" target="_top" xlink:title=" ">
<polygon fill="none" stroke="black" points="133.5,-855.5 133.5,-874.5 212.5,-874.5 212.5,-855.5 133.5,-855.5"/>
<text text-anchor="middle" x="173" y="-862.5" font-family="Helvetica,sans-Serif" font-size="10.00">EffectManager</text>
</a>
</g>
</g>
<!-- Node7&#45;&gt;Node23 -->
<g id="edge16" class="edge">
<title>Node7&#45;&gt;Node23</title>
<path fill="none" stroke="midnightblue" d="M45.13,-676.19C51.17,-714.56 69.54,-798.41 119,-846 123.09,-849.93 128.04,-853.06 133.26,-855.54"/>
<polygon fill="midnightblue" stroke="midnightblue" points="48.53,-675.23 43.63,-665.84 41.6,-676.23 48.53,-675.23"/>
</g>
<!-- Node24 -->
<g id="node18" class="node">
<title>Node24</title>
<g id="a_node18"><a xlink:href="class_game_u_i_controller.html" target="_top" xlink:title=" ">
<polygon fill="none" stroke="black" points="126.5,-817.5 126.5,-836.5 219.5,-836.5 219.5,-817.5 126.5,-817.5"/>
<text text-anchor="middle" x="173" y="-824.5" font-family="Helvetica,sans-Serif" font-size="10.00">GameUIController</text>
</a>
</g>
</g>
<!-- Node7&#45;&gt;Node24 -->
<g id="edge17" class="edge">
<title>Node7&#45;&gt;Node24</title>
<path fill="none" stroke="midnightblue" d="M47.29,-675.68C56.1,-707.8 77.83,-771.57 119,-808 123.39,-811.89 128.64,-814.99 134.09,-817.48"/>
<polygon fill="midnightblue" stroke="midnightblue" points="50.61,-674.53 44.71,-665.73 43.83,-676.29 50.61,-674.53"/>
</g>
<!-- Node25 -->
<g id="node19" class="node">
<title>Node25</title>
<g id="a_node19"><a xlink:href="class_inventory.html" target="_top" xlink:title=" ">
<polygon fill="none" stroke="black" points="145.5,-779.5 145.5,-798.5 200.5,-798.5 200.5,-779.5 145.5,-779.5"/>
<text text-anchor="middle" x="173" y="-786.5" font-family="Helvetica,sans-Serif" font-size="10.00">Inventory</text>
</a>
</g>
</g>
<!-- Node7&#45;&gt;Node25 -->
<g id="edge18" class="edge">
<title>Node7&#45;&gt;Node25</title>
<path fill="none" stroke="midnightblue" d="M50.59,-674.98C62.22,-700.11 85.95,-744.25 119,-770 126.63,-775.95 136.29,-780.14 145.26,-783.04"/>
<polygon fill="midnightblue" stroke="midnightblue" points="53.75,-673.48 46.48,-665.77 47.36,-676.33 53.75,-673.48"/>
</g>
<!-- Node26 -->
<g id="node20" class="node">
<title>Node26</title>
<g id="a_node20"><a xlink:href="class_loading_canvas.html" target="_top" xlink:title=" ">
<polygon fill="none" stroke="black" points="132,-741.5 132,-760.5 214,-760.5 214,-741.5 132,-741.5"/>
<text text-anchor="middle" x="173" y="-748.5" font-family="Helvetica,sans-Serif" font-size="10.00">LoadingCanvas</text>
</a>
</g>
</g>
<!-- Node7&#45;&gt;Node26 -->
<g id="edge19" class="edge">
<title>Node7&#45;&gt;Node26</title>
<path fill="none" stroke="midnightblue" d="M56.22,-673.54C70.34,-690.56 93.79,-716.08 119,-732 124.95,-735.76 131.75,-738.9 138.44,-741.49"/>
<polygon fill="midnightblue" stroke="midnightblue" points="58.74,-671.09 49.73,-665.51 53.29,-675.49 58.74,-671.09"/>
</g>
<!-- Node27 -->
<g id="node21" class="node">
<title>Node27</title>
<g id="a_node21"><a xlink:href="class_mannequin.html" target="_top" xlink:title=" ">
<polygon fill="none" stroke="black" points="141,-703.5 141,-722.5 205,-722.5 205,-703.5 141,-703.5"/>
<text text-anchor="middle" x="173" y="-710.5" font-family="Helvetica,sans-Serif" font-size="10.00">Mannequin</text>
</a>
</g>
</g>
<!-- Node7&#45;&gt;Node27 -->
<g id="edge20" class="edge">
<title>Node7&#45;&gt;Node27</title>
<path fill="none" stroke="midnightblue" d="M69.1,-670.17C83.64,-677.67 102.1,-686.8 119,-694 126.82,-697.33 135.45,-700.59 143.43,-703.45"/>
<polygon fill="midnightblue" stroke="midnightblue" points="70.64,-667.03 60.15,-665.51 67.4,-673.23 70.64,-667.03"/>
</g>
<!-- Node28 -->
<g id="node22" class="node">
<title>Node28</title>
<g id="a_node22"><a xlink:href="class_model_player_mediator.html" target="_top" xlink:title=" ">
<polygon fill="none" stroke="black" points="119,-665.5 119,-684.5 227,-684.5 227,-665.5 119,-665.5"/>
<text text-anchor="middle" x="173" y="-672.5" font-family="Helvetica,sans-Serif" font-size="10.00">ModelPlayerMediator</text>
</a>
</g>
</g>
<!-- Node7&#45;&gt;Node28 -->
<g id="edge21" class="edge">
<title>Node7&#45;&gt;Node28</title>
<path fill="none" stroke="midnightblue" d="M93.14,-663.43C101.53,-664.66 110.24,-665.94 118.69,-667.18"/>
<polygon fill="midnightblue" stroke="midnightblue" points="93.52,-659.95 83.12,-661.96 92.51,-666.87 93.52,-659.95"/>
</g>
<!-- Node29 -->
<g id="node23" class="node">
<title>Node29</title>
<g id="a_node23"><a xlink:href="class_model_sync.html" target="_top" xlink:title=" ">
<polygon fill="none" stroke="black" points="140.5,-627.5 140.5,-646.5 205.5,-646.5 205.5,-627.5 140.5,-627.5"/>
<text text-anchor="middle" x="173" y="-634.5" font-family="Helvetica,sans-Serif" font-size="10.00">ModelSync</text>
</a>
</g>
</g>
<!-- Node7&#45;&gt;Node29 -->
<g id="edge22" class="edge">
<title>Node7&#45;&gt;Node29</title>
<path fill="none" stroke="midnightblue" d="M93.29,-648.55C109.08,-646.23 126.03,-643.74 140.15,-641.67"/>
<polygon fill="midnightblue" stroke="midnightblue" points="92.51,-645.13 83.12,-650.04 93.52,-652.05 92.51,-645.13"/>
</g>
<!-- Node30 -->
<g id="node24" class="node">
<title>Node30</title>
<g id="a_node24"><a xlink:href="class_options_menu.html" target="_top" xlink:title=" ">
<polygon fill="none" stroke="black" points="136,-589.5 136,-608.5 210,-608.5 210,-589.5 136,-589.5"/>
<text text-anchor="middle" x="173" y="-596.5" font-family="Helvetica,sans-Serif" font-size="10.00">OptionsMenu</text>
</a>
</g>
</g>
<!-- Node7&#45;&gt;Node30 -->
<g id="edge23" class="edge">
<title>Node7&#45;&gt;Node30</title>
<path fill="none" stroke="midnightblue" d="M69.1,-641.83C83.64,-634.33 102.1,-625.2 119,-618 126.82,-614.67 135.45,-611.41 143.43,-608.55"/>
<polygon fill="midnightblue" stroke="midnightblue" points="67.4,-638.77 60.15,-646.49 70.64,-644.97 67.4,-638.77"/>
</g>
<!-- Node31 -->
<g id="node25" class="node">
<title>Node31</title>
<g id="a_node25"><a xlink:href="class_player_controller.html" target="_top" xlink:title="Player Controller is the main class that handles all the movement of the Player.">
<polygon fill="none" stroke="black" points="130,-551.5 130,-570.5 216,-570.5 216,-551.5 130,-551.5"/>
<text text-anchor="middle" x="173" y="-558.5" font-family="Helvetica,sans-Serif" font-size="10.00">PlayerController</text>
</a>
</g>
</g>
<!-- Node7&#45;&gt;Node31 -->
<g id="edge24" class="edge">
<title>Node7&#45;&gt;Node31</title>
<path fill="none" stroke="midnightblue" d="M56.22,-638.46C70.34,-621.44 93.79,-595.92 119,-580 124.95,-576.24 131.75,-573.1 138.44,-570.51"/>
<polygon fill="midnightblue" stroke="midnightblue" points="53.29,-636.51 49.73,-646.49 58.74,-640.91 53.29,-636.51"/>
</g>
<!-- Node32 -->
<g id="node26" class="node">
<title>Node32</title>
<g id="a_node26"><a xlink:href="class_player_h_u_d_controller.html" target="_top" xlink:title=" ">
<polygon fill="none" stroke="black" points="120,-513.5 120,-532.5 226,-532.5 226,-513.5 120,-513.5"/>
<text text-anchor="middle" x="173" y="-520.5" font-family="Helvetica,sans-Serif" font-size="10.00">PlayerHUDController</text>
</a>
</g>
</g>
<!-- Node7&#45;&gt;Node32 -->
<g id="edge25" class="edge">
<title>Node7&#45;&gt;Node32</title>
<path fill="none" stroke="midnightblue" d="M50.59,-637.02C62.22,-611.89 85.95,-567.75 119,-542 123.93,-538.15 129.71,-535.04 135.61,-532.54"/>
<polygon fill="midnightblue" stroke="midnightblue" points="47.36,-635.67 46.48,-646.23 53.75,-638.52 47.36,-635.67"/>
</g>
<!-- Node33 -->
<g id="node27" class="node">
<title>Node33</title>
<g id="a_node27"><a xlink:href="class_post_game_menu.html" target="_top" xlink:title=" ">
<polygon fill="none" stroke="black" points="129.5,-475.5 129.5,-494.5 216.5,-494.5 216.5,-475.5 129.5,-475.5"/>
<text text-anchor="middle" x="173" y="-482.5" font-family="Helvetica,sans-Serif" font-size="10.00">PostGameMenu</text>
</a>
</g>
</g>
<!-- Node7&#45;&gt;Node33 -->
<g id="edge26" class="edge">
<title>Node7&#45;&gt;Node33</title>
<path fill="none" stroke="midnightblue" d="M47.29,-636.32C56.1,-604.2 77.83,-540.43 119,-504 123.39,-500.11 128.64,-497.01 134.09,-494.52"/>
<polygon fill="midnightblue" stroke="midnightblue" points="43.83,-635.71 44.71,-646.27 50.61,-637.47 43.83,-635.71"/>
</g>
<!-- Node34 -->
<g id="node28" class="node">
<title>Node34</title>
<g id="a_node28"><a xlink:href="class_press_any_key.html" target="_top" xlink:title="Detects when the player pressed any key and connects to the server accordingly.">
<polygon fill="none" stroke="black" points="134.5,-437.5 134.5,-456.5 211.5,-456.5 211.5,-437.5 134.5,-437.5"/>
<text text-anchor="middle" x="173" y="-444.5" font-family="Helvetica,sans-Serif" font-size="10.00">PressAnyKey</text>
</a>
</g>
</g>
<!-- Node7&#45;&gt;Node34 -->
<g id="edge27" class="edge">
<title>Node7&#45;&gt;Node34</title>
<path fill="none" stroke="midnightblue" d="M45.13,-635.81C51.17,-597.44 69.54,-513.59 119,-466 123.37,-461.8 128.73,-458.52 134.34,-455.96"/>
<polygon fill="midnightblue" stroke="midnightblue" points="41.6,-635.77 43.63,-646.16 48.53,-636.77 41.6,-635.77"/>
</g>
<!-- Node35 -->
<g id="node29" class="node">
<title>Node35</title>
<g id="a_node29"><a xlink:href="class_profile_panel.html" target="_top" xlink:title=" ">
<polygon fill="none" stroke="black" points="139,-399.5 139,-418.5 207,-418.5 207,-399.5 139,-399.5"/>
<text text-anchor="middle" x="173" y="-406.5" font-family="Helvetica,sans-Serif" font-size="10.00">ProfilePanel</text>
</a>
</g>
</g>
<!-- Node7&#45;&gt;Node35 -->
<g id="edge28" class="edge">
<title>Node7&#45;&gt;Node35</title>
<path fill="none" stroke="midnightblue" d="M43.53,-636.08C46.85,-592.41 60.8,-487.41 119,-428 124.4,-422.48 131.52,-418.56 138.78,-415.78"/>
<polygon fill="midnightblue" stroke="midnightblue" points="40.03,-636.04 42.87,-646.24 47.01,-636.49 40.03,-636.04"/>
</g>
<!-- Node36 -->
<g id="node30" class="node">
<title>Node36</title>
<g id="a_node30"><a xlink:href="class_ranged_attack_follow.html" target="_top" xlink:title=" ">
<polygon fill="none" stroke="black" points="120,-361.5 120,-380.5 226,-380.5 226,-361.5 120,-361.5"/>
<text text-anchor="middle" x="173" y="-368.5" font-family="Helvetica,sans-Serif" font-size="10.00">RangedAttackFollow</text>
</a>
</g>
</g>
<!-- Node7&#45;&gt;Node36 -->
<g id="edge29" class="edge">
<title>Node7&#45;&gt;Node36</title>
<path fill="none" stroke="midnightblue" d="M42.39,-636.15C43.21,-587.55 52.05,-461.39 119,-390 122.61,-386.15 127.06,-383.08 131.82,-380.63"/>
<polygon fill="midnightblue" stroke="midnightblue" points="38.89,-636.25 42.32,-646.27 45.89,-636.3 38.89,-636.25"/>
</g>
<!-- Node37 -->
<g id="node31" class="node">
<title>Node37</title>
<g id="a_node31"><a xlink:href="class_respawn_canvas.html" target="_top" xlink:title=" ">
<polygon fill="none" stroke="black" points="129,-323.5 129,-342.5 217,-342.5 217,-323.5 129,-323.5"/>
<text text-anchor="middle" x="173" y="-330.5" font-family="Helvetica,sans-Serif" font-size="10.00">RespawnCanvas</text>
</a>
</g>
</g>
<!-- Node7&#45;&gt;Node37 -->
<g id="edge30" class="edge">
<title>Node7&#45;&gt;Node37</title>
<path fill="none" stroke="midnightblue" d="M45.03,-636.2C53.14,-575.71 80.19,-394.8 119,-352 122.55,-348.09 126.95,-344.98 131.7,-342.52"/>
<polygon fill="midnightblue" stroke="midnightblue" points="41.53,-635.96 43.7,-646.33 48.47,-636.87 41.53,-635.96"/>
</g>
<!-- Node38 -->
<g id="node32" class="node">
<title>Node38</title>
<g id="a_node32"><a xlink:href="class_show_ping.html" target="_top" xlink:title=" ">
<polygon fill="none" stroke="black" points="143,-285.5 143,-304.5 203,-304.5 203,-285.5 143,-285.5"/>
<text text-anchor="middle" x="173" y="-292.5" font-family="Helvetica,sans-Serif" font-size="10.00">ShowPing</text>
</a>
</g>
</g>
<!-- Node7&#45;&gt;Node38 -->
<g id="edge31" class="edge">
<title>Node7&#45;&gt;Node38</title>
<path fill="none" stroke="midnightblue" d="M44.42,-636.34C51.16,-571.1 75.69,-363.05 119,-314 125.15,-307.04 134.03,-302.63 142.77,-299.83"/>
<polygon fill="midnightblue" stroke="midnightblue" points="40.92,-636.19 43.4,-646.49 47.88,-636.89 40.92,-636.19"/>
</g>
<!-- Node39 -->
<g id="node33" class="node">
<title>Node39</title>
<g id="a_node33"><a xlink:href="class_singleton.html" target="_top" xlink:title="Singleton Base class.">
<polygon fill="none" stroke="black" points="133,-247.5 133,-266.5 213,-266.5 213,-247.5 133,-247.5"/>
<text text-anchor="middle" x="173" y="-254.5" font-family="Helvetica,sans-Serif" font-size="10.00">Singleton&lt; T &gt;</text>
</a>
</g>
</g>
<!-- Node7&#45;&gt;Node39 -->
<g id="edge32" class="edge">
<title>Node7&#45;&gt;Node39</title>
<path fill="none" stroke="midnightblue" d="M43.97,-636C49.5,-565.71 71.28,-331.23 119,-276 122.77,-271.64 127.62,-268.27 132.85,-265.69"/>
<polygon fill="midnightblue" stroke="midnightblue" points="40.46,-635.92 43.19,-646.16 47.44,-636.45 40.46,-635.92"/>
</g>
<!-- Node40 -->
<g id="node34" class="node">
<title>Node40</title>
<g id="a_node34"><a xlink:href="class_stats.html" target="_top" xlink:title="Base class Stats of the entity.">
<polygon fill="none" stroke="black" points="153,-209.5 153,-228.5 193,-228.5 193,-209.5 153,-209.5"/>
<text text-anchor="middle" x="173" y="-216.5" font-family="Helvetica,sans-Serif" font-size="10.00">Stats</text>
</a>
</g>
</g>
<!-- Node7&#45;&gt;Node40 -->
<g id="edge33" class="edge">
<title>Node7&#45;&gt;Node40</title>
<path fill="none" stroke="midnightblue" d="M43.57,-635.98C47.94,-561.22 66.77,-299.53 119,-238 127.41,-228.09 141.39,-223.35 152.88,-221.08"/>
<polygon fill="midnightblue" stroke="midnightblue" points="40.05,-636.13 42.99,-646.31 47.04,-636.53 40.05,-636.13"/>
</g>
<!-- Node48 -->
<g id="node42" class="node">
<title>Node48</title>
<g id="a_node42"><a xlink:href="class_turret_indicator.html" target="_top" xlink:title=" ">
<polygon fill="none" stroke="black" points="134,-171.5 134,-190.5 212,-190.5 212,-171.5 134,-171.5"/>
<text text-anchor="middle" x="173" y="-178.5" font-family="Helvetica,sans-Serif" font-size="10.00">TurretIndicator</text>
</a>
</g>
</g>
<!-- Node7&#45;&gt;Node48 -->
<g id="edge41" class="edge">
<title>Node7&#45;&gt;Node48</title>
<path fill="none" stroke="midnightblue" d="M43.22,-636.2C46.48,-557.52 62.19,-267.94 119,-200 122.95,-195.28 128.17,-191.73 133.79,-189.06"/>
<polygon fill="midnightblue" stroke="midnightblue" points="39.73,-636.1 42.83,-646.23 46.72,-636.37 39.73,-636.1"/>
</g>
<!-- Node49 -->
<g id="node43" class="node">
<title>Node49</title>
<g id="a_node43"><a xlink:href="class_turret_ray.html" target="_top" xlink:title=" ">
<polygon fill="none" stroke="black" points="143.5,-133.5 143.5,-152.5 202.5,-152.5 202.5,-133.5 143.5,-133.5"/>
<text text-anchor="middle" x="173" y="-140.5" font-family="Helvetica,sans-Serif" font-size="10.00">TurretRay</text>
</a>
</g>
</g>
<!-- Node7&#45;&gt;Node49 -->
<g id="edge42" class="edge">
<title>Node7&#45;&gt;Node49</title>
<path fill="none" stroke="midnightblue" d="M42.94,-636.17C45.17,-553.39 57.66,-236.31 119,-162 125.1,-154.61 134.29,-150.1 143.32,-147.34"/>
<polygon fill="midnightblue" stroke="midnightblue" points="39.44,-636.16 42.69,-646.24 46.44,-636.33 39.44,-636.16"/>
</g>
<!-- Node50 -->
<g id="node44" class="node">
<title>Node50</title>
<g id="a_node44"><a xlink:href="class_turret_shooter.html" target="_top" xlink:title="This detects all the nearby attackable entities and shoots them if they are from the enemy team.">
<polygon fill="none" stroke="black" points="135.5,-95.5 135.5,-114.5 210.5,-114.5 210.5,-95.5 135.5,-95.5"/>
<text text-anchor="middle" x="173" y="-102.5" font-family="Helvetica,sans-Serif" font-size="10.00">TurretShooter</text>
</a>
</g>
</g>
<!-- Node7&#45;&gt;Node50 -->
<g id="edge43" class="edge">
<title>Node7&#45;&gt;Node50</title>
<path fill="none" stroke="midnightblue" d="M42.7,-636.32C43.95,-549.9 53.06,-204.76 119,-124 123.27,-118.78 129.08,-114.99 135.3,-112.24"/>
<polygon fill="midnightblue" stroke="midnightblue" points="39.2,-636.31 42.57,-646.35 46.2,-636.39 39.2,-636.31"/>
</g>
<!-- Node51 -->
<g id="node45" class="node">
<title>Node51</title>
<g id="a_node45"><a xlink:href="class_u_i_controller.html" target="_top" xlink:title="Base abstract class for all the entities that have UI and Stats in the game.">
<polygon fill="none" stroke="black" points="139.5,-57.5 139.5,-76.5 206.5,-76.5 206.5,-57.5 139.5,-57.5"/>
<text text-anchor="middle" x="173" y="-64.5" font-family="Helvetica,sans-Serif" font-size="10.00">UIController</text>
</a>
</g>
</g>
<!-- Node7&#45;&gt;Node51 -->
<g id="edge44" class="edge">
<title>Node7&#45;&gt;Node51</title>
<path fill="none" stroke="midnightblue" d="M42.49,-636.07C42.83,-545.48 48.56,-173.11 119,-86 124.16,-79.62 131.64,-75.38 139.37,-72.56"/>
<polygon fill="midnightblue" stroke="midnightblue" points="38.99,-636.1 42.47,-646.11 45.99,-636.11 38.99,-636.1"/>
</g>
<!-- Node1 -->
<g id="node3" class="node">
<title>Node1</title>
<g id="a_node3"><a xlink:href="class_ability___lis1.html" target="_top" xlink:title=" ">
<polygon fill="none" stroke="black" points="283,-1254.5 283,-1273.5 350,-1273.5 350,-1254.5 283,-1254.5"/>
<text text-anchor="middle" x="316.5" y="-1261.5" font-family="Helvetica,sans-Serif" font-size="10.00">Ability_Lis1</text>
</a>
</g>
</g>
<!-- Node0&#45;&gt;Node1 -->
<g id="edge2" class="edge">
<title>Node0&#45;&gt;Node1</title>
<path fill="none" stroke="midnightblue" d="M216.16,-1250.66C237.39,-1253.51 262.75,-1256.92 282.54,-1259.57"/>
<polygon fill="midnightblue" stroke="midnightblue" points="216.49,-1247.17 206.11,-1249.31 215.55,-1254.11 216.49,-1247.17"/>
</g>
<!-- Node2 -->
<g id="node4" class="node">
<title>Node2</title>
<g id="a_node4"><a xlink:href="class_ability___lis4.html" target="_top" xlink:title=" ">
<polygon fill="none" stroke="black" points="283,-1216.5 283,-1235.5 350,-1235.5 350,-1216.5 283,-1216.5"/>
<text text-anchor="middle" x="316.5" y="-1223.5" font-family="Helvetica,sans-Serif" font-size="10.00">Ability_Lis4</text>
</a>
</g>
</g>
<!-- Node0&#45;&gt;Node2 -->
<g id="edge3" class="edge">
<title>Node0&#45;&gt;Node2</title>
<path fill="none" stroke="midnightblue" d="M216.16,-1239.34C237.39,-1236.49 262.75,-1233.08 282.54,-1230.43"/>
<polygon fill="midnightblue" stroke="midnightblue" points="215.55,-1235.89 206.11,-1240.69 216.49,-1242.83 215.55,-1235.89"/>
</g>
<!-- Node20 -->
<g id="node14" class="node">
<title>Node20</title>
<g id="a_node14"><a xlink:href="class_coin.html" target="_top" xlink:title=" ">
<polygon fill="none" stroke="black" points="298.5,-931.5 298.5,-950.5 334.5,-950.5 334.5,-931.5 298.5,-931.5"/>
<text text-anchor="middle" x="316.5" y="-938.5" font-family="Helvetica,sans-Serif" font-size="10.00">Coin</text>
</a>
</g>
</g>
<!-- Node19&#45;&gt;Node20 -->
<g id="edge13" class="edge">
<title>Node19&#45;&gt;Node20</title>
<path fill="none" stroke="midnightblue" d="M201.41,-910.36C229.99,-918.04 273.93,-929.84 298.09,-936.32"/>
<polygon fill="midnightblue" stroke="midnightblue" points="202.2,-906.95 191.63,-907.74 200.38,-913.71 202.2,-906.95"/>
</g>
<!-- Node21 -->
<g id="node15" class="node">
<title>Node21</title>
<g id="a_node15"><a xlink:href="class_diamond.html" target="_top" xlink:title=" ">
<polygon fill="none" stroke="black" points="289,-893.5 289,-912.5 344,-912.5 344,-893.5 289,-893.5"/>
<text text-anchor="middle" x="316.5" y="-900.5" font-family="Helvetica,sans-Serif" font-size="10.00">Diamond</text>
</a>
</g>
</g>
<!-- Node19&#45;&gt;Node21 -->
<g id="edge14" class="edge">
<title>Node19&#45;&gt;Node21</title>
<path fill="none" stroke="midnightblue" d="M201.67,-903C226.93,-903 264.03,-903 288.94,-903"/>
<polygon fill="midnightblue" stroke="midnightblue" points="201.64,-899.5 191.63,-903 201.63,-906.5 201.64,-899.5"/>
</g>
<!-- Node22 -->
<g id="node16" class="node">
<title>Node22</title>
<g id="a_node16"><a xlink:href="class_heart.html" target="_top" xlink:title=" ">
<polygon fill="none" stroke="black" points="296.5,-855.5 296.5,-874.5 336.5,-874.5 336.5,-855.5 296.5,-855.5"/>
<text text-anchor="middle" x="316.5" y="-862.5" font-family="Helvetica,sans-Serif" font-size="10.00">Heart</text>
</a>
</g>
</g>
<!-- Node19&#45;&gt;Node22 -->
<g id="edge15" class="edge">
<title>Node19&#45;&gt;Node22</title>
<path fill="none" stroke="midnightblue" d="M201.54,-895.6C229.43,-888.11 271.83,-876.73 296.28,-870.16"/>
<polygon fill="midnightblue" stroke="midnightblue" points="200.38,-892.29 191.63,-898.26 202.2,-899.05 200.38,-892.29"/>
</g>
<!-- Node41 -->
<g id="node35" class="node">
<title>Node41</title>
<g id="a_node35"><a xlink:href="class_ability_affected_stats.html" target="_top" xlink:title=" ">
<polygon fill="none" stroke="black" points="265.5,-228.5 265.5,-247.5 367.5,-247.5 367.5,-228.5 265.5,-228.5"/>
<text text-anchor="middle" x="316.5" y="-235.5" font-family="Helvetica,sans-Serif" font-size="10.00">AbilityAffectedStats</text>
</a>
</g>
</g>
<!-- Node40&#45;&gt;Node41 -->
<g id="edge34" class="edge">
<title>Node40&#45;&gt;Node41</title>
<path fill="none" stroke="midnightblue" d="M203.2,-222.92C221.14,-225.33 244.6,-228.48 265.43,-231.28"/>
<polygon fill="midnightblue" stroke="midnightblue" points="203.46,-219.42 193.08,-221.56 202.53,-226.36 203.46,-219.42"/>
</g>
<!-- Node45 -->
<g id="node39" class="node">
<title>Node45</title>
<g id="a_node39"><a xlink:href="class_structure_stats.html" target="_top" xlink:title=" ">
<polygon fill="none" stroke="black" points="276.5,-190.5 276.5,-209.5 356.5,-209.5 356.5,-190.5 276.5,-190.5"/>
<text text-anchor="middle" x="316.5" y="-197.5" font-family="Helvetica,sans-Serif" font-size="10.00">StructureStats</text>
</a>
</g>
</g>
<!-- Node40&#45;&gt;Node45 -->
<g id="edge38" class="edge">
<title>Node40&#45;&gt;Node45</title>
<path fill="none" stroke="midnightblue" d="M203.1,-215.09C224.3,-212.25 253.25,-208.36 276.46,-205.24"/>
<polygon fill="midnightblue" stroke="midnightblue" points="202.53,-211.64 193.08,-216.44 203.46,-218.58 202.53,-211.64"/>
</g>
<!-- Node42 -->
<g id="node36" class="node">
<title>Node42</title>
<g id="a_node36"><a xlink:href="class_minion_stats.html" target="_top" xlink:title="Minion Stats is the main class that controls all the Minion Statistics for every Minion entity within...">
<polygon fill="none" stroke="black" points="419.5,-266.5 419.5,-285.5 487.5,-285.5 487.5,-266.5 419.5,-266.5"/>
<text text-anchor="middle" x="453.5" y="-273.5" font-family="Helvetica,sans-Serif" font-size="10.00">MinionStats</text>
</a>
</g>
</g>
<!-- Node41&#45;&gt;Node42 -->
<g id="edge35" class="edge">
<title>Node41&#45;&gt;Node42</title>
<path fill="none" stroke="midnightblue" d="M361.42,-250.36C380.26,-255.67 401.91,-261.76 419.38,-266.68"/>
<polygon fill="midnightblue" stroke="midnightblue" points="362.14,-246.93 351.57,-247.59 360.24,-253.67 362.14,-246.93"/>
</g>
<!-- Node43 -->
<g id="node37" class="node">
<title>Node43</title>
<g id="a_node37"><a xlink:href="class_player_stats.html" target="_top" xlink:title="Player Stats is the main class that controls all the Player Statistics in all time in the game execut...">
<polygon fill="none" stroke="black" points="419.5,-228.5 419.5,-247.5 487.5,-247.5 487.5,-228.5 419.5,-228.5"/>
<text text-anchor="middle" x="453.5" y="-235.5" font-family="Helvetica,sans-Serif" font-size="10.00">PlayerStats</text>
</a>
</g>
</g>
<!-- Node41&#45;&gt;Node43 -->
<g id="edge36" class="edge">
<title>Node41&#45;&gt;Node43</title>
<path fill="none" stroke="midnightblue" d="M378.02,-238C392.25,-238 406.89,-238 419.39,-238"/>
<polygon fill="midnightblue" stroke="midnightblue" points="377.77,-234.5 367.77,-238 377.77,-241.5 377.77,-234.5"/>
</g>
<!-- Node44 -->
<g id="node38" class="node">
<title>Node44</title>
<g id="a_node38"><a xlink:href="class_mannequin_stats.html" target="_top" xlink:title=" ">
<polygon fill="none" stroke="black" points="537,-228.5 537,-247.5 624,-247.5 624,-228.5 537,-228.5"/>
<text text-anchor="middle" x="580.5" y="-235.5" font-family="Helvetica,sans-Serif" font-size="10.00">MannequinStats</text>
</a>
</g>
</g>
<!-- Node43&#45;&gt;Node44 -->
<g id="edge37" class="edge">
<title>Node43&#45;&gt;Node44</title>
<path fill="none" stroke="midnightblue" d="M497.91,-238C510.49,-238 524.2,-238 536.73,-238"/>
<polygon fill="midnightblue" stroke="midnightblue" points="497.67,-234.5 487.67,-238 497.67,-241.5 497.67,-234.5"/>
</g>
<!-- Node46 -->
<g id="node40" class="node">
<title>Node46</title>
<g id="a_node40"><a xlink:href="class_nexus_stats.html" target="_top" xlink:title=" ">
<polygon fill="none" stroke="black" points="419.5,-190.5 419.5,-209.5 487.5,-209.5 487.5,-190.5 419.5,-190.5"/>
<text text-anchor="middle" x="453.5" y="-197.5" font-family="Helvetica,sans-Serif" font-size="10.00">NexusStats</text>
</a>
</g>
</g>
<!-- Node45&#45;&gt;Node46 -->
<g id="edge39" class="edge">
<title>Node45&#45;&gt;Node46</title>
<path fill="none" stroke="midnightblue" d="M366.65,-200C384.22,-200 403.59,-200 419.48,-200"/>
<polygon fill="midnightblue" stroke="midnightblue" points="366.55,-196.5 356.55,-200 366.55,-203.5 366.55,-196.5"/>
</g>
<!-- Node47 -->
<g id="node41" class="node">
<title>Node47</title>
<g id="a_node41"><a xlink:href="class_turret_stats.html" target="_top" xlink:title=" ">
<polygon fill="none" stroke="black" points="421,-152.5 421,-171.5 486,-171.5 486,-152.5 421,-152.5"/>
<text text-anchor="middle" x="453.5" y="-159.5" font-family="Helvetica,sans-Serif" font-size="10.00">TurretStats</text>
</a>
</g>
</g>
<!-- Node45&#45;&gt;Node47 -->
<g id="edge40" class="edge">
<title>Node45&#45;&gt;Node47</title>
<path fill="none" stroke="midnightblue" d="M361.38,-187.65C380.73,-182.2 403.06,-175.92 420.76,-170.93"/>
<polygon fill="midnightblue" stroke="midnightblue" points="360.24,-184.33 351.57,-190.41 362.14,-191.07 360.24,-184.33"/>
</g>
<!-- Node52 -->
<g id="node46" class="node">
<title>Node52</title>
<g id="a_node46"><a xlink:href="class_minion_u_i_controller.html" target="_top" xlink:title="UIController for all the Minion entities of the game.">
<polygon fill="none" stroke="black" points="269,-95.5 269,-114.5 364,-114.5 364,-95.5 269,-95.5"/>
<text text-anchor="middle" x="316.5" y="-102.5" font-family="Helvetica,sans-Serif" font-size="10.00">MinionUIController</text>
</a>
</g>
</g>
<!-- Node51&#45;&gt;Node52 -->
<g id="edge45" class="edge">
<title>Node51&#45;&gt;Node52</title>
<path fill="none" stroke="midnightblue" d="M216.7,-78.47C236.88,-83.89 260.69,-90.28 279.88,-95.44"/>
<polygon fill="midnightblue" stroke="midnightblue" points="217.38,-75.03 206.82,-75.81 215.57,-81.79 217.38,-75.03"/>
</g>
<!-- Node53 -->
<g id="node47" class="node">
<title>Node53</title>
<g id="a_node47"><a xlink:href="class_player_u_i_controller.html" target="_top" xlink:title="UI Controller for the Player Stats">
<polygon fill="none" stroke="black" points="269,-57.5 269,-76.5 364,-76.5 364,-57.5 269,-57.5"/>
<text text-anchor="middle" x="316.5" y="-64.5" font-family="Helvetica,sans-Serif" font-size="10.00">PlayerUIController</text>
</a>
</g>
</g>
<!-- Node51&#45;&gt;Node53 -->
<g id="edge46" class="edge">
<title>Node51&#45;&gt;Node53</title>
<path fill="none" stroke="midnightblue" d="M217.19,-67C233.56,-67 252.26,-67 268.92,-67"/>
<polygon fill="midnightblue" stroke="midnightblue" points="216.82,-63.5 206.82,-67 216.82,-70.5 216.82,-63.5"/>
</g>
<!-- Node54 -->
<g id="node48" class="node">
<title>Node54</title>
<g id="a_node48"><a xlink:href="class_structure_u_i_controller.html" target="_top" xlink:title=" ">
<polygon fill="none" stroke="black" points="263,-19.5 263,-38.5 370,-38.5 370,-19.5 263,-19.5"/>
<text text-anchor="middle" x="316.5" y="-26.5" font-family="Helvetica,sans-Serif" font-size="10.00">StructureUIController</text>
</a>
</g>
</g>
<!-- Node51&#45;&gt;Node54 -->
<g id="edge47" class="edge">
<title>Node51&#45;&gt;Node54</title>
<path fill="none" stroke="midnightblue" d="M216.7,-55.53C236.88,-50.11 260.69,-43.72 279.88,-38.56"/>
<polygon fill="midnightblue" stroke="midnightblue" points="215.57,-52.21 206.82,-58.19 217.38,-58.97 215.57,-52.21"/>
</g>
<!-- Node55 -->
<g id="node49" class="node">
<title>Node55</title>
<g id="a_node49"><a xlink:href="class_nexus_u_i_controller.html" target="_top" xlink:title=" ">
<polygon fill="none" stroke="black" points="406,-38.5 406,-57.5 501,-57.5 501,-38.5 406,-38.5"/>
<text text-anchor="middle" x="453.5" y="-45.5" font-family="Helvetica,sans-Serif" font-size="10.00">NexusUIController</text>
</a>
</g>
</g>
<!-- Node54&#45;&gt;Node55 -->
<g id="edge48" class="edge">
<title>Node54&#45;&gt;Node55</title>
<path fill="none" stroke="midnightblue" d="M380.19,-37.82C388.88,-39.05 397.67,-40.28 405.99,-41.45"/>
<polygon fill="midnightblue" stroke="midnightblue" points="380.47,-34.33 370.08,-36.4 379.5,-41.26 380.47,-34.33"/>
</g>
<!-- Node56 -->
<g id="node50" class="node">
<title>Node56</title>
<g id="a_node50"><a xlink:href="class_turret_u_i_controller.html" target="_top" xlink:title=" ">
<polygon fill="none" stroke="black" points="407.5,-0.5 407.5,-19.5 499.5,-19.5 499.5,-0.5 407.5,-0.5"/>
<text text-anchor="middle" x="453.5" y="-7.5" font-family="Helvetica,sans-Serif" font-size="10.00">TurretUIController</text>
</a>
</g>
</g>
<!-- Node54&#45;&gt;Node56 -->
<g id="edge49" class="edge">
<title>Node54&#45;&gt;Node56</title>
<path fill="none" stroke="midnightblue" d="M379.99,-20.21C389.19,-18.91 398.53,-17.6 407.29,-16.36"/>
<polygon fill="midnightblue" stroke="midnightblue" points="379.5,-16.74 370.08,-21.6 380.47,-23.67 379.5,-16.74"/>
</g>
</g>
</svg>
