<?xml version="1.0" encoding="UTF-8" standalone="no"?>
<!DOCTYPE svg PUBLIC "-//W3C//DTD SVG 1.1//EN"
 "http://www.w3.org/Graphics/SVG/1.1/DTD/svg11.dtd">
<!-- Generated by graphviz version 2.47.3 (20210619.1520)
 -->
<!-- Title: Jerarquia Gràfica de la Classe Pages: 1 -->
<svg width="600pt" height="997pt"
 viewBox="0.00 0.00 600.00 997.00" xmlns="http://www.w3.org/2000/svg" xmlns:xlink="http://www.w3.org/1999/xlink">
<g id="graph0" class="graph" transform="scale(1 1) rotate(0) translate(4 993)">
<title>Jerarquia Gràfica de la Classe</title>
<polygon fill="white" stroke="transparent" points="-4,4 -4,-993 596,-993 596,4 -4,4"/>
<!-- Node5 -->
<g id="node1" class="node">
<title>Node5</title>
<g id="a_node1"><a xlink:title=" ">
<polygon fill="white" stroke="#bfbfbf" points="0,-513.5 0,-532.5 83,-532.5 83,-513.5 0,-513.5"/>
<text text-anchor="middle" x="41.5" y="-520.5" font-family="Helvetica,sans-Serif" font-size="10.00">MonoBehaviour</text>
</a>
</g>
</g>
<!-- Node0 -->
<g id="node2" class="node">
<title>Node0</title>
<g id="a_node2"><a xlink:href="class_ability_base.xhtml" target="_top" xlink:title="Base class for all the Ability_Instanciable prefab scripts.">
<polygon fill="white" stroke="black" points="140,-950.5 140,-969.5 206,-969.5 206,-950.5 140,-950.5"/>
<text text-anchor="middle" x="173" y="-957.5" font-family="Helvetica,sans-Serif" font-size="10.00">AbilityBase</text>
</a>
</g>
</g>
<!-- Node5&#45;&gt;Node0 -->
<g id="edge1" class="edge">
<title>Node5&#45;&gt;Node0</title>
<path fill="none" stroke="midnightblue" d="M43.57,-543.02C47.94,-617.78 66.77,-879.47 119,-941 124.38,-947.33 132.03,-951.56 139.85,-954.37"/>
<polygon fill="midnightblue" stroke="midnightblue" points="47.04,-542.47 42.99,-532.69 40.05,-542.87 47.04,-542.47"/>
</g>
<!-- Node9 -->
<g id="node5" class="node">
<title>Node9</title>
<g id="a_node5"><a xlink:href="class_ability_cooldown.xhtml" target="_top" xlink:title=" ">
<polygon fill="white" stroke="black" points="130,-912.5 130,-931.5 216,-931.5 216,-912.5 130,-912.5"/>
<text text-anchor="middle" x="173" y="-919.5" font-family="Helvetica,sans-Serif" font-size="10.00">AbilityCooldown</text>
</a>
</g>
</g>
<!-- Node5&#45;&gt;Node9 -->
<g id="edge4" class="edge">
<title>Node5&#45;&gt;Node9</title>
<path fill="none" stroke="midnightblue" d="M43.97,-543C49.5,-613.29 71.28,-847.77 119,-903 122.32,-906.85 126.48,-909.91 131,-912.36"/>
<polygon fill="midnightblue" stroke="midnightblue" points="47.44,-542.55 43.19,-532.84 40.46,-543.08 47.44,-542.55"/>
</g>
<!-- Node10 -->
<g id="node6" class="node">
<title>Node10</title>
<g id="a_node6"><a xlink:href="class_ability_display.xhtml" target="_top" xlink:title=" ">
<polygon fill="white" stroke="black" points="135,-874.5 135,-893.5 211,-893.5 211,-874.5 135,-874.5"/>
<text text-anchor="middle" x="173" y="-881.5" font-family="Helvetica,sans-Serif" font-size="10.00">AbilityDisplay</text>
</a>
</g>
</g>
<!-- Node5&#45;&gt;Node10 -->
<g id="edge5" class="edge">
<title>Node5&#45;&gt;Node10</title>
<path fill="none" stroke="midnightblue" d="M44.42,-542.66C51.16,-607.9 75.69,-815.95 119,-865 123.27,-869.84 128.86,-873.44 134.81,-876.13"/>
<polygon fill="midnightblue" stroke="midnightblue" points="47.88,-542.11 43.4,-532.51 40.92,-542.81 47.88,-542.11"/>
</g>
<!-- Node11 -->
<g id="node7" class="node">
<title>Node11</title>
<g id="a_node7"><a xlink:href="class_ability_indicator.xhtml" target="_top" xlink:title=" ">
<polygon fill="white" stroke="black" points="133,-836.5 133,-855.5 213,-855.5 213,-836.5 133,-836.5"/>
<text text-anchor="middle" x="173" y="-843.5" font-family="Helvetica,sans-Serif" font-size="10.00">AbilityIndicator</text>
</a>
</g>
</g>
<!-- Node5&#45;&gt;Node11 -->
<g id="edge6" class="edge">
<title>Node5&#45;&gt;Node11</title>
<path fill="none" stroke="midnightblue" d="M45.03,-542.8C53.14,-603.29 80.19,-784.2 119,-827 122.81,-831.2 127.61,-834.47 132.76,-837.02"/>
<polygon fill="midnightblue" stroke="midnightblue" points="48.47,-542.13 43.7,-532.67 41.53,-543.04 48.47,-542.13"/>
</g>
<!-- Node12 -->
<g id="node8" class="node">
<title>Node12</title>
<g id="a_node8"><a xlink:href="class_arrow_animation.xhtml" target="_top" xlink:title=" ">
<polygon fill="white" stroke="black" points="130.5,-798.5 130.5,-817.5 215.5,-817.5 215.5,-798.5 130.5,-798.5"/>
<text text-anchor="middle" x="173" y="-805.5" font-family="Helvetica,sans-Serif" font-size="10.00">ArrowAnimation</text>
</a>
</g>
</g>
<!-- Node5&#45;&gt;Node12 -->
<g id="edge7" class="edge">
<title>Node5&#45;&gt;Node12</title>
<path fill="none" stroke="midnightblue" d="M42.39,-542.85C43.21,-591.45 52.05,-717.61 119,-789 122.61,-792.85 127.06,-795.92 131.82,-798.37"/>
<polygon fill="midnightblue" stroke="midnightblue" points="45.89,-542.7 42.32,-532.73 38.89,-542.75 45.89,-542.7"/>
</g>
<!-- Node13 -->
<g id="node9" class="node">
<title>Node13</title>
<g id="a_node9"><a xlink:href="class_background_scaling.xhtml" target="_top" xlink:title=" ">
<polygon fill="white" stroke="black" points="122.5,-760.5 122.5,-779.5 223.5,-779.5 223.5,-760.5 122.5,-760.5"/>
<text text-anchor="middle" x="173" y="-767.5" font-family="Helvetica,sans-Serif" font-size="10.00">BackgroundScaling</text>
</a>
</g>
</g>
<!-- Node5&#45;&gt;Node13 -->
<g id="edge8" class="edge">
<title>Node5&#45;&gt;Node13</title>
<path fill="none" stroke="midnightblue" d="M43.53,-542.92C46.85,-586.59 60.8,-691.59 119,-751 122.83,-754.91 127.52,-758.02 132.51,-760.49"/>
<polygon fill="midnightblue" stroke="midnightblue" points="47.01,-542.51 42.87,-532.76 40.03,-542.96 47.01,-542.51"/>
</g>
<!-- Node14 -->
<g id="node10" class="node">
<title>Node14</title>
<g id="a_node10"><a xlink:href="class_basic_attack.xhtml" target="_top" xlink:title=" ">
<polygon fill="white" stroke="black" points="138,-722.5 138,-741.5 208,-741.5 208,-722.5 138,-722.5"/>
<text text-anchor="middle" x="173" y="-729.5" font-family="Helvetica,sans-Serif" font-size="10.00">BasicAttack</text>
</a>
</g>
</g>
<!-- Node5&#45;&gt;Node14 -->
<g id="edge9" class="edge">
<title>Node5&#45;&gt;Node14</title>
<path fill="none" stroke="midnightblue" d="M45.13,-543.19C51.17,-581.56 69.54,-665.41 119,-713 124.28,-718.08 131.02,-721.82 137.9,-724.56"/>
<polygon fill="midnightblue" stroke="midnightblue" points="48.53,-542.23 43.63,-532.84 41.6,-543.23 48.53,-542.23"/>
</g>
<!-- Node15 -->
<g id="node11" class="node">
<title>Node15</title>
<g id="a_node11"><a xlink:href="class_billboard.xhtml" target="_top" xlink:title=" ">
<polygon fill="white" stroke="black" points="146,-684.5 146,-703.5 200,-703.5 200,-684.5 146,-684.5"/>
<text text-anchor="middle" x="173" y="-691.5" font-family="Helvetica,sans-Serif" font-size="10.00">Billboard</text>
</a>
</g>
</g>
<!-- Node5&#45;&gt;Node15 -->
<g id="edge10" class="edge">
<title>Node5&#45;&gt;Node15</title>
<path fill="none" stroke="midnightblue" d="M47.29,-542.68C56.1,-574.8 77.83,-638.57 119,-675 126.54,-681.67 136.59,-686.05 145.91,-688.9"/>
<polygon fill="midnightblue" stroke="midnightblue" points="50.61,-541.53 44.71,-532.73 43.83,-543.29 50.61,-541.53"/>
</g>
<!-- Node16 -->
<g id="node12" class="node">
<title>Node16</title>
<g id="a_node12"><a xlink:href="class_connection_manager.xhtml" target="_top" xlink:title=" ">
<polygon fill="white" stroke="black" points="121.5,-646.5 121.5,-665.5 224.5,-665.5 224.5,-646.5 121.5,-646.5"/>
<text text-anchor="middle" x="173" y="-653.5" font-family="Helvetica,sans-Serif" font-size="10.00">ConnectionManager</text>
</a>
</g>
</g>
<!-- Node5&#45;&gt;Node16 -->
<g id="edge11" class="edge">
<title>Node5&#45;&gt;Node16</title>
<path fill="none" stroke="midnightblue" d="M50.59,-541.98C62.22,-567.11 85.95,-611.25 119,-637 123.93,-640.85 129.71,-643.96 135.61,-646.46"/>
<polygon fill="midnightblue" stroke="midnightblue" points="53.75,-540.48 46.48,-532.77 47.36,-543.33 53.75,-540.48"/>
</g>
<!-- Node17 -->
<g id="node13" class="node">
<title>Node17</title>
<g id="a_node13"><a xlink:href="class_effect_manager.xhtml" target="_top" xlink:title=" ">
<polygon fill="white" stroke="black" points="133.5,-608.5 133.5,-627.5 212.5,-627.5 212.5,-608.5 133.5,-608.5"/>
<text text-anchor="middle" x="173" y="-615.5" font-family="Helvetica,sans-Serif" font-size="10.00">EffectManager</text>
</a>
</g>
</g>
<!-- Node5&#45;&gt;Node17 -->
<g id="edge12" class="edge">
<title>Node5&#45;&gt;Node17</title>
<path fill="none" stroke="midnightblue" d="M56.22,-540.54C70.34,-557.56 93.79,-583.08 119,-599 124.95,-602.76 131.75,-605.9 138.44,-608.49"/>
<polygon fill="midnightblue" stroke="midnightblue" points="58.74,-538.09 49.73,-532.51 53.29,-542.49 58.74,-538.09"/>
</g>
<!-- Node18 -->
<g id="node14" class="node">
<title>Node18</title>
<g id="a_node14"><a xlink:href="class_inventory.xhtml" target="_top" xlink:title=" ">
<polygon fill="white" stroke="black" points="145.5,-570.5 145.5,-589.5 200.5,-589.5 200.5,-570.5 145.5,-570.5"/>
<text text-anchor="middle" x="173" y="-577.5" font-family="Helvetica,sans-Serif" font-size="10.00">Inventory</text>
</a>
</g>
</g>
<!-- Node5&#45;&gt;Node18 -->
<g id="edge13" class="edge">
<title>Node5&#45;&gt;Node18</title>
<path fill="none" stroke="midnightblue" d="M69.1,-537.17C83.64,-544.67 102.1,-553.8 119,-561 127.45,-564.6 136.84,-568.12 145.35,-571.13"/>
<polygon fill="midnightblue" stroke="midnightblue" points="70.64,-534.03 60.15,-532.51 67.4,-540.23 70.64,-534.03"/>
</g>
<!-- Node19 -->
<g id="node15" class="node">
<title>Node19</title>
<g id="a_node15"><a xlink:href="class_mannequin.xhtml" target="_top" xlink:title=" ">
<polygon fill="white" stroke="black" points="141,-532.5 141,-551.5 205,-551.5 205,-532.5 141,-532.5"/>
<text text-anchor="middle" x="173" y="-539.5" font-family="Helvetica,sans-Serif" font-size="10.00">Mannequin</text>
</a>
</g>
</g>
<!-- Node5&#45;&gt;Node19 -->
<g id="edge14" class="edge">
<title>Node5&#45;&gt;Node19</title>
<path fill="none" stroke="midnightblue" d="M93.45,-530.48C109.51,-532.83 126.75,-535.36 140.98,-537.45"/>
<polygon fill="midnightblue" stroke="midnightblue" points="93.52,-526.95 83.12,-528.96 92.51,-533.87 93.52,-526.95"/>
</g>
<!-- Node20 -->
<g id="node16" class="node">
<title>Node20</title>
<g id="a_node16"><a xlink:href="class_model_player_mediator.xhtml" target="_top" xlink:title=" ">
<polygon fill="white" stroke="black" points="119,-494.5 119,-513.5 227,-513.5 227,-494.5 119,-494.5"/>
<text text-anchor="middle" x="173" y="-501.5" font-family="Helvetica,sans-Serif" font-size="10.00">ModelPlayerMediator</text>
</a>
</g>
</g>
<!-- Node5&#45;&gt;Node20 -->
<g id="edge15" class="edge">
<title>Node5&#45;&gt;Node20</title>
<path fill="none" stroke="midnightblue" d="M93.14,-515.57C101.53,-514.34 110.24,-513.06 118.69,-511.82"/>
<polygon fill="midnightblue" stroke="midnightblue" points="92.51,-512.13 83.12,-517.04 93.52,-519.05 92.51,-512.13"/>
</g>
<!-- Node21 -->
<g id="node17" class="node">
<title>Node21</title>
<g id="a_node17"><a xlink:href="class_model_sync.xhtml" target="_top" xlink:title=" ">
<polygon fill="white" stroke="black" points="140.5,-456.5 140.5,-475.5 205.5,-475.5 205.5,-456.5 140.5,-456.5"/>
<text text-anchor="middle" x="173" y="-463.5" font-family="Helvetica,sans-Serif" font-size="10.00">ModelSync</text>
</a>
</g>
</g>
<!-- Node5&#45;&gt;Node21 -->
<g id="edge16" class="edge">
<title>Node5&#45;&gt;Node21</title>
<path fill="none" stroke="midnightblue" d="M69.1,-508.83C83.64,-501.33 102.1,-492.2 119,-485 126.82,-481.67 135.45,-478.41 143.43,-475.55"/>
<polygon fill="midnightblue" stroke="midnightblue" points="67.4,-505.77 60.15,-513.49 70.64,-511.97 67.4,-505.77"/>
</g>
<!-- Node22 -->
<g id="node18" class="node">
<title>Node22</title>
<g id="a_node18"><a xlink:href="class_options_menu.xhtml" target="_top" xlink:title=" ">
<polygon fill="white" stroke="black" points="136,-418.5 136,-437.5 210,-437.5 210,-418.5 136,-418.5"/>
<text text-anchor="middle" x="173" y="-425.5" font-family="Helvetica,sans-Serif" font-size="10.00">OptionsMenu</text>
</a>
</g>
</g>
<!-- Node5&#45;&gt;Node22 -->
<g id="edge17" class="edge">
<title>Node5&#45;&gt;Node22</title>
<path fill="none" stroke="midnightblue" d="M56.22,-505.46C70.34,-488.44 93.79,-462.92 119,-447 124.95,-443.24 131.75,-440.1 138.44,-437.51"/>
<polygon fill="midnightblue" stroke="midnightblue" points="53.29,-503.51 49.73,-513.49 58.74,-507.91 53.29,-503.51"/>
</g>
<!-- Node23 -->
<g id="node19" class="node">
<title>Node23</title>
<g id="a_node19"><a xlink:href="class_player_controller.xhtml" target="_top" xlink:title="Player Controller is the main class that handles all the movement of the Player.">
<polygon fill="white" stroke="black" points="130,-380.5 130,-399.5 216,-399.5 216,-380.5 130,-380.5"/>
<text text-anchor="middle" x="173" y="-387.5" font-family="Helvetica,sans-Serif" font-size="10.00">PlayerController</text>
</a>
</g>
</g>
<!-- Node5&#45;&gt;Node23 -->
<g id="edge18" class="edge">
<title>Node5&#45;&gt;Node23</title>
<path fill="none" stroke="midnightblue" d="M50.59,-504.02C62.22,-478.89 85.95,-434.75 119,-409 123.93,-405.15 129.71,-402.04 135.61,-399.54"/>
<polygon fill="midnightblue" stroke="midnightblue" points="47.36,-502.67 46.48,-513.23 53.75,-505.52 47.36,-502.67"/>
</g>
<!-- Node24 -->
<g id="node20" class="node">
<title>Node24</title>
<g id="a_node20"><a xlink:href="class_post_game_menu.xhtml" target="_top" xlink:title=" ">
<polygon fill="white" stroke="black" points="129.5,-342.5 129.5,-361.5 216.5,-361.5 216.5,-342.5 129.5,-342.5"/>
<text text-anchor="middle" x="173" y="-349.5" font-family="Helvetica,sans-Serif" font-size="10.00">PostGameMenu</text>
</a>
</g>
</g>
<!-- Node5&#45;&gt;Node24 -->
<g id="edge19" class="edge">
<title>Node5&#45;&gt;Node24</title>
<path fill="none" stroke="midnightblue" d="M47.29,-503.32C56.1,-471.2 77.83,-407.43 119,-371 123.39,-367.11 128.64,-364.01 134.09,-361.52"/>
<polygon fill="midnightblue" stroke="midnightblue" points="43.83,-502.71 44.71,-513.27 50.61,-504.47 43.83,-502.71"/>
</g>
<!-- Node25 -->
<g id="node21" class="node">
<title>Node25</title>
<g id="a_node21"><a xlink:href="class_press_any_key.xhtml" target="_top" xlink:title=" ">
<polygon fill="white" stroke="black" points="134.5,-304.5 134.5,-323.5 211.5,-323.5 211.5,-304.5 134.5,-304.5"/>
<text text-anchor="middle" x="173" y="-311.5" font-family="Helvetica,sans-Serif" font-size="10.00">PressAnyKey</text>
</a>
</g>
</g>
<!-- Node5&#45;&gt;Node25 -->
<g id="edge20" class="edge">
<title>Node5&#45;&gt;Node25</title>
<path fill="none" stroke="midnightblue" d="M45.13,-502.81C51.17,-464.44 69.54,-380.59 119,-333 123.37,-328.8 128.73,-325.52 134.34,-322.96"/>
<polygon fill="midnightblue" stroke="midnightblue" points="41.6,-502.77 43.63,-513.16 48.53,-503.77 41.6,-502.77"/>
</g>
<!-- Node26 -->
<g id="node22" class="node">
<title>Node26</title>
<g id="a_node22"><a xlink:href="class_profile_panel.xhtml" target="_top" xlink:title=" ">
<polygon fill="white" stroke="black" points="139,-266.5 139,-285.5 207,-285.5 207,-266.5 139,-266.5"/>
<text text-anchor="middle" x="173" y="-273.5" font-family="Helvetica,sans-Serif" font-size="10.00">ProfilePanel</text>
</a>
</g>
</g>
<!-- Node5&#45;&gt;Node26 -->
<g id="edge21" class="edge">
<title>Node5&#45;&gt;Node26</title>
<path fill="none" stroke="midnightblue" d="M43.53,-503.08C46.85,-459.41 60.8,-354.41 119,-295 124.4,-289.48 131.52,-285.56 138.78,-282.78"/>
<polygon fill="midnightblue" stroke="midnightblue" points="40.03,-503.04 42.87,-513.24 47.01,-503.49 40.03,-503.04"/>
</g>
<!-- Node27 -->
<g id="node23" class="node">
<title>Node27</title>
<g id="a_node23"><a xlink:href="class_ranged_attack_follow.xhtml" target="_top" xlink:title=" ">
<polygon fill="white" stroke="black" points="120,-228.5 120,-247.5 226,-247.5 226,-228.5 120,-228.5"/>
<text text-anchor="middle" x="173" y="-235.5" font-family="Helvetica,sans-Serif" font-size="10.00">RangedAttackFollow</text>
</a>
</g>
</g>
<!-- Node5&#45;&gt;Node27 -->
<g id="edge22" class="edge">
<title>Node5&#45;&gt;Node27</title>
<path fill="none" stroke="midnightblue" d="M42.39,-503.15C43.21,-454.55 52.05,-328.39 119,-257 122.61,-253.15 127.06,-250.08 131.82,-247.63"/>
<polygon fill="midnightblue" stroke="midnightblue" points="38.89,-503.25 42.32,-513.27 45.89,-503.3 38.89,-503.25"/>
</g>
<!-- Node28 -->
<g id="node24" class="node">
<title>Node28</title>
<g id="a_node24"><a xlink:href="class_show_ping.xhtml" target="_top" xlink:title=" ">
<polygon fill="white" stroke="black" points="143,-190.5 143,-209.5 203,-209.5 203,-190.5 143,-190.5"/>
<text text-anchor="middle" x="173" y="-197.5" font-family="Helvetica,sans-Serif" font-size="10.00">ShowPing</text>
</a>
</g>
</g>
<!-- Node5&#45;&gt;Node28 -->
<g id="edge23" class="edge">
<title>Node5&#45;&gt;Node28</title>
<path fill="none" stroke="midnightblue" d="M45.03,-503.2C53.14,-442.71 80.19,-261.8 119,-219 125.24,-212.12 134.14,-207.73 142.88,-204.93"/>
<polygon fill="midnightblue" stroke="midnightblue" points="41.53,-502.96 43.7,-513.33 48.47,-503.87 41.53,-502.96"/>
</g>
<!-- Node29 -->
<g id="node25" class="node">
<title>Node29</title>
<g id="a_node25"><a xlink:href="class_singleton.xhtml" target="_top" xlink:title="Singleton Base class.">
<polygon fill="white" stroke="black" points="133,-152.5 133,-171.5 213,-171.5 213,-152.5 133,-152.5"/>
<text text-anchor="middle" x="173" y="-159.5" font-family="Helvetica,sans-Serif" font-size="10.00">Singleton&lt; T &gt;</text>
</a>
</g>
</g>
<!-- Node5&#45;&gt;Node29 -->
<g id="edge24" class="edge">
<title>Node5&#45;&gt;Node29</title>
<path fill="none" stroke="midnightblue" d="M44.42,-503.34C51.16,-438.1 75.69,-230.05 119,-181 122.82,-176.68 127.69,-173.34 132.93,-170.76"/>
<polygon fill="midnightblue" stroke="midnightblue" points="40.92,-503.19 43.4,-513.49 47.88,-503.89 40.92,-503.19"/>
</g>
<!-- Node30 -->
<g id="node26" class="node">
<title>Node30</title>
<g id="a_node26"><a xlink:href="class_stats.xhtml" target="_top" xlink:title="Base class Stats of the entity.">
<polygon fill="white" stroke="black" points="153,-114.5 153,-133.5 193,-133.5 193,-114.5 153,-114.5"/>
<text text-anchor="middle" x="173" y="-121.5" font-family="Helvetica,sans-Serif" font-size="10.00">Stats</text>
</a>
</g>
</g>
<!-- Node5&#45;&gt;Node30 -->
<g id="edge25" class="edge">
<title>Node5&#45;&gt;Node30</title>
<path fill="none" stroke="midnightblue" d="M43.97,-503C49.5,-432.71 71.28,-198.23 119,-143 127.5,-133.16 141.47,-128.42 152.94,-126.13"/>
<polygon fill="midnightblue" stroke="midnightblue" points="40.46,-502.92 43.19,-513.16 47.44,-503.45 40.46,-502.92"/>
</g>
<!-- Node36 -->
<g id="node32" class="node">
<title>Node36</title>
<g id="a_node32"><a xlink:href="class_u_i_controller.xhtml" target="_top" xlink:title=" ">
<polygon fill="white" stroke="black" points="139.5,-57.5 139.5,-76.5 206.5,-76.5 206.5,-57.5 139.5,-57.5"/>
<text text-anchor="middle" x="173" y="-64.5" font-family="Helvetica,sans-Serif" font-size="10.00">UIController</text>
</a>
</g>
</g>
<!-- Node5&#45;&gt;Node36 -->
<g id="edge31" class="edge">
<title>Node5&#45;&gt;Node36</title>
<path fill="none" stroke="midnightblue" d="M44.18,-502.92C50.67,-429.03 75.89,-173.02 119,-105 126.88,-92.57 140.42,-82.96 151.85,-76.52"/>
<polygon fill="midnightblue" stroke="midnightblue" points="40.67,-502.9 43.3,-513.16 47.65,-503.5 40.67,-502.9"/>
</g>
<!-- Node1 -->
<g id="node3" class="node">
<title>Node1</title>
<g id="a_node3"><a xlink:href="class_ability___lis1.xhtml" target="_top" xlink:title=" ">
<polygon fill="white" stroke="black" points="280.5,-969.5 280.5,-988.5 347.5,-988.5 347.5,-969.5 280.5,-969.5"/>
<text text-anchor="middle" x="314" y="-976.5" font-family="Helvetica,sans-Serif" font-size="10.00">Ability_Lis1</text>
</a>
</g>
</g>
<!-- Node0&#45;&gt;Node1 -->
<g id="edge2" class="edge">
<title>Node0&#45;&gt;Node1</title>
<path fill="none" stroke="midnightblue" d="M216.32,-965.78C236.93,-968.6 261.32,-971.94 280.45,-974.55"/>
<polygon fill="midnightblue" stroke="midnightblue" points="216.62,-962.29 206.24,-964.41 215.67,-969.23 216.62,-962.29"/>
</g>
<!-- Node2 -->
<g id="node4" class="node">
<title>Node2</title>
<g id="a_node4"><a xlink:href="class_ability___lis4.xhtml" target="_top" xlink:title=" ">
<polygon fill="white" stroke="black" points="280.5,-931.5 280.5,-950.5 347.5,-950.5 347.5,-931.5 280.5,-931.5"/>
<text text-anchor="middle" x="314" y="-938.5" font-family="Helvetica,sans-Serif" font-size="10.00">Ability_Lis4</text>
</a>
</g>
</g>
<!-- Node0&#45;&gt;Node2 -->
<g id="edge3" class="edge">
<title>Node0&#45;&gt;Node2</title>
<path fill="none" stroke="midnightblue" d="M216.32,-954.22C236.93,-951.4 261.32,-948.06 280.45,-945.45"/>
<polygon fill="midnightblue" stroke="midnightblue" points="215.67,-950.77 206.24,-955.59 216.62,-957.71 215.67,-950.77"/>
</g>
<!-- Node31 -->
<g id="node27" class="node">
<title>Node31</title>
<g id="a_node27"><a xlink:href="class_ability_affected_stats.xhtml" target="_top" xlink:title="Base class Stats of the entity who is affected by Abilities.">
<polygon fill="white" stroke="black" points="263,-152.5 263,-171.5 365,-171.5 365,-152.5 263,-152.5"/>
<text text-anchor="middle" x="314" y="-159.5" font-family="Helvetica,sans-Serif" font-size="10.00">AbilityAffectedStats</text>
</a>
</g>
</g>
<!-- Node30&#45;&gt;Node31 -->
<g id="edge26" class="edge">
<title>Node30&#45;&gt;Node31</title>
<path fill="none" stroke="midnightblue" d="M202.75,-131.86C224.65,-137.85 254.89,-146.11 278.16,-152.48"/>
<polygon fill="midnightblue" stroke="midnightblue" points="203.6,-128.47 193.04,-129.2 201.76,-135.22 203.6,-128.47"/>
</g>
<!-- Node35 -->
<g id="node31" class="node">
<title>Node35</title>
<g id="a_node31"><a xlink:href="class_nexus_stats.xhtml" target="_top" xlink:title=" ">
<polygon fill="white" stroke="black" points="280,-114.5 280,-133.5 348,-133.5 348,-114.5 280,-114.5"/>
<text text-anchor="middle" x="314" y="-121.5" font-family="Helvetica,sans-Serif" font-size="10.00">NexusStats</text>
</a>
</g>
</g>
<!-- Node30&#45;&gt;Node35 -->
<g id="edge30" class="edge">
<title>Node30&#45;&gt;Node35</title>
<path fill="none" stroke="midnightblue" d="M203.27,-124C225.64,-124 256.51,-124 279.8,-124"/>
<polygon fill="midnightblue" stroke="midnightblue" points="203.04,-120.5 193.04,-124 203.04,-127.5 203.04,-120.5"/>
</g>
<!-- Node32 -->
<g id="node28" class="node">
<title>Node32</title>
<g id="a_node28"><a xlink:href="class_minion_stats.xhtml" target="_top" xlink:title=" ">
<polygon fill="white" stroke="black" points="401,-171.5 401,-190.5 469,-190.5 469,-171.5 401,-171.5"/>
<text text-anchor="middle" x="435" y="-178.5" font-family="Helvetica,sans-Serif" font-size="10.00">MinionStats</text>
</a>
</g>
</g>
<!-- Node31&#45;&gt;Node32 -->
<g id="edge27" class="edge">
<title>Node31&#45;&gt;Node32</title>
<path fill="none" stroke="midnightblue" d="M375.1,-171.6C383.97,-173.01 392.81,-174.42 400.86,-175.71"/>
<polygon fill="midnightblue" stroke="midnightblue" points="375.55,-168.12 365.12,-170 374.44,-175.04 375.55,-168.12"/>
</g>
<!-- Node33 -->
<g id="node29" class="node">
<title>Node33</title>
<g id="a_node29"><a xlink:href="class_player_stats.xhtml" target="_top" xlink:title="Player Stats is the main class that controls all the Player Statistics in all time in the game execut...">
<polygon fill="white" stroke="black" points="401,-133.5 401,-152.5 469,-152.5 469,-133.5 401,-133.5"/>
<text text-anchor="middle" x="435" y="-140.5" font-family="Helvetica,sans-Serif" font-size="10.00">PlayerStats</text>
</a>
</g>
</g>
<!-- Node31&#45;&gt;Node33 -->
<g id="edge28" class="edge">
<title>Node31&#45;&gt;Node33</title>
<path fill="none" stroke="midnightblue" d="M375.1,-152.4C383.97,-150.99 392.81,-149.58 400.86,-148.29"/>
<polygon fill="midnightblue" stroke="midnightblue" points="374.44,-148.96 365.12,-154 375.55,-155.88 374.44,-148.96"/>
</g>
<!-- Node34 -->
<g id="node30" class="node">
<title>Node34</title>
<g id="a_node30"><a xlink:href="class_mannequin_stats.xhtml" target="_top" xlink:title=" ">
<polygon fill="white" stroke="black" points="505,-133.5 505,-152.5 592,-152.5 592,-133.5 505,-133.5"/>
<text text-anchor="middle" x="548.5" y="-140.5" font-family="Helvetica,sans-Serif" font-size="10.00">MannequinStats</text>
</a>
</g>
</g>
<!-- Node33&#45;&gt;Node34 -->
<g id="edge29" class="edge">
<title>Node33&#45;&gt;Node34</title>
<path fill="none" stroke="midnightblue" d="M479.43,-143C487.75,-143 496.45,-143 504.75,-143"/>
<polygon fill="midnightblue" stroke="midnightblue" points="479.15,-139.5 469.15,-143 479.15,-146.5 479.15,-139.5"/>
</g>
<!-- Node37 -->
<g id="node33" class="node">
<title>Node37</title>
<g id="a_node33"><a xlink:href="class_minion_u_i_controller.xhtml" target="_top" xlink:title=" ">
<polygon fill="white" stroke="black" points="266.5,-76.5 266.5,-95.5 361.5,-95.5 361.5,-76.5 266.5,-76.5"/>
<text text-anchor="middle" x="314" y="-83.5" font-family="Helvetica,sans-Serif" font-size="10.00">MinionUIController</text>
</a>
</g>
</g>
<!-- Node36&#45;&gt;Node37 -->
<g id="edge32" class="edge">
<title>Node36&#45;&gt;Node37</title>
<path fill="none" stroke="midnightblue" d="M216.59,-72.82C232.35,-74.98 250.3,-77.43 266.4,-79.63"/>
<polygon fill="midnightblue" stroke="midnightblue" points="216.97,-69.34 206.59,-71.45 216.02,-76.28 216.97,-69.34"/>
</g>
<!-- Node38 -->
<g id="node34" class="node">
<title>Node38</title>
<g id="a_node34"><a xlink:href="class_nexus_u_i_controller.xhtml" target="_top" xlink:title=" ">
<polygon fill="white" stroke="black" points="266.5,-38.5 266.5,-57.5 361.5,-57.5 361.5,-38.5 266.5,-38.5"/>
<text text-anchor="middle" x="314" y="-45.5" font-family="Helvetica,sans-Serif" font-size="10.00">NexusUIController</text>
</a>
</g>
</g>
<!-- Node36&#45;&gt;Node38 -->
<g id="edge33" class="edge">
<title>Node36&#45;&gt;Node38</title>
<path fill="none" stroke="midnightblue" d="M216.59,-61.18C232.35,-59.02 250.3,-56.57 266.4,-54.37"/>
<polygon fill="midnightblue" stroke="midnightblue" points="216.02,-57.72 206.59,-62.55 216.97,-64.66 216.02,-57.72"/>
</g>
<!-- Node39 -->
<g id="node35" class="node">
<title>Node39</title>
<g id="a_node35"><a xlink:href="class_player_u_i_controller.xhtml" target="_top" xlink:title="UI Controller for the Player Stats">
<polygon fill="white" stroke="black" points="266.5,-0.5 266.5,-19.5 361.5,-19.5 361.5,-0.5 266.5,-0.5"/>
<text text-anchor="middle" x="314" y="-7.5" font-family="Helvetica,sans-Serif" font-size="10.00">PlayerUIController</text>
</a>
</g>
</g>
<!-- Node36&#45;&gt;Node39 -->
<g id="edge34" class="edge">
<title>Node36&#45;&gt;Node39</title>
<path fill="none" stroke="midnightblue" d="M205.29,-53.27C222.29,-45.91 243.72,-36.77 263,-29 270.84,-25.84 279.42,-22.52 287.23,-19.57"/>
<polygon fill="midnightblue" stroke="midnightblue" points="203.62,-50.19 195.84,-57.38 206.41,-56.6 203.62,-50.19"/>
</g>
</g>
</svg>
