<?xml version="1.0" encoding="UTF-8" standalone="no"?>
<!DOCTYPE svg PUBLIC "-//W3C//DTD SVG 1.1//EN"
 "http://www.w3.org/Graphics/SVG/1.1/DTD/svg11.dtd">
<!-- Generated by graphviz version 2.47.3 (20210619.1520)
 -->
<!-- Title: Photon.Pun.UtilityScripts.IPunTurnManagerCallbacks.OnPlayerMove Pages: 1 -->
<svg width="585pt" height="88pt"
 viewBox="0.00 0.00 585.00 88.00" xmlns="http://www.w3.org/2000/svg" xmlns:xlink="http://www.w3.org/1999/xlink">
<g id="graph0" class="graph" transform="scale(1 1) rotate(0) translate(4 84)">
<title>Photon.Pun.UtilityScripts.IPunTurnManagerCallbacks.OnPlayerMove</title>
<polygon fill="white" stroke="transparent" points="-4,4 -4,-84 581,-84 581,4 -4,4"/>
<!-- Node1 -->
<g id="node1" class="node">
<title>Node1</title>
<g id="a_node1"><a xlink:title="Called when a player moved (but did not finish the turn)">
<polygon fill="#bfbfbf" stroke="black" points="376,-24.5 376,-54.5 577,-54.5 577,-24.5 376,-24.5"/>
<text text-anchor="start" x="384" y="-42.5" font-family="Helvetica,sans-Serif" font-size="10.00">Photon.Pun.UtilityScripts.</text>
<text text-anchor="middle" x="476.5" y="-31.5" font-family="Helvetica,sans-Serif" font-size="10.00">IPunTurnManagerCallbacks.OnPlayerMove</text>
</a>
</g>
</g>
<!-- Node2 -->
<g id="node2" class="node">
<title>Node2</title>
<g id="a_node2"><a xlink:href="class_photon_1_1_pun_1_1_utility_scripts_1_1_pun_turn_manager.xhtml#afaecec4343f2e625048fe57118d1df0f" target="_top" xlink:title=" ">
<polygon fill="white" stroke="black" points="174,-24.5 174,-54.5 340,-54.5 340,-24.5 174,-24.5"/>
<text text-anchor="start" x="182" y="-42.5" font-family="Helvetica,sans-Serif" font-size="10.00">Photon.Pun.UtilityScripts.</text>
<text text-anchor="middle" x="257" y="-31.5" font-family="Helvetica,sans-Serif" font-size="10.00">PunTurnManager.ProcessOnEvent</text>
</a>
</g>
</g>
<!-- Node1&#45;&gt;Node2 -->
<g id="edge1" class="edge">
<title>Node1&#45;&gt;Node2</title>
<path fill="none" stroke="midnightblue" d="M365.86,-39.5C357.23,-39.5 348.61,-39.5 340.21,-39.5"/>
<polygon fill="midnightblue" stroke="midnightblue" points="365.98,-43 375.98,-39.5 365.98,-36 365.98,-43"/>
</g>
<!-- Node3 -->
<g id="node3" class="node">
<title>Node3</title>
<g id="a_node3"><a xlink:href="class_photon_1_1_pun_1_1_utility_scripts_1_1_pun_turn_manager.xhtml#a424cfc42821109e8b15b2c6fd6f6d67f" target="_top" xlink:title="Called by PhotonNetwork.OnEventCall registration">
<polygon fill="white" stroke="black" points="4,-49.5 4,-79.5 134,-79.5 134,-49.5 4,-49.5"/>
<text text-anchor="start" x="12" y="-67.5" font-family="Helvetica,sans-Serif" font-size="10.00">Photon.Pun.UtilityScripts.</text>
<text text-anchor="middle" x="69" y="-56.5" font-family="Helvetica,sans-Serif" font-size="10.00">PunTurnManager.OnEvent</text>
</a>
</g>
</g>
<!-- Node2&#45;&gt;Node3 -->
<g id="edge2" class="edge">
<title>Node2&#45;&gt;Node3</title>
<path fill="none" stroke="midnightblue" d="M163.84,-51.89C153.78,-53.24 143.7,-54.59 134.09,-55.89"/>
<polygon fill="midnightblue" stroke="midnightblue" points="164.43,-55.34 173.88,-50.54 163.5,-48.4 164.43,-55.34"/>
</g>
<!-- Node4 -->
<g id="node4" class="node">
<title>Node4</title>
<g id="a_node4"><a xlink:href="class_photon_1_1_pun_1_1_utility_scripts_1_1_pun_turn_manager.xhtml#af340724c75d6fed806a4c144ca4f0fc0" target="_top" xlink:title="Call to send an action.">
<polygon fill="white" stroke="black" points="0,-0.5 0,-30.5 138,-30.5 138,-0.5 0,-0.5"/>
<text text-anchor="start" x="8" y="-18.5" font-family="Helvetica,sans-Serif" font-size="10.00">Photon.Pun.UtilityScripts.</text>
<text text-anchor="middle" x="69" y="-7.5" font-family="Helvetica,sans-Serif" font-size="10.00">PunTurnManager.SendMove</text>
</a>
</g>
</g>
<!-- Node2&#45;&gt;Node4 -->
<g id="edge3" class="edge">
<title>Node2&#45;&gt;Node4</title>
<path fill="none" stroke="midnightblue" d="M163.74,-27.6C155.08,-26.48 146.42,-25.36 138.04,-24.28"/>
<polygon fill="midnightblue" stroke="midnightblue" points="163.51,-31.09 173.88,-28.9 164.41,-24.15 163.51,-31.09"/>
</g>
</g>
</svg>
